<?xml version="1.0" encoding="UTF-8" standalone="no"?>
<svg xmlns:xlink="http://www.w3.org/1999/xlink" height="29.55px" width="25.9px" xmlns="http://www.w3.org/2000/svg">
  <g transform="matrix(1.0, 0.0, 0.0, 1.0, -3.55, -12.8)">
    <path d="M19.0 15.5 L22.8 13.6 23.2 13.4 24.25 13.35 24.75 13.4 26.25 13.75 26.75 13.9 Q27.75 14.05 28.15 15.05 L28.7 15.55 28.95 15.8 M4.25 15.25 Q3.7 14.75 4.7 14.15 L5.5 13.85 6.55 13.6 6.95 13.6 Q8.0 14.0 8.25 15.25 M14.5 35.25 L14.45 37.6 14.5 37.6 17.5 37.4 Q18.1 37.35 18.55 37.65 L19.0 37.75 19.7 37.75 19.75 36.0 19.65 35.55 Q19.3 34.8 19.6 34.25 L16.25 34.25 15.55 34.15 14.3 33.85 Q14.1 34.25 14.4 34.8 L14.5 35.25 M7.0 32.75 Q6.45 33.05 7.5 33.05 L10.25 33.45 13.0 33.8 14.3 33.85 14.5 33.5 M20.0 33.75 L19.6 34.25 25.5 34.15 25.75 34.1 27.75 33.75 Q28.25 34.0 27.8 34.55 L27.55 35.0 Q26.55 38.35 23.5 40.25 L22.5 41.0 21.5 41.35 21.0 41.5 19.25 41.8 18.75 41.75 16.25 41.85 15.75 41.85 14.5 41.65 14.2 41.55 Q12.35 40.8 11.3 39.7 L9.75 37.75 9.3 37.65 8.25 37.5 M9.75 37.75 L9.25 37.0 8.95 36.55 Q8.05 35.45 8.35 34.0 L8.5 33.5 M9.75 37.75 L14.45 37.6 14.35 38.5 14.25 40.0 14.25 41.25 M24.9 38.15 L24.0 38.0 22.25 37.9 19.7 37.75 19.65 38.75 19.6 39.25 19.55 40.75 19.25 41.8" fill="none" stroke="#000000" stroke-linecap="round" stroke-linejoin="round" stroke-width="1.0"/>
  </g>
</svg>
