<?xml version="1.0" encoding="UTF-8" standalone="no"?>
<svg xmlns:xlink="http://www.w3.org/1999/xlink" height="5.15px" width="45.5px" xmlns="http://www.w3.org/2000/svg">
  <g transform="matrix(1.0, 0.0, 0.0, 1.0, 36.25, 11.4)">
    <path d="M8.05 -9.3 L9.25 -7.0 9.0 -6.65 8.85 -6.5 8.3 -6.25 Q0.9 -10.7 -7.25 -6.8 L-9.0 -6.9 -9.1 -7.05 -9.15 -7.25 -9.1 -7.45 -6.5 -9.4 Q-3.9 -11.3 1.45 -11.4 6.8 -11.55 8.05 -9.3" fill="#e6b380" fill-rule="evenodd" stroke="none"/>
    <path d="M-32.25 -11.0 Q-28.65 -10.4 -27.55 -7.1 L-27.55 -6.95 -27.7 -6.75 -27.85 -6.6 -28.05 -6.85 Q-29.3 -8.1 -30.95 -8.15 L-32.95 -8.5 -33.1 -8.5 -33.3 -8.45 -33.5 -8.25 -33.6 -8.2 -33.95 -8.0 -34.15 -7.8 -34.3 -7.7 -34.6 -7.45 -34.75 -7.45 Q-35.3 -7.4 -35.55 -7.9 L-35.8 -9.1 -36.15 -9.3 -36.25 -9.9 -36.15 -10.45 Q-35.8 -10.9 -35.25 -10.9 L-35.25 -10.95 -35.0 -10.8 -32.75 -10.95 -32.25 -11.0" fill="#e4af7a" fill-rule="evenodd" stroke="none"/>
  </g>
</svg>
