<?xml version="1.0" encoding="UTF-8" standalone="no"?>
<svg xmlns:xlink="http://www.w3.org/1999/xlink" height="5.1px" width="44.9px" xmlns="http://www.w3.org/2000/svg">
  <g transform="matrix(1.0, 0.0, 0.0, 1.0, 36.1, 9.0)">
    <path d="M-34.6 -7.45 L-34.3 -7.7 -34.15 -7.8 -33.95 -8.0 -33.6 -8.2 -33.5 -8.25 -33.3 -8.45 -33.1 -8.5 -32.95 -8.5 -32.9 -8.4 Q-32.75 -8.1 -32.9 -7.8 -33.15 -7.1 -33.95 -7.45 L-34.1 -7.65 -34.3 -7.5 -34.6 -7.45 M-30.95 -8.15 Q-29.3 -8.1 -28.05 -6.85 L-27.85 -6.6 -28.5 -6.25 -29.0 -6.4 -30.05 -7.4 -30.95 -8.15" fill="#e4af7a" fill-rule="evenodd" stroke="none"/>
    <path d="M-9.7 -4.4 Q-8.4 -7.4 -2.4 -7.7 3.6 -8.0 5.75 -6.8 L8.3 -5.25 M-34.6 -7.45 L-34.3 -7.7 -34.15 -7.8 -33.95 -8.0 -33.6 -8.2 -33.5 -8.25 -33.3 -8.45 -33.1 -8.5 -32.95 -8.5 -30.95 -8.15 Q-29.3 -8.1 -28.05 -6.85 L-27.85 -6.6 -26.5 -4.75 M-34.6 -7.45 L-34.7 -7.35 -35.25 -6.75 Q-35.7 -6.5 -35.6 -6.0" fill="none" stroke="#000000" stroke-linecap="round" stroke-linejoin="round" stroke-width="1.0"/>
  </g>
</svg>
