<?xml version="1.0" encoding="UTF-8" standalone="no"?>
<svg xmlns:xlink="http://www.w3.org/1999/xlink" height="4.4px" width="45.95px" xmlns="http://www.w3.org/2000/svg">
  <g transform="matrix(1.0, 0.0, 0.0, 1.0, 36.1, 8.65)">
    <path d="M-30.95 -8.15 Q-29.3 -8.1 -28.05 -6.85 L-27.85 -6.6 -28.5 -6.25 -29.0 -6.4 -30.05 -7.4 -30.95 -8.15 M-33.9 -7.5 L-32.8 -8.15 -32.9 -7.8 -33.9 -7.5" fill="#e4af7a" fill-rule="evenodd" stroke="none"/>
    <path d="M-9.4 -5.15 Q-7.65 -6.85 -1.6 -7.7 4.45 -8.55 6.7 -7.1 8.95 -5.65 9.35 -5.5 M-32.8 -8.15 L-30.95 -8.15 Q-29.3 -8.1 -28.05 -6.85 L-27.85 -6.6 -26.5 -4.75 M-33.9 -7.5 L-32.8 -8.15 M-34.7 -7.35 L-35.25 -6.75 Q-35.7 -6.5 -35.6 -6.0" fill="none" stroke="#000000" stroke-linecap="round" stroke-linejoin="round" stroke-width="1.0"/>
  </g>
</svg>
