<?xml version="1.0" encoding="UTF-8" standalone="no"?>
<svg xmlns:xlink="http://www.w3.org/1999/xlink" height="4.1px" width="44.2px" xmlns="http://www.w3.org/2000/svg">
  <g transform="matrix(1.0, 0.0, 0.0, 1.0, 35.75, 9.9)">
    <path d="M6.05 -5.95 L3.25 -6.85 Q-0.2 -8.25 -3.9 -7.8 L-4.1 -7.85 -6.95 -7.05 Q-8.0 -6.55 -8.7 -6.7 L-9.1 -6.85 Q-9.7 -7.2 -10.0 -8.15 -9.05 -8.9 -7.85 -9.25 L-4.95 -9.85 Q1.7 -10.25 7.85 -8.25 8.4 -8.1 8.45 -7.5 8.7 -5.25 6.05 -5.95 M-33.85 -8.95 Q-30.95 -9.35 -28.25 -8.2 -27.55 -8.15 -27.4 -7.5 L-27.4 -7.45 -27.6 -7.0 Q-28.2 -6.2 -29.4 -7.0 L-30.1 -7.2 -30.5 -6.9 -30.65 -6.7 -30.85 -6.65 -31.2 -6.65 Q-31.6 -6.2 -32.2 -6.2 L-32.4 -6.2 -32.5 -6.15 -32.75 -6.0 -34.15 -6.05 -35.1 -5.95 -35.2 -6.05 -35.2 -6.1 -35.35 -6.25 -35.7 -8.0 Q-35.95 -8.75 -35.1 -9.2 L-34.5 -9.35 -33.9 -9.0 -33.85 -8.95" fill="#e6b380" fill-rule="evenodd" stroke="none"/>
  </g>
</svg>
