<?xml version="1.0" encoding="UTF-8" standalone="no"?>
<svg xmlns:xlink="http://www.w3.org/1999/xlink" height="3.4px" width="44.55px" xmlns="http://www.w3.org/2000/svg">
  <g transform="matrix(1.0, 0.0, 0.0, 1.0, 36.0, 8.9)">
    <path d="M-9.1 -6.85 L-8.7 -6.7 -8.2 -6.75 -7.1 -7.05 Q-6.95 -7.05 -6.85 -7.15 L-5.6 -7.75 -4.1 -8.05 -3.85 -8.1 -2.7 -8.3 -2.35 -8.35 -0.85 -8.4 1.05 -8.15 3.9 -7.6 5.15 -7.4 6.15 -7.05 6.4 -6.95 7.65 -6.75 8.05 -6.75 M-27.6 -7.0 L-27.9 -7.1 -29.5 -7.25 -31.15 -7.5 -33.45 -7.25 -35.2 -6.1 -35.5 -6.0" fill="none" stroke="#422100" stroke-linecap="round" stroke-linejoin="round" stroke-width="1.0"/>
  </g>
</svg>
