<?xml version="1.0" encoding="UTF-8" standalone="no"?>
<svg xmlns:xlink="http://www.w3.org/1999/xlink" height="4.75px" width="43.6px" xmlns="http://www.w3.org/2000/svg">
  <g transform="matrix(1.0, 0.0, 0.0, 1.0, 34.9, 9.4)">
    <path d="M8.65 -8.1 L8.7 -8.0 Q8.35 -6.45 6.55 -7.1 L5.05 -7.35 Q-1.8 -7.35 -8.3 -5.45 -9.75 -5.0 -11.3 -4.7 -11.9 -4.55 -12.15 -5.0 L-12.15 -5.1 -12.15 -5.3 -12.1 -5.4 -12.0 -5.5 Q-7.0 -8.25 -1.3 -8.5 1.5 -8.6 4.05 -9.25 6.95 -9.8 8.65 -8.1 M-28.9 -5.7 Q-28.8 -5.2 -29.35 -5.25 -30.4 -5.3 -31.35 -6.0 -32.8 -7.1 -34.55 -6.6 L-34.9 -6.85 Q-35.0 -8.25 -33.35 -8.5 L-32.3 -8.6 Q-29.45 -8.1 -28.9 -5.7" fill="#e6b380" fill-rule="evenodd" stroke="none"/>
  </g>
</svg>
