<?xml version="1.0" encoding="UTF-8" standalone="no"?>
<svg xmlns:xlink="http://www.w3.org/1999/xlink" height="5.5px" width="45.25px" xmlns="http://www.w3.org/2000/svg">
  <g transform="matrix(1.0, 0.0, 0.0, 1.0, 34.05, 7.0)">
    <path d="M-9.05 -3.75 Q-8.7 -4.9 -7.3 -4.9 L-6.8 -4.9 -3.3 -5.15 -1.8 -5.35 Q-0.75 -5.5 0.25 -5.9 L0.7 -6.0 2.2 -6.25 5.45 -6.5 M10.45 -5.25 L10.7 -6.0 M6.95 -4.75 Q7.7 -5.0 7.8 -5.75 L7.7 -6.25 M-33.55 -6.0 L-29.8 -5.8 -26.7 -4.45 M-33.05 -3.25 L-32.3 -3.25 M-32.05 -4.75 L-30.3 -5.0 -30.05 -5.0 M-6.3 -4.25 L-1.55 -3.95 -0.05 -3.95 0.95 -4.0 M-3.05 -2.25 L-0.8 -2.05 -0.05 -2.0" fill="none" stroke="#000000" stroke-linecap="round" stroke-linejoin="round" stroke-width="1.0"/>
  </g>
</svg>
