<?xml version="1.0" encoding="UTF-8" standalone="no"?>
<svg xmlns:xlink="http://www.w3.org/1999/xlink" height="5.3px" width="46.1px" xmlns="http://www.w3.org/2000/svg">
  <g transform="matrix(1.0, 0.0, 0.0, 1.0, 36.25, 11.75)">
    <path d="M9.85 -8.15 L9.85 -8.0 9.6 -7.65 9.45 -7.5 8.9 -7.25 Q1.5 -11.7 -6.65 -7.8 L-8.4 -7.9 -8.5 -8.05 -8.55 -8.25 -8.5 -8.45 -8.4 -8.65 Q-3.3 -11.6 2.65 -11.75 7.4 -11.75 9.85 -8.15" fill="#e6b380" fill-rule="evenodd" stroke="none"/>
    <path d="M-32.25 -11.0 Q-28.65 -10.4 -27.55 -7.1 L-27.55 -6.95 -27.7 -6.75 -27.85 -6.6 -28.1 -6.45 -28.35 -6.65 Q-28.9 -7.05 -29.75 -7.2 L-29.8 -7.2 -30.05 -7.4 -30.95 -8.15 -32.85 -7.75 -32.85 -7.9 -32.85 -7.85 -32.9 -7.8 Q-33.15 -7.1 -33.95 -7.45 L-34.1 -7.65 -34.3 -7.5 -34.6 -7.45 -34.75 -7.45 Q-35.3 -7.4 -35.55 -7.9 L-35.8 -9.1 -36.15 -9.3 -36.25 -9.9 -36.15 -10.45 Q-35.8 -10.9 -35.25 -10.9 L-35.25 -10.95 -35.0 -10.8 -32.75 -10.95 -32.25 -11.0" fill="#e4af7a" fill-rule="evenodd" stroke="none"/>
  </g>
</svg>
