<?xml version="1.0" encoding="UTF-8" standalone="no"?>
<svg xmlns:xlink="http://www.w3.org/1999/xlink" height="6.65px" width="46.1px" xmlns="http://www.w3.org/2000/svg">
  <g transform="matrix(1.0, 0.0, 0.0, 1.0, 36.25, 12.9)">
    <path d="M8.65 -10.1 L9.85 -8.0 9.6 -7.65 9.45 -7.5 8.9 -7.25 Q2.45 -12.25 -2.15 -10.0 -3.15 -9.5 -4.0 -9.15 L-5.7 -8.4 -7.65 -7.85 -8.5 -8.05 -8.55 -8.25 -8.5 -8.45 -5.9 -11.0 Q-3.3 -13.45 2.05 -12.75 7.4 -12.1 8.65 -10.1" fill="#e6b380" fill-rule="evenodd" stroke="none"/>
    <path d="M-35.25 -10.95 L-34.4 -11.05 -32.9 -11.25 -30.4 -10.8 Q-28.65 -10.4 -27.55 -7.1 L-27.55 -6.95 -27.7 -6.75 -27.85 -6.6 -28.5 -6.25 -29.0 -6.4 -30.05 -7.4 -30.95 -8.65 Q-31.95 -9.4 -32.95 -8.5 L-33.1 -8.5 -33.3 -8.45 -33.5 -8.25 -33.6 -8.2 -33.95 -8.0 -34.15 -7.8 -34.3 -7.7 -34.6 -7.45 -34.75 -7.45 Q-35.3 -7.4 -35.55 -7.9 L-35.8 -9.1 -36.15 -9.3 -36.25 -9.9 -36.15 -10.45 Q-35.8 -10.9 -35.25 -10.9 L-35.25 -10.95" fill="#e4af7a" fill-rule="evenodd" stroke="none"/>
  </g>
</svg>
