<?xml version="1.0" encoding="UTF-8" standalone="no"?>
<svg xmlns:xlink="http://www.w3.org/1999/xlink" height="4.65px" width="43.45px" xmlns="http://www.w3.org/2000/svg">
  <g transform="matrix(1.0, 0.0, 0.0, 1.0, 35.85, 11.3)">
    <path d="M2.05 -8.6 Q-0.5 -9.55 -3.3 -9.3 L-5.65 -9.3 -5.8 -9.25 Q-7.35 -8.9 -8.7 -8.1 -9.55 -7.6 -10.2 -8.1 -9.95 -8.9 -9.15 -9.3 -6.7 -10.65 -3.8 -11.1 L-3.3 -11.2 Q2.55 -11.8 7.5 -9.5 L7.6 -9.35 Q5.75 -7.2 2.05 -8.6 M-31.7 -8.15 L-31.6 -8.0 -31.55 -7.8 Q-31.5 -7.5 -31.75 -7.25 L-31.85 -7.05 Q-34.25 -6.0 -35.85 -7.55 L-35.85 -7.75 -35.75 -8.1 -35.7 -8.3 Q-34.55 -9.0 -33.25 -8.7 -32.25 -8.9 -31.7 -8.15" fill="#e6b380" fill-rule="evenodd" stroke="none"/>
  </g>
</svg>
