<?xml version="1.0" encoding="UTF-8" standalone="no"?>
<svg xmlns:xlink="http://www.w3.org/1999/xlink" height="5.0px" width="44.85px" xmlns="http://www.w3.org/2000/svg">
  <g transform="matrix(1.0, 0.0, 0.0, 1.0, 36.75, 11.3)">
    <path d="M5.65 -9.8 Q6.35 -9.55 6.35 -8.85 L7.65 -7.95 8.1 -7.25 Q7.7 -5.6 6.15 -6.75 L5.05 -7.55 Q0.75 -7.85 -3.5 -9.05 -6.35 -9.8 -8.75 -8.25 L-8.75 -8.2 -8.85 -7.9 -8.95 -7.8 -9.05 -7.75 Q-9.45 -7.55 -9.75 -7.95 -9.85 -10.25 -7.35 -10.9 L-3.25 -11.15 0.35 -11.3 Q3.05 -10.8 5.65 -9.8 M-34.85 -11.2 Q-31.35 -10.8 -28.55 -8.9 L-28.45 -8.6 Q-29.65 -7.35 -31.65 -8.15 L-32.35 -8.35 Q-32.9 -7.6 -33.85 -8.0 L-34.1 -8.1 Q-34.45 -7.6 -35.05 -7.75 L-35.35 -7.75 Q-36.2 -8.15 -36.65 -9.05 -36.85 -9.55 -36.65 -10.1 -36.4 -10.45 -36.0 -10.45 L-35.8 -10.45 -35.4 -10.9 -35.2 -11.1 -34.85 -11.15 -34.85 -11.2" fill="#e6b380" fill-rule="evenodd" stroke="none"/>
  </g>
</svg>
