<?xml version="1.0" encoding="UTF-8" standalone="no"?>
<svg xmlns:xlink="http://www.w3.org/1999/xlink" height="12.95px" width="44.95px" xmlns="http://www.w3.org/2000/svg">
  <g transform="matrix(1.0, 0.0, 0.0, 1.0, 36.75, 8.2)">
    <path d="M-36.0 -3.6 Q-35.6 -4.7 -34.75 -5.4 -32.7 -6.15 -30.6 -6.3 -29.35 -6.3 -28.95 -5.15 L-29.3 -4.4 -30.55 -2.1 Q-31.55 -0.4 -33.2 0.25 -35.0 1.0 -36.6 -0.05 L-36.75 -0.6 -36.0 -3.6" fill="url(#gradient0)" fill-rule="evenodd" stroke="none"/>
    <path d="M-9.9 -6.1 L-9.2 -6.2 -8.7 -6.1 1.9 -4.6 Q10.55 -5.4 7.35 3.25 6.95 4.35 6.05 4.5 -6.2 6.35 -10.6 -5.6 L-10.3 -6.0 -9.9 -6.1" fill="url(#gradient1)" fill-rule="evenodd" stroke="none"/>
    <path d="M-9.9 -6.1 Q-7.75 -7.5 -5.15 -7.55 L-4.65 -7.6 -1.65 -7.7 1.1 -7.45 3.85 -6.75 5.85 -6.0 7.2 -4.9 M-35.35 -6.25 Q-34.65 -6.95 -33.75 -7.0 L-33.25 -7.1 -32.85 -7.15 -30.25 -7.2 Q-29.0 -7.2 -28.0 -6.65 L-27.6 -6.5 -26.75 -5.9" fill="none" stroke="#422100" stroke-linecap="round" stroke-linejoin="round" stroke-width="1.0"/>
  </g>
  <defs>
    <radialGradient cx="0" cy="0" gradientTransform="matrix(0.0057, 0.0, 0.0, 0.0057, -33.0, -3.35)" gradientUnits="userSpaceOnUse" id="gradient0" r="819.2" spreadMethod="pad">
      <stop offset="0.0" stop-color="#078917" stop-opacity="0.3137255"/>
      <stop offset="1.0" stop-color="#078917" stop-opacity="0.0"/>
    </radialGradient>
    <radialGradient cx="0" cy="0" gradientTransform="matrix(0.0129, 0.0, 0.0, 0.0129, -0.85, -4.1)" gradientUnits="userSpaceOnUse" id="gradient1" r="819.2" spreadMethod="pad">
      <stop offset="0.0" stop-color="#078917" stop-opacity="0.3137255"/>
      <stop offset="1.0" stop-color="#078917" stop-opacity="0.0"/>
    </radialGradient>
  </defs>
</svg>
