<?xml version="1.0" encoding="UTF-8" standalone="no"?>
<svg xmlns:xlink="http://www.w3.org/1999/xlink" height="5.15px" width="45.85px" xmlns="http://www.w3.org/2000/svg">
  <g transform="matrix(1.0, 0.0, 0.0, 1.0, 36.25, 11.4)">
    <path d="M8.4 -9.3 L9.6 -7.0 9.35 -6.65 9.2 -6.5 8.65 -6.25 Q1.25 -10.7 -6.9 -6.8 L-8.65 -6.9 -8.75 -7.05 -8.8 -7.25 -8.75 -7.45 -6.15 -9.4 Q-3.55 -11.3 1.8 -11.4 7.15 -11.55 8.4 -9.3" fill="#e6b380" fill-rule="evenodd" stroke="none"/>
    <path d="M-32.25 -11.0 Q-28.65 -10.4 -27.55 -7.1 L-27.55 -6.95 -27.7 -6.75 -27.85 -6.6 -28.5 -6.25 -29.0 -6.4 -30.05 -7.4 -30.95 -8.15 -32.95 -8.5 -33.1 -8.5 -33.3 -8.45 -33.5 -8.25 -33.6 -8.2 -33.95 -8.0 -34.15 -7.8 -34.3 -7.7 -34.6 -7.45 -34.75 -7.45 Q-35.3 -7.4 -35.55 -7.9 L-35.8 -9.1 -36.15 -9.3 -36.25 -9.9 -36.15 -10.45 Q-35.8 -10.9 -35.25 -10.9 L-35.25 -10.95 -35.0 -10.8 -32.75 -10.95 -32.25 -11.0" fill="#e4af7a" fill-rule="evenodd" stroke="none"/>
  </g>
</svg>
