<?xml version="1.0" encoding="UTF-8" standalone="no"?>
<svg xmlns:xlink="http://www.w3.org/1999/xlink" height="5.15px" width="45.75px" xmlns="http://www.w3.org/2000/svg">
  <g transform="matrix(1.0, 0.0, 0.0, 1.0, 36.25, 11.75)">
    <path d="M9.5 -8.15 L9.5 -8.0 9.25 -7.65 9.1 -7.5 8.55 -7.25 Q6.9 -8.25 5.2 -8.8 2.6 -11.05 -1.75 -10.35 -6.2 -9.65 -8.3 -7.65 L-8.75 -7.9 -8.85 -8.05 -8.9 -8.25 -8.85 -8.45 -8.75 -8.65 Q-3.65 -11.6 2.3 -11.75 7.05 -11.75 9.5 -8.15" fill="#e6b380" fill-rule="evenodd" stroke="none"/>
    <path d="M-32.25 -11.0 Q-28.65 -10.4 -27.55 -7.1 L-27.55 -6.95 -27.7 -6.75 -27.85 -6.6 Q-28.1 -6.6 -28.8 -7.1 -29.5 -7.6 -30.55 -7.65 L-30.6 -7.65 -30.95 -7.55 -32.85 -7.9 -32.95 -7.15 -32.95 -7.7 -33.5 -7.8 Q-33.25 -7.3 -33.6 -7.35 L-33.65 -7.35 -34.0 -7.55 -34.1 -7.65 -34.3 -7.5 -34.6 -6.6 -34.7 -7.35 -34.75 -7.45 Q-35.3 -7.4 -35.55 -7.9 L-35.8 -9.1 -36.15 -9.3 -36.25 -9.9 -36.15 -10.45 Q-35.8 -10.9 -35.25 -10.9 L-35.25 -10.95 -35.0 -10.8 -32.75 -10.95 -32.25 -11.0" fill="#e4af7a" fill-rule="evenodd" stroke="none"/>
  </g>
</svg>
