<?xml version="1.0" encoding="UTF-8" standalone="no"?>
<svg xmlns:xlink="http://www.w3.org/1999/xlink" height="6.75px" width="44.9px" xmlns="http://www.w3.org/2000/svg">
  <g transform="matrix(1.0, 0.0, 0.0, 1.0, 36.1, 11.0)">
    <path d="M5.2 -8.8 Q-0.7 -10.8 -7.0 -7.8 L-8.3 -7.65 Q-6.2 -9.65 -1.75 -10.35 2.6 -11.05 5.2 -8.8" fill="#e6b380" fill-rule="evenodd" stroke="none"/>
    <path d="M-33.65 -7.35 L-33.95 -7.45 -34.0 -7.55 -33.65 -7.35 M-30.55 -7.65 Q-29.5 -7.6 -28.8 -7.1 -28.1 -6.6 -27.85 -6.6 L-28.5 -6.25 -29.0 -6.4 -30.05 -7.4 -30.55 -7.65 M-32.95 -7.7 Q-33.2 -7.25 -33.6 -7.35 -33.25 -7.3 -33.5 -7.8 L-32.95 -7.7" fill="#e4af7a" fill-rule="evenodd" stroke="none"/>
    <path d="M5.2 -8.8 Q6.4 -8.15 7.5 -7.1 L8.3 -6.35 M-34.0 -7.55 L-34.6 -6.6 -34.7 -7.35 -35.25 -6.75 Q-35.7 -6.5 -35.6 -6.0 M-33.6 -7.35 L-33.65 -7.35 M-34.0 -7.55 L-33.65 -7.35 M-32.95 -7.7 L-32.95 -7.15 -32.85 -7.9 -30.95 -7.55 -30.6 -7.65 -30.55 -7.65 Q-29.5 -7.6 -28.8 -7.1 -28.1 -6.6 -27.85 -6.6 L-26.5 -4.75 M-33.6 -7.35 Q-33.25 -7.3 -33.5 -7.8 L-32.95 -7.7 M-8.3 -7.65 Q-9.3 -6.75 -9.7 -5.5 M-8.3 -7.65 Q-6.2 -9.65 -1.75 -10.35 2.6 -11.05 5.2 -8.8 Z" fill="none" stroke="#000000" stroke-linecap="round" stroke-linejoin="round" stroke-width="1.0"/>
  </g>
</svg>
