<?xml version="1.0" encoding="UTF-8" standalone="no"?>
<svg xmlns:xlink="http://www.w3.org/1999/xlink" height="13.8px" width="54.15px" xmlns="http://www.w3.org/2000/svg">
  <g transform="matrix(1.0, 0.0, 0.0, 1.0, 39.15, 10.7)">
    <path d="M-34.6 -7.45 L-34.3 -7.7 -34.15 -7.8 -33.95 -8.0 -33.6 -8.2 -33.5 -8.25 -33.3 -8.45 -33.1 -8.5 -32.95 -8.5 -32.9 -8.4 Q-32.75 -8.1 -32.9 -7.8 -33.15 -7.1 -33.95 -7.45 L-34.1 -7.65 -34.3 -7.5 -34.6 -7.45" fill="#e4af7a" fill-rule="evenodd" stroke="none"/>
    <path d="M-9.35 -4.4 Q-8.5 -6.95 -5.7 -8.4 L-4.0 -9.15 -2.25 -9.65 Q3.5 -11.05 5.75 -8.8 8.0 -6.55 8.65 -5.25 M-34.6 -7.45 L-34.3 -7.7 -34.15 -7.8 -33.95 -8.0 -33.6 -8.2 -33.5 -8.25 -33.3 -8.45 -33.1 -8.5 -32.95 -8.5 Q-31.95 -9.4 -30.95 -8.65 -29.3 -8.45 -28.6 -7.6 L-27.85 -6.6 -26.5 -4.75 M-34.6 -7.45 L-34.7 -7.35 -35.25 -6.75 Q-35.7 -6.5 -35.6 -6.0" fill="none" stroke="#000000" stroke-linecap="round" stroke-linejoin="round" stroke-width="1.0"/>
    <path d="M11.4 -3.75 Q12.1 -4.6 12.15 -6.0 12.25 -7.7 11.15 -9.0 M14.9 -5.25 Q15.3 -7.1 13.9 -8.25 L13.65 -8.5 M-38.25 -3.25 Q-39.3 -3.9 -39.1 -5.75 L-38.85 -6.95 -38.5 -7.5 M-26.75 -4.25 L-30.5 -0.25 -31.0 0.25 M0.6 3.1 L-0.5 2.6 -1.9 1.85 Q-5.9 -0.55 -9.25 -3.85 L-6.8 0.0 -6.6 0.25" fill="none" stroke="#000000" stroke-linecap="round" stroke-linejoin="round" stroke-width="0.05"/>
  </g>
</svg>
