<?xml version="1.0" encoding="UTF-8" standalone="no"?>
<svg xmlns:xlink="http://www.w3.org/1999/xlink" height="5.15px" width="42.95px" xmlns="http://www.w3.org/2000/svg">
  <g transform="matrix(1.0, 0.0, 0.0, 1.0, 36.25, 11.75)">
    <path d="M6.3 -7.5 L5.75 -7.25 Q-1.65 -11.7 -9.8 -7.8 L-11.55 -7.9 -11.65 -8.05 -11.7 -8.25 -11.65 -8.45 -11.55 -8.65 Q-6.45 -11.6 -0.5 -11.75 4.25 -11.75 6.7 -8.15 L6.7 -8.0 6.45 -7.65 6.3 -7.5" fill="#e6b380" fill-rule="evenodd" stroke="none"/>
    <path d="M-32.25 -11.0 Q-28.65 -10.4 -27.55 -7.1 L-27.55 -6.95 -27.7 -6.75 -27.85 -6.6 -28.05 -6.85 Q-29.3 -8.1 -30.95 -8.15 L-32.95 -8.5 -33.1 -8.5 -33.3 -8.45 -33.5 -8.25 -33.6 -8.2 -33.95 -8.0 -34.15 -7.8 -34.3 -7.7 -34.6 -7.45 -34.75 -7.45 Q-35.3 -7.4 -35.55 -7.9 L-35.8 -9.1 -36.15 -9.3 -36.25 -9.9 -36.15 -10.45 Q-35.8 -10.9 -35.25 -10.9 L-35.25 -10.95 -35.0 -10.8 -32.75 -10.95 -32.25 -11.0" fill="#e4af7a" fill-rule="evenodd" stroke="none"/>
  </g>
</svg>
