<?xml version="1.0" encoding="UTF-8" standalone="no"?>
<svg xmlns:xlink="http://www.w3.org/1999/xlink" height="10.55px" width="47.3px" xmlns="http://www.w3.org/2000/svg">
  <g transform="matrix(1.0, 0.0, 0.0, 1.0, 37.35, 16.45)">
    <path d="M5.7 -6.05 Q2.45 -5.75 -0.2 -6.9 -2.9 -8.1 -5.8 -6.9 -8.65 -5.8 -9.6 -6.35 -10.55 -6.9 -11.05 -8.25 -11.6 -9.65 -12.35 -9.6 L-12.35 -11.0 Q-12.25 -17.35 1.5 -16.3 7.05 -16.55 8.75 -14.25 10.45 -12.0 9.7 -9.15 8.9 -6.35 5.7 -6.05 M-35.15 -6.85 Q-38.85 -8.85 -36.3 -9.25 L-32.55 -9.55 -29.2 -9.3 Q-27.1 -9.15 -26.35 -7.8 L-25.65 -6.35 -25.8 -6.15 Q-25.95 -6.0 -26.2 -5.9 -28.65 -5.85 -30.65 -6.6 L-30.85 -6.5 -30.9 -6.5 -31.95 -6.45 Q-32.75 -6.55 -33.35 -6.9 L-33.9 -6.7 -34.0 -6.65 -35.15 -6.85" fill="#e6b380" fill-rule="evenodd" stroke="none"/>
  </g>
</svg>
