<?xml version="1.0" encoding="UTF-8" standalone="no"?>
<svg xmlns:xlink="http://www.w3.org/1999/xlink" height="6.75px" width="45.25px" xmlns="http://www.w3.org/2000/svg">
  <g transform="matrix(1.0, 0.0, 0.0, 1.0, 35.95, 8.5)">
    <path d="M4.9 -7.2 L3.65 -6.45 3.25 -6.2 Q2.95 -5.9 2.15 -5.95 L2.1 -5.95 3.4 -5.6 5.6 -5.7 7.4 -6.6 M-1.35 -7.95 Q-2.4 -6.65 -2.85 -6.45 L-1.2 -6.45 0.85 -6.85 2.25 -7.6 M8.8 -5.35 L7.15 -4.85 6.7 -4.8 5.85 -4.6 Q7.05 -3.9 7.25 -2.9 M3.4 -5.6 Q5.4 -4.65 5.85 -4.6 M-35.45 -5.8 L-34.55 -4.5 -32.55 -4.9 -33.05 -5.2 -33.55 -6.6 M-32.55 -4.9 L-30.8 -5.2 -31.9 -6.95 M-30.8 -5.2 L-28.7 -5.35 Q-27.5 -5.55 -23.0 -2.25 M-2.85 -6.45 L-3.85 -6.15 -4.1 -6.1 -7.0 -5.95 Q-7.95 -5.4 -9.2 -5.0 L-10.15 -4.85 -13.0 -2.25 M-4.7 -8.0 Q-6.05 -6.5 -7.0 -5.95 M2.1 -5.95 L-1.2 -6.45" fill="none" stroke="#000000" stroke-linecap="round" stroke-linejoin="round" stroke-width="1.0"/>
  </g>
</svg>
