<?xml version="1.0" encoding="UTF-8" standalone="no"?>
<svg xmlns:xlink="http://www.w3.org/1999/xlink" height="9.1px" width="47.6px" xmlns="http://www.w3.org/2000/svg">
  <g transform="matrix(1.0, 0.0, 0.0, 1.0, 37.35, 14.6)">
    <path d="M0.15 -13.65 Q7.9 -16.55 10.25 -10.45 L9.95 -9.7 Q7.35 -4.25 1.2 -6.3 L-5.1 -6.45 Q-9.85 -4.85 -13.0 -5.95 L-10.75 -8.1 Q-7.6 -10.75 0.15 -13.65 M-35.15 -7.25 Q-38.85 -10.05 -36.3 -10.65 L-32.55 -11.05 Q-31.4 -10.85 -29.75 -9.75 L-26.85 -7.65 -25.65 -6.55 -25.8 -6.25 -26.2 -5.9 Q-28.65 -5.85 -30.65 -6.9 L-30.85 -6.75 -30.9 -6.75 -31.95 -6.7 Q-32.75 -6.8 -33.35 -7.3 L-33.9 -7.0 -34.0 -6.95 Q-34.6 -6.85 -35.15 -7.25" fill="#e6b380" fill-rule="evenodd" stroke="none"/>
  </g>
</svg>
