<?xml version="1.0" encoding="UTF-8" standalone="no"?>
<svg xmlns:xlink="http://www.w3.org/1999/xlink" height="7.7px" width="44.85px" xmlns="http://www.w3.org/2000/svg">
  <g transform="matrix(1.0, 0.0, 0.0, 1.0, 35.75, 8.65)">
    <path d="M4.5 -8.15 L3.35 -7.25 3.05 -7.0 Q2.75 -6.65 1.95 -6.65 L1.9 -6.65 3.2 -6.45 5.4 -6.8 7.1 -7.85 M8.6 -6.85 L7.0 -6.2 6.6 -6.1 5.75 -5.8 Q7.05 -5.3 7.35 -4.5 M-1.75 -8.05 Q-2.65 -6.7 -3.1 -6.45 L-1.45 -6.65 Q-0.35 -6.9 0.55 -7.3 L1.85 -8.15 M5.75 -5.8 L3.2 -6.45 M-31.6 -6.9 L-30.65 -5.2 -27.95 -5.0 Q-26.15 -5.0 -23.2 -1.45 M-30.65 -5.2 L-32.45 -5.05 -34.5 -4.9 -35.25 -6.2 M-32.45 -5.05 L-32.9 -5.35 -33.3 -6.75 M-3.1 -6.45 L-4.0 -6.1 -4.25 -6.0 -7.15 -5.55 Q-8.05 -4.95 -9.25 -4.4 L-10.15 -4.15 -12.7 -1.45 M-5.05 -7.7 L-7.15 -5.55 M1.9 -6.65 L-1.45 -6.65" fill="none" stroke="#000000" stroke-linecap="round" stroke-linejoin="round" stroke-width="1.0"/>
  </g>
</svg>
