<?xml version="1.0" encoding="UTF-8" standalone="no"?>
<svg xmlns:xlink="http://www.w3.org/1999/xlink" height="11.3px" width="48.75px" xmlns="http://www.w3.org/2000/svg">
  <g transform="matrix(1.0, 0.0, 0.0, 1.0, 37.7, 16.95)">
    <path d="M11.05 -11.5 Q10.0 -8.8 9.0 -7.55 5.6 -4.85 1.2 -6.3 -3.05 -7.75 -6.6 -6.65 -10.2 -5.55 -10.25 -6.85 L-10.45 -9.05 -10.85 -10.55 Q-11.1 -11.1 -9.85 -16.4 -2.65 -17.35 1.35 -16.7 5.3 -16.1 7.8 -14.3 10.25 -12.5 11.05 -11.5 M-31.25 -15.95 Q-29.65 -17.4 -27.7 -12.45 -25.8 -7.55 -25.85 -7.25 L-25.95 -6.55 Q-26.05 -6.15 -27.1 -5.65 -28.65 -5.85 -30.65 -6.9 L-30.85 -6.75 -30.9 -6.75 -31.95 -6.7 Q-32.75 -6.8 -33.35 -7.3 L-33.9 -7.0 -34.0 -6.95 Q-34.6 -6.85 -35.15 -7.25 -38.85 -10.05 -37.15 -12.65 -35.5 -15.3 -34.15 -14.9 -32.85 -14.55 -31.25 -15.95" fill="#e6b380" fill-rule="evenodd" stroke="none"/>
  </g>
</svg>
