<?xml version="1.0" encoding="UTF-8" standalone="no"?>
<svg xmlns:xlink="http://www.w3.org/1999/xlink" height="8.35px" width="45.85px" xmlns="http://www.w3.org/2000/svg">
  <g transform="matrix(1.0, 0.0, 0.0, 1.0, 36.55, 9.35)">
    <path d="M4.9 -7.85 L3.65 -6.85 3.25 -6.55 Q2.95 -6.15 2.15 -6.25 L2.1 -6.25 Q2.8 -5.95 3.4 -5.8 L5.6 -5.9 7.4 -7.1 M-1.35 -8.8 Q-2.4 -7.15 -2.85 -6.85 L-1.2 -6.85 0.85 -7.4 2.25 -8.35 M8.8 -5.45 L7.15 -4.85 6.7 -4.75 5.85 -4.5 Q7.05 -3.6 7.25 -2.35 M3.4 -5.8 Q5.4 -4.55 5.85 -4.5 M-25.1 -2.3 Q-28.35 -4.9 -28.95 -5.1 L-30.8 -5.3 -32.55 -4.9 -34.55 -4.35 -35.45 -6.05 M-32.55 -4.9 L-33.05 -5.25 -33.55 -7.1 M-34.75 -4.05 L-36.05 -2.0 M-31.9 -7.5 L-30.8 -5.3 M-2.85 -6.85 Q-3.3 -6.6 -3.85 -6.5 L-4.1 -6.45 -7.0 -6.25 Q-7.95 -5.55 -9.2 -5.05 L-10.15 -4.8 -13.0 -1.5 M-4.7 -8.85 Q-6.05 -6.95 -7.0 -6.25 M2.1 -6.25 L-1.2 -6.85" fill="none" stroke="#000000" stroke-linecap="round" stroke-linejoin="round" stroke-width="1.0"/>
  </g>
</svg>
