<?xml version="1.0" encoding="UTF-8" standalone="no"?>
<svg xmlns:xlink="http://www.w3.org/1999/xlink" height="5.75px" width="46.6px" xmlns="http://www.w3.org/2000/svg">
  <g transform="matrix(1.0, 0.0, 0.0, 1.0, 37.4, 8.9)">
    <path d="M4.7 -4.3 L-1.2 -4.65 Q-3.9 -5.2 -6.8 -4.65 L-10.6 -4.4 Q-11.55 -4.65 -12.05 -5.25 -12.6 -5.9 -13.35 -5.9 L-13.35 -6.5 Q-7.55 -9.2 0.5 -8.85 5.9 -8.8 9.2 -6.8 L8.6 -5.6 Q7.9 -4.4 4.7 -4.3 M-35.15 -4.05 Q-38.85 -5.85 -36.5 -6.65 -34.2 -7.45 -32.35 -7.55 L-27.2 -7.25 Q-23.9 -6.8 -24.55 -5.25 -25.25 -3.65 -25.45 -3.55 L-25.8 -3.4 Q-25.95 -3.25 -26.2 -3.15 -28.65 -3.15 -30.65 -3.8 L-30.85 -3.7 -30.9 -3.7 -31.95 -3.7 -33.35 -4.05 -33.9 -3.85 -34.0 -3.85 -35.15 -4.05" fill="#e6b380" fill-rule="evenodd" stroke="none"/>
  </g>
</svg>
