<?xml version="1.0" encoding="UTF-8" standalone="no"?>
<svg xmlns:xlink="http://www.w3.org/1999/xlink" height="6.65px" width="45.25px" xmlns="http://www.w3.org/2000/svg">
  <g transform="matrix(1.0, 0.0, 0.0, 1.0, 35.95, 7.85)">
    <path d="M-1.35 -7.3 L-2.85 -5.8 -1.2 -5.8 0.85 -6.2 2.25 -6.95 M4.9 -6.55 L3.65 -5.8 3.25 -5.55 2.15 -5.35 2.1 -5.35 3.4 -5.0 5.6 -5.05 7.4 -6.0 M8.8 -4.7 L7.15 -4.25 6.7 -4.2 5.85 -4.0 Q7.05 -3.3 7.25 -2.35 M3.4 -5.0 Q5.4 -4.05 5.85 -4.0 M-35.45 -5.2 L-34.55 -3.85 -32.55 -4.3 Q-32.85 -4.3 -33.05 -4.55 L-33.55 -6.0 M-32.55 -4.3 L-30.8 -4.6 -31.9 -6.3 M-30.8 -4.6 L-28.85 -4.95 Q-27.8 -5.35 -23.25 -1.85 M-2.85 -5.8 L-3.85 -5.55 -4.1 -5.5 -7.0 -5.35 Q-7.95 -4.8 -9.2 -4.4 L-10.15 -4.2 -13.0 -1.7 M-4.7 -7.35 Q-6.05 -5.85 -7.0 -5.35 M2.1 -5.35 L-1.2 -5.8" fill="none" stroke="#000000" stroke-linecap="round" stroke-linejoin="round" stroke-width="1.0"/>
  </g>
</svg>
