<?xml version="1.0" encoding="UTF-8" standalone="no"?>
<svg xmlns:xlink="http://www.w3.org/1999/xlink" height="6.55px" width="45.55px" xmlns="http://www.w3.org/2000/svg">
  <g transform="matrix(1.0, 0.0, 0.0, 1.0, 36.0, 8.9)">
    <path d="M4.9 -7.4 L3.65 -6.4 3.25 -6.1 Q2.95 -5.7 2.15 -5.8 L2.1 -5.8 Q2.8 -5.5 3.4 -5.35 L5.6 -5.45 7.4 -6.65 M-1.35 -8.35 Q-2.4 -6.7 -2.85 -6.4 L-1.2 -6.4 0.85 -6.95 2.25 -7.9 M8.8 -5.0 L7.15 -4.4 6.7 -4.3 5.85 -4.05 Q7.05 -3.15 9.05 -2.85 M3.4 -5.35 Q5.4 -4.1 5.85 -4.05 M-31.9 -7.05 L-30.8 -4.85 -28.95 -4.65 -27.25 -4.25 M-30.8 -4.85 L-32.55 -4.45 -35.5 -3.2 -35.45 -5.6 M-32.55 -4.45 L-33.05 -4.8 -33.55 -6.65 M-2.85 -6.4 Q-3.3 -6.15 -3.85 -6.05 L-4.1 -6.0 -7.0 -5.8 Q-7.95 -5.1 -9.2 -4.6 L-10.15 -4.35 -11.8 -3.8 M-4.7 -8.4 Q-6.05 -6.5 -7.0 -5.8 M2.1 -5.8 L-1.2 -6.4" fill="none" stroke="#000000" stroke-linecap="round" stroke-linejoin="round" stroke-width="1.0"/>
  </g>
</svg>
