<?xml version="1.0" encoding="UTF-8" standalone="no"?>
<svg xmlns:xlink="http://www.w3.org/1999/xlink" height="6.7px" width="47.05px" xmlns="http://www.w3.org/2000/svg">
  <g transform="matrix(1.0, 0.0, 0.0, 1.0, 37.5, 11.45)">
    <path d="M8.0 -10.15 Q10.0 -9.25 9.4 -7.4 8.8 -5.55 5.6 -5.3 2.35 -5.05 -0.3 -6.0 -3.0 -6.95 -5.9 -6.0 -8.75 -5.1 -9.7 -5.55 -10.65 -6.0 -11.15 -7.1 -11.7 -8.25 -12.45 -8.2 L-12.45 -9.35 1.5 -11.45 Q6.0 -11.1 8.0 -10.15 M-34.15 -5.8 L-36.65 -5.8 Q-38.6 -5.9 -36.1 -7.0 L-32.7 -8.5 -29.7 -8.75 Q-27.6 -8.6 -26.65 -7.05 L-25.8 -5.4 -25.95 -5.1 -26.35 -4.75 Q-28.8 -4.7 -30.8 -5.75 L-31.0 -5.6 -31.05 -5.6 -32.1 -5.55 Q-32.9 -5.65 -33.5 -6.15 L-34.05 -5.85 -34.15 -5.8" fill="#e6b380" fill-rule="evenodd" stroke="none"/>
  </g>
</svg>
