<?xml version="1.0" encoding="UTF-8" standalone="no"?>
<svg xmlns:xlink="http://www.w3.org/1999/xlink" height="6.85px" width="45.25px" xmlns="http://www.w3.org/2000/svg">
  <g transform="matrix(1.0, 0.0, 0.0, 1.0, 35.95, 8.5)">
    <path d="M4.9 -7.2 L3.65 -6.4 3.25 -6.2 Q2.95 -5.85 2.15 -5.95 L2.1 -5.95 3.4 -5.6 5.6 -5.65 7.4 -6.6 M-1.35 -8.0 L-2.85 -6.4 -1.2 -6.4 0.85 -6.85 2.25 -7.6 M8.8 -5.3 L7.15 -4.8 6.7 -4.75 5.85 -4.55 Q7.05 -3.8 7.25 -2.85 M3.4 -5.6 Q5.4 -4.6 5.85 -4.55 M-35.45 -5.8 L-34.55 -4.4 -32.55 -4.85 -33.05 -5.15 -33.55 -6.6 M-32.55 -4.85 L-30.8 -5.2 -31.9 -6.95 M-30.8 -5.2 L-28.8 -5.35 Q-27.75 -5.6 -23.5 -2.7 M-2.85 -6.4 L-3.85 -6.15 -4.1 -6.1 -7.0 -5.95 Q-7.95 -5.4 -9.2 -5.0 L-10.15 -4.8 -13.0 -2.15 M-4.7 -8.0 Q-6.05 -6.5 -7.0 -5.95 M2.1 -5.95 L-1.2 -6.4" fill="none" stroke="#000000" stroke-linecap="round" stroke-linejoin="round" stroke-width="1.0"/>
  </g>
</svg>
