<?xml version="1.0" encoding="UTF-8" standalone="no"?>
<svg xmlns:xlink="http://www.w3.org/1999/xlink" height="7.55px" width="45.9px" xmlns="http://www.w3.org/2000/svg">
  <g transform="matrix(1.0, 0.0, 0.0, 1.0, 36.45, 13.45)">
    <path d="M8.1 -9.25 Q9.75 -8.05 9.35 -7.15 8.9 -6.3 5.7 -6.05 2.45 -5.8 -0.2 -6.75 -2.9 -7.7 -5.8 -6.75 -8.65 -5.85 -9.6 -6.3 -10.55 -6.75 -10.6 -7.3 L-10.75 -9.15 -10.25 -10.65 Q-6.55 -15.0 0.8 -12.6 6.4 -10.5 8.1 -9.25 M-31.95 -6.7 Q-32.75 -6.8 -33.35 -7.3 L-33.9 -7.0 -34.0 -6.95 Q-34.6 -6.85 -35.9 -7.75 -37.2 -8.65 -35.35 -9.85 -33.5 -11.1 -32.5 -11.15 -31.5 -11.2 -29.75 -12.1 -28.05 -13.0 -26.8 -9.8 L-25.65 -6.55 -25.8 -6.25 -26.2 -5.9 Q-28.65 -5.85 -30.65 -6.9 L-30.85 -6.75 -30.9 -6.75 -31.95 -6.7" fill="#e6b380" fill-rule="evenodd" stroke="none"/>
  </g>
</svg>
