<?xml version="1.0" encoding="UTF-8" standalone="no"?>
<svg xmlns:xlink="http://www.w3.org/1999/xlink" height="9.7px" width="46.4px" xmlns="http://www.w3.org/2000/svg">
  <g transform="matrix(1.0, 0.0, 0.0, 1.0, 36.7, 10.9)">
    <path d="M5.65 -8.15 L4.25 -7.2 3.8 -6.9 Q3.5 -6.5 2.7 -6.7 L2.65 -6.7 Q3.35 -6.25 3.85 -6.05 L6.05 -5.85 8.05 -7.0 M-0.45 -9.9 Q-1.7 -8.25 -2.2 -8.0 L-0.55 -7.8 1.6 -8.15 3.1 -8.95 M9.2 -4.95 L7.5 -4.5 7.0 -4.5 6.15 -4.3 Q7.2 -3.15 7.25 -1.7 M3.85 -6.05 Q5.7 -4.4 6.15 -4.3 M-36.2 -6.25 L-34.95 -4.55 -33.1 -5.5 Q-33.4 -5.45 -33.6 -5.8 L-34.5 -7.7 M-33.1 -5.5 L-31.45 -6.3 -32.95 -8.5 M-31.45 -6.3 L-29.15 -6.6 Q-27.75 -6.9 -24.2 -5.1 M-13.0 -3.3 L-9.7 -6.6 -8.75 -6.75 Q-7.4 -7.2 -6.4 -7.8 L-3.7 -10.4 M-6.4 -7.8 L-3.45 -7.7 -3.2 -7.7 -2.2 -8.0 M2.65 -6.7 Q1.25 -7.0 -0.55 -7.8" fill="none" stroke="#000000" stroke-linecap="round" stroke-linejoin="round" stroke-width="1.0"/>
  </g>
</svg>
