<?xml version="1.0" encoding="UTF-8" standalone="no"?>
<svg xmlns:xlink="http://www.w3.org/1999/xlink" height="11.4px" width="45.35px" xmlns="http://www.w3.org/2000/svg">
  <g transform="matrix(1.0, 0.0, 0.0, 1.0, 36.05, 12.55)">
    <path d="M4.9 -10.65 L3.65 -9.2 3.25 -8.8 Q2.95 -8.2 2.15 -8.35 L2.1 -8.35 3.4 -7.75 5.6 -7.85 7.4 -9.55 M8.8 -7.25 L7.15 -6.4 6.7 -6.25 Q6.3 -5.9 5.85 -5.9 7.05 -4.6 7.25 -2.85 M-1.35 -11.95 Q-2.4 -9.65 -2.85 -9.2 L-1.2 -9.2 Q-0.1 -9.45 0.85 -10.0 L2.25 -11.35 M5.85 -5.9 Q5.4 -5.95 3.4 -7.75 M-35.55 -4.2 L-34.55 -3.15 -32.6 -3.65 -33.1 -3.85 -33.75 -5.1 M-32.6 -3.65 L-30.85 -4.1 -32.1 -5.5 M-30.85 -4.1 L-29.05 -4.1 -23.95 -2.85 M-2.85 -9.2 Q-3.3 -8.85 -3.85 -8.7 L-4.1 -8.65 -7.0 -8.35 Q-7.95 -7.35 -9.2 -6.65 L-10.15 -6.3 -13.0 -1.65 M-4.7 -12.05 Q-6.05 -9.35 -7.0 -8.35 M2.1 -8.35 Q0.65 -8.6 -1.2 -9.2" fill="none" stroke="#000000" stroke-linecap="round" stroke-linejoin="round" stroke-width="1.0"/>
  </g>
</svg>
