<?xml version="1.0" encoding="UTF-8" standalone="no"?>
<svg xmlns:xlink="http://www.w3.org/1999/xlink" height="13.8px" width="50.2px" xmlns="http://www.w3.org/2000/svg">
  <g transform="matrix(1.0, 0.0, 0.0, 1.0, 37.8, 19.7)">
    <path d="M11.7 -16.1 Q13.35 -14.25 11.15 -10.25 8.9 -6.3 5.7 -6.05 2.45 -5.8 -0.2 -6.75 -2.9 -7.7 -5.8 -6.75 -8.65 -5.85 -9.6 -6.3 -10.55 -6.75 -11.05 -7.85 -11.6 -9.0 -10.05 -11.6 L-9.0 -18.6 Q-5.15 -20.05 3.45 -19.55 10.05 -18.0 11.7 -16.1 M-31.4 -19.15 Q-29.0 -19.45 -27.3 -13.05 L-25.65 -6.55 -25.8 -6.25 -26.2 -5.9 Q-28.65 -5.85 -30.65 -6.9 L-30.85 -6.75 -30.9 -6.75 -31.95 -6.7 Q-32.75 -6.8 -33.35 -7.3 L-33.9 -7.0 -34.0 -6.95 Q-34.6 -6.85 -36.35 -8.6 -38.15 -10.35 -37.75 -13.8 -37.35 -17.25 -35.55 -18.05 -33.8 -18.9 -31.4 -19.15" fill="#e6b380" fill-rule="evenodd" stroke="none"/>
  </g>
</svg>
