<?xml version="1.0" encoding="UTF-8" standalone="no"?>
<svg xmlns:xlink="http://www.w3.org/1999/xlink" height="11.85px" width="45.85px" xmlns="http://www.w3.org/2000/svg">
  <g transform="matrix(1.0, 0.0, 0.0, 1.0, 36.4, 13.9)">
    <path d="M5.5 -10.8 L4.1 -9.55 3.65 -9.15 Q3.3 -8.55 2.5 -8.8 L2.45 -8.8 3.7 -8.0 5.85 -7.9 7.85 -9.45 M8.95 -6.85 Q7.4 -6.15 7.25 -6.2 L6.75 -6.1 Q6.3 -5.75 5.85 -5.8 6.9 -4.35 6.9 -2.55 M-0.55 -12.95 Q-1.9 -10.65 -2.4 -10.25 L-0.75 -10.1 1.4 -10.6 2.95 -11.85 M5.85 -5.8 Q5.45 -5.95 3.7 -8.0 M-35.9 -8.3 L-34.7 -6.0 -32.8 -7.05 -33.35 -7.45 -34.2 -10.1 M-32.8 -7.05 L-31.15 -7.85 -32.65 -10.9 M-31.15 -7.85 L-29.25 -7.8 Q-27.75 -8.3 -23.5 -4.45 M-13.35 -3.55 L-10.0 -8.05 -9.0 -8.35 Q-7.65 -8.9 -6.6 -9.85 -5.5 -10.8 -3.85 -13.4 M-6.6 -9.85 L-3.65 -9.8 -3.4 -9.85 Q-2.9 -9.9 -2.4 -10.25 M2.45 -8.8 Q1.05 -9.25 -0.75 -10.1" fill="none" stroke="#000000" stroke-linecap="round" stroke-linejoin="round" stroke-width="1.0"/>
  </g>
</svg>
