<?xml version="1.0" encoding="UTF-8" standalone="no"?>
<svg xmlns:xlink="http://www.w3.org/1999/xlink" height="5.15px" width="48.0px" xmlns="http://www.w3.org/2000/svg">
  <g transform="matrix(1.0, 0.0, 0.0, 1.0, 37.8, 11.15)">
    <path d="M5.7 -6.05 L-0.2 -6.45 Q-2.9 -7.05 -5.8 -6.45 L-9.6 -6.2 Q-10.55 -6.45 -11.05 -7.15 -11.6 -7.85 -12.35 -7.8 L-12.35 -8.5 Q-6.55 -11.45 1.5 -11.1 6.9 -11.0 10.2 -8.85 L9.6 -7.5 Q8.9 -6.2 5.7 -6.05 M-37.25 -8.75 Q-31.05 -11.05 -28.4 -8.75 -25.8 -6.45 -29.65 -6.9 L-32.45 -6.8 Q-36.1 -5.8 -37.2 -6.45 -38.35 -7.15 -37.25 -8.75" fill="#e6b380" fill-rule="evenodd" stroke="none"/>
  </g>
</svg>
