<?xml version="1.0" encoding="UTF-8" standalone="no"?>
<svg xmlns:xlink="http://www.w3.org/1999/xlink" height="7.5px" width="45.25px" xmlns="http://www.w3.org/2000/svg">
  <g transform="matrix(1.0, 0.0, 0.0, 1.0, 35.55, 6.3)">
    <path d="M5.3 -0.3 L4.05 -1.3 3.65 -1.6 Q3.35 -2.0 2.55 -1.9 L2.5 -1.9 -0.8 -1.3 1.25 -0.75 2.65 0.2 M2.5 -1.9 L3.8 -2.35 6.25 -3.65 Q7.45 -4.55 7.65 -5.8 M9.2 -2.7 L7.55 -3.3 7.1 -3.4 6.25 -3.65 M3.8 -2.35 L6.0 -2.25 7.8 -1.05 M-27.35 -3.45 L-28.55 -3.05 -30.4 -2.85 -31.5 -0.65 M-30.4 -2.85 L-32.15 -3.25 Q-32.45 -3.25 -32.65 -2.9 L-33.15 -1.05 M-32.15 -3.25 L-34.15 -3.8 -35.05 -2.1 M-9.75 -3.35 L-8.8 -3.1 -6.6 -1.9 -3.7 -1.7 -3.45 -1.65 -2.45 -1.3 -0.8 -1.3 M-4.3 0.7 Q-5.65 -1.2 -6.6 -1.9 M-0.95 0.65 L-2.45 -1.3" fill="none" stroke="#000000" stroke-linecap="round" stroke-linejoin="round" stroke-width="1.0"/>
  </g>
</svg>
