<?xml version="1.0" encoding="UTF-8" standalone="no"?>
<svg xmlns:xlink="http://www.w3.org/1999/xlink" height="8.35px" width="45.25px" xmlns="http://www.w3.org/2000/svg">
  <g transform="matrix(1.0, 0.0, 0.0, 1.0, 35.95, 10.1)">
    <path d="M4.9 -8.6 L3.65 -7.6 3.25 -7.3 Q2.95 -6.9 2.15 -7.0 L2.1 -7.0 Q2.8 -6.7 3.4 -6.55 L5.6 -6.65 7.4 -7.85 M-1.35 -9.55 Q-2.4 -7.9 -2.85 -7.6 L-1.2 -7.6 0.85 -8.15 2.25 -9.1 M8.8 -6.2 L7.15 -5.6 6.7 -5.5 5.85 -5.25 Q7.05 -4.35 7.25 -3.1 M5.85 -5.25 Q5.4 -5.3 3.4 -6.55 M-2.85 -7.6 Q-3.3 -7.35 -3.85 -7.25 L-4.1 -7.2 -7.0 -7.0 Q-7.95 -6.3 -9.2 -5.8 L-10.15 -5.55 -13.0 -2.25 M-4.7 -9.6 Q-6.05 -7.7 -7.0 -7.0 M2.1 -7.0 L-1.2 -7.6" fill="none" stroke="#000000" stroke-linecap="round" stroke-linejoin="round" stroke-width="1.0"/>
    <path d="M-35.45 -6.8 L-34.55 -5.1 -32.55 -5.65 -33.05 -6.0 -33.55 -7.85 M-22.7 -3.35 Q-25.25 -5.8 -27.5 -6.0 L-30.8 -6.05 -32.55 -5.65 M-31.9 -8.25 L-30.8 -6.05" fill="none" stroke="#000000" stroke-linecap="round" stroke-linejoin="round" stroke-width="1.0"/>
  </g>
</svg>
