<?xml version="1.0" encoding="UTF-8" standalone="no"?>
<svg xmlns:xlink="http://www.w3.org/1999/xlink" height="9.15px" width="47.7px" xmlns="http://www.w3.org/2000/svg">
  <g transform="matrix(1.0, 0.0, 0.0, 1.0, 37.8, 13.65)">
    <path d="M8.5 -9.55 Q10.45 -8.55 9.7 -7.4 8.9 -6.3 5.7 -6.05 2.45 -5.8 -0.2 -6.75 -2.9 -7.7 -5.8 -6.75 -8.65 -5.85 -9.4 -6.15 -10.2 -6.45 -10.45 -7.25 L-10.9 -9.55 -10.85 -11.45 Q-6.55 -15.0 1.05 -12.8 L8.5 -9.55 M-30.85 -6.75 L-30.9 -6.75 -31.75 -5.75 Q-32.1 -5.1 -33.35 -7.3 L-33.8 -6.95 -34.6 -5.05 Q-35.25 -3.4 -37.05 -6.7 -38.85 -10.05 -36.3 -10.65 L-32.6 -11.2 Q-31.5 -11.15 -29.75 -11.75 -28.05 -12.35 -26.8 -9.5 L-25.65 -6.55 -25.8 -6.25 -26.2 -5.9 Q-28.65 -5.85 -30.65 -6.9 L-30.85 -6.75" fill="#e6b380" fill-rule="evenodd" stroke="none"/>
  </g>
</svg>
