<?xml version="1.0" encoding="UTF-8" standalone="no"?>
<svg xmlns:xlink="http://www.w3.org/1999/xlink" height="8.7px" width="49.1px" xmlns="http://www.w3.org/2000/svg">
  <g transform="matrix(1.0, 0.0, 0.0, 1.0, 38.9, 14.6)">
    <path d="M5.7 -6.05 Q2.45 -5.8 -0.2 -6.75 -2.9 -7.7 -5.8 -6.75 -8.7 -5.85 -9.45 -6.2 -10.25 -6.55 -10.25 -7.2 L-10.4 -10.0 -8.7 -13.55 Q-6.55 -15.0 1.5 -14.4 6.9 -14.25 10.2 -10.65 L9.6 -8.45 Q8.9 -6.3 5.7 -6.05 M-30.85 -6.75 L-30.9 -6.75 -31.95 -6.7 Q-32.75 -6.8 -33.35 -7.3 L-33.9 -7.0 -34.0 -6.95 Q-34.6 -6.85 -35.15 -7.25 L-38.9 -10.0 -38.55 -10.9 Q-38.15 -11.8 -34.55 -13.3 -31.0 -14.8 -28.3 -10.7 L-25.65 -6.55 -25.8 -6.25 -26.2 -5.9 Q-28.65 -5.85 -30.65 -6.9 L-30.85 -6.75" fill="#e6b380" fill-rule="evenodd" stroke="none"/>
  </g>
</svg>
