<?xml version="1.0" encoding="UTF-8" standalone="no"?>
<svg xmlns:xlink="http://www.w3.org/1999/xlink" height="26.35px" width="55.95px" xmlns="http://www.w3.org/2000/svg">
  <g transform="matrix(1.0, 0.0, 0.0, 1.0, 35.4, 1.25)">
    <path d="M-27.4 7.1 Q-25.35 14.9 -29.75 21.0 -30.15 21.55 -30.8 21.25 -34.2 19.65 -34.75 15.8 -35.35 11.95 -35.4 9.45 -35.5 6.9 -34.2 2.25 -33.55 1.25 -32.4 1.05 L-32.0 1.0 Q-28.55 2.9 -27.4 7.1" fill="url(#gradient0)" fill-rule="evenodd" stroke="none"/>
    <path d="M-9.85 2.35 Q-6.7 -0.6 -2.5 -1.1 12.95 -2.55 19.3 10.35 22.9 17.7 16.3 22.5 14.05 24.1 11.25 24.65 -2.25 26.9 -10.45 17.35 -17.45 9.25 -9.85 2.35" fill="url(#gradient1)" fill-rule="evenodd" stroke="none"/>
  </g>
  <defs>
    <radialGradient cx="0" cy="0" gradientTransform="matrix(0.0089, 0.0, 0.0, 0.0125, -32.0, 10.25)" gradientUnits="userSpaceOnUse" id="gradient0" r="819.2" spreadMethod="pad">
      <stop offset="0.0" stop-color="#ff7181" stop-opacity="0.52156866"/>
      <stop offset="1.0" stop-color="#e6b380" stop-opacity="0.0"/>
      <stop offset="1.0" stop-color="#e6b380"/>
    </radialGradient>
    <radialGradient cx="0" cy="0" gradientTransform="matrix(0.007, -0.0146, 0.0195, 0.0094, 3.35, 11.95)" gradientUnits="userSpaceOnUse" id="gradient1" r="819.2" spreadMethod="pad">
      <stop offset="0.0" stop-color="#ff7181" stop-opacity="0.52156866"/>
      <stop offset="1.0" stop-color="#e6b380" stop-opacity="0.0"/>
    </radialGradient>
  </defs>
</svg>
