<?xml version="1.0" encoding="UTF-8" standalone="no"?>
<svg xmlns:xlink="http://www.w3.org/1999/xlink" height="6.8px" width="45.25px" xmlns="http://www.w3.org/2000/svg">
  <g transform="matrix(1.0, 0.0, 0.0, 1.0, 35.95, 8.75)">
    <path d="M4.9 -7.45 L3.65 -6.65 3.25 -6.45 Q2.95 -6.1 2.15 -6.2 L2.1 -6.2 3.4 -5.85 5.6 -5.95 Q5.8 -5.95 7.4 -6.85 M-1.35 -8.2 L-2.85 -6.65 -1.2 -6.65 0.85 -7.1 2.25 -7.85 M8.8 -5.55 L7.15 -5.1 6.7 -5.0 5.85 -4.85 Q7.05 -4.1 7.25 -3.15 M3.4 -5.85 Q5.4 -4.85 5.85 -4.85 M-31.9 -8.25 L-30.8 -6.05 -27.5 -6.0 Q-25.25 -5.8 -22.7 -3.35 M-30.8 -6.05 L-32.55 -5.65 -34.55 -5.1 -35.45 -6.8 M-32.55 -5.65 L-33.05 -6.0 -33.55 -7.85 M-2.85 -6.65 L-3.85 -6.4 -4.1 -6.35 -7.0 -6.2 Q-7.95 -5.65 -9.2 -5.25 L-10.15 -5.05 -13.0 -2.45 M-4.7 -8.25 Q-6.05 -6.75 -7.0 -6.2 M2.1 -6.2 L-1.2 -6.65" fill="none" stroke="#000000" stroke-linecap="round" stroke-linejoin="round" stroke-width="1.0"/>
  </g>
</svg>
