<?xml version="1.0" encoding="UTF-8" standalone="no"?>
<svg xmlns:xlink="http://www.w3.org/1999/xlink" height="11.4px" width="47.55px" xmlns="http://www.w3.org/2000/svg">
  <g transform="matrix(1.0, 0.0, 0.0, 1.0, 37.35, 17.05)">
    <path d="M10.2 -12.05 L9.6 -9.2 Q8.9 -6.4 5.7 -6.1 2.45 -5.75 -0.2 -7.0 -2.9 -8.2 -5.8 -7.0 -8.65 -5.8 -9.6 -6.4 -10.55 -7.0 -11.05 -8.4 -11.6 -9.9 -12.35 -9.85 L-12.35 -11.35 -10.6 -13.05 Q-5.4 -17.6 1.5 -16.95 6.3 -16.75 9.45 -13.05 L10.2 -12.05 M-34.0 -6.15 L-35.15 -6.25 Q-38.85 -7.55 -36.3 -7.8 L-32.55 -8.1 Q-31.35 -8.15 -29.35 -9.35 -27.4 -10.55 -26.5 -8.25 L-25.65 -5.95 -25.8 -5.8 -26.2 -5.65 -30.65 -6.1 -30.85 -6.05 -30.9 -6.05 -31.95 -6.0 -33.35 -6.3 -33.9 -6.15 -34.0 -6.15" fill="#e6b380" fill-rule="evenodd" stroke="none"/>
  </g>
</svg>
