<?xml version="1.0" encoding="UTF-8" standalone="no"?>
<svg xmlns:xlink="http://www.w3.org/1999/xlink" height="8.05px" width="45.2px" xmlns="http://www.w3.org/2000/svg">
  <g transform="matrix(1.0, 0.0, 0.0, 1.0, 35.95, 9.5)">
    <path d="M4.75 -8.45 L3.6 -7.5 3.2 -7.25 Q2.9 -6.85 2.1 -6.9 L2.05 -6.85 3.4 -6.5 5.55 -6.7 7.3 -7.9 M-1.55 -9.0 Q-2.5 -7.45 -2.95 -7.2 L-1.25 -7.25 0.75 -7.85 2.1 -8.8 M8.75 -6.5 L7.15 -5.85 6.7 -5.75 5.85 -5.5 Q7.1 -4.8 7.35 -3.6 M5.85 -5.5 Q5.4 -5.5 3.4 -6.5 M-2.95 -7.2 Q-3.4 -6.95 -3.95 -6.8 L-4.2 -6.75 -7.05 -6.4 Q-8.0 -5.75 -9.2 -5.3 L-10.15 -5.0 -12.85 -1.95 M-4.9 -8.9 Q-6.1 -7.1 -7.05 -6.4 M2.05 -6.85 L-1.25 -7.25" fill="none" stroke="#000000" stroke-linecap="round" stroke-linejoin="round" stroke-width="1.0"/>
    <path d="M-35.45 -6.8 L-34.55 -5.1 -32.55 -5.65 -33.05 -6.0 -33.55 -7.85 M-22.7 -3.35 Q-25.25 -5.8 -27.5 -6.0 L-30.8 -6.05 -32.55 -5.65 M-31.9 -8.25 L-30.8 -6.05" fill="none" stroke="#000000" stroke-linecap="round" stroke-linejoin="round" stroke-width="1.0"/>
  </g>
</svg>
