<?xml version="1.0" encoding="UTF-8" standalone="no"?>
<svg xmlns:xlink="http://www.w3.org/1999/xlink" height="14.9px" width="47.55px" xmlns="http://www.w3.org/2000/svg">
  <g transform="matrix(1.0, 0.0, 0.0, 1.0, 37.35, 19.0)">
    <path d="M9.6 -9.7 Q8.9 -6.45 5.7 -6.05 2.45 -5.7 -0.2 -7.1 -2.9 -8.55 -5.8 -7.1 -8.65 -5.75 -9.6 -6.45 -10.55 -7.1 -11.05 -8.8 -11.6 -10.55 -12.35 -10.45 L-12.35 -15.15 Q-12.6 -15.5 -8.8 -17.55 -5.05 -19.65 1.5 -18.7 5.8 -18.55 8.75 -15.1 L10.2 -13.05 9.6 -9.7 M-35.15 -5.45 Q-38.85 -8.25 -36.3 -8.85 L-32.35 -9.55 -28.5 -10.05 Q-26.05 -10.45 -25.8 -7.65 L-25.65 -4.75 -25.8 -4.45 -26.2 -4.1 Q-28.65 -4.05 -30.65 -5.1 L-30.85 -4.95 -30.9 -4.95 -31.95 -4.9 Q-32.75 -5.0 -33.35 -5.5 L-33.9 -5.2 -34.0 -5.15 Q-34.6 -5.05 -35.15 -5.45" fill="#e6b380" fill-rule="evenodd" stroke="none"/>
  </g>
</svg>
