<?xml version="1.0" encoding="UTF-8" standalone="no"?>
<svg xmlns:xlink="http://www.w3.org/1999/xlink" height="9.5px" width="45.25px" xmlns="http://www.w3.org/2000/svg">
  <g transform="matrix(1.0, 0.0, 0.0, 1.0, 35.95, 11.6)">
    <path d="M4.9 -9.95 L3.65 -8.8 3.25 -8.45 Q2.95 -8.0 2.15 -8.1 L2.1 -8.1 3.4 -7.6 5.6 -7.7 7.4 -9.1 M8.8 -7.15 L7.15 -6.5 6.7 -6.35 Q6.3 -6.05 5.85 -6.05 7.05 -5.05 7.25 -3.6 M-1.35 -11.05 Q-2.4 -9.15 -2.85 -8.8 L-1.2 -8.8 Q-0.1 -8.95 0.85 -9.45 L2.25 -10.55 M5.85 -6.05 Q5.4 -6.15 3.4 -7.6 M-35.45 -5.3 L-34.55 -4.4 -32.55 -4.7 -33.05 -4.9 -33.55 -5.8 M-32.55 -4.7 L-30.8 -4.9 -31.9 -6.0 M-30.8 -4.9 L-28.95 -4.8 -23.75 -3.85 M-2.85 -8.8 Q-3.3 -8.5 -3.85 -8.4 L-4.1 -8.35 -7.0 -8.1 Q-7.95 -7.3 -9.2 -6.7 L-10.15 -6.4 -13.0 -2.6 M-4.7 -11.1 Q-6.05 -8.9 -7.0 -8.1 M2.1 -8.1 L-1.2 -8.8" fill="none" stroke="#000000" stroke-linecap="round" stroke-linejoin="round" stroke-width="1.0"/>
  </g>
</svg>
