<?xml version="1.0" encoding="UTF-8" standalone="no"?>
<svg xmlns:xlink="http://www.w3.org/1999/xlink" height="6.8px" width="45.25px" xmlns="http://www.w3.org/2000/svg">
  <g transform="matrix(1.0, 0.0, 0.0, 1.0, 35.95, 8.0)">
    <path d="M-1.35 -7.45 Q-2.4 -6.15 -2.85 -5.95 L-1.2 -5.95 0.85 -6.35 2.25 -7.1 M4.9 -6.75 L3.65 -5.95 3.25 -5.7 Q2.95 -5.4 2.15 -5.45 L2.1 -5.45 3.4 -5.1 5.6 -5.2 7.4 -6.15 M8.8 -4.85 L7.15 -4.35 6.7 -4.3 5.85 -4.1 Q7.05 -3.4 7.25 -2.4 M3.4 -5.1 Q5.4 -4.15 5.85 -4.1 M-35.45 -5.3 L-34.55 -3.95 -32.55 -4.4 -33.05 -4.7 -33.55 -6.15 M-32.55 -4.4 L-30.8 -4.7 -31.9 -6.45 M-30.8 -4.7 L-28.15 -4.7 Q-26.5 -4.75 -23.1 -2.45 M-2.85 -5.95 L-3.85 -5.65 -4.1 -5.6 -7.0 -5.45 Q-7.95 -4.9 -9.2 -4.5 L-10.15 -4.3 -13.0 -1.7 M-4.7 -7.5 Q-6.05 -6.0 -7.0 -5.45 M2.1 -5.45 L-1.2 -5.95" fill="none" stroke="#000000" stroke-linecap="round" stroke-linejoin="round" stroke-width="1.0"/>
  </g>
</svg>
