<?xml version="1.0" encoding="UTF-8" standalone="no"?>
<svg xmlns:xlink="http://www.w3.org/1999/xlink" height="6.75px" width="42.65px" xmlns="http://www.w3.org/2000/svg">
  <g transform="matrix(1.0, 0.0, 0.0, 1.0, 36.25, 11.0)">
    <path d="M6.15 -6.9 L6.0 -6.75 5.45 -6.5 Q-1.95 -10.95 -10.1 -7.05 L-11.85 -7.15 -11.95 -7.3 -12.0 -7.5 -11.95 -7.7 -11.85 -7.9 Q-6.75 -10.85 -0.8 -11.0 3.95 -11.0 6.4 -7.4 L6.4 -7.25 6.15 -6.9" fill="#e6b380" fill-rule="evenodd" stroke="none"/>
    <path d="M-34.6 -7.45 L-34.75 -7.45 Q-35.3 -7.4 -35.55 -7.9 L-35.8 -9.1 -36.15 -9.3 -36.25 -9.9 -36.15 -10.45 Q-35.8 -10.9 -35.25 -10.9 L-35.25 -10.95 -35.0 -10.8 -32.75 -10.95 -32.25 -11.0 Q-28.65 -10.4 -27.55 -7.1 L-27.55 -6.95 -27.7 -6.75 -27.85 -6.6 -28.05 -6.85 Q-29.3 -8.1 -30.95 -8.15 -29.3 -8.1 -28.05 -6.85 L-27.85 -6.6 -28.5 -6.25 -29.0 -6.4 -30.05 -7.4 -30.95 -8.15 -32.8 -8.15 -33.9 -7.5 -32.8 -8.15 -32.9 -7.8 -33.9 -7.5 Q-33.2 -7.1 -33.95 -7.45 L-34.1 -7.65 -34.3 -7.5 -34.6 -7.45" fill="#e4af7a" fill-rule="evenodd" stroke="none"/>
    <path d="M-13.25 -5.15 Q-11.5 -6.85 -5.45 -7.7 0.6 -8.55 2.85 -7.1 L5.5 -5.5 M-27.85 -6.6 L-26.5 -4.75 M-34.6 -7.45 L-34.7 -7.35 -35.25 -6.75 Q-35.7 -6.5 -35.6 -6.0 M-32.8 -8.15 L-30.95 -8.15 Q-29.3 -8.1 -28.05 -6.85 L-27.85 -6.6 M-33.9 -7.5 L-32.8 -8.15" fill="none" stroke="#000000" stroke-linecap="round" stroke-linejoin="round" stroke-width="1.0"/>
  </g>
</svg>
