<?xml version="1.0" encoding="UTF-8" standalone="no"?>
<svg xmlns:xlink="http://www.w3.org/1999/xlink" height="4.4px" width="41.75px" xmlns="http://www.w3.org/2000/svg">
  <g transform="matrix(1.0, 0.0, 0.0, 1.0, 36.0, 9.9)">
    <path d="M-11.9 -6.85 Q-12.5 -7.2 -12.8 -8.15 -11.85 -8.9 -10.65 -9.25 L-7.75 -9.85 Q-1.1 -10.25 5.05 -8.25 5.6 -8.1 5.65 -7.5 5.9 -5.25 3.25 -5.95 L0.45 -6.85 Q-3.0 -8.25 -6.7 -7.8 L-6.9 -7.85 Q-8.35 -7.7 -9.75 -7.05 -10.8 -6.55 -11.5 -6.7 L-11.9 -6.85 M5.25 -6.75 L4.85 -6.75 3.6 -6.95 3.35 -7.05 2.35 -7.4 1.1 -7.6 -1.75 -8.15 -3.65 -8.4 -5.15 -8.35 -5.5 -8.3 -6.65 -8.1 -6.9 -8.05 -8.4 -7.75 -9.65 -7.15 Q-9.75 -7.05 -9.9 -7.05 L-11.0 -6.75 -11.5 -6.7 -11.0 -6.75 -9.9 -7.05 Q-9.75 -7.05 -9.65 -7.15 L-8.4 -7.75 -6.9 -8.05 -6.65 -8.1 -5.5 -8.3 -5.15 -8.35 -3.65 -8.4 -1.75 -8.15 1.1 -7.6 2.35 -7.4 3.35 -7.05 3.6 -6.95 4.85 -6.75 5.25 -6.75 M-35.2 -6.1 L-35.35 -6.25 -35.7 -8.0 Q-35.95 -8.75 -35.1 -9.2 L-34.5 -9.35 -33.9 -9.0 -33.85 -8.95 Q-30.95 -9.35 -28.25 -8.2 -27.55 -8.15 -27.4 -7.5 L-27.4 -7.45 -27.6 -7.0 Q-28.2 -6.2 -29.4 -7.0 L-30.1 -7.2 -30.5 -6.9 -30.65 -6.7 -30.85 -6.65 -31.2 -6.65 Q-31.6 -6.2 -32.2 -6.2 L-32.4 -6.2 -32.5 -6.15 -32.75 -6.0 -34.15 -6.05 -35.1 -5.95 -35.2 -6.05 -35.2 -6.1 -33.45 -7.25 -31.15 -7.5 -29.5 -7.25 -27.9 -7.1 -27.6 -7.0 -27.9 -7.1 -29.5 -7.25 -31.15 -7.5 -33.45 -7.25 -35.2 -6.1" fill="#e6b380" fill-rule="evenodd" stroke="none"/>
    <path d="M-11.5 -6.7 L-11.9 -6.85 M-11.5 -6.7 L-11.0 -6.75 -9.9 -7.05 Q-9.75 -7.05 -9.65 -7.15 L-8.4 -7.75 -6.9 -8.05 -6.65 -8.1 -5.5 -8.3 -5.15 -8.35 -3.65 -8.4 -1.75 -8.15 1.1 -7.6 2.35 -7.4 3.35 -7.05 3.6 -6.95 4.85 -6.75 5.25 -6.75 M-35.2 -6.1 L-35.5 -6.0 M-27.6 -7.0 L-27.9 -7.1 -29.5 -7.25 -31.15 -7.5 -33.45 -7.25 -35.2 -6.1" fill="none" stroke="#422100" stroke-linecap="round" stroke-linejoin="round" stroke-width="1.0"/>
  </g>
</svg>
