<?xml version="1.0" encoding="UTF-8" standalone="no"?>
<svg xmlns:xlink="http://www.w3.org/1999/xlink" height="4.75px" width="39.75px" xmlns="http://www.w3.org/2000/svg">
  <g transform="matrix(1.0, 0.0, 0.0, 1.0, 35.6, 9.4)">
    <path d="M4.15 -8.0 Q3.8 -6.45 2.0 -7.1 L0.5 -7.35 Q-6.35 -7.35 -12.85 -5.45 L-15.85 -4.7 Q-16.45 -4.55 -16.7 -5.0 L-16.7 -5.1 -16.7 -5.3 -16.65 -5.4 -16.55 -5.5 Q-11.55 -8.25 -5.85 -8.5 L-0.5 -9.25 Q2.4 -9.8 4.1 -8.1 L4.15 -8.0 M-29.6 -5.7 Q-29.5 -5.2 -30.05 -5.25 -31.1 -5.3 -32.05 -6.0 -33.5 -7.1 -35.25 -6.6 -35.55 -6.5 -35.6 -6.85 -35.7 -8.25 -34.05 -8.5 L-33.0 -8.6 Q-30.15 -8.1 -29.6 -5.7" fill="#e6b380" fill-rule="evenodd" stroke="none"/>
  </g>
</svg>
