<?xml version="1.0" encoding="UTF-8" standalone="no"?>
<svg xmlns:xlink="http://www.w3.org/1999/xlink" height="5.5px" width="41.75px" xmlns="http://www.w3.org/2000/svg">
  <g transform="matrix(1.0, 0.0, 0.0, 1.0, 34.75, 7.0)">
    <path d="M2.75 -4.75 Q3.5 -5.0 3.6 -5.75 L3.5 -6.25 M6.25 -5.25 L6.5 -6.0 M-34.25 -6.0 L-30.5 -5.8 -30.25 -5.75 M-32.75 -4.75 L-31.0 -5.0 -30.75 -5.0 M-33.75 -3.25 L-33.0 -3.25 M-13.25 -3.75 Q-12.9 -4.9 -11.5 -4.9 L-11.0 -4.9 -7.5 -5.15 -6.0 -5.35 -3.95 -5.9 -3.5 -6.0 -2.0 -6.25 1.25 -6.5 M-7.25 -2.25 L-5.0 -2.05 -4.25 -2.0 M-10.5 -4.25 L-5.75 -3.95 -4.25 -3.95 -3.25 -4.0" fill="none" stroke="#000000" stroke-linecap="round" stroke-linejoin="round" stroke-width="1.0"/>
  </g>
</svg>
