<?xml version="1.0" encoding="UTF-8" standalone="no"?>
<svg xmlns:xlink="http://www.w3.org/1999/xlink" height="7.4px" width="42.95px" xmlns="http://www.w3.org/2000/svg">
  <g transform="matrix(1.0, 0.0, 0.0, 1.0, 36.25, 11.75)">
    <path d="M6.3 -7.5 L5.75 -7.25 Q-1.65 -11.7 -9.8 -7.8 L-11.55 -7.9 -11.65 -8.05 -11.7 -8.25 -11.65 -8.45 -11.55 -8.65 Q-6.45 -11.6 -0.5 -11.75 4.25 -11.75 6.7 -8.15 L6.7 -8.0 6.45 -7.65 6.3 -7.5" fill="#e6b380" fill-rule="evenodd" stroke="none"/>
    <path d="M-29.8 -7.2 L-30.05 -7.4 -30.95 -8.15 -32.85 -7.75 -32.85 -7.9 -32.85 -7.85 -32.9 -7.8 Q-33.15 -7.1 -33.95 -7.45 L-34.1 -7.65 -34.3 -7.5 -34.6 -7.45 -34.75 -7.45 Q-35.3 -7.4 -35.55 -7.9 L-35.8 -9.1 -36.15 -9.3 -36.25 -9.9 -36.15 -10.45 Q-35.8 -10.9 -35.25 -10.9 L-35.25 -10.95 -35.0 -10.8 -32.75 -10.95 -32.25 -11.0 Q-28.65 -10.4 -27.55 -7.1 L-27.55 -6.95 -27.7 -6.75 -27.85 -6.6 -28.1 -6.45 -28.35 -6.65 Q-28.9 -7.05 -29.75 -7.2 L-29.8 -7.2 -29.75 -7.2 Q-28.9 -7.05 -28.35 -6.65 L-28.1 -6.45 -28.5 -6.25 -29.0 -6.4 -29.8 -7.2" fill="#e4af7a" fill-rule="evenodd" stroke="none"/>
    <path d="M-12.5 -4.85 Q-11.2 -7.15 -5.2 -7.55 L2.95 -7.0 Q5.1 -6.1 5.5 -5.7" fill="none" stroke="#000000" stroke-linecap="round" stroke-linejoin="round" stroke-width="1.0"/>
    <path d="M-28.1 -6.45 L-27.1 -5.65 M-35.75 -5.65 Q-33.55 -7.75 -30.45 -7.35 L-29.8 -7.2 -29.75 -7.2 Q-28.9 -7.05 -28.35 -6.65 L-28.1 -6.45" fill="none" stroke="#422100" stroke-linecap="round" stroke-linejoin="round" stroke-width="1.0"/>
  </g>
</svg>
