<?xml version="1.0" encoding="UTF-8" standalone="no"?>
<svg xmlns:xlink="http://www.w3.org/1999/xlink" height="4.65px" width="39.25px" xmlns="http://www.w3.org/2000/svg">
  <g transform="matrix(1.0, 0.0, 0.0, 1.0, 35.85, 11.3)">
    <path d="M3.4 -9.35 Q1.55 -7.2 -2.15 -8.6 -4.7 -9.55 -7.5 -9.3 L-9.85 -9.3 -10.0 -9.25 Q-11.55 -8.9 -12.9 -8.1 -13.75 -7.6 -14.4 -8.1 -14.15 -8.9 -13.35 -9.3 -10.9 -10.65 -8.0 -11.1 L-7.5 -11.2 Q-1.65 -11.8 3.3 -9.5 L3.4 -9.35 M-31.7 -8.15 L-31.6 -8.0 -31.55 -7.8 Q-31.5 -7.5 -31.75 -7.25 L-31.85 -7.05 Q-34.25 -6.0 -35.85 -7.55 L-35.85 -7.75 -35.75 -8.1 -35.7 -8.3 Q-34.55 -9.0 -33.25 -8.7 -32.25 -8.9 -31.7 -8.15" fill="#e6b380" fill-rule="evenodd" stroke="none"/>
  </g>
</svg>
