<?xml version="1.0" encoding="UTF-8" standalone="no"?>
<svg xmlns:xlink="http://www.w3.org/1999/xlink" height="16.05px" width="42.5px" xmlns="http://www.w3.org/2000/svg">
  <g transform="matrix(1.0, 0.0, 0.0, 1.0, 36.75, 11.3)">
    <path d="M3.9 -8.85 L5.2 -7.95 5.65 -7.25 Q5.25 -5.6 3.7 -6.75 L2.6 -7.55 Q-1.7 -7.85 -5.95 -9.05 -8.8 -9.8 -11.2 -8.25 L-11.2 -8.2 -11.3 -7.9 -11.4 -7.8 -11.5 -7.75 Q-11.9 -7.55 -12.2 -7.95 -12.3 -10.25 -9.8 -10.9 L-5.7 -11.15 -2.1 -11.3 Q0.6 -10.8 3.2 -9.8 3.9 -9.55 3.9 -8.85 M-34.85 -11.2 Q-31.35 -10.8 -28.55 -8.9 L-28.45 -8.6 Q-29.65 -7.35 -31.65 -8.15 L-32.35 -8.35 Q-32.9 -7.6 -33.85 -8.0 L-34.1 -8.1 Q-34.45 -7.6 -35.05 -7.75 L-35.35 -7.75 Q-36.2 -8.15 -36.65 -9.05 -36.85 -9.55 -36.65 -10.1 -36.4 -10.45 -36.0 -10.45 L-35.8 -10.45 -35.4 -10.9 -35.2 -11.1 -34.85 -11.15 -34.85 -11.2" fill="#e6b380" fill-rule="evenodd" stroke="none"/>
    <path d="M-36.6 -0.05 L-36.75 -0.6 -36.0 -3.6 Q-35.6 -4.7 -34.75 -5.4 -32.7 -6.15 -30.6 -6.3 -29.35 -6.3 -28.95 -5.15 L-29.3 -4.4 -30.55 -2.1 Q-31.55 -0.4 -33.2 0.25 -35.0 1.0 -36.6 -0.05" fill="url(#gradient0)" fill-rule="evenodd" stroke="none"/>
    <path d="M-12.75 -6.0 L-12.35 -6.1 -11.65 -6.2 -11.15 -6.1 -0.55 -4.6 Q8.1 -5.4 4.9 3.25 4.5 4.35 3.6 4.5 -8.65 6.35 -13.05 -5.6 L-12.75 -6.0" fill="url(#gradient1)" fill-rule="evenodd" stroke="none"/>
    <path d="M-12.35 -6.1 Q-10.2 -7.5 -7.6 -7.55 L-7.1 -7.6 -4.1 -7.7 -1.35 -7.45 1.4 -6.75 3.4 -6.0 Q4.15 -5.65 4.75 -4.9 M-35.35 -6.25 Q-34.65 -6.95 -33.75 -7.0 L-33.25 -7.1 -32.85 -7.15 -30.25 -7.2 Q-29.0 -7.2 -28.0 -6.65 L-27.6 -6.5 -26.75 -5.9" fill="none" stroke="#422100" stroke-linecap="round" stroke-linejoin="round" stroke-width="1.0"/>
  </g>
  <defs>
    <radialGradient cx="0" cy="0" gradientTransform="matrix(0.0057, 0.0, 0.0, 0.0057, -33.0, -3.35)" gradientUnits="userSpaceOnUse" id="gradient0" r="819.2" spreadMethod="pad">
      <stop offset="0.0" stop-color="#078917" stop-opacity="0.3137255"/>
      <stop offset="1.0" stop-color="#078917" stop-opacity="0.0"/>
    </radialGradient>
    <radialGradient cx="0" cy="0" gradientTransform="matrix(0.0129, 0.0, 0.0, 0.0129, -3.3, -4.1)" gradientUnits="userSpaceOnUse" id="gradient1" r="819.2" spreadMethod="pad">
      <stop offset="0.0" stop-color="#078917" stop-opacity="0.3137255"/>
      <stop offset="1.0" stop-color="#078917" stop-opacity="0.0"/>
    </radialGradient>
  </defs>
</svg>
