<?xml version="1.0" encoding="UTF-8" standalone="no"?>
<svg xmlns:xlink="http://www.w3.org/1999/xlink" height="7.5px" width="42.7px" xmlns="http://www.w3.org/2000/svg">
  <g transform="matrix(1.0, 0.0, 0.0, 1.0, 36.25, 11.4)">
    <path d="M6.45 -7.0 L6.2 -6.65 6.05 -6.5 5.5 -6.25 Q-1.9 -10.7 -10.05 -6.8 L-11.8 -6.9 -11.9 -7.05 -11.95 -7.25 -11.9 -7.45 -9.3 -9.4 Q-6.7 -11.3 -1.35 -11.4 4.0 -11.55 5.25 -9.3 L6.45 -7.0" fill="#e6b380" fill-rule="evenodd" stroke="none"/>
    <path d="M-34.6 -7.45 L-34.75 -7.45 Q-35.3 -7.4 -35.55 -7.9 L-35.8 -9.1 -36.15 -9.3 -36.25 -9.9 -36.15 -10.45 Q-35.8 -10.9 -35.25 -10.9 L-35.25 -10.95 -35.0 -10.8 -32.75 -10.95 -32.25 -11.0 Q-28.65 -10.4 -27.55 -7.1 L-27.55 -6.95 -27.7 -6.75 -27.85 -6.6 -28.05 -6.85 Q-29.3 -8.1 -30.95 -8.15 -29.3 -8.1 -28.05 -6.85 L-27.85 -6.6 -28.5 -6.25 -29.0 -6.4 -30.05 -7.4 -30.95 -8.15 -32.95 -8.5 -32.9 -8.4 Q-32.75 -8.1 -32.9 -7.8 -33.15 -7.1 -33.95 -7.45 L-34.1 -7.65 -34.3 -7.5 -34.6 -7.45 -34.3 -7.7 -34.15 -7.8 -33.95 -8.0 -33.6 -8.2 -33.5 -8.25 -33.3 -8.45 -33.1 -8.5 -32.95 -8.5 -33.1 -8.5 -33.3 -8.45 -33.5 -8.25 -33.6 -8.2 -33.95 -8.0 -34.15 -7.8 -34.3 -7.7 -34.6 -7.45" fill="#e4af7a" fill-rule="evenodd" stroke="none"/>
    <path d="M-12.5 -4.4 Q-11.2 -7.4 -5.2 -7.7 0.8 -8.0 2.95 -6.8 L5.5 -5.25 M-27.85 -6.6 L-26.5 -4.75 M-34.6 -7.45 L-34.3 -7.7 -34.15 -7.8 -33.95 -8.0 -33.6 -8.2 -33.5 -8.25 -33.3 -8.45 -33.1 -8.5 -32.95 -8.5 -30.95 -8.15 Q-29.3 -8.1 -28.05 -6.85 L-27.85 -6.6 M-34.6 -7.45 L-34.7 -7.35 -35.25 -6.75 Q-35.7 -6.5 -35.6 -6.0" fill="none" stroke="#000000" stroke-linecap="round" stroke-linejoin="round" stroke-width="1.0"/>
  </g>
</svg>
