<?xml version="1.0" encoding="UTF-8" standalone="no"?>
<svg xmlns:xlink="http://www.w3.org/1999/xlink" height="7.5px" width="42.95px" xmlns="http://www.w3.org/2000/svg">
  <g transform="matrix(1.0, 0.0, 0.0, 1.0, 36.25, 11.75)">
    <path d="M-11.1 -7.65 L-11.55 -7.9 -11.65 -8.05 -11.7 -8.25 -11.65 -8.45 -11.55 -8.65 Q-6.45 -11.6 -0.5 -11.75 4.25 -11.75 6.7 -8.15 L6.7 -8.0 6.45 -7.65 6.3 -7.5 5.75 -7.25 Q4.1 -8.25 2.4 -8.8 -0.2 -11.05 -4.55 -10.35 -9.0 -9.65 -11.1 -7.65 -9.0 -9.65 -4.55 -10.35 -0.2 -11.05 2.4 -8.8 -3.5 -10.8 -9.8 -7.8 L-11.1 -7.65" fill="#e6b380" fill-rule="evenodd" stroke="none"/>
    <path d="M-34.7 -7.35 L-34.75 -7.45 Q-35.3 -7.4 -35.55 -7.9 L-35.8 -9.1 -36.15 -9.3 -36.25 -9.9 -36.15 -10.45 Q-35.8 -10.9 -35.25 -10.9 L-35.25 -10.95 -35.0 -10.8 -32.75 -10.95 -32.25 -11.0 Q-28.65 -10.4 -27.55 -7.1 L-27.55 -6.95 -27.7 -6.75 -27.85 -6.6 Q-28.1 -6.6 -28.8 -7.1 -29.5 -7.6 -30.55 -7.65 -29.5 -7.6 -28.8 -7.1 -28.1 -6.6 -27.85 -6.6 L-28.5 -6.25 -29.0 -6.4 -30.05 -7.4 -30.55 -7.65 -30.6 -7.65 -30.95 -7.55 -32.85 -7.9 -32.95 -7.15 -32.95 -7.7 Q-33.2 -7.25 -33.6 -7.35 L-33.65 -7.35 -34.0 -7.55 -33.65 -7.35 -33.95 -7.45 -34.0 -7.55 -34.1 -7.65 -34.3 -7.5 -34.6 -6.6 -34.7 -7.35 M-32.95 -7.7 L-33.5 -7.8 Q-33.25 -7.3 -33.6 -7.35 -33.25 -7.3 -33.5 -7.8 L-32.95 -7.7" fill="#e4af7a" fill-rule="evenodd" stroke="none"/>
    <path d="M2.4 -8.8 L4.7 -7.1 5.5 -6.35 M-27.85 -6.6 L-26.5 -4.75 M-34.7 -7.35 L-35.25 -6.75 Q-35.7 -6.5 -35.6 -6.0 M-34.6 -6.6 L-34.7 -7.35 M-34.6 -6.6 L-34.0 -7.55 -33.65 -7.35 -33.6 -7.35 Q-33.25 -7.3 -33.5 -7.8 L-32.95 -7.7 -32.95 -7.15 -32.85 -7.9 -30.95 -7.55 -30.6 -7.65 -30.55 -7.65 Q-29.5 -7.6 -28.8 -7.1 -28.1 -6.6 -27.85 -6.6 M-12.5 -5.5 Q-12.1 -6.75 -11.1 -7.65 -9.0 -9.65 -4.55 -10.35 -0.2 -11.05 2.4 -8.8 Z" fill="none" stroke="#000000" stroke-linecap="round" stroke-linejoin="round" stroke-width="1.0"/>
  </g>
</svg>
