<?xml version="1.0" encoding="UTF-8" standalone="no"?>
<svg xmlns:xlink="http://www.w3.org/1999/xlink" height="270.0px" width="405.05px" xmlns="http://www.w3.org/2000/svg">
  <g transform="matrix(1.0, 0.0, 0.0, 1.0, 7.5, 0.0)">
    <path d="M390.0 41.3 L0.0 41.3 0.0 0.0 390.0 0.0 390.0 41.3" fill="url(#gradient0)" fill-rule="evenodd" stroke="none"/>
    <path d="M394.95 31.0 L395.5 30.95 397.05 43.0 381.2 43.0 375.05 39.25 394.95 31.0 M309.1 34.3 L308.0 34.85 267.55 43.0 177.3 43.0 160.6 38.9 171.9 32.6 176.0 34.5 225.0 14.0 232.0 25.0 241.5 18.65 Q248.5 29.35 259.7 26.05 261.25 25.6 262.0 24.05 L263.0 22.0 285.2 32.85 295.0 27.0 309.1 34.3 M33.05 34.1 L5.8 43.0 -2.7 43.0 -7.0 11.0 11.05 23.35 11.0 19.0 33.05 34.1 M12.0 24.0 L11.05 23.35 12.0 24.0" fill="url(#gradient1)" fill-rule="evenodd" stroke="none"/>
    <path d="M375.05 39.25 L381.2 43.0 267.55 43.0 308.0 34.85 309.1 34.3 312.45 32.6 Q319.1 34.15 325.25 36.95 326.8 37.65 328.4 37.6 344.8 37.35 359.95 30.0 L375.05 39.25 M160.6 38.9 L177.3 43.0 5.8 43.0 33.05 34.1 70.0 22.0 72.75 23.85 Q74.0 24.5 75.05 24.05 87.05 19.05 99.65 15.3 101.8 14.55 103.55 15.35 108.65 17.55 113.5 20.75 123.15 27.1 133.65 31.15 L160.6 38.9" fill="url(#gradient2)" fill-rule="evenodd" stroke="none"/>
    <path d="M394.95 31.0 L375.05 39.25 381.2 43.0 397.05 43.0 395.5 30.95 M309.1 34.3 L312.45 32.6 Q319.1 34.15 325.25 36.95 326.8 37.65 328.4 37.6 344.8 37.35 359.95 30.0 L375.05 39.25 M267.55 43.0 L308.0 34.85 309.1 34.3 295.0 27.0 285.2 32.85 263.0 22.0 262.0 24.05 Q261.25 25.6 259.7 26.05 248.5 29.35 241.5 18.65 L232.0 25.0 225.0 14.0 176.0 34.5 171.9 32.6 160.6 38.9 177.3 43.0 267.55 43.0 381.2 43.0 M160.6 38.9 L133.65 31.15 Q123.15 27.1 113.5 20.75 108.65 17.55 103.55 15.35 101.8 14.55 99.65 15.3 87.05 19.05 75.05 24.05 74.0 24.5 72.75 23.85 L70.0 22.0 33.05 34.1 5.8 43.0 177.3 43.0 M33.05 34.1 L11.0 19.0 11.05 23.35 12.0 24.0 M5.8 43.0 L-2.7 43.0 -7.0 11.0 11.05 23.35" fill="none" stroke="#3361ac" stroke-linecap="round" stroke-linejoin="round" stroke-opacity="0.101960786" stroke-width="1.0"/>
    <path d="M357.0 45.3 Q358.6 43.85 357.65 42.05 L357.45 41.3 357.65 42.05 Q358.6 43.85 357.0 45.3 M51.35 41.3 L357.45 41.3 363.4 41.3 363.3 42.6 363.4 41.3 390.0 41.3 390.0 270.0 0.0 270.0 0.0 41.3 45.75 41.3 48.4 41.3 48.45 42.15 48.4 41.3 51.35 41.3 51.15 42.15 51.35 41.3 M377.65 93.3 L378.55 87.0 377.65 93.3 M369.6 94.2 L369.6 86.1 369.6 94.2 M136.35 78.05 L138.15 73.55 136.35 78.05 M303.2 192.85 L304.1 188.35 303.2 192.85 M298.7 193.75 L296.9 185.65 298.7 193.75 M250.3 161.45 L250.3 156.95 250.3 161.45 M254.75 160.55 L252.95 154.3 254.75 160.55 M172.25 171.3 L172.25 165.95 172.25 171.3 M168.65 172.2 L168.9 170.7 Q169.8 163.0 165.95 156.05 169.8 163.0 168.9 170.7 L168.65 172.2 M164.15 171.3 L164.55 170.55 Q166.25 166.45 162.35 164.15 166.25 166.45 164.55 170.55 L164.15 171.3 M222.45 92.4 L221.55 85.2 222.45 92.4 M231.45 93.3 L233.25 85.2 231.45 93.3 M226.95 89.7 L228.75 79.85 226.95 89.7 M296.9 53.8 L294.25 46.65 296.9 53.8 M309.5 61.9 L311.25 55.6 309.5 61.9 M303.2 57.4 L305.0 51.1 303.2 57.4 M363.3 239.5 L364.2 238.6 Q367.65 234.35 364.2 229.65 367.65 234.35 364.2 238.6 L363.3 239.5 M374.05 239.5 L374.95 234.1 374.05 239.5 M368.7 239.5 L369.75 237.9 Q373.8 231.0 371.35 223.35 373.8 231.0 369.75 237.9 L368.7 239.5 M377.65 154.3 L378.35 153.7 Q381.35 150.8 379.45 147.1 381.35 150.8 378.35 153.7 L377.65 154.3 M45.3 42.6 L45.75 41.3 45.3 42.6 M38.6 199.15 L36.8 196.45 38.6 199.15 M245.8 230.5 L244.9 226.05 245.8 230.5 M254.75 235.0 L254.75 225.15 254.75 235.0 M33.2 205.4 L33.4 204.35 Q34.1 199.3 29.6 196.45 34.1 199.3 33.4 204.35 L33.2 205.4 M45.75 208.1 L44.85 204.5 45.75 208.1 M100.5 257.45 L98.7 252.95 100.5 257.45 M110.35 255.65 L108.55 250.25 110.35 255.65 M106.75 259.25 L105.95 257.45 Q103.4 251.9 104.05 245.75 103.4 251.9 105.95 257.45 L106.75 259.25 M139.05 191.05 L138.15 185.65 139.05 191.05 M144.45 185.65 L143.55 183.0 144.45 185.65 M92.4 134.55 L91.5 129.15 92.4 134.55 M87.0 137.25 L84.35 130.05 87.0 137.25 M23.35 54.7 L23.35 49.35 23.35 54.7 M28.7 61.9 L30.5 56.5 28.7 61.9 M17.05 58.3 L14.9 50.4 17.05 58.3" fill="url(#gradient3)" fill-rule="evenodd" stroke="none"/>
    <path d="M363.4 41.3 L357.45 41.3 51.35 41.3 48.4 41.3 45.75 41.3 0.0 41.3 0.0 270.0 390.0 270.0 390.0 41.3 363.4 41.3" fill="none" stroke="#009966" stroke-linecap="round" stroke-linejoin="round" stroke-width="0.05"/>
    <path d="M357.45 41.3 L357.65 42.05 Q358.6 43.85 357.0 45.3 M51.35 41.3 L51.15 42.15 M363.3 42.6 L363.4 41.3 363.55 40.4 364.2 39.0 M369.6 86.1 L369.6 94.2 M378.55 87.0 L377.65 93.3 M379.45 147.1 Q381.35 150.8 378.35 153.7 L377.65 154.3 M371.35 223.35 Q373.8 231.0 369.75 237.9 L368.7 239.5 M374.95 234.1 L374.05 239.5 M364.2 229.65 Q367.65 234.35 364.2 238.6 L363.3 239.5 M305.0 51.1 L303.2 57.4 M311.25 55.6 L309.5 61.9 M294.25 46.65 L296.9 53.8 M228.75 79.85 L226.95 89.7 M233.25 85.2 L231.45 93.3 M221.55 85.2 L222.45 92.4 M162.35 164.15 Q166.25 166.45 164.55 170.55 L164.15 171.3 M165.95 156.05 Q169.8 163.0 168.9 170.7 L168.65 172.2 M172.25 165.95 L172.25 171.3 M252.95 154.3 L254.75 160.55 M250.3 156.95 L250.3 161.45 M296.9 185.65 L298.7 193.75 M304.1 188.35 L303.2 192.85 M138.15 73.55 L136.35 78.05 M48.4 41.3 L48.45 42.15 M45.75 41.3 Q46.0 39.85 45.25 38.6 L44.85 38.1 M45.75 41.3 L45.3 42.6 M48.4 41.3 Q48.3 40.2 48.5 39.1 48.7 38.1 49.35 37.2 M51.35 41.3 L51.55 40.35 51.6 39.45 M14.9 50.4 L17.05 58.3 M30.5 56.5 L28.7 61.9 M23.35 49.35 L23.35 54.7 M84.35 130.05 L87.0 137.25 M91.5 129.15 L92.4 134.55 M143.55 183.0 L144.45 185.65 M138.15 185.65 L139.05 191.05 M104.05 245.75 Q103.4 251.9 105.95 257.45 L106.75 259.25 M108.55 250.25 L110.35 255.65 M98.7 252.95 L100.5 257.45 M44.85 204.5 L45.75 208.1 M29.6 196.45 Q34.1 199.3 33.4 204.35 L33.2 205.4 M254.75 225.15 L254.75 235.0 M244.9 226.05 L245.8 230.5 M36.8 196.45 L38.6 199.15" fill="none" stroke="#009933" stroke-linecap="round" stroke-linejoin="round" stroke-width="1.0"/>
    <path d="M390.05 42.7 L0.05 42.7 0.05 28.3 390.05 28.3 390.05 42.7" fill="url(#gradient4)" fill-rule="evenodd" stroke="none"/>
  </g>
  <defs>
    <linearGradient gradientTransform="matrix(0.0, 0.023, -0.1648, -3.0E-4, 195.75, 22.45)" gradientUnits="userSpaceOnUse" id="gradient0" spreadMethod="pad" x1="-819.2" x2="819.2">
      <stop offset="0.0" stop-color="#3ca4bd"/>
      <stop offset="1.0" stop-color="#6ccfe8"/>
    </linearGradient>
    <linearGradient gradientTransform="matrix(1.0E-4, -0.0199, 0.0177, 1.0E-4, 234.85, 28.5)" gradientUnits="userSpaceOnUse" id="gradient1" spreadMethod="pad" x1="-819.2" x2="819.2">
      <stop offset="0.0" stop-color="#3e6a97" stop-opacity="0.43137255"/>
      <stop offset="1.0" stop-color="#5facd6" stop-opacity="0.3529412"/>
    </linearGradient>
    <linearGradient gradientTransform="matrix(1.0E-4, -0.0199, 0.0177, 1.0E-4, 234.85, 28.5)" gradientUnits="userSpaceOnUse" id="gradient2" spreadMethod="pad" x1="-819.2" x2="819.2">
      <stop offset="0.0" stop-color="#3e6a97" stop-opacity="0.6509804"/>
      <stop offset="1.0" stop-color="#5facd6" stop-opacity="0.52156866"/>
    </linearGradient>
    <linearGradient gradientTransform="matrix(1.0E-4, -0.1435, 0.1648, 1.0E-4, 195.6, 159.7)" gradientUnits="userSpaceOnUse" id="gradient3" spreadMethod="pad" x1="-819.2" x2="819.2">
      <stop offset="0.0" stop-color="#285728"/>
      <stop offset="0.23137254901960785" stop-color="#2f6831"/>
      <stop offset="1.0" stop-color="#58863c"/>
    </linearGradient>
    <linearGradient gradientTransform="matrix(0.0, -0.0085, 0.2457, 0.0, 195.0, 35.45)" gradientUnits="userSpaceOnUse" id="gradient4" spreadMethod="pad" x1="-819.2" x2="819.2">
      <stop offset="0.0" stop-color="#459445" stop-opacity="0.49019608"/>
      <stop offset="1.0" stop-color="#a7ca8a" stop-opacity="0.0"/>
    </linearGradient>
  </defs>
</svg>
