<?xml version="1.0" encoding="UTF-8" standalone="no"?>
<svg xmlns:xlink="http://www.w3.org/1999/xlink" height="281.9px" width="437.95px" xmlns="http://www.w3.org/2000/svg">
  <g transform="matrix(1.0, 0.0, 0.0, 1.0, 17.7, 12.15)">
    <path d="M390.0 41.3 L0.0 41.3 0.0 0.0 390.0 0.0 390.0 41.3" fill="url(#gradient0)" fill-rule="evenodd" stroke="none"/>
    <path d="M289.45 -10.05 Q291.9 -6.75 291.8 -2.7 291.5 14.85 295.85 32.55 L286.75 32.45 Q289.5 24.25 287.95 12.8 286.35 1.35 288.5 -10.4 L289.45 -10.05 M249.1 -10.4 L249.65 -10.55 Q253.3 -8.0 252.9 -3.0 251.5 13.75 247.75 30.35 L240.5 29.7 Q243.4 25.15 244.2 15.6 244.95 6.0 249.1 -10.4 M274.65 -12.1 L278.45 -12.0 Q281.5 -0.95 283.0 10.35 284.7 22.95 286.5 34.75 L276.5 34.6 Q279.9 24.6 279.05 14.85 277.8 1.1 274.65 -12.1 M164.2 -12.05 L167.95 -12.1 Q167.1 -0.65 167.5 10.8 168.0 24.4 168.0 40.0 164.35 37.6 159.9 37.8 164.15 30.4 163.65 20.45 162.65 3.25 164.2 -12.05 M131.45 -10.95 Q134.65 -6.3 133.1 -0.9 130.05 16.65 130.25 34.65 L129.5 35.4 128.85 35.4 120.65 34.75 Q126.45 11.8 129.9 -10.85 L130.95 -11.5 131.45 -10.95 M151.9 -12.15 L155.5 -12.1 Q156.3 -3.3 156.3 5.3 156.3 22.45 157.55 35.75 L150.65 35.75 Q152.2 29.7 152.45 23.55 153.05 5.9 151.9 -12.15 M62.1 -9.55 Q63.4 -9.4 63.55 -8.45 L67.05 16.6 Q68.6 27.55 71.15 34.65 L58.7 34.45 Q62.7 25.7 61.55 14.3 60.35 2.85 62.1 -9.55 M47.2 -8.5 L48.25 -8.95 Q48.95 -8.15 49.2 -7.15 51.3 2.2 51.7 12.4 52.25 25.5 53.8 38.4 L44.5 38.05 Q47.05 29.7 46.5 21.3 45.6 6.45 47.2 -8.5 M16.2 -12.15 L19.8 -12.0 Q19.35 2.75 20.2 17.35 20.8 27.35 18.15 36.55 L17.4 36.35 16.45 37.05 15.55 37.05 15.2 36.6 13.6 36.15 12.0 34.45 16.2 -12.15" fill="#000000" fill-rule="evenodd" stroke="none"/>
    <path d="M67.8 -7.0 L87.8 -7.0 Q86.75 3.7 85.35 14.4 84.05 24.1 79.95 32.9 79.05 34.85 77.35 36.15 L72.5 43.45 63.75 49.95 48.95 40.2 Q47.8 37.65 45.7 37.15 30.15 32.8 18.2 21.9 25.65 15.15 25.95 4.45 26.15 -1.3 26.65 -7.0 L42.15 -7.0 Q42.7 5.95 46.65 18.35 48.5 24.25 53.3 28.15 55.8 30.1 58.65 31.3 66.75 21.2 67.5 7.85 67.85 1.25 67.8 -5.3 L67.8 -7.0 M335.65 -7.0 L349.0 -7.0 Q350.4 0.25 354.15 6.95 354.8 20.15 351.45 32.7 L350.6 35.75 Q342.5 32.65 338.2 25.65 336.95 23.55 336.55 20.95 335.5 13.75 333.6 6.9 L335.65 -7.0 M257.45 -7.0 L271.15 -7.0 271.65 -2.05 Q272.75 6.55 274.75 15.05 277.15 25.45 286.3 29.55 L272.15 38.6 256.6 29.9 Q254.95 28.95 253.75 27.4 250.4 23.3 249.75 18.1 255.4 12.45 256.45 4.35 257.15 -1.15 257.45 -7.0 M175.05 -7.0 L195.4 -7.0 197.2 4.85 Q197.55 19.5 193.3 33.55 L193.05 34.1 Q189.55 35.6 186.3 37.5 181.6 40.1 178.5 44.55 L178.0 44.0 Q177.4 41.95 172.35 40.8 167.3 39.65 161.5 36.4 168.9 28.45 170.6 20.7 172.6 11.35 174.0 2.05 174.7 -2.45 175.05 -7.0 M135.3 -7.0 L147.85 -7.0 147.8 -5.15 Q147.25 15.2 159.1 40.75 141.8 39.9 136.35 34.85 L129.65 29.05 Q135.7 17.85 135.45 4.85 L135.3 -7.0" fill="#0f0e09" fill-rule="evenodd" stroke="none"/>
    <path d="M363.3 239.5 L364.2 238.6 Q367.65 234.35 364.2 229.65 367.65 234.35 364.2 238.6 L363.3 239.5 M374.05 239.5 L374.95 234.1 374.05 239.5 M368.7 239.5 L369.75 237.9 Q373.8 231.0 371.35 223.35 373.8 231.0 369.75 237.9 L368.7 239.5 M377.65 154.3 L378.35 153.7 Q381.35 150.8 379.45 147.1 381.35 150.8 378.35 153.7 L377.65 154.3 M377.65 93.3 L378.55 87.0 377.65 93.3 M369.6 94.2 L369.6 86.1 369.6 94.2 M408.55 269.75 L-15.7 269.7 -15.7 41.0 408.55 41.05 408.55 269.75 M38.6 199.15 L36.8 196.45 38.6 199.15 M245.8 230.5 L244.9 226.05 245.8 230.5 M254.75 235.0 L254.75 225.15 254.75 235.0 M33.2 205.4 L33.4 204.35 Q34.1 199.3 29.6 196.45 34.1 199.3 33.4 204.35 L33.2 205.4 M45.75 208.1 L44.85 204.5 45.75 208.1 M100.5 257.45 L98.7 252.95 100.5 257.45 M110.35 255.65 L108.55 250.25 110.35 255.65 M106.75 259.25 L105.95 257.45 Q103.4 251.9 104.05 245.75 103.4 251.9 105.95 257.45 L106.75 259.25 M139.05 191.05 L138.15 185.65 139.05 191.05 M144.45 185.65 L143.55 183.0 144.45 185.65 M92.4 134.55 L91.5 129.15 92.4 134.55 M87.0 137.25 L84.35 130.05 87.0 137.25 M23.35 54.7 L23.35 49.35 23.35 54.7 M58.5 97.0 L58.5 91.65 58.5 97.0 M50.4 97.0 L50.8 96.25 Q52.5 92.2 48.6 89.85 52.5 92.2 50.8 96.25 L50.4 97.0 M54.9 97.9 L55.15 96.4 Q56.05 88.75 52.2 81.75 56.05 88.75 55.15 96.4 L54.9 97.9 M28.7 61.9 L30.5 56.5 28.7 61.9 M17.05 58.3 L14.9 50.4 17.05 58.3 M136.35 78.05 L138.15 73.55 136.35 78.05 M303.2 192.85 L304.1 188.35 303.2 192.85 M298.7 193.75 L296.9 185.65 298.7 193.75 M250.3 161.45 L250.3 156.95 250.3 161.45 M254.75 160.55 L252.95 154.3 254.75 160.55 M222.45 92.4 L221.55 85.2 222.45 92.4 M231.45 93.3 L233.25 85.2 231.45 93.3 M226.95 89.7 L228.75 79.85 226.95 89.7 M296.9 53.8 L294.25 46.65 296.9 53.8 M309.5 61.9 L311.25 55.6 309.5 61.9 M303.2 57.4 L305.0 51.1 303.2 57.4" fill="url(#gradient1)" fill-rule="evenodd" stroke="none"/>
    <path d="M369.6 86.1 L369.6 94.2 M378.55 87.0 L377.65 93.3 M379.45 147.1 Q381.35 150.8 378.35 153.7 L377.65 154.3 M371.35 223.35 Q373.8 231.0 369.75 237.9 L368.7 239.5 M374.95 234.1 L374.05 239.5 M364.2 229.65 Q367.65 234.35 364.2 238.6 L363.3 239.5 M305.0 51.1 L303.2 57.4 M311.25 55.6 L309.5 61.9 M294.25 46.65 L296.9 53.8 M228.75 79.85 L226.95 89.7 M233.25 85.2 L231.45 93.3 M221.55 85.2 L222.45 92.4 M252.95 154.3 L254.75 160.55 M250.3 156.95 L250.3 161.45 M296.9 185.65 L298.7 193.75 M304.1 188.35 L303.2 192.85 M138.15 73.55 L136.35 78.05 M14.9 50.4 L17.05 58.3 M30.5 56.5 L28.7 61.9 M52.2 81.75 Q56.05 88.75 55.15 96.4 L54.9 97.9 M48.6 89.85 Q52.5 92.2 50.8 96.25 L50.4 97.0 M58.5 91.65 L58.5 97.0 M23.35 49.35 L23.35 54.7 M84.35 130.05 L87.0 137.25 M91.5 129.15 L92.4 134.55 M143.55 183.0 L144.45 185.65 M138.15 185.65 L139.05 191.05 M104.05 245.75 Q103.4 251.9 105.95 257.45 L106.75 259.25 M108.55 250.25 L110.35 255.65 M98.7 252.95 L100.5 257.45 M44.85 204.5 L45.75 208.1 M29.6 196.45 Q34.1 199.3 33.4 204.35 L33.2 205.4 M254.75 225.15 L254.75 235.0 M244.9 226.05 L245.8 230.5 M36.8 196.45 L38.6 199.15" fill="none" stroke="#002f00" stroke-linecap="round" stroke-linejoin="round" stroke-width="1.0"/>
    <path d="M390.05 42.7 L0.05 42.7 0.05 17.8 390.05 17.8 390.05 42.7" fill="url(#gradient2)" fill-rule="evenodd" stroke="none"/>
    <path d="M199.15 -7.0 L241.6 -7.0 Q242.1 3.1 246.55 12.1 248.05 15.15 249.05 18.35 250.2 22.0 252.35 25.25 253.35 26.75 254.75 27.75 263.05 33.9 272.15 38.6 279.9 33.95 287.85 29.6 289.35 28.8 290.4 27.4 291.05 26.55 291.1 25.55 291.9 9.25 291.55 -7.0 L328.85 -7.0 329.15 -5.15 Q329.65 -2.5 330.75 -0.1 335.4 9.85 336.7 20.9 337.1 24.55 339.35 27.4 343.8 33.15 350.6 35.75 L351.4 32.7 Q353.6 24.9 354.0 16.8 354.55 4.9 354.05 -7.0 L412.5 -6.35 420.25 82.55 387.1 63.75 383.4 68.7 Q379.2 74.05 373.5 77.8 364.85 76.4 356.1 78.15 354.3 78.55 353.2 77.05 355.4 73.95 358.65 71.7 361.0 70.05 362.1 67.35 363.25 64.5 362.5 61.65 357.55 64.1 352.2 63.15 L348.1 63.4 322.05 70.85 319.95 68.45 326.7 60.55 325.4 59.45 Q321.15 55.85 319.7 50.3 L318.85 47.6 Q317.65 44.25 314.05 44.15 310.65 46.95 309.6 51.1 308.55 55.35 306.3 59.3 304.3 62.8 301.1 64.85 296.95 67.45 291.95 68.0 L293.4 66.2 Q296.2 62.25 296.9 57.6 298.1 49.95 293.95 43.3 L283.75 44.3 286.95 48.0 Q284.35 50.25 280.9 50.45 275.6 49.9 270.7 48.3 L260.65 45.5 Q254.35 43.7 248.15 45.55 251.4 47.7 254.5 50.1 L259.55 54.65 Q261.45 56.6 261.1 59.25 L249.95 58.6 Q248.1 58.3 246.55 57.35 242.3 54.9 239.1 50.9 236.15 47.2 231.3 46.6 L228.45 46.85 Q227.6 46.8 227.05 47.4 224.3 50.5 224.1 54.7 223.95 58.7 221.65 61.6 218.85 60.75 217.5 57.6 215.15 52.25 211.75 47.9 208.7 44.0 203.8 44.3 194.85 44.45 187.5 49.65 L186.05 50.5 168.7 56.3 Q165.55 57.4 162.7 59.1 159.5 61.0 156.0 60.0 155.9 57.4 157.4 55.4 158.1 54.55 159.15 54.25 L170.55 49.9 Q173.95 48.5 176.55 46.05 L180.2 42.5 Q185.75 36.8 193.05 34.1 L194.25 30.0 Q196.7 21.2 197.0 12.2 197.15 8.5 198.0 5.05 199.45 -0.85 199.15 -7.0 M87.8 -7.0 L120.1 -7.0 Q124.15 1.45 126.8 10.45 L127.0 12.15 126.55 18.0 Q126.3 21.85 127.85 25.6 L128.7 27.35 129.65 29.05 132.45 29.95 Q140.7 32.85 149.3 34.95 L154.1 35.7 Q161.4 35.75 168.5 37.55 L173.8 39.05 Q177.95 39.85 177.75 44.0 177.7 44.5 177.3 44.7 170.1 48.0 162.2 48.35 155.65 48.8 149.15 47.55 L142.75 46.8 Q139.0 46.7 135.55 47.7 L133.8 48.3 132.0 49.0 142.25 67.55 Q133.2 66.55 125.0 62.4 120.35 60.15 116.95 56.35 112.4 51.25 105.7 52.75 104.4 53.05 103.9 54.1 L101.0 59.95 Q98.4 65.0 94.35 68.8 L92.25 70.65 89.95 72.4 89.75 71.8 Q89.05 68.6 90.05 65.45 L90.55 64.1 91.2 62.75 92.8 60.05 90.75 50.15 80.7 52.75 Q77.9 53.55 75.4 54.9 71.7 56.9 67.5 57.2 L58.3 58.4 53.75 59.05 49.3 60.45 47.8 56.1 Q48.5 54.85 49.85 54.65 55.1 53.95 59.9 52.05 68.8 48.7 74.05 40.95 75.7 38.55 77.6 36.4 L79.4 33.8 Q82.0 29.0 83.45 23.95 84.8 19.2 85.35 14.4 L86.65 3.65 87.8 -7.0 M12.6 -7.0 L13.0 -1.4 Q13.7 7.1 15.75 15.15 16.2 16.95 17.15 18.5 19.0 21.65 21.7 24.15 29.1 30.8 38.3 34.35 L45.55 37.45 Q54.35 41.55 63.0 46.0 L61.5 46.8 60.05 47.55 Q56.1 48.95 51.95 48.2 L46.8 47.05 29.5 46.0 Q26.1 45.35 22.95 46.45 L19.0 48.0 Q20.0 50.5 21.85 52.8 24.75 56.25 29.0 58.05 30.9 58.75 32.25 60.2 L42.9 71.6 48.0 77.0 Q42.55 77.25 37.5 75.75 L34.25 74.65 32.8 73.95 31.3 73.2 Q27.45 71.25 24.45 68.25 20.7 64.35 15.85 61.9 11.3 59.6 6.25 59.75 L1.7 60.15 7.4 67.8 4.1 68.55 0.6 68.4 Q-0.7 68.4 -17.7 75.7 L-12.25 -7.6 12.6 -7.0 M363.8 16.0 Q361.25 18.9 360.05 22.5 359.25 25.0 359.15 27.6 358.8 37.9 352.3 45.75 358.8 37.9 359.15 27.6 359.25 25.0 360.05 22.5 361.25 18.9 363.8 16.0 M363.8 58.0 Q363.35 55.25 365.2 53.2 366.6 51.6 368.3 50.35 369.4 49.5 370.15 48.3 L372.85 43.65 Q375.35 38.9 375.4 33.6 L375.5 30.65 375.9 24.95 375.8 23.5 375.9 24.95 375.5 30.65 375.4 33.6 Q375.35 38.9 372.85 43.65 L370.15 48.3 Q369.4 49.5 368.3 50.35 366.6 51.6 365.2 53.2 363.35 55.25 363.8 58.0 M342.15 46.9 L334.25 45.5 334.4 53.75 342.15 46.9 M17.5 47.5 Q14.65 41.05 10.05 35.5 8.95 34.2 8.3 32.75 5.2 25.65 4.75 17.75 5.2 25.65 8.3 32.75 8.95 34.2 10.05 35.5 14.65 41.05 17.5 47.5 M109.0 30.25 L111.75 36.6 Q112.05 37.4 112.0 38.25 111.5 44.45 113.0 50.5 111.5 44.45 112.0 38.25 112.05 37.4 111.75 36.6 L109.0 30.25 M106.5 46.75 L107.5 40.0 106.5 46.75 M91.25 46.0 Q90.6 38.35 94.35 31.45 L96.55 27.1 Q100.5 18.75 99.5 9.5 100.5 18.75 96.55 27.1 L94.35 31.45 Q90.6 38.35 91.25 46.0 M97.5 21.25 Q96.45 19.5 96.1 17.65 L95.6 15.45 Q94.6 12.35 96.45 9.75 100.8 3.6 100.0 -4.25 100.8 3.6 96.45 9.75 94.6 12.35 95.6 15.45 L96.1 17.65 Q96.45 19.5 97.5 21.25 M116.5 11.25 Q116.35 20.9 120.05 29.65 120.55 30.85 121.6 31.7 124.45 34.0 125.6 37.6 127.15 42.5 130.3 46.5 127.15 42.5 125.6 37.6 124.45 34.0 121.6 31.7 120.55 30.85 120.05 29.65 116.35 20.9 116.5 11.25 M234.6 43.75 L234.85 43.0 233.45 42.65 Q232.3 39.1 229.4 36.75 225.45 33.6 224.55 28.75 225.45 33.6 229.4 36.75 232.3 39.1 233.45 42.65 L234.85 43.0 234.6 43.75 M198.8 38.0 Q203.55 34.8 205.65 29.15 206.2 27.7 206.35 26.25 206.95 19.7 209.1 13.35 L210.25 9.65 Q211.1 6.7 212.55 4.0 211.1 6.7 210.25 9.65 L209.1 13.35 Q206.95 19.7 206.35 26.25 206.2 27.7 205.65 29.15 203.55 34.8 198.8 38.0 M225.05 16.5 Q221.5 12.7 224.0 7.8 225.3 5.2 225.3 2.25 225.3 5.2 224.0 7.8 221.5 12.7 225.05 16.5 M227.55 8.0 Q228.65 6.1 228.3 4.05 227.75 0.4 226.3 -2.5 227.75 0.4 228.3 4.05 228.65 6.1 227.55 8.0 M246.6 40.5 L246.55 39.55 245.8 39.0 Q244.35 38.3 243.55 36.95 242.65 35.35 242.35 33.65 241.6 29.55 239.1 26.4 237.15 23.85 234.15 22.2 230.2 20.05 229.3 15.75 230.2 20.05 234.15 22.2 237.15 23.85 239.1 26.4 241.6 29.55 242.35 33.65 242.65 35.35 243.55 36.95 244.35 38.3 245.8 39.0 L246.55 39.55 246.6 40.5 M315.3 38.0 L314.25 36.65 Q309.05 28.2 311.05 18.25 309.05 28.2 314.25 36.65 L315.3 38.0 M300.05 26.0 Q297.65 21.75 297.35 16.65 297.2 13.7 297.65 10.8 298.45 5.45 297.8 0.0 298.45 5.45 297.65 10.8 297.2 13.7 297.35 16.65 297.65 21.75 300.05 26.0 M303.95 1.65 L304.15 4.5 304.2 5.5 Q304.6 9.75 305.45 13.95 307.55 24.55 300.75 32.55 299.8 33.7 298.5 34.05 292.95 34.05 292.05 39.25 292.95 34.05 298.5 34.05 299.8 33.7 300.75 32.55 307.55 24.55 305.45 13.95 304.6 9.75 304.2 5.5 L304.15 4.5 303.95 1.65 M361.3 30.0 Q363.2 29.2 364.0 27.0 367.5 17.6 366.55 7.75 367.5 17.6 364.0 27.0 363.2 29.2 361.3 30.0 M326.05 27.75 L326.15 28.75 Q327.45 32.8 330.35 36.25 327.45 32.8 326.15 28.75 L326.05 27.75" fill="url(#gradient3)" fill-rule="evenodd" stroke="none"/>
    <path d="M375.8 23.5 L375.9 24.95 375.5 30.65 375.4 33.6 Q375.35 38.9 372.85 43.65 L370.15 48.3 Q369.4 49.5 368.3 50.35 366.6 51.6 365.2 53.2 363.35 55.25 363.8 58.0 M352.3 45.75 Q358.8 37.9 359.15 27.6 359.25 25.0 360.05 22.5 361.25 18.9 363.8 16.0 M330.35 36.25 Q327.45 32.8 326.15 28.75 L326.05 27.75 M366.55 7.75 Q367.5 17.6 364.0 27.0 363.2 29.2 361.3 30.0 M292.05 39.25 Q292.95 34.05 298.5 34.05 299.8 33.7 300.75 32.55 307.55 24.55 305.45 13.95 304.6 9.75 304.2 5.5 L304.15 4.5 303.95 1.65 M297.8 0.0 Q298.45 5.45 297.65 10.8 297.2 13.7 297.35 16.65 297.65 21.75 300.05 26.0 M311.05 18.25 Q309.05 28.2 314.25 36.65 L315.3 38.0 M229.3 15.75 Q230.2 20.05 234.15 22.2 237.15 23.85 239.1 26.4 241.6 29.55 242.35 33.65 242.65 35.35 243.55 36.95 244.35 38.3 245.8 39.0 L246.55 39.55 246.6 40.5 M226.3 -2.5 Q227.75 0.4 228.3 4.05 228.65 6.1 227.55 8.0 M225.3 2.25 Q225.3 5.2 224.0 7.8 221.5 12.7 225.05 16.5 M212.55 4.0 Q211.1 6.7 210.25 9.65 L209.1 13.35 Q206.95 19.7 206.35 26.25 206.2 27.7 205.65 29.15 203.55 34.8 198.8 38.0 M224.55 28.75 Q225.45 33.6 229.4 36.75 232.3 39.1 233.45 42.65 L234.85 43.0 234.6 43.75 M130.3 46.5 Q127.15 42.5 125.6 37.6 124.45 34.0 121.6 31.7 120.55 30.85 120.05 29.65 116.35 20.9 116.5 11.25 M100.0 -4.25 Q100.8 3.6 96.45 9.75 94.6 12.35 95.6 15.45 L96.1 17.65 Q96.45 19.5 97.5 21.25 M99.5 9.5 Q100.5 18.75 96.55 27.1 L94.35 31.45 Q90.6 38.35 91.25 46.0 M107.5 40.0 L106.5 46.75 M113.0 50.5 Q111.5 44.45 112.0 38.25 112.05 37.4 111.75 36.6 L109.0 30.25 M4.75 17.75 Q5.2 25.65 8.3 32.75 8.95 34.2 10.05 35.5 14.65 41.05 17.5 47.5" fill="none" stroke="#17150d" stroke-linecap="round" stroke-linejoin="round" stroke-width="1.0"/>
    <path d="M341.25 46.25 L338.95 46.5 336.7 49.15 337.65 46.25 336.0 45.85 336.0 44.95 339.75 42.5 341.75 45.15 341.25 46.25 M288.05 34.05 L293.15 36.5 293.15 36.85 293.15 37.45 Q293.1 38.25 292.5 38.75 L291.75 39.35 291.3 39.55 290.75 39.75 292.2 46.9 291.5 48.2 Q287.85 47.0 288.0 43.1 288.05 41.65 288.25 40.2 L284.75 40.95 284.5 40.5 285.5 35.4 288.05 34.05 M226.65 47.05 L227.6 45.05 229.05 43.5 231.8 46.05 230.65 47.3 230.8 49.35 230.15 49.95 229.0 47.75 226.65 47.05 M162.65 44.5 L163.4 47.1 161.85 48.3 161.3 50.8 160.45 49.95 160.15 47.65 158.85 46.3 160.35 45.25 Q161.45 44.75 162.65 44.5 M140.9 48.3 L141.15 47.45 Q141.75 46.0 143.6 45.7 L145.35 48.2 144.6 48.75 143.95 48.45 142.45 50.95 142.0 48.55 140.9 48.3 M149.1 46.7 L148.95 45.4 151.55 40.25 152.5 40.2 Q154.4 40.2 156.2 41.3 L157.85 42.45 157.85 43.55 155.65 45.65 Q156.35 47.65 156.65 49.75 156.75 50.55 155.95 51.2 L155.2 51.7 153.55 51.1 153.5 46.65 149.1 46.7 M43.0 44.65 L44.6 47.4 44.45 48.2 41.55 48.1 39.45 51.1 39.6 47.7 39.05 45.7 Q40.05 44.1 42.05 44.45 L43.0 44.65 M27.35 42.55 L32.55 36.2 39.0 39.25 39.6 41.5 37.5 43.55 36.8 43.9 35.3 44.55 Q36.4 47.6 35.2 50.45 34.6 51.9 33.35 52.6 31.05 50.7 32.65 47.95 33.5 46.5 33.25 44.8 31.15 44.7 29.15 44.0 28.05 43.55 27.35 42.55" fill="#7201a3" fill-rule="evenodd" stroke="none"/>
    <path d="M349.1 28.25 Q350.3 26.65 349.0 25.2 L348.55 24.9 Q344.8 30.35 348.35 35.5 M361.55 58.25 L360.8 62.0 M357.8 60.5 L358.3 64.5 M353.7 59.05 Q355.3 60.95 355.5 63.45 L355.55 65.0 M317.6 38.75 Q316.0 42.4 316.3 46.4 L316.6 48.5 M255.05 40.5 L257.3 46.25 M273.8 30.25 Q272.6 31.0 271.1 30.8 L270.55 30.5 Q271.8 27.05 275.15 26.25 L275.95 26.25 Q278.0 29.1 276.4 32.6 275.0 35.8 272.8 38.75 M271.05 45.75 L270.8 47.75 M263.3 42.0 L263.3 46.25 M319.6 47.0 L319.85 49.75 M175.3 35.5 L173.75 34.35 Q173.45 32.55 175.05 31.7 176.55 30.8 178.3 31.4 180.0 34.0 179.05 37.3 L178.2 40.05 Q177.6 41.75 176.05 42.5 M191.05 41.5 Q190.3 44.8 192.1 47.45 L192.55 48.0 M194.55 44.0 L194.55 47.25 M155.75 30.5 L157.35 28.15 156.6 27.0 156.1 27.1 Q151.75 30.1 151.5 35.25 M117.25 55.25 L116.0 57.25 M113.75 50.75 L113.0 56.25 M108.25 48.25 L110.25 55.0 M54.5 43.0 L54.25 47.0 M51.5 42.25 L52.0 47.75 M67.8 35.6 Q65.2 35.15 64.8 32.5 L64.8 32.05 Q66.55 28.8 69.7 31.0 71.3 32.2 71.05 34.15 70.8 35.95 69.75 37.5 67.05 41.5 67.6 46.1 67.65 46.7 68.0 47.25 M14.75 61.0 L14.0 62.5 M10.25 58.25 L10.25 62.0 M6.0 56.5 L7.5 62.75" fill="none" stroke="#002f00" stroke-linecap="round" stroke-linejoin="round" stroke-width="1.0"/>
  </g>
  <defs>
    <linearGradient gradientTransform="matrix(0.0, 0.023, -0.1648, -3.0E-4, 195.75, 22.45)" gradientUnits="userSpaceOnUse" id="gradient0" spreadMethod="pad" x1="-819.2" x2="819.2">
      <stop offset="0.0" stop-color="#0f2c2d"/>
      <stop offset="1.0" stop-color="#223e22"/>
    </linearGradient>
    <radialGradient cx="0" cy="0" gradientTransform="matrix(0.0041, 0.2296, -0.4577, 0.008, 192.0, 147.0)" gradientUnits="userSpaceOnUse" id="gradient1" r="819.2" spreadMethod="pad">
      <stop offset="0.0" stop-color="#2d5e39"/>
      <stop offset="0.36470588235294116" stop-color="#244f33"/>
      <stop offset="0.7490196078431373" stop-color="#152d16"/>
      <stop offset="1.0" stop-color="#132411"/>
    </radialGradient>
    <linearGradient gradientTransform="matrix(0.0, -0.0147, 0.2457, 0.0, 195.0, 30.2)" gradientUnits="userSpaceOnUse" id="gradient2" spreadMethod="pad" x1="-819.2" x2="819.2">
      <stop offset="0.0784313725490196" stop-color="#0f2d16"/>
      <stop offset="0.47843137254901963" stop-color="#15401e" stop-opacity="0.5019608"/>
      <stop offset="1.0" stop-color="#394f36" stop-opacity="0.0"/>
    </linearGradient>
    <linearGradient gradientTransform="matrix(0.0, -0.0256, 0.0513, 0.0, 30.5, 11.5)" gradientUnits="userSpaceOnUse" id="gradient3" spreadMethod="pad" x1="-819.2" x2="819.2">
      <stop offset="0.0" stop-color="#2c2d1e"/>
      <stop offset="1.0" stop-color="#030201"/>
    </linearGradient>
  </defs>
</svg>
