<?xml version="1.0" encoding="UTF-8" standalone="no"?>
<svg xmlns:xlink="http://www.w3.org/1999/xlink" height="271.95px" width="427.65px" xmlns="http://www.w3.org/2000/svg">
  <g transform="matrix(1.0, 0.0, 0.0, 1.0, 18.55, 2.1)">
    <path d="M366.0 253.5 L357.0 253.5 366.0 253.5 374.0 253.5 366.0 253.5 370.0 259.5 366.0 253.5 M365.5 220.5 L336.5 220.5 347.0 236.5 336.5 220.5 365.5 220.5 M350.0 126.6 L345.0 112.1 374.5 112.1 345.0 112.1 350.0 126.6 M408.0 269.85 L-18.0 269.85 -18.0 39.85 408.0 39.85 408.0 269.85 M346.5 236.5 L264.0 236.5 346.5 236.5 M345.0 112.1 L291.5 112.1 345.0 112.1 M77.0 222.5 L17.0 222.5 16.0 222.5 17.0 222.5 20.5 209.5 17.0 222.5 77.0 222.5 97.0 222.5 77.0 222.5 75.5 234.0 77.0 222.5 M23.0 95.1 L18.0 110.1 23.0 95.1 M110.5 189.0 L111.0 180.5 89.0 180.5 111.0 180.5 124.0 180.5 111.0 180.5 110.5 189.0 M65.0 110.6 L8.0 110.6 65.0 110.6 88.0 110.6 65.0 110.6 64.0 122.6 65.0 110.6 M246.5 123.6 L221.5 123.6 246.5 123.6 262.5 123.6 246.5 123.6 249.5 133.1 246.5 123.6 M302.0 100.1 L306.5 111.6 302.0 100.1" fill="url(#gradient0)" fill-rule="evenodd" stroke="none"/>
    <path d="M374.5 112.1 L345.0 112.1 350.0 126.6 M347.0 236.5 L336.5 220.5 365.5 220.5 M374.0 253.5 L366.0 253.5 370.0 259.5 M357.0 253.5 L366.0 253.5 M306.5 111.6 L302.0 100.1 M262.5 123.6 L246.5 123.6 249.5 133.1 M221.5 123.6 L246.5 123.6 M88.0 110.6 L65.0 110.6 64.0 122.6 M8.0 110.6 L65.0 110.6 M89.0 180.5 L111.0 180.5 124.0 180.5 M111.0 180.5 L110.5 189.0 M18.0 110.1 L23.0 95.1 M97.0 222.5 L77.0 222.5 75.5 234.0 M16.0 222.5 L17.0 222.5 20.5 209.5 M17.0 222.5 L77.0 222.5 M291.5 112.1 L345.0 112.1 M264.0 236.5 L346.5 236.5" fill="none" stroke="#322d39" stroke-linecap="round" stroke-linejoin="round" stroke-width="1.0"/>
    <path d="M-18.05 87.85 L-18.05 -2.1 408.6 -2.1 408.6 11.75 408.6 87.85 -18.05 87.85 M14.85 63.3 L13.8 63.1 9.7 63.1 4.05 63.25 -6.75 63.5 -17.6 63.85 -6.75 63.5 4.05 63.25 9.7 63.1 13.8 63.1 14.85 63.3 M8.15 63.85 L8.25 64.35 Q8.95 66.05 8.15 66.95 8.95 66.05 8.25 64.35 L8.15 63.85 M18.4 34.75 L17.35 34.3 16.85 34.3 13.25 34.75 4.6 34.25 13.25 34.75 13.25 32.7 13.25 31.65 13.25 32.7 13.25 34.75 16.85 34.3 17.35 34.3 18.4 34.75 M78.15 24.0 L78.1 25.55 Q77.9 27.55 78.7 29.1 77.9 27.55 78.1 25.55 L78.15 24.0 M100.25 57.35 L96.55 57.25 92.55 56.85 Q88.7 56.1 89.4 51.6 88.7 56.1 92.55 56.85 L96.55 57.25 100.25 57.35 115.5 56.2 100.25 57.35 Q100.85 58.05 101.1 59.8 L101.15 60.3 101.1 59.8 Q100.85 58.05 100.25 57.35 M86.35 62.35 L84.3 62.7 81.25 62.85 84.3 62.7 86.35 62.35 M85.85 29.65 L85.85 30.4 Q79.4 30.4 73.05 30.7 L64.5 31.7 Q62.4 32.15 61.3 31.15 62.4 32.15 64.5 31.7 L73.05 30.7 Q79.4 30.4 85.85 30.4 L85.85 29.65 M85.85 33.7 L85.85 32.7 85.85 30.4 90.95 30.4 95.05 30.4 90.95 30.4 85.85 30.4 85.85 32.7 85.85 33.7 M159.45 68.45 L162.0 68.65 171.7 68.1 171.7 68.45 171.7 68.1 162.0 68.65 159.45 68.45 M180.4 72.55 L180.0 72.0 Q179.2 70.4 179.85 68.45 179.2 70.4 180.0 72.0 L180.4 72.55 M187.55 68.45 L186.0 68.05 181.4 67.7 172.2 68.05 171.7 68.1 171.7 64.4 171.7 63.85 171.7 64.4 171.7 68.1 172.2 68.05 181.4 67.7 186.0 68.05 187.55 68.45 M200.3 26.55 L197.25 26.6 191.1 26.05 197.25 26.6 200.3 26.55 M179.35 25.55 L189.05 25.75 Q189.85 25.8 190.35 26.3 L190.7 27.1 190.9 28.6 Q191.1 30.65 190.75 32.65 190.15 35.9 191.1 38.85 190.15 35.9 190.75 32.65 191.1 30.65 190.9 28.6 L190.7 27.1 190.35 26.3 Q189.85 25.8 189.05 25.75 L179.35 25.55 M208.45 44.45 L208.3 43.5 Q207.85 42.0 208.45 40.35 207.85 42.0 208.3 43.5 L208.45 44.45 M217.65 39.85 L214.05 39.6 201.85 39.8 188.55 38.85 201.85 39.8 214.05 39.6 217.65 39.85 M293.95 65.55 Q292.65 66.75 292.7 68.95 L292.75 69.5 292.7 68.95 Q292.65 66.75 293.95 65.55 L286.65 66.3 285.6 66.4 286.65 66.3 293.95 65.55 Q294.6 64.85 295.7 64.5 299.15 63.35 303.0 63.45 L314.75 63.6 320.35 63.35 314.75 63.6 303.0 63.45 Q299.15 63.35 295.7 64.5 294.6 64.85 293.95 65.55 M311.65 58.75 L311.55 60.3 311.15 62.35 311.55 60.3 311.65 58.75 M267.7 36.8 Q268.5 40.2 268.05 43.5 268.0 44.2 268.5 44.65 269.55 45.5 270.85 45.65 L276.4 46.15 Q285.1 46.55 293.3 44.6 295.75 44.0 295.8 41.9 L295.65 39.4 295.35 38.65 Q290.15 38.1 285.1 36.8 290.15 38.1 295.35 38.65 L303.5 39.1 305.8 39.35 303.5 39.1 295.35 38.65 295.65 39.4 295.8 41.9 Q295.75 44.0 293.3 44.6 285.1 46.55 276.4 46.15 L270.85 45.65 Q269.55 45.5 268.5 44.65 268.0 44.2 268.05 43.5 268.5 40.2 267.7 36.8 M297.85 34.25 L297.75 35.25 297.35 36.8 297.75 35.25 297.85 34.25 M313.2 10.2 L313.2 10.75 Q313.15 13.1 313.7 15.3 313.15 13.1 313.2 10.75 L313.2 10.2 M368.35 69.5 Q367.15 70.25 368.2 71.2 L369.5 72.0 Q372.2 72.8 376.9 73.25 L384.6 73.6 387.05 73.2 Q387.65 73.05 387.85 72.55 L387.9 72.45 388.75 68.95 388.95 66.4 Q388.95 65.65 388.65 65.65 L367.8 64.4 388.65 65.65 Q388.95 65.65 388.95 66.4 L388.75 68.95 387.9 72.45 387.85 72.55 395.85 72.55 387.85 72.55 Q387.65 73.05 387.05 73.2 L384.6 73.6 376.9 73.25 Q372.2 72.8 369.5 72.0 L368.2 71.2 Q367.15 70.25 368.35 69.5 M327.5 18.4 L327.0 18.4 300.95 16.9 298.9 16.85 298.4 16.85 298.9 16.85 300.95 16.9 327.0 18.4 327.5 18.4 M375.55 10.75 Q382.35 12.35 389.85 12.0 L408.6 11.75 389.85 12.0 Q382.35 12.35 375.55 10.75 M392.65 38.85 Q397.45 38.6 401.85 39.05 L402.7 36.75 402.9 35.25 402.7 36.75 401.85 39.05 393.95 39.35 401.85 39.05 Q397.45 38.6 392.65 38.85 M404.85 48.4 L403.9 48.85 394.2 49.2 Q391.85 49.3 391.3 46.95 L390.95 45.5 Q390.0 42.3 391.05 39.15 L392.65 39.35 391.05 39.15 Q390.0 42.3 390.95 45.5 L391.3 46.95 Q391.85 49.3 394.2 49.2 L403.9 48.85 404.85 48.4 M391.15 38.85 L391.05 39.15 380.75 38.8 370.45 38.75 355.6 38.85 355.1 38.85 355.6 38.85 370.45 38.75 380.75 38.8 391.05 39.15 391.15 38.85 M369.95 32.2 L370.3 33.25 Q370.65 35.35 369.95 37.3 370.65 35.35 370.3 33.25 L369.95 32.2 M388.85 7.65 L388.85 8.7 388.85 10.75 388.85 8.7 388.85 7.65" fill="url(#gradient1)" fill-rule="evenodd" stroke="none"/>
    <path d="M408.6 87.85 L-18.05 87.85 M388.85 10.75 L388.85 8.7 388.85 7.65 M369.95 37.3 Q370.65 35.35 370.3 33.25 L369.95 32.2 M355.1 38.85 L355.6 38.85 370.45 38.75 380.75 38.8 391.05 39.15 391.15 38.85 M402.9 35.25 L402.7 36.75 401.85 39.05 393.95 39.35 M392.65 39.35 L391.05 39.15 Q390.0 42.3 390.95 45.5 L391.3 46.95 Q391.85 49.3 394.2 49.2 L403.9 48.85 404.85 48.4 M401.85 39.05 Q397.45 38.6 392.65 38.85 M408.6 11.75 L389.85 12.0 Q382.35 12.35 375.55 10.75 M298.4 16.85 L298.9 16.85 300.95 16.9 327.0 18.4 327.5 18.4 M367.8 64.4 L388.65 65.65 Q388.95 65.65 388.95 66.4 L388.75 68.95 387.9 72.45 387.85 72.55 395.85 72.55 M387.85 72.55 Q387.65 73.05 387.05 73.2 L384.6 73.6 376.9 73.25 Q372.2 72.8 369.5 72.0 L368.2 71.2 Q367.15 70.25 368.35 69.5 M313.7 15.3 Q313.15 13.1 313.2 10.75 L313.2 10.2 M285.1 36.8 Q290.15 38.1 295.35 38.65 L303.5 39.1 305.8 39.35 M297.35 36.8 L297.75 35.25 297.85 34.25 M295.35 38.65 L295.65 39.4 295.8 41.9 Q295.75 44.0 293.3 44.6 285.1 46.55 276.4 46.15 L270.85 45.65 Q269.55 45.5 268.5 44.65 268.0 44.2 268.05 43.5 268.5 40.2 267.7 36.8 M285.6 66.4 L286.65 66.3 293.95 65.55 Q294.6 64.85 295.7 64.5 299.15 63.35 303.0 63.45 L314.75 63.6 320.35 63.35 M311.15 62.35 L311.55 60.3 311.65 58.75 M292.75 69.5 L292.7 68.95 Q292.65 66.75 293.95 65.55 M188.55 38.85 L201.85 39.8 214.05 39.6 217.65 39.85 M208.45 40.35 Q207.85 42.0 208.3 43.5 L208.45 44.45 M191.1 38.85 Q190.15 35.9 190.75 32.65 191.1 30.65 190.9 28.6 L190.7 27.1 190.35 26.3 Q189.85 25.8 189.05 25.75 L179.35 25.55 M191.1 26.05 L197.25 26.6 200.3 26.55 M171.7 63.85 L171.7 64.4 171.7 68.1 172.2 68.05 181.4 67.7 186.0 68.05 187.55 68.45 M179.85 68.45 Q179.2 70.4 180.0 72.0 L180.4 72.55 M171.7 68.45 L171.7 68.1 162.0 68.65 159.45 68.45 M95.05 30.4 L90.95 30.4 85.85 30.4 85.85 32.7 85.85 33.7 M61.3 31.15 Q62.4 32.15 64.5 31.7 L73.05 30.7 Q79.4 30.4 85.85 30.4 L85.85 29.65 M81.25 62.85 L84.3 62.7 86.35 62.35 M115.5 56.2 L100.25 57.35 Q100.85 58.05 101.1 59.8 L101.15 60.3 M89.4 51.6 Q88.7 56.1 92.55 56.85 L96.55 57.25 100.25 57.35 M78.7 29.1 Q77.9 27.55 78.1 25.55 L78.15 24.0 M4.6 34.25 L13.25 34.75 13.25 32.7 13.25 31.65 M13.25 34.75 L16.85 34.3 17.35 34.3 18.4 34.75 M8.15 66.95 Q8.95 66.05 8.25 64.35 L8.15 63.85 M-17.6 63.85 L-6.75 63.5 4.05 63.25 9.7 63.1 13.8 63.1 14.85 63.3" fill="none" stroke="#25232c" stroke-linecap="round" stroke-linejoin="round" stroke-width="1.0"/>
  </g>
  <defs>
    <radialGradient cx="0" cy="0" gradientTransform="matrix(0.0041, 0.2296, -0.4577, 0.008, 192.0, 147.0)" gradientUnits="userSpaceOnUse" id="gradient0" r="819.2" spreadMethod="pad">
      <stop offset="0.0" stop-color="#675b7d"/>
      <stop offset="0.36470588235294116" stop-color="#4e445e"/>
      <stop offset="0.7490196078431373" stop-color="#393346"/>
      <stop offset="1.0" stop-color="#1c1a22"/>
    </radialGradient>
    <linearGradient gradientTransform="matrix(0.0, -0.0536, 0.0549, 0.0, 196.8, 42.85)" gradientUnits="userSpaceOnUse" id="gradient1" spreadMethod="pad" x1="-819.2" x2="819.2">
      <stop offset="0.0" stop-color="#4e445e"/>
      <stop offset="1.0" stop-color="#262530"/>
    </linearGradient>
  </defs>
</svg>
