<?xml version="1.0" encoding="UTF-8" standalone="no"?>
<svg xmlns:xlink="http://www.w3.org/1999/xlink" height="79.4px" width="41.1px" xmlns="http://www.w3.org/2000/svg">
  <g transform="matrix(1.0, 0.0, 0.0, 1.0, 21.7, 41.65)">
    <path d="M15.95 27.6 L15.95 -21.1 15.95 -21.9 Q15.95 -28.4 10.95 -32.95 8.05 -35.65 4.4 -36.75 L4.85 -40.15 Q9.6 -39.05 13.35 -36.05 19.35 -31.3 19.4 -24.55 L19.35 -23.7 19.35 37.75 15.95 37.75 15.95 27.6 M-6.9 -36.65 Q-10.35 -35.55 -13.15 -32.95 -18.15 -28.45 -18.2 -22.0 L-18.2 27.6 -18.2 37.75 -21.7 37.75 -21.7 -24.65 Q-21.65 -31.35 -15.65 -36.05 -11.95 -39.0 -7.3 -40.15 L-6.9 -36.65" fill="#4e445e" fill-rule="evenodd" stroke="none"/>
    <path d="M15.95 27.6 L15.95 37.75 -18.2 37.75 -18.2 27.6 15.95 27.6" fill="#423a50" fill-rule="evenodd" stroke="none"/>
    <path d="M4.85 -40.15 L4.4 -36.75 3.9 -33.0 -6.45 -33.0 -6.9 -36.65 -7.3 -40.15 -7.5 -41.65 5.05 -41.65 4.85 -40.15" fill="#534965" fill-rule="evenodd" stroke="none"/>
  </g>
</svg>
