<?xml version="1.0" encoding="UTF-8" standalone="no"?>
<svg xmlns:xlink="http://www.w3.org/1999/xlink" height="269.7px" width="433.1px" xmlns="http://www.w3.org/2000/svg">
  <g transform="matrix(1.0, 0.0, 0.0, 1.0, 24.0, -1.3)">
    <path d="M366.0 253.5 L357.0 253.5 366.0 253.5 374.0 253.5 366.0 253.5 370.0 259.5 366.0 253.5 M365.5 220.5 L336.5 220.5 347.0 236.5 336.5 220.5 365.5 220.5 M350.0 120.0 L345.0 105.5 374.5 105.5 345.0 105.5 350.0 120.0 M406.0 271.0 L-24.0 270.0 -24.0 40.0 406.0 41.0 406.0 271.0 M346.5 236.5 L264.0 236.5 346.5 236.5 M345.0 105.5 L291.5 105.5 345.0 105.5 M77.0 222.5 L17.0 222.5 16.0 222.5 17.0 222.5 20.5 209.5 17.0 222.5 77.0 222.5 97.0 222.5 77.0 222.5 75.5 234.0 77.0 222.5 M23.0 88.5 L18.0 103.5 23.0 88.5 M110.5 189.0 L111.0 180.5 89.0 180.5 111.0 180.5 124.0 180.5 111.0 180.5 110.5 189.0 M65.0 104.0 L8.0 104.0 65.0 104.0 88.0 104.0 65.0 104.0 64.0 116.0 65.0 104.0 M302.0 93.5 L306.5 105.0 302.0 93.5 M246.5 117.0 L221.5 117.0 246.5 117.0 262.5 117.0 246.5 117.0 249.5 126.5 246.5 117.0" fill="url(#gradient0)" fill-rule="evenodd" stroke="none"/>
    <path d="M374.5 105.5 L345.0 105.5 350.0 120.0 M347.0 236.5 L336.5 220.5 365.5 220.5 M374.0 253.5 L366.0 253.5 370.0 259.5 M357.0 253.5 L366.0 253.5 M262.5 117.0 L246.5 117.0 249.5 126.5 M221.5 117.0 L246.5 117.0 M306.5 105.0 L302.0 93.5 M88.0 104.0 L65.0 104.0 64.0 116.0 M8.0 104.0 L65.0 104.0 M89.0 180.5 L111.0 180.5 124.0 180.5 M111.0 180.5 L110.5 189.0 M18.0 103.5 L23.0 88.5 M97.0 222.5 L77.0 222.5 75.5 234.0 M16.0 222.5 L17.0 222.5 20.5 209.5 M17.0 222.5 L77.0 222.5 M291.5 105.5 L345.0 105.5 M264.0 236.5 L346.5 236.5" fill="none" stroke="#003300" stroke-linecap="round" stroke-linejoin="round" stroke-width="1.0"/>
    <path d="M169.15 4.05 L409.1 4.05 409.1 80.5 169.15 80.5 169.15 39.55 169.15 28.45 169.15 4.05 M288.6 58.15 L283.8 58.35 273.9 58.25 Q270.6 58.15 267.7 59.15 266.75 59.45 266.15 60.05 265.05 61.05 265.15 62.9 L265.15 63.4 265.15 62.9 Q265.05 61.05 266.15 60.05 L260.0 60.65 259.1 60.75 260.0 60.65 266.15 60.05 Q266.75 59.45 267.7 59.15 270.6 58.15 273.9 58.25 L283.8 58.35 288.6 58.15 M281.2 54.25 L281.1 55.55 280.75 57.3 281.1 55.55 281.2 54.25 M253.85 38.65 L254.15 39.3 254.25 41.45 Q254.2 43.2 252.15 43.7 245.15 45.4 237.8 45.05 L233.05 44.6 Q231.95 44.5 231.05 43.75 230.65 43.4 230.7 42.8 231.0 40.0 230.4 37.1 231.0 40.0 230.7 42.8 230.65 43.4 231.05 43.75 231.95 44.5 233.05 44.6 L237.8 45.05 Q245.15 45.4 252.15 43.7 254.2 43.2 254.25 41.45 L254.15 39.3 253.85 38.65 Q249.4 38.2 245.15 37.1 249.4 38.2 253.85 38.65 L260.8 39.05 262.75 39.25 260.8 39.05 253.85 38.65 M256.0 34.95 L255.9 35.8 255.6 37.1 255.9 35.8 256.0 34.95 M256.45 20.15 L256.9 20.15 258.65 20.2 280.75 21.45 281.15 21.45 280.75 21.45 258.65 20.2 256.9 20.15 256.45 20.15 M269.0 14.5 L269.0 14.95 Q268.95 16.95 269.45 18.8 268.95 16.95 269.0 14.95 L269.0 14.5 M341.3 64.9 Q340.3 65.5 341.2 66.35 341.75 66.85 342.3 67.0 347.25 68.5 352.6 68.35 L354.65 68.05 355.35 67.5 355.4 67.4 356.1 64.4 356.3 62.25 Q356.3 61.6 356.0 61.6 L340.85 60.55 356.0 61.6 Q356.3 61.6 356.3 62.25 L356.1 64.4 355.4 67.4 355.35 67.5 360.4 67.5 361.3 67.5 360.4 67.5 355.35 67.5 354.65 68.05 352.6 68.35 Q347.25 68.5 342.3 67.0 341.75 66.85 341.2 66.35 340.3 65.5 341.3 64.9 M347.0 16.0 L334.15 16.0 Q327.75 16.3 322.0 14.95 327.75 16.3 334.15 16.0 L347.0 16.0 M333.3 12.3 L333.3 13.2 333.3 14.95 333.3 13.2 333.3 12.3 M399.3 39.0 L400.0 37.05 400.2 35.8 400.0 37.05 399.3 39.0 395.15 39.25 399.3 39.0 Q397.25 38.8 391.55 38.9 L383.8 39.25 382.5 39.1 382.45 39.1 Q381.55 41.75 382.4 44.5 L382.7 45.7 Q383.15 47.7 385.15 47.65 L401.05 47.35 Q401.55 47.25 401.85 46.95 401.55 47.25 401.05 47.35 L385.15 47.65 Q383.15 47.7 382.7 45.7 L382.4 44.5 Q381.55 41.75 382.45 39.1 L382.5 39.1 383.8 39.25 391.55 38.9 Q397.25 38.8 399.3 39.0 M362.1 38.85 L362.55 38.85 375.15 38.75 382.45 39.1 375.15 38.75 362.55 38.85 362.1 38.85 M374.75 33.2 L375.05 34.1 Q375.35 35.85 374.75 37.5 375.35 35.85 375.05 34.1 L374.75 33.2 M173.05 28.4 L170.45 28.45 169.15 28.45 170.45 28.45 173.05 28.4 M270.25 67.75 L270.2 67.75 270.2 67.7 268.5 67.75 268.5 67.7 266.9 67.75 266.8 67.75 266.35 67.75 265.9 67.8 265.95 67.7 264.65 67.85 265.8 67.95 265.45 68.1 264.65 68.3 265.5 68.3 266.35 68.3 Q266.65 68.3 266.9 69.5 L267.1 70.8 267.45 69.55 267.45 69.5 267.5 69.4 Q267.8 68.3 268.05 68.3 L268.9 68.3 269.75 68.3 271.3 68.15 272.25 68.15 273.1 68.2 282.4 68.25 278.2 68.15 278.55 67.95 278.7 67.75 285.55 67.7 285.6 67.35 275.45 67.6 275.25 67.6 275.05 67.6 274.4 67.65 270.25 67.75 M309.6 61.5 Q310.3 65.45 307.5 67.5 L306.2 68.35 298.0 68.0 278.55 67.95 298.0 68.0 306.2 68.35 307.5 67.5 Q310.3 65.45 309.6 61.5 M291.8 68.35 L292.65 68.35 293.4 68.3 289.7 68.35 291.8 68.35 M264.25 67.75 L263.8 67.75 263.15 67.7 262.55 67.7 264.65 67.8 264.25 67.75 M298.1 72.65 L298.0 68.0 298.1 72.65 M180.05 43.6 L179.9 42.8 Q179.5 41.5 180.05 40.1 179.5 41.5 179.9 42.8 L180.05 43.6 M187.85 39.7 L184.8 39.45 174.4 39.65 169.15 39.55 174.4 39.65 184.8 39.45 187.85 39.7" fill="url(#gradient1)" fill-rule="evenodd" stroke="none"/>
    <path d="M278.55 67.95 L278.2 68.15 282.4 68.25 273.1 68.2 272.25 68.15 271.3 68.15 269.75 68.3 268.9 68.3 268.05 68.3 Q267.8 68.3 267.5 69.4 L267.45 69.5 267.45 69.55 267.1 70.8 266.9 69.5 Q266.65 68.3 266.35 68.3 L265.5 68.3 264.65 68.3 265.45 68.1 265.8 67.95 264.65 67.85 265.95 67.7 265.9 67.8 266.35 67.75 266.8 67.75 266.9 67.75 268.5 67.7 268.5 67.75 270.2 67.7 270.2 67.75 270.25 67.75 278.55 67.95 270.25 67.75 274.4 67.65 275.05 67.6 275.25 67.6 275.45 67.6 285.6 67.35 285.55 67.7 278.7 67.75 278.55 67.95 M264.25 67.75 L264.65 67.8 262.55 67.7 263.15 67.7 263.8 67.75 264.25 67.75 M291.8 68.35 L289.7 68.35 293.4 68.3 292.65 68.35 291.8 68.35" fill="url(#gradient2)" fill-rule="evenodd" stroke="none"/>
    <path d="M169.15 4.05 L169.15 28.45 169.15 39.55 169.15 80.5 165.1 80.5 154.3 56.85 154.3 4.05 169.15 4.05" fill="url(#gradient3)" fill-rule="evenodd" stroke="none"/>
    <path d="M165.1 80.5 L-12.5 80.5 -12.5 56.85 154.3 56.85 165.1 80.5 M142.8 65.95 L110.6 66.35 142.8 65.95 M154.45 74.5 L156.85 74.5 154.45 74.5 M125.1 76.05 L139.15 76.65 143.2 77.1 149.35 77.9 Q152.05 78.3 154.85 77.95 L160.85 78.1 154.85 77.95 Q152.05 78.3 149.35 77.9 L143.2 77.1 139.15 76.65 125.1 76.05 M127.5 61.6 L128.5 61.35 133.55 61.2 128.5 61.35 127.5 61.6 M100.6 62.35 Q96.85 61.35 92.95 61.75 L88.6 61.7 82.0 61.7 75.25 62.15 68.0 62.35 Q64.2 61.9 60.35 62.5 L59.95 62.7 60.35 62.5 Q64.2 61.9 68.0 62.35 L75.25 62.15 82.0 61.7 88.6 61.7 92.95 61.75 Q96.85 61.35 100.6 62.35 M87.3 60.4 Q91.95 59.25 96.65 59.5 L102.6 59.7 116.25 59.2 102.6 59.7 96.65 59.5 Q91.95 59.25 87.3 60.4 M120.65 63.5 Q117.0 63.95 113.3 63.4 L109.8 63.5 113.3 63.4 Q117.0 63.95 120.65 63.5 M31.0 59.55 L45.1 59.55 49.45 60.15 Q54.35 60.7 59.15 59.55 54.35 60.7 49.45 60.15 L45.1 59.55 31.0 59.55 M51.5 65.95 L45.45 65.95 51.5 65.95 M0.8 68.45 L4.05 68.25 14.15 68.6 Q20.55 68.7 27.0 70.0 20.55 68.7 14.15 68.6 L4.05 68.25 0.8 68.45 M13.7 67.2 L17.7 67.2 13.7 67.2 M38.65 64.7 L32.6 64.6 26.5 64.1 Q22.55 63.55 18.6 64.05 L14.0 63.8 Q11.75 63.3 9.6 62.4 6.4 61.25 3.25 62.35 6.4 61.25 9.6 62.4 11.75 63.3 14.0 63.8 L18.6 64.05 Q22.55 63.55 26.5 64.1 L32.6 64.6 38.65 64.7" fill="url(#gradient4)" fill-rule="evenodd" stroke="none"/>
    <path d="M-12.5 56.85 L-12.5 4.05 154.3 4.05 154.3 56.85 -12.5 56.85 M6.75 34.95 L14.1 35.35 14.1 33.6 14.1 32.7 14.1 33.6 14.1 35.35 17.15 34.95 17.6 34.95 18.5 35.35 17.6 34.95 17.15 34.95 14.1 35.35 6.75 34.95 M69.25 26.2 L69.2 27.55 Q69.05 29.25 69.75 30.55 69.05 29.25 69.2 27.55 L69.25 26.2 M75.8 34.45 L75.8 33.6 75.8 31.65 80.15 31.65 83.6 31.65 80.15 31.65 75.8 31.65 75.8 33.6 75.8 34.45 M75.8 31.0 L75.8 31.65 Q70.3 31.65 64.95 31.9 L57.65 32.75 Q55.9 33.15 54.95 32.3 55.9 33.15 57.65 32.75 L64.95 31.9 Q70.3 31.65 75.8 31.65 L75.8 31.0" fill="url(#gradient5)" fill-rule="evenodd" stroke="none"/>
    <path d="M169.15 28.45 L170.45 28.45 173.05 28.4 M374.75 37.5 Q375.35 35.85 375.05 34.1 L374.75 33.2 M395.15 39.25 L399.3 39.0 Q397.25 38.8 391.55 38.9 L383.8 39.25 382.5 39.1 382.45 39.1 Q381.55 41.75 382.4 44.5 L382.7 45.7 Q383.15 47.7 385.15 47.65 L401.05 47.35 Q401.55 47.25 401.85 46.95 M382.45 39.1 L375.15 38.75 362.55 38.85 362.1 38.85 M400.2 35.8 L400.0 37.05 399.3 39.0 M333.3 14.95 L333.3 13.2 333.3 12.3 M322.0 14.95 Q327.75 16.3 334.15 16.0 L347.0 16.0 M340.85 60.55 L356.0 61.6 Q356.3 61.6 356.3 62.25 L356.1 64.4 355.4 67.4 355.35 67.5 360.4 67.5 361.3 67.5 M355.35 67.5 L354.65 68.05 352.6 68.35 Q347.25 68.5 342.3 67.0 341.75 66.85 341.2 66.35 340.3 65.5 341.3 64.9 M269.45 18.8 Q268.95 16.95 269.0 14.95 L269.0 14.5 M281.15 21.45 L280.75 21.45 258.65 20.2 256.9 20.15 256.45 20.15 M245.15 37.1 Q249.4 38.2 253.85 38.65 L260.8 39.05 262.75 39.25 M255.6 37.1 L255.9 35.8 256.0 34.95 M230.4 37.1 Q231.0 40.0 230.7 42.8 230.65 43.4 231.05 43.75 231.95 44.5 233.05 44.6 L237.8 45.05 Q245.15 45.4 252.15 43.7 254.2 43.2 254.25 41.45 L254.15 39.3 253.85 38.65 M280.75 57.3 L281.1 55.55 281.2 54.25 M265.15 63.4 L265.15 62.9 Q265.05 61.05 266.15 60.05 L260.0 60.65 259.1 60.75 M266.15 60.05 Q266.75 59.45 267.7 59.15 270.6 58.15 273.9 58.25 L283.8 58.35 288.6 58.15 M278.55 67.95 L270.25 67.75 M278.55 67.95 L298.0 68.0 306.2 68.35 307.5 67.5 Q310.3 65.45 309.6 61.5 M298.0 68.0 L298.1 72.65 M169.15 39.55 L174.4 39.65 184.8 39.45 187.85 39.7 M180.05 40.1 Q179.5 41.5 179.9 42.8 L180.05 43.6" fill="none" stroke="#003300" stroke-linecap="round" stroke-linejoin="round" stroke-width="1.0"/>
    <path d="M109.8 63.5 L113.3 63.4 Q117.0 63.95 120.65 63.5 M116.25 59.2 L102.6 59.7 96.65 59.5 Q91.95 59.25 87.3 60.4 M59.95 62.7 L60.35 62.5 Q64.2 61.9 68.0 62.35 L75.25 62.15 82.0 61.7 88.6 61.7 92.95 61.75 Q96.85 61.35 100.6 62.35 M133.55 61.2 L128.5 61.35 127.5 61.6 M160.85 78.1 L154.85 77.95 Q152.05 78.3 149.35 77.9 L143.2 77.1 139.15 76.65 125.1 76.05 M156.85 74.5 L154.45 74.5 M110.6 66.35 L142.8 65.95 M3.25 62.35 Q6.4 61.25 9.6 62.4 11.75 63.3 14.0 63.8 L18.6 64.05 Q22.55 63.55 26.5 64.1 L32.6 64.6 38.65 64.7 M17.7 67.2 L13.7 67.2 M27.0 70.0 Q20.55 68.7 14.15 68.6 L4.05 68.25 0.8 68.45 M45.45 65.95 L51.5 65.95 M59.15 59.55 Q54.35 60.7 49.45 60.15 L45.1 59.55 31.0 59.55" fill="none" stroke="#4f9933" stroke-linecap="round" stroke-linejoin="round" stroke-opacity="0.3529412" stroke-width="0.05"/>
    <path d="M54.95 32.3 Q55.9 33.15 57.65 32.75 L64.95 31.9 Q70.3 31.65 75.8 31.65 L75.8 31.0 M83.6 31.65 L80.15 31.65 75.8 31.65 75.8 33.6 75.8 34.45 M69.75 30.55 Q69.05 29.25 69.2 27.55 L69.25 26.2 M14.1 32.7 L14.1 33.6 14.1 35.35 17.15 34.95 17.6 34.95 18.5 35.35 M14.1 35.35 L6.75 34.95" fill="none" stroke="#001e00" stroke-linecap="round" stroke-linejoin="round" stroke-width="1.0"/>
    <path d="M169.15 21.45 Q168.3 17.6 168.55 15.0 L168.9 10.95 169.15 4.05 M169.15 34.65 Q168.6 31.45 169.0 28.6 169.4 25.75 169.15 22.65 M169.15 53.95 L169.1 47.55 Q169.15 45.15 169.6 42.35 170.05 39.55 169.15 35.95 M169.15 67.25 L169.15 61.45 169.15 55.25 M169.15 80.5 Q168.7 77.5 168.85 74.4 L169.15 68.5" fill="none" stroke="#2f3e28" stroke-linecap="round" stroke-linejoin="round" stroke-width="1.0"/>
    <path d="M160.4 70.55 Q160.4 71.55 161.0 72.35 161.6 73.15 161.85 74.1 L162.6 75.9 163.65 77.75 164.4 79.15 165.1 80.5 M111.3 56.85 L117.1 57.15 123.3 56.85 M98.1 56.85 L103.75 56.65 110.1 56.85 M84.9 56.85 Q88.05 55.95 91.15 56.2 L96.9 56.85 M137.8 56.85 L143.7 57.15 149.8 56.85 M151.0 56.85 L154.3 56.85 Q154.5 57.7 155.0 58.45 L156.1 60.35 156.9 62.1 157.3 63.8 Q157.5 64.95 158.05 65.8 L159.05 67.65 159.9 69.45 M124.6 56.85 L130.75 56.55 136.6 56.85 M33.1 56.85 L39.1 56.4 Q42.1 55.95 44.7 56.45 L51.1 56.85 M19.9 56.85 L25.75 56.55 31.9 56.85 M0.7 56.85 L7.15 57.05 12.75 57.35 18.7 56.85 M71.6 56.85 L78.0 57.2 83.6 56.85 M52.4 56.85 L58.65 57.05 64.35 56.9 70.4 56.85 M-12.5 56.85 L-6.85 56.95 -0.5 56.85" fill="none" stroke="#4f9933" stroke-linecap="round" stroke-linejoin="round" stroke-opacity="0.3529412" stroke-width="1.0"/>
    <path d="M26.55 20.45 Q29.8 17.25 34.35 17.25 38.9 17.25 42.2 20.45 45.45 23.7 45.45 28.3 45.45 32.85 42.2 36.15 38.9 39.35 34.35 39.35 29.8 39.35 26.55 36.15 23.3 32.85 23.35 28.3 23.3 23.7 26.55 20.45 M28.05 21.9 Q25.35 24.6 25.35 28.5 25.35 32.25 28.05 34.95 30.75 37.65 34.55 37.65 38.35 37.65 41.1 34.95 43.75 32.25 43.75 28.5 43.75 24.6 41.1 21.9 38.35 19.25 34.6 19.25 30.75 19.25 28.05 21.9" fill="url(#gradient6)" fill-rule="evenodd" stroke="none"/>
    <path d="M28.05 21.9 Q30.75 19.25 34.6 19.25 38.35 19.25 41.1 21.9 43.75 24.6 43.75 28.5 43.75 32.25 41.1 34.95 38.35 37.65 34.55 37.65 30.75 37.65 28.05 34.95 25.35 32.25 25.35 28.5 25.35 24.6 28.05 21.9" fill="url(#gradient7)" fill-rule="evenodd" stroke="none"/>
    <path d="M28.05 21.9 Q30.75 19.25 34.6 19.25 38.35 19.25 41.1 21.9 43.75 24.6 43.75 28.5 43.75 32.25 41.1 34.95 38.35 37.65 34.55 37.65 30.75 37.65 28.05 34.95 25.35 32.25 25.35 28.5 25.35 24.6 28.05 21.9" fill="none" stroke="#333333" stroke-linecap="round" stroke-linejoin="round" stroke-width="0.05"/>
    <path d="M26.55 20.45 Q29.8 17.25 34.35 17.25 38.9 17.25 42.2 20.45 45.45 23.7 45.45 28.3 45.45 32.85 42.2 36.15 38.9 39.35 34.35 39.35 29.8 39.35 26.55 36.15 23.3 32.85 23.35 28.3 23.3 23.7 26.55 20.45" fill="none" stroke="#333333" stroke-linecap="round" stroke-linejoin="round" stroke-width="0.05"/>
    <path d="M39.0 36.85 Q40.25 40.55 38.95 44.6 L38.1 44.75 Q38.65 49.75 36.9 54.65 L35.65 54.35 34.95 42.95 34.95 46.35 34.35 42.9 34.0 42.75 Q34.4 43.9 34.4 45.05 34.4 46.15 34.0 47.3 L33.8 47.45 33.75 47.0 33.0 47.5 32.55 47.4 30.8 37.4 29.85 37.15 Q28.75 36.95 28.4 36.35 L28.2 35.95 Q31.95 34.85 36.65 35.15 L40.35 36.35 39.0 36.85 M32.8 52.95 Q31.55 50.85 33.25 48.65 34.4 50.55 33.15 52.45 L32.8 52.95 M37.2 56.45 L37.35 57.1 37.2 57.75 36.65 58.0 36.2 57.75 36.0 57.1 36.2 56.45 36.65 56.2 37.2 56.45" fill="url(#gradient8)" fill-rule="evenodd" stroke="none"/>
    <path d="M101.05 21.85 Q98.3 24.55 98.3 28.45 98.3 32.2 101.05 34.9 103.75 37.6 107.55 37.6 111.4 37.6 114.1 34.9 116.8 32.2 116.8 28.45 116.8 24.55 114.1 21.85 111.4 19.2 107.6 19.2 103.75 19.2 101.05 21.85 M99.55 20.4 Q102.8 17.2 107.35 17.2 111.95 17.2 115.2 20.4 118.5 23.65 118.5 28.25 118.5 32.8 115.2 36.1 111.95 39.3 107.35 39.3 102.8 39.3 99.55 36.1 96.3 32.8 96.3 28.25 96.3 23.65 99.55 20.4" fill="url(#gradient9)" fill-rule="evenodd" stroke="none"/>
    <path d="M101.05 21.85 Q103.75 19.2 107.6 19.2 111.4 19.2 114.1 21.85 116.8 24.55 116.8 28.45 116.8 32.2 114.1 34.9 111.4 37.6 107.55 37.6 103.75 37.6 101.05 34.9 98.3 32.2 98.3 28.45 98.3 24.55 101.05 21.85" fill="url(#gradient10)" fill-rule="evenodd" stroke="none"/>
    <path d="M101.05 21.85 Q103.75 19.2 107.6 19.2 111.4 19.2 114.1 21.85 116.8 24.55 116.8 28.45 116.8 32.2 114.1 34.9 111.4 37.6 107.55 37.6 103.75 37.6 101.05 34.9 98.3 32.2 98.3 28.45 98.3 24.55 101.05 21.85" fill="none" stroke="#333333" stroke-linecap="round" stroke-linejoin="round" stroke-width="0.05"/>
    <path d="M99.55 20.4 Q102.8 17.2 107.35 17.2 111.95 17.2 115.2 20.4 118.5 23.65 118.5 28.25 118.5 32.8 115.2 36.1 111.95 39.3 107.35 39.3 102.8 39.3 99.55 36.1 96.3 32.8 96.3 28.25 96.3 23.65 99.55 20.4" fill="none" stroke="#333333" stroke-linecap="round" stroke-linejoin="round" stroke-width="0.05"/>
    <path d="M112.05 36.8 Q113.25 40.5 112.0 44.55 L111.15 44.7 Q111.7 49.7 109.9 54.6 L108.65 54.3 108.0 42.9 107.95 46.3 107.35 42.85 107.0 42.7 107.45 45.0 107.0 47.25 106.85 47.4 106.75 46.95 106.05 47.45 105.55 47.35 103.8 37.35 102.85 37.1 Q101.75 36.9 101.4 36.3 L101.2 35.9 Q104.95 34.8 109.65 35.1 L113.4 36.3 112.05 36.8 M110.2 56.4 L110.35 57.05 110.2 57.7 109.7 57.95 109.2 57.7 109.0 57.05 109.2 56.4 Q109.4 56.15 109.7 56.15 110.0 56.15 110.2 56.4 M105.8 52.9 Q104.55 50.8 106.25 48.6 107.4 50.5 106.15 52.4 L105.8 52.9" fill="url(#gradient11)" fill-rule="evenodd" stroke="none"/>
    <path d="M224.5 4.0 Q227.15 9.6 224.45 15.7 L222.6 15.9 Q223.8 23.5 220.0 30.85 L217.35 30.45 215.9 13.25 215.85 18.35 214.55 13.15 213.85 12.95 Q214.75 14.65 214.75 16.4 214.75 18.1 213.85 19.8 L213.5 20.05 213.3 19.35 211.75 20.1 210.75 19.95 207.05 4.85 204.95 4.5 Q202.6 4.1 201.9 3.25 L201.55 2.65 Q209.5 1.0 219.45 1.4 L227.4 3.2 224.5 4.0 M211.3 28.35 Q208.6 25.15 212.2 21.8 214.65 24.7 212.05 27.6 L211.3 28.35 M220.65 33.6 Q221.0 34.0 221.0 34.6 L220.65 35.55 219.55 35.9 Q218.9 35.9 218.55 35.55 218.1 35.1 218.1 34.6 218.1 34.0 218.55 33.6 218.9 33.2 219.55 33.2 L220.65 33.6" fill="url(#gradient12)" fill-rule="evenodd" stroke="none"/>
    <path d="M317.55 43.05 L314.0 61.35 309.55 43.05 317.55 43.05" fill="#362b1a" fill-rule="evenodd" stroke="none"/>
    <path d="M317.55 43.05 L314.0 61.35 309.55 43.05 317.55 43.05 Z" fill="none" stroke="#20170f" stroke-linecap="round" stroke-linejoin="round" stroke-width="1.0"/>
  </g>
  <defs>
    <radialGradient cx="0" cy="0" gradientTransform="matrix(0.0041, 0.2296, -0.4577, 0.008, 192.0, 147.0)" gradientUnits="userSpaceOnUse" id="gradient0" r="819.2" spreadMethod="pad">
      <stop offset="0.0" stop-color="#515f46"/>
      <stop offset="0.7490196078431373" stop-color="#333333"/>
      <stop offset="1.0" stop-color="#2b2b2b"/>
    </radialGradient>
    <linearGradient gradientTransform="matrix(0.0, -0.0536, 0.0549, 0.0, 196.8, 37.5)" gradientUnits="userSpaceOnUse" id="gradient1" spreadMethod="pad" x1="-819.2" x2="819.2">
      <stop offset="0.0" stop-color="#515f46"/>
      <stop offset="0.7490196078431373" stop-color="#333333"/>
      <stop offset="1.0" stop-color="#2b2b2b"/>
    </linearGradient>
    <linearGradient gradientTransform="matrix(0.0, -0.0421, 0.0431, 0.0, 156.25, 44.1)" gradientUnits="userSpaceOnUse" id="gradient2" spreadMethod="pad" x1="-819.2" x2="819.2">
      <stop offset="0.0" stop-color="#515f46"/>
      <stop offset="0.7490196078431373" stop-color="#333333"/>
      <stop offset="1.0" stop-color="#2b2b2b"/>
    </linearGradient>
    <linearGradient gradientTransform="matrix(0.0214, -0.0318, 0.0454, 0.0305, 195.15, 43.0)" gradientUnits="userSpaceOnUse" id="gradient3" spreadMethod="pad" x1="-819.2" x2="819.2">
      <stop offset="0.0" stop-color="#416300"/>
      <stop offset="0.7490196078431373" stop-color="#2b2b2b"/>
      <stop offset="1.0" stop-color="#1b1b1b"/>
    </linearGradient>
    <linearGradient gradientTransform="matrix(0.0, -0.0536, 0.0549, 0.0, 196.8, 37.5)" gradientUnits="userSpaceOnUse" id="gradient4" spreadMethod="pad" x1="-819.2" x2="819.2">
      <stop offset="0.0" stop-color="#406c24"/>
      <stop offset="0.7490196078431373" stop-color="#2b2b2b"/>
      <stop offset="1.0" stop-color="#1b1b1b"/>
    </linearGradient>
    <linearGradient gradientTransform="matrix(0.0, -0.0414, 0.0549, 0.0, 197.35, 26.75)" gradientUnits="userSpaceOnUse" id="gradient5" spreadMethod="pad" x1="-819.2" x2="819.2">
      <stop offset="0.0" stop-color="#2e4f00"/>
      <stop offset="0.7490196078431373" stop-color="#272727"/>
      <stop offset="1.0" stop-color="#1b1b1b"/>
    </linearGradient>
    <linearGradient gradientTransform="matrix(0.0135, 0.0, 0.0, 0.0135, 34.4, 28.3)" gradientUnits="userSpaceOnUse" id="gradient6" spreadMethod="pad" x1="-819.2" x2="819.2">
      <stop offset="0.0" stop-color="#404040"/>
      <stop offset="0.5215686274509804" stop-color="#5b7d3e"/>
      <stop offset="1.0" stop-color="#484848"/>
    </linearGradient>
    <linearGradient gradientTransform="matrix(0.0, 0.0112, -0.0112, 0.0, 34.55, 28.4)" gradientUnits="userSpaceOnUse" id="gradient7" spreadMethod="pad" x1="-819.2" x2="819.2">
      <stop offset="0.0" stop-color="#000000"/>
      <stop offset="1.0" stop-color="#465c2e"/>
    </linearGradient>
    <linearGradient gradientTransform="matrix(3.0E-4, 0.0134, -0.0241, 1.0E-4, 34.3, 44.85)" gradientUnits="userSpaceOnUse" id="gradient8" spreadMethod="pad" x1="-819.2" x2="819.2">
      <stop offset="0.0" stop-color="#284a00" stop-opacity="0.68235296"/>
      <stop offset="1.0" stop-color="#283018" stop-opacity="0.2901961"/>
    </linearGradient>
    <linearGradient gradientTransform="matrix(0.0135, 0.0, 0.0, 0.0135, 107.4, 28.25)" gradientUnits="userSpaceOnUse" id="gradient9" spreadMethod="pad" x1="-819.2" x2="819.2">
      <stop offset="0.0" stop-color="#404040"/>
      <stop offset="0.5215686274509804" stop-color="#5b7d3e"/>
      <stop offset="1.0" stop-color="#484848"/>
    </linearGradient>
    <linearGradient gradientTransform="matrix(0.0, 0.0112, -0.0113, 0.0, 107.55, 28.35)" gradientUnits="userSpaceOnUse" id="gradient10" spreadMethod="pad" x1="-819.2" x2="819.2">
      <stop offset="0.0" stop-color="#000000"/>
      <stop offset="1.0" stop-color="#465c2e"/>
    </linearGradient>
    <linearGradient gradientTransform="matrix(3.0E-4, 0.0134, -0.0241, 1.0E-4, 107.3, 44.8)" gradientUnits="userSpaceOnUse" id="gradient11" spreadMethod="pad" x1="-819.2" x2="819.2">
      <stop offset="0.0" stop-color="#284a00" stop-opacity="0.68235296"/>
      <stop offset="1.0" stop-color="#283018" stop-opacity="0.2901961"/>
    </linearGradient>
    <linearGradient gradientTransform="matrix(6.0E-4, 0.0202, -0.0513, 2.0E-4, 214.45, 16.05)" gradientUnits="userSpaceOnUse" id="gradient12" spreadMethod="pad" x1="-819.2" x2="819.2">
      <stop offset="0.0" stop-color="#284a00" stop-opacity="0.68235296"/>
      <stop offset="1.0" stop-color="#283018" stop-opacity="0.2901961"/>
    </linearGradient>
  </defs>
</svg>
