<?xml version="1.0" encoding="UTF-8" standalone="no"?>
<svg xmlns:xlink="http://www.w3.org/1999/xlink" height="271.9px" width="423.4px" xmlns="http://www.w3.org/2000/svg">
  <g transform="matrix(1.0, 0.0, 0.0, 1.0, 16.1, -2.7)">
    <path d="M405.1 46.0 L-14.0 46.0 -14.0 4.7 405.1 4.7 405.1 46.0" fill="url(#gradient0)" fill-rule="evenodd" stroke="none"/>
    <path d="M406.9 274.6 L-14.05 274.6 -14.5 24.85 406.45 24.85 406.9 274.6" fill="url(#gradient1)" fill-rule="evenodd" stroke="none"/>
    <path d="M386.5 90.75 L386.5 98.85 M395.45 91.65 L394.55 97.95 M396.35 151.7 Q398.25 155.4 395.25 158.3 L394.55 158.9 M388.25 227.95 Q390.7 235.55 386.65 242.5 L385.6 244.1 M391.85 238.7 L390.95 244.1 M381.1 234.25 Q384.55 238.95 381.1 243.2 L380.2 244.1 M258.25 63.5 Q259.5 61.15 258.6 58.3 256.9 52.7 252.25 49.25 251.1 48.4 249.9 48.2 M262.0 55.7 Q260.55 51.65 261.75 47.35 L262.0 46.5 M267.2 56.3 Q265.0 53.5 265.75 49.7 265.95 48.95 266.45 48.3 L267.5 47.35 M277.9 36.65 L276.65 34.1 276.45 33.8 M281.65 36.1 Q281.3 34.85 280.55 33.75 M275.3 57.45 Q277.2 55.2 275.95 52.75 M191.65 58.3 Q191.05 52.55 195.15 48.55 L195.95 47.9 M188.2 59.45 L187.55 55.4 187.35 54.25 Q187.05 51.8 187.9 49.65 M194.25 58.3 L195.5 56.35 195.9 55.65 Q196.3 54.9 197.1 54.25 M226.5 55.15 Q227.0 55.05 226.95 54.25 L226.95 53.4 Q227.0 52.5 226.6 51.6 226.15 50.7 225.05 50.25 M231.7 54.55 Q231.65 52.4 230.6 50.45 M229.4 54.85 Q230.2 52.7 228.75 50.85 M221.45 89.9 L222.35 97.1 M233.15 89.9 L231.35 98.0 M228.65 84.55 L226.85 94.4 M172.2 170.6 L172.2 175.95 M162.3 168.8 Q166.2 171.1 164.5 175.2 L164.1 175.95 M165.9 160.7 Q169.75 167.65 168.85 175.35 L168.6 176.85 M250.2 161.6 L250.2 166.1 M252.85 158.95 L254.65 165.2 M304.0 193.0 L303.1 197.5 M120.9 60.35 Q121.25 56.0 118.6 52.55 117.3 50.85 116.0 49.95 M138.1 78.25 L136.3 82.75 M125.55 57.45 Q125.55 55.15 125.7 52.8 125.8 51.3 126.7 50.25 M131.3 60.35 Q130.8 57.4 132.75 55.4 L133.05 55.15 M91.45 133.85 L92.35 139.2 M84.3 134.75 L86.95 141.9 M138.1 190.3 L139.0 195.7 M143.5 187.65 L144.4 190.3 M98.65 257.6 L100.45 262.1 M108.5 254.9 L110.3 260.3 M104.0 250.4 Q103.35 256.55 105.9 262.1 L106.7 263.9 M15.55 201.05 Q20.05 203.9 19.35 208.95 L19.15 210.0 M30.8 209.1 L31.7 212.7 M22.75 201.05 L24.55 203.75 M244.8 230.7 L245.7 235.15 M254.65 229.8 L254.65 239.65 M296.8 190.3 L298.6 198.4" fill="none" stroke="#334d1e" stroke-linecap="round" stroke-linejoin="round" stroke-width="1.0"/>
    <path d="M296.9 32.3 L292.55 32.2 Q290.65 31.9 289.15 33.25 288.25 34.05 287.85 35.2 L287.6 34.25 Q287.1 32.75 285.85 31.7 L285.0 31.3 284.4 31.15 283.85 35.2 Q283.2 34.4 282.15 34.35 280.8 34.3 279.75 33.55 278.75 32.8 277.65 32.85 271.85 31.8 266.45 34.35 L265.6 31.55 262.6 29.8 263.6 25.8 261.1 20.3 Q261.35 23.75 260.8 27.35 L260.35 28.25 Q258.35 30.1 257.05 32.2 L257.65 34.05 Q258.25 35.75 259.6 37.1 L254.1 39.35 Q249.15 41.45 243.85 41.65 L234.1 41.65 233.7 41.65 Q228.05 39.6 222.15 39.35 L218.45 38.55 218.2 37.75 217.3 36.35 216.0 35.0 215.85 34.3 216.9 32.9 215.35 32.9 214.8 32.0 212.6 32.95 211.85 32.75 211.6 31.5 210.4 32.35 208.8 31.75 210.55 29.4 209.85 29.3 210.0 28.8 216.85 27.2 Q222.85 25.7 228.6 23.4 L233.75 21.25 238.85 19.0 243.5 16.8 Q248.4 14.5 253.4 12.45 257.0 10.95 260.75 9.7 L264.8 8.9 276.4 9.3 Q280.65 9.85 284.7 11.0 L293.05 13.55 293.8 12.9 Q295.7 12.75 297.3 13.8 L298.45 14.65 Q293.5 17.75 289.6 21.9 293.85 21.3 297.7 19.6 297.05 21.4 295.8 22.8 295.3 23.4 295.15 24.2 295.05 24.65 295.1 25.1 L295.8 25.8 298.3 26.3 Q297.7 27.25 296.65 27.8 295.65 28.25 294.85 29.05 L294.2 30.0 296.9 32.3 M183.9 33.75 L165.3 35.1 165.75 32.2 165.3 31.45 160.95 30.0 162.95 27.15 Q166.95 29.05 171.35 29.6 L182.95 30.25 181.75 31.75 183.9 33.75 M157.3 36.75 Q154.2 38.2 150.55 37.95 L146.8 38.4 141.9 39.25 Q140.7 37.7 141.05 35.85 L141.15 35.25 141.35 34.6 140.9 34.95 140.85 34.95 Q139.35 36.05 138.45 37.75 137.9 38.7 137.85 39.7 L137.85 40.4 Q136.0 39.8 135.6 37.8 L135.05 34.65 135.0 32.9 Q131.6 35.4 129.8 39.25 L128.95 38.2 128.45 37.2 128.25 35.9 127.5 35.35 126.55 36.15 126.1 36.7 125.8 37.35 125.65 38.1 Q124.3 35.6 125.05 32.85 L125.1 31.95 Q124.65 30.3 123.55 29.05 123.05 28.45 122.3 28.45 L121.2 26.7 Q120.3 26.55 119.95 26.05 119.55 25.55 119.45 24.95 119.2 23.15 119.2 21.35 L120.95 21.55 123.3 20.7 Q127.35 18.75 131.55 19.7 L141.9 22.45 147.15 24.0 152.6 25.7 Q152.75 27.85 154.2 29.4 L151.15 32.3 Q153.4 32.2 154.3 34.4 155.1 36.4 157.3 36.75 M324.7 20.2 Q330.2 22.1 335.7 20.25 L336.95 19.85 337.8 19.65 Q338.35 20.0 338.1 20.55 L337.85 20.9 336.95 21.9 335.1 23.75 335.75 24.8 337.75 24.1 338.65 24.8 336.35 26.55 338.15 27.0 338.75 28.05 339.15 28.35 339.5 28.6 340.0 28.6 340.95 28.35 340.15 29.4 Q339.45 30.25 338.55 30.9 L337.1 31.95 Q336.15 32.7 334.95 33.0 L330.8 33.2 Q329.45 32.85 328.85 31.75 L327.7 31.75 326.7 31.4 324.8 30.0 326.75 28.6 323.05 27.7 325.4 25.4 320.2 23.05 325.4 21.9 325.05 20.6 324.7 20.35 324.7 20.2 M107.75 25.95 L109.25 25.45 Q112.05 24.3 114.25 22.6 L111.85 28.9 Q110.15 33.0 109.4 37.45 L109.2 37.45 106.7 34.05 109.3 33.15 Q109.65 31.9 108.85 30.8 107.75 29.25 106.15 28.25 L108.45 27.1 107.75 25.95 M75.65 22.5 L77.3 24.25 74.95 26.55 Q77.65 26.65 80.0 28.05 L81.9 28.25 80.8 29.7 81.2 30.1 Q81.65 30.55 82.3 30.75 L83.05 30.95 83.65 31.4 Q82.9 33.8 84.7 35.55 L85.45 36.6 Q86.15 37.85 85.4 39.2 83.95 41.7 83.7 44.55 L82.45 43.3 79.0 43.85 79.05 42.6 79.3 41.35 79.3 40.85 79.0 39.8 Q78.0 40.55 76.95 41.25 L74.95 40.95 Q75.65 39.05 74.95 37.1 73.7 33.65 73.55 30.0 73.45 27.2 71.5 25.4 L71.75 32.9 71.9 40.45 Q71.9 43.25 69.5 44.45 68.05 45.2 66.3 45.0 L68.9 42.95 63.45 42.7 64.1 42.3 64.6 41.75 64.95 41.1 65.15 40.4 63.85 40.55 62.55 40.3 62.3 40.1 61.9 39.65 Q61.85 39.45 61.95 39.35 L62.6 38.3 63.2 37.3 63.45 36.75 63.55 36.15 63.45 33.65 59.75 32.05 58.8 29.4 63.9 26.9 63.95 26.1 62.05 24.55 Q67.0 22.85 72.5 22.1 L75.1 22.25 75.65 22.5" fill="#688241" fill-rule="evenodd" stroke="none"/>
    <path d="M365.05 15.8 L363.55 14.35 Q363.55 12.6 364.95 11.65 L368.0 9.25 Q369.9 7.6 370.05 4.95 L368.5 2.7 380.95 2.7 Q383.1 4.9 383.35 7.9 L383.7 10.4 385.45 10.85 385.75 12.15 385.7 12.3 385.8 12.3 387.15 12.1 387.15 14.4 391.25 7.6 390.95 6.85 Q389.25 6.7 388.4 5.45 387.35 4.05 388.55 2.7 L407.3 2.7 407.3 55.2 403.75 52.6 Q402.0 51.1 402.9 48.1 403.8 45.1 402.15 45.0 L400.35 50.3 Q399.8 52.05 398.1 53.1 L397.0 47.3 396.9 47.25 396.85 47.2 396.85 47.25 Q395.4 50.9 395.2 54.8 L389.9 51.85 Q390.25 52.7 389.05 53.4 L388.05 54.05 Q387.15 54.7 386.15 54.4 384.65 53.8 384.0 52.25 383.2 50.4 381.35 50.9 L377.3 54.8 Q378.95 50.8 377.95 46.5 377.3 43.85 375.0 42.1 378.35 49.2 375.35 52.7 L370.4 57.75 Q368.5 59.3 366.1 59.4 L365.15 58.8 363.9 59.05 Q362.65 59.3 361.7 60.05 L357.9 62.5 355.95 61.75 357.05 59.75 Q357.75 58.8 358.75 58.15 360.55 57.15 361.25 55.2 361.75 53.85 361.7 52.6 L361.3 51.5 Q360.3 50.0 359.8 48.4 358.65 44.4 358.85 40.4 L357.95 50.75 Q357.85 51.95 356.95 53.0 L355.9 53.9 354.0 54.75 351.55 54.6 Q350.0 53.65 350.25 51.6 348.75 54.9 345.2 55.55 344.6 55.45 344.15 55.15 343.2 54.5 343.05 53.4 342.9 52.45 342.1 51.9 342.3 53.55 341.25 54.7 L339.95 55.65 337.55 55.55 336.35 51.9 335.1 53.1 Q333.45 54.75 332.6 56.9 333.15 55.3 333.05 53.55 332.9 51.45 332.05 49.6 329.85 44.7 324.8 42.7 326.45 45.2 327.5 48.2 328.8 51.95 327.3 55.25 326.15 57.85 324.35 59.5 L322.6 59.45 322.85 58.05 322.8 57.35 322.5 56.6 318.5 57.7 319.05 54.25 Q317.85 54.3 316.9 55.25 L315.75 56.45 Q314.55 57.75 312.85 58.3 L313.35 57.2 311.55 57.7 313.2 53.15 Q313.6 51.9 309.25 49.45 312.6 56.8 307.85 58.6 L306.5 59.75 306.35 58.25 305.15 58.5 302.8 58.2 299.95 58.15 297.05 58.0 Q294.3 57.15 292.05 58.6 L290.65 58.75 Q288.6 58.1 288.6 55.7 288.1 55.75 287.65 55.95 286.7 56.3 285.85 56.9 285.4 57.2 285.05 57.65 L285.8 54.15 284.7 53.2 284.5 50.55 288.05 50.65 288.45 50.2 286.25 46.7 Q284.9 44.2 286.15 41.55 L295.55 50.4 Q296.95 51.8 298.85 51.2 L299.45 49.45 302.9 49.6 304.0 45.7 303.45 44.95 Q302.6 43.9 301.35 43.2 299.6 42.25 297.7 42.1 L299.55 40.55 301.15 38.65 298.55 38.2 298.25 36.9 296.0 37.9 Q292.7 39.45 289.1 39.85 L296.75 33.15 296.9 32.3 294.2 30.0 294.85 29.05 Q295.65 28.25 296.65 27.8 297.7 27.25 298.3 26.3 L295.8 25.8 295.1 25.1 Q295.05 24.65 295.15 24.2 295.3 23.4 295.8 22.8 297.05 21.4 297.7 19.6 293.85 21.3 289.6 21.9 293.5 17.75 298.45 14.65 L297.3 13.8 Q295.7 12.75 293.8 12.9 L293.25 12.55 293.0 12.0 297.1 10.4 Q296.1 10.0 295.95 8.8 295.55 5.5 297.15 2.7 L321.5 2.7 Q322.45 5.45 320.4 7.15 L319.6 8.05 327.1 8.65 323.65 11.55 326.1 13.15 332.9 16.75 328.5 17.25 324.2 16.45 319.6 16.75 324.45 20.2 324.7 20.35 325.05 20.6 325.4 21.9 320.2 23.05 325.4 25.4 323.05 27.7 326.75 28.6 324.8 30.0 326.7 31.4 327.7 31.75 328.85 31.75 Q329.45 32.85 330.8 33.2 L334.95 33.0 Q336.15 32.7 337.1 31.95 L338.55 30.9 Q339.45 30.25 340.15 29.4 L340.95 28.35 340.0 28.6 339.5 28.6 339.15 28.35 338.75 28.05 338.15 27.0 336.35 26.55 338.65 24.8 337.75 24.1 335.75 24.8 335.1 23.75 336.95 21.9 337.85 20.9 338.1 20.55 Q338.35 20.0 337.8 19.65 L336.9 19.6 337.3 18.4 338.65 17.9 336.65 12.05 337.65 11.55 347.9 6.9 346.2 6.5 Q343.35 5.6 343.1 2.7 L356.55 2.7 359.45 10.95 355.95 13.25 361.0 15.25 361.0 15.8 360.5 16.35 359.6 17.4 359.6 17.85 360.85 19.2 Q361.05 20.45 360.1 21.35 L358.3 23.05 Q360.1 24.05 360.75 26.05 360.3 26.9 359.5 27.25 L358.3 27.7 361.5 27.3 362.45 27.9 362.8 29.1 Q363.6 26.0 365.3 23.4 L365.6 22.15 Q365.6 20.9 364.3 20.3 L366.95 17.9 365.05 15.8 M266.45 34.35 L259.6 37.1 Q258.25 35.75 257.65 34.05 L257.05 32.2 Q258.35 30.1 260.35 28.25 L260.8 27.35 Q261.35 23.75 261.1 20.3 L263.6 25.8 262.6 29.8 265.6 31.55 266.45 34.35 M218.45 38.55 L210.65 35.9 204.2 34.3 192.7 33.05 Q188.3 32.55 183.9 33.75 L181.75 31.75 182.95 30.25 Q185.1 28.1 185.65 25.0 L185.7 24.35 Q184.9 23.45 184.95 22.2 185.0 20.6 185.2 19.05 188.05 21.85 190.05 25.3 L191.0 27.8 191.2 29.15 190.45 30.55 191.95 31.15 195.5 26.2 Q195.05 25.2 195.3 24.2 195.6 23.1 196.2 22.1 L197.15 20.6 Q198.55 18.25 197.9 15.55 198.95 15.95 199.1 17.0 200.0 22.8 198.5 28.7 L198.85 29.65 201.45 29.75 Q202.8 29.3 203.1 27.7 L203.65 29.35 Q204.7 28.95 204.7 27.7 204.8 21.25 207.65 15.55 210.5 20.2 209.4 25.45 L209.0 27.9 Q208.85 28.85 209.85 29.3 L210.55 29.4 208.8 31.75 210.4 32.35 211.6 31.5 211.85 32.75 212.6 32.95 214.8 32.0 215.35 32.9 216.9 32.9 215.85 34.3 216.0 35.0 217.3 36.35 218.2 37.75 218.45 38.55 M165.3 35.1 L157.3 36.75 Q155.1 36.4 154.3 34.4 153.4 32.2 151.15 32.3 L154.2 29.4 Q152.75 27.85 152.6 25.7 154.15 24.0 155.0 22.0 155.9 20.0 156.1 17.9 156.3 15.55 156.85 13.25 L157.5 11.0 Q159.1 15.85 161.3 20.2 L162.0 22.25 162.95 27.15 160.95 30.0 165.3 31.45 165.75 32.2 165.3 35.1 M125.65 38.1 L126.35 41.9 122.9 39.2 117.7 38.6 114.9 38.2 Q113.85 38.4 112.85 38.75 L111.85 39.25 111.5 40.05 Q109.65 41.05 107.4 41.0 100.6 41.35 93.7 41.1 96.5 41.75 97.4 44.5 L97.6 45.25 102.35 45.45 104.6 47.85 Q102.8 49.1 100.65 49.0 L97.9 48.4 95.75 48.4 Q94.8 49.4 95.15 50.75 93.7 49.35 91.85 48.6 90.95 48.2 90.55 47.3 L89.1 50.7 Q88.05 50.8 87.25 50.05 L86.95 49.7 87.1 50.1 87.1 50.2 Q84.95 51.05 82.7 50.7 L80.0 50.65 78.6 51.05 78.25 52.2 79.25 52.55 73.05 53.2 69.7 53.4 Q66.1 52.65 62.8 54.15 L61.1 54.55 Q56.25 53.6 55.35 45.75 54.6 48.35 53.05 51.9 L49.0 47.9 47.25 51.35 44.95 46.75 46.1 53.1 Q41.85 52.3 38.25 50.0 L37.0 48.7 Q36.05 47.4 34.85 46.8 37.7 51.7 31.7 51.2 L31.3 52.0 29.15 52.7 28.8 54.25 25.85 51.3 25.15 51.2 Q24.45 51.3 23.85 51.75 22.55 52.75 22.45 54.25 L21.25 50.95 19.2 51.35 17.85 55.4 17.1 54.15 17.8 51.95 Q16.75 46.95 13.25 43.15 L12.2 42.05 Q15.95 50.55 10.05 55.0 L3.4 50.75 2.85 54.8 Q2.3 54.25 -0.8 53.05 -3.3 52.0 -3.75 50.6 -4.35 52.1 -3.9 53.55 -3.65 54.4 -3.0 55.1 L-3.2 56.1 Q-4.0 56.1 -6.75 53.6 -9.5 51.1 -8.15 44.4 -9.95 47.65 -9.95 51.3 L-9.65 53.65 -11.55 52.95 Q-10.6 50.15 -13.35 49.75 L-14.65 49.95 -15.1 50.3 -15.1 2.7 -6.4 2.7 -5.95 3.45 -6.5 4.85 -9.85 6.35 -8.55 7.35 -6.9 8.2 -5.85 8.05 -6.25 9.6 -7.55 12.75 -9.3 12.7 -9.0 13.4 Q-4.4 14.5 -1.2 17.9 -3.3 17.6 -5.25 18.4 L-6.5 18.9 -0.55 23.55 6.1 21.45 5.3 21.65 7.45 18.45 5.45 18.35 Q3.75 17.8 2.8 16.7 L2.35 16.1 Q3.0 15.65 3.7 15.35 4.3 15.05 5.0 14.9 L5.7 14.9 7.45 15.0 5.75 14.65 -0.65 12.7 -0.45 11.2 0.75 10.25 2.7 9.05 5.25 7.3 6.45 6.3 Q8.4 5.0 8.3 2.7 L27.45 2.7 24.75 5.75 Q25.55 6.9 26.85 7.45 28.65 8.15 29.55 10.15 L27.6 12.75 27.05 13.25 Q27.4 15.2 29.25 15.55 L28.25 19.6 Q27.95 20.4 28.5 21.35 L28.4 22.1 Q31.45 21.35 32.5 18.4 L31.8 17.5 Q31.75 16.15 32.95 15.1 L33.6 14.3 Q34.25 12.95 33.95 11.5 L31.25 7.9 31.6 7.15 32.15 6.55 34.3 5.0 34.85 4.5 34.45 2.7 51.2 2.7 53.2 10.2 54.0 11.35 53.35 12.95 55.5 15.0 62.85 14.4 Q61.2 15.65 61.6 17.85 L61.85 18.35 Q62.45 19.05 63.45 19.05 62.4 19.55 61.4 20.15 L60.6 20.95 59.95 21.9 62.25 22.5 61.1 24.25 62.05 24.55 63.95 26.1 63.9 26.9 58.8 29.4 59.75 32.05 63.45 33.65 63.55 36.15 63.45 36.75 63.2 37.3 62.6 38.3 61.95 39.35 Q61.85 39.45 61.9 39.65 L62.3 40.1 62.55 40.3 63.85 40.55 65.15 40.4 64.95 41.1 64.6 41.75 64.1 42.3 63.45 42.7 68.9 42.95 66.3 45.0 Q68.05 45.2 69.5 44.45 71.9 43.25 71.9 40.45 L71.75 32.9 71.5 25.4 Q73.45 27.2 73.55 30.0 73.7 33.65 74.95 37.1 75.65 39.05 74.95 40.95 L76.95 41.25 Q78.0 40.55 79.0 39.8 L79.3 40.85 79.3 41.35 79.05 42.6 79.0 43.85 82.45 43.3 83.7 44.55 Q83.95 41.7 85.4 39.2 86.15 37.85 85.45 36.6 L84.7 35.55 Q82.9 33.8 83.65 31.4 L83.05 30.95 82.3 30.75 Q81.65 30.55 81.2 30.1 L80.8 29.7 81.9 28.25 80.0 28.05 Q77.65 26.65 74.95 26.55 L77.3 24.25 75.65 22.5 75.25 22.1 71.5 19.6 Q75.15 16.85 79.6 17.5 81.65 17.65 83.05 16.15 80.75 15.6 79.1 13.95 L77.1 11.75 76.1 10.4 Q77.9 9.15 80.1 8.5 L82.15 7.85 Q83.05 7.4 83.65 6.35 L81.0 2.7 102.0 2.7 106.25 11.35 106.75 13.6 107.5 20.3 105.6 22.3 105.1 22.65 104.45 23.05 103.65 23.65 107.75 25.95 108.45 27.1 106.15 28.25 Q107.75 29.25 108.85 30.8 109.65 31.9 109.3 33.15 L106.7 34.05 109.2 37.45 109.35 37.75 109.4 37.45 Q110.15 33.0 111.85 28.9 L114.25 22.6 116.3 14.25 118.25 8.05 119.5 9.1 118.25 14.8 Q118.25 16.1 119.45 16.9 L119.8 17.5 Q120.5 19.6 119.2 21.35 119.2 23.15 119.45 24.95 119.55 25.55 119.95 26.05 120.3 26.55 121.2 26.7 L122.3 28.45 Q123.05 28.45 123.55 29.05 124.65 30.3 125.1 31.95 L125.05 32.85 Q124.3 35.6 125.65 38.1 M168.9 15.15 L169.6 11.55 173.1 16.15 175.4 10.95 175.95 11.5 176.3 12.05 176.45 12.6 176.7 14.9 Q176.8 16.05 177.8 16.6 L169.8 19.5 Q168.8 17.95 168.85 16.1 L168.9 15.15 M243.5 16.8 L238.85 19.0 235.1 18.4 226.85 17.3 226.35 14.55 Q225.95 13.0 227.0 11.6 L227.45 11.6 Q229.85 13.25 229.6 16.15 L231.65 12.85 232.6 15.2 234.75 14.35 236.5 9.8 236.5 16.15 239.75 15.55 240.55 16.0 241.3 16.7 243.5 16.8" fill="#293908" fill-rule="evenodd" stroke="none"/>
    <path d="M177.8 16.6 Q181.1 15.65 184.25 14.2 187.5 12.7 191.25 13.0 L194.5 12.7 200.25 12.25 211.5 14.2 217.0 15.2 218.0 15.35 218.1 15.4 226.85 17.3 235.1 18.4 238.85 19.0 233.75 21.25 228.6 23.4 Q222.85 25.7 216.85 27.2 L210.0 28.8 209.85 29.3 Q208.85 28.85 209.0 27.9 L209.4 25.45 Q210.5 20.2 207.65 15.55 204.8 21.25 204.7 27.7 204.7 28.95 203.65 29.35 L203.1 27.7 Q202.8 29.3 201.45 29.75 L198.85 29.65 198.5 28.7 Q200.0 22.8 199.1 17.0 198.95 15.95 197.9 15.55 198.55 18.25 197.15 20.6 L196.2 22.1 Q195.6 23.1 195.3 24.2 195.05 25.2 195.5 26.2 L191.95 31.15 190.45 30.55 191.2 29.15 191.0 27.8 190.05 25.3 Q188.05 21.85 185.2 19.05 185.0 20.6 184.95 22.2 184.9 23.45 185.7 24.35 L185.65 25.0 Q185.1 28.1 182.95 30.25 L171.35 29.6 Q166.95 29.05 162.95 27.15 L162.0 22.25 169.8 19.5 177.8 16.6" fill="#68998c" fill-rule="evenodd" stroke="none"/>
    <path d="M-6.25 9.6 L-0.45 11.2 -0.65 12.7 5.75 14.65 5.7 14.9 5.0 14.9 Q4.3 15.05 3.7 15.35 3.0 15.65 2.35 16.1 L2.8 16.7 Q3.75 17.8 5.45 18.35 L7.45 18.45 5.3 21.65 6.1 21.45 -0.55 23.55 -6.5 18.9 -5.25 18.4 Q-3.3 17.6 -1.2 17.9 -4.4 14.5 -9.0 13.4 L-9.3 12.7 -7.55 12.75 -6.25 9.6 M27.6 12.75 L33.95 11.5 Q34.25 12.95 33.6 14.3 L32.95 15.1 Q31.75 16.15 31.8 17.5 L32.5 18.4 Q31.45 21.35 28.4 22.1 L28.5 21.35 Q27.95 20.4 28.25 19.6 L29.25 15.55 Q27.4 15.2 27.05 13.25 L27.6 12.75 M53.2 10.2 L64.6 12.75 65.8 13.2 Q71.7 14.2 77.1 11.75 L79.1 13.95 Q80.75 15.6 83.05 16.15 81.65 17.65 79.6 17.5 75.15 16.85 71.5 19.6 L75.25 22.1 75.1 22.25 72.5 22.1 Q67.0 22.85 62.05 24.55 L61.1 24.25 62.25 22.5 59.95 21.9 60.6 20.95 61.4 20.15 Q62.4 19.55 63.45 19.05 62.45 19.05 61.85 18.35 L61.6 17.85 Q61.2 15.65 62.85 14.4 L55.5 15.0 53.35 12.95 54.0 11.35 53.2 10.2 M106.25 11.35 L108.8 11.65 Q112.6 12.35 116.3 14.25 L114.25 22.6 Q112.05 24.3 109.25 25.45 L107.75 25.95 103.65 23.65 104.45 23.05 105.1 22.65 105.6 22.3 107.5 20.3 106.75 13.6 106.25 11.35 M118.25 14.8 Q122.45 16.15 126.75 15.75 L137.35 13.4 Q140.6 12.55 143.7 11.35 149.35 9.3 155.5 9.3 157.65 9.3 159.55 10.25 164.3 12.6 168.9 15.15 L168.85 16.1 Q168.8 17.95 169.8 19.5 L162.0 22.25 161.3 20.2 Q159.1 15.85 157.5 11.0 L156.85 13.25 Q156.3 15.55 156.1 17.9 155.9 20.0 155.0 22.0 154.15 24.0 152.6 25.7 L147.15 24.0 141.9 22.45 131.55 19.7 Q127.35 18.75 123.3 20.7 L120.95 21.55 119.2 21.35 Q120.5 19.6 119.8 17.5 L119.45 16.9 Q118.25 16.1 118.25 14.8 M218.1 15.4 L218.0 15.25 Q221.65 13.95 225.0 12.05 229.1 9.6 233.45 7.7 235.35 6.9 237.35 6.85 238.75 6.85 240.15 7.5 242.8 8.5 245.0 10.1 246.9 11.5 249.1 10.1 L250.4 9.15 252.75 7.55 Q254.85 8.55 256.85 8.95 L258.8 9.4 260.75 9.7 Q257.0 10.95 253.4 12.45 248.4 14.5 243.5 16.8 L241.3 16.7 240.55 16.0 239.75 15.55 236.5 16.15 236.5 9.8 234.75 14.35 232.6 15.2 231.65 12.85 229.6 16.15 Q229.85 13.25 227.45 11.6 L227.0 11.6 Q225.95 13.0 226.35 14.55 L226.85 17.3 218.1 15.4 M326.1 13.15 L332.5 10.35 335.65 10.45 337.65 11.55 336.65 12.05 338.65 17.9 337.3 18.4 336.9 19.6 336.95 19.85 335.7 20.25 Q330.2 22.1 324.7 20.2 L324.45 20.2 319.6 16.75 324.2 16.45 328.5 17.25 332.9 16.75 326.1 13.15 M360.5 16.35 L361.55 16.55 365.05 15.8 366.95 17.9 364.3 20.3 Q365.6 20.9 365.6 22.15 L365.3 23.4 Q363.6 26.0 362.8 29.1 L362.45 27.9 361.5 27.3 358.3 27.7 359.5 27.25 Q360.3 26.9 360.75 26.05 360.1 24.05 358.3 23.05 L360.1 21.35 Q361.05 20.45 360.85 19.2 L359.6 17.85 359.6 17.4 360.5 16.35" fill="#8bafa8" fill-rule="evenodd" stroke="none"/>
    <path d="M359.4 79.15 L359.35 79.1 359.5 78.95 359.4 79.15 M378.95 66.75 L379.2 67.1 378.95 67.25 378.95 66.95 378.95 66.75" fill="#555b3f" fill-rule="evenodd" stroke="none"/>
    <path d="M331.0 71.3 L331.85 73.05 331.9 73.3 330.45 74.45 327.85 74.75 327.65 74.65 Q329.0 72.6 331.0 71.3 M359.5 78.95 Q364.0 73.85 369.05 69.1 372.0 66.3 375.9 66.0 L378.5 66.05 378.95 66.75 378.95 66.95 378.95 67.25 375.15 69.85 Q375.85 72.45 378.05 73.05 378.6 74.35 380.35 74.45 L380.35 74.75 381.5 74.75 384.0 77.15 384.1 77.35 369.7 78.2 369.7 78.8 Q370.8 80.05 372.35 80.7 L372.6 80.8 370.25 81.1 370.0 81.1 367.4 79.65 359.5 78.95 M395.35 82.9 L395.95 83.4 395.95 85.15 Q394.1 87.5 390.75 86.9 L389.95 86.95 395.35 82.9 M7.0 77.45 Q9.55 78.45 10.95 81.4 L10.35 83.15 8.05 84.3 7.75 84.3 Q0.7 84.0 -4.9 85.65 -5.05 84.55 -4.85 83.4 -1.3 80.9 2.9 79.6 4.6 79.05 6.1 78.05 L7.0 77.45 M33.2 83.6 L36.45 81.05 Q36.9 81.85 36.65 82.85 L36.65 83.15 33.2 83.6" fill="#858d61" fill-rule="evenodd" stroke="none"/>
    <path d="M331.0 71.3 L331.9 70.75 Q334.0 71.9 334.9 74.0 L335.2 75.0 Q333.05 76.25 330.6 76.35 328.7 76.7 327.2 75.4 L327.65 74.65 327.85 74.75 330.45 74.45 331.9 73.3 331.85 73.05 331.0 71.3 M379.2 67.1 L379.75 68.0 Q381.7 67.9 382.9 69.3 L384.0 71.2 384.6 73.05 384.75 73.35 386.25 74.35 391.7 76.85 Q391.95 78.35 391.25 79.5 L390.2 80.55 388.45 81.7 Q386.75 82.8 384.9 83.05 L382.45 83.35 Q377.65 83.2 373.2 84.2 L369.35 84.75 Q368.1 84.3 367.25 83.55 366.35 82.85 365.2 82.8 L362.95 81.25 360.55 80.85 360.05 79.55 359.4 79.15 359.5 78.95 367.4 79.65 370.0 81.1 370.25 81.1 372.6 80.8 372.35 80.7 Q370.8 80.05 369.7 78.8 L369.7 78.2 384.1 77.35 384.0 77.15 381.5 74.75 380.35 74.75 380.35 74.45 Q378.6 74.35 378.05 73.05 375.85 72.45 375.15 69.85 L378.95 67.25 379.2 67.1 M395.35 82.9 L395.8 82.5 Q397.65 83.3 398.05 84.65 398.4 85.95 398.7 86.25 398.75 86.9 397.85 87.75 396.45 89.05 394.7 89.35 391.3 90.05 388.75 87.85 L389.95 86.95 390.75 86.9 Q394.1 87.5 395.95 85.15 L395.95 83.4 395.35 82.9 M-4.9 85.65 Q0.7 84.0 7.75 84.3 L8.05 84.3 10.35 83.15 10.95 81.4 Q9.55 78.45 7.0 77.45 L8.2 76.7 Q10.3 75.3 12.0 77.15 L14.05 79.2 17.6 82.8 Q18.6 83.9 18.65 85.45 15.9 88.85 11.55 87.75 9.7 87.4 8.7 88.65 3.85 86.45 -1.0 88.8 -2.5 89.55 -3.85 89.9 L-5.1 88.85 -4.55 88.2 -4.1 88.25 -4.55 87.1 -4.9 85.65 M33.2 83.6 L36.65 83.15 36.65 82.85 Q36.9 81.85 36.45 81.05 L37.05 80.55 38.1 81.75 Q39.75 83.6 42.05 84.25 L40.75 85.45 Q39.95 85.95 39.05 85.95 35.25 86.0 31.7 84.75 L33.2 83.6" fill="#474b34" fill-rule="evenodd" stroke="none"/>
    <path d="M243.85 41.65 L242.95 42.2 Q242.05 42.75 241.05 42.95 237.15 43.75 234.8 46.75 237.0 48.15 239.5 48.65 240.6 48.85 241.55 49.35 242.9 50.05 243.45 51.35 L241.7 52.0 Q238.95 53.2 236.15 53.25 229.25 53.7 222.55 52.95 216.7 52.2 211.1 54.25 L211.15 54.95 211.45 56.05 211.75 56.5 212.0 56.8 220.35 59.4 Q224.95 60.8 228.8 63.25 L229.7 64.15 Q231.25 66.95 229.15 69.35 L228.05 70.2 Q222.7 73.05 216.85 74.0 L205.35 75.3 197.3 75.9 187.9 76.4 178.5 76.6 169.1 76.7 159.65 76.65 151.05 75.95 142.5 75.3 130.55 75.2 121.0 74.7 111.4 74.3 Q105.75 74.2 100.1 74.25 L95.3 74.1 Q89.6 74.55 83.8 74.3 L77.0 74.15 71.1 74.1 60.5 73.7 51.3 72.85 44.95 72.0 34.55 71.45 27.65 71.0 16.25 70.35 Q10.25 70.1 4.4 70.45 L-6.95 72.35 Q-11.15 73.05 -15.1 74.8 L-15.1 68.05 -5.7 65.65 Q-0.3 64.35 5.1 63.7 L11.5 63.45 17.85 63.2 24.25 63.0 30.55 62.8 41.85 62.6 53.1 62.65 64.35 62.85 75.55 63.15 81.65 63.2 Q86.3 62.55 90.7 63.4 L99.6 64.2 108.5 64.35 118.6 64.65 128.65 65.2 137.05 65.25 145.45 64.85 157.35 64.25 168.65 63.4 175.7 63.1 182.8 62.8 193.0 62.15 197.25 61.15 Q198.35 60.75 199.25 59.95 L200.1 59.05 200.05 58.55 199.85 58.05 199.1 57.3 198.15 56.7 197.15 56.3 195.9 56.2 193.9 54.7 194.05 53.05 Q196.65 51.7 199.3 51.2 L209.4 49.7 211.85 49.8 212.95 50.1 213.95 50.25 215.0 50.3 217.6 49.95 221.8 49.3 225.5 49.35 227.45 48.7 228.45 48.45 228.45 48.0 228.35 47.55 228.15 47.2 227.8 46.95 227.2 46.45 226.5 46.15 225.75 46.05 224.95 46.1 Q226.2 44.5 228.3 44.05 L230.75 43.25 232.95 42.5 233.85 41.9 233.95 41.85 234.1 41.65 243.85 41.65" fill="url(#gradient2)" fill-rule="evenodd" stroke="none"/>
    <path d="M234.8 46.75 Q237.0 48.15 239.5 48.65 240.6 48.85 241.55 49.35 242.9 50.05 243.45 51.35 M-15.1 68.05 L-5.7 65.65 Q-0.3 64.35 5.1 63.7 L11.5 63.45 17.85 63.2 24.25 63.0 30.55 62.8 41.85 62.6 53.1 62.65 64.35 62.85 75.55 63.15 81.65 63.2 Q86.3 62.55 90.7 63.4 L99.6 64.2 108.5 64.35 118.6 64.65 128.65 65.2 137.05 65.25 145.45 64.85 157.35 64.25 168.65 63.4 175.7 63.1 182.8 62.8 193.0 62.15 197.25 61.15 Q198.35 60.75 199.25 59.95 L200.1 59.05 200.05 58.55 199.85 58.05 199.1 57.3 198.15 56.7 197.15 56.3 195.9 56.2 193.9 54.7 194.05 53.05 Q196.65 51.7 199.3 51.2 L209.4 49.7 211.85 49.8 212.95 50.1 213.95 50.25 215.0 50.3 217.6 49.95 221.8 49.3 225.5 49.35 227.45 48.7 228.45 48.45" fill="none" stroke="#564021" stroke-linecap="round" stroke-linejoin="round" stroke-width="2.0"/>
  </g>
  <defs>
    <linearGradient gradientTransform="matrix(0.0, 0.023, -0.1771, -3.0E-4, 196.35, 27.15)" gradientUnits="userSpaceOnUse" id="gradient0" spreadMethod="pad" x1="-819.2" x2="819.2">
      <stop offset="0.0" stop-color="#3ca4bd"/>
      <stop offset="1.0" stop-color="#6ccfe8"/>
    </linearGradient>
    <radialGradient cx="0" cy="0" gradientTransform="matrix(0.4425, 0.0, 0.0, 0.2419, 194.95, 160.3)" gradientUnits="userSpaceOnUse" id="gradient1" r="819.2" spreadMethod="pad">
      <stop offset="0.0" stop-color="#688241"/>
      <stop offset="0.48627450980392156" stop-color="#5f6c37"/>
      <stop offset="1.0" stop-color="#4d582c"/>
    </radialGradient>
    <linearGradient gradientTransform="matrix(4.0E-4, 0.0224, -0.0214, 4.0E-4, 114.4, 59.15)" gradientUnits="userSpaceOnUse" id="gradient2" spreadMethod="pad" x1="-819.2" x2="819.2">
      <stop offset="0.0" stop-color="#7aa5d3"/>
      <stop offset="1.0" stop-color="#335966"/>
    </linearGradient>
  </defs>
</svg>
