<?xml version="1.0" encoding="UTF-8" standalone="no"?>
<svg xmlns:xlink="http://www.w3.org/1999/xlink" height="271.9px" width="422.4px" xmlns="http://www.w3.org/2000/svg">
  <g transform="matrix(1.0, 0.0, 0.0, 1.0, 15.1, -2.7)">
    <path d="M405.1 46.0 L-14.0 46.0 -14.0 4.7 405.1 4.7 405.1 46.0" fill="url(#gradient0)" fill-rule="evenodd" stroke="none"/>
    <path d="M406.9 274.6 L-14.05 274.6 -14.5 24.85 406.45 24.85 406.9 274.6" fill="url(#gradient1)" fill-rule="evenodd" stroke="none"/>
    <path d="M395.45 91.65 L394.55 97.95 M386.5 90.75 L386.5 98.85 M396.35 151.7 Q398.25 155.4 395.25 158.3 L394.55 158.9 M381.1 234.25 Q384.55 238.95 381.1 243.2 L380.2 244.1 M391.85 238.7 L390.95 244.1 M388.25 227.95 Q390.7 235.55 386.65 242.5 L385.6 244.1 M281.65 36.1 Q281.3 34.85 280.55 33.75 M277.9 36.65 L276.65 34.1 276.45 33.8 M267.2 56.3 Q265.0 53.5 265.75 49.7 265.95 48.95 266.45 48.3 L267.5 47.35 M262.0 55.7 Q260.55 51.65 261.75 47.35 L262.0 46.5 M258.25 63.5 Q259.5 61.15 258.6 58.3 256.9 52.7 252.25 49.25 251.1 48.4 249.9 48.2 M275.3 57.45 Q277.2 55.2 275.95 52.75 M191.65 58.3 Q191.05 52.55 195.15 48.55 L195.95 47.9 M194.25 58.3 L195.5 56.35 195.9 55.65 Q196.3 54.9 197.1 54.25 M188.2 59.45 L187.55 55.4 187.35 54.25 Q187.05 51.8 187.9 49.65 M226.5 55.15 Q227.0 55.05 226.95 54.25 L226.95 53.4 Q227.0 52.5 226.6 51.6 226.15 50.7 225.05 50.25 M231.7 54.55 Q231.65 52.4 230.6 50.45 M229.4 54.85 Q230.2 52.7 228.75 50.85 M221.45 89.9 L222.35 97.1 M233.15 89.9 L231.35 98.0 M228.65 84.55 L226.85 94.4 M165.9 160.7 Q169.75 167.65 168.85 175.35 L168.6 176.85 M162.3 168.8 Q166.2 171.1 164.5 175.2 L164.1 175.95 M172.2 170.6 L172.2 175.95 M252.85 158.95 L254.65 165.2 M250.2 161.6 L250.2 166.1 M304.0 193.0 L303.1 197.5 M120.9 60.35 Q121.25 56.0 118.6 52.55 117.3 50.85 116.0 49.95 M131.3 60.35 Q130.8 57.4 132.75 55.4 L133.05 55.15 M125.55 57.45 Q125.55 55.15 125.7 52.8 125.8 51.3 126.7 50.25 M138.1 78.25 L136.3 82.75 M84.3 134.75 L86.95 141.9 M91.45 133.85 L92.35 139.2 M143.5 187.65 L144.4 190.3 M138.1 190.3 L139.0 195.7 M104.0 250.4 Q103.35 256.55 105.9 262.1 L106.7 263.9 M108.5 254.9 L110.3 260.3 M98.65 257.6 L100.45 262.1 M22.75 201.05 L24.55 203.75 M30.8 209.1 L31.7 212.7 M15.55 201.05 Q20.05 203.9 19.35 208.95 L19.15 210.0 M254.65 229.8 L254.65 239.65 M244.8 230.7 L245.7 235.15 M296.8 190.3 L298.6 198.4" fill="none" stroke="#334d1e" stroke-linecap="round" stroke-linejoin="round" stroke-width="1.0"/>
    <path d="M296.9 32.3 L292.55 32.2 Q290.65 31.9 289.15 33.25 288.25 34.05 287.85 35.2 L287.6 34.25 Q287.1 32.75 285.85 31.7 L285.0 31.3 284.4 31.15 283.85 35.2 Q283.2 34.4 282.15 34.35 280.8 34.3 279.75 33.55 278.75 32.8 277.65 32.85 271.85 31.8 266.45 34.35 L265.6 31.55 262.6 29.8 263.6 25.8 261.1 20.3 Q261.35 23.75 260.8 27.35 L260.35 28.25 Q258.35 30.1 257.05 32.2 L257.65 34.05 Q258.25 35.75 259.6 37.1 L254.1 39.35 Q249.15 41.45 243.85 41.65 L233.7 41.65 Q228.05 39.6 222.15 39.35 L218.45 38.55 218.2 37.75 217.3 36.35 216.0 35.0 215.85 34.3 216.9 32.9 215.35 32.9 214.8 32.0 212.6 32.95 211.85 32.75 211.6 31.5 210.4 32.35 208.8 31.75 210.55 29.4 209.85 29.3 210.0 28.8 216.85 27.2 Q222.85 25.7 228.6 23.4 L233.75 21.25 238.85 19.0 243.5 16.8 Q248.4 14.5 253.4 12.45 257.0 10.95 260.75 9.7 L264.8 8.9 276.4 9.3 Q280.65 9.85 284.7 11.0 L293.05 13.55 293.8 12.9 Q295.7 12.75 297.3 13.8 L298.45 14.65 Q293.5 17.75 289.6 21.9 293.85 21.3 297.7 19.6 297.05 21.4 295.8 22.8 295.3 23.4 295.15 24.2 295.05 24.65 295.1 25.1 L295.8 25.8 298.3 26.3 Q297.7 27.25 296.65 27.8 295.65 28.25 294.85 29.05 L294.2 30.0 296.9 32.3 M183.9 33.75 L165.3 35.1 165.75 32.2 165.3 31.45 160.95 30.0 162.95 27.15 Q166.95 29.05 171.35 29.6 L182.95 30.25 181.75 31.75 183.9 33.75 M157.3 36.75 Q154.2 38.2 150.55 37.95 L146.8 38.4 141.9 39.25 Q140.7 37.7 141.05 35.85 L141.15 35.25 141.35 34.6 140.9 34.95 140.85 34.95 Q139.35 36.05 138.45 37.75 137.9 38.7 137.85 39.7 L137.85 40.4 Q136.0 39.8 135.6 37.8 L135.05 34.65 135.0 32.9 Q131.6 35.4 129.8 39.25 L128.95 38.2 128.45 37.2 128.25 35.9 127.5 35.35 126.55 36.15 126.1 36.7 125.8 37.35 125.65 38.1 Q124.3 35.6 125.05 32.85 L125.1 31.95 Q124.65 30.3 123.55 29.05 123.05 28.45 122.3 28.45 L121.2 26.7 Q120.3 26.55 119.95 26.05 119.55 25.55 119.45 24.95 119.2 23.15 119.2 21.35 L120.95 21.55 123.3 20.7 Q127.35 18.75 131.55 19.7 L141.9 22.45 147.15 24.0 152.6 25.7 Q152.75 27.85 154.2 29.4 L151.15 32.3 Q153.4 32.2 154.3 34.4 155.1 36.4 157.3 36.75 M324.7 20.2 Q330.2 22.1 335.7 20.25 L336.95 19.85 337.8 19.65 Q338.35 20.0 338.1 20.55 L337.85 20.9 336.95 21.9 335.1 23.75 335.75 24.8 337.75 24.1 338.65 24.8 336.35 26.55 338.15 27.0 338.75 28.05 339.15 28.35 339.5 28.6 340.0 28.6 340.95 28.35 340.15 29.4 Q339.45 30.25 338.55 30.9 L337.1 31.95 Q336.15 32.7 334.95 33.0 L330.8 33.2 Q329.45 32.85 328.85 31.75 L327.7 31.75 326.7 31.4 324.8 30.0 326.75 28.6 323.05 27.7 325.4 25.4 320.2 23.05 325.4 21.9 325.05 20.6 324.7 20.35 324.7 20.2 M107.75 25.95 L109.25 25.45 Q112.05 24.3 114.25 22.6 L111.85 28.9 Q110.15 33.0 109.4 37.45 L109.2 37.45 106.7 34.05 109.3 33.15 Q109.65 31.9 108.85 30.8 107.75 29.25 106.15 28.25 L108.45 27.1 107.75 25.95 M75.65 22.5 L77.3 24.25 74.95 26.55 Q77.65 26.65 80.0 28.05 L81.9 28.25 80.8 29.7 81.2 30.1 Q81.65 30.55 82.3 30.75 L83.05 30.95 83.65 31.4 Q82.9 33.8 84.7 35.55 L85.45 36.6 Q86.15 37.85 85.4 39.2 83.95 41.7 83.7 44.55 L82.45 43.3 79.0 43.85 79.05 42.6 79.3 41.35 79.3 40.85 79.0 39.8 Q78.0 40.55 76.95 41.25 L74.95 40.95 Q75.65 39.05 74.95 37.1 73.7 33.65 73.55 30.0 73.45 27.2 71.5 25.4 L71.75 32.9 71.9 40.45 Q71.9 43.25 69.5 44.45 68.05 45.2 66.3 45.0 L68.9 42.95 63.45 42.7 64.1 42.3 64.6 41.75 64.95 41.1 65.15 40.4 63.85 40.55 62.55 40.3 62.3 40.1 61.9 39.65 Q61.85 39.45 61.95 39.35 L62.6 38.3 63.2 37.3 63.45 36.75 63.55 36.15 63.45 33.65 59.75 32.05 58.8 29.4 63.9 26.9 63.95 26.1 62.05 24.55 Q67.0 22.85 72.5 22.1 L75.1 22.25 75.65 22.5" fill="#688241" fill-rule="evenodd" stroke="none"/>
    <path d="M365.05 15.8 L363.55 14.35 Q363.55 12.6 364.95 11.65 L368.0 9.25 Q369.9 7.6 370.05 4.95 L368.5 2.7 380.95 2.7 Q383.1 4.9 383.35 7.9 L383.7 10.4 385.45 10.85 385.75 12.15 385.7 12.3 385.8 12.3 387.15 12.1 387.15 14.4 391.25 7.6 390.95 6.85 Q389.25 6.7 388.4 5.45 387.35 4.05 388.55 2.7 L407.3 2.7 407.3 55.2 403.75 52.6 Q402.0 51.1 402.9 48.1 403.8 45.1 402.15 45.0 L400.35 50.3 Q399.8 52.05 398.1 53.1 L397.0 47.3 396.9 47.25 396.85 47.2 396.85 47.25 Q395.4 50.9 395.2 54.8 L389.9 51.85 Q390.25 52.7 389.05 53.4 L388.05 54.05 Q387.15 54.7 386.15 54.4 384.65 53.8 384.0 52.25 383.2 50.4 381.35 50.9 L377.3 54.8 Q378.95 50.8 377.95 46.5 377.3 43.85 375.0 42.1 378.35 49.2 375.35 52.7 L370.4 57.75 Q368.5 59.3 366.1 59.4 L365.15 58.8 363.9 59.05 Q362.65 59.3 361.7 60.05 L357.9 62.5 355.95 61.75 357.05 59.75 Q357.75 58.8 358.75 58.15 360.55 57.15 361.25 55.2 361.75 53.85 361.7 52.6 L361.3 51.5 Q360.3 50.0 359.8 48.4 358.65 44.4 358.85 40.4 L357.95 50.75 Q357.85 51.95 356.95 53.0 L355.9 53.9 354.0 54.75 351.55 54.6 Q350.0 53.65 350.25 51.6 348.75 54.9 345.2 55.55 344.6 55.45 344.15 55.15 343.2 54.5 343.05 53.4 342.9 52.45 342.1 51.9 342.3 53.55 341.25 54.7 L339.95 55.65 337.55 55.55 336.35 51.9 335.1 53.1 Q333.45 54.75 332.6 56.9 333.15 55.3 333.05 53.55 332.9 51.45 332.05 49.6 329.85 44.7 324.8 42.7 326.45 45.2 327.5 48.2 328.8 51.95 327.3 55.25 326.15 57.85 324.35 59.5 L322.6 59.45 322.85 58.05 322.8 57.35 322.5 56.6 318.5 57.7 319.05 54.25 Q317.85 54.3 316.9 55.25 L315.75 56.45 Q314.55 57.75 312.85 58.3 L313.35 57.2 311.55 57.7 313.2 53.15 Q313.6 51.9 309.25 49.45 312.6 56.8 307.85 58.6 L306.5 59.75 306.35 58.25 305.15 58.5 302.8 58.2 299.95 58.15 297.05 58.0 Q294.3 57.15 292.05 58.6 L290.65 58.75 Q288.6 58.1 288.6 55.7 288.1 55.75 287.65 55.95 286.7 56.3 285.85 56.9 285.4 57.2 285.05 57.65 L285.8 54.15 284.7 53.2 284.5 50.55 288.05 50.65 288.45 50.2 286.25 46.7 Q284.9 44.2 286.15 41.55 L295.55 50.4 Q296.95 51.8 298.85 51.2 L299.45 49.45 302.9 49.6 304.0 45.7 303.45 44.95 Q302.6 43.9 301.35 43.2 299.6 42.25 297.7 42.1 L299.55 40.55 301.15 38.65 298.55 38.2 298.25 36.9 296.0 37.9 Q292.7 39.45 289.1 39.85 L296.75 33.15 296.9 32.3 294.2 30.0 294.85 29.05 Q295.65 28.25 296.65 27.8 297.7 27.25 298.3 26.3 L295.8 25.8 295.1 25.1 Q295.05 24.65 295.15 24.2 295.3 23.4 295.8 22.8 297.05 21.4 297.7 19.6 293.85 21.3 289.6 21.9 293.5 17.75 298.45 14.65 L297.3 13.8 Q295.7 12.75 293.8 12.9 L293.25 12.55 293.0 12.0 297.1 10.4 Q296.1 10.0 295.95 8.8 295.55 5.5 297.15 2.7 L321.5 2.7 Q322.45 5.45 320.4 7.15 L319.6 8.05 327.1 8.65 323.65 11.55 326.1 13.15 332.9 16.75 328.5 17.25 324.2 16.45 319.6 16.75 324.45 20.2 324.7 20.35 325.05 20.6 325.4 21.9 320.2 23.05 325.4 25.4 323.05 27.7 326.75 28.6 324.8 30.0 326.7 31.4 327.7 31.75 328.85 31.75 Q329.45 32.85 330.8 33.2 L334.95 33.0 Q336.15 32.7 337.1 31.95 L338.55 30.9 Q339.45 30.25 340.15 29.4 L340.95 28.35 340.0 28.6 339.5 28.6 339.15 28.35 338.75 28.05 338.15 27.0 336.35 26.55 338.65 24.8 337.75 24.1 335.75 24.8 335.1 23.75 336.95 21.9 337.85 20.9 338.1 20.55 Q338.35 20.0 337.8 19.65 L336.9 19.6 337.3 18.4 338.65 17.9 336.65 12.05 337.65 11.55 347.9 6.9 346.2 6.5 Q343.35 5.6 343.1 2.7 L356.55 2.7 359.45 10.95 355.95 13.25 361.0 15.25 361.0 15.8 360.5 16.35 359.6 17.4 359.6 17.85 360.85 19.2 Q361.05 20.45 360.1 21.35 L358.3 23.05 Q360.1 24.05 360.75 26.05 360.3 26.9 359.5 27.25 L358.3 27.7 361.5 27.3 362.45 27.9 362.8 29.1 Q363.6 26.0 365.3 23.4 L365.6 22.15 Q365.6 20.9 364.3 20.3 L366.95 17.9 365.05 15.8 M266.45 34.35 L259.6 37.1 Q258.25 35.75 257.65 34.05 L257.05 32.2 Q258.35 30.1 260.35 28.25 L260.8 27.35 Q261.35 23.75 261.1 20.3 L263.6 25.8 262.6 29.8 265.6 31.55 266.45 34.35 M218.45 38.55 L210.65 35.9 204.2 34.3 192.7 33.05 Q188.3 32.55 183.9 33.75 L181.75 31.75 182.95 30.25 Q185.1 28.1 185.65 25.0 L185.7 24.35 Q184.9 23.45 184.95 22.2 185.0 20.6 185.2 19.05 188.05 21.85 190.05 25.3 L191.0 27.8 191.2 29.15 190.45 30.55 191.95 31.15 195.5 26.2 Q195.05 25.2 195.3 24.2 195.6 23.1 196.2 22.1 L197.15 20.6 Q198.55 18.25 197.9 15.55 198.95 15.95 199.1 17.0 200.0 22.8 198.5 28.7 L198.85 29.65 201.45 29.75 Q202.8 29.3 203.1 27.7 L203.65 29.35 Q204.7 28.95 204.7 27.7 204.8 21.25 207.65 15.55 210.5 20.2 209.4 25.45 L209.0 27.9 Q208.85 28.85 209.85 29.3 L210.55 29.4 208.8 31.75 210.4 32.35 211.6 31.5 211.85 32.75 212.6 32.95 214.8 32.0 215.35 32.9 216.9 32.9 215.85 34.3 216.0 35.0 217.3 36.35 218.2 37.75 218.45 38.55 M165.3 35.1 L157.3 36.75 Q155.1 36.4 154.3 34.4 153.4 32.2 151.15 32.3 L154.2 29.4 Q152.75 27.85 152.6 25.7 154.15 24.0 155.0 22.0 155.9 20.0 156.1 17.9 156.3 15.55 156.85 13.25 L157.5 11.0 Q159.1 15.85 161.3 20.2 L162.0 22.25 162.95 27.15 160.95 30.0 165.3 31.45 165.75 32.2 165.3 35.1 M125.65 38.1 L126.35 41.9 122.9 39.2 117.7 38.6 114.9 38.2 Q113.85 38.4 112.85 38.75 L111.85 39.25 111.5 40.05 Q109.65 41.05 107.4 41.0 100.6 41.35 93.7 41.1 96.5 41.75 97.4 44.5 L97.6 45.25 102.35 45.45 104.6 47.85 Q102.8 49.1 100.65 49.0 L97.9 48.4 95.75 48.4 Q94.8 49.4 95.15 50.75 93.7 49.35 91.85 48.6 90.95 48.2 90.55 47.3 L89.1 50.7 Q88.05 50.8 87.25 50.05 L86.95 49.7 87.1 50.1 87.1 50.2 Q84.95 51.05 82.7 50.7 L80.0 50.65 78.6 51.05 78.25 52.2 79.25 52.55 73.05 53.2 69.7 53.4 Q66.1 52.65 62.8 54.15 L61.1 54.55 Q56.25 53.6 55.35 45.75 54.6 48.35 53.05 51.9 L49.0 47.9 47.25 51.35 44.95 46.75 46.1 53.1 Q41.85 52.3 38.25 50.0 L37.0 48.7 Q36.05 47.4 34.85 46.8 37.7 51.7 31.7 51.2 L31.3 52.0 29.15 52.7 28.8 54.25 25.85 51.3 25.15 51.2 Q24.45 51.3 23.85 51.75 22.55 52.75 22.45 54.25 L21.25 50.95 19.2 51.35 17.85 55.4 17.1 54.15 17.8 51.95 Q16.75 46.95 13.25 43.15 L12.2 42.05 Q15.95 50.55 10.05 55.0 L3.4 50.75 2.85 54.8 Q2.3 54.25 -0.8 53.05 -3.3 52.0 -3.75 50.6 -4.35 52.1 -3.9 53.55 -3.65 54.4 -3.0 55.1 L-3.2 56.1 Q-4.0 56.1 -6.75 53.6 -9.5 51.1 -8.15 44.4 -9.95 47.65 -9.95 51.3 L-9.65 53.65 -11.55 52.95 Q-10.6 50.15 -13.35 49.75 L-14.65 49.95 -15.1 50.3 -15.1 2.7 -6.4 2.7 -5.95 3.45 -6.5 4.85 -9.85 6.35 -8.55 7.35 -6.9 8.2 -5.85 8.05 -6.25 9.6 -7.55 12.75 -9.3 12.7 -9.0 13.4 Q-4.4 14.5 -1.2 17.9 -3.3 17.6 -5.25 18.4 L-6.5 18.9 -0.55 23.55 6.1 21.45 5.3 21.65 7.45 18.45 5.45 18.35 Q3.75 17.8 2.8 16.7 L2.35 16.1 Q3.0 15.65 3.7 15.35 4.3 15.05 5.0 14.9 L5.7 14.9 7.45 15.0 5.75 14.65 -0.65 12.7 -0.45 11.2 0.75 10.25 2.7 9.05 5.25 7.3 6.45 6.3 Q8.4 5.0 8.3 2.7 L27.45 2.7 24.75 5.75 Q25.55 6.9 26.85 7.45 28.65 8.15 29.55 10.15 L27.6 12.75 27.05 13.25 Q27.4 15.2 29.25 15.55 L28.25 19.6 Q27.95 20.4 28.5 21.35 L28.4 22.1 Q31.45 21.35 32.5 18.4 L31.8 17.5 Q31.75 16.15 32.95 15.1 L33.6 14.3 Q34.25 12.95 33.95 11.5 L31.25 7.9 31.6 7.15 32.15 6.55 34.3 5.0 34.85 4.5 34.45 2.7 51.2 2.7 53.2 10.2 54.0 11.35 53.35 12.95 55.5 15.0 62.85 14.4 Q61.2 15.65 61.6 17.85 L61.85 18.35 Q62.45 19.05 63.45 19.05 62.4 19.55 61.4 20.15 L60.6 20.95 59.95 21.9 62.25 22.5 61.1 24.25 62.05 24.55 63.95 26.1 63.9 26.9 58.8 29.4 59.75 32.05 63.45 33.65 63.55 36.15 63.45 36.75 63.2 37.3 62.6 38.3 61.95 39.35 Q61.85 39.45 61.9 39.65 L62.3 40.1 62.55 40.3 63.85 40.55 65.15 40.4 64.95 41.1 64.6 41.75 64.1 42.3 63.45 42.7 68.9 42.95 66.3 45.0 Q68.05 45.2 69.5 44.45 71.9 43.25 71.9 40.45 L71.75 32.9 71.5 25.4 Q73.45 27.2 73.55 30.0 73.7 33.65 74.95 37.1 75.65 39.05 74.95 40.95 L76.95 41.25 Q78.0 40.55 79.0 39.8 L79.3 40.85 79.3 41.35 79.05 42.6 79.0 43.85 82.45 43.3 83.7 44.55 Q83.95 41.7 85.4 39.2 86.15 37.85 85.45 36.6 L84.7 35.55 Q82.9 33.8 83.65 31.4 L83.05 30.95 82.3 30.75 Q81.65 30.55 81.2 30.1 L80.8 29.7 81.9 28.25 80.0 28.05 Q77.65 26.65 74.95 26.55 L77.3 24.25 75.65 22.5 75.25 22.1 71.5 19.6 Q75.15 16.85 79.6 17.5 81.65 17.65 83.05 16.15 80.75 15.6 79.1 13.95 L77.1 11.75 76.1 10.4 Q77.9 9.15 80.1 8.5 L82.15 7.85 Q83.05 7.4 83.65 6.35 L81.0 2.7 102.0 2.7 106.25 11.35 106.75 13.6 107.5 20.3 105.6 22.3 105.1 22.65 104.45 23.05 103.65 23.65 107.75 25.95 108.45 27.1 106.15 28.25 Q107.75 29.25 108.85 30.8 109.65 31.9 109.3 33.15 L106.7 34.05 109.2 37.45 109.35 37.75 109.4 37.45 Q110.15 33.0 111.85 28.9 L114.25 22.6 116.3 14.25 118.25 8.05 119.5 9.1 118.25 14.8 Q118.25 16.1 119.45 16.9 L119.8 17.5 Q120.5 19.6 119.2 21.35 119.2 23.15 119.45 24.95 119.55 25.55 119.95 26.05 120.3 26.55 121.2 26.7 L122.3 28.45 Q123.05 28.45 123.55 29.05 124.65 30.3 125.1 31.95 L125.05 32.85 Q124.3 35.6 125.65 38.1 M168.9 15.15 L169.6 11.55 173.1 16.15 175.4 10.95 175.95 11.5 176.3 12.05 176.45 12.6 176.7 14.9 Q176.8 16.05 177.8 16.6 L169.8 19.5 Q168.8 17.95 168.85 16.1 L168.9 15.15 M243.5 16.8 L238.85 19.0 235.1 18.4 226.85 17.3 226.35 14.55 Q225.95 13.0 227.0 11.6 L227.45 11.6 Q229.85 13.25 229.6 16.15 L231.65 12.85 232.6 15.2 234.75 14.35 236.5 9.8 236.5 16.15 239.75 15.55 240.55 16.0 241.3 16.7 243.5 16.8" fill="#293908" fill-rule="evenodd" stroke="none"/>
    <path d="M177.8 16.6 Q181.1 15.65 184.25 14.2 187.5 12.7 191.25 13.0 L194.5 12.7 200.25 12.25 211.5 14.2 217.0 15.2 218.0 15.35 218.1 15.4 226.85 17.3 235.1 18.4 238.85 19.0 233.75 21.25 228.6 23.4 Q222.85 25.7 216.85 27.2 L210.0 28.8 209.85 29.3 Q208.85 28.85 209.0 27.9 L209.4 25.45 Q210.5 20.2 207.65 15.55 204.8 21.25 204.7 27.7 204.7 28.95 203.65 29.35 L203.1 27.7 Q202.8 29.3 201.45 29.75 L198.85 29.65 198.5 28.7 Q200.0 22.8 199.1 17.0 198.95 15.95 197.9 15.55 198.55 18.25 197.15 20.6 L196.2 22.1 Q195.6 23.1 195.3 24.2 195.05 25.2 195.5 26.2 L191.95 31.15 190.45 30.55 191.2 29.15 191.0 27.8 190.05 25.3 Q188.05 21.85 185.2 19.05 185.0 20.6 184.95 22.2 184.9 23.45 185.7 24.35 L185.65 25.0 Q185.1 28.1 182.95 30.25 L171.35 29.6 Q166.95 29.05 162.95 27.15 L162.0 22.25 169.8 19.5 177.8 16.6" fill="#68998c" fill-rule="evenodd" stroke="none"/>
    <path d="M-6.25 9.6 L-0.45 11.2 -0.65 12.7 5.75 14.65 5.7 14.9 5.0 14.9 Q4.3 15.05 3.7 15.35 3.0 15.65 2.35 16.1 L2.8 16.7 Q3.75 17.8 5.45 18.35 L7.45 18.45 5.3 21.65 6.1 21.45 -0.55 23.55 -6.5 18.9 -5.25 18.4 Q-3.3 17.6 -1.2 17.9 -4.4 14.5 -9.0 13.4 L-9.3 12.7 -7.55 12.75 -6.25 9.6 M27.6 12.75 L33.95 11.5 Q34.25 12.95 33.6 14.3 L32.95 15.1 Q31.75 16.15 31.8 17.5 L32.5 18.4 Q31.45 21.35 28.4 22.1 L28.5 21.35 Q27.95 20.4 28.25 19.6 L29.25 15.55 Q27.4 15.2 27.05 13.25 L27.6 12.75 M53.2 10.2 L64.6 12.75 65.8 13.2 Q71.7 14.2 77.1 11.75 L79.1 13.95 Q80.75 15.6 83.05 16.15 81.65 17.65 79.6 17.5 75.15 16.85 71.5 19.6 L75.25 22.1 75.1 22.25 72.5 22.1 Q67.0 22.85 62.05 24.55 L61.1 24.25 62.25 22.5 59.95 21.9 60.6 20.95 61.4 20.15 Q62.4 19.55 63.45 19.05 62.45 19.05 61.85 18.35 L61.6 17.85 Q61.2 15.65 62.85 14.4 L55.5 15.0 53.35 12.95 54.0 11.35 53.2 10.2 M106.25 11.35 L108.8 11.65 Q112.6 12.35 116.3 14.25 L114.25 22.6 Q112.05 24.3 109.25 25.45 L107.75 25.95 103.65 23.65 104.45 23.05 105.1 22.65 105.6 22.3 107.5 20.3 106.75 13.6 106.25 11.35 M118.25 14.8 Q122.45 16.15 126.75 15.75 L137.35 13.4 Q140.6 12.55 143.7 11.35 149.35 9.3 155.5 9.3 157.65 9.3 159.55 10.25 164.3 12.6 168.9 15.15 L168.85 16.1 Q168.8 17.95 169.8 19.5 L162.0 22.25 161.3 20.2 Q159.1 15.85 157.5 11.0 L156.85 13.25 Q156.3 15.55 156.1 17.9 155.9 20.0 155.0 22.0 154.15 24.0 152.6 25.7 L147.15 24.0 141.9 22.45 131.55 19.7 Q127.35 18.75 123.3 20.7 L120.95 21.55 119.2 21.35 Q120.5 19.6 119.8 17.5 L119.45 16.9 Q118.25 16.1 118.25 14.8 M218.1 15.4 L218.0 15.25 Q221.65 13.95 225.0 12.05 229.1 9.6 233.45 7.7 235.35 6.9 237.35 6.85 238.75 6.85 240.15 7.5 242.8 8.5 245.0 10.1 246.9 11.5 249.1 10.1 L250.4 9.15 252.75 7.55 Q254.85 8.55 256.85 8.95 L258.8 9.4 260.75 9.7 Q257.0 10.95 253.4 12.45 248.4 14.5 243.5 16.8 L241.3 16.7 240.55 16.0 239.75 15.55 236.5 16.15 236.5 9.8 234.75 14.35 232.6 15.2 231.65 12.85 229.6 16.15 Q229.85 13.25 227.45 11.6 L227.0 11.6 Q225.95 13.0 226.35 14.55 L226.85 17.3 218.1 15.4 M326.1 13.15 L332.5 10.35 335.65 10.45 337.65 11.55 336.65 12.05 338.65 17.9 337.3 18.4 336.9 19.6 336.95 19.85 335.7 20.25 Q330.2 22.1 324.7 20.2 L324.45 20.2 319.6 16.75 324.2 16.45 328.5 17.25 332.9 16.75 326.1 13.15 M360.5 16.35 L361.55 16.55 365.05 15.8 366.95 17.9 364.3 20.3 Q365.6 20.9 365.6 22.15 L365.3 23.4 Q363.6 26.0 362.8 29.1 L362.45 27.9 361.5 27.3 358.3 27.7 359.5 27.25 Q360.3 26.9 360.75 26.05 360.1 24.05 358.3 23.05 L360.1 21.35 Q361.05 20.45 360.85 19.2 L359.6 17.85 359.6 17.4 360.5 16.35" fill="#8bafa8" fill-rule="evenodd" stroke="none"/>
    <path d="M359.5 78.95 L359.4 79.15 359.35 79.1 359.5 78.95 M379.2 67.1 L378.95 67.25 378.95 66.95 378.95 66.75 379.2 67.1" fill="#555b3f" fill-rule="evenodd" stroke="none"/>
    <path d="M331.0 71.3 L331.85 73.05 331.9 73.3 330.45 74.45 327.85 74.75 327.65 74.65 Q329.0 72.6 331.0 71.3 M378.95 67.25 L375.15 69.85 Q375.85 72.45 378.05 73.05 378.6 74.35 380.35 74.45 L380.35 74.75 381.5 74.75 384.0 77.15 384.1 77.35 369.7 78.2 369.7 78.8 Q370.8 80.05 372.35 80.7 L372.6 80.8 370.25 81.1 370.0 81.1 367.4 79.65 359.5 78.95 Q364.0 73.85 369.05 69.1 372.0 66.3 375.9 66.0 L378.5 66.05 378.95 66.75 378.95 66.95 378.95 67.25 M395.35 82.9 L395.95 83.4 395.95 85.15 Q394.1 87.5 390.75 86.9 L389.95 86.95 395.35 82.9 M7.0 77.45 Q9.55 78.45 10.95 81.4 L10.35 83.15 8.05 84.3 7.75 84.3 Q0.7 84.0 -4.9 85.65 -5.05 84.55 -4.85 83.4 -1.3 80.9 2.9 79.6 4.6 79.05 6.1 78.05 L7.0 77.45 M33.2 83.6 L36.45 81.05 Q36.9 81.85 36.65 82.85 L36.65 83.15 33.2 83.6" fill="#858d61" fill-rule="evenodd" stroke="none"/>
    <path d="M327.65 74.65 L327.85 74.75 330.45 74.45 331.9 73.3 331.85 73.05 331.0 71.3 331.9 70.75 Q334.0 71.9 334.9 74.0 L335.2 75.0 Q333.05 76.25 330.6 76.35 328.7 76.7 327.2 75.4 L327.65 74.65 M359.4 79.15 L359.5 78.95 367.4 79.65 370.0 81.1 370.25 81.1 372.6 80.8 372.35 80.7 Q370.8 80.05 369.7 78.8 L369.7 78.2 384.1 77.35 384.0 77.15 381.5 74.75 380.35 74.75 380.35 74.45 Q378.6 74.35 378.05 73.05 375.85 72.45 375.15 69.85 L378.95 67.25 379.2 67.1 379.75 68.0 Q381.7 67.9 382.9 69.3 L384.0 71.2 384.6 73.05 384.75 73.35 386.25 74.35 391.7 76.85 Q391.95 78.35 391.25 79.5 L390.2 80.55 388.45 81.7 Q386.75 82.8 384.9 83.05 L382.45 83.35 Q377.65 83.2 373.2 84.2 L369.35 84.75 Q368.1 84.3 367.25 83.55 366.35 82.85 365.2 82.8 L362.95 81.25 360.55 80.85 360.05 79.55 359.4 79.15 M389.95 86.95 L390.75 86.9 Q394.1 87.5 395.95 85.15 L395.95 83.4 395.35 82.9 395.8 82.5 Q397.65 83.3 398.05 84.65 398.4 85.95 398.7 86.25 398.75 86.9 397.85 87.75 396.45 89.05 394.7 89.35 391.3 90.05 388.75 87.85 L389.95 86.95 M7.0 77.45 L8.2 76.7 Q10.3 75.3 12.0 77.15 L14.05 79.2 17.6 82.8 Q18.6 83.9 18.65 85.45 15.9 88.85 11.55 87.75 9.7 87.4 8.7 88.65 3.85 86.45 -1.0 88.8 -2.5 89.55 -3.85 89.9 L-5.1 88.85 -4.55 88.2 -4.1 88.25 -4.55 87.1 -4.9 85.65 Q0.7 84.0 7.75 84.3 L8.05 84.3 10.35 83.15 10.95 81.4 Q9.55 78.45 7.0 77.45 M36.45 81.05 L37.05 80.55 38.1 81.75 Q39.75 83.6 42.05 84.25 L40.75 85.45 Q39.95 85.95 39.05 85.95 35.25 86.0 31.7 84.75 L33.2 83.6 36.65 83.15 36.65 82.85 Q36.9 81.85 36.45 81.05" fill="#474b34" fill-rule="evenodd" stroke="none"/>
    <path d="M171.5 20.1 Q165.35 21.3 160.15 24.35 L157.25 26.15 Q157.25 24.3 156.3 23.0 155.3 21.65 153.95 21.65 155.3 21.65 156.3 23.0 157.25 24.3 157.25 26.15 L160.15 24.35 Q165.35 21.3 171.5 20.1 M153.95 21.65 Q163.45 18.1 173.5 16.25 185.1 14.3 197.0 14.4 206.8 14.45 216.45 16.15 228.95 18.1 240.5 23.25 251.25 28.05 260.25 35.4 269.8 43.1 274.15 54.35 L272.6 53.45 Q269.75 54.3 270.5 57.35 L270.75 57.95 272.25 58.65 Q274.6 57.85 274.55 55.5 L275.75 63.1 276.35 67.05 276.25 68.8 276.2 69.6 276.1 71.85 274.35 79.3 273.0 78.9 270.8 83.05 267.3 87.15 264.7 88.95 265.2 84.8 Q266.3 81.2 263.15 78.75 261.65 77.6 261.35 79.5 L260.05 78.95 259.85 78.85 258.15 78.35 Q255.75 78.75 255.85 81.4 L256.05 82.75 Q251.85 86.5 249.5 91.55 249.5 93.25 248.65 94.45 247.75 95.6 246.5 95.6 L237.45 100.2 236.7 100.8 235.0 100.55 230.55 101.8 227.55 99.6 226.45 99.05 224.25 98.65 Q221.35 99.25 220.5 102.35 L220.2 103.4 Q214.45 101.65 210.1 105.4 L203.7 105.9 Q201.6 101.7 196.8 101.15 L194.6 100.95 194.0 100.7 193.25 100.4 190.15 99.2 189.7 98.2 178.9 93.15 Q176.75 93.5 175.8 95.55 175.05 97.05 174.45 98.6 171.5 97.35 168.9 99.1 166.55 100.7 163.75 101.3 161.95 99.3 159.15 98.95 L156.25 98.95 153.2 99.85 151.15 100.95 147.65 101.05 Q144.7 99.3 141.25 98.9 L139.5 99.35 Q137.25 95.75 133.25 95.1 L132.9 89.95 Q137.55 88.2 140.9 84.5 L141.25 84.05 Q139.85 83.55 136.75 85.2 134.1 86.7 132.65 89.15 L131.8 87.45 131.7 86.6 132.65 86.0 131.85 81.2 Q130.9 78.8 128.15 78.8 L127.25 78.8 124.05 76.1 Q123.25 72.0 121.55 68.05 L120.75 67.1 119.4 66.3 114.4 68.05 114.5 64.45 114.95 61.3 Q116.85 49.8 124.75 41.05 129.05 45.8 135.55 45.65 L136.65 45.6 125.7 40.05 131.6 34.55 134.75 32.2 Q143.8 25.8 153.95 21.65 M170.55 22.5 L170.35 21.75 Q170.1 21.45 169.8 21.45 169.5 21.45 169.3 21.75 169.05 22.05 169.05 22.5 L169.3 23.25 Q169.5 23.55 169.8 23.55 170.1 23.55 170.35 23.25 L170.55 22.5 M183.25 24.8 L183.25 20.0 181.8 19.5 180.9 16.05 181.8 19.5 183.25 20.0 183.25 24.8 M196.35 24.45 Q196.5 23.95 196.75 23.9 L200.4 23.8 199.65 21.15 192.2 21.3 193.0 19.1 197.7 18.55 197.3 17.1 195.7 17.4 195.85 16.15 197.0 15.4 197.0 14.4 197.0 15.4 195.85 16.15 195.7 17.4 197.3 17.1 197.7 18.55 193.0 19.1 192.2 21.3 199.65 21.15 200.4 23.8 196.75 23.9 Q196.5 23.95 196.35 24.45 M249.5 60.9 L250.95 60.6 251.25 56.05 254.15 55.7 Q252.05 61.8 253.65 67.8 L256.3 67.45 256.15 56.05 Q258.75 55.9 259.75 58.35 L258.85 66.8 259.7 66.3 Q260.4 65.85 260.55 65.15 L262.05 56.75 265.55 56.7 Q263.7 60.65 265.55 64.45 266.1 59.55 269.1 59.1 L269.85 60.4 269.7 64.25 271.35 64.0 272.55 62.3 275.75 63.1 272.55 62.3 271.35 64.0 269.7 64.25 269.85 60.4 269.1 59.1 Q266.1 59.55 265.55 64.45 263.7 60.65 265.55 56.7 L262.05 56.75 260.55 65.15 Q260.4 65.85 259.7 66.3 L258.85 66.8 259.75 58.35 Q258.75 55.9 256.15 56.05 L256.3 67.45 253.65 67.8 Q252.05 61.8 254.15 55.7 L251.25 56.05 250.95 60.6 249.5 60.9 Q248.7 72.95 238.9 80.55 228.6 88.65 216.05 91.85 204.5 94.8 192.45 94.5 179.5 94.2 167.5 89.65 155.7 85.25 147.45 75.95 138.45 65.75 142.15 52.5 138.45 65.75 147.45 75.95 155.7 85.25 167.5 89.65 179.5 94.2 192.45 94.5 204.5 94.8 216.05 91.85 228.6 88.65 238.9 80.55 248.7 72.95 249.5 60.9 249.5 47.85 239.1 39.45 228.8 31.3 216.05 28.0 204.1 25.0 191.85 25.55 180.7 25.85 170.05 29.3 180.7 25.85 191.85 25.55 204.1 25.0 216.05 28.0 228.8 31.3 239.1 39.45 249.5 47.85 249.5 60.9 M142.45 51.75 L140.1 51.85 142.15 52.5 Q143.2 52.5 142.9 51.95 L142.45 51.75 Q144.3 47.05 147.85 43.3 156.75 33.85 169.0 29.65 156.75 33.85 147.85 43.3 144.3 47.05 142.45 51.75 M170.05 29.3 L172.25 27.45 171.35 26.45 170.3 26.4 169.3 25.15 167.7 25.6 167.2 29.5 166.75 29.8 169.0 29.65 170.05 29.3 M262.2 69.95 L260.75 72.75 261.4 73.75 263.05 74.1 263.95 73.4 Q267.2 73.45 268.05 69.65 268.95 65.55 264.55 64.25 260.85 64.85 261.4 68.05 261.6 69.05 262.2 69.95 M248.1 49.0 L265.9 42.25 248.1 49.0 M233.25 94.55 L246.4 84.95 248.15 85.55 251.85 81.5 255.15 82.9 251.85 81.5 248.15 85.55 246.4 84.95 233.25 94.55 M235.65 29.85 L233.85 32.15 235.65 29.85 M223.55 29.5 L225.9 26.5 222.15 25.1 223.9 20.75 Q229.4 27.75 238.0 30.1 L239.7 27.15 234.45 24.5 236.0 23.1 234.45 24.5 239.7 27.15 238.0 30.1 Q229.4 27.75 223.9 20.75 L222.15 25.1 225.9 26.5 223.55 29.5 M196.15 92.65 Q208.45 92.7 220.15 88.85 232.55 84.7 241.4 75.15 247.45 68.6 247.4 59.85 247.35 50.45 240.9 43.75 L240.65 43.5 Q231.75 34.7 219.85 30.85 207.85 27.0 195.05 26.95 182.4 26.95 170.45 30.85 159.5 34.35 151.3 42.2 L148.85 44.65 Q141.55 52.55 143.15 63.2 143.9 68.3 146.55 72.55 153.95 82.25 165.4 87.0 L168.0 88.05 Q179.3 92.3 191.4 92.55 L195.2 92.65 196.15 92.65 M167.8 88.6 L168.0 88.05 167.8 88.6 M194.0 95.0 L194.2 96.65 197.25 97.25 196.3 98.5 192.65 99.05 193.25 100.4 192.65 99.05 196.3 98.5 197.25 97.25 194.2 96.65 194.0 95.0 M218.85 91.65 L220.7 96.1 221.2 95.95 Q223.9 95.95 224.25 98.65 223.9 95.95 221.2 95.95 L220.7 96.1 218.85 91.65 M241.05 80.55 L246.4 84.95 241.05 80.55 M247.4 89.3 L237.35 96.35 247.4 89.3 M147.95 25.8 L151.6 28.95 147.95 25.8 M156.7 34.2 L152.85 31.7 151.6 32.5 149.95 32.85 Q144.75 32.75 142.95 27.5 144.75 32.75 149.95 32.85 L151.6 32.5 152.85 31.7 156.7 34.2 M155.35 29.5 L157.25 26.15 155.35 29.5 M130.0 47.3 L139.3 49.9 Q135.5 47.65 131.1 47.35 L130.0 47.3 M146.95 42.95 L141.7 41.45 Q138.35 35.55 131.6 34.55 138.35 35.55 141.7 41.45 L146.95 42.95 M140.6 58.05 L139.3 55.3 136.5 55.85 137.4 68.6 133.1 67.9 133.2 55.35 129.9 56.85 130.7 66.9 127.1 66.75 126.9 58.65 125.7 58.55 Q124.35 59.1 123.9 60.45 L123.5 65.1 121.4 64.75 121.1 62.4 121.4 64.75 123.5 65.1 123.9 60.45 Q124.35 59.1 125.7 58.55 L126.9 58.65 127.1 66.75 130.7 66.9 129.9 56.85 133.2 55.35 133.1 67.9 137.4 68.6 136.5 55.85 139.3 55.3 140.6 58.05 M119.45 62.8 Q122.15 61.4 120.75 58.2 118.65 60.0 119.25 62.5 L119.45 62.8 M118.05 61.05 Q118.05 62.45 117.0 63.45 115.95 64.45 114.5 64.45 115.95 64.45 117.0 63.45 118.05 62.45 118.05 61.05 M152.0 98.35 L156.7 90.95 Q151.4 89.05 148.65 84.2 L151.0 81.9 148.65 84.2 Q151.4 89.05 156.7 90.95 L152.0 98.35 M152.65 85.95 L154.0 84.25 152.65 85.95 M143.75 85.7 Q143.55 86.7 144.9 85.85 145.75 85.35 145.8 84.5 L143.75 85.7 M145.65 89.95 Q144.9 90.8 144.9 92.0 144.9 93.2 145.65 94.1 146.35 94.95 147.35 94.95 148.35 94.95 149.1 94.1 149.8 93.2 149.8 92.0 149.8 90.8 149.1 89.95 148.35 89.05 147.35 89.05 146.35 89.05 145.65 89.95 M143.95 73.15 L131.85 81.2 143.95 73.15 M136.55 79.55 L142.25 76.2 136.55 79.55" fill="url(#gradient2)" fill-rule="evenodd" stroke="none"/>
    <path d="M124.75 41.05 Q124.75 40.65 125.05 40.35 125.3 40.05 125.7 40.05 L136.65 45.6 135.55 45.65 Q129.05 45.8 124.75 41.05 M170.55 22.5 L170.35 23.25 Q170.1 23.55 169.8 23.55 169.5 23.55 169.3 23.25 L169.05 22.5 Q169.05 22.05 169.3 21.75 169.5 21.45 169.8 21.45 170.1 21.45 170.35 21.75 L170.55 22.5 M142.15 52.5 L140.1 51.85 142.45 51.75 142.9 51.95 Q143.2 52.5 142.15 52.5 M169.0 29.65 L166.75 29.8 167.2 29.5 167.7 25.6 169.3 25.15 170.3 26.4 171.35 26.45 172.25 27.45 170.05 29.3 169.0 29.65 M204.0 29.0 L203.2 30.05 203.25 28.05 204.0 29.0 M199.2 28.6 L200.55 27.4 200.7 28.75 Q201.05 32.9 197.5 35.1 L194.6 36.15 196.2 34.9 199.2 28.6 M196.95 28.65 L197.05 28.85 Q197.0 30.5 196.0 29.15 L195.75 27.3 196.35 28.3 196.95 28.65 M163.05 48.75 L166.55 51.15 168.15 44.7 Q170.25 48.95 169.3 53.55 L177.2 55.3 Q176.5 56.5 175.0 56.5 171.6 56.55 168.8 54.95 L169.0 55.7 Q169.35 57.2 168.4 58.25 L167.8 58.5 166.95 55.6 165.95 54.9 161.1 58.45 157.8 59.35 161.0 55.95 152.85 58.45 161.3 54.85 164.75 53.1 162.2 51.6 160.05 49.4 160.75 48.15 163.05 48.75 M170.85 64.05 L169.8 67.55 168.95 65.05 169.0 64.8 168.0 65.1 155.8 70.35 166.25 64.7 169.2 63.9 Q169.4 63.05 169.85 62.35 171.5 59.65 173.75 60.75 L173.25 61.4 171.35 62.95 170.95 63.5 171.15 63.5 171.2 63.5 171.1 63.65 Q170.9 63.7 170.8 63.9 L170.85 64.05 M130.0 47.3 L131.1 47.35 Q135.5 47.65 139.3 49.9 L130.0 47.3 M143.75 85.7 L145.8 84.5 Q145.75 85.35 144.9 85.85 143.55 86.7 143.75 85.7 M132.65 89.15 Q134.1 86.7 136.75 85.2 139.85 83.55 141.25 84.05 L140.9 84.5 Q137.55 88.2 132.9 89.95 L132.7 90.05 132.65 89.15" fill="#454545" fill-rule="evenodd" stroke="none"/>
    <path d="M274.15 54.35 L274.55 55.5 Q274.6 57.85 272.25 58.65 L270.75 57.95 270.5 57.35 Q269.75 54.3 272.6 53.45 L274.15 54.35 M276.35 67.05 L277.5 65.75 277.95 65.65 Q281.5 66.15 282.4 69.6 L277.7 72.8 278.8 73.55 Q277.7 73.55 276.9 73.05 276.1 72.55 276.1 71.85 L276.2 69.6 276.4 70.7 276.65 70.95 Q278.9 70.4 279.25 67.65 L279.35 66.6 278.3 65.95 Q276.55 67.15 276.25 68.8 L276.35 67.05 M284.15 70.3 L285.2 72.4 284.95 72.9 Q283.7 74.75 281.5 73.45 282.6 73.45 283.4 72.55 284.15 71.6 284.15 70.3 M274.35 79.3 L275.35 80.0 275.6 79.9 Q278.6 79.5 280.25 82.0 L277.9 84.3 275.9 80.55 273.95 79.9 272.75 80.55 Q273.35 82.7 273.3 84.8 273.3 86.45 272.25 87.6 L272.35 89.85 274.95 87.6 271.6 93.35 274.95 92.5 275.35 91.65 Q276.2 89.95 278.1 89.85 L276.95 93.8 274.6 95.5 276.4 96.35 279.35 94.75 279.85 91.3 280.35 92.4 280.25 93.0 Q279.35 96.1 276.15 97.3 L277.25 98.6 Q281.25 98.9 282.2 102.4 L280.95 104.05 277.25 103.5 275.7 103.45 276.15 104.5 Q275.8 107.65 273.55 109.95 271.0 112.65 268.1 111.15 273.15 110.35 274.55 104.95 275.1 102.75 274.35 100.55 L273.2 100.15 271.6 101.1 270.25 105.4 268.25 106.25 269.55 102.1 Q269.85 100.8 269.1 99.6 268.2 98.05 266.75 98.15 L265.55 99.3 265.95 101.8 264.45 104.8 260.6 106.35 258.4 105.25 257.3 103.75 257.15 100.95 256.1 100.55 252.9 103.65 250.45 105.3 248.25 104.4 245.25 108.0 242.2 107.1 241.05 106.05 239.45 106.85 238.0 106.65 236.9 107.25 235.7 107.1 234.25 105.75 233.75 108.85 235.9 109.45 237.0 110.1 238.4 109.2 240.25 109.1 Q243.3 111.75 246.8 109.75 L248.4 108.7 250.7 108.5 Q245.25 113.05 238.95 109.75 L235.1 111.4 233.05 108.45 229.2 108.2 228.7 108.7 Q226.8 110.55 224.35 109.6 L225.3 108.85 229.55 107.35 229.3 106.55 Q228.0 105.35 226.35 105.85 L225.25 105.15 222.8 107.85 219.1 107.25 Q215.8 109.7 212.05 108.25 213.25 110.05 215.35 110.45 L216.6 110.4 214.7 111.1 Q212.9 110.8 211.3 110.2 L209.85 109.1 203.7 108.25 203.5 108.3 Q199.1 109.7 194.2 108.95 L194.85 108.1 Q192.45 105.95 189.45 106.1 L185.6 104.8 184.0 103.65 Q184.65 99.85 180.85 98.6 L180.35 98.65 Q180.0 99.1 180.1 99.3 180.95 101.15 182.25 102.8 L176.25 103.8 179.2 101.7 176.15 99.65 173.85 105.4 171.65 104.15 170.75 102.8 Q169.1 103.3 167.45 104.25 163.65 106.25 161.0 105.5 160.45 103.6 157.7 104.15 L156.55 101.55 158.4 101.55 Q161.6 104.95 166.0 104.6 L167.05 104.4 167.55 102.65 168.05 102.15 169.9 102.2 169.95 101.05 168.45 100.1 167.35 100.2 165.7 102.15 161.15 101.4 159.25 99.1 156.25 98.95 159.15 98.95 Q161.95 99.3 163.75 101.3 166.55 100.7 168.9 99.1 171.5 97.35 174.45 98.6 175.05 97.05 175.8 95.55 176.75 93.5 178.9 93.15 L189.7 98.2 190.15 99.2 193.25 100.4 194.0 100.7 194.6 100.95 196.8 101.15 Q201.6 101.7 203.7 105.9 L210.1 105.4 Q214.45 101.65 220.2 103.4 L220.5 102.35 Q221.35 99.25 224.25 98.65 L226.45 99.05 Q222.2 99.4 221.65 102.95 L221.7 103.8 219.55 104.9 Q218.05 103.65 216.3 103.5 L213.8 103.65 212.9 104.55 Q213.75 105.4 215.0 105.55 L218.1 105.25 219.0 106.1 Q222.15 106.0 223.6 102.75 L223.9 101.95 225.9 103.3 226.7 103.0 Q230.5 105.6 234.6 103.95 L235.65 103.5 239.9 102.05 239.45 100.15 237.45 100.2 246.5 95.6 245.05 97.7 248.0 97.45 249.85 97.0 250.45 90.55 249.5 91.55 Q251.85 86.5 256.05 82.75 L255.85 81.4 Q255.75 78.75 258.15 78.35 L259.85 78.85 Q256.8 79.7 256.75 82.9 L256.8 83.6 255.4 85.6 Q250.6 87.35 251.25 91.9 L252.6 91.5 253.05 90.3 258.25 85.75 260.2 87.7 260.35 89.2 262.8 90.2 262.95 86.85 261.85 85.1 262.2 84.1 261.05 79.8 260.05 78.95 261.35 79.5 261.5 80.55 263.6 85.6 265.2 84.8 264.7 88.95 267.3 87.15 266.9 91.55 268.0 90.8 268.15 90.05 Q271.9 87.3 270.8 83.05 L273.0 78.9 274.35 79.3 M264.05 109.15 L263.25 109.5 Q259.9 110.35 256.75 109.1 L258.0 108.85 Q260.55 110.55 263.05 108.95 L264.05 109.15 M222.3 110.1 L221.05 110.75 Q219.05 111.55 217.0 110.3 L218.85 109.6 222.3 110.1 M183.8 106.05 L182.0 105.5 176.95 105.95 181.95 105.25 183.8 106.05 M176.35 106.0 L175.25 106.85 174.8 106.05 175.4 105.55 176.35 106.0 M171.35 107.55 L170.25 107.1 166.2 108.05 170.5 106.2 171.35 107.55 M155.95 108.35 L154.75 108.2 155.55 107.25 Q156.9 107.25 155.95 108.35 M153.35 107.7 L150.95 108.1 Q144.45 108.85 138.95 106.05 L143.0 106.75 143.55 107.4 153.35 107.7 M138.85 106.05 L137.85 106.35 Q135.4 106.6 133.7 104.9 132.45 104.9 131.6 104.25 130.7 103.55 130.7 102.6 L133.35 103.65 133.7 104.9 134.7 105.45 138.85 106.05 M128.65 99.5 L126.2 100.3 126.3 100.85 Q126.05 104.1 123.3 106.1 L124.8 107.9 Q125.4 108.7 125.2 109.7 124.65 112.8 121.1 112.45 L120.4 111.45 Q115.05 110.5 116.2 104.9 L115.65 104.4 Q113.95 102.7 115.05 100.6 L114.55 98.95 Q114.05 96.5 116.25 95.45 L114.7 94.45 116.9 94.3 113.6 88.3 110.6 87.85 109.35 84.65 108.15 87.4 105.9 84.8 105.0 85.2 Q101.5 86.2 98.1 85.35 L97.45 85.75 94.95 85.95 Q93.6 85.45 93.15 84.15 L93.2 83.15 94.15 82.1 Q98.4 78.3 103.65 79.35 L104.05 80.5 Q108.6 79.95 112.55 77.95 L115.05 74.6 114.45 71.55 115.9 70.4 117.5 69.95 116.6 68.25 112.3 69.3 112.1 71.55 109.5 77.1 104.15 78.9 107.05 77.55 109.6 75.0 Q109.95 70.45 113.25 67.8 L114.4 68.05 119.4 66.3 120.75 67.1 121.55 68.05 Q123.25 72.0 124.05 76.1 L127.25 78.8 128.15 78.8 Q130.9 78.8 131.85 81.2 L132.65 86.0 131.7 86.6 130.75 85.95 130.65 83.15 123.85 78.85 120.95 74.6 121.0 73.55 120.0 72.85 120.25 69.05 119.35 71.65 118.4 72.9 119.0 74.0 118.15 75.25 121.85 78.45 121.2 79.95 117.25 80.4 116.35 82.35 114.5 83.35 Q115.55 85.2 118.25 84.4 L120.65 84.8 120.2 83.1 121.95 82.8 127.3 86.7 128.65 88.2 128.55 89.6 Q129.0 89.95 129.4 89.8 130.2 89.7 130.75 89.0 L131.8 87.45 132.65 89.15 132.7 90.05 132.9 89.95 133.25 95.1 Q137.25 95.75 139.5 99.35 L141.25 98.9 Q144.7 99.3 147.65 101.05 L151.15 100.95 153.2 99.85 151.8 101.55 152.1 102.15 154.65 101.7 154.4 104.45 147.4 105.75 131.15 100.1 128.65 99.5 M112.95 93.1 L110.75 90.6 Q111.65 90.6 112.3 91.35 112.95 92.05 112.95 93.1 M262.2 69.95 Q261.6 69.05 261.4 68.05 260.85 64.85 264.55 64.25 268.95 65.55 268.05 69.65 267.2 73.45 263.95 73.4 L263.05 74.1 261.4 73.75 260.75 72.75 262.2 69.95 M267.3 66.45 L266.2 65.75 265.05 66.45 264.7 72.1 266.15 72.0 Q267.5 69.85 267.45 67.45 L267.3 66.45 M263.95 96.75 L262.8 96.35 261.95 97.55 262.35 98.6 259.1 99.85 258.9 101.15 Q261.4 102.95 263.6 100.95 L264.9 99.45 264.65 97.7 Q268.3 96.3 266.85 92.55 266.1 90.55 264.2 89.5 L262.7 90.55 262.6 91.55 263.95 96.75 M271.45 94.45 Q270.2 94.3 269.15 95.1 L268.8 97.6 Q268.6 99.0 269.95 98.8 L270.5 98.6 271.25 96.7 Q271.5 96.0 273.05 96.1 273.45 94.9 271.45 94.45 M280.25 101.0 L276.65 99.8 275.95 99.45 276.55 101.5 279.0 102.95 280.35 102.2 280.25 101.0 M295.75 104.6 Q296.55 103.95 297.75 103.95 298.95 103.95 299.8 104.6 300.6 105.2 300.6 106.1 300.6 107.0 299.8 107.65 298.95 108.25 297.75 108.25 296.55 108.25 295.75 107.65 294.9 107.0 294.9 106.1 294.9 105.2 295.75 104.6 M297.2 104.95 Q296.8 104.55 296.3 104.55 295.8 104.55 295.45 104.95 295.05 105.3 295.05 105.8 295.05 106.3 295.45 106.7 295.8 107.05 296.3 107.05 L297.2 106.7 297.55 105.8 Q297.55 105.3 297.2 104.95 M291.4 105.65 L290.0 103.3 289.8 102.05 288.3 101.5 290.4 100.45 293.55 102.55 293.6 103.25 291.4 105.65 M287.2 102.6 L287.8 104.9 286.9 103.85 287.2 102.6 M180.3 96.1 L179.2 94.65 176.35 96.0 176.2 96.7 176.65 98.75 177.65 98.45 178.55 96.4 179.5 97.7 182.3 97.25 Q184.8 100.2 188.55 99.45 L182.55 95.5 180.3 96.1 M235.0 100.55 L233.9 101.75 230.55 101.8 Q229.3 101.8 228.45 101.15 227.55 100.5 227.55 99.6 L230.55 101.8 235.0 100.55 M101.25 72.0 L100.4 71.65 Q100.85 68.65 104.45 69.2 L106.9 71.5 Q106.35 74.55 103.0 73.85 L101.25 72.0 M105.85 73.15 L106.3 72.1 Q106.3 71.5 105.85 71.05 105.4 70.6 104.75 70.6 104.1 70.6 103.65 71.05 103.2 71.5 103.2 72.1 103.2 72.7 103.65 73.15 104.1 73.6 104.75 73.6 105.4 73.6 105.85 73.15 M119.45 62.8 L119.25 62.5 Q118.65 60.0 120.75 58.2 122.15 61.4 119.45 62.8 M104.65 82.5 L97.35 83.15 102.55 84.0 104.3 84.9 105.65 84.6 106.8 84.85 106.75 82.9 104.65 82.5 M120.35 92.05 Q121.45 92.05 122.2 91.5 122.95 90.95 122.95 90.2 122.95 89.45 122.2 88.9 121.45 88.35 120.35 88.35 119.25 88.35 118.5 88.9 117.75 89.45 117.75 90.2 117.75 90.95 118.5 91.5 119.25 92.05 120.35 92.05 M118.45 96.6 L118.05 96.35 115.35 98.6 119.15 100.3 119.75 99.3 118.15 97.75 Q119.0 97.25 118.45 96.6 M85.8 86.85 L83.6 87.3 83.45 86.85 Q83.55 84.45 85.75 83.05 L86.85 82.65 88.5 83.25 Q88.5 84.75 87.7 85.8 86.9 86.85 85.8 86.85 M111.35 109.95 L111.8 107.55 111.1 106.65 Q109.85 109.6 107.3 111.6 107.15 111.75 107.3 112.25 L104.25 111.45 104.25 111.15 Q106.15 105.35 111.85 106.6 L112.6 107.85 111.35 109.95 M145.65 89.95 Q146.35 89.05 147.35 89.05 148.35 89.05 149.1 89.95 149.8 90.8 149.8 92.0 149.8 93.2 149.1 94.1 148.35 94.95 147.35 94.95 146.35 94.95 145.65 94.1 144.9 93.2 144.9 92.0 144.9 90.8 145.65 89.95 M125.45 94.4 L125.7 97.75 128.5 96.75 128.4 95.85 130.65 93.75 127.8 91.45 Q127.05 91.9 127.2 92.75 127.3 93.15 126.75 93.5 L125.45 94.4 M136.9 99.85 L132.85 97.1 Q133.0 100.05 136.2 100.05 L136.9 99.85" fill="#8a734e" fill-rule="evenodd" stroke="none"/>
    <path d="M282.4 69.6 L284.15 70.3 Q284.15 71.6 283.4 72.55 282.6 73.45 281.5 73.45 L278.8 73.55 277.7 72.8 282.4 69.6 M277.9 84.3 L277.15 85.45 275.9 85.5 274.95 87.6 272.35 89.85 272.25 87.6 Q273.3 86.45 273.3 84.8 273.35 82.7 272.75 80.55 L273.95 79.9 275.9 80.55 277.9 84.3 M278.1 89.85 Q278.8 89.85 279.35 90.3 279.85 90.7 279.85 91.3 L279.35 94.75 276.4 96.35 274.6 95.5 276.95 93.8 278.1 89.85 M268.1 111.15 L265.7 109.6 264.05 109.15 263.05 108.95 Q260.55 110.55 258.0 108.85 L256.75 109.1 252.85 107.95 252.2 108.0 250.7 108.5 248.4 108.7 246.8 109.75 Q243.3 111.75 240.25 109.1 L238.4 109.2 237.0 110.1 235.9 109.45 233.75 108.85 234.25 105.75 235.7 107.1 236.9 107.25 238.0 106.65 239.45 106.85 241.05 106.05 242.2 107.1 245.25 108.0 248.25 104.4 250.45 105.3 252.9 103.65 256.1 100.55 257.15 100.95 257.3 103.75 258.4 105.25 260.6 106.35 264.45 104.8 265.95 101.8 265.55 99.3 266.75 98.15 Q268.2 98.05 269.1 99.6 269.85 100.8 269.55 102.1 L268.25 106.25 270.25 105.4 271.6 101.1 273.2 100.15 274.35 100.55 Q275.1 102.75 274.55 104.95 273.15 110.35 268.1 111.15 M224.35 109.6 L222.3 110.1 218.85 109.6 217.0 110.3 216.6 110.4 215.35 110.45 Q213.25 110.05 212.05 108.25 215.8 109.7 219.1 107.25 L222.8 107.85 225.25 105.15 226.35 105.85 Q228.0 105.35 229.3 106.55 L229.55 107.35 225.3 108.85 224.35 109.6 M194.2 108.95 L192.75 109.15 Q189.2 109.6 187.1 107.2 L184.65 106.85 183.8 106.05 181.95 105.25 176.95 105.95 176.35 106.0 175.4 105.55 174.8 106.05 175.25 106.85 175.2 107.0 Q173.75 108.95 171.35 107.55 L170.5 106.2 166.2 108.05 Q163.45 109.15 160.4 109.45 L156.05 108.85 155.95 108.35 Q156.9 107.25 155.55 107.25 L154.75 108.2 153.35 107.7 143.55 107.4 143.0 106.75 138.95 106.05 138.85 106.05 134.7 105.45 133.7 104.9 133.35 103.65 130.7 102.6 129.25 100.45 128.95 100.5 Q127.95 100.1 128.65 99.5 L131.15 100.1 147.4 105.75 154.4 104.45 154.65 101.7 156.55 101.55 157.7 104.15 Q160.45 103.6 161.0 105.5 163.65 106.25 167.45 104.25 169.1 103.3 170.75 102.8 L171.65 104.15 173.85 105.4 176.15 99.65 179.2 101.7 176.25 103.8 182.25 102.8 Q180.95 101.15 180.1 99.3 180.0 99.1 180.35 98.65 L180.85 98.6 Q184.65 99.85 184.0 103.65 L185.6 104.8 189.45 106.1 Q192.45 105.95 194.85 108.1 L194.2 108.95 M114.7 94.45 L112.95 93.1 Q112.95 92.05 112.3 91.35 111.65 90.6 110.75 90.6 109.65 90.6 108.9 89.7 108.15 88.75 108.15 87.4 L109.35 84.65 110.6 87.85 113.6 88.3 116.9 94.3 114.7 94.45 M267.3 66.45 L267.45 67.45 Q267.5 69.85 266.15 72.0 L264.7 72.1 265.05 66.45 266.2 65.75 267.3 66.45 M265.2 84.8 L263.6 85.6 261.5 80.55 261.35 79.5 Q261.65 77.6 263.15 78.75 266.3 81.2 265.2 84.8 M249.5 91.55 L250.45 90.55 249.85 97.0 248.0 97.45 245.05 97.7 246.5 95.6 Q247.75 95.6 248.65 94.45 249.5 93.25 249.5 91.55 M264.65 97.7 L263.95 96.75 262.6 91.55 262.7 90.55 264.2 89.5 Q266.1 90.55 266.85 92.55 268.3 96.3 264.65 97.7 M280.25 101.0 L280.35 102.2 279.0 102.95 276.55 101.5 275.95 99.45 276.65 99.8 280.25 101.0 M297.2 104.95 Q297.55 105.3 297.55 105.8 L297.2 106.7 296.3 107.05 Q295.8 107.05 295.45 106.7 295.05 106.3 295.05 105.8 295.05 105.3 295.45 104.95 295.8 104.55 296.3 104.55 296.8 104.55 297.2 104.95 M288.3 101.5 L289.8 102.05 290.0 103.3 291.4 105.65 290.1 106.25 287.8 104.9 287.2 102.6 288.3 101.5 M105.85 73.15 Q105.4 73.6 104.75 73.6 104.1 73.6 103.65 73.15 103.2 72.7 103.2 72.1 103.2 71.5 103.65 71.05 104.1 70.6 104.75 70.6 105.4 70.6 105.85 71.05 106.3 71.5 106.3 72.1 L105.85 73.15 M116.35 82.35 L117.25 80.4 121.2 79.95 121.85 78.45 118.15 75.25 119.0 74.0 118.4 72.9 119.35 71.65 120.25 69.05 120.0 72.85 121.0 73.55 120.95 74.6 123.85 78.85 130.65 83.15 130.75 85.95 131.7 86.6 131.8 87.45 130.75 89.0 Q130.2 89.7 129.4 89.8 129.0 89.95 128.55 89.6 L128.65 88.2 127.3 86.7 121.95 82.8 120.2 83.1 116.35 82.35 M104.65 82.5 L106.75 82.9 106.8 84.85 105.65 84.6 104.3 84.9 102.55 84.0 97.35 83.15 104.65 82.5 M118.45 96.6 Q119.0 97.25 118.15 97.75 L119.75 99.3 119.15 100.3 115.35 98.6 118.05 96.35 118.45 96.6 M88.5 83.25 L90.0 83.9 90.6 85.15 90.35 86.4 90.05 86.7 Q88.0 88.35 85.8 86.85 86.9 86.85 87.7 85.8 88.5 84.75 88.5 83.25 M107.3 112.25 Q107.15 111.75 107.3 111.6 109.85 109.6 111.1 106.65 L111.8 107.55 111.35 109.95 Q111.35 110.9 110.2 111.6 109.0 112.25 107.3 112.25 M125.45 94.4 L126.75 93.5 Q127.3 93.15 127.2 92.75 127.05 91.9 127.8 91.45 L130.65 93.75 128.4 95.85 128.5 96.75 125.7 97.75 125.45 94.4" fill="#7e6744" fill-rule="evenodd" stroke="none"/>
    <path d="M103.65 79.35 L103.75 79.2 104.15 78.9 109.5 77.1 112.1 71.55 112.3 69.3 116.6 68.25 117.5 69.95 115.9 70.4 114.45 71.55 115.05 74.6 112.55 77.95 Q108.6 79.95 104.05 80.5 L103.65 79.35 M276.2 69.6 L276.25 68.8 Q276.55 67.15 278.3 65.95 L279.35 66.6 279.25 67.65 Q278.9 70.4 276.65 70.95 L276.4 70.7 276.2 69.6 M270.8 83.05 Q271.9 87.3 268.15 90.05 L268.0 90.8 266.9 91.55 267.3 87.15 270.8 83.05 M260.05 78.95 L261.05 79.8 262.2 84.1 261.85 85.1 262.95 86.85 262.8 90.2 260.35 89.2 260.2 87.7 258.25 85.75 253.05 90.3 252.6 91.5 251.25 91.9 Q250.6 87.35 255.4 85.6 L256.8 83.6 256.75 82.9 Q256.8 79.7 259.85 78.85 L260.05 78.95 M237.45 100.2 L239.45 100.15 239.9 102.05 235.65 103.5 234.6 103.95 Q230.5 105.6 226.7 103.0 L225.9 103.3 223.9 101.95 223.6 102.75 Q222.15 106.0 219.0 106.1 L218.1 105.25 215.0 105.55 Q213.75 105.4 212.9 104.55 L213.8 103.65 216.3 103.5 Q218.05 103.65 219.55 104.9 L221.7 103.8 221.65 102.95 Q222.2 99.4 226.45 99.05 L227.55 99.6 Q227.55 100.5 228.45 101.15 229.3 101.8 230.55 101.8 L233.9 101.75 235.0 100.55 236.7 100.8 237.45 100.2 M156.25 98.95 L159.25 99.1 161.15 101.4 165.7 102.15 167.35 100.2 168.45 100.1 169.95 101.05 169.9 102.2 168.05 102.15 167.55 102.65 167.05 104.4 166.0 104.6 Q161.6 104.95 158.4 101.55 L156.55 101.55 154.65 101.7 152.1 102.15 151.8 101.55 153.2 99.85 156.25 98.95 M263.95 96.75 L264.65 97.7 264.9 99.45 263.6 100.95 Q261.4 102.95 258.9 101.15 L259.1 99.85 262.35 98.6 261.95 97.55 262.8 96.35 263.95 96.75 M271.45 94.45 Q273.45 94.9 273.05 96.1 271.5 96.0 271.25 96.7 L270.5 98.6 269.95 98.8 Q268.6 99.0 268.8 97.6 L269.15 95.1 Q270.2 94.3 271.45 94.45 M180.3 96.1 L182.55 95.5 188.55 99.45 Q184.8 100.2 182.3 97.25 L179.5 97.7 178.55 96.4 177.65 98.45 176.65 98.75 176.2 96.7 176.35 96.0 179.2 94.65 180.3 96.1 M116.35 82.35 L120.2 83.1 120.65 84.8 118.25 84.4 Q115.55 85.2 114.5 83.35 L116.35 82.35 M120.35 92.05 Q119.25 92.05 118.5 91.5 117.75 90.95 117.75 90.2 117.75 89.45 118.5 88.9 119.25 88.35 120.35 88.35 121.45 88.35 122.2 88.9 122.95 89.45 122.95 90.2 122.95 90.95 122.2 91.5 121.45 92.05 120.35 92.05 M136.9 99.85 L136.2 100.05 Q133.0 100.05 132.85 97.1 L136.9 99.85" fill="#967f59" fill-rule="evenodd" stroke="none"/>
    <path d="M240.65 43.5 L240.9 43.75 Q247.35 50.45 247.4 59.85 247.45 68.6 241.4 75.15 232.55 84.7 220.15 88.85 208.45 92.7 196.15 92.65 203.95 92.15 207.85 85.3 209.2 82.8 209.25 80.15 209.45 68.15 209.25 56.2 209.05 46.35 199.65 42.8 L200.3 41.15 Q203.1 34.25 209.35 29.75 203.1 34.25 200.3 41.15 L199.65 42.8 Q190.0 40.55 184.1 48.6 182.1 51.35 182.0 54.8 181.7 66.75 181.85 78.7 181.9 81.4 183.0 84.0 186.4 92.05 195.2 92.65 L191.4 92.55 Q179.3 92.3 168.0 88.05 L165.4 87.0 Q153.95 82.25 146.55 72.55 143.9 68.3 143.15 63.2 141.55 52.55 148.85 44.65 L151.3 42.2 Q159.5 34.35 170.45 30.85 182.4 26.95 195.05 26.95 207.85 27.0 219.85 30.85 231.75 34.7 240.65 43.5 233.65 41.75 226.6 42.85 L221.9 43.5 226.6 42.85 Q233.65 41.75 240.65 43.5 M222.55 62.65 Q225.55 53.25 222.1 43.8 L221.9 43.5 222.1 43.8 Q225.55 53.25 222.55 62.65 L223.05 62.9 Q232.75 68.2 237.65 77.85 232.75 68.2 223.05 62.9 L222.55 62.65 Q216.9 58.9 209.95 57.55 216.9 58.9 222.55 62.65 M204.0 29.0 L203.25 28.05 203.2 30.05 204.0 29.0 M219.55 38.55 L217.9 36.9 216.3 35.2 Q213.55 32.65 212.8 34.85 213.55 32.65 216.3 35.2 L217.9 36.9 219.55 38.55 M213.5 41.6 L223.2 37.9 213.5 41.6 M204.05 35.9 L205.55 36.3 Q211.85 38.4 214.5 44.3 211.85 38.4 205.55 36.3 L204.05 35.9 M207.1 47.65 L221.9 43.5 207.1 47.65 M218.85 63.75 L212.15 66.8 215.5 74.5 Q219.55 68.95 226.0 71.0 227.6 71.5 227.8 73.05 228.15 76.15 227.0 79.15 L223.95 78.75 Q218.6 77.6 216.8 82.05 L221.2 84.25 216.8 82.05 Q218.6 77.6 223.95 78.75 L227.0 79.15 Q228.15 76.15 227.8 73.05 227.6 71.5 226.0 71.0 219.55 68.95 215.5 74.5 L212.15 66.8 218.85 63.75 M224.25 51.35 L237.4 51.3 224.25 51.35 M225.25 55.35 L225.55 55.45 Q232.15 55.3 237.45 59.15 236.55 64.0 233.4 67.65 L232.65 68.45 233.4 67.65 Q236.55 64.0 237.45 59.15 232.15 55.3 225.55 55.45 L225.25 55.35 M237.65 59.4 L237.45 59.15 238.35 55.95 Q240.5 49.45 236.65 43.95 240.5 49.45 238.35 55.95 L237.45 59.15 237.65 59.4 M182.55 48.65 Q182.45 49.2 181.85 48.85 178.75 47.0 175.25 45.5 163.75 40.35 151.3 42.2 163.75 40.35 175.25 45.5 178.75 47.0 181.85 48.85 182.45 49.2 182.55 48.65 M199.2 28.6 L196.2 34.9 194.6 36.15 197.5 35.1 Q201.05 32.9 200.7 28.75 L200.55 27.4 199.2 28.6 M191.65 35.55 L195.0 35.2 194.7 30.25 196.0 29.15 194.7 30.25 195.0 35.2 191.65 35.55 M196.95 28.65 L196.35 28.3 195.75 27.3 196.0 29.15 Q197.0 30.5 197.05 28.85 L196.95 28.65 198.35 28.15 196.95 28.65 M199.7 35.55 L199.7 35.2 200.05 35.2 199.7 35.2 199.7 35.55 M204.75 31.5 Q200.75 30.5 199.8 34.35 L199.7 35.2 197.5 35.1 199.7 35.2 199.8 34.35 Q200.75 30.5 204.75 31.5 M200.7 35.9 L201.4 35.9 200.7 35.9 M195.35 34.85 L196.2 34.9 195.35 34.85 M191.3 42.25 L191.45 41.15 Q191.5 33.7 186.6 28.5 191.5 33.7 191.45 41.15 L191.3 42.25 M163.05 48.75 L163.75 46.3 152.35 48.65 153.9 44.7 161.55 44.65 162.15 43.7 164.45 43.6 162.15 43.7 161.55 44.65 153.9 44.7 152.35 48.65 163.75 46.3 163.05 48.75 160.75 48.15 160.05 49.4 162.2 51.6 164.75 53.1 161.3 54.85 152.85 58.45 161.0 55.95 157.8 59.35 161.1 58.45 165.95 54.9 166.95 55.6 167.8 58.5 168.4 58.25 Q169.35 57.2 169.0 55.7 L168.8 54.95 Q171.6 56.55 175.0 56.5 176.5 56.5 177.2 55.3 L169.3 53.55 Q170.25 48.95 168.15 44.7 L166.55 51.15 163.05 48.75 M178.2 38.25 Q178.2 36.15 176.25 34.7 174.3 33.2 171.5 33.2 174.3 33.2 176.25 34.7 178.2 36.15 178.2 38.25 M171.5 43.6 Q172.25 42.1 173.95 41.15 180.65 37.5 188.3 37.55 180.65 37.5 173.95 41.15 172.25 42.1 171.5 43.6 M162.1 60.4 L161.1 58.45 162.1 60.4 M170.85 64.05 L171.1 63.65 170.85 64.05 170.8 63.9 Q170.9 63.7 171.1 63.65 L171.2 63.5 171.15 63.5 170.95 63.5 171.35 62.95 173.25 61.4 173.75 60.75 Q171.5 59.65 169.85 62.35 169.4 63.05 169.2 63.9 L166.25 64.7 155.8 70.35 168.0 65.1 168.95 65.05 168.0 65.1 169.0 64.8 168.95 65.05 169.8 67.55 170.85 64.05 M171.15 63.5 L171.35 62.95 171.15 63.5 M164.1 61.4 L166.25 64.7 164.1 61.4 M180.55 64.1 L173.25 61.4 180.55 64.1 M182.9 36.9 L179.55 31.5 182.9 36.9 M173.15 76.2 L168.0 88.05 173.15 76.2 M222.55 74.15 L221.9 75.35 223.8 76.0 224.4 74.2 223.8 76.0 221.9 75.35 222.55 74.15 M176.85 63.1 L175.85 74.5 Q172.3 71.2 167.25 73.0 160.4 75.4 160.4 82.55 160.4 75.4 167.25 73.0 172.3 71.2 175.85 74.5 L176.85 63.1 M181.25 56.7 Q168.65 57.75 157.25 63.25 150.5 66.4 146.55 72.55 150.5 66.4 157.25 63.25 168.65 57.75 181.25 56.7 M161.3 54.85 L162.2 51.6 161.3 54.85" fill="url(#gradient3)" fill-rule="evenodd" stroke="none"/>
    <path d="M184.7 76.8 Q184.45 78.95 184.95 81.1 186.2 86.75 191.65 88.85 199.15 91.7 204.35 85.85 206.55 83.4 206.6 80.05 L206.95 55.7 Q207.0 52.55 205.2 49.85 207.0 52.55 206.95 55.7 L206.6 80.05 Q206.55 83.4 204.35 85.85 199.15 91.7 191.65 88.85 186.2 86.75 184.95 81.1 184.45 78.95 184.7 76.8 L184.25 76.85 184.7 76.8 185.0 54.15 Q185.05 51.9 186.4 49.8 185.05 51.9 185.0 54.15 L184.7 76.8 190.65 74.5 184.7 76.8 M205.4 51.65 L205.2 49.85 Q202.3 44.35 195.75 44.45 189.3 44.5 186.4 49.8 185.25 56.3 192.05 58.2 200.0 60.35 204.7 54.35 205.5 53.25 205.4 51.65 M203.05 70.5 L206.15 70.25 203.05 70.5 M199.65 42.8 Q209.05 46.35 209.25 56.2 209.45 68.15 209.25 80.15 209.2 82.8 207.85 85.3 203.95 92.15 196.15 92.65 L195.2 92.65 Q186.4 92.05 183.0 84.0 181.9 81.4 181.85 78.7 181.7 66.75 182.0 54.8 182.1 51.35 184.1 48.6 190.0 40.55 199.65 42.8 M185.25 76.2 L186.95 75.2 185.25 76.2 M199.7 67.8 L206.45 67.45 199.7 67.8 M185.25 73.85 L186.6 73.5 185.25 73.85" fill="url(#gradient4)" fill-rule="evenodd" stroke="none"/>
    <path d="M205.4 51.65 Q205.5 53.25 204.7 54.35 200.0 60.35 192.05 58.2 185.25 56.3 186.4 49.8 189.3 44.5 195.75 44.45 202.3 44.35 205.2 49.85 L205.4 51.65 M195.0 47.75 L196.45 48.15 196.7 48.4 196.45 48.15 195.0 47.75 196.7 48.4 195.0 47.75 191.3 45.6 195.0 47.75 191.15 49.3 190.6 51.1 190.7 51.25 Q196.0 55.8 200.6 50.4 196.0 55.8 190.7 51.25 L190.6 51.1 191.15 49.3 190.3 47.3 191.15 49.3 193.0 50.3 191.15 49.3 195.0 47.75 M196.8 48.45 L196.7 48.4 196.8 48.45 197.05 48.55 196.8 48.45 M196.45 48.15 L197.05 48.35 197.05 48.55 197.05 48.35 196.45 48.15 M196.35 47.3 L197.3 47.45 196.35 47.3 M197.95 45.9 L197.3 47.45 197.05 48.35 197.3 47.45 197.95 45.9 M199.2 48.3 L200.05 48.65 199.2 48.3 198.7 49.05 200.6 50.4 198.7 49.05 199.2 48.3 200.0 46.9 199.2 48.3 197.3 47.45 199.2 48.3 M201.4 51.0 L200.6 50.4 201.4 51.0 M195.35 54.0 L195.4 55.8 197.35 56.1 196.35 57.7 197.35 56.1 195.4 55.8 195.35 54.0 M197.05 48.55 L200.6 50.4 197.05 48.55 M197.05 48.35 L198.7 49.05 197.05 48.35 M204.4 51.35 L201.05 51.35 204.4 51.35" fill="url(#gradient5)" fill-rule="evenodd" stroke="none"/>
    <path d="M153.95 21.65 Q155.3 21.65 156.3 23.0 157.25 24.3 157.25 26.15 L160.15 24.35 Q165.35 21.3 171.5 20.1 M153.35 21.45 L153.95 21.65 M275.75 63.1 L272.55 62.3 271.35 64.0 269.7 64.25 269.85 60.4 269.1 59.1 Q266.1 59.55 265.55 64.45 263.7 60.65 265.55 56.7 L262.05 56.75 260.55 65.15 Q260.4 65.85 259.7 66.3 L258.85 66.8 259.75 58.35 Q258.75 55.9 256.15 56.05 L256.3 67.45 253.65 67.8 Q252.05 61.8 254.15 55.7 L251.25 56.05 250.95 60.6 249.5 60.9 M184.7 76.8 L184.25 76.85 M195.0 47.75 L196.7 48.4 M196.8 48.45 L197.05 48.55 M197.3 47.45 L196.35 47.3 M200.05 48.65 L199.2 48.3 197.3 47.45 M200.6 50.4 L201.4 51.0 M195.0 47.75 L191.3 45.6 M171.1 63.65 L170.85 64.05 M168.95 65.05 L168.0 65.1 M166.25 64.7 L164.1 61.4 M171.35 62.95 L171.15 63.5 M173.25 61.4 L180.55 64.1 M184.7 76.8 L190.65 74.5 M191.15 49.3 L190.3 47.3 M191.15 49.3 L193.0 50.3 M200.6 50.4 L197.05 48.55 M186.95 75.2 L185.25 76.2 M168.0 88.05 L173.15 76.2 M160.4 82.55 Q160.4 75.4 167.25 73.0 172.3 71.2 175.85 74.5 L176.85 63.1 M186.6 73.5 L185.25 73.85 M157.25 26.15 L155.35 29.5 M142.95 27.5 Q144.75 32.75 149.95 32.85 L151.6 32.5 152.85 31.7 156.7 34.2 M151.6 28.95 L147.95 25.8 M154.0 84.25 L152.65 85.95 M151.0 81.9 L148.65 84.2 Q151.4 89.05 156.7 90.95 L152.0 98.35 M142.25 76.2 L136.55 79.55 M131.85 81.2 L143.95 73.15" fill="none" stroke="#555555" stroke-linecap="round" stroke-linejoin="round" stroke-width="0.05"/>
    <path d="M153.95 21.65 Q163.45 18.1 173.5 16.25 185.1 14.3 197.0 14.4 206.8 14.45 216.45 16.15 228.95 18.1 240.5 23.25 251.25 28.05 260.25 35.4 269.8 43.1 274.15 54.35 M114.4 68.05 L114.5 64.45 114.95 61.3 Q116.85 49.8 124.75 41.05 M125.7 40.05 L131.6 34.55 134.75 32.2 Q143.8 25.8 153.95 21.65 M180.9 16.05 L181.8 19.5 183.25 20.0 183.25 24.8 M265.9 42.25 L248.1 49.0 M196.15 92.65 Q208.45 92.7 220.15 88.85 232.55 84.7 241.4 75.15 247.45 68.6 247.4 59.85 247.35 50.45 240.9 43.75 L240.65 43.5 Q233.65 41.75 226.6 42.85 L221.9 43.5 207.1 47.65 M222.55 62.65 L223.05 62.9 Q232.75 68.2 237.65 77.85 M205.2 49.85 Q207.0 52.55 206.95 55.7 L206.6 80.05 Q206.55 83.4 204.35 85.85 199.15 91.7 191.65 88.85 186.2 86.75 184.95 81.1 184.45 78.95 184.7 76.8 M205.4 51.65 L205.2 49.85 Q202.3 44.35 195.75 44.45 189.3 44.5 186.4 49.8 185.25 56.3 192.05 58.2 200.0 60.35 204.7 54.35 205.5 53.25 205.4 51.65 M222.55 62.65 Q216.9 58.9 209.95 57.55 M240.65 43.5 Q231.75 34.7 219.85 30.85 207.85 27.0 195.05 26.95 182.4 26.95 170.45 30.85 159.5 34.35 151.3 42.2 163.75 40.35 175.25 45.5 178.75 47.0 181.85 48.85 182.45 49.2 182.55 48.65 M186.6 28.5 Q191.5 33.7 191.45 41.15 L191.3 42.25 M209.35 29.75 Q203.1 34.25 200.3 41.15 L199.65 42.8 Q209.05 46.35 209.25 56.2 209.45 68.15 209.25 80.15 209.2 82.8 207.85 85.3 203.95 92.15 196.15 92.65 L195.2 92.65 191.4 92.55 Q179.3 92.3 168.0 88.05 M199.65 42.8 Q190.0 40.55 184.1 48.6 182.1 51.35 182.0 54.8 181.7 66.75 181.85 78.7 181.9 81.4 183.0 84.0 186.4 92.05 195.2 92.65 M186.4 49.8 Q185.05 51.9 185.0 54.15 L184.7 76.8 M146.55 72.55 Q153.95 82.25 165.4 87.0 L168.0 88.05 M224.25 98.65 Q223.9 95.95 221.2 95.95 L220.7 96.1 218.85 91.65 M151.3 42.2 L148.85 44.65 Q141.55 52.55 143.15 63.2 143.9 68.3 146.55 72.55 150.5 66.4 157.25 63.25 168.65 57.75 181.25 56.7 M131.6 34.55 Q138.35 35.55 141.7 41.45 L146.95 42.95" fill="none" stroke="#666666" stroke-linecap="round" stroke-linejoin="round" stroke-width="0.05"/>
    <path d="M197.0 14.4 L197.0 15.4 195.85 16.15 195.7 17.4 197.3 17.1 197.7 18.55 193.0 19.1 192.2 21.3 199.65 21.15 200.4 23.8 196.75 23.9 Q196.5 23.95 196.35 24.45 M249.5 60.9 Q248.7 72.95 238.9 80.55 228.6 88.65 216.05 91.85 204.5 94.8 192.45 94.5 179.5 94.2 167.5 89.65 155.7 85.25 147.45 75.95 138.45 65.75 142.15 52.5 M142.45 51.75 Q144.3 47.05 147.85 43.3 156.75 33.85 169.0 29.65 M170.05 29.3 Q180.7 25.85 191.85 25.55 204.1 25.0 216.05 28.0 228.8 31.3 239.1 39.45 249.5 47.85 249.5 60.9 M194.6 100.95 L194.0 100.7 193.25 100.4 192.65 99.05 196.3 98.5 197.25 97.25 194.2 96.65 194.0 95.0 M255.15 82.9 L251.85 81.5 248.15 85.55 246.4 84.95 233.25 94.55 M236.0 23.1 L234.45 24.5 239.7 27.15 238.0 30.1 Q229.4 27.75 223.9 20.75 L222.15 25.1 225.9 26.5 223.55 29.5 M233.85 32.15 L235.65 29.85 M221.9 43.5 L222.1 43.8 Q225.55 53.25 222.55 62.65 M214.5 44.3 Q211.85 38.4 205.55 36.3 L204.05 35.9 M223.2 37.9 L213.5 41.6 M212.8 34.85 Q213.55 32.65 216.3 35.2 L217.9 36.9 219.55 38.55 M206.15 70.25 L203.05 70.5 M221.2 84.25 L216.8 82.05 Q218.6 77.6 223.95 78.75 L227.0 79.15 Q228.15 76.15 227.8 73.05 227.6 71.5 226.0 71.0 219.55 68.95 215.5 74.5 L212.15 66.8 218.85 63.75 M236.65 43.95 Q240.5 49.45 238.35 55.95 L237.45 59.15 237.65 59.4 M232.65 68.45 L233.4 67.65 Q236.55 64.0 237.45 59.15 232.15 55.3 225.55 55.45 L225.25 55.35 M237.4 51.3 L224.25 51.35 M196.0 29.15 L194.7 30.25 195.0 35.2 191.65 35.55 M196.95 28.65 L198.35 28.15 M196.2 34.9 L195.35 34.85 M201.4 35.9 L200.7 35.9 M197.5 35.1 L199.7 35.2 199.8 34.35 Q200.75 30.5 204.75 31.5 M200.05 35.2 L199.7 35.2 199.7 35.55 M196.7 48.4 L196.45 48.15 195.0 47.75 191.15 49.3 M196.7 48.4 L196.8 48.45 M197.05 48.55 L197.05 48.35 196.45 48.15 M197.05 48.35 L197.3 47.45 197.95 45.9 M199.2 48.3 L198.7 49.05 200.6 50.4 Q196.0 55.8 190.7 51.25 L190.6 51.1 191.15 49.3 M200.0 46.9 L199.2 48.3 M168.0 88.05 L167.8 88.6 M170.05 29.3 L169.0 29.65 M164.45 43.6 L162.15 43.7 161.55 44.65 153.9 44.7 152.35 48.65 163.75 46.3 163.05 48.75 M161.1 58.45 L162.1 60.4 M188.3 37.55 Q180.65 37.5 173.95 41.15 172.25 42.1 171.5 43.6 M171.5 33.2 Q174.3 33.2 176.25 34.7 178.2 36.15 178.2 38.25 M196.35 57.7 L197.35 56.1 195.4 55.8 195.35 54.0 M198.7 49.05 L197.05 48.35 M179.55 31.5 L182.9 36.9 M224.4 74.2 L223.8 76.0 221.9 75.35 222.55 74.15 M206.45 67.45 L199.7 67.8 M201.05 51.35 L204.4 51.35 M237.35 96.35 L247.4 89.3 M246.4 84.95 L241.05 80.55 M121.1 62.4 L121.4 64.75 123.5 65.1 123.9 60.45 Q124.35 59.1 125.7 58.55 L126.9 58.65 127.1 66.75 130.7 66.9 129.9 56.85 133.2 55.35 133.1 67.9 137.4 68.6 136.5 55.85 139.3 55.3 140.6 58.05 M162.2 51.6 L161.3 54.85 M114.5 64.45 Q115.95 64.45 117.0 63.45 118.05 62.45 118.05 61.05" fill="none" stroke="#99ffff" stroke-linecap="round" stroke-linejoin="round" stroke-width="0.05"/>
    <path d="M274.15 54.35 L274.55 55.5 275.75 63.1 276.35 67.05 M276.1 71.85 L274.35 79.3" fill="none" stroke="#000000" stroke-linecap="round" stroke-linejoin="round" stroke-width="0.05"/>
    <path d="M184.25 16.05 L184.4 16.4 184.25 16.75 183.9 16.9 183.55 16.75 183.4 16.4 Q183.4 16.2 183.55 16.05 183.7 15.9 183.9 15.9 184.1 15.9 184.25 16.05 M185.0 18.5 L185.15 18.85 185.0 19.2 184.65 19.35 184.3 19.2 184.15 18.85 184.3 18.5 Q184.45 18.35 184.65 18.35 L185.0 18.5 M185.2 21.35 Q185.35 21.2 185.55 21.2 185.75 21.2 185.9 21.35 L186.05 21.7 185.9 22.05 185.55 22.2 185.2 22.05 185.05 21.7 Q185.05 21.5 185.2 21.35 M264.3 45.4 L264.15 45.75 263.8 45.9 263.45 45.75 263.3 45.4 263.45 45.05 263.8 44.9 264.15 45.05 264.3 45.4 M252.65 48.75 L252.8 49.1 252.65 49.45 252.3 49.6 Q252.1 49.6 251.95 49.45 L251.8 49.1 251.95 48.75 Q252.1 48.6 252.3 48.6 L252.65 48.75 M254.85 47.85 L255.2 47.7 Q255.4 47.7 255.55 47.85 L255.7 48.2 255.55 48.55 255.2 48.7 254.85 48.55 254.7 48.2 254.85 47.85 M257.75 46.95 L258.1 46.8 258.45 46.95 258.6 47.3 258.45 47.65 258.1 47.8 257.75 47.65 257.6 47.3 257.75 46.95 M261.0 45.9 Q261.2 45.9 261.35 46.05 L261.5 46.4 261.35 46.75 261.0 46.9 260.65 46.75 260.5 46.4 Q260.5 46.2 260.65 46.05 260.8 45.9 261.0 45.9 M249.1 49.65 Q249.25 49.5 249.45 49.5 249.65 49.5 249.8 49.65 L249.95 50.0 249.8 50.35 249.45 50.5 249.1 50.35 248.95 50.0 Q248.95 49.8 249.1 49.65 M224.95 96.35 Q225.1 96.2 225.3 96.2 225.5 96.2 225.65 96.35 L225.8 96.7 225.65 97.05 225.3 97.2 224.95 97.05 224.8 96.7 Q224.8 96.5 224.95 96.35 M221.55 93.15 L221.2 93.0 221.05 92.65 Q221.05 92.45 221.2 92.3 221.35 92.15 221.55 92.15 L221.9 92.3 222.05 92.65 221.9 93.0 221.55 93.15 M222.35 94.85 Q222.5 94.7 222.7 94.7 L223.05 94.85 223.2 95.2 223.05 95.55 222.7 95.7 222.35 95.55 222.2 95.2 222.35 94.85 M143.6 39.35 Q143.75 39.2 143.95 39.2 L144.3 39.35 144.45 39.7 144.3 40.05 143.95 40.2 143.6 40.05 143.45 39.7 143.6 39.35 M133.85 32.85 L134.2 32.7 134.55 32.85 134.7 33.2 134.55 33.55 134.2 33.7 133.85 33.55 133.7 33.2 133.85 32.85 M136.7 33.7 Q136.85 33.55 137.05 33.55 L137.4 33.7 137.55 34.05 137.4 34.4 137.05 34.55 136.7 34.4 136.55 34.05 136.7 33.7 M139.3 35.25 Q139.45 35.1 139.65 35.1 L140.0 35.25 140.15 35.6 140.0 35.95 139.65 36.1 139.3 35.95 139.15 35.6 Q139.15 35.4 139.3 35.25 M141.4 37.6 Q141.55 37.45 141.75 37.45 L142.1 37.6 142.25 37.95 142.1 38.3 141.75 38.45 141.4 38.3 141.25 37.95 Q141.25 37.75 141.4 37.6" fill="#666666" fill-rule="evenodd" stroke="none"/>
  </g>
  <defs>
    <linearGradient gradientTransform="matrix(0.0, 0.023, -0.1771, -3.0E-4, 196.35, 27.15)" gradientUnits="userSpaceOnUse" id="gradient0" spreadMethod="pad" x1="-819.2" x2="819.2">
      <stop offset="0.0" stop-color="#3ca4bd"/>
      <stop offset="1.0" stop-color="#6ccfe8"/>
    </linearGradient>
    <radialGradient cx="0" cy="0" gradientTransform="matrix(0.4425, 0.0, 0.0, 0.2419, 194.95, 160.3)" gradientUnits="userSpaceOnUse" id="gradient1" r="819.2" spreadMethod="pad">
      <stop offset="0.0" stop-color="#688241"/>
      <stop offset="0.48627450980392156" stop-color="#5f6c37"/>
      <stop offset="1.0" stop-color="#4d582c"/>
    </radialGradient>
    <linearGradient gradientTransform="matrix(0.0988, 0.0, 0.0, 0.0644, 195.35, 67.1)" gradientUnits="userSpaceOnUse" id="gradient2" spreadMethod="pad" x1="-819.2" x2="819.2">
      <stop offset="0.0" stop-color="#aeb6b3"/>
      <stop offset="0.5137254901960784" stop-color="#e6e8e6"/>
      <stop offset="1.0" stop-color="#aeb6b3"/>
    </linearGradient>
    <radialGradient cx="0" cy="0" gradientTransform="matrix(0.1014, 0.0, 0.0, 0.0684, 171.15, 44.95)" gradientUnits="userSpaceOnUse" id="gradient3" r="819.2" spreadMethod="pad">
      <stop offset="0.0" stop-color="#e6e8e6"/>
      <stop offset="1.0" stop-color="#aeb6b3"/>
    </radialGradient>
    <linearGradient gradientTransform="matrix(0.0, 0.0291, -0.0245, 0.0, 192.4, 63.4)" gradientUnits="userSpaceOnUse" id="gradient4" spreadMethod="pad" x1="-819.2" x2="819.2">
      <stop offset="0.0" stop-color="#aeb6b3"/>
      <stop offset="0.5137254901960784" stop-color="#e6e8e6"/>
      <stop offset="1.0" stop-color="#aeb6b3"/>
    </linearGradient>
    <radialGradient cx="0" cy="0" gradientTransform="matrix(0.0119, 0.0, 0.0, 0.0119, 193.0, 50.0)" gradientUnits="userSpaceOnUse" id="gradient5" r="819.2" spreadMethod="pad">
      <stop offset="0.0" stop-color="#e6e8e6"/>
      <stop offset="1.0" stop-color="#aeb6b3"/>
    </radialGradient>
  </defs>
</svg>
