<?xml version="1.0" encoding="UTF-8" standalone="no"?>
<svg xmlns:xlink="http://www.w3.org/1999/xlink" height="256.35px" width="422.85px" xmlns="http://www.w3.org/2000/svg">
  <g transform="matrix(1.0, 0.0, 0.0, 1.0, 15.1, -3.4)">
    <path d="M379.0 3.9 L407.25 3.9 407.25 47.05 Q405.15 50.1 401.6 51.25 400.7 51.5 399.9 52.0 398.9 52.7 397.7 52.45 395.0 52.3 392.95 52.5 390.85 55.25 388.1 57.5 386.45 58.9 384.25 58.6 381.7 58.05 379.3 57.05 L379.2 57.0 379.2 57.3 379.15 57.3 378.95 57.2 Q378.5 57.1 378.45 57.3 L378.2 57.6 377.1 58.65 375.0 60.7 372.6 65.25 372.55 65.05 Q371.95 65.65 371.25 65.95 L370.7 66.25 369.0 67.2 368.3 67.55 368.15 67.65 367.4 67.9 367.3 67.9 366.8 68.0 358.2 68.55 357.35 73.85 356.55 74.65 343.05 72.05 341.05 75.9 Q338.8 75.2 336.7 73.7 L333.9 72.3 329.95 70.6 Q328.25 69.85 326.55 69.5 322.75 68.55 318.95 66.25 317.2 65.1 317.65 63.35 318.5 60.1 319.45 57.6 313.7 56.95 308.5 54.9 307.0 54.4 306.05 53.2 305.15 51.95 303.95 51.25 L294.85 49.15 Q294.1 44.25 291.0 40.4 290.7 39.95 289.85 39.7 282.1 38.5 274.55 39.3 L267.65 39.7 Q261.65 39.65 255.8 38.4 253.75 37.9 251.3 38.35 L247.3 39.65 Q244.8 40.65 229.1 41.55 L210.8 42.55 205.7 42.85 187.55 42.15 168.7 41.25 166.5 41.45 161.0 40.7 156.65 40.7 Q159.1 42.85 158.85 46.2 158.8 46.7 158.35 47.0 154.45 48.95 149.7 48.25 L145.05 47.95 Q142.55 48.5 140.35 49.4 137.65 50.55 134.9 50.7 L130.15 50.5 Q125.9 50.8 123.65 46.6 122.8 45.05 121.8 44.05 114.3 46.85 106.8 46.7 101.05 46.55 96.15 50.0 L94.3 50.9 91.55 50.75 Q87.95 50.85 86.2 54.05 L85.3 55.55 Q83.4 58.2 80.15 57.95 L78.7 57.9 Q77.15 58.6 76.8 59.7 L73.95 59.5 Q69.45 57.7 68.4 52.8 67.75 49.6 64.85 48.45 L62.5 47.85 43.65 45.25 39.4 53.6 36.6 48.8 38.1 47.15 36.25 47.8 Q35.5 48.05 35.0 48.4 L31.75 47.25 29.55 46.15 28.75 45.45 26.2 43.45 Q25.5 42.95 24.15 42.35 L20.65 41.1 20.75 40.7 Q20.55 40.85 20.3 40.95 L10.7 37.5 Q6.9 44.2 2.8 50.0 1.75 51.45 0.4 52.55 -1.75 54.5 -3.6 56.9 -5.4 59.25 -6.3 62.0 -7.15 64.65 -8.75 66.7 -10.5 68.9 -10.65 71.55 -10.7 72.65 -10.25 73.9 L-9.4 76.55 -9.4 76.3 Q-6.1 78.85 -2.7 80.8 -1.95 81.2 -1.5 81.65 0.0 82.85 1.9 82.3 L2.0 82.6 Q0.2 84.6 0.6 87.4 L-0.15 86.85 -1.8 85.85 Q-4.8 85.0 -7.25 86.7 L-7.25 86.95 Q-8.55 89.6 -7.6 91.3 L-6.75 92.4 -7.25 93.0 -6.85 95.2 -8.75 94.7 -14.6 94.85 -14.6 3.9 10.5 3.9 13.85 3.9 45.35 3.9 56.8 3.9 59.35 3.9 87.1 3.9 90.05 3.9 97.35 3.9 100.15 3.9 158.35 3.9 204.35 3.9 266.3 3.9 266.3 5.65 Q264.65 5.1 264.55 12.1 264.45 19.05 259.9 19.3 264.45 19.05 264.55 12.1 264.65 5.1 266.3 5.65 L266.85 3.9 271.15 3.9 275.85 3.9 320.75 3.9 334.0 3.9 345.9 3.9 379.0 3.9 Q380.7 7.0 382.25 25.75 L382.4 28.55 382.25 25.75 Q380.7 7.0 379.0 3.9 M365.55 5.4 Q365.8 6.45 366.05 20.0 366.5 26.6 366.6 34.8 366.5 26.6 366.05 20.0 365.8 6.45 365.55 5.4 M368.15 49.05 Q368.55 44.5 366.85 40.15 368.55 44.5 368.15 49.05 M370.85 47.45 Q370.8 44.35 369.75 41.1 L367.15 33.7 369.75 41.1 Q370.8 44.35 370.85 47.45 M365.5 36.9 L364.8 36.9 364.45 41.15 366.85 40.15 366.0 38.25 365.5 36.9 M346.95 32.25 L347.45 29.6 Q348.05 25.7 347.6 16.75 347.15 7.25 345.9 3.9 347.15 7.25 347.6 16.75 348.05 25.7 347.45 29.6 L346.95 32.25 M390.35 47.45 Q393.85 42.15 393.85 35.65 393.8 27.35 389.85 19.95 393.8 27.35 393.85 35.65 393.85 42.15 390.35 47.45 M361.8 5.4 Q363.5 10.6 364.75 32.15 L364.8 36.9 364.75 32.15 Q363.5 10.6 361.8 5.4 M333.8 21.05 Q333.6 22.65 332.9 24.05 331.25 27.75 330.2 31.65 329.35 34.7 327.7 37.05 L326.8 38.4 323.75 42.7 Q320.85 46.3 320.6 50.65 320.85 46.3 323.75 42.7 L326.8 38.4 327.7 37.05 Q329.35 34.7 330.2 31.65 331.25 27.75 332.9 24.05 333.6 22.65 333.8 21.05 M324.2 54.95 Q322.85 50.15 325.2 45.7 L331.7 34.0 332.7 32.2 334.1 28.7 Q335.2 25.35 335.2 16.35 335.15 7.3 334.0 3.9 335.15 7.3 335.2 16.35 335.2 25.35 334.1 28.7 L332.7 32.2 331.7 34.0 325.2 45.7 Q322.85 50.15 324.2 54.95 M337.5 64.9 Q335.5 59.8 335.4 54.35 L335.65 51.75 Q336.4 48.3 337.45 44.8 338.6 41.2 335.95 37.95 338.6 41.2 337.45 44.8 336.4 48.3 335.65 51.75 L335.4 54.35 Q335.5 59.8 337.5 64.9 M344.35 47.45 L345.0 46.6 Q347.8 42.95 347.55 38.45 347.8 42.95 345.0 46.6 L344.35 47.45 M333.8 32.65 Q334.8 35.7 334.9 39.4 334.9 41.1 334.45 42.65 331.9 51.25 334.85 59.6 331.9 51.25 334.45 42.65 334.9 41.1 334.9 39.4 334.8 35.7 333.8 32.65 M360.8 58.55 Q360.9 56.3 361.7 54.3 L362.65 52.4 Q365.2 48.05 366.6 43.75 365.2 48.05 362.65 52.4 L361.7 54.3 Q360.9 56.3 360.8 58.55 M356.5 59.1 Q363.15 51.55 364.45 41.15 363.15 51.55 356.5 59.1 M308.95 19.45 Q309.55 21.2 309.3 23.1 308.2 31.8 302.65 39.0 308.2 31.8 309.3 23.1 309.55 21.2 308.95 19.45 M320.6 22.6 Q321.05 20.8 321.1 13.25 321.15 5.8 320.75 3.9 321.15 5.8 321.1 13.25 321.05 20.8 320.6 22.6 M288.3 32.65 L288.8 31.9 Q291.4 27.4 290.45 22.1 291.4 27.4 288.8 31.9 L288.3 32.65 M283.05 34.8 L285.15 35.05 288.35 35.2 Q290.95 34.7 292.45 36.5 295.7 40.5 295.75 45.9 295.7 40.5 292.45 36.5 290.95 34.7 288.35 35.2 L285.15 35.05 283.05 34.8 M297.85 43.75 L304.65 30.5 Q307.2 25.55 304.7 20.5 307.2 25.55 304.65 30.5 L297.85 43.75 M276.7 25.25 Q277.3 23.1 277.2 15.3 277.05 7.45 276.3 5.35 L275.85 3.9 276.3 5.35 Q277.05 7.45 277.2 15.3 277.3 23.1 276.7 25.25 M271.35 29.05 Q272.5 28.3 273.15 27.2 273.85 25.85 273.65 24.8 L272.7 14.45 Q271.9 5.85 271.15 3.9 271.9 5.85 272.7 14.45 L273.65 24.8 Q273.85 25.85 273.15 27.2 272.5 28.3 271.35 29.05 M205.0 25.35 Q201.6 20.25 203.2 4.9 201.6 20.25 205.0 25.35 M322.2 57.0 L321.3 59.15 Q320.2 62.75 322.2 64.9 320.2 62.75 321.3 59.15 L322.2 57.0 M209.05 28.2 Q209.0 23.75 208.25 14.7 207.45 5.65 206.55 4.35 207.45 5.65 208.25 14.7 209.0 23.75 209.05 28.2 M156.1 24.3 Q158.0 23.45 156.3 19.9 154.6 16.35 156.5 10.6 158.35 4.85 158.35 3.9 158.35 4.85 156.5 10.6 154.6 16.35 156.3 19.9 158.0 23.45 156.1 24.3 M150.35 36.9 Q151.8 38.7 153.0 41.1 154.1 43.15 153.55 44.3 152.65 46.0 150.35 45.85 152.65 46.0 153.55 44.3 154.1 43.15 153.0 41.1 151.8 38.7 150.35 36.9 M155.65 26.3 L155.55 28.4 Q155.2 32.55 156.2 36.35 155.2 32.55 155.55 28.4 L155.65 26.3 M99.0 35.4 Q97.65 29.1 98.15 23.0 98.3 21.65 97.9 19.9 97.7 19.1 97.55 12.05 L97.35 3.9 97.55 12.05 Q97.7 19.1 97.9 19.9 98.3 21.65 98.15 23.0 97.65 29.1 99.0 35.4 M126.0 25.25 L130.75 17.35 126.0 25.25 M154.05 38.45 L152.95 36.0 Q150.8 30.85 150.85 25.25 150.8 30.85 152.95 36.0 L154.05 38.45 M81.1 40.6 Q80.05 34.0 82.9 27.5 83.6 25.8 84.9 23.75 86.05 22.0 86.75 13.95 87.35 6.9 87.1 3.9 87.35 6.9 86.75 13.95 86.05 22.0 84.9 23.75 83.6 25.8 82.9 27.5 80.05 34.0 81.1 40.6 M85.3 35.85 L90.05 42.15 85.3 35.85 M85.8 44.9 Q83.95 40.4 84.15 35.85 84.3 32.15 85.7 28.7 86.45 26.7 87.0 24.35 L88.3 14.25 Q89.25 5.7 90.05 3.9 89.25 5.7 88.3 14.25 L87.0 24.35 Q86.45 26.7 85.7 28.7 84.3 32.15 84.15 35.85 83.95 40.4 85.8 44.9 M119.15 22.1 L116.15 25.9 Q111.25 32.55 111.75 40.6 111.25 32.55 116.15 25.9 L119.15 22.1 M109.1 40.6 L109.0 37.95 Q108.95 27.15 116.6 19.6 108.95 27.15 109.0 37.95 L109.1 40.6 M50.45 32.15 Q50.0 27.0 51.3 18.35 52.8 8.55 55.35 5.5 L56.8 3.9 55.35 5.5 Q52.8 8.55 51.3 18.35 50.0 27.0 50.45 32.15 M53.55 37.0 L53.2 36.2 Q51.8 29.85 54.85 23.95 L59.35 3.9 54.85 23.95 Q59.05 27.35 58.9 32.75 58.85 37.7 61.45 41.75 58.85 37.7 58.9 32.75 59.05 27.35 54.85 23.95 51.8 29.85 53.2 36.2 L53.55 37.0 M44.0 22.7 L43.95 20.95 44.25 12.35 Q44.7 5.05 45.35 3.9 44.7 5.05 44.25 12.35 L43.95 20.95 44.0 22.7 M1.25 28.95 L1.2 26.1 Q1.25 21.85 2.05 15.25 3.05 6.8 4.4 4.85 3.05 6.8 2.05 15.25 1.25 21.85 1.2 26.1 L1.25 28.95 M10.8 30.55 Q12.6 26.65 12.5 17.15 12.4 7.65 10.5 3.9 12.4 7.65 12.5 17.15 12.6 26.65 10.8 30.55 M12.8 32.75 Q14.55 30.9 15.2 28.55 16.2 25.0 15.8 16.15 15.4 7.0 13.85 3.9 15.4 7.0 15.8 16.15 16.2 25.0 15.2 28.55 14.55 30.9 12.8 32.75 M-3.5 34.25 L-2.4 35.25 -4.55 37.95 -2.4 35.25 -3.5 34.25 M-0.85 36.35 L-1.8 35.75 -2.4 35.25 -1.75 34.4 -2.4 35.25 -1.8 35.75 -0.85 36.35" fill="url(#gradient0)" fill-rule="evenodd" stroke="none"/>
    <path d="M405.7 67.0 L405.05 67.75 Q403.65 68.45 403.6 69.65 403.65 68.45 405.05 67.75 L405.7 67.0 M407.25 47.05 L407.25 83.25 Q401.9 83.25 397.3 85.75 396.75 85.95 396.65 86.8 L396.6 88.7 Q396.75 93.6 391.65 94.7 388.65 95.45 386.75 97.65 L383.05 95.15 Q379.45 90.7 373.85 92.95 L371.1 93.9 370.05 93.55 Q367.0 92.2 364.75 89.5 363.9 88.5 362.5 88.2 355.45 87.25 351.8 81.1 351.4 80.4 351.55 79.9 L351.6 79.85 356.55 74.65 357.35 73.85 358.2 68.55 366.8 68.0 367.45 67.95 367.4 67.9 368.15 67.65 368.3 67.55 369.0 67.2 370.7 66.25 371.25 65.95 Q371.95 65.65 372.55 65.05 L372.6 65.25 375.0 60.7 377.1 58.65 378.2 57.6 378.45 57.3 Q378.5 57.1 378.95 57.2 L379.15 57.3 379.2 57.45 379.2 57.3 379.2 57.0 379.3 57.05 Q381.7 58.05 384.25 58.6 386.45 58.9 388.1 57.5 390.85 55.25 392.95 52.5 395.0 52.3 397.7 52.45 398.9 52.7 399.9 52.0 400.7 51.5 401.6 51.25 405.15 50.1 407.25 47.05 M360.25 75.45 Q359.8 75.45 359.45 75.7 357.0 78.15 355.5 81.3 357.0 78.15 359.45 75.7 359.8 75.45 360.25 75.45 M385.05 63.85 Q388.4 65.65 389.7 69.2 384.15 72.3 384.15 78.65 384.15 82.75 380.85 85.0 384.15 82.75 384.15 78.65 384.15 72.3 389.7 69.2 388.4 65.65 385.05 63.85 M365.55 76.0 L365.95 77.1 364.5 78.65 365.95 77.1 365.55 76.0 M367.15 78.65 L366.65 78.1 365.95 77.1 366.65 76.05 367.15 75.45 366.65 76.05 365.95 77.1 366.65 78.1 367.15 78.65 M385.65 90.8 Q383.5 89.55 380.85 89.15 379.2 88.9 377.9 88.3 376.45 87.6 375.45 89.1 374.75 90.05 373.95 90.1 370.2 90.45 367.15 87.65 370.2 90.45 373.95 90.1 374.75 90.05 375.45 89.1 376.45 87.6 377.9 88.3 379.2 88.9 380.85 89.15 383.5 89.55 385.65 90.8" fill="url(#gradient1)" fill-rule="evenodd" stroke="none"/>
    <path d="M379.2 57.3 L379.2 57.45 379.15 57.3 379.2 57.3 M367.4 67.9 L367.45 67.95 366.8 68.0 367.3 67.9 367.4 67.9 M356.55 74.65 L351.6 79.85 351.55 79.9 Q351.4 80.4 351.8 81.1 355.45 87.25 362.5 88.2 363.9 88.5 364.75 89.5 367.0 92.2 370.05 93.55 L371.1 93.9 373.85 92.95 Q379.45 90.7 383.05 95.15 L386.75 97.65 386.35 98.1 Q384.85 100.15 385.0 102.65 L385.0 103.0 385.3 104.05 385.35 104.25 Q387.05 104.75 388.2 105.7 392.65 109.1 397.15 106.15 398.85 105.15 400.35 105.35 403.9 105.45 407.25 107.15 L407.25 190.9 406.3 190.0 406.3 210.8 401.95 212.25 Q396.9 213.0 392.35 215.35 391.85 215.7 391.75 216.45 L390.75 223.4 390.35 225.4 Q389.2 229.3 385.95 231.45 384.5 232.35 382.85 232.65 375.25 234.05 369.1 238.45 368.5 238.9 368.25 239.65 366.9 244.0 363.7 247.35 361.6 249.45 358.9 250.55 349.7 254.0 340.4 258.55 339.15 259.1 338.2 259.75 L81.1 259.75 75.95 256.7 Q74.9 256.1 74.35 254.95 L73.5 254.1 Q70.95 252.75 69.75 250.4 69.25 249.4 68.15 249.15 L56.6 247.85 54.4 247.3 Q53.1 247.05 52.45 246.05 51.6 244.6 50.35 243.6 L45.55 241.65 38.95 240.55 32.6 240.25 32.3 240.35 Q29.5 241.3 26.05 240.9 L25.0 240.8 16.35 239.6 Q13.2 239.4 10.65 237.35 5.05 232.85 0.1 227.55 -1.5 225.8 -3.7 226.55 L-7.35 227.6 Q-8.0 227.65 -8.65 228.25 L-9.2 228.6 -14.6 227.25 -14.6 94.85 -8.75 94.7 -6.85 95.2 -7.25 93.0 -6.75 92.4 Q-5.3 93.8 -3.05 93.75 L1.95 93.2 5.4 93.55 Q5.95 91.3 4.25 89.7 3.75 89.1 2.65 88.45 L0.6 87.4 Q0.2 84.6 2.0 82.6 L2.55 82.05 2.0 82.6 1.9 82.3 2.55 82.05 3.45 81.75 Q9.25 79.65 14.1 77.2 16.55 76.05 18.85 76.85 21.25 77.85 23.3 79.4 25.6 81.25 28.45 80.2 34.2 78.05 39.65 75.2 43.35 73.25 46.6 71.9 L47.35 71.2 Q48.15 69.5 47.15 67.9 51.3 66.4 56.0 67.45 58.4 68.15 60.95 68.05 L62.95 67.7 Q70.1 66.2 77.6 65.75 79.2 62.55 76.1 60.65 L76.0 60.6 73.95 59.5 76.8 59.7 Q77.15 58.6 78.7 57.9 L80.15 57.95 Q83.4 58.2 85.3 55.55 L86.2 54.05 Q87.95 50.85 91.55 50.75 L94.3 50.9 96.15 50.0 Q101.05 46.55 106.8 46.7 114.3 46.85 121.8 44.05 122.8 45.05 123.65 46.6 125.9 50.8 130.15 50.5 L134.9 50.7 Q137.65 50.55 140.35 49.4 142.55 48.5 145.05 47.95 L149.7 48.25 Q154.45 48.95 158.35 47.0 158.8 46.7 158.85 46.2 159.1 42.85 156.65 40.7 L161.0 40.7 166.5 41.45 168.7 41.25 187.55 42.15 205.7 42.85 210.8 42.55 229.1 41.55 Q244.8 40.65 247.3 39.65 L251.3 38.35 Q253.75 37.9 255.8 38.4 261.65 39.65 267.65 39.7 L274.55 39.3 Q282.1 38.5 289.85 39.7 290.7 39.95 291.0 40.4 294.1 44.25 294.85 49.15 L303.95 51.25 Q305.15 51.95 306.05 53.2 307.0 54.4 308.5 54.9 313.7 56.95 319.45 57.6 318.5 60.1 317.65 63.35 317.2 65.1 318.95 66.25 322.75 68.55 326.55 69.5 328.25 69.85 329.95 70.6 L333.9 72.3 336.7 73.7 Q338.8 75.2 341.05 75.9 L343.05 72.05 356.55 74.65 M266.3 3.9 L266.85 3.9 266.3 5.65 266.3 3.9 M364.8 36.9 L365.5 36.9 366.0 38.25 366.85 40.15 364.45 41.15 364.8 36.9 M351.55 79.9 L351.55 79.85 351.6 79.85 351.55 79.85 351.55 79.9 M394.15 119.2 L396.7 119.45 397.2 119.35 398.5 117.6 396.25 114.5 Q392.65 114.15 389.45 116.15 391.75 118.85 394.15 119.2 M378.1 105.1 L377.25 104.6 Q374.3 101.0 369.35 100.75 L368.2 100.1 Q366.55 98.7 364.5 98.0 359.1 96.4 355.7 101.15 354.7 102.6 353.2 103.4 L345.95 107.2 Q354.6 109.8 363.4 109.85 366.1 109.85 368.5 110.65 371.0 111.35 372.85 110.2 L374.45 108.75 Q375.85 107.1 377.8 106.45 L378.1 105.1 M328.15 102.05 L326.4 97.15 Q320.6 98.95 319.5 102.45 322.3 104.3 325.3 104.05 327.2 103.65 328.15 102.05 M352.3 154.9 L351.25 154.45 Q349.0 153.6 347.55 154.4 349.0 153.6 351.25 154.45 L352.3 154.9 M326.95 183.0 L326.4 182.7 Q324.65 182.55 323.25 183.55 324.65 182.55 326.4 182.7 L326.95 183.0 M349.75 152.25 L347.1 152.25 349.75 152.25 M256.65 66.6 L253.45 65.55 256.65 66.6 M256.1 63.95 L253.45 63.95 256.1 63.95 M166.35 45.8 Q162.9 46.4 161.7 49.8 L161.05 50.8 Q160.85 51.0 161.95 52.25 L162.25 52.6 Q165.05 56.0 169.45 54.25 171.35 53.45 172.75 51.85 171.0 48.15 167.6 46.15 L166.35 45.8 M218.75 142.6 L217.2 141.95 216.65 141.55 217.2 141.95 218.75 142.6 M219.9 139.05 Q218.8 139.85 217.15 139.45 218.8 139.85 219.9 139.05 M318.5 128.35 L314.25 128.35 318.5 128.35 M317.45 126.7 L314.25 126.2 317.45 126.7 M252.6 116.7 L247.3 116.7 252.6 116.7 M252.05 113.55 L251.05 113.7 247.3 114.05 251.05 113.7 252.05 113.55 M92.2 73.9 L90.8 70.3 Q85.25 68.75 80.95 72.2 84.95 74.1 89.1 74.0 L92.2 73.9 M124.45 64.5 L121.8 64.45 124.45 64.5 M124.05 62.55 L122.55 63.05 124.05 62.55 M35.0 48.4 Q35.5 48.05 36.25 47.8 L38.1 47.15 36.6 48.8 35.0 48.4 M20.3 40.95 Q20.55 40.85 20.75 40.7 L20.65 41.1 20.3 40.95 M54.15 115.65 L53.1 115.7 Q50.55 115.9 50.95 116.15 50.55 115.9 53.1 115.7 L54.15 115.65 M55.75 109.55 L50.95 109.55 55.75 109.55 M4.95 180.85 L2.35 180.85 4.95 180.85 M80.45 156.5 L78.3 156.5 80.45 156.5 M4.45 177.8 L2.35 177.8 4.45 177.8 M78.9 159.15 L77.8 158.75 76.25 158.6 77.8 158.75 78.9 159.15 M277.25 203.65 L276.15 203.15 Q273.9 202.3 271.95 203.1 273.9 202.3 276.15 203.15 L277.25 203.65 M324.85 180.4 L323.75 180.4 324.85 180.4 M275.15 200.45 L274.15 200.3 Q272.55 200.6 272.5 199.95 272.55 200.6 274.15 200.3 L275.15 200.45" fill="url(#gradient2)" fill-rule="evenodd" stroke="none"/>
    <path d="M386.75 97.65 Q388.65 95.45 391.65 94.7 396.75 93.6 396.6 88.7 L396.65 86.8 Q396.75 85.95 397.3 85.75 401.9 83.25 407.25 83.25 L407.25 107.15 Q403.9 105.45 400.35 105.35 398.85 105.15 397.15 106.15 392.65 109.1 388.2 105.7 387.05 104.75 385.35 104.25 L385.3 104.05 385.0 103.0 385.0 102.65 Q384.85 100.15 386.35 98.1 L386.75 97.65 M403.6 86.55 L403.25 87.15 Q402.45 90.05 399.95 91.4 399.1 91.95 398.8 92.6 398.6 93.1 398.7 93.95 398.95 95.45 397.3 96.2 395.75 96.9 394.05 96.95 389.2 97.25 388.8 101.9 389.2 97.25 394.05 96.95 395.75 96.9 397.3 96.2 398.95 95.45 398.7 93.95 398.6 93.1 398.8 92.6 399.1 91.95 399.95 91.4 402.45 90.05 403.25 87.15 L403.6 86.55" fill="url(#gradient3)" fill-rule="evenodd" stroke="none"/>
    <path d="M394.15 119.2 Q391.75 118.85 389.45 116.15 392.65 114.15 396.25 114.5 L398.5 117.6 397.2 119.35 396.7 119.45 394.15 119.2" fill="url(#gradient4)" fill-rule="evenodd" stroke="none"/>
    <path d="M378.1 105.1 L377.8 106.45 Q375.85 107.1 374.45 108.75 L372.85 110.2 Q371.0 111.35 368.5 110.65 366.1 109.85 363.4 109.85 354.6 109.8 345.95 107.2 L353.2 103.4 Q354.7 102.6 355.7 101.15 359.1 96.4 364.5 98.0 366.55 98.7 368.2 100.1 L369.35 100.75 Q374.3 101.0 377.25 104.6 L378.1 105.1 M368.6 105.1 L367.75 103.9 368.6 102.85 369.25 101.9 368.6 102.85 367.75 103.9 368.6 105.1 M366.6 102.95 L367.75 103.9 367.15 104.55 367.75 103.9 366.6 102.95 M363.45 101.35 Q361.55 100.3 360.3 100.95 L359.8 101.4 Q357.25 105.4 352.85 106.15 357.25 105.4 359.8 101.4 L360.3 100.95 Q361.55 100.3 363.45 101.35" fill="url(#gradient5)" fill-rule="evenodd" stroke="none"/>
    <path d="M328.15 102.05 Q327.2 103.65 325.3 104.05 322.3 104.3 319.5 102.45 320.6 98.95 326.4 97.15 L328.15 102.05" fill="url(#gradient6)" fill-rule="evenodd" stroke="none"/>
    <path d="M406.3 210.8 L407.25 210.4 407.25 259.75 338.2 259.75 Q339.15 259.1 340.4 258.55 349.7 254.0 358.9 250.55 361.6 249.45 363.7 247.35 366.9 244.0 368.25 239.65 368.5 238.9 369.1 238.45 375.25 234.05 382.85 232.65 384.5 232.35 385.95 231.45 389.2 229.3 390.35 225.4 L390.75 223.4 391.75 216.45 Q391.85 215.7 392.35 215.35 396.9 213.0 401.95 212.25 L406.3 210.8" fill="url(#gradient7)" fill-rule="evenodd" stroke="none"/>
    <path d="M166.35 45.8 L167.6 46.15 Q171.0 48.15 172.75 51.85 171.35 53.45 169.45 54.25 165.05 56.0 162.25 52.6 L161.95 52.25 Q160.85 51.0 161.05 50.8 L161.7 49.8 Q162.9 46.4 166.35 45.8 M169.9 51.15 L169.55 50.6 Q168.8 48.75 166.75 48.0 168.8 48.75 169.55 50.6 L169.9 51.15" fill="url(#gradient8)" fill-rule="evenodd" stroke="none"/>
    <path d="M92.2 73.9 L89.1 74.0 Q84.95 74.1 80.95 72.2 85.25 68.75 90.8 70.3 L92.2 73.9" fill="url(#gradient9)" fill-rule="evenodd" stroke="none"/>
    <path d="M73.95 59.5 L76.0 60.6 76.1 60.65 Q79.2 62.55 77.6 65.75 70.1 66.2 62.95 67.7 L60.95 68.05 Q58.4 68.15 56.0 67.45 51.3 66.4 47.15 67.9 41.25 62.0 39.5 53.8 L39.4 53.6 43.65 45.25 62.5 47.85 64.85 48.45 Q67.75 49.6 68.4 52.8 69.45 57.7 73.95 59.5 M65.75 60.15 Q62.55 61.2 62.45 57.5 62.45 54.95 65.15 54.55 62.55 53.7 61.0 52.75 62.55 53.7 65.15 54.55 62.45 54.95 62.45 57.5 62.55 61.2 65.75 60.15 M59.4 61.75 L52.0 58.55 52.65 57.4 Q55.0 53.3 59.4 51.7 55.0 53.3 52.65 57.4 L52.0 58.55 59.4 61.75 M55.2 49.55 L54.65 49.55 46.75 49.05 54.65 49.55 55.2 49.55" fill="url(#gradient10)" fill-rule="evenodd" stroke="none"/>
    <path d="M47.15 67.9 Q48.15 69.5 47.35 71.2 L46.6 71.9 Q43.35 73.25 39.65 75.2 34.2 78.05 28.45 80.2 25.6 81.25 23.3 79.4 21.25 77.85 18.85 76.85 16.55 76.05 14.1 77.2 9.25 79.65 3.45 81.75 L2.55 82.05 1.9 82.3 Q0.0 82.85 -1.5 81.65 -1.95 81.2 -2.7 80.8 -6.1 78.85 -9.4 76.3 L-9.4 76.55 -10.25 73.9 Q-10.7 72.65 -10.65 71.55 -10.5 68.9 -8.75 66.7 -7.15 64.65 -6.3 62.0 -5.4 59.25 -3.6 56.9 -1.75 54.5 0.4 52.55 1.75 51.45 2.8 50.0 6.9 44.2 10.7 37.5 L20.3 40.95 20.65 41.1 24.15 42.35 Q25.5 42.95 26.2 43.45 L28.75 45.45 29.55 46.15 31.75 47.25 35.0 48.4 36.6 48.8 39.4 53.6 39.5 53.8 Q41.25 62.0 47.15 67.9 M24.55 48.0 L24.0 47.45 22.85 46.75 Q18.6 45.6 15.55 42.7 18.6 45.6 22.85 46.75 L24.0 47.45 24.55 48.0 M43.55 66.5 Q41.6 65.25 40.95 63.3 40.45 61.5 39.3 60.05 36.45 56.3 35.65 52.2 36.45 56.3 39.3 60.05 40.45 61.5 40.95 63.3 41.6 65.25 43.55 66.5 M6.05 56.95 Q5.2 56.95 4.75 56.2 L6.05 54.35 4.75 56.2 Q5.2 56.95 6.05 56.95 M3.4 54.85 Q3.7 53.95 4.55 55.85 L4.75 56.2 3.4 57.5 4.75 56.2 4.55 55.85 Q3.7 53.95 3.4 54.85 M34.05 54.35 L33.75 54.9 Q33.6 56.0 32.45 55.9 33.6 56.0 33.75 54.9 L34.05 54.35 M20.3 70.2 L18.95 60.2 31.9 49.6 18.95 60.2 20.3 70.2" fill="url(#gradient11)" fill-rule="evenodd" stroke="none"/>
    <path d="M0.6 87.4 L2.65 88.45 Q3.75 89.1 4.25 89.7 5.95 91.3 5.4 93.55 L1.95 93.2 -3.05 93.75 Q-5.3 93.8 -6.75 92.4 L-7.6 91.3 Q-8.55 89.6 -7.25 86.95 L-7.25 86.7 Q-4.8 85.0 -1.8 85.85 L-0.15 86.85 0.6 87.4" fill="url(#gradient12)" fill-rule="evenodd" stroke="none"/>
    <path d="M81.1 259.75 L-14.6 259.75 -14.6 227.25 -9.2 228.6 -8.65 228.25 Q-8.0 227.65 -7.35 227.6 L-3.7 226.55 Q-1.5 225.8 0.1 227.55 5.05 232.85 10.65 237.35 13.2 239.4 16.35 239.6 L25.0 240.8 26.05 240.9 Q29.5 241.3 32.3 240.35 L32.6 240.25 38.95 240.55 45.55 241.65 50.35 243.6 Q51.6 244.6 52.45 246.05 53.1 247.05 54.4 247.3 L56.6 247.85 68.15 249.15 Q69.25 249.4 69.75 250.4 70.95 252.75 73.5 254.1 L74.35 254.95 Q74.9 256.1 75.95 256.7 L81.1 259.75" fill="url(#gradient13)" fill-rule="evenodd" stroke="none"/>
    <path d="M379.0 3.9 Q380.7 7.0 382.25 25.75 L382.4 28.55 M407.25 47.05 Q405.15 50.1 401.6 51.25 400.7 51.5 399.9 52.0 398.9 52.7 397.7 52.45 395.0 52.3 392.95 52.5 390.85 55.25 388.1 57.5 386.45 58.9 384.25 58.6 381.7 58.05 379.3 57.05 L379.2 57.0 379.2 57.3 379.2 57.45 379.15 57.3 378.95 57.2 Q378.5 57.1 378.45 57.3 L378.2 57.6 377.1 58.65 375.0 60.7 372.6 65.25 372.55 65.05 Q371.95 65.65 371.25 65.95 L370.7 66.25 369.0 67.2 368.3 67.55 368.15 67.65 367.4 67.9 367.45 67.95 366.8 68.0 M351.6 79.85 L351.55 79.9 M366.85 40.15 Q368.55 44.5 368.15 49.05 M364.8 36.9 L364.45 41.15 Q363.15 51.55 356.5 59.1 M366.85 40.15 L366.0 38.25 365.5 36.9 M364.8 36.9 L364.75 32.15 Q363.5 10.6 361.8 5.4 M389.85 19.95 Q393.8 27.35 393.85 35.65 393.85 42.15 390.35 47.45 M345.9 3.9 Q347.15 7.25 347.6 16.75 348.05 25.7 347.45 29.6 L346.95 32.25 M334.0 3.9 Q335.15 7.3 335.2 16.35 335.2 25.35 334.1 28.7 L332.7 32.2 331.7 34.0 325.2 45.7 Q322.85 50.15 324.2 54.95 M334.85 59.6 Q331.9 51.25 334.45 42.65 334.9 41.1 334.9 39.4 334.8 35.7 333.8 32.65 M347.55 38.45 Q347.8 42.95 345.0 46.6 L344.35 47.45 M2.55 82.05 L2.0 82.6 M351.6 79.85 L351.55 79.85 351.55 79.9 M380.85 85.0 Q384.15 82.75 384.15 78.65 384.15 72.3 389.7 69.2 388.4 65.65 385.05 63.85 M379.2 57.3 L379.15 57.3 M367.4 67.9 L367.3 67.9 366.8 68.0 M290.45 22.1 Q291.4 27.4 288.8 31.9 L288.3 32.65 M304.7 20.5 Q307.2 25.55 304.65 30.5 L297.85 43.75 M266.3 5.65 Q264.65 5.1 264.55 12.1 264.45 19.05 259.9 19.3 M266.85 3.9 L266.3 5.65 M271.15 3.9 Q271.9 5.85 272.7 14.45 L273.65 24.8 Q273.85 25.85 273.15 27.2 272.5 28.3 271.35 29.05 M206.55 4.35 Q207.45 5.65 208.25 14.7 209.0 23.75 209.05 28.2 M158.35 3.9 Q158.35 4.85 156.5 10.6 154.6 16.35 156.3 19.9 158.0 23.45 156.1 24.3 M150.85 25.25 Q150.8 30.85 152.95 36.0 L154.05 38.45 M130.75 17.35 L126.0 25.25 M97.35 3.9 L97.55 12.05 Q97.7 19.1 97.9 19.9 98.3 21.65 98.15 23.0 97.65 29.1 99.0 35.4 M90.05 3.9 Q89.25 5.7 88.3 14.25 L87.0 24.35 Q86.45 26.7 85.7 28.7 84.3 32.15 84.15 35.85 83.95 40.4 85.8 44.9 M90.05 42.15 L85.3 35.85 M45.35 3.9 Q44.7 5.05 44.25 12.35 L43.95 20.95 44.0 22.7 M59.35 3.9 L54.85 23.95 Q59.05 27.35 58.9 32.75 58.85 37.7 61.45 41.75 M54.85 23.95 Q51.8 29.85 53.2 36.2 L53.55 37.0 M39.4 53.6 L39.5 53.8 Q41.25 62.0 47.15 67.9 M4.4 4.85 Q3.05 6.8 2.05 15.25 1.25 21.85 1.2 26.1 L1.25 28.95 M13.85 3.9 Q15.4 7.0 15.8 16.15 16.2 25.0 15.2 28.55 14.55 30.9 12.8 32.75 M20.65 41.1 L24.15 42.35 Q25.5 42.95 26.2 43.45 L28.75 45.45 29.55 46.15 31.75 47.25 35.0 48.4 M36.6 48.8 L39.4 53.6 M20.65 41.1 L20.3 40.95 10.7 37.5 Q6.9 44.2 2.8 50.0 1.75 51.45 0.4 52.55 -1.75 54.5 -3.6 56.9 -5.4 59.25 -6.3 62.0 -7.15 64.65 -8.75 66.7 -10.5 68.9 -10.65 71.55 -10.7 72.65 -10.25 73.9 L-9.4 76.55 -9.4 76.3 Q-6.1 78.85 -2.7 80.8 -1.95 81.2 -1.5 81.65 0.0 82.85 1.9 82.3 L2.55 82.05 M36.6 48.8 L35.0 48.4 M31.9 49.6 L18.95 60.2 20.3 70.2 M59.4 51.7 Q55.0 53.3 52.65 57.4 L52.0 58.55 59.4 61.75 M45.55 241.65 L50.35 243.6 M32.3 240.35 L32.6 240.25" fill="none" stroke="#2e1e1b" stroke-linecap="round" stroke-linejoin="round" stroke-width="1.0"/>
    <path d="M403.6 69.65 Q403.65 68.45 405.05 67.75 L405.7 67.0 M367.15 75.45 L366.65 76.05 365.95 77.1 366.65 78.1 367.15 78.65 M364.5 78.65 L365.95 77.1 365.55 76.0 M367.15 104.55 L367.75 103.9 366.6 102.95 M369.25 101.9 L368.6 102.85 367.75 103.9 368.6 105.1 M347.1 152.25 L349.75 152.25 M253.45 63.95 L256.1 63.95 M217.15 139.45 Q218.8 139.85 219.9 139.05 M314.25 126.2 L317.45 126.7 M247.3 114.05 L251.05 113.7 252.05 113.55 M122.55 63.05 L124.05 62.55 M32.45 55.9 Q33.6 56.0 33.75 54.9 L34.05 54.35 M3.4 57.5 L4.75 56.2 4.55 55.85 Q3.7 53.95 3.4 54.85 M6.05 54.35 L4.75 56.2 Q5.2 56.95 6.05 56.95 M50.95 109.55 L55.75 109.55 M2.35 177.8 L4.45 177.8 M78.3 156.5 L80.45 156.5 M272.5 199.95 Q272.55 200.6 274.15 200.3 L275.15 200.45 M323.75 180.4 L324.85 180.4 M-1.75 34.4 L-2.4 35.25 -1.8 35.75 -0.85 36.35 M-4.55 37.95 L-2.4 35.25 -3.5 34.25" fill="none" stroke="#a3938a" stroke-linecap="round" stroke-linejoin="round" stroke-width="0.05"/>
    <path d="M323.25 183.55 Q324.65 182.55 326.4 182.7 L326.95 183.0 M347.55 154.4 Q349.0 153.6 351.25 154.45 L352.3 154.9 M253.45 65.55 L256.65 66.6 M216.65 141.55 L217.2 141.95 218.75 142.6 M314.25 128.35 L318.5 128.35 M247.3 116.7 L252.6 116.7 M121.8 64.45 L124.45 64.5 M50.95 116.15 Q50.55 115.9 53.1 115.7 L54.15 115.65 M2.35 180.85 L4.95 180.85 M76.25 158.6 L77.8 158.75 78.9 159.15 M271.95 203.1 Q273.9 202.3 276.15 203.15 L277.25 203.65" fill="none" stroke="#2e1e1b" stroke-linecap="round" stroke-linejoin="round" stroke-width="0.05"/>
    <path d="M366.6 34.8 Q366.5 26.6 366.05 20.0 365.8 6.45 365.55 5.4 M367.15 33.7 L369.75 41.1 Q370.8 44.35 370.85 47.45 M320.6 50.65 Q320.85 46.3 323.75 42.7 L326.8 38.4 327.7 37.05 Q329.35 34.7 330.2 31.65 331.25 27.75 332.9 24.05 333.6 22.65 333.8 21.05 M335.95 37.95 Q338.6 41.2 337.45 44.8 336.4 48.3 335.65 51.75 L335.4 54.35 Q335.5 59.8 337.5 64.9 M366.6 43.75 Q365.2 48.05 362.65 52.4 L361.7 54.3 Q360.9 56.3 360.8 58.55 M355.5 81.3 Q357.0 78.15 359.45 75.7 359.8 75.45 360.25 75.45 M367.15 87.65 Q370.2 90.45 373.95 90.1 374.75 90.05 375.45 89.1 376.45 87.6 377.9 88.3 379.2 88.9 380.85 89.15 383.5 89.55 385.65 90.8 M388.8 101.9 Q389.2 97.25 394.05 96.95 395.75 96.9 397.3 96.2 398.95 95.45 398.7 93.95 398.6 93.1 398.8 92.6 399.1 91.95 399.95 91.4 402.45 90.05 403.25 87.15 L403.6 86.55 M352.85 106.15 Q357.25 105.4 359.8 101.4 L360.3 100.95 Q361.55 100.3 363.45 101.35 M320.75 3.9 Q321.15 5.8 321.1 13.25 321.05 20.8 320.6 22.6 M302.65 39.0 Q308.2 31.8 309.3 23.1 309.55 21.2 308.95 19.45 M295.75 45.9 Q295.7 40.5 292.45 36.5 290.95 34.7 288.35 35.2 L285.15 35.05 283.05 34.8 M275.85 3.9 L276.3 5.35 Q277.05 7.45 277.2 15.3 277.3 23.1 276.7 25.25 M322.2 64.9 Q320.2 62.75 321.3 59.15 L322.2 57.0 M203.2 4.9 Q201.6 20.25 205.0 25.35 M166.75 48.0 Q168.8 48.75 169.55 50.6 L169.9 51.15 M156.2 36.35 Q155.2 32.55 155.55 28.4 L155.65 26.3 M150.35 45.85 Q152.65 46.0 153.55 44.3 154.1 43.15 153.0 41.1 151.8 38.7 150.35 36.9 M87.1 3.9 Q87.35 6.9 86.75 13.95 86.05 22.0 84.9 23.75 83.6 25.8 82.9 27.5 80.05 34.0 81.1 40.6 M111.75 40.6 Q111.25 32.55 116.15 25.9 L119.15 22.1 M56.8 3.9 L55.35 5.5 Q52.8 8.55 51.3 18.35 50.0 27.0 50.45 32.15 M10.5 3.9 Q12.4 7.65 12.5 17.15 12.6 26.65 10.8 30.55 M15.55 42.7 Q18.6 45.6 22.85 46.75 L24.0 47.45 24.55 48.0 M35.65 52.2 Q36.45 56.3 39.3 60.05 40.45 61.5 40.95 63.3 41.6 65.25 43.55 66.5 M61.0 52.75 Q62.55 53.7 65.15 54.55 62.45 54.95 62.45 57.5 62.55 61.2 65.75 60.15 M46.75 49.05 L54.65 49.55 55.2 49.55" fill="none" stroke="#634f3f" stroke-linecap="round" stroke-linejoin="round" stroke-width="0.05"/>
    <path d="M351.55 79.9 Q351.4 80.4 351.8 81.1 355.45 87.25 362.5 88.2 363.9 88.5 364.75 89.5 367.0 92.2 370.05 93.55 L371.1 93.9 373.85 92.95 Q379.45 90.7 383.05 95.15 L386.75 97.65" fill="none" stroke="#382321" stroke-linecap="round" stroke-linejoin="round" stroke-width="1.0"/>
    <path d="M366.8 68.0 L358.2 68.55 357.35 73.85 356.55 74.65 351.6 79.85 M386.75 97.65 Q388.65 95.45 391.65 94.7 396.75 93.6 396.6 88.7 L396.65 86.8 Q396.75 85.95 397.3 85.75 401.9 83.25 407.25 83.25 M356.55 74.65 L343.05 72.05 341.05 75.9 Q338.8 75.2 336.7 73.7 L333.9 72.3 329.95 70.6 Q328.25 69.85 326.55 69.5 322.75 68.55 318.95 66.25 317.2 65.1 317.65 63.35 318.5 60.1 319.45 57.6 313.7 56.95 308.5 54.9 307.0 54.4 306.05 53.2 305.15 51.95 303.95 51.25 L294.85 49.15 Q294.1 44.25 291.0 40.4 290.7 39.95 289.85 39.7 282.1 38.5 274.55 39.3 L267.65 39.7 Q261.65 39.65 255.8 38.4 253.75 37.9 251.3 38.35 L247.3 39.65 Q244.8 40.65 229.1 41.55 L210.8 42.55 205.7 42.85 187.55 42.15 168.7 41.25 166.5 41.45 161.0 40.7 156.65 40.7 Q159.1 42.85 158.85 46.2 158.8 46.7 158.35 47.0 154.45 48.95 149.7 48.25 L145.05 47.95 Q142.55 48.5 140.35 49.4 137.65 50.55 134.9 50.7 L130.15 50.5 Q125.9 50.8 123.65 46.6 122.8 45.05 121.8 44.05 114.3 46.85 106.8 46.7 101.05 46.55 96.15 50.0 L94.3 50.9 91.55 50.75 Q87.95 50.85 86.2 54.05 L85.3 55.55 Q83.4 58.2 80.15 57.95 L78.7 57.9 Q77.15 58.6 76.8 59.7 M73.95 59.5 L76.0 60.6 76.1 60.65 Q79.2 62.55 77.6 65.75 70.1 66.2 62.95 67.7 L60.95 68.05 Q58.4 68.15 56.0 67.45 51.3 66.4 47.15 67.9 48.15 69.5 47.35 71.2 L46.6 71.9 Q43.35 73.25 39.65 75.2 34.2 78.05 28.45 80.2 25.6 81.25 23.3 79.4 21.25 77.85 18.85 76.85 16.55 76.05 14.1 77.2 9.25 79.65 3.45 81.75 L2.55 82.05 M2.0 82.6 Q0.2 84.6 0.6 87.4 L2.65 88.45 Q3.75 89.1 4.25 89.7 5.95 91.3 5.4 93.55 L1.95 93.2 -3.05 93.75 Q-5.3 93.8 -6.75 92.4 L-7.6 91.3 Q-8.55 89.6 -7.25 86.95 M-7.25 93.0 L-6.85 95.2 -8.75 94.7 -14.6 94.85 M407.25 107.15 Q403.9 105.45 400.35 105.35 398.85 105.15 397.15 106.15 392.65 109.1 388.2 105.7 387.05 104.75 385.35 104.25 L385.3 104.05 385.0 103.0 385.0 102.65 Q384.85 100.15 386.35 98.1 L386.75 97.65 M394.15 119.2 L396.7 119.45 397.2 119.35 398.5 117.6 396.25 114.5 Q392.65 114.15 389.45 116.15 391.75 118.85 394.15 119.2 M378.1 105.1 L377.8 106.45 Q375.85 107.1 374.45 108.75 L372.85 110.2 Q371.0 111.35 368.5 110.65 366.1 109.85 363.4 109.85 354.6 109.8 345.95 107.2 L353.2 103.4 Q354.7 102.6 355.7 101.15 359.1 96.4 364.5 98.0 366.55 98.7 368.2 100.1 L369.35 100.75 Q374.3 101.0 377.25 104.6 L378.1 105.1 M328.15 102.05 L326.4 97.15 Q320.6 98.95 319.5 102.45 322.3 104.3 325.3 104.05 327.2 103.65 328.15 102.05 M166.35 45.8 Q162.9 46.4 161.7 49.8 L161.05 50.8 Q160.85 51.0 161.95 52.25 L162.25 52.6 Q165.05 56.0 169.45 54.25 171.35 53.45 172.75 51.85 171.0 48.15 167.6 46.15 L166.35 45.8 M116.6 19.6 Q108.95 27.15 109.0 37.95 L109.1 40.6 M92.2 73.9 L90.8 70.3 Q85.25 68.75 80.95 72.2 84.95 74.1 89.1 74.0 L92.2 73.9 M73.95 59.5 Q69.45 57.7 68.4 52.8 67.75 49.6 64.85 48.45 L62.5 47.85 43.65 45.25 39.4 53.6 M-7.25 86.7 Q-4.8 85.0 -1.8 85.85 L-0.15 86.85 0.6 87.4" fill="none" stroke="#402926" stroke-linecap="round" stroke-linejoin="round" stroke-width="1.0"/>
    <path d="M360.5 57.0 L361.45 57.7 Q362.85 58.9 364.05 60.4 L363.95 60.65 364.85 61.65 365.05 62.35 Q364.85 64.65 365.8 66.65 L368.2 70.75 365.8 66.65 Q364.85 64.65 365.05 62.35 L364.85 61.65 363.95 60.65 363.9 60.65 362.9 61.6 361.55 62.5 Q360.8 62.8 360.15 63.45 360.8 62.8 361.55 62.5 L362.9 61.6 363.9 60.65 363.95 60.65 364.05 60.4 Q362.85 58.9 361.45 57.7 L360.5 57.0 M360.9 66.4 L359.8 65.15 Q359.1 62.55 359.55 59.75 L359.85 55.85 366.15 58.3 369.9 66.5 372.05 70.4 372.05 71.15 Q369.25 73.0 365.8 74.0 L363.6 74.6 362.05 74.7 358.85 74.7 358.3 74.35 358.5 72.95 366.65 71.15 363.25 68.5 360.9 66.4 M373.6 51.6 Q374.9 55.2 375.7 58.95 376.65 63.4 377.05 68.0 L374.15 69.6 372.25 62.0 370.75 54.2 373.6 51.6 M374.7 66.05 L374.4 64.95 373.65 61.45 373.05 57.9 372.95 57.55 374.4 55.4 372.95 57.55 373.05 57.9 373.65 61.45 374.4 64.95 374.7 66.05 M382.6 69.05 L378.9 70.1 380.4 64.25 382.6 69.05 M359.2 74.05 L359.5 73.3 362.95 73.5 366.6 72.2 362.95 73.5 359.5 73.3 359.2 74.05 M372.95 57.55 L371.65 55.15 372.95 57.55 M379.7 68.9 L380.6 65.85 380.9 66.9 380.6 65.85 379.7 68.9" fill="#f2f2ff" fill-opacity="0.72156864" fill-rule="evenodd" stroke="none"/>
    <path d="M360.9 66.4 L359.8 65.15 Q359.1 62.55 359.55 59.75 L359.85 55.85 366.15 58.3 369.9 66.5 372.05 70.4 372.05 71.15 Q369.25 73.0 365.8 74.0 L363.6 74.6 362.05 74.7 358.85 74.7 358.3 74.35 358.5 72.95 366.65 71.15 363.25 68.5 360.9 66.4" fill="none" stroke="#ffffff" stroke-linecap="round" stroke-linejoin="round" stroke-width="0.05"/>
    <path d="M368.2 70.75 L365.8 66.65 Q364.85 64.65 365.05 62.35 L364.85 61.65 363.95 60.65 363.9 60.65 362.9 61.6 361.55 62.5 Q360.8 62.8 360.15 63.45 M363.95 60.65 L364.05 60.4 Q362.85 58.9 361.45 57.7 L360.5 57.0 M373.6 51.6 Q374.9 55.2 375.7 58.95 376.65 63.4 377.05 68.0 L374.15 69.6 372.25 62.0 370.75 54.2 373.6 51.6 M374.4 55.4 L372.95 57.55 373.05 57.9 373.65 61.45 374.4 64.95 374.7 66.05 M382.6 69.05 L378.9 70.1 380.4 64.25 382.6 69.05 M380.9 66.9 L380.6 65.85 379.7 68.9 M371.65 55.15 L372.95 57.55 M366.6 72.2 L362.95 73.5 359.5 73.3 359.2 74.05" fill="none" stroke="#ffffff" stroke-linecap="round" stroke-linejoin="round" stroke-width="0.05"/>
    <path d="M19.7 42.5 L19.8 42.1 22.35 29.45 26.8 27.7 27.45 29.5 26.5 34.1 23.2 43.75 19.7 42.5 M21.8 40.1 Q21.7 39.25 21.9 38.5 L22.15 37.6 22.55 35.6 Q22.7 34.05 23.0 32.55 L22.95 32.3 22.9 32.0 22.85 30.15 22.9 32.0 22.95 32.3 23.0 32.55 Q22.7 34.05 22.55 35.6 L22.15 37.6 21.9 38.5 Q21.7 39.25 21.8 40.1 M23.25 31.6 L23.55 31.4 Q25.15 30.9 26.3 29.65 25.15 30.9 23.55 31.4 L23.25 31.6 M25.25 44.85 L33.2 35.55 35.15 35.75 34.4 37.5 Q31.65 42.45 27.8 46.85 L25.25 44.85 M32.15 38.5 L31.75 39.05 31.05 39.7 26.95 43.65 31.05 39.7 31.75 39.05 32.15 38.5 32.2 38.3 32.45 37.55 32.75 36.9 32.45 37.55 32.2 38.3 32.15 38.5 Q32.55 37.95 33.05 37.55 L33.45 37.3 33.05 37.55 Q32.55 37.95 32.15 38.5 M30.8 48.65 L37.15 45.75 37.25 48.45 37.15 48.55 35.3 49.2 Q34.55 49.4 34.05 49.8 L30.8 48.65 M36.2 47.1 L32.1 48.8 36.2 47.1" fill="#f2f2ff" fill-opacity="0.72156864" fill-rule="evenodd" stroke="none"/>
    <path d="M23.2 43.75 L26.5 34.1 27.45 29.5 26.8 27.7 22.35 29.45 19.8 42.1 19.7 42.5 M26.3 29.65 Q25.15 30.9 23.55 31.4 L23.25 31.6 M22.85 30.15 L22.9 32.0 22.95 32.3 23.0 32.55 Q22.7 34.05 22.55 35.6 L22.15 37.6 21.9 38.5 Q21.7 39.25 21.8 40.1 M27.8 46.85 Q31.65 42.45 34.4 37.5 L35.15 35.75 33.2 35.55 25.25 44.85 M32.75 36.9 L32.45 37.55 32.2 38.3 32.15 38.5 Q32.55 37.95 33.05 37.55 L33.45 37.3 M26.95 43.65 L31.05 39.7 31.75 39.05 32.15 38.5 M30.8 48.65 L37.15 45.75 37.25 48.45 37.15 48.55 35.3 49.2 Q34.55 49.4 34.05 49.8 M32.1 48.8 L36.2 47.1" fill="none" stroke="#ffffff" stroke-linecap="round" stroke-linejoin="round" stroke-width="0.05"/>
    <path d="M23.2 43.75 L26.5 34.1 33.15 27.95 Q34.45 29.7 33.7 31.8 L32.5 35.2 33.1 35.7 25.25 44.85 23.2 43.75 M31.6 34.15 L31.5 34.4 31.3 35.05 31.5 34.4 31.6 34.15 M24.95 41.95 L25.2 41.55 25.7 40.45 27.4 34.95 25.7 40.45 25.2 41.55 24.95 41.95 M27.5 33.75 L27.5 34.0 27.6 34.55 Q29.8 33.95 31.85 32.7 L32.15 32.35 32.9 30.15 33.0 29.5 33.05 29.1 33.0 29.5 32.9 30.15 32.15 32.35 31.85 32.7 Q29.8 33.95 27.6 34.55 L27.5 34.0 27.5 33.75" fill="#f2f2ff" fill-opacity="0.72156864" fill-rule="evenodd" stroke="none"/>
    <path d="M23.2 43.75 L26.5 34.1 33.15 27.95 Q34.45 29.7 33.7 31.8 L32.5 35.2 33.1 35.7 25.25 44.85 M33.05 29.1 L33.0 29.5 32.9 30.15 32.15 32.35 31.85 32.7 Q29.8 33.95 27.6 34.55 L27.5 34.0 27.5 33.75 M27.4 34.95 L25.7 40.45 25.2 41.55 24.95 41.95 M31.3 35.05 L31.5 34.4 31.6 34.15" fill="none" stroke="#ffffff" stroke-linecap="round" stroke-linejoin="round" stroke-width="0.05"/>
    <path d="M48.05 251.9 L47.0 251.8 47.15 246.6 47.2 241.4 47.1 236.25 46.8 231.1 46.7 226.7 Q46.7 224.4 47.05 222.15 47.15 221.4 47.7 220.85 L50.85 217.35 53.85 213.65 56.4 219.6 58.75 225.95 Q59.1 227.05 58.95 228.25 L58.5 231.3 58.0 234.25 56.9 240.45 57.55 240.6 65.5 230.55 67.45 240.05 60.95 251.55 54.6 251.25 54.3 251.35 Q52.05 252.25 49.7 252.05 L48.05 251.9 M51.4 249.65 L51.45 245.9 51.45 242.0 51.65 236.85 51.65 232.6 51.45 227.4 56.95 226.15 51.45 227.4 51.65 232.6 51.65 236.85 51.45 242.0 51.45 245.9 51.4 249.65 M38.35 250.6 Q37.45 245.6 35.6 240.95 L35.5 240.1 Q35.65 238.55 36.1 237.0 L36.9 234.9 Q38.35 236.6 40.4 237.8 41.45 238.4 41.8 239.4 L42.7 242.75 44.0 248.55 44.65 251.5 38.35 250.6 M39.25 241.5 L39.35 242.45 Q40.2 245.35 40.2 248.35 40.2 245.35 39.35 242.45 L39.25 241.5 36.6 239.5 39.25 241.5 40.05 239.5 39.25 241.5 M63.3 240.15 L62.9 240.45 62.0 241.5 58.4 245.9 55.5 249.8 58.4 245.9 62.0 241.5 62.9 240.45 63.3 240.15 63.4 238.7 64.1 235.65 63.4 238.7 63.3 240.15 65.85 239.5 63.3 240.15 M55.8 233.25 L58.5 231.3 55.8 233.25 M51.45 227.4 L48.25 221.5 51.45 227.4 M57.1 234.85 L58.0 234.25 57.1 234.85 M72.35 254.6 L71.5 254.0 Q69.95 253.1 68.15 252.75 L68.05 252.55 73.3 248.85 72.35 254.6 M56.9 240.45 L54.6 251.25 56.9 240.45 M69.55 252.55 L69.9 252.4 71.15 251.35 Q71.55 251.0 72.05 250.85 71.55 251.0 71.15 251.35 L69.9 252.4 69.55 252.55" fill="#f2f2ff" fill-opacity="0.72156864" fill-rule="evenodd" stroke="none"/>
    <path d="M48.05 251.9 L47.0 251.8 47.15 246.6 47.2 241.4 47.1 236.25 46.8 231.1 46.7 226.7 Q46.7 224.4 47.05 222.15 47.15 221.4 47.7 220.85 L50.85 217.35 53.85 213.65 56.4 219.6 58.75 225.95 Q59.1 227.05 58.95 228.25 L58.5 231.3 58.0 234.25 56.9 240.45 57.55 240.6 65.5 230.55 67.45 240.05 60.95 251.55 M54.6 251.25 L54.3 251.35 M56.95 226.15 L51.45 227.4 51.65 232.6 51.65 236.85 51.45 242.0 51.45 245.9 51.4 249.65 M44.65 251.5 L44.0 248.55 42.7 242.75 41.8 239.4 Q41.45 238.4 40.4 237.8 38.35 236.6 36.9 234.9 L36.1 237.0 Q35.65 238.55 35.5 240.1 L35.6 240.95 Q37.45 245.6 38.35 250.6 M58.0 234.25 L57.1 234.85 M48.25 221.5 L51.45 227.4 M58.5 231.3 L55.8 233.25 M64.1 235.65 L63.4 238.7 63.3 240.15 65.85 239.5 M55.5 249.8 L58.4 245.9 62.0 241.5 62.9 240.45 63.3 240.15 M36.6 239.5 L39.25 241.5 40.05 239.5 M40.2 248.35 Q40.2 245.35 39.35 242.45 L39.25 241.5 M68.15 252.75 L68.05 252.55 73.3 248.85 72.35 254.6 M72.05 250.85 Q71.55 251.0 71.15 251.35 L69.9 252.4 69.55 252.55 M54.6 251.25 L56.9 240.45" fill="none" stroke="#ffffff" stroke-linecap="round" stroke-linejoin="round" stroke-width="0.05"/>
    <path d="M374.35 217.5 L378.5 220.5 379.1 217.5 378.5 220.5 378.5 221.7 Q378.55 227.7 381.75 232.8 378.55 227.7 378.5 221.7 L378.5 220.5 374.35 217.5 M377.95 238.25 Q379.05 236.25 378.2 234.25 374.8 225.85 373.25 216.9 L376.9 210.7 383.25 216.9 383.25 236.4 377.95 238.25 M255.8 251.75 L257.3 244.85 258.0 245.3 257.3 244.85 255.8 251.75 252.5 251.75 Q250.2 241.85 256.8 234.05 L258.45 232.05 Q266.35 240.35 266.6 251.75 L255.8 251.75 M260.65 241.1 L257.3 244.85 253.8 240.55 257.3 244.85 260.65 241.1 M271.85 251.75 L273.9 242.0 280.2 238.1 281.95 246.0 277.95 251.75 271.85 251.75 M276.0 242.15 L277.6 245.85 280.25 245.0 281.3 245.3 280.25 245.0 277.6 245.85 275.45 251.15 277.6 245.85 276.0 242.15" fill="#f2f2ff" fill-opacity="0.72156864" fill-rule="evenodd" stroke="none"/>
    <path d="M379.1 217.5 L378.5 220.5 378.5 221.7 Q378.55 227.7 381.75 232.8 M378.5 220.5 L374.35 217.5 M377.95 238.25 Q379.05 236.25 378.2 234.25 374.8 225.85 373.25 216.9 L376.9 210.7 383.25 216.9 M258.0 245.3 L257.3 244.85 255.8 251.75 M266.6 251.75 Q266.35 240.35 258.45 232.05 L256.8 234.05 Q250.2 241.85 252.5 251.75 M253.8 240.55 L257.3 244.85 260.65 241.1 M271.85 251.75 L273.9 242.0 280.2 238.1 281.95 246.0 277.95 251.75 M281.3 245.3 L280.25 245.0 277.6 245.85 275.45 251.15 M277.6 245.85 L276.0 242.15" fill="none" stroke="#ffffff" stroke-linecap="round" stroke-linejoin="round" stroke-width="0.05"/>
    <path d="M90.4 24.65 L89.9 25.15 89.45 25.6 90.25 26.5 90.85 26.95 M87.25 27.8 L89.45 25.6 Q88.5 24.8 87.25 24.65" fill="none" stroke="#a3938a" stroke-linecap="round" stroke-linejoin="round" stroke-width="0.05"/>
    <path d="M166.55 23.6 L164.4 21.8 Q163.35 22.65 162.85 23.6 M163.35 20.95 L164.4 21.8 164.9 21.4 165.5 20.95" fill="none" stroke="#a3938a" stroke-linecap="round" stroke-linejoin="round" stroke-width="0.05"/>
    <path d="M238.45 31.5 L239.65 30.6 238.45 29.4 M240.7 29.55 L239.65 30.6 241.1 32.05" fill="none" stroke="#a3938a" stroke-linecap="round" stroke-linejoin="round" stroke-width="0.05"/>
    <path d="M287.6 25.15 L289.0 24.45 287.6 23.05 M290.25 23.05 L289.8 23.6 289.0 24.45 290.25 25.7" fill="none" stroke="#a3938a" stroke-linecap="round" stroke-linejoin="round" stroke-width="0.05"/>
    <path d="M328.3 30.45 L327.85 29.85 327.3 28.85 326.2 29.9 M326.2 26.75 L327.3 28.85 327.85 27.8 328.3 26.75" fill="none" stroke="#a3938a" stroke-linecap="round" stroke-linejoin="round" stroke-width="0.05"/>
    <path d="M332.8 23.7 L332.65 23.35 331.5 24.35 M331.5 21.7 L332.65 23.35 333.65 22.25 334.15 21.7" fill="none" stroke="#a3938a" stroke-linecap="round" stroke-linejoin="round" stroke-width="0.05"/>
  </g>
  <defs>
    <radialGradient cx="0" cy="0" gradientTransform="matrix(0.2751, 0.0, 0.0, 0.0656, 193.5, 72.9)" gradientUnits="userSpaceOnUse" id="gradient0" r="819.2" spreadMethod="pad">
      <stop offset="0.0" stop-color="#523b30"/>
      <stop offset="0.7490196078431373" stop-color="#443028"/>
      <stop offset="1.0" stop-color="#352520"/>
    </radialGradient>
    <radialGradient cx="0" cy="0" gradientTransform="matrix(0.0587, 0.0, 0.0, 0.046, 360.45, 61.4)" gradientUnits="userSpaceOnUse" id="gradient1" r="819.2" spreadMethod="pad">
      <stop offset="0.0" stop-color="#725043"/>
      <stop offset="0.36470588235294116" stop-color="#523b30"/>
      <stop offset="0.7490196078431373" stop-color="#443028"/>
      <stop offset="1.0" stop-color="#352520"/>
    </radialGradient>
    <radialGradient cx="0" cy="0" gradientTransform="matrix(0.0041, 0.2296, -0.4577, 0.008, 192.0, 144.9)" gradientUnits="userSpaceOnUse" id="gradient2" r="819.2" spreadMethod="pad">
      <stop offset="0.0" stop-color="#725043"/>
      <stop offset="0.36470588235294116" stop-color="#523b30"/>
      <stop offset="0.7490196078431373" stop-color="#443028"/>
      <stop offset="1.0" stop-color="#352520"/>
    </radialGradient>
    <radialGradient cx="0" cy="0" gradientTransform="matrix(0.0404, -0.0174, 0.0079, 0.0184, 378.95, 75.9)" gradientUnits="userSpaceOnUse" id="gradient3" r="819.2" spreadMethod="pad">
      <stop offset="0.0" stop-color="#725043"/>
      <stop offset="0.36470588235294116" stop-color="#523b30"/>
      <stop offset="0.7490196078431373" stop-color="#443028"/>
      <stop offset="1.0" stop-color="#352520"/>
    </radialGradient>
    <radialGradient cx="0" cy="0" gradientTransform="matrix(0.006, 0.0, 0.0, 0.006, 388.95, 112.9)" gradientUnits="userSpaceOnUse" id="gradient4" r="819.2" spreadMethod="pad">
      <stop offset="0.0" stop-color="#725043"/>
      <stop offset="0.36470588235294116" stop-color="#523b30"/>
      <stop offset="0.7490196078431373" stop-color="#443028"/>
      <stop offset="1.0" stop-color="#352520"/>
    </radialGradient>
    <radialGradient cx="0" cy="0" gradientTransform="matrix(0.0203, 0.0, 0.0, 0.0203, 353.45, 93.9)" gradientUnits="userSpaceOnUse" id="gradient5" r="819.2" spreadMethod="pad">
      <stop offset="0.0" stop-color="#725043"/>
      <stop offset="0.36470588235294116" stop-color="#523b30"/>
      <stop offset="0.7490196078431373" stop-color="#443028"/>
      <stop offset="1.0" stop-color="#352520"/>
    </radialGradient>
    <radialGradient cx="0" cy="0" gradientTransform="matrix(0.0078, 0.0, 0.0, 0.0078, 322.5, 100.4)" gradientUnits="userSpaceOnUse" id="gradient6" r="819.2" spreadMethod="pad">
      <stop offset="0.0" stop-color="#725043"/>
      <stop offset="0.36470588235294116" stop-color="#523b30"/>
      <stop offset="0.7490196078431373" stop-color="#443028"/>
      <stop offset="1.0" stop-color="#352520"/>
    </radialGradient>
    <radialGradient cx="0" cy="0" gradientTransform="matrix(0.0838, -0.0405, 0.0253, 0.0524, 355.85, 249.5)" gradientUnits="userSpaceOnUse" id="gradient7" r="819.2" spreadMethod="pad">
      <stop offset="0.0" stop-color="#725043"/>
      <stop offset="0.36470588235294116" stop-color="#523b30"/>
      <stop offset="0.7490196078431373" stop-color="#443028"/>
      <stop offset="1.0" stop-color="#352520"/>
    </radialGradient>
    <radialGradient cx="0" cy="0" gradientTransform="matrix(0.0082, 0.0, 0.0, 0.0082, 168.0, 50.9)" gradientUnits="userSpaceOnUse" id="gradient8" r="819.2" spreadMethod="pad">
      <stop offset="0.0" stop-color="#725043"/>
      <stop offset="0.36470588235294116" stop-color="#523b30"/>
      <stop offset="0.7490196078431373" stop-color="#443028"/>
      <stop offset="1.0" stop-color="#352520"/>
    </radialGradient>
    <radialGradient cx="0" cy="0" gradientTransform="matrix(0.0137, 0.0, 0.0, 0.0073, 89.5, 69.4)" gradientUnits="userSpaceOnUse" id="gradient9" r="819.2" spreadMethod="pad">
      <stop offset="0.0" stop-color="#725043"/>
      <stop offset="0.36470588235294116" stop-color="#523b30"/>
      <stop offset="0.7490196078431373" stop-color="#443028"/>
      <stop offset="1.0" stop-color="#352520"/>
    </radialGradient>
    <radialGradient cx="0" cy="0" gradientTransform="matrix(0.0323, 0.0, 0.0, 0.0291, 70.0, 47.4)" gradientUnits="userSpaceOnUse" id="gradient10" r="819.2" spreadMethod="pad">
      <stop offset="0.0" stop-color="#725043"/>
      <stop offset="0.36470588235294116" stop-color="#523b30"/>
      <stop offset="0.7490196078431373" stop-color="#443028"/>
      <stop offset="1.0" stop-color="#352520"/>
    </radialGradient>
    <radialGradient cx="0" cy="0" gradientTransform="matrix(0.049, 0.0, 0.0, 0.0396, 38.0, 48.4)" gradientUnits="userSpaceOnUse" id="gradient11" r="819.2" spreadMethod="pad">
      <stop offset="0.0" stop-color="#725043"/>
      <stop offset="0.36470588235294116" stop-color="#523b30"/>
      <stop offset="0.7490196078431373" stop-color="#443028"/>
      <stop offset="1.0" stop-color="#352520"/>
    </radialGradient>
    <radialGradient cx="0" cy="0" gradientTransform="matrix(0.0094, 0.0, 0.0, 0.0094, 2.0, 87.9)" gradientUnits="userSpaceOnUse" id="gradient12" r="819.2" spreadMethod="pad">
      <stop offset="0.0" stop-color="#725043"/>
      <stop offset="0.36470588235294116" stop-color="#523b30"/>
      <stop offset="0.7490196078431373" stop-color="#443028"/>
      <stop offset="1.0" stop-color="#352520"/>
    </radialGradient>
    <radialGradient cx="0" cy="0" gradientTransform="matrix(0.1185, 0.0, 0.0, 0.0619, 51.3, 254.8)" gradientUnits="userSpaceOnUse" id="gradient13" r="819.2" spreadMethod="pad">
      <stop offset="0.0" stop-color="#725043"/>
      <stop offset="0.36470588235294116" stop-color="#523b30"/>
      <stop offset="0.7490196078431373" stop-color="#443028"/>
      <stop offset="1.0" stop-color="#352520"/>
    </radialGradient>
  </defs>
</svg>
