<?xml version="1.0" encoding="UTF-8" standalone="no"?>
<svg xmlns:xlink="http://www.w3.org/1999/xlink" height="272.9px" width="417.9px" xmlns="http://www.w3.org/2000/svg">
  <g transform="matrix(1.0, 0.0, 0.0, 1.0, 13.05, -0.15)">
    <path d="M393.7 38.25 Q393.25 26.45 391.6 14.75 391.4 13.1 390.35 11.0 389.05 8.6 388.05 5.6 L386.9 1.95 388.05 5.6 Q389.05 8.6 390.35 11.0 391.4 13.1 391.6 14.75 393.25 26.45 393.7 38.25 M187.25 1.95 L205.0 1.95 245.65 1.95 272.8 1.95 283.45 1.95 340.35 1.95 386.9 1.95 404.35 1.95 404.35 82.3 398.9 81.2 Q398.4 81.1 398.05 80.75 L395.85 79.3 Q394.75 78.7 394.5 77.55 394.45 77.15 394.05 76.9 389.55 74.8 385.2 76.6 L384.25 76.9 382.35 77.0 Q376.6 76.85 371.0 75.65 369.9 75.45 369.0 74.7 L366.3 72.3 365.8 72.1 Q363.05 72.1 360.55 71.0 L357.7 70.1 Q351.35 68.6 344.95 68.0 L340.8 67.3 Q340.2 67.15 339.7 66.7 L337.75 65.55 334.55 64.75 Q331.95 64.3 329.35 65.7 327.5 66.7 325.45 67.2 L320.35 68.1 314.25 68.75 310.4 69.15 Q303.15 69.7 296.15 67.2 292.45 65.85 288.65 66.35 287.05 66.55 285.8 65.7 285.1 65.25 284.35 65.15 281.1 64.95 281.5 61.9 L281.4 61.0 Q280.55 59.05 277.75 59.5 276.7 59.65 276.75 58.6 L276.6 57.95 272.05 54.85 Q269.35 53.05 268.3 50.1 L267.7 48.7 Q266.9 47.2 268.2 46.2 L269.85 45.2 Q271.55 44.4 271.0 42.55 270.55 40.95 268.3 41.55 L268.6 40.6 Q269.0 38.65 270.65 37.8 L268.75 37.45 244.15 35.55 Q241.75 35.4 226.7 35.2 L209.2 34.95 197.8 34.45 187.9 33.8 180.85 32.85 Q177.5 32.2 175.0 29.85 L172.15 27.45 Q170.85 26.45 170.85 25.0 170.85 24.25 170.5 23.85 170.15 23.35 169.45 23.4 L162.8 23.4 Q159.0 23.2 155.25 24.55 L152.85 25.4 Q146.55 27.45 139.55 26.15 L135.55 25.0 131.1 24.7 Q130.65 24.8 130.35 25.15 L129.75 26.95 129.45 27.75 128.9 28.9 Q127.35 31.9 123.95 32.95 L120.25 33.4 Q117.5 33.35 116.4 34.95 115.75 35.9 104.25 37.5 92.55 39.15 91.85 39.8 91.55 40.2 91.55 40.55 91.7 42.0 90.8 41.9 84.0 41.1 77.1 42.05 L70.45 42.9 64.3 43.1 60.05 42.9 Q57.35 42.85 55.45 45.0 54.85 45.75 53.95 46.0 52.8 46.3 51.8 47.05 49.95 48.7 47.3 48.15 L45.6 48.2 Q43.55 48.9 42.0 47.8 39.05 45.75 35.4 47.1 L34.9 47.4 Q34.35 49.0 32.55 50.0 29.45 51.8 26.4 54.3 25.8 54.75 25.55 55.45 24.85 57.5 22.65 58.6 L21.85 58.7 Q20.6 58.2 18.95 58.7 L16.5 59.05 Q14.2 59.0 12.6 60.35 11.15 61.65 9.25 62.5 5.8 64.05 2.3 64.4 L0.0 64.95 -7.1 67.25 Q-9.8 68.0 -12.55 69.55 L-12.55 1.95 36.2 1.95 76.2 1.95 Q77.15 4.0 78.65 6.1 80.35 8.35 82.65 10.45 84.5 12.1 85.3 14.0 86.2 16.25 88.0 17.9 86.2 16.25 85.3 14.0 84.5 12.1 82.65 10.45 80.35 8.35 78.65 6.1 77.15 4.0 76.2 1.95 L87.05 1.95 143.25 1.95 187.25 1.95 Q186.75 5.85 186.95 9.85 186.75 5.85 187.25 1.95 M340.35 1.95 L342.0 5.65 Q344.2 10.75 345.6 15.95 347.55 23.5 346.5 31.15 346.15 33.65 346.3 36.35 346.35 37.75 346.7 39.7 347.2 41.85 347.8 43.45 347.2 41.85 346.7 39.7 346.35 37.75 346.3 36.35 346.15 33.65 346.5 31.15 347.55 23.5 345.6 15.95 344.2 10.75 342.0 5.65 L340.35 1.95 M329.35 8.9 L329.35 10.35 Q329.35 12.85 330.2 15.25 331.85 19.8 332.5 24.05 333.75 32.3 332.65 40.6 L332.1 43.9 331.5 47.3 331.05 51.95 Q330.8 54.7 330.95 57.15 331.1 58.9 331.7 59.55 331.1 58.9 330.95 57.15 330.8 54.7 331.05 51.95 L331.5 47.3 332.1 43.9 332.65 40.6 Q333.75 32.3 332.5 24.05 331.85 19.8 330.2 15.25 329.35 12.85 329.35 10.35 L329.35 8.9 M396.05 34.0 Q396.75 34.65 397.1 35.55 397.5 36.65 397.5 37.75 397.5 36.65 397.1 35.55 396.75 34.65 396.05 34.0 M375.25 65.7 Q376.05 65.8 375.8 64.75 375.55 63.15 376.8 62.05 L379.1 60.05 Q383.7 55.75 381.65 49.65 381.0 47.55 379.35 46.15 376.0 43.4 373.05 40.0 371.55 38.3 371.85 35.9 L371.75 34.05 371.25 32.05 Q370.15 27.2 366.25 24.05 L361.2 19.65 357.3 15.5 Q355.3 13.15 356.15 10.3 L356.3 9.4 356.15 10.3 Q355.3 13.15 357.3 15.5 L361.2 19.65 366.25 24.05 Q370.15 27.2 371.25 32.05 L371.75 34.05 371.85 35.9 Q371.55 38.3 373.05 40.0 376.0 43.4 379.35 46.15 381.0 47.55 381.65 49.65 383.7 55.75 379.1 60.05 L376.8 62.05 Q375.55 63.15 375.8 64.75 376.05 65.8 375.25 65.7 M251.25 26.9 Q249.95 23.15 252.05 19.7 L253.4 16.9 Q253.6 16.3 253.3 15.75 L252.25 14.55 Q251.5 13.85 251.2 13.0 250.55 11.3 250.45 9.4 250.15 4.9 246.4 2.45 L245.65 1.95 246.4 2.45 Q250.15 4.9 250.45 9.4 250.55 11.3 251.2 13.0 251.5 13.85 252.25 14.55 L253.3 15.75 Q253.6 16.3 253.4 16.9 L252.05 19.7 Q249.95 23.15 251.25 26.9 M272.8 1.95 L274.05 6.55 Q274.75 9.6 275.6 12.15 276.4 14.4 275.85 16.5 275.65 17.3 275.75 18.3 276.3 21.15 275.3 24.0 L273.65 27.7 Q272.55 29.65 273.95 31.15 272.55 29.65 273.65 27.7 L275.3 24.0 Q276.3 21.15 275.75 18.3 275.65 17.3 275.85 16.5 276.4 14.4 275.6 12.15 274.75 9.6 274.05 6.55 L272.8 1.95 M302.35 54.8 L302.8 53.4 Q303.6 50.2 303.65 47.25 L303.8 40.6 Q303.8 37.85 304.85 35.2 L308.85 25.4 308.85 24.55 Q305.75 16.2 300.15 9.3 297.65 6.2 300.95 4.2 297.65 6.2 300.15 9.3 305.75 16.2 308.85 24.55 L308.85 25.4 304.85 35.2 Q303.8 37.85 303.8 40.6 L303.65 47.25 Q303.6 50.2 302.8 53.4 L302.35 54.8 M283.45 1.95 L283.8 3.7 Q284.4 6.7 284.15 9.8 283.95 13.0 283.2 17.0 282.55 20.5 282.9 23.95 283.2 26.25 284.6 28.15 285.65 29.6 286.0 30.85 286.3 31.85 285.7 33.0 285.1 34.15 285.4 35.4 285.65 36.55 284.8 37.2 279.95 40.85 279.25 46.75 L279.2 47.7 279.25 46.75 Q279.95 40.85 284.8 37.2 285.65 36.55 285.4 35.4 285.1 34.15 285.7 33.0 286.3 31.85 286.0 30.85 285.65 29.6 284.6 28.15 283.2 26.25 282.9 23.95 282.55 20.5 283.2 17.0 283.95 13.0 284.15 9.8 284.4 6.7 283.8 3.7 L283.45 1.95 M254.25 43.2 L257.3 45.05 260.75 47.2 Q263.15 48.8 263.6 51.4 263.8 52.45 264.7 53.1 L267.5 55.2 269.35 57.15 Q270.15 58.25 270.0 59.55 L269.9 60.5 Q269.7 62.9 267.35 64.3 265.9 61.2 262.2 60.55 L258.35 59.55 249.9 59.3 Q245.8 60.75 243.0 57.05 242.8 56.75 242.85 56.25 L242.8 54.9 242.35 54.25 241.3 53.4 Q245.25 46.8 252.6 43.25 L253.6 43.0 254.25 43.2 M205.0 1.95 L203.7 4.45 Q201.9 7.1 200.4 10.2 198.65 13.75 200.55 17.45 L202.4 20.55 Q203.1 21.45 202.1 22.15 203.1 21.45 202.4 20.55 L200.55 17.45 Q198.65 13.75 200.4 10.2 201.9 7.1 203.7 4.45 L205.0 1.95 M141.5 15.55 Q144.0 14.0 144.65 10.75 145.7 5.75 143.25 1.95 145.7 5.75 144.65 10.75 144.0 14.0 141.5 15.55 M119.25 44.9 Q121.15 39.9 125.35 36.9 L126.0 37.15 Q129.5 39.3 130.4 43.05 L130.5 44.9 130.15 47.25 Q129.45 46.25 127.25 46.55 125.4 46.85 123.8 45.65 L122.1 44.95 Q120.75 44.7 119.75 45.35 L119.25 44.9 M87.05 31.15 Q88.1 30.5 88.35 29.3 88.8 26.25 89.35 24.05 90.1 21.0 89.95 17.95 89.9 16.6 89.0 15.0 88.2 13.65 88.1 12.15 L87.85 6.55 Q87.75 4.05 87.05 1.95 87.75 4.05 87.85 6.55 L88.1 12.15 Q88.2 13.65 89.0 15.0 89.9 16.6 89.95 17.95 90.1 21.0 89.35 24.05 88.8 26.25 88.35 29.3 88.1 30.5 87.05 31.15 M51.05 11.25 L53.15 14.9 57.3 21.45 Q61.95 29.3 60.05 38.25 61.95 29.3 57.3 21.45 L53.15 14.9 51.05 11.25 M43.95 37.3 L43.7 36.8 Q43.45 34.4 43.0 32.7 42.6 31.05 41.7 29.2 40.9 27.65 40.8 25.9 40.7 24.0 41.5 22.35 42.15 21.0 41.15 21.7 42.15 21.0 41.5 22.35 40.7 24.0 40.8 25.9 40.9 27.65 41.7 29.2 42.6 31.05 43.0 32.7 43.45 34.4 43.7 36.8 L43.95 37.3 M10.35 54.35 Q8.05 49.8 11.9 46.4 L16.9 41.95 Q19.15 39.95 20.2 37.3 21.05 35.35 20.75 33.05 20.55 31.2 21.15 29.55 22.0 27.3 23.65 25.5 29.4 19.3 37.8 21.15 39.25 21.45 40.0 20.85 42.0 19.35 42.05 16.5 L41.85 15.65 Q39.15 10.75 37.7 5.1 37.2 3.25 36.2 1.95 37.2 3.25 37.7 5.1 39.15 10.75 41.85 15.65 L42.05 16.5 Q42.0 19.35 40.0 20.85 39.25 21.45 37.8 21.15 29.4 19.3 23.65 25.5 22.0 27.3 21.15 29.55 20.55 31.2 20.75 33.05 21.05 35.35 20.2 37.3 19.15 39.95 16.9 41.95 L11.9 46.4 Q8.05 49.8 10.35 54.35" fill="url(#gradient0)" fill-rule="evenodd" stroke="none"/>
    <path d="M404.35 82.3 L404.35 218.9 400.65 218.2 Q399.4 217.9 398.25 218.6 392.7 222.05 387.7 226.8 381.25 232.95 374.7 237.55 374.35 241.4 377.5 243.8 378.65 244.65 380.35 245.4 381.35 245.75 382.3 246.55 384.15 248.05 384.85 249.95 L384.85 250.8 Q384.5 251.9 385.55 252.75 L388.7 255.25 Q391.25 253.05 394.15 253.85 395.85 254.35 397.4 255.25 L399.95 256.75 404.35 259.4 404.35 272.55 -12.55 272.55 -12.55 69.55 Q-9.8 68.0 -7.1 67.25 L0.0 64.95 2.3 64.4 Q5.8 64.05 9.25 62.5 11.15 61.65 12.6 60.35 14.2 59.0 16.5 59.05 L18.95 58.7 Q20.6 58.2 21.85 58.7 L22.65 58.6 Q24.85 57.5 25.55 55.45 25.8 54.75 26.4 54.3 29.45 51.8 32.55 50.0 34.35 49.0 34.9 47.4 L35.4 47.1 Q39.05 45.75 42.0 47.8 43.55 48.9 45.6 48.2 L47.3 48.15 Q49.95 48.7 51.8 47.05 52.8 46.3 53.95 46.0 54.85 45.75 55.45 45.0 57.35 42.85 60.05 42.9 L64.3 43.1 70.45 42.9 77.1 42.05 Q84.0 41.1 90.8 41.9 91.7 42.0 91.55 40.55 91.55 40.2 91.85 39.8 92.55 39.15 104.25 37.5 115.75 35.9 116.4 34.95 117.5 33.35 120.25 33.4 L123.95 32.95 Q127.35 31.9 128.9 28.9 L129.45 27.75 129.75 26.95 130.35 25.15 Q130.65 24.8 131.1 24.7 L135.55 25.0 139.55 26.15 Q146.55 27.45 152.85 25.4 L155.25 24.55 Q159.0 23.2 162.8 23.4 L169.45 23.4 Q170.15 23.35 170.5 23.85 170.85 24.25 170.85 25.0 170.85 26.45 172.15 27.45 L175.0 29.85 Q177.5 32.2 180.85 32.85 L187.9 33.8 197.8 34.45 209.2 34.95 226.7 35.2 Q241.75 35.4 244.15 35.55 L268.75 37.45 270.65 37.8 Q269.0 38.65 268.6 40.6 L268.3 41.55 Q270.55 40.95 271.0 42.55 271.55 44.4 269.85 45.2 L268.2 46.2 Q266.9 47.2 267.7 48.7 L268.3 50.1 Q269.35 53.05 272.05 54.85 L276.6 57.95 276.75 58.6 Q276.7 59.65 277.75 59.5 280.55 59.05 281.4 61.0 L281.5 61.9 Q281.1 64.95 284.35 65.15 285.1 65.25 285.8 65.7 287.05 66.55 288.65 66.35 292.45 65.85 296.15 67.2 303.15 69.7 310.4 69.15 L314.25 68.75 320.35 68.1 325.45 67.2 Q327.5 66.7 329.35 65.7 331.95 64.3 334.55 64.75 L337.75 65.55 339.7 66.7 Q340.2 67.15 340.8 67.3 L344.95 68.0 Q351.35 68.6 357.7 70.1 L360.55 71.0 Q363.05 72.1 365.8 72.1 L366.3 72.3 369.0 74.7 Q369.9 75.45 371.0 75.65 376.6 76.85 382.35 77.0 L384.25 76.9 385.2 76.6 Q389.55 74.8 394.05 76.9 394.45 77.15 394.5 77.55 394.75 78.7 395.85 79.3 L398.05 80.75 Q398.4 81.1 398.9 81.2 L404.35 82.3 M384.7 149.55 L379.5 149.55 384.7 149.55 M327.0 170.8 L326.5 170.6 324.15 170.8 326.5 170.6 327.0 170.8 M346.85 130.15 L346.4 130.1 344.5 129.65 346.4 130.1 346.85 130.15 M349.4 97.95 L346.1 97.95 349.4 97.95 M402.2 92.2 Q399.95 89.65 396.5 89.1 L390.85 88.35 387.6 87.75 380.0 86.1 376.2 85.65 Q371.8 85.25 367.7 83.7 365.1 82.6 363.25 81.35 358.05 77.8 352.05 77.6 L348.3 77.35 Q346.25 77.15 344.2 76.2 L338.8 73.8 Q335.25 72.3 331.25 72.55 L321.35 73.5 317.0 74.05 300.5 75.05 Q291.9 75.0 283.45 72.85 279.3 71.8 276.8 68.55 279.3 71.8 283.45 72.85 291.9 75.0 300.5 75.05 L317.0 74.05 321.35 73.5 331.25 72.55 Q335.25 72.3 338.8 73.8 L344.2 76.2 Q346.25 77.15 348.3 77.35 L352.05 77.6 Q358.05 77.8 363.25 81.35 365.1 82.6 367.7 83.7 371.8 85.25 376.2 85.65 L380.0 86.1 387.6 87.75 390.85 88.35 396.5 89.1 Q399.95 89.65 402.2 92.2 M374.8 236.6 L374.7 237.55 374.8 236.6 M344.95 247.5 L343.6 247.65 Q342.0 247.95 341.2 247.0 342.0 247.95 343.6 247.65 L344.95 247.5 M333.15 212.45 L331.7 212.15 328.4 212.0 331.7 212.15 333.15 212.45 M401.75 267.35 L398.1 265.7 396.4 264.9 Q393.7 264.0 391.35 263.6 L382.45 261.75 Q379.2 260.85 378.4 257.5 378.1 256.1 378.1 254.6 378.1 252.8 376.65 251.75 374.25 250.15 372.35 248.0 L370.75 245.9 Q369.8 244.45 369.65 242.7 369.45 240.75 369.55 238.05 369.45 240.75 369.65 242.7 369.8 244.45 370.75 245.9 L372.35 248.0 Q374.25 250.15 376.65 251.75 378.1 252.8 378.1 254.6 378.1 256.1 378.4 257.5 379.2 260.85 382.45 261.75 L391.35 263.6 Q393.7 264.0 396.4 264.9 L398.1 265.7 401.75 267.35 M256.45 42.55 Q255.35 42.1 254.05 41.8 L246.45 40.35 237.05 39.5 232.8 39.35 Q207.5 39.35 205.95 39.7 200.35 41.0 194.5 40.6 L188.85 40.4 179.9 39.55 Q177.45 39.05 177.0 36.85 177.45 39.05 179.9 39.55 L188.85 40.4 194.5 40.6 Q200.35 41.0 205.95 39.7 207.5 39.35 232.8 39.35 L237.05 39.5 246.45 40.35 254.05 41.8 Q255.35 42.1 256.45 42.55 M254.25 43.2 L253.6 43.0 252.6 43.25 Q245.25 46.8 241.3 53.4 L242.35 54.25 242.8 54.9 242.85 56.25 Q242.8 56.75 243.0 57.05 245.8 60.75 249.9 59.3 L258.35 59.55 262.2 60.55 Q265.9 61.2 267.35 64.3 269.7 62.9 269.9 60.5 L270.0 59.55 Q270.15 58.25 269.35 57.15 L267.5 55.2 264.7 53.1 Q263.8 52.45 263.6 51.4 263.15 48.8 260.75 47.2 L257.3 45.05 254.25 43.2 M269.25 69.05 Q263.65 68.2 259.25 65.35 257.7 64.3 255.9 64.0 L247.95 63.2 243.35 62.4 Q241.5 61.8 239.45 60.55 235.2 57.95 237.55 53.9 235.2 57.95 239.45 60.55 241.5 61.8 243.35 62.4 L247.95 63.2 255.9 64.0 Q257.7 64.3 259.25 65.35 263.65 68.2 269.25 69.05 M274.9 180.3 L274.45 180.05 272.55 180.05 272.1 179.8 272.55 180.05 274.45 180.05 274.9 180.3 M281.05 130.6 L280.55 130.25 281.05 130.6 M308.7 107.9 L304.9 108.35 308.7 107.9 M290.05 142.9 L289.6 142.95 Q287.85 143.2 287.2 142.45 287.85 143.2 289.6 142.95 L290.05 142.9 M185.05 83.2 L182.75 83.85 178.4 83.7 182.75 83.85 185.05 83.2 M174.15 41.75 L171.3 42.7 174.15 41.75 M119.75 45.35 Q120.75 44.7 122.1 44.95 L123.8 45.65 Q125.4 46.85 127.25 46.55 129.45 46.25 130.15 47.25 L130.5 44.9 130.4 43.05 Q129.5 39.3 126.0 37.15 L125.35 36.9 Q121.15 39.9 119.25 44.9 L119.75 45.35 M161.4 30.7 Q158.6 29.6 155.25 29.9 152.7 30.15 150.95 32.1 L150.5 32.35 149.1 32.05 Q142.7 29.3 135.85 30.35 131.55 31.05 131.1 34.95 131.55 31.05 135.85 30.35 142.7 29.3 149.1 32.05 L150.5 32.35 150.95 32.1 Q152.7 30.15 155.25 29.9 158.6 29.6 161.4 30.7 M135.35 45.35 L135.9 46.35 Q136.1 47.7 135.25 48.5 133.5 50.1 131.0 50.55 128.25 51.05 125.0 50.65 122.75 50.35 120.95 49.25 120.45 48.95 120.2 48.2 120.45 48.95 120.95 49.25 122.75 50.35 125.0 50.65 128.25 51.05 131.0 50.55 133.5 50.1 135.25 48.5 136.1 47.7 135.9 46.35 L135.35 45.35 M121.65 37.8 L120.45 38.5 Q118.75 40.35 117.85 42.55 118.75 40.35 120.45 38.5 L121.65 37.8 M89.4 45.85 L85.6 46.3 83.7 46.45 72.85 47.1 69.05 47.05 Q64.65 47.15 60.6 48.85 59.85 49.25 59.5 49.85 L58.9 51.45 Q58.4 53.7 56.25 53.55 54.25 53.4 52.5 53.6 L47.3 54.15 43.05 53.95 39.65 53.15 Q38.0 52.65 36.4 53.4 L35.75 54.05 34.45 57.2 33.95 57.75 Q30.4 58.6 26.45 60.1 L25.9 60.6 Q25.7 61.4 25.0 61.85 L23.25 63.05 Q20.5 65.15 17.0 65.2 L14.65 65.5 12.2 65.8 Q9.65 66.05 7.6 66.8 L2.3 68.55 -1.4 68.9 Q-4.45 68.7 -6.35 70.75 -8.25 72.8 -10.45 73.75 -8.25 72.8 -6.35 70.75 -4.45 68.7 -1.4 68.9 L2.3 68.55 7.6 66.8 Q9.65 66.05 12.2 65.8 L14.65 65.5 17.0 65.2 Q20.5 65.15 23.25 63.05 L25.0 61.85 Q25.7 61.4 25.9 60.6 L26.45 60.1 Q30.4 58.6 33.95 57.75 L34.45 57.2 35.75 54.05 36.4 53.4 Q38.0 52.65 39.65 53.15 L43.05 53.95 47.3 54.15 52.5 53.6 Q54.25 53.4 56.25 53.55 58.4 53.7 58.9 51.45 L59.5 49.85 Q59.85 49.25 60.6 48.85 64.65 47.15 69.05 47.05 L72.85 47.1 83.7 46.45 85.6 46.3 89.4 45.85 M-0.5 74.7 L1.85 75.2 -0.5 74.7 M-3.85 161.35 L-4.7 161.15 -6.65 160.9 -4.7 161.15 -3.85 161.35 M199.7 252.7 L196.4 253.15 199.7 252.7 M168.0 243.2 L167.55 243.2 164.7 243.2 167.55 243.2 168.0 243.2 M185.05 232.35 L184.1 232.1 181.25 232.1 180.3 231.85 181.25 232.1 184.1 232.1 185.05 232.35 M203.5 199.7 L202.1 199.4 197.8 199.2 202.1 199.4 203.5 199.7 M234.2 242.25 L232.8 242.5 221.0 242.45 209.2 242.25 221.0 242.45 232.8 242.5 234.2 242.25 M283.45 257.4 L279.25 256.3 278.7 256.0 279.25 256.3 283.45 257.4 M295.75 227.15 L293.85 227.15 291.05 226.95 290.55 226.65 291.05 226.95 293.85 227.15 295.75 227.15 M32.6 269.75 Q30.9 268.5 31.25 266.4 31.65 264.6 33.0 263.9 34.05 263.4 34.65 262.45 35.2 261.7 34.95 260.95 34.0 258.1 31.65 256.5 34.0 258.1 34.95 260.95 35.2 261.7 34.65 262.45 34.05 263.4 33.0 263.9 31.65 264.6 31.25 266.4 30.9 268.5 32.6 269.75 M43.5 212.95 L42.6 213.1 39.25 213.4 42.6 213.1 43.5 212.95 M146.25 252.2 L145.3 252.2 142.0 252.7 145.3 252.2 146.25 252.2 M159.95 150.45 L159.5 150.5 Q157.1 150.9 155.25 150.0 157.1 150.9 159.5 150.5 L159.95 150.45 M86.55 174.6 L86.1 174.65 83.7 175.1 86.1 174.65 86.55 174.6 M89.4 150.0 L88.85 150.3 Q87.1 150.85 86.55 150.0 87.1 150.85 88.85 150.3 L89.4 150.0 M13.2 180.75 L12.25 180.8 9.4 181.0 8.45 180.75 9.4 181.0 12.25 180.8 13.2 180.75 M37.8 162.8 L36.85 162.7 Q35.55 162.4 35.45 163.25 35.55 162.4 36.85 162.7 L37.8 162.8 M27.8 146.7 L24.0 146.7 27.8 146.7 M27.4 120.2 L26.5 120.35 22.2 120.2 26.5 120.35 27.4 120.2 M4.7 108.35 L4.2 108.3 Q2.3 107.95 0.9 108.85 2.3 107.95 4.2 108.3 L4.7 108.35 M72.45 137.35 Q70.75 138.65 69.5 137.7 70.75 138.65 72.45 137.35 M65.25 70.9 L64.8 70.95 60.55 71.85 64.8 70.95 65.25 70.9 M1.85 96.45 L0.45 96.5 -3.85 96.95 0.45 96.5 1.85 96.45 M14.6 70.65 L9.9 70.65 14.6 70.65" fill="url(#gradient1)" fill-rule="evenodd" stroke="none"/>
    <path d="M404.35 218.9 L404.35 259.4 399.95 256.75 397.4 255.25 Q395.85 254.35 394.15 253.85 391.25 253.05 388.7 255.25 L385.55 252.75 Q384.5 251.9 384.85 250.8 L384.85 249.95 Q384.15 248.05 382.3 246.55 381.35 245.75 380.35 245.4 378.65 244.65 377.5 243.8 374.35 241.4 374.7 237.55 381.25 232.95 387.7 226.8 392.7 222.05 398.25 218.6 399.4 217.9 400.65 218.2 L404.35 218.9" fill="url(#gradient2)" fill-rule="evenodd" stroke="none"/>
    <path d="M386.9 1.95 L388.05 5.6 Q389.05 8.6 390.35 11.0 391.4 13.1 391.6 14.75 393.25 26.45 393.7 38.25 M76.2 1.95 L75.75 0.8 M356.3 9.4 L356.15 10.3 Q355.3 13.15 357.3 15.5 L361.2 19.65 366.25 24.05 Q370.15 27.2 371.25 32.05 L371.75 34.05 371.85 35.9 Q371.55 38.3 373.05 40.0 376.0 43.4 379.35 46.15 381.0 47.55 381.65 49.65 383.7 55.75 379.1 60.05 L376.8 62.05 Q375.55 63.15 375.8 64.75 376.05 65.8 375.25 65.7 M397.5 37.75 Q397.5 36.65 397.1 35.55 396.75 34.65 396.05 34.0 M331.7 59.55 Q331.1 58.9 330.95 57.15 330.8 54.7 331.05 51.95 L331.5 47.3 332.1 43.9 332.65 40.6 Q333.75 32.3 332.5 24.05 331.85 19.8 330.2 15.25 329.35 12.85 329.35 10.35 L329.35 8.9 M347.8 43.45 Q347.2 41.85 346.7 39.7 346.35 37.75 346.3 36.35 346.15 33.65 346.5 31.15 347.55 23.5 345.6 15.95 344.2 10.75 342.0 5.65 L340.35 1.95 M404.35 82.3 L398.9 81.2 Q398.4 81.1 398.05 80.75 L395.85 79.3 Q394.75 78.7 394.5 77.55 394.45 77.15 394.05 76.9 389.55 74.8 385.2 76.6 L384.25 76.9 382.35 77.0 Q376.6 76.85 371.0 75.65 369.9 75.45 369.0 74.7 L366.3 72.3 365.8 72.1 Q363.05 72.1 360.55 71.0 L357.7 70.1 Q351.35 68.6 344.95 68.0 L340.8 67.3 Q340.2 67.15 339.7 66.7 L337.75 65.55 334.55 64.75 Q331.95 64.3 329.35 65.7 327.5 66.7 325.45 67.2 L320.35 68.1 314.25 68.75 310.4 69.15 Q303.15 69.7 296.15 67.2 292.45 65.85 288.65 66.35 287.05 66.55 285.8 65.7 285.1 65.25 284.35 65.15 281.1 64.95 281.5 61.9 L281.4 61.0 Q280.55 59.05 277.75 59.5 276.7 59.65 276.75 58.6 L276.6 57.95 272.05 54.85 Q269.35 53.05 268.3 50.1 L267.7 48.7 Q266.9 47.2 268.2 46.2 L269.85 45.2 Q271.55 44.4 271.0 42.55 270.55 40.95 268.3 41.55 L268.6 40.6 Q269.0 38.65 270.65 37.8 L268.75 37.45 244.15 35.55 Q241.75 35.4 226.7 35.2 L209.2 34.95 197.8 34.45 187.9 33.8 180.85 32.85 Q177.5 32.2 175.0 29.85 L172.15 27.45 Q170.85 26.45 170.85 25.0 170.85 24.25 170.5 23.85 170.15 23.35 169.45 23.4 L162.8 23.4 Q159.0 23.2 155.25 24.55 L152.85 25.4 Q146.55 27.45 139.55 26.15 L135.55 25.0 131.1 24.7 Q130.65 24.8 130.35 25.15 L129.75 26.95 129.45 27.75 128.9 28.9 Q127.35 31.9 123.95 32.95 L120.25 33.4 Q117.5 33.35 116.4 34.95 115.75 35.9 104.25 37.5 92.55 39.15 91.85 39.8 91.55 40.2 91.55 40.55 91.7 42.0 90.8 41.9 84.0 41.1 77.1 42.05 L70.45 42.9 64.3 43.1 60.05 42.9 Q57.35 42.85 55.45 45.0 54.85 45.75 53.95 46.0 52.8 46.3 51.8 47.05 49.95 48.7 47.3 48.15 L45.6 48.2 Q43.55 48.9 42.0 47.8 39.05 45.75 35.4 47.1 L34.9 47.4 Q34.35 49.0 32.55 50.0 29.45 51.8 26.4 54.3 25.8 54.75 25.55 55.45 24.85 57.5 22.65 58.6 L21.85 58.7 Q20.6 58.2 18.95 58.7 L16.5 59.05 Q14.2 59.0 12.6 60.35 11.15 61.65 9.25 62.5 5.8 64.05 2.3 64.4 L0.0 64.95 -7.1 67.25 Q-9.8 68.0 -12.55 69.55 M374.7 237.55 Q381.25 232.95 387.7 226.8 392.7 222.05 398.25 218.6 399.4 217.9 400.65 218.2 L404.35 218.9 M404.35 259.4 L399.95 256.75 397.4 255.25 Q395.85 254.35 394.15 253.85 391.25 253.05 388.7 255.25 L385.55 252.75 Q384.5 251.9 384.85 250.8 L384.85 249.95 Q384.15 248.05 382.3 246.55 381.35 245.75 380.35 245.4 378.65 244.65 377.5 243.8 374.35 241.4 374.7 237.55 L374.8 236.6 M279.2 47.7 L279.25 46.75 Q279.95 40.85 284.8 37.2 285.65 36.55 285.4 35.4 285.1 34.15 285.7 33.0 286.3 31.85 286.0 30.85 285.65 29.6 284.6 28.15 283.2 26.25 282.9 23.95 282.55 20.5 283.2 17.0 283.95 13.0 284.15 9.8 284.4 6.7 283.8 3.7 L283.45 1.95 M300.95 4.2 Q297.65 6.2 300.15 9.3 305.75 16.2 308.85 24.55 L308.85 25.4 304.85 35.2 Q303.8 37.85 303.8 40.6 L303.65 47.25 Q303.6 50.2 302.8 53.4 L302.35 54.8 M273.95 31.15 Q272.55 29.65 273.65 27.7 L275.3 24.0 Q276.3 21.15 275.75 18.3 275.65 17.3 275.85 16.5 276.4 14.4 275.6 12.15 274.75 9.6 274.05 6.55 L272.8 1.95 M245.65 1.95 L246.4 2.45 Q250.15 4.9 250.45 9.4 250.55 11.3 251.2 13.0 251.5 13.85 252.25 14.55 L253.3 15.75 Q253.6 16.3 253.4 16.9 L252.05 19.7 Q249.95 23.15 251.25 26.9 M254.25 43.2 L257.3 45.05 260.75 47.2 Q263.15 48.8 263.6 51.4 263.8 52.45 264.7 53.1 L267.5 55.2 269.35 57.15 Q270.15 58.25 270.0 59.55 L269.9 60.5 Q269.7 62.9 267.35 64.3 265.9 61.2 262.2 60.55 L258.35 59.55 249.9 59.3 Q245.8 60.75 243.0 57.05 242.8 56.75 242.85 56.25 L242.8 54.9 242.35 54.25 241.3 53.4 Q245.25 46.8 252.6 43.25 L253.6 43.0 254.25 43.2 M202.1 22.15 Q203.1 21.45 202.4 20.55 L200.55 17.45 Q198.65 13.75 200.4 10.2 201.9 7.1 203.7 4.45 L205.0 1.95 M187.25 1.95 Q186.75 5.85 186.95 9.85 M187.2 0.65 L187.3 1.4 187.25 1.8 187.25 1.95 M143.25 1.95 Q145.7 5.75 144.65 10.75 144.0 14.0 141.5 15.55 M119.25 44.9 Q121.15 39.9 125.35 36.9 L126.0 37.15 Q129.5 39.3 130.4 43.05 L130.5 44.9 130.15 47.25 Q129.45 46.25 127.25 46.55 125.4 46.85 123.8 45.65 L122.1 44.95 Q120.75 44.7 119.75 45.35 M88.0 17.9 Q86.2 16.25 85.3 14.0 84.5 12.1 82.65 10.45 80.35 8.35 78.65 6.1 77.15 4.0 76.2 1.95 M87.05 1.95 Q87.75 4.05 87.85 6.55 L88.1 12.15 Q88.2 13.65 89.0 15.0 89.9 16.6 89.95 17.95 90.1 21.0 89.35 24.05 88.8 26.25 88.35 29.3 88.1 30.5 87.05 31.15 M36.2 1.95 Q37.2 3.25 37.7 5.1 39.15 10.75 41.85 15.65 L42.05 16.5 Q42.0 19.35 40.0 20.85 39.25 21.45 37.8 21.15 29.4 19.3 23.65 25.5 22.0 27.3 21.15 29.55 20.55 31.2 20.75 33.05 21.05 35.35 20.2 37.3 19.15 39.95 16.9 41.95 L11.9 46.4 Q8.05 49.8 10.35 54.35 M41.15 21.7 Q42.15 21.0 41.5 22.35 40.7 24.0 40.8 25.9 40.9 27.65 41.7 29.2 42.6 31.05 43.0 32.7 43.45 34.4 43.7 36.8 L43.95 37.3 M60.05 38.25 Q61.95 29.3 57.3 21.45 L53.15 14.9 51.05 11.25" fill="none" stroke="#333333" stroke-linecap="round" stroke-linejoin="round" stroke-width="1.0"/>
    <path d="M276.8 68.55 Q279.3 71.8 283.45 72.85 291.9 75.0 300.5 75.05 L317.0 74.05 321.35 73.5 331.25 72.55 Q335.25 72.3 338.8 73.8 L344.2 76.2 Q346.25 77.15 348.3 77.35 L352.05 77.6 Q358.05 77.8 363.25 81.35 365.1 82.6 367.7 83.7 371.8 85.25 376.2 85.65 L380.0 86.1 387.6 87.75 390.85 88.35 396.5 89.1 Q399.95 89.65 402.2 92.2 M346.1 97.95 L349.4 97.95 M344.5 129.65 L346.4 130.1 346.85 130.15 M324.15 170.8 L326.5 170.6 327.0 170.8 M379.5 149.55 L384.7 149.55 M369.55 238.05 Q369.45 240.75 369.65 242.7 369.8 244.45 370.75 245.9 L372.35 248.0 Q374.25 250.15 376.65 251.75 378.1 252.8 378.1 254.6 378.1 256.1 378.4 257.5 379.2 260.85 382.45 261.75 L391.35 263.6 Q393.7 264.0 396.4 264.9 L398.1 265.7 401.75 267.35 M328.4 212.0 L331.7 212.15 333.15 212.45 M341.2 247.0 Q342.0 247.95 343.6 247.65 L344.95 247.5 M177.0 36.85 Q177.45 39.05 179.9 39.55 L188.85 40.4 194.5 40.6 Q200.35 41.0 205.95 39.7 207.5 39.35 232.8 39.35 L237.05 39.5 246.45 40.35 254.05 41.8 Q255.35 42.1 256.45 42.55 M237.55 53.9 Q235.2 57.95 239.45 60.55 241.5 61.8 243.35 62.4 L247.95 63.2 255.9 64.0 Q257.7 64.3 259.25 65.35 263.65 68.2 269.25 69.05 M171.3 42.7 L174.15 41.75 M178.4 83.7 L182.75 83.85 185.05 83.2 M287.2 142.45 Q287.85 143.2 289.6 142.95 L290.05 142.9 M304.9 108.35 L308.7 107.9 M280.55 130.25 L281.05 130.6 M272.1 179.8 L272.55 180.05 274.45 180.05 274.9 180.3 M120.2 48.2 Q120.45 48.95 120.95 49.25 122.75 50.35 125.0 50.65 128.25 51.05 131.0 50.55 133.5 50.1 135.25 48.5 136.1 47.7 135.9 46.35 L135.35 45.35 M131.1 34.95 Q131.55 31.05 135.85 30.35 142.7 29.3 149.1 32.05 L150.5 32.35 150.95 32.1 Q152.7 30.15 155.25 29.9 158.6 29.6 161.4 30.7 M-10.45 73.75 Q-8.25 72.8 -6.35 70.75 -4.45 68.7 -1.4 68.9 L2.3 68.55 7.6 66.8 Q9.65 66.05 12.2 65.8 L14.65 65.5 17.0 65.2 Q20.5 65.15 23.25 63.05 L25.0 61.85 Q25.7 61.4 25.9 60.6 L26.45 60.1 Q30.4 58.6 33.95 57.75 L34.45 57.2 35.75 54.05 36.4 53.4 Q38.0 52.65 39.65 53.15 L43.05 53.95 47.3 54.15 52.5 53.6 Q54.25 53.4 56.25 53.55 58.4 53.7 58.9 51.45 L59.5 49.85 Q59.85 49.25 60.6 48.85 64.65 47.15 69.05 47.05 L72.85 47.1 83.7 46.45 85.6 46.3 89.4 45.85 M117.85 42.55 Q118.75 40.35 120.45 38.5 L121.65 37.8 M9.9 70.65 L14.6 70.65 M-3.85 96.95 L0.45 96.5 1.85 96.45 M60.55 71.85 L64.8 70.95 65.25 70.9 M69.5 137.7 Q70.75 138.65 72.45 137.35 M0.9 108.85 Q2.3 107.95 4.2 108.3 L4.7 108.35 M22.2 120.2 L26.5 120.35 27.4 120.2 M24.0 146.7 L27.8 146.7 M35.45 163.25 Q35.55 162.4 36.85 162.7 L37.8 162.8 M8.45 180.75 L9.4 181.0 12.25 180.8 13.2 180.75 M86.55 150.0 Q87.1 150.85 88.85 150.3 L89.4 150.0 M83.7 175.1 L86.1 174.65 86.55 174.6 M155.25 150.0 Q157.1 150.9 159.5 150.5 L159.95 150.45 M142.0 252.7 L145.3 252.2 146.25 252.2 M39.25 213.4 L42.6 213.1 43.5 212.95 M31.65 256.5 Q34.0 258.1 34.95 260.95 35.2 261.7 34.65 262.45 34.05 263.4 33.0 263.9 31.65 264.6 31.25 266.4 30.9 268.5 32.6 269.75 M290.55 226.65 L291.05 226.95 293.85 227.15 295.75 227.15 M278.7 256.0 L279.25 256.3 283.45 257.4 M209.2 242.25 L221.0 242.45 232.8 242.5 234.2 242.25 M197.8 199.2 L202.1 199.4 203.5 199.7 M180.3 231.85 L181.25 232.1 184.1 232.1 185.05 232.35 M164.7 243.2 L167.55 243.2 168.0 243.2 M196.4 253.15 L199.7 252.7 M-6.65 160.9 L-4.7 161.15 -3.85 161.35 M1.85 75.2 L-0.5 74.7" fill="none" stroke="#d8ba76" stroke-linecap="round" stroke-linejoin="round" stroke-width="0.05"/>
    <path d="M33.2 247.95 L34.35 248.4 Q36.5 249.8 37.8 252.15 L38.9 254.15 38.75 254.25 37.35 254.05 Q36.95 253.6 36.25 254.25 L36.0 254.75 36.1 255.3 Q36.55 256.55 37.85 256.5 L38.75 256.4 Q39.55 256.25 39.5 255.25 L39.7 255.55 39.95 256.45 Q40.25 258.2 41.4 258.7 42.05 258.95 42.15 259.95 L41.4 260.15 41.05 259.95 Q40.45 259.4 40.2 259.95 L40.2 260.2 40.5 260.8 39.9 260.8 39.65 260.8 Q39.6 259.8 38.75 259.9 L38.15 259.95 38.35 261.1 38.15 261.4 36.15 261.95 Q36.3 260.45 34.65 260.8 35.15 260.75 35.05 261.4 L34.8 261.8 34.1 262.55 33.85 261.95 33.7 261.45 Q33.45 260.9 32.65 260.85 L29.75 260.7 28.6 260.6 27.35 260.35 Q26.4 260.05 25.7 259.35 24.8 258.35 24.35 257.0 L24.1 256.25 Q23.7 255.45 24.05 254.45 L24.55 252.4 24.6 252.15 24.25 249.55 Q23.5 247.25 21.0 246.1 24.4 245.6 25.45 248.9 L25.55 249.1 25.6 249.25 25.85 250.0 Q26.6 249.2 27.75 248.7 L28.75 248.15 Q30.5 246.85 32.65 247.75 L33.2 247.95 M33.3 254.65 L32.75 254.25 32.35 254.75 Q31.35 254.15 30.05 254.45 28.6 254.75 28.0 255.9 L27.85 256.45 28.05 257.35 Q28.65 258.8 30.3 258.9 L31.5 258.85 Q32.85 258.6 33.7 257.55 L34.25 256.15 34.25 255.9 34.1 255.3 33.3 254.65 M25.85 250.0 L24.9 251.4 24.6 252.15 24.9 251.4 25.85 250.0 M23.65 261.35 L23.3 261.65 21.65 262.65 Q19.9 263.35 18.1 262.35 17.45 262.0 17.05 261.35 L16.25 260.1 Q14.55 256.7 15.7 255.9 L16.45 258.2 16.75 258.75 Q18.05 260.3 19.9 261.1 L20.7 261.45 23.65 261.35 M29.4 262.6 L29.75 263.15 Q30.85 265.25 39.7 272.2 39.75 275.45 28.5 266.05 L26.75 264.65 24.75 262.9 24.05 262.2 Q23.55 261.5 23.8 261.2 L23.95 261.1 Q23.15 260.7 22.2 260.7 L21.35 260.6 20.55 260.35 Q20.2 260.15 20.0 259.85 L19.0 258.5 Q18.0 256.95 17.9 255.4 17.75 253.8 18.5 252.15 19.2 250.5 20.15 249.2 18.5 252.05 20.0 255.3 L20.8 257.4 Q21.3 259.15 22.85 260.15 L24.1 260.95 24.3 261.1 24.7 261.0 27.1 261.05 Q28.35 261.45 29.4 262.6" fill="#b9a882" fill-rule="evenodd" stroke="none"/>
    <path d="M33.2 247.95 L34.35 248.4 Q36.5 249.8 37.8 252.15 L38.9 254.15 38.75 254.25 37.35 254.05 Q36.95 253.6 36.25 254.25 L36.0 254.75 36.1 255.3 Q36.55 256.55 37.85 256.5 L38.75 256.4 Q39.55 256.25 39.5 255.25 L39.7 255.55 39.95 256.45 Q40.25 258.2 41.4 258.7 42.05 258.95 42.15 259.95 L41.4 260.15 41.05 259.95 Q40.45 259.4 40.2 259.95 L40.2 260.2 40.5 260.8 39.9 260.8 39.65 260.8 Q39.6 259.8 38.75 259.9 L38.15 259.95 38.35 261.1 38.15 261.4 36.15 261.95 Q36.3 260.45 34.65 260.8 35.15 260.75 35.05 261.4 L34.8 261.8 34.1 262.55 33.85 261.95 33.7 261.45 Q33.45 260.9 32.65 260.85 L29.75 260.7 28.6 260.6 27.35 260.35 Q26.4 260.05 25.7 259.35 24.8 258.35 24.35 257.0 L24.1 256.25 Q23.7 255.45 24.05 254.45 L24.55 252.4 24.6 252.15 24.25 249.55 Q23.5 247.25 21.0 246.1 24.4 245.6 25.45 248.9 L25.55 249.1 25.6 249.25 25.85 250.0 Q26.6 249.2 27.75 248.7 L28.75 248.15 Q30.5 246.85 32.65 247.75 L33.2 247.95 M33.3 254.65 L32.75 254.25 32.35 254.75 Q31.35 254.15 30.05 254.45 28.6 254.75 28.0 255.9 L27.85 256.45 28.05 257.35 Q28.65 258.8 30.3 258.9 L31.5 258.85 Q32.85 258.6 33.7 257.55 L34.25 256.15 34.25 255.9 34.1 255.3 33.3 254.65 M24.6 252.15 L24.9 251.4 25.85 250.0 M29.4 262.6 Q28.35 261.45 27.1 261.05 L24.7 261.0 24.3 261.1 24.1 260.95 22.85 260.15 Q21.3 259.15 20.8 257.4 L20.0 255.3 Q18.5 252.05 20.15 249.2 19.2 250.5 18.5 252.15 17.75 253.8 17.9 255.4 18.0 256.95 19.0 258.5 L20.0 259.85 Q20.2 260.15 20.55 260.35 L21.35 260.6 22.2 260.7 Q23.15 260.7 23.95 261.1 L23.8 261.2 Q23.55 261.5 24.05 262.2 L24.75 262.9 26.75 264.65 28.5 266.05 Q39.75 275.45 39.7 272.2 30.85 265.25 29.75 263.15 L29.4 262.6 M23.65 261.35 L20.7 261.45 19.9 261.1 Q18.05 260.3 16.75 258.75 L16.45 258.2 15.7 255.9 Q14.55 256.7 16.25 260.1 L17.05 261.35 Q17.45 262.0 18.1 262.35 19.9 263.35 21.65 262.65 L23.3 261.65 23.65 261.35" fill="none" stroke="#87714e" stroke-linecap="round" stroke-linejoin="round" stroke-width="0.05"/>
    <path d="M332.45 47.9 L333.75 49.5 Q337.7 54.55 337.65 61.0 L337.55 64.3 Q337.45 67.4 334.8 68.65 334.55 68.8 334.35 68.5 L334.7 65.25 Q335.0 60.75 334.05 56.35 333.6 54.35 332.65 52.45 330.8 48.9 329.45 45.3 329.9 43.45 331.25 42.55 330.55 45.7 332.45 47.9 M345.9 32.6 Q348.6 37.8 348.7 43.95 348.75 45.6 348.4 47.15 L347.4 50.15 344.7 55.65 343.25 58.25 Q342.05 60.25 341.8 62.4 341.65 64.3 341.8 66.2 L341.9 68.55 341.6 69.45 Q340.8 70.65 339.2 69.1 338.05 64.65 339.4 60.25 340.25 57.45 341.7 54.9 345.1 49.1 346.1 42.5 346.35 40.65 346.2 38.75 L345.85 32.6 345.9 32.6 M359.7 45.0 L359.75 46.85 Q359.9 48.0 359.7 49.15 358.75 55.3 353.9 59.05 L352.65 60.15 Q349.85 62.8 348.25 66.4 347.8 67.4 347.65 68.55 347.45 70.05 346.55 70.15 L345.3 70.35 Q344.95 70.45 344.0 69.95 342.1 64.45 346.95 60.6 351.1 57.25 354.85 53.35 358.4 49.65 359.7 45.0 M376.8 197.65 L377.5 198.75 Q378.65 200.25 379.1 202.0 379.85 204.85 379.0 207.65 377.4 212.85 374.75 217.6 371.1 224.05 370.8 231.8 370.7 234.45 371.7 236.65 L372.1 237.95 372.45 238.85 373.25 240.25 Q374.15 235.0 378.65 231.9 381.9 229.65 383.15 226.1 L384.1 222.75 Q384.45 221.2 383.75 220.0 386.15 221.75 385.95 224.7 385.9 225.2 386.0 225.7 386.35 227.55 385.25 229.0 382.1 233.05 377.6 236.0 374.6 237.95 373.55 240.95 L373.35 241.6 Q372.9 242.25 372.8 242.65 L372.6 243.3 372.1 242.9 370.95 241.8 Q366.4 235.8 368.3 228.55 368.85 226.3 370.05 224.25 372.05 220.9 372.65 217.2 L373.1 214.7 373.45 211.95 373.65 209.1 Q373.75 205.95 374.0 202.95 L373.85 201.05 Q373.4 198.5 372.25 196.4 L371.6 195.25 371.05 194.05 372.05 193.8 Q372.45 193.75 372.85 194.0 L375.2 195.45 376.05 196.4 376.8 197.65 M373.55 240.95 L373.25 240.25 373.55 240.95 M367.6 245.75 L367.55 245.75 Q367.25 246.3 366.3 245.9 L365.75 245.65 Q364.15 244.85 362.95 243.65 L362.5 243.1 Q359.55 239.4 360.1 234.15 360.4 231.5 360.95 228.95 361.4 227.05 360.45 225.7 359.5 224.3 360.1 224.25 L362.4 225.75 363.2 226.7 363.6 227.45 Q364.3 228.75 364.2 230.4 L364.0 231.8 Q363.45 234.8 363.2 237.95 363.05 239.75 363.95 241.25 L365.05 242.45 Q366.45 243.45 367.6 245.75 M263.4 10.1 L265.3 11.85 Q268.9 16.45 269.75 22.2 270.05 24.2 269.35 26.0 L267.6 30.1 Q265.3 35.1 262.55 39.65 L262.35 39.6 265.6 25.55 Q267.25 17.25 263.2 10.2 L263.4 10.1 M256.3 20.4 Q254.45 18.2 252.2 16.5 253.95 16.25 254.85 17.75 255.5 18.85 256.5 19.75 260.15 22.9 261.0 27.45 L261.3 29.75 261.45 31.65 261.35 33.55 Q261.2 36.4 261.3 39.2 L261.2 40.6 Q256.4 34.5 258.15 26.85 258.65 24.7 257.75 22.7 L256.3 20.4 M272.15 28.8 L272.15 28.85 Q271.9 33.55 269.55 37.75 L268.2 39.6 Q265.75 42.25 264.95 45.35 L264.15 45.15 Q264.85 43.55 265.05 41.65 265.2 40.4 265.85 39.15 268.1 34.75 271.15 30.8 271.85 30.0 271.95 28.8 L272.15 28.8 M89.9 8.95 L89.95 8.5 Q93.55 8.6 95.75 11.7 L98.1 15.3 Q98.7 16.3 98.7 17.5 98.9 25.2 94.3 31.3 92.9 33.15 91.0 34.65 88.95 36.25 87.45 38.25 L86.25 39.85 Q85.55 40.75 85.45 42.1 L85.2 43.5 Q84.5 45.9 84.45 48.65 L84.45 48.75 84.45 49.2 84.2 49.6 Q83.8 49.9 82.35 48.7 80.3 46.25 79.0 43.3 78.55 42.35 78.4 41.15 78.2 39.35 78.95 37.8 80.4 34.65 81.1 31.25 L81.75 27.85 Q82.2 25.45 81.5 23.1 L80.7 20.9 79.5 18.9 75.7 14.65 Q80.0 15.15 82.45 19.1 L83.4 21.2 Q85.4 27.25 83.4 33.15 L82.3 35.95 Q80.7 39.7 81.7 43.55 L82.05 44.9 Q82.35 43.05 83.0 41.2 83.55 39.75 84.45 38.45 L88.35 33.45 Q90.25 31.3 91.75 28.8 95.35 23.0 93.75 16.55 L93.15 14.25 Q92.25 11.15 89.9 8.95 M84.45 48.75 L83.55 48.9 83.4 48.65 Q82.55 47.1 82.05 44.9 82.55 47.1 83.4 48.65 L83.55 48.9 84.45 48.75 M84.7 48.65 Q84.65 44.45 88.1 41.65 L90.0 40.55 Q91.6 40.0 93.25 39.7 98.45 38.9 102.55 35.75 L103.5 34.45 103.65 33.6 Q104.45 34.4 104.3 36.4 104.2 37.95 102.75 38.85 98.8 41.3 94.55 43.25 L93.3 43.65 Q91.2 44.05 89.4 44.8 87.9 45.4 86.75 46.95 86.0 47.95 85.25 48.35 L84.7 48.65 M42.1 17.95 L43.1 17.6 44.0 17.5 Q42.9 18.6 42.05 20.75 40.95 23.35 39.5 25.65 37.75 28.4 37.55 31.7 37.35 36.2 36.65 40.7 36.05 44.4 37.7 47.8 38.9 50.3 39.3 53.0 L39.35 56.1 Q41.55 49.65 41.35 42.55 41.25 40.15 41.55 37.85 L41.65 36.4 Q44.55 42.6 42.85 49.25 L42.4 51.05 41.1 56.75 Q40.9 57.55 39.8 58.25 L39.25 58.55 38.6 58.55 36.8 60.9 35.0 61.35 Q36.2 59.2 36.25 56.75 36.3 55.05 35.75 53.5 35.05 51.6 34.7 49.6 L33.9 45.0 32.85 39.2 Q32.3 36.1 33.0 33.05 L33.8 29.85 Q34.3 27.9 35.15 26.1 37.35 21.5 41.25 18.5 L42.1 17.95 M24.65 28.35 Q22.05 34.0 23.95 39.8 25.0 43.1 27.55 45.8 30.45 48.95 32.75 52.4 33.8 53.95 34.5 55.8 35.85 59.4 33.9 62.3 33.65 62.7 33.15 62.7 L30.8 62.4 Q31.65 59.75 30.65 56.8 29.35 52.8 26.7 49.45 L24.5 46.4 22.95 43.85 Q22.25 42.6 21.8 41.15 19.6 34.2 22.9 27.5 23.45 26.5 24.25 25.65 L25.95 24.3 Q25.3 24.8 25.15 26.45 25.1 27.45 24.65 28.35 M38.6 58.55 L39.35 56.1 38.6 58.55 M31.95 255.5 Q31.15 253.55 31.55 250.85 L32.2 248.4 36.1 238.8 36.65 237.1 Q37.05 234.8 35.4 232.4 L33.3 230.05 34.1 230.15 Q35.7 230.3 36.6 231.75 L37.4 232.8 Q39.5 235.05 38.9 238.5 L38.65 239.4 Q37.0 243.2 34.85 246.9 L34.25 248.05 32.65 251.25 Q31.95 252.8 31.95 254.55 L31.95 255.5 M32.05 256.8 L29.95 254.0 Q29.3 253.15 28.95 252.15 L28.3 250.35 Q27.75 248.65 27.65 247.0 L27.05 242.75 25.1 235.15 26.6 237.0 27.3 238.1 Q28.8 240.75 28.45 244.15 27.65 251.4 32.1 256.75 L32.05 256.8" fill="#678541" fill-rule="evenodd" stroke="none"/>
    <path d="M332.45 47.9 L333.75 49.5 Q337.7 54.55 337.65 61.0 L337.55 64.3 Q337.45 67.4 334.8 68.65 334.55 68.8 334.35 68.5 L334.7 65.25 Q335.0 60.75 334.05 56.35 333.6 54.35 332.65 52.45 330.8 48.9 329.45 45.3 329.9 43.45 331.25 42.55 330.55 45.7 332.45 47.9 M345.85 32.6 L345.85 32.5 344.5 30.2 Q345.7 30.7 345.85 32.5 L345.9 32.6 Q348.6 37.8 348.7 43.95 348.75 45.6 348.4 47.15 L347.4 50.15 344.7 55.65 343.25 58.25 Q342.05 60.25 341.8 62.4 341.65 64.3 341.8 66.2 L341.9 68.55 341.6 69.45 Q340.8 70.65 339.2 69.1 338.05 64.65 339.4 60.25 340.25 57.45 341.7 54.9 345.1 49.1 346.1 42.5 346.35 40.65 346.2 38.75 L345.85 32.6 M359.7 45.0 L359.75 46.85 Q359.9 48.0 359.7 49.15 358.75 55.3 353.9 59.05 L352.65 60.15 Q349.85 62.8 348.25 66.4 347.8 67.4 347.65 68.55 347.45 70.05 346.55 70.15 L345.3 70.35 Q344.95 70.45 344.0 69.95 342.1 64.45 346.95 60.6 351.1 57.25 354.85 53.35 358.4 49.65 359.7 45.0 L360.1 43.0 M376.8 197.65 L377.5 198.75 Q378.65 200.25 379.1 202.0 379.85 204.85 379.0 207.65 377.4 212.85 374.75 217.6 371.1 224.05 370.8 231.8 370.7 234.45 371.7 236.65 L372.1 237.95 372.45 238.85 373.25 240.25 Q374.15 235.0 378.65 231.9 381.9 229.65 383.15 226.1 L384.1 222.75 Q384.45 221.2 383.75 220.0 386.15 221.75 385.95 224.7 385.9 225.2 386.0 225.7 386.35 227.55 385.25 229.0 382.1 233.05 377.6 236.0 374.6 237.95 373.55 240.95 L373.35 241.6 Q372.9 242.25 372.8 242.65 L372.6 243.3 372.1 242.9 370.95 241.8 Q366.4 235.8 368.3 228.55 368.85 226.3 370.05 224.25 372.05 220.9 372.65 217.2 L373.1 214.7 373.45 211.95 373.65 209.1 Q373.75 205.95 374.0 202.95 L373.85 201.05 Q373.4 198.5 372.25 196.4 L371.6 195.25 371.05 194.05 372.05 193.8 Q372.45 193.75 372.85 194.0 L375.2 195.45 376.05 196.4 376.8 197.65 M373.25 240.25 L373.55 240.95 M367.6 245.75 Q366.45 243.45 365.05 242.45 L363.95 241.25 Q363.05 239.75 363.2 237.95 363.45 234.8 364.0 231.8 L364.2 230.4 Q364.3 228.75 363.6 227.45 L363.2 226.7 362.4 225.75 360.1 224.25 Q359.5 224.3 360.45 225.7 361.4 227.05 360.95 228.95 360.4 231.5 360.1 234.15 359.55 239.4 362.5 243.1 L362.95 243.65 Q364.15 244.85 365.75 245.65 L366.3 245.9 Q367.25 246.3 367.55 245.75 L367.6 245.75 M263.4 10.1 L265.3 11.85 Q268.9 16.45 269.75 22.2 270.05 24.2 269.35 26.0 L267.6 30.1 Q265.3 35.1 262.55 39.65 L262.25 39.95 262.35 39.6 265.6 25.55 Q267.25 17.25 263.2 10.2 L262.95 9.75 Q261.6 8.6 261.2 7.05 L261.75 7.95 262.5 9.05 262.95 9.75 263.4 10.1 M256.3 20.4 Q254.45 18.2 252.2 16.5 253.95 16.25 254.85 17.75 255.5 18.85 256.5 19.75 260.15 22.9 261.0 27.45 L261.3 29.75 261.45 31.65 261.35 33.55 Q261.2 36.4 261.3 39.2 L261.2 40.6 Q256.4 34.5 258.15 26.85 258.65 24.7 257.75 22.7 L256.3 20.4 M271.95 28.8 Q271.85 30.0 271.15 30.8 268.1 34.75 265.85 39.15 265.2 40.4 265.05 41.65 264.85 43.55 264.15 45.15 L264.95 45.35 Q265.75 42.25 268.2 39.6 L269.55 37.75 Q271.9 33.55 272.15 28.85 L272.15 28.8 M271.95 28.8 L272.05 25.95 272.15 28.8 M89.9 8.95 Q92.25 11.15 93.15 14.25 L93.75 16.55 Q95.35 23.0 91.75 28.8 90.25 31.3 88.35 33.45 L84.45 38.45 Q83.55 39.75 83.0 41.2 82.35 43.05 82.05 44.9 82.55 47.1 83.4 48.65 L83.55 48.9 84.45 48.75 84.45 48.65 Q84.5 45.9 85.2 43.5 L85.45 42.1 Q85.55 40.75 86.25 39.85 L87.45 38.25 Q88.95 36.25 91.0 34.65 92.9 33.15 94.3 31.3 98.9 25.2 98.7 17.5 98.7 16.3 98.1 15.3 L95.75 11.7 Q93.55 8.6 89.95 8.5 L89.45 8.5 89.9 8.95 M82.05 44.9 L81.7 43.55 Q80.7 39.7 82.3 35.95 L83.4 33.15 Q85.4 27.25 83.4 21.2 L82.45 19.1 Q80.0 15.15 75.7 14.65 L79.5 18.9 80.7 20.9 81.5 23.1 Q82.2 25.45 81.75 27.85 L81.1 31.25 Q80.4 34.65 78.95 37.8 78.2 39.35 78.4 41.15 78.55 42.35 79.0 43.3 80.3 46.25 82.35 48.7 83.8 49.9 84.2 49.6 L84.45 49.2 84.45 48.75 84.5 48.75 84.7 48.65 Q84.65 44.45 88.1 41.65 L90.0 40.55 Q91.6 40.0 93.25 39.7 98.45 38.9 102.55 35.75 L103.5 34.45 103.65 33.6 Q104.45 34.4 104.3 36.4 104.2 37.95 102.75 38.85 98.8 41.3 94.55 43.25 L93.3 43.65 Q91.2 44.05 89.4 44.8 87.9 45.4 86.75 46.95 86.0 47.95 85.25 48.35 L84.7 48.65 M42.1 17.95 L43.1 17.6 44.0 17.5 Q42.9 18.6 42.05 20.75 40.95 23.35 39.5 25.65 37.75 28.4 37.55 31.7 37.35 36.2 36.65 40.7 36.05 44.4 37.7 47.8 38.9 50.3 39.3 53.0 L39.35 56.1 Q41.55 49.65 41.35 42.55 41.25 40.15 41.55 37.85 L41.65 36.4 Q44.55 42.6 42.85 49.25 L42.4 51.05 41.1 56.75 Q40.9 57.55 39.8 58.25 L39.25 58.55 38.6 58.55 36.8 60.9 35.0 61.35 Q36.2 59.2 36.25 56.75 36.3 55.05 35.75 53.5 35.05 51.6 34.7 49.6 L33.9 45.0 32.85 39.2 Q32.3 36.1 33.0 33.05 L33.8 29.85 Q34.3 27.9 35.15 26.1 37.35 21.5 41.25 18.5 L42.1 17.95 M24.65 28.35 Q22.05 34.0 23.95 39.8 25.0 43.1 27.55 45.8 30.45 48.95 32.75 52.4 33.8 53.95 34.5 55.8 35.85 59.4 33.9 62.3 33.65 62.7 33.15 62.7 L30.8 62.4 Q31.65 59.75 30.65 56.8 29.35 52.8 26.7 49.45 L24.5 46.4 22.95 43.85 Q22.25 42.6 21.8 41.15 19.6 34.2 22.9 27.5 23.45 26.5 24.25 25.65 L25.95 24.3 Q25.3 24.8 25.15 26.45 25.1 27.45 24.65 28.35 M39.35 56.1 L38.6 58.55 M31.95 255.5 Q31.15 253.55 31.55 250.85 L32.2 248.4 36.1 238.8 36.65 237.1 Q37.05 234.8 35.4 232.4 L33.3 230.05 34.1 230.15 Q35.7 230.3 36.6 231.75 L37.4 232.8 Q39.5 235.05 38.9 238.5 L38.65 239.4 Q37.0 243.2 34.85 246.9 L34.25 248.05 32.65 251.25 Q31.95 252.8 31.95 254.55 L31.95 255.5 31.95 255.55 32.05 256.5 32.1 256.75 32.15 256.9 32.05 256.8 29.95 254.0 Q29.3 253.15 28.95 252.15 L28.3 250.35 Q27.75 248.65 27.65 247.0 L27.05 242.75 25.1 235.15 26.6 237.0 27.3 238.1 Q28.8 240.75 28.45 244.15 27.65 251.4 32.1 256.75 M31.95 255.5 L31.95 255.55" fill="none" stroke="#506d30" stroke-linecap="round" stroke-linejoin="round" stroke-width="0.05"/>
  </g>
  <defs>
    <radialGradient cx="0" cy="0" gradientTransform="matrix(0.2751, 0.0, 0.0, 0.0656, 192.45, 42.25)" gradientUnits="userSpaceOnUse" id="gradient0" r="819.2" spreadMethod="pad">
      <stop offset="0.0" stop-color="#575757"/>
      <stop offset="0.7490196078431373" stop-color="#424242"/>
      <stop offset="1.0" stop-color="#333333"/>
    </radialGradient>
    <radialGradient cx="0" cy="0" gradientTransform="matrix(0.0041, 0.2296, -0.4577, 0.008, 192.0, 147.0)" gradientUnits="userSpaceOnUse" id="gradient1" r="819.2" spreadMethod="pad">
      <stop offset="0.0" stop-color="#efe7c6"/>
      <stop offset="0.5294117647058824" stop-color="#dfcc8c"/>
      <stop offset="1.0" stop-color="#7a6023"/>
    </radialGradient>
    <radialGradient cx="0" cy="0" gradientTransform="matrix(0.0311, 0.0, 0.0, 0.0311, 380.85, 231.95)" gradientUnits="userSpaceOnUse" id="gradient2" r="819.2" spreadMethod="pad">
      <stop offset="0.0" stop-color="#575757"/>
      <stop offset="0.7490196078431373" stop-color="#424242"/>
      <stop offset="1.0" stop-color="#333333"/>
    </radialGradient>
  </defs>
</svg>
