<?xml version="1.0" encoding="UTF-8" standalone="no"?>
<svg xmlns:xlink="http://www.w3.org/1999/xlink" height="284.9px" width="418.0px" xmlns="http://www.w3.org/2000/svg">
  <g transform="matrix(1.0, 0.0, 0.0, 1.0, 13.75, 8.7)">
    <path d="M201.35 275.7 L-13.25 275.7 -13.25 229.75 Q-10.6 231.1 -7.4 232.0 8.7 236.05 25.4 237.55 37.75 238.1 49.75 240.65 58.35 242.45 66.95 239.9 83.0 235.25 99.85 236.4 L112.6 237.1 Q129.4 239.15 144.05 247.45 L150.65 251.6 Q163.0 260.95 178.6 263.55 183.55 264.4 187.95 266.65 194.9 270.3 200.9 275.3 L201.35 275.7 M334.6 42.15 L332.85 41.95 323.5 42.15 332.85 41.95 334.6 42.15 M334.15 47.85 L328.8 48.1 Q321.05 47.6 313.25 48.25 321.05 47.6 328.8 48.1 L334.15 47.85 M181.35 40.35 Q187.75 40.2 194.05 40.3 L203.6 39.8 Q219.65 38.35 235.9 39.25 237.45 39.0 238.5 38.05 243.85 33.25 250.9 31.0 L262.75 27.5 Q265.5 26.6 268.6 26.25 278.65 27.2 288.9 26.2 L297.2 26.25 Q312.85 25.9 328.5 26.7 330.0 26.6 331.1 27.4 337.0 31.55 341.5 36.95 L341.8 37.6 344.3 44.5 Q346.3 50.75 351.9 54.4 L350.65 54.65 Q346.45 52.15 341.8 53.95 L339.95 54.75 Q322.3 61.45 304.25 56.35 L299.0 54.9 Q295.3 53.95 291.5 53.65 288.85 53.75 286.35 54.6 280.55 56.5 274.7 55.35 258.45 52.2 242.8 47.85 235.65 45.85 228.25 46.15 L225.95 46.75 Q207.6 52.95 189.25 47.7 183.2 46.0 181.35 40.35 M333.3 50.75 L329.25 51.55 333.3 50.75 M341.75 49.9 Q339.7 50.25 338.2 51.55 L337.7 51.85 336.45 52.45 Q333.2 54.15 329.25 54.35 L328.5 54.55 326.6 55.1 324.35 55.35 323.05 55.45 313.7 55.5 311.0 55.35 Q306.55 54.9 302.6 53.5 L297.65 51.95 302.6 53.5 Q306.55 54.9 311.0 55.35 L313.7 55.5 323.05 55.45 324.35 55.35 326.6 55.1 328.5 54.55 329.25 54.35 Q333.2 54.15 336.45 52.45 L337.7 51.85 338.2 51.55 Q339.7 50.25 341.75 49.9 M325.7 35.6 L316.85 35.85 310.95 35.05 294.55 36.0 310.95 35.05 316.85 35.85 325.7 35.6 M304.75 42.55 L301.2 42.05 294.45 41.15 Q286.25 40.25 278.45 42.15 286.25 40.25 294.45 41.15 L301.2 42.05 304.75 42.55 M313.7 30.25 Q308.3 31.0 303.0 30.1 295.2 28.8 287.4 30.25 295.2 28.8 303.0 30.1 308.3 31.0 313.7 30.25 M298.55 47.85 Q291.5 46.55 284.3 46.75 277.15 46.95 270.45 48.7 277.15 46.95 284.3 46.75 291.5 46.55 298.55 47.85 M240.65 44.6 Q242.75 44.65 244.7 45.25 L245.9 45.55 251.35 46.9 262.0 49.55 262.9 49.75 Q264.8 50.05 266.45 50.7 L267.35 51.1 271.8 52.1 272.7 52.15 280.25 52.55 281.2 52.5 Q283.45 52.3 285.6 51.55 283.45 52.3 281.2 52.5 L280.25 52.55 272.7 52.15 271.8 52.1 267.35 51.1 266.45 50.7 Q264.8 50.05 262.9 49.75 L262.0 49.55 251.35 46.9 245.9 45.55 244.7 45.25 Q242.75 44.65 240.65 44.6 M258.0 42.95 L256.2 42.85 248.65 42.2 Q240.15 42.0 231.7 42.55 240.15 42.0 248.65 42.2 L256.2 42.85 258.0 42.95 M276.7 37.65 Q273.0 36.6 269.15 36.9 L265.85 36.5 Q261.6 35.15 257.1 36.35 251.8 37.75 246.4 38.45 251.8 37.75 257.1 36.35 261.6 35.15 265.85 36.5 L269.15 36.9 Q273.0 36.6 276.7 37.65 M285.15 32.3 Q280.2 33.1 275.35 32.45 L270.45 32.1 266.2 31.6 Q261.35 30.35 258.0 33.55 261.35 30.35 266.2 31.6 L270.45 32.1 275.35 32.45 Q280.2 33.1 285.15 32.3 M215.7 41.7 L209.45 42.15 Q201.35 42.8 193.45 44.2 201.35 42.8 209.45 42.15 L215.7 41.7 M224.55 44.6 L221.45 44.55 221.05 44.55 220.2 44.55 218.75 44.9 213.9 46.25 204.1 47.55 202.3 47.6 198.75 47.4 194.75 46.95 193.0 46.5 191.65 46.2 Q188.0 46.05 186.3 43.35 188.0 46.05 191.65 46.2 L193.0 46.5 194.75 46.95 198.75 47.4 202.3 47.6 204.1 47.55 213.9 46.25 218.75 44.9 220.2 44.55 212.1 45.0 220.2 44.55 221.05 44.55 221.45 44.55 224.55 44.6 M183.55 272.5 L182.3 271.55 Q176.4 266.4 168.45 264.25 167.15 263.9 165.95 263.25 164.2 262.3 162.2 262.0 156.35 261.2 150.65 259.65 142.35 257.4 135.1 253.1 L132.2 251.45 Q130.0 250.4 127.9 249.15 L125.1 247.7 121.35 246.0 Q115.55 243.2 109.15 242.35 L99.85 241.0 97.15 240.7 92.7 240.45 79.3 241.1 74.85 241.75 Q69.35 242.55 65.05 245.9 69.35 242.55 74.85 241.75 L79.3 241.1 92.7 240.45 97.15 240.7 99.85 241.0 109.15 242.35 Q115.55 243.2 121.35 246.0 L125.1 247.7 127.9 249.15 Q130.0 250.4 132.2 251.45 L135.1 253.1 Q142.35 257.4 150.65 259.65 156.35 261.2 162.2 262.0 164.2 262.3 165.95 263.25 167.15 263.9 168.45 264.25 176.4 266.4 182.3 271.55 L183.55 272.5 M71.75 262.65 L69.1 262.7 Q65.75 262.85 62.45 262.65 L56.2 261.9 48.1 261.2 40.55 261.45 48.1 261.2 56.2 261.9 62.45 262.65 Q65.75 262.85 69.1 262.7 L71.75 262.65 M44.6 267.15 L35.6 269.0 28.65 269.25 23.1 268.45 12.1 267.3 Q4.4 267.1 -2.6 269.6 4.4 267.1 12.1 267.3 L23.1 268.45 28.65 269.25 35.6 269.0 44.6 267.15 M41.05 255.7 L38.8 255.7 33.05 255.3 27.6 254.35 20.55 252.95 13.7 251.65 Q9.85 251.0 5.95 251.55 L-0.9 252.45 5.95 251.55 Q9.85 251.0 13.7 251.65 L20.55 252.95 27.6 254.35 33.05 255.3 38.8 255.7 41.05 255.7 M51.7 245.9 L39.7 245.4 37.45 245.2 Q32.3 245.0 27.25 243.7 L22.3 242.75 6.25 240.1 Q1.75 239.35 -2.7 238.2 -7.45 237.0 -11.1 234.0 -7.45 237.0 -2.7 238.2 1.75 239.35 6.25 240.1 L22.3 242.75 27.25 243.7 Q32.3 245.0 37.45 245.2 L39.7 245.4 51.7 245.9 M162.6 271.65 L159.5 271.2 155.5 270.85 149.25 271.25 155.5 270.85 159.5 271.2 162.6 271.65 M122.55 254.05 Q119.45 253.85 116.35 254.05 L108.3 254.65 Q103.6 255.1 98.95 254.8 L89.55 253.6 81.55 252.8 Q77.8 252.75 74.85 254.5 77.8 252.75 81.55 252.8 L89.55 253.6 98.95 254.8 Q103.6 255.1 108.3 254.65 L116.35 254.05 Q119.45 253.85 122.55 254.05 M143.5 266.35 L137.7 266.15 126.65 265.3 118.9 264.3 Q111.1 263.45 104.25 266.75 111.1 263.45 118.9 264.3 L126.65 265.3 137.7 266.15 143.5 266.35" fill="#669900" fill-rule="evenodd" stroke="none"/>
    <path d="M4.0 50.75 Q6.0 51.75 8.4 51.7 10.7 51.7 12.1 50.05 15.9 45.55 16.65 39.7 17.15 36.2 16.55 32.65 14.45 20.1 14.0 7.4 13.75 2.1 14.3 -3.2 14.65 -6.35 18.3 -6.55 14.65 -6.35 14.3 -3.2 13.75 2.1 14.0 7.4 14.45 20.1 16.55 32.65 17.15 36.2 16.65 39.7 15.9 45.55 12.1 50.05 10.7 51.7 8.4 51.7 6.0 51.75 4.0 50.75 M41.35 -1.05 L41.35 -0.75 41.5 4.15 41.35 -0.75 41.35 -1.05 40.8 -4.1 41.35 -1.05 Q41.8 1.55 41.5 4.15 L41.1 9.35 Q40.3 16.1 37.0 22.1 40.3 16.1 41.1 9.35 L41.5 4.15 Q41.15 6.7 40.05 9.3 37.6 15.15 35.55 21.1 L33.4 27.0 35.55 21.1 Q37.6 15.15 40.05 9.3 41.15 6.7 41.5 4.15 41.8 1.55 41.35 -1.05 M7.1 -5.3 L6.85 -4.85 Q6.45 -3.05 6.35 -1.2 6.25 1.45 6.9 3.95 L10.55 17.25 Q11.35 20.05 11.5 22.9 11.7 29.45 11.1 36.0 10.95 37.85 10.4 39.6 9.85 41.55 8.4 42.8 5.7 45.2 1.8 45.0 5.7 45.2 8.4 42.8 9.85 41.55 10.4 39.6 10.95 37.85 11.1 36.0 11.7 29.45 11.5 22.9 11.35 20.05 10.55 17.25 L6.9 3.95 Q6.25 1.45 6.35 -1.2 6.45 -3.05 6.85 -4.85 L7.1 -5.3 M40.55 -4.9 L40.8 -4.1 40.55 -4.9 M92.7 -8.2 L117.3 -8.2 131.6 -8.2 152.0 -8.2 168.7 -8.2 191.7 -8.2 Q185.15 -3.0 187.35 4.75 190.3 15.3 185.85 25.15 184.8 27.35 182.15 27.4 173.3 27.6 170.6 20.05 169.4 16.7 169.0 13.2 167.55 2.5 168.7 -8.2 167.55 2.5 169.0 13.2 169.4 16.7 170.6 20.05 173.3 27.6 182.15 27.4 184.8 27.35 185.85 25.15 190.3 15.3 187.35 4.75 185.15 -3.0 191.7 -8.2 L207.15 -8.2 294.3 -8.2 320.35 -8.2 403.75 -8.2 403.75 100.8 Q392.9 97.95 388.15 89.35 386.75 86.75 383.8 85.9 378.5 84.5 375.15 80.65 370.35 75.05 368.55 67.95 L369.15 66.35 Q367.75 62.8 363.45 60.7 357.7 57.85 352.2 54.55 L351.9 54.4 Q346.3 50.75 344.3 44.5 L341.8 37.6 341.5 36.95 Q337.0 31.55 331.1 27.4 330.0 26.6 328.5 26.7 312.85 25.9 297.2 26.25 L288.9 26.2 Q278.65 27.2 268.6 26.25 265.5 26.6 262.75 27.5 L250.9 31.0 Q243.85 33.25 238.5 38.05 237.45 39.0 235.9 39.25 219.65 38.35 203.6 39.8 L194.05 40.3 Q187.75 40.2 181.35 40.35 L169.65 40.95 156.35 43.3 Q153.95 43.55 152.6 45.0 L150.35 47.05 Q133.55 48.75 117.15 45.2 115.55 44.8 113.9 45.55 109.15 47.6 103.8 47.8 L88.85 46.15 Q84.7 45.65 80.6 45.95 69.55 45.05 60.05 49.9 L55.25 52.4 Q48.45 56.0 40.45 54.8 32.95 54.0 26.05 56.9 23.45 57.95 20.55 58.05 1.4 56.5 -13.25 68.4 L-13.25 -8.2 92.7 -8.2 Q89.8 0.25 93.7 8.75 96.1 14.1 98.1 19.55 96.1 14.1 93.7 8.75 89.8 0.25 92.7 -8.2 M116.3 -7.35 Q116.75 -4.5 116.5 -1.65 116.3 1.25 115.45 4.0 L113.4 10.7 Q112.5 13.5 112.1 16.4 111.6 19.85 111.45 23.35 111.1 31.0 115.85 37.25 111.1 31.0 111.45 23.35 111.6 19.85 112.1 16.4 112.5 13.5 113.4 10.7 L115.45 4.0 Q116.3 1.25 116.5 -1.65 116.75 -4.5 116.3 -7.35 M93.6 -1.65 Q93.6 -0.8 93.75 0.0 94.25 2.9 95.4 5.6 97.3 10.25 97.65 15.15 L98.1 19.55 97.65 15.15 Q97.3 10.25 95.4 5.6 94.25 2.9 93.75 0.0 93.6 -0.8 93.6 -1.65 M142.1 40.1 Q136.35 33.9 134.8 25.65 134.35 23.35 133.15 21.3 128.85 13.7 130.65 5.4 131.6 0.95 131.65 -3.6 L131.6 -8.2 131.65 -3.6 Q131.6 0.95 130.65 5.4 128.85 13.7 133.15 21.3 134.35 23.35 134.8 25.65 136.35 33.9 142.1 40.1 M145.25 -5.3 L145.65 -4.1 Q147.6 3.2 145.65 10.65 144.15 16.1 144.0 21.7 143.95 23.55 144.5 25.2 145.55 28.7 147.15 31.85 148.15 33.8 149.45 35.5 150.9 37.4 150.6 39.7 150.9 37.4 149.45 35.5 148.15 33.8 147.15 31.85 145.55 28.7 144.5 25.2 143.95 23.55 144.0 21.7 144.15 16.1 145.65 10.65 147.6 3.2 145.65 -4.1 L145.25 -5.3 M126.95 37.65 Q120.15 38.05 117.55 31.3 116.05 27.6 115.85 23.45 115.45 16.8 117.3 10.2 119.8 1.1 117.3 -8.2 119.8 1.1 117.3 10.2 115.45 16.8 115.85 23.45 116.05 27.6 117.55 31.3 120.15 38.05 126.95 37.65 M286.2 275.7 L201.35 275.7 200.9 275.3 201.95 266.8 Q202.4 262.25 206.55 259.95 210.95 257.5 215.75 255.5 217.4 254.85 218.15 253.55 221.1 248.85 225.85 245.45 L232.55 251.75 Q233.75 251.55 234.65 250.6 242.7 241.5 245.45 229.9 249.4 232.45 250.45 236.65 250.75 237.95 251.4 239.1 256.85 247.95 259.1 257.9 L267.0 259.35 268.05 261.1 270.9 261.0 Q272.35 260.6 273.1 261.75 276.65 267.8 286.2 275.7 M310.55 -4.9 L310.1 -3.25 309.65 -1.2 310.1 -3.25 310.55 -4.9 M320.35 -8.2 L319.25 -4.45 Q318.35 -0.8 318.1 2.85 317.9 6.75 318.2 10.65 318.5 14.3 320.5 17.5 322.45 20.65 325.65 20.05 322.45 20.65 320.5 17.5 318.5 14.3 318.2 10.65 317.9 6.75 318.1 2.85 318.35 -0.8 319.25 -4.45 L320.35 -8.2 M259.3 -2.85 L258.45 -3.25 256.4 -3.45 Q255.1 -3.05 254.45 -1.85 251.55 3.9 250.9 10.25 250.25 16.7 252.15 22.9 250.25 16.7 250.9 10.25 251.55 3.9 254.45 -1.85 255.1 -3.05 256.4 -3.45 L258.45 -3.25 259.3 -2.85 M223.2 -5.3 L223.15 -4.1 Q222.75 3.5 220.95 11.05 L219.95 14.7 Q219.25 16.8 218.7 18.95 216.75 26.65 209.85 31.5 216.75 26.65 218.7 18.95 219.25 16.8 219.95 14.7 L220.95 11.05 Q222.75 3.5 223.15 -4.1 L223.2 -5.3 M240.55 -4.5 L240.5 -2.45 239.95 2.4 Q239.7 3.9 238.95 5.2 L236.45 9.55 Q232.45 16.3 225.85 20.85 232.45 16.3 236.45 9.55 L238.95 5.2 Q239.7 3.9 239.95 2.4 L240.5 -2.45 240.55 -4.5 M182.7 -6.55 Q182.05 -4.9 181.7 -3.2 181.05 0.45 181.85 4.1 182.25 6.15 182.95 8.1 184.0 11.0 184.45 13.9 185.4 20.6 180.45 25.35 185.4 20.6 184.45 13.9 184.0 11.0 182.95 8.1 182.25 6.15 181.85 4.1 181.05 0.45 181.7 -3.2 182.05 -4.9 182.7 -6.55 M191.6 -4.5 L191.3 -4.05 190.6 -1.7 Q189.65 1.65 190.8 4.85 193.45 12.35 191.15 20.05 193.45 12.35 190.8 4.85 189.65 1.65 190.6 -1.7 L191.3 -4.05 191.6 -4.5 M154.6 42.55 Q155.55 41.8 155.7 40.7 155.8 40.1 155.5 39.75 146.65 29.8 149.5 17.05 150.3 13.4 150.0 9.8 149.05 0.4 152.0 -8.2 149.05 0.4 150.0 9.8 150.3 13.4 149.5 17.05 146.65 29.8 155.5 39.75 155.8 40.1 155.7 40.7 155.55 41.8 154.6 42.55 M398.3 -0.8 L398.75 1.25 Q398.8 8.9 397.4 16.35 L395.8 23.7 Q393.95 30.7 390.75 37.25 393.95 30.7 395.8 23.7 L397.4 16.35 Q398.8 8.9 398.75 1.25 L398.3 -0.8 M387.6 -2.85 L387.5 -0.8 Q387.2 3.1 387.2 6.95 387.25 13.4 385.25 19.6 384.0 23.25 384.2 27.0 L384.25 28.25 Q384.2 29.15 384.95 29.05 384.2 29.15 384.25 28.25 L384.2 27.0 Q384.0 23.25 385.25 19.6 387.25 13.4 387.2 6.95 387.2 3.1 387.5 -0.8 L387.6 -2.85 M367.5 2.45 Q372.15 8.4 370.15 15.55 369.0 19.65 368.7 23.9 367.4 40.45 378.3 53.6 379.6 55.2 380.2 57.1 383.55 67.2 382.65 77.75 383.55 67.2 380.2 57.1 379.6 55.2 378.3 53.6 367.4 40.45 368.7 23.9 369.0 19.65 370.15 15.55 372.15 8.4 367.5 2.45 M372.5 0.4 L373.3 3.3 374.0 7.35 Q374.25 9.4 373.75 11.35 371.95 18.5 371.95 25.8 371.9 33.6 374.95 40.55 L375.85 42.4 377.7 45.45 Q379.65 48.3 381.1 51.5 L381.6 52.85 382.35 54.85 Q383.85 58.2 384.35 61.8 384.45 62.85 384.8 63.75 385.5 65.85 385.5 68.35 385.5 70.4 385.85 72.4 385.5 70.4 385.5 68.35 385.5 65.85 384.8 63.75 384.45 62.85 384.35 61.8 383.85 58.2 382.35 54.85 L381.6 52.85 381.1 51.5 Q379.65 48.3 377.7 45.45 L375.85 42.4 374.95 40.55 Q371.9 33.6 371.95 25.8 371.95 18.5 373.75 11.35 374.25 9.4 374.0 7.35 L373.3 3.3 372.5 0.4 M384.4 37.65 L388.0 30.2 Q394.95 15.35 392.45 -0.8 394.95 15.35 388.0 30.2 L384.4 37.65 M391.55 63.85 Q389.95 56.0 385.65 48.9 382.95 44.45 381.95 39.25 381.3 35.9 381.6 32.6 382.9 18.3 385.35 4.1 382.9 18.3 381.6 32.6 381.3 35.9 381.95 39.25 382.95 44.45 385.65 48.9 389.95 56.0 391.55 63.85 M356.45 9.4 Q354.45 9.25 353.75 11.05 352.85 13.45 352.3 15.95 350.8 23.1 352.4 30.3 L353.15 34.8 Q353.85 40.05 356.0 44.6 353.85 40.05 353.15 34.8 L352.4 30.3 Q350.8 23.1 352.3 15.95 352.85 13.45 353.75 11.05 354.45 9.25 356.45 9.4 M352.35 45.0 Q348.4 31.7 348.0 18.0 347.85 12.3 350.95 7.35 351.35 6.6 352.2 6.35 357.95 4.5 360.3 9.9 363.6 17.45 361.75 25.45 358.2 41.05 369.3 52.4 358.2 41.05 361.75 25.45 363.6 17.45 360.3 9.9 357.95 4.5 352.2 6.35 351.35 6.6 350.95 7.35 347.85 12.3 348.0 18.0 348.4 31.7 352.35 45.0 M334.15 -7.35 Q333.15 0.2 334.05 7.8 335.0 15.35 337.25 22.5 335.0 15.35 334.05 7.8 333.15 0.2 334.15 -7.35 M342.55 -6.55 Q341.05 8.7 340.85 23.9 340.8 26.35 341.95 28.6 343.8 32.1 343.35 35.75 L341.5 36.95 343.35 35.75 Q343.8 32.1 341.95 28.6 340.8 26.35 340.85 23.9 341.05 8.7 342.55 -6.55 M331.85 -5.7 Q331.15 1.9 331.75 9.6 332.6 19.7 337.5 28.45 332.6 19.7 331.75 9.6 331.15 1.9 331.85 -5.7 M346.2 -6.95 Q346.8 0.45 344.65 7.75 342.65 14.6 342.75 21.7 342.8 23.95 343.2 26.15 343.75 28.9 345.25 31.1 343.75 28.9 343.2 26.15 342.8 23.95 342.75 21.7 342.65 14.6 344.65 7.75 346.8 0.45 346.2 -6.95 M393.85 88.35 L394.25 87.15 Q396.65 81.0 395.65 74.45 396.65 81.0 394.25 87.15 L393.85 88.35 M372.9 64.25 L373.3 66.7 Q373.7 69.25 372.9 71.6 373.7 69.25 373.3 66.7 L372.9 64.25 M314.95 -5.7 Q310.85 4.2 314.15 15.05 316.1 21.6 323.45 23.55 328.1 24.8 330.1 20.45 328.1 24.8 323.45 23.55 316.1 21.6 314.15 15.05 310.85 4.2 314.95 -5.7 M298.5 -6.15 Q297.8 -0.65 297.95 4.9 298.05 8.0 298.75 10.9 299.2 12.7 300.75 13.9 305.65 17.7 306.05 23.75 305.65 17.7 300.75 13.9 299.2 12.7 298.75 10.9 298.05 8.0 297.95 4.9 297.8 -0.65 298.5 -6.15 M266.8 -4.9 L266.1 0.85 Q264.65 10.35 270.45 18.0 272.3 20.35 275.1 21.35 280.5 23.45 285.2 24.1 289.85 24.6 290.9 20.45 289.85 24.6 285.2 24.1 280.5 23.45 275.1 21.35 272.3 20.35 270.45 18.0 264.65 10.35 266.1 0.85 L266.8 -4.9 M304.25 25.4 Q304.4 23.85 303.0 23.0 L301.2 21.8 Q296.2 17.9 295.5 11.65 294.4 1.8 294.3 -8.2 294.4 1.8 295.5 11.65 296.2 17.9 301.2 21.8 L303.0 23.0 Q304.4 23.85 304.25 25.4 M261.55 5.35 L261.1 2.05 261.55 5.35 M265.55 25.35 L265.05 24.6 263.75 22.9 262.95 23.75 261.55 25.35 262.95 23.75 263.75 22.9 265.05 24.6 265.55 25.35 M285.15 18.85 Q281.25 20.65 277.65 17.95 275.8 16.6 274.7 14.8 271.1 8.7 269.35 1.7 268.4 -2.5 269.95 -6.15 268.4 -2.5 269.35 1.7 271.1 8.7 274.7 14.8 275.8 16.6 277.65 17.95 281.25 20.65 285.15 18.85 M249.0 28.65 Q249.9 28.95 249.65 28.2 L248.25 22.25 Q245.25 6.7 255.25 -6.55 245.25 6.7 248.25 22.25 L249.65 28.2 Q249.9 28.95 249.0 28.65 M223.15 20.45 L229.75 14.45 Q238.4 7.2 237.4 -3.25 238.4 7.2 229.75 14.45 L223.15 20.45 M208.95 -2.45 L208.2 1.65 Q207.1 8.6 207.2 15.55 207.1 8.6 208.2 1.65 L208.95 -2.45 M227.6 -4.9 Q225.6 8.55 221.55 21.7 220.15 26.4 216.4 29.75 213.15 32.7 209.45 34.95 204.5 34.75 204.3 29.95 203.75 10.65 207.15 -8.2 203.75 10.65 204.3 29.95 204.5 34.75 209.45 34.95 213.15 32.7 216.4 29.75 220.15 26.4 221.55 21.7 225.6 8.55 227.6 -4.9 M241.95 28.25 L240.5 27.55 Q239.05 27.0 237.45 27.0 236.15 27.0 235.2 27.8 234.15 28.65 233.6 29.9 232.4 32.8 230.75 35.2 232.4 32.8 233.6 29.9 234.15 28.65 235.2 27.8 236.15 27.0 237.45 27.0 239.05 27.0 240.5 27.55 L241.95 28.25 M202.25 30.7 L199.5 28.3 Q198.05 27.05 196.45 27.05 193.9 27.05 192.0 29.05 193.9 27.05 196.45 27.05 198.05 27.05 199.5 28.3 L202.25 30.7 M176.45 35.6 L175.55 35.25 172.4 34.8 Q170.6 34.8 169.75 36.4 170.6 34.8 172.4 34.8 L175.55 35.25 176.45 35.6 M183.65 35.85 L183.45 36.25 183.35 36.45 183.55 36.3 Q183.8 36.15 183.65 35.85 185.75 31.1 190.15 26.75 195.9 21.1 201.8 26.2 195.9 21.1 190.15 26.75 185.75 31.1 183.65 35.85 M98.1 19.55 L98.65 24.15 Q99.45 30.1 98.5 36.0 99.45 30.1 98.65 24.15 L98.1 19.55 101.3 29.25 Q102.05 31.75 102.05 34.4 L102.0 38.45 102.05 34.4 Q102.05 31.75 101.3 29.25 L98.1 19.55 M128.3 -2.45 Q126.85 2.6 126.3 7.8 126.1 9.85 126.35 11.8 126.85 15.6 127.75 19.25 129.55 26.25 132.7 32.8 L135.45 38.05 132.7 32.8 Q129.55 26.25 127.75 19.25 126.85 15.6 126.35 11.8 126.1 9.85 126.3 7.8 126.85 2.6 128.3 -2.45 M102.5 45.0 Q100.55 45.25 99.35 43.8 L97.55 41.8 Q93.7 37.95 90.75 33.65 90.05 32.55 88.9 31.75 86.7 30.2 85.9 27.9 85.15 25.8 83.65 24.15 83.35 23.75 82.8 24.15 81.1 25.4 80.7 27.4 81.1 25.4 82.8 24.15 83.35 23.75 83.65 24.15 85.15 25.8 85.9 27.9 86.7 30.2 88.9 31.75 90.05 32.55 90.75 33.65 93.7 37.95 97.55 41.8 L99.35 43.8 Q100.55 45.25 102.5 45.0 M76.2 42.55 Q73.0 27.7 82.4 15.55 88.5 19.3 90.75 25.7 92.2 30.05 97.55 30.3 92.2 30.05 90.75 25.7 88.5 19.3 82.4 15.55 73.0 27.7 76.2 42.55 M62.4 6.55 L63.25 8.2 64.7 11.55 Q65.25 13.3 64.9 15.05 64.05 18.5 63.9 22.1 63.75 25.2 64.4 28.15 65.9 35.0 69.95 40.9 65.9 35.0 64.4 28.15 63.75 25.2 63.9 22.1 64.05 18.5 64.9 15.05 65.25 13.3 64.7 11.55 L63.25 8.2 62.4 6.55 M108.7 44.6 L107.8 43.9 Q106.95 43.4 106.2 43.55 105.0 43.8 104.25 42.95 105.0 43.8 106.2 43.55 106.95 43.4 107.8 43.9 L108.7 44.6 M42.35 23.75 Q42.65 21.3 43.5 19.0 48.3 5.9 60.15 -3.25 66.9 4.7 68.45 15.0 68.65 16.5 68.3 17.95 65.85 29.05 72.6 37.65 65.85 29.05 68.3 17.95 68.65 16.5 68.45 15.0 66.9 4.7 60.15 -3.25 48.3 5.9 43.5 19.0 42.65 21.3 42.35 23.75 M20.95 -6.95 Q20.3 -3.45 20.1 0.0 19.85 3.5 20.2 6.95 20.95 14.3 24.15 21.25 L25.7 24.6 Q26.55 26.4 26.85 28.3 L27.4 33.15 Q27.65 38.15 26.7 42.95 27.65 38.15 27.4 33.15 L26.85 28.3 Q26.55 26.4 25.7 24.6 L24.15 21.25 Q20.95 14.3 20.2 6.95 19.85 3.5 20.1 0.0 20.3 -3.45 20.95 -6.95 M31.6 41.75 Q35.4 37.05 32.3 32.0 L28.8 25.9 Q21.2 12.1 24.5 -3.25 21.2 12.1 28.8 25.9 L32.3 32.0 Q35.4 37.05 31.6 41.75 M7.1 55.65 L5.35 55.05 Q2.65 54.55 2.2 56.85 2.65 54.55 5.35 55.05 L7.1 55.65 M50.35 51.55 L49.05 51.15 46.85 50.85 Q45.9 50.95 45.9 51.95 45.9 50.95 46.85 50.85 L49.05 51.15 50.35 51.55 M240.1 267.55 Q243.15 261.4 250.15 259.6 L250.6 259.85 Q254.85 263.05 260.6 263.45 254.85 263.05 250.6 259.85 L250.15 259.6 Q243.15 261.4 240.1 267.55" fill="url(#gradient0)" fill-rule="evenodd" stroke="none"/>
    <path d="M403.75 100.8 L403.75 275.7 286.2 275.7 Q276.65 267.8 273.1 261.75 272.35 260.6 270.9 261.0 L268.05 261.1 267.0 259.35 259.1 257.9 Q256.85 247.95 251.4 239.1 250.75 237.95 250.45 236.65 249.4 232.45 245.45 229.9 242.7 241.5 234.65 250.6 233.75 251.55 232.55 251.75 L225.85 245.45 Q221.1 248.85 218.15 253.55 217.4 254.85 215.75 255.5 210.95 257.5 206.55 259.95 202.4 262.25 201.95 266.8 L200.9 275.3 Q194.9 270.3 187.95 266.65 183.55 264.4 178.6 263.55 163.0 260.95 150.65 251.6 L144.05 247.45 Q129.4 239.15 112.6 237.1 L99.85 236.4 Q83.0 235.25 66.95 239.9 58.35 242.45 49.75 240.65 37.75 238.1 25.4 237.55 8.7 236.05 -7.4 232.0 -10.6 231.1 -13.25 229.75 L-13.25 68.4 Q1.4 56.5 20.55 58.05 23.45 57.95 26.05 56.9 32.95 54.0 40.45 54.8 48.45 56.0 55.25 52.4 L60.05 49.9 Q69.55 45.05 80.6 45.95 84.7 45.65 88.85 46.15 L103.8 47.8 Q109.15 47.6 113.9 45.55 115.55 44.8 117.15 45.2 133.55 48.75 150.35 47.05 L152.6 45.0 Q153.95 43.55 156.35 43.3 L169.65 40.95 181.35 40.35 Q183.2 46.0 189.25 47.7 207.6 52.95 225.95 46.75 L228.25 46.15 Q235.65 45.85 242.8 47.85 258.45 52.2 274.7 55.35 280.55 56.5 286.35 54.6 288.85 53.75 291.5 53.65 295.3 53.95 299.0 54.9 L304.25 56.35 Q322.3 61.45 339.95 54.75 L341.8 53.95 Q346.45 52.15 350.65 54.65 L351.9 54.4 352.2 54.55 Q357.7 57.85 363.45 60.7 367.75 62.8 369.15 66.35 L368.55 67.95 Q370.35 75.05 375.15 80.65 378.5 84.5 383.8 85.9 386.75 86.75 388.15 89.35 392.9 97.95 403.75 100.8 M325.25 64.65 L324.05 65.2 Q322.65 66.0 322.55 65.45 322.65 66.0 324.05 65.2 L325.25 64.65 M355.05 109.7 Q353.85 109.85 353.7 110.45 353.85 109.85 355.05 109.7 M338.6 158.3 L338.15 158.7 Q336.25 160.1 333.7 159.95 336.25 160.1 338.15 158.7 L338.6 158.3 M358.8 109.9 Q357.75 111.5 356.0 112.1 357.75 111.5 358.8 109.9 M371.55 163.65 L371.15 163.6 Q369.05 163.0 367.55 164.85 369.05 163.0 371.15 163.6 L371.55 163.65 M335.45 157.1 L334.6 156.8 Q332.95 156.45 333.25 157.9 332.95 156.45 334.6 156.8 L335.45 157.1 M372.8 165.2 L369.8 165.3 372.8 165.2 M330.15 236.85 L329.2 236.45 326.95 236.1 Q325.05 236.2 323.85 237.7 325.05 236.2 326.95 236.1 L329.2 236.45 330.15 236.85 M331.95 238.9 L327.95 239.3 331.95 238.9 M275.75 74.45 L275.2 73.85 Q273.55 72.85 272.65 74.05 273.55 72.85 275.2 73.85 L275.75 74.45 M276.25 75.7 L274.0 76.1 276.25 75.7 M322.55 63.4 L321.65 63.15 Q320.2 63.0 319.4 64.25 320.2 63.0 321.65 63.15 L322.55 63.4 M183.65 35.85 Q183.8 36.15 183.55 36.3 L183.35 36.45 183.45 36.25 183.65 35.85 M207.6 91.65 L206.25 91.7 202.7 92.05 206.25 91.7 207.6 91.65 M208.05 93.3 L206.75 93.2 205.4 92.85 206.75 93.2 208.05 93.3 M299.35 106.35 L298.55 106.2 Q297.4 105.75 296.2 105.65 294.7 105.5 293.6 106.8 294.7 105.5 296.2 105.65 297.4 105.75 298.55 106.2 L299.35 106.35 M175.1 186.55 L174.25 186.45 172.4 185.75 174.25 186.45 175.1 186.55 M300.35 108.1 L297.65 108.4 300.35 108.1 M256.65 155.45 L255.7 155.05 Q252.8 153.7 252.15 156.3 252.8 153.7 255.7 155.05 L256.65 155.45 M24.55 72.4 Q25.45 69.3 23.0 66.8 21.2 64.95 19.15 63.85 21.2 64.95 23.0 66.8 25.45 69.3 24.55 72.4 M28.25 70.3 Q29.45 71.9 28.55 73.45 25.0 74.6 20.95 74.2 15.85 74.35 12.85 70.45 L12.95 70.3 Q14.7 67.75 14.9 66.85 15.75 63.9 18.7 62.6 20.2 61.95 21.1 62.75 25.2 66.1 28.25 70.3 25.2 66.1 21.1 62.75 20.2 61.95 18.7 62.6 15.75 63.9 14.9 66.85 14.7 67.75 12.95 70.3 L12.85 70.45 Q15.85 74.35 20.95 74.2 25.0 74.6 28.55 73.45 29.45 71.9 28.25 70.3 M57.05 87.55 L55.75 87.65 54.4 87.95 55.75 87.65 57.05 87.55 M57.05 85.7 L50.8 86.3 57.05 85.7 M18.75 152.9 L17.25 152.15 Q15.5 151.65 14.7 153.4 15.5 151.65 17.25 152.15 L18.75 152.9 M21.0 153.8 L20.5 153.85 Q19.1 154.3 17.85 155.05 19.1 154.3 20.5 153.85 L21.0 153.8 M137.7 144.0 L136.6 143.2 Q135.45 142.8 134.75 143.4 L132.8 145.25 134.75 143.4 Q135.45 142.8 136.6 143.2 L137.7 144.0 M81.1 180.4 L80.7 180.3 Q79.05 179.5 78.4 180.8 79.05 179.5 80.7 180.3 L81.1 180.4 M123.9 104.75 L123.0 104.75 120.3 104.75 123.0 104.75 123.9 104.75 M139.65 144.75 Q139.3 146.75 137.75 145.65 139.3 146.75 139.65 144.75 M121.2 102.7 L120.3 102.7 118.95 102.7 120.3 102.7 121.2 102.7 M82.05 180.8 L81.5 181.15 82.05 180.8 M292.25 207.0 L291.35 206.65 290.25 206.6 288.7 207.0 290.25 206.6 291.35 206.65 292.25 207.0 M266.0 221.3 L265.15 221.3 262.45 221.3 265.15 221.3 266.0 221.3 M293.65 207.4 L293.1 207.7 290.95 208.25 293.1 207.7 293.65 207.4 M264.2 219.3 L263.2 218.95 261.1 218.8 Q260.4 218.9 260.6 219.7 260.4 218.9 261.1 218.8 L263.2 218.95 264.2 219.3" fill="url(#gradient1)" fill-rule="evenodd" stroke="none"/>
    <path d="M18.3 -6.55 Q14.65 -6.35 14.3 -3.2 13.75 2.1 14.0 7.4 14.45 20.1 16.55 32.65 17.15 36.2 16.65 39.7 15.9 45.55 12.1 50.05 10.7 51.7 8.4 51.7 6.0 51.75 4.0 50.75 M41.35 -1.05 L40.8 -4.1 M92.7 -8.2 Q89.8 0.25 93.7 8.75 96.1 14.1 98.1 19.55 L101.3 29.25 Q102.05 31.75 102.05 34.4 L102.0 38.45 M131.6 -8.2 L131.65 -3.6 Q131.6 0.95 130.65 5.4 128.85 13.7 133.15 21.3 134.35 23.35 134.8 25.65 136.35 33.9 142.1 40.1 M117.3 -8.2 Q119.8 1.1 117.3 10.2 115.45 16.8 115.85 23.45 116.05 27.6 117.55 31.3 120.15 38.05 126.95 37.65 M168.7 -8.2 Q167.55 2.5 169.0 13.2 169.4 16.7 170.6 20.05 173.3 27.6 182.15 27.4 184.8 27.35 185.85 25.15 190.3 15.3 187.35 4.75 185.15 -3.0 191.7 -8.2 M152.0 -8.2 Q149.05 0.4 150.0 9.8 150.3 13.4 149.5 17.05 146.65 29.8 155.5 39.75 155.8 40.1 155.7 40.7 155.55 41.8 154.6 42.55 M382.65 77.75 Q383.55 67.2 380.2 57.1 379.6 55.2 378.3 53.6 367.4 40.45 368.7 23.9 369.0 19.65 370.15 15.55 372.15 8.4 367.5 2.45 M385.35 4.1 Q382.9 18.3 381.6 32.6 381.3 35.9 381.95 39.25 382.95 44.45 385.65 48.9 389.95 56.0 391.55 63.85 M392.45 -0.8 Q394.95 15.35 388.0 30.2 L384.4 37.65 M369.3 52.4 Q358.2 41.05 361.75 25.45 363.6 17.45 360.3 9.9 357.95 4.5 352.2 6.35 351.35 6.6 350.95 7.35 347.85 12.3 348.0 18.0 348.4 31.7 352.35 45.0 M341.5 36.95 L343.35 35.75 Q343.8 32.1 341.95 28.6 340.8 26.35 340.85 23.9 341.05 8.7 342.55 -6.55 M351.9 54.4 Q346.3 50.75 344.3 44.5 L341.8 37.6 341.5 36.95 Q337.0 31.55 331.1 27.4 330.0 26.6 328.5 26.7 312.85 25.9 297.2 26.25 L288.9 26.2 Q278.65 27.2 268.6 26.25 265.5 26.6 262.75 27.5 L250.9 31.0 Q243.85 33.25 238.5 38.05 237.45 39.0 235.9 39.25 219.65 38.35 203.6 39.8 L194.05 40.3 Q187.75 40.2 181.35 40.35 183.2 46.0 189.25 47.7 207.6 52.95 225.95 46.75 L228.25 46.15 Q235.65 45.85 242.8 47.85 258.45 52.2 274.7 55.35 280.55 56.5 286.35 54.6 288.85 53.75 291.5 53.65 295.3 53.95 299.0 54.9 L304.25 56.35 Q322.3 61.45 339.95 54.75 L341.8 53.95 Q346.45 52.15 350.65 54.65 L351.9 54.4 352.2 54.55 Q357.7 57.85 363.45 60.7 367.75 62.8 369.15 66.35 L368.55 67.95 Q370.35 75.05 375.15 80.65 378.5 84.5 383.8 85.9 386.75 86.75 388.15 89.35 392.9 97.95 403.75 100.8 M337.5 28.45 Q332.6 19.7 331.75 9.6 331.15 1.9 331.85 -5.7 M330.1 20.45 Q328.1 24.8 323.45 23.55 316.1 21.6 314.15 15.05 310.85 4.2 314.95 -5.7 M294.3 -8.2 Q294.4 1.8 295.5 11.65 296.2 17.9 301.2 21.8 L303.0 23.0 Q304.4 23.85 304.25 25.4 M290.9 20.45 Q289.85 24.6 285.2 24.1 280.5 23.45 275.1 21.35 272.3 20.35 270.45 18.0 264.65 10.35 266.1 0.85 L266.8 -4.9 M255.25 -6.55 Q245.25 6.7 248.25 22.25 L249.65 28.2 Q249.9 28.95 249.0 28.65 M237.4 -3.25 Q238.4 7.2 229.75 14.45 L223.15 20.45 M207.15 -8.2 Q203.75 10.65 204.3 29.95 204.5 34.75 209.45 34.95 213.15 32.7 216.4 29.75 220.15 26.4 221.55 21.7 225.6 8.55 227.6 -4.9 M181.35 40.35 L169.65 40.95 156.35 43.3 Q153.95 43.55 152.6 45.0 L150.35 47.05 Q133.55 48.75 117.15 45.2 115.55 44.8 113.9 45.55 109.15 47.6 103.8 47.8 L88.85 46.15 Q84.7 45.65 80.6 45.95 69.55 45.05 60.05 49.9 L55.25 52.4 Q48.45 56.0 40.45 54.8 32.95 54.0 26.05 56.9 23.45 57.95 20.55 58.05 1.4 56.5 -13.25 68.4 M183.65 35.85 Q183.8 36.15 183.55 36.3 L183.35 36.45 183.45 36.25 183.65 35.85 Q185.75 31.1 190.15 26.75 195.9 21.1 201.8 26.2 M97.55 30.3 Q92.2 30.05 90.75 25.7 88.5 19.3 82.4 15.55 73.0 27.7 76.2 42.55 M72.6 37.65 Q65.85 29.05 68.3 17.95 68.65 16.5 68.45 15.0 66.9 4.7 60.15 -3.25 48.3 5.9 43.5 19.0 42.65 21.3 42.35 23.75 M41.5 4.15 Q41.15 6.7 40.05 9.3 37.6 15.15 35.55 21.1 L33.4 27.0 M24.5 -3.25 Q21.2 12.1 28.8 25.9 L32.3 32.0 Q35.4 37.05 31.6 41.75 M28.25 70.3 Q25.2 66.1 21.1 62.75 20.2 61.95 18.7 62.6 15.75 63.9 14.9 66.85 14.7 67.75 12.95 70.3 L12.85 70.45 Q15.85 74.35 20.95 74.2 25.0 74.6 28.55 73.45 29.45 71.9 28.25 70.3 M-13.25 229.75 Q-10.6 231.1 -7.4 232.0 8.7 236.05 25.4 237.55 37.75 238.1 49.75 240.65 58.35 242.45 66.95 239.9 83.0 235.25 99.85 236.4 L112.6 237.1 Q129.4 239.15 144.05 247.45 L150.65 251.6 Q163.0 260.95 178.6 263.55 183.55 264.4 187.95 266.65 194.9 270.3 200.9 275.3 L201.95 266.8 Q202.4 262.25 206.55 259.95 210.95 257.5 215.75 255.5 217.4 254.85 218.15 253.55 221.1 248.85 225.85 245.45 L232.55 251.75 Q233.75 251.55 234.65 250.6 242.7 241.5 245.45 229.9 249.4 232.45 250.45 236.65 250.75 237.95 251.4 239.1 256.85 247.95 259.1 257.9 L267.0 259.35 268.05 261.1 270.9 261.0 Q272.35 260.6 273.1 261.75 276.65 267.8 286.2 275.7 M260.6 263.45 Q254.85 263.05 250.6 259.85 L250.15 259.6 Q243.15 261.4 240.1 267.55 M201.35 275.7 L200.9 275.3 M41.35 -1.05 Q41.8 1.55 41.5 4.15" fill="none" stroke="#0a0d04" stroke-linecap="round" stroke-linejoin="round" stroke-width="1.0"/>
    <path d="M1.8 45.0 Q5.7 45.2 8.4 42.8 9.85 41.55 10.4 39.6 10.95 37.85 11.1 36.0 11.7 29.45 11.5 22.9 11.35 20.05 10.55 17.25 L6.9 3.95 Q6.25 1.45 6.35 -1.2 6.45 -3.05 6.85 -4.85 L7.1 -5.3 M41.5 4.15 L41.35 -0.75 41.35 -1.05 M40.8 -4.1 L40.55 -4.9 M98.1 19.55 L97.65 15.15 Q97.3 10.25 95.4 5.6 94.25 2.9 93.75 0.0 93.6 -0.8 93.6 -1.65 M115.85 37.25 Q111.1 31.0 111.45 23.35 111.6 19.85 112.1 16.4 112.5 13.5 113.4 10.7 L115.45 4.0 Q116.3 1.25 116.5 -1.65 116.75 -4.5 116.3 -7.35 M150.6 39.7 Q150.9 37.4 149.45 35.5 148.15 33.8 147.15 31.85 145.55 28.7 144.5 25.2 143.95 23.55 144.0 21.7 144.15 16.1 145.65 10.65 147.6 3.2 145.65 -4.1 L145.25 -5.3 M191.15 20.05 Q193.45 12.35 190.8 4.85 189.65 1.65 190.6 -1.7 L191.3 -4.05 191.6 -4.5 M180.45 25.35 Q185.4 20.6 184.45 13.9 184.0 11.0 182.95 8.1 182.25 6.15 181.85 4.1 181.05 0.45 181.7 -3.2 182.05 -4.9 182.7 -6.55 M225.85 20.85 Q232.45 16.3 236.45 9.55 L238.95 5.2 Q239.7 3.9 239.95 2.4 L240.5 -2.45 240.55 -4.5 M209.85 31.5 Q216.75 26.65 218.7 18.95 219.25 16.8 219.95 14.7 L220.95 11.05 Q222.75 3.5 223.15 -4.1 L223.2 -5.3 M252.15 22.9 Q250.25 16.7 250.9 10.25 251.55 3.9 254.45 -1.85 255.1 -3.05 256.4 -3.45 L258.45 -3.25 259.3 -2.85 M325.65 20.05 Q322.45 20.65 320.5 17.5 318.5 14.3 318.2 10.65 317.9 6.75 318.1 2.85 318.35 -0.8 319.25 -4.45 L320.35 -8.2 M309.65 -1.2 L310.1 -3.25 310.55 -4.9 M384.95 29.05 Q384.2 29.15 384.25 28.25 L384.2 27.0 Q384.0 23.25 385.25 19.6 387.25 13.4 387.2 6.95 387.2 3.1 387.5 -0.8 L387.6 -2.85 M390.75 37.25 Q393.95 30.7 395.8 23.7 L397.4 16.35 Q398.8 8.9 398.75 1.25 L398.3 -0.8 M385.85 72.4 Q385.5 70.4 385.5 68.35 385.5 65.85 384.8 63.75 384.45 62.85 384.35 61.8 383.85 58.2 382.35 54.85 L381.6 52.85 381.1 51.5 Q379.65 48.3 377.7 45.45 L375.85 42.4 374.95 40.55 Q371.9 33.6 371.95 25.8 371.95 18.5 373.75 11.35 374.25 9.4 374.0 7.35 L373.3 3.3 372.5 0.4 M356.0 44.6 Q353.85 40.05 353.15 34.8 L352.4 30.3 Q350.8 23.1 352.3 15.95 352.85 13.45 353.75 11.05 354.45 9.25 356.45 9.4 M337.25 22.5 Q335.0 15.35 334.05 7.8 333.15 0.2 334.15 -7.35 M345.25 31.1 Q343.75 28.9 343.2 26.15 342.8 23.95 342.75 21.7 342.65 14.6 344.65 7.75 346.8 0.45 346.2 -6.95 M372.9 71.6 Q373.7 69.25 373.3 66.7 L372.9 64.25 M395.65 74.45 Q396.65 81.0 394.25 87.15 L393.85 88.35 M353.7 110.45 Q353.85 109.85 355.05 109.7 M333.25 157.9 Q332.95 156.45 334.6 156.8 L335.45 157.1 M367.55 164.85 Q369.05 163.0 371.15 163.6 L371.55 163.65 M323.85 237.7 Q325.05 236.2 326.95 236.1 L329.2 236.45 330.15 236.85 M306.05 23.75 Q305.65 17.7 300.75 13.9 299.2 12.7 298.75 10.9 298.05 8.0 297.95 4.9 297.8 -0.65 298.5 -6.15 M269.95 -6.15 Q268.4 -2.5 269.35 1.7 271.1 8.7 274.7 14.8 275.8 16.6 277.65 17.95 281.25 20.65 285.15 18.85 M261.55 25.35 L262.95 23.75 263.75 22.9 265.05 24.6 265.55 25.35 M261.1 2.05 L261.55 5.35 M272.65 74.05 Q273.55 72.85 275.2 73.85 L275.75 74.45 M319.4 64.25 Q320.2 63.0 321.65 63.15 L322.55 63.4 M207.2 15.55 Q207.1 8.6 208.2 1.65 L208.95 -2.45 M230.75 35.2 Q232.4 32.8 233.6 29.9 234.15 28.65 235.2 27.8 236.15 27.0 237.45 27.0 239.05 27.0 240.5 27.55 L241.95 28.25 M169.75 36.4 Q170.6 34.8 172.4 34.8 L175.55 35.25 176.45 35.6 M192.0 29.05 Q193.9 27.05 196.45 27.05 198.05 27.05 199.5 28.3 L202.25 30.7 M202.7 92.05 L206.25 91.7 207.6 91.65 M172.4 185.75 L174.25 186.45 175.1 186.55 M293.6 106.8 Q294.7 105.5 296.2 105.65 297.4 105.75 298.55 106.2 L299.35 106.35 M252.15 156.3 Q252.8 153.7 255.7 155.05 L256.65 155.45 M135.45 38.05 L132.7 32.8 Q129.55 26.25 127.75 19.25 126.85 15.6 126.35 11.8 126.1 9.85 126.3 7.8 126.85 2.6 128.3 -2.45 M98.5 36.0 Q99.45 30.1 98.65 24.15 L98.1 19.55 M80.7 27.4 Q81.1 25.4 82.8 24.15 83.35 23.75 83.65 24.15 85.15 25.8 85.9 27.9 86.7 30.2 88.9 31.75 90.05 32.55 90.75 33.65 93.7 37.95 97.55 41.8 L99.35 43.8 Q100.55 45.25 102.5 45.0 M104.25 42.95 Q105.0 43.8 106.2 43.55 106.95 43.4 107.8 43.9 L108.7 44.6 M69.95 40.9 Q65.9 35.0 64.4 28.15 63.75 25.2 63.9 22.1 64.05 18.5 64.9 15.05 65.25 13.3 64.7 11.55 L63.25 8.2 62.4 6.55 M37.0 22.1 Q40.3 16.1 41.1 9.35 L41.5 4.15 M26.7 42.95 Q27.65 38.15 27.4 33.15 L26.85 28.3 Q26.55 26.4 25.7 24.6 L24.15 21.25 Q20.95 14.3 20.2 6.95 19.85 3.5 20.1 0.0 20.3 -3.45 20.95 -6.95 M19.15 63.85 Q21.2 64.95 23.0 66.8 25.45 69.3 24.55 72.4 M2.2 56.85 Q2.65 54.55 5.35 55.05 L7.1 55.65 M50.8 86.3 L57.05 85.7 M45.9 51.95 Q45.9 50.95 46.85 50.85 L49.05 51.15 50.35 51.55 M14.7 153.4 Q15.5 151.65 17.25 152.15 L18.75 152.9 M78.4 180.8 Q79.05 179.5 80.7 180.3 L81.1 180.4 M132.8 145.25 L134.75 143.4 Q135.45 142.8 136.6 143.2 L137.7 144.0 M118.95 102.7 L120.3 102.7 121.2 102.7 M288.7 207.0 L290.25 206.6 291.35 206.65 292.25 207.0 M260.6 219.7 Q260.4 218.9 261.1 218.8 L263.2 218.95 264.2 219.3" fill="none" stroke="#2c3a14" stroke-linecap="round" stroke-linejoin="round" stroke-width="1.0"/>
    <path d="M313.25 48.25 Q321.05 47.6 328.8 48.1 L334.15 47.85 M323.5 42.15 L332.85 41.95 334.6 42.15 M297.65 51.95 L302.6 53.5 Q306.55 54.9 311.0 55.35 L313.7 55.5 323.05 55.45 324.35 55.35 326.6 55.1 328.5 54.55 329.25 54.35 Q333.2 54.15 336.45 52.45 L337.7 51.85 338.2 51.55 Q339.7 50.25 341.75 49.9 M329.25 51.55 L333.3 50.75 M270.45 48.7 Q277.15 46.95 284.3 46.75 291.5 46.55 298.55 47.85 M287.4 30.25 Q295.2 28.8 303.0 30.1 308.3 31.0 313.7 30.25 M278.45 42.15 Q286.25 40.25 294.45 41.15 L301.2 42.05 304.75 42.55 M294.55 36.0 L310.95 35.05 316.85 35.85 325.7 35.6 M246.4 38.45 Q251.8 37.75 257.1 36.35 261.6 35.15 265.85 36.5 L269.15 36.9 Q273.0 36.6 276.7 37.65 M231.7 42.55 Q240.15 42.0 248.65 42.2 L256.2 42.85 258.0 42.95 M285.6 51.55 Q283.45 52.3 281.2 52.5 L280.25 52.55 272.7 52.15 271.8 52.1 267.35 51.1 266.45 50.7 Q264.8 50.05 262.9 49.75 L262.0 49.55 251.35 46.9 245.9 45.55 244.7 45.25 Q242.75 44.65 240.65 44.6 M258.0 33.55 Q261.35 30.35 266.2 31.6 L270.45 32.1 275.35 32.45 Q280.2 33.1 285.15 32.3 M186.3 43.35 Q188.0 46.05 191.65 46.2 L193.0 46.5 194.75 46.95 198.75 47.4 202.3 47.6 204.1 47.55 213.9 46.25 218.75 44.9 220.2 44.55 212.1 45.0 M220.2 44.55 L221.05 44.55 221.45 44.55 224.55 44.6 M193.45 44.2 Q201.35 42.8 209.45 42.15 L215.7 41.7 M65.05 245.9 Q69.35 242.55 74.85 241.75 L79.3 241.1 92.7 240.45 97.15 240.7 99.85 241.0 109.15 242.35 Q115.55 243.2 121.35 246.0 L125.1 247.7 127.9 249.15 Q130.0 250.4 132.2 251.45 L135.1 253.1 Q142.35 257.4 150.65 259.65 156.35 261.2 162.2 262.0 164.2 262.3 165.95 263.25 167.15 263.9 168.45 264.25 176.4 266.4 182.3 271.55 L183.55 272.5 M104.25 266.75 Q111.1 263.45 118.9 264.3 L126.65 265.3 137.7 266.15 143.5 266.35 M74.85 254.5 Q77.8 252.75 81.55 252.8 L89.55 253.6 98.95 254.8 Q103.6 255.1 108.3 254.65 L116.35 254.05 Q119.45 253.85 122.55 254.05 M149.25 271.25 L155.5 270.85 159.5 271.2 162.6 271.65 M-11.1 234.0 Q-7.45 237.0 -2.7 238.2 1.75 239.35 6.25 240.1 L22.3 242.75 27.25 243.7 Q32.3 245.0 37.45 245.2 L39.7 245.4 51.7 245.9 M-0.9 252.45 L5.95 251.55 Q9.85 251.0 13.7 251.65 L20.55 252.95 27.6 254.35 33.05 255.3 38.8 255.7 41.05 255.7 M-2.6 269.6 Q4.4 267.1 12.1 267.3 L23.1 268.45 28.65 269.25 35.6 269.0 44.6 267.15 M40.55 261.45 L48.1 261.2 56.2 261.9 62.45 262.65 Q65.75 262.85 69.1 262.7 L71.75 262.65" fill="none" stroke="#6fa000" stroke-linecap="round" stroke-linejoin="round" stroke-width="1.0"/>
    <path d="M322.55 65.45 Q322.65 66.0 324.05 65.2 L325.25 64.65 M356.0 112.1 Q357.75 111.5 358.8 109.9 M333.7 159.95 Q336.25 160.1 338.15 158.7 L338.6 158.3 M369.8 165.3 L372.8 165.2 M327.95 239.3 L331.95 238.9 M274.0 76.1 L276.25 75.7 M205.4 92.85 L206.75 93.2 208.05 93.3 M297.65 108.4 L300.35 108.1 M54.4 87.95 L55.75 87.65 57.05 87.55 M17.85 155.05 Q19.1 154.3 20.5 153.85 L21.0 153.8 M137.75 145.65 Q139.3 146.75 139.65 144.75 M120.3 104.75 L123.0 104.75 123.9 104.75 M81.5 181.15 L82.05 180.8 M290.95 208.25 L293.1 207.7 293.65 207.4 M262.45 221.3 L265.15 221.3 266.0 221.3" fill="none" stroke="#172109" stroke-linecap="round" stroke-linejoin="round" stroke-width="1.0"/>
  </g>
  <defs>
    <radialGradient cx="0" cy="0" gradientTransform="matrix(0.2996, 0.0, 0.0, 0.0656, 193.1, 42.25)" gradientUnits="userSpaceOnUse" id="gradient0" r="819.2" spreadMethod="pad">
      <stop offset="0.0" stop-color="#282e0e"/>
      <stop offset="0.7490196078431373" stop-color="#1c240b"/>
      <stop offset="1.0" stop-color="#151c09"/>
    </radialGradient>
    <radialGradient cx="0" cy="0" gradientTransform="matrix(0.0044, 0.2296, -0.4983, 0.008, 192.6, 147.0)" gradientUnits="userSpaceOnUse" id="gradient1" r="819.2" spreadMethod="pad">
      <stop offset="0.0" stop-color="#384916"/>
      <stop offset="0.36470588235294116" stop-color="#212e0e"/>
      <stop offset="0.7490196078431373" stop-color="#171c09"/>
      <stop offset="1.0" stop-color="#121607"/>
    </radialGradient>
  </defs>
</svg>
