<?xml version="1.0" encoding="UTF-8" standalone="no"?>
<svg xmlns:xlink="http://www.w3.org/1999/xlink" height="289.15px" width="419.15px" xmlns="http://www.w3.org/2000/svg">
  <g transform="matrix(1.0, 0.0, 0.0, 1.0, 12.8, -4.65)">
    <path d="M354.9 164.15 Q353.4 164.4 351.9 165.0 353.4 164.4 354.9 164.15 M358.35 166.75 L353.0 166.75 358.35 166.75 M366.15 248.4 L362.55 249.25 366.15 248.4 M367.9 251.4 Q364.45 251.95 360.7 252.85 364.45 251.95 367.9 251.4 M405.7 293.8 L-12.15 293.8 -12.15 47.35 405.7 47.35 405.7 293.8 M282.4 99.65 L280.65 100.3 282.4 99.65 M286.1 102.5 Q284.0 100.55 280.6 102.05 284.0 100.55 286.1 102.5 M201.6 90.75 L196.9 90.75 201.6 90.75 M202.2 94.35 L195.65 94.35 202.2 94.35 M278.8 141.8 L274.1 141.8 278.8 141.8 M199.85 165.0 Q199.55 164.1 198.95 163.5 L197.2 163.45 196.3 165.0 197.2 163.45 198.95 163.5 Q199.55 164.1 199.85 165.0 M279.4 144.75 Q276.3 144.4 273.45 145.4 276.3 144.4 279.4 144.75 M322.85 174.05 Q321.55 174.8 320.4 175.65 321.55 174.8 322.85 174.05 M324.5 177.4 L320.4 177.4 324.5 177.4 M110.2 96.7 L104.85 96.7 110.2 96.7 M109.7 98.9 Q107.6 97.45 104.8 97.85 107.6 97.45 109.7 98.9 M28.25 83.6 L30.1 83.6 28.25 83.6 M31.25 83.15 Q30.65 83.35 30.1 83.6 L28.85 84.2 30.1 83.6 Q30.65 83.35 31.25 83.15 M66.75 198.25 Q65.25 195.8 63.3 198.2 65.25 195.8 66.75 198.25 M32.4 83.6 L30.1 83.6 32.4 83.6 M67.45 201.1 Q65.0 199.8 60.85 201.8 65.0 199.8 67.45 201.1 M90.6 164.4 L85.85 164.4 90.6 164.4 M89.95 167.35 L83.45 167.35 89.95 167.35 M24.7 243.95 L22.3 243.95 24.7 243.95 M27.6 246.0 L22.3 245.75 27.6 246.0 M305.85 238.45 Q304.75 236.4 303.2 240.95 304.75 236.4 305.85 238.45 M306.3 243.2 Q304.8 241.25 302.55 242.75 304.8 241.25 306.3 243.2 M202.25 260.6 L199.85 261.15 202.25 260.6 M202.9 263.95 Q201.5 262.8 198.6 264.75 201.5 262.8 202.9 263.95" fill="url(#gradient0)" fill-rule="evenodd" stroke="none"/>
    <path d="M353.0 166.75 L358.35 166.75 M360.7 252.85 Q364.45 251.95 367.9 251.4 M280.6 102.05 Q284.0 100.55 286.1 102.5 M195.65 94.35 L202.2 94.35 M273.45 145.4 Q276.3 144.4 279.4 144.75 M320.4 177.4 L324.5 177.4 M104.8 97.85 Q107.6 97.45 109.7 98.9 M28.85 84.2 L30.1 83.6 Q30.65 83.35 31.25 83.15 M60.85 201.8 Q65.0 199.8 67.45 201.1 M83.45 167.35 L89.95 167.35 M22.3 245.75 L27.6 246.0 M302.55 242.75 Q304.8 241.25 306.3 243.2 M198.6 264.75 Q201.5 262.8 202.9 263.95" fill="none" stroke="#463b31" stroke-linecap="round" stroke-linejoin="round" stroke-width="1.0"/>
    <path d="M351.9 165.0 Q353.4 164.4 354.9 164.15 M362.55 249.25 L366.15 248.4 M280.65 100.3 L282.4 99.65 M196.9 90.75 L201.6 90.75 M196.3 165.0 L197.2 163.45 198.95 163.5 Q199.55 164.1 199.85 165.0 M274.1 141.8 L278.8 141.8 M320.4 175.65 Q321.55 174.8 322.85 174.05 M104.85 96.7 L110.2 96.7 M30.1 83.6 L28.25 83.6 M30.1 83.6 L32.4 83.6 M63.3 198.2 Q65.25 195.8 66.75 198.25 M85.85 164.4 L90.6 164.4 M22.3 243.95 L24.7 243.95 M303.2 240.95 Q304.75 236.4 305.85 238.45 M199.85 261.15 L202.25 260.6" fill="none" stroke="#62574d" stroke-linecap="round" stroke-linejoin="round" stroke-width="1.0"/>
    <path d="M405.85 58.2 L-12.05 58.2 -12.05 54.15 -12.05 4.65 405.85 4.65 405.85 54.15 405.85 58.2 M405.85 54.15 L-12.05 54.15 405.85 54.15" fill="url(#gradient1)" fill-rule="evenodd" stroke="none"/>
    <path d="M-12.05 54.15 L405.85 54.15" fill="none" stroke="#000000" stroke-linecap="round" stroke-linejoin="round" stroke-width="1.0"/>
    <path d="M0.5 25.05 Q0.55 21.2 0.9 18.15 L1.35 15.35 Q2.8 7.55 6.55 7.0 L27.3 7.0 Q31.0 7.55 32.5 15.35 L32.9 18.15 33.35 25.05 33.35 25.1 33.4 25.9 33.4 29.45 33.4 41.8 33.4 53.1 0.45 53.1 0.45 41.8 0.45 29.45 0.45 25.9 0.5 25.05 M32.9 18.15 L0.9 18.15 32.9 18.15 M0.45 29.45 L33.4 29.45 0.45 29.45 M33.4 41.8 L0.45 41.8 33.4 41.8" fill="url(#gradient2)" fill-rule="evenodd" stroke="none"/>
    <path d="M0.5 25.05 Q0.55 21.2 0.9 18.15 L1.35 15.35 Q2.8 7.55 6.55 7.0 L27.3 7.0 Q31.0 7.55 32.5 15.35 L32.9 18.15 33.35 25.05 33.35 25.1 33.4 25.9 33.4 29.45 33.4 41.8 33.4 53.1 0.45 53.1 0.45 41.8 0.45 29.45 0.45 25.9 0.5 25.05 M0.45 41.8 L33.4 41.8 M33.4 29.45 L0.45 29.45 M0.9 18.15 L32.9 18.15" fill="none" stroke="#463b31" stroke-linecap="round" stroke-linejoin="round" stroke-width="1.0"/>
    <path d="M0.5 25.05 Q-6.65 30.1 -12.3 25.05" fill="none" stroke="#6b5e53" stroke-linecap="round" stroke-linejoin="round" stroke-width="1.0"/>
    <path d="M19.55 49.4 Q20.65 48.15 21.9 47.25 21.75 43.95 25.75 43.3 27.1 43.05 28.3 43.9 31.85 45.8 31.85 49.35 31.9 51.3 30.05 52.15 L27.5 52.35 Q25.95 52.0 24.65 51.2 L24.25 51.4 Q23.2 54.05 21.15 52.55 L20.75 52.25 19.6 51.0 19.45 50.8 Q19.05 50.05 19.55 49.4 M30.0 46.65 Q31.5 48.0 31.65 49.2 31.9 50.4 30.9 51.1 30.0 51.75 28.35 51.5 26.85 51.35 25.85 50.7 26.85 51.35 28.35 51.5 30.0 51.75 30.9 51.1 31.9 50.4 31.65 49.2 31.5 48.0 30.0 46.65 M23.0 45.95 L22.7 46.0 Q22.45 46.1 22.35 46.5 22.45 47.55 23.45 47.1 L23.6 46.85 23.6 46.35 23.5 46.2 23.3 45.95 23.25 46.0 23.1 45.95 23.0 45.95 M26.65 48.0 L24.4 47.85 Q23.8 48.55 24.15 49.4 24.65 50.3 25.6 50.25 28.0 50.05 26.65 48.0 M21.0 49.75 L19.6 51.0 21.0 49.75 M21.45 51.65 L20.75 52.25 21.45 51.65 M22.75 48.25 Q22.15 48.35 22.2 49.05 22.15 48.35 22.75 48.25" fill="#999966" fill-rule="evenodd" stroke="none"/>
    <path d="M26.65 48.0 Q28.0 50.05 25.6 50.25 24.65 50.3 24.15 49.4 23.8 48.55 24.4 47.85 L26.65 48.0 M23.0 45.95 L23.1 45.95 23.25 46.0 23.3 45.95 23.5 46.2 23.6 46.35 23.6 46.85 23.45 47.1 Q22.45 47.55 22.35 46.5 22.45 46.1 22.7 46.0 L23.0 45.95" fill="#000000" fill-rule="evenodd" stroke="none"/>
    <path d="M25.85 50.7 Q26.85 51.35 28.35 51.5 30.0 51.75 30.9 51.1 31.9 50.4 31.65 49.2 31.5 48.0 30.0 46.65 M22.2 49.05 Q22.15 48.35 22.75 48.25 M20.75 52.25 L21.45 51.65 M19.6 51.0 L21.0 49.75" fill="none" stroke="#72724d" stroke-linecap="round" stroke-linejoin="round" stroke-width="1.0"/>
    <path d="M2.45 49.4 Q3.55 48.15 4.8 47.25 4.65 43.95 8.65 43.3 10.0 43.05 11.2 43.9 14.75 45.8 14.75 49.35 14.8 51.3 12.95 52.15 L10.4 52.35 Q8.85 52.0 7.55 51.2 L7.15 51.4 Q6.1 54.05 4.05 52.55 L3.65 52.25 2.5 51.0 2.35 50.8 Q1.95 50.05 2.45 49.4 M12.9 46.65 Q14.4 48.0 14.55 49.2 14.8 50.4 13.8 51.1 12.9 51.75 11.25 51.5 9.75 51.35 8.75 50.7 9.75 51.35 11.25 51.5 12.9 51.75 13.8 51.1 14.8 50.4 14.55 49.2 14.4 48.0 12.9 46.65 M5.9 45.95 L5.6 46.0 Q5.35 46.1 5.25 46.5 5.35 47.55 6.35 47.1 L6.5 46.85 6.5 46.35 6.4 46.2 6.2 45.95 6.15 46.0 6.0 45.95 5.9 45.95 M9.55 48.0 L7.3 47.85 Q6.7 48.55 7.05 49.4 7.55 50.3 8.5 50.25 10.9 50.05 9.55 48.0 M3.9 49.75 L2.5 51.0 3.9 49.75 M4.35 51.65 Q4.0 51.85 3.65 52.25 4.0 51.85 4.35 51.65 M5.65 48.25 Q5.05 48.35 5.1 49.05 5.05 48.35 5.65 48.25" fill="#999966" fill-rule="evenodd" stroke="none"/>
    <path d="M9.55 48.0 Q10.9 50.05 8.5 50.25 7.55 50.3 7.05 49.4 6.7 48.55 7.3 47.85 L9.55 48.0 M5.9 45.95 L6.0 45.95 6.15 46.0 6.2 45.95 6.4 46.2 6.5 46.35 6.5 46.85 6.35 47.1 Q5.35 47.55 5.25 46.5 5.35 46.1 5.6 46.0 L5.9 45.95" fill="#000000" fill-rule="evenodd" stroke="none"/>
    <path d="M8.75 50.7 Q9.75 51.35 11.25 51.5 12.9 51.75 13.8 51.1 14.8 50.4 14.55 49.2 14.4 48.0 12.9 46.65 M5.1 49.05 Q5.05 48.35 5.65 48.25 M3.65 52.25 Q4.0 51.85 4.35 51.65 M2.5 51.0 L3.9 49.75" fill="none" stroke="#72724d" stroke-linecap="round" stroke-linejoin="round" stroke-width="1.0"/>
    <path d="M13.0 36.95 Q13.55 37.0 13.55 37.7 13.55 37.0 13.0 36.95 M12.8 34.65 L12.7 34.65 12.45 34.7 12.25 34.85 12.15 35.05 12.15 35.5 12.3 35.8 Q13.2 36.2 13.45 35.2 13.35 34.8 13.05 34.7 L12.8 34.65 M15.0 40.9 L14.55 41.25 Q12.5 42.75 11.5 40.1 L11.15 39.9 Q9.8 40.65 8.25 41.05 L5.65 40.85 Q3.85 39.95 3.9 38.05 3.9 34.5 7.45 32.6 8.6 31.75 10.0 31.95 13.95 32.6 13.85 35.95 L16.15 38.15 Q16.7 38.7 16.35 39.45 L16.1 39.7 14.75 38.45 16.1 39.7 15.0 40.9 14.3 40.35 15.0 40.9 M9.15 36.7 Q7.75 38.8 10.15 38.95 11.1 39.0 11.55 38.1 11.95 37.2 11.4 36.55 L9.15 36.7 M5.75 35.35 Q4.2 36.7 4.05 37.85 3.85 39.1 4.8 39.8 5.75 40.45 7.4 40.2 8.95 40.0 9.85 39.35 8.95 40.0 7.4 40.2 5.75 40.45 4.8 39.8 3.85 39.1 4.05 37.85 4.2 36.7 5.75 35.35" fill="#999966" fill-rule="evenodd" stroke="none"/>
    <path d="M12.8 34.65 L13.05 34.7 Q13.35 34.8 13.45 35.2 13.2 36.2 12.3 35.8 L12.15 35.5 12.15 35.05 12.25 34.85 12.45 34.7 12.7 34.65 12.8 34.65 M9.15 36.7 L11.4 36.55 Q11.95 37.2 11.55 38.1 11.1 39.0 10.15 38.95 7.75 38.8 9.15 36.7" fill="#000000" fill-rule="evenodd" stroke="none"/>
    <path d="M13.55 37.7 Q13.55 37.0 13.0 36.95 M15.0 40.9 L14.3 40.35 M16.1 39.7 L14.75 38.45 M9.85 39.35 Q8.95 40.0 7.4 40.2 5.75 40.45 4.8 39.8 3.85 39.1 4.05 37.85 4.2 36.7 5.75 35.35" fill="none" stroke="#72724d" stroke-linecap="round" stroke-linejoin="round" stroke-width="1.0"/>
    <path d="M20.3 25.75 Q21.4 24.5 22.65 23.6 22.5 20.3 26.5 19.65 27.85 19.4 29.05 20.25 32.6 22.15 32.6 25.7 32.65 27.65 30.8 28.5 L28.25 28.7 Q26.7 28.35 25.4 27.55 L25.0 27.75 Q23.95 30.4 21.9 28.9 L21.5 28.6 20.35 27.35 20.2 27.15 Q19.8 26.4 20.3 25.75 M30.75 23.0 Q32.25 24.35 32.4 25.55 32.65 26.75 31.65 27.45 30.75 28.1 29.1 27.85 27.6 27.7 26.6 27.05 27.6 27.7 29.1 27.85 30.75 28.1 31.65 27.45 32.65 26.75 32.4 25.55 32.25 24.35 30.75 23.0 M23.75 22.3 L23.45 22.35 Q23.2 22.45 23.1 22.85 23.2 23.9 24.2 23.45 L24.35 23.2 24.35 22.7 24.25 22.55 24.05 22.3 24.0 22.35 23.85 22.3 23.75 22.3 M27.4 24.35 L25.15 24.2 Q24.55 24.9 24.9 25.75 25.4 26.65 26.35 26.6 28.75 26.4 27.4 24.35 M21.75 26.1 L20.35 27.35 21.75 26.1 M22.2 28.0 L21.5 28.6 22.2 28.0 M23.5 24.6 Q22.9 24.7 22.95 25.4 22.9 24.7 23.5 24.6" fill="#999966" fill-rule="evenodd" stroke="none"/>
    <path d="M27.4 24.35 Q28.75 26.4 26.35 26.6 25.4 26.65 24.9 25.75 24.55 24.9 25.15 24.2 L27.4 24.35 M23.75 22.3 L23.85 22.3 24.0 22.35 24.05 22.3 24.25 22.55 24.35 22.7 24.35 23.2 24.2 23.45 Q23.2 23.9 23.1 22.85 23.2 22.45 23.45 22.35 L23.75 22.3" fill="#000000" fill-rule="evenodd" stroke="none"/>
    <path d="M26.6 27.05 Q27.6 27.7 29.1 27.85 30.75 28.1 31.65 27.45 32.65 26.75 32.4 25.55 32.25 24.35 30.75 23.0 M22.95 25.4 Q22.9 24.7 23.5 24.6 M21.5 28.6 L22.2 28.0 M20.35 27.35 L21.75 26.1" fill="none" stroke="#72724d" stroke-linecap="round" stroke-linejoin="round" stroke-width="1.0"/>
    <path d="M14.5 25.75 Q13.4 24.5 12.15 23.6 12.3 20.3 8.3 19.65 6.95 19.4 5.75 20.25 2.2 22.15 2.2 25.7 2.15 27.65 4.0 28.5 L6.55 28.7 9.4 27.55 9.8 27.75 Q10.85 30.4 12.9 28.9 L13.3 28.6 14.45 27.35 14.6 27.15 Q15.0 26.4 14.5 25.75 M4.05 23.0 Q2.55 24.35 2.4 25.55 2.15 26.75 3.15 27.45 4.05 28.1 5.7 27.85 7.2 27.7 8.2 27.05 7.2 27.7 5.7 27.85 4.05 28.1 3.15 27.45 2.15 26.75 2.4 25.55 2.55 24.35 4.05 23.0 M11.05 22.3 L11.35 22.35 11.7 22.85 Q11.6 23.9 10.6 23.45 L10.45 23.2 10.45 22.7 10.55 22.55 10.75 22.3 10.8 22.35 10.95 22.3 11.05 22.3 M7.4 24.35 L9.65 24.2 Q10.25 24.9 9.9 25.75 9.4 26.65 8.45 26.6 6.05 26.4 7.4 24.35 M13.05 26.1 L14.45 27.35 13.05 26.1 M12.6 28.0 L13.3 28.6 12.6 28.0 M11.3 24.6 Q11.9 24.7 11.85 25.4 11.9 24.7 11.3 24.6" fill="#999966" fill-rule="evenodd" stroke="none"/>
    <path d="M7.4 24.35 Q6.05 26.4 8.45 26.6 9.4 26.65 9.9 25.75 10.25 24.9 9.65 24.2 L7.4 24.35 M11.05 22.3 L10.95 22.3 10.8 22.35 10.75 22.3 10.55 22.55 10.45 22.7 10.45 23.2 10.6 23.45 Q11.6 23.9 11.7 22.85 L11.35 22.35 11.05 22.3" fill="#000000" fill-rule="evenodd" stroke="none"/>
    <path d="M8.2 27.05 Q7.2 27.7 5.7 27.85 4.05 28.1 3.15 27.45 2.15 26.75 2.4 25.55 2.55 24.35 4.05 23.0 M11.85 25.4 Q11.9 24.7 11.3 24.6 M13.3 28.6 L12.6 28.0 M14.45 27.35 L13.05 26.1" fill="none" stroke="#72724d" stroke-linecap="round" stroke-linejoin="round" stroke-width="1.0"/>
    <path d="M19.05 14.5 L16.7 12.35 Q16.85 9.05 12.85 8.4 11.5 8.15 10.3 9.0 6.75 10.9 6.75 14.45 6.7 16.4 8.55 17.25 L11.1 17.45 13.95 16.3 14.35 16.5 Q15.4 19.15 17.45 17.65 L17.85 17.35 19.0 16.1 19.15 15.9 Q19.55 15.15 19.05 14.5 M8.6 11.75 Q7.1 13.1 6.95 14.3 6.7 15.5 7.7 16.2 8.6 16.85 10.25 16.6 11.75 16.45 12.75 15.8 11.75 16.45 10.25 16.6 8.6 16.85 7.7 16.2 6.7 15.5 6.95 14.3 7.1 13.1 8.6 11.75 M15.6 11.05 L15.9 11.1 Q16.15 11.2 16.25 11.6 16.15 12.65 15.15 12.2 L15.0 11.95 15.0 11.45 15.1 11.3 15.3 11.05 15.35 11.1 15.5 11.05 15.6 11.05 M11.95 13.1 L14.2 12.95 Q14.8 13.65 14.45 14.5 13.95 15.4 13.0 15.35 10.6 15.15 11.95 13.1 M17.6 14.85 L19.0 16.1 17.6 14.85 M17.15 16.75 L17.85 17.35 17.15 16.75 M15.85 13.35 Q16.45 13.45 16.4 14.15 16.45 13.45 15.85 13.35" fill="#999966" fill-rule="evenodd" stroke="none"/>
    <path d="M11.95 13.1 Q10.6 15.15 13.0 15.35 13.95 15.4 14.45 14.5 14.8 13.65 14.2 12.95 L11.95 13.1 M15.6 11.05 L15.5 11.05 15.35 11.1 15.3 11.05 15.1 11.3 15.0 11.45 15.0 11.95 15.15 12.2 Q16.15 12.65 16.25 11.6 16.15 11.2 15.9 11.1 L15.6 11.05" fill="#000000" fill-rule="evenodd" stroke="none"/>
    <path d="M12.75 15.8 Q11.75 16.45 10.25 16.6 8.6 16.85 7.7 16.2 6.7 15.5 6.95 14.3 7.1 13.1 8.6 11.75 M16.4 14.15 Q16.45 13.45 15.85 13.35 M17.85 17.35 L17.15 16.75 M19.0 16.1 L17.6 14.85" fill="none" stroke="#72724d" stroke-linecap="round" stroke-linejoin="round" stroke-width="1.0"/>
    <path d="M29.95 38.6 L30.95 38.65 31.05 38.9 31.15 39.55 31.1 39.9 31.7 40.6 31.75 41.5 30.9 41.65 29.9 41.65 Q25.85 40.45 21.45 40.85 L21.2 41.4 21.0 41.75 Q20.5 42.45 19.75 42.3 L19.35 42.2 18.75 41.9 18.7 41.5 18.75 41.2 18.8 41.0 18.55 40.65 Q18.25 40.35 18.3 39.8 L18.4 39.65 18.65 39.45 20.35 39.35 22.2 39.25 25.9 39.35 Q28.15 39.55 29.95 38.6 L29.1 39.9 24.5 39.85 23.35 39.9 22.0 39.7 21.25 39.95 19.7 39.2 19.3 39.75 19.7 39.2 21.25 39.95 22.0 39.7 23.35 39.9 24.5 39.85 29.1 39.9 29.95 38.6" fill="#999966" fill-rule="evenodd" stroke="none"/>
    <path d="M29.95 38.6 L29.1 39.9 24.5 39.85 23.35 39.9 22.0 39.7 21.25 39.95 19.7 39.2 19.3 39.75" fill="none" stroke="#72724d" stroke-linecap="round" stroke-linejoin="round" stroke-width="1.0"/>
    <path d="M27.55 14.25 L28.3 14.9 28.25 15.15 27.95 15.7 27.7 16.0 27.85 16.95 27.3 17.65 26.5 17.35 25.7 16.7 Q23.15 13.4 19.3 11.2 L18.85 11.5 18.4 11.7 Q17.6 11.95 17.05 11.4 L16.8 11.1 16.5 10.45 16.65 10.15 16.9 9.95 17.05 9.8 17.1 9.4 Q17.0 8.9 17.3 8.5 L17.5 8.45 17.85 8.4 Q18.85 8.35 19.3 9.35 L20.85 10.3 23.8 12.55 Q25.55 13.95 27.55 14.25 L26.05 14.85 22.35 12.1 21.4 11.5 20.4 10.6 19.7 10.3 18.8 8.9 18.15 9.1 18.8 8.9 19.7 10.3 20.4 10.6 21.4 11.5 22.35 12.1 26.05 14.85 27.55 14.25" fill="#999966" fill-rule="evenodd" stroke="none"/>
    <path d="M27.55 14.25 L26.05 14.85 22.35 12.1 21.4 11.5 20.4 10.6 19.7 10.3 18.8 8.9 18.15 9.1" fill="none" stroke="#72724d" stroke-linecap="round" stroke-linejoin="round" stroke-width="1.0"/>
    <path d="M46.2 25.35 Q46.25 21.5 46.6 18.45 L47.05 15.65 Q48.5 7.85 52.25 7.3 L73.0 7.3 Q76.7 7.85 78.2 15.65 L78.6 18.45 79.05 25.35 79.05 25.4 79.1 26.2 79.1 29.75 79.1 42.1 79.1 53.4 46.15 53.4 46.15 42.1 46.15 29.75 46.15 26.2 46.2 25.35 M78.6 18.45 L46.6 18.45 78.6 18.45 M46.15 29.75 L79.1 29.75 46.15 29.75 M79.1 42.1 L46.15 42.1 79.1 42.1" fill="url(#gradient3)" fill-rule="evenodd" stroke="none"/>
    <path d="M46.2 25.35 Q46.25 21.5 46.6 18.45 L47.05 15.65 Q48.5 7.85 52.25 7.3 L73.0 7.3 Q76.7 7.85 78.2 15.65 L78.6 18.45 79.05 25.35 79.05 25.4 79.1 26.2 79.1 29.75 79.1 42.1 79.1 53.4 46.15 53.4 46.15 42.1 46.15 29.75 46.15 26.2 46.2 25.35 M46.15 42.1 L79.1 42.1 M79.1 29.75 L46.15 29.75 M46.6 18.45 L78.6 18.45" fill="none" stroke="#463b31" stroke-linecap="round" stroke-linejoin="round" stroke-width="1.0"/>
    <path d="M46.2 25.35 Q39.05 30.4 33.4 25.35" fill="none" stroke="#6b5e53" stroke-linecap="round" stroke-linejoin="round" stroke-width="1.0"/>
    <path d="M65.25 49.65 Q66.35 48.4 67.6 47.5 67.45 44.2 71.45 43.55 72.8 43.3 74.0 44.15 77.55 46.05 77.55 49.6 77.6 51.55 75.75 52.4 L73.2 52.6 Q71.65 52.25 70.35 51.45 L69.95 51.65 Q68.9 54.3 66.85 52.8 L66.45 52.5 65.3 51.25 65.15 51.05 Q64.75 50.3 65.25 49.65 M75.7 46.9 Q77.2 48.25 77.35 49.45 77.6 50.65 76.6 51.35 75.7 52.0 74.05 51.75 72.55 51.6 71.55 50.95 72.55 51.6 74.05 51.75 75.7 52.0 76.6 51.35 77.6 50.65 77.35 49.45 77.2 48.25 75.7 46.9 M68.7 46.2 L68.4 46.25 Q68.15 46.35 68.05 46.75 68.15 47.8 69.15 47.35 L69.3 47.1 69.3 46.6 69.2 46.45 69.0 46.2 68.95 46.25 68.8 46.2 68.7 46.2 M72.35 48.25 L70.1 48.1 Q69.5 48.8 69.85 49.65 70.35 50.55 71.3 50.5 73.7 50.3 72.35 48.25 M66.7 50.0 L65.3 51.25 66.7 50.0 M67.15 51.9 L66.45 52.5 67.15 51.9 M68.45 48.5 Q67.85 48.6 67.9 49.3 67.85 48.6 68.45 48.5" fill="#999966" fill-rule="evenodd" stroke="none"/>
    <path d="M72.35 48.25 Q73.7 50.3 71.3 50.5 70.35 50.55 69.85 49.65 69.5 48.8 70.1 48.1 L72.35 48.25 M68.7 46.2 L68.8 46.2 68.95 46.25 69.0 46.2 69.2 46.45 69.3 46.6 69.3 47.1 69.15 47.35 Q68.15 47.8 68.05 46.75 68.15 46.35 68.4 46.25 L68.7 46.2" fill="#000000" fill-rule="evenodd" stroke="none"/>
    <path d="M71.55 50.95 Q72.55 51.6 74.05 51.75 75.7 52.0 76.6 51.35 77.6 50.65 77.35 49.45 77.2 48.25 75.7 46.9 M67.9 49.3 Q67.85 48.6 68.45 48.5 M66.45 52.5 L67.15 51.9 M65.3 51.25 L66.7 50.0" fill="none" stroke="#72724d" stroke-linecap="round" stroke-linejoin="round" stroke-width="1.0"/>
    <path d="M48.15 49.65 Q49.25 48.4 50.5 47.5 50.35 44.2 54.35 43.55 55.7 43.3 56.9 44.15 60.45 46.05 60.45 49.6 60.5 51.55 58.65 52.4 L56.1 52.6 Q54.55 52.25 53.25 51.45 L52.85 51.65 Q51.8 54.3 49.75 52.8 L49.35 52.5 48.2 51.25 48.05 51.05 Q47.65 50.3 48.15 49.65 M58.6 46.9 Q60.1 48.25 60.25 49.45 60.5 50.65 59.5 51.35 58.6 52.0 56.95 51.75 55.45 51.6 54.45 50.95 55.45 51.6 56.95 51.75 58.6 52.0 59.5 51.35 60.5 50.65 60.25 49.45 60.1 48.25 58.6 46.9 M51.6 46.2 L51.3 46.25 Q51.05 46.35 50.95 46.75 51.05 47.8 52.05 47.35 L52.2 47.1 52.2 46.6 52.1 46.45 51.9 46.2 51.85 46.25 51.7 46.2 51.6 46.2 M55.25 48.25 L53.0 48.1 Q52.4 48.8 52.75 49.65 53.25 50.55 54.2 50.5 56.6 50.3 55.25 48.25 M49.6 50.0 L48.2 51.25 49.6 50.0 M50.05 51.9 L49.35 52.5 50.05 51.9 M51.35 48.5 Q50.75 48.6 50.8 49.3 50.75 48.6 51.35 48.5" fill="#999966" fill-rule="evenodd" stroke="none"/>
    <path d="M55.25 48.25 Q56.6 50.3 54.2 50.5 53.25 50.55 52.75 49.65 52.4 48.8 53.0 48.1 L55.25 48.25 M51.6 46.2 L51.7 46.2 51.85 46.25 51.9 46.2 52.1 46.45 52.2 46.6 52.2 47.1 52.05 47.35 Q51.05 47.8 50.95 46.75 51.05 46.35 51.3 46.25 L51.6 46.2" fill="#000000" fill-rule="evenodd" stroke="none"/>
    <path d="M54.45 50.95 Q55.45 51.6 56.95 51.75 58.6 52.0 59.5 51.35 60.5 50.65 60.25 49.45 60.1 48.25 58.6 46.9 M50.8 49.3 Q50.75 48.6 51.35 48.5 M49.35 52.5 L50.05 51.9 M48.2 51.25 L49.6 50.0" fill="none" stroke="#72724d" stroke-linecap="round" stroke-linejoin="round" stroke-width="1.0"/>
    <path d="M58.7 37.25 Q59.25 37.3 59.25 38.0 59.25 37.3 58.7 37.25 M58.4 34.95 L58.15 35.0 57.95 35.15 57.85 35.35 57.85 35.8 58.0 36.1 Q58.9 36.5 59.15 35.5 L58.75 35.0 58.5 34.95 58.4 34.95 M60.7 41.2 L60.25 41.55 Q58.2 43.05 57.2 40.4 L56.85 40.2 53.95 41.35 51.35 41.15 Q49.55 40.25 49.6 38.35 49.6 34.8 53.15 32.9 54.3 32.05 55.7 32.25 59.65 32.9 59.55 36.25 60.8 37.15 61.85 38.45 62.4 39.0 62.05 39.75 L61.8 40.0 60.45 38.75 61.8 40.0 60.7 41.2 60.0 40.65 60.7 41.2 M54.85 37.0 Q53.45 39.1 55.85 39.25 56.8 39.3 57.25 38.4 57.65 37.5 57.1 36.85 L54.85 37.0 M51.45 35.65 Q49.9 37.0 49.75 38.15 49.55 39.4 50.5 40.1 51.45 40.75 53.1 40.5 54.65 40.3 55.55 39.65 54.65 40.3 53.1 40.5 51.45 40.75 50.5 40.1 49.55 39.4 49.75 38.15 49.9 37.0 51.45 35.65" fill="#999966" fill-rule="evenodd" stroke="none"/>
    <path d="M58.4 34.95 L58.5 34.95 58.75 35.0 59.15 35.5 Q58.9 36.5 58.0 36.1 L57.85 35.8 57.85 35.35 57.95 35.15 58.15 35.0 58.4 34.95 M54.85 37.0 L57.1 36.85 Q57.65 37.5 57.25 38.4 56.8 39.3 55.85 39.25 53.45 39.1 54.85 37.0" fill="#000000" fill-rule="evenodd" stroke="none"/>
    <path d="M59.25 38.0 Q59.25 37.3 58.7 37.25 M60.7 41.2 L60.0 40.65 M61.8 40.0 L60.45 38.75 M55.55 39.65 Q54.65 40.3 53.1 40.5 51.45 40.75 50.5 40.1 49.55 39.4 49.75 38.15 49.9 37.0 51.45 35.65" fill="none" stroke="#72724d" stroke-linecap="round" stroke-linejoin="round" stroke-width="1.0"/>
    <path d="M65.95 26.05 Q67.05 24.8 68.3 23.9 68.15 20.6 72.15 19.95 73.5 19.7 74.7 20.55 78.25 22.45 78.25 26.0 78.3 27.95 76.45 28.8 L73.9 29.0 Q72.35 28.65 71.05 27.85 L70.65 28.05 Q69.6 30.7 67.55 29.2 L67.15 28.9 66.0 27.65 65.85 27.45 Q65.45 26.7 65.95 26.05 M76.4 23.3 Q77.9 24.65 78.05 25.85 78.3 27.05 77.3 27.75 76.4 28.4 74.75 28.15 73.25 28.0 72.25 27.35 73.25 28.0 74.75 28.15 76.4 28.4 77.3 27.75 78.3 27.05 78.05 25.85 77.9 24.65 76.4 23.3 M69.4 22.6 L69.1 22.65 Q68.85 22.75 68.75 23.15 68.85 24.2 69.85 23.75 L70.0 23.5 70.0 23.0 69.9 22.85 69.7 22.6 69.65 22.65 69.5 22.6 69.4 22.6 M73.05 24.65 L70.8 24.5 Q70.2 25.2 70.55 26.05 71.05 26.95 72.0 26.9 74.4 26.7 73.05 24.65 M67.4 26.4 L66.0 27.65 67.4 26.4 M67.85 28.3 L67.15 28.9 67.85 28.3 M69.15 24.9 Q68.55 25.0 68.6 25.7 68.55 25.0 69.15 24.9" fill="#999966" fill-rule="evenodd" stroke="none"/>
    <path d="M73.05 24.65 Q74.4 26.7 72.0 26.9 71.05 26.95 70.55 26.05 70.2 25.2 70.8 24.5 L73.05 24.65 M69.4 22.6 L69.5 22.6 69.65 22.65 69.7 22.6 69.9 22.85 70.0 23.0 70.0 23.5 69.85 23.75 Q68.85 24.2 68.75 23.15 68.85 22.75 69.1 22.65 L69.4 22.6" fill="#000000" fill-rule="evenodd" stroke="none"/>
    <path d="M72.25 27.35 Q73.25 28.0 74.75 28.15 76.4 28.4 77.3 27.75 78.3 27.05 78.05 25.85 77.9 24.65 76.4 23.3 M68.6 25.7 Q68.55 25.0 69.15 24.9 M67.15 28.9 L67.85 28.3 M66.0 27.65 L67.4 26.4" fill="none" stroke="#72724d" stroke-linecap="round" stroke-linejoin="round" stroke-width="1.0"/>
    <path d="M60.2 26.05 L57.85 23.9 Q58.0 20.6 54.0 19.95 52.65 19.7 51.45 20.55 47.9 22.45 47.9 26.0 47.85 27.95 49.7 28.8 L52.25 29.0 55.1 27.85 55.5 28.05 Q56.55 30.7 58.6 29.2 L59.0 28.9 60.15 27.65 60.3 27.45 Q60.7 26.7 60.2 26.05 M49.75 23.3 Q48.25 24.65 48.1 25.85 47.85 27.05 48.85 27.75 49.75 28.4 51.4 28.15 52.9 28.0 53.9 27.35 52.9 28.0 51.4 28.15 49.75 28.4 48.85 27.75 47.85 27.05 48.1 25.85 48.25 24.65 49.75 23.3 M56.75 22.6 L57.05 22.65 Q57.3 22.75 57.4 23.15 57.3 24.2 56.3 23.75 L56.15 23.5 56.15 23.0 56.25 22.85 56.45 22.6 56.5 22.65 56.65 22.6 56.75 22.6 M53.1 24.65 L55.35 24.5 Q55.95 25.2 55.6 26.05 55.1 26.95 54.15 26.9 51.75 26.7 53.1 24.65 M58.75 26.4 L60.15 27.65 58.75 26.4 M58.3 28.3 L59.0 28.9 58.3 28.3 M57.0 24.9 Q57.6 25.0 57.55 25.7 57.6 25.0 57.0 24.9" fill="#999966" fill-rule="evenodd" stroke="none"/>
    <path d="M53.1 24.65 Q51.75 26.7 54.15 26.9 55.1 26.95 55.6 26.05 55.95 25.2 55.35 24.5 L53.1 24.65 M56.75 22.6 L56.65 22.6 56.5 22.65 56.45 22.6 56.25 22.85 56.15 23.0 56.15 23.5 56.3 23.75 Q57.3 24.2 57.4 23.15 57.3 22.75 57.05 22.65 L56.75 22.6" fill="#000000" fill-rule="evenodd" stroke="none"/>
    <path d="M53.9 27.35 Q52.9 28.0 51.4 28.15 49.75 28.4 48.85 27.75 47.85 27.05 48.1 25.85 48.25 24.65 49.75 23.3 M57.55 25.7 Q57.6 25.0 57.0 24.9 M59.0 28.9 L58.3 28.3 M60.15 27.65 L58.75 26.4" fill="none" stroke="#72724d" stroke-linecap="round" stroke-linejoin="round" stroke-width="1.0"/>
    <path d="M64.75 14.75 Q63.65 13.5 62.4 12.6 62.55 9.3 58.55 8.65 57.2 8.4 56.0 9.25 52.45 11.15 52.45 14.7 52.4 16.65 54.25 17.5 L56.8 17.7 Q58.35 17.35 59.65 16.55 L60.05 16.75 Q61.1 19.4 63.15 17.9 L63.55 17.6 64.7 16.35 64.85 16.15 Q65.25 15.4 64.75 14.75 M54.3 12.0 Q52.8 13.35 52.65 14.55 52.4 15.75 53.4 16.45 54.3 17.1 55.95 16.85 57.45 16.7 58.45 16.05 57.45 16.7 55.95 16.85 54.3 17.1 53.4 16.45 52.4 15.75 52.65 14.55 52.8 13.35 54.3 12.0 M61.3 11.3 L61.6 11.35 61.95 11.85 Q61.85 12.9 60.85 12.45 L60.7 12.2 60.7 11.7 60.8 11.55 61.0 11.3 61.05 11.35 61.2 11.3 61.3 11.3 M57.65 13.35 L59.9 13.2 Q60.5 13.9 60.15 14.75 59.65 15.65 58.7 15.6 56.3 15.4 57.65 13.35 M63.3 15.1 L64.7 16.35 63.3 15.1 M62.85 17.0 L63.55 17.6 62.85 17.0 M61.55 13.6 Q62.15 13.7 62.1 14.4 62.15 13.7 61.55 13.6" fill="#999966" fill-rule="evenodd" stroke="none"/>
    <path d="M57.65 13.35 Q56.3 15.4 58.7 15.6 59.65 15.65 60.15 14.75 60.5 13.9 59.9 13.2 L57.65 13.35 M61.3 11.3 L61.2 11.3 61.05 11.35 61.0 11.3 60.8 11.55 60.7 11.7 60.7 12.2 60.85 12.45 Q61.85 12.9 61.95 11.85 L61.6 11.35 61.3 11.3" fill="#000000" fill-rule="evenodd" stroke="none"/>
    <path d="M58.45 16.05 Q57.45 16.7 55.95 16.85 54.3 17.1 53.4 16.45 52.4 15.75 52.65 14.55 52.8 13.35 54.3 12.0 M62.1 14.4 Q62.15 13.7 61.55 13.6 M63.55 17.6 L62.85 17.0 M64.7 16.35 L63.3 15.1" fill="none" stroke="#72724d" stroke-linecap="round" stroke-linejoin="round" stroke-width="1.0"/>
    <path d="M75.65 38.85 L76.65 38.9 76.75 39.15 76.85 39.8 76.8 40.15 77.4 40.85 77.45 41.75 76.6 41.9 75.6 41.9 Q71.55 40.7 67.15 41.1 L66.9 41.65 66.7 42.0 Q66.2 42.7 65.45 42.55 L65.05 42.45 64.45 42.15 64.4 41.75 64.45 41.45 64.5 41.25 64.25 40.9 Q63.95 40.6 64.0 40.05 L64.1 39.9 64.35 39.7 66.05 39.6 67.9 39.5 71.6 39.6 Q73.85 39.8 75.65 38.85 L74.8 40.15 70.2 40.1 69.05 40.15 67.7 39.95 66.95 40.2 65.4 39.45 65.0 40.0 65.4 39.45 66.95 40.2 67.7 39.95 69.05 40.15 70.2 40.1 74.8 40.15 75.65 38.85" fill="#999966" fill-rule="evenodd" stroke="none"/>
    <path d="M75.65 38.85 L74.8 40.15 70.2 40.1 69.05 40.15 67.7 39.95 66.95 40.2 65.4 39.45 65.0 40.0" fill="none" stroke="#72724d" stroke-linecap="round" stroke-linejoin="round" stroke-width="1.0"/>
    <path d="M73.25 14.5 L74.0 15.15 73.95 15.4 73.65 15.95 73.4 16.25 73.55 17.2 73.0 17.9 72.2 17.6 71.4 16.95 Q68.85 13.65 65.0 11.45 L64.55 11.75 64.1 11.95 Q63.3 12.2 62.75 11.65 L62.5 11.35 62.2 10.7 62.35 10.4 62.6 10.2 62.75 10.05 62.8 9.65 Q62.7 9.15 63.0 8.75 L63.2 8.7 63.55 8.65 Q64.55 8.6 65.0 9.6 L66.55 10.55 69.5 12.8 Q71.25 14.2 73.25 14.5 L71.75 15.1 68.05 12.35 67.1 11.75 66.1 10.85 65.4 10.55 64.5 9.15 63.85 9.35 64.5 9.15 65.4 10.55 66.1 10.85 67.1 11.75 68.05 12.35 71.75 15.1 73.25 14.5" fill="#999966" fill-rule="evenodd" stroke="none"/>
    <path d="M73.25 14.5 L71.75 15.1 68.05 12.35 67.1 11.75 66.1 10.85 65.4 10.55 64.5 9.15 63.85 9.35" fill="none" stroke="#72724d" stroke-linecap="round" stroke-linejoin="round" stroke-width="1.0"/>
    <path d="M137.6 25.35 Q137.65 21.5 138.0 18.45 L138.45 15.65 Q139.9 7.85 143.65 7.3 L164.4 7.3 Q168.1 7.85 169.6 15.65 L170.0 18.45 170.45 25.35 170.45 25.4 170.5 26.2 170.5 29.75 170.5 42.1 170.5 53.4 137.55 53.4 137.55 42.1 137.55 29.75 137.55 26.2 137.6 25.35 M170.0 18.45 L138.0 18.45 170.0 18.45 M137.55 29.75 L170.5 29.75 137.55 29.75 M170.5 42.1 L137.55 42.1 170.5 42.1" fill="url(#gradient4)" fill-rule="evenodd" stroke="none"/>
    <path d="M137.6 25.35 Q137.65 21.5 138.0 18.45 L138.45 15.65 Q139.9 7.85 143.65 7.3 L164.4 7.3 Q168.1 7.85 169.6 15.65 L170.0 18.45 170.45 25.35 170.45 25.4 170.5 26.2 170.5 29.75 170.5 42.1 170.5 53.4 137.55 53.4 137.55 42.1 137.55 29.75 137.55 26.2 137.6 25.35 M137.55 42.1 L170.5 42.1 M170.5 29.75 L137.55 29.75 M138.0 18.45 L170.0 18.45" fill="none" stroke="#463b31" stroke-linecap="round" stroke-linejoin="round" stroke-width="1.0"/>
    <path d="M137.6 25.35 Q130.45 30.4 124.8 25.35" fill="none" stroke="#6b5e53" stroke-linecap="round" stroke-linejoin="round" stroke-width="1.0"/>
    <path d="M156.65 49.65 Q157.75 48.4 159.0 47.5 158.85 44.2 162.85 43.55 164.2 43.3 165.4 44.15 168.95 46.05 168.95 49.6 169.0 51.55 167.15 52.4 L164.6 52.6 Q163.05 52.25 161.75 51.45 L161.35 51.65 Q160.3 54.3 158.25 52.8 L157.85 52.5 156.7 51.25 156.55 51.05 Q156.15 50.3 156.65 49.65 M167.1 46.9 Q168.6 48.25 168.75 49.45 169.0 50.65 168.0 51.35 167.1 52.0 165.45 51.75 163.95 51.6 162.95 50.95 163.95 51.6 165.45 51.75 167.1 52.0 168.0 51.35 169.0 50.65 168.75 49.45 168.6 48.25 167.1 46.9 M160.1 46.2 L159.8 46.25 Q159.55 46.35 159.45 46.75 159.55 47.8 160.55 47.35 L160.7 47.1 160.7 46.6 160.6 46.45 160.4 46.2 160.35 46.25 160.2 46.2 160.1 46.2 M163.75 48.25 L161.5 48.1 Q160.9 48.8 161.25 49.65 161.75 50.55 162.7 50.5 165.1 50.3 163.75 48.25 M158.1 50.0 L156.7 51.25 158.1 50.0 M158.55 51.9 L157.85 52.5 158.55 51.9 M159.85 48.5 Q159.25 48.6 159.3 49.3 159.25 48.6 159.85 48.5" fill="#999966" fill-rule="evenodd" stroke="none"/>
    <path d="M163.75 48.25 Q165.1 50.3 162.7 50.5 161.75 50.55 161.25 49.65 160.9 48.8 161.5 48.1 L163.75 48.25 M160.1 46.2 L160.2 46.2 160.35 46.25 160.4 46.2 160.6 46.45 160.7 46.6 160.7 47.1 160.55 47.35 Q159.55 47.8 159.45 46.75 159.55 46.35 159.8 46.25 L160.1 46.2" fill="#000000" fill-rule="evenodd" stroke="none"/>
    <path d="M162.95 50.95 Q163.95 51.6 165.45 51.75 167.1 52.0 168.0 51.35 169.0 50.65 168.75 49.45 168.6 48.25 167.1 46.9 M159.3 49.3 Q159.25 48.6 159.85 48.5 M157.85 52.5 L158.55 51.9 M156.7 51.25 L158.1 50.0" fill="none" stroke="#72724d" stroke-linecap="round" stroke-linejoin="round" stroke-width="1.0"/>
    <path d="M139.55 49.65 Q140.65 48.4 141.9 47.5 141.75 44.2 145.75 43.55 147.1 43.3 148.3 44.15 151.85 46.05 151.85 49.6 151.9 51.55 150.05 52.4 L147.5 52.6 Q145.95 52.25 144.65 51.45 L144.25 51.65 Q143.2 54.3 141.15 52.8 L140.75 52.5 139.6 51.25 139.45 51.05 Q139.05 50.3 139.55 49.65 M150.0 46.9 Q151.5 48.25 151.65 49.45 151.9 50.65 150.9 51.35 150.0 52.0 148.35 51.75 146.85 51.6 145.85 50.95 146.85 51.6 148.35 51.75 150.0 52.0 150.9 51.35 151.9 50.65 151.65 49.45 151.5 48.25 150.0 46.9 M143.0 46.2 L142.7 46.25 Q142.45 46.35 142.35 46.75 142.45 47.8 143.45 47.35 L143.6 47.1 143.6 46.6 143.5 46.45 143.3 46.2 143.25 46.25 143.1 46.2 143.0 46.2 M146.65 48.25 L144.4 48.1 Q143.8 48.8 144.15 49.65 144.65 50.55 145.6 50.5 148.0 50.3 146.65 48.25 M141.0 50.0 L139.6 51.25 141.0 50.0 M141.45 51.9 L140.75 52.5 141.45 51.9 M142.75 48.5 Q142.15 48.6 142.2 49.3 142.15 48.6 142.75 48.5" fill="#999966" fill-rule="evenodd" stroke="none"/>
    <path d="M146.65 48.25 Q148.0 50.3 145.6 50.5 144.65 50.55 144.15 49.65 143.8 48.8 144.4 48.1 L146.65 48.25 M143.0 46.2 L143.1 46.2 143.25 46.25 143.3 46.2 143.5 46.45 143.6 46.6 143.6 47.1 143.45 47.35 Q142.45 47.8 142.35 46.75 142.45 46.35 142.7 46.25 L143.0 46.2" fill="#000000" fill-rule="evenodd" stroke="none"/>
    <path d="M145.85 50.95 Q146.85 51.6 148.35 51.75 150.0 52.0 150.9 51.35 151.9 50.65 151.65 49.45 151.5 48.25 150.0 46.9 M142.2 49.3 Q142.15 48.6 142.75 48.5 M140.75 52.5 L141.45 51.9 M139.6 51.25 L141.0 50.0" fill="none" stroke="#72724d" stroke-linecap="round" stroke-linejoin="round" stroke-width="1.0"/>
    <path d="M150.1 37.25 Q150.65 37.3 150.65 38.0 150.65 37.3 150.1 37.25 M149.8 34.95 L149.55 35.0 149.35 35.15 149.25 35.35 149.25 35.8 149.4 36.1 Q150.3 36.5 150.55 35.5 150.45 35.1 150.15 35.0 L149.9 34.95 149.8 34.95 M152.1 41.2 L151.65 41.55 Q149.6 43.05 148.6 40.4 L148.25 40.2 Q146.9 40.95 145.35 41.35 L142.75 41.15 Q140.95 40.25 141.0 38.35 141.0 34.8 144.55 32.9 145.7 32.05 147.1 32.25 151.05 32.9 150.95 36.25 152.2 37.15 153.25 38.45 153.8 39.0 153.45 39.75 L153.2 40.0 151.85 38.75 153.2 40.0 152.1 41.2 151.4 40.65 152.1 41.2 M146.25 37.0 Q144.85 39.1 147.25 39.25 148.2 39.3 148.65 38.4 149.05 37.5 148.5 36.85 L146.25 37.0 M142.85 35.65 Q141.3 37.0 141.15 38.15 140.95 39.4 141.9 40.1 142.85 40.75 144.5 40.5 146.05 40.3 146.95 39.65 146.05 40.3 144.5 40.5 142.85 40.75 141.9 40.1 140.95 39.4 141.15 38.15 141.3 37.0 142.85 35.65" fill="#999966" fill-rule="evenodd" stroke="none"/>
    <path d="M149.8 34.95 L149.9 34.95 150.15 35.0 Q150.45 35.1 150.55 35.5 150.3 36.5 149.4 36.1 L149.25 35.8 149.25 35.35 149.35 35.15 149.55 35.0 149.8 34.95 M146.25 37.0 L148.5 36.85 Q149.05 37.5 148.65 38.4 148.2 39.3 147.25 39.25 144.85 39.1 146.25 37.0" fill="#000000" fill-rule="evenodd" stroke="none"/>
    <path d="M150.65 38.0 Q150.65 37.3 150.1 37.25 M152.1 41.2 L151.4 40.65 M153.2 40.0 L151.85 38.75 M146.95 39.65 Q146.05 40.3 144.5 40.5 142.85 40.75 141.9 40.1 140.95 39.4 141.15 38.15 141.3 37.0 142.85 35.65" fill="none" stroke="#72724d" stroke-linecap="round" stroke-linejoin="round" stroke-width="1.0"/>
    <path d="M157.4 26.05 Q158.5 24.8 159.75 23.9 159.6 20.6 163.6 19.95 164.95 19.7 166.15 20.55 169.7 22.45 169.7 26.0 169.75 27.95 167.9 28.8 L165.35 29.0 Q163.8 28.65 162.5 27.85 L162.1 28.05 Q161.05 30.7 159.0 29.2 L158.6 28.9 157.45 27.65 157.3 27.45 Q156.9 26.7 157.4 26.05 M167.85 23.3 Q169.35 24.65 169.5 25.85 169.75 27.05 168.75 27.75 167.85 28.4 166.2 28.15 164.7 28.0 163.7 27.35 164.7 28.0 166.2 28.15 167.85 28.4 168.75 27.75 169.75 27.05 169.5 25.85 169.35 24.65 167.85 23.3 M160.85 22.6 L160.55 22.65 Q160.3 22.75 160.2 23.15 160.3 24.2 161.3 23.75 L161.45 23.5 161.45 23.0 161.35 22.85 161.15 22.6 161.1 22.65 160.95 22.6 160.85 22.6 M164.5 24.65 L162.25 24.5 Q161.65 25.2 162.0 26.05 162.5 26.95 163.45 26.9 165.85 26.7 164.5 24.65 M158.85 26.4 L157.45 27.65 158.85 26.4 M159.3 28.3 L158.6 28.9 159.3 28.3 M160.6 24.9 Q160.0 25.0 160.05 25.7 160.0 25.0 160.6 24.9" fill="#999966" fill-rule="evenodd" stroke="none"/>
    <path d="M164.5 24.65 Q165.85 26.7 163.45 26.9 162.5 26.95 162.0 26.05 161.65 25.2 162.25 24.5 L164.5 24.65 M160.85 22.6 L160.95 22.6 161.1 22.65 161.15 22.6 161.35 22.85 161.45 23.0 161.45 23.5 161.3 23.75 Q160.3 24.2 160.2 23.15 160.3 22.75 160.55 22.65 L160.85 22.6" fill="#000000" fill-rule="evenodd" stroke="none"/>
    <path d="M163.7 27.35 Q164.7 28.0 166.2 28.15 167.85 28.4 168.75 27.75 169.75 27.05 169.5 25.85 169.35 24.65 167.85 23.3 M160.05 25.7 Q160.0 25.0 160.6 24.9 M158.6 28.9 L159.3 28.3 M157.45 27.65 L158.85 26.4" fill="none" stroke="#72724d" stroke-linecap="round" stroke-linejoin="round" stroke-width="1.0"/>
    <path d="M151.6 26.05 L149.25 23.9 Q149.4 20.6 145.4 19.95 144.05 19.7 142.85 20.55 139.3 22.45 139.3 26.0 139.25 27.95 141.1 28.8 L143.65 29.0 Q145.2 28.65 146.5 27.85 L146.9 28.05 Q147.95 30.7 150.0 29.2 L150.4 28.9 151.55 27.65 151.7 27.45 Q152.1 26.7 151.6 26.05 M141.15 23.3 Q139.65 24.65 139.5 25.85 139.25 27.05 140.25 27.75 141.15 28.4 142.8 28.15 144.3 28.0 145.3 27.35 144.3 28.0 142.8 28.15 141.15 28.4 140.25 27.75 139.25 27.05 139.5 25.85 139.65 24.65 141.15 23.3 M148.15 22.6 L148.45 22.65 Q148.7 22.75 148.8 23.15 148.7 24.2 147.7 23.75 L147.55 23.5 147.55 23.0 147.65 22.85 147.85 22.6 147.9 22.65 148.05 22.6 148.15 22.6 M144.5 24.65 L146.75 24.5 Q147.35 25.2 147.0 26.05 146.5 26.95 145.55 26.9 143.15 26.7 144.5 24.65 M150.15 26.4 L151.55 27.65 150.15 26.4 M149.7 28.3 L150.4 28.9 149.7 28.3 M148.4 24.9 Q149.0 25.0 148.95 25.7 149.0 25.0 148.4 24.9" fill="#999966" fill-rule="evenodd" stroke="none"/>
    <path d="M144.5 24.65 Q143.15 26.7 145.55 26.9 146.5 26.95 147.0 26.05 147.35 25.2 146.75 24.5 L144.5 24.65 M148.15 22.6 L148.05 22.6 147.9 22.65 147.85 22.6 147.65 22.85 147.55 23.0 147.55 23.5 147.7 23.75 Q148.7 24.2 148.8 23.15 148.7 22.75 148.45 22.65 L148.15 22.6" fill="#000000" fill-rule="evenodd" stroke="none"/>
    <path d="M145.3 27.35 Q144.3 28.0 142.8 28.15 141.15 28.4 140.25 27.75 139.25 27.05 139.5 25.85 139.65 24.65 141.15 23.3 M148.95 25.7 Q149.0 25.0 148.4 24.9 M150.4 28.9 L149.7 28.3 M151.55 27.65 L150.15 26.4" fill="none" stroke="#72724d" stroke-linecap="round" stroke-linejoin="round" stroke-width="1.0"/>
    <path d="M156.15 14.75 Q155.05 13.5 153.8 12.6 153.95 9.3 149.95 8.65 148.6 8.4 147.4 9.25 143.85 11.15 143.85 14.7 143.8 16.65 145.65 17.5 L148.2 17.7 Q149.75 17.35 151.05 16.55 L151.45 16.75 Q152.5 19.4 154.55 17.9 L154.95 17.6 156.1 16.35 156.25 16.15 Q156.65 15.4 156.15 14.75 M145.7 12.0 Q144.2 13.35 144.05 14.55 143.8 15.75 144.8 16.45 145.7 17.1 147.35 16.85 148.85 16.7 149.85 16.05 148.85 16.7 147.35 16.85 145.7 17.1 144.8 16.45 143.8 15.75 144.05 14.55 144.2 13.35 145.7 12.0 M152.7 11.3 L153.0 11.35 153.35 11.85 Q153.25 12.9 152.25 12.45 L152.1 12.2 152.1 11.7 152.2 11.55 152.4 11.3 152.45 11.35 152.6 11.3 152.7 11.3 M149.05 13.35 L151.3 13.2 Q151.9 13.9 151.55 14.75 151.05 15.65 150.1 15.6 147.7 15.4 149.05 13.35 M154.7 15.1 L156.1 16.35 154.7 15.1 M154.25 17.0 L154.95 17.6 154.25 17.0 M152.95 13.6 Q153.55 13.7 153.5 14.4 153.55 13.7 152.95 13.6" fill="#999966" fill-rule="evenodd" stroke="none"/>
    <path d="M149.05 13.35 Q147.7 15.4 150.1 15.6 151.05 15.65 151.55 14.75 151.9 13.9 151.3 13.2 L149.05 13.35 M152.7 11.3 L152.6 11.3 152.45 11.35 152.4 11.3 152.2 11.55 152.1 11.7 152.1 12.2 152.25 12.45 Q153.25 12.9 153.35 11.85 L153.0 11.35 152.7 11.3" fill="#000000" fill-rule="evenodd" stroke="none"/>
    <path d="M149.85 16.05 Q148.85 16.7 147.35 16.85 145.7 17.1 144.8 16.45 143.8 15.75 144.05 14.55 144.2 13.35 145.7 12.0 M153.5 14.4 Q153.55 13.7 152.95 13.6 M154.95 17.6 L154.25 17.0 M156.1 16.35 L154.7 15.1" fill="none" stroke="#72724d" stroke-linecap="round" stroke-linejoin="round" stroke-width="1.0"/>
    <path d="M167.05 38.85 L168.05 38.9 168.15 39.15 168.25 39.8 168.2 40.15 168.8 40.85 168.85 41.75 168.0 41.9 167.0 41.9 Q162.95 40.7 158.55 41.1 L158.3 41.65 158.1 42.0 Q157.6 42.7 156.85 42.55 L156.45 42.45 155.85 42.15 155.8 41.75 155.85 41.45 155.9 41.25 155.65 40.9 Q155.35 40.6 155.4 40.05 L155.5 39.9 155.75 39.7 157.45 39.6 159.3 39.5 163.0 39.6 Q165.25 39.8 167.05 38.85 L166.2 40.15 161.6 40.1 160.45 40.15 159.1 39.95 158.35 40.2 156.8 39.45 156.4 40.0 156.8 39.45 158.35 40.2 159.1 39.95 160.45 40.15 161.6 40.1 166.2 40.15 167.05 38.85" fill="#999966" fill-rule="evenodd" stroke="none"/>
    <path d="M167.05 38.85 L166.2 40.15 161.6 40.1 160.45 40.15 159.1 39.95 158.35 40.2 156.8 39.45 156.4 40.0" fill="none" stroke="#72724d" stroke-linecap="round" stroke-linejoin="round" stroke-width="1.0"/>
    <path d="M164.65 14.5 L165.4 15.15 165.35 15.4 165.05 15.95 164.8 16.25 164.95 17.2 164.4 17.9 163.6 17.6 162.8 16.95 Q160.25 13.65 156.4 11.45 L155.95 11.75 155.5 11.95 Q154.7 12.2 154.15 11.65 L153.9 11.35 153.6 10.7 153.75 10.4 154.0 10.2 154.15 10.05 154.2 9.65 Q154.1 9.15 154.4 8.75 L154.6 8.7 154.95 8.65 Q155.95 8.6 156.4 9.6 L157.95 10.55 160.9 12.8 Q162.65 14.2 164.65 14.5 L163.15 15.1 159.45 12.35 158.5 11.75 157.5 10.85 156.8 10.55 155.9 9.15 155.25 9.35 155.9 9.15 156.8 10.55 157.5 10.85 158.5 11.75 159.45 12.35 163.15 15.1 164.65 14.5" fill="#999966" fill-rule="evenodd" stroke="none"/>
    <path d="M164.65 14.5 L163.15 15.1 159.45 12.35 158.5 11.75 157.5 10.85 156.8 10.55 155.9 9.15 155.25 9.35" fill="none" stroke="#72724d" stroke-linecap="round" stroke-linejoin="round" stroke-width="1.0"/>
    <path d="M183.3 25.05 Q183.35 21.2 183.7 18.15 L184.15 15.35 Q185.6 7.55 189.35 7.0 L210.1 7.0 Q213.8 7.55 215.3 15.35 L215.7 18.15 216.15 25.05 216.15 25.1 216.2 25.9 216.2 29.45 216.2 41.8 216.2 53.1 183.25 53.1 183.25 41.8 183.25 29.45 183.25 25.9 183.3 25.05 M215.7 18.15 L183.7 18.15 215.7 18.15 M183.25 29.45 L216.2 29.45 183.25 29.45 M216.2 41.8 L183.25 41.8 216.2 41.8" fill="url(#gradient5)" fill-rule="evenodd" stroke="none"/>
    <path d="M183.3 25.05 Q183.35 21.2 183.7 18.15 L184.15 15.35 Q185.6 7.55 189.35 7.0 L210.1 7.0 Q213.8 7.55 215.3 15.35 L215.7 18.15 216.15 25.05 216.15 25.1 216.2 25.9 216.2 29.45 216.2 41.8 216.2 53.1 183.25 53.1 183.25 41.8 183.25 29.45 183.25 25.9 183.3 25.05 M183.25 41.8 L216.2 41.8 M216.2 29.45 L183.25 29.45 M183.7 18.15 L215.7 18.15" fill="none" stroke="#463b31" stroke-linecap="round" stroke-linejoin="round" stroke-width="1.0"/>
    <path d="M183.3 25.05 Q176.15 30.1 170.5 25.05" fill="none" stroke="#6b5e53" stroke-linecap="round" stroke-linejoin="round" stroke-width="1.0"/>
    <path d="M202.35 49.4 Q203.45 48.15 204.7 47.25 204.55 43.95 208.55 43.3 209.9 43.05 211.1 43.9 214.65 45.8 214.65 49.35 214.7 51.3 212.85 52.15 L210.3 52.35 Q208.75 52.0 207.45 51.2 L207.05 51.4 Q206.0 54.05 203.95 52.55 L203.55 52.25 202.4 51.0 202.25 50.8 Q201.85 50.05 202.35 49.4 M212.8 46.65 Q214.3 48.0 214.45 49.2 214.7 50.4 213.7 51.1 212.8 51.75 211.15 51.5 209.65 51.35 208.65 50.7 209.65 51.35 211.15 51.5 212.8 51.75 213.7 51.1 214.7 50.4 214.45 49.2 214.3 48.0 212.8 46.65 M205.8 45.95 L205.5 46.0 Q205.25 46.1 205.15 46.5 205.25 47.55 206.25 47.1 L206.4 46.85 206.4 46.35 206.3 46.2 206.1 45.95 206.05 46.0 205.9 45.95 205.8 45.95 M209.45 48.0 L207.2 47.85 Q206.6 48.55 206.95 49.4 207.45 50.3 208.4 50.25 210.8 50.05 209.45 48.0 M203.8 49.75 L202.4 51.0 203.8 49.75 M204.25 51.65 L203.55 52.25 204.25 51.65 M205.55 48.25 Q204.95 48.35 205.0 49.05 204.95 48.35 205.55 48.25" fill="#999966" fill-rule="evenodd" stroke="none"/>
    <path d="M209.45 48.0 Q210.8 50.05 208.4 50.25 207.45 50.3 206.95 49.4 206.6 48.55 207.2 47.85 L209.45 48.0 M205.8 45.95 L205.9 45.95 206.05 46.0 206.1 45.95 206.3 46.2 206.4 46.35 206.4 46.85 206.25 47.1 Q205.25 47.55 205.15 46.5 205.25 46.1 205.5 46.0 L205.8 45.95" fill="#000000" fill-rule="evenodd" stroke="none"/>
    <path d="M208.65 50.7 Q209.65 51.35 211.15 51.5 212.8 51.75 213.7 51.1 214.7 50.4 214.45 49.2 214.3 48.0 212.8 46.65 M205.0 49.05 Q204.95 48.35 205.55 48.25 M203.55 52.25 L204.25 51.65 M202.4 51.0 L203.8 49.75" fill="none" stroke="#72724d" stroke-linecap="round" stroke-linejoin="round" stroke-width="1.0"/>
    <path d="M185.25 49.4 Q186.35 48.15 187.6 47.25 187.45 43.95 191.45 43.3 192.8 43.05 194.0 43.9 197.55 45.8 197.55 49.35 197.6 51.3 195.75 52.15 L193.2 52.35 Q191.65 52.0 190.35 51.2 L189.95 51.4 Q188.9 54.05 186.85 52.55 L186.45 52.25 185.3 51.0 185.15 50.8 Q184.75 50.05 185.25 49.4 M195.7 46.65 Q197.2 48.0 197.35 49.2 197.6 50.4 196.6 51.1 195.7 51.75 194.05 51.5 192.55 51.35 191.55 50.7 192.55 51.35 194.05 51.5 195.7 51.75 196.6 51.1 197.6 50.4 197.35 49.2 197.2 48.0 195.7 46.65 M188.7 45.95 L188.4 46.0 Q188.15 46.1 188.05 46.5 188.15 47.55 189.15 47.1 L189.3 46.85 189.3 46.35 189.2 46.2 189.0 45.95 188.95 46.0 188.8 45.95 188.7 45.95 M192.35 48.0 L190.1 47.85 Q189.5 48.55 189.85 49.4 190.35 50.3 191.3 50.25 193.7 50.05 192.35 48.0 M186.7 49.75 L185.3 51.0 186.7 49.75 M187.15 51.65 L186.45 52.25 187.15 51.65 M188.45 48.25 Q187.85 48.35 187.9 49.05 187.85 48.35 188.45 48.25" fill="#999966" fill-rule="evenodd" stroke="none"/>
    <path d="M192.35 48.0 Q193.7 50.05 191.3 50.25 190.35 50.3 189.85 49.4 189.5 48.55 190.1 47.85 L192.35 48.0 M188.7 45.95 L188.8 45.95 188.95 46.0 189.0 45.95 189.2 46.2 189.3 46.35 189.3 46.85 189.15 47.1 Q188.15 47.55 188.05 46.5 188.15 46.1 188.4 46.0 L188.7 45.95" fill="#000000" fill-rule="evenodd" stroke="none"/>
    <path d="M191.55 50.7 Q192.55 51.35 194.05 51.5 195.7 51.75 196.6 51.1 197.6 50.4 197.35 49.2 197.2 48.0 195.7 46.65 M187.9 49.05 Q187.85 48.35 188.45 48.25 M186.45 52.25 L187.15 51.65 M185.3 51.0 L186.7 49.75" fill="none" stroke="#72724d" stroke-linecap="round" stroke-linejoin="round" stroke-width="1.0"/>
    <path d="M195.8 36.95 Q196.35 37.0 196.35 37.7 196.35 37.0 195.8 36.95 M195.5 34.65 L195.25 34.7 195.05 34.85 194.95 35.05 194.95 35.5 195.1 35.8 Q196.0 36.2 196.25 35.2 196.15 34.8 195.85 34.7 L195.6 34.65 195.5 34.65 M197.8 40.9 L197.35 41.25 Q195.3 42.75 194.3 40.1 L193.95 39.9 Q192.6 40.65 191.05 41.05 L188.45 40.85 Q186.65 39.95 186.7 38.05 186.7 34.5 190.25 32.6 191.4 31.75 192.8 31.95 196.75 32.6 196.65 35.95 L198.95 38.15 Q199.5 38.7 199.15 39.45 L198.9 39.7 197.55 38.45 198.9 39.7 197.8 40.9 197.1 40.35 197.8 40.9 M191.95 36.7 Q190.55 38.8 192.95 38.95 193.9 39.0 194.35 38.1 194.75 37.2 194.2 36.55 L191.95 36.7 M188.55 35.35 Q187.0 36.7 186.85 37.85 186.65 39.1 187.6 39.8 188.55 40.45 190.2 40.2 191.75 40.0 192.65 39.35 191.75 40.0 190.2 40.2 188.55 40.45 187.6 39.8 186.65 39.1 186.85 37.85 187.0 36.7 188.55 35.35" fill="#999966" fill-rule="evenodd" stroke="none"/>
    <path d="M195.5 34.65 L195.6 34.65 195.85 34.7 Q196.15 34.8 196.25 35.2 196.0 36.2 195.1 35.8 L194.95 35.5 194.95 35.05 195.05 34.85 195.25 34.7 195.5 34.65 M191.95 36.7 L194.2 36.55 Q194.75 37.2 194.35 38.1 193.9 39.0 192.95 38.95 190.55 38.8 191.95 36.7" fill="#000000" fill-rule="evenodd" stroke="none"/>
    <path d="M196.35 37.7 Q196.35 37.0 195.8 36.95 M197.8 40.9 L197.1 40.35 M198.9 39.7 L197.55 38.45 M192.65 39.35 Q191.75 40.0 190.2 40.2 188.55 40.45 187.6 39.8 186.65 39.1 186.85 37.85 187.0 36.7 188.55 35.35" fill="none" stroke="#72724d" stroke-linecap="round" stroke-linejoin="round" stroke-width="1.0"/>
    <path d="M203.05 25.75 Q204.15 24.5 205.4 23.6 205.25 20.3 209.25 19.65 210.6 19.4 211.8 20.25 215.35 22.15 215.35 25.7 215.4 27.65 213.55 28.5 L211.0 28.7 Q209.45 28.35 208.15 27.55 L207.75 27.75 Q206.7 30.4 204.65 28.9 L204.25 28.6 203.1 27.35 202.95 27.15 Q202.55 26.4 203.05 25.75 M213.5 23.0 Q215.0 24.35 215.15 25.55 215.4 26.75 214.4 27.45 213.5 28.1 211.85 27.85 210.35 27.7 209.35 27.05 210.35 27.7 211.85 27.85 213.5 28.1 214.4 27.45 215.4 26.75 215.15 25.55 215.0 24.35 213.5 23.0 M206.5 22.3 L206.2 22.35 Q205.95 22.45 205.85 22.85 205.95 23.9 206.95 23.45 L207.1 23.2 207.1 22.7 207.0 22.55 206.8 22.3 206.75 22.35 206.6 22.3 206.5 22.3 M210.15 24.35 L207.9 24.2 Q207.3 24.9 207.65 25.75 208.15 26.65 209.1 26.6 211.5 26.4 210.15 24.35 M204.5 26.1 L203.1 27.35 204.5 26.1 M204.95 28.0 L204.25 28.6 204.95 28.0 M206.25 24.6 Q205.65 24.7 205.7 25.4 205.65 24.7 206.25 24.6" fill="#999966" fill-rule="evenodd" stroke="none"/>
    <path d="M210.15 24.35 Q211.5 26.4 209.1 26.6 208.15 26.65 207.65 25.75 207.3 24.9 207.9 24.2 L210.15 24.35 M206.5 22.3 L206.6 22.3 206.75 22.35 206.8 22.3 207.0 22.55 207.1 22.7 207.1 23.2 206.95 23.45 Q205.95 23.9 205.85 22.85 205.95 22.45 206.2 22.35 L206.5 22.3" fill="#000000" fill-rule="evenodd" stroke="none"/>
    <path d="M209.35 27.05 Q210.35 27.7 211.85 27.85 213.5 28.1 214.4 27.45 215.4 26.75 215.15 25.55 215.0 24.35 213.5 23.0 M205.7 25.4 Q205.65 24.7 206.25 24.6 M204.25 28.6 L204.95 28.0 M203.1 27.35 L204.5 26.1" fill="none" stroke="#72724d" stroke-linecap="round" stroke-linejoin="round" stroke-width="1.0"/>
    <path d="M197.3 25.75 L194.95 23.6 Q195.1 20.3 191.1 19.65 189.75 19.4 188.55 20.25 185.0 22.15 185.0 25.7 184.95 27.65 186.8 28.5 L189.35 28.7 Q190.9 28.35 192.2 27.55 L192.6 27.75 Q193.65 30.4 195.7 28.9 L196.1 28.6 197.25 27.35 197.4 27.15 Q197.8 26.4 197.3 25.75 M186.85 23.0 Q185.35 24.35 185.2 25.55 184.95 26.75 185.95 27.45 186.85 28.1 188.5 27.85 190.0 27.7 191.0 27.05 190.0 27.7 188.5 27.85 186.85 28.1 185.95 27.45 184.95 26.75 185.2 25.55 185.35 24.35 186.85 23.0 M193.85 22.3 L194.15 22.35 194.5 22.85 Q194.4 23.9 193.4 23.45 L193.25 23.2 193.25 22.7 193.35 22.55 193.55 22.3 193.6 22.35 193.75 22.3 193.85 22.3 M190.2 24.35 L192.45 24.2 Q193.05 24.9 192.7 25.75 192.2 26.65 191.25 26.6 188.85 26.4 190.2 24.35 M195.85 26.1 L197.25 27.35 195.85 26.1 M195.4 28.0 L196.1 28.6 195.4 28.0 M194.1 24.6 Q194.7 24.7 194.65 25.4 194.7 24.7 194.1 24.6" fill="#999966" fill-rule="evenodd" stroke="none"/>
    <path d="M190.2 24.35 Q188.85 26.4 191.25 26.6 192.2 26.65 192.7 25.75 193.05 24.9 192.45 24.2 L190.2 24.35 M193.85 22.3 L193.75 22.3 193.6 22.35 193.55 22.3 193.35 22.55 193.25 22.7 193.25 23.2 193.4 23.45 Q194.4 23.9 194.5 22.85 L194.15 22.35 193.85 22.3" fill="#000000" fill-rule="evenodd" stroke="none"/>
    <path d="M191.0 27.05 Q190.0 27.7 188.5 27.85 186.85 28.1 185.95 27.45 184.95 26.75 185.2 25.55 185.35 24.35 186.85 23.0 M194.65 25.4 Q194.7 24.7 194.1 24.6 M196.1 28.6 L195.4 28.0 M197.25 27.35 L195.85 26.1" fill="none" stroke="#72724d" stroke-linecap="round" stroke-linejoin="round" stroke-width="1.0"/>
    <path d="M201.85 14.5 Q200.75 13.25 199.5 12.35 199.65 9.05 195.65 8.4 194.3 8.15 193.1 9.0 189.55 10.9 189.55 14.45 189.5 16.4 191.35 17.25 L193.9 17.45 196.75 16.3 197.15 16.5 Q198.2 19.15 200.25 17.65 L200.65 17.35 201.8 16.1 201.95 15.9 Q202.35 15.15 201.85 14.5 M191.4 11.75 Q189.9 13.1 189.75 14.3 189.5 15.5 190.5 16.2 191.4 16.85 193.05 16.6 194.55 16.45 195.55 15.8 194.55 16.45 193.05 16.6 191.4 16.85 190.5 16.2 189.5 15.5 189.75 14.3 189.9 13.1 191.4 11.75 M198.4 11.05 L198.7 11.1 199.05 11.6 Q198.95 12.65 197.95 12.2 L197.8 11.95 197.8 11.45 197.9 11.3 198.1 11.05 198.15 11.1 198.3 11.05 198.4 11.05 M194.75 13.1 L197.0 12.95 Q197.6 13.65 197.25 14.5 196.75 15.4 195.8 15.35 193.4 15.15 194.75 13.1 M200.4 14.85 L201.8 16.1 200.4 14.85 M199.95 16.75 L200.65 17.35 199.95 16.75 M198.65 13.35 Q199.25 13.45 199.2 14.15 199.25 13.45 198.65 13.35" fill="#999966" fill-rule="evenodd" stroke="none"/>
    <path d="M194.75 13.1 Q193.4 15.15 195.8 15.35 196.75 15.4 197.25 14.5 197.6 13.65 197.0 12.95 L194.75 13.1 M198.4 11.05 L198.3 11.05 198.15 11.1 198.1 11.05 197.9 11.3 197.8 11.45 197.8 11.95 197.95 12.2 Q198.95 12.65 199.05 11.6 L198.7 11.1 198.4 11.05" fill="#000000" fill-rule="evenodd" stroke="none"/>
    <path d="M195.55 15.8 Q194.55 16.45 193.05 16.6 191.4 16.85 190.5 16.2 189.5 15.5 189.75 14.3 189.9 13.1 191.4 11.75 M199.2 14.15 Q199.25 13.45 198.65 13.35 M200.65 17.35 L199.95 16.75 M201.8 16.1 L200.4 14.85" fill="none" stroke="#72724d" stroke-linecap="round" stroke-linejoin="round" stroke-width="1.0"/>
    <path d="M212.75 38.6 L213.75 38.65 213.85 38.9 213.95 39.55 213.9 39.9 214.5 40.6 214.55 41.5 213.7 41.65 212.7 41.65 Q208.65 40.45 204.25 40.85 L204.0 41.4 203.8 41.75 Q203.3 42.45 202.55 42.3 L202.15 42.2 201.55 41.9 201.5 41.5 201.55 41.2 201.6 41.0 201.35 40.65 Q201.05 40.35 201.1 39.8 L201.2 39.65 201.45 39.45 203.15 39.35 205.0 39.25 208.7 39.35 Q210.95 39.55 212.75 38.6 L211.9 39.9 207.3 39.85 206.15 39.9 204.8 39.7 204.05 39.95 202.5 39.2 202.1 39.75 202.5 39.2 204.05 39.95 204.8 39.7 206.15 39.9 207.3 39.85 211.9 39.9 212.75 38.6" fill="#999966" fill-rule="evenodd" stroke="none"/>
    <path d="M212.75 38.6 L211.9 39.9 207.3 39.85 206.15 39.9 204.8 39.7 204.05 39.95 202.5 39.2 202.1 39.75" fill="none" stroke="#72724d" stroke-linecap="round" stroke-linejoin="round" stroke-width="1.0"/>
    <path d="M210.35 14.25 L211.1 14.9 211.05 15.15 210.75 15.7 210.5 16.0 210.65 16.95 210.1 17.65 209.3 17.35 208.5 16.7 Q205.95 13.4 202.1 11.2 L201.65 11.5 201.2 11.7 Q200.4 11.95 199.85 11.4 L199.6 11.1 199.3 10.45 199.45 10.15 199.7 9.95 199.85 9.8 199.9 9.4 Q199.8 8.9 200.1 8.5 L200.3 8.45 200.65 8.4 Q201.65 8.35 202.1 9.35 L203.65 10.3 206.6 12.55 Q208.35 13.95 210.35 14.25 L208.85 14.85 205.15 12.1 204.2 11.5 203.2 10.6 202.5 10.3 201.6 8.9 200.95 9.1 201.6 8.9 202.5 10.3 203.2 10.6 204.2 11.5 205.15 12.1 208.85 14.85 210.35 14.25" fill="#999966" fill-rule="evenodd" stroke="none"/>
    <path d="M210.35 14.25 L208.85 14.85 205.15 12.1 204.2 11.5 203.2 10.6 202.5 10.3 201.6 8.9 200.95 9.1" fill="none" stroke="#72724d" stroke-linecap="round" stroke-linejoin="round" stroke-width="1.0"/>
    <path d="M229.0 25.05 Q229.05 21.2 229.4 18.15 L229.85 15.35 Q231.3 7.55 235.05 7.0 L255.8 7.0 Q259.5 7.55 261.0 15.35 L261.4 18.15 261.85 25.05 261.85 25.1 261.9 25.9 261.9 29.45 261.9 41.8 261.9 53.1 228.95 53.1 228.95 41.8 228.95 29.45 228.95 25.9 229.0 25.05 M261.4 18.15 L229.4 18.15 261.4 18.15 M228.95 29.45 L261.9 29.45 228.95 29.45 M261.9 41.8 L228.95 41.8 261.9 41.8" fill="url(#gradient6)" fill-rule="evenodd" stroke="none"/>
    <path d="M229.0 25.05 Q229.05 21.2 229.4 18.15 L229.85 15.35 Q231.3 7.55 235.05 7.0 L255.8 7.0 Q259.5 7.55 261.0 15.35 L261.4 18.15 261.85 25.05 261.85 25.1 261.9 25.9 261.9 29.45 261.9 41.8 261.9 53.1 228.95 53.1 228.95 41.8 228.95 29.45 228.95 25.9 229.0 25.05 M228.95 41.8 L261.9 41.8 M261.9 29.45 L228.95 29.45 M229.4 18.15 L261.4 18.15" fill="none" stroke="#463b31" stroke-linecap="round" stroke-linejoin="round" stroke-width="1.0"/>
    <path d="M229.0 25.05 Q221.85 30.1 216.2 25.05" fill="none" stroke="#6b5e53" stroke-linecap="round" stroke-linejoin="round" stroke-width="1.0"/>
    <path d="M248.0 49.4 Q249.1 48.15 250.35 47.25 250.2 43.95 254.2 43.3 255.55 43.05 256.75 43.9 260.3 45.8 260.3 49.35 260.35 51.3 258.5 52.15 L255.95 52.35 Q254.4 52.0 253.1 51.2 L252.7 51.4 Q251.65 54.05 249.6 52.55 L249.2 52.25 248.05 51.0 247.9 50.8 Q247.5 50.05 248.0 49.4 M258.45 46.65 Q259.95 48.0 260.1 49.2 260.35 50.4 259.35 51.1 258.45 51.75 256.8 51.5 255.3 51.35 254.3 50.7 255.3 51.35 256.8 51.5 258.45 51.75 259.35 51.1 260.35 50.4 260.1 49.2 259.95 48.0 258.45 46.65 M251.45 45.95 L251.15 46.0 Q250.9 46.1 250.8 46.5 250.9 47.55 251.9 47.1 L252.05 46.85 252.05 46.35 251.95 46.2 251.75 45.95 251.7 46.0 251.55 45.95 251.45 45.95 M255.1 48.0 L252.85 47.85 Q252.25 48.55 252.6 49.4 253.1 50.3 254.05 50.25 256.45 50.05 255.1 48.0 M249.45 49.75 L248.05 51.0 249.45 49.75 M249.9 51.65 L249.2 52.25 249.9 51.65 M251.2 48.25 Q250.6 48.35 250.65 49.05 250.6 48.35 251.2 48.25" fill="#999966" fill-rule="evenodd" stroke="none"/>
    <path d="M255.1 48.0 Q256.45 50.05 254.05 50.25 253.1 50.3 252.6 49.4 252.25 48.55 252.85 47.85 L255.1 48.0 M251.45 45.95 L251.55 45.95 251.7 46.0 251.75 45.95 251.95 46.2 252.05 46.35 252.05 46.85 251.9 47.1 Q250.9 47.55 250.8 46.5 250.9 46.1 251.15 46.0 L251.45 45.95" fill="#000000" fill-rule="evenodd" stroke="none"/>
    <path d="M254.3 50.7 Q255.3 51.35 256.8 51.5 258.45 51.75 259.35 51.1 260.35 50.4 260.1 49.2 259.95 48.0 258.45 46.65 M250.65 49.05 Q250.6 48.35 251.2 48.25 M249.2 52.25 L249.9 51.65 M248.05 51.0 L249.45 49.75" fill="none" stroke="#72724d" stroke-linecap="round" stroke-linejoin="round" stroke-width="1.0"/>
    <path d="M230.95 49.4 Q232.05 48.15 233.3 47.25 233.15 43.95 237.15 43.3 238.5 43.05 239.7 43.9 243.25 45.8 243.25 49.35 243.3 51.3 241.45 52.15 L238.9 52.35 Q237.35 52.0 236.05 51.2 L235.65 51.4 Q234.6 54.05 232.55 52.55 L232.15 52.25 231.0 51.0 230.85 50.8 Q230.45 50.05 230.95 49.4 M241.4 46.65 Q242.9 48.0 243.05 49.2 243.3 50.4 242.3 51.1 241.4 51.75 239.75 51.5 238.25 51.35 237.25 50.7 238.25 51.35 239.75 51.5 241.4 51.75 242.3 51.1 243.3 50.4 243.05 49.2 242.9 48.0 241.4 46.65 M234.4 45.95 L234.1 46.0 Q233.85 46.1 233.75 46.5 233.85 47.55 234.85 47.1 L235.0 46.85 235.0 46.35 234.9 46.2 234.7 45.95 234.65 46.0 234.5 45.95 234.4 45.95 M238.05 48.0 L235.8 47.85 Q235.2 48.55 235.55 49.4 236.05 50.3 237.0 50.25 239.4 50.05 238.05 48.0 M232.4 49.75 L231.0 51.0 232.4 49.75 M232.85 51.65 L232.15 52.25 232.85 51.65 M234.15 48.25 Q233.55 48.35 233.6 49.05 233.55 48.35 234.15 48.25" fill="#999966" fill-rule="evenodd" stroke="none"/>
    <path d="M238.05 48.0 Q239.4 50.05 237.0 50.25 236.05 50.3 235.55 49.4 235.2 48.55 235.8 47.85 L238.05 48.0 M234.4 45.95 L234.5 45.95 234.65 46.0 234.7 45.95 234.9 46.2 235.0 46.35 235.0 46.85 234.85 47.1 Q233.85 47.55 233.75 46.5 233.85 46.1 234.1 46.0 L234.4 45.95" fill="#000000" fill-rule="evenodd" stroke="none"/>
    <path d="M237.25 50.7 Q238.25 51.35 239.75 51.5 241.4 51.75 242.3 51.1 243.3 50.4 243.05 49.2 242.9 48.0 241.4 46.65 M233.6 49.05 Q233.55 48.35 234.15 48.25 M232.15 52.25 L232.85 51.65 M231.0 51.0 L232.4 49.75" fill="none" stroke="#72724d" stroke-linecap="round" stroke-linejoin="round" stroke-width="1.0"/>
    <path d="M241.55 36.95 Q242.1 37.0 242.1 37.7 242.1 37.0 241.55 36.95 M241.25 34.65 L241.0 34.7 240.8 34.85 240.7 35.05 240.7 35.5 240.85 35.8 Q241.75 36.2 242.0 35.2 L241.6 34.7 241.35 34.65 241.25 34.65 M243.55 40.9 Q243.3 41.1 243.1 41.25 241.05 42.75 240.05 40.1 L239.7 39.9 Q238.35 40.65 236.8 41.05 L234.2 40.85 Q232.4 39.95 232.45 38.05 232.45 34.5 236.0 32.6 237.15 31.75 238.55 31.95 242.5 32.6 242.4 35.95 243.65 36.85 244.7 38.15 245.25 38.7 244.9 39.45 L244.65 39.7 243.3 38.45 244.65 39.7 243.55 40.9 242.85 40.35 243.55 40.9 M237.7 36.7 Q236.3 38.8 238.7 38.95 239.65 39.0 240.1 38.1 240.5 37.2 239.95 36.55 L237.7 36.7 M234.3 35.35 Q232.75 36.7 232.6 37.85 232.4 39.1 233.35 39.8 234.3 40.45 235.95 40.2 237.5 40.0 238.4 39.35 237.5 40.0 235.95 40.2 234.3 40.45 233.35 39.8 232.4 39.1 232.6 37.85 232.75 36.7 234.3 35.35" fill="#999966" fill-rule="evenodd" stroke="none"/>
    <path d="M241.25 34.65 L241.35 34.65 241.6 34.7 242.0 35.2 Q241.75 36.2 240.85 35.8 L240.7 35.5 240.7 35.05 240.8 34.85 241.0 34.7 241.25 34.65 M237.7 36.7 L239.95 36.55 Q240.5 37.2 240.1 38.1 239.65 39.0 238.7 38.95 236.3 38.8 237.7 36.7" fill="#000000" fill-rule="evenodd" stroke="none"/>
    <path d="M242.1 37.7 Q242.1 37.0 241.55 36.95 M243.55 40.9 L242.85 40.35 M244.65 39.7 L243.3 38.45 M238.4 39.35 Q237.5 40.0 235.95 40.2 234.3 40.45 233.35 39.8 232.4 39.1 232.6 37.85 232.75 36.7 234.3 35.35" fill="none" stroke="#72724d" stroke-linecap="round" stroke-linejoin="round" stroke-width="1.0"/>
    <path d="M248.8 25.75 Q249.9 24.5 251.15 23.6 251.0 20.3 255.0 19.65 256.35 19.4 257.55 20.25 261.1 22.15 261.1 25.7 261.15 27.65 259.3 28.5 L256.75 28.7 Q255.2 28.35 253.9 27.55 L253.5 27.75 Q252.45 30.4 250.4 28.9 L250.0 28.6 248.85 27.35 248.7 27.15 Q248.3 26.4 248.8 25.75 M259.25 23.0 Q260.75 24.35 260.9 25.55 261.15 26.75 260.15 27.45 259.25 28.1 257.6 27.85 256.1 27.7 255.1 27.05 256.1 27.7 257.6 27.85 259.25 28.1 260.15 27.45 261.15 26.75 260.9 25.55 260.75 24.35 259.25 23.0 M252.25 22.3 L251.95 22.35 Q251.7 22.45 251.6 22.85 251.7 23.9 252.7 23.45 L252.85 23.2 252.85 22.7 252.75 22.55 252.55 22.3 252.5 22.35 252.35 22.3 252.25 22.3 M255.9 24.35 L253.65 24.2 Q253.05 24.9 253.4 25.75 253.9 26.65 254.85 26.6 257.25 26.4 255.9 24.35 M250.25 26.1 L248.85 27.35 250.25 26.1 M250.7 28.0 L250.0 28.6 250.7 28.0 M252.0 24.6 Q251.4 24.7 251.45 25.4 251.4 24.7 252.0 24.6" fill="#999966" fill-rule="evenodd" stroke="none"/>
    <path d="M255.9 24.35 Q257.25 26.4 254.85 26.6 253.9 26.65 253.4 25.75 253.05 24.9 253.65 24.2 L255.9 24.35 M252.25 22.3 L252.35 22.3 252.5 22.35 252.55 22.3 252.75 22.55 252.85 22.7 252.85 23.2 252.7 23.45 Q251.7 23.9 251.6 22.85 251.7 22.45 251.95 22.35 L252.25 22.3" fill="#000000" fill-rule="evenodd" stroke="none"/>
    <path d="M255.1 27.05 Q256.1 27.7 257.6 27.85 259.25 28.1 260.15 27.45 261.15 26.75 260.9 25.55 260.75 24.35 259.25 23.0 M251.45 25.4 Q251.4 24.7 252.0 24.6 M250.0 28.6 L250.7 28.0 M248.85 27.35 L250.25 26.1" fill="none" stroke="#72724d" stroke-linecap="round" stroke-linejoin="round" stroke-width="1.0"/>
    <path d="M243.0 25.75 Q241.9 24.5 240.65 23.6 240.8 20.3 236.8 19.65 235.45 19.4 234.25 20.25 230.7 22.15 230.7 25.7 230.65 27.65 232.5 28.5 L235.05 28.7 Q236.6 28.35 237.9 27.55 L238.3 27.75 Q239.35 30.4 241.4 28.9 L241.8 28.6 242.95 27.35 243.1 27.15 Q243.5 26.4 243.0 25.75 M232.55 23.0 Q231.05 24.35 230.9 25.55 230.65 26.75 231.65 27.45 232.55 28.1 234.2 27.85 235.7 27.7 236.7 27.05 235.7 27.7 234.2 27.85 232.55 28.1 231.65 27.45 230.65 26.75 230.9 25.55 231.05 24.35 232.55 23.0 M239.55 22.3 L239.85 22.35 240.2 22.85 Q240.1 23.9 239.1 23.45 L238.95 23.2 238.95 22.7 239.05 22.55 239.25 22.3 239.3 22.35 239.45 22.3 239.55 22.3 M235.9 24.35 L238.15 24.2 Q238.75 24.9 238.4 25.75 237.9 26.65 236.95 26.6 234.55 26.4 235.9 24.35 M241.55 26.1 L242.95 27.35 241.55 26.1 M241.1 28.0 L241.8 28.6 241.1 28.0 M239.8 24.6 Q240.4 24.7 240.35 25.4 240.4 24.7 239.8 24.6" fill="#999966" fill-rule="evenodd" stroke="none"/>
    <path d="M235.9 24.35 Q234.55 26.4 236.95 26.6 237.9 26.65 238.4 25.75 238.75 24.9 238.15 24.2 L235.9 24.35 M239.55 22.3 L239.45 22.3 239.3 22.35 239.25 22.3 239.05 22.55 238.95 22.7 238.95 23.2 239.1 23.45 Q240.1 23.9 240.2 22.85 L239.85 22.35 239.55 22.3" fill="#000000" fill-rule="evenodd" stroke="none"/>
    <path d="M236.7 27.05 Q235.7 27.7 234.2 27.85 232.55 28.1 231.65 27.45 230.65 26.75 230.9 25.55 231.05 24.35 232.55 23.0 M240.35 25.4 Q240.4 24.7 239.8 24.6 M241.8 28.6 L241.1 28.0 M242.95 27.35 L241.55 26.1" fill="none" stroke="#72724d" stroke-linecap="round" stroke-linejoin="round" stroke-width="1.0"/>
    <path d="M247.55 14.5 L245.2 12.35 Q245.35 9.05 241.35 8.4 240.0 8.15 238.8 9.0 235.25 10.9 235.25 14.45 235.2 16.4 237.05 17.25 L239.6 17.45 242.45 16.3 242.85 16.5 Q243.9 19.15 245.95 17.65 L246.35 17.35 247.5 16.1 247.65 15.9 Q248.05 15.15 247.55 14.5 M237.1 11.75 Q235.6 13.1 235.45 14.3 235.2 15.5 236.2 16.2 237.1 16.85 238.75 16.6 240.25 16.45 241.25 15.8 240.25 16.45 238.75 16.6 237.1 16.85 236.2 16.2 235.2 15.5 235.45 14.3 235.6 13.1 237.1 11.75 M244.1 11.05 L244.4 11.1 244.75 11.6 Q244.65 12.65 243.65 12.2 L243.5 11.95 243.5 11.45 243.6 11.3 243.8 11.05 243.85 11.1 244.0 11.05 244.1 11.05 M240.45 13.1 L242.7 12.95 Q243.3 13.65 242.95 14.5 242.45 15.4 241.5 15.35 239.1 15.15 240.45 13.1 M246.1 14.85 L247.5 16.1 246.1 14.85 M245.65 16.75 L246.35 17.35 245.65 16.75 M244.35 13.35 Q244.95 13.45 244.9 14.15 244.95 13.45 244.35 13.35" fill="#999966" fill-rule="evenodd" stroke="none"/>
    <path d="M240.45 13.1 Q239.1 15.15 241.5 15.35 242.45 15.4 242.95 14.5 243.3 13.65 242.7 12.95 L240.45 13.1 M244.1 11.05 L244.0 11.05 243.85 11.1 243.8 11.05 243.6 11.3 243.5 11.45 243.5 11.95 243.65 12.2 Q244.65 12.65 244.75 11.6 L244.4 11.1 244.1 11.05" fill="#000000" fill-rule="evenodd" stroke="none"/>
    <path d="M241.25 15.8 Q240.25 16.45 238.75 16.6 237.1 16.85 236.2 16.2 235.2 15.5 235.45 14.3 235.6 13.1 237.1 11.75 M244.9 14.15 Q244.95 13.45 244.35 13.35 M246.35 17.35 L245.65 16.75 M247.5 16.1 L246.1 14.85" fill="none" stroke="#72724d" stroke-linecap="round" stroke-linejoin="round" stroke-width="1.0"/>
    <path d="M258.45 38.6 L259.45 38.65 259.55 38.9 259.65 39.55 259.6 39.9 260.2 40.6 260.25 41.5 259.4 41.65 258.4 41.65 Q254.35 40.45 249.95 40.85 L249.7 41.4 249.5 41.75 Q249.0 42.45 248.25 42.3 L247.85 42.2 247.25 41.9 247.2 41.5 247.25 41.2 247.3 41.0 247.05 40.65 Q246.75 40.35 246.8 39.8 L246.9 39.65 247.15 39.45 248.85 39.35 250.7 39.25 254.4 39.35 Q256.65 39.55 258.45 38.6 L257.6 39.9 253.0 39.85 251.85 39.9 250.5 39.7 249.75 39.95 248.2 39.2 247.8 39.75 248.2 39.2 249.75 39.95 250.5 39.7 251.85 39.9 253.0 39.85 257.6 39.9 258.45 38.6" fill="#999966" fill-rule="evenodd" stroke="none"/>
    <path d="M258.45 38.6 L257.6 39.9 253.0 39.85 251.85 39.9 250.5 39.7 249.75 39.95 248.2 39.2 247.8 39.75" fill="none" stroke="#72724d" stroke-linecap="round" stroke-linejoin="round" stroke-width="1.0"/>
    <path d="M256.05 14.25 L256.8 14.9 256.75 15.15 256.45 15.7 256.2 16.0 256.35 16.95 255.8 17.65 255.0 17.35 254.2 16.7 Q251.65 13.4 247.8 11.2 L247.35 11.5 246.9 11.7 Q246.1 11.95 245.55 11.4 L245.3 11.1 245.0 10.45 245.15 10.15 245.4 9.95 245.55 9.8 245.6 9.4 Q245.5 8.9 245.8 8.5 L246.0 8.45 246.35 8.4 Q247.35 8.35 247.8 9.35 L249.35 10.3 252.3 12.55 Q254.05 13.95 256.05 14.25 L254.55 14.85 250.85 12.1 249.9 11.5 248.9 10.6 248.2 10.3 247.3 8.9 246.65 9.1 247.3 8.9 248.2 10.3 248.9 10.6 249.9 11.5 250.85 12.1 254.55 14.85 256.05 14.25" fill="#999966" fill-rule="evenodd" stroke="none"/>
    <path d="M256.05 14.25 L254.55 14.85 250.85 12.1 249.9 11.5 248.9 10.6 248.2 10.3 247.3 8.9 246.65 9.1" fill="none" stroke="#72724d" stroke-linecap="round" stroke-linejoin="round" stroke-width="1.0"/>
    <path d="M301.45 7.0 Q305.15 7.55 306.65 15.35 L307.1 18.15 307.5 25.05 307.5 25.1 307.6 25.9 307.6 53.1 274.65 53.1 274.65 25.9 274.7 25.05 Q274.75 21.2 275.1 18.15 L275.55 15.35 Q277.0 7.55 280.75 7.0 L301.45 7.0" fill="url(#gradient7)" fill-rule="evenodd" stroke="none"/>
    <path d="M301.45 7.0 L280.75 7.0 Q277.0 7.55 275.55 15.35 L275.1 18.15 Q274.75 21.2 274.7 25.05 L274.65 25.9 274.65 53.1 307.6 53.1 307.6 25.9 307.5 25.1 307.5 25.05 307.1 18.15 306.65 15.35 Q305.15 7.55 301.45 7.0" fill="none" stroke="#463b31" stroke-linecap="round" stroke-linejoin="round" stroke-width="1.0"/>
    <path d="M274.7 25.05 Q267.55 30.1 261.9 25.05" fill="none" stroke="#6b5e53" stroke-linecap="round" stroke-linejoin="round" stroke-width="1.0"/>
    <path d="M298.85 33.9 Q291.25 50.25 283.25 33.9 L283.25 31.1 Q291.35 37.55 298.85 31.1 L298.85 33.9" fill="url(#gradient8)" fill-rule="evenodd" stroke="none"/>
    <path d="M298.85 33.9 Q291.25 50.25 283.25 33.9 L283.25 31.1 Q291.35 37.55 298.85 31.1 L298.85 33.9 Z" fill="none" stroke="#463b31" stroke-linecap="round" stroke-linejoin="round" stroke-width="1.0"/>
    <path d="M320.4 25.05 Q320.45 21.2 320.8 18.15 L321.25 15.35 Q322.7 7.55 326.45 7.0 L347.2 7.0 Q350.9 7.55 352.4 15.35 L352.8 18.15 353.25 25.05 353.25 25.1 353.3 25.9 353.3 29.45 353.3 41.8 353.3 53.1 320.35 53.1 320.35 41.8 320.35 29.45 320.35 25.9 320.4 25.05 M352.8 18.15 L320.8 18.15 352.8 18.15 M320.35 29.45 L353.3 29.45 320.35 29.45 M353.3 41.8 L320.35 41.8 353.3 41.8" fill="url(#gradient9)" fill-rule="evenodd" stroke="none"/>
    <path d="M320.4 25.05 Q320.45 21.2 320.8 18.15 L321.25 15.35 Q322.7 7.55 326.45 7.0 L347.2 7.0 Q350.9 7.55 352.4 15.35 L352.8 18.15 353.25 25.05 353.25 25.1 353.3 25.9 353.3 29.45 353.3 41.8 353.3 53.1 320.35 53.1 320.35 41.8 320.35 29.45 320.35 25.9 320.4 25.05 M320.35 41.8 L353.3 41.8 M353.3 29.45 L320.35 29.45 M320.8 18.15 L352.8 18.15" fill="none" stroke="#463b31" stroke-linecap="round" stroke-linejoin="round" stroke-width="1.0"/>
    <path d="M320.4 25.05 Q313.25 30.1 307.6 25.05" fill="none" stroke="#6b5e53" stroke-linecap="round" stroke-linejoin="round" stroke-width="1.0"/>
    <path d="M339.45 49.4 Q340.55 48.15 341.8 47.25 341.65 43.95 345.65 43.3 347.0 43.05 348.2 43.9 351.75 45.8 351.75 49.35 351.8 51.3 349.95 52.15 L347.4 52.35 Q345.85 52.0 344.55 51.2 L344.15 51.4 Q343.1 54.05 341.05 52.55 L340.65 52.25 339.5 51.0 339.35 50.8 Q338.95 50.05 339.45 49.4 M349.9 46.65 Q351.4 48.0 351.55 49.2 351.8 50.4 350.8 51.1 349.9 51.75 348.25 51.5 346.75 51.35 345.75 50.7 346.75 51.35 348.25 51.5 349.9 51.75 350.8 51.1 351.8 50.4 351.55 49.2 351.4 48.0 349.9 46.65 M342.9 45.95 L342.6 46.0 Q342.35 46.1 342.25 46.5 342.35 47.55 343.35 47.1 L343.5 46.85 343.5 46.35 343.4 46.2 343.2 45.95 343.15 46.0 343.0 45.95 342.9 45.95 M346.55 48.0 L344.3 47.85 Q343.7 48.55 344.05 49.4 344.55 50.3 345.5 50.25 347.9 50.05 346.55 48.0 M340.9 49.75 L339.5 51.0 340.9 49.75 M341.35 51.65 L340.65 52.25 341.35 51.65 M342.65 48.25 Q342.05 48.35 342.1 49.05 342.05 48.35 342.65 48.25" fill="#999966" fill-rule="evenodd" stroke="none"/>
    <path d="M346.55 48.0 Q347.9 50.05 345.5 50.25 344.55 50.3 344.05 49.4 343.7 48.55 344.3 47.85 L346.55 48.0 M342.9 45.95 L343.0 45.95 343.15 46.0 343.2 45.95 343.4 46.2 343.5 46.35 343.5 46.85 343.35 47.1 Q342.35 47.55 342.25 46.5 342.35 46.1 342.6 46.0 L342.9 45.95" fill="#000000" fill-rule="evenodd" stroke="none"/>
    <path d="M345.75 50.7 Q346.75 51.35 348.25 51.5 349.9 51.75 350.8 51.1 351.8 50.4 351.55 49.2 351.4 48.0 349.9 46.65 M342.1 49.05 Q342.05 48.35 342.65 48.25 M340.65 52.25 L341.35 51.65 M339.5 51.0 L340.9 49.75" fill="none" stroke="#72724d" stroke-linecap="round" stroke-linejoin="round" stroke-width="1.0"/>
    <path d="M322.35 49.4 Q323.45 48.15 324.7 47.25 324.55 43.95 328.55 43.3 329.9 43.05 331.1 43.9 334.65 45.8 334.65 49.35 334.7 51.3 332.85 52.15 L330.3 52.35 Q328.75 52.0 327.45 51.2 L327.05 51.4 Q326.0 54.05 323.95 52.55 L323.55 52.25 322.4 51.0 322.25 50.8 Q321.85 50.05 322.35 49.4 M332.8 46.65 Q334.3 48.0 334.45 49.2 334.7 50.4 333.7 51.1 332.8 51.75 331.15 51.5 329.65 51.35 328.65 50.7 329.65 51.35 331.15 51.5 332.8 51.75 333.7 51.1 334.7 50.4 334.45 49.2 334.3 48.0 332.8 46.65 M325.8 45.95 L325.5 46.0 Q325.25 46.1 325.15 46.5 325.25 47.55 326.25 47.1 L326.4 46.85 326.4 46.35 326.3 46.2 326.1 45.95 326.05 46.0 325.9 45.95 325.8 45.95 M329.45 48.0 L327.2 47.85 Q326.6 48.55 326.95 49.4 327.45 50.3 328.4 50.25 330.8 50.05 329.45 48.0 M323.8 49.75 L322.4 51.0 323.8 49.75 M324.25 51.65 L323.55 52.25 324.25 51.65 M325.55 48.25 Q324.95 48.35 325.0 49.05 324.95 48.35 325.55 48.25" fill="#999966" fill-rule="evenodd" stroke="none"/>
    <path d="M329.45 48.0 Q330.8 50.05 328.4 50.25 327.45 50.3 326.95 49.4 326.6 48.55 327.2 47.85 L329.45 48.0 M325.8 45.95 L325.9 45.95 326.05 46.0 326.1 45.95 326.3 46.2 326.4 46.35 326.4 46.85 326.25 47.1 Q325.25 47.55 325.15 46.5 325.25 46.1 325.5 46.0 L325.8 45.95" fill="#000000" fill-rule="evenodd" stroke="none"/>
    <path d="M328.65 50.7 Q329.65 51.35 331.15 51.5 332.8 51.75 333.7 51.1 334.7 50.4 334.45 49.2 334.3 48.0 332.8 46.65 M325.0 49.05 Q324.95 48.35 325.55 48.25 M323.55 52.25 L324.25 51.65 M322.4 51.0 L323.8 49.75" fill="none" stroke="#72724d" stroke-linecap="round" stroke-linejoin="round" stroke-width="1.0"/>
    <path d="M332.9 36.95 Q333.45 37.0 333.45 37.7 333.45 37.0 332.9 36.95 M332.6 34.65 L332.35 34.7 332.15 34.85 332.05 35.05 332.05 35.5 332.2 35.8 Q333.1 36.2 333.35 35.2 333.25 34.8 332.95 34.7 L332.7 34.65 332.6 34.65 M334.9 40.9 Q334.65 41.1 334.45 41.25 332.4 42.75 331.4 40.1 L331.05 39.9 328.15 41.05 325.55 40.85 Q323.75 39.95 323.8 38.05 323.8 34.5 327.35 32.6 328.5 31.75 329.9 31.95 333.85 32.6 333.75 35.95 335.0 36.85 336.05 38.15 336.6 38.7 336.25 39.45 L336.0 39.7 334.65 38.45 336.0 39.7 334.9 40.9 334.2 40.35 334.9 40.9 M329.05 36.7 Q327.65 38.8 330.05 38.95 331.0 39.0 331.45 38.1 331.85 37.2 331.3 36.55 L329.05 36.7 M325.65 35.35 Q324.1 36.7 323.95 37.85 323.75 39.1 324.7 39.8 325.65 40.45 327.3 40.2 328.85 40.0 329.75 39.35 328.85 40.0 327.3 40.2 325.65 40.45 324.7 39.8 323.75 39.1 323.95 37.85 324.1 36.7 325.65 35.35" fill="#999966" fill-rule="evenodd" stroke="none"/>
    <path d="M332.6 34.65 L332.7 34.65 332.95 34.7 Q333.25 34.8 333.35 35.2 333.1 36.2 332.2 35.8 L332.05 35.5 332.05 35.05 332.15 34.85 332.35 34.7 332.6 34.65 M329.05 36.7 L331.3 36.55 Q331.85 37.2 331.45 38.1 331.0 39.0 330.05 38.95 327.65 38.8 329.05 36.7" fill="#000000" fill-rule="evenodd" stroke="none"/>
    <path d="M333.45 37.7 Q333.45 37.0 332.9 36.95 M334.9 40.9 L334.2 40.35 M336.0 39.7 L334.65 38.45 M329.75 39.35 Q328.85 40.0 327.3 40.2 325.65 40.45 324.7 39.8 323.75 39.1 323.95 37.85 324.1 36.7 325.65 35.35" fill="none" stroke="#72724d" stroke-linecap="round" stroke-linejoin="round" stroke-width="1.0"/>
    <path d="M340.15 25.75 Q341.25 24.5 342.5 23.6 342.35 20.3 346.35 19.65 347.7 19.4 348.9 20.25 352.45 22.15 352.45 25.7 352.5 27.65 350.65 28.5 L348.1 28.7 Q346.55 28.35 345.25 27.55 L344.85 27.75 Q343.8 30.4 341.75 28.9 L341.35 28.6 340.2 27.35 340.05 27.15 Q339.65 26.4 340.15 25.75 M350.6 23.0 Q352.1 24.35 352.25 25.55 352.5 26.75 351.5 27.45 350.6 28.1 348.95 27.85 347.45 27.7 346.45 27.05 347.45 27.7 348.95 27.85 350.6 28.1 351.5 27.45 352.5 26.75 352.25 25.55 352.1 24.35 350.6 23.0 M343.6 22.3 L343.3 22.35 Q343.05 22.45 342.95 22.85 343.05 23.9 344.05 23.45 L344.2 23.2 344.2 22.7 344.1 22.55 343.9 22.3 343.85 22.35 343.7 22.3 343.6 22.3 M347.25 24.35 L345.0 24.2 Q344.4 24.9 344.75 25.75 345.25 26.65 346.2 26.6 348.6 26.4 347.25 24.35 M341.6 26.1 L340.2 27.35 341.6 26.1 M342.05 28.0 L341.35 28.6 342.05 28.0 M343.35 24.6 Q342.75 24.7 342.8 25.4 342.75 24.7 343.35 24.6" fill="#999966" fill-rule="evenodd" stroke="none"/>
    <path d="M347.25 24.35 Q348.6 26.4 346.2 26.6 345.25 26.65 344.75 25.75 344.4 24.9 345.0 24.2 L347.25 24.35 M343.6 22.3 L343.7 22.3 343.85 22.35 343.9 22.3 344.1 22.55 344.2 22.7 344.2 23.2 344.05 23.45 Q343.05 23.9 342.95 22.85 343.05 22.45 343.3 22.35 L343.6 22.3" fill="#000000" fill-rule="evenodd" stroke="none"/>
    <path d="M346.45 27.05 Q347.45 27.7 348.95 27.85 350.6 28.1 351.5 27.45 352.5 26.75 352.25 25.55 352.1 24.35 350.6 23.0 M342.8 25.4 Q342.75 24.7 343.35 24.6 M341.35 28.6 L342.05 28.0 M340.2 27.35 L341.6 26.1" fill="none" stroke="#72724d" stroke-linecap="round" stroke-linejoin="round" stroke-width="1.0"/>
    <path d="M334.35 25.75 L332.0 23.6 Q332.15 20.3 328.15 19.65 326.8 19.4 325.6 20.25 322.05 22.15 322.05 25.7 322.0 27.65 323.85 28.5 L326.4 28.7 Q327.95 28.35 329.25 27.55 L329.65 27.75 Q330.7 30.4 332.75 28.9 L333.15 28.6 334.3 27.35 334.45 27.15 Q334.85 26.4 334.35 25.75 M323.9 23.0 Q322.4 24.35 322.25 25.55 322.0 26.75 323.0 27.45 323.9 28.1 325.55 27.85 327.05 27.7 328.05 27.05 327.05 27.7 325.55 27.85 323.9 28.1 323.0 27.45 322.0 26.75 322.25 25.55 322.4 24.35 323.9 23.0 M330.9 22.3 L331.2 22.35 331.55 22.85 Q331.45 23.9 330.45 23.45 L330.3 23.2 330.3 22.7 330.4 22.55 330.6 22.3 330.65 22.35 330.8 22.3 330.9 22.3 M327.25 24.35 L329.5 24.2 Q330.1 24.9 329.75 25.75 329.25 26.65 328.3 26.6 325.9 26.4 327.25 24.35 M332.9 26.1 L334.3 27.35 332.9 26.1 M332.45 28.0 L333.15 28.6 332.45 28.0 M331.15 24.6 Q331.75 24.7 331.7 25.4 331.75 24.7 331.15 24.6" fill="#999966" fill-rule="evenodd" stroke="none"/>
    <path d="M327.25 24.35 Q325.9 26.4 328.3 26.6 329.25 26.65 329.75 25.75 330.1 24.9 329.5 24.2 L327.25 24.35 M330.9 22.3 L330.8 22.3 330.65 22.35 330.6 22.3 330.4 22.55 330.3 22.7 330.3 23.2 330.45 23.45 Q331.45 23.9 331.55 22.85 L331.2 22.35 330.9 22.3" fill="#000000" fill-rule="evenodd" stroke="none"/>
    <path d="M328.05 27.05 Q327.05 27.7 325.55 27.85 323.9 28.1 323.0 27.45 322.0 26.75 322.25 25.55 322.4 24.35 323.9 23.0 M331.7 25.4 Q331.75 24.7 331.15 24.6 M333.15 28.6 L332.45 28.0 M334.3 27.35 L332.9 26.1" fill="none" stroke="#72724d" stroke-linecap="round" stroke-linejoin="round" stroke-width="1.0"/>
    <path d="M338.95 14.5 Q337.85 13.25 336.6 12.35 336.75 9.05 332.75 8.4 331.4 8.15 330.2 9.0 326.65 10.9 326.65 14.45 326.6 16.4 328.45 17.25 L331.0 17.45 Q332.55 17.1 333.85 16.3 L334.25 16.5 Q335.3 19.15 337.35 17.65 L337.75 17.35 338.9 16.1 339.05 15.9 Q339.45 15.15 338.95 14.5 M328.5 11.75 Q327.0 13.1 326.85 14.3 326.6 15.5 327.6 16.2 328.5 16.85 330.15 16.6 331.65 16.45 332.65 15.8 331.65 16.45 330.15 16.6 328.5 16.85 327.6 16.2 326.6 15.5 326.85 14.3 327.0 13.1 328.5 11.75 M335.5 11.05 L335.8 11.1 336.15 11.6 Q336.05 12.65 335.05 12.2 L334.9 11.95 334.9 11.45 335.0 11.3 335.2 11.05 335.25 11.1 335.4 11.05 335.5 11.05 M331.85 13.1 L334.1 12.95 Q334.7 13.65 334.35 14.5 333.85 15.4 332.9 15.35 330.5 15.15 331.85 13.1 M337.5 14.85 L338.9 16.1 337.5 14.85 M337.05 16.75 L337.75 17.35 337.05 16.75 M335.75 13.35 Q336.35 13.45 336.3 14.15 336.35 13.45 335.75 13.35" fill="#999966" fill-rule="evenodd" stroke="none"/>
    <path d="M331.85 13.1 Q330.5 15.15 332.9 15.35 333.85 15.4 334.35 14.5 334.7 13.65 334.1 12.95 L331.85 13.1 M335.5 11.05 L335.4 11.05 335.25 11.1 335.2 11.05 335.0 11.3 334.9 11.45 334.9 11.95 335.05 12.2 Q336.05 12.65 336.15 11.6 L335.8 11.1 335.5 11.05" fill="#000000" fill-rule="evenodd" stroke="none"/>
    <path d="M332.65 15.8 Q331.65 16.45 330.15 16.6 328.5 16.85 327.6 16.2 326.6 15.5 326.85 14.3 327.0 13.1 328.5 11.75 M336.3 14.15 Q336.35 13.45 335.75 13.35 M337.75 17.35 L337.05 16.75 M338.9 16.1 L337.5 14.85" fill="none" stroke="#72724d" stroke-linecap="round" stroke-linejoin="round" stroke-width="1.0"/>
    <path d="M349.85 38.6 L350.85 38.65 350.95 38.9 351.05 39.55 351.0 39.9 351.6 40.6 351.65 41.5 350.8 41.65 349.8 41.65 Q345.75 40.45 341.35 40.85 L341.1 41.4 340.9 41.75 Q340.4 42.45 339.65 42.3 L339.25 42.2 338.65 41.9 338.6 41.5 338.65 41.2 338.7 41.0 338.45 40.65 Q338.15 40.35 338.2 39.8 L338.3 39.65 338.55 39.45 340.25 39.35 342.1 39.25 345.8 39.35 Q348.05 39.55 349.85 38.6 L349.0 39.9 344.4 39.85 343.25 39.9 341.9 39.7 341.15 39.95 339.6 39.2 339.2 39.75 339.6 39.2 341.15 39.95 341.9 39.7 343.25 39.9 344.4 39.85 349.0 39.9 349.85 38.6" fill="#999966" fill-rule="evenodd" stroke="none"/>
    <path d="M349.85 38.6 L349.0 39.9 344.4 39.85 343.25 39.9 341.9 39.7 341.15 39.95 339.6 39.2 339.2 39.75" fill="none" stroke="#72724d" stroke-linecap="round" stroke-linejoin="round" stroke-width="1.0"/>
    <path d="M347.4 14.25 L348.15 14.9 348.1 15.15 347.8 15.7 347.55 16.0 347.7 16.95 347.15 17.65 346.35 17.35 345.55 16.7 Q343.0 13.4 339.15 11.2 L338.7 11.5 338.25 11.7 Q337.45 11.95 336.9 11.4 L336.65 11.1 336.35 10.45 336.5 10.15 336.75 9.95 336.9 9.8 336.95 9.4 Q336.85 8.9 337.15 8.5 L337.35 8.45 337.7 8.4 Q338.7 8.35 339.15 9.35 L340.7 10.3 343.65 12.55 Q345.4 13.95 347.4 14.25 L345.9 14.85 342.2 12.1 341.25 11.5 340.25 10.6 339.55 10.3 338.65 8.9 338.0 9.1 338.65 8.9 339.55 10.3 340.25 10.6 341.25 11.5 342.2 12.1 345.9 14.85 347.4 14.25" fill="#999966" fill-rule="evenodd" stroke="none"/>
    <path d="M347.4 14.25 L345.9 14.85 342.2 12.1 341.25 11.5 340.25 10.6 339.55 10.3 338.65 8.9 338.0 9.1" fill="none" stroke="#72724d" stroke-linecap="round" stroke-linejoin="round" stroke-width="1.0"/>
    <path d="M366.1 25.05 Q366.15 21.2 366.5 18.15 L366.95 15.35 Q368.4 7.55 372.15 7.0 L392.9 7.0 Q396.6 7.55 398.1 15.35 L398.5 18.15 398.95 25.05 398.95 25.1 399.0 25.9 399.0 29.45 399.0 41.8 399.0 53.1 366.05 53.1 366.05 41.8 366.05 29.45 366.05 25.9 366.1 25.05 M398.5 18.15 L366.5 18.15 398.5 18.15 M366.05 29.45 L399.0 29.45 366.05 29.45 M399.0 41.8 L366.05 41.8 399.0 41.8" fill="url(#gradient10)" fill-rule="evenodd" stroke="none"/>
    <path d="M366.1 25.05 Q366.15 21.2 366.5 18.15 L366.95 15.35 Q368.4 7.55 372.15 7.0 L392.9 7.0 Q396.6 7.55 398.1 15.35 L398.5 18.15 398.95 25.05 398.95 25.1 399.0 25.9 399.0 29.45 399.0 41.8 399.0 53.1 366.05 53.1 366.05 41.8 366.05 29.45 366.05 25.9 366.1 25.05 M366.05 41.8 L399.0 41.8 M399.0 29.45 L366.05 29.45 M366.5 18.15 L398.5 18.15" fill="none" stroke="#463b31" stroke-linecap="round" stroke-linejoin="round" stroke-width="1.0"/>
    <path d="M366.1 25.05 Q358.95 30.1 353.3 25.05" fill="none" stroke="#6b5e53" stroke-linecap="round" stroke-linejoin="round" stroke-width="1.0"/>
    <path d="M385.1 49.4 Q386.2 48.15 387.45 47.25 387.3 43.95 391.3 43.3 392.65 43.05 393.85 43.9 397.4 45.8 397.4 49.35 397.45 51.3 395.6 52.15 L393.05 52.35 Q391.5 52.0 390.2 51.2 L389.8 51.4 Q388.75 54.05 386.7 52.55 L386.3 52.25 385.15 51.0 385.0 50.8 Q384.6 50.05 385.1 49.4 M395.55 46.65 Q397.05 48.0 397.2 49.2 397.45 50.4 396.45 51.1 395.55 51.75 393.9 51.5 392.4 51.35 391.4 50.7 392.4 51.35 393.9 51.5 395.55 51.75 396.45 51.1 397.45 50.4 397.2 49.2 397.05 48.0 395.55 46.65 M388.55 45.95 L388.25 46.0 Q388.0 46.1 387.9 46.5 388.0 47.55 389.0 47.1 L389.15 46.85 389.15 46.35 389.05 46.2 388.85 45.95 388.8 46.0 388.65 45.95 388.55 45.95 M392.2 48.0 L389.95 47.85 Q389.35 48.55 389.7 49.4 390.2 50.3 391.15 50.25 393.55 50.05 392.2 48.0 M386.55 49.75 L385.15 51.0 386.55 49.75 M387.0 51.65 L386.3 52.25 387.0 51.65 M388.3 48.25 Q387.7 48.35 387.75 49.05 387.7 48.35 388.3 48.25" fill="#999966" fill-rule="evenodd" stroke="none"/>
    <path d="M392.2 48.0 Q393.55 50.05 391.15 50.25 390.2 50.3 389.7 49.4 389.35 48.55 389.95 47.85 L392.2 48.0 M388.55 45.95 L388.65 45.95 388.8 46.0 388.85 45.95 389.05 46.2 389.15 46.35 389.15 46.85 389.0 47.1 Q388.0 47.55 387.9 46.5 388.0 46.1 388.25 46.0 L388.55 45.95" fill="#000000" fill-rule="evenodd" stroke="none"/>
    <path d="M391.4 50.7 Q392.4 51.35 393.9 51.5 395.55 51.75 396.45 51.1 397.45 50.4 397.2 49.2 397.05 48.0 395.55 46.65 M387.75 49.05 Q387.7 48.35 388.3 48.25 M386.3 52.25 L387.0 51.65 M385.15 51.0 L386.55 49.75" fill="none" stroke="#72724d" stroke-linecap="round" stroke-linejoin="round" stroke-width="1.0"/>
    <path d="M368.0 49.4 Q369.1 48.15 370.35 47.25 370.2 43.95 374.2 43.3 375.55 43.05 376.75 43.9 380.3 45.8 380.3 49.35 380.35 51.3 378.5 52.15 L375.95 52.35 Q374.4 52.0 373.1 51.2 L372.7 51.4 Q371.65 54.05 369.6 52.55 L369.2 52.25 368.05 51.0 367.9 50.8 Q367.5 50.05 368.0 49.4 M378.45 46.65 Q379.95 48.0 380.1 49.2 380.35 50.4 379.35 51.1 378.45 51.75 376.8 51.5 375.3 51.35 374.3 50.7 375.3 51.35 376.8 51.5 378.45 51.75 379.35 51.1 380.35 50.4 380.1 49.2 379.95 48.0 378.45 46.65 M371.45 45.95 L371.15 46.0 Q370.9 46.1 370.8 46.5 370.9 47.55 371.9 47.1 L372.05 46.85 372.05 46.35 371.95 46.2 371.75 45.95 371.7 46.0 371.55 45.95 371.45 45.95 M375.1 48.0 L372.85 47.85 Q372.25 48.55 372.6 49.4 373.1 50.3 374.05 50.25 376.45 50.05 375.1 48.0 M369.45 49.75 L368.05 51.0 369.45 49.75 M369.9 51.65 L369.2 52.25 369.9 51.65 M371.2 48.25 Q370.6 48.35 370.65 49.05 370.6 48.35 371.2 48.25" fill="#999966" fill-rule="evenodd" stroke="none"/>
    <path d="M375.1 48.0 Q376.45 50.05 374.05 50.25 373.1 50.3 372.6 49.4 372.25 48.55 372.85 47.85 L375.1 48.0 M371.45 45.95 L371.55 45.95 371.7 46.0 371.75 45.95 371.95 46.2 372.05 46.35 372.05 46.85 371.9 47.1 Q370.9 47.55 370.8 46.5 370.9 46.1 371.15 46.0 L371.45 45.95" fill="#000000" fill-rule="evenodd" stroke="none"/>
    <path d="M374.3 50.7 Q375.3 51.35 376.8 51.5 378.45 51.75 379.35 51.1 380.35 50.4 380.1 49.2 379.95 48.0 378.45 46.65 M370.65 49.05 Q370.6 48.35 371.2 48.25 M369.2 52.25 L369.9 51.65 M368.05 51.0 L369.45 49.75" fill="none" stroke="#72724d" stroke-linecap="round" stroke-linejoin="round" stroke-width="1.0"/>
    <path d="M378.65 36.95 Q379.2 37.0 379.2 37.7 379.2 37.0 378.65 36.95 M378.35 34.65 L378.1 34.7 377.9 34.85 377.8 35.05 377.8 35.5 377.95 35.8 Q378.85 36.2 379.1 35.2 L378.7 34.7 378.45 34.65 378.35 34.65 M380.65 40.9 L380.2 41.25 Q378.15 42.75 377.15 40.1 L376.8 39.9 Q375.45 40.65 373.9 41.05 L371.3 40.85 Q369.5 39.95 369.55 38.05 369.55 34.5 373.1 32.6 374.25 31.75 375.65 31.95 379.6 32.6 379.5 35.95 380.75 36.85 381.8 38.15 382.35 38.7 382.0 39.45 L381.75 39.7 380.4 38.45 381.75 39.7 380.65 40.9 379.95 40.35 380.65 40.9 M374.8 36.7 Q373.4 38.8 375.8 38.95 376.75 39.0 377.2 38.1 377.6 37.2 377.05 36.55 L374.8 36.7 M371.4 35.35 Q369.85 36.7 369.7 37.85 369.5 39.1 370.45 39.8 371.4 40.45 373.05 40.2 374.6 40.0 375.5 39.35 374.6 40.0 373.05 40.2 371.4 40.45 370.45 39.8 369.5 39.1 369.7 37.85 369.85 36.7 371.4 35.35" fill="#999966" fill-rule="evenodd" stroke="none"/>
    <path d="M378.35 34.65 L378.45 34.65 378.7 34.7 379.1 35.2 Q378.85 36.2 377.95 35.8 L377.8 35.5 377.8 35.05 377.9 34.85 378.1 34.7 378.35 34.65 M374.8 36.7 L377.05 36.55 Q377.6 37.2 377.2 38.1 376.75 39.0 375.8 38.95 373.4 38.8 374.8 36.7" fill="#000000" fill-rule="evenodd" stroke="none"/>
    <path d="M379.2 37.7 Q379.2 37.0 378.65 36.95 M380.65 40.9 L379.95 40.35 M381.75 39.7 L380.4 38.45 M375.5 39.35 Q374.6 40.0 373.05 40.2 371.4 40.45 370.45 39.8 369.5 39.1 369.7 37.85 369.85 36.7 371.4 35.35" fill="none" stroke="#72724d" stroke-linecap="round" stroke-linejoin="round" stroke-width="1.0"/>
    <path d="M385.9 25.75 Q387.0 24.5 388.25 23.6 388.1 20.3 392.1 19.65 393.45 19.4 394.65 20.25 398.2 22.15 398.2 25.7 398.25 27.65 396.4 28.5 L393.85 28.7 Q392.3 28.35 391.0 27.55 L390.6 27.75 Q389.55 30.4 387.5 28.9 L387.1 28.6 385.95 27.35 385.8 27.15 Q385.4 26.4 385.9 25.75 M396.35 23.0 Q397.85 24.35 398.0 25.55 398.25 26.75 397.25 27.45 396.35 28.1 394.7 27.85 393.2 27.7 392.2 27.05 393.2 27.7 394.7 27.85 396.35 28.1 397.25 27.45 398.25 26.75 398.0 25.55 397.85 24.35 396.35 23.0 M389.35 22.3 L389.05 22.35 Q388.8 22.45 388.7 22.85 388.8 23.9 389.8 23.45 L389.95 23.2 389.95 22.7 389.85 22.55 389.65 22.3 389.6 22.35 389.45 22.3 389.35 22.3 M393.0 24.35 L390.75 24.2 Q390.15 24.9 390.5 25.75 391.0 26.65 391.95 26.6 394.35 26.4 393.0 24.35 M387.35 26.1 L385.95 27.35 387.35 26.1 M387.8 28.0 L387.1 28.6 387.8 28.0 M389.1 24.6 Q388.5 24.7 388.55 25.4 388.5 24.7 389.1 24.6" fill="#999966" fill-rule="evenodd" stroke="none"/>
    <path d="M393.0 24.35 Q394.35 26.4 391.95 26.6 391.0 26.65 390.5 25.75 390.15 24.9 390.75 24.2 L393.0 24.35 M389.35 22.3 L389.45 22.3 389.6 22.35 389.65 22.3 389.85 22.55 389.95 22.7 389.95 23.2 389.8 23.45 Q388.8 23.9 388.7 22.85 388.8 22.45 389.05 22.35 L389.35 22.3" fill="#000000" fill-rule="evenodd" stroke="none"/>
    <path d="M392.2 27.05 Q393.2 27.7 394.7 27.85 396.35 28.1 397.25 27.45 398.25 26.75 398.0 25.55 397.85 24.35 396.35 23.0 M388.55 25.4 Q388.5 24.7 389.1 24.6 M387.1 28.6 L387.8 28.0 M385.95 27.35 L387.35 26.1" fill="none" stroke="#72724d" stroke-linecap="round" stroke-linejoin="round" stroke-width="1.0"/>
    <path d="M380.1 25.75 L377.75 23.6 Q377.9 20.3 373.9 19.65 372.55 19.4 371.35 20.25 367.8 22.15 367.8 25.7 367.75 27.65 369.6 28.5 L372.15 28.7 Q373.7 28.35 375.0 27.55 L375.4 27.75 Q376.45 30.4 378.5 28.9 L378.9 28.6 380.05 27.35 380.2 27.15 Q380.6 26.4 380.1 25.75 M369.65 23.0 Q368.15 24.35 368.0 25.55 367.75 26.75 368.75 27.45 369.65 28.1 371.3 27.85 372.8 27.7 373.8 27.05 372.8 27.7 371.3 27.85 369.65 28.1 368.75 27.45 367.75 26.75 368.0 25.55 368.15 24.35 369.65 23.0 M376.65 22.3 L376.95 22.35 377.3 22.85 Q377.2 23.9 376.2 23.45 L376.05 23.2 376.05 22.7 376.15 22.55 376.35 22.3 376.4 22.35 376.55 22.3 376.65 22.3 M373.0 24.35 L375.25 24.2 Q375.85 24.9 375.5 25.75 375.0 26.65 374.05 26.6 371.65 26.4 373.0 24.35 M378.65 26.1 L380.05 27.35 378.65 26.1 M378.2 28.0 L378.9 28.6 378.2 28.0 M376.9 24.6 Q377.5 24.7 377.45 25.4 377.5 24.7 376.9 24.6" fill="#999966" fill-rule="evenodd" stroke="none"/>
    <path d="M373.0 24.35 Q371.65 26.4 374.05 26.6 375.0 26.65 375.5 25.75 375.85 24.9 375.25 24.2 L373.0 24.35 M376.65 22.3 L376.55 22.3 376.4 22.35 376.35 22.3 376.15 22.55 376.05 22.7 376.05 23.2 376.2 23.45 Q377.2 23.9 377.3 22.85 L376.95 22.35 376.65 22.3" fill="#000000" fill-rule="evenodd" stroke="none"/>
    <path d="M373.8 27.05 Q372.8 27.7 371.3 27.85 369.65 28.1 368.75 27.45 367.75 26.75 368.0 25.55 368.15 24.35 369.65 23.0 M377.45 25.4 Q377.5 24.7 376.9 24.6 M378.9 28.6 L378.2 28.0 M380.05 27.35 L378.65 26.1" fill="none" stroke="#72724d" stroke-linecap="round" stroke-linejoin="round" stroke-width="1.0"/>
    <path d="M384.65 14.5 Q383.55 13.25 382.3 12.35 382.45 9.05 378.45 8.4 377.1 8.15 375.9 9.0 372.35 10.9 372.35 14.45 372.3 16.4 374.15 17.25 L376.7 17.45 Q378.25 17.1 379.55 16.3 L379.95 16.5 Q381.0 19.15 383.05 17.65 L383.45 17.35 384.6 16.1 384.75 15.9 Q385.15 15.15 384.65 14.5 M374.2 11.75 Q372.7 13.1 372.55 14.3 372.3 15.5 373.3 16.2 374.2 16.85 375.85 16.6 377.35 16.45 378.35 15.8 377.35 16.45 375.85 16.6 374.2 16.85 373.3 16.2 372.3 15.5 372.55 14.3 372.7 13.1 374.2 11.75 M381.2 11.05 L381.5 11.1 381.85 11.6 Q381.75 12.65 380.75 12.2 L380.6 11.95 380.6 11.45 380.7 11.3 380.9 11.05 380.95 11.1 381.1 11.05 381.2 11.05 M377.55 13.1 L379.8 12.95 Q380.4 13.65 380.05 14.5 379.55 15.4 378.6 15.35 376.2 15.15 377.55 13.1 M383.2 14.85 L384.6 16.1 383.2 14.85 M382.75 16.75 L383.45 17.35 382.75 16.75 M381.45 13.35 Q382.05 13.45 382.0 14.15 382.05 13.45 381.45 13.35" fill="#999966" fill-rule="evenodd" stroke="none"/>
    <path d="M377.55 13.1 Q376.2 15.15 378.6 15.35 379.55 15.4 380.05 14.5 380.4 13.65 379.8 12.95 L377.55 13.1 M381.2 11.05 L381.1 11.05 380.95 11.1 380.9 11.05 380.7 11.3 380.6 11.45 380.6 11.95 380.75 12.2 Q381.75 12.65 381.85 11.6 L381.5 11.1 381.2 11.05" fill="#000000" fill-rule="evenodd" stroke="none"/>
    <path d="M378.35 15.8 Q377.35 16.45 375.85 16.6 374.2 16.85 373.3 16.2 372.3 15.5 372.55 14.3 372.7 13.1 374.2 11.75 M382.0 14.15 Q382.05 13.45 381.45 13.35 M383.45 17.35 L382.75 16.75 M384.6 16.1 L383.2 14.85" fill="none" stroke="#72724d" stroke-linecap="round" stroke-linejoin="round" stroke-width="1.0"/>
    <path d="M395.55 38.6 L396.55 38.65 396.65 38.9 396.75 39.55 396.7 39.9 397.3 40.6 397.35 41.5 396.5 41.65 395.5 41.65 Q391.45 40.45 387.05 40.85 L386.8 41.4 386.6 41.75 Q386.1 42.45 385.35 42.3 L384.95 42.2 384.35 41.9 384.3 41.5 384.35 41.2 384.4 41.0 384.15 40.65 Q383.85 40.35 383.9 39.8 L384.0 39.65 384.25 39.45 385.95 39.35 387.8 39.25 391.5 39.35 Q393.75 39.55 395.55 38.6 L394.7 39.9 390.1 39.85 388.95 39.9 387.6 39.7 386.85 39.95 385.3 39.2 384.9 39.75 385.3 39.2 386.85 39.95 387.6 39.7 388.95 39.9 390.1 39.85 394.7 39.9 395.55 38.6" fill="#999966" fill-rule="evenodd" stroke="none"/>
    <path d="M395.55 38.6 L394.7 39.9 390.1 39.85 388.95 39.9 387.6 39.7 386.85 39.95 385.3 39.2 384.9 39.75" fill="none" stroke="#72724d" stroke-linecap="round" stroke-linejoin="round" stroke-width="1.0"/>
    <path d="M393.15 14.25 L393.9 14.9 393.85 15.15 393.55 15.7 393.3 16.0 393.45 16.95 392.9 17.65 392.1 17.35 391.3 16.7 Q388.75 13.4 384.9 11.2 L384.45 11.5 384.0 11.7 Q383.2 11.95 382.65 11.4 L382.4 11.1 382.1 10.45 382.25 10.15 382.5 9.95 382.65 9.8 382.7 9.4 Q382.6 8.9 382.9 8.5 L383.1 8.45 383.45 8.4 Q384.45 8.35 384.9 9.35 L386.45 10.3 389.4 12.55 Q391.15 13.95 393.15 14.25 L391.65 14.85 387.95 12.1 387.0 11.5 386.0 10.6 385.3 10.3 384.4 8.9 383.75 9.1 384.4 8.9 385.3 10.3 386.0 10.6 387.0 11.5 387.95 12.1 391.65 14.85 393.15 14.25" fill="#999966" fill-rule="evenodd" stroke="none"/>
    <path d="M393.15 14.25 L391.65 14.85 387.95 12.1 387.0 11.5 386.0 10.6 385.3 10.3 384.4 8.9 383.75 9.1" fill="none" stroke="#72724d" stroke-linecap="round" stroke-linejoin="round" stroke-width="1.0"/>
    <path d="M118.55 7.45 Q122.25 7.95 123.75 15.8 L124.2 18.6 124.6 25.5 124.6 25.55 124.7 26.35 124.7 53.5 91.75 53.5 91.75 26.35 91.8 25.5 Q91.85 21.65 92.2 18.6 L92.65 15.8 Q94.1 7.95 97.85 7.45 L118.55 7.45" fill="url(#gradient11)" fill-rule="evenodd" stroke="none"/>
    <path d="M118.55 7.45 L97.85 7.45 Q94.1 7.95 92.65 15.8 L92.2 18.6 Q91.85 21.65 91.8 25.5 L91.75 26.35 91.75 53.5 124.7 53.5 124.7 26.35 124.6 25.55 124.6 25.5 124.2 18.6 123.75 15.8 Q122.25 7.95 118.55 7.45" fill="none" stroke="#463b31" stroke-linecap="round" stroke-linejoin="round" stroke-width="1.0"/>
    <path d="M91.8 25.5 Q84.65 30.55 79.0 25.5" fill="none" stroke="#6b5e53" stroke-linecap="round" stroke-linejoin="round" stroke-width="1.0"/>
    <path d="M115.95 34.35 Q108.35 50.7 100.35 34.35 L100.35 31.55 Q108.45 38.0 115.95 31.55 L115.95 34.35" fill="url(#gradient12)" fill-rule="evenodd" stroke="none"/>
    <path d="M115.95 34.35 Q108.35 50.7 100.35 34.35 L100.35 31.55 Q108.45 38.0 115.95 31.55 L115.95 34.35 Z" fill="none" stroke="#463b31" stroke-linecap="round" stroke-linejoin="round" stroke-width="1.0"/>
  </g>
  <defs>
    <radialGradient cx="0" cy="0" gradientTransform="matrix(0.0043, 0.246, -0.4904, 0.0086, 193.55, 162.15)" gradientUnits="userSpaceOnUse" id="gradient0" r="819.2" spreadMethod="pad">
      <stop offset="0.0" stop-color="#614d36"/>
      <stop offset="0.36470588235294116" stop-color="#4a3e28"/>
      <stop offset="0.7490196078431373" stop-color="#42311e"/>
      <stop offset="1.0" stop-color="#281d13"/>
    </radialGradient>
    <linearGradient gradientTransform="matrix(2.0E-4, 0.0311, -0.0262, 1.0E-4, 196.9, 31.45)" gradientUnits="userSpaceOnUse" id="gradient1" spreadMethod="pad" x1="-819.2" x2="819.2">
      <stop offset="0.0" stop-color="#2b231e"/>
      <stop offset="1.0" stop-color="#433930"/>
    </linearGradient>
    <linearGradient gradientTransform="matrix(1.0E-4, 0.0264, -0.0215, 2.0E-4, 16.9, 30.05)" gradientUnits="userSpaceOnUse" id="gradient2" spreadMethod="pad" x1="-819.2" x2="819.2">
      <stop offset="0.0" stop-color="#1f1a16"/>
      <stop offset="1.0" stop-color="#433930"/>
    </linearGradient>
    <linearGradient gradientTransform="matrix(1.0E-4, 0.0264, -0.0215, 2.0E-4, 62.6, 30.35)" gradientUnits="userSpaceOnUse" id="gradient3" spreadMethod="pad" x1="-819.2" x2="819.2">
      <stop offset="0.0" stop-color="#1f1a16"/>
      <stop offset="1.0" stop-color="#433930"/>
    </linearGradient>
    <linearGradient gradientTransform="matrix(1.0E-4, 0.0264, -0.0215, 2.0E-4, 154.0, 30.35)" gradientUnits="userSpaceOnUse" id="gradient4" spreadMethod="pad" x1="-819.2" x2="819.2">
      <stop offset="0.0" stop-color="#1f1a16"/>
      <stop offset="1.0" stop-color="#433930"/>
    </linearGradient>
    <linearGradient gradientTransform="matrix(1.0E-4, 0.0264, -0.0215, 2.0E-4, 199.7, 30.05)" gradientUnits="userSpaceOnUse" id="gradient5" spreadMethod="pad" x1="-819.2" x2="819.2">
      <stop offset="0.0" stop-color="#1f1a16"/>
      <stop offset="1.0" stop-color="#433930"/>
    </linearGradient>
    <linearGradient gradientTransform="matrix(1.0E-4, 0.0264, -0.0215, 2.0E-4, 245.4, 30.05)" gradientUnits="userSpaceOnUse" id="gradient6" spreadMethod="pad" x1="-819.2" x2="819.2">
      <stop offset="0.0" stop-color="#1f1a16"/>
      <stop offset="1.0" stop-color="#433930"/>
    </linearGradient>
    <linearGradient gradientTransform="matrix(1.0E-4, 0.0264, -0.0215, 2.0E-4, 291.1, 30.05)" gradientUnits="userSpaceOnUse" id="gradient7" spreadMethod="pad" x1="-819.2" x2="819.2">
      <stop offset="0.0" stop-color="#1f1a16"/>
      <stop offset="1.0" stop-color="#433930"/>
    </linearGradient>
    <linearGradient gradientTransform="matrix(-0.0123, 3.0E-4, -5.0E-4, -0.0215, 289.95, -11.9)" gradientUnits="userSpaceOnUse" id="gradient8" spreadMethod="pad" x1="-819.2" x2="819.2">
      <stop offset="0.0" stop-color="#1f1a16"/>
      <stop offset="0.5137254901960784" stop-color="#5b4f42"/>
      <stop offset="1.0" stop-color="#1f1a16"/>
    </linearGradient>
    <linearGradient gradientTransform="matrix(1.0E-4, 0.0264, -0.0215, 2.0E-4, 336.8, 30.05)" gradientUnits="userSpaceOnUse" id="gradient9" spreadMethod="pad" x1="-819.2" x2="819.2">
      <stop offset="0.0" stop-color="#1f1a16"/>
      <stop offset="1.0" stop-color="#433930"/>
    </linearGradient>
    <linearGradient gradientTransform="matrix(1.0E-4, 0.0264, -0.0215, 2.0E-4, 382.5, 30.05)" gradientUnits="userSpaceOnUse" id="gradient10" spreadMethod="pad" x1="-819.2" x2="819.2">
      <stop offset="0.0" stop-color="#1f1a16"/>
      <stop offset="1.0" stop-color="#433930"/>
    </linearGradient>
    <linearGradient gradientTransform="matrix(1.0E-4, 0.0264, -0.0215, 2.0E-4, 108.2, 30.45)" gradientUnits="userSpaceOnUse" id="gradient11" spreadMethod="pad" x1="-819.2" x2="819.2">
      <stop offset="0.0" stop-color="#1f1a16"/>
      <stop offset="1.0" stop-color="#433930"/>
    </linearGradient>
    <linearGradient gradientTransform="matrix(-0.0123, 3.0E-4, -5.0E-4, -0.0215, 107.05, -11.45)" gradientUnits="userSpaceOnUse" id="gradient12" spreadMethod="pad" x1="-819.2" x2="819.2">
      <stop offset="0.0" stop-color="#1f1a16"/>
      <stop offset="0.5137254901960784" stop-color="#5b4f42"/>
      <stop offset="1.0" stop-color="#1f1a16"/>
    </linearGradient>
  </defs>
</svg>
