<?xml version="1.0" encoding="UTF-8" standalone="no"?>
<svg xmlns:xlink="http://www.w3.org/1999/xlink" height="272.6px" width="425.2px" xmlns="http://www.w3.org/2000/svg">
  <g transform="matrix(1.0, 0.0, 0.0, 1.0, 19.0, 2.75)">
    <path d="M-13.75 57.3 L1.2 57.3 -0.1 61.0 -15.05 61.0 -18.5 61.0 -17.25 57.3 -13.75 57.3 M369.0 61.0 L368.15 57.3 386.55 57.3 387.4 61.0 369.0 61.0 M314.9 60.95 L296.5 60.95 295.85 57.25 314.25 57.25 314.9 60.95 M228.05 57.25 L228.05 60.95 209.65 60.95 209.65 57.25 228.05 57.25 M149.3 61.0 L130.9 61.0 131.75 57.3 150.15 57.3 149.3 61.0 M75.25 57.3 L73.95 61.0 55.55 61.0 56.85 57.3 75.25 57.3" fill="#00ff00" fill-rule="evenodd" stroke="none"/>
    <path d="M403.6 55.65 L392.4 55.65 397.55 67.1 360.7 67.1 357.15 55.65 323.15 55.65 326.0 67.1 286.15 67.1 283.9 55.65 241.1 55.65 242.05 67.1 197.8 67.1 197.8 55.65 162.55 55.65 160.35 67.1 119.35 67.1 123.0 55.65 87.05 55.65 83.25 67.1 65.6 67.1 43.3 67.1 47.75 55.65 12.5 55.65 9.0 67.1 -13.75 67.1 9.0 67.1 12.5 55.65 47.75 55.65 43.3 67.1 65.6 67.1 83.25 67.1 87.05 55.65 123.0 55.65 119.35 67.1 160.35 67.1 162.55 55.65 197.8 55.65 197.8 67.1 242.05 67.1 241.1 55.65 283.9 55.65 286.15 67.1 326.0 67.1 323.15 55.65 357.15 55.65 360.7 67.1 397.55 67.1 392.4 55.65 403.6 55.65 403.6 75.25 403.6 85.1 403.6 143.2 355.45 143.2 324.0 117.9 317.25 85.6 328.3 75.25 358.9 75.25 362.9 85.1 403.6 85.1 362.9 85.1 358.9 75.25 328.3 75.25 317.25 85.6 324.0 117.9 355.45 143.2 403.6 143.2 403.6 148.1 403.6 216.8 403.6 223.35 403.6 269.85 -13.75 269.85 -13.75 255.25 -13.75 188.2 -13.75 108.0 -13.75 99.0 -13.75 67.1 -15.05 61.0 -0.1 61.0 1.2 57.3 -13.75 57.3 -13.75 39.85 403.6 39.85 403.6 55.65 M65.6 67.1 L58.95 99.0 -13.75 99.0 58.95 99.0 65.6 67.1 M358.9 75.25 L403.6 75.25 358.9 75.25 M369.0 61.0 L387.4 61.0 386.55 57.3 368.15 57.3 369.0 61.0 M228.05 57.25 L209.65 57.25 209.65 60.95 228.05 60.95 228.05 57.25 M314.9 60.95 L314.25 57.25 295.85 57.25 296.5 60.95 314.9 60.95 M179.45 159.55 L182.05 130.9 157.6 108.0 -13.75 108.0 157.6 108.0 182.05 130.9 179.45 159.55 M58.95 99.0 L184.65 99.0 198.25 109.65 196.05 148.1 194.3 162.0 164.95 188.2 -13.75 188.2 164.95 188.2 194.3 162.0 196.05 148.1 198.25 109.65 184.65 99.0 58.95 99.0 M75.25 57.3 L56.85 57.3 55.55 61.0 73.95 61.0 75.25 57.3 M149.3 61.0 L150.15 57.3 131.75 57.3 130.9 61.0 149.3 61.0 M293.25 223.35 L403.6 223.35 293.25 223.35 264.3 245.4 293.25 223.35 273.05 223.35 234.55 250.35 273.05 223.35 293.25 223.35 M196.05 148.1 L403.6 148.1 196.05 148.1 M403.6 216.8 L250.4 216.8 189.8 255.25 -13.75 255.25 189.8 255.25 250.4 216.8 403.6 216.8 M63.85 196.35 L52.5 196.35 63.85 196.35 M31.45 196.35 L24.45 196.35 31.45 196.35 M10.45 196.35 L-0.05 196.35 10.45 196.35" fill="url(#gradient0)" fill-rule="evenodd" stroke="none"/>
    <path d="M-13.75 67.1 L9.0 67.1 12.5 55.65 47.75 55.65 43.3 67.1 65.6 67.1 83.25 67.1 87.05 55.65 123.0 55.65 119.35 67.1 160.35 67.1 162.55 55.65 197.8 55.65 197.8 67.1 242.05 67.1 241.1 55.65 283.9 55.65 286.15 67.1 326.0 67.1 323.15 55.65 357.15 55.65 360.7 67.1 397.55 67.1 392.4 55.65 403.6 55.65 M-13.75 99.0 L58.95 99.0 65.6 67.1 M403.6 85.1 L362.9 85.1 358.9 75.25 328.3 75.25 317.25 85.6 324.0 117.9 355.45 143.2 403.6 143.2 M403.6 75.25 L358.9 75.25 M-13.75 188.2 L164.95 188.2 194.3 162.0 196.05 148.1 198.25 109.65 184.65 99.0 58.95 99.0 M-13.75 108.0 L157.6 108.0 182.05 130.9 179.45 159.55 M24.45 196.35 L31.45 196.35 M52.5 196.35 L63.85 196.35 M264.3 245.4 L293.25 223.35 273.05 223.35 234.55 250.35 M-13.75 255.25 L189.8 255.25 250.4 216.8 403.6 216.8 M403.6 148.1 L196.05 148.1 M403.6 223.35 L293.25 223.35 M-0.05 196.35 L10.45 196.35" fill="none" stroke="#262622" stroke-linecap="round" stroke-linejoin="round" stroke-width="1.0"/>
    <path d="M-13.75 57.3 L1.2 57.3 -0.1 61.0 -15.05 61.0 M369.0 61.0 L368.15 57.3 386.55 57.3 387.4 61.0 369.0 61.0 M314.9 60.95 L296.5 60.95 295.85 57.25 314.25 57.25 314.9 60.95 M228.05 57.25 L228.05 60.95 209.65 60.95 209.65 57.25 228.05 57.25 M149.3 61.0 L130.9 61.0 131.75 57.3 150.15 57.3 149.3 61.0 M75.25 57.3 L73.95 61.0 55.55 61.0 56.85 57.3 75.25 57.3 M-13.75 57.3 L-17.25 57.3 -18.5 61.0 -15.05 61.0" fill="none" stroke="#006600" stroke-linecap="round" stroke-linejoin="round" stroke-width="1.0"/>
    <path d="M403.7 0.0 L403.7 50.0 -13.65 50.0 -13.65 0.0 403.7 0.0" fill="url(#gradient1)" fill-rule="evenodd" stroke="none"/>
    <path d="M369.9 34.75 L369.9 42.15 383.0 42.15 393.55 32.3 404.7 32.3 M393.95 4.5 L404.7 4.5 M342.75 4.5 L353.7 4.5 M294.2 11.85 L341.9 11.85 341.9 21.7 294.2 21.7 M337.1 30.7 L333.55 30.7 333.55 47.85 M369.9 44.4 L369.9 42.15 M354.15 15.55 L354.15 44.4 M404.7 15.95 L361.6 15.95 361.6 44.4 M404.7 21.7 L369.9 21.7 369.9 28.25 M369.45 4.5 L379.5 4.5 M333.55 30.7 L324.8 30.7 324.8 47.85 M319.1 4.5 L329.6 4.5 M294.2 4.5 L303.8 4.5 M270.55 4.5 L281.85 4.5 M247.3 4.5 L258.3 4.5 M324.8 30.7 L250.8 30.7 235.05 45.4 M285.85 21.7 L236.35 21.7 236.35 11.85 285.85 11.85 M229.4 4.5 L238.55 4.5 M222.8 4.1 L222.8 17.6 222.8 22.1 222.8 25.35 118.55 25.35 118.55 42.55 67.35 42.55 M140.95 36.8 L140.95 34.35 182.5 34.35 215.35 34.35 215.35 37.65 M182.5 48.25 L182.5 34.35 M186.9 17.6 L222.8 17.6 M118.55 25.35 L108.1 25.35 108.1 4.5 -14.3 4.5 M-14.3 34.35 L-0.05 34.35 -0.05 10.65 19.65 10.65 19.65 34.35 38.9 34.35 38.9 10.65 57.3 10.65 57.3 34.35 76.15 34.35 76.15 10.65 94.05 10.65 94.05 34.35 84.0 34.35 M47.7 42.7 L58.15 42.7 M137.85 22.1 L222.8 22.1 M131.3 -1.25 L131.3 9.8 208.35 9.8 208.35 -1.25 M-14.3 38.85 L77.45 38.85" fill="none" stroke="#006600" stroke-linecap="round" stroke-linejoin="round" stroke-opacity="0.6313726" stroke-width="3.0"/>
    <path d="M393.95 4.5 L404.7 4.5 M369.9 34.75 L369.9 42.15 383.0 42.15 393.55 32.3 404.7 32.3 M342.75 4.5 L353.7 4.5 M294.2 11.85 L341.9 11.85 341.9 21.7 294.2 21.7 M337.1 30.7 L333.55 30.7 333.55 47.85 M369.9 44.4 L369.9 42.15 M354.15 15.55 L354.15 44.4 M404.7 15.95 L361.6 15.95 361.6 44.4 M404.7 21.7 L369.9 21.7 369.9 28.25 M369.45 4.5 L379.5 4.5 M294.2 4.5 L303.8 4.5 M319.1 4.5 L329.6 4.5 M333.55 30.7 L324.8 30.7 324.8 47.85 M247.3 4.5 L258.3 4.5 M270.55 4.5 L281.85 4.5 M324.8 30.7 L250.8 30.7 235.05 45.4 M140.95 36.8 L140.95 34.35 182.5 34.35 215.35 34.35 215.35 37.65 M222.8 4.1 L222.8 17.6 222.8 22.1 222.8 25.35 118.55 25.35 118.55 42.55 67.35 42.55 M229.4 4.5 L238.55 4.5 M285.85 21.7 L236.35 21.7 236.35 11.85 285.85 11.85 M182.5 48.25 L182.5 34.35 M186.9 17.6 L222.8 17.6 M118.55 25.35 L108.1 25.35 108.1 4.5 -14.3 4.5 M-14.3 34.35 L-0.05 34.35 -0.05 10.65 19.65 10.65 19.65 34.35 38.9 34.35 38.9 10.65 57.3 10.65 57.3 34.35 76.15 34.35 76.15 10.65 94.05 10.65 94.05 34.35 84.0 34.35 M47.7 42.7 L58.15 42.7 M137.85 22.1 L222.8 22.1 M131.3 -1.25 L131.3 9.8 208.35 9.8 208.35 -1.25 M-14.3 38.85 L77.45 38.85" fill="none" stroke="#00ff00" stroke-linecap="round" stroke-linejoin="round" stroke-width="1.0"/>
  </g>
  <defs>
    <radialGradient cx="0" cy="0" gradientTransform="matrix(0.0043, 0.2296, -0.4897, 0.008, 191.7, 147.0)" gradientUnits="userSpaceOnUse" id="gradient0" r="819.2" spreadMethod="pad">
      <stop offset="0.0" stop-color="#3a3c37"/>
      <stop offset="0.36470588235294116" stop-color="#31322e"/>
      <stop offset="0.7490196078431373" stop-color="#2d2e2b"/>
      <stop offset="1.0" stop-color="#131311"/>
    </radialGradient>
    <linearGradient gradientTransform="matrix(0.0, -0.029, 0.0261, 0.0, 195.05, 25.0)" gradientUnits="userSpaceOnUse" id="gradient1" spreadMethod="pad" x1="-819.2" x2="819.2">
      <stop offset="0.0" stop-color="#3a3c37"/>
      <stop offset="0.36470588235294116" stop-color="#31322e"/>
      <stop offset="0.7490196078431373" stop-color="#2d2e2b"/>
      <stop offset="1.0" stop-color="#131311"/>
    </linearGradient>
  </defs>
</svg>
