<?xml version="1.0" encoding="UTF-8" standalone="no"?>
<svg xmlns:xlink="http://www.w3.org/1999/xlink" height="255.4px" width="422.9px" xmlns="http://www.w3.org/2000/svg">
  <g transform="matrix(1.0, 0.0, 0.0, 1.0, 14.9, -4.45)">
    <path d="M76.9 45.35 L76.8 45.4 76.85 45.2 76.9 45.35" fill="url(#gradient0)" fill-rule="evenodd" stroke="none"/>
    <path d="M406.8 113.35 L406.8 117.95 395.35 116.2 406.8 117.95 406.8 254.25 281.85 254.25 276.8 254.25 Q276.35 250.5 272.45 249.05 271.0 248.55 270.0 247.8 268.3 246.55 266.9 245.15 265.45 243.9 264.2 243.15 260.65 241.2 256.8 238.3 L254.35 236.15 252.4 234.5 Q249.35 234.9 248.05 237.95 L246.95 239.15 241.0 243.0 Q238.15 244.8 236.75 247.7 L234.4 251.6 232.4 254.25 232.1 254.25 228.7 254.25 Q226.4 252.6 223.65 251.7 222.85 251.45 222.35 250.95 219.35 247.45 214.8 248.05 207.45 249.4 202.75 243.8 201.55 242.3 200.65 240.5 L199.5 239.35 Q197.95 238.55 196.15 238.6 189.95 239.05 183.55 238.45 180.1 238.55 177.2 239.95 173.35 241.65 169.8 244.3 L168.85 244.9 Q166.35 246.05 163.45 245.45 L156.45 244.65 151.0 243.35 Q142.2 240.8 133.65 239.85 130.9 239.55 129.5 237.9 128.85 237.15 128.9 236.2 128.95 235.3 129.4 234.15 118.0 233.1 107.25 230.5 L93.55 227.7 Q87.25 226.25 81.65 223.75 L80.3 222.85 Q79.05 221.9 77.45 221.05 L77.55 218.85 Q73.7 216.25 68.5 216.25 L59.15 215.4 Q48.9 215.05 38.35 215.25 27.3 215.75 16.15 213.25 L10.25 211.6 5.5 209.95 Q2.8 209.1 0.5 207.75 -1.9 206.35 -2.85 203.85 -3.15 203.05 -3.85 202.75 L-12.2 203.3 -14.4 203.45 -13.2 75.1 -9.45 75.05 Q-8.55 74.9 -7.75 74.35 -2.95 71.2 2.55 69.35 6.25 68.15 10.35 66.15 L10.75 65.9 Q13.25 64.55 14.95 62.55 17.95 59.2 21.65 57.0 23.55 55.9 25.55 55.2 L32.5 52.2 Q34.6 51.1 35.9 49.2 L36.65 48.2 Q38.1 46.4 37.25 44.65 L35.9 41.6 Q35.6 40.75 36.0 40.05 38.45 35.7 43.75 35.2 L55.45 35.6 68.7 36.65 Q77.05 36.9 84.4 36.4 95.4 36.2 106.4 34.05 L112.9 33.0 Q120.25 32.0 126.7 29.75 L129.3 29.35 Q133.05 28.7 137.65 29.25 139.65 27.4 142.5 27.15 150.4 27.65 158.6 27.05 164.25 26.55 184.7 26.6 205.35 26.6 210.75 27.15 L211.6 29.3 212.6 29.7 213.45 29.95 Q218.7 30.9 224.35 29.9 L235.15 28.8 241.8 29.9 Q247.25 29.9 252.55 30.95 248.2 34.85 243.25 37.7 L240.1 39.55 240.4 40.05 241.15 41.2 Q244.4 41.15 245.9 43.9 247.3 46.5 250.45 46.25 255.25 46.9 259.35 48.1 262.7 49.15 266.45 51.0 269.85 52.6 271.95 55.75 273.1 57.4 275.1 58.05 279.6 59.3 284.3 59.2 L291.3 59.2 296.2 59.3 308.1 58.2 Q312.7 57.9 316.75 56.8 319.2 56.3 321.15 54.55 L318.3 51.2 321.4 50.8 Q323.6 50.25 325.15 49.35 328.0 47.9 331.45 47.5 L348.75 46.65 352.4 47.1 Q357.6 47.05 362.25 48.95 361.2 50.75 361.15 52.7 361.1 53.6 361.45 54.4 363.05 57.8 366.9 57.85 371.4 58.4 377.75 60.6 L375.5 67.05 374.0 69.7 370.0 74.3 369.95 74.35 369.25 73.65 365.85 71.3 361.3 75.05 361.7 75.4 Q364.3 76.8 367.6 76.65 363.85 80.75 362.85 86.05 L363.35 86.55 Q365.35 90.5 367.95 94.35 L370.7 94.6 375.6 94.1 377.05 94.35 Q380.35 96.3 383.7 97.45 L384.25 97.9 Q382.45 100.15 381.25 103.5 385.05 108.6 391.2 108.5 L398.6 107.95 Q399.55 107.85 400.2 107.4 L400.5 107.2 401.0 107.75 406.8 113.35 M276.9 247.2 Q279.75 249.8 281.6 253.75 L281.85 254.25 281.6 253.75 Q279.75 249.8 276.9 247.2 M364.55 94.2 L363.15 93.7 Q359.8 92.3 358.5 88.6 359.8 92.3 363.15 93.7 L364.55 94.2 M347.75 51.7 L345.45 51.3 340.3 51.0 Q333.95 51.25 327.7 52.65 333.95 51.25 340.3 51.0 L345.45 51.3 347.75 51.7 M360.85 75.55 L361.3 75.05 360.85 75.55 M351.5 74.6 L350.1 74.5 348.25 74.15 350.1 74.5 351.5 74.6 M369.7 62.0 L368.85 61.5 Q367.25 60.2 365.5 61.05 367.25 60.2 368.85 61.5 L369.7 62.0 M394.45 110.55 Q390.4 111.55 386.5 111.35 382.0 111.15 379.5 107.75 382.0 111.15 386.5 111.35 390.4 111.55 394.45 110.55 M368.75 159.6 L365.0 159.6 368.75 159.6 M360.35 114.15 L359.95 116.2 Q359.65 117.0 358.5 116.9 355.95 116.75 353.8 115.2 L352.7 114.1 Q352.2 113.4 352.05 112.4 351.3 107.75 355.15 105.8 L356.65 105.25 Q361.35 104.5 363.5 108.7 L363.9 110.05 Q364.0 112.55 361.75 113.75 L360.35 114.15 Q358.8 114.25 357.2 112.7 356.6 112.2 356.6 111.45 356.55 108.05 359.9 108.2 360.4 108.2 360.45 108.4 361.2 109.8 359.9 110.05 361.2 109.8 360.45 108.4 360.4 108.2 359.9 108.2 356.55 108.05 356.6 111.45 356.6 112.2 357.2 112.7 358.8 114.25 360.35 114.15 L361.75 113.75 Q364.0 112.55 363.9 110.05 L363.5 108.7 Q361.35 104.5 356.65 105.25 L355.15 105.8 Q351.3 107.75 352.05 112.4 352.2 113.4 352.7 114.1 L353.8 115.2 Q355.95 116.75 358.5 116.9 359.65 117.0 359.95 116.2 L360.35 114.15 M369.7 166.0 L368.3 165.9 366.9 165.55 368.3 165.9 369.7 166.0 M369.2 201.45 Q369.7 199.75 371.1 201.0 L371.5 201.5 Q372.5 203.05 370.1 203.7 L369.2 203.8 Q366.6 203.9 366.25 201.95 L366.25 201.1 Q366.5 200.5 366.9 200.05 L367.2 199.8 367.8 200.05 367.2 199.8 366.9 200.05 Q366.5 200.5 366.25 201.1 L366.25 201.95 Q366.6 203.9 369.2 203.8 L370.1 203.7 Q372.5 203.05 371.5 201.5 L371.1 201.0 Q369.7 199.75 369.2 201.45 M373.3 200.25 L372.1 199.45 Q369.5 197.85 367.2 199.8 L366.55 199.4 Q366.05 198.95 365.35 198.7 363.45 198.1 363.2 200.05 L362.95 202.4 362.95 203.8 Q362.95 206.45 365.55 207.4 L367.35 207.75 369.2 207.7 Q372.4 207.5 373.8 204.65 L374.45 203.35 Q375.3 201.6 373.3 200.25 375.3 201.6 374.45 203.35 L373.8 204.65 Q372.4 207.5 369.2 207.7 L367.35 207.75 365.55 207.4 Q362.95 206.45 362.95 203.8 L362.95 202.4 363.2 200.05 Q363.45 198.1 365.35 198.7 366.05 198.95 366.55 199.4 L367.2 199.8 Q369.5 197.85 372.1 199.45 L373.3 200.25 M379.5 241.65 L377.65 241.65 379.5 241.65 M339.8 205.2 L338.85 205.3 337.45 205.65 338.85 205.3 339.8 205.2 M338.9 207.5 L338.45 207.45 337.5 207.05 338.45 207.45 338.9 207.5 M262.8 55.0 L259.0 51.85 Q258.0 51.05 256.65 50.5 L254.4 50.15 Q249.55 50.4 245.1 48.95 242.55 48.1 242.3 46.1 242.55 48.1 245.1 48.95 249.55 50.4 254.4 50.15 L256.65 50.5 Q258.0 51.05 259.0 51.85 L262.8 55.0 M300.1 96.0 L302.45 96.15 303.9 96.2 302.45 96.15 300.1 96.0 Q299.4 96.15 298.75 96.55 299.4 96.15 300.1 96.0 L302.0 96.05 302.45 96.15 302.0 96.05 300.1 96.0 M309.95 61.55 L300.15 63.0 292.2 63.55 286.15 63.75 Q282.25 64.0 279.15 62.0 282.25 64.0 286.15 63.75 L292.2 63.55 300.15 63.0 309.95 61.55 M236.4 41.15 Q234.85 38.9 232.05 38.3 L231.6 38.3 226.1 39.5 Q219.6 39.3 213.8 41.45 216.55 45.35 221.55 45.9 L226.85 45.05 228.55 45.55 230.65 44.95 Q234.15 44.9 235.75 41.9 L236.4 41.15 M238.55 34.0 L237.6 33.7 Q229.35 32.75 221.25 34.0 229.35 32.75 237.6 33.7 L238.55 34.0 M204.45 32.1 L203.05 31.7 Q201.2 31.25 199.8 32.1 201.2 31.25 203.05 31.7 L204.45 32.1 M226.9 141.75 L227.15 141.3 226.95 140.75 Q226.45 140.1 225.05 140.1 L223.65 140.25 Q220.95 140.7 221.3 143.6 220.95 140.7 223.65 140.25 L225.05 140.1 Q226.45 140.1 226.95 140.75 L227.15 141.3 226.9 141.75 M231.1 139.4 L232.05 139.3 Q232.75 139.2 233.3 138.75 233.8 138.45 234.3 139.05 235.1 140.05 235.0 142.2 234.95 145.85 232.1 147.9 L231.0 148.55 Q228.6 149.55 226.0 149.55 223.05 149.55 220.4 147.8 217.05 145.65 217.8 141.8 218.7 137.25 223.65 136.7 L225.95 136.8 Q227.3 137.1 228.65 137.8 229.75 138.45 230.2 139.6 230.65 140.6 230.35 141.7 230.2 142.45 229.55 142.95 224.95 146.65 220.4 143.6 224.95 146.65 229.55 142.95 230.2 142.45 230.35 141.7 230.65 140.6 230.2 139.6 229.75 138.45 228.65 137.8 227.3 137.1 225.95 136.8 L223.65 136.7 Q218.7 137.25 217.8 141.8 217.05 145.65 220.4 147.8 223.05 149.55 226.0 149.55 228.6 149.55 231.0 148.55 L232.1 147.9 Q234.95 145.85 235.0 142.2 235.1 140.05 234.3 139.05 233.8 138.45 233.3 138.75 232.75 139.2 232.05 139.3 L231.1 139.4 M234.3 66.2 Q234.8 66.2 234.95 66.45 L236.2 67.6 Q238.85 66.5 239.05 63.85 239.15 61.95 237.95 60.7 L236.85 59.5 Q234.65 56.75 231.1 57.9 227.25 59.2 226.9 62.95 226.85 63.65 227.15 64.2 228.9 67.3 232.45 66.6 233.45 66.35 234.15 65.6 236.15 63.45 233.8 61.6 L232.4 60.8 Q230.2 60.05 229.65 62.0 229.35 63.25 230.0 63.55 L232.0 63.4 230.0 63.55 Q229.35 63.25 229.65 62.0 230.2 60.05 232.4 60.8 L233.8 61.6 Q236.15 63.45 234.15 65.6 233.45 66.35 232.45 66.6 228.9 67.3 227.15 64.2 226.85 63.65 226.9 62.95 227.25 59.2 231.1 57.9 234.65 56.75 236.85 59.5 L237.95 60.7 Q239.15 61.95 239.05 63.85 238.85 66.5 236.2 67.6 L234.95 66.45 Q234.8 66.2 234.3 66.2 M176.0 131.1 L175.0 131.45 174.15 131.55 175.0 131.45 176.0 131.1 M166.25 201.45 Q166.5 200.65 167.65 200.7 168.1 200.8 168.1 201.0 168.25 203.35 165.75 202.8 164.0 202.4 164.15 200.5 164.4 197.85 166.7 197.75 L168.1 197.6 Q169.05 197.45 169.4 198.25 L170.05 199.55 170.55 201.05 Q170.7 201.7 170.45 202.4 170.25 203.4 169.7 204.05 167.7 207.0 164.3 205.85 163.05 205.5 162.95 204.7 163.05 205.5 164.3 205.85 167.7 207.0 169.7 204.05 170.25 203.4 170.45 202.4 170.7 201.7 170.55 201.05 L170.05 199.55 169.4 198.25 Q169.05 197.45 168.1 197.6 L166.7 197.75 Q164.4 197.85 164.15 200.5 164.0 202.4 165.75 202.8 168.25 203.35 168.1 201.0 168.1 200.8 167.65 200.7 166.5 200.65 166.25 201.45 M201.65 100.4 L198.85 100.4 201.65 100.4 M206.65 175.05 L204.35 175.05 206.65 175.05 M205.7 172.7 L203.35 172.7 205.7 172.7 M316.95 131.0 L315.65 131.25 313.25 131.5 315.65 131.25 316.95 131.0 M204.0 104.15 L201.2 104.15 204.0 104.15 M271.65 109.75 L268.4 109.75 271.65 109.75 M315.55 130.1 L314.15 130.0 Q312.65 129.8 311.35 130.55 312.65 129.8 314.15 130.0 L315.55 130.1 M253.55 163.7 L251.7 163.55 250.3 163.2 251.7 163.55 253.55 163.7 M273.1 111.6 L269.35 111.6 273.1 111.6 M318.35 174.1 L317.85 174.05 Q316.45 173.75 315.55 174.6 316.45 173.75 317.85 174.05 L318.35 174.1 M319.3 176.9 L317.9 176.9 316.05 176.9 317.9 176.9 319.3 176.9 M166.05 27.6 L159.1 30.05 Q152.7 29.05 146.45 30.7 152.7 29.05 159.1 30.05 L166.05 27.6 M128.7 34.9 L126.8 35.65 116.6 38.25 Q109.15 40.0 100.25 41.35 L90.9 42.1 87.65 42.2 Q85.2 42.2 83.0 41.45 85.2 42.2 87.65 42.2 L90.9 42.1 100.25 41.35 Q109.15 40.0 116.6 38.25 L126.8 35.65 128.7 34.9 M98.9 86.55 L99.15 86.5 98.9 86.55 95.55 86.75 98.9 86.55 M85.3 62.45 Q85.3 63.2 84.95 63.55 84.05 64.6 82.95 65.1 76.55 67.9 69.45 68.6 64.1 69.05 60.1 72.25 64.1 69.05 69.45 68.6 76.55 67.9 82.95 65.1 84.05 64.6 84.95 63.55 85.3 63.2 85.3 62.45 M99.85 86.8 L99.65 86.75 99.85 86.8 100.15 86.95 99.85 86.8 99.75 86.8 99.65 86.75 99.15 86.5 99.65 86.75 99.75 86.8 99.85 86.8 M101.2 87.35 L100.15 86.95 101.2 87.35 M146.9 52.2 L146.45 52.2 Q144.3 52.3 142.7 53.6 144.3 52.3 146.45 52.2 L146.9 52.2 M151.15 54.55 L150.2 55.0 Q148.25 55.95 146.0 55.95 148.25 55.95 150.2 55.0 L151.15 54.55 M76.85 45.2 Q76.2 41.05 71.85 39.9 70.3 39.4 68.6 39.25 63.8 38.65 59.25 40.8 57.7 41.6 56.0 41.1 51.3 39.5 48.2 43.45 L45.55 46.6 Q42.95 49.55 40.9 52.9 L40.75 53.2 40.95 56.35 Q38.0 58.4 38.2 61.85 L50.65 65.4 Q51.75 65.75 52.9 66.8 L54.7 68.6 55.0 68.8 Q62.15 68.15 68.7 64.25 L70.4 63.6 76.15 62.75 Q79.6 61.7 82.45 59.5 L76.9 45.35 76.85 45.2 M52.15 38.2 Q48.45 37.3 44.75 38.8 41.9 39.95 42.35 42.85 41.9 39.95 44.75 38.8 48.45 37.3 52.15 38.2 M22.05 68.55 Q21.0 67.5 19.3 67.1 17.3 67.8 16.6 69.95 L15.85 71.45 15.8 71.5 Q17.05 75.0 21.0 74.5 22.4 74.45 23.35 73.6 24.5 70.9 22.05 68.55 M28.35 73.2 L27.35 73.95 22.7 75.8 Q17.25 77.4 12.95 74.15 17.25 77.4 22.7 75.8 L27.35 73.95 28.35 73.2 M46.1 69.0 L44.7 68.6 Q40.45 67.65 36.3 66.2 40.45 67.65 44.7 68.6 L46.1 69.0 M44.4 110.1 Q44.6 109.15 43.95 108.55 44.6 109.15 44.4 110.1 L45.25 109.6 44.4 110.1 Q41.6 111.3 38.2 109.75 36.5 109.05 36.9 107.25 37.55 103.9 41.05 103.45 L42.9 103.4 44.4 103.9 45.5 104.7 45.7 105.4 Q45.55 107.8 42.95 107.95 L42.0 107.95 Q40.55 107.9 40.9 106.45 41.15 105.9 41.65 105.6 L42.4 105.5 43.4 105.85 42.4 105.5 41.65 105.6 Q41.15 105.9 40.9 106.45 40.55 107.9 42.0 107.95 L42.95 107.95 Q45.55 107.8 45.7 105.4 L45.5 104.7 44.4 103.9 42.9 103.4 41.05 103.45 Q37.55 103.9 36.9 107.25 36.5 109.05 38.2 109.75 41.6 111.3 44.4 110.1 M70.5 123.15 L69.15 122.6 Q67.3 121.7 66.75 123.15 67.3 121.7 69.15 122.6 L70.5 123.15 M71.45 125.95 L70.5 126.0 Q69.05 126.2 67.7 125.5 69.05 126.2 70.5 126.0 L71.45 125.95 M31.15 175.5 L28.35 175.5 31.15 175.5 M20.15 178.3 L19.7 178.35 17.85 178.8 19.7 178.35 20.15 178.3 M86.9 148.3 Q86.35 148.85 86.35 149.4 L85.95 149.7 86.35 149.4 Q86.35 148.85 86.9 148.3 M91.5 148.6 Q92.0 147.25 93.9 147.0 L95.2 147.15 96.3 147.65 Q99.25 149.4 97.5 152.45 96.85 153.5 96.0 154.0 94.2 155.05 92.0 154.9 89.65 154.65 88.4 152.9 L86.8 150.7 Q86.25 150.0 86.35 149.4 88.5 147.6 91.5 148.6 91.15 149.4 91.2 150.6 91.3 152.5 92.95 152.5 93.9 152.5 94.6 152.1 L94.7 151.6 Q94.5 150.55 93.4 150.15 94.5 150.55 94.7 151.6 L94.6 152.1 Q93.9 152.5 92.95 152.5 91.3 152.5 91.2 150.6 91.15 149.4 91.5 148.6 88.5 147.6 86.35 149.4 86.25 150.0 86.8 150.7 L88.4 152.9 Q89.65 154.65 92.0 154.9 94.2 155.05 96.0 154.0 96.85 153.5 97.5 152.45 99.25 149.4 96.3 147.65 L95.2 147.15 93.9 147.0 Q92.0 147.25 91.5 148.6 M74.35 188.5 Q73.15 187.85 71.5 188.1 73.15 187.85 74.35 188.5 M89.5 191.85 L87.2 191.85 89.5 191.85 M134.05 236.95 L136.7 237.85 Q141.7 239.6 146.65 239.25 141.7 239.6 136.7 237.85 L134.05 236.95 M87.85 222.45 L107.0 224.8 87.85 222.45 M8.05 205.65 Q10.8 207.2 13.25 208.1 16.8 209.35 20.6 209.35 L38.35 209.3 56.1 209.1 65.9 209.85 56.1 209.1 38.35 209.3 20.6 209.35 Q16.8 209.35 13.25 208.1 10.8 207.2 8.05 205.65 M322.55 243.45 L319.3 243.3 314.15 243.45 319.3 243.3 322.55 243.45 M228.7 243.7 L224.6 247.65 Q227.15 248.9 229.9 248.8 L231.0 248.85 231.3 248.6 Q231.25 246.7 229.95 245.1 L228.7 243.7 M164.35 202.4 L163.55 202.95 Q162.0 204.3 162.95 205.65 162.0 204.3 163.55 202.95 L164.35 202.4 M0.1 158.1 L-0.35 158.05 -2.7 157.6 -0.35 158.05 0.1 158.1 M-0.4 152.15 L-2.75 152.15 -0.4 152.15" fill="url(#gradient1)" fill-rule="evenodd" stroke="none"/>
    <path d="M-14.4 203.45 L-12.2 203.3 -3.85 202.75 Q-3.15 203.05 -2.85 203.85 -1.9 206.35 0.5 207.75 2.8 209.1 5.5 209.95 L10.25 211.6 16.15 213.25 Q27.3 215.75 38.35 215.25 48.9 215.05 59.15 215.4 L68.5 216.25 Q73.7 216.25 77.55 218.85 L77.45 221.05 Q79.05 221.9 80.3 222.85 L81.65 223.75 Q87.25 226.25 93.55 227.7 L107.25 230.5 Q118.0 233.1 129.4 234.15 128.95 235.3 128.9 236.2 128.85 237.15 129.5 237.9 130.9 239.55 133.65 239.85 142.2 240.8 151.0 243.35 L156.45 244.65 163.45 245.45 Q166.35 246.05 168.85 244.9 L169.8 244.3 Q173.35 241.65 177.2 239.95 180.1 238.55 183.55 238.45 189.95 239.05 196.15 238.6 197.95 238.55 199.5 239.35 L200.65 240.5 Q201.55 242.3 202.75 243.8 207.45 249.4 214.8 248.05 219.35 247.45 222.35 250.95 222.85 251.45 223.65 251.7 226.4 252.6 228.7 254.25 L-14.4 254.25 -14.4 203.45 M191.0 243.9 L181.1 244.2 178.45 245.15 170.5 247.8 168.05 248.35 Q161.75 249.45 155.05 248.6 L151.3 248.35 Q148.6 248.35 146.2 247.55 L142.4 246.65 Q136.45 245.8 131.7 242.5 136.45 245.8 142.4 246.65 L146.2 247.55 Q148.6 248.35 151.3 248.35 L155.05 248.6 Q161.75 249.45 168.05 248.35 L170.5 247.8 178.45 245.15 181.1 244.2 191.0 243.9 M115.35 237.4 Q111.25 235.35 106.55 234.0 L104.1 233.45 Q96.65 232.25 89.7 229.5 L86.85 228.75 Q81.75 227.95 77.55 224.8 81.75 227.95 86.85 228.75 L89.7 229.5 Q96.65 232.25 104.1 233.45 L106.55 234.0 Q111.25 235.35 115.35 237.4 M104.15 242.05 Q102.2 241.85 100.0 242.0 92.0 242.75 84.1 241.6 92.0 242.75 100.0 242.0 102.2 241.85 104.15 242.05 M65.9 239.25 L62.6 239.35 Q60.2 239.5 57.55 239.25 L52.3 238.45 46.75 237.85 31.35 238.3 46.75 237.85 52.3 238.45 57.55 239.25 Q60.2 239.5 62.6 239.35 L65.9 239.25 M65.4 221.5 Q62.3 219.9 58.9 219.55 L57.0 219.4 44.85 220.2 Q36.05 221.8 27.15 221.35 L24.35 221.2 Q18.3 220.8 13.15 219.6 4.4 217.6 -3.1 212.5 L-4.7 211.45 Q-6.7 210.35 -6.45 208.0 -6.7 210.35 -4.7 211.45 L-3.1 212.5 Q4.4 217.6 13.15 219.6 18.3 220.8 24.35 221.2 L27.15 221.35 Q36.05 221.8 44.85 220.2 L57.0 219.4 58.9 219.55 Q62.3 219.9 65.4 221.5 M120.95 251.4 L119.1 251.1 113.95 250.9 119.1 251.1 120.95 251.4 M76.6 251.4 Q74.7 250.2 72.4 250.55 L60.75 251.4 72.4 250.55 Q74.7 250.2 76.6 251.4 M35.55 229.45 L33.2 229.8 25.25 230.4 33.2 229.8 35.55 229.45 M26.65 235.05 L24.35 235.0 19.2 235.5 24.35 235.0 26.65 235.05 M29.95 244.4 Q22.45 244.4 15.0 244.55 11.05 244.65 7.1 244.4 L-7.85 244.85 7.1 244.4 Q11.05 244.65 15.0 244.55 22.45 244.4 29.95 244.4 M15.45 229.45 L7.55 229.75 1.95 229.4 Q-4.0 229.3 -8.8 229.45 -4.0 229.3 1.95 229.4 L7.55 229.75 15.45 229.45 M212.45 251.4 L210.65 251.25 Q208.7 250.95 207.1 250.0 L202.65 247.2 207.1 250.0 Q208.7 250.95 210.65 251.25 L212.45 251.4" fill="url(#gradient2)" fill-rule="evenodd" stroke="none"/>
    <path d="M369.95 74.35 L367.6 76.65 Q364.3 76.8 361.7 75.4 L361.3 75.05 365.85 71.3 369.25 73.65 369.95 74.35" fill="url(#gradient3)" fill-rule="evenodd" stroke="none"/>
    <path d="M377.65 35.4 L375.45 35.35 Q375.55 38.25 378.25 38.6 379.75 38.6 380.8 37.55 381.1 35.0 378.8 33.5 L378.6 33.4 Q376.6 32.2 374.7 33.1 376.6 32.2 378.6 33.4 L378.8 33.5 Q381.1 35.0 380.8 37.55 379.75 38.6 378.25 38.6 375.55 38.25 375.45 35.35 L377.65 35.4 M374.4 32.6 L375.1 29.6 375.65 29.15 Q378.4 27.35 380.85 29.65 382.35 31.1 383.25 33.1 383.95 34.85 383.5 36.5 L382.55 38.6 382.55 38.65 382.4 38.9 382.2 39.15 Q380.75 40.9 378.15 41.2 373.95 41.2 372.65 37.2 371.95 35.05 373.65 33.75 374.35 33.25 374.7 33.1 L374.4 32.6 M383.5 73.0 L384.95 73.45 385.05 73.5 386.0 74.15 Q387.8 76.15 386.65 78.5 385.5 80.9 382.65 81.4 379.9 81.85 377.4 80.3 374.9 78.7 375.35 75.7 375.65 73.65 377.0 72.35 379.9 69.65 383.7 69.45 L383.7 72.25 383.5 73.0 383.45 73.0 Q380.45 72.4 378.7 75.65 378.8 77.55 380.55 78.35 382.55 79.4 383.75 77.5 L383.65 75.6 382.8 75.05 383.65 75.6 383.75 77.5 Q382.55 79.4 380.55 78.35 378.8 77.55 378.7 75.65 380.45 72.4 383.45 73.0 L383.5 73.0 M277.4 29.35 Q276.7 31.65 277.95 33.6 L280.7 33.7 280.85 33.4 Q281.75 31.8 280.5 30.3 L279.6 30.25 280.5 30.3 Q281.75 31.8 280.85 33.4 L280.7 33.7 277.95 33.6 Q276.7 31.65 277.4 29.35 L277.95 28.65 Q279.95 26.5 282.65 28.25 284.3 29.4 284.1 31.4 283.8 34.35 281.55 35.6 L280.3 36.05 Q275.8 37.1 274.05 32.65 273.5 31.1 273.55 29.75 L277.4 29.35 278.45 29.1 277.4 29.35 M10.15 35.4 L12.25 35.8 Q13.25 37.85 10.9 38.85 8.8 39.8 6.95 38.4 5.85 37.6 5.75 35.85 5.7 33.5 7.75 32.4 L9.05 31.9 7.75 32.4 Q5.7 33.5 5.75 35.85 5.85 37.6 6.95 38.4 8.8 39.8 10.9 38.85 13.25 37.85 12.25 35.8 L10.15 35.4 M9.05 31.9 Q11.55 31.1 14.15 32.45 16.5 33.7 16.3 36.5 16.0 41.2 11.35 42.1 L8.3 42.55 Q4.15 42.0 2.35 37.85 0.2 32.85 3.85 28.6 5.2 27.1 7.05 26.5 L7.35 27.45 8.75 31.2 9.05 31.9 M71.8 55.95 L72.7 56.55 Q72.0 57.9 70.4 57.85 L70.05 57.7 69.55 55.55 Q70.25 54.3 71.2 53.8 70.25 54.3 69.55 55.55 L70.05 57.7 70.4 57.85 Q72.0 57.9 72.7 56.55 L71.8 55.95 M71.2 53.8 Q72.2 53.2 73.4 53.2 74.9 54.4 74.55 56.4 L74.4 57.1 Q73.75 59.55 70.85 60.25 69.45 60.45 68.2 59.6 65.5 57.55 66.35 54.15 66.8 52.3 68.45 51.55 L70.75 53.2 71.2 53.8" fill="#9b8453" fill-rule="evenodd" stroke="none"/>
    <path d="M318.3 51.2 L321.15 54.55 Q319.2 56.3 316.75 56.8 312.7 57.9 308.1 58.2 L296.2 59.3 291.3 59.2 284.3 59.2 Q279.6 59.3 275.1 58.05 273.1 57.4 271.95 55.75 269.85 52.6 266.45 51.0 262.7 49.15 259.35 48.1 255.25 46.9 250.45 46.25 247.3 46.5 245.9 43.9 244.4 41.15 241.15 41.2 L240.4 40.05 240.1 39.55 243.25 37.7 Q248.2 34.85 252.55 30.95 254.6 29.0 256.85 27.9 261.4 25.5 266.5 24.1 L267.9 23.35 269.7 22.0 Q270.25 21.45 271.0 21.55 L274.5 21.1 Q276.5 20.9 277.85 19.6 281.85 19.6 284.9 22.15 L288.0 24.2 Q291.35 26.15 294.8 27.4 297.85 28.6 298.95 31.6 299.45 32.85 300.2 33.6 L302.7 35.8 304.8 37.35 Q305.95 38.2 306.4 39.6 307.1 41.85 307.3 44.25 307.45 45.75 308.95 46.3 315.05 46.25 318.3 51.2 M296.9 34.0 L293.6 34.5 Q292.1 34.7 291.7 35.85 L291.15 36.6 290.5 37.0 Q287.3 39.0 283.35 39.45 L281.05 39.4 Q276.25 38.55 272.05 36.5 L270.45 35.6 Q269.5 34.95 268.4 34.5 267.25 34.05 267.0 33.05 267.25 34.05 268.4 34.5 269.5 34.95 270.45 35.6 L272.05 36.5 Q276.25 38.55 281.05 39.4 L283.35 39.45 Q287.3 39.0 290.5 37.0 L291.15 36.6 291.7 35.85 Q292.1 34.7 293.6 34.5 L296.9 34.0 M261.9 31.65 L262.2 32.45 Q262.9 34.2 264.7 35.0 278.1 41.75 293.25 41.8 L294.05 41.8 Q294.7 40.85 294.9 39.7 295.1 38.75 295.85 38.1 298.35 36.2 301.55 37.25 298.35 36.2 295.85 38.1 295.1 38.75 294.9 39.7 294.7 40.85 294.05 41.8 L293.25 41.8 Q278.1 41.75 264.7 35.0 262.9 34.2 262.2 32.45 L261.9 31.65 M281.0 21.85 L279.65 21.7 278.7 21.65 Q275.4 21.75 273.05 24.15 270.55 26.75 266.1 27.55 L263.35 28.15 Q262.4 28.35 261.5 28.95 L259.15 30.4 Q255.1 32.7 251.5 35.7 L249.4 37.35 Q247.3 38.9 245.1 39.6 247.3 38.9 249.4 37.35 L251.5 35.7 Q255.1 32.7 259.15 30.4 L261.5 28.95 Q262.4 28.35 263.35 28.15 L266.1 27.55 Q270.55 26.75 273.05 24.15 275.4 21.75 278.7 21.65 L279.65 21.7 281.0 21.85 M277.4 29.35 L273.55 29.75 Q273.5 31.1 274.05 32.65 275.8 37.1 280.3 36.05 L281.55 35.6 Q283.8 34.35 284.1 31.4 284.3 29.4 282.65 28.25 279.95 26.5 277.95 28.65 L277.4 29.35 M272.6 29.8 L273.55 29.75 272.6 29.8 M293.15 44.25 L293.45 50.2 293.2 50.5 Q290.35 53.5 291.3 57.35 290.35 53.5 293.2 50.5 L293.45 50.2 293.15 44.25" fill="url(#gradient4)" fill-rule="evenodd" stroke="none"/>
    <path d="M406.8 43.1 L406.8 60.1 406.8 113.35 401.0 107.75 400.5 107.2 Q402.85 105.2 401.3 101.85 L398.4 95.9 395.85 91.35 Q393.85 90.55 391.85 92.0 L387.6 94.9 Q385.65 96.1 384.25 97.9 L383.7 97.45 Q380.35 96.3 377.05 94.35 L375.6 94.1 370.7 94.6 367.95 94.35 Q365.35 90.5 363.35 86.55 L362.85 86.05 Q363.85 80.75 367.6 76.65 L369.95 74.35 370.0 74.3 374.0 69.7 375.5 67.05 377.75 60.6 378.45 58.4 Q378.7 57.7 379.45 57.2 L379.9 57.05 Q380.4 53.75 382.85 52.1 385.4 50.3 388.4 48.9 393.3 46.45 398.65 45.25 L403.05 43.95 Q404.65 43.35 406.8 43.1 M368.8 76.45 L367.6 76.65 368.8 76.45 M404.25 47.55 L402.85 47.6 Q401.3 47.85 400.15 48.25 L395.35 49.75 Q391.95 50.65 387.85 52.1 383.95 53.45 382.3 56.85 383.95 53.45 387.85 52.1 391.95 50.65 395.35 49.75 L400.15 48.25 Q401.3 47.85 402.85 47.6 L404.25 47.55 M398.65 63.85 Q398.9 68.6 397.05 72.9 L395.45 75.4 Q391.1 80.45 389.8 86.75 391.1 80.45 395.45 75.4 L397.05 72.9 Q398.9 68.6 398.65 63.85 M386.5 58.25 Q389.45 60.65 393.3 61.2 400.3 61.35 406.8 60.1 400.3 61.35 393.3 61.2 389.45 60.65 386.5 58.25 M383.7 69.45 Q379.9 69.65 377.0 72.35 375.65 73.65 375.35 75.7 374.9 78.7 377.4 80.3 379.9 81.85 382.65 81.4 385.5 80.9 386.65 78.5 387.8 76.15 386.0 74.15 L385.05 73.5 384.95 73.45 383.5 73.0 383.7 72.25 383.7 69.45 384.2 69.45 383.7 69.45 M393.05 58.75 Q392.25 58.55 391.4 57.95 390.05 56.95 388.4 56.4 390.05 56.95 391.4 57.95 392.25 58.55 393.05 58.75 M380.9 62.0 Q380.85 66.0 377.7 68.6 377.3 68.9 377.0 69.55 L375.95 71.5 371.15 77.0 Q369.75 78.65 367.8 79.65 365.3 80.9 365.05 83.5 365.3 80.9 367.8 79.65 369.75 78.65 371.15 77.0 L375.95 71.5 377.0 69.55 Q377.3 68.9 377.7 68.6 380.85 66.0 380.9 62.0" fill="url(#gradient5)" fill-rule="evenodd" stroke="none"/>
    <path d="M384.25 97.9 Q385.65 96.1 387.6 94.9 L391.85 92.0 Q393.85 90.55 395.85 91.35 L398.4 95.9 401.3 101.85 Q402.85 105.2 400.5 107.2 L400.2 107.4 Q399.55 107.85 398.6 107.95 L391.2 108.5 Q385.05 108.6 381.25 103.5 382.45 100.15 384.25 97.9 M398.2 97.5 Q397.95 96.75 397.45 96.55 L395.4 95.55 392.65 95.75 390.2 96.85 Q386.2 98.75 384.2 102.15 386.2 98.75 390.2 96.85 L392.65 95.75 395.4 95.55 397.45 96.55 Q397.95 96.75 398.2 97.5" fill="url(#gradient6)" fill-rule="evenodd" stroke="none"/>
    <path d="M76.9 45.35 L82.45 59.5 Q79.6 61.7 76.15 62.75 L70.4 63.6 68.7 64.25 Q62.15 68.15 55.0 68.8 L54.7 68.6 52.9 66.8 Q51.75 65.75 50.65 65.4 L38.2 61.85 Q38.0 58.4 40.95 56.35 L40.75 53.2 40.9 52.9 Q42.95 49.55 45.55 46.6 L48.2 43.45 Q51.3 39.5 56.0 41.1 57.7 41.6 59.25 40.8 63.8 38.65 68.6 39.25 70.3 39.4 71.85 39.9 76.2 41.05 76.85 45.2 L76.8 45.4 76.9 45.35 M52.65 45.2 Q60.7 49.35 69.9 48.35 73.9 48.2 76.8 45.4 73.9 48.2 69.9 48.35 60.7 49.35 52.65 45.2 M73.2 41.0 Q74.45 43.9 71.75 45.15 L70.45 45.75 Q63.7 48.8 56.85 45.2 63.7 48.8 70.45 45.75 L71.75 45.15 Q74.45 43.9 73.2 41.0 M70.75 53.2 L68.45 51.55 Q66.8 52.3 66.35 54.15 65.5 57.55 68.2 59.6 69.45 60.45 70.85 60.25 73.75 59.55 74.4 57.1 L74.55 56.4 Q74.9 54.4 73.4 53.2 72.2 53.2 71.2 53.8 L70.75 53.2 M78.8 55.95 L78.25 55.05 Q76.5 52.5 75.05 49.4 76.5 52.5 78.25 55.05 L78.8 55.95 M69.45 51.25 L68.45 51.55 69.45 51.25" fill="url(#gradient7)" fill-rule="evenodd" stroke="none"/>
    <path d="M232.4 254.25 L234.4 251.6 236.75 247.7 Q238.15 244.8 241.0 243.0 L246.95 239.15 248.05 237.95 Q249.35 234.9 252.4 234.5 L254.35 236.15 256.8 238.3 Q260.65 241.2 264.2 243.15 265.45 243.9 266.9 245.15 268.3 246.55 270.0 247.8 271.0 248.55 272.45 249.05 276.35 250.5 276.8 254.25 L232.4 254.25 M259.15 243.5 Q255.6 242.2 253.25 239.65 251.8 238.15 250.25 239.25 L249.4 239.85 Q248.95 240.15 248.6 240.8 L248.2 241.45 Q246.9 243.5 244.65 244.25 243.45 244.65 242.5 245.5 240.55 247.45 239.1 249.55 L238.0 250.75 Q236.7 251.8 236.75 253.3 236.7 251.8 238.0 250.75 L239.1 249.55 Q240.55 247.45 242.5 245.5 243.45 244.65 244.65 244.25 246.9 243.5 248.2 241.45 L248.6 240.8 Q248.95 240.15 249.4 239.85 L250.25 239.25 Q251.8 238.15 253.25 239.65 255.6 242.2 259.15 243.5 M246.55 246.25 Q249.95 248.75 254.05 250.0 260.25 251.9 265.7 248.6 260.25 251.9 254.05 250.0 249.95 248.75 246.55 246.25 M261.95 247.7 L261.0 248.1 Q256.8 249.6 253.1 247.2 256.8 249.6 261.0 248.1 L261.95 247.7" fill="url(#gradient8)" fill-rule="evenodd" stroke="none"/>
    <path d="M235.75 41.9 Q234.15 44.9 230.65 44.95 L228.55 45.55 226.85 45.05 221.55 45.9 Q216.55 45.35 213.8 41.45 219.6 39.3 226.1 39.5 L231.6 38.3 232.05 38.3 Q234.85 38.9 236.4 41.15 L235.75 41.9" fill="url(#gradient9)" fill-rule="evenodd" stroke="none"/>
    <path d="M-13.2 75.1 L-13.2 4.45 406.8 4.45 406.8 43.1 Q404.65 43.35 403.05 43.95 L398.65 45.25 Q393.3 46.45 388.4 48.9 385.4 50.3 382.85 52.1 380.4 53.75 379.9 57.05 L379.45 57.2 Q378.7 57.7 378.45 58.4 L377.75 60.6 Q371.4 58.4 366.9 57.85 363.05 57.8 361.45 54.4 361.1 53.6 361.15 52.7 361.2 50.75 362.25 48.95 357.6 47.05 352.4 47.1 L348.75 46.65 331.45 47.5 Q328.0 47.9 325.15 49.35 323.6 50.25 321.4 50.8 L318.3 51.2 Q315.05 46.25 308.95 46.3 307.45 45.75 307.3 44.25 307.1 41.85 306.4 39.6 305.95 38.2 304.8 37.35 L302.7 35.8 300.2 33.6 Q299.45 32.85 298.95 31.6 297.85 28.6 294.8 27.4 291.35 26.15 288.0 24.2 L284.9 22.15 Q281.85 19.6 277.85 19.6 276.5 20.9 274.5 21.1 L271.0 21.55 Q270.25 21.45 269.7 22.0 L267.9 23.35 266.5 24.1 Q261.4 25.5 256.85 27.9 254.6 29.0 252.55 30.95 247.25 29.9 241.8 29.9 L235.15 28.8 224.35 29.9 Q218.7 30.9 213.45 29.95 L212.6 29.7 211.6 29.3 210.75 27.15 Q205.35 26.6 184.7 26.6 164.25 26.55 158.6 27.05 150.4 27.65 142.5 27.15 139.65 27.4 137.65 29.25 133.05 28.7 129.3 29.35 L126.7 29.75 Q120.25 32.0 112.9 33.0 L106.4 34.05 Q95.4 36.2 84.4 36.4 77.05 36.9 68.7 36.65 L55.45 35.6 43.75 35.2 Q38.45 35.7 36.0 40.05 35.6 40.75 35.9 41.6 L37.25 44.65 Q38.1 46.4 36.65 48.2 L35.9 49.2 Q34.6 51.1 32.5 52.2 L25.55 55.2 Q23.55 55.9 21.65 57.0 17.95 59.2 14.95 62.55 13.25 64.55 10.75 65.9 L10.35 66.15 Q6.25 68.15 2.55 69.35 -2.95 71.2 -7.75 74.35 -8.55 74.9 -9.45 75.05 L-13.2 75.1 M380.9 12.5 Q380.7 15.0 381.7 17.6 382.25 18.9 383.1 19.65 385.8 22.35 386.4 26.05 387.3 31.9 387.0 37.7 387.3 31.9 386.4 26.05 385.8 22.35 383.1 19.65 382.25 18.9 381.7 17.6 380.7 15.0 380.9 12.5 M374.7 33.1 Q374.35 33.25 373.65 33.75 371.95 35.05 372.65 37.2 373.95 41.2 378.15 41.2 380.75 40.9 382.2 39.15 L382.4 38.9 382.55 38.65 382.55 38.6 383.5 36.5 Q383.95 34.85 383.25 33.1 382.35 31.1 380.85 29.65 378.4 27.35 375.65 29.15 L375.1 29.6 374.4 32.6 374.7 33.1 M387.9 40.05 Q388.4 37.2 388.4 34.0 L388.6 30.3 388.8 26.55 388.4 20.0 388.8 26.55 388.6 30.3 388.4 34.0 Q388.4 37.2 387.9 40.05 M394.0 37.7 L393.05 40.05 394.0 37.7 M360.85 11.0 L361.3 6.8 360.85 11.0 M356.65 10.05 L357.7 14.2 Q358.7 17.75 358.95 23.9 359.15 29.8 358.5 33.55 359.15 29.8 358.95 23.9 358.7 17.75 357.7 14.2 L356.65 10.05 M339.85 38.2 Q341.0 36.05 340.6 33.7 340.35 32.5 339.9 31.65 L337.15 26.4 335.7 23.1 335.6 22.85 Q334.95 20.4 334.8 15.5 334.7 10.7 335.15 8.2 334.7 10.7 334.8 15.5 334.95 20.4 335.6 22.85 L335.7 23.1 337.15 26.4 339.9 31.65 Q340.35 32.5 340.6 33.7 341.0 36.05 339.85 38.2 M362.25 41.45 Q364.6 38.25 364.75 34.15 364.85 31.8 364.15 29.55 363.55 27.6 362.65 21.9 L361.3 14.25 362.65 21.9 Q363.55 27.6 364.15 29.55 364.85 31.8 364.75 34.15 364.6 38.25 362.25 41.45 M328.15 44.25 Q331.55 38.95 334.1 32.8 335.2 30.1 335.45 27.15 L335.7 23.1 335.45 27.15 Q335.2 30.1 334.1 32.8 331.55 38.95 328.15 44.25 M364.1 46.15 Q364.05 48.5 363.35 50.85 362.45 53.65 364.1 55.45 362.45 53.65 363.35 50.85 364.05 48.5 364.1 46.15 M336.1 33.55 L335.65 34.45 Q333.85 38.5 332.85 42.4 333.85 38.5 335.65 34.45 L336.1 33.55 M317.45 31.2 Q318.5 26.95 317.5 22.6 316.35 17.95 314.15 13.9 316.35 17.95 317.5 22.6 318.5 26.95 317.45 31.2 M317.9 16.75 L319.25 19.1 Q322.2 24.6 320.7 30.75 322.2 24.6 319.25 19.1 L317.9 16.75 M256.3 23.7 L256.6 22.7 Q257.3 19.9 256.7 14.8 256.0 9.4 254.4 7.45 256.0 9.4 256.7 14.8 257.3 19.9 256.6 22.7 L256.3 23.7 M259.55 9.35 Q260.05 10.45 260.15 11.7 260.5 14.5 260.5 23.75 260.5 14.5 260.15 11.7 260.05 10.45 259.55 9.35 M218.95 15.35 L218.95 16.75 Q219.05 21.65 219.85 26.55 219.05 21.65 218.95 16.75 L218.95 15.35 M209.6 23.25 L209.5 21.8 Q208.9 17.5 207.45 13.4 205.55 8.1 203.05 6.3 205.55 8.1 207.45 13.4 208.9 17.5 209.5 21.8 L209.6 23.25 M216.6 26.05 L215.65 13.0 216.6 26.05 M142.25 23.25 L142.35 20.0 Q142.45 16.95 142.05 12.55 141.6 7.55 140.85 5.4 141.6 7.55 142.05 12.55 142.45 16.95 142.35 20.0 L142.25 23.25 M144.6 12.05 Q144.75 13.4 145.25 15.75 146.2 19.85 145.55 23.75 146.2 19.85 145.25 15.75 144.75 13.4 144.6 12.05 M107.7 12.4 Q107.45 13.45 107.15 20.95 106.95 24.6 109.1 27.45 106.95 24.6 107.15 20.95 107.45 13.45 107.7 12.4 M106.8 28.4 L106.1 26.45 Q105.4 24.0 105.45 19.2 105.5 14.35 106.3 11.9 105.5 14.35 105.45 19.2 105.4 24.0 106.1 26.45 L106.8 28.4 M66.65 31.2 L66.95 29.9 Q67.75 26.6 67.15 21.55 66.5 16.2 64.75 13.8 66.5 16.2 67.15 21.55 67.75 26.6 66.95 29.9 L66.65 31.2 M69.9 22.8 Q69.9 23.55 70.05 24.2 70.7 28.0 69.45 31.65 70.7 28.0 70.05 24.2 69.9 23.55 69.9 22.8 M35.35 34.0 Q35.3 31.45 34.3 29.2 L33.0 25.7 Q31.9 22.35 32.05 17.25 32.2 12.15 33.5 8.9 32.2 12.15 32.05 17.25 31.9 22.35 33.0 25.7 L34.3 29.2 Q35.3 31.45 35.35 34.0 M35.35 16.4 Q35.2 17.8 35.0 24.2 34.8 28.85 37.25 32.6 34.8 28.85 35.0 24.2 35.2 17.8 35.35 16.4 M21.35 16.25 Q21.15 17.65 21.2 19.05 21.45 22.75 21.85 25.6 22.4 29.55 25.1 31.65 22.4 29.55 21.85 25.6 21.45 22.75 21.2 19.05 21.15 17.65 21.35 16.25 M26.95 46.15 Q28.0 39.45 23.75 34.4 L21.75 31.8 19.9 29.05 Q18.65 26.95 18.15 24.7 16.9 19.35 17.65 13.9 16.9 19.35 18.15 24.7 18.65 26.95 19.9 29.05 L21.75 31.8 23.75 34.4 Q28.0 39.45 26.95 46.15 M7.05 26.5 Q5.2 27.1 3.85 28.6 0.2 32.85 2.35 37.85 4.15 42.0 8.3 42.55 L11.35 42.1 Q16.0 41.2 16.3 36.5 16.5 33.7 14.15 32.45 11.55 31.1 9.05 31.9 L8.75 31.2 7.35 27.45 7.05 26.5 Q7.9 26.1 8.75 26.05 7.9 26.1 7.05 26.5 M19.95 31.2 Q20.65 31.8 20.95 32.35 L21.5 33.8 21.7 34.75 Q22.6 39.95 20.9 44.7 22.6 39.95 21.7 34.75 L21.5 33.8 20.95 32.35 Q20.65 31.8 19.95 31.2 M22.05 68.55 Q24.5 70.9 23.35 73.6 22.4 74.45 21.0 74.5 17.05 75.0 15.8 71.5 L15.85 71.45 16.6 69.95 Q17.3 67.8 19.3 67.1 21.0 67.5 22.05 68.55 M19.05 69.95 L19.9 70.45 Q20.45 70.9 20.5 71.4 20.6 72.55 21.35 71.8 20.6 72.55 20.5 71.4 20.45 70.9 19.9 70.45 L19.05 69.95 M6.45 63.4 Q6.7 61.2 8.8 60.9 L11.65 63.3 11.25 63.8 Q10.65 64.5 9.95 64.8 L9.75 64.9 7.85 64.8 9.75 64.9 9.95 64.8 Q10.65 64.5 11.25 63.8 L11.65 63.3 8.8 60.9 Q6.7 61.2 6.45 63.4 M228.7 243.7 L229.95 245.1 Q231.25 246.7 231.3 248.6 L231.0 248.85 229.9 248.8 Q227.15 248.9 224.6 247.65 L228.7 243.7 M2.7 57.8 Q3.9 49.45 -1.55 42.95 -2.75 41.55 -3.35 39.8 -6.1 31.65 -5.25 22.8 -6.1 31.65 -3.35 39.8 -2.75 41.55 -1.55 42.95 3.9 49.45 2.7 57.8 M-9.0 34.45 Q-8.8 36.7 -8.2 39.55 -7.8 41.5 -6.6 42.95 -2.5 48.15 -0.55 54.55 -2.5 48.15 -6.6 42.95 -7.8 41.5 -8.2 39.55 -8.8 36.7 -9.0 34.45" fill="url(#gradient10)" fill-rule="evenodd" stroke="none"/>
    <path d="M387.0 37.7 Q387.3 31.9 386.4 26.05 385.8 22.35 383.1 19.65 382.25 18.9 381.7 17.6 380.7 15.0 380.9 12.5 M374.7 33.1 Q376.6 32.2 378.6 33.4 L378.8 33.5 Q381.1 35.0 380.8 37.55 379.75 38.6 378.25 38.6 375.55 38.25 375.45 35.35 L377.65 35.4 M374.7 33.1 Q374.35 33.25 373.65 33.75 371.95 35.05 372.65 37.2 373.95 41.2 378.15 41.2 380.75 40.9 382.2 39.15 L382.4 38.9 382.55 38.65 382.55 38.6 383.5 36.5 Q383.95 34.85 383.25 33.1 382.35 31.1 380.85 29.65 378.4 27.35 375.65 29.15 L375.1 29.6 374.4 32.6 M393.05 40.05 L394.0 37.7 M406.8 43.1 Q404.65 43.35 403.05 43.95 L398.65 45.25 Q393.3 46.45 388.4 48.9 385.4 50.3 382.85 52.1 380.4 53.75 379.9 57.05 L379.45 57.2 Q378.7 57.7 378.45 58.4 L377.75 60.6 375.5 67.05 374.0 69.7 370.0 74.3 369.95 74.35 367.6 76.65 368.8 76.45 M361.3 6.8 L360.85 11.0 M361.3 14.25 L362.65 21.9 Q363.55 27.6 364.15 29.55 364.85 31.8 364.75 34.15 364.6 38.25 362.25 41.45 M335.15 8.2 Q334.7 10.7 334.8 15.5 334.95 20.4 335.6 22.85 L335.7 23.1 337.15 26.4 339.9 31.65 Q340.35 32.5 340.6 33.7 341.0 36.05 339.85 38.2 M377.75 60.6 Q371.4 58.4 366.9 57.85 363.05 57.8 361.45 54.4 361.1 53.6 361.15 52.7 361.2 50.75 362.25 48.95 357.6 47.05 352.4 47.1 L348.75 46.65 331.45 47.5 Q328.0 47.9 325.15 49.35 323.6 50.25 321.4 50.8 L318.3 51.2 321.15 54.55 Q319.2 56.3 316.75 56.8 312.7 57.9 308.1 58.2 L296.2 59.3 291.3 59.2 284.3 59.2 Q279.6 59.3 275.1 58.05 273.1 57.4 271.95 55.75 269.85 52.6 266.45 51.0 262.7 49.15 259.35 48.1 255.25 46.9 250.45 46.25 247.3 46.5 245.9 43.9 244.4 41.15 241.15 41.2 L240.4 40.05 M240.1 39.55 L243.25 37.7 Q248.2 34.85 252.55 30.95 247.25 29.9 241.8 29.9 L235.15 28.8 224.35 29.9 Q218.7 30.9 213.45 29.95 L212.6 29.7 211.6 29.3 210.75 27.15 Q205.35 26.6 184.7 26.6 164.25 26.55 158.6 27.05 150.4 27.65 142.5 27.15 139.65 27.4 137.65 29.25 133.05 28.7 129.3 29.35 L126.7 29.75 Q120.25 32.0 112.9 33.0 L106.4 34.05 Q95.4 36.2 84.4 36.4 77.05 36.9 68.7 36.65 L55.45 35.6 43.75 35.2 Q38.45 35.7 36.0 40.05 35.6 40.75 35.9 41.6 L37.25 44.65 Q38.1 46.4 36.65 48.2 L35.9 49.2 Q34.6 51.1 32.5 52.2 L25.55 55.2 Q23.55 55.9 21.65 57.0 17.95 59.2 14.95 62.55 13.25 64.55 10.75 65.9 L10.35 66.15 Q6.25 68.15 2.55 69.35 -2.95 71.2 -7.75 74.35 -8.55 74.9 -9.45 75.05 L-13.2 75.1 M-14.4 203.45 L-12.2 203.3 -3.85 202.75 Q-3.15 203.05 -2.85 203.85 -1.9 206.35 0.5 207.75 2.8 209.1 5.5 209.95 L10.25 211.6 16.15 213.25 Q27.3 215.75 38.35 215.25 48.9 215.05 59.15 215.4 L68.5 216.25 Q73.7 216.25 77.55 218.85 L77.45 221.05 Q79.05 221.9 80.3 222.85 L81.65 223.75 Q87.25 226.25 93.55 227.7 L107.25 230.5 Q118.0 233.1 129.4 234.15 128.95 235.3 128.9 236.2 128.85 237.15 129.5 237.9 130.9 239.55 133.65 239.85 142.2 240.8 151.0 243.35 L156.45 244.65 163.45 245.45 Q166.35 246.05 168.85 244.9 L169.8 244.3 Q173.35 241.65 177.2 239.95 180.1 238.55 183.55 238.45 189.95 239.05 196.15 238.6 197.95 238.55 199.5 239.35 L200.65 240.5 Q201.55 242.3 202.75 243.8 207.45 249.4 214.8 248.05 219.35 247.45 222.35 250.95 222.85 251.45 223.65 251.7 226.4 252.6 228.7 254.25 M232.1 254.25 L232.4 254.25 234.4 251.6 236.75 247.7 Q238.15 244.8 241.0 243.0 L246.95 239.15 248.05 237.95 Q249.35 234.9 252.4 234.5 L254.35 236.15 256.8 238.3 Q260.65 241.2 264.2 243.15 265.45 243.9 266.9 245.15 268.3 246.55 270.0 247.8 271.0 248.55 272.45 249.05 276.35 250.5 276.8 254.25 M335.7 23.1 L335.45 27.15 Q335.2 30.1 334.1 32.8 331.55 38.95 328.15 44.25 M383.7 97.45 Q380.35 96.3 377.05 94.35 L375.6 94.1 370.7 94.6 367.95 94.35 Q365.35 90.5 363.35 86.55 L362.85 86.05 Q363.85 80.75 367.6 76.65 364.3 76.8 361.7 75.4 L361.3 75.05 360.85 75.55 M406.8 60.1 Q400.3 61.35 393.3 61.2 389.45 60.65 386.5 58.25 M389.8 86.75 Q391.1 80.45 395.45 75.4 L397.05 72.9 Q398.9 68.6 398.65 63.85 M383.5 73.0 L384.95 73.45 385.05 73.5 386.0 74.15 Q387.8 76.15 386.65 78.5 385.5 80.9 382.65 81.4 379.9 81.85 377.4 80.3 374.9 78.7 375.35 75.7 375.65 73.65 377.0 72.35 379.9 69.65 383.7 69.45 L384.2 69.45 M361.3 75.05 L365.85 71.3 369.25 73.65 M383.5 73.0 L383.45 73.0 Q380.45 72.4 378.7 75.65 378.8 77.55 380.55 78.35 382.55 79.4 383.75 77.5 L383.65 75.6 382.8 75.05 M383.7 69.45 L383.7 72.25 M384.25 97.9 Q385.65 96.1 387.6 94.9 L391.85 92.0 Q393.85 90.55 395.85 91.35 L398.4 95.9 401.3 101.85 Q402.85 105.2 400.5 107.2 M401.0 107.75 L406.8 113.35 M384.25 97.9 Q382.45 100.15 381.25 103.5 385.05 108.6 391.2 108.5 L398.6 107.95 Q399.55 107.85 400.2 107.4 L400.5 107.2 M314.15 13.9 Q316.35 17.95 317.5 22.6 318.5 26.95 317.45 31.2 M318.3 51.2 Q315.05 46.25 308.95 46.3 307.45 45.75 307.3 44.25 307.1 41.85 306.4 39.6 305.95 38.2 304.8 37.35 L302.7 35.8 300.2 33.6 Q299.45 32.85 298.95 31.6 297.85 28.6 294.8 27.4 291.35 26.15 288.0 24.2 L284.9 22.15 Q281.85 19.6 277.85 19.6 276.5 20.9 274.5 21.1 L271.0 21.55 Q270.25 21.45 269.7 22.0 L267.9 23.35 266.5 24.1 Q261.4 25.5 256.85 27.9 254.6 29.0 252.55 30.95 M301.55 37.25 Q298.35 36.2 295.85 38.1 295.1 38.75 294.9 39.7 294.7 40.85 294.05 41.8 L293.25 41.8 Q278.1 41.75 264.7 35.0 262.9 34.2 262.2 32.45 L261.9 31.65 M254.4 7.45 Q256.0 9.4 256.7 14.8 257.3 19.9 256.6 22.7 L256.3 23.7 M279.6 30.25 L280.5 30.3 Q281.75 31.8 280.85 33.4 L280.7 33.7 277.95 33.6 Q276.7 31.65 277.4 29.35 L273.55 29.75 Q273.5 31.1 274.05 32.65 275.8 37.1 280.3 36.05 L281.55 35.6 Q283.8 34.35 284.1 31.4 284.3 29.4 282.65 28.25 279.95 26.5 277.95 28.65 L277.4 29.35 278.45 29.1 M273.55 29.75 L272.6 29.8 M291.3 57.35 Q290.35 53.5 293.2 50.5 L293.45 50.2 293.15 44.25 M203.05 6.3 Q205.55 8.1 207.45 13.4 208.9 17.5 209.5 21.8 L209.6 23.25 M235.75 41.9 Q234.15 44.9 230.65 44.95 L228.55 45.55 226.85 45.05 221.55 45.9 Q216.55 45.35 213.8 41.45 219.6 39.3 226.1 39.5 L231.6 38.3 232.05 38.3 Q234.85 38.9 236.4 41.15 M215.65 13.0 L216.6 26.05 M140.85 5.4 Q141.6 7.55 142.05 12.55 142.45 16.95 142.35 20.0 L142.25 23.25 M106.3 11.9 Q105.5 14.35 105.45 19.2 105.4 24.0 106.1 26.45 L106.8 28.4 M64.75 13.8 Q66.5 16.2 67.15 21.55 67.75 26.6 66.95 29.9 L66.65 31.2 M76.85 45.2 Q76.2 41.05 71.85 39.9 70.3 39.4 68.6 39.25 63.8 38.65 59.25 40.8 57.7 41.6 56.0 41.1 51.3 39.5 48.2 43.45 L45.55 46.6 Q42.95 49.55 40.9 52.9 L40.75 53.2 40.95 56.35 Q38.0 58.4 38.2 61.85 L50.65 65.4 Q51.75 65.75 52.9 66.8 L54.7 68.6 55.0 68.8 Q62.15 68.15 68.7 64.25 L70.4 63.6 76.15 62.75 Q79.6 61.7 82.45 59.5 L76.9 45.35 76.85 45.2 76.8 45.4 Q73.9 48.2 69.9 48.35 60.7 49.35 52.65 45.2 M33.5 8.9 Q32.2 12.15 32.05 17.25 31.9 22.35 33.0 25.7 L34.3 29.2 Q35.3 31.45 35.35 34.0 M17.65 13.9 Q16.9 19.35 18.15 24.7 18.65 26.95 19.9 29.05 L21.75 31.8 23.75 34.4 Q28.0 39.45 26.95 46.15 M9.05 31.9 L7.75 32.4 Q5.7 33.5 5.75 35.85 5.85 37.6 6.95 38.4 8.8 39.8 10.9 38.85 13.25 37.85 12.25 35.8 L10.15 35.4 M9.05 31.9 Q11.55 31.1 14.15 32.45 16.5 33.7 16.3 36.5 16.0 41.2 11.35 42.1 L8.3 42.55 Q4.15 42.0 2.35 37.85 0.2 32.85 3.85 28.6 5.2 27.1 7.05 26.5 7.9 26.1 8.75 26.05 M7.35 27.45 L8.75 31.2 M20.9 44.7 Q22.6 39.95 21.7 34.75 L21.5 33.8 20.95 32.35 Q20.65 31.8 19.95 31.2 M22.05 68.55 Q21.0 67.5 19.3 67.1 17.3 67.8 16.6 69.95 L15.85 71.45 15.8 71.5 Q17.05 75.0 21.0 74.5 22.4 74.45 23.35 73.6 24.5 70.9 22.05 68.55 M7.85 64.8 L9.75 64.9 9.95 64.8 Q10.65 64.5 11.25 63.8 L11.65 63.3 8.8 60.9 Q6.7 61.2 6.45 63.4 M71.2 53.8 Q70.25 54.3 69.55 55.55 L70.05 57.7 70.4 57.85 Q72.0 57.9 72.7 56.55 L71.8 55.95 M70.75 53.2 L68.45 51.55 Q66.8 52.3 66.35 54.15 65.5 57.55 68.2 59.6 69.45 60.45 70.85 60.25 73.75 59.55 74.4 57.1 L74.55 56.4 Q74.9 54.4 73.4 53.2 72.2 53.2 71.2 53.8 M68.45 51.55 L69.45 51.25 M265.7 248.6 Q260.25 251.9 254.05 250.0 249.95 248.75 246.55 246.25 M228.7 243.7 L224.6 247.65 Q227.15 248.9 229.9 248.8 L231.0 248.85 231.3 248.6 Q231.25 246.7 229.95 245.1 L228.7 243.7 M-5.25 22.8 Q-6.1 31.65 -3.35 39.8 -2.75 41.55 -1.55 42.95 3.9 49.45 2.7 57.8" fill="none" stroke="#4d3a26" stroke-linecap="round" stroke-linejoin="round" stroke-width="1.0"/>
    <path d="M131.7 242.5 Q136.45 245.8 142.4 246.65 L146.2 247.55 Q148.6 248.35 151.3 248.35 L155.05 248.6 Q161.75 249.45 168.05 248.35 L170.5 247.8 178.45 245.15 181.1 244.2 191.0 243.9 M84.1 241.6 Q92.0 242.75 100.0 242.0 102.2 241.85 104.15 242.05 M77.55 224.8 Q81.75 227.95 86.85 228.75 L89.7 229.5 Q96.65 232.25 104.1 233.45 L106.55 234.0 Q111.25 235.35 115.35 237.4 M113.95 250.9 L119.1 251.1 120.95 251.4 M-6.45 208.0 Q-6.7 210.35 -4.7 211.45 L-3.1 212.5 Q4.4 217.6 13.15 219.6 18.3 220.8 24.35 221.2 L27.15 221.35 Q36.05 221.8 44.85 220.2 L57.0 219.4 58.9 219.55 Q62.3 219.9 65.4 221.5 M31.35 238.3 L46.75 237.85 52.3 238.45 57.55 239.25 Q60.2 239.5 62.6 239.35 L65.9 239.25 M-8.8 229.45 Q-4.0 229.3 1.95 229.4 L7.55 229.75 15.45 229.45 M-7.85 244.85 L7.1 244.4 Q11.05 244.65 15.0 244.55 22.45 244.4 29.95 244.4 M19.2 235.5 L24.35 235.0 26.65 235.05 M25.25 230.4 L33.2 229.8 35.55 229.45 M60.75 251.4 L72.4 250.55 Q74.7 250.2 76.6 251.4 M202.65 247.2 L207.1 250.0 Q208.7 250.95 210.65 251.25 L212.45 251.4" fill="none" stroke="#99ccff" stroke-linecap="round" stroke-linejoin="round" stroke-width="0.05"/>
    <path d="M382.3 56.85 Q383.95 53.45 387.85 52.1 391.95 50.65 395.35 49.75 L400.15 48.25 Q401.3 47.85 402.85 47.6 L404.25 47.55 M388.4 56.4 Q390.05 56.95 391.4 57.95 392.25 58.55 393.05 58.75 M365.05 83.5 Q365.3 80.9 367.8 79.65 369.75 78.65 371.15 77.0 L375.95 71.5 377.0 69.55 Q377.3 68.9 377.7 68.6 380.85 66.0 380.9 62.0 M384.2 102.15 Q386.2 98.75 390.2 96.85 L392.65 95.75 395.4 95.55 397.45 96.55 Q397.95 96.75 398.2 97.5 M267.0 33.05 Q267.25 34.05 268.4 34.5 269.5 34.95 270.45 35.6 L272.05 36.5 Q276.25 38.55 281.05 39.4 L283.35 39.45 Q287.3 39.0 290.5 37.0 L291.15 36.6 291.7 35.85 Q292.1 34.7 293.6 34.5 L296.9 34.0 M245.1 39.6 Q247.3 38.9 249.4 37.35 L251.5 35.7 Q255.1 32.7 259.15 30.4 L261.5 28.95 Q262.4 28.35 263.35 28.15 L266.1 27.55 Q270.55 26.75 273.05 24.15 275.4 21.75 278.7 21.65 L279.65 21.7 281.0 21.85 M56.85 45.2 Q63.7 48.8 70.45 45.75 L71.75 45.15 Q74.45 43.9 73.2 41.0 M21.35 71.8 Q20.6 72.55 20.5 71.4 20.45 70.9 19.9 70.45 L19.05 69.95 M75.05 49.4 Q76.5 52.5 78.25 55.05 L78.8 55.95 M236.75 253.3 Q236.7 251.8 238.0 250.75 L239.1 249.55 Q240.55 247.45 242.5 245.5 243.45 244.65 244.65 244.25 246.9 243.5 248.2 241.45 L248.6 240.8 Q248.95 240.15 249.4 239.85 L250.25 239.25 Q251.8 238.15 253.25 239.65 255.6 242.2 259.15 243.5 M253.1 247.2 Q256.8 249.6 261.0 248.1 L261.95 247.7" fill="none" stroke="#c4ae95" stroke-linecap="round" stroke-linejoin="round" stroke-width="0.05"/>
    <path d="M359.9 110.05 Q361.2 109.8 360.45 108.4 360.4 108.2 359.9 108.2 356.55 108.05 356.6 111.45 356.6 112.2 357.2 112.7 358.8 114.25 360.35 114.15 L361.75 113.75 Q364.0 112.55 363.9 110.05 L363.5 108.7 Q361.35 104.5 356.65 105.25 L355.15 105.8 Q351.3 107.75 352.05 112.4 352.2 113.4 352.7 114.1 L353.8 115.2 Q355.95 116.75 358.5 116.9 359.65 117.0 359.95 116.2 L360.35 114.15 M365.0 159.6 L368.75 159.6 M373.3 200.25 Q375.3 201.6 374.45 203.35 L373.8 204.65 Q372.4 207.5 369.2 207.7 L367.35 207.75 365.55 207.4 Q362.95 206.45 362.95 203.8 L362.95 202.4 363.2 200.05 Q363.45 198.1 365.35 198.7 366.05 198.95 366.55 199.4 L367.2 199.8 Q369.5 197.85 372.1 199.45 L373.3 200.25 M367.8 200.05 L367.2 199.8 366.9 200.05 Q366.5 200.5 366.25 201.1 L366.25 201.95 Q366.6 203.9 369.2 203.8 L370.1 203.7 Q372.5 203.05 371.5 201.5 L371.1 201.0 Q369.7 199.75 369.2 201.45 M337.45 205.65 L338.85 205.3 339.8 205.2 M300.1 96.0 Q299.4 96.15 298.75 96.55 M300.1 96.0 L302.0 96.05 302.45 96.15 M232.0 63.4 L230.0 63.55 Q229.35 63.25 229.65 62.0 230.2 60.05 232.4 60.8 L233.8 61.6 Q236.15 63.45 234.15 65.6 233.45 66.35 232.45 66.6 228.9 67.3 227.15 64.2 226.85 63.65 226.9 62.95 227.25 59.2 231.1 57.9 234.65 56.75 236.85 59.5 L237.95 60.7 Q239.15 61.95 239.05 63.85 238.85 66.5 236.2 67.6 L234.95 66.45 Q234.8 66.2 234.3 66.2 M220.4 143.6 Q224.95 146.65 229.55 142.95 230.2 142.45 230.35 141.7 230.65 140.6 230.2 139.6 229.75 138.45 228.65 137.8 227.3 137.1 225.95 136.8 L223.65 136.7 Q218.7 137.25 217.8 141.8 217.05 145.65 220.4 147.8 223.05 149.55 226.0 149.55 228.6 149.55 231.0 148.55 L232.1 147.9 Q234.95 145.85 235.0 142.2 235.1 140.05 234.3 139.05 233.8 138.45 233.3 138.75 232.75 139.2 232.05 139.3 L231.1 139.4 M221.3 143.6 Q220.95 140.7 223.65 140.25 L225.05 140.1 Q226.45 140.1 226.95 140.75 L227.15 141.3 226.9 141.75 M198.85 100.4 L201.65 100.4 M162.95 204.7 Q163.05 205.5 164.3 205.85 167.7 207.0 169.7 204.05 170.25 203.4 170.45 202.4 170.7 201.7 170.55 201.05 L170.05 199.55 169.4 198.25 Q169.05 197.45 168.1 197.6 L166.7 197.75 Q164.4 197.85 164.15 200.5 164.0 202.4 165.75 202.8 168.25 203.35 168.1 201.0 168.1 200.8 167.65 200.7 166.5 200.65 166.25 201.45 M203.35 172.7 L205.7 172.7 M311.35 130.55 Q312.65 129.8 314.15 130.0 L315.55 130.1 M268.4 109.75 L271.65 109.75 M315.55 174.6 Q316.45 173.75 317.85 174.05 L318.35 174.1 M98.9 86.55 L95.55 86.75 M99.85 86.8 L100.15 86.95 M99.85 86.8 L99.75 86.8 99.65 86.75 99.15 86.5 M142.7 53.6 Q144.3 52.3 146.45 52.2 L146.9 52.2 M66.75 123.15 Q67.3 121.7 69.15 122.6 L70.5 123.15 M45.25 109.6 L44.4 110.1 Q41.6 111.3 38.2 109.75 36.5 109.05 36.9 107.25 37.55 103.9 41.05 103.45 L42.9 103.4 44.4 103.9 45.5 104.7 45.7 105.4 Q45.55 107.8 42.95 107.95 L42.0 107.95 Q40.55 107.9 40.9 106.45 41.15 105.9 41.65 105.6 L42.4 105.5 43.4 105.85 M43.95 108.55 Q44.6 109.15 44.4 110.1 M28.35 175.5 L31.15 175.5 M71.5 188.1 Q73.15 187.85 74.35 188.5 M93.4 150.15 Q94.5 150.55 94.7 151.6 L94.6 152.1 Q93.9 152.5 92.95 152.5 91.3 152.5 91.2 150.6 91.15 149.4 91.5 148.6 88.5 147.6 86.35 149.4 86.25 150.0 86.8 150.7 L88.4 152.9 Q89.65 154.65 92.0 154.9 94.2 155.05 96.0 154.0 96.85 153.5 97.5 152.45 99.25 149.4 96.3 147.65 L95.2 147.15 93.9 147.0 Q92.0 147.25 91.5 148.6 M85.95 149.7 L86.35 149.4 Q86.35 148.85 86.9 148.3 M146.65 239.25 Q141.7 239.6 136.7 237.85 L134.05 236.95 M107.0 224.8 L87.85 222.45 M65.9 209.85 L56.1 209.1 38.35 209.3 20.6 209.35 Q16.8 209.35 13.25 208.1 10.8 207.2 8.05 205.65 M162.95 205.65 Q162.0 204.3 163.55 202.95 L164.35 202.4 M-2.75 152.15 L-0.4 152.15" fill="none" stroke="#c4ae95" stroke-linecap="round" stroke-linejoin="round" stroke-width="1.0"/>
    <path d="M406.8 117.95 L407.5 118.45 M281.85 254.25 L281.6 253.75 Q279.75 249.8 276.9 247.2 M327.7 52.65 Q333.95 51.25 340.3 51.0 L345.45 51.3 347.75 51.7 M358.5 88.6 Q359.8 92.3 363.15 93.7 L364.55 94.2 M348.25 74.15 L350.1 74.5 351.5 74.6 M365.5 61.05 Q367.25 60.2 368.85 61.5 L369.7 62.0 M379.5 107.75 Q382.0 111.15 386.5 111.35 390.4 111.55 394.45 110.55 M366.9 165.55 L368.3 165.9 369.7 166.0 M395.35 116.2 L406.8 117.95 M281.85 254.25 L282.05 254.65 M377.65 241.65 L379.5 241.65 M337.5 207.05 L338.45 207.45 338.9 207.5 M242.3 46.1 Q242.55 48.1 245.1 48.95 249.55 50.4 254.4 50.15 L256.65 50.5 Q258.0 51.05 259.0 51.85 L262.8 55.0 M279.15 62.0 Q282.25 64.0 286.15 63.75 L292.2 63.55 300.15 63.0 309.95 61.55 M303.9 96.2 L302.45 96.15 300.1 96.0 M199.8 32.1 Q201.2 31.25 203.05 31.7 L204.45 32.1 M221.25 34.0 Q229.35 32.75 237.6 33.7 L238.55 34.0 M174.15 131.55 L175.0 131.45 176.0 131.1 M204.35 175.05 L206.65 175.05 M201.2 104.15 L204.0 104.15 M313.25 131.5 L315.65 131.25 316.95 131.0 M269.35 111.6 L273.1 111.6 M250.3 163.2 L251.7 163.55 253.55 163.7 M316.05 176.9 L317.9 176.9 319.3 176.9 M83.0 41.45 Q85.2 42.2 87.65 42.2 L90.9 42.1 100.25 41.35 Q109.15 40.0 116.6 38.25 L126.8 35.65 128.7 34.9 M146.45 30.7 Q152.7 29.05 159.1 30.05 L166.05 27.6 M60.1 72.25 Q64.1 69.05 69.45 68.6 76.55 67.9 82.95 65.1 84.05 64.6 84.95 63.55 85.3 63.2 85.3 62.45 M99.15 86.5 L98.9 86.55 M99.65 86.75 L99.85 86.8 M100.15 86.95 L101.2 87.35 M146.0 55.95 Q148.25 55.95 150.2 55.0 L151.15 54.55 M42.35 42.85 Q41.9 39.95 44.75 38.8 48.45 37.3 52.15 38.2 M12.95 74.15 Q17.25 77.4 22.7 75.8 L27.35 73.95 28.35 73.2 M36.3 66.2 Q40.45 67.65 44.7 68.6 L46.1 69.0 M67.7 125.5 Q69.05 126.2 70.5 126.0 L71.45 125.95 M17.85 178.8 L19.7 178.35 20.15 178.3 M87.2 191.85 L89.5 191.85 M314.15 243.45 L319.3 243.3 322.55 243.45 M-2.7 157.6 L-0.35 158.05 0.1 158.1" fill="none" stroke="#694e34" stroke-linecap="round" stroke-linejoin="round" stroke-width="1.0"/>
    <path d="M145.55 23.75 Q146.2 19.85 145.25 15.75 144.75 13.4 144.6 12.05 M109.1 27.45 Q106.95 24.6 107.15 20.95 107.45 13.45 107.7 12.4" fill="none" stroke="#967556" stroke-linecap="round" stroke-linejoin="round" stroke-width="0.05"/>
    <path d="M388.4 20.0 L388.8 26.55 388.6 30.3 388.4 34.0 Q388.4 37.2 387.9 40.05 M358.5 33.55 Q359.15 29.8 358.95 23.9 358.7 17.75 357.7 14.2 L356.65 10.05 M332.85 42.4 Q333.85 38.5 335.65 34.45 L336.1 33.55 M364.1 55.45 Q362.45 53.65 363.35 50.85 364.05 48.5 364.1 46.15 M320.7 30.75 Q322.2 24.6 319.25 19.1 L317.9 16.75 M260.5 23.75 Q260.5 14.5 260.15 11.7 260.05 10.45 259.55 9.35 M219.85 26.55 Q219.05 21.65 218.95 16.75 L218.95 15.35 M69.45 31.65 Q70.7 28.0 70.05 24.2 69.9 23.55 69.9 22.8 M25.1 31.65 Q22.4 29.55 21.85 25.6 21.45 22.75 21.2 19.05 21.15 17.65 21.35 16.25 M37.25 32.6 Q34.8 28.85 35.0 24.2 35.2 17.8 35.35 16.4 M-0.55 54.55 Q-2.5 48.15 -6.6 42.95 -7.8 41.5 -8.2 39.55 -8.8 36.7 -9.0 34.45" fill="none" stroke="#a48260" stroke-linecap="round" stroke-linejoin="round" stroke-width="0.05"/>
    <path d="M80.3 228.45 L81.65 229.35 Q87.35 231.9 93.55 233.3 L107.25 236.1 Q118.2 238.7 129.4 239.75 129.0 240.75 128.9 241.8 128.85 242.75 129.5 243.5 130.95 245.15 133.65 245.45 142.45 246.45 151.0 248.95 L156.45 250.25 163.45 251.05 Q166.35 251.65 168.85 250.5 L169.8 249.9 Q173.3 247.3 177.2 245.55 180.15 244.1 183.55 244.05 189.9 244.65 196.15 244.2 197.95 244.1 199.5 244.95 L200.65 246.1 Q201.55 247.9 202.75 249.4 207.45 255.0 214.8 253.65 219.35 253.05 222.35 256.55 222.9 257.1 223.65 257.3 226.35 258.2 228.7 259.85 L-14.4 259.85 -14.4 209.05 -12.2 208.9 -3.85 208.35 Q-3.15 208.65 -2.85 209.45 -1.85 212.0 0.5 213.35 2.95 214.75 5.5 215.55 L10.25 217.2 16.15 218.85 Q27.1 221.35 38.35 220.85 48.9 220.65 59.15 221.0 L68.5 221.85 Q73.65 221.85 77.55 224.45 L77.45 226.65 80.3 228.45" fill="#81c0fe" fill-opacity="0.3137255" fill-rule="evenodd" stroke="none"/>
  </g>
  <defs>
    <radialGradient cx="0" cy="0" gradientTransform="matrix(0.0041, 0.2296, -0.4577, 0.008, 192.0, 147.0)" gradientUnits="userSpaceOnUse" id="gradient0" r="819.2" spreadMethod="pad">
      <stop offset="0.0" stop-color="#cebb9d"/>
      <stop offset="0.36470588235294116" stop-color="#b69b6a"/>
      <stop offset="0.7490196078431373" stop-color="#a68653"/>
      <stop offset="1.0" stop-color="#58472c"/>
    </radialGradient>
    <radialGradient cx="0" cy="0" gradientTransform="matrix(0.0039, 0.2187, -0.436, 0.0077, 192.0, 147.0)" gradientUnits="userSpaceOnUse" id="gradient1" r="819.2" spreadMethod="pad">
      <stop offset="0.0" stop-color="#c5a989"/>
      <stop offset="0.36470588235294116" stop-color="#b69b6a"/>
      <stop offset="0.6666666666666666" stop-color="#a68653"/>
      <stop offset="1.0" stop-color="#58472c"/>
    </radialGradient>
    <linearGradient gradientTransform="matrix(-0.0042, 0.0297, -0.0311, -0.0044, 119.9, 254.4)" gradientUnits="userSpaceOnUse" id="gradient2" spreadMethod="pad" x1="-819.2" x2="819.2">
      <stop offset="0.0" stop-color="#c7a98d"/>
      <stop offset="1.0" stop-color="#2c2116"/>
    </linearGradient>
    <radialGradient cx="0" cy="0" gradientTransform="matrix(1.0, 0.0, 0.0, 1.0, 0.0, 0.0)" gradientUnits="userSpaceOnUse" id="gradient3" r="819.2" spreadMethod="pad">
      <stop offset="0.0" stop-color="#a58254"/>
      <stop offset="1.0" stop-color="#58472c"/>
    </radialGradient>
    <radialGradient cx="0" cy="0" gradientTransform="matrix(0.0493, 0.0, 0.0, 0.0357, 270.35, 27.75)" gradientUnits="userSpaceOnUse" id="gradient4" r="819.2" spreadMethod="pad">
      <stop offset="0.0" stop-color="#a58254"/>
      <stop offset="1.0" stop-color="#58472c"/>
    </radialGradient>
    <radialGradient cx="0" cy="0" gradientTransform="matrix(0.051, 0.0, 0.0, 0.051, 382.6, 54.9)" gradientUnits="userSpaceOnUse" id="gradient5" r="819.2" spreadMethod="pad">
      <stop offset="0.0" stop-color="#a58254"/>
      <stop offset="1.0" stop-color="#58472c"/>
    </radialGradient>
    <radialGradient cx="0" cy="0" gradientTransform="matrix(0.0145, 0.0, 0.0, 0.0145, 387.45, 93.55)" gradientUnits="userSpaceOnUse" id="gradient6" r="819.2" spreadMethod="pad">
      <stop offset="0.0" stop-color="#a58254"/>
      <stop offset="1.0" stop-color="#58472c"/>
    </radialGradient>
    <radialGradient cx="0" cy="0" gradientTransform="matrix(0.0287, 0.0, 0.0, 0.0287, 73.65, 44.05)" gradientUnits="userSpaceOnUse" id="gradient7" r="819.2" spreadMethod="pad">
      <stop offset="0.0" stop-color="#a58254"/>
      <stop offset="1.0" stop-color="#58472c"/>
    </radialGradient>
    <radialGradient cx="0" cy="0" gradientTransform="matrix(0.0234, 0.0, 0.0, 0.0176, 258.9, 241.95)" gradientUnits="userSpaceOnUse" id="gradient8" r="819.2" spreadMethod="pad">
      <stop offset="0.0" stop-color="#a58254"/>
      <stop offset="1.0" stop-color="#58472c"/>
    </radialGradient>
    <radialGradient cx="0" cy="0" gradientTransform="matrix(0.02, 0.0, 0.0, 0.0145, 219.65, 36.8)" gradientUnits="userSpaceOnUse" id="gradient9" r="819.2" spreadMethod="pad">
      <stop offset="0.0" stop-color="#a58254"/>
      <stop offset="1.0" stop-color="#58472c"/>
    </radialGradient>
    <radialGradient cx="0" cy="0" gradientTransform="matrix(0.0014, 0.0793, -0.2967, 0.0052, 193.1, 59.75)" gradientUnits="userSpaceOnUse" id="gradient10" r="819.2" spreadMethod="pad">
      <stop offset="0.0" stop-color="#a58254"/>
      <stop offset="1.0" stop-color="#58472c"/>
    </radialGradient>
  </defs>
</svg>
