<?xml version="1.0" encoding="UTF-8" standalone="no"?>
<svg xmlns:xlink="http://www.w3.org/1999/xlink" height="290.3px" width="459.35px" xmlns="http://www.w3.org/2000/svg">
  <g transform="matrix(1.0, 0.0, 0.0, 1.0, 27.75, 12.55)">
    <path d="M356.75 49.45 L405.05 49.45 405.05 71.45 361.8 71.45 356.75 49.45 361.8 71.45 405.05 71.45 405.05 123.2 373.7 123.2 388.45 187.15 405.05 187.15 388.45 187.15 373.7 123.2 405.05 123.2 405.05 187.15 405.05 259.1 405.05 269.85 326.8 269.85 317.55 187.15 311.6 187.15 317.55 187.15 326.8 269.85 311.6 269.85 311.6 187.15 311.6 133.3 311.6 123.2 311.6 71.45 361.8 71.45 373.7 123.2 311.6 123.2 373.7 123.2 361.8 71.45 311.6 71.45 311.6 49.45 356.75 49.45 M405.05 259.1 L388.45 187.15 317.55 187.15 311.6 133.3 317.55 187.15 388.45 187.15 405.05 259.1 M37.6 49.45 L76.3 49.45 76.3 71.45 33.6 71.45 37.6 49.45 33.6 71.45 76.3 71.45 76.3 123.2 76.3 187.15 76.3 247.5 76.3 269.85 74.25 269.85 -2.75 269.85 12.4 187.15 -11.35 187.15 12.4 187.15 -2.75 269.85 -11.35 269.85 -11.35 187.15 -11.35 123.2 -11.35 71.45 33.6 71.45 24.1 123.2 -11.35 123.2 24.1 123.2 33.6 71.45 -11.35 71.45 -11.35 49.45 37.6 49.45 M76.3 187.15 L12.4 187.15 24.1 123.2 76.3 123.2 24.1 123.2 12.4 187.15 76.3 187.15 M76.3 247.5 L74.25 269.85 76.3 247.5" fill="url(#gradient0)" fill-rule="evenodd" stroke="none"/>
    <path d="M405.05 71.45 L410.25 71.45 M356.75 49.45 L361.8 71.45 405.05 71.45 M405.05 123.2 L410.25 123.2 M405.05 123.2 L373.7 123.2 388.45 187.15 405.05 187.15 410.75 187.15 M311.6 123.2 L373.7 123.2 361.8 71.45 311.6 71.45 M311.6 133.3 L317.55 187.15 388.45 187.15 405.05 259.1 409.2 277.25 M326.8 269.85 L327.5 276.35 M311.6 187.15 L317.55 187.15 326.8 269.85 M37.6 49.45 L33.6 71.45 76.3 71.45 M74.25 269.85 L73.8 274.0 M76.3 123.2 L24.1 123.2 12.4 187.15 76.3 187.15 M-11.35 123.2 L24.1 123.2 33.6 71.45 -11.35 71.45 -15.4 71.45 M-11.35 187.15 L12.4 187.15 -2.75 269.85 -3.45 273.5 M74.25 269.85 L76.3 247.5 M-11.35 123.2 L-18.4 123.2 M-11.35 187.15 L-18.9 187.15" fill="none" stroke="#503d30" stroke-linecap="round" stroke-linejoin="round" stroke-width="1.0"/>
    <path d="M367.9 95.65 L367.7 95.5 367.4 95.7 M413.8 93.35 L393.85 70.5 367.7 95.5 333.55 70.95 314.55 88.85 M411.8 52.75 L391.85 71.65 356.45 51.35 332.4 70.45 314.55 58.45 M416.25 186.7 L381.4 154.75 354.5 186.7 M404.85 124.15 L380.9 153.55 343.5 122.75 M368.45 97.1 L344.5 122.3 M401.85 121.85 L368.45 96.6 M431.1 262.85 L398.6 229.65 372.45 273.05 M416.8 187.2 L398.1 229.5 354.7 187.4 327.55 222.7 M27.8 95.45 L63.35 70.6 37.0 50.75 -2.4 70.0 27.8 95.45 M79.3 159.1 L46.5 187.2 46.75 187.45 M-23.3 183.9 L17.75 155.25 46.5 187.2 M56.45 122.3 L17.6 154.05 M57.45 121.35 L27.55 96.6 M79.3 104.5 L57.75 122.15 79.3 147.1 M79.3 60.3 L63.45 70.0 M79.3 85.65 L63.45 71.4 M33.55 273.05 L4.55 229.95 3.6 230.1 M62.35 243.95 L36.0 271.2 M62.35 210.8 L46.15 187.85 3.6 229.85 -22.75 184.4 M343.0 124.15 L314.55 102.4 M342.0 124.15 L314.55 152.55 M353.95 186.25 L314.55 155.45 M363.95 272.15 L327.55 236.4 M-19.8 82.6 L-2.4 70.0 M-16.3 54.6 L-3.35 70.0 M-27.25 258.15 L3.1 230.1 M16.55 153.55 L-13.25 122.35 27.8 95.45" fill="none" stroke="#564234" stroke-linecap="round" stroke-linejoin="round" stroke-width="1.0"/>
    <path d="M345.75 273.5 L336.65 273.5 335.25 261.85 320.8 261.85 335.25 261.85 336.65 273.5 43.95 273.5 Q43.8 268.5 45.1 260.3 48.3 239.8 52.45 217.75 56.6 195.7 58.25 173.6 59.95 151.35 63.1 129.15 66.2 107.2 66.6 85.15 66.9 65.9 72.75 47.6 L79.75 47.6 308.95 47.6 315.4 47.6 345.75 273.5 M303.85 122.3 L302.65 112.5 316.9 112.5 315.55 101.3 301.35 101.3 300.0 90.1 314.2 90.1 313.0 80.75 298.85 80.75 297.6 70.0 311.75 70.0 310.6 61.15 296.5 61.15 295.6 53.2 309.65 53.2 308.95 47.6 309.65 53.2 295.6 53.2 296.5 61.15 310.6 61.15 311.75 70.0 297.6 70.0 298.85 80.75 313.0 80.75 314.2 90.1 300.0 90.1 301.35 101.3 315.55 101.3 316.9 112.5 302.65 112.5 303.85 122.3 M320.4 261.85 L318.95 249.7 320.4 261.85 M56.35 269.0 L57.1 261.85 74.3 261.85 75.35 249.7 58.35 249.7 59.55 238.5 76.35 238.5 77.15 229.2 60.55 229.2 61.75 217.95 78.2 217.95 79.1 207.25 62.9 207.25 64.25 194.65 80.2 194.65 81.25 182.5 65.5 182.5 66.8 170.35 82.35 170.35 83.35 158.7 68.05 158.7 69.35 146.1 84.5 146.1 85.55 133.95 70.65 133.95 71.9 122.3 86.55 122.3 87.4 112.5 72.9 112.5 74.05 101.3 88.45 101.3 89.4 90.1 75.25 90.1 76.25 80.75 90.25 80.75 91.2 70.0 77.4 70.0 78.35 61.15 91.95 61.15 92.65 53.2 79.15 53.2 79.75 47.6 79.15 53.2 92.65 53.2 91.95 61.15 78.35 61.15 77.4 70.0 91.2 70.0 90.25 80.75 76.25 80.75 75.25 90.1 89.4 90.1 88.45 101.3 74.05 101.3 72.9 112.5 87.4 112.5 86.55 122.3 71.9 122.3 70.65 133.95 85.55 133.95 84.5 146.1 69.35 146.1 68.05 158.7 83.35 158.7 82.35 170.35 66.8 170.35 65.5 182.5 81.25 182.5 80.2 194.65 64.25 194.65 62.9 207.25 79.1 207.25 78.2 217.95 61.75 217.95 60.55 229.2 77.15 229.2 76.35 238.5 59.55 238.5 58.35 249.7 75.35 249.7 74.3 261.85 57.1 261.85 56.35 269.0 M319.25 249.7 L333.75 249.7 332.4 238.5 317.6 238.5 316.5 229.2 331.2 229.2 329.85 217.95 315.15 217.95 313.95 207.25 328.45 207.25 326.95 194.65 312.45 194.65 311.0 182.5 325.45 182.5 324.0 170.35 309.55 170.35 308.15 158.7 322.55 158.7 321.05 146.1 306.65 146.1 305.2 133.95 319.55 133.95 318.2 122.3 304.25 122.3 318.2 122.3 319.55 133.95 305.2 133.95 306.65 146.1 321.05 146.1 322.55 158.7 308.15 158.7 309.55 170.35 324.0 170.35 325.45 182.5 311.0 182.5 312.45 194.65 326.95 194.65 328.45 207.25 313.95 207.25 315.15 217.95 329.85 217.95 331.2 229.2 316.5 229.2 317.6 238.5 332.4 238.5 333.75 249.7 319.25 249.7" fill="url(#gradient1)" fill-rule="evenodd" stroke="none"/>
    <path d="M345.75 273.5 L315.4 47.6 M43.95 273.5 Q43.8 268.5 45.1 260.3 48.3 239.8 52.45 217.75 56.6 195.7 58.25 173.6 59.95 151.35 63.1 129.15 66.2 107.2 66.6 85.15 66.9 65.9 72.75 47.6" fill="none" stroke="#350000" stroke-linecap="round" stroke-linejoin="round" stroke-width="1.0"/>
    <path d="M308.95 47.6 L309.65 53.2 295.6 53.2 296.5 61.15 310.6 61.15 311.75 70.0 297.6 70.0 298.85 80.75 313.0 80.75 314.2 90.1 300.0 90.1 301.35 101.3 315.55 101.3 316.9 112.5 302.65 112.5 303.85 122.3 M320.8 261.85 L335.25 261.85 336.65 273.5 M304.25 122.3 L318.2 122.3 319.55 133.95 305.2 133.95 306.65 146.1 321.05 146.1 322.55 158.7 308.15 158.7 309.55 170.35 324.0 170.35 325.45 182.5 311.0 182.5 312.45 194.65 326.95 194.65 328.45 207.25 313.95 207.25 315.15 217.95 329.85 217.95 331.2 229.2 316.5 229.2 317.6 238.5 332.4 238.5 333.75 249.7 319.25 249.7 M79.75 47.6 L79.15 53.2 92.65 53.2 91.95 61.15 78.35 61.15 77.4 70.0 91.2 70.0 90.25 80.75 76.25 80.75 75.25 90.1 89.4 90.1 88.45 101.3 74.05 101.3 72.9 112.5 87.4 112.5 86.55 122.3 71.9 122.3 70.65 133.95 85.55 133.95 84.5 146.1 69.35 146.1 68.05 158.7 83.35 158.7 82.35 170.35 66.8 170.35 65.5 182.5 81.25 182.5 80.2 194.65 64.25 194.65 62.9 207.25 79.1 207.25 78.2 217.95 61.75 217.95 60.55 229.2 77.15 229.2 76.35 238.5 59.55 238.5 58.35 249.7 75.35 249.7 74.3 261.85 57.1 261.85 56.35 269.0 M318.95 249.7 L320.4 261.85" fill="none" stroke="#b19033" stroke-linecap="round" stroke-linejoin="round" stroke-width="1.0"/>
    <path d="M405.15 32.9 Q396.0 31.45 386.85 33.05 383.25 33.7 381.05 36.5 L380.45 35.7 380.9 32.75 380.65 32.3 Q378.85 29.5 375.35 29.4 378.85 29.5 380.65 32.3 L380.9 32.75 380.45 35.7 381.05 36.5 Q383.25 33.7 386.85 33.05 396.0 31.45 405.15 32.9 L405.15 49.25 392.35 49.8 385.35 49.55 381.9 49.3 379.9 49.3 378.35 45.75 374.15 49.1 352.5 49.2 350.9 47.95 352.0 47.6 Q350.75 44.4 353.7 42.15 L352.95 41.1 353.7 42.15 Q350.75 44.4 352.0 47.6 L350.9 47.95 352.5 49.2 374.15 49.1 378.35 45.75 379.9 49.3 381.9 49.3 385.35 49.55 392.35 49.8 405.15 49.25 405.15 50.0 285.8 50.0 281.9 50.0 102.1 50.0 98.55 50.0 79.65 50.0 69.25 50.0 -11.25 50.0 -11.25 16.25 -11.25 0.0 405.15 0.0 405.15 32.9 M381.35 10.3 L382.75 8.35 Q383.6 7.05 383.25 5.55 382.7 2.9 380.85 0.95 382.7 2.9 383.25 5.55 383.6 7.05 382.75 8.35 L381.35 10.3 M395.35 12.6 L396.45 13.55 396.4 13.85 Q394.6 15.95 395.8 18.2 394.6 15.95 396.4 13.85 L396.45 13.55 395.35 12.6 M384.35 10.75 L383.4 7.95 384.35 10.75 M377.9 42.95 L378.35 42.5 381.05 36.5 378.35 42.5 377.9 42.95 M379.4 34.55 L380.45 35.7 380.4 36.9 380.45 35.7 379.4 34.55 M19.1 15.9 L0.15 16.1 -11.25 16.25 0.15 16.1 19.1 15.9 M379.9 49.3 L375.9 49.0 379.9 49.3 M363.4 28.5 L356.4 28.0 340.25 26.75 344.1 22.8 343.3 21.85 Q342.7 21.1 343.05 20.2 343.85 18.15 344.05 15.9 344.25 15.25 344.7 14.75 L348.85 10.45 355.65 10.45 Q362.55 10.1 369.4 10.3 L387.85 11.25 399.8 12.15 387.85 11.25 369.4 10.3 Q362.55 10.1 355.65 10.45 L348.85 10.45 344.7 14.75 Q344.25 15.25 344.05 15.9 343.85 18.15 343.05 20.2 342.7 21.1 343.3 21.85 L344.1 22.8 345.5 25.4 345.0 26.15 345.5 25.4 344.1 22.8 340.25 26.75 356.4 28.0 363.4 28.5 M350.9 47.95 Q343.35 50.05 335.5 49.25 L327.2 48.85 324.55 48.55 Q308.65 48.55 292.75 49.45 L286.75 49.8 285.8 50.0 286.75 49.8 292.75 49.45 Q308.65 48.55 324.55 48.55 L327.2 48.85 335.5 49.25 Q343.35 50.05 350.9 47.95 M343.5 14.95 L344.05 15.9 343.5 14.95 M344.0 10.3 L348.85 10.45 349.95 9.35 348.85 10.45 344.0 10.3 M329.5 26.15 L340.25 26.75 329.5 26.15 M172.55 18.7 L140.65 18.4 134.75 18.4 134.65 18.4 121.2 17.95 111.65 17.8 Q107.85 17.45 104.3 16.35 107.85 17.45 111.65 17.8 L121.2 17.95 134.65 18.4 134.75 18.4 Q136.7 18.35 138.1 16.4 139.45 14.35 139.45 11.5 L140.15 4.7 139.45 11.5 Q139.45 14.35 138.1 16.4 136.7 18.35 134.75 18.4 L140.65 18.4 139.45 11.5 140.65 18.4 172.55 18.7 M12.55 30.35 L29.4 30.35 28.55 30.8 29.4 30.35 12.55 30.35 M90.85 31.3 L29.4 30.35 30.45 29.45 Q31.35 28.75 31.45 27.85 L32.0 20.1 31.45 27.85 Q31.35 28.75 30.45 29.45 L29.4 30.35 90.85 31.3 M0.15 16.1 Q-0.9 16.35 -1.65 17.45 -2.4 18.55 -2.4 20.1 -2.4 18.55 -1.65 17.45 -0.9 16.35 0.15 16.1 M8.1 15.4 Q9.6 15.65 10.6 15.0 L11.55 14.05 Q13.15 11.1 13.1 7.5 13.15 11.1 11.55 14.05 L10.6 15.0 Q9.6 15.65 8.1 15.4 M13.1 10.75 L15.1 10.3 13.1 10.75 M65.9 31.75 L67.4 32.05 Q68.2 32.8 68.3 33.5 68.9 38.25 70.4 42.95 68.9 38.25 68.3 33.5 68.2 32.8 67.4 32.05 L65.9 31.75 M69.4 33.15 Q69.4 32.75 69.85 32.5 70.3 32.2 70.9 32.2 70.3 32.2 69.85 32.5 69.4 32.75 69.4 33.15 M-10.8 49.5 L4.0 49.0 8.35 49.45 9.3 49.3 17.65 49.15 35.35 49.05 42.5 49.1 51.5 48.8 69.25 50.0 51.5 48.8 42.5 49.1 35.35 49.05 17.65 49.15 9.3 49.3 8.35 49.45 4.0 49.0 -10.8 49.5 M139.2 48.55 L102.1 50.0 139.2 48.55 M98.55 50.0 Q92.45 48.6 85.9 49.35 L79.65 50.0 85.9 49.35 Q92.45 48.6 98.55 50.0 M148.45 44.45 L148.65 39.7 146.3 36.55 142.15 35.95 146.3 36.55 164.95 37.75 Q168.45 37.05 170.45 34.45 L171.85 32.1 Q172.1 31.65 172.5 31.35 L172.1 30.35 172.5 31.35 Q172.1 31.65 171.85 32.1 L170.45 34.45 Q168.45 37.05 164.95 37.75 L146.3 36.55 148.65 39.7 149.6 37.8 148.65 39.7 148.45 44.45 M258.8 25.75 L247.3 25.2 258.8 25.75 Q259.7 25.25 260.55 24.7 L260.9 23.85 Q260.9 24.4 261.75 24.8 L263.75 25.2 261.75 24.8 Q260.9 24.4 260.9 23.85 L260.55 24.7 Q259.7 25.25 258.8 25.75 266.5 26.25 274.2 25.95 283.3 25.45 292.15 25.9 L311.1 26.6 292.15 25.9 Q283.3 25.45 274.2 25.95 266.5 26.25 258.8 25.75 M196.1 36.45 L171.05 37.35 196.1 36.45 197.5 36.4 196.1 36.45 199.65 38.3 200.5 38.95 Q201.9 40.6 201.7 42.5 201.45 44.95 202.95 46.7 201.45 44.95 201.7 42.5 201.9 40.6 200.5 38.95 L199.65 38.3 196.1 36.45 M174.55 18.2 L203.45 18.7 Q205.2 17.65 206.1 15.75 206.5 14.8 206.3 13.95 205.15 8.9 205.95 3.75 205.15 8.9 206.3 13.95 206.5 14.8 206.1 15.75 205.2 17.65 203.45 18.7 L208.45 18.7 206.85 17.35 206.45 18.2 206.85 17.35 208.45 18.7 203.45 18.7 174.55 18.2 M201.45 39.2 L202.95 36.4 201.45 39.2 M164.95 37.75 L171.05 37.8 164.95 37.75 M170.05 35.5 L170.8 35.95 171.05 36.9 172.05 35.6 Q173.35 33.6 172.5 31.35 173.35 33.6 172.05 35.6 L171.05 36.9 170.8 35.95 170.05 35.5 M165.55 19.15 L166.15 19.6 Q169.4 19.85 171.35 22.1 L174.55 19.15 171.35 22.1 172.05 23.3 Q173.75 26.85 173.05 30.8 173.75 26.85 172.05 23.3 L171.35 22.1 Q169.4 19.85 166.15 19.6 L165.55 19.15 M231.35 25.8 L230.85 24.3 231.35 25.8 237.35 26.6 231.35 25.8 227.9 25.9 221.4 25.7 227.9 25.9 231.35 25.8 M139.7 49.0 L150.6 49.5 161.3 48.75 164.6 48.7 170.9 49.1 Q179.05 48.15 187.05 48.75 L193.0 48.6 195.05 48.95 202.3 49.7 216.9 48.95 217.05 45.2 215.9 43.4 217.05 45.2 216.9 48.95 202.3 49.7 195.05 48.95 193.0 48.6 187.05 48.75 Q179.05 48.15 170.9 49.1 L164.6 48.7 161.3 48.75 150.6 49.5 139.7 49.0 M217.4 48.55 L218.2 48.0 Q218.85 48.2 219.5 48.5 221.1 49.4 222.6 48.7 L223.4 47.15 222.6 48.7 Q221.1 49.4 219.5 48.5 218.85 48.2 218.2 48.0 L217.4 48.55 M208.45 18.7 L212.45 18.7 208.45 18.7 M222.9 49.5 L233.85 49.7 244.45 49.25 248.75 49.5 Q258.15 49.9 267.45 49.5 L271.3 49.1 279.25 49.5 271.3 49.1 267.45 49.5 Q258.15 49.9 248.75 49.5 L244.45 49.25 233.85 49.7 222.9 49.5 M279.7 49.5 L281.9 50.0 279.7 49.5 M258.8 4.7 L259.15 9.6 258.8 9.8 259.15 9.6 258.8 4.7 M257.75 8.4 L255.7 7.35 Q252.2 5.85 248.3 5.6 252.2 5.85 255.7 7.35 L257.75 8.4 M261.25 22.9 L260.9 23.85 Q260.55 22.9 260.0 22.1 258.9 20.6 259.6 19.1 L260.1 17.7 Q260.35 17.15 260.0 16.65 258.0 13.2 259.15 9.6 L267.2 4.95 259.15 9.6 Q258.0 13.2 260.0 16.65 260.35 17.15 260.1 17.7 L259.6 19.1 Q258.9 20.6 260.0 22.1 260.55 22.9 260.9 23.85 L261.25 22.9 M299.8 29.1 Q299.65 33.1 300.2 36.85 300.45 38.7 299.15 40.15 300.45 38.7 300.2 36.85 299.65 33.1 299.8 29.1 L297.65 26.6 299.8 29.1 300.3 28.1 299.8 29.1 M318.55 0.5 L319.6 0.6 Q320.0 2.2 319.75 4.25 319.35 7.3 316.6 9.35 319.35 7.3 319.75 4.25 320.0 2.2 319.6 0.6 L318.55 0.5" fill="url(#gradient2)" fill-rule="evenodd" stroke="none"/>
    <path d="M383.4 7.95 L384.35 10.75 M395.8 18.2 Q394.6 15.95 396.4 13.85 L396.45 13.55 395.35 12.6 M380.85 0.95 Q382.7 2.9 383.25 5.55 383.6 7.05 382.75 8.35 L381.35 10.3 M375.35 29.4 Q378.85 29.5 380.65 32.3 L380.9 32.75 380.45 35.7 381.05 36.5 Q383.25 33.7 386.85 33.05 396.0 31.45 405.15 32.9 L406.3 32.7 M-11.25 16.25 L0.15 16.1 19.1 15.9 M380.4 36.9 L380.45 35.7 379.4 34.55 M381.05 36.5 L378.35 42.5 377.9 42.95 M352.95 41.1 L353.7 42.15 Q350.75 44.4 352.0 47.6 L350.9 47.95 352.5 49.2 374.15 49.1 378.35 45.75 379.9 49.3 381.9 49.3 385.35 49.55 392.35 49.8 405.15 49.25 407.8 49.95 M399.8 12.15 L387.85 11.25 369.4 10.3 Q362.55 10.1 355.65 10.45 L348.85 10.45 344.7 14.75 Q344.25 15.25 344.05 15.9 343.85 18.15 343.05 20.2 342.7 21.1 343.3 21.85 L344.1 22.8 345.5 25.4 345.0 26.15 M349.95 9.35 L348.85 10.45 344.0 10.3 M344.05 15.9 L343.5 14.95 M285.8 50.0 L286.75 49.8 292.75 49.45 Q308.65 48.55 324.55 48.55 L327.2 48.85 335.5 49.25 Q343.35 50.05 350.9 47.95 M344.1 22.8 L340.25 26.75 356.4 28.0 363.4 28.5 M375.9 49.0 L379.9 49.3 M285.8 50.0 L281.9 50.0 279.7 49.5 M102.1 50.0 L98.55 50.0 M79.65 50.0 L69.25 50.0 51.5 48.8 42.5 49.1 35.35 49.05 17.65 49.15 9.3 49.3 8.35 49.45 4.0 49.0 -10.8 49.5 M-11.25 16.25 L-12.85 16.35 M316.6 9.35 Q319.35 7.3 319.75 4.25 320.0 2.2 319.6 0.6 L318.55 0.5 M263.75 25.2 L261.75 24.8 Q260.9 24.4 260.9 23.85 L260.55 24.7 Q259.7 25.25 258.8 25.75 266.5 26.25 274.2 25.95 283.3 25.45 292.15 25.9 L311.1 26.6 M297.65 26.6 L299.8 29.1 300.3 28.1 M299.15 40.15 Q300.45 38.7 300.2 36.85 299.65 33.1 299.8 29.1 M267.2 4.95 L259.15 9.6 Q258.0 13.2 260.0 16.65 260.35 17.15 260.1 17.7 L259.6 19.1 Q258.9 20.6 260.0 22.1 260.55 22.9 260.9 23.85 L261.25 22.9 M248.3 5.6 Q252.2 5.85 255.7 7.35 L257.75 8.4 M258.8 9.8 L259.15 9.6 258.8 4.7 M279.25 49.5 L271.3 49.1 267.45 49.5 Q258.15 49.9 248.75 49.5 L244.45 49.25 233.85 49.7 222.9 49.5 M205.95 3.75 Q205.15 8.9 206.3 13.95 206.5 14.8 206.1 15.75 205.2 17.65 203.45 18.7 L208.45 18.7 206.85 17.35 206.45 18.2 M212.45 18.7 L208.45 18.7 M223.4 47.15 L222.6 48.7 Q221.1 49.4 219.5 48.5 218.85 48.2 218.2 48.0 L217.4 48.55 M215.9 43.4 L217.05 45.2 216.9 48.95 202.3 49.7 195.05 48.95 193.0 48.6 187.05 48.75 Q179.05 48.15 170.9 49.1 L164.6 48.7 161.3 48.75 150.6 49.5 139.7 49.0 M237.35 26.6 L231.35 25.8 227.9 25.9 221.4 25.7 M230.85 24.3 L231.35 25.8 M174.55 19.15 L171.35 22.1 172.05 23.3 Q173.75 26.85 173.05 30.8 M171.35 22.1 Q169.4 19.85 166.15 19.6 L165.55 19.15 M142.15 35.95 L146.3 36.55 164.95 37.75 Q168.45 37.05 170.45 34.45 L171.85 32.1 Q172.1 31.65 172.5 31.35 L172.1 30.35 M172.5 31.35 Q173.35 33.6 172.05 35.6 L171.05 36.9 170.8 35.95 170.05 35.5 M171.05 37.8 L164.95 37.75 M202.95 36.4 L201.45 39.2 M197.5 36.4 L196.1 36.45 199.65 38.3 200.5 38.95 Q201.9 40.6 201.7 42.5 201.45 44.95 202.95 46.7 M203.45 18.7 L174.55 18.2 M171.05 37.35 L196.1 36.45 M247.3 25.2 L258.8 25.75 M104.3 16.35 Q107.85 17.45 111.65 17.8 L121.2 17.95 134.65 18.4 134.75 18.4 Q136.7 18.35 138.1 16.4 139.45 14.35 139.45 11.5 L140.15 4.7 M146.3 36.55 L148.65 39.7 149.6 37.8 M148.65 39.7 L148.45 44.45 M134.75 18.4 L140.65 18.4 139.45 11.5 M79.65 50.0 L85.9 49.35 Q92.45 48.6 98.55 50.0 M102.1 50.0 L139.2 48.55 M70.9 32.2 Q70.3 32.2 69.85 32.5 69.4 32.75 69.4 33.15 M70.4 42.95 Q68.9 38.25 68.3 33.5 68.2 32.8 67.4 32.05 L65.9 31.75 M15.1 10.3 L13.1 10.75 M13.1 7.5 Q13.15 11.1 11.55 14.05 L10.6 15.0 Q9.6 15.65 8.1 15.4 M-2.4 20.1 Q-2.4 18.55 -1.65 17.45 -0.9 16.35 0.15 16.1 M32.0 20.1 L31.45 27.85 Q31.35 28.75 30.45 29.45 L29.4 30.35 90.85 31.3 M28.55 30.8 L29.4 30.35 12.55 30.35 M140.65 18.4 L172.55 18.7 M340.25 26.75 L329.5 26.15" fill="none" stroke="#594f48" stroke-linecap="round" stroke-linejoin="round" stroke-width="1.0"/>
    <path d="M285.65 23.3 L282.1 41.6 277.65 23.3 285.65 23.3" fill="#362b1a" fill-rule="evenodd" stroke="none"/>
    <path d="M285.65 23.3 L282.1 41.6 277.65 23.3 285.65 23.3 Z" fill="none" stroke="#20170f" stroke-linecap="round" stroke-linejoin="round" stroke-width="1.0"/>
    <path d="M107.4 23.3 L103.85 41.6 99.4 23.3 107.4 23.3" fill="#362b1a" fill-rule="evenodd" stroke="none"/>
    <path d="M107.4 23.3 L103.85 41.6 99.4 23.3 107.4 23.3 Z" fill="none" stroke="#20170f" stroke-linecap="round" stroke-linejoin="round" stroke-width="1.0"/>
    <path d="M29.3 57.1 L29.5 57.1 28.5 75.9 4.25 75.9 4.25 71.6 28.5 71.6 29.3 57.1" fill="#766963" fill-rule="evenodd" stroke="none"/>
    <path d="M4.25 71.6 L5.25 52.8 29.5 52.8 29.3 57.1 28.5 71.6 4.25 71.6" fill="#84766d" fill-rule="evenodd" stroke="none"/>
    <path d="M29.3 57.1 L29.5 57.1 28.5 75.9 4.25 75.9 4.25 71.6 5.25 52.8 29.5 52.8 29.3 57.1 28.5 71.6 4.25 71.6" fill="none" stroke="#594f48" stroke-linecap="round" stroke-linejoin="round" stroke-width="1.0"/>
    <path d="M25.55 -12.05 L25.55 63.1 Q16.55 70.4 8.3 63.1 L8.3 -12.05 25.55 -12.05" fill="url(#gradient3)" fill-rule="evenodd" stroke="none"/>
    <path d="M25.55 -12.05 L25.55 63.1 Q16.55 70.4 8.3 63.1 L8.3 -12.05 25.55 -12.05 Z" fill="none" stroke="#594f48" stroke-linecap="round" stroke-linejoin="round" stroke-width="1.0"/>
    <path d="M360.35 57.8 L360.15 57.8 361.15 76.6 385.4 76.6 385.4 72.3 361.15 72.3 360.35 57.8" fill="#766963" fill-rule="evenodd" stroke="none"/>
    <path d="M385.4 72.3 L384.4 53.5 360.15 53.5 360.35 57.8 361.15 72.3 385.4 72.3" fill="#84766d" fill-rule="evenodd" stroke="none"/>
    <path d="M360.35 57.8 L360.15 57.8 361.15 76.6 385.4 76.6 385.4 72.3 384.4 53.5 360.15 53.5 360.35 57.8 361.15 72.3 385.4 72.3" fill="none" stroke="#594f48" stroke-linecap="round" stroke-linejoin="round" stroke-width="1.0"/>
    <path d="M364.1 -11.35 L364.1 63.8 Q373.1 71.1 381.35 63.8 L381.35 -11.35 364.1 -11.35" fill="url(#gradient4)" fill-rule="evenodd" stroke="none"/>
    <path d="M364.1 -11.35 L364.1 63.8 Q373.1 71.1 381.35 63.8 L381.35 -11.35 364.1 -11.35 Z" fill="none" stroke="#594f48" stroke-linecap="round" stroke-linejoin="round" stroke-width="1.0"/>
    <path d="M207.1 8.55 Q211.25 9.0 214.5 11.8 L215.15 12.6 Q216.3 15.0 216.25 17.8 216.15 21.35 215.2 24.75 L213.0 33.25 Q211.65 39.1 211.75 45.2 211.9 54.4 212.35 63.65 213.2 60.7 215.75 59.55 218.1 58.6 219.65 61.0 221.5 63.8 220.25 67.15 L219.35 68.6 Q216.9 71.0 216.65 74.65 L216.5 81.0 210.75 81.0 210.7 78.0 182.25 78.0 182.2 81.0 176.45 81.0 176.35 74.65 Q176.25 71.95 174.7 70.05 L173.95 69.1 Q171.5 66.1 172.65 62.25 173.0 61.15 173.7 60.3 174.5 59.35 175.6 59.3 179.3 59.75 180.6 63.65 L181.1 51.0 Q181.35 45.05 180.85 39.15 180.3 32.6 178.2 26.5 176.1 20.45 177.25 14.2 177.55 12.4 178.85 11.4 181.05 9.6 183.8 9.15 L187.95 9.05 Q189.7 9.25 191.35 10.2 L193.95 11.65 Q195.25 12.25 196.45 11.45 L197.35 11.75 198.55 11.8 Q199.25 11.6 199.8 11.2 202.2 9.5 205.0 8.75 L207.1 8.55 M178.4 22.7 L178.4 19.95 Q178.35 15.6 181.0 12.5 182.3 10.95 184.15 10.65 L186.15 10.3 Q188.45 9.85 190.55 11.0 L191.55 11.45 197.3 12.6 197.55 12.9 198.6 13.0 199.55 12.55 Q203.45 10.0 207.9 10.35 210.15 10.6 211.95 12.25 L212.9 13.25 Q215.0 15.55 214.75 18.95 215.0 15.55 212.9 13.25 L211.95 12.25 Q210.15 10.6 207.9 10.35 203.45 10.0 199.55 12.55 L198.6 13.0 197.55 12.9 197.3 12.6 191.55 11.45 190.55 11.0 Q188.45 9.85 186.15 10.3 L184.15 10.65 Q182.3 10.95 181.0 12.5 178.35 15.6 178.4 19.95 L178.4 22.7 M204.65 28.5 Q206.9 29.75 209.2 28.55 211.9 27.2 212.5 24.0 213.2 20.3 211.9 16.7 211.05 14.4 209.15 13.15 L207.5 12.45 Q204.35 11.6 201.75 13.55 L200.3 14.4 Q196.85 15.85 193.15 14.7 L192.0 14.05 Q190.1 12.65 187.95 12.2 L186.25 12.3 Q183.2 12.65 181.65 15.7 179.65 19.6 180.5 23.95 181.05 26.65 183.05 28.0 185.6 29.85 188.25 28.5 190.7 25.9 193.6 24.3 196.5 22.65 199.4 24.2 202.3 25.85 204.65 28.5 205.45 29.95 205.75 31.6 205.95 33.05 205.65 34.5 204.9 37.85 202.7 40.4 201.15 42.25 201.65 44.6 202.45 45.6 203.65 45.3 L204.5 45.1 205.05 43.5 203.85 43.05 203.45 43.6 203.85 43.05 205.05 43.5 204.5 45.1 203.65 45.3 Q202.45 45.6 201.65 44.6 201.15 42.25 202.7 40.4 204.9 37.85 205.65 34.5 205.95 33.05 205.75 31.6 205.45 29.95 204.65 28.5 M210.85 58.45 L210.05 46.95 Q210.05 43.75 210.3 40.55 210.7 34.0 212.7 27.8 L213.25 26.05 214.75 20.65 213.25 26.05 212.7 27.8 Q210.7 34.0 210.3 40.55 210.05 43.75 210.05 46.95 L210.85 58.45 M196.45 26.75 Q198.95 26.75 200.75 28.4 202.5 30.0 202.5 32.35 202.5 34.65 200.75 36.3 198.95 37.9 196.45 37.9 193.95 37.9 192.2 36.3 190.45 34.65 190.45 32.35 190.45 30.0 192.2 28.4 193.95 26.75 196.45 26.75 193.95 26.75 192.2 28.4 190.45 30.0 190.45 32.35 190.45 34.65 192.2 36.3 193.95 37.9 196.45 37.9 198.95 37.9 200.75 36.3 202.5 34.65 202.5 32.35 202.5 30.0 200.75 28.4 198.95 26.75 196.45 26.75 M182.0 58.1 Q182.65 53.45 182.8 48.9 L182.8 47.25 182.55 39.7 182.25 32.8 Q182.1 30.6 181.15 28.75 L179.35 25.35 181.15 28.75 Q182.1 30.6 182.25 32.8 L182.55 39.7 182.8 47.25 182.8 48.9 Q182.65 53.45 182.0 58.1 M189.5 43.6 L189.05 43.05 187.9 43.5 188.45 45.1 Q190.1 46.05 191.05 44.4 191.4 43.9 191.35 43.2 L190.95 41.95 188.55 37.75 Q187.05 35.4 187.25 32.55 187.35 30.3 188.25 28.5 187.35 30.3 187.25 32.55 187.05 35.4 188.55 37.75 L190.95 41.95 191.35 43.2 Q191.4 43.9 191.05 44.4 190.1 46.05 188.45 45.1 L187.9 43.5 189.05 43.05 189.5 43.6 M195.35 57.25 L191.85 56.8 190.65 56.95 Q187.4 57.75 184.35 59.45 181.5 61.1 180.9 64.7 L181.5 68.3 Q182.1 69.9 183.45 70.5 185.5 71.4 187.8 71.45 L199.4 71.6 208.5 71.05 209.25 70.75 Q210.75 70.05 211.45 68.3 L212.05 64.7 Q211.8 62.85 210.75 61.35 L209.7 60.35 Q206.55 58.15 202.95 57.0 202.35 56.85 201.75 57.0 L195.35 57.25 M180.6 63.65 L180.9 64.7 180.6 63.65 M180.55 78.35 Q180.8 77.25 180.45 75.95 L180.35 75.3 179.6 67.9 179.15 66.35 Q177.9 63.95 176.05 62.2 L175.4 62.3 Q174.4 62.6 174.25 63.75 174.1 64.85 174.3 65.85 174.65 67.4 176.05 67.85 L176.5 66.25 176.05 65.9 176.5 66.25 176.05 67.85 Q174.65 67.4 174.3 65.85 174.1 64.85 174.25 63.75 174.4 62.6 175.4 62.3 L176.05 62.2 Q177.9 63.95 179.15 66.35 L179.6 67.9 180.35 75.3 180.45 75.95 Q180.8 77.25 180.55 78.35 M212.05 64.7 L212.35 63.65 212.05 64.7 M181.5 68.3 L182.25 78.0 181.5 68.3 M212.65 77.65 L212.85 77.0 Q212.95 73.45 213.35 69.9 213.45 68.85 213.7 67.8 L214.7 64.15 Q215.4 61.85 217.4 62.05 219.0 63.15 218.65 65.2 218.35 67.2 216.7 68.0 L216.2 67.45 216.2 65.5 216.2 67.45 216.7 68.0 Q218.35 67.2 218.65 65.2 219.0 63.15 217.4 62.05 215.4 61.85 214.7 64.15 L213.7 67.8 Q213.45 68.85 213.35 69.9 212.95 73.45 212.85 77.0 L212.65 77.65 M210.7 78.0 L211.45 68.3 210.7 78.0 M183.5 72.95 L208.5 72.95 183.5 72.95" fill="#d69500" fill-rule="evenodd" stroke="none"/>
    <path d="M188.25 28.5 Q185.6 29.85 183.05 28.0 181.05 26.65 180.5 23.95 179.65 19.6 181.65 15.7 183.2 12.65 186.25 12.3 L187.95 12.2 Q190.1 12.65 192.0 14.05 L193.15 14.7 Q196.85 15.85 200.3 14.4 L201.75 13.55 Q204.35 11.6 207.5 12.45 L209.15 13.15 Q211.05 14.4 211.9 16.7 213.2 20.3 212.5 24.0 211.9 27.2 209.2 28.55 206.9 29.75 204.65 28.5 202.3 25.85 199.4 24.2 196.5 22.65 193.6 24.3 190.7 25.9 188.25 28.5 M183.8 24.7 Q183.4 24.8 183.2 24.45 182.9 23.75 182.9 23.0 L182.85 21.85 Q182.65 17.15 186.55 15.45 188.55 14.55 190.2 16.0 191.4 17.1 193.0 17.05 L195.95 16.8 Q198.05 16.65 200.15 15.9 202.45 15.0 204.75 14.4 208.2 13.4 209.5 17.35 L209.95 18.65 Q211.0 21.85 208.8 23.65 211.0 21.85 209.95 18.65 L209.5 17.35 Q208.2 13.4 204.75 14.4 202.45 15.0 200.15 15.9 198.05 16.65 195.95 16.8 L193.0 17.05 Q191.4 17.1 190.2 16.0 188.55 14.55 186.55 15.45 182.65 17.15 182.85 21.85 L182.9 23.0 Q182.9 23.75 183.2 24.45 183.4 24.8 183.8 24.7 M195.35 57.25 L201.75 57.0 Q202.35 56.85 202.95 57.0 206.55 58.15 209.7 60.35 L210.75 61.35 Q211.8 62.85 212.05 64.7 L211.45 68.3 Q210.75 70.05 209.25 70.75 L208.5 71.05 199.4 71.6 187.8 71.45 Q185.5 71.4 183.45 70.5 182.1 69.9 181.5 68.3 L180.9 64.7 Q181.5 61.1 184.35 59.45 187.4 57.75 190.65 56.95 L191.85 56.8 195.35 57.25 M199.85 64.15 L200.15 64.3 201.95 64.15 200.15 64.3 199.85 64.15 M187.7 63.6 Q188.65 64.4 189.75 63.9 188.65 64.4 187.7 63.6 M182.6 64.15 L184.4 62.05 184.7 61.95 185.3 61.6 Q186.75 60.25 188.6 59.85 193.1 58.85 197.6 58.8 L197.85 58.5 Q202.2 58.15 206.35 60.2 208.25 61.1 208.5 63.5 208.25 61.1 206.35 60.2 202.2 58.15 197.85 58.5 L197.6 58.8 Q193.1 58.85 188.6 59.85 186.75 60.25 185.3 61.6 L184.7 61.95 184.4 62.05 182.6 64.15" fill="#770000" fill-rule="evenodd" stroke="none"/>
    <path d="M214.75 18.95 Q215.0 15.55 212.9 13.25 L211.95 12.25 Q210.15 10.6 207.9 10.35 203.45 10.0 199.55 12.55 L198.6 13.0 197.55 12.9 197.3 12.6 191.55 11.45 190.55 11.0 Q188.45 9.85 186.15 10.3 L184.15 10.65 Q182.3 10.95 181.0 12.5 178.35 15.6 178.4 19.95 L178.4 22.7 M204.65 28.5 Q205.45 29.95 205.75 31.6 205.95 33.05 205.65 34.5 204.9 37.85 202.7 40.4 201.15 42.25 201.65 44.6 202.45 45.6 203.65 45.3 L204.5 45.1 205.05 43.5 203.85 43.05 203.45 43.6 M214.75 20.65 L213.25 26.05 212.7 27.8 Q210.7 34.0 210.3 40.55 210.05 43.75 210.05 46.95 L210.85 58.45 M188.25 28.5 Q187.35 30.3 187.25 32.55 187.05 35.4 188.55 37.75 L190.95 41.95 191.35 43.2 Q191.4 43.9 191.05 44.4 190.1 46.05 188.45 45.1 L187.9 43.5 189.05 43.05 189.5 43.6 M179.35 25.35 L181.15 28.75 Q182.1 30.6 182.25 32.8 L182.55 39.7 182.8 47.25 182.8 48.9 Q182.65 53.45 182.0 58.1 M196.45 26.75 Q193.95 26.75 192.2 28.4 190.45 30.0 190.45 32.35 190.45 34.65 192.2 36.3 193.95 37.9 196.45 37.9 198.95 37.9 200.75 36.3 202.5 34.65 202.5 32.35 202.5 30.0 200.75 28.4 198.95 26.75 196.45 26.75 M176.05 65.9 L176.5 66.25 176.05 67.85 Q174.65 67.4 174.3 65.85 174.1 64.85 174.25 63.75 174.4 62.6 175.4 62.3 L176.05 62.2 Q177.9 63.95 179.15 66.35 L179.6 67.9 180.35 75.3 180.45 75.95 Q180.8 77.25 180.55 78.35 M216.2 65.5 L216.2 67.45 216.7 68.0 Q218.35 67.2 218.65 65.2 219.0 63.15 217.4 62.05 215.4 61.85 214.7 64.15 L213.7 67.8 Q213.45 68.85 213.35 69.9 212.95 73.45 212.85 77.0 L212.65 77.65 M208.5 72.95 L183.5 72.95" fill="none" stroke="#ffff99" stroke-linecap="round" stroke-linejoin="round" stroke-width="1.0"/>
    <path d="M208.8 23.65 Q211.0 21.85 209.95 18.65 L209.5 17.35 Q208.2 13.4 204.75 14.4 202.45 15.0 200.15 15.9 198.05 16.65 195.95 16.8 L193.0 17.05 Q191.4 17.1 190.2 16.0 188.55 14.55 186.55 15.45 182.65 17.15 182.85 21.85 L182.9 23.0 Q182.9 23.75 183.2 24.45 183.4 24.8 183.8 24.7 M208.5 63.5 Q208.25 61.1 206.35 60.2 202.2 58.15 197.85 58.5 L197.6 58.8 Q193.1 58.85 188.6 59.85 186.75 60.25 185.3 61.6 L184.7 61.95 184.4 62.05 182.6 64.15 M189.75 63.9 Q188.65 64.4 187.7 63.6 M201.95 64.15 L200.15 64.3 199.85 64.15" fill="none" stroke="#d50000" stroke-linecap="round" stroke-linejoin="round" stroke-width="1.0"/>
    <path d="M207.1 8.55 Q211.25 9.0 214.5 11.8 L215.15 12.6 Q216.3 15.0 216.25 17.8 216.15 21.35 215.2 24.75 L213.0 33.25 Q211.65 39.1 211.75 45.2 211.9 54.4 212.35 63.65 213.2 60.7 215.75 59.55 218.1 58.6 219.65 61.0 221.5 63.8 220.25 67.15 L219.35 68.6 Q216.9 71.0 216.65 74.65 L216.5 81.0 210.75 81.0 210.7 78.0 182.25 78.0 182.2 81.0 176.45 81.0 176.35 74.65 Q176.25 71.95 174.7 70.05 L173.95 69.1 Q171.5 66.1 172.65 62.25 173.0 61.15 173.7 60.3 174.5 59.35 175.6 59.3 179.3 59.75 180.6 63.65 L181.1 51.0 Q181.35 45.05 180.85 39.15 180.3 32.6 178.2 26.5 176.1 20.45 177.25 14.2 177.55 12.4 178.85 11.4 181.05 9.6 183.8 9.15 L187.95 9.05 Q189.7 9.25 191.35 10.2 L193.95 11.65 Q195.25 12.25 196.45 11.45 L197.35 11.75 198.55 11.8 Q199.25 11.6 199.8 11.2 202.2 9.5 205.0 8.75 L207.1 8.55 M188.25 28.5 Q185.6 29.85 183.05 28.0 181.05 26.65 180.5 23.95 179.65 19.6 181.65 15.7 183.2 12.65 186.25 12.3 L187.95 12.2 Q190.1 12.65 192.0 14.05 L193.15 14.7 Q196.85 15.85 200.3 14.4 L201.75 13.55 Q204.35 11.6 207.5 12.45 L209.15 13.15 Q211.05 14.4 211.9 16.7 213.2 20.3 212.5 24.0 211.9 27.2 209.2 28.55 206.9 29.75 204.65 28.5 202.3 25.85 199.4 24.2 196.5 22.65 193.6 24.3 190.7 25.9 188.25 28.5 M195.35 57.25 L191.85 56.8 190.65 56.95 Q187.4 57.75 184.35 59.45 181.5 61.1 180.9 64.7 L181.5 68.3 Q182.1 69.9 183.45 70.5 185.5 71.4 187.8 71.45 L199.4 71.6 208.5 71.05 209.25 70.75 Q210.75 70.05 211.45 68.3 L212.05 64.7 Q211.8 62.85 210.75 61.35 L209.7 60.35 Q206.55 58.15 202.95 57.0 202.35 56.85 201.75 57.0 L195.35 57.25 M180.9 64.7 L180.6 63.65 M182.25 78.0 L181.5 68.3 M212.35 63.65 L212.05 64.7 M211.45 68.3 L210.7 78.0" fill="none" stroke="#5a3416" stroke-linecap="round" stroke-linejoin="round" stroke-width="1.0"/>
  </g>
  <defs>
    <radialGradient cx="0" cy="0" gradientTransform="matrix(0.0043, 0.2296, -0.4886, 0.008, 193.65, 147.0)" gradientUnits="userSpaceOnUse" id="gradient0" r="819.2" spreadMethod="pad">
      <stop offset="0.0" stop-color="#755946"/>
      <stop offset="0.36470588235294116" stop-color="#5a4536"/>
      <stop offset="0.7490196078431373" stop-color="#534132"/>
      <stop offset="1.0" stop-color="#0f0b09"/>
    </radialGradient>
    <radialGradient cx="0" cy="0" gradientTransform="matrix(0.4238, 0.0, 0.0, 0.2411, 194.5, 160.55)" gradientUnits="userSpaceOnUse" id="gradient1" r="819.2" spreadMethod="pad">
      <stop offset="0.0" stop-color="#720101"/>
      <stop offset="0.5333333333333333" stop-color="#5c0000"/>
      <stop offset="1.0" stop-color="#4f0000"/>
    </radialGradient>
    <linearGradient gradientTransform="matrix(0.0, 0.029, -0.0261, 0.0, 196.95, 25.0)" gradientUnits="userSpaceOnUse" id="gradient2" spreadMethod="pad" x1="-819.2" x2="819.2">
      <stop offset="0.0" stop-color="#60544f"/>
      <stop offset="1.0" stop-color="#71645b"/>
    </linearGradient>
    <linearGradient gradientTransform="matrix(0.0105, 0.0, 0.0, 0.0488, 16.9, 27.9)" gradientUnits="userSpaceOnUse" id="gradient3" spreadMethod="pad" x1="-819.2" x2="819.2">
      <stop offset="0.0" stop-color="#594f48"/>
      <stop offset="0.5333333333333333" stop-color="#9a8a83"/>
      <stop offset="1.0" stop-color="#71645b"/>
    </linearGradient>
    <linearGradient gradientTransform="matrix(-0.0105, 0.0, 0.0, 0.0488, 372.75, 28.6)" gradientUnits="userSpaceOnUse" id="gradient4" spreadMethod="pad" x1="-819.2" x2="819.2">
      <stop offset="0.0" stop-color="#594f48"/>
      <stop offset="0.5333333333333333" stop-color="#9a8a83"/>
      <stop offset="1.0" stop-color="#71645b"/>
    </linearGradient>
  </defs>
</svg>
