<?xml version="1.0" encoding="UTF-8" standalone="no"?>
<svg xmlns:xlink="http://www.w3.org/1999/xlink" height="241.7px" width="531.4px" xmlns="http://www.w3.org/2000/svg">
  <g transform="matrix(1.0, 0.0, 0.0, 1.0, 15.4, -51.0)">
    <path d="M507.9 66.1 Q507.2 65.25 506.2 64.65 511.25 66.15 511.5 71.1 L511.5 71.55 Q508.25 75.5 502.7 73.65 500.4 72.9 497.95 72.8 489.75 73.2 491.9 80.6 485.35 76.3 491.65 70.75 L496.25 70.55 503.8 71.2 Q507.9 71.0 508.35 67.75 508.5 66.8 507.9 66.1 M502.0 82.85 L502.0 87.95 Q505.0 88.2 507.3 90.15 L510.95 86.55 512.35 87.95 508.75 91.6 Q510.65 93.9 510.95 96.85 L516.0 96.85 516.0 98.85 510.95 98.85 Q510.65 101.85 508.75 104.15 L512.35 107.8 510.95 109.2 507.35 105.6 Q505.0 107.55 502.0 107.85 L502.0 112.85 500.0 112.85 500.0 107.85 Q497.0 107.6 494.65 105.65 L491.15 109.15 489.75 107.75 493.25 104.25 Q491.3 101.9 491.05 98.85 L486.0 98.85 486.0 96.85 491.05 96.85 Q491.3 93.85 493.25 91.5 L489.75 88.0 491.15 86.55 494.7 90.1 Q497.0 88.15 500.0 87.95 L500.0 82.85 502.0 82.85 M495.35 92.15 Q493.0 94.55 493.0 97.85 493.0 101.15 495.35 103.5 497.65 105.8 500.95 105.85 504.25 105.8 506.6 103.5 509.0 101.15 509.0 97.85 509.0 94.55 506.6 92.15 504.25 89.8 500.95 89.85 497.65 89.8 495.35 92.15" fill="url(#gradient0)" fill-rule="evenodd" stroke="none"/>
    <path d="M406.8 103.45 L406.8 108.15 406.8 292.7 272.5 292.7 254.9 51.5 309.35 51.5 309.35 70.3 319.4 103.45 406.8 103.45 M134.1 51.5 L118.1 292.7 -14.4 292.7 -14.4 107.95 -14.4 103.45 70.4 103.45 77.0 71.1 76.6 70.7 76.6 51.5 134.1 51.5 M303.3 66.0 L315.55 108.15 303.3 66.0 M82.35 64.8 L73.55 107.95 -14.4 107.95 73.55 107.95 82.35 64.8 M315.95 108.15 L406.8 108.15 315.95 108.15" fill="url(#gradient1)" fill-rule="evenodd" stroke="none"/>
    <path d="M-14.4 103.45 L-14.4 51.5 76.6 51.5 76.6 70.7 77.0 71.1 70.4 103.45 -14.4 103.45 M309.35 51.5 L406.8 51.5 406.8 103.45 319.4 103.45 309.35 70.3 309.35 51.5" fill="url(#gradient2)" fill-rule="evenodd" stroke="none"/>
    <path d="M254.9 51.5 L134.1 51.5" fill="none" stroke="#c3bc86" stroke-linecap="round" stroke-linejoin="round" stroke-width="1.0"/>
    <path d="M406.8 103.45 L319.4 103.45 309.35 70.3 M-14.4 103.45 L70.4 103.45 77.0 71.1" fill="none" stroke="#473f25" stroke-linecap="round" stroke-linejoin="round" stroke-width="2.0"/>
    <path d="M315.55 108.15 L303.3 66.0 M-14.4 107.95 L73.55 107.95 82.35 64.8 M406.8 108.15 L315.95 108.15" fill="none" stroke="#776248" stroke-linecap="round" stroke-linejoin="round" stroke-width="1.0"/>
    <path d="M507.9 66.1 Q507.2 65.25 506.2 64.65 511.25 66.15 511.5 71.1 L511.5 71.55 Q508.25 75.5 502.7 73.65 500.4 72.9 497.95 72.8 489.75 73.2 491.9 80.6 485.35 76.3 491.65 70.75 L496.25 70.55 503.8 71.2 Q507.9 71.0 508.35 67.75 508.5 66.8 507.9 66.1 M502.0 82.85 L502.0 87.95 Q505.0 88.2 507.3 90.15 L510.95 86.55 512.35 87.95 508.75 91.6 Q510.65 93.9 510.95 96.85 L516.0 96.85 516.0 98.85 510.95 98.85 Q510.65 101.85 508.75 104.15 L512.35 107.8 510.95 109.2 507.35 105.6 Q505.0 107.55 502.0 107.85 L502.0 112.85 500.0 112.85 500.0 107.85 Q497.0 107.6 494.65 105.65 L491.15 109.15 489.75 107.75 493.25 104.25 Q491.3 101.9 491.05 98.85 L486.0 98.85 486.0 96.85 491.05 96.85 Q491.3 93.85 493.25 91.5 L489.75 88.0 491.15 86.55 494.7 90.1 Q497.0 88.15 500.0 87.95 L500.0 82.85 502.0 82.85 M495.35 92.15 Q497.65 89.8 500.95 89.85 504.25 89.8 506.6 92.15 509.0 94.55 509.0 97.85 509.0 101.15 506.6 103.5 504.25 105.8 500.95 105.85 497.65 105.8 495.35 103.5 493.0 101.15 493.0 97.85 493.0 94.55 495.35 92.15" fill="none" stroke="#ab9e58" stroke-linecap="round" stroke-linejoin="round" stroke-width="0.05"/>
  </g>
  <defs>
    <linearGradient gradientTransform="matrix(0.014, 0.0, 0.0, 0.0097, 500.0, 72.6)" gradientUnits="userSpaceOnUse" id="gradient0" spreadMethod="pad" x1="-819.2" x2="819.2">
      <stop offset="0.0" stop-color="#c6a226"/>
      <stop offset="0.5450980392156862" stop-color="#ffed97"/>
      <stop offset="1.0" stop-color="#bf9c26"/>
    </linearGradient>
    <radialGradient cx="0" cy="0" gradientTransform="matrix(0.0041, 0.2296, -0.4577, 0.008, 192.0, 169.85)" gradientUnits="userSpaceOnUse" id="gradient1" r="819.2" spreadMethod="pad">
      <stop offset="0.0" stop-color="#776248"/>
      <stop offset="0.7490196078431373" stop-color="#544233"/>
      <stop offset="1.0" stop-color="#3f3127"/>
    </radialGradient>
    <linearGradient gradientTransform="matrix(1.0E-4, 0.0282, -0.0317, 2.0E-4, 39.3, 79.3)" gradientUnits="userSpaceOnUse" id="gradient2" spreadMethod="pad" x1="-819.2" x2="819.2">
      <stop offset="0.0" stop-color="#d8ca81"/>
      <stop offset="1.0" stop-color="#e3dba6"/>
    </linearGradient>
  </defs>
</svg>
