<?xml version="1.0" encoding="UTF-8" standalone="no"?>
<svg xmlns:xlink="http://www.w3.org/1999/xlink" height="70.4px" width="70.4px" xmlns="http://www.w3.org/2000/svg">
  <g transform="matrix(1.0, 0.0, 0.0, 1.0, 0.5, 0.5)">
    <path d="M42.7 13.95 Q34.7 10.8 26.7 13.95 L34.7 0.0 42.7 13.95 M48.45 17.35 L64.7 6.05 52.55 21.45 Q45.45 23.7 48.45 17.35 M49.65 34.6 Q49.65 40.85 45.25 45.2 40.85 49.6 34.65 49.65 28.45 49.6 24.05 45.2 19.65 40.85 19.65 34.6 19.65 28.4 24.05 24.0 28.45 19.6 34.65 19.65 40.85 19.6 45.25 24.0 49.65 28.4 49.65 34.6 M17.35 20.95 L6.05 4.7 21.45 16.9 Q23.7 23.95 17.35 20.95 M20.95 52.05 L4.7 63.35 16.9 48.0 Q23.95 45.7 20.95 52.05 M52.05 48.45 L63.35 64.7 48.0 52.55 Q45.7 45.45 52.05 48.45 M42.75 55.5 L34.7 69.4 26.75 55.5 Q34.75 58.6 42.75 55.5 M55.5 42.7 Q58.6 34.7 55.5 26.7 L69.4 34.7 55.5 42.7 M13.95 26.75 Q10.8 34.75 13.95 42.75 L0.0 34.7 13.95 26.75" fill="none" stroke="#776248" stroke-linecap="round" stroke-linejoin="round" stroke-width="1.0"/>
  </g>
</svg>
