<?xml version="1.0" encoding="UTF-8" standalone="no"?>
<svg xmlns:xlink="http://www.w3.org/1999/xlink" height="252.1px" width="500.45px" xmlns="http://www.w3.org/2000/svg">
  <g transform="matrix(1.0, 0.0, 0.0, 1.0, 55.0, -3.5)">
    <path d="M405.2 83.85 L405.2 255.6 -13.75 255.6 -13.75 83.85 -13.75 53.9 405.2 53.9 405.2 83.85 -13.75 83.85 405.2 83.85" fill="url(#gradient0)" fill-rule="evenodd" stroke="none"/>
    <path d="M405.2 83.85 L-13.75 83.85" fill="none" stroke="#090309" stroke-linecap="round" stroke-linejoin="round" stroke-width="0.05"/>
    <path d="M3.1 102.85 L14.85 95.5 70.75 95.0" fill="none" stroke="#331537" stroke-linecap="round" stroke-linejoin="round" stroke-width="0.05"/>
    <path d="M12.1 93.3 L72.1 93.3 86.05 102.9 72.1 111.85 12.1 111.85 -1.9 102.9 12.1 93.3" fill="none" stroke="#1a091a" stroke-linecap="round" stroke-linejoin="round" stroke-width="0.05"/>
    <path d="M82.5 121.35 L94.25 114.0 150.15 113.5" fill="none" stroke="#331537" stroke-linecap="round" stroke-linejoin="round" stroke-width="0.05"/>
    <path d="M91.5 111.8 L151.5 111.8 165.45 121.4 151.5 130.35 91.5 130.35 77.5 121.4 91.5 111.8" fill="none" stroke="#1a091a" stroke-linecap="round" stroke-linejoin="round" stroke-width="0.05"/>
    <path d="M1.3 139.9 L8.75 135.25 44.35 134.9" fill="none" stroke="#331537" stroke-linecap="round" stroke-linejoin="round" stroke-width="0.05"/>
    <path d="M7.0 133.85 L45.2 133.85 54.1 139.95 45.2 145.65 7.0 145.65 -1.9 139.95 7.0 133.85" fill="none" stroke="#1a091a" stroke-linecap="round" stroke-linejoin="round" stroke-width="0.05"/>
    <path d="M110.1 161.95 L121.85 154.6 177.75 154.1" fill="none" stroke="#331537" stroke-linecap="round" stroke-linejoin="round" stroke-width="0.05"/>
    <path d="M119.1 152.4 L179.1 152.4 193.05 162.0 179.1 170.95 119.1 170.95 105.1 162.0 119.1 152.4" fill="none" stroke="#1a091a" stroke-linecap="round" stroke-linejoin="round" stroke-width="0.05"/>
    <path d="M27.25 174.3 L39.0 166.95 94.9 166.45" fill="none" stroke="#331537" stroke-linecap="round" stroke-linejoin="round" stroke-width="0.05"/>
    <path d="M36.25 164.75 L96.25 164.75 110.2 174.35 96.25 183.3 36.25 183.3 22.25 174.35 36.25 164.75" fill="none" stroke="#1a091a" stroke-linecap="round" stroke-linejoin="round" stroke-width="0.05"/>
    <path d="M-50.0 192.9 L-38.25 185.55 17.65 185.05" fill="none" stroke="#331537" stroke-linecap="round" stroke-linejoin="round" stroke-width="0.05"/>
    <path d="M-41.0 183.35 L19.0 183.35 32.95 192.95 19.0 201.9 -41.0 201.9 -55.0 192.95 -41.0 183.35" fill="none" stroke="#1a091a" stroke-linecap="round" stroke-linejoin="round" stroke-width="0.05"/>
    <path d="M84.3 94.05 L93.5 88.25 137.55 87.85" fill="none" stroke="#331537" stroke-linecap="round" stroke-linejoin="round" stroke-width="0.05"/>
    <path d="M91.35 86.5 L138.6 86.5 149.6 94.05 138.6 101.15 91.35 101.15 80.35 94.05 91.35 86.5" fill="none" stroke="#1a091a" stroke-linecap="round" stroke-linejoin="round" stroke-width="0.05"/>
    <path d="M162.5 108.4 L174.25 101.05 230.15 100.55" fill="none" stroke="#331537" stroke-linecap="round" stroke-linejoin="round" stroke-width="0.05"/>
    <path d="M171.5 98.85 L231.5 98.85 245.45 108.45 231.5 117.4 171.5 117.4 157.5 108.45 171.5 98.85" fill="none" stroke="#1a091a" stroke-linecap="round" stroke-linejoin="round" stroke-width="0.05"/>
    <path d="M243.15 121.4 L254.9 114.05 310.8 113.55" fill="none" stroke="#331537" stroke-linecap="round" stroke-linejoin="round" stroke-width="0.05"/>
    <path d="M252.15 111.85 L312.15 111.85 326.1 121.45 312.15 130.4 252.15 130.4 238.15 121.45 252.15 111.85" fill="none" stroke="#1a091a" stroke-linecap="round" stroke-linejoin="round" stroke-width="0.05"/>
    <path d="M179.9 134.6 L189.15 128.8 233.3 128.4" fill="none" stroke="#331537" stroke-linecap="round" stroke-linejoin="round" stroke-width="0.05"/>
    <path d="M186.95 127.05 L234.35 127.05 245.4 134.6 234.35 141.7 186.95 141.7 175.95 134.6 186.95 127.05" fill="none" stroke="#1a091a" stroke-linecap="round" stroke-linejoin="round" stroke-width="0.05"/>
    <path d="M246.45 152.55 L257.7 145.5 311.45 145.0" fill="none" stroke="#331537" stroke-linecap="round" stroke-linejoin="round" stroke-width="0.05"/>
    <path d="M255.1 143.35 L312.75 143.35 326.15 152.6 312.75 161.25 255.1 161.25 241.65 152.6 255.1 143.35" fill="none" stroke="#1a091a" stroke-linecap="round" stroke-linejoin="round" stroke-width="0.05"/>
    <path d="M201.15 183.9 L212.9 176.55 268.8 176.05" fill="none" stroke="#331537" stroke-linecap="round" stroke-linejoin="round" stroke-width="0.05"/>
    <path d="M210.15 174.35 L270.15 174.35 284.1 183.95 270.15 192.9 210.15 192.9 196.15 183.95 210.15 174.35" fill="none" stroke="#1a091a" stroke-linecap="round" stroke-linejoin="round" stroke-width="0.05"/>
    <path d="M322.2 108.4 L333.95 101.05 389.85 100.55" fill="none" stroke="#331537" stroke-linecap="round" stroke-linejoin="round" stroke-width="0.05"/>
    <path d="M331.2 98.85 L391.2 98.85 405.15 108.45 391.2 117.4 331.2 117.4 317.2 108.45 331.2 98.85" fill="none" stroke="#1a091a" stroke-linecap="round" stroke-linejoin="round" stroke-width="0.05"/>
    <path d="M242.2 94.05 L251.4 88.25 295.45 87.85" fill="none" stroke="#331537" stroke-linecap="round" stroke-linejoin="round" stroke-width="0.05"/>
    <path d="M249.25 86.5 L296.5 86.5 307.5 94.05 296.5 101.15 249.25 101.15 238.25 94.05 249.25 86.5" fill="none" stroke="#1a091a" stroke-linecap="round" stroke-linejoin="round" stroke-width="0.05"/>
    <path d="M125.15 197.95 L134.75 191.95 180.5 191.55" fill="none" stroke="#331537" stroke-linecap="round" stroke-linejoin="round" stroke-width="0.05"/>
    <path d="M132.5 190.15 L181.6 190.15 193.0 198.0 181.6 205.35 132.5 205.35 121.05 198.0 132.5 190.15" fill="none" stroke="#1a091a" stroke-linecap="round" stroke-linejoin="round" stroke-width="0.05"/>
    <path d="M26.35 216.5 L35.95 210.5 81.7 210.1" fill="none" stroke="#331537" stroke-linecap="round" stroke-linejoin="round" stroke-width="0.05"/>
    <path d="M33.7 208.7 L82.8 208.7 94.2 216.55 82.8 223.9 33.7 223.9 22.25 216.55 33.7 208.7" fill="none" stroke="#1a091a" stroke-linecap="round" stroke-linejoin="round" stroke-width="0.05"/>
    <path d="M322.2 171.45 L333.95 164.1 389.85 163.6" fill="none" stroke="#331537" stroke-linecap="round" stroke-linejoin="round" stroke-width="0.05"/>
    <path d="M331.2 161.9 L391.2 161.9 405.15 171.5 391.2 180.45 331.2 180.45 317.2 171.5 331.2 161.9" fill="none" stroke="#1a091a" stroke-linecap="round" stroke-linejoin="round" stroke-width="0.05"/>
    <path d="M329.2 136.25 L336.35 131.8 370.35 131.45" fill="none" stroke="#331537" stroke-linecap="round" stroke-linejoin="round" stroke-width="0.05"/>
    <path d="M334.65 130.45 L371.2 130.45 379.7 136.25 371.2 141.75 334.65 141.75 326.15 136.25 334.65 130.45" fill="none" stroke="#1a091a" stroke-linecap="round" stroke-linejoin="round" stroke-width="0.05"/>
    <path d="M280.85 197.95 L290.45 191.95 336.2 191.55" fill="none" stroke="#331537" stroke-linecap="round" stroke-linejoin="round" stroke-width="0.05"/>
    <path d="M288.2 190.15 L337.3 190.15 348.7 198.0 337.3 205.35 288.2 205.35 276.75 198.0 288.2 190.15" fill="none" stroke="#1a091a" stroke-linecap="round" stroke-linejoin="round" stroke-width="0.05"/>
    <path d="M197.25 211.1 L204.35 206.65 238.25 206.35" fill="none" stroke="#331537" stroke-linecap="round" stroke-linejoin="round" stroke-width="0.05"/>
    <path d="M202.7 205.3 L239.1 205.3 247.55 211.1 239.1 216.55 202.7 216.55 194.25 211.1 202.7 205.3" fill="none" stroke="#1a091a" stroke-linecap="round" stroke-linejoin="round" stroke-width="0.05"/>
    <path d="M362.5 214.85 L374.25 207.5 430.15 207.0" fill="none" stroke="#331537" stroke-linecap="round" stroke-linejoin="round" stroke-width="0.05"/>
    <path d="M371.5 205.3 L431.5 205.3 445.45 214.9 431.5 223.85 371.5 223.85 357.5 214.9 371.5 205.3" fill="none" stroke="#1a091a" stroke-linecap="round" stroke-linejoin="round" stroke-width="0.05"/>
    <path d="M110.1 230.65 L121.85 223.3 177.75 222.8" fill="none" stroke="#331537" stroke-linecap="round" stroke-linejoin="round" stroke-width="0.05"/>
    <path d="M119.1 221.1 L179.1 221.1 193.05 230.7 179.1 239.65 119.1 239.65 105.1 230.7 119.1 221.1" fill="none" stroke="#1a091a" stroke-linecap="round" stroke-linejoin="round" stroke-width="0.05"/>
    <path d="M280.85 231.7 L290.45 225.7 336.2 225.3" fill="none" stroke="#331537" stroke-linecap="round" stroke-linejoin="round" stroke-width="0.05"/>
    <path d="M288.2 223.9 L337.3 223.9 348.75 231.75 337.3 239.1 288.2 239.1 276.75 231.75 288.2 223.9" fill="none" stroke="#1a091a" stroke-linecap="round" stroke-linejoin="round" stroke-width="0.05"/>
    <path d="M12.35 20.85 L12.35 3.55 26.1 3.55 46.3 3.55 53.6 3.55 58.45 3.55 58.45 20.9 58.45 62.55 50.1 62.55 53.6 59.25 53.6 50.4 53.6 23.7 53.6 20.4 Q34.65 -5.85 17.1 20.4 L17.1 23.7 17.1 50.4 17.1 58.1 21.85 62.55 12.35 62.55 12.35 20.85 Q14.9 10.45 26.1 3.55 14.9 10.45 12.35 20.85 M46.3 3.55 Q56.45 11.1 58.45 20.9 56.45 11.1 46.3 3.55" fill="#301125" fill-rule="evenodd" stroke="none"/>
    <path d="M58.45 62.55 L58.45 64.9 58.45 81.25 53.6 81.25 12.35 81.25 12.35 64.9 12.35 62.55 21.85 62.55 50.1 62.55 58.45 62.55 M37.85 14.15 Q38.75 13.3 40.0 12.9 L40.3 13.0 42.15 14.3 Q43.1 14.9 44.75 15.05 L45.75 15.2 46.6 15.35 45.75 15.2 44.75 15.05 Q43.1 14.9 42.15 14.3 L40.3 13.0 40.0 12.9 Q38.75 13.3 37.85 14.15 37.85 15.45 37.5 16.35 L37.1 17.45 36.8 18.05 36.05 19.2 34.9 20.1 34.4 20.0 33.85 19.6 32.8 18.0 32.55 17.6 Q31.8 16.95 31.65 15.7 31.5 13.9 32.1 12.4 32.55 11.3 33.35 10.35 L33.7 10.15 34.05 9.9 Q34.45 9.35 34.6 10.05 34.45 9.35 34.05 9.9 L33.7 10.15 33.35 10.35 Q32.55 11.3 32.1 12.4 31.5 13.9 31.65 15.7 31.8 16.95 32.55 17.6 L32.8 18.0 33.85 19.6 34.4 20.0 34.9 20.1 36.05 19.2 36.8 18.05 37.1 17.45 37.5 16.35 Q37.85 15.45 37.85 14.15 L37.8 13.9 37.6 11.5 37.55 11.2 36.8 10.25 36.5 10.05 Q35.75 9.25 34.3 9.15 35.75 9.25 36.5 10.05 L36.8 10.25 37.55 11.2 37.6 11.5 37.8 13.9 37.85 14.15 M23.15 15.35 L24.1 14.75 24.5 14.6 Q25.7 14.35 26.35 13.9 26.7 13.6 27.25 13.45 L27.65 13.4 29.15 12.95 29.5 12.85 Q30.6 12.75 31.4 13.9 30.6 12.75 29.5 12.85 L29.15 12.95 27.65 13.4 27.25 13.45 Q26.7 13.6 26.35 13.9 25.7 14.35 24.5 14.6 L24.1 14.75 23.15 15.35 M17.1 23.7 L17.1 20.4 Q34.65 -5.85 53.6 20.4 L53.6 23.7 Q44.25 11.95 34.85 23.7 26.55 12.05 17.1 23.7 M19.4 77.65 L19.15 77.35 Q19.05 77.1 19.2 76.95 20.45 76.0 22.25 76.25 21.95 75.9 21.8 75.35 L21.7 75.0 21.45 74.6 Q20.5 73.95 18.75 74.25 17.45 74.45 17.1 73.6 L17.0 73.25 Q17.2 71.85 18.75 71.75 21.8 71.6 24.45 72.35 L24.55 71.45 24.6 69.65 24.6 69.05 Q24.5 67.2 22.55 67.25 L19.05 67.4 18.1 67.4 Q17.2 67.35 17.2 67.9 L17.15 69.65 17.2 67.9 Q17.2 67.35 18.1 67.4 L19.05 67.4 22.55 67.25 Q24.5 67.2 24.6 69.05 L24.6 69.65 24.55 71.45 24.45 72.35 Q21.8 71.6 18.75 71.75 17.2 71.85 17.0 73.25 L17.1 73.6 Q17.45 74.45 18.75 74.25 20.5 73.95 21.45 74.6 L21.7 75.0 21.8 75.35 Q21.95 75.9 22.25 76.25 20.45 76.0 19.2 76.95 19.05 77.1 19.15 77.35 L19.4 77.65 M36.5 78.0 Q35.4 77.9 34.95 76.8 34.6 75.8 35.5 75.95 L38.1 76.25 37.5 75.05 Q37.0 73.7 35.55 72.9 L35.15 72.7 Q34.3 72.3 34.3 71.45 L34.75 71.35 35.8 71.25 36.15 71.35 40.3 71.45 40.05 70.85 Q39.9 70.05 39.05 69.35 L38.8 69.0 Q38.55 68.05 37.45 67.95 L36.55 67.75 32.7 67.55 32.35 67.65 Q32.05 69.1 32.05 70.6 32.05 69.1 32.35 67.65 L32.7 67.55 36.55 67.75 37.45 67.95 Q38.55 68.05 38.8 69.0 L39.05 69.35 Q39.9 70.05 40.05 70.85 L40.3 71.45 36.15 71.35 35.8 71.25 34.75 71.35 34.3 71.45 Q34.3 72.3 35.15 72.7 L35.55 72.9 Q37.0 73.7 37.5 75.05 L38.1 76.25 35.5 75.95 Q34.6 75.8 34.95 76.8 35.4 77.9 36.5 78.0 M49.2 77.1 Q50.6 77.2 50.4 75.9 50.2 74.75 49.2 74.5 48.1 74.25 47.95 73.55 47.9 73.3 48.0 73.25 L49.5 72.95 50.75 72.85 51.7 72.7 Q52.2 72.65 52.0 72.05 51.75 71.2 51.8 70.25 51.9 68.8 51.3 67.65 L51.05 67.4 49.5 67.2 48.85 67.15 46.05 67.4 Q45.85 67.45 45.8 67.65 L45.25 69.0 Q44.9 69.8 45.3 70.3 45.9 70.95 47.25 70.85 45.9 70.95 45.3 70.3 44.9 69.8 45.25 69.0 L45.8 67.65 Q45.85 67.45 46.05 67.4 L48.85 67.15 49.5 67.2 51.05 67.4 51.3 67.65 Q51.9 68.8 51.8 70.25 51.75 71.2 52.0 72.05 52.2 72.65 51.7 72.7 L50.75 72.85 49.5 72.95 48.0 73.25 Q47.9 73.3 47.95 73.55 48.1 74.25 49.2 74.5 50.2 74.75 50.4 75.9 50.6 77.2 49.2 77.1 M58.45 64.9 L12.35 64.9 58.45 64.9" fill="#280a1e" fill-rule="evenodd" stroke="none"/>
    <path d="M53.6 50.4 L53.6 59.25 50.1 62.55 21.85 62.55 17.1 58.1 17.1 50.4 53.6 50.4 M51.35 52.45 L42.2 52.45 30.5 52.45 18.75 52.45 30.5 52.45 42.2 52.45 51.35 52.45" fill="#22091b" fill-rule="evenodd" stroke="none"/>
    <path d="M53.6 23.7 L53.6 50.4 17.1 50.4 17.1 23.7 Q26.55 12.05 34.85 23.7 44.25 11.95 53.6 23.7 M24.45 47.65 L28.9 47.65 28.9 24.5 Q26.65 21.05 24.45 24.5 L24.45 47.65 M40.8 47.65 L45.25 47.65 45.25 24.5 Q43.0 21.05 40.8 24.5 L40.8 47.65" fill="#1c0615" fill-rule="evenodd" stroke="none"/>
    <path d="M24.45 47.65 L24.45 24.5 Q26.65 21.05 28.9 24.5 L28.9 47.65 24.45 47.65 M40.8 47.65 L40.8 24.5 Q43.0 21.05 45.25 24.5 L45.25 47.65 40.8 47.65" fill="#321495" fill-rule="evenodd" stroke="none"/>
    <path d="M12.35 62.55 L12.35 20.85 Q14.9 10.45 26.1 3.55 M34.6 10.05 Q34.45 9.35 34.05 9.9 L33.7 10.15 33.35 10.35 Q32.55 11.3 32.1 12.4 31.5 13.9 31.65 15.7 31.8 16.95 32.55 17.6 L32.8 18.0 33.85 19.6 34.4 20.0 34.9 20.1 36.05 19.2 36.8 18.05 37.1 17.45 37.5 16.35 Q37.85 15.45 37.85 14.15 L37.8 13.9 37.6 11.5 37.55 11.2 36.8 10.25 36.5 10.05 Q35.75 9.25 34.3 9.15 M31.4 13.9 Q30.6 12.75 29.5 12.85 L29.15 12.95 27.65 13.4 27.25 13.45 Q26.7 13.6 26.35 13.9 25.7 14.35 24.5 14.6 L24.1 14.75 23.15 15.35 M46.6 15.35 L45.75 15.2 44.75 15.05 Q43.1 14.9 42.15 14.3 L40.3 13.0 40.0 12.9 Q38.75 13.3 37.85 14.15 M58.45 20.9 Q56.45 11.1 46.3 3.55 M18.75 52.45 L30.5 52.45 42.2 52.45 51.35 52.45 M12.35 64.9 L58.45 64.9" fill="none" stroke="#43233a" stroke-linecap="round" stroke-linejoin="round" stroke-width="0.05"/>
    <path d="M17.1 23.7 L17.1 20.4 Q34.65 -5.85 53.6 20.4 L53.6 23.7 53.6 50.4 53.6 59.25 50.1 62.55 58.45 62.55 M24.45 47.65 L24.45 24.5 Q26.65 21.05 28.9 24.5 L28.9 47.65 24.45 47.65 M40.8 47.65 L40.8 24.5 Q43.0 21.05 45.25 24.5 L45.25 47.65 40.8 47.65 M21.85 62.55 L50.1 62.55 M17.1 23.7 L17.1 50.4 53.6 50.4 M17.1 50.4 L17.1 58.1 21.85 62.55 12.35 62.55 M53.6 23.7 Q44.25 11.95 34.85 23.7 26.55 12.05 17.1 23.7" fill="none" stroke="#000000" stroke-linecap="round" stroke-linejoin="round" stroke-width="0.05"/>
    <path d="M17.15 69.65 L17.2 67.9 Q17.2 67.35 18.1 67.4 L19.05 67.4 22.55 67.25 Q24.5 67.2 24.6 69.05 L24.6 69.65 24.55 71.45 24.45 72.35 Q21.8 71.6 18.75 71.75 17.2 71.85 17.0 73.25 L17.1 73.6 Q17.45 74.45 18.75 74.25 20.5 73.95 21.45 74.6 L21.7 75.0 21.8 75.35 Q21.95 75.9 22.25 76.25 20.45 76.0 19.2 76.95 19.05 77.1 19.15 77.35 L19.4 77.65 M32.05 70.6 Q32.05 69.1 32.35 67.65 L32.7 67.55 36.55 67.75 37.45 67.95 Q38.55 68.05 38.8 69.0 L39.05 69.35 Q39.9 70.05 40.05 70.85 L40.3 71.45 36.15 71.35 35.8 71.25 34.75 71.35 34.3 71.45 Q34.3 72.3 35.15 72.7 L35.55 72.9 Q37.0 73.7 37.5 75.05 L38.1 76.25 35.5 75.95 Q34.6 75.8 34.95 76.8 35.4 77.9 36.5 78.0 M47.25 70.85 Q45.9 70.95 45.3 70.3 44.9 69.8 45.25 69.0 L45.8 67.65 Q45.85 67.45 46.05 67.4 L48.85 67.15 49.5 67.2 51.05 67.4 51.3 67.65 Q51.9 68.8 51.8 70.25 51.75 71.2 52.0 72.05 52.2 72.65 51.7 72.7 L50.75 72.85 49.5 72.95 48.0 73.25 Q47.9 73.3 47.95 73.55 48.1 74.25 49.2 74.5 50.2 74.75 50.4 75.9 50.6 77.2 49.2 77.1" fill="none" stroke="#1c0615" stroke-linecap="round" stroke-linejoin="round" stroke-width="0.05"/>
    <path d="M58.25 20.9 L58.25 3.55 71.95 3.55 92.15 3.55 99.45 3.55 104.35 3.55 104.35 20.9 104.35 62.6 95.95 62.6 99.45 59.3 99.45 50.45 99.45 23.7 99.45 20.4 Q80.55 -5.85 63.0 20.4 L63.0 23.7 63.0 50.45 63.0 58.1 67.7 62.6 58.25 62.6 58.25 20.9 Q60.85 10.45 71.95 3.55 60.85 10.45 58.25 20.9 M92.15 3.55 Q102.35 11.1 104.35 20.9 102.35 11.1 92.15 3.55" fill="#301125" fill-rule="evenodd" stroke="none"/>
    <path d="M92.5 15.4 L91.6 15.25 90.6 15.05 Q89.0 14.9 88.0 14.3 L86.15 13.05 85.9 12.95 Q84.6 13.3 83.75 14.15 83.75 15.5 83.35 16.3 L83.0 17.45 82.65 18.05 81.9 19.2 80.85 20.15 80.25 20.0 79.7 19.6 78.65 18.05 78.4 17.6 Q77.7 16.95 77.55 15.7 77.45 14.8 77.6 13.95 L77.95 12.4 Q78.4 11.3 79.25 10.35 L79.55 10.2 79.95 9.95 Q80.3 9.4 80.45 10.1 80.3 9.4 79.95 9.95 L79.55 10.2 79.25 10.35 Q78.4 11.3 77.95 12.4 L77.6 13.95 Q77.45 14.8 77.55 15.7 77.7 16.95 78.4 17.6 L78.65 18.05 79.7 19.6 80.25 20.0 80.85 20.15 81.9 19.2 82.65 18.05 83.0 17.45 83.35 16.3 Q83.75 15.5 83.75 14.15 L83.7 13.9 83.5 11.55 83.4 11.25 82.65 10.25 82.35 10.1 Q81.6 9.3 80.15 9.15 81.6 9.3 82.35 10.1 L82.65 10.25 83.4 11.25 83.5 11.55 83.7 13.9 83.75 14.15 Q84.6 13.3 85.9 12.95 L86.15 13.05 88.0 14.3 Q89.0 14.9 90.6 15.05 L91.6 15.25 92.5 15.4 M69.0 15.4 L70.0 14.8 70.4 14.65 72.2 13.9 Q72.6 13.6 73.15 13.45 L73.55 13.4 75.0 13.0 75.35 12.9 Q76.45 12.8 77.6 13.95 76.45 12.8 75.35 12.9 L75.0 13.0 73.55 13.4 73.15 13.45 Q72.6 13.6 72.2 13.9 L70.4 14.65 70.0 14.8 69.0 15.4 M104.35 62.6 L104.35 64.9 104.35 81.3 99.45 81.3 58.25 81.3 58.25 64.9 58.25 62.6 67.7 62.6 95.95 62.6 104.35 62.6 M63.0 23.7 L63.0 20.4 Q80.55 -5.85 99.45 20.4 L99.45 23.7 Q90.15 12.0 80.8 23.7 72.4 12.05 63.0 23.7 M95.05 77.15 Q96.5 77.25 96.3 75.9 96.05 74.75 95.05 74.55 93.95 74.25 93.8 73.55 93.75 73.3 93.85 73.25 L95.35 72.95 96.65 72.9 97.55 72.75 Q98.05 72.7 97.9 72.1 97.65 71.2 97.7 70.25 97.8 68.8 97.2 67.6 L96.95 67.4 95.35 67.25 94.7 67.15 91.9 67.4 Q91.7 67.45 91.65 67.6 L91.1 69.05 Q90.75 69.85 91.15 70.35 91.75 70.95 93.15 70.85 91.75 70.95 91.15 70.35 90.75 69.85 91.1 69.05 L91.65 67.6 Q91.7 67.45 91.9 67.4 L94.7 67.15 95.35 67.25 96.95 67.4 97.2 67.6 Q97.8 68.8 97.7 70.25 97.65 71.2 97.9 72.1 98.05 72.7 97.55 72.75 L96.65 72.9 95.35 72.95 93.85 73.25 Q93.75 73.3 93.8 73.55 93.95 74.25 95.05 74.55 96.05 74.75 96.3 75.9 96.5 77.25 95.05 77.15 M65.1 77.0 Q66.3 76.0 68.15 76.2 L67.65 75.4 67.55 75.05 67.35 74.65 Q66.35 74.0 64.6 74.25 63.3 74.45 63.0 73.6 L62.9 73.25 Q63.1 71.9 64.6 71.8 67.65 71.6 70.35 72.4 L70.45 71.5 70.5 69.75 70.5 69.1 Q70.4 67.25 68.35 67.25 L64.95 67.4 63.95 67.4 Q63.1 67.35 63.1 67.95 L63.05 69.75 63.1 67.95 Q63.1 67.35 63.95 67.4 L64.95 67.4 68.35 67.25 Q70.4 67.25 70.5 69.1 L70.5 69.75 70.45 71.5 70.35 72.4 Q67.65 71.6 64.6 71.8 63.1 71.9 62.9 73.25 L63.0 73.6 Q63.3 74.45 64.6 74.25 66.35 74.0 67.35 74.65 L67.55 75.05 67.65 75.4 68.15 76.2 Q66.3 76.0 65.1 77.0 M82.35 78.0 Q81.25 77.95 80.9 76.8 80.5 75.85 81.4 75.95 L83.95 76.2 83.35 75.1 Q82.9 73.7 81.45 72.95 L81.0 72.75 Q80.15 72.35 80.15 71.5 L80.7 71.35 81.65 71.25 82.05 71.35 86.15 71.5 85.95 70.85 Q85.8 70.05 84.95 69.4 L84.65 69.05 Q84.4 68.05 83.3 68.0 L82.4 67.8 78.6 67.55 78.2 67.6 Q77.9 69.15 77.9 70.6 77.9 69.15 78.2 67.6 L78.6 67.55 82.4 67.8 83.3 68.0 Q84.4 68.05 84.65 69.05 L84.95 69.4 Q85.8 70.05 85.95 70.85 L86.15 71.5 82.05 71.35 81.65 71.25 80.7 71.35 80.15 71.5 Q80.15 72.35 81.0 72.75 L81.45 72.95 Q82.9 73.7 83.35 75.1 L83.95 76.2 81.4 75.95 Q80.5 75.85 80.9 76.8 81.25 77.95 82.35 78.0 M104.35 64.9 L58.25 64.9 104.35 64.9" fill="#280a1e" fill-rule="evenodd" stroke="none"/>
    <path d="M99.45 50.45 L99.45 59.3 95.95 62.6 67.7 62.6 63.0 58.1 63.0 50.45 99.45 50.45 M97.2 52.5 L88.05 52.5 76.4 52.5 64.6 52.5 76.4 52.5 88.05 52.5 97.2 52.5" fill="#22091b" fill-rule="evenodd" stroke="none"/>
    <path d="M99.45 23.7 L99.45 50.45 63.0 50.45 63.0 23.7 Q72.4 12.05 80.8 23.7 90.15 12.0 99.45 23.7" fill="#1c0615" fill-rule="evenodd" stroke="none"/>
    <path d="M80.45 10.1 Q80.3 9.4 79.95 9.95 L79.55 10.2 79.25 10.35 Q78.4 11.3 77.95 12.4 L77.6 13.95 Q77.45 14.8 77.55 15.7 77.7 16.95 78.4 17.6 L78.65 18.05 79.7 19.6 80.25 20.0 80.85 20.15 81.9 19.2 82.65 18.05 83.0 17.45 83.35 16.3 Q83.75 15.5 83.75 14.15 L83.7 13.9 83.5 11.55 83.4 11.25 82.65 10.25 82.35 10.1 Q81.6 9.3 80.15 9.15 M77.6 13.95 Q76.45 12.8 75.35 12.9 L75.0 13.0 73.55 13.4 73.15 13.45 Q72.6 13.6 72.2 13.9 L70.4 14.65 70.0 14.8 69.0 15.4 M83.75 14.15 Q84.6 13.3 85.9 12.95 L86.15 13.05 88.0 14.3 Q89.0 14.9 90.6 15.05 L91.6 15.25 92.5 15.4 M58.25 62.6 L58.25 20.9 Q60.85 10.45 71.95 3.55 M64.6 52.5 L76.4 52.5 88.05 52.5 97.2 52.5 M58.25 64.9 L104.35 64.9 M104.35 20.9 Q102.35 11.1 92.15 3.55" fill="none" stroke="#43233a" stroke-linecap="round" stroke-linejoin="round" stroke-width="0.05"/>
    <path d="M99.45 50.45 L99.45 59.3 95.95 62.6 104.35 62.6 M99.45 23.7 L99.45 50.45 63.0 50.45 63.0 58.1 67.7 62.6 95.95 62.6 M63.0 23.7 L63.0 20.4 Q80.55 -5.85 99.45 20.4 L99.45 23.7 Q90.15 12.0 80.8 23.7 72.4 12.05 63.0 23.7 L63.0 50.45 M67.7 62.6 L58.25 62.6" fill="none" stroke="#000000" stroke-linecap="round" stroke-linejoin="round" stroke-width="0.05"/>
    <path d="M93.15 70.85 Q91.75 70.95 91.15 70.35 90.75 69.85 91.1 69.05 L91.65 67.6 Q91.7 67.45 91.9 67.4 L94.7 67.15 95.35 67.25 96.95 67.4 97.2 67.6 Q97.8 68.8 97.7 70.25 97.65 71.2 97.9 72.1 98.05 72.7 97.55 72.75 L96.65 72.9 95.35 72.95 93.85 73.25 Q93.75 73.3 93.8 73.55 93.95 74.25 95.05 74.55 96.05 74.75 96.3 75.9 96.5 77.25 95.05 77.15 M77.9 70.6 Q77.9 69.15 78.2 67.6 L78.6 67.55 82.4 67.8 83.3 68.0 Q84.4 68.05 84.65 69.05 L84.95 69.4 Q85.8 70.05 85.95 70.85 L86.15 71.5 82.05 71.35 81.65 71.25 80.7 71.35 80.15 71.5 Q80.15 72.35 81.0 72.75 L81.45 72.95 Q82.9 73.7 83.35 75.1 L83.95 76.2 81.4 75.95 Q80.5 75.85 80.9 76.8 81.25 77.95 82.35 78.0 M63.05 69.75 L63.1 67.95 Q63.1 67.35 63.95 67.4 L64.95 67.4 68.35 67.25 Q70.4 67.25 70.5 69.1 L70.5 69.75 70.45 71.5 70.35 72.4 Q67.65 71.6 64.6 71.8 63.1 71.9 62.9 73.25 L63.0 73.6 Q63.3 74.45 64.6 74.25 66.35 74.0 67.35 74.65 L67.55 75.05 67.65 75.4 68.15 76.2 Q66.3 76.0 65.1 77.0" fill="none" stroke="#1c0615" stroke-linecap="round" stroke-linejoin="round" stroke-width="0.05"/>
    <path d="M104.1 20.9 L104.1 3.55 117.8 3.55 138.0 3.55 145.3 3.55 150.2 3.55 150.2 20.95 150.2 62.6 141.8 62.6 145.3 59.3 145.3 50.45 145.3 23.7 145.3 20.4 Q126.4 -5.8 108.85 20.4 L108.85 23.7 108.85 50.45 108.85 58.15 113.55 62.6 104.1 62.6 104.1 20.9 Q106.7 10.45 117.8 3.55 106.7 10.45 104.1 20.9 M138.0 3.55 Q148.2 11.1 150.2 20.95 148.2 11.1 138.0 3.55" fill="#301125" fill-rule="evenodd" stroke="none"/>
    <path d="M150.2 62.6 L150.2 64.9 150.2 81.3 145.3 81.3 104.1 81.3 104.1 64.9 104.1 62.6 113.55 62.6 141.8 62.6 150.2 62.6 M138.35 15.4 L137.45 15.25 136.5 15.05 Q134.85 14.9 133.85 14.3 L132.0 13.0 131.75 12.95 Q130.5 13.3 129.55 14.2 129.55 15.5 129.2 16.35 L128.85 17.45 128.5 18.1 127.75 19.25 126.65 20.15 126.1 20.0 125.55 19.65 Q124.9 18.95 124.55 18.05 L124.25 17.6 Q123.55 16.95 123.4 15.7 123.25 13.95 123.85 12.4 124.25 11.35 125.1 10.4 L125.4 10.15 125.8 9.95 Q126.15 9.4 126.3 10.1 126.15 9.4 125.8 9.95 L125.4 10.15 125.1 10.4 Q124.25 11.35 123.85 12.4 123.25 13.95 123.4 15.7 123.55 16.95 124.25 17.6 L124.55 18.05 Q124.9 18.95 125.55 19.65 L126.1 20.0 126.65 20.15 127.75 19.25 128.5 18.1 128.85 17.45 129.2 16.35 Q129.55 15.5 129.55 14.2 L129.55 13.95 129.35 11.55 129.25 11.25 128.5 10.3 128.25 10.1 Q127.5 9.3 126.0 9.15 127.5 9.3 128.25 10.1 L128.5 10.3 129.25 11.25 129.35 11.55 129.55 13.95 129.55 14.2 Q130.5 13.3 131.75 12.95 L132.0 13.0 133.85 14.3 Q134.85 14.9 136.5 15.05 L137.45 15.25 138.35 15.4 M114.9 15.4 L115.85 14.8 116.25 14.65 118.1 13.95 Q118.45 13.6 119.0 13.5 L119.4 13.45 120.9 13.0 121.2 12.9 Q122.35 12.8 123.15 13.95 122.35 12.8 121.2 12.9 L120.9 13.0 119.4 13.45 119.0 13.5 Q118.45 13.6 118.1 13.95 L116.25 14.65 115.85 14.8 114.9 15.4 M108.85 23.7 L108.85 20.4 Q126.4 -5.8 145.3 20.4 L145.3 23.7 Q136.0 12.0 126.6 23.7 118.25 12.05 108.85 23.7 M140.95 77.15 Q142.35 77.25 142.15 75.95 141.9 74.8 140.95 74.55 139.8 74.25 139.7 73.55 139.65 73.3 139.75 73.25 L141.2 72.95 142.5 72.85 143.4 72.75 Q143.95 72.7 143.75 72.1 143.5 71.25 143.55 70.3 143.65 68.8 143.05 67.65 L142.8 67.45 141.2 67.25 140.55 67.15 137.75 67.45 137.5 67.65 136.95 69.05 Q136.65 69.85 137.0 70.35 137.6 70.95 139.0 70.9 137.6 70.95 137.0 70.35 136.65 69.85 136.95 69.05 L137.5 67.65 137.75 67.45 140.55 67.15 141.2 67.25 142.8 67.45 143.05 67.65 Q143.65 68.8 143.55 70.3 143.5 71.25 143.75 72.1 143.95 72.7 143.4 72.75 L142.5 72.85 141.2 72.95 139.75 73.25 Q139.65 73.3 139.7 73.55 139.8 74.25 140.95 74.55 141.9 74.8 142.15 75.95 142.35 77.25 140.95 77.15 M111.15 77.7 L110.9 77.35 Q110.8 77.15 110.95 77.0 112.15 76.05 113.95 76.25 L113.5 75.4 113.4 75.05 113.2 74.65 Q112.2 74.0 110.45 74.25 109.15 74.45 108.85 73.6 L108.75 73.25 Q108.95 71.9 110.45 71.8 L116.2 72.4 116.3 71.5 116.35 69.7 116.35 69.1 Q116.25 67.25 114.25 67.3 L110.8 67.45 109.8 67.45 Q108.95 67.4 108.95 67.95 L108.9 69.7 108.95 67.95 Q108.95 67.4 109.8 67.45 L110.8 67.45 114.25 67.3 Q116.25 67.25 116.35 69.1 L116.35 69.7 116.3 71.5 116.2 72.4 110.45 71.8 Q108.95 71.9 108.75 73.25 L108.85 73.6 Q109.15 74.45 110.45 74.25 112.2 74.0 113.2 74.65 L113.4 75.05 113.5 75.4 113.95 76.25 Q112.15 76.05 110.95 77.0 110.8 77.15 110.9 77.35 L111.15 77.7 M128.25 78.0 Q127.15 77.95 126.7 76.8 126.35 75.85 127.25 76.0 L129.8 76.25 129.2 75.1 Q128.75 73.75 127.3 72.9 L126.9 72.75 Q126.0 72.35 126.0 71.5 L126.55 71.35 127.55 71.25 127.9 71.35 132.0 71.5 131.8 70.9 Q131.65 70.05 130.8 69.35 L130.55 69.05 Q130.25 68.1 129.15 68.0 L128.3 67.8 124.45 67.55 124.1 67.65 Q123.8 69.15 123.8 70.65 123.8 69.15 124.1 67.65 L124.45 67.55 128.3 67.8 129.15 68.0 Q130.25 68.1 130.55 69.05 L130.8 69.35 Q131.65 70.05 131.8 70.9 L132.0 71.5 127.9 71.35 127.55 71.25 126.55 71.35 126.0 71.5 Q126.0 72.35 126.9 72.75 L127.3 72.9 Q128.75 73.75 129.2 75.1 L129.8 76.25 127.25 76.0 Q126.35 75.85 126.7 76.8 127.15 77.95 128.25 78.0 M150.2 64.9 L104.1 64.9 150.2 64.9" fill="#280a1e" fill-rule="evenodd" stroke="none"/>
    <path d="M145.3 50.45 L145.3 59.3 141.8 62.6 113.55 62.6 108.85 58.15 108.85 50.45 145.3 50.45 M143.1 52.5 L133.9 52.5 122.25 52.5 110.45 52.5 122.25 52.5 133.9 52.5 143.1 52.5" fill="#22091b" fill-rule="evenodd" stroke="none"/>
    <path d="M145.3 23.7 L145.3 50.45 108.85 50.45 108.85 23.7 Q118.25 12.05 126.6 23.7 136.0 12.0 145.3 23.7 M132.55 47.7 L136.95 47.7 136.95 24.55 Q134.75 21.05 132.55 24.55 L132.55 47.7 M116.2 47.7 L120.6 47.7 120.6 24.55 Q118.4 21.05 116.2 24.55 L116.2 47.7" fill="#1c0615" fill-rule="evenodd" stroke="none"/>
    <path d="M132.55 47.7 L132.55 24.55 Q134.75 21.05 136.95 24.55 L136.95 47.7 132.55 47.7 M116.2 47.7 L116.2 24.55 Q118.4 21.05 120.6 24.55 L120.6 47.7 116.2 47.7" fill="#321495" fill-rule="evenodd" stroke="none"/>
    <path d="M104.1 62.6 L104.1 20.9 Q106.7 10.45 117.8 3.55 M126.3 10.1 Q126.15 9.4 125.8 9.95 L125.4 10.15 125.1 10.4 Q124.25 11.35 123.85 12.4 123.25 13.95 123.4 15.7 123.55 16.95 124.25 17.6 L124.55 18.05 Q124.9 18.95 125.55 19.65 L126.1 20.0 126.65 20.15 127.75 19.25 128.5 18.1 128.85 17.45 129.2 16.35 Q129.55 15.5 129.55 14.2 L129.55 13.95 129.35 11.55 129.25 11.25 128.5 10.3 128.25 10.1 Q127.5 9.3 126.0 9.15 M123.15 13.95 Q122.35 12.8 121.2 12.9 L120.9 13.0 119.4 13.45 119.0 13.5 Q118.45 13.6 118.1 13.95 L116.25 14.65 115.85 14.8 114.9 15.4 M129.55 14.2 Q130.5 13.3 131.75 12.95 L132.0 13.0 133.85 14.3 Q134.85 14.9 136.5 15.05 L137.45 15.25 138.35 15.4 M150.2 20.95 Q148.2 11.1 138.0 3.55 M110.45 52.5 L122.25 52.5 133.9 52.5 143.1 52.5 M104.1 64.9 L150.2 64.9" fill="none" stroke="#43233a" stroke-linecap="round" stroke-linejoin="round" stroke-width="0.05"/>
    <path d="M108.85 23.7 L108.85 20.4 Q126.4 -5.8 145.3 20.4 L145.3 23.7 145.3 50.45 145.3 59.3 141.8 62.6 150.2 62.6 M132.55 47.7 L132.55 24.55 Q134.75 21.05 136.95 24.55 L136.95 47.7 132.55 47.7 M108.85 50.45 L108.85 58.15 113.55 62.6 141.8 62.6 M116.2 47.7 L116.2 24.55 Q118.4 21.05 120.6 24.55 L120.6 47.7 116.2 47.7 M108.85 23.7 L108.85 50.45 145.3 50.45 M113.55 62.6 L104.1 62.6 M145.3 23.7 Q136.0 12.0 126.6 23.7 118.25 12.05 108.85 23.7" fill="none" stroke="#000000" stroke-linecap="round" stroke-linejoin="round" stroke-width="0.05"/>
    <path d="M123.8 70.65 Q123.8 69.15 124.1 67.65 L124.45 67.55 128.3 67.8 129.15 68.0 Q130.25 68.1 130.55 69.05 L130.8 69.35 Q131.65 70.05 131.8 70.9 L132.0 71.5 127.9 71.35 127.55 71.25 126.55 71.35 126.0 71.5 Q126.0 72.35 126.9 72.75 L127.3 72.9 Q128.75 73.75 129.2 75.1 L129.8 76.25 127.25 76.0 Q126.35 75.85 126.7 76.8 127.15 77.95 128.25 78.0 M108.9 69.7 L108.95 67.95 Q108.95 67.4 109.8 67.45 L110.8 67.45 114.25 67.3 Q116.25 67.25 116.35 69.1 L116.35 69.7 116.3 71.5 116.2 72.4 110.45 71.8 Q108.95 71.9 108.75 73.25 L108.85 73.6 Q109.15 74.45 110.45 74.25 112.2 74.0 113.2 74.65 L113.4 75.05 113.5 75.4 113.95 76.25 Q112.15 76.05 110.95 77.0 110.8 77.15 110.9 77.35 L111.15 77.7 M139.0 70.9 Q137.6 70.95 137.0 70.35 136.65 69.85 136.95 69.05 L137.5 67.65 137.75 67.45 140.55 67.15 141.2 67.25 142.8 67.45 143.05 67.65 Q143.65 68.8 143.55 70.3 143.5 71.25 143.75 72.1 143.95 72.7 143.4 72.75 L142.5 72.85 141.2 72.95 139.75 73.25 Q139.65 73.3 139.7 73.55 139.8 74.25 140.95 74.55 141.9 74.8 142.15 75.95 142.35 77.25 140.95 77.15" fill="none" stroke="#1c0615" stroke-linecap="round" stroke-linejoin="round" stroke-width="0.05"/>
    <path d="M150.0 20.85 L150.0 3.55 163.75 3.55 Q152.6 10.45 150.0 20.85 152.6 10.45 163.75 3.55 L183.95 3.55 191.25 3.55 196.1 3.55 196.1 20.9 196.1 63.0 Q193.2 76.25 186.45 79.75 L185.05 79.8 185.75 78.95 Q192.05 70.85 192.05 59.3 192.05 50.35 188.15 43.35 L188.15 33.75 Q192.05 30.1 192.05 25.35 192.05 19.4 185.35 13.05 180.05 8.0 173.55 7.0 167.1 8.0 161.8 13.05 155.1 19.4 155.1 25.35 155.1 30.1 158.95 33.75 L158.95 43.35 Q155.1 50.35 155.1 59.3 155.1 70.85 161.4 78.95 L161.9 79.55 159.9 79.55 Q151.7 75.05 150.0 63.3 L150.0 20.85 M196.1 20.9 Q194.1 11.1 183.95 3.55 194.1 11.1 196.1 20.9" fill="#301125" fill-rule="evenodd" stroke="none"/>
    <path d="M196.1 63.0 L196.1 79.55 196.1 81.3 191.25 81.3 183.7 81.3 185.05 79.8 186.45 79.75 Q193.2 76.25 196.1 63.0 M163.45 81.3 L150.0 81.3 150.0 79.55 150.0 63.3 Q151.7 75.05 159.9 79.55 L161.9 79.55 163.45 81.3" fill="#280a1e" fill-rule="evenodd" stroke="none"/>
    <path d="M173.65 20.65 Q176.0 20.65 177.6 22.15 179.25 23.7 179.25 25.85 179.25 27.95 177.6 29.45 176.0 31.0 173.65 31.0 171.4 31.0 169.85 29.45 168.2 27.95 168.2 25.85 168.2 23.7 169.85 22.15 171.4 20.65 173.65 20.65" fill="#000000" fill-rule="evenodd" stroke="none"/>
    <path d="M183.7 81.3 L182.3 81.3 165.05 81.3 163.45 81.3 161.9 79.55 161.4 78.95 Q155.1 70.85 155.1 59.3 155.1 50.35 158.95 43.35 L158.95 33.75 Q155.1 30.1 155.1 25.35 155.1 19.4 161.8 13.05 167.1 8.0 173.55 7.0 180.05 8.0 185.35 13.05 192.05 19.4 192.05 25.35 192.05 30.1 188.15 33.75 L188.15 43.35 Q192.05 50.35 192.05 59.3 192.05 70.85 185.75 78.95 L185.05 79.8 183.7 81.3 M182.3 81.3 L183.45 79.8 184.0 79.0 Q189.4 71.15 189.4 59.8 189.4 51.15 186.05 44.3 L186.05 34.9 Q189.4 31.35 189.4 26.75 189.4 20.95 183.7 14.8 179.15 9.8 173.6 8.8 168.2 9.8 163.75 14.8 157.95 20.95 157.95 26.75 157.95 31.35 161.3 34.9 L161.3 44.3 Q157.95 51.15 157.95 59.8 157.95 71.15 163.3 79.0 L163.75 79.55 165.05 81.3 163.75 79.55 163.3 79.0 Q157.95 71.15 157.95 59.8 157.95 51.15 161.3 44.3 L161.3 34.9 Q157.95 31.35 157.95 26.75 157.95 20.95 163.75 14.8 168.2 9.8 173.6 8.8 179.15 9.8 183.7 14.8 189.4 20.95 189.4 26.75 189.4 31.35 186.05 34.9 L186.05 44.3 Q189.4 51.15 189.4 59.8 189.4 71.15 184.0 79.0 L183.45 79.8 182.3 81.3 M173.65 20.65 Q171.4 20.65 169.85 22.15 168.2 23.7 168.2 25.85 168.2 27.95 169.85 29.45 171.4 31.0 173.65 31.0 176.0 31.0 177.6 29.45 179.25 27.95 179.25 25.85 179.25 23.7 177.6 22.15 176.0 20.65 173.65 20.65 M173.6 16.65 Q169.5 16.65 166.6 19.4 163.7 22.15 163.7 25.95 163.7 29.8 166.6 32.55 169.5 35.25 173.6 35.25 177.7 35.25 180.6 32.55 183.5 29.8 183.5 25.95 183.5 22.15 180.6 19.4 177.7 16.65 173.6 16.65 177.7 16.65 180.6 19.4 183.5 22.15 183.5 25.95 183.5 29.8 180.6 32.55 177.7 35.25 173.6 35.25 169.5 35.25 166.6 32.55 163.7 29.8 163.7 25.95 163.7 22.15 166.6 19.4 169.5 16.65 173.6 16.65 M184.2 62.2 L184.2 56.65 184.2 62.2 M166.95 49.4 Q168.3 44.5 173.7 44.7 174.8 44.9 175.5 45.5 179.95 49.25 174.0 51.5 L173.25 50.85 174.0 51.5 Q179.95 49.25 175.5 45.5 174.8 44.9 173.7 44.7 168.3 44.5 166.95 49.4 L167.9 53.25 167.15 53.5 Q162.15 55.65 162.3 61.1 162.15 55.65 167.15 53.5 L167.9 53.25 166.95 49.4 Q162.5 47.2 166.65 43.1 L167.3 42.55 166.65 43.1 Q162.5 47.2 166.95 49.4 M168.15 53.6 L168.1 53.35 167.9 53.25 168.15 53.6 Q172.8 57.9 179.75 56.4 L180.15 56.5 180.25 63.35 168.95 63.95 169.8 69.45 Q173.7 68.95 177.65 69.55 L177.55 72.3 173.55 73.2 Q173.15 76.2 173.25 79.4 173.15 76.2 173.55 73.2 L177.55 72.3 177.65 69.55 Q173.7 68.95 169.8 69.45 L168.95 63.95 180.25 63.35 180.15 56.5 179.75 56.4 Q172.8 57.9 168.15 53.6 L167.9 53.25 168.1 53.35 168.15 53.6 M183.15 47.65 L182.8 48.9 Q184.2 49.3 184.6 50.7 L184.5 50.9 Q184.2 51.95 183.05 52.2 184.2 51.95 184.5 50.9 L184.6 50.7 Q184.2 49.3 182.8 48.9 L183.15 47.65 M164.0 67.75 L163.8 67.0 Q163.0 65.7 161.7 66.1 L161.35 67.5 161.7 66.1 Q163.0 65.7 163.8 67.0 L164.0 67.75" fill="url(#gradient1)" fill-rule="evenodd" stroke="none"/>
    <path d="M150.0 20.85 Q152.6 10.45 163.75 3.55 M150.0 63.3 L150.0 20.85 M183.95 3.55 Q194.1 11.1 196.1 20.9" fill="none" stroke="#43233a" stroke-linecap="round" stroke-linejoin="round" stroke-width="0.05"/>
    <path d="M173.6 16.65 Q177.7 16.65 180.6 19.4 183.5 22.15 183.5 25.95 183.5 29.8 180.6 32.55 177.7 35.25 173.6 35.25 169.5 35.25 166.6 32.55 163.7 29.8 163.7 25.95 163.7 22.15 166.6 19.4 169.5 16.65 173.6 16.65 M196.1 63.0 Q193.2 76.25 186.45 79.75 M159.9 79.55 Q151.7 75.05 150.0 63.3" fill="none" stroke="#000000" stroke-linecap="round" stroke-linejoin="round" stroke-width="0.05"/>
    <path d="M165.05 81.3 L163.75 79.55 163.3 79.0 Q157.95 71.15 157.95 59.8 157.95 51.15 161.3 44.3 L161.3 34.9 Q157.95 31.35 157.95 26.75 157.95 20.95 163.75 14.8 168.2 9.8 173.6 8.8 179.15 9.8 183.7 14.8 189.4 20.95 189.4 26.75 189.4 31.35 186.05 34.9 L186.05 44.3 Q189.4 51.15 189.4 59.8 189.4 71.15 184.0 79.0 L183.45 79.8 182.3 81.3" fill="none" stroke="#610fb5" stroke-linecap="round" stroke-linejoin="round" stroke-width="0.05"/>
    <path d="M185.05 79.8 L185.75 78.95 Q192.05 70.85 192.05 59.3 192.05 50.35 188.15 43.35 L188.15 33.75 Q192.05 30.1 192.05 25.35 192.05 19.4 185.35 13.05 180.05 8.0 173.55 7.0 167.1 8.0 161.8 13.05 155.1 19.4 155.1 25.35 155.1 30.1 158.95 33.75 L158.95 43.35 Q155.1 50.35 155.1 59.3 155.1 70.85 161.4 78.95 L161.9 79.55 M162.3 61.1 Q162.15 55.65 167.15 53.5 L167.9 53.25 166.95 49.4 Q162.5 47.2 166.65 43.1 L167.3 42.55 M183.05 52.2 Q184.2 51.95 184.5 50.9 L184.6 50.7 Q184.2 49.3 182.8 48.9 L183.15 47.65 M173.25 79.4 Q173.15 76.2 173.55 73.2 L177.55 72.3 177.65 69.55 Q173.7 68.95 169.8 69.45 L168.95 63.95 180.25 63.35 180.15 56.5 179.75 56.4 Q172.8 57.9 168.15 53.6 L167.9 53.25 168.1 53.35 168.15 53.6 M173.25 50.85 L174.0 51.5 Q179.95 49.25 175.5 45.5 174.8 44.9 173.7 44.7 168.3 44.5 166.95 49.4 M184.2 56.65 L184.2 62.2 M161.35 67.5 L161.7 66.1 Q163.0 65.7 163.8 67.0 L164.0 67.75" fill="none" stroke="#000000" stroke-linecap="round" stroke-linejoin="round" stroke-width="1.0"/>
    <path d="M241.45 20.85 L241.45 3.55 255.2 3.55 275.4 3.55 282.7 3.55 287.55 3.55 287.55 20.9 287.55 62.55 279.2 62.55 282.7 59.25 282.7 50.4 282.7 23.7 282.7 20.4 Q263.75 -5.85 246.2 20.4 L246.2 23.7 246.2 50.4 246.2 58.1 250.95 62.55 241.45 62.55 241.45 20.85 Q244.0 10.45 255.2 3.55 244.0 10.45 241.45 20.85 M275.4 3.55 Q285.55 11.1 287.55 20.9 285.55 11.1 275.4 3.55" fill="#301125" fill-rule="evenodd" stroke="none"/>
    <path d="M287.55 62.55 L287.55 64.9 287.55 81.25 282.7 81.25 241.45 81.25 241.45 64.9 241.45 62.55 250.95 62.55 279.2 62.55 287.55 62.55 M266.95 14.15 Q267.85 13.3 269.1 12.9 L269.4 13.0 Q270.1 13.65 271.25 14.3 272.2 14.9 273.85 15.05 L274.85 15.2 275.7 15.35 274.85 15.2 273.85 15.05 Q272.2 14.9 271.25 14.3 270.1 13.65 269.4 13.0 L269.1 12.9 Q267.85 13.3 266.95 14.15 266.95 15.45 266.6 16.35 L266.2 17.45 265.9 18.05 265.15 19.2 264.0 20.1 263.5 20.0 262.95 19.6 261.9 18.0 261.65 17.6 Q260.9 16.95 260.75 15.7 260.6 13.9 261.2 12.4 261.65 11.3 262.45 10.35 L262.8 10.15 263.15 9.9 Q263.55 9.35 263.7 10.05 263.55 9.35 263.15 9.9 L262.8 10.15 262.45 10.35 Q261.65 11.3 261.2 12.4 260.6 13.9 260.75 15.7 260.9 16.95 261.65 17.6 L261.9 18.0 262.95 19.6 263.5 20.0 264.0 20.1 265.15 19.2 265.9 18.05 266.2 17.45 266.6 16.35 Q266.95 15.45 266.95 14.15 L266.9 13.9 266.7 11.5 266.65 11.2 265.9 10.25 265.6 10.05 Q264.85 9.25 263.4 9.15 264.85 9.25 265.6 10.05 L265.9 10.25 266.65 11.2 266.7 11.5 266.9 13.9 266.95 14.15 M252.25 15.35 L253.2 14.75 253.6 14.6 Q254.8 14.35 255.45 13.9 255.8 13.6 256.35 13.45 L256.75 13.4 258.25 12.95 258.6 12.85 Q259.7 12.75 260.5 13.9 259.7 12.75 258.6 12.85 L258.25 12.95 256.75 13.4 256.35 13.45 Q255.8 13.6 255.45 13.9 254.8 14.35 253.6 14.6 L253.2 14.75 252.25 15.35 M246.2 23.7 L246.2 20.4 Q263.75 -5.85 282.7 20.4 L282.7 23.7 Q273.35 11.95 263.95 23.7 255.65 12.05 246.2 23.7 M248.5 77.65 L248.25 77.35 Q248.15 77.1 248.3 76.95 249.55 76.0 251.35 76.25 251.05 75.9 250.9 75.35 L250.8 75.0 250.55 74.6 Q249.6 73.95 247.85 74.25 246.55 74.45 246.2 73.6 L246.1 73.25 Q246.3 71.85 247.85 71.75 250.9 71.6 253.55 72.35 L253.65 71.45 253.7 69.65 253.7 69.05 Q253.6 67.2 251.65 67.25 L248.15 67.4 247.2 67.4 Q246.3 67.35 246.3 67.9 L246.25 69.65 246.3 67.9 Q246.3 67.35 247.2 67.4 L248.15 67.4 251.65 67.25 Q253.6 67.2 253.7 69.05 L253.7 69.65 253.65 71.45 253.55 72.35 Q250.9 71.6 247.85 71.75 246.3 71.85 246.1 73.25 L246.2 73.6 Q246.55 74.45 247.85 74.25 249.6 73.95 250.55 74.6 L250.8 75.0 250.9 75.35 Q251.05 75.9 251.35 76.25 249.55 76.0 248.3 76.95 248.15 77.1 248.25 77.35 L248.5 77.65 M265.6 78.0 Q264.5 77.9 264.05 76.8 263.7 75.8 264.6 75.95 L267.2 76.25 266.6 75.05 Q266.1 73.7 264.65 72.9 L264.25 72.7 Q263.4 72.3 263.4 71.45 L263.85 71.35 264.9 71.25 265.25 71.35 269.4 71.45 269.15 70.85 Q269.0 70.05 268.15 69.35 L267.9 69.0 Q267.65 68.05 266.55 67.95 L265.65 67.75 261.8 67.55 261.45 67.65 Q261.15 69.1 261.15 70.6 261.15 69.1 261.45 67.65 L261.8 67.55 265.65 67.75 266.55 67.95 Q267.65 68.05 267.9 69.0 L268.15 69.35 Q269.0 70.05 269.15 70.85 L269.4 71.45 265.25 71.35 264.9 71.25 263.85 71.35 263.4 71.45 Q263.4 72.3 264.25 72.7 L264.65 72.9 Q266.1 73.7 266.6 75.05 L267.2 76.25 264.6 75.95 Q263.7 75.8 264.05 76.8 264.5 77.9 265.6 78.0 M278.3 77.1 Q279.7 77.2 279.5 75.9 279.3 74.75 278.3 74.5 277.2 74.25 277.05 73.55 277.0 73.3 277.1 73.25 L278.6 72.95 279.85 72.85 280.8 72.7 Q281.3 72.65 281.1 72.05 280.85 71.2 280.9 70.25 281.0 68.8 280.4 67.65 L280.15 67.4 278.6 67.2 277.95 67.15 275.15 67.4 Q274.95 67.45 274.9 67.65 L274.35 69.0 Q274.0 69.8 274.4 70.3 275.0 70.95 276.35 70.85 275.0 70.95 274.4 70.3 274.0 69.8 274.35 69.0 L274.9 67.65 Q274.95 67.45 275.15 67.4 L277.95 67.15 278.6 67.2 280.15 67.4 280.4 67.65 Q281.0 68.8 280.9 70.25 280.85 71.2 281.1 72.05 281.3 72.65 280.8 72.7 L279.85 72.85 278.6 72.95 277.1 73.25 Q277.0 73.3 277.05 73.55 277.2 74.25 278.3 74.5 279.3 74.75 279.5 75.9 279.7 77.2 278.3 77.1 M287.55 64.9 L241.45 64.9 287.55 64.9" fill="#280a1e" fill-rule="evenodd" stroke="none"/>
    <path d="M282.7 50.4 L282.7 59.25 279.2 62.55 250.95 62.55 246.2 58.1 246.2 50.4 282.7 50.4 M280.45 52.45 L271.3 52.45 259.6 52.45 247.85 52.45 259.6 52.45 271.3 52.45 280.45 52.45" fill="#22091b" fill-rule="evenodd" stroke="none"/>
    <path d="M282.7 23.7 L282.7 50.4 246.2 50.4 246.2 23.7 Q255.65 12.05 263.95 23.7 273.35 11.95 282.7 23.7 M253.55 47.65 L258.0 47.65 258.0 24.5 Q255.75 21.05 253.55 24.5 L253.55 47.65 M269.9 47.65 L274.35 47.65 274.35 24.5 Q272.1 21.05 269.9 24.5 L269.9 47.65" fill="#1c0615" fill-rule="evenodd" stroke="none"/>
    <path d="M253.55 47.65 L253.55 24.5 Q255.75 21.05 258.0 24.5 L258.0 47.65 253.55 47.65 M269.9 47.65 L269.9 24.5 Q272.1 21.05 274.35 24.5 L274.35 47.65 269.9 47.65" fill="#321495" fill-rule="evenodd" stroke="none"/>
    <path d="M241.45 62.55 L241.45 20.85 Q244.0 10.45 255.2 3.55 M263.7 10.05 Q263.55 9.35 263.15 9.9 L262.8 10.15 262.45 10.35 Q261.65 11.3 261.2 12.4 260.6 13.9 260.75 15.7 260.9 16.95 261.65 17.6 L261.9 18.0 262.95 19.6 263.5 20.0 264.0 20.1 265.15 19.2 265.9 18.05 266.2 17.45 266.6 16.35 Q266.95 15.45 266.95 14.15 L266.9 13.9 266.7 11.5 266.65 11.2 265.9 10.25 265.6 10.05 Q264.85 9.25 263.4 9.15 M260.5 13.9 Q259.7 12.75 258.6 12.85 L258.25 12.95 256.75 13.4 256.35 13.45 Q255.8 13.6 255.45 13.9 254.8 14.35 253.6 14.6 L253.2 14.75 252.25 15.35 M275.7 15.35 L274.85 15.2 273.85 15.05 Q272.2 14.9 271.25 14.3 270.1 13.65 269.4 13.0 L269.1 12.9 Q267.85 13.3 266.95 14.15 M287.55 20.9 Q285.55 11.1 275.4 3.55 M247.85 52.45 L259.6 52.45 271.3 52.45 280.45 52.45 M241.45 64.9 L287.55 64.9" fill="none" stroke="#43233a" stroke-linecap="round" stroke-linejoin="round" stroke-width="0.05"/>
    <path d="M246.2 23.7 L246.2 20.4 Q263.75 -5.85 282.7 20.4 L282.7 23.7 282.7 50.4 282.7 59.25 279.2 62.55 287.55 62.55 M253.55 47.65 L253.55 24.5 Q255.75 21.05 258.0 24.5 L258.0 47.65 253.55 47.65 M269.9 47.65 L269.9 24.5 Q272.1 21.05 274.35 24.5 L274.35 47.65 269.9 47.65 M250.95 62.55 L279.2 62.55 M246.2 23.7 L246.2 50.4 282.7 50.4 M246.2 50.4 L246.2 58.1 250.95 62.55 241.45 62.55 M282.7 23.7 Q273.35 11.95 263.95 23.7 255.65 12.05 246.2 23.7" fill="none" stroke="#000000" stroke-linecap="round" stroke-linejoin="round" stroke-width="0.05"/>
    <path d="M246.25 69.65 L246.3 67.9 Q246.3 67.35 247.2 67.4 L248.15 67.4 251.65 67.25 Q253.6 67.2 253.7 69.05 L253.7 69.65 253.65 71.45 253.55 72.35 Q250.9 71.6 247.85 71.75 246.3 71.85 246.1 73.25 L246.2 73.6 Q246.55 74.45 247.85 74.25 249.6 73.95 250.55 74.6 L250.8 75.0 250.9 75.35 Q251.05 75.9 251.35 76.25 249.55 76.0 248.3 76.95 248.15 77.1 248.25 77.35 L248.5 77.65 M261.15 70.6 Q261.15 69.1 261.45 67.65 L261.8 67.55 265.65 67.75 266.55 67.95 Q267.65 68.05 267.9 69.0 L268.15 69.35 Q269.0 70.05 269.15 70.85 L269.4 71.45 265.25 71.35 264.9 71.25 263.85 71.35 263.4 71.45 Q263.4 72.3 264.25 72.7 L264.65 72.9 Q266.1 73.7 266.6 75.05 L267.2 76.25 264.6 75.95 Q263.7 75.8 264.05 76.8 264.5 77.9 265.6 78.0 M276.35 70.85 Q275.0 70.95 274.4 70.3 274.0 69.8 274.35 69.0 L274.9 67.65 Q274.95 67.45 275.15 67.4 L277.95 67.15 278.6 67.2 280.15 67.4 280.4 67.65 Q281.0 68.8 280.9 70.25 280.85 71.2 281.1 72.05 281.3 72.65 280.8 72.7 L279.85 72.85 278.6 72.95 277.1 73.25 Q277.0 73.3 277.05 73.55 277.2 74.25 278.3 74.5 279.3 74.75 279.5 75.9 279.7 77.2 278.3 77.1" fill="none" stroke="#1c0615" stroke-linecap="round" stroke-linejoin="round" stroke-width="0.05"/>
    <path d="M287.5 20.9 L287.5 3.55 301.2 3.55 321.45 3.55 328.75 3.55 333.65 3.55 333.65 20.95 333.65 62.6 325.2 62.6 328.75 59.3 328.75 50.45 328.75 23.7 328.75 20.4 Q309.8 -5.8 292.25 20.4 L292.25 23.7 292.25 50.45 292.25 58.15 296.95 62.6 287.5 62.6 287.5 20.9 Q290.1 10.45 301.2 3.55 290.1 10.45 287.5 20.9 M321.45 3.55 Q331.6 11.1 333.65 20.95 331.6 11.1 321.45 3.55" fill="#301125" fill-rule="evenodd" stroke="none"/>
    <path d="M333.65 62.6 L333.65 64.9 333.65 81.3 328.75 81.3 287.5 81.3 287.5 64.9 287.5 62.6 296.95 62.6 325.2 62.6 333.65 62.6 M313.0 14.2 Q313.9 13.3 315.15 12.95 L315.45 13.0 317.3 14.3 Q318.25 14.9 319.9 15.05 L320.9 15.25 321.75 15.4 320.9 15.25 319.9 15.05 Q318.25 14.9 317.3 14.3 L315.45 13.0 315.15 12.95 Q313.9 13.3 313.0 14.2 313.0 15.5 312.6 16.35 L312.25 17.45 311.95 18.1 311.2 19.25 310.1 20.15 309.55 20.0 308.95 19.65 307.95 18.05 307.7 17.6 Q306.95 16.95 306.8 15.7 306.7 14.8 306.85 13.95 L307.25 12.4 Q307.7 11.35 308.5 10.4 308.65 10.2 308.85 10.15 L309.2 9.95 Q309.55 9.4 309.7 10.1 309.55 9.4 309.2 9.95 L308.85 10.15 Q308.65 10.2 308.5 10.4 307.7 11.35 307.25 12.4 L306.85 13.95 Q306.7 14.8 306.8 15.7 306.95 16.95 307.7 17.6 L307.95 18.05 308.95 19.65 309.55 20.0 310.1 20.15 311.2 19.25 311.95 18.1 312.25 17.45 312.6 16.35 Q313.0 15.5 313.0 14.2 L312.95 13.95 312.75 11.55 312.65 11.25 Q312.45 10.65 311.95 10.3 L311.65 10.1 Q310.9 9.3 309.45 9.15 310.9 9.3 311.65 10.1 L311.95 10.3 Q312.45 10.65 312.65 11.25 L312.75 11.55 312.95 13.95 313.0 14.2 M298.3 15.4 L299.3 14.8 299.65 14.65 301.5 13.95 Q301.85 13.6 302.4 13.5 L302.85 13.45 304.3 13.0 304.65 12.9 Q305.75 12.8 306.85 13.95 305.75 12.8 304.65 12.9 L304.3 13.0 302.85 13.45 302.4 13.5 Q301.85 13.6 301.5 13.95 L299.65 14.65 299.3 14.8 298.3 15.4 M292.25 23.7 L292.25 20.4 Q309.8 -5.8 328.75 20.4 L328.75 23.7 Q319.4 12.0 310.05 23.7 301.7 12.05 292.25 23.7 M311.65 78.0 Q310.55 77.95 310.15 76.8 309.75 75.85 310.7 76.0 L313.2 76.25 312.6 75.1 Q312.15 73.75 310.75 72.9 L310.3 72.75 Q309.45 72.35 309.45 71.5 L309.95 71.35 310.95 71.25 311.35 71.35 315.45 71.5 315.2 70.9 Q315.05 70.05 314.25 69.35 L313.95 69.05 Q313.7 68.1 312.55 68.0 L311.7 67.8 307.85 67.55 307.5 67.65 Q307.2 69.15 307.2 70.65 307.2 69.15 307.5 67.65 L307.85 67.55 311.7 67.8 312.55 68.0 Q313.7 68.1 313.95 69.05 L314.25 69.35 Q315.05 70.05 315.2 70.9 L315.45 71.5 311.35 71.35 310.95 71.25 309.95 71.35 309.45 71.5 Q309.45 72.35 310.3 72.75 L310.75 72.9 Q312.15 73.75 312.6 75.1 L313.2 76.25 310.7 76.0 Q309.75 75.85 310.15 76.8 310.55 77.95 311.65 78.0 M324.35 77.15 Q325.8 77.25 325.55 75.95 325.3 74.8 324.35 74.55 323.25 74.25 323.1 73.55 323.05 73.3 323.15 73.25 L324.6 72.95 325.9 72.85 326.85 72.75 Q327.35 72.7 327.15 72.1 L327.0 70.3 Q327.05 68.8 326.45 67.65 L326.25 67.45 324.6 67.25 324.0 67.15 321.15 67.45 320.95 67.65 320.4 69.05 Q320.05 69.85 320.4 70.35 321.0 70.95 322.4 70.9 321.0 70.95 320.4 70.35 320.05 69.85 320.4 69.05 L320.95 67.65 321.15 67.45 324.0 67.15 324.6 67.25 326.25 67.45 326.45 67.65 Q327.05 68.8 327.0 70.3 L327.15 72.1 Q327.35 72.7 326.85 72.75 L325.9 72.85 324.6 72.95 323.15 73.25 Q323.05 73.3 323.1 73.55 323.25 74.25 324.35 74.55 325.3 74.8 325.55 75.95 325.8 77.25 324.35 77.15 M294.4 77.0 Q295.6 76.05 297.4 76.25 L296.9 75.4 296.85 75.05 296.6 74.65 Q295.65 74.0 293.9 74.25 292.6 74.45 292.25 73.6 L292.15 73.25 Q292.35 71.9 293.9 71.8 296.9 71.6 299.6 72.4 L299.7 71.5 299.75 69.7 299.75 69.1 Q299.65 67.25 297.65 67.3 L294.2 67.45 293.25 67.45 Q292.35 67.4 292.35 67.95 L292.3 69.7 292.35 67.95 Q292.35 67.4 293.25 67.45 L294.2 67.45 297.65 67.3 Q299.65 67.25 299.75 69.1 L299.75 69.7 299.7 71.5 299.6 72.4 Q296.9 71.6 293.9 71.8 292.35 71.9 292.15 73.25 L292.25 73.6 Q292.6 74.45 293.9 74.25 295.65 74.0 296.6 74.65 L296.85 75.05 296.9 75.4 297.4 76.25 Q295.6 76.05 294.4 77.0 M333.65 64.9 L287.5 64.9 333.65 64.9" fill="#280a1e" fill-rule="evenodd" stroke="none"/>
    <path d="M328.75 50.45 L328.75 59.3 325.2 62.6 296.95 62.6 292.25 58.15 292.25 50.45 328.75 50.45 M326.5 52.5 L317.35 52.5 305.65 52.5 293.9 52.5 305.65 52.5 317.35 52.5 326.5 52.5" fill="#22091b" fill-rule="evenodd" stroke="none"/>
    <path d="M328.75 23.7 L328.75 50.45 292.25 50.45 292.25 23.7 Q301.7 12.05 310.05 23.7 319.4 12.0 328.75 23.7" fill="#1c0615" fill-rule="evenodd" stroke="none"/>
    <path d="M287.5 62.6 L287.5 20.9 Q290.1 10.45 301.2 3.55 M309.7 10.1 Q309.55 9.4 309.2 9.95 L308.85 10.15 Q308.65 10.2 308.5 10.4 307.7 11.35 307.25 12.4 L306.85 13.95 Q306.7 14.8 306.8 15.7 306.95 16.95 307.7 17.6 L307.95 18.05 308.95 19.65 309.55 20.0 310.1 20.15 311.2 19.25 311.95 18.1 312.25 17.45 312.6 16.35 Q313.0 15.5 313.0 14.2 L312.95 13.95 312.75 11.55 312.65 11.25 Q312.45 10.65 311.95 10.3 L311.65 10.1 Q310.9 9.3 309.45 9.15 M306.85 13.95 Q305.75 12.8 304.65 12.9 L304.3 13.0 302.85 13.45 302.4 13.5 Q301.85 13.6 301.5 13.95 L299.65 14.65 299.3 14.8 298.3 15.4 M321.75 15.4 L320.9 15.25 319.9 15.05 Q318.25 14.9 317.3 14.3 L315.45 13.0 315.15 12.95 Q313.9 13.3 313.0 14.2 M333.65 20.95 Q331.6 11.1 321.45 3.55 M293.9 52.5 L305.65 52.5 317.35 52.5 326.5 52.5 M287.5 64.9 L333.65 64.9" fill="none" stroke="#43233a" stroke-linecap="round" stroke-linejoin="round" stroke-width="0.05"/>
    <path d="M292.25 23.7 L292.25 20.4 Q309.8 -5.8 328.75 20.4 L328.75 23.7 328.75 50.45 328.75 59.3 325.2 62.6 333.65 62.6 M292.25 23.7 L292.25 50.45 328.75 50.45 M292.25 50.45 L292.25 58.15 296.95 62.6 325.2 62.6 M296.95 62.6 L287.5 62.6 M328.75 23.7 Q319.4 12.0 310.05 23.7 301.7 12.05 292.25 23.7" fill="none" stroke="#000000" stroke-linecap="round" stroke-linejoin="round" stroke-width="0.05"/>
    <path d="M322.4 70.9 Q321.0 70.95 320.4 70.35 320.05 69.85 320.4 69.05 L320.95 67.65 321.15 67.45 324.0 67.15 324.6 67.25 326.25 67.45 326.45 67.65 Q327.05 68.8 327.0 70.3 L327.15 72.1 Q327.35 72.7 326.85 72.75 L325.9 72.85 324.6 72.95 323.15 73.25 Q323.05 73.3 323.1 73.55 323.25 74.25 324.35 74.55 325.3 74.8 325.55 75.95 325.8 77.25 324.35 77.15 M307.2 70.65 Q307.2 69.15 307.5 67.65 L307.85 67.55 311.7 67.8 312.55 68.0 Q313.7 68.1 313.95 69.05 L314.25 69.35 Q315.05 70.05 315.2 70.9 L315.45 71.5 311.35 71.35 310.95 71.25 309.95 71.35 309.45 71.5 Q309.45 72.35 310.3 72.75 L310.75 72.9 Q312.15 73.75 312.6 75.1 L313.2 76.25 310.7 76.0 Q309.75 75.85 310.15 76.8 310.55 77.95 311.65 78.0 M292.3 69.7 L292.35 67.95 Q292.35 67.4 293.25 67.45 L294.2 67.45 297.65 67.3 Q299.65 67.25 299.75 69.1 L299.75 69.7 299.7 71.5 299.6 72.4 Q296.9 71.6 293.9 71.8 292.35 71.9 292.15 73.25 L292.25 73.6 Q292.6 74.45 293.9 74.25 295.65 74.0 296.6 74.65 L296.85 75.05 296.9 75.4 297.4 76.25 Q295.6 76.05 294.4 77.0" fill="none" stroke="#1c0615" stroke-linecap="round" stroke-linejoin="round" stroke-width="0.05"/>
    <path d="M333.15 20.85 L333.15 3.55 346.9 3.55 367.1 3.55 374.4 3.55 379.25 3.55 379.25 20.9 379.25 62.55 370.9 62.55 374.4 59.25 374.4 50.4 374.4 23.7 374.4 20.4 Q355.45 -5.85 337.9 20.4 L337.9 23.7 337.9 50.4 337.9 58.1 342.65 62.55 333.15 62.55 333.15 20.85 Q335.7 10.45 346.9 3.55 335.7 10.45 333.15 20.85 M367.1 3.55 Q377.25 11.1 379.25 20.9 377.25 11.1 367.1 3.55" fill="#301125" fill-rule="evenodd" stroke="none"/>
    <path d="M379.25 62.55 L379.25 64.9 379.25 81.25 374.4 81.25 333.15 81.25 333.15 64.9 333.15 62.55 342.65 62.55 370.9 62.55 379.25 62.55 M358.65 14.15 Q359.55 13.3 360.8 12.9 L361.1 13.0 Q361.8 13.65 362.95 14.3 363.9 14.9 365.55 15.05 L366.55 15.2 367.4 15.35 366.55 15.2 365.55 15.05 Q363.9 14.9 362.95 14.3 361.8 13.65 361.1 13.0 L360.8 12.9 Q359.55 13.3 358.65 14.15 358.65 15.45 358.3 16.35 L357.9 17.45 357.6 18.05 356.85 19.2 Q356.5 19.75 355.7 20.1 L355.2 20.0 354.65 19.6 353.6 18.0 353.35 17.6 Q352.6 16.95 352.45 15.7 352.3 13.9 352.9 12.4 353.35 11.3 354.15 10.35 L354.5 10.15 354.85 9.9 Q355.25 9.35 355.4 10.05 355.25 9.35 354.85 9.9 L354.5 10.15 354.15 10.35 Q353.35 11.3 352.9 12.4 352.3 13.9 352.45 15.7 352.6 16.95 353.35 17.6 L353.6 18.0 354.65 19.6 355.2 20.0 355.7 20.1 Q356.5 19.75 356.85 19.2 L357.6 18.05 357.9 17.45 358.3 16.35 Q358.65 15.45 358.65 14.15 L358.6 13.9 358.4 11.5 358.35 11.2 357.6 10.25 357.3 10.05 Q356.55 9.25 355.1 9.15 356.55 9.25 357.3 10.05 L357.6 10.25 358.35 11.2 358.4 11.5 358.6 13.9 358.65 14.15 M343.95 15.35 L344.9 14.75 345.3 14.6 Q346.5 14.35 347.15 13.9 347.5 13.6 348.05 13.45 L348.45 13.4 349.95 12.95 350.3 12.85 Q351.4 12.75 352.2 13.9 351.4 12.75 350.3 12.85 L349.95 12.95 348.45 13.4 348.05 13.45 Q347.5 13.6 347.15 13.9 346.5 14.35 345.3 14.6 L344.9 14.75 343.95 15.35 M337.9 23.7 L337.9 20.4 Q355.45 -5.85 374.4 20.4 L374.4 23.7 Q365.05 11.95 355.65 23.7 347.35 12.05 337.9 23.7 M340.2 77.65 L339.95 77.35 Q339.85 77.1 340.0 76.95 341.25 76.0 343.05 76.25 342.75 75.9 342.6 75.35 L342.5 75.0 342.25 74.6 Q341.3 73.95 339.55 74.25 338.25 74.45 337.9 73.6 L337.8 73.25 Q338.0 71.85 339.55 71.75 342.6 71.6 345.25 72.35 L345.35 71.45 345.4 69.65 345.4 69.05 Q345.3 67.2 343.35 67.25 L339.85 67.4 338.9 67.4 Q338.0 67.35 338.0 67.9 L337.95 69.65 338.0 67.9 Q338.0 67.35 338.9 67.4 L339.85 67.4 343.35 67.25 Q345.3 67.2 345.4 69.05 L345.4 69.65 345.35 71.45 345.25 72.35 Q342.6 71.6 339.55 71.75 338.0 71.85 337.8 73.25 L337.9 73.6 Q338.25 74.45 339.55 74.25 341.3 73.95 342.25 74.6 L342.5 75.0 342.6 75.35 Q342.75 75.9 343.05 76.25 341.25 76.0 340.0 76.95 339.85 77.1 339.95 77.35 L340.2 77.65 M357.3 78.0 Q356.2 77.9 355.75 76.8 355.4 75.8 356.3 75.95 L358.9 76.25 358.3 75.05 Q357.8 73.7 356.35 72.9 L355.95 72.7 Q355.1 72.3 355.1 71.45 L355.55 71.35 356.6 71.25 356.95 71.35 361.1 71.45 360.85 70.85 Q360.7 70.05 359.85 69.35 L359.6 69.0 Q359.35 68.05 358.25 67.95 L357.35 67.75 353.5 67.55 353.15 67.65 Q352.85 69.1 352.85 70.6 352.85 69.1 353.15 67.65 L353.5 67.55 357.35 67.75 358.25 67.95 Q359.35 68.05 359.6 69.0 L359.85 69.35 Q360.7 70.05 360.85 70.85 L361.1 71.45 356.95 71.35 356.6 71.25 355.55 71.35 355.1 71.45 Q355.1 72.3 355.95 72.7 L356.35 72.9 Q357.8 73.7 358.3 75.05 L358.9 76.25 356.3 75.95 Q355.4 75.8 355.75 76.8 356.2 77.9 357.3 78.0 M370.0 77.1 Q371.4 77.2 371.2 75.9 371.0 74.75 370.0 74.5 368.9 74.25 368.75 73.55 368.7 73.3 368.8 73.25 L370.3 72.95 371.55 72.85 372.5 72.7 Q373.0 72.65 372.8 72.05 372.55 71.2 372.6 70.25 372.7 68.8 372.1 67.65 L371.85 67.4 370.3 67.2 369.65 67.15 366.85 67.4 Q366.65 67.45 366.6 67.65 L366.05 69.0 Q365.7 69.8 366.1 70.3 366.7 70.95 368.05 70.85 366.7 70.95 366.1 70.3 365.7 69.8 366.05 69.0 L366.6 67.65 Q366.65 67.45 366.85 67.4 L369.65 67.15 370.3 67.2 371.85 67.4 372.1 67.65 Q372.7 68.8 372.6 70.25 372.55 71.2 372.8 72.05 373.0 72.65 372.5 72.7 L371.55 72.85 370.3 72.95 368.8 73.25 Q368.7 73.3 368.75 73.55 368.9 74.25 370.0 74.5 371.0 74.75 371.2 75.9 371.4 77.2 370.0 77.1 M379.25 64.9 L333.15 64.9 379.25 64.9" fill="#280a1e" fill-rule="evenodd" stroke="none"/>
    <path d="M374.4 50.4 L374.4 59.25 370.9 62.55 342.65 62.55 337.9 58.1 337.9 50.4 374.4 50.4 M372.15 52.45 L363.0 52.45 351.3 52.45 339.55 52.45 351.3 52.45 363.0 52.45 372.15 52.45" fill="#22091b" fill-rule="evenodd" stroke="none"/>
    <path d="M374.4 23.7 L374.4 50.4 337.9 50.4 337.9 23.7 Q347.35 12.05 355.65 23.7 365.05 11.95 374.4 23.7 M345.25 47.65 L349.7 47.65 349.7 24.5 Q347.45 21.05 345.25 24.5 L345.25 47.65 M361.6 47.65 L366.05 47.65 366.05 24.5 Q363.8 21.05 361.6 24.5 L361.6 47.65" fill="#1c0615" fill-rule="evenodd" stroke="none"/>
    <path d="M345.25 47.65 L345.25 24.5 Q347.45 21.05 349.7 24.5 L349.7 47.65 345.25 47.65 M361.6 47.65 L361.6 24.5 Q363.8 21.05 366.05 24.5 L366.05 47.65 361.6 47.65" fill="#321495" fill-rule="evenodd" stroke="none"/>
    <path d="M333.15 62.55 L333.15 20.85 Q335.7 10.45 346.9 3.55 M355.4 10.05 Q355.25 9.35 354.85 9.9 L354.5 10.15 354.15 10.35 Q353.35 11.3 352.9 12.4 352.3 13.9 352.45 15.7 352.6 16.95 353.35 17.6 L353.6 18.0 354.65 19.6 355.2 20.0 355.7 20.1 Q356.5 19.75 356.85 19.2 L357.6 18.05 357.9 17.45 358.3 16.35 Q358.65 15.45 358.65 14.15 L358.6 13.9 358.4 11.5 358.35 11.2 357.6 10.25 357.3 10.05 Q356.55 9.25 355.1 9.15 M352.2 13.9 Q351.4 12.75 350.3 12.85 L349.95 12.95 348.45 13.4 348.05 13.45 Q347.5 13.6 347.15 13.9 346.5 14.35 345.3 14.6 L344.9 14.75 343.95 15.35 M367.4 15.35 L366.55 15.2 365.55 15.05 Q363.9 14.9 362.95 14.3 361.8 13.65 361.1 13.0 L360.8 12.9 Q359.55 13.3 358.65 14.15 M379.25 20.9 Q377.25 11.1 367.1 3.55 M339.55 52.45 L351.3 52.45 363.0 52.45 372.15 52.45 M333.15 64.9 L379.25 64.9" fill="none" stroke="#43233a" stroke-linecap="round" stroke-linejoin="round" stroke-width="0.05"/>
    <path d="M337.9 23.7 L337.9 20.4 Q355.45 -5.85 374.4 20.4 L374.4 23.7 374.4 50.4 374.4 59.25 370.9 62.55 379.25 62.55 M345.25 47.65 L345.25 24.5 Q347.45 21.05 349.7 24.5 L349.7 47.65 345.25 47.65 M361.6 47.65 L361.6 24.5 Q363.8 21.05 366.05 24.5 L366.05 47.65 361.6 47.65 M342.65 62.55 L370.9 62.55 M337.9 23.7 L337.9 50.4 374.4 50.4 M337.9 50.4 L337.9 58.1 342.65 62.55 333.15 62.55 M374.4 23.7 Q365.05 11.95 355.65 23.7 347.35 12.05 337.9 23.7" fill="none" stroke="#000000" stroke-linecap="round" stroke-linejoin="round" stroke-width="0.05"/>
    <path d="M337.95 69.65 L338.0 67.9 Q338.0 67.35 338.9 67.4 L339.85 67.4 343.35 67.25 Q345.3 67.2 345.4 69.05 L345.4 69.65 345.35 71.45 345.25 72.35 Q342.6 71.6 339.55 71.75 338.0 71.85 337.8 73.25 L337.9 73.6 Q338.25 74.45 339.55 74.25 341.3 73.95 342.25 74.6 L342.5 75.0 342.6 75.35 Q342.75 75.9 343.05 76.25 341.25 76.0 340.0 76.95 339.85 77.1 339.95 77.35 L340.2 77.65 M352.85 70.6 Q352.85 69.1 353.15 67.65 L353.5 67.55 357.35 67.75 358.25 67.95 Q359.35 68.05 359.6 69.0 L359.85 69.35 Q360.7 70.05 360.85 70.85 L361.1 71.45 356.95 71.35 356.6 71.25 355.55 71.35 355.1 71.45 Q355.1 72.3 355.95 72.7 L356.35 72.9 Q357.8 73.7 358.3 75.05 L358.9 76.25 356.3 75.95 Q355.4 75.8 355.75 76.8 356.2 77.9 357.3 78.0 M368.05 70.85 Q366.7 70.95 366.1 70.3 365.7 69.8 366.05 69.0 L366.6 67.65 Q366.65 67.45 366.85 67.4 L369.65 67.15 370.3 67.2 371.85 67.4 372.1 67.65 Q372.7 68.8 372.6 70.25 372.55 71.2 372.8 72.05 373.0 72.65 372.5 72.7 L371.55 72.85 370.3 72.95 368.8 73.25 Q368.7 73.3 368.75 73.55 368.9 74.25 370.0 74.5 371.0 74.75 371.2 75.9 371.4 77.2 370.0 77.1" fill="none" stroke="#1c0615" stroke-linecap="round" stroke-linejoin="round" stroke-width="0.05"/>
    <path d="M195.7 20.85 L195.7 3.55 209.35 3.55 229.6 3.55 236.9 3.55 241.8 3.55 241.8 20.9 241.8 63.0 Q238.9 76.25 232.15 79.75 L230.75 79.8 231.4 78.95 Q237.65 70.85 237.65 59.3 237.65 50.35 233.8 43.35 L233.8 33.75 Q237.65 30.1 237.65 25.35 237.65 19.4 230.95 13.05 225.7 8.0 219.2 7.0 212.75 8.0 207.5 13.05 200.8 19.4 200.8 25.35 200.8 30.1 204.65 33.75 L204.65 43.35 Q200.8 50.35 200.8 59.3 200.8 70.85 207.05 78.95 L207.6 79.55 205.5 79.55 Q197.35 75.05 195.7 63.3 L195.7 20.85 Q198.25 10.45 209.35 3.55 198.25 10.45 195.7 20.85 M229.6 3.55 Q239.75 11.1 241.8 20.9 239.75 11.1 229.6 3.55" fill="#301125" fill-rule="evenodd" stroke="none"/>
    <path d="M241.8 63.0 L241.8 79.55 241.8 81.3 236.9 81.3 229.35 81.3 230.75 79.8 232.15 79.75 Q238.9 76.25 241.8 63.0 M209.1 81.3 L195.7 81.3 195.7 79.55 195.7 63.3 Q197.35 75.05 205.5 79.55 L207.6 79.55 209.1 81.3" fill="#280a1e" fill-rule="evenodd" stroke="none"/>
    <path d="M219.35 20.65 Q221.65 20.65 223.3 22.15 224.85 23.7 224.85 25.85 224.85 27.95 223.3 29.45 221.65 31.0 219.35 31.0 217.1 31.0 215.45 29.45 213.85 27.95 213.85 25.85 213.85 23.7 215.45 22.15 217.1 20.65 219.35 20.65" fill="#000000" fill-rule="evenodd" stroke="none"/>
    <path d="M229.35 81.3 L227.9 81.3 210.7 81.3 209.1 81.3 207.6 79.55 207.05 78.95 Q200.8 70.85 200.8 59.3 200.8 50.35 204.65 43.35 L204.65 33.75 Q200.8 30.1 200.8 25.35 200.8 19.4 207.5 13.05 212.75 8.0 219.2 7.0 225.7 8.0 230.95 13.05 237.65 19.4 237.65 25.35 237.65 30.1 233.8 33.75 L233.8 43.35 Q237.65 50.35 237.65 59.3 237.65 70.85 231.4 78.95 L230.75 79.8 229.35 81.3 M210.7 81.3 L209.35 79.55 208.95 79.0 Q203.6 71.15 203.6 59.8 203.6 51.15 207.0 44.3 L207.0 34.9 Q203.6 31.35 203.6 26.75 203.6 20.95 209.35 14.8 213.85 9.8 219.3 8.8 224.8 9.8 229.35 14.8 235.05 20.95 235.05 26.75 235.05 31.35 231.65 34.9 L231.65 44.3 Q235.05 51.15 235.05 59.8 235.05 71.15 229.65 79.0 L229.15 79.8 227.9 81.3 229.15 79.8 229.65 79.0 Q235.05 71.15 235.05 59.8 235.05 51.15 231.65 44.3 L231.65 34.9 Q235.05 31.35 235.05 26.75 235.05 20.95 229.35 14.8 224.8 9.8 219.3 8.8 213.85 9.8 209.35 14.8 203.6 20.95 203.6 26.75 203.6 31.35 207.0 34.9 L207.0 44.3 Q203.6 51.15 203.6 59.8 203.6 71.15 208.95 79.0 L209.35 79.55 210.7 81.3 M219.25 16.65 Q215.15 16.65 212.2 19.4 209.3 22.15 209.3 25.95 209.3 29.8 212.2 32.55 215.15 35.25 219.25 35.25 223.35 35.25 226.3 32.55 229.2 29.8 229.2 25.95 229.2 22.15 226.3 19.4 223.35 16.65 219.25 16.65 223.35 16.65 226.3 19.4 229.2 22.15 229.2 25.95 229.2 29.8 226.3 32.55 223.35 35.25 219.25 35.25 215.15 35.25 212.2 32.55 209.3 29.8 209.3 25.95 209.3 22.15 212.2 19.4 215.15 16.65 219.25 16.65 M219.35 20.65 Q217.1 20.65 215.45 22.15 213.85 23.7 213.85 25.85 213.85 27.95 215.45 29.45 217.1 31.0 219.35 31.0 221.65 31.0 223.3 29.45 224.85 27.95 224.85 25.85 224.85 23.7 223.3 22.15 221.65 20.65 219.35 20.65 M228.8 47.65 L228.45 48.9 Q229.9 49.3 230.25 50.7 L230.15 50.9 Q229.9 51.95 228.65 52.2 229.9 51.95 230.15 50.9 L230.25 50.7 Q229.9 49.3 228.45 48.9 L228.8 47.65 M229.9 62.2 L229.9 56.65 229.9 62.2 M213.6 53.25 L213.8 53.6 213.75 53.35 213.6 53.25 Q213.15 53.3 212.85 53.5 207.8 55.65 207.95 61.1 207.8 55.65 212.85 53.5 213.15 53.3 213.6 53.25 L212.6 49.4 Q208.15 47.2 212.25 43.1 L212.95 42.55 212.25 43.1 Q208.15 47.2 212.6 49.4 L213.6 53.25 213.75 53.35 213.8 53.6 Q218.4 57.9 225.4 56.4 L225.8 56.5 225.9 63.35 214.6 63.95 215.4 69.45 Q219.4 68.95 223.3 69.55 L223.25 72.3 219.2 73.2 Q218.8 76.2 218.85 79.4 218.8 76.2 219.2 73.2 L223.25 72.3 223.3 69.55 Q219.4 68.95 215.4 69.45 L214.6 63.95 225.9 63.35 225.8 56.5 225.4 56.4 Q218.4 57.9 213.8 53.6 L213.6 53.25 M212.6 49.4 Q213.95 44.5 219.4 44.7 220.45 44.9 221.15 45.5 225.6 49.25 219.65 51.5 L218.85 50.85 219.65 51.5 Q225.6 49.25 221.15 45.5 220.45 44.9 219.4 44.7 213.95 44.5 212.6 49.4 M209.7 67.75 L209.4 67.0 Q208.6 65.7 207.35 66.1 L207.0 67.5 207.35 66.1 Q208.6 65.7 209.4 67.0 L209.7 67.75" fill="url(#gradient2)" fill-rule="evenodd" stroke="none"/>
    <path d="M195.7 63.3 L195.7 20.85 Q198.25 10.45 209.35 3.55 M241.8 20.9 Q239.75 11.1 229.6 3.55" fill="none" stroke="#43233a" stroke-linecap="round" stroke-linejoin="round" stroke-width="0.05"/>
    <path d="M219.25 16.65 Q223.35 16.65 226.3 19.4 229.2 22.15 229.2 25.95 229.2 29.8 226.3 32.55 223.35 35.25 219.25 35.25 215.15 35.25 212.2 32.55 209.3 29.8 209.3 25.95 209.3 22.15 212.2 19.4 215.15 16.65 219.25 16.65 M232.15 79.75 Q238.9 76.25 241.8 63.0 M195.7 63.3 Q197.35 75.05 205.5 79.55" fill="none" stroke="#000000" stroke-linecap="round" stroke-linejoin="round" stroke-width="0.05"/>
    <path d="M227.9 81.3 L229.15 79.8 229.65 79.0 Q235.05 71.15 235.05 59.8 235.05 51.15 231.65 44.3 L231.65 34.9 Q235.05 31.35 235.05 26.75 235.05 20.95 229.35 14.8 224.8 9.8 219.3 8.8 213.85 9.8 209.35 14.8 203.6 20.95 203.6 26.75 203.6 31.35 207.0 34.9 L207.0 44.3 Q203.6 51.15 203.6 59.8 203.6 71.15 208.95 79.0 L209.35 79.55 210.7 81.3" fill="none" stroke="#610fb5" stroke-linecap="round" stroke-linejoin="round" stroke-width="0.05"/>
    <path d="M207.6 79.55 L207.05 78.95 Q200.8 70.85 200.8 59.3 200.8 50.35 204.65 43.35 L204.65 33.75 Q200.8 30.1 200.8 25.35 200.8 19.4 207.5 13.05 212.75 8.0 219.2 7.0 225.7 8.0 230.95 13.05 237.65 19.4 237.65 25.35 237.65 30.1 233.8 33.75 L233.8 43.35 Q237.65 50.35 237.65 59.3 237.65 70.85 231.4 78.95 L230.75 79.8 M207.95 61.1 Q207.8 55.65 212.85 53.5 213.15 53.3 213.6 53.25 L212.6 49.4 Q208.15 47.2 212.25 43.1 L212.95 42.55 M218.85 50.85 L219.65 51.5 Q225.6 49.25 221.15 45.5 220.45 44.9 219.4 44.7 213.95 44.5 212.6 49.4 M213.6 53.25 L213.75 53.35 213.8 53.6 Q218.4 57.9 225.4 56.4 L225.8 56.5 225.9 63.35 214.6 63.95 215.4 69.45 Q219.4 68.95 223.3 69.55 L223.25 72.3 219.2 73.2 Q218.8 76.2 218.85 79.4 M213.8 53.6 L213.6 53.25 M229.9 56.65 L229.9 62.2 M228.65 52.2 Q229.9 51.95 230.15 50.9 L230.25 50.7 Q229.9 49.3 228.45 48.9 L228.8 47.65 M207.0 67.5 L207.35 66.1 Q208.6 65.7 209.4 67.0 L209.7 67.75" fill="none" stroke="#000000" stroke-linecap="round" stroke-linejoin="round" stroke-width="1.0"/>
    <path d="M379.25 20.9 L379.25 3.55 392.95 3.55 413.2 3.55 420.5 3.55 425.4 3.55 425.4 20.95 425.4 62.6 416.95 62.6 420.5 59.3 420.5 50.45 420.5 23.7 420.5 20.4 Q401.55 -5.8 384.0 20.4 L384.0 23.7 384.0 50.45 384.0 58.15 388.7 62.6 379.25 62.6 379.25 20.9 Q381.85 10.45 392.95 3.55 381.85 10.45 379.25 20.9 M413.2 3.55 Q423.35 11.1 425.4 20.95 423.35 11.1 413.2 3.55" fill="#301125" fill-rule="evenodd" stroke="none"/>
    <path d="M425.4 62.6 L425.4 64.9 425.4 81.3 420.5 81.3 379.25 81.3 379.25 64.9 379.25 62.6 388.7 62.6 416.95 62.6 425.4 62.6 M404.75 14.2 Q405.65 13.3 406.9 12.95 L407.2 13.0 Q407.9 13.65 409.05 14.3 410.0 14.9 411.65 15.05 L412.65 15.25 413.5 15.4 412.65 15.25 411.65 15.05 Q410.0 14.9 409.05 14.3 407.9 13.65 407.2 13.0 L406.9 12.95 Q405.65 13.3 404.75 14.2 404.75 15.5 404.35 16.35 L404.0 17.45 403.7 18.1 402.95 19.25 401.85 20.15 401.3 20.0 400.7 19.65 399.7 18.05 399.45 17.6 Q398.7 16.95 398.55 15.7 398.45 14.8 398.6 13.95 L399.0 12.4 Q399.45 11.35 400.25 10.4 400.4 10.2 400.6 10.15 L400.95 9.95 Q401.3 9.4 401.45 10.1 401.3 9.4 400.95 9.95 L400.6 10.15 Q400.4 10.2 400.25 10.4 399.45 11.35 399.0 12.4 L398.6 13.95 Q398.45 14.8 398.55 15.7 398.7 16.95 399.45 17.6 L399.7 18.05 400.7 19.65 401.3 20.0 401.85 20.15 402.95 19.25 403.7 18.1 404.0 17.45 404.35 16.35 Q404.75 15.5 404.75 14.2 L404.7 13.95 404.5 11.55 404.4 11.25 403.7 10.3 403.4 10.1 Q402.65 9.3 401.2 9.15 402.65 9.3 403.4 10.1 L403.7 10.3 404.4 11.25 404.5 11.55 404.7 13.95 404.75 14.2 M390.05 15.4 L391.05 14.8 391.4 14.65 393.25 13.95 Q393.6 13.6 394.15 13.5 L394.6 13.45 396.05 13.0 396.4 12.9 Q397.5 12.8 398.6 13.95 397.5 12.8 396.4 12.9 L396.05 13.0 394.6 13.45 394.15 13.5 Q393.6 13.6 393.25 13.95 L391.4 14.65 391.05 14.8 390.05 15.4 M384.0 23.7 L384.0 20.4 Q401.55 -5.8 420.5 20.4 L420.5 23.7 Q411.15 12.0 401.8 23.7 393.45 12.05 384.0 23.7 M403.4 78.0 Q402.3 77.95 401.9 76.8 401.5 75.85 402.45 76.0 L404.95 76.25 404.35 75.1 Q403.9 73.75 402.5 72.9 L402.05 72.75 Q401.2 72.35 401.2 71.5 L401.7 71.35 402.7 71.25 403.1 71.35 407.2 71.5 406.95 70.9 Q406.8 70.05 406.0 69.35 L405.7 69.05 Q405.45 68.1 404.3 68.0 L403.45 67.8 399.6 67.55 399.25 67.65 Q398.95 69.15 398.95 70.65 398.95 69.15 399.25 67.65 L399.6 67.55 403.45 67.8 404.3 68.0 Q405.45 68.1 405.7 69.05 L406.0 69.35 Q406.8 70.05 406.95 70.9 L407.2 71.5 403.1 71.35 402.7 71.25 401.7 71.35 401.2 71.5 Q401.2 72.35 402.05 72.75 L402.5 72.9 Q403.9 73.75 404.35 75.1 L404.95 76.25 402.45 76.0 Q401.5 75.85 401.9 76.8 402.3 77.95 403.4 78.0 M416.1 77.15 Q417.55 77.25 417.3 75.95 417.05 74.8 416.1 74.55 415.0 74.25 414.85 73.55 414.8 73.3 414.9 73.25 415.6 72.95 416.35 72.95 L417.65 72.85 418.6 72.75 Q419.1 72.7 418.9 72.1 418.7 71.25 418.75 70.3 418.8 68.8 418.2 67.65 L418.0 67.45 416.35 67.25 415.75 67.15 412.9 67.45 412.7 67.65 412.15 69.05 Q411.8 69.85 412.15 70.35 412.75 70.95 414.15 70.9 412.75 70.95 412.15 70.35 411.8 69.85 412.15 69.05 L412.7 67.65 412.9 67.45 415.75 67.15 416.35 67.25 418.0 67.45 418.2 67.65 Q418.8 68.8 418.75 70.3 418.7 71.25 418.9 72.1 419.1 72.7 418.6 72.75 L417.65 72.85 416.35 72.95 Q415.6 72.95 414.9 73.25 414.8 73.3 414.85 73.55 415.0 74.25 416.1 74.55 417.05 74.8 417.3 75.95 417.55 77.25 416.1 77.15 M386.15 77.0 Q387.35 76.05 389.15 76.25 L388.65 75.4 388.6 75.05 388.35 74.65 Q387.4 74.0 385.65 74.25 384.35 74.45 384.0 73.6 L383.9 73.25 Q384.1 71.9 385.65 71.8 L391.35 72.4 391.45 71.5 391.5 69.7 391.5 69.1 Q391.4 67.25 389.4 67.3 L385.95 67.45 385.0 67.45 Q384.1 67.4 384.1 67.95 L384.05 69.7 384.1 67.95 Q384.1 67.4 385.0 67.45 L385.95 67.45 389.4 67.3 Q391.4 67.25 391.5 69.1 L391.5 69.7 391.45 71.5 391.35 72.4 385.65 71.8 Q384.1 71.9 383.9 73.25 L384.0 73.6 Q384.35 74.45 385.65 74.25 387.4 74.0 388.35 74.65 L388.6 75.05 388.65 75.4 389.15 76.25 Q387.35 76.05 386.15 77.0 M425.4 64.9 L379.25 64.9 425.4 64.9" fill="#280a1e" fill-rule="evenodd" stroke="none"/>
    <path d="M420.5 50.45 L420.5 59.3 416.95 62.6 388.7 62.6 384.0 58.15 384.0 50.45 420.5 50.45 M418.25 52.5 L409.1 52.5 397.4 52.5 385.65 52.5 397.4 52.5 409.1 52.5 418.25 52.5" fill="#22091b" fill-rule="evenodd" stroke="none"/>
    <path d="M420.5 23.7 L420.5 50.45 384.0 50.45 384.0 23.7 Q393.45 12.05 401.8 23.7 411.15 12.0 420.5 23.7" fill="#1c0615" fill-rule="evenodd" stroke="none"/>
    <path d="M379.25 62.6 L379.25 20.9 Q381.85 10.45 392.95 3.55 M401.45 10.1 Q401.3 9.4 400.95 9.95 L400.6 10.15 Q400.4 10.2 400.25 10.4 399.45 11.35 399.0 12.4 L398.6 13.95 Q398.45 14.8 398.55 15.7 398.7 16.95 399.45 17.6 L399.7 18.05 400.7 19.65 401.3 20.0 401.85 20.15 402.95 19.25 403.7 18.1 404.0 17.45 404.35 16.35 Q404.75 15.5 404.75 14.2 L404.7 13.95 404.5 11.55 404.4 11.25 403.7 10.3 403.4 10.1 Q402.65 9.3 401.2 9.15 M398.6 13.95 Q397.5 12.8 396.4 12.9 L396.05 13.0 394.6 13.45 394.15 13.5 Q393.6 13.6 393.25 13.95 L391.4 14.65 391.05 14.8 390.05 15.4 M413.5 15.4 L412.65 15.25 411.65 15.05 Q410.0 14.9 409.05 14.3 407.9 13.65 407.2 13.0 L406.9 12.95 Q405.65 13.3 404.75 14.2 M425.4 20.95 Q423.35 11.1 413.2 3.55 M385.65 52.5 L397.4 52.5 409.1 52.5 418.25 52.5 M379.25 64.9 L425.4 64.9" fill="none" stroke="#43233a" stroke-linecap="round" stroke-linejoin="round" stroke-width="0.05"/>
    <path d="M384.0 23.7 L384.0 20.4 Q401.55 -5.8 420.5 20.4 L420.5 23.7 420.5 50.45 420.5 59.3 416.95 62.6 425.4 62.6 M384.0 23.7 L384.0 50.45 420.5 50.45 M384.0 50.45 L384.0 58.15 388.7 62.6 416.95 62.6 M388.7 62.6 L379.25 62.6 M420.5 23.7 Q411.15 12.0 401.8 23.7 393.45 12.05 384.0 23.7" fill="none" stroke="#000000" stroke-linecap="round" stroke-linejoin="round" stroke-width="0.05"/>
    <path d="M414.15 70.9 Q412.75 70.95 412.15 70.35 411.8 69.85 412.15 69.05 L412.7 67.65 412.9 67.45 415.75 67.15 416.35 67.25 418.0 67.45 418.2 67.65 Q418.8 68.8 418.75 70.3 418.7 71.25 418.9 72.1 419.1 72.7 418.6 72.75 L417.65 72.85 416.35 72.95 Q415.6 72.95 414.9 73.25 414.8 73.3 414.85 73.55 415.0 74.25 416.1 74.55 417.05 74.8 417.3 75.95 417.55 77.25 416.1 77.15 M398.95 70.65 Q398.95 69.15 399.25 67.65 L399.6 67.55 403.45 67.8 404.3 68.0 Q405.45 68.1 405.7 69.05 L406.0 69.35 Q406.8 70.05 406.95 70.9 L407.2 71.5 403.1 71.35 402.7 71.25 401.7 71.35 401.2 71.5 Q401.2 72.35 402.05 72.75 L402.5 72.9 Q403.9 73.75 404.35 75.1 L404.95 76.25 402.45 76.0 Q401.5 75.85 401.9 76.8 402.3 77.95 403.4 78.0 M384.05 69.7 L384.1 67.95 Q384.1 67.4 385.0 67.45 L385.95 67.45 389.4 67.3 Q391.4 67.25 391.5 69.1 L391.5 69.7 391.45 71.5 391.35 72.4 385.65 71.8 Q384.1 71.9 383.9 73.25 L384.0 73.6 Q384.35 74.45 385.65 74.25 387.4 74.0 388.35 74.65 L388.6 75.05 388.65 75.4 389.15 76.25 Q387.35 76.05 386.15 77.0" fill="none" stroke="#1c0615" stroke-linecap="round" stroke-linejoin="round" stroke-width="0.05"/>
    <path d="M-33.8 20.85 L-33.8 3.5 -20.1 3.5 0.15 3.5 7.45 3.5 12.35 3.5 12.35 20.9 12.35 62.55 3.9 62.55 7.45 59.25 7.45 50.4 7.45 23.65 7.45 20.35 Q-11.5 -5.85 -29.05 20.35 L-29.05 23.65 -29.05 50.4 -29.05 58.1 -24.35 62.55 -33.8 62.55 -33.8 20.85 Q-31.2 10.4 -20.1 3.5 -31.2 10.4 -33.8 20.85 M0.15 3.5 Q10.3 11.05 12.35 20.9 10.3 11.05 0.15 3.5" fill="#301125" fill-rule="evenodd" stroke="none"/>
    <path d="M12.35 62.55 L12.35 64.85 12.35 81.25 7.45 81.25 -33.8 81.25 -33.8 64.85 -33.8 62.55 -24.35 62.55 3.9 62.55 12.35 62.55 M-8.3 14.15 Q-7.4 13.25 -6.15 12.9 L-5.85 12.95 -4.0 14.25 Q-3.05 14.85 -1.4 15.0 L-0.4 15.2 0.45 15.35 -0.4 15.2 -1.4 15.0 Q-3.05 14.85 -4.0 14.25 L-5.85 12.95 -6.15 12.9 Q-7.4 13.25 -8.3 14.15 -8.3 15.45 -8.7 16.3 L-9.05 17.4 -9.35 18.05 -10.1 19.2 -11.2 20.1 -11.75 19.95 -12.35 19.6 -13.35 18.0 -13.6 17.55 Q-14.35 16.9 -14.5 15.65 L-14.45 13.9 -14.05 12.35 -12.8 10.35 -12.45 10.1 -12.1 9.9 Q-11.75 9.35 -11.6 10.05 -11.75 9.35 -12.1 9.9 L-12.45 10.1 -12.8 10.35 -14.05 12.35 -14.45 13.9 -14.5 15.65 Q-14.35 16.9 -13.6 17.55 L-13.35 18.0 -12.35 19.6 -11.75 19.95 -11.2 20.1 -10.1 19.2 -9.35 18.05 -9.05 17.4 -8.7 16.3 Q-8.3 15.45 -8.3 14.15 L-8.35 13.9 -8.55 11.5 -8.65 11.2 Q-8.85 10.6 -9.35 10.25 L-9.65 10.05 Q-10.4 9.25 -11.85 9.1 -10.4 9.25 -9.65 10.05 L-9.35 10.25 Q-8.85 10.6 -8.65 11.2 L-8.55 11.5 -8.35 13.9 -8.3 14.15 M-23.0 15.35 L-22.0 14.75 -21.65 14.6 -19.8 13.9 Q-19.45 13.55 -18.9 13.45 L-18.45 13.4 -17.0 12.95 -16.65 12.85 Q-15.55 12.75 -14.45 13.9 -15.55 12.75 -16.65 12.85 L-17.0 12.95 -18.45 13.4 -18.9 13.45 Q-19.45 13.55 -19.8 13.9 L-21.65 14.6 -22.0 14.75 -23.0 15.35 M-29.05 23.65 L-29.05 20.35 Q-11.5 -5.85 7.45 20.35 L7.45 23.65 Q-1.9 11.95 -11.25 23.65 -19.6 12.0 -29.05 23.65 M-9.65 77.95 Q-10.75 77.9 -11.15 76.75 -11.55 75.8 -10.6 75.95 L-8.1 76.2 -8.7 75.05 Q-9.15 73.7 -10.55 72.85 L-11.0 72.7 Q-11.85 72.3 -11.85 71.45 L-11.35 71.3 -10.35 71.2 -9.95 71.3 -5.85 71.45 -6.1 70.85 Q-6.25 70.0 -7.05 69.3 L-7.35 69.0 Q-7.6 68.05 -8.75 67.95 L-9.6 67.75 -13.45 67.5 -13.8 67.6 -14.1 70.6 -13.8 67.6 -13.45 67.5 -9.6 67.75 -8.75 67.95 Q-7.6 68.05 -7.35 69.0 L-7.05 69.3 Q-6.25 70.0 -6.1 70.85 L-5.85 71.45 -9.95 71.3 -10.35 71.2 -11.35 71.3 -11.85 71.45 Q-11.85 72.3 -11.0 72.7 L-10.55 72.85 Q-9.15 73.7 -8.7 75.05 L-8.1 76.2 -10.6 75.95 Q-11.55 75.8 -11.15 76.75 -10.75 77.9 -9.65 77.95 M3.05 77.1 Q4.5 77.2 4.25 75.9 4.0 74.75 3.05 74.5 1.95 74.2 1.8 73.5 1.75 73.25 1.85 73.2 L3.3 72.9 4.6 72.8 5.55 72.7 Q6.05 72.65 5.85 72.05 L5.7 70.25 Q5.75 68.75 5.15 67.6 L4.95 67.4 3.3 67.2 2.7 67.1 -0.15 67.4 -0.35 67.6 -0.9 69.0 Q-1.25 69.8 -0.9 70.3 -0.3 70.9 1.1 70.85 -0.3 70.9 -0.9 70.3 -1.25 69.8 -0.9 69.0 L-0.35 67.6 -0.15 67.4 2.7 67.1 3.3 67.2 4.95 67.4 5.15 67.6 Q5.75 68.75 5.7 70.25 L5.85 72.05 Q6.05 72.65 5.55 72.7 L4.6 72.8 3.3 72.9 1.85 73.2 Q1.75 73.25 1.8 73.5 1.95 74.2 3.05 74.5 4.0 74.75 4.25 75.9 4.5 77.2 3.05 77.1 M-26.9 76.95 Q-25.7 76.0 -23.9 76.2 L-24.4 75.35 -24.45 75.0 -24.7 74.6 Q-25.65 73.95 -27.4 74.2 -28.7 74.4 -29.05 73.55 L-29.15 73.2 Q-28.95 71.85 -27.4 71.75 -24.4 71.55 -21.7 72.35 L-21.6 71.45 Q-21.45 70.6 -21.55 69.65 L-21.55 69.05 Q-21.65 67.2 -23.65 67.25 L-27.1 67.4 -28.05 67.4 Q-28.95 67.35 -28.95 67.9 L-29.0 69.65 -28.95 67.9 Q-28.95 67.35 -28.05 67.4 L-27.1 67.4 -23.65 67.25 Q-21.65 67.2 -21.55 69.05 L-21.55 69.65 Q-21.45 70.6 -21.6 71.45 L-21.7 72.35 Q-24.4 71.55 -27.4 71.75 -28.95 71.85 -29.15 73.2 L-29.05 73.55 Q-28.7 74.4 -27.4 74.2 -25.65 73.95 -24.7 74.6 L-24.45 75.0 -24.4 75.35 -23.9 76.2 Q-25.7 76.0 -26.9 76.95 M12.35 64.85 L-33.8 64.85 12.35 64.85" fill="#280a1e" fill-rule="evenodd" stroke="none"/>
    <path d="M7.45 50.4 L7.45 59.25 3.9 62.55 -24.35 62.55 -29.05 58.1 -29.05 50.4 7.45 50.4 M5.2 52.45 L-3.95 52.45 -15.65 52.45 -27.4 52.45 -15.65 52.45 -3.95 52.45 5.2 52.45" fill="#22091b" fill-rule="evenodd" stroke="none"/>
    <path d="M7.45 23.65 L7.45 50.4 -29.05 50.4 -29.05 23.65 Q-19.6 12.0 -11.25 23.65 -1.9 11.95 7.45 23.65" fill="#1c0615" fill-rule="evenodd" stroke="none"/>
    <path d="M-33.8 62.55 L-33.8 20.85 Q-31.2 10.4 -20.1 3.5 M-11.6 10.05 Q-11.75 9.35 -12.1 9.9 L-12.45 10.1 -12.8 10.35 -14.05 12.35 -14.45 13.9 -14.5 15.65 Q-14.35 16.9 -13.6 17.55 L-13.35 18.0 -12.35 19.6 -11.75 19.95 -11.2 20.1 -10.1 19.2 -9.35 18.05 -9.05 17.4 -8.7 16.3 Q-8.3 15.45 -8.3 14.15 L-8.35 13.9 -8.55 11.5 -8.65 11.2 Q-8.85 10.6 -9.35 10.25 L-9.65 10.05 Q-10.4 9.25 -11.85 9.1 M-14.45 13.9 Q-15.55 12.75 -16.65 12.85 L-17.0 12.95 -18.45 13.4 -18.9 13.45 Q-19.45 13.55 -19.8 13.9 L-21.65 14.6 -22.0 14.75 -23.0 15.35 M0.45 15.35 L-0.4 15.2 -1.4 15.0 Q-3.05 14.85 -4.0 14.25 L-5.85 12.95 -6.15 12.9 Q-7.4 13.25 -8.3 14.15 M12.35 20.9 Q10.3 11.05 0.15 3.5 M-27.4 52.45 L-15.65 52.45 -3.95 52.45 5.2 52.45 M-33.8 64.85 L12.35 64.85" fill="none" stroke="#43233a" stroke-linecap="round" stroke-linejoin="round" stroke-width="0.05"/>
    <path d="M-29.05 23.65 L-29.05 20.35 Q-11.5 -5.85 7.45 20.35 L7.45 23.65 7.45 50.4 7.45 59.25 3.9 62.55 12.35 62.55 M-29.05 23.65 L-29.05 50.4 7.45 50.4 M-29.05 50.4 L-29.05 58.1 -24.35 62.55 3.9 62.55 M-24.35 62.55 L-33.8 62.55 M7.45 23.65 Q-1.9 11.95 -11.25 23.65 -19.6 12.0 -29.05 23.65" fill="none" stroke="#000000" stroke-linecap="round" stroke-linejoin="round" stroke-width="0.05"/>
    <path d="M1.1 70.85 Q-0.3 70.9 -0.9 70.3 -1.25 69.8 -0.9 69.0 L-0.35 67.6 -0.15 67.4 2.7 67.1 3.3 67.2 4.95 67.4 5.15 67.6 Q5.75 68.75 5.7 70.25 L5.85 72.05 Q6.05 72.65 5.55 72.7 L4.6 72.8 3.3 72.9 1.85 73.2 Q1.75 73.25 1.8 73.5 1.95 74.2 3.05 74.5 4.0 74.75 4.25 75.9 4.5 77.2 3.05 77.1 M-14.1 70.6 L-13.8 67.6 -13.45 67.5 -9.6 67.75 -8.75 67.95 Q-7.6 68.05 -7.35 69.0 L-7.05 69.3 Q-6.25 70.0 -6.1 70.85 L-5.85 71.45 -9.95 71.3 -10.35 71.2 -11.35 71.3 -11.85 71.45 Q-11.85 72.3 -11.0 72.7 L-10.55 72.85 Q-9.15 73.7 -8.7 75.05 L-8.1 76.2 -10.6 75.95 Q-11.55 75.8 -11.15 76.75 -10.75 77.9 -9.65 77.95 M-29.0 69.65 L-28.95 67.9 Q-28.95 67.35 -28.05 67.4 L-27.1 67.4 -23.65 67.25 Q-21.65 67.2 -21.55 69.05 L-21.55 69.65 Q-21.45 70.6 -21.6 71.45 L-21.7 72.35 Q-24.4 71.55 -27.4 71.75 -28.95 71.85 -29.15 73.2 L-29.05 73.55 Q-28.7 74.4 -27.4 74.2 -25.65 73.95 -24.7 74.6 L-24.45 75.0 -24.4 75.35 -23.9 76.2 Q-25.7 76.0 -26.9 76.95" fill="none" stroke="#1c0615" stroke-linecap="round" stroke-linejoin="round" stroke-width="0.05"/>
    <path d="M313.25 38.3 L310.0 54.1 305.9 38.3 313.25 38.3" fill="#000000" fill-rule="evenodd" stroke="none"/>
    <path d="M84.15 38.3 L80.9 54.1 76.8 38.3 84.15 38.3" fill="#000000" fill-rule="evenodd" stroke="none"/>
    <path d="M297.35 162.2 L297.15 165.7 Q296.45 175.25 291.55 183.35 287.05 190.75 280.25 196.55 274.0 201.85 266.85 205.95 259.15 210.4 250.8 213.75 242.15 217.25 233.15 219.35 223.65 221.7 213.95 222.7 L198.5 223.75 Q190.6 223.95 182.6 223.55 L167.45 222.1 Q157.9 220.85 148.65 218.2 139.9 215.75 131.5 211.9 123.4 208.3 115.9 203.55 107.5 198.3 101.0 191.35 94.15 184.15 91.05 174.7 88.1 165.65 89.65 156.35 91.2 146.8 96.75 139.1 102.0 131.75 109.15 126.15 115.85 120.9 123.4 116.95 131.25 112.85 139.85 109.75 148.65 106.55 157.85 104.7 167.5 102.6 177.45 101.9 L195.15 101.2 196.0 107.1 186.5 109.2 196.0 107.1 195.15 101.2 214.1 102.35 Q222.95 103.45 231.65 105.35 239.95 107.3 247.95 110.25 255.65 113.15 262.9 116.95 269.5 120.45 275.65 125.05 283.15 130.55 288.75 137.7 294.6 145.15 296.5 154.2 L295.55 153.8 277.55 154.4 Q278.5 157.55 278.5 160.7 278.55 166.25 274.5 170.7 278.55 166.25 278.5 160.7 278.5 157.55 277.55 154.4 L295.55 153.8 296.5 154.2 297.35 161.85 297.35 162.2 M286.0 160.45 Q291.0 160.2 295.55 162.1 L296.0 162.15 297.35 161.85 296.0 162.15 295.55 162.1 Q291.0 160.2 286.0 160.45 M253.0 177.7 L251.7 182.8 Q249.05 182.9 247.1 184.5 246.35 185.1 245.95 185.9 244.5 188.75 244.25 191.6 244.05 194.0 245.8 196.0 L240.05 200.75 Q238.15 199.9 237.65 197.7 237.25 195.8 237.45 193.95 L238.0 187.7 237.45 193.95 Q237.25 195.8 237.65 197.7 238.15 199.9 240.05 200.75 L245.8 196.0 Q244.05 194.0 244.25 191.6 244.5 188.75 245.95 185.9 246.35 185.1 247.1 184.5 249.05 182.9 251.7 182.8 L253.0 177.7 M199.5 205.2 L203.85 204.6 203.5 200.2 203.85 204.6 199.5 205.2 M217.5 206.7 L203.0 209.1 203.85 204.6 212.5 203.8 217.0 203.25 Q218.1 203.0 217.5 202.7 218.1 203.0 217.0 203.25 L212.5 203.8 203.85 204.6 203.0 209.1 217.5 206.7 M194.35 208.75 L193.7 207.5 191.55 204.2 Q191.6 204.0 191.75 203.95 193.85 202.35 193.5 199.7 193.85 202.35 191.75 203.95 191.6 204.0 191.55 204.2 L193.7 207.5 194.35 208.75 195.0 208.7 194.35 208.75 188.5 209.15 188.1 209.15 187.75 208.75 179.1 207.75 Q175.95 211.55 179.35 215.25 180.7 216.65 182.45 217.05 187.2 218.3 191.5 216.7 L191.5 218.2 Q196.25 218.2 199.65 215.55 203.0 212.85 203.0 209.1 L198.5 210.2 203.0 209.1 Q203.0 212.85 199.65 215.55 196.25 218.2 191.5 218.2 L191.5 216.7 Q187.2 218.3 182.45 217.05 180.7 216.65 179.35 215.25 175.95 211.55 179.1 207.75 L187.75 208.75 188.1 209.15 188.5 209.15 194.35 208.75 M195.8 117.75 L193.7 118.9 Q193.5 122.0 196.75 121.45 L197.15 119.65 195.8 117.75 195.0 117.2 195.8 117.75 197.15 119.65 196.75 121.45 Q193.5 122.0 193.7 118.9 L195.8 117.75 M187.0 111.7 L196.0 110.55 196.0 114.7 Q198.3 112.95 200.9 112.45 L214.0 111.65 Q214.85 111.65 215.5 112.1 218.9 114.05 218.0 117.9 217.4 118.15 217.05 118.75 215.5 121.2 212.85 120.2 L212.9 118.55 213.5 118.2 212.9 118.55 212.85 120.2 Q215.5 121.2 217.05 118.75 217.4 118.15 218.0 117.9 218.9 114.05 215.5 112.1 214.85 111.65 214.0 111.65 L200.9 112.45 Q198.3 112.95 196.0 114.7 L196.0 110.55 187.0 111.7 M208.5 108.2 L196.0 110.55 196.0 107.1 202.5 105.7 196.0 107.1 196.0 110.55 208.5 108.2 M195.3 127.7 Q171.65 127.7 154.95 137.55 138.2 147.4 138.2 161.3 138.2 175.2 154.95 185.05 171.65 194.9 195.3 194.9 218.95 194.9 235.7 185.05 252.4 175.2 252.4 161.3 252.4 147.4 235.7 137.55 218.95 127.7 195.3 127.7 M287.0 172.2 L287.6 171.45 Q288.35 170.35 287.35 169.3 288.35 170.35 287.6 171.45 L287.0 172.2 M268.0 194.2 L268.6 193.8 268.85 193.05 Q269.5 189.7 267.0 187.7 269.5 189.7 268.85 193.05 L268.6 193.8 268.0 194.2 M253.0 198.7 L253.25 199.1 Q249.75 199.35 247.0 197.15 L245.8 196.0 246.0 195.7 245.8 196.0 247.0 197.15 Q249.75 199.35 253.25 199.1 L253.0 198.7 M252.4 189.4 Q251.95 188.8 251.35 188.8 250.75 188.8 250.3 189.4 249.85 189.95 249.85 190.75 249.85 191.55 250.3 192.15 250.75 192.7 251.35 192.7 251.95 192.7 252.4 192.15 252.85 191.55 252.85 190.75 252.85 189.95 252.4 189.4 252.85 189.95 252.85 190.75 252.85 191.55 252.4 192.15 251.95 192.7 251.35 192.7 250.75 192.7 250.3 192.15 249.85 191.55 249.85 190.75 249.85 189.95 250.3 189.4 250.75 188.8 251.35 188.8 251.95 188.8 252.4 189.4 M256.0 210.7 Q253.05 210.85 253.3 207.6 L253.8 202.8 Q254.05 200.7 253.25 199.1 256.1 199.1 258.15 196.7 260.15 194.25 260.15 190.8 L260.15 189.85 Q260.0 186.75 257.9 184.65 L258.15 184.35 257.9 184.65 Q260.0 186.75 260.15 189.85 L260.15 190.8 262.25 191.0 263.25 189.2 262.25 191.0 260.15 190.8 Q260.15 194.25 258.15 196.7 256.1 199.1 253.25 199.1 254.05 200.7 253.8 202.8 L253.3 207.6 Q253.05 210.85 256.0 210.7 M263.5 196.7 Q265.1 194.1 264.55 191.15 263.75 186.9 262.35 182.8 261.0 178.85 257.0 179.2 261.0 178.85 262.35 182.8 263.75 186.9 264.55 191.15 265.1 194.1 263.5 196.7 M251.0 185.7 L251.7 182.8 Q254.7 182.4 257.25 184.1 L257.9 184.65 253.0 189.7 257.9 184.65 257.25 184.1 Q254.7 182.4 251.7 182.8 L251.0 185.7 M269.5 167.2 Q274.9 163.35 275.0 156.7 L275.0 156.3 274.55 154.6 277.55 154.4 274.55 154.6 275.0 156.3 275.0 156.7 Q274.9 163.35 269.5 167.2 M275.0 154.2 L274.55 154.6 Q271.05 155.2 268.2 153.3 267.15 152.55 267.25 151.2 267.7 145.9 273.5 145.8 274.65 145.8 275.45 146.5 277.15 147.9 275.9 149.7 L275.0 149.2 275.9 149.7 Q277.15 147.9 275.45 146.5 274.65 145.8 273.5 145.8 267.7 145.9 267.25 151.2 267.15 152.55 268.2 153.3 271.05 155.2 274.55 154.6 L275.0 154.2 M260.0 136.25 L259.75 139.15 260.7 137.2 260.0 136.25 260.7 137.2 259.75 139.15 260.0 136.25 M242.5 128.7 L253.7 127.4 249.0 132.7 253.7 127.4 242.5 128.7 M259.5 135.7 Q257.45 134.6 256.55 132.5 L255.05 129.65 253.8 127.4 253.7 127.4 253.75 127.3 253.8 127.4 253.75 127.3 253.7 127.4 253.8 127.4 263.0 124.7 253.8 127.4 255.05 129.65 256.55 132.5 Q257.45 134.6 259.5 135.7 M256.0 117.7 L260.05 120.3 253.75 127.3 249.5 120.2 253.75 127.3 260.05 120.3 256.0 117.7 M269.0 132.7 Q264.95 131.55 266.2 127.85 266.75 126.15 267.8 124.9 L270.5 126.7 267.8 124.9 Q266.75 126.15 266.2 127.85 264.95 131.55 269.0 132.7 M268.0 124.7 L267.8 124.9 260.05 120.3 262.9 116.95 260.05 120.3 267.8 124.9 268.0 124.7 M191.5 222.7 L191.5 218.2 191.5 222.7 M211.5 217.7 L212.65 216.35 211.5 217.7 M138.5 204.2 L146.5 207.7 146.8 205.5 Q147.45 202.2 149.2 199.05 150.55 196.7 150.2 194.0 L149.9 193.7 Q148.05 192.05 146.65 193.8 L147.0 194.7 146.65 193.8 Q148.05 192.05 149.9 193.7 L150.2 194.0 Q150.55 196.7 149.2 199.05 147.45 202.2 146.8 205.5 L146.5 207.7 138.5 204.2 M128.5 204.2 L138.15 206.8 135.5 211.7 138.15 206.8 128.5 204.2 M148.5 209.7 L138.15 206.8 138.2 205.0 130.75 196.95 139.9 186.75 141.95 188.25 140.5 191.7 141.95 188.25 139.9 186.75 130.75 196.95 138.2 205.0 138.15 206.8 148.5 209.7 M140.5 196.7 L138.9 197.85 Q139.0 200.35 141.75 199.9 142.6 198.8 142.35 197.75 141.95 196.0 140.5 196.2 141.95 196.0 142.35 197.75 142.6 198.8 141.75 199.9 139.0 200.35 138.9 197.85 L140.5 196.7 M122.0 159.7 L122.15 161.75 123.25 161.9 123.95 160.65 122.5 159.2 123.95 160.65 123.25 161.9 122.15 161.75 122.0 159.7 M99.0 164.2 L90.0 164.7 99.0 164.2 M102.5 168.2 Q101.25 167.7 100.8 166.65 L99.2 162.85 Q98.1 160.4 99.5 158.7 98.1 160.4 99.2 162.85 L100.8 166.65 Q101.25 167.7 102.5 168.2 M95.0 171.7 L102.5 183.7 Q104.45 180.75 107.55 182.6 110.85 184.65 108.15 187.1 L106.0 186.7 106.9 185.5 106.0 186.7 108.15 187.1 Q110.85 184.65 107.55 182.6 104.45 180.75 102.5 183.7 L95.0 171.7 M105.35 161.05 Q103.45 161.8 104.75 163.75 L107.15 163.4 107.55 162.35 106.0 160.7 107.55 162.35 107.15 163.4 104.75 163.75 Q103.45 161.8 105.35 161.05 M115.0 157.7 Q111.75 156.5 110.7 160.25 110.2 162.0 111.35 163.45 112.75 165.25 114.85 164.25 118.1 162.7 116.55 158.8 L114.5 158.2 116.55 158.8 Q118.1 162.7 114.85 164.25 112.75 165.25 111.35 163.45 110.2 162.0 110.7 160.25 111.75 156.5 115.0 157.7 M105.5 177.2 L108.5 171.3 Q105.35 169.95 104.2 166.8 102.9 163.25 102.6 159.55 L104.95 154.4 102.35 151.3 101.5 151.7 102.35 151.3 104.95 154.4 Q110.95 161.25 108.8 170.15 L108.5 171.3 108.5 172.2 108.5 171.3 108.8 170.15 Q110.95 161.25 104.95 154.4 L102.6 159.55 Q102.9 163.25 104.2 166.8 105.35 169.95 108.5 171.3 L105.5 177.2 M93.0 158.2 L100.15 143.25 101.6 143.2 Q103.45 142.9 103.65 141.1 103.9 138.95 101.6 137.85 L100.2 139.65 101.0 140.7 100.2 139.65 101.6 137.85 Q103.9 138.95 103.65 141.1 103.45 142.9 101.6 143.2 L100.15 143.25 93.0 158.2 M129.0 126.7 L132.9 123.6 129.55 119.45 131.5 118.2 129.55 119.45 132.9 123.6 135.9 121.1 132.9 123.6 136.3 127.2 138.5 125.7 136.3 127.2 132.9 123.6 129.0 126.7 M121.5 120.7 L126.15 127.1 Q122.3 126.7 120.1 129.75 L120.05 131.1 Q120.0 132.15 120.9 132.7 L124.25 132.95 125.0 132.2 124.25 132.95 120.9 132.7 Q120.0 132.15 120.05 131.1 L120.1 129.75 Q122.3 126.7 126.15 127.1 L121.5 120.7 M127.0 115.7 L129.55 119.45 127.0 121.7 129.55 119.45 127.0 115.7 M139.5 119.7 L139.65 119.35 139.5 113.2 139.65 119.35 145.5 120.2 139.65 119.35 139.5 119.7 M140.0 113.7 L140.5 113.25 141.6 113.5 144.5 114.0 Q144.95 114.1 145.0 114.5 L146.0 120.7 145.0 114.5 Q144.95 114.1 144.5 114.0 L141.6 113.5 140.5 113.25 140.0 113.7 M141.0 132.7 L140.15 133.3 141.05 134.2 Q143.5 134.7 143.2 133.05 L142.0 132.7 143.2 133.05 Q143.5 134.7 141.05 134.2 L140.15 133.3 141.0 132.7 M131.0 130.7 L136.3 127.2 139.5 131.2 140.15 130.55 Q142.55 128.65 145.25 128.8 L145.9 129.45 Q148.05 131.05 147.65 133.85 146.7 135.85 144.9 137.15 142.4 139.05 140.0 137.2 142.4 139.05 144.9 137.15 146.7 135.85 147.65 133.85 148.05 131.05 145.9 129.45 L145.25 128.8 Q142.55 128.65 140.15 130.55 L139.5 131.2 136.3 127.2 131.0 130.7" fill="url(#gradient3)" fill-rule="evenodd" stroke="none"/>
    <path d="M195.3 127.7 Q218.95 127.7 235.7 137.55 252.4 147.4 252.4 161.3 252.4 175.2 235.7 185.05 218.95 194.9 195.3 194.9 171.65 194.9 154.95 185.05 138.2 175.2 138.2 161.3 138.2 147.4 154.95 137.55 171.65 127.7 195.3 127.7" fill="#000000" fill-rule="evenodd" stroke="none"/>
    <path d="M195.15 101.2 L177.45 101.9 Q167.5 102.6 157.85 104.7 148.65 106.55 139.85 109.75 131.25 112.85 123.4 116.95 115.85 120.9 109.15 126.15 102.0 131.75 96.75 139.1 91.2 146.8 89.65 156.35 88.1 165.65 91.05 174.7 94.15 184.15 101.0 191.35 107.5 198.3 115.9 203.55 123.4 208.3 131.5 211.9 139.9 215.75 148.65 218.2 157.9 220.85 167.45 222.1 L182.6 223.55 Q190.6 223.95 198.5 223.75 L213.95 222.7 Q223.65 221.7 233.15 219.35 242.15 217.25 250.8 213.75 259.15 210.4 266.85 205.95 274.0 201.85 280.25 196.55 287.05 190.75 291.55 183.35 296.45 175.25 297.15 165.7 L297.35 162.2 297.35 161.85 296.5 154.2 Q294.6 145.15 288.75 137.7 283.15 130.55 275.65 125.05 269.5 120.45 262.9 116.95 255.65 113.15 247.95 110.25 239.95 107.3 231.65 105.35 222.95 103.45 214.1 102.35 L195.15 101.2 195.5 100.7 195.15 101.2 M175.85 97.85 L192.65 97.1 209.6 97.85 225.45 99.85 Q233.0 101.25 240.45 103.25 249.9 105.9 258.9 109.85 267.6 113.6 275.6 118.8 282.8 123.45 288.95 129.2 295.45 135.4 299.75 143.6 304.5 152.6 304.35 162.8 L303.7 169.55 Q302.65 177.9 298.15 185.15 293.2 193.15 286.05 199.25 279.3 204.95 271.7 209.4 263.45 214.2 254.45 217.7 245.2 221.35 235.5 223.7 227.95 225.55 220.3 226.65 L204.05 228.2 Q195.55 228.65 187.0 228.45 L170.4 227.3 Q162.65 226.5 154.9 224.85 147.55 223.25 140.25 221.0 130.9 218.1 122.15 213.8 113.75 209.7 106.05 204.4 99.35 199.75 93.75 193.8 87.7 187.3 84.3 179.1 81.0 171.3 81.05 162.8 81.1 152.55 85.7 143.6 89.95 135.35 96.5 129.15 102.7 123.35 109.8 118.8 117.8 113.65 126.5 109.85 135.5 105.95 145.0 103.25 152.4 101.15 159.95 99.85 L175.85 97.85 M171.1 100.3 L187.15 99.2 Q195.35 98.95 203.6 99.4 L219.35 101.0 Q229.2 102.35 238.9 105.1 248.2 107.65 256.8 111.5 265.25 115.2 273.0 120.15 279.95 124.55 285.95 130.2 292.35 136.25 296.4 144.15 300.8 152.85 300.8 162.75 300.95 169.35 298.9 175.55 296.2 183.6 290.8 190.05 284.6 197.55 276.65 203.1 269.2 208.25 261.0 212.2 252.6 216.35 243.55 219.15 234.2 222.15 224.4 223.85 L208.95 225.8 192.6 226.4 176.35 225.8 160.95 223.85 Q151.35 222.1 141.85 219.15 132.85 216.3 124.35 212.2 116.2 208.35 108.7 203.1 100.75 197.5 94.55 190.1 89.1 183.55 86.5 175.45 83.55 166.15 85.1 156.4 86.7 146.5 92.5 138.45 97.9 130.8 105.4 125.0 112.3 119.65 120.2 115.55 128.6 111.15 137.3 108.0 146.5 104.6 156.0 102.75 L171.1 100.3 156.0 102.75 Q146.5 104.6 137.3 108.0 128.6 111.15 120.2 115.55 112.3 119.65 105.4 125.0 97.9 130.8 92.5 138.45 86.7 146.5 85.1 156.4 83.55 166.15 86.5 175.45 89.1 183.55 94.55 190.1 100.75 197.5 108.7 203.1 116.2 208.35 124.35 212.2 132.85 216.3 141.85 219.15 151.35 222.1 160.95 223.85 L176.35 225.8 192.6 226.4 208.95 225.8 224.4 223.85 Q234.2 222.15 243.55 219.15 252.6 216.35 261.0 212.2 269.2 208.25 276.65 203.1 284.6 197.55 290.8 190.05 296.2 183.6 298.9 175.55 300.95 169.35 300.8 162.75 300.8 152.85 296.4 144.15 292.35 136.25 285.95 130.2 279.95 124.55 273.0 120.15 265.25 115.2 256.8 111.5 248.2 107.65 238.9 105.1 229.2 102.35 219.35 101.0 L203.6 99.4 Q195.35 98.95 187.15 99.2 L171.1 100.3 M263.5 116.2 L262.9 116.95 263.5 116.2" fill="url(#gradient4)" fill-rule="evenodd" stroke="none"/>
    <path d="M195.15 101.2 L177.45 101.9 Q167.5 102.6 157.85 104.7 148.65 106.55 139.85 109.75 131.25 112.85 123.4 116.95 115.85 120.9 109.15 126.15 102.0 131.75 96.75 139.1 91.2 146.8 89.65 156.35 88.1 165.65 91.05 174.7 94.15 184.15 101.0 191.35 107.5 198.3 115.9 203.55 123.4 208.3 131.5 211.9 139.9 215.75 148.65 218.2 157.9 220.85 167.45 222.1 L182.6 223.55 Q190.6 223.95 198.5 223.75 L213.95 222.7 Q223.65 221.7 233.15 219.35 242.15 217.25 250.8 213.75 259.15 210.4 266.85 205.95 274.0 201.85 280.25 196.55 287.05 190.75 291.55 183.35 296.45 175.25 297.15 165.7 L297.35 162.2 M175.85 97.85 L159.95 99.85 Q152.4 101.15 145.0 103.25 135.5 105.95 126.5 109.85 117.8 113.65 109.8 118.8 102.7 123.35 96.5 129.15 89.95 135.35 85.7 143.6 81.1 152.55 81.05 162.8 81.0 171.3 84.3 179.1 87.7 187.3 93.75 193.8 99.35 199.75 106.05 204.4 113.75 209.7 122.15 213.8 130.9 218.1 140.25 221.0 147.55 223.25 154.9 224.85 162.65 226.5 170.4 227.3 L187.0 228.45 Q195.55 228.65 204.05 228.2 L220.3 226.65 Q227.95 225.55 235.5 223.7 245.2 221.35 254.45 217.7 263.45 214.2 271.7 209.4 279.3 204.95 286.05 199.25 293.2 193.15 298.15 185.15 302.65 177.9 303.7 169.55 L304.35 162.8 Q304.5 152.6 299.75 143.6 295.45 135.4 288.95 129.2 282.8 123.45 275.6 118.8 267.6 113.6 258.9 109.85 249.9 105.9 240.45 103.25 233.0 101.25 225.45 99.85 L209.6 97.85 192.65 97.1 175.85 97.85 M195.15 101.2 L214.1 102.35 Q222.95 103.45 231.65 105.35 239.95 107.3 247.95 110.25 255.65 113.15 262.9 116.95 M296.5 154.2 Q294.6 145.15 288.75 137.7 283.15 130.55 275.65 125.05 269.5 120.45 262.9 116.95 M297.35 161.85 L296.5 154.2" fill="none" stroke="#1a091a" stroke-linecap="round" stroke-linejoin="round" stroke-width="0.05"/>
    <path d="M171.1 100.3 L156.0 102.75 Q146.5 104.6 137.3 108.0 128.6 111.15 120.2 115.55 112.3 119.65 105.4 125.0 97.9 130.8 92.5 138.45 86.7 146.5 85.1 156.4 83.55 166.15 86.5 175.45 89.1 183.55 94.55 190.1 100.75 197.5 108.7 203.1 116.2 208.35 124.35 212.2 132.85 216.3 141.85 219.15 151.35 222.1 160.95 223.85 L176.35 225.8 192.6 226.4 208.95 225.8 224.4 223.85 Q234.2 222.15 243.55 219.15 252.6 216.35 261.0 212.2 269.2 208.25 276.65 203.1 284.6 197.55 290.8 190.05 296.2 183.6 298.9 175.55 300.95 169.35 300.8 162.75 300.8 152.85 296.4 144.15 292.35 136.25 285.95 130.2 279.95 124.55 273.0 120.15 265.25 115.2 256.8 111.5 248.2 107.65 238.9 105.1 229.2 102.35 219.35 101.0 L203.6 99.4 Q195.35 98.95 187.15 99.2 L171.1 100.3" fill="none" stroke="#451f50" stroke-linecap="round" stroke-linejoin="round" stroke-width="0.05"/>
    <path d="M297.35 162.2 L297.35 161.85 296.0 162.15 295.55 162.1 Q291.0 160.2 286.0 160.45 M186.5 109.2 L196.0 107.1 195.15 101.2 195.5 100.7 M262.9 116.95 L263.5 116.2 M202.5 105.7 L196.0 107.1 196.0 110.55 208.5 108.2 M213.5 118.2 L212.9 118.55 212.85 120.2 Q215.5 121.2 217.05 118.75 217.4 118.15 218.0 117.9 218.9 114.05 215.5 112.1 214.85 111.65 214.0 111.65 L200.9 112.45 Q198.3 112.95 196.0 114.7 L196.0 110.55 187.0 111.7 M195.0 117.2 L195.8 117.75 197.15 119.65 196.75 121.45 Q193.5 122.0 193.7 118.9 L195.8 117.75 M195.0 208.7 L194.35 208.75 188.5 209.15 188.1 209.15 187.75 208.75 179.1 207.75 Q175.95 211.55 179.35 215.25 180.7 216.65 182.45 217.05 187.2 218.3 191.5 216.7 L191.5 218.2 Q196.25 218.2 199.65 215.55 203.0 212.85 203.0 209.1 L198.5 210.2 M193.5 199.7 Q193.85 202.35 191.75 203.95 191.6 204.0 191.55 204.2 L193.7 207.5 194.35 208.75 M217.5 202.7 Q218.1 203.0 217.0 203.25 L212.5 203.8 203.85 204.6 203.0 209.1 217.5 206.7 M203.5 200.2 L203.85 204.6 199.5 205.2 M238.0 187.7 L237.45 193.95 Q237.25 195.8 237.65 197.7 238.15 199.9 240.05 200.75 L245.8 196.0 Q244.05 194.0 244.25 191.6 244.5 188.75 245.95 185.9 246.35 185.1 247.1 184.5 249.05 182.9 251.7 182.8 L253.0 177.7 M296.5 154.2 L295.55 153.8 277.55 154.4 Q278.5 157.55 278.5 160.7 278.55 166.25 274.5 170.7 M262.9 116.95 L260.05 120.3 267.8 124.9 268.0 124.7 M270.5 126.7 L267.8 124.9 Q266.75 126.15 266.2 127.85 264.95 131.55 269.0 132.7 M249.5 120.2 L253.75 127.3 260.05 120.3 256.0 117.7 M253.8 127.4 L253.75 127.3 253.7 127.4 253.8 127.4 263.0 124.7 M253.8 127.4 L255.05 129.65 256.55 132.5 Q257.45 134.6 259.5 135.7 M249.0 132.7 L253.7 127.4 242.5 128.7 M260.0 136.25 L260.7 137.2 259.75 139.15 260.0 136.25 M275.0 149.2 L275.9 149.7 Q277.15 147.9 275.45 146.5 274.65 145.8 273.5 145.8 267.7 145.9 267.25 151.2 267.15 152.55 268.2 153.3 271.05 155.2 274.55 154.6 L275.0 154.2 M277.55 154.4 L274.55 154.6 275.0 156.3 275.0 156.7 Q274.9 163.35 269.5 167.2 M253.0 189.7 L257.9 184.65 257.25 184.1 Q254.7 182.4 251.7 182.8 L251.0 185.7 M257.0 179.2 Q261.0 178.85 262.35 182.8 263.75 186.9 264.55 191.15 265.1 194.1 263.5 196.7 M258.15 184.35 L257.9 184.65 Q260.0 186.75 260.15 189.85 L260.15 190.8 262.25 191.0 263.25 189.2 M260.15 190.8 Q260.15 194.25 258.15 196.7 256.1 199.1 253.25 199.1 254.05 200.7 253.8 202.8 L253.3 207.6 Q253.05 210.85 256.0 210.7 M252.4 189.4 Q252.85 189.95 252.85 190.75 252.85 191.55 252.4 192.15 251.95 192.7 251.35 192.7 250.75 192.7 250.3 192.15 249.85 191.55 249.85 190.75 249.85 189.95 250.3 189.4 250.75 188.8 251.35 188.8 251.95 188.8 252.4 189.4 M246.0 195.7 L245.8 196.0 247.0 197.15 Q249.75 199.35 253.25 199.1 L253.0 198.7 M267.0 187.7 Q269.5 189.7 268.85 193.05 L268.6 193.8 268.0 194.2 M287.35 169.3 Q288.35 170.35 287.6 171.45 L287.0 172.2 M140.0 137.2 Q142.4 139.05 144.9 137.15 146.7 135.85 147.65 133.85 148.05 131.05 145.9 129.45 L145.25 128.8 Q142.55 128.65 140.15 130.55 L139.5 131.2 136.3 127.2 131.0 130.7 M142.0 132.7 L143.2 133.05 Q143.5 134.7 141.05 134.2 L140.15 133.3 141.0 132.7 M146.0 120.7 L145.0 114.5 Q144.95 114.1 144.5 114.0 L141.6 113.5 140.5 113.25 140.0 113.7 M139.5 113.2 L139.65 119.35 145.5 120.2 M139.65 119.35 L139.5 119.7 M131.5 118.2 L129.55 119.45 132.9 123.6 135.9 121.1 M127.0 121.7 L129.55 119.45 127.0 115.7 M125.0 132.2 L124.25 132.95 120.9 132.7 Q120.0 132.15 120.05 131.1 L120.1 129.75 Q122.3 126.7 126.15 127.1 L121.5 120.7 M132.9 123.6 L136.3 127.2 138.5 125.7 M132.9 123.6 L129.0 126.7 M101.0 140.7 L100.2 139.65 101.6 137.85 Q103.9 138.95 103.65 141.1 103.45 142.9 101.6 143.2 L100.15 143.25 93.0 158.2 M101.5 151.7 L102.35 151.3 104.95 154.4 Q110.95 161.25 108.8 170.15 L108.5 171.3 108.5 172.2 M104.95 154.4 L102.6 159.55 Q102.9 163.25 104.2 166.8 105.35 169.95 108.5 171.3 L105.5 177.2 M114.5 158.2 L116.55 158.8 Q118.1 162.7 114.85 164.25 112.75 165.25 111.35 163.45 110.2 162.0 110.7 160.25 111.75 156.5 115.0 157.7 M106.0 160.7 L107.55 162.35 107.15 163.4 104.75 163.75 Q103.45 161.8 105.35 161.05 M106.9 185.5 L106.0 186.7 108.15 187.1 Q110.85 184.65 107.55 182.6 104.45 180.75 102.5 183.7 L95.0 171.7 M99.5 158.7 Q98.1 160.4 99.2 162.85 L100.8 166.65 Q101.25 167.7 102.5 168.2 M90.0 164.7 L99.0 164.2 M122.5 159.2 L123.95 160.65 123.25 161.9 122.15 161.75 122.0 159.7 M140.5 196.2 Q141.95 196.0 142.35 197.75 142.6 198.8 141.75 199.9 139.0 200.35 138.9 197.85 L140.5 196.7 M140.5 191.7 L141.95 188.25 139.9 186.75 130.75 196.95 138.2 205.0 138.15 206.8 148.5 209.7 M135.5 211.7 L138.15 206.8 128.5 204.2 M147.0 194.7 L146.65 193.8 Q148.05 192.05 149.9 193.7 L150.2 194.0 Q150.55 196.7 149.2 199.05 147.45 202.2 146.8 205.5 L146.5 207.7 138.5 204.2 M212.65 216.35 L211.5 217.7 M191.5 218.2 L191.5 222.7" fill="none" stroke="#63307a" stroke-linecap="round" stroke-linejoin="round" stroke-opacity="0.6" stroke-width="0.05"/>
  </g>
  <defs>
    <radialGradient cx="0" cy="0" gradientTransform="matrix(0.0044, 0.2013, -0.4916, 0.007, 192.5, 147.85)" gradientUnits="userSpaceOnUse" id="gradient0" r="819.2" spreadMethod="pad">
      <stop offset="0.0" stop-color="#3f0e31"/>
      <stop offset="0.36470588235294116" stop-color="#2b0a20"/>
      <stop offset="0.7490196078431373" stop-color="#23071c"/>
      <stop offset="1.0" stop-color="#110615"/>
    </radialGradient>
    <linearGradient gradientTransform="matrix(3.0E-4, 0.045, -0.0587, 2.0E-4, 173.55, 44.15)" gradientUnits="userSpaceOnUse" id="gradient1" spreadMethod="pad" x1="-819.2" x2="819.2">
      <stop offset="0.0" stop-color="#70185f"/>
      <stop offset="0.3686274509803922" stop-color="#260855"/>
      <stop offset="1.0" stop-color="#000000"/>
    </linearGradient>
    <linearGradient gradientTransform="matrix(3.0E-4, 0.045, -0.0587, 2.0E-4, 219.2, 44.15)" gradientUnits="userSpaceOnUse" id="gradient2" spreadMethod="pad" x1="-819.2" x2="819.2">
      <stop offset="0.0" stop-color="#70185f"/>
      <stop offset="0.3686274509803922" stop-color="#260855"/>
      <stop offset="1.0" stop-color="#000000"/>
    </linearGradient>
    <radialGradient cx="0" cy="0" gradientTransform="matrix(0.1285, 0.0, 0.0, 0.0754, 193.2, 162.5)" gradientUnits="userSpaceOnUse" id="gradient3" r="819.2" spreadMethod="pad">
      <stop offset="0.0" stop-color="#70185f"/>
      <stop offset="0.5372549019607843" stop-color="#260855"/>
      <stop offset="1.0" stop-color="#180536"/>
    </radialGradient>
    <radialGradient cx="0" cy="0" gradientTransform="matrix(0.0041, 0.2296, -0.4577, 0.008, 192.0, 158.2)" gradientUnits="userSpaceOnUse" id="gradient4" r="819.2" spreadMethod="pad">
      <stop offset="0.0" stop-color="#3f0e31"/>
      <stop offset="0.36470588235294116" stop-color="#2b0a20"/>
      <stop offset="0.7490196078431373" stop-color="#23071c"/>
      <stop offset="1.0" stop-color="#110615"/>
    </radialGradient>
  </defs>
</svg>
