<?xml version="1.0" encoding="UTF-8" standalone="no"?>
<svg xmlns:xlink="http://www.w3.org/1999/xlink" height="297.4px" width="426.65px" xmlns="http://www.w3.org/2000/svg">
  <g transform="matrix(1.0, 0.0, 0.0, 1.0, 17.3, 23.75)">
    <path d="M404.5 269.85 L-12.65 269.85 -12.65 3.85 404.5 3.85 404.5 269.85" fill="url(#gradient0)" fill-rule="evenodd" stroke="none"/>
    <path d="M15.85 -23.3 L15.85 -0.45 9.7 -1.1 7.8 -1.3 2.4 -1.65 Q-0.95 -1.85 -2.05 -1.0 -0.95 -1.85 2.4 -1.65 L7.8 -1.3 9.7 -1.1 15.85 -0.45 15.85 21.5 15.85 49.7 15.85 66.7 -15.0 66.7 -15.0 -23.3 15.85 -23.3 M-2.15 49.75 L-1.1 50.0 Q-0.3 50.15 0.2 50.4 1.9 51.15 5.05 51.4 L6.0 51.45 11.4 51.1 Q12.35 50.9 12.95 50.5 14.1 49.8 15.85 49.7 14.1 49.8 12.95 50.5 12.35 50.9 11.4 51.1 L6.0 51.45 5.05 51.4 Q1.9 51.15 0.2 50.4 -0.3 50.15 -1.1 50.0 L-2.15 49.75 M-4.8 25.6 L-0.15 25.9 0.85 25.85 Q1.45 25.3 3.3 25.55 5.5 25.9 6.55 24.95 9.55 22.25 15.85 21.5 9.55 22.25 6.55 24.95 5.5 25.9 3.3 25.55 1.45 25.3 0.85 25.85 L-0.15 25.9 -4.8 25.6" fill="url(#gradient1)" fill-rule="evenodd" stroke="none"/>
    <path d="M15.85 -0.45 L15.85 -23.3 102.9 -23.3 102.9 -23.25 102.9 -7.15 102.9 -0.7 102.9 12.55 102.9 14.05 102.9 65.5 102.9 66.7 97.0 66.7 Q98.65 65.85 99.8 64.45 L100.2 63.95 Q101.55 62.3 100.5 61.15 100.25 60.9 100.1 60.45 L100.0 59.85 Q100.0 57.85 99.45 56.7 99.25 56.3 99.4 55.85 L99.75 53.75 99.4 55.85 Q99.25 56.3 99.45 56.7 100.0 57.85 100.0 59.85 L100.1 60.45 Q100.25 60.9 100.5 61.15 101.55 62.3 100.2 63.95 L99.8 64.45 Q98.65 65.85 97.0 66.7 L61.25 66.7 Q60.95 65.55 60.1 64.75 59.85 64.5 59.75 63.95 L59.45 62.4 Q59.25 63.3 58.45 63.65 56.2 64.55 55.85 66.7 56.2 64.55 58.45 63.65 59.25 63.3 59.45 62.4 L59.3 61.9 Q58.9 60.35 57.65 59.0 L56.85 58.3 Q55.45 57.3 54.65 55.85 54.5 55.55 54.5 55.25 54.35 53.65 54.9 52.25 L55.15 51.65 Q55.6 50.7 56.3 50.65 55.6 50.7 55.15 51.65 L54.9 52.25 Q54.35 53.65 54.5 55.25 54.5 55.55 54.65 55.85 55.45 57.3 56.85 58.3 L57.65 59.0 Q58.9 60.35 59.3 61.9 L59.45 62.4 59.75 63.95 Q59.85 64.5 60.1 64.75 60.95 65.55 61.25 66.7 L55.85 66.7 15.85 66.7 15.85 49.7 15.85 21.5 16.85 21.3 17.4 21.25 18.45 21.35 Q19.25 21.45 18.95 22.55 19.25 21.45 18.45 21.35 L17.4 21.25 16.85 21.3 15.85 21.5 15.85 -0.45 22.05 -0.75 23.15 -0.95 24.55 -1.15 26.1 -1.35 27.6 -1.7 28.2 -1.8 Q31.95 -2.45 35.4 -3.75 L37.35 -4.0 41.05 -5.4 41.25 -5.5 41.45 -5.6 Q41.2 -7.15 40.3 -8.05 39.25 -9.1 39.6 -10.65 L39.7 -11.3 40.1 -13.25 40.2 -13.85 40.4 -17.35 40.2 -13.85 40.1 -13.25 39.7 -11.3 39.6 -10.65 Q39.25 -9.1 40.3 -8.05 41.2 -7.15 41.45 -5.6 L41.25 -5.5 41.05 -5.4 37.35 -4.0 35.4 -3.75 Q31.95 -2.45 28.2 -1.8 L27.6 -1.7 26.1 -1.35 24.55 -1.15 23.15 -0.95 22.05 -0.75 15.85 -0.45 M100.8 16.9 Q101.6 14.3 101.1 11.3 L101.0 10.7 100.8 7.7 101.0 6.75 Q101.55 5.6 101.1 3.65 L100.95 3.05 100.65 2.1 100.4 1.0 100.1 -0.45 Q99.7 -2.65 98.8 -4.5 97.2 -3.35 94.65 -3.05 97.2 -3.35 98.8 -4.5 L99.15 -4.75 Q101.15 -6.4 101.05 -9.2 L101.1 -9.75 Q101.3 -11.6 100.8 -13.3 100.5 -14.35 101.05 -14.7 L101.45 -15.3 101.6 -15.9 Q101.8 -17.75 101.4 -19.4 101.0 -21.2 101.8 -22.5 101.0 -21.2 101.4 -19.4 101.8 -17.75 101.6 -15.9 L101.45 -15.3 101.05 -14.7 Q100.5 -14.35 100.8 -13.3 101.3 -11.6 101.1 -9.75 L101.05 -9.2 Q101.15 -6.4 99.15 -4.75 L98.8 -4.5 Q99.7 -2.65 100.1 -0.45 L100.4 1.0 100.65 2.1 100.95 3.05 101.1 3.65 Q101.55 5.6 101.0 6.75 L100.8 7.7 101.0 10.7 101.1 11.3 Q101.6 14.3 100.8 16.9 M67.0 -2.05 Q65.2 -2.3 64.9 -1.0 L64.6 0.6 Q64.15 -0.85 62.85 -1.95 61.8 -2.85 61.9 -2.55 61.8 -2.85 62.85 -1.95 64.15 -0.85 64.6 0.6 L64.9 -1.0 Q65.2 -2.3 67.0 -2.05 M41.25 -5.5 Q42.2 -5.05 42.8 -3.7 43.0 -3.3 43.5 -3.1 L45.55 -2.75 47.7 -2.25 48.55 -1.9 49.7 -1.6 Q50.65 -1.25 51.35 -1.8 L52.2 -2.05 55.7 -2.25 56.35 -2.35 61.4 -3.05 65.5 -3.35 71.1 -3.45 74.25 -3.7 75.25 -3.7 76.75 -3.55 75.25 -3.7 74.25 -3.7 71.1 -3.45 65.5 -3.35 61.4 -3.05 56.35 -2.35 55.7 -2.25 52.2 -2.05 51.35 -1.8 Q50.65 -1.25 49.7 -1.6 L48.55 -1.9 47.7 -2.25 45.55 -2.75 43.5 -3.1 Q43.0 -3.3 42.8 -3.7 42.2 -5.05 41.25 -5.5 M29.7 -8.7 L30.7 -8.15 Q30.9 -8.9 31.75 -9.7 L32.2 -10.25 Q32.9 -11.35 34.75 -11.05 L35.25 -11.0 Q38.05 -11.45 37.85 -9.2 38.05 -11.45 35.25 -11.0 L34.75 -11.05 Q32.9 -11.35 32.2 -10.25 L31.75 -9.7 Q30.9 -8.9 30.7 -8.15 L29.7 -8.7 M102.9 -0.7 L102.55 -1.65 Q102.3 -2.0 102.4 -2.55 L102.6 -5.1 102.9 -7.15 102.6 -5.1 102.4 -2.55 Q102.3 -2.0 102.55 -1.65 L102.9 -0.7 M97.7 47.1 L97.15 47.55 96.2 47.9 Q92.95 48.35 90.1 47.4 88.5 46.9 89.55 47.6 88.5 46.9 90.1 47.4 92.95 48.35 96.2 47.9 L97.15 47.55 97.7 47.1 M56.8 44.0 Q56.95 42.9 58.35 42.95 L59.3 43.2 Q60.1 43.5 60.9 43.95 63.55 45.4 66.5 44.45 L68.6 43.7 69.4 43.25 Q70.5 42.35 72.65 42.65 L74.2 42.75 Q76.75 42.7 78.55 43.75 77.65 43.9 77.75 45.05 L78.3 44.8 77.85 47.15 Q77.45 48.35 78.4 48.95 80.25 50.2 83.4 49.95 L83.95 49.85 Q86.1 49.6 86.4 47.1 86.45 46.6 86.7 46.45 87.25 46.1 86.85 45.1 L86.6 44.45 86.2 43.65 85.6 42.85 Q84.85 42.05 83.9 42.1 L80.3 42.5 83.9 42.1 Q84.85 42.05 85.6 42.85 L86.2 43.65 86.6 44.45 86.85 45.1 Q87.25 46.1 86.7 46.45 86.45 46.6 86.4 47.1 86.1 49.6 83.95 49.85 L83.4 49.95 Q80.25 50.2 78.4 48.95 77.45 48.35 77.85 47.15 L78.3 44.8 77.75 45.05 Q77.65 43.9 78.55 43.75 76.75 42.7 74.2 42.75 L72.65 42.65 Q70.5 42.35 69.4 43.25 L68.6 43.7 66.5 44.45 Q63.55 45.4 60.9 43.95 60.1 43.5 59.3 43.2 L58.35 42.95 Q56.95 42.9 56.8 44.0 M92.1 39.4 L88.95 40.8 Q88.5 40.95 88.3 41.5 88.8 43.4 87.5 44.0 88.8 43.4 88.3 41.5 88.5 40.95 88.95 40.8 L92.1 39.4 M95.65 22.0 L95.75 22.3 95.6 22.3 92.6 22.75 Q90.9 22.95 90.55 22.0 90.9 22.95 92.6 22.75 L95.6 22.3 95.75 22.3 95.65 22.0 M96.2 37.35 Q95.95 36.4 96.55 35.75 96.95 35.35 96.95 34.8 96.95 31.25 97.8 28.2 L98.05 27.1 Q98.3 25.25 97.25 24.5 96.05 23.7 95.75 22.3 L96.25 22.15 Q99.35 21.1 100.05 18.4 L100.25 16.9 100.05 18.4 Q99.35 21.1 96.25 22.15 L95.75 22.3 Q96.05 23.7 97.25 24.5 98.3 25.25 98.05 27.1 L97.8 28.2 Q96.95 31.25 96.95 34.8 96.95 35.35 96.55 35.75 95.95 36.4 96.2 37.35 M21.0 19.45 L21.8 19.35 Q22.7 19.8 22.4 21.5 22.15 22.9 23.05 23.0 L23.9 22.8 25.6 22.6 26.6 23.0 Q28.45 23.8 30.7 23.45 L35.8 22.85 37.35 22.75 40.95 23.1 Q43.3 23.85 46.05 23.8 L51.15 23.05 52.7 22.65 Q55.8 21.9 56.7 19.9 57.25 18.7 58.35 17.4 57.25 18.7 56.7 19.9 55.8 21.9 52.7 22.65 L51.15 23.05 46.05 23.8 Q43.3 23.85 40.95 23.1 L37.35 22.75 35.8 22.85 30.7 23.45 Q31.4 25.8 31.45 27.65 L31.2 28.15 Q29.8 29.55 28.85 31.85 28.65 32.25 28.6 32.75 28.5 33.9 28.0 34.7 L28.8 37.85 29.15 38.9 28.8 37.85 28.0 34.7 Q28.5 33.9 28.6 32.75 28.65 32.25 28.85 31.85 29.8 29.55 31.2 28.15 L31.45 27.65 Q31.4 25.8 30.7 23.45 28.45 23.8 26.6 23.0 L25.6 22.6 23.9 22.8 23.05 23.0 Q22.15 22.9 22.4 21.5 22.7 19.8 21.8 19.35 L21.0 19.45 M23.15 -0.95 Q25.2 0.05 24.6 2.6 L24.55 3.1 24.6 2.6 Q25.2 0.05 23.15 -0.95 M49.1 48.1 Q48.9 49.0 47.6 49.1 47.1 49.15 46.65 49.35 L44.05 50.3 Q43.5 50.4 43.15 50.8 42.1 51.85 40.5 50.55 39.35 49.6 37.85 49.75 37.05 49.8 36.6 50.25 35.25 48.5 32.7 46.6 31.2 45.5 30.7 44.5 31.2 45.5 32.7 46.6 35.25 48.5 36.6 50.25 37.05 49.8 37.85 49.75 39.35 49.6 40.5 50.55 42.1 51.85 43.15 50.8 43.5 50.4 44.05 50.3 L46.65 49.35 Q47.1 49.15 47.6 49.1 48.9 49.0 49.1 48.1 M64.6 0.6 L64.7 1.0 Q64.95 2.4 64.4 4.1 L64.1 5.2 Q63.95 6.15 64.35 6.7 65.15 7.9 65.4 9.25 65.6 10.65 65.2 11.4 L64.75 12.2 Q64.1 13.6 64.45 15.35 64.1 13.6 64.75 12.2 L65.2 11.4 Q65.6 10.65 65.4 9.25 65.15 7.9 64.35 6.7 63.95 6.15 64.1 5.2 L64.4 4.1 Q64.95 2.4 64.7 1.0 L64.6 0.6 M36.35 56.3 Q36.8 53.6 34.35 53.05 L33.75 52.7 Q32.4 51.2 30.15 50.85 L27.65 50.7 Q22.4 51.0 17.85 49.85 L15.85 49.7 17.85 49.85 Q22.4 51.0 27.65 50.7 L30.15 50.85 Q32.4 51.2 33.75 52.7 L34.35 53.05 Q36.8 53.6 36.35 56.3 M35.8 52.7 Q35.8 51.0 36.6 50.25 L36.85 50.65 36.6 50.25 Q35.8 51.0 35.8 52.7 M26.6 38.9 Q25.3 37.3 26.1 36.35 L26.65 35.95 28.0 34.7 26.65 35.95 26.1 36.35 Q25.3 37.3 26.6 38.9 M63.65 65.9 Q62.95 64.45 61.4 64.45 62.95 64.45 63.65 65.9" fill="url(#gradient2)" fill-rule="evenodd" stroke="none"/>
    <path d="M113.05 -10.2 L113.45 -11.3 113.7 -12.2 113.85 -12.75 113.4 -13.45 Q112.75 -13.75 113.05 -14.8 111.95 -14.35 111.4 -13.35 110.5 -11.85 109.05 -11.05 105.9 -9.25 104.35 -6.65 105.9 -9.25 109.05 -11.05 110.5 -11.85 111.4 -13.35 111.95 -14.35 113.05 -14.8 112.75 -13.75 113.4 -13.45 L113.85 -12.75 113.7 -12.2 113.45 -11.3 113.05 -10.2 M102.9 -23.25 L173.1 -23.25 172.75 8.35 173.05 9.75 116.5 10.25 103.05 64.85 102.9 65.5 102.9 14.05 102.9 12.55 103.1 12.15 103.35 11.25 Q103.35 9.2 103.5 7.2 L103.6 6.15 Q103.7 4.05 103.25 2.05 L103.05 0.55 102.9 -0.7 102.9 -7.15 102.9 -23.25 M162.6 -3.1 L162.15 -2.05 162.6 -3.1 M144.25 -13.3 L144.2 -12.75 143.75 -10.2 144.2 -12.75 144.25 -13.3 M164.7 0.0 L158.6 -0.25 158.0 -0.3 155.0 -0.5 158.0 -0.3 158.6 -0.25 164.7 0.0 M156.05 -10.7 L153.5 -10.0 150.45 -9.9 146.3 -10.05 133.5 -9.65 132.05 -9.9 Q129.2 -10.8 125.85 -10.55 L123.8 -10.2 125.85 -10.55 Q129.2 -10.8 132.05 -9.9 L133.5 -9.65 146.3 -10.05 150.45 -9.9 153.5 -10.0 156.05 -10.7 M103.35 -8.7 L103.15 -7.75 102.9 -7.15 103.15 -7.75 103.35 -8.7 M102.9 -0.7 L103.05 0.55 103.25 2.05 Q103.7 4.05 103.6 6.15 L103.5 7.2 Q103.35 9.2 103.35 11.25 L103.1 12.15 102.9 12.55 102.9 -0.7 M107.95 9.25 L108.2 12.25 Q108.7 15.7 108.45 19.45 108.7 15.7 108.2 12.25 L107.95 9.25 M113.55 6.65 L113.55 9.75 113.3 10.45 Q112.7 10.95 112.95 12.3 L112.85 13.15 111.45 15.9 111.05 16.9 109.7 19.55 Q108.25 21.75 107.75 24.0 L107.65 24.6 107.3 27.15 107.1 28.65 Q106.85 30.8 106.1 32.85 104.5 37.45 104.35 42.5 104.5 37.45 106.1 32.85 106.85 30.8 107.1 28.65 L107.3 27.15 107.65 24.6 107.75 24.0 Q108.25 21.75 109.7 19.55 L111.05 16.9 111.45 15.9 112.85 13.15 112.95 12.3 Q112.7 10.95 113.3 10.45 L113.55 9.75 113.55 6.65 M114.1 15.9 L114.0 15.4 113.55 14.35 114.0 15.4 114.1 15.9 M103.35 14.85 L102.9 14.05 103.35 14.85" fill="url(#gradient3)" fill-rule="evenodd" stroke="none"/>
    <path d="M173.1 -23.25 L195.7 -23.25 195.7 -3.55 Q195.05 -4.65 195.15 -6.1 195.3 -8.2 194.8 -10.15 L194.45 -11.25 194.4 -11.75 194.45 -11.25 194.8 -10.15 Q195.3 -8.2 195.15 -6.1 195.05 -4.65 195.7 -3.55 L195.7 0.8 195.7 47.9 195.65 47.85 Q195.4 47.6 195.3 47.1 L194.9 45.55 195.3 47.1 Q195.4 47.6 195.65 47.85 L195.7 47.9 195.7 51.0 195.7 66.7 176.0 29.35 172.75 23.25 173.05 9.75 172.75 8.35 173.1 -23.25 M191.85 -9.2 Q192.1 -8.65 191.95 -8.25 191.65 -7.3 191.75 -5.6 191.85 -3.55 191.6 -1.55 L191.55 -0.95 191.1 2.05 191.0 3.1 190.65 6.65 190.45 8.2 Q190.3 9.5 190.45 10.75 190.95 14.2 192.35 17.9 190.95 14.2 190.45 10.75 190.3 9.5 190.45 8.2 L190.65 6.65 191.0 3.1 191.1 2.05 191.55 -0.95 191.6 -1.55 Q191.85 -3.55 191.75 -5.6 191.65 -7.3 191.95 -8.25 192.1 -8.65 191.85 -9.2 M175.95 -10.7 Q177.1 -7.7 175.85 -4.65 L175.6 -4.0 175.25 -2.6 174.45 0.0 175.25 -2.6 175.6 -4.0 175.85 -4.65 Q177.1 -7.7 175.95 -10.7 M195.4 3.6 Q195.05 1.7 195.65 0.85 L195.7 0.8 195.65 0.85 Q195.05 1.7 195.4 3.6 M174.45 19.45 L174.65 17.45 175.0 17.05 175.75 17.15 Q177.4 18.4 179.0 21.0 179.7 22.15 181.1 22.6 L181.95 23.2 186.2 28.65 181.95 23.2 181.1 22.6 Q179.7 22.15 179.0 21.0 177.4 18.4 175.75 17.15 L175.0 17.05 174.65 17.45 174.45 19.45 M185.2 0.55 L184.9 1.55 Q184.65 6.7 184.65 11.8 L184.9 12.55 Q185.95 13.7 184.65 15.35 L184.3 15.95 183.95 16.8 181.6 21.0 183.95 16.8 184.3 15.95 184.65 15.35 Q185.95 13.7 184.9 12.55 L184.65 11.8 Q184.65 6.7 184.9 1.55 L185.2 0.55 M192.35 29.2 L191.8 29.55 Q190.85 29.95 190.45 29.15 L188.75 26.6 187.7 28.1 187.2 28.5 186.7 28.8 Q186.45 29.65 185.6 30.05 183.6 31.0 183.65 33.25 183.65 33.8 183.9 34.05 184.6 34.85 184.8 36.35 185.05 38.55 187.5 39.4 187.55 41.1 188.4 41.8 191.05 44.0 192.85 48.1 191.05 44.0 188.4 41.8 187.55 41.1 187.5 39.4 185.05 38.55 184.8 36.35 184.6 34.85 183.9 34.05 183.65 33.8 183.65 33.25 183.6 31.0 185.6 30.05 186.45 29.65 186.7 28.8 L187.2 28.5 187.7 28.1 188.75 26.6 190.45 29.15 Q190.85 29.95 191.8 29.55 L192.35 29.2 M194.9 53.2 Q195.15 51.95 195.7 51.0 195.15 51.95 194.9 53.2" fill="url(#gradient4)" fill-rule="evenodd" stroke="none"/>
    <path d="M195.7 -23.25 L366.5 -23.25 366.5 27.6 366.5 51.2 366.5 66.7 195.7 66.7 195.7 51.0 196.0 50.15 Q196.25 48.55 195.7 47.9 196.25 48.55 196.0 50.15 L195.7 51.0 195.7 47.9 195.7 0.8 195.7 -3.55 196.0 -3.1 Q196.65 -2.25 196.25 -0.55 L196.05 0.05 195.7 0.8 196.05 0.05 196.25 -0.55 Q196.65 -2.25 196.0 -3.1 L195.7 -3.55 195.7 -23.25 M253.75 2.6 L251.7 2.6 250.75 2.4 Q248.9 1.65 246.55 1.95 L245.1 2.2 237.85 2.65 236.4 2.45 Q232.05 1.45 227.15 1.55 L225.65 1.35 223.55 1.2 222.5 1.35 217.4 1.55 216.55 1.3 Q213.95 -0.4 210.75 -0.05 L209.25 0.2 Q205.55 1.3 202.05 -0.5 L201.35 -0.9 Q199.3 -2.15 197.9 -4.05 L197.6 -4.65 197.4 -5.6 196.95 -10.2 197.4 -5.6 197.6 -4.65 197.9 -4.05 Q199.3 -2.15 201.35 -0.9 L202.05 -0.5 Q205.55 1.3 209.25 0.2 L210.75 -0.05 Q213.95 -0.4 216.55 1.3 L217.4 1.55 222.5 1.35 223.55 1.2 225.65 1.35 227.15 1.55 Q232.05 1.45 236.4 2.45 L237.85 2.65 245.1 2.2 246.55 1.95 Q248.9 1.65 250.75 2.4 L251.7 2.6 253.75 2.6 M356.55 48.1 Q355.75 48.25 356.7 49.0 359.1 50.95 363.2 51.1 L366.5 51.2 363.2 51.1 Q359.1 50.95 356.7 49.0 355.75 48.25 356.55 48.1 M324.85 -6.65 L323.8 -6.65 322.9 -6.45 Q321.65 -5.8 319.7 -5.1 321.65 -5.8 322.9 -6.45 L323.8 -6.65 324.85 -6.65 M318.2 -12.25 L318.55 -11.2 318.85 -9.75 319.0 -8.7 319.2 -1.5 319.0 -0.9 Q317.7 -0.35 316.15 1.1 L311.55 0.9 305.4 0.6 298.8 -0.2 294.6 -1.3 290.55 -1.8 289.55 -1.75 Q287.65 -1.6 286.95 -0.5 287.65 -1.6 289.55 -1.75 L290.55 -1.8 294.6 -1.3 298.8 -0.2 305.4 0.6 311.55 0.9 316.15 1.1 Q317.7 -0.35 319.0 -0.9 L319.2 -1.5 319.0 -8.7 318.85 -9.75 318.55 -11.2 318.2 -12.25 M245.05 -15.35 L244.5 -14.3 244.15 -13.25 243.45 -10.7 243.1 -9.65 Q241.9 -5.9 241.2 -2.1 240.75 0.4 237.85 1.05 240.75 0.4 241.2 -2.1 241.9 -5.9 243.1 -9.65 L243.45 -10.7 244.15 -13.25 244.5 -14.3 245.05 -15.35 M349.4 38.9 Q348.75 38.25 349.0 36.9 L349.25 35.8 Q349.65 33.95 349.25 31.75 L349.0 30.65 Q348.85 30.2 349.05 29.8 L350.45 27.2 Q351.15 26.1 352.95 26.1 351.15 26.1 350.45 27.2 L349.05 29.8 Q348.85 30.2 349.0 30.65 L349.25 31.75 Q349.65 33.95 349.25 35.8 L349.0 36.9 Q348.75 38.25 349.4 38.9 M328.9 35.85 Q328.15 35.25 328.6 34.0 327.95 32.95 327.9 31.2 L327.65 30.45 326.9 30.0 325.3 29.4 324.65 28.95 Q324.2 28.3 323.3 29.2 324.2 28.3 324.65 28.95 L325.3 29.4 326.9 30.0 327.65 30.45 327.9 31.2 Q327.95 32.95 328.6 34.0 328.15 35.25 328.9 35.85 M335.55 9.25 Q334.5 8.45 333.95 7.25 L333.7 6.6 Q333.5 5.9 333.7 5.2 L333.7 4.7 Q333.3 3.1 332.5 1.55 333.3 3.1 333.7 4.7 L333.7 5.2 Q333.5 5.9 333.7 6.6 L333.95 7.25 Q334.5 8.45 335.55 9.25 M349.9 1.05 Q349.65 0.8 349.4 0.8 L348.35 0.9 345.8 1.2 339.65 1.35 337.6 1.2 328.4 1.65 326.85 1.9 320.75 1.5 319.75 1.25 319.45 0.75 Q318.6 -0.35 319.2 -0.5 318.6 -0.35 319.45 0.75 L319.75 1.25 320.75 1.5 326.85 1.9 328.4 1.65 337.6 1.2 339.65 1.35 345.8 1.2 348.35 0.9 349.4 0.8 Q349.65 0.8 349.9 1.05 M343.25 25.1 L346.8 24.35 347.85 24.25 Q350.25 24.1 352.4 24.8 L357.55 26.15 366.5 27.6 357.55 26.15 352.4 24.8 Q350.25 24.1 347.85 24.25 L346.8 24.35 343.25 25.1 M218.95 36.1 L219.2 36.85 219.1 37.9 218.75 39.35 218.6 39.95 Q218.45 40.45 218.65 40.85 219.2 42.0 219.0 44.0 L218.75 44.95 215.35 52.2 218.75 44.95 219.0 44.0 Q219.2 42.0 218.65 40.85 218.45 40.45 218.6 39.95 L218.75 39.35 219.1 37.9 219.2 36.85 218.95 36.1 M231.75 8.7 L231.8 8.2 Q232.35 4.35 229.7 2.6 232.35 4.35 231.8 8.2 L231.75 8.7 M285.0 28.25 Q282.4 29.9 283.4 32.25 282.4 29.9 285.0 28.25 M273.7 55.25 Q276.05 54.95 277.7 54.15 L278.35 53.95 Q279.3 53.75 279.6 53.1 L280.3 51.15 279.6 53.1 Q279.3 53.75 278.35 53.95 L277.7 54.15 Q276.05 54.95 273.7 55.25 M246.3 49.15 L246.25 50.15 Q245.85 53.5 243.0 54.25 245.85 53.5 246.25 50.15 L246.3 49.15 M284.4 46.55 Q283.4 45.7 283.4 44.5 L283.6 43.6 284.65 41.05 Q285.05 39.85 284.75 38.45 L284.6 37.8 284.2 35.9 284.05 35.25 283.8 34.35 Q283.1 31.6 281.85 30.2 L281.6 29.7 Q281.6 28.15 279.8 28.6 277.9 29.0 277.25 28.15 277.9 29.0 279.8 28.6 281.6 28.15 281.6 29.7 L281.85 30.2 Q283.1 31.6 283.8 34.35 L284.05 35.25 284.2 35.9 284.6 37.8 284.75 38.45 Q285.05 39.85 284.65 41.05 L283.6 43.6 283.4 44.5 Q283.4 45.7 284.4 46.55 M294.65 13.3 L294.4 8.2 294.3 7.65 Q294.15 7.2 294.35 6.75 294.75 6.0 294.85 4.6 294.9 4.1 295.25 3.7 L298.8 -0.2 295.25 3.7 Q294.9 4.1 294.85 4.6 294.75 6.0 294.35 6.75 294.15 7.2 294.3 7.65 L294.4 8.2 294.65 13.3 M313.55 22.55 Q312.7 22.85 312.05 24.05 L311.1 26.15 Q310.65 27.55 308.95 27.5 L298.75 28.1 293.05 27.75 290.55 27.25 289.05 27.35 281.35 28.0 278.8 27.8 Q276.25 27.65 273.7 27.85 L272.6 28.0 267.5 29.05 266.55 29.35 261.4 29.15 260.35 28.75 257.8 28.25 255.3 27.95 252.65 27.25 Q250.05 26.2 249.5 24.1 L249.4 23.05 Q249.45 21.8 250.15 22.55 249.45 21.8 249.4 23.05 L249.5 24.1 Q250.05 26.2 252.65 27.25 L255.3 27.95 257.8 28.25 260.35 28.75 261.4 29.15 266.55 29.35 267.5 29.05 272.6 28.0 273.7 27.85 Q276.25 27.65 278.8 27.8 L281.35 28.0 289.05 27.35 290.55 27.25 293.05 27.75 298.75 28.1 308.95 27.5 Q310.65 27.55 311.1 26.15 L312.05 24.05 Q312.7 22.85 313.55 22.55 M316.15 1.1 L319.7 1.25 319.75 1.25 319.85 1.5 320.2 2.05 320.75 2.6 320.2 2.05 319.85 1.5 319.75 1.25 319.7 1.25 316.15 1.1 M201.35 -0.9 Q199.9 -0.1 199.4 1.5 L198.7 4.15 198.5 5.65 198.7 4.15 199.4 1.5 Q199.9 -0.1 201.35 -0.9 M200.0 22.0 Q199.1 23.0 198.6 25.1 L198.3 26.0 Q197.75 26.9 197.9 28.65 L197.7 29.5 Q197.1 30.35 197.4 32.25 L197.65 33.15 Q198.05 33.95 197.95 35.3 198.05 33.95 197.65 33.15 L197.4 32.25 Q197.1 30.35 197.7 29.5 L197.9 28.65 Q197.75 26.9 198.3 26.0 L198.6 25.1 Q199.1 23.0 200.0 22.0 M217.2 50.55 Q217.65 51.85 218.35 53.0 L213.35 53.4 212.3 53.5 205.15 53.75 203.65 53.6 Q201.1 53.05 199.55 52.1 L199.15 51.65 Q198.85 50.55 197.85 49.85 195.55 48.3 196.95 45.55 195.55 48.3 197.85 49.85 198.85 50.55 199.15 51.65 L199.55 52.1 Q201.1 53.05 203.65 53.6 L205.15 53.75 212.3 53.5 213.35 53.4 218.35 53.0 Q217.65 51.85 217.2 50.55 M199.0 57.8 Q198.0 57.3 199.05 55.85 L199.35 55.2 Q199.5 54.75 199.75 54.45 200.65 53.35 200.55 53.75 200.65 53.35 199.75 54.45 199.5 54.75 199.35 55.2 L199.05 55.85 Q198.0 57.3 199.0 57.8 M242.45 60.4 L242.45 59.85 242.45 55.55 242.3 55.35 241.9 54.8 Q241.3 53.9 239.4 54.05 L233.25 54.45 232.25 54.5 231.15 54.4 226.6 53.65 Q224.7 53.4 224.05 54.25 222.9 53.65 221.55 53.5 L220.95 53.25 219.95 52.95 218.45 53.0 218.35 53.0 218.45 53.0 219.95 52.95 220.95 53.25 221.55 53.5 Q222.9 53.65 224.05 54.25 224.7 53.4 226.6 53.65 L231.15 54.4 232.25 54.5 233.25 54.45 239.4 54.05 Q241.3 53.9 241.9 54.8 L242.3 55.35 242.45 55.55 243.0 56.3 242.45 55.55 242.45 59.85 242.45 60.4" fill="url(#gradient5)" fill-rule="evenodd" stroke="none"/>
    <path d="M366.5 -23.25 L379.15 -23.25 379.15 -7.65 378.25 -7.6 374.6 -7.25 373.5 -7.0 Q371.05 -6.25 371.6 -6.1 371.05 -6.25 373.5 -7.0 L374.6 -7.25 378.25 -7.6 379.15 -7.65 379.15 28.85 379.15 50.75 379.15 66.7 366.5 66.7 366.5 51.2 366.5 27.6 368.0 27.75 372.25 28.05 377.0 28.35 378.25 28.6 379.15 28.85 378.25 28.6 377.0 28.35 372.25 28.05 368.0 27.75 366.5 27.6 366.5 -23.25 M379.15 50.75 Q377.25 50.6 375.25 50.8 L366.5 51.2 375.25 50.8 Q377.25 50.6 379.15 50.75" fill="url(#gradient6)" fill-rule="evenodd" stroke="none"/>
    <path d="M379.15 -23.25 L405.75 -23.25 405.75 50.65 405.75 66.7 379.15 66.7 379.15 50.75 380.8 50.95 384.0 50.85 390.3 50.2 399.95 49.85 Q401.35 49.65 402.7 50.4 L403.75 50.65 405.75 50.65 403.75 50.65 402.7 50.4 Q401.35 49.65 399.95 49.85 L390.3 50.2 384.0 50.85 380.8 50.95 379.15 50.75 379.15 28.85 379.15 -7.65 379.15 -23.25 M388.4 -7.65 L388.4 -8.15 388.15 -9.1 Q387.35 -10.4 387.5 -12.75 387.7 -16.25 386.5 -19.4 387.7 -16.25 387.5 -12.75 387.35 -10.4 388.15 -9.1 L388.4 -8.15 388.4 -7.65 M402.45 -6.1 L398.05 -5.9 397.35 -5.85 391.6 -6.1 390.4 -6.3 Q385.25 -7.9 379.15 -7.65 385.25 -7.9 390.4 -6.3 L391.6 -6.1 397.35 -5.85 398.05 -5.9 402.45 -6.1 M390.3 8.7 Q391.2 9.8 390.85 11.8 390.3 15.0 390.4 18.45 390.4 20.65 389.8 22.55 L389.5 23.5 Q387.8 27.35 384.55 28.65 387.8 27.35 389.5 23.5 L389.8 22.55 Q390.4 20.65 390.4 18.45 390.3 15.0 390.85 11.8 391.2 9.8 390.3 8.7 M379.95 0.7 L386.5 6.15 379.95 0.7 M392.3 26.5 Q390.75 26.0 390.3 24.55 390.75 26.0 392.3 26.5 M395.45 27.15 Q394.6 28.0 392.25 27.65 L388.3 27.95 387.25 28.35 Q383.35 29.9 379.15 28.85 383.35 29.9 387.25 28.35 L388.3 27.95 392.25 27.65 Q394.6 28.0 395.45 27.15 M382.0 55.8 L381.45 55.2 Q380.45 54.0 380.75 51.7 380.45 54.0 381.45 55.2 L382.0 55.8" fill="url(#gradient7)" fill-rule="evenodd" stroke="none"/>
    <path d="M173.05 9.75 L172.75 23.25 176.0 29.35 103.05 64.85 116.5 10.25 173.05 9.75" fill="#000000" fill-opacity="0.37254903" fill-rule="evenodd" stroke="none"/>
    <path d="M15.85 49.7 Q14.1 49.8 12.95 50.5 12.35 50.9 11.4 51.1 L6.0 51.45 5.05 51.4 Q1.9 51.15 0.2 50.4 -0.3 50.15 -1.1 50.0 L-2.15 49.75 M-2.05 -1.0 Q-0.95 -1.85 2.4 -1.65 L7.8 -1.3 9.7 -1.1 15.85 -0.45 22.05 -0.75 23.15 -0.95 24.55 -1.15 26.1 -1.35 27.6 -1.7 28.2 -1.8 Q31.95 -2.45 35.4 -3.75 L37.35 -4.0 41.05 -5.4 41.25 -5.5 41.45 -5.6 Q41.2 -7.15 40.3 -8.05 39.25 -9.1 39.6 -10.65 L39.7 -11.3 40.1 -13.25 40.2 -13.85 40.4 -17.35 M37.85 -9.2 Q38.05 -11.45 35.25 -11.0 L34.75 -11.05 Q32.9 -11.35 32.2 -10.25 L31.75 -9.7 Q30.9 -8.9 30.7 -8.15 L29.7 -8.7 M76.75 -3.55 L75.25 -3.7 74.25 -3.7 71.1 -3.45 65.5 -3.35 61.4 -3.05 56.35 -2.35 55.7 -2.25 52.2 -2.05 51.35 -1.8 Q50.65 -1.25 49.7 -1.6 L48.55 -1.9 47.7 -2.25 45.55 -2.75 43.5 -3.1 Q43.0 -3.3 42.8 -3.7 42.2 -5.05 41.25 -5.5 M61.9 -2.55 Q61.8 -2.85 62.85 -1.95 64.15 -0.85 64.6 0.6 L64.9 -1.0 Q65.2 -2.3 67.0 -2.05 M94.65 -3.05 Q97.2 -3.35 98.8 -4.5 L99.15 -4.75 Q101.15 -6.4 101.05 -9.2 L101.1 -9.75 Q101.3 -11.6 100.8 -13.3 100.5 -14.35 101.05 -14.7 L101.45 -15.3 101.6 -15.9 Q101.8 -17.75 101.4 -19.4 101.0 -21.2 101.8 -22.5 M98.8 -4.5 Q99.7 -2.65 100.1 -0.45 L100.4 1.0 100.65 2.1 100.95 3.05 101.1 3.65 Q101.55 5.6 101.0 6.75 L100.8 7.7 101.0 10.7 101.1 11.3 Q101.6 14.3 100.8 16.9 M405.75 50.65 L408.85 50.65 M366.5 51.2 L363.2 51.1 Q359.1 50.95 356.7 49.0 355.75 48.25 356.55 48.1 M196.95 -10.2 L197.4 -5.6 197.6 -4.65 197.9 -4.05 Q199.3 -2.15 201.35 -0.9 L202.05 -0.5 Q205.55 1.3 209.25 0.2 L210.75 -0.05 Q213.95 -0.4 216.55 1.3 L217.4 1.55 222.5 1.35 223.55 1.2 225.65 1.35 227.15 1.55 Q232.05 1.45 236.4 2.45 L237.85 2.65 245.1 2.2 246.55 1.95 Q248.9 1.65 250.75 2.4 L251.7 2.6 253.75 2.6 M237.85 1.05 Q240.75 0.4 241.2 -2.1 241.9 -5.9 243.1 -9.65 L243.45 -10.7 244.15 -13.25 244.5 -14.3 245.05 -15.35 M286.95 -0.5 Q287.65 -1.6 289.55 -1.75 L290.55 -1.8 294.6 -1.3 298.8 -0.2 305.4 0.6 311.55 0.9 316.15 1.1 Q317.7 -0.35 319.0 -0.9 L319.2 -1.5 319.0 -8.7 318.85 -9.75 318.55 -11.2 318.2 -12.25 M319.7 -5.1 Q321.65 -5.8 322.9 -6.45 L323.8 -6.65 324.85 -6.65 M379.15 -7.65 L378.25 -7.6 374.6 -7.25 373.5 -7.0 Q371.05 -6.25 371.6 -6.1 M379.15 -7.65 Q385.25 -7.9 390.4 -6.3 L391.6 -6.1 397.35 -5.85 398.05 -5.9 402.45 -6.1 M386.5 -19.4 Q387.7 -16.25 387.5 -12.75 387.35 -10.4 388.15 -9.1 L388.4 -8.15 388.4 -7.65 M384.55 28.65 Q387.8 27.35 389.5 23.5 L389.8 22.55 Q390.4 20.65 390.4 18.45 390.3 15.0 390.85 11.8 391.2 9.8 390.3 8.7 M379.15 28.85 L378.25 28.6 377.0 28.35 372.25 28.05 368.0 27.75 366.5 27.6 357.55 26.15 352.4 24.8 Q350.25 24.1 347.85 24.25 L346.8 24.35 343.25 25.1 M379.15 28.85 Q383.35 29.9 387.25 28.35 L388.3 27.95 392.25 27.65 Q394.6 28.0 395.45 27.15 M390.3 24.55 Q390.75 26.0 392.3 26.5 M386.5 6.15 L379.95 0.7 M319.2 -0.5 Q318.6 -0.35 319.45 0.75 L319.75 1.25 320.75 1.5 326.85 1.9 328.4 1.65 337.6 1.2 339.65 1.35 345.8 1.2 348.35 0.9 349.4 0.8 Q349.65 0.8 349.9 1.05 M332.5 1.55 Q333.3 3.1 333.7 4.7 L333.7 5.2 Q333.5 5.9 333.7 6.6 L333.95 7.25 Q334.5 8.45 335.55 9.25 M323.3 29.2 Q324.2 28.3 324.65 28.95 L325.3 29.4 326.9 30.0 327.65 30.45 327.9 31.2 Q327.95 32.95 328.6 34.0 328.15 35.25 328.9 35.85 M352.95 26.1 Q351.15 26.1 350.45 27.2 L349.05 29.8 Q348.85 30.2 349.0 30.65 L349.25 31.75 Q349.65 33.95 349.25 35.8 L349.0 36.9 Q348.75 38.25 349.4 38.9 M405.75 50.65 L403.75 50.65 402.7 50.4 Q401.35 49.65 399.95 49.85 L390.3 50.2 384.0 50.85 380.8 50.95 379.15 50.75 M380.75 51.7 Q380.45 54.0 381.45 55.2 L382.0 55.8 M366.5 51.2 L375.25 50.8 Q377.25 50.6 379.15 50.75 M320.75 2.6 L320.2 2.05 319.85 1.5 319.75 1.25 319.7 1.25 316.15 1.1 M250.15 22.55 Q249.45 21.8 249.4 23.05 L249.5 24.1 Q250.05 26.2 252.65 27.25 L255.3 27.95 257.8 28.25 260.35 28.75 261.4 29.15 266.55 29.35 267.5 29.05 272.6 28.0 273.7 27.85 Q276.25 27.65 278.8 27.8 L281.35 28.0 289.05 27.35 290.55 27.25 293.05 27.75 298.75 28.1 308.95 27.5 Q310.65 27.55 311.1 26.15 L312.05 24.05 Q312.7 22.85 313.55 22.55 M298.8 -0.2 L295.25 3.7 Q294.9 4.1 294.85 4.6 294.75 6.0 294.35 6.75 294.15 7.2 294.3 7.65 L294.4 8.2 294.65 13.3 M277.25 28.15 Q277.9 29.0 279.8 28.6 281.6 28.15 281.6 29.7 L281.85 30.2 Q283.1 31.6 283.8 34.35 L284.05 35.25 284.2 35.9 284.6 37.8 284.75 38.45 Q285.05 39.85 284.65 41.05 L283.6 43.6 283.4 44.5 Q283.4 45.7 284.4 46.55 M243.0 54.25 Q245.85 53.5 246.25 50.15 L246.3 49.15 M280.3 51.15 L279.6 53.1 Q279.3 53.75 278.35 53.95 L277.7 54.15 Q276.05 54.95 273.7 55.25 M283.4 32.25 Q282.4 29.9 285.0 28.25 M229.7 2.6 Q232.35 4.35 231.8 8.2 L231.75 8.7 M215.35 52.2 L218.75 44.95 219.0 44.0 Q219.2 42.0 218.65 40.85 218.45 40.45 218.6 39.95 L218.75 39.35 219.1 37.9 219.2 36.85 218.95 36.1 M198.5 5.65 L198.7 4.15 199.4 1.5 Q199.9 -0.1 201.35 -0.9 M197.95 35.3 Q198.05 33.95 197.65 33.15 L197.4 32.25 Q197.1 30.35 197.7 29.5 L197.9 28.65 Q197.75 26.9 198.3 26.0 L198.6 25.1 Q199.1 23.0 200.0 22.0 M200.55 53.75 Q200.65 53.35 199.75 54.45 199.5 54.75 199.35 55.2 L199.05 55.85 Q198.0 57.3 199.0 57.8 M196.95 45.55 Q195.55 48.3 197.85 49.85 198.85 50.55 199.15 51.65 L199.55 52.1 Q201.1 53.05 203.65 53.6 L205.15 53.75 212.3 53.5 213.35 53.4 218.35 53.0 Q217.65 51.85 217.2 50.55 M218.35 53.0 L218.45 53.0 219.95 52.95 220.95 53.25 221.55 53.5 Q222.9 53.65 224.05 54.25 224.7 53.4 226.6 53.65 L231.15 54.4 232.25 54.5 233.25 54.45 239.4 54.05 Q241.3 53.9 241.9 54.8 L242.3 55.35 242.45 55.55 243.0 56.3 M242.45 55.55 L242.45 59.85 242.45 60.4 M100.25 16.9 L100.05 18.4 Q99.35 21.1 96.25 22.15 L95.75 22.3 Q96.05 23.7 97.25 24.5 98.3 25.25 98.05 27.1 L97.8 28.2 Q96.95 31.25 96.95 34.8 96.95 35.35 96.55 35.75 95.95 36.4 96.2 37.35 M90.55 22.0 Q90.9 22.95 92.6 22.75 L95.6 22.3 95.75 22.3 95.65 22.0 M87.5 44.0 Q88.8 43.4 88.3 41.5 88.5 40.95 88.95 40.8 L92.1 39.4 M80.3 42.5 L83.9 42.1 Q84.85 42.05 85.6 42.85 L86.2 43.65 86.6 44.45 86.85 45.1 Q87.25 46.1 86.7 46.45 86.45 46.6 86.4 47.1 86.1 49.6 83.95 49.85 L83.4 49.95 Q80.25 50.2 78.4 48.95 77.45 48.35 77.85 47.15 L78.3 44.8 77.75 45.05 Q77.65 43.9 78.55 43.75 76.75 42.7 74.2 42.75 L72.65 42.65 Q70.5 42.35 69.4 43.25 L68.6 43.7 66.5 44.45 Q63.55 45.4 60.9 43.95 60.1 43.5 59.3 43.2 L58.35 42.95 Q56.95 42.9 56.8 44.0 M89.55 47.6 Q88.5 46.9 90.1 47.4 92.95 48.35 96.2 47.9 L97.15 47.55 97.7 47.1 M97.0 66.7 L96.2 67.05 M97.0 66.7 Q98.65 65.85 99.8 64.45 L100.2 63.95 Q101.55 62.3 100.5 61.15 100.25 60.9 100.1 60.45 L100.0 59.85 Q100.0 57.85 99.45 56.7 99.25 56.3 99.4 55.85 L99.75 53.75 M64.45 15.35 Q64.1 13.6 64.75 12.2 L65.2 11.4 Q65.6 10.65 65.4 9.25 65.15 7.9 64.35 6.7 63.95 6.15 64.1 5.2 L64.4 4.1 Q64.95 2.4 64.7 1.0 L64.6 0.6 M58.35 17.4 Q57.25 18.7 56.7 19.9 55.8 21.9 52.7 22.65 L51.15 23.05 46.05 23.8 Q43.3 23.85 40.95 23.1 L37.35 22.75 35.8 22.85 30.7 23.45 Q31.4 25.8 31.45 27.65 L31.2 28.15 Q29.8 29.55 28.85 31.85 28.65 32.25 28.6 32.75 28.5 33.9 28.0 34.7 L28.8 37.85 29.15 38.9 M30.7 44.5 Q31.2 45.5 32.7 46.6 35.25 48.5 36.6 50.25 37.05 49.8 37.85 49.75 39.35 49.6 40.5 50.55 42.1 51.85 43.15 50.8 43.5 50.4 44.05 50.3 L46.65 49.35 Q47.1 49.15 47.6 49.1 48.9 49.0 49.1 48.1 M24.55 3.1 L24.6 2.6 Q25.2 0.05 23.15 -0.95 M30.7 23.45 Q28.45 23.8 26.6 23.0 L25.6 22.6 23.9 22.8 23.05 23.0 Q22.15 22.9 22.4 21.5 22.7 19.8 21.8 19.35 L21.0 19.45 M15.85 49.7 L17.85 49.85 Q22.4 51.0 27.65 50.7 L30.15 50.85 Q32.4 51.2 33.75 52.7 L34.35 53.05 Q36.8 53.6 36.35 56.3 M18.95 22.55 Q19.25 21.45 18.45 21.35 L17.4 21.25 16.85 21.3 15.85 21.5 Q9.55 22.25 6.55 24.95 5.5 25.9 3.3 25.55 1.45 25.3 0.85 25.85 L-0.15 25.9 -4.8 25.6 M28.0 34.7 L26.65 35.95 26.1 36.35 Q25.3 37.3 26.6 38.9 M36.85 50.65 L36.6 50.25 Q35.8 51.0 35.8 52.7 M61.25 66.7 L61.4 67.55 M61.4 64.45 Q62.95 64.45 63.65 65.9 M55.85 66.7 Q56.2 64.55 58.45 63.65 59.25 63.3 59.45 62.4 L59.3 61.9 Q58.9 60.35 57.65 59.0 L56.85 58.3 Q55.45 57.3 54.65 55.85 54.5 55.55 54.5 55.25 54.35 53.65 54.9 52.25 L55.15 51.65 Q55.6 50.7 56.3 50.65 M55.75 67.55 L55.85 66.7 M61.25 66.7 Q60.95 65.55 60.1 64.75 59.85 64.5 59.75 63.95 L59.45 62.4" fill="none" stroke="#22221a" stroke-linecap="round" stroke-linejoin="round" stroke-width="1.0"/>
    <path d="M104.35 -6.65 Q105.9 -9.25 109.05 -11.05 110.5 -11.85 111.4 -13.35 111.95 -14.35 113.05 -14.8 112.75 -13.75 113.4 -13.45 L113.85 -12.75 113.7 -12.2 113.45 -11.3 113.05 -10.2 M102.9 -7.15 L102.6 -5.1 102.4 -2.55 Q102.3 -2.0 102.55 -1.65 L102.9 -0.7 M102.9 -7.15 L103.15 -7.75 103.35 -8.7 M123.8 -10.2 L125.85 -10.55 Q129.2 -10.8 132.05 -9.9 L133.5 -9.65 146.3 -10.05 150.45 -9.9 153.5 -10.0 156.05 -10.7 M155.0 -0.5 L158.0 -0.3 158.6 -0.25 164.7 0.0 M143.75 -10.2 L144.2 -12.75 144.25 -13.3 M162.15 -2.05 L162.6 -3.1 M174.45 0.0 L175.25 -2.6 175.6 -4.0 175.85 -4.65 Q177.1 -7.7 175.95 -10.7 M192.35 17.9 Q190.95 14.2 190.45 10.75 190.3 9.5 190.45 8.2 L190.65 6.65 191.0 3.1 191.1 2.05 191.55 -0.95 191.6 -1.55 Q191.85 -3.55 191.75 -5.6 191.65 -7.3 191.95 -8.25 192.1 -8.65 191.85 -9.2 M195.7 -3.55 Q195.05 -4.65 195.15 -6.1 195.3 -8.2 194.8 -10.15 L194.45 -11.25 194.4 -11.75 M195.7 0.8 L196.05 0.05 196.25 -0.55 Q196.65 -2.25 196.0 -3.1 L195.7 -3.55 M195.7 47.9 Q196.25 48.55 196.0 50.15 L195.7 51.0 Q195.15 51.95 194.9 53.2 M195.7 0.8 L195.65 0.85 Q195.05 1.7 195.4 3.6 M181.6 21.0 L183.95 16.8 184.3 15.95 184.65 15.35 Q185.95 13.7 184.9 12.55 L184.65 11.8 Q184.65 6.7 184.9 1.55 L185.2 0.55 M186.2 28.65 L181.95 23.2 181.1 22.6 Q179.7 22.15 179.0 21.0 177.4 18.4 175.75 17.15 L175.0 17.05 174.65 17.45 174.45 19.45 M192.85 48.1 Q191.05 44.0 188.4 41.8 187.55 41.1 187.5 39.4 185.05 38.55 184.8 36.35 184.6 34.85 183.9 34.05 183.65 33.8 183.65 33.25 183.6 31.0 185.6 30.05 186.45 29.65 186.7 28.8 L187.2 28.5 187.7 28.1 188.75 26.6 190.45 29.15 Q190.85 29.95 191.8 29.55 L192.35 29.2 M195.7 47.9 L195.65 47.85 Q195.4 47.6 195.3 47.1 L194.9 45.55 M104.35 42.5 Q104.5 37.45 106.1 32.85 106.85 30.8 107.1 28.65 L107.3 27.15 107.65 24.6 107.75 24.0 Q108.25 21.75 109.7 19.55 L111.05 16.9 111.45 15.9 112.85 13.15 112.95 12.3 Q112.7 10.95 113.3 10.45 L113.55 9.75 113.55 6.65 M108.45 19.45 Q108.7 15.7 108.2 12.25 L107.95 9.25 M102.9 12.55 L103.1 12.15 103.35 11.25 Q103.35 9.2 103.5 7.2 L103.6 6.15 Q103.7 4.05 103.25 2.05 L103.05 0.55 102.9 -0.7 M102.9 12.55 L102.9 14.05 103.35 14.85 M113.55 14.35 L114.0 15.4 114.1 15.9" fill="none" stroke="#16100c" stroke-linecap="round" stroke-linejoin="round" stroke-width="1.0"/>
    <path d="M102.9 -20.35 L102.9 -23.25 M102.9 -7.15 Q103.0 -10.15 102.7 -12.95 102.45 -15.75 102.9 -19.15 M195.7 -9.95 Q195.35 -7.75 195.7 -3.95 195.1 -3.9 195.7 -3.55 M195.7 -23.25 Q195.7 -19.3 195.95 -16.8 196.2 -14.25 195.7 -11.25 M195.7 40.7 Q196.45 43.85 196.05 45.3 195.65 46.75 195.7 47.9 M195.7 27.4 L195.6 33.1 195.7 39.4 M195.7 14.1 L195.8 19.95 195.7 26.1 M195.7 0.8 L195.8 7.45 195.7 12.8 M195.7 64.3 Q196.35 64.35 195.7 66.7 M195.7 51.0 Q196.55 54.1 196.1 57.05 195.7 60.0 195.7 63.0 M102.9 25.75 L102.8 21.1 102.9 14.05 M102.9 38.95 L102.7 32.85 Q102.45 29.3 102.9 26.95 M102.9 52.25 Q102.55 48.3 102.8 45.4 103.1 42.5 102.9 40.25 M102.9 65.5 Q103.0 62.4 103.4 59.25 103.85 56.15 102.9 53.5" fill="none" stroke="#22221a" stroke-linecap="round" stroke-linejoin="round" stroke-width="1.0"/>
    <path d="M353.4 66.7 L359.0 67.2 365.4 66.7 M340.1 66.7 Q342.25 66.55 345.65 66.7 L352.1 66.7 M320.9 66.7 L326.7 66.7 332.65 66.7 338.9 66.7 M399.25 66.7 L403.45 66.65 405.75 66.7 M379.95 66.7 L385.45 67.0 391.25 66.75 Q394.55 66.6 397.95 66.7 M366.65 66.7 Q369.95 67.7 372.75 67.25 L378.65 66.7 M274.0 66.7 Q276.35 66.45 280.0 66.7 M260.8 66.7 L267.1 66.7 272.8 66.7 M247.5 66.7 L253.45 66.6 259.5 66.7 M307.7 66.7 L313.95 66.9 319.7 66.7 M294.5 66.7 L300.55 66.25 306.5 66.7 M281.2 66.7 L286.9 66.55 293.2 66.7 M195.7 66.7 L201.8 67.05 207.7 66.7 M228.2 66.7 L234.6 66.45 240.3 66.85 246.2 66.7 M209.0 66.7 L214.95 66.95 221.45 66.5 227.0 66.7 M89.8 66.7 Q93.1 66.9 96.45 66.75 L101.8 66.7 102.9 66.7 M76.5 66.7 L82.7 66.45 88.5 66.7 M23.45 66.7 L29.55 66.6 35.45 66.7 M4.25 66.7 L10.3 66.55 16.45 66.4 22.25 66.7 M63.2 66.7 Q66.35 66.3 69.65 66.55 L75.2 66.7 M49.95 66.7 L55.75 66.85 61.95 66.7 M36.75 66.7 L42.95 66.3 Q45.75 65.75 48.75 66.7 M-15.0 66.7 L-9.0 66.95 -3.05 67.1 3.0 66.7" fill="none" stroke="#3a2e1f" stroke-linecap="round" stroke-linejoin="round" stroke-width="1.0"/>
    <path d="M317.55 27.55 L314.0 45.85 309.55 27.55 317.55 27.55" fill="#362b1a" fill-rule="evenodd" stroke="none"/>
    <path d="M317.55 27.55 L314.0 45.85 309.55 27.55 317.55 27.55 Z" fill="none" stroke="#20170f" stroke-linecap="round" stroke-linejoin="round" stroke-width="1.0"/>
    <path d="M46.8 27.55 L43.25 45.85 38.8 27.55 46.8 27.55" fill="#362b1a" fill-rule="evenodd" stroke="none"/>
    <path d="M46.8 27.55 L43.25 45.85 38.8 27.55 46.8 27.55 Z" fill="none" stroke="#20170f" stroke-linecap="round" stroke-linejoin="round" stroke-width="1.0"/>
    <path d="M374.7 82.35 L368.55 82.35 M372.45 143.7 L366.85 142.95 364.9 143.2 363.55 143.2 M383.6 209.7 L382.35 210.6 377.45 208.95 Q375.45 209.05 374.7 210.75 M380.75 249.1 L375.9 246.8 375.3 248.0 374.4 248.4 372.85 248.35 372.45 248.2 371.75 246.9 372.45 246.05 367.95 244.6 Q366.65 244.05 366.0 242.85 365.3 241.45 363.95 240.55 360.6 242.45 358.45 245.7 358.2 246.1 358.25 246.7 358.4 248.1 356.9 248.6 356.0 248.2 355.2 247.05 354.45 246.0 352.95 246.25 348.9 246.95 346.9 250.65 M391.35 258.3 L377.95 258.15 376.2 256.95 374.8 256.85 370.75 259.85 M376.35 252.15 L372.2 252.95 Q370.85 254.65 368.4 254.3 L365.25 253.7 M313.0 97.7 Q311.0 97.5 309.25 96.25 L308.0 96.1 295.85 96.9 Q290.45 96.45 285.1 94.8 L283.0 94.85 Q282.15 95.15 281.35 95.65 M227.5 80.3 L224.8 79.9 220.85 80.3 M215.85 138.6 L221.5 139.4 222.55 141.15 Q217.55 142.85 212.4 141.15 L209.2 140.45 Q207.45 140.7 206.4 139.65 L214.15 137.6 M236.95 116.1 Q234.35 115.45 232.15 116.65 231.7 116.8 231.4 117.1 M174.75 178.5 L164.2 178.2 161.95 178.3 Q160.85 178.9 160.3 180.05 M307.9 113.6 L302.5 111.5 Q305.7 109.25 309.7 109.45 L311.95 112.0 307.9 113.6 M320.25 108.95 L319.05 109.1 318.5 108.9 318.0 107.9 319.7 107.9 M296.35 145.0 L293.05 143.7 292.5 145.25 M272.45 187.7 Q271.6 190.4 268.45 188.85 L267.85 188.1 Q267.75 187.6 267.9 187.05 269.8 186.2 271.8 186.0 L272.45 186.2 M344.1 186.7 Q339.25 185.5 335.35 188.05 334.95 188.3 334.7 188.75 M149.2 46.0 L145.35 46.55 M132.0 28.65 L125.9 28.65 M114.25 60.35 L115.65 60.5 116.85 59.7 116.45 58.8 116.4 56.35 113.1 52.15 109.65 56.3 110.35 59.0 112.55 59.3 M102.55 83.35 L93.7 83.45 92.45 83.9 Q89.45 82.7 85.9 82.85 L83.7 83.35 M123.1 61.35 L120.8 59.2 118.7 61.35 M19.25 86.95 L14.4 86.05 12.05 87.95 M23.05 71.8 L25.15 72.15 26.0 72.85 28.7 71.5 Q27.75 69.85 25.45 69.8 23.3 69.8 22.05 71.6 M38.15 75.2 Q40.95 76.3 43.15 74.7 L43.6 74.2 Q40.7 72.1 41.4 68.75 L41.4 68.2 37.5 68.05 35.75 68.1 34.85 67.5 31.45 73.65 M51.4 72.3 L49.8 72.15 49.25 73.15 M59.8 116.6 Q53.35 117.3 47.0 115.8 45.15 115.45 43.75 117.1 M8.15 161.65 L4.0 161.6 0.95 161.1 -1.25 162.65 M-1.8 180.05 L0.4 178.9 Q2.9 178.2 4.8 179.55 L1.75 180.85 0.4 178.9 M-13.75 176.7 Q-11.7 179.55 -8.45 177.55 -7.2 176.8 -5.7 177.05 -2.2 177.95 -1.25 174.9 L-10.3 174.35 Q-10.95 173.75 -11.8 173.7 L-13.1 173.6 M59.25 189.75 Q54.4 187.7 48.85 189.3 L46.95 189.65 42.05 188.9 38.8 188.3 35.35 190.8 M141.4 127.1 L135.9 127.35 M95.9 115.1 L102.55 117.65 Q99.4 119.25 95.8 119.65 L89.5 118.45 Q88.2 118.1 88.55 117.0 91.3 115.25 94.8 115.6 M81.3 114.15 L82.6 116.6 Q79.25 117.25 76.0 116.2 75.3 116.0 74.7 115.5 L80.35 113.55 M88.15 113.05 L88.4 114.25 86.25 114.45 85.9 113.55 M113.1 180.55 L115.85 181.05 115.6 181.95 Q113.85 183.8 111.4 182.75 109.3 181.95 107.0 182.3 L105.55 182.25 104.8 181.55 Q107.0 179.45 110.45 180.0 L112.55 179.55 M143.65 176.45 L141.55 176.9 140.25 176.0 137.55 177.5 M127.0 186.7 L122.55 187.2 M109.25 241.4 L90.35 240.9 M77.0 203.55 L78.2 203.8 78.4 204.95 Q75.05 205.7 73.15 203.55 74.8 202.25 77.0 202.55 M92.6 202.55 L93.55 203.35 Q91.1 204.95 89.3 203.1 L89.8 202.55 M79.35 259.75 L78.05 259.2 Q75.05 260.45 72.15 258.7 L71.05 258.35 69.25 259.85 M45.9 230.7 Q39.75 230.15 33.8 230.5 32.25 230.85 31.45 232.2 M14.85 243.45 Q11.8 243.85 10.3 241.6 L9.8 240.9 7.75 242.4 5.3 240.7 3.7 242.95 M276.9 208.7 Q273.55 207.6 270.25 207.0 268.15 207.45 266.6 208.65 L261.85 208.15 Q260.0 207.8 258.05 208.15 M320.8 262.9 Q318.5 261.9 315.7 262.2 L314.45 261.9 314.05 261.0 310.25 262.4 M337.45 251.65 L336.45 251.4 Q335.8 249.95 337.95 249.75 L339.15 251.65 M201.95 238.85 L196.5 239.2 191.8 238.8 Q189.3 239.1 187.0 240.4 M169.75 59.85 L163.1 59.85" fill="none" stroke="#22221a" stroke-linecap="round" stroke-linejoin="round" stroke-width="0.05"/>
    <path d="M380.25 56.75 Q386.05 58.7 387.65 64.2 389.0 68.6 387.0 72.6 390.65 70.4 391.6 66.55 392.4 63.65 391.35 60.85 393.85 64.1 392.65 67.8 L390.8 72.6 394.1 69.05 395.6 70.95 395.7 70.9 Q398.15 69.4 399.75 67.25 L401.35 68.0 404.9 67.65 404.85 68.75 395.0 73.5 400.05 73.35 400.25 73.1 Q401.05 72.35 402.0 72.1 L403.9 72.0 403.0 75.9 Q397.05 76.9 391.25 75.9 385.55 77.95 381.45 75.45 L380.65 75.15 379.75 75.2 376.0 77.65 373.55 77.8 Q372.75 77.0 372.4 76.05 L372.35 75.9 367.05 74.15 Q358.05 76.05 349.15 74.9 L346.75 75.3 Q345.25 75.95 343.8 75.0 L344.3 73.15 348.65 72.1 345.8 69.05 350.1 67.95 352.65 72.55 357.95 72.8 370.85 72.15 367.1 68.55 369.15 63.9 370.95 67.2 Q372.35 69.55 374.55 71.25 L374.65 71.3 375.7 72.05 375.3 70.55 376.75 70.15 Q378.35 72.45 381.2 72.75 L380.8 69.55 383.4 73.0 383.65 73.05 Q387.7 65.1 381.6 58.15 L380.25 56.75 M391.25 75.9 L386.9 74.9 380.65 75.15 386.9 74.9 391.25 75.9 M383.65 73.05 L389.1 73.65 Q390.9 72.55 393.05 71.95 L395.6 70.95 393.05 71.95 Q390.9 72.55 389.1 73.65 L395.0 73.5 389.1 73.65 383.65 73.05 M370.85 72.15 L376.0 72.85 375.7 72.05 376.0 72.85 376.2 73.65 375.3 74.15 374.4 73.25 372.3 73.45 372.2 74.9 372.35 75.9 372.2 74.9 372.3 73.45 374.4 73.25 375.3 74.15 376.2 73.65 376.0 72.85 370.85 72.15 M383.4 73.0 L381.65 72.75 381.2 72.75 381.65 72.75 383.4 73.0 M384.6 245.75 Q387.55 252.25 393.7 256.7 394.75 257.45 395.2 258.8 L394.15 259.7 389.1 258.95 388.8 260.15 388.0 260.85 Q387.3 256.45 385.7 252.45 383.6 247.05 378.95 243.85 L376.9 243.95 376.35 240.9 377.35 240.4 379.7 241.95 381.6 236.9 383.0 237.15 384.0 243.9 384.6 245.75 M352.05 240.4 L352.9 240.85 355.1 241.0 Q362.0 236.9 369.15 233.45 372.4 231.9 375.95 231.25 L381.25 231.05 381.4 232.95 377.2 233.65 373.25 234.65 Q369.0 236.15 365.25 238.65 L359.75 241.95 Q358.8 242.6 358.2 243.5 356.3 246.5 352.5 246.05 L353.55 242.7 350.65 242.4 349.65 241.4 352.05 240.4 M237.75 120.3 Q238.45 123.15 241.0 125.05 247.85 130.2 256.4 131.2 L256.6 132.75 Q248.1 133.3 241.2 128.3 L239.1 126.7 Q236.55 124.85 233.6 125.8 231.85 125.6 231.55 123.8 L231.5 123.2 234.9 122.45 235.3 119.15 237.75 120.3 M24.8 70.65 L28.2 73.45 40.15 72.45 Q44.0 72.75 47.75 71.85 51.65 71.05 53.25 67.7 L54.55 67.75 55.45 69.7 58.85 70.45 59.1 72.1 45.25 74.3 29.25 75.85 28.1 77.5 Q27.1 78.4 25.75 78.2 L25.45 78.05 25.4 74.9 24.75 74.35 Q23.2 73.5 22.85 72.05 L22.7 71.35 24.8 70.65 M-2.95 74.3 Q-6.35 69.85 -4.55 65.0 -4.15 64.0 -3.15 63.3 -0.3 61.05 3.4 61.5 8.55 62.75 9.35 68.1 9.6 69.7 9.1 71.15 L8.55 72.3 8.5 72.3 8.8 73.35 8.3 74.85 7.25 75.0 4.8 74.8 4.85 75.7 Q1.6 74.0 -1.35 75.15 L-2.95 74.3 M3.7 70.65 L3.5 71.65 3.7 70.65 M2.6 65.95 L3.85 64.0 3.4 61.5 3.85 64.0 2.6 65.95 M-0.35 68.15 L-2.05 69.2 Q-2.5 71.95 0.55 72.6 L3.3 72.55 3.5 71.65 Q2.6 69.5 0.5 68.4 L-0.35 68.15 M7.65 69.8 Q7.15 69.35 6.45 69.35 5.75 69.35 5.25 69.8 4.75 70.25 4.75 70.85 4.75 71.45 5.25 71.9 L6.45 72.35 Q7.15 72.35 7.65 71.9 L8.1 70.85 Q8.1 70.25 7.65 69.8 M6.65 73.95 L7.25 75.0 6.65 73.95 M4.25 73.15 L4.85 75.7 4.25 73.15 M13.8 263.75 L13.85 263.8 19.4 269.95 Q20.05 270.65 20.1 271.7 L20.0 272.75 17.75 272.9 16.1 270.85 14.75 270.75 12.9 272.35 11.85 272.8 11.5 273.55 10.55 273.65 7.7 264.6 Q0.55 265.2 -5.45 268.95 -8.45 270.8 -11.65 272.35 L-13.85 272.5 Q-16.9 271.65 -17.3 268.6 L-15.75 267.35 -16.85 262.45 -13.05 262.55 Q-4.7 262.0 3.4 257.35 L0.9 253.45 0.05 252.65 Q-2.35 251.8 -3.7 249.95 L-2.85 247.7 1.6 246.2 2.65 242.3 4.2 242.1 Q7.25 242.7 6.85 245.4 L6.0 247.85 Q4.6 250.15 5.75 252.7 L7.7 256.45 9.55 256.0 Q15.45 253.8 17.25 248.1 18.85 248.1 19.45 249.4 19.95 250.45 20.0 251.7 L19.95 253.45 20.4 253.8 19.3 256.4 Q24.4 255.3 27.8 251.4 28.65 250.4 28.6 249.0 28.55 247.4 29.5 246.2 L31.4 246.3 Q32.2 247.0 32.15 248.15 32.05 249.6 31.45 251.15 L32.25 251.7 33.95 251.35 35.6 249.7 37.95 253.2 37.3 253.55 38.35 253.7 Q39.1 257.95 34.7 258.85 L24.35 260.65 Q21.75 260.95 19.3 261.75 L14.25 263.4 13.8 263.75 9.4 258.85 7.7 256.45 9.4 258.85 13.8 263.75 M19.3 256.4 L9.4 258.85 19.3 256.4 M3.4 257.35 L5.15 259.9 7.7 264.6 5.15 259.9 Q-2.4 263.4 -10.4 265.7 L-15.75 267.35 -10.4 265.7 Q-2.4 263.4 5.15 259.9 L3.4 257.35 M55.95 258.3 Q60.7 264.65 58.15 271.65 57.85 272.45 56.7 272.85 53.15 274.0 49.8 272.1 56.6 269.5 56.55 262.55 56.55 260.25 55.95 258.3 M31.45 256.25 Q33.25 252.95 37.3 253.55 33.25 252.95 31.45 256.25 M43.65 271.7 Q38.55 274.35 32.5 272.65 37.8 272.15 42.0 268.85 43.6 267.5 44.5 265.9 47.7 260.25 45.9 254.2 50.4 260.6 47.55 267.55 46.35 270.3 43.65 271.7 M328.35 253.3 Q331.35 253.3 334.05 254.25 339.0 255.9 340.1 260.45 340.85 263.75 338.6 266.4 L339.95 270.15 339.25 271.2 338.2 272.0 337.45 272.1 Q336.95 270.9 335.85 270.35 L333.2 270.05 331.35 272.1 328.6 269.0 325.85 271.4 323.05 269.35 320.8 267.1 Q317.15 262.6 319.7 258.05 322.4 253.3 328.35 253.3 M322.95 263.45 L322.7 264.5 Q323.7 267.2 326.7 267.05 L328.1 266.65 Q329.65 265.15 328.75 263.05 328.35 262.0 327.4 261.4 L325.5 260.95 Q323.55 261.6 322.95 263.45 M335.8 262.4 Q333.2 260.95 331.6 263.3 L331.7 265.75 Q333.7 267.1 335.8 266.4 338.4 265.5 337.3 262.9 L335.8 262.4" fill="#999966" fill-rule="evenodd" stroke="none"/>
    <path d="M7.65 69.8 Q8.1 70.25 8.1 70.85 L7.65 71.9 Q7.15 72.35 6.45 72.35 L5.25 71.9 Q4.75 71.45 4.75 70.85 4.75 70.25 5.25 69.8 5.75 69.35 6.45 69.35 7.15 69.35 7.65 69.8 M-0.35 68.15 L0.5 68.4 Q2.6 69.5 3.5 71.65 L3.3 72.55 0.55 72.6 Q-2.5 71.95 -2.05 69.2 L-0.35 68.15 M335.8 262.4 L337.3 262.9 Q338.4 265.5 335.8 266.4 333.7 267.1 331.7 265.75 L331.6 263.3 Q333.2 260.95 335.8 262.4 M322.95 263.45 Q323.55 261.6 325.5 260.95 L327.4 261.4 Q328.35 262.0 328.75 263.05 329.65 265.15 328.1 266.65 L326.7 267.05 Q323.7 267.2 322.7 264.5 L322.95 263.45" fill="#2e2d1f" fill-rule="evenodd" stroke="none"/>
    <path d="M380.25 56.75 Q386.05 58.7 387.65 64.2 389.0 68.6 387.0 72.6 390.65 70.4 391.6 66.55 392.4 63.65 391.35 60.85 393.85 64.1 392.65 67.8 L390.8 72.6 394.1 69.05 395.6 70.95 395.7 70.9 Q398.15 69.4 399.75 67.25 L401.35 68.0 404.9 67.65 404.85 68.75 395.0 73.5 400.05 73.35 400.25 73.1 Q401.05 72.35 402.0 72.1 L403.9 72.0 403.0 75.9 Q397.05 76.9 391.25 75.9 385.55 77.95 381.45 75.45 L380.65 75.15 379.75 75.2 376.0 77.65 373.55 77.8 Q372.75 77.0 372.4 76.05 L372.35 75.9 367.05 74.15 Q358.05 76.05 349.15 74.9 L346.75 75.3 Q345.25 75.95 343.8 75.0 L344.3 73.15 348.65 72.1 345.8 69.05 350.1 67.95 352.65 72.55 357.95 72.8 370.85 72.15 367.1 68.55 369.15 63.9 370.95 67.2 Q372.35 69.55 374.55 71.25 L374.65 71.3 375.7 72.05 375.3 70.55 376.75 70.15 Q378.35 72.45 381.2 72.75 L380.8 69.55 383.4 73.0 383.65 73.05 Q387.7 65.1 381.6 58.15 L380.25 56.75 M375.7 72.05 L376.0 72.85 376.2 73.65 375.3 74.15 374.4 73.25 372.3 73.45 372.2 74.9 372.35 75.9 M381.2 72.75 L381.65 72.75 383.4 73.0 M376.0 72.85 L370.85 72.15 M395.6 70.95 L393.05 71.95 Q390.9 72.55 389.1 73.65 L395.0 73.5 M389.1 73.65 L383.65 73.05 M380.65 75.15 L386.9 74.9 391.25 75.9 M384.6 245.75 Q387.55 252.25 393.7 256.7 394.75 257.45 395.2 258.8 L394.15 259.7 389.1 258.95 388.8 260.15 388.0 260.85 Q387.3 256.45 385.7 252.45 383.6 247.05 378.95 243.85 L376.9 243.95 376.35 240.9 377.35 240.4 379.7 241.95 381.6 236.9 383.0 237.15 384.0 243.9 384.6 245.75 M352.05 240.4 L349.65 241.4 350.65 242.4 353.55 242.7 352.5 246.05 Q356.3 246.5 358.2 243.5 358.8 242.6 359.75 241.95 L365.25 238.65 Q369.0 236.15 373.25 234.65 L377.2 233.65 381.4 232.95 381.25 231.05 375.95 231.25 Q372.4 231.9 369.15 233.45 362.0 236.9 355.1 241.0 L352.9 240.85 352.05 240.4 M237.75 120.3 Q238.45 123.15 241.0 125.05 247.85 130.2 256.4 131.2 L256.6 132.75 Q248.1 133.3 241.2 128.3 L239.1 126.7 Q236.55 124.85 233.6 125.8 231.85 125.6 231.55 123.8 L231.5 123.2 234.9 122.45 235.3 119.15 237.75 120.3 M24.8 70.65 L22.7 71.35 22.85 72.05 Q23.2 73.5 24.75 74.35 L25.4 74.9 25.45 78.05 25.75 78.2 Q27.1 78.4 28.1 77.5 L29.25 75.85 45.25 74.3 59.1 72.1 58.85 70.45 55.45 69.7 54.55 67.75 53.25 67.7 Q51.65 71.05 47.75 71.85 44.0 72.75 40.15 72.45 L28.2 73.45 24.8 70.65 M-2.95 74.3 Q-6.35 69.85 -4.55 65.0 -4.15 64.0 -3.15 63.3 -0.3 61.05 3.4 61.5 8.55 62.75 9.35 68.1 9.6 69.7 9.1 71.15 L8.55 72.3 8.5 72.3 8.8 73.35 9.15 74.25 9.65 74.85 M3.4 61.5 L3.85 64.0 2.6 65.95 M3.5 71.65 L3.7 70.65 M-0.35 68.15 L-2.05 69.2 Q-2.5 71.95 0.55 72.6 L3.3 72.55 3.5 71.65 Q2.6 69.5 0.5 68.4 L-0.35 68.15 M7.65 69.8 Q7.15 69.35 6.45 69.35 5.75 69.35 5.25 69.8 4.75 70.25 4.75 70.85 4.75 71.45 5.25 71.9 L6.45 72.35 Q7.15 72.35 7.65 71.9 L8.1 70.85 Q8.1 70.25 7.65 69.8 M8.3 74.85 L9.15 74.25 M-2.95 74.3 L-6.25 75.2 M7.25 75.0 L4.8 74.8 4.85 75.7 Q1.6 74.0 -1.35 75.15 L-2.95 74.3 M7.25 75.0 L7.65 75.7 M8.3 74.85 L7.25 75.0 6.65 73.95 M4.85 75.7 L4.25 73.15 M13.8 263.75 L13.85 263.8 19.4 269.95 Q20.05 270.65 20.1 271.7 L20.0 272.75 17.75 272.9 16.1 270.85 14.75 270.75 12.9 272.35 11.85 272.8 11.5 273.55 10.55 273.65 7.7 264.6 Q0.55 265.2 -5.45 268.95 -8.45 270.8 -11.65 272.35 L-13.85 272.5 Q-16.9 271.65 -17.3 268.6 L-15.75 267.35 -16.85 262.45 -13.05 262.55 Q-4.7 262.0 3.4 257.35 L0.9 253.45 0.05 252.65 Q-2.35 251.8 -3.7 249.95 L-2.85 247.7 1.6 246.2 2.65 242.3 4.2 242.1 Q7.25 242.7 6.85 245.4 L6.0 247.85 Q4.6 250.15 5.75 252.7 L7.7 256.45 9.55 256.0 Q15.45 253.8 17.25 248.1 18.85 248.1 19.45 249.4 19.95 250.45 20.0 251.7 L19.95 253.45 20.4 253.8 19.3 256.4 Q24.4 255.3 27.8 251.4 28.65 250.4 28.6 249.0 28.55 247.4 29.5 246.2 L31.4 246.3 Q32.2 247.0 32.15 248.15 32.05 249.6 31.45 251.15 L32.25 251.7 33.95 251.35 35.6 249.7 37.95 253.2 38.35 253.7 Q39.1 257.95 34.7 258.85 L24.35 260.65 Q21.75 260.95 19.3 261.75 L14.25 263.4 M13.8 263.75 L9.4 258.85 7.7 256.45 M7.7 264.6 L5.15 259.9 Q-2.4 263.4 -10.4 265.7 L-15.75 267.35 M5.15 259.9 L3.4 257.35 M9.4 258.85 L19.3 256.4 M55.95 258.3 Q60.7 264.65 58.15 271.65 57.85 272.45 56.7 272.85 53.15 274.0 49.8 272.1 56.6 269.5 56.55 262.55 56.55 260.25 55.95 258.3 M37.3 253.55 L38.35 253.7 M37.3 253.55 Q33.25 252.95 31.45 256.25 M43.65 271.7 Q38.55 274.35 32.5 272.65 37.8 272.15 42.0 268.85 43.6 267.5 44.5 265.9 47.7 260.25 45.9 254.2 50.4 260.6 47.55 267.55 46.35 270.3 43.65 271.7 M328.35 253.3 Q331.35 253.3 334.05 254.25 339.0 255.9 340.1 260.45 340.85 263.75 338.6 266.4 L339.95 270.15 339.25 271.2 338.2 272.0 337.45 272.1 Q336.95 270.9 335.85 270.35 L333.2 270.05 331.35 272.1 328.6 269.0 325.85 271.4 323.05 269.35 320.8 267.1 Q317.15 262.6 319.7 258.05 322.4 253.3 328.35 253.3 M322.95 263.45 L322.7 264.5 Q323.7 267.2 326.7 267.05 L328.1 266.65 Q329.65 265.15 328.75 263.05 328.35 262.0 327.4 261.4 L325.5 260.95 Q323.55 261.6 322.95 263.45 M335.8 262.4 Q333.2 260.95 331.6 263.3 L331.7 265.75 Q333.7 267.1 335.8 266.4 338.4 265.5 337.3 262.9 L335.8 262.4" fill="none" stroke="#333300" stroke-linecap="round" stroke-linejoin="round" stroke-width="0.05"/>
  </g>
  <defs>
    <radialGradient cx="0" cy="0" gradientTransform="matrix(0.0043, 0.2296, -0.4895, 0.008, 192.7, 147.0)" gradientUnits="userSpaceOnUse" id="gradient0" r="819.2" spreadMethod="pad">
      <stop offset="0.0" stop-color="#4e3f32"/>
      <stop offset="0.7490196078431373" stop-color="#332b21"/>
      <stop offset="1.0" stop-color="#1a1511"/>
    </radialGradient>
    <linearGradient gradientTransform="matrix(0.0, -0.0536, 0.0965, 0.0, -185.85, 21.65)" gradientUnits="userSpaceOnUse" id="gradient1" spreadMethod="pad" x1="-819.2" x2="819.2">
      <stop offset="0.0" stop-color="#3d403b"/>
      <stop offset="1.0" stop-color="#222321"/>
    </linearGradient>
    <linearGradient gradientTransform="matrix(0.0, -0.0536, 0.0549, 0.0, -98.9, 21.65)" gradientUnits="userSpaceOnUse" id="gradient2" spreadMethod="pad" x1="-819.2" x2="819.2">
      <stop offset="0.0" stop-color="#3d403b"/>
      <stop offset="1.0" stop-color="#222321"/>
    </linearGradient>
    <linearGradient gradientTransform="matrix(0.0, -0.0396, 0.0549, 0.0, 194.95, 9.25)" gradientUnits="userSpaceOnUse" id="gradient3" spreadMethod="pad" x1="-819.2" x2="819.2">
      <stop offset="0.0" stop-color="#2f302e"/>
      <stop offset="1.0" stop-color="#0d0d0d"/>
    </linearGradient>
    <linearGradient gradientTransform="matrix(0.0214, -0.0318, 0.0454, 0.0305, 195.15, 27.2)" gradientUnits="userSpaceOnUse" id="gradient4" spreadMethod="pad" x1="-819.2" x2="819.2">
      <stop offset="0.0" stop-color="#40413f"/>
      <stop offset="1.0" stop-color="#0d0d0d"/>
    </linearGradient>
    <linearGradient gradientTransform="matrix(0.0, -0.0536, 0.0549, 0.0, 196.8, 21.7)" gradientUnits="userSpaceOnUse" id="gradient5" spreadMethod="pad" x1="-819.2" x2="819.2">
      <stop offset="0.0" stop-color="#3d403b"/>
      <stop offset="1.0" stop-color="#222321"/>
    </linearGradient>
    <linearGradient gradientTransform="matrix(0.0, -0.0536, 0.0644, 0.0, 167.35, 21.7)" gradientUnits="userSpaceOnUse" id="gradient6" spreadMethod="pad" x1="-819.2" x2="819.2">
      <stop offset="0.0" stop-color="#3d403b"/>
      <stop offset="1.0" stop-color="#222321"/>
    </linearGradient>
    <linearGradient gradientTransform="matrix(0.0, -0.0536, 0.0686, 0.0, 153.7, 21.7)" gradientUnits="userSpaceOnUse" id="gradient7" spreadMethod="pad" x1="-819.2" x2="819.2">
      <stop offset="0.0" stop-color="#3d403b"/>
      <stop offset="1.0" stop-color="#222321"/>
    </linearGradient>
  </defs>
</svg>
