<?xml version="1.0" encoding="UTF-8" standalone="no"?>
<svg xmlns:xlink="http://www.w3.org/1999/xlink" height="274.9px" width="425.3px" xmlns="http://www.w3.org/2000/svg">
  <g transform="matrix(1.0, 0.0, 0.0, 1.0, 16.8, 2.1)">
    <path d="M-16.8 64.3 L-16.8 36.9 -15.9 36.15 Q-3.55 25.6 14.2 21.95 L22.65 19.8 Q62.0 8.9 103.2 11.8 140.1 14.35 177.1 13.7 L262.8 10.05 Q306.05 7.75 348.0 17.8 L356.35 19.8 Q389.6 27.5 402.4 54.5 L403.7 57.35 Q412.85 70.65 404.5 80.45 L403.7 80.9 Q374.1 70.15 347.95 53.6 344.65 51.5 340.3 52.5 321.3 57.35 300.55 55.05 273.55 52.3 246.6 44.5 232.15 40.15 217.6 47.25 207.8 52.05 196.4 50.55 175.4 47.7 154.55 46.15 142.0 29.05 113.6 34.15 86.35 39.2 58.8 38.1 L48.5 38.85 Q17.95 48.4 -10.8 63.2 -13.3 64.5 -15.9 64.4 L-16.8 64.3 M403.7 227.55 Q409.55 238.65 404.6 249.8 L403.7 251.6 Q360.85 244.15 316.95 238.75 L309.7 237.7 Q288.95 235.7 267.5 239.1 258.9 240.6 250.05 239.45 213.8 234.55 176.85 238.2 154.55 240.55 138.15 255.05 133.25 259.5 125.95 258.95 L39.7 261.7 Q9.5 262.25 -14.2 248.1 L-15.9 247.0 -16.8 246.3 -16.8 223.1 -15.9 223.05 Q25.85 221.85 66.9 232.7 73.3 234.35 79.8 232.8 123.6 223.2 168.85 219.85 191.1 218.6 213.0 215.1 257.8 207.85 303.3 210.6 348.4 213.15 392.4 219.95 400.0 221.15 403.7 227.55 M259.75 17.5 L251.6 17.85 222.0 18.85 210.4 19.8 320.2 19.8 Q293.95 15.65 267.35 17.1 L259.75 17.5 M148.15 19.8 L195.3 19.8 Q174.65 18.3 153.8 19.45 L148.15 19.8 M92.3 18.6 L55.15 19.8 122.5 19.8 92.3 18.6" fill="#001622" fill-rule="evenodd" stroke="none"/>
    <path d="M356.35 19.8 L403.7 19.8 403.7 57.35 402.4 54.5 Q389.6 27.5 356.35 19.8 M403.7 80.9 L403.7 227.55 Q400.0 221.15 392.4 219.95 348.4 213.15 303.3 210.6 257.8 207.85 213.0 215.1 191.1 218.6 168.85 219.85 123.6 223.2 79.8 232.8 73.3 234.35 66.9 232.7 25.85 221.85 -15.9 223.05 L-16.8 223.1 -16.8 64.3 -15.9 64.4 Q-13.3 64.5 -10.8 63.2 17.95 48.4 48.5 38.85 L58.8 38.1 Q86.35 39.2 113.6 34.15 142.0 29.05 154.55 46.15 175.4 47.7 196.4 50.55 207.8 52.05 217.6 47.25 232.15 40.15 246.6 44.5 273.55 52.3 300.55 55.05 321.3 57.35 340.3 52.5 344.65 51.5 347.95 53.6 374.1 70.15 403.7 80.9 M403.7 251.6 L403.7 272.8 -16.8 272.8 -16.8 246.3 -15.9 247.0 -14.2 248.1 Q9.5 262.25 39.7 261.7 L125.95 258.95 Q133.25 259.5 138.15 255.05 154.55 240.55 176.85 238.2 213.8 234.55 250.05 239.45 258.9 240.6 267.5 239.1 288.95 235.7 309.7 237.7 L316.95 238.75 Q360.85 244.15 403.7 251.6" fill="url(#gradient0)" fill-rule="evenodd" stroke="none"/>
    <path d="M-14.1 51.65 L-14.1 -1.6 8.25 -1.6 16.9 -1.6 18.75 5.25 Q16.1 11.35 15.25 18.1 15.15 19.0 15.65 19.7 L18.05 22.3 Q18.35 22.7 18.3 23.15 18.05 27.0 16.7 30.55 L19.4 30.65 21.85 30.45 26.7 29.85 Q30.3 28.8 32.75 26.1 L33.55 23.8 Q31.6 21.65 31.2 19.05 30.85 17.05 31.65 15.4 L33.7 11.75 35.95 8.05 Q36.6 6.95 37.6 6.3 40.25 4.8 42.2 2.95 L41.65 -1.6 60.65 -1.6 67.95 -1.6 84.8 -1.6 111.35 -1.6 141.0 -1.6 157.5 -1.6 Q156.85 -0.4 157.2 0.95 157.85 3.7 160.05 5.8 L163.45 8.85 Q167.1 11.9 167.4 16.6 167.5 18.05 167.1 19.55 L165.85 23.85 Q165.6 24.55 165.9 25.25 L166.75 27.85 Q167.2 29.35 168.8 29.35 171.3 29.4 173.45 27.7 L173.65 26.85 Q173.8 23.95 174.95 21.3 176.7 17.1 176.25 12.45 L175.8 5.15 Q175.75 4.25 176.2 3.55 177.8 1.05 178.45 -1.6 L209.05 -1.6 Q206.2 1.05 205.4 4.75 205.25 5.55 204.7 6.2 L200.75 10.3 Q199.1 11.8 198.8 13.7 198.6 15.45 199.0 17.25 L199.4 19.95 Q199.6 22.6 199.25 25.3 199.15 26.45 199.7 27.65 201.3 30.8 203.2 33.7 L188.05 32.75 181.7 31.95 166.65 31.85 157.8 32.45 Q152.25 32.45 148.0 29.6 L147.2 28.9 Q146.0 27.2 143.5 27.05 L137.85 27.5 Q136.3 27.25 136.25 25.95 131.8 24.25 126.85 23.9 L113.0 23.15 Q104.3 22.8 95.9 24.9 82.25 28.2 68.6 30.95 L66.1 31.15 54.7 29.85 52.9 29.7 51.2 29.7 50.95 31.1 Q48.95 32.35 46.25 33.45 L43.45 34.2 40.0 34.65 28.8 35.5 23.15 36.0 Q18.05 36.05 14.5 39.4 12.3 41.45 9.55 42.9 7.5 44.0 5.2 44.7 1.9 45.7 -0.1 48.25 -0.95 49.35 -2.5 49.7 L-10.75 51.15 -14.1 51.65 M84.8 -1.6 L84.3 -0.5 86.6 5.4 Q87.95 8.65 88.0 12.05 88.05 14.85 90.0 16.8 L93.65 17.4 95.4 20.05 Q96.65 19.4 98.1 19.75 101.8 20.7 103.65 17.75 104.85 17.75 105.7 19.15 106.5 20.55 106.5 22.5 106.5 20.55 105.7 19.15 104.85 17.75 103.65 17.75 101.8 20.7 98.1 19.75 96.65 19.4 95.4 20.05 L93.65 17.4 90.0 16.8 Q88.05 14.85 88.0 12.05 87.95 8.65 86.6 5.4 L84.3 -0.5 84.8 -1.6 M126.35 43.75 L126.05 46.2 127.9 51.05 Q124.55 53.55 120.5 51.6 L120.0 51.4 118.3 52.25 Q117.75 54.2 115.4 54.45 L111.0 54.25 Q109.55 53.9 108.75 52.95 107.05 51.05 105.4 50.25 L105.0 49.8 106.15 49.0 Q110.1 46.75 110.55 42.15 111.05 39.85 112.1 37.7 112.6 36.75 112.55 35.55 112.45 30.15 115.25 25.65 115.5 25.3 115.7 25.65 L118.1 27.05 118.1 27.35 Q118.45 29.45 119.15 31.45 119.75 33.4 121.25 34.85 125.15 38.7 126.35 43.75 M180.35 0.4 L184.65 7.55 188.6 14.65 189.45 16.75 189.65 18.5 Q189.75 22.1 189.15 25.7 189.05 26.4 188.35 26.9 187.0 27.85 185.9 29.35 184.75 30.95 185.85 31.35 184.75 30.95 185.9 29.35 187.0 27.85 188.35 26.9 189.05 26.4 189.15 25.7 189.75 22.1 189.65 18.5 L189.45 16.75 188.6 14.65 184.65 7.55 180.35 0.4 M122.3 -0.4 Q122.35 5.55 127.05 9.85 L129.55 11.7 Q132.0 13.05 133.6 15.05 L133.75 15.25 Q134.55 15.2 135.15 14.7 137.3 13.0 138.5 10.7 139.2 9.4 139.3 7.95 139.4 6.3 140.0 4.7 141.2 1.6 141.0 -1.6 141.2 1.6 140.0 4.7 139.4 6.3 139.3 7.95 139.2 9.4 138.5 10.7 137.3 13.0 135.15 14.7 134.55 15.2 133.75 15.25 134.15 16.2 134.2 17.25 L134.1 19.4 Q133.5 22.6 135.55 24.9 133.5 22.6 134.1 19.4 L134.2 17.25 Q134.15 16.2 133.75 15.25 L133.6 15.05 Q132.0 13.05 129.55 11.7 L127.05 9.85 Q122.35 5.55 122.3 -0.4 M131.85 47.45 L133.8 47.35 135.1 50.25 Q130.0 52.5 128.55 50.6 L131.2 47.05 131.85 47.45 M73.4 29.35 Q74.4 28.9 73.7 27.95 70.95 24.0 71.4 19.3 71.7 16.6 71.1 13.85 70.6 11.15 68.45 9.05 67.45 8.2 67.05 7.15 65.3 2.5 67.95 -1.6 65.3 2.5 67.05 7.15 67.45 8.2 68.45 9.05 70.6 11.15 71.1 13.85 71.7 16.6 71.4 19.3 70.95 24.0 73.7 27.95 74.4 28.9 73.4 29.35 M103.65 17.75 L106.15 11.6 Q107.4 8.4 106.65 5.1 106.4 4.3 106.55 3.5 106.7 2.85 107.25 2.5 109.7 0.8 111.35 -1.6 109.7 0.8 107.25 2.5 106.7 2.85 106.55 3.5 106.4 4.3 106.65 5.1 107.4 8.4 106.15 11.6 L103.65 17.75 M101.3 52.6 L99.45 51.45 101.75 47.0 Q104.65 49.75 105.0 53.35 L104.85 53.55 Q102.6 54.75 101.3 52.6 M126.9 55.15 L128.6 55.4 128.9 58.25 126.4 58.5 122.15 57.85 121.85 57.5 122.6 56.75 Q124.35 55.2 126.9 55.15 M58.8 28.55 Q63.0 25.45 63.9 20.5 64.1 19.15 63.25 18.0 62.05 16.35 61.3 14.35 L59.9 10.9 Q58.95 8.4 60.6 6.45 61.05 5.9 61.1 5.35 61.4 1.85 60.65 -1.6 61.4 1.85 61.1 5.35 61.05 5.9 60.6 6.45 58.95 8.4 59.9 10.9 L61.3 14.35 Q62.05 16.35 63.25 18.0 64.1 19.15 63.9 20.5 63.0 25.45 58.8 28.55 M43.95 32.95 L43.85 31.8 42.65 31.1 39.85 26.95 32.75 26.1 39.85 26.95 42.65 31.1 43.85 31.8 43.95 32.95 M-5.2 43.8 L-1.45 37.8 Q0.75 34.6 -1.5 31.5 L-3.15 28.65 Q-3.75 27.35 -3.85 26.05 -4.0 23.4 -5.05 21.0 -6.05 18.6 -5.4 16.05 -4.0 11.15 1.15 8.1 7.35 4.6 8.25 -1.6 7.35 4.6 1.15 8.1 -4.0 11.15 -5.4 16.05 -6.05 18.6 -5.05 21.0 -4.0 23.4 -3.85 26.05 -3.75 27.35 -3.15 28.65 L-1.5 31.5 Q0.75 34.6 -1.45 37.8 L-5.2 43.8" fill="url(#gradient1)" fill-rule="evenodd" stroke="none"/>
    <path d="M16.9 -1.6 L41.65 -1.6 42.2 2.95 Q40.25 4.8 37.6 6.3 36.6 6.95 35.95 8.05 L33.7 11.75 31.65 15.4 Q30.85 17.05 31.2 19.05 31.6 21.65 33.55 23.8 L32.75 26.1 Q30.3 28.8 26.7 29.85 L21.85 30.45 19.4 30.65 16.7 30.55 Q18.05 27.0 18.3 23.15 18.35 22.7 18.05 22.3 L15.65 19.7 Q15.15 19.0 15.25 18.1 16.1 11.35 18.75 5.25 L16.9 -1.6 M157.5 -1.6 L178.45 -1.6 Q177.8 1.05 176.2 3.55 175.75 4.25 175.8 5.15 L176.25 12.45 Q176.7 17.1 174.95 21.3 173.8 23.95 173.65 26.85 L173.45 27.7 Q171.3 29.4 168.8 29.35 167.2 29.35 166.75 27.85 L165.9 25.25 Q165.6 24.55 165.85 23.85 L167.1 19.55 Q167.5 18.05 167.4 16.6 167.1 11.9 163.45 8.85 L160.05 5.8 Q157.85 3.7 157.2 0.95 156.85 -0.4 157.5 -1.6" fill="#022827" fill-rule="evenodd" stroke="none"/>
    <path d="M209.05 -1.6 L241.9 -1.6 273.7 -1.6 286.4 -1.6 322.4 -1.6 341.05 -1.6 377.3 -1.6 407.25 -1.6 407.25 67.95 Q406.75 65.15 405.0 63.2 403.4 61.5 400.6 61.35 397.05 61.0 393.7 59.55 390.5 58.2 387.6 56.35 383.7 54.05 381.8 50.35 380.4 47.5 379.9 44.35 L379.15 42.6 377.0 39.35 378.65 36.6 Q375.95 35.0 372.65 34.3 L367.7 33.65 358.05 32.25 354.7 31.9 Q350.5 31.95 346.7 33.1 345.15 33.5 344.7 35.0 L344.3 36.3 344.05 36.8 Q339.75 38.0 335.2 37.6 L330.55 38.1 328.8 42.3 321.0 45.95 319.35 46.65 Q313.55 48.05 307.7 46.7 L302.95 45.85 Q299.1 45.7 295.25 45.7 291.2 45.7 287.7 44.75 281.1 43.25 274.5 42.7 273.2 42.35 272.1 41.55 269.45 39.4 266.25 38.2 265.55 37.95 265.2 37.3 L264.6 35.8 266.9 33.95 Q267.4 31.8 264.9 31.35 257.85 30.1 250.4 30.25 L241.55 29.6 Q235.75 28.4 229.8 28.1 227.35 28.15 225.05 29.2 L222.7 30.05 218.4 30.75 217.35 31.05 215.05 30.55 214.4 32.75 203.2 33.7 Q201.3 30.8 199.7 27.65 199.15 26.45 199.25 25.3 199.6 22.6 199.4 19.95 L199.0 17.25 Q198.6 15.45 198.8 13.7 199.1 11.8 200.75 10.3 L204.7 6.2 Q205.25 5.55 205.4 4.75 206.2 1.05 209.05 -1.6 M357.65 -0.4 L357.45 3.2 Q357.45 4.8 357.85 6.4 358.2 7.85 359.25 9.1 363.8 14.4 364.8 20.95 L364.6 21.2 Q361.45 23.3 359.95 26.5 361.45 23.3 364.6 21.2 L364.8 20.95 Q363.8 14.4 359.25 9.1 358.2 7.85 357.85 6.4 357.45 4.8 357.45 3.2 L357.65 -0.4 M379.6 10.45 L380.45 10.65 Q380.25 10.8 380.35 10.9 381.25 14.35 381.45 18.0 381.75 21.95 378.5 24.7 L376.85 25.55 Q373.65 26.3 373.65 28.95 373.65 26.3 376.85 25.55 L378.5 24.7 Q381.75 21.95 381.45 18.0 381.25 14.35 380.35 10.9 380.25 10.8 380.45 10.65 L379.6 10.45 M380.25 31.7 Q382.3 30.65 383.0 28.8 384.25 25.55 386.6 22.75 L386.8 22.1 Q387.0 19.1 385.05 16.5 L378.25 7.65 Q377.4 6.65 377.05 5.45 376.65 4.2 377.15 3.05 378.1 0.8 377.3 -1.6 378.1 0.8 377.15 3.05 376.65 4.2 377.05 5.45 377.4 6.65 378.25 7.65 L385.05 16.5 Q387.0 19.1 386.8 22.1 L386.6 22.75 Q384.25 25.55 383.0 28.8 382.3 30.65 380.25 31.7 M389.2 51.45 Q389.25 48.6 388.3 45.75 386.85 41.7 390.2 38.7 L393.75 35.05 398.35 29.3 Q399.3 28.05 399.35 26.3 399.6 21.85 397.8 17.6 395.0 11.0 396.05 4.0 395.0 11.0 397.8 17.6 399.6 21.85 399.35 26.3 399.3 28.05 398.35 29.3 L393.75 35.05 390.2 38.7 Q386.85 41.7 388.3 45.75 389.25 48.6 389.2 51.45 M254.4 -0.8 L258.15 2.3 Q264.7 7.15 264.9 14.85 264.95 16.3 264.2 17.55 L262.65 19.35 Q259.1 22.7 262.1 26.5 259.1 22.7 262.65 19.35 L264.2 17.55 Q264.95 16.3 264.9 14.85 264.7 7.15 258.15 2.3 L254.4 -0.8 M267.65 31.75 L268.65 30.35 Q271.65 25.45 271.95 19.7 272.0 18.65 271.65 17.75 269.35 11.95 272.5 6.75 L273.65 4.6 Q275.0 1.55 273.7 -1.6 275.0 1.55 273.65 4.6 L272.5 6.75 Q269.35 11.95 271.65 17.75 272.0 18.65 271.95 19.7 271.65 25.45 268.65 30.35 L267.65 31.75 M279.95 39.0 Q278.25 38.2 278.45 36.45 278.5 35.6 278.95 34.9 281.25 31.15 284.0 27.4 286.4 24.1 285.25 20.4 284.0 16.5 285.3 12.4 287.6 5.45 286.4 -1.6 287.6 5.45 285.3 12.4 284.0 16.5 285.25 20.4 286.4 24.1 284.0 27.4 281.25 31.15 278.95 34.9 278.5 35.6 278.45 36.45 278.25 38.2 279.95 39.0 M309.45 15.6 Q308.65 18.65 308.8 21.6 309.0 25.85 311.5 29.35 314.0 32.85 311.95 36.55 314.0 32.85 311.5 29.35 309.0 25.85 308.8 21.6 308.65 18.65 309.45 15.6 M296.9 0.4 L299.85 9.3 Q300.45 11.1 299.7 12.8 298.85 14.9 297.6 16.75 296.6 18.25 297.0 19.85 L297.25 21.3 Q297.95 26.85 300.1 31.75 297.95 26.85 297.25 21.3 L297.0 19.85 Q296.6 18.25 297.6 16.75 298.85 14.9 299.7 12.8 300.45 11.1 299.85 9.3 L296.9 0.4 M330.7 35.75 Q329.35 35.6 328.8 34.65 L326.3 30.5 Q322.5 24.6 323.05 18.05 L323.4 13.65 Q323.45 12.4 322.5 11.65 320.15 9.7 318.6 7.55 318.1 6.75 318.2 5.9 318.75 1.65 322.4 -1.6 318.75 1.65 318.2 5.9 318.1 6.75 318.6 7.55 320.15 9.7 322.5 11.65 323.45 12.4 323.4 13.65 L323.05 18.05 Q322.5 24.6 326.3 30.5 L328.8 34.65 Q329.35 35.6 330.7 35.75 M341.25 29.75 Q340.85 25.5 338.35 21.7 L336.45 19.4 Q332.7 15.85 335.0 11.6 335.7 10.15 336.7 8.85 340.25 3.95 341.05 -1.6 340.25 3.95 336.7 8.85 335.7 10.15 335.0 11.6 332.7 15.85 336.45 19.4 L338.35 21.7 Q340.85 25.5 341.25 29.75 M212.8 0.8 Q215.6 2.7 217.55 6.45 219.55 10.2 220.05 13.9 220.6 17.6 220.9 18.7 L222.1 23.0 221.05 23.7 222.1 23.0 220.9 18.7 Q220.6 17.6 220.05 13.9 219.55 10.2 217.55 6.45 215.6 2.7 212.8 0.8 M232.3 14.45 Q232.05 11.05 233.75 8.2 L235.3 6.45 237.8 4.25 Q240.25 1.65 241.9 -1.6 240.25 1.65 237.8 4.25 L235.3 6.45 233.75 8.2 Q232.05 11.05 232.3 14.45" fill="url(#gradient2)" fill-rule="evenodd" stroke="none"/>
    <path d="M-9.5 270.95 L-14.1 270.95 -14.1 232.6 Q-13.1 232.75 -12.3 233.4 L-10.5 234.6 -6.25 237.4 4.2 243.7 Q5.7 244.6 7.65 244.65 12.15 244.3 16.5 245.95 12.85 250.45 11.25 255.9 10.85 257.25 10.05 258.45 8.75 260.45 7.75 262.55 6.9 264.2 4.85 264.3 L1.05 262.3 Q0.7 261.25 -0.6 260.9 L-2.0 260.5 -5.2 258.9 -9.5 270.95 M10.35 246.25 L5.3 246.35 Q1.45 246.2 -1.9 244.7 -6.0 242.95 -9.75 240.4 -6.0 242.95 -1.9 244.7 1.45 246.2 5.3 246.35 L10.35 246.25" fill="url(#gradient3)" fill-rule="evenodd" stroke="none"/>
    <path d="M407.25 108.55 L407.25 233.55 Q403.1 235.3 398.55 235.95 393.65 235.6 390.1 232.7 L388.5 231.5 382.65 226.85 Q380.4 224.95 377.3 224.65 372.7 224.3 368.85 226.45 361.5 230.55 353.0 231.2 L338.85 230.55 335.3 230.1 Q327.35 229.15 319.8 226.6 312.1 224.05 303.8 222.25 L299.2 221.25 Q293.05 222.1 287.0 223.8 L285.9 227.35 285.55 227.4 285.4 227.35 285.3 227.1 Q280.35 228.8 275.15 229.5 271.15 229.95 267.2 229.65 L253.05 229.0 248.55 228.55 Q245.25 227.9 241.5 228.45 L236.55 228.1 224.8 227.4 219.65 226.4 Q213.35 225.0 207.3 226.6 203.3 227.8 199.1 228.35 L191.4 229.95 186.7 230.85 Q179.95 232.7 173.0 234.0 170.7 234.35 168.45 233.95 L154.1 232.45 150.6 232.3 Q140.35 232.1 131.25 235.7 130.05 236.2 129.3 237.45 125.5 244.0 117.6 246.8 101.65 252.45 84.85 248.35 71.0 244.9 56.95 246.7 L41.45 248.85 35.15 247.65 31.1 247.8 Q31.0 245.95 29.75 244.3 28.9 243.15 28.5 241.9 27.3 237.9 24.5 234.8 L23.05 235.15 Q22.2 235.4 22.0 236.0 20.55 241.4 16.5 245.95 12.15 244.3 7.65 244.65 5.7 244.6 4.2 243.7 L-6.25 237.4 -10.5 234.6 -12.3 233.4 Q-13.1 232.75 -14.1 232.6 L-14.1 72.15 -6.15 70.3 -1.05 69.4 13.15 66.5 Q14.75 66.2 16.0 65.25 L18.65 63.25 Q19.7 62.3 20.05 61.0 20.65 59.15 20.4 57.4 20.25 56.25 20.4 54.8 24.45 52.6 29.05 51.7 L40.0 49.8 Q47.3 48.5 54.7 48.65 62.9 48.8 71.0 47.2 L83.05 45.35 100.9 44.75 Q105.9 43.95 110.55 42.15 110.1 46.75 106.15 49.0 L105.0 49.8 105.4 50.25 Q107.05 51.05 108.75 52.95 109.55 53.9 111.0 54.25 L115.4 54.45 Q117.75 54.2 118.3 52.25 L120.0 51.4 120.5 51.6 Q124.55 53.55 127.9 51.05 L126.05 46.2 126.35 43.75 142.7 46.35 Q145.5 46.85 145.5 49.05 144.55 50.4 142.95 51.05 142.1 51.45 141.4 52.05 140.8 52.45 140.8 53.1 140.55 58.3 146.5 59.9 L149.25 60.45 Q159.05 61.95 168.8 61.0 L177.4 59.7 Q188.25 57.5 199.1 58.3 201.25 58.75 203.25 59.55 212.1 63.0 221.85 63.3 L230.65 63.45 Q237.65 63.6 239.9 58.25 L240.9 56.65 Q244.2 52.85 249.75 53.2 L250.35 52.7 Q259.7 52.3 267.6 56.8 273.7 60.35 280.8 61.05 L295.95 61.85 Q314.05 63.9 332.1 63.8 335.55 64.45 338.35 66.05 339.45 66.7 339.4 67.85 339.05 71.9 342.2 74.95 346.5 76.75 350.7 77.75 L355.7 79.2 356.85 79.3 Q358.3 79.6 359.8 80.35 L365.65 83.6 Q366.65 86.1 365.5 88.5 364.6 90.45 364.1 92.5 363.9 93.35 364.4 94.1 366.7 97.0 370.25 99.1 371.8 100.05 373.55 100.5 L376.35 101.2 382.3 101.9 Q390.7 101.3 397.6 105.5 L400.4 107.4 Q403.5 109.7 407.25 108.55 M351.25 109.75 L350.7 109.45 350.15 109.15 Q348.6 107.55 347.6 110.2 348.6 107.55 350.15 109.15 L350.7 109.45 351.25 109.75 M348.5 110.95 Q348.15 110.25 347.6 110.2 L344.4 110.15 347.6 110.2 Q348.15 110.25 348.5 110.95 M369.55 145.9 L369.1 145.5 Q367.05 143.25 365.9 145.5 367.05 143.25 369.1 145.5 L369.55 145.9 M366.85 146.7 L364.55 146.35 366.85 146.7 M256.2 62.3 Q255.4 62.05 254.45 60.95 253.35 61.15 252.55 62.3 253.35 61.15 254.45 60.95 255.4 62.05 256.2 62.3 M329.75 76.75 Q329.65 75.85 328.4 75.8 L327.65 75.85 Q326.65 76.25 326.1 77.2 326.65 76.25 327.65 75.85 L328.4 75.8 Q329.65 75.85 329.75 76.75 M197.75 84.0 L197.3 83.6 Q197.05 83.4 196.7 83.35 194.45 82.95 193.6 84.4 194.45 82.95 196.7 83.35 197.05 83.4 197.3 83.6 L197.75 84.0 M194.95 85.25 L191.3 85.25 194.95 85.25 M220.7 129.35 L217.35 129.45 220.7 129.35 M218.7 130.65 L215.5 130.65 218.7 130.65 M244.8 161.2 Q244.05 160.6 243.5 160.35 L242.95 160.2 242.45 160.3 Q241.7 160.5 241.6 161.2 241.7 160.5 242.45 160.3 L242.95 160.2 243.5 160.35 Q244.05 160.6 244.8 161.2 M196.3 197.8 Q195.35 198.05 195.25 197.45 L194.9 197.0 Q193.15 195.95 192.65 197.4 193.15 195.95 194.9 197.0 L195.25 197.45 Q195.35 198.05 196.3 197.8 M243.9 162.6 L240.2 162.8 243.9 162.6 M337.7 118.95 Q337.4 117.9 336.05 118.15 L335.25 119.0 336.05 118.15 Q337.4 117.9 337.7 118.95 M307.35 143.65 L304.65 143.5 307.35 143.65 M336.15 119.8 L335.45 120.0 Q334.45 120.7 334.35 119.8 334.45 120.7 335.45 120.0 L336.15 119.8 M277.7 102.9 L276.85 102.8 276.25 102.55 Q274.75 101.65 274.0 103.3 274.75 101.65 276.25 102.55 L276.85 102.8 277.7 102.9 M310.6 142.7 L310.1 141.95 309.65 141.6 309.05 141.3 Q308.55 140.7 307.75 141.85 306.8 143.25 307.35 142.3 306.8 143.25 307.75 141.85 308.55 140.7 309.05 141.3 L309.65 141.6 310.1 141.95 310.6 142.7 M274.45 104.55 L272.2 104.55 274.45 104.55 M306.0 179.7 L305.15 179.6 304.55 179.45 Q302.35 179.1 301.9 180.5 302.35 179.1 304.55 179.45 L305.15 179.6 306.0 179.7 M303.25 181.7 L300.1 181.3 303.25 181.7 M131.85 47.45 L131.45 46.6 131.2 47.05 131.45 46.6 131.85 47.45 131.2 47.05 128.55 50.6 Q130.0 52.5 135.1 50.25 L133.8 47.35 131.85 47.45 M101.3 52.6 Q102.6 54.75 104.85 53.55 L105.0 53.35 Q104.65 49.75 101.75 47.0 L99.45 51.45 101.3 52.6 M99.0 51.85 L99.45 51.45 99.0 51.85 M111.8 84.0 L110.9 83.55 Q109.15 82.6 108.6 84.0 109.15 82.6 110.9 83.55 L111.8 84.0 M78.95 56.15 Q77.35 55.3 76.6 56.65 77.35 55.3 78.95 56.15 M110.0 84.85 L105.85 85.25 110.0 84.85 M126.9 55.15 Q124.35 55.2 122.6 56.75 L121.85 57.5 122.15 57.85 126.4 58.5 128.9 58.25 128.6 55.4 126.9 55.15 M61.05 95.65 Q59.3 95.85 58.2 94.75 57.35 95.5 56.95 96.45 57.35 95.5 58.2 94.75 59.3 95.85 61.05 95.65 M3.25 98.7 Q2.55 98.1 1.55 98.0 1.0 98.5 0.75 99.3 1.0 98.5 1.55 98.0 2.55 98.1 3.25 98.7 M58.8 97.35 L54.25 97.7 58.8 97.35 M24.5 120.2 Q23.05 120.5 22.65 119.85 L22.25 119.55 Q20.25 119.35 19.95 121.0 20.25 119.35 22.25 119.55 L22.65 119.85 Q23.05 120.5 24.5 120.2 M10.4 181.1 L7.1 181.3 10.4 181.1 M1.2 100.5 L-1.05 100.5 -2.0 100.5 -1.05 100.5 1.2 100.5 M21.8 122.2 L20.85 121.95 17.65 121.8 20.85 121.95 21.8 122.2 M62.75 156.85 Q61.5 155.45 60.15 156.75 61.5 155.45 62.75 156.85 M61.05 157.95 Q59.35 157.7 58.8 158.4 59.35 157.7 61.05 157.95 M131.9 137.5 Q131.1 137.05 129.7 136.35 L127.75 138.3 129.7 136.35 Q131.1 137.05 131.9 137.5 M128.7 139.1 L128.15 139.35 125.5 139.1 128.15 139.35 128.7 139.1 M155.2 158.4 L154.4 157.9 Q152.5 156.25 151.55 158.4 152.5 156.25 154.4 157.9 L155.2 158.4 M152.45 159.6 L149.25 159.6 152.45 159.6 M121.5 212.95 Q120.65 211.95 119.45 211.8 L118.15 213.05 119.45 211.8 Q120.65 211.95 121.5 212.95 M119.05 214.3 Q119.2 213.6 118.3 214.0 L116.8 214.3 118.3 214.0 Q119.2 213.6 119.05 214.3 M82.15 204.9 L80.6 204.5 79.35 206.2 80.6 204.5 82.15 204.9 M81.6 206.65 Q81.05 207.35 79.35 207.2 L78.0 207.05 79.35 207.2 Q81.05 207.35 81.6 206.65 M24.95 209.85 Q24.05 209.85 23.3 209.3 22.35 209.8 21.3 211.05 22.35 209.8 23.3 209.3 24.05 209.85 24.95 209.85 M22.7 211.45 L21.85 211.55 21.3 211.7 18.1 211.85 21.3 211.7 21.85 211.55 22.7 211.45 M262.1 207.85 L260.35 207.35 259.9 207.3 Q258.65 207.6 258.05 208.65 258.65 207.6 259.9 207.3 L260.35 207.35 262.1 207.85 M259.85 209.05 L259.1 209.25 257.55 209.6 256.2 209.45 257.55 209.6 259.1 209.25 259.85 209.05 M194.05 198.2 L190.4 198.2 194.05 198.2" fill="url(#gradient4)" fill-rule="evenodd" stroke="none"/>
    <path d="M397.05 270.95 L260.85 270.95 266.2 270.4 Q269.9 270.45 273.5 269.25 L275.2 268.25 276.65 267.15 Q278.15 265.95 279.95 265.1 283.05 263.6 286.35 262.55 289.45 261.45 292.0 259.75 L293.8 258.6 Q295.4 257.6 297.45 257.95 300.5 258.15 302.55 256.2 304.9 254.0 307.85 252.5 313.6 249.5 316.35 244.1 L317.85 244.4 321.5 244.3 Q323.15 243.35 325.25 243.4 326.3 245.05 326.85 247.0 L327.75 249.0 Q331.35 254.8 333.6 260.85 334.0 261.85 335.0 262.7 336.65 264.2 338.85 263.7 344.4 262.5 349.75 260.6 352.15 259.7 353.8 258.1 L355.6 256.2 Q356.2 255.6 356.9 255.2 L358.9 255.25 Q361.05 256.6 363.9 256.35 L366.85 259.3 368.3 260.85 Q369.15 262.0 370.5 262.5 L374.9 264.45 375.05 265.25 Q375.0 266.0 375.6 266.35 L379.75 269.4 388.65 264.3 Q391.0 263.15 393.05 263.45 L393.1 263.7 Q393.65 268.15 397.05 270.95 M44.05 270.95 L-9.5 270.95 -5.2 258.9 -2.0 260.5 -0.6 260.9 Q0.7 261.25 1.05 262.3 L4.85 264.3 Q6.9 264.2 7.75 262.55 8.75 260.45 10.05 258.45 10.85 257.25 11.25 255.9 12.85 250.45 16.5 245.95 20.55 241.4 22.0 236.0 22.2 235.4 23.05 235.15 L24.5 234.8 Q27.3 237.9 28.5 241.9 28.9 243.15 29.75 244.3 31.0 245.95 31.1 247.8 31.2 252.8 34.5 256.65 35.2 257.45 35.35 258.55 35.95 262.35 38.9 264.85 L41.5 267.75 44.05 270.95" fill="#011818" fill-rule="evenodd" stroke="none"/>
    <path d="M407.25 67.95 L407.25 108.55 Q403.5 109.7 400.4 107.4 L397.6 105.5 Q390.7 101.3 382.3 101.9 L376.35 101.2 373.55 100.5 Q371.8 100.05 370.25 99.1 366.7 97.0 364.4 94.1 363.9 93.35 364.1 92.5 364.6 90.45 365.5 88.5 366.65 86.1 365.65 83.6 L359.8 80.35 Q358.3 79.6 356.85 79.3 L355.7 79.2 350.7 77.75 Q346.5 76.75 342.2 74.95 339.05 71.9 339.4 67.85 339.45 66.7 338.35 66.05 335.55 64.45 332.1 63.8 314.05 63.9 295.95 61.85 L280.8 61.05 Q273.7 60.35 267.6 56.8 259.7 52.3 250.35 52.7 L249.75 53.2 Q244.2 52.85 240.9 56.65 L239.9 58.25 Q237.65 63.6 230.65 63.45 L221.85 63.3 Q212.1 63.0 203.25 59.55 201.25 58.75 199.1 58.3 188.25 57.5 177.4 59.7 L168.8 61.0 Q159.05 61.95 149.25 60.45 L146.5 59.9 Q140.55 58.3 140.8 53.1 140.8 52.45 141.4 52.05 142.1 51.45 142.95 51.05 144.55 50.4 145.5 49.05 145.5 46.85 142.7 46.35 L126.35 43.75 Q125.15 38.7 121.25 34.85 119.75 33.4 119.15 31.45 118.45 29.45 118.1 27.35 L118.1 27.05 115.7 25.65 Q115.5 25.3 115.25 25.65 112.45 30.15 112.55 35.55 112.6 36.75 112.1 37.7 111.05 39.85 110.55 42.15 105.9 43.95 100.9 44.75 L83.05 45.35 71.0 47.2 Q62.9 48.8 54.7 48.65 47.3 48.5 40.0 49.8 L29.05 51.7 Q24.45 52.6 20.4 54.8 20.25 56.25 20.4 57.4 20.65 59.15 20.05 61.0 19.7 62.3 18.65 63.25 L16.0 65.25 Q14.75 66.2 13.15 66.5 L-1.05 69.4 -6.15 70.3 -14.1 72.15 -14.1 55.05 -14.1 51.65 -10.75 51.15 -2.5 49.7 Q-0.95 49.35 -0.1 48.25 1.9 45.7 5.2 44.7 7.5 44.0 9.55 42.9 12.3 41.45 14.5 39.4 18.05 36.05 23.15 36.0 L28.8 35.5 40.0 34.65 43.45 34.2 46.25 33.45 Q48.95 32.35 50.95 31.1 L51.2 29.7 52.9 29.7 54.7 29.85 66.1 31.15 68.6 30.95 Q82.25 28.2 95.9 24.9 104.3 22.8 113.0 23.15 L126.85 23.9 Q131.8 24.25 136.25 25.95 136.3 27.25 137.85 27.5 L143.5 27.05 Q146.0 27.2 147.2 28.9 L148.0 29.6 Q152.25 32.45 157.8 32.45 L166.65 31.85 181.7 31.95 188.05 32.75 203.2 33.7 214.4 32.75 215.05 30.55 217.35 31.05 218.4 30.75 222.7 30.05 225.05 29.2 Q227.35 28.15 229.8 28.1 235.75 28.4 241.55 29.6 L250.4 30.25 Q257.85 30.1 264.9 31.35 267.4 31.8 266.9 33.95 L264.6 35.8 265.2 37.3 Q265.55 37.95 266.25 38.2 269.45 39.4 272.1 41.55 273.2 42.35 274.5 42.7 281.1 43.25 287.7 44.75 291.2 45.7 295.25 45.7 299.1 45.7 302.95 45.85 L307.7 46.7 Q313.55 48.05 319.35 46.65 L321.0 45.95 328.8 42.3 330.55 38.1 335.2 37.6 Q339.75 38.0 344.05 36.8 L344.3 36.3 344.7 35.0 Q345.15 33.5 346.7 33.1 350.5 31.95 354.7 31.9 L358.05 32.25 367.7 33.65 372.65 34.3 Q375.95 35.0 378.65 36.6 L377.0 39.35 379.15 42.6 379.9 44.35 Q380.4 47.5 381.8 50.35 383.7 54.05 387.6 56.35 390.5 58.2 393.7 59.55 397.05 61.0 400.6 61.35 403.4 61.5 405.0 63.2 406.75 65.15 407.25 67.95 M407.25 233.55 L407.25 270.95 397.05 270.95 Q393.65 268.15 393.1 263.7 L393.05 263.45 Q391.0 263.15 388.65 264.3 L379.75 269.4 375.6 266.35 Q375.0 266.0 375.05 265.25 L374.9 264.45 370.5 262.5 Q369.15 262.0 368.3 260.85 L366.85 259.3 363.9 256.35 Q361.05 256.6 358.9 255.25 L356.9 255.2 Q356.2 255.6 355.6 256.2 L353.8 258.1 Q352.15 259.7 349.75 260.6 344.4 262.5 338.85 263.7 336.65 264.2 335.0 262.7 334.0 261.85 333.6 260.85 331.35 254.8 327.75 249.0 L326.85 247.0 Q326.3 245.05 325.25 243.4 323.15 243.35 321.5 244.3 L317.85 244.4 316.35 244.1 Q313.6 249.5 307.85 252.5 304.9 254.0 302.55 256.2 300.5 258.15 297.45 257.95 295.4 257.6 293.8 258.6 L292.0 259.75 Q289.45 261.45 286.35 262.55 283.05 263.6 279.95 265.1 278.15 265.95 276.65 267.15 L275.2 268.25 273.5 269.25 Q269.9 270.45 266.2 270.4 L260.85 270.95 44.05 270.95 41.5 267.75 38.9 264.85 Q35.95 262.35 35.35 258.55 35.2 257.45 34.5 256.65 31.2 252.8 31.1 247.8 L35.15 247.65 41.45 248.85 56.95 246.7 Q71.0 244.9 84.85 248.35 101.65 252.45 117.6 246.8 125.5 244.0 129.3 237.45 130.05 236.2 131.25 235.7 140.35 232.1 150.6 232.3 L154.1 232.45 168.45 233.95 Q170.7 234.35 173.0 234.0 179.95 232.7 186.7 230.85 L191.4 229.95 199.1 228.35 Q203.3 227.8 207.3 226.6 213.35 225.0 219.65 226.4 L224.8 227.4 236.55 228.1 241.5 228.45 Q245.25 227.9 248.55 228.55 L253.05 229.0 267.2 229.65 Q271.15 229.95 275.15 229.5 280.35 228.8 285.3 227.1 L285.4 227.35 285.55 227.4 285.9 227.35 287.0 223.8 Q293.05 222.1 299.2 221.25 L303.8 222.25 Q312.1 224.05 319.8 226.6 327.35 229.15 335.3 230.1 L338.85 230.55 353.0 231.2 Q361.5 230.55 368.85 226.45 372.7 224.3 377.3 224.65 380.4 224.95 382.65 226.85 L388.5 231.5 390.1 232.7 Q393.65 235.6 398.55 235.95 403.1 235.3 407.25 233.55 M362.2 53.05 L356.75 52.9 352.15 52.65 351.35 52.8 Q348.95 54.0 346.65 53.15 L344.85 52.7 Q341.9 52.3 340.7 53.5 341.9 52.3 344.85 52.7 L346.65 53.15 Q348.95 54.0 351.35 52.8 L352.15 52.65 356.75 52.9 362.2 53.05 M379.6 74.0 L375.1 73.75 374.6 73.8 371.35 73.7 369.6 73.75 363.6 73.9 362.2 73.7 Q359.7 73.35 358.1 74.4 359.7 73.35 362.2 73.7 L363.6 73.9 369.6 73.75 371.35 73.7 374.6 73.8 375.1 73.75 379.6 74.0 M383.7 68.35 L378.3 67.85 377.7 67.7 Q376.5 67.45 375.6 68.1 373.55 69.55 372.4 67.4 370.9 67.95 369.55 68.75 370.9 67.95 372.4 67.4 373.55 69.55 375.6 68.1 376.5 67.45 377.7 67.7 L378.3 67.85 383.7 68.35 M398.35 70.35 L393.2 66.45 387.95 61.8 387.25 61.3 381.9 58.2 380.85 57.65 Q377.05 55.75 375.1 53.05 374.1 51.65 373.45 49.9 L373.35 49.4 372.95 48.3 372.3 46.65 371.2 43.05 Q370.6 41.0 368.55 39.9 366.2 38.7 363.55 37.9 361.7 37.3 359.45 37.4 361.7 37.3 363.55 37.9 366.2 38.7 368.55 39.9 370.6 41.0 371.2 43.05 L372.3 46.65 372.95 48.3 373.35 49.4 373.45 49.9 Q374.1 51.65 375.1 53.05 377.05 55.75 380.85 57.65 L381.9 58.2 387.25 61.3 387.95 61.8 393.2 66.45 398.35 70.35 M354.0 36.6 Q352.2 37.5 350.7 39.35 L350.45 39.85 Q349.05 42.3 345.4 41.65 L341.25 41.45 Q338.85 41.6 336.65 42.2 335.85 42.45 335.45 43.5 L335.15 44.65 334.5 46.3 333.35 47.75 330.65 49.75 329.75 50.1 Q325.15 50.45 321.1 51.9 L320.2 52.1 317.4 52.4 316.05 52.5 310.6 52.65 Q301.55 52.6 293.7 50.15 289.8 48.95 285.4 48.7 L283.15 48.5 278.6 48.2 275.85 47.9 271.25 47.3 270.35 47.1 265.3 45.5 Q263.6 44.95 262.45 43.9 260.15 41.75 258.55 39.4 L257.9 38.9 Q251.45 36.6 244.8 34.6 251.45 36.6 257.9 38.9 L258.55 39.4 Q260.15 41.75 262.45 43.9 263.6 44.95 265.3 45.5 L270.35 47.1 271.25 47.3 275.85 47.9 278.6 48.2 283.15 48.5 285.4 48.7 Q289.8 48.95 293.7 50.15 301.55 52.6 310.6 52.65 L316.05 52.5 317.4 52.4 320.2 52.1 321.1 51.9 Q325.15 50.45 329.75 50.1 L330.65 49.75 333.35 47.75 334.5 46.3 335.15 44.65 335.45 43.5 Q335.85 42.45 336.65 42.2 338.85 41.6 341.25 41.45 L345.4 41.65 Q349.05 42.3 350.45 39.85 L350.7 39.35 Q352.2 37.5 354.0 36.6 M131.9 28.15 Q130.65 26.75 128.7 26.7 L126.75 26.3 125.95 26.15 124.0 25.9 123.2 25.75 118.6 25.45 117.25 25.25 116.35 25.1 114.05 24.8 Q113.1 24.7 112.8 25.2 L112.25 25.4 110.45 25.6 Q109.2 25.65 108.5 26.0 L107.65 26.2 103.1 26.85 101.8 27.1 101.25 27.2 99.0 27.45 97.65 27.6 94.85 27.9 94.35 28.05 90.3 28.75 89.8 28.85 86.75 29.85 85.7 30.05 Q81.1 30.85 77.85 32.4 L77.15 32.7 75.25 33.4 Q73.45 34.25 71.1 34.25 L56.5 34.0 55.15 33.9 Q52.6 33.55 51.05 34.3 L49.25 35.1 48.7 35.4 Q46.55 36.85 44.6 37.35 L42.85 37.9 42.3 38.05 37.75 38.55 34.1 38.45 33.2 38.35 28.6 38.15 24.05 38.65 21.7 39.2 19.45 39.25 Q18.5 39.15 18.2 39.65 L17.65 39.9 Q17.15 40.0 16.7 40.25 13.6 41.95 11.15 44.15 L8.4 46.2 5.6 48.05 4.9 48.35 4.4 48.45 Q3.15 48.55 2.05 48.95 L-1.9 50.0 -2.5 50.2 Q-4.3 51.4 -5.65 52.65 L-7.0 53.2 -7.55 53.45 Q-9.35 54.65 -12.05 54.9 L-12.55 54.95 -14.1 55.05 -12.55 54.95 -12.05 54.9 Q-9.35 54.65 -7.55 53.45 L-7.0 53.2 -5.65 52.65 Q-4.3 51.4 -2.5 50.2 L-1.9 50.0 2.05 48.95 Q3.15 48.55 4.4 48.45 L4.9 48.35 5.6 48.05 8.4 46.2 11.15 44.15 Q13.6 41.95 16.7 40.25 17.15 40.0 17.65 39.9 L18.2 39.65 Q18.5 39.15 19.45 39.25 L21.7 39.2 24.05 38.65 28.6 38.15 33.2 38.35 34.1 38.45 37.75 38.55 42.3 38.05 42.85 37.9 44.6 37.35 Q46.55 36.85 48.7 35.4 L49.25 35.1 51.05 34.3 Q52.6 33.55 55.15 33.9 L56.5 34.0 71.1 34.25 Q73.45 34.25 75.25 33.4 L77.15 32.7 77.85 32.4 Q81.1 30.85 85.7 30.05 L86.75 29.85 89.8 28.85 90.3 28.75 94.35 28.05 94.85 27.9 97.65 27.6 99.0 27.45 101.25 27.2 101.8 27.1 103.1 26.85 107.65 26.2 108.5 26.0 Q109.2 25.65 110.45 25.6 L112.25 25.4 112.8 25.2 Q113.1 24.7 114.05 24.8 L116.35 25.1 117.25 25.25 118.6 25.45 123.2 25.75 124.0 25.9 125.95 26.15 126.75 26.3 128.7 26.7 Q130.65 26.75 131.9 28.15 M380.95 94.05 L376.0 93.55 375.5 93.45 Q375.05 93.45 374.75 93.75 374.0 94.65 372.3 94.3 L372.0 94.0 Q371.7 92.65 370.45 93.65 L369.1 94.85 370.45 93.65 Q371.7 92.65 372.0 94.0 L372.3 94.3 Q374.0 94.65 374.75 93.75 375.05 93.45 375.5 93.45 L376.0 93.55 380.95 94.05 M374.1 251.65 L370.85 249.7 370.0 249.4 365.05 249.8 Q363.4 250.35 361.8 249.2 361.0 248.65 360.4 248.55 359.15 248.35 358.2 248.95 356.75 249.95 354.95 249.95 352.65 249.9 351.55 248.1 L351.4 247.6 Q351.3 247.0 350.4 247.35 348.1 248.25 346.7 249.65 348.1 248.25 350.4 247.35 351.3 247.0 351.4 247.6 L351.55 248.1 Q352.65 249.9 354.95 249.95 356.75 249.95 358.2 248.95 359.15 248.35 360.4 248.55 361.0 248.65 361.8 249.2 363.4 250.35 365.05 249.8 L370.0 249.4 370.85 249.7 374.1 251.65 M386.45 234.75 L385.95 234.0 385.5 233.6 Q384.55 233.15 383.75 232.3 381.25 229.75 376.85 229.9 L374.65 230.15 369.6 230.9 367.65 231.45 364.55 232.7 362.6 233.4 Q358.45 234.8 354.0 235.65 L353.1 235.8 350.3 236.1 349.4 236.2 Q345.05 236.4 340.7 236.2 L339.35 236.1 336.15 235.8 331.65 235.35 328.85 235.15 327.6 234.95 323.8 233.65 315.6 230.7 312.55 229.4 Q310.05 228.2 306.9 228.35 305.2 228.45 304.65 229.55 305.2 228.45 306.9 228.35 310.05 228.2 312.55 229.4 L315.6 230.7 323.8 233.65 327.6 234.95 328.85 235.15 331.65 235.35 336.15 235.8 339.35 236.1 340.7 236.2 Q345.05 236.4 349.4 236.2 L350.3 236.1 353.1 235.8 354.0 235.65 Q358.45 234.8 362.6 233.4 L364.55 232.7 367.65 231.45 369.6 230.9 374.65 230.15 376.85 229.9 Q381.25 229.75 383.75 232.3 384.55 233.15 385.5 233.6 L385.95 234.0 386.45 234.75 M337.55 60.3 L336.15 60.4 332.55 60.6 Q329.7 60.55 328.0 59.45 L327.4 59.25 325.65 59.1 310.15 59.1 325.65 59.1 327.4 59.25 328.0 59.45 Q329.7 60.55 332.55 60.6 L336.15 60.4 337.55 60.3 M245.25 43.45 L241.1 43.4 237.0 43.9 233.9 44.1 233.3 43.95 232.45 43.8 Q229.9 43.6 228.3 44.25 229.9 43.6 232.45 43.8 L233.3 43.95 233.9 44.1 237.0 43.9 241.1 43.4 245.25 43.45 M220.6 49.45 L218.7 49.45 216.95 49.65 213.7 50.2 212.4 50.05 206.8 49.6 206.05 49.55 200.45 49.15 196.3 49.85 200.45 49.15 206.05 49.55 206.8 49.6 212.4 50.05 213.7 50.2 216.95 49.65 218.7 49.45 220.6 49.45 M238.35 33.4 L236.6 32.85 236.1 32.7 232.5 33.0 231.55 33.25 227.85 33.85 223.75 34.7 222.85 34.9 222.0 35.15 219.6 36.1 215.5 37.15 214.6 37.3 213.25 37.5 211.45 37.85 210.5 38.1 209.2 38.35 206.75 38.8 Q205.7 39.0 204.6 38.8 L200.0 38.6 199.2 38.45 197.3 38.05 192.65 37.4 188.6 36.65 187.75 36.45 Q185.6 35.65 183.05 35.95 L182.6 36.0 182.2 36.05 182.6 36.0 183.05 35.95 Q185.6 35.65 187.75 36.45 L188.6 36.65 192.65 37.4 197.3 38.05 199.2 38.45 200.0 38.6 204.6 38.8 Q205.7 39.0 206.75 38.8 L209.2 38.35 210.5 38.1 211.45 37.85 213.25 37.5 214.6 37.3 215.5 37.15 219.6 36.1 222.0 35.15 222.85 34.9 223.75 34.7 227.85 33.85 231.55 33.25 232.5 33.0 236.1 32.7 236.6 32.85 238.35 33.4 M182.1 36.05 L174.9 36.2 170.8 35.7 170.3 35.6 164.8 35.4 163.45 35.2 161.2 35.15 160.7 35.25 157.95 35.3 156.15 35.05 151.55 34.45 150.6 34.3 149.8 34.0 147.0 32.15 146.45 31.85 Q144.65 31.0 142.85 30.3 L142.3 30.0 Q142.05 29.5 141.0 29.6 L138.8 29.6 138.25 29.5 136.05 29.2 135.55 29.15 Q133.75 29.15 132.85 28.55 133.75 29.15 135.55 29.15 L136.05 29.2 138.25 29.5 138.8 29.6 141.0 29.6 Q142.05 29.5 142.3 30.0 L142.85 30.3 Q144.65 31.0 146.45 31.85 L147.0 32.15 149.8 34.0 150.6 34.3 151.55 34.45 156.15 35.05 157.95 35.3 160.7 35.25 161.2 35.15 163.45 35.2 164.8 35.4 170.3 35.6 170.8 35.7 174.9 36.2 182.1 36.05 Q181.75 36.75 182.15 36.1 L182.2 36.05 182.15 35.85 182.1 36.05 M162.95 55.5 L160.7 55.0 159.9 55.0 Q158.45 55.5 156.65 54.65 L156.15 54.5 155.2 54.6 Q154.75 54.7 154.55 54.9 153.75 55.6 152.05 55.35 L151.45 55.15 150.6 54.9 Q148.45 55.0 147.9 56.3 148.45 55.0 150.6 54.9 L151.45 55.15 152.05 55.35 Q153.75 55.6 154.55 54.9 154.75 54.7 155.2 54.6 L156.15 54.5 156.65 54.65 Q158.45 55.5 159.9 55.0 L160.7 55.0 162.95 55.5 M182.15 44.65 L177.15 44.65 176.3 44.5 172.55 43.85 171.75 44.0 Q170.05 44.8 168.0 44.5 L167.1 44.35 160.7 43.85 159.9 44.0 157.5 44.25 159.9 44.0 160.7 43.85 167.1 44.35 168.0 44.5 Q170.05 44.8 171.75 44.0 L172.55 43.85 176.3 44.5 177.15 44.65 182.15 44.65 M94.85 39.0 L94.25 38.8 Q93.8 38.35 92.6 38.45 90.75 38.6 88.95 38.4 L86.25 38.2 85.35 38.4 Q82.55 39.9 79.4 38.9 L78.95 38.8 75.75 39.5 75.2 39.65 67.45 40.6 75.2 39.65 75.75 39.5 78.95 38.8 79.4 38.9 Q82.55 39.9 85.35 38.4 L86.25 38.2 88.95 38.4 Q90.75 38.6 92.6 38.45 93.8 38.35 94.25 38.8 L94.85 39.0 M43.7 45.85 L37.75 46.05 37.25 46.1 35.95 46.35 Q34.15 46.65 32.75 46.35 L31.95 46.4 Q30.35 47.25 28.15 46.9 L27.25 46.75 25.85 46.6 Q23.3 46.4 22.25 47.45 23.3 46.4 25.85 46.6 L27.25 46.75 28.15 46.9 Q30.35 47.25 31.95 46.4 L32.75 46.35 Q34.15 46.65 35.95 46.35 L37.25 46.1 37.75 46.05 43.7 45.85 M11.25 61.1 L4.4 61.5 3.75 61.7 2.1 61.85 -1.5 61.65 -2.05 61.8 Q-2.45 61.9 -2.6 62.1 L-3.8 62.2 -4.35 62.0 -4.9 61.75 Q-5.15 61.25 -6.15 61.4 -8.05 61.75 -8.4 63.15 -8.05 61.75 -6.15 61.4 -5.15 61.25 -4.9 61.75 L-4.35 62.0 -3.8 62.2 -2.6 62.1 Q-2.45 61.9 -2.05 61.8 L-1.5 61.65 2.1 61.85 3.75 61.7 4.4 61.5 11.25 61.1 M160.7 235.55 Q159.25 234.9 157.95 234.8 L157.2 234.55 Q156.55 234.15 155.65 234.2 152.5 234.3 149.7 235.15 L145.6 236.3 Q141.05 237.65 138.3 240.4 L137.75 240.75 Q136.3 241.7 135.05 242.75 L131.85 245.1 Q130.95 245.65 130.15 246.55 128.5 248.45 125.0 249.95 L120.55 251.4 110.95 253.4 102.65 254.4 95.75 253.95 89.85 253.45 86.25 253.35 78.0 252.15 74.3 251.7 73.0 251.5 68.85 251.1 64.75 251.1 63.3 251.0 58.85 251.4 54.25 252.35 52.85 252.65 Q51.45 253.05 50.1 253.6 L48.7 253.9 43.25 254.05 38.65 253.6 Q36.9 253.2 35.45 252.45 36.9 253.2 38.65 253.6 L43.25 254.05 48.7 253.9 50.1 253.6 Q51.45 253.05 52.85 252.65 L54.25 252.35 58.85 251.4 63.3 251.0 64.75 251.1 68.85 251.1 73.0 251.5 74.3 251.7 78.0 252.15 86.25 253.35 89.85 253.45 95.75 253.95 102.65 254.4 110.95 253.4 120.55 251.4 125.0 249.95 Q128.5 248.45 130.15 246.55 130.95 245.65 131.85 245.1 L135.05 242.75 Q136.3 241.7 137.75 240.75 L138.3 240.4 Q141.05 237.65 145.6 236.3 L149.7 235.15 Q152.5 234.3 155.65 234.2 156.55 234.15 157.2 234.55 L157.95 234.8 Q159.25 234.9 160.7 235.55 M179.9 259.7 Q178.8 259.15 177.6 259.05 L173.0 258.9 166.65 259.35 Q165.05 259.55 163.9 258.85 L163.35 258.65 Q162.7 258.5 162.1 258.65 157.85 259.65 153.4 258.8 L152.45 258.75 148.35 258.75 147.0 258.6 145.65 258.35 144.2 257.85 143.5 257.5 142.0 257.3 Q140.0 257.8 139.65 259.3 140.0 257.8 142.0 257.3 L143.5 257.5 144.2 257.85 145.65 258.35 147.0 258.6 148.35 258.75 152.45 258.75 153.4 258.8 Q157.85 259.65 162.1 258.65 162.7 258.5 163.35 258.65 L163.9 258.85 Q165.05 259.55 166.65 259.35 L173.0 258.9 177.6 259.05 Q178.8 259.15 179.9 259.7 M97.15 263.3 L96.3 263.2 95.75 263.1 Q92.8 262.9 89.85 263.0 L82.55 262.45 81.15 262.2 Q78.95 261.9 77.15 262.65 74.85 263.6 72.0 263.25 L69.75 262.95 68.9 263.05 66.1 263.35 Q63.6 263.2 61.55 262.35 59.95 261.7 58.8 262.9 59.95 261.7 61.55 262.35 63.6 263.2 66.1 263.35 L68.9 263.05 69.75 262.95 72.0 263.25 Q74.85 263.6 77.15 262.65 78.95 261.9 81.15 262.2 L82.55 262.45 89.85 263.0 Q92.8 262.9 95.75 263.1 L96.3 263.2 97.15 263.3 M312.4 241.6 L304.2 241.3 303.25 241.5 300.5 241.3 296.4 240.95 295.5 241.0 293.65 240.75 292.75 240.45 291.4 240.2 Q287.85 240.05 286.85 242.0 287.85 240.05 291.4 240.2 L292.75 240.45 293.65 240.75 295.5 241.0 296.4 240.95 300.5 241.3 303.25 241.5 304.2 241.3 312.4 241.6 M299.2 227.55 L298.25 227.15 297.35 226.95 Q288.45 227.0 281.25 230.7 L277.7 232.0 275.8 232.55 Q267.95 235.0 259.4 235.7 L258.05 235.8 253.05 235.8 247.5 235.55 245.75 235.35 243.9 235.1 239.25 234.7 231.1 233.65 230.2 233.45 226.0 232.5 217.8 231.85 209.15 232.75 206.9 233.3 202.75 233.9 200.95 234.15 Q198.85 234.55 196.8 235.3 L188.65 238.15 184.45 239.6 Q182.35 240.35 179.9 240.55 L177.15 240.75 175.85 240.9 166.2 241.45 164.35 241.2 166.2 241.45 175.85 240.9 177.15 240.75 179.9 240.55 Q182.35 240.35 184.45 239.6 L188.65 238.15 196.8 235.3 Q198.85 234.55 200.95 234.15 L202.75 233.9 206.9 233.3 209.15 232.75 217.8 231.85 226.0 232.5 230.2 233.45 231.1 233.65 239.25 234.7 243.9 235.1 245.75 235.35 247.5 235.55 253.05 235.8 258.05 235.8 259.4 235.7 Q267.95 235.0 275.8 232.55 L277.7 232.0 281.25 230.7 Q288.45 227.0 297.35 226.95 L298.25 227.15 299.2 227.55 M266.7 247.65 Q262.45 249.35 259.0 246.75 256.7 245.1 253.95 246.45 L253.05 246.8 Q250.0 247.6 247.05 246.8 L246.2 246.7 244.4 247.0 Q242.55 247.25 241.15 248.1 L240.6 248.3 Q239.0 248.6 238.0 247.6 236.95 246.5 235.6 246.1 L234.9 246.2 232.0 248.45 234.9 246.2 235.6 246.1 Q236.95 246.5 238.0 247.6 239.0 248.6 240.6 248.3 L241.15 248.1 Q242.55 247.25 244.4 247.0 L246.2 246.7 247.05 246.8 Q250.0 247.6 253.05 246.8 L253.95 246.45 Q256.7 245.1 259.0 246.75 262.45 249.35 266.7 247.65 M247.5 255.65 L240.65 256.05 238.9 255.85 237.0 255.8 230.65 256.05 229.35 255.85 225.1 255.55 224.25 255.75 222.45 256.2 221.5 256.35 Q220.4 256.45 219.65 255.65 L219.15 255.3 218.55 254.7 Q218.0 253.7 216.45 253.95 L215.1 254.25 212.3 255.15 211.55 255.4 Q209.85 256.2 208.75 254.8 L207.7 253.7 Q207.15 253.15 205.95 253.4 L205.4 253.55 Q203.55 254.4 203.2 256.05 203.55 254.4 205.4 253.55 L205.95 253.4 Q207.15 253.15 207.7 253.7 L208.75 254.8 Q209.85 256.2 211.55 255.4 L212.3 255.15 215.1 254.25 216.45 253.95 Q218.0 253.7 218.55 254.7 L219.15 255.3 219.65 255.65 Q220.4 256.45 221.5 256.35 L222.45 256.2 224.25 255.75 225.1 255.55 229.35 255.85 230.65 256.05 237.0 255.8 238.9 255.85 240.65 256.05 247.5 255.65 M205.9 266.15 L202.3 267.05 198.65 267.2 197.75 267.05 190.4 266.35 189.5 266.3 187.25 266.35 184.85 266.85 184.1 266.8 Q181.95 265.8 179.45 265.7 L178.7 265.9 Q178.3 266.15 178.0 266.5 L176.7 267.75 178.0 266.5 Q178.3 266.15 178.7 265.9 L179.45 265.7 Q181.95 265.8 184.1 266.8 L184.85 266.85 187.25 266.35 189.5 266.3 190.4 266.35 197.75 267.05 198.65 267.2 202.3 267.05 205.9 266.15" fill="url(#gradient5)" fill-rule="evenodd" stroke="none"/>
    <path d="M106.5 22.5 Q106.5 20.55 105.7 19.15 104.85 17.75 103.65 17.75 101.8 20.7 98.1 19.75 96.65 19.4 95.4 20.05 L93.65 17.4 90.0 16.8 Q88.05 14.85 88.0 12.05 87.95 8.65 86.6 5.4 L84.3 -0.5 84.8 -1.6 M396.05 4.0 Q395.0 11.0 397.8 17.6 399.6 21.85 399.35 26.3 399.3 28.05 398.35 29.3 L393.75 35.05 390.2 38.7 Q386.85 41.7 388.3 45.75 389.25 48.6 389.2 51.45 M377.3 -1.6 Q378.1 0.8 377.15 3.05 376.65 4.2 377.05 5.45 377.4 6.65 378.25 7.65 L385.05 16.5 Q387.0 19.1 386.8 22.1 L386.6 22.75 Q384.25 25.55 383.0 28.8 382.3 30.65 380.25 31.7 M373.65 28.95 Q373.65 26.3 376.85 25.55 L378.5 24.7 Q381.75 21.95 381.45 18.0 381.25 14.35 380.35 10.9 380.25 10.8 380.45 10.65 L379.6 10.45 M359.95 26.5 Q361.45 23.3 364.6 21.2 L364.8 20.95 Q363.8 14.4 359.25 9.1 358.2 7.85 357.85 6.4 357.45 4.8 357.45 3.2 L357.65 -0.4 M407.25 67.95 Q406.75 65.15 405.0 63.2 403.4 61.5 400.6 61.35 397.05 61.0 393.7 59.55 390.5 58.2 387.6 56.35 383.7 54.05 381.8 50.35 380.4 47.5 379.9 44.35 L379.15 42.6 377.0 39.35 378.65 36.6 Q375.95 35.0 372.65 34.3 L367.7 33.65 358.05 32.25 354.7 31.9 Q350.5 31.95 346.7 33.1 345.15 33.5 344.7 35.0 L344.3 36.3 344.05 36.8 Q339.75 38.0 335.2 37.6 L330.55 38.1 328.8 42.3 321.0 45.95 319.35 46.65 Q313.55 48.05 307.7 46.7 L302.95 45.85 Q299.1 45.7 295.25 45.7 291.2 45.7 287.7 44.75 281.1 43.25 274.5 42.7 273.2 42.35 272.1 41.55 269.45 39.4 266.25 38.2 265.55 37.95 265.2 37.3 L264.6 35.8 266.9 33.95 Q267.4 31.8 264.9 31.35 257.85 30.1 250.4 30.25 L241.55 29.6 Q235.75 28.4 229.8 28.1 227.35 28.15 225.05 29.2 L222.7 30.05 218.4 30.75 217.35 31.05 215.05 30.55 214.4 32.75 203.2 33.7 188.05 32.75 181.7 31.95 166.65 31.85 157.8 32.45 Q152.25 32.45 148.0 29.6 L147.2 28.9 Q146.0 27.2 143.5 27.05 L137.85 27.5 Q136.3 27.25 136.25 25.95 131.8 24.25 126.85 23.9 L113.0 23.15 Q104.3 22.8 95.9 24.9 82.25 28.2 68.6 30.95 L66.1 31.15 54.7 29.85 52.9 29.7 51.2 29.7 50.95 31.1 Q48.95 32.35 46.25 33.45 L43.45 34.2 40.0 34.65 28.8 35.5 23.15 36.0 Q18.05 36.05 14.5 39.4 12.3 41.45 9.55 42.9 7.5 44.0 5.2 44.7 1.9 45.7 -0.1 48.25 -0.95 49.35 -2.5 49.7 L-10.75 51.15 -14.1 51.65 M407.25 108.55 Q403.5 109.7 400.4 107.4 L397.6 105.5 Q390.7 101.3 382.3 101.9 L376.35 101.2 373.55 100.5 Q371.8 100.05 370.25 99.1 366.7 97.0 364.4 94.1 363.9 93.35 364.1 92.5 364.6 90.45 365.5 88.5 366.65 86.1 365.65 83.6 L359.8 80.35 Q358.3 79.6 356.85 79.3 L355.7 79.2 350.7 77.75 Q346.5 76.75 342.2 74.95 339.05 71.9 339.4 67.85 339.45 66.7 338.35 66.05 335.55 64.45 332.1 63.8 314.05 63.9 295.95 61.85 L280.8 61.05 Q273.7 60.35 267.6 56.8 259.7 52.3 250.35 52.7 L249.75 53.2 Q244.2 52.85 240.9 56.65 L239.9 58.25 Q237.65 63.6 230.65 63.45 L221.85 63.3 Q212.1 63.0 203.25 59.55 201.25 58.75 199.1 58.3 188.25 57.5 177.4 59.7 L168.8 61.0 Q159.05 61.95 149.25 60.45 L146.5 59.9 Q140.55 58.3 140.8 53.1 140.8 52.45 141.4 52.05 142.1 51.45 142.95 51.05 144.55 50.4 145.5 49.05 145.5 46.85 142.7 46.35 L126.35 43.75 126.05 46.2 127.9 51.05 M105.0 49.8 L106.15 49.0 Q110.1 46.75 110.55 42.15 105.9 43.95 100.9 44.75 L83.05 45.35 71.0 47.2 Q62.9 48.8 54.7 48.65 47.3 48.5 40.0 49.8 L29.05 51.7 Q24.45 52.6 20.4 54.8 20.25 56.25 20.4 57.4 20.65 59.15 20.05 61.0 19.7 62.3 18.65 63.25 L16.0 65.25 Q14.75 66.2 13.15 66.5 L-1.05 69.4 -6.15 70.3 -14.1 72.15 M407.25 233.55 Q403.1 235.3 398.55 235.95 393.65 235.6 390.1 232.7 L388.5 231.5 382.65 226.85 Q380.4 224.95 377.3 224.65 372.7 224.3 368.85 226.45 361.5 230.55 353.0 231.2 L338.85 230.55 335.3 230.1 Q327.35 229.15 319.8 226.6 312.1 224.05 303.8 222.25 L299.2 221.25 Q293.05 222.1 287.0 223.8 L285.9 227.35 285.55 227.4 285.4 227.35 285.3 227.1 Q280.35 228.8 275.15 229.5 271.15 229.95 267.2 229.65 L253.05 229.0 248.55 228.55 Q245.25 227.9 241.5 228.45 L236.55 228.1 224.8 227.4 219.65 226.4 Q213.35 225.0 207.3 226.6 203.3 227.8 199.1 228.35 L191.4 229.95 186.7 230.85 Q179.95 232.7 173.0 234.0 170.7 234.35 168.45 233.95 L154.1 232.45 150.6 232.3 Q140.35 232.1 131.25 235.7 130.05 236.2 129.3 237.45 125.5 244.0 117.6 246.8 101.65 252.45 84.85 248.35 71.0 244.9 56.95 246.7 L41.45 248.85 35.15 247.65 31.1 247.8 M341.05 -1.6 Q340.25 3.95 336.7 8.85 335.7 10.15 335.0 11.6 332.7 15.85 336.45 19.4 L338.35 21.7 Q340.85 25.5 341.25 29.75 M322.4 -1.6 Q318.75 1.65 318.2 5.9 318.1 6.75 318.6 7.55 320.15 9.7 322.5 11.65 323.45 12.4 323.4 13.65 L323.05 18.05 Q322.5 24.6 326.3 30.5 L328.8 34.65 Q329.35 35.6 330.7 35.75 M300.1 31.75 Q297.95 26.85 297.25 21.3 L297.0 19.85 Q296.6 18.25 297.6 16.75 298.85 14.9 299.7 12.8 300.45 11.1 299.85 9.3 L296.9 0.4 M311.95 36.55 Q314.0 32.85 311.5 29.35 309.0 25.85 308.8 21.6 308.65 18.65 309.45 15.6 M286.4 -1.6 Q287.6 5.45 285.3 12.4 284.0 16.5 285.25 20.4 286.4 24.1 284.0 27.4 281.25 31.15 278.95 34.9 278.5 35.6 278.45 36.45 278.25 38.2 279.95 39.0 M273.7 -1.6 Q275.0 1.55 273.65 4.6 L272.5 6.75 Q269.35 11.95 271.65 17.75 272.0 18.65 271.95 19.7 271.65 25.45 268.65 30.35 L267.65 31.75 M262.1 26.5 Q259.1 22.7 262.65 19.35 L264.2 17.55 Q264.95 16.3 264.9 14.85 264.7 7.15 258.15 2.3 L254.4 -0.8 M241.9 -1.6 Q240.25 1.65 237.8 4.25 L235.3 6.45 233.75 8.2 Q232.05 11.05 232.3 14.45 M221.05 23.7 L222.1 23.0 220.9 18.7 Q220.6 17.6 220.05 13.9 219.55 10.2 217.55 6.45 215.6 2.7 212.8 0.8 M209.05 -1.6 Q206.2 1.05 205.4 4.75 205.25 5.55 204.7 6.2 L200.75 10.3 Q199.1 11.8 198.8 13.7 198.6 15.45 199.0 17.25 L199.4 19.95 Q199.6 22.6 199.25 25.3 199.15 26.45 199.7 27.65 201.3 30.8 203.2 33.7 M185.85 31.35 Q184.75 30.95 185.9 29.35 187.0 27.85 188.35 26.9 189.05 26.4 189.15 25.7 189.75 22.1 189.65 18.5 L189.45 16.75 188.6 14.65 184.65 7.55 180.35 0.4 M178.45 -1.6 Q177.8 1.05 176.2 3.55 175.75 4.25 175.8 5.15 L176.25 12.45 Q176.7 17.1 174.95 21.3 173.8 23.95 173.65 26.85 L173.45 27.7 Q171.3 29.4 168.8 29.35 167.2 29.35 166.75 27.85 L165.9 25.25 Q165.6 24.55 165.85 23.85 L167.1 19.55 Q167.5 18.05 167.4 16.6 167.1 11.9 163.45 8.85 L160.05 5.8 Q157.85 3.7 157.2 0.95 156.85 -0.4 157.5 -1.6 M141.0 -1.6 Q141.2 1.6 140.0 4.7 139.4 6.3 139.3 7.95 139.2 9.4 138.5 10.7 137.3 13.0 135.15 14.7 134.55 15.2 133.75 15.25 134.15 16.2 134.2 17.25 L134.1 19.4 Q133.5 22.6 135.55 24.9 M133.75 15.25 L133.6 15.05 Q132.0 13.05 129.55 11.7 L127.05 9.85 Q122.35 5.55 122.3 -0.4 M126.35 43.75 Q125.15 38.7 121.25 34.85 119.75 33.4 119.15 31.45 118.45 29.45 118.1 27.35 L118.1 27.05 115.7 25.65 Q115.5 25.3 115.25 25.65 112.45 30.15 112.55 35.55 112.6 36.75 112.1 37.7 111.05 39.85 110.55 42.15 M131.2 47.05 L131.45 46.6 131.85 47.45 133.8 47.35 135.1 50.25 Q130.0 52.5 128.55 50.6 L131.2 47.05 M111.35 -1.6 Q109.7 0.8 107.25 2.5 106.7 2.85 106.55 3.5 106.4 4.3 106.65 5.1 107.4 8.4 106.15 11.6 L103.65 17.75 M67.95 -1.6 Q65.3 2.5 67.05 7.15 67.45 8.2 68.45 9.05 70.6 11.15 71.1 13.85 71.7 16.6 71.4 19.3 70.95 24.0 73.7 27.95 74.4 28.9 73.4 29.35 M101.3 52.6 Q102.6 54.75 104.85 53.55 L105.0 53.35 Q104.65 49.75 101.75 47.0 L99.45 51.45 101.3 52.6 M99.45 51.45 L99.0 51.85 M126.9 55.15 Q124.35 55.2 122.6 56.75 L121.85 57.5 122.15 57.85 126.4 58.5 128.9 58.25 128.6 55.4 126.9 55.15 M60.65 -1.6 Q61.4 1.85 61.1 5.35 61.05 5.9 60.6 6.45 58.95 8.4 59.9 10.9 L61.3 14.35 Q62.05 16.35 63.25 18.0 64.1 19.15 63.9 20.5 63.0 25.45 58.8 28.55 M41.65 -1.6 L42.2 2.95 Q40.25 4.8 37.6 6.3 36.6 6.95 35.95 8.05 L33.7 11.75 31.65 15.4 Q30.85 17.05 31.2 19.05 31.6 21.65 33.55 23.8 L32.75 26.1 39.85 26.95 42.65 31.1 43.85 31.8 43.95 32.95 M16.9 -1.6 L18.75 5.25 Q16.1 11.35 15.25 18.1 15.15 19.0 15.65 19.7 L18.05 22.3 Q18.35 22.7 18.3 23.15 18.05 27.0 16.7 30.55 L19.4 30.65 21.85 30.45 26.7 29.85 Q30.3 28.8 32.75 26.1 M8.25 -1.6 Q7.35 4.6 1.15 8.1 -4.0 11.15 -5.4 16.05 -6.05 18.6 -5.05 21.0 -4.0 23.4 -3.85 26.05 -3.75 27.35 -3.15 28.65 L-1.5 31.5 Q0.75 34.6 -1.45 37.8 L-5.2 43.8 M16.5 245.95 Q12.15 244.3 7.65 244.65 5.7 244.6 4.2 243.7 L-6.25 237.4 -10.5 234.6 -12.3 233.4 Q-13.1 232.75 -14.1 232.6" fill="none" stroke="#002829" stroke-linecap="round" stroke-linejoin="round" stroke-width="1.0"/>
    <path d="M-14.1 55.05 L-14.8 55.0 Q-16.15 54.85 -16.2 55.9 M-14.1 55.05 L-12.55 54.95 -12.05 54.9 Q-9.35 54.65 -7.55 53.45 L-7.0 53.2 -5.65 52.65 Q-4.3 51.4 -2.5 50.2 L-1.9 50.0 2.05 48.95 Q3.15 48.55 4.4 48.45 L4.9 48.35 5.6 48.05 8.4 46.2 11.15 44.15 Q13.6 41.95 16.7 40.25 17.15 40.0 17.65 39.9 L18.2 39.65 Q18.5 39.15 19.45 39.25 L21.7 39.2 24.05 38.65 28.6 38.15 33.2 38.35 34.1 38.45 37.75 38.55 42.3 38.05 42.85 37.9 44.6 37.35 Q46.55 36.85 48.7 35.4 L49.25 35.1 51.05 34.3 Q52.6 33.55 55.15 33.9 L56.5 34.0 71.1 34.25 Q73.45 34.25 75.25 33.4 L77.15 32.7 77.85 32.4 Q81.1 30.85 85.7 30.05 L86.75 29.85 89.8 28.85 90.3 28.75 94.35 28.05 94.85 27.9 97.65 27.6 99.0 27.45 101.25 27.2 101.8 27.1 103.1 26.85 107.65 26.2 108.5 26.0 Q109.2 25.65 110.45 25.6 L112.25 25.4 112.8 25.2 Q113.1 24.7 114.05 24.8 L116.35 25.1 117.25 25.25 118.6 25.45 123.2 25.75 124.0 25.9 125.95 26.15 126.75 26.3 128.7 26.7 Q130.65 26.75 131.9 28.15 M244.8 34.6 Q251.45 36.6 257.9 38.9 L258.55 39.4 Q260.15 41.75 262.45 43.9 263.6 44.95 265.3 45.5 L270.35 47.1 271.25 47.3 275.85 47.9 278.6 48.2 283.15 48.5 285.4 48.7 Q289.8 48.95 293.7 50.15 301.55 52.6 310.6 52.65 L316.05 52.5 317.4 52.4 320.2 52.1 321.1 51.9 Q325.15 50.45 329.75 50.1 L330.65 49.75 333.35 47.75 334.5 46.3 335.15 44.65 335.45 43.5 Q335.85 42.45 336.65 42.2 338.85 41.6 341.25 41.45 L345.4 41.65 Q349.05 42.3 350.45 39.85 L350.7 39.35 Q352.2 37.5 354.0 36.6 M359.45 37.4 Q361.7 37.3 363.55 37.9 366.2 38.7 368.55 39.9 370.6 41.0 371.2 43.05 L372.3 46.65 372.95 48.3 373.35 49.4 373.45 49.9 Q374.1 51.65 375.1 53.05 377.05 55.75 380.85 57.65 L381.9 58.2 387.25 61.3 387.95 61.8 393.2 66.45 398.35 70.35 M369.55 68.75 Q370.9 67.95 372.4 67.4 373.55 69.55 375.6 68.1 376.5 67.45 377.7 67.7 L378.3 67.85 383.7 68.35 M358.1 74.4 Q359.7 73.35 362.2 73.7 L363.6 73.9 369.6 73.75 371.35 73.7 374.6 73.8 375.1 73.75 379.6 74.0 M340.7 53.5 Q341.9 52.3 344.85 52.7 L346.65 53.15 Q348.95 54.0 351.35 52.8 L352.15 52.65 356.75 52.9 362.2 53.05 M369.1 94.85 L370.45 93.65 Q371.7 92.65 372.0 94.0 L372.3 94.3 Q374.0 94.65 374.75 93.75 375.05 93.45 375.5 93.45 L376.0 93.55 380.95 94.05 M304.65 229.55 Q305.2 228.45 306.9 228.35 310.05 228.2 312.55 229.4 L315.6 230.7 323.8 233.65 327.6 234.95 328.85 235.15 331.65 235.35 336.15 235.8 339.35 236.1 340.7 236.2 Q345.05 236.4 349.4 236.2 L350.3 236.1 353.1 235.8 354.0 235.65 Q358.45 234.8 362.6 233.4 L364.55 232.7 367.65 231.45 369.6 230.9 374.65 230.15 376.85 229.9 Q381.25 229.75 383.75 232.3 384.55 233.15 385.5 233.6 L385.95 234.0 386.45 234.75 M346.7 249.65 Q348.1 248.25 350.4 247.35 351.3 247.0 351.4 247.6 L351.55 248.1 Q352.65 249.9 354.95 249.95 356.75 249.95 358.2 248.95 359.15 248.35 360.4 248.55 361.0 248.65 361.8 249.2 363.4 250.35 365.05 249.8 L370.0 249.4 370.85 249.7 374.1 251.65 M310.15 59.1 L325.65 59.1 327.4 59.25 328.0 59.45 Q329.7 60.55 332.55 60.6 L336.15 60.4 337.55 60.3 M182.2 36.05 L182.6 36.0 183.05 35.95 Q185.6 35.65 187.75 36.45 L188.6 36.65 192.65 37.4 197.3 38.05 199.2 38.45 200.0 38.6 204.6 38.8 Q205.7 39.0 206.75 38.8 L209.2 38.35 210.5 38.1 211.45 37.85 213.25 37.5 214.6 37.3 215.5 37.15 219.6 36.1 222.0 35.15 222.85 34.9 223.75 34.7 227.85 33.85 231.55 33.25 232.5 33.0 236.1 32.7 236.6 32.85 238.35 33.4 M196.3 49.85 L200.45 49.15 206.05 49.55 206.8 49.6 212.4 50.05 213.7 50.2 216.95 49.65 218.7 49.45 220.6 49.45 M228.3 44.25 Q229.9 43.6 232.45 43.8 L233.3 43.95 233.9 44.1 237.0 43.9 241.1 43.4 245.25 43.45 M132.85 28.55 Q133.75 29.15 135.55 29.15 L136.05 29.2 138.25 29.5 138.8 29.6 141.0 29.6 Q142.05 29.5 142.3 30.0 L142.85 30.3 Q144.65 31.0 146.45 31.85 L147.0 32.15 149.8 34.0 150.6 34.3 151.55 34.45 156.15 35.05 157.95 35.3 160.7 35.25 161.2 35.15 163.45 35.2 164.8 35.4 170.3 35.6 170.8 35.7 174.9 36.2 182.1 36.05 M182.2 36.05 L182.1 36.05 M157.5 44.25 L159.9 44.0 160.7 43.85 167.1 44.35 168.0 44.5 Q170.05 44.8 171.75 44.0 L172.55 43.85 176.3 44.5 177.15 44.65 182.15 44.65 M147.9 56.3 Q148.45 55.0 150.6 54.9 L151.45 55.15 152.05 55.35 Q153.75 55.6 154.55 54.9 154.75 54.7 155.2 54.6 L156.15 54.5 156.65 54.65 Q158.45 55.5 159.9 55.0 L160.7 55.0 162.95 55.5 M67.45 40.6 L75.2 39.65 75.75 39.5 78.95 38.8 79.4 38.9 Q82.55 39.9 85.35 38.4 L86.25 38.2 88.95 38.4 Q90.75 38.6 92.6 38.45 93.8 38.35 94.25 38.8 L94.85 39.0 M22.25 47.45 Q23.3 46.4 25.85 46.6 L27.25 46.75 28.15 46.9 Q30.35 47.25 31.95 46.4 L32.75 46.35 Q34.15 46.65 35.95 46.35 L37.25 46.1 37.75 46.05 43.7 45.85 M-8.4 63.15 Q-8.05 61.75 -6.15 61.4 -5.15 61.25 -4.9 61.75 L-4.35 62.0 -3.8 62.2 -2.6 62.1 Q-2.45 61.9 -2.05 61.8 L-1.5 61.65 2.1 61.85 3.75 61.7 4.4 61.5 11.25 61.1 M35.45 252.45 Q36.9 253.2 38.65 253.6 L43.25 254.05 48.7 253.9 50.1 253.6 Q51.45 253.05 52.85 252.65 L54.25 252.35 58.85 251.4 63.3 251.0 64.75 251.1 68.85 251.1 73.0 251.5 74.3 251.7 78.0 252.15 86.25 253.35 89.85 253.45 95.75 253.95 102.65 254.4 110.95 253.4 120.55 251.4 125.0 249.95 Q128.5 248.45 130.15 246.55 130.95 245.65 131.85 245.1 L135.05 242.75 Q136.3 241.7 137.75 240.75 L138.3 240.4 Q141.05 237.65 145.6 236.3 L149.7 235.15 Q152.5 234.3 155.65 234.2 156.55 234.15 157.2 234.55 L157.95 234.8 Q159.25 234.9 160.7 235.55 M58.8 262.9 Q59.95 261.7 61.55 262.35 63.6 263.2 66.1 263.35 L68.9 263.05 69.75 262.95 72.0 263.25 Q74.85 263.6 77.15 262.65 78.95 261.9 81.15 262.2 L82.55 262.45 89.85 263.0 Q92.8 262.9 95.75 263.1 L96.3 263.2 97.15 263.3 M139.65 259.3 Q140.0 257.8 142.0 257.3 L143.5 257.5 144.2 257.85 145.65 258.35 147.0 258.6 148.35 258.75 152.45 258.75 153.4 258.8 Q157.85 259.65 162.1 258.65 162.7 258.5 163.35 258.65 L163.9 258.85 Q165.05 259.55 166.65 259.35 L173.0 258.9 177.6 259.05 Q178.8 259.15 179.9 259.7 M-9.75 240.4 Q-6.0 242.95 -1.9 244.7 1.45 246.2 5.3 246.35 L10.35 246.25 M164.35 241.2 L166.2 241.45 175.85 240.9 177.15 240.75 179.9 240.55 Q182.35 240.35 184.45 239.6 L188.65 238.15 196.8 235.3 Q198.85 234.55 200.95 234.15 L202.75 233.9 206.9 233.3 209.15 232.75 217.8 231.85 226.0 232.5 230.2 233.45 231.1 233.65 239.25 234.7 243.9 235.1 245.75 235.35 247.5 235.55 253.05 235.8 258.05 235.8 259.4 235.7 Q267.95 235.0 275.8 232.55 L277.7 232.0 281.25 230.7 Q288.45 227.0 297.35 226.95 L298.25 227.15 299.2 227.55 M286.85 242.0 Q287.85 240.05 291.4 240.2 L292.75 240.45 293.65 240.75 295.5 241.0 296.4 240.95 300.5 241.3 303.25 241.5 304.2 241.3 312.4 241.6 M232.0 248.45 L234.9 246.2 235.6 246.1 Q236.95 246.5 238.0 247.6 239.0 248.6 240.6 248.3 L241.15 248.1 Q242.55 247.25 244.4 247.0 L246.2 246.7 247.05 246.8 Q250.0 247.6 253.05 246.8 L253.95 246.45 Q256.7 245.1 259.0 246.75 262.45 249.35 266.7 247.65 M176.7 267.75 L178.0 266.5 Q178.3 266.15 178.7 265.9 L179.45 265.7 Q181.95 265.8 184.1 266.8 L184.85 266.85 187.25 266.35 189.5 266.3 190.4 266.35 197.75 267.05 198.65 267.2 202.3 267.05 205.9 266.15 M203.2 256.05 Q203.55 254.4 205.4 253.55 L205.95 253.4 Q207.15 253.15 207.7 253.7 L208.75 254.8 Q209.85 256.2 211.55 255.4 L212.3 255.15 215.1 254.25 216.45 253.95 Q218.0 253.7 218.55 254.7 L219.15 255.3 219.65 255.65 Q220.4 256.45 221.5 256.35 L222.45 256.2 224.25 255.75 225.1 255.55 229.35 255.85 230.65 256.05 237.0 255.8 238.9 255.85 240.65 256.05 247.5 255.65" fill="none" stroke="#99cce3" stroke-linecap="round" stroke-linejoin="round" stroke-opacity="0.17254902" stroke-width="1.0"/>
    <path d="M344.4 110.15 L347.6 110.2 Q348.15 110.25 348.5 110.95 M364.55 146.35 L366.85 146.7 M191.3 85.25 L194.95 85.25 M215.5 130.65 L218.7 130.65 M240.2 162.8 L243.9 162.6 M334.35 119.8 Q334.45 120.7 335.45 120.0 L336.15 119.8 M304.65 143.5 L307.35 143.65 M272.2 104.55 L274.45 104.55 M300.1 181.3 L303.25 181.7 M105.85 85.25 L110.0 84.85 M54.25 97.7 L58.8 97.35 M17.65 121.8 L20.85 121.95 21.8 122.2 M-2.0 100.5 L-1.05 100.5 1.2 100.5 M7.1 181.3 L10.4 181.1 M58.8 158.4 Q59.35 157.7 61.05 157.95 M125.5 139.1 L128.15 139.35 128.7 139.1 M149.25 159.6 L152.45 159.6 M116.8 214.3 L118.3 214.0 Q119.2 213.6 119.05 214.3 M78.0 207.05 L79.35 207.2 Q81.05 207.35 81.6 206.65 M18.1 211.85 L21.3 211.7 21.85 211.55 22.7 211.45 M256.2 209.45 L257.55 209.6 259.1 209.25 259.85 209.05 M190.4 198.2 L194.05 198.2" fill="none" stroke="#475769" stroke-linecap="round" stroke-linejoin="round" stroke-width="1.0"/>
    <path d="M347.6 110.2 Q348.6 107.55 350.15 109.15 L350.7 109.45 351.25 109.75 M365.9 145.5 Q367.05 143.25 369.1 145.5 L369.55 145.9 M252.55 62.3 Q253.35 61.15 254.45 60.95 255.4 62.05 256.2 62.3 M326.1 77.2 Q326.65 76.25 327.65 75.85 L328.4 75.8 Q329.65 75.85 329.75 76.75 M193.6 84.4 Q194.45 82.95 196.7 83.35 197.05 83.4 197.3 83.6 L197.75 84.0 M217.35 129.45 L220.7 129.35 M192.65 197.4 Q193.15 195.95 194.9 197.0 L195.25 197.45 Q195.35 198.05 196.3 197.8 M241.6 161.2 Q241.7 160.5 242.45 160.3 L242.95 160.2 243.5 160.35 Q244.05 160.6 244.8 161.2 M335.25 119.0 L336.05 118.15 Q337.4 117.9 337.7 118.95 M307.35 142.3 Q306.8 143.25 307.75 141.85 308.55 140.7 309.05 141.3 L309.65 141.6 310.1 141.95 310.6 142.7 M274.0 103.3 Q274.75 101.65 276.25 102.55 L276.85 102.8 277.7 102.9 M301.9 180.5 Q302.35 179.1 304.55 179.45 L305.15 179.6 306.0 179.7 M76.6 56.65 Q77.35 55.3 78.95 56.15 M108.6 84.0 Q109.15 82.6 110.9 83.55 L111.8 84.0 M0.75 99.3 Q1.0 98.5 1.55 98.0 2.55 98.1 3.25 98.7 M56.95 96.45 Q57.35 95.5 58.2 94.75 59.3 95.85 61.05 95.65 M19.95 121.0 Q20.25 119.35 22.25 119.55 L22.65 119.85 Q23.05 120.5 24.5 120.2 M60.15 156.75 Q61.5 155.45 62.75 156.85 M127.75 138.3 L129.7 136.35 Q131.1 137.05 131.9 137.5 M151.55 158.4 Q152.5 156.25 154.4 157.9 L155.2 158.4 M118.15 213.05 L119.45 211.8 Q120.65 211.95 121.5 212.95 M79.35 206.2 L80.6 204.5 82.15 204.9 M21.3 211.05 Q22.35 209.8 23.3 209.3 24.05 209.85 24.95 209.85 M258.05 208.65 Q258.65 207.6 259.9 207.3 L260.35 207.35 262.1 207.85" fill="none" stroke="#85adad" stroke-linecap="round" stroke-linejoin="round" stroke-width="1.0"/>
  </g>
  <defs>
    <radialGradient cx="0" cy="0" gradientTransform="matrix(0.0046, 0.2296, -0.5202, 0.008, 191.55, 147.0)" gradientUnits="userSpaceOnUse" id="gradient0" r="819.2" spreadMethod="pad">
      <stop offset="0.0" stop-color="#73858c"/>
      <stop offset="0.36470588235294116" stop-color="#546369"/>
      <stop offset="0.7490196078431373" stop-color="#263a4a"/>
      <stop offset="1.0" stop-color="#19263d"/>
    </radialGradient>
    <radialGradient cx="0" cy="0" gradientTransform="matrix(0.1412, 0.0, 0.0, 0.1242, 97.5, 25.0)" gradientUnits="userSpaceOnUse" id="gradient1" r="819.2" spreadMethod="pad">
      <stop offset="0.0" stop-color="#73858c"/>
      <stop offset="0.36470588235294116" stop-color="#023839"/>
      <stop offset="1.0" stop-color="#022827"/>
    </radialGradient>
    <radialGradient cx="0" cy="0" gradientTransform="matrix(0.1362, 0.0, 0.0, 0.1198, 303.0, 33.2)" gradientUnits="userSpaceOnUse" id="gradient2" r="819.2" spreadMethod="pad">
      <stop offset="0.0" stop-color="#73858c"/>
      <stop offset="0.36470588235294116" stop-color="#023839"/>
      <stop offset="1.0" stop-color="#022827"/>
    </radialGradient>
    <radialGradient cx="0" cy="0" gradientTransform="matrix(0.2879, 0.0, 0.0, 0.2044, 194.5, 133.85)" gradientUnits="userSpaceOnUse" id="gradient3" r="819.2" spreadMethod="pad">
      <stop offset="0.0" stop-color="#467797"/>
      <stop offset="0.36470588235294116" stop-color="#204468"/>
      <stop offset="0.7490196078431373" stop-color="#263a4a"/>
      <stop offset="1.0" stop-color="#19263d"/>
    </radialGradient>
    <radialGradient cx="0" cy="0" gradientTransform="matrix(0.0046, 0.2296, -0.5202, 0.008, 191.55, 147.0)" gradientUnits="userSpaceOnUse" id="gradient4" r="819.2" spreadMethod="pad">
      <stop offset="0.0" stop-color="#73858c"/>
      <stop offset="0.36470588235294116" stop-color="#546369"/>
      <stop offset="0.7490196078431373" stop-color="#263a4a"/>
      <stop offset="1.0" stop-color="#19263d"/>
    </radialGradient>
    <radialGradient cx="0" cy="0" gradientTransform="matrix(0.2879, 0.0, 0.0, 0.2044, 194.5, 133.85)" gradientUnits="userSpaceOnUse" id="gradient5" r="819.2" spreadMethod="pad">
      <stop offset="0.0" stop-color="#467797" stop-opacity="0.8"/>
      <stop offset="0.36470588235294116" stop-color="#204468" stop-opacity="0.8"/>
      <stop offset="0.7490196078431373" stop-color="#263a4a" stop-opacity="0.88235295"/>
      <stop offset="1.0" stop-color="#19263d" stop-opacity="0.9529412"/>
    </radialGradient>
  </defs>
</svg>
