<?xml version="1.0" encoding="UTF-8" standalone="no"?>
<svg xmlns:xlink="http://www.w3.org/1999/xlink" height="274.9px" width="424.05px" xmlns="http://www.w3.org/2000/svg">
  <g transform="matrix(1.0, 0.0, 0.0, 1.0, 16.25, 2.1)">
    <path d="M-16.25 64.3 L-16.25 36.9 Q-6.15 28.3 7.05 24.3 34.45 15.85 63.05 13.4 92.5 10.55 122.0 12.3 149.8 14.3 177.9 13.8 L230.65 12.0 284.2 10.15 Q311.0 10.25 337.1 15.55 346.55 17.5 355.9 19.8 382.55 25.6 396.75 45.9 400.6 51.4 403.1 57.35 411.95 68.65 404.15 79.7 L403.1 80.9 Q377.45 71.15 355.05 56.6 347.55 51.7 338.95 53.15 293.8 60.85 249.75 45.65 233.8 40.05 218.55 46.75 213.8 48.75 208.6 48.75 181.55 50.65 154.65 46.15 136.05 26.85 106.7 34.25 94.45 37.4 81.65 36.65 56.3 34.8 34.05 44.35 8.75 55.05 -16.25 64.3 M403.1 227.55 Q408.7 238.3 404.1 249.35 L403.1 251.6 349.4 242.6 Q321.75 238.3 293.8 237.95 275.0 237.75 256.4 238.45 248.7 239.25 240.9 238.55 213.0 235.2 184.85 237.65 L169.2 239.4 166.8 237.55 Q159.45 238.6 152.3 236.75 143.8 234.7 137.2 229.75 L121.0 217.5 Q115.75 213.4 110.3 209.7 108.55 208.45 107.05 206.5 92.85 188.45 115.6 174.8 123.95 169.7 123.55 160.65 L123.25 160.35 122.7 160.05 121.6 159.5 120.8 159.05 120.35 158.65 120.1 158.05 119.85 156.8 Q119.7 156.1 119.8 155.4 L120.05 154.05 120.55 152.65 Q117.8 151.45 117.75 148.6 117.6 143.65 121.85 140.7 128.9 135.85 137.0 132.6 141.45 130.75 140.6 127.1 138.15 116.15 136.05 105.1 135.35 101.5 139.5 99.5 164.95 86.95 186.45 70.25 191.65 66.15 195.15 71.75 199.1 78.2 192.25 85.3 171.65 106.55 165.5 133.8 164.0 140.5 160.25 146.4 145.55 169.65 144.6 195.4 144.5 197.95 146.0 200.55 152.5 211.5 162.25 220.4 193.3 218.3 224.25 213.8 257.8 209.2 291.7 210.35 325.4 211.35 358.95 214.6 379.5 216.45 398.2 223.2 401.6 224.45 403.1 227.55 M273.8 16.85 L223.5 18.75 210.35 19.8 319.85 19.8 Q297.05 16.35 273.8 16.85 M185.0 19.25 L157.45 19.75 195.25 19.8 185.0 19.25 M92.55 19.2 Q74.05 19.2 55.5 19.8 L122.65 19.8 Q107.6 19.2 92.55 19.2" fill="#001622" fill-rule="evenodd" stroke="none"/>
    <path d="M355.9 19.8 L403.1 19.8 403.1 57.35 Q400.6 51.4 396.75 45.9 382.55 25.6 355.9 19.8 M403.1 80.9 L403.1 227.55 Q401.6 224.45 398.2 223.2 379.5 216.45 358.95 214.6 325.4 211.35 291.7 210.35 257.8 209.2 224.25 213.8 193.3 218.3 162.25 220.4 152.5 211.5 146.0 200.55 144.5 197.95 144.6 195.4 145.55 169.65 160.25 146.4 164.0 140.5 165.5 133.8 171.65 106.55 192.25 85.3 199.1 78.2 195.15 71.75 191.65 66.15 186.45 70.25 164.95 86.95 139.5 99.5 135.35 101.5 136.05 105.1 138.15 116.15 140.6 127.1 141.45 130.75 137.0 132.6 128.9 135.85 121.85 140.7 117.6 143.65 117.75 148.6 117.8 151.45 120.55 152.65 L120.05 154.05 119.8 155.4 Q119.7 156.1 119.85 156.8 L120.1 158.05 120.35 158.65 120.8 159.05 121.6 159.5 122.7 160.05 123.25 160.35 123.55 160.65 Q123.95 169.7 115.6 174.8 92.85 188.45 107.05 206.5 108.55 208.45 110.3 209.7 115.75 213.4 121.0 217.5 L137.2 229.75 Q143.8 234.7 152.3 236.75 159.45 238.6 166.8 237.55 L169.2 239.4 184.85 237.65 Q213.0 235.2 240.9 238.55 248.7 239.25 256.4 238.45 275.0 237.75 293.8 237.95 321.75 238.3 349.4 242.6 L403.1 251.6 403.1 272.8 -16.25 272.8 -16.25 64.3 Q8.75 55.05 34.05 44.35 56.3 34.8 81.65 36.65 94.45 37.4 106.7 34.25 136.05 26.85 154.65 46.15 181.55 50.65 208.6 48.75 213.8 48.75 218.55 46.75 233.8 40.05 249.75 45.65 293.8 60.85 338.95 53.15 347.55 51.7 355.05 56.6 377.45 71.15 403.1 80.9" fill="url(#gradient0)" fill-rule="evenodd" stroke="none"/>
    <path d="M-13.5 51.65 L-13.5 -1.6 8.75 -1.6 17.35 -1.6 19.25 5.25 Q16.6 11.35 15.7 18.1 15.6 19.0 16.1 19.7 L18.5 22.3 Q18.85 22.7 18.8 23.15 18.5 27.0 17.2 30.55 L19.85 30.65 22.3 30.45 27.15 29.85 Q30.75 28.8 33.2 26.1 L33.95 23.8 Q32.05 21.65 31.65 19.05 31.3 17.05 32.1 15.4 L34.15 11.75 36.35 8.05 Q37.05 6.95 38.0 6.3 40.65 4.8 42.6 2.95 L42.1 -1.6 61.0 -1.6 68.25 -1.6 85.1 -1.6 111.55 -1.6 141.15 -1.6 157.6 -1.6 Q156.95 -0.4 157.3 0.95 157.9 3.7 160.15 5.8 L163.55 8.85 Q167.15 11.9 167.45 16.6 167.55 18.05 167.15 19.55 L165.9 23.85 Q165.7 24.55 165.95 25.25 L166.8 27.85 Q167.25 29.35 168.85 29.35 171.35 29.4 173.5 27.7 L173.65 26.85 Q173.85 23.95 175.0 21.3 176.75 17.1 176.3 12.45 175.95 8.8 175.85 5.15 175.75 4.25 176.2 3.55 177.8 1.05 178.5 -1.6 L209.0 -1.6 Q206.15 1.05 205.35 4.75 205.2 5.55 204.65 6.2 L200.7 10.3 Q199.05 11.8 198.8 13.7 198.55 15.45 198.95 17.25 L199.35 19.95 Q199.55 22.6 199.25 25.3 199.1 26.45 199.7 27.65 201.25 30.8 203.15 33.7 L188.05 32.75 181.7 31.95 166.7 31.85 157.85 32.45 Q152.35 32.45 148.1 29.6 L147.3 28.9 Q146.15 27.2 143.65 27.05 L137.95 27.5 Q136.45 27.25 136.4 25.95 131.95 24.25 127.05 23.9 L113.2 23.15 Q104.55 22.8 96.15 24.9 L68.95 30.95 66.45 31.15 55.05 29.85 53.3 29.7 51.6 29.7 51.3 31.1 Q49.35 32.35 46.65 33.45 L43.85 34.2 40.45 34.65 29.25 35.5 23.6 36.0 Q18.5 36.05 15.0 39.4 12.8 41.45 10.05 42.9 8.0 44.0 5.7 44.7 2.4 45.7 0.4 48.25 -0.45 49.35 -1.95 49.7 L-10.15 51.15 -13.5 51.65 M85.1 -1.6 L84.6 -0.5 86.9 5.4 Q88.2 8.65 88.25 12.05 88.3 14.85 90.25 16.8 L93.95 17.4 95.65 20.05 Q96.9 19.4 98.35 19.75 102.05 20.7 103.9 17.75 105.1 17.75 105.95 19.15 106.75 20.55 106.75 22.5 106.75 20.55 105.95 19.15 105.1 17.75 103.9 17.75 102.05 20.7 98.35 19.75 96.9 19.4 95.65 20.05 L93.95 17.4 90.25 16.8 Q88.3 14.85 88.25 12.05 88.2 8.65 86.9 5.4 L84.6 -0.5 85.1 -1.6 M180.35 0.4 L184.65 7.55 188.6 14.65 189.45 16.75 189.65 18.5 Q189.75 22.1 189.15 25.7 189.05 26.4 188.35 26.9 187.0 27.85 185.9 29.35 184.8 30.95 185.85 31.35 184.8 30.95 185.9 29.35 187.0 27.85 188.35 26.9 189.05 26.4 189.15 25.7 189.75 22.1 189.65 18.5 L189.45 16.75 188.6 14.65 184.65 7.55 180.35 0.4 M122.5 -0.4 Q122.55 5.55 127.2 9.85 128.35 10.9 129.7 11.7 132.15 13.05 133.8 15.05 L133.9 15.25 Q134.7 15.2 135.3 14.7 137.45 13.0 138.65 10.7 139.35 9.4 139.45 7.95 139.55 6.3 140.1 4.7 141.3 1.6 141.15 -1.6 141.3 1.6 140.1 4.7 139.55 6.3 139.45 7.95 139.35 9.4 138.65 10.7 137.45 13.0 135.3 14.7 134.7 15.2 133.9 15.25 134.3 16.2 134.35 17.25 L134.25 19.4 Q133.65 22.6 135.7 24.9 133.65 22.6 134.25 19.4 L134.35 17.25 Q134.3 16.2 133.9 15.25 L133.8 15.05 Q132.15 13.05 129.7 11.7 128.35 10.9 127.2 9.85 122.55 5.55 122.5 -0.4 M73.7 29.35 Q74.7 28.9 74.05 27.95 71.25 24.0 71.7 19.3 72.0 16.6 71.45 13.85 70.9 11.15 68.75 9.05 67.8 8.2 67.4 7.15 65.65 2.5 68.25 -1.6 65.65 2.5 67.4 7.15 67.8 8.2 68.75 9.05 70.9 11.15 71.45 13.85 72.0 16.6 71.7 19.3 71.25 24.0 74.05 27.95 74.7 28.9 73.7 29.35 M103.9 17.75 L106.4 11.6 Q107.65 8.4 106.85 5.1 106.65 4.3 106.8 3.5 106.9 2.85 107.5 2.5 109.9 0.8 111.55 -1.6 109.9 0.8 107.5 2.5 106.9 2.85 106.8 3.5 106.65 4.3 106.85 5.1 107.65 8.4 106.4 11.6 L103.9 17.75 M59.15 28.55 Q63.35 25.45 64.25 20.5 64.45 19.15 63.6 18.0 62.4 16.35 61.65 14.35 L60.25 10.9 Q59.3 8.4 60.95 6.45 61.4 5.9 61.45 5.35 61.75 1.85 61.0 -1.6 61.75 1.85 61.45 5.35 61.4 5.9 60.95 6.45 59.3 8.4 60.25 10.9 L61.65 14.35 Q62.4 16.35 63.6 18.0 64.45 19.15 64.25 20.5 63.35 25.45 59.15 28.55 M44.35 32.95 L44.25 31.8 43.05 31.1 40.25 26.95 33.2 26.1 40.25 26.95 43.05 31.1 44.25 31.8 44.35 32.95 M-4.7 43.8 L-0.95 37.8 Q1.25 34.6 -1.0 31.5 L-2.65 28.65 -3.3 26.05 Q-3.5 23.4 -4.5 21.0 -5.55 18.6 -4.85 16.05 -3.5 11.15 1.65 8.1 7.85 4.6 8.75 -1.6 7.85 4.6 1.65 8.1 -3.5 11.15 -4.85 16.05 -5.55 18.6 -4.5 21.0 -3.5 23.4 -3.3 26.05 L-2.65 28.65 -1.0 31.5 Q1.25 34.6 -0.95 37.8 L-4.7 43.8" fill="url(#gradient1)" fill-rule="evenodd" stroke="none"/>
    <path d="M17.35 -1.6 L42.1 -1.6 42.6 2.95 Q40.65 4.8 38.0 6.3 37.05 6.95 36.35 8.05 L34.15 11.75 32.1 15.4 Q31.3 17.05 31.65 19.05 32.05 21.65 33.95 23.8 L33.2 26.1 Q30.75 28.8 27.15 29.85 L22.3 30.45 19.85 30.65 17.2 30.55 Q18.5 27.0 18.8 23.15 18.85 22.7 18.5 22.3 L16.1 19.7 Q15.6 19.0 15.7 18.1 16.6 11.35 19.25 5.25 L17.35 -1.6 M157.6 -1.6 L178.5 -1.6 Q177.8 1.05 176.2 3.55 175.75 4.25 175.85 5.15 175.95 8.8 176.3 12.45 176.75 17.1 175.0 21.3 173.85 23.95 173.65 26.85 L173.5 27.7 Q171.35 29.4 168.85 29.35 167.25 29.35 166.8 27.85 L165.95 25.25 Q165.7 24.55 165.9 23.85 L167.15 19.55 Q167.55 18.05 167.45 16.6 167.15 11.9 163.55 8.85 L160.15 5.8 Q157.9 3.7 157.3 0.95 156.95 -0.4 157.6 -1.6" fill="#022827" fill-rule="evenodd" stroke="none"/>
    <path d="M209.0 -1.6 L241.75 -1.6 273.5 -1.6 286.1 -1.6 322.05 -1.6 340.65 -1.6 376.8 -1.6 406.65 -1.6 406.65 67.95 Q406.15 65.15 404.4 63.2 402.8 61.5 400.05 61.35 396.45 61.0 393.1 59.55 389.95 58.2 387.05 56.35 383.15 54.05 381.25 50.35 379.85 47.5 379.35 44.35 L378.6 42.6 376.45 39.35 378.1 36.6 Q375.45 35.0 372.15 34.3 L367.2 33.65 357.6 32.25 354.25 31.9 Q350.05 31.95 346.25 33.1 344.7 33.5 344.25 35.0 L343.85 36.3 343.65 36.8 Q339.35 38.0 334.8 37.6 L330.15 38.1 328.4 42.3 320.65 45.95 319.0 46.65 Q313.2 48.05 307.35 46.7 L302.6 45.85 294.95 45.7 Q290.95 45.7 287.4 44.75 280.85 43.25 274.25 42.7 272.95 42.35 271.9 41.55 269.25 39.4 266.05 38.2 265.3 37.95 264.95 37.3 L264.4 35.8 266.65 33.95 Q267.2 31.8 264.7 31.35 257.65 30.1 250.25 30.25 L241.4 29.6 Q235.6 28.4 229.65 28.1 227.25 28.15 224.95 29.2 L222.6 30.05 218.35 30.75 217.25 31.05 215.0 30.55 214.3 32.75 203.15 33.7 Q201.25 30.8 199.7 27.65 199.1 26.45 199.25 25.3 199.55 22.6 199.35 19.95 L198.95 17.25 Q198.55 15.45 198.8 13.7 199.05 11.8 200.7 10.3 L204.65 6.2 Q205.2 5.55 205.35 4.75 206.15 1.05 209.0 -1.6 M357.2 -0.4 Q357.0 1.4 356.95 3.2 356.95 4.8 357.35 6.4 357.75 7.85 358.75 9.1 363.3 14.4 364.3 20.95 L364.1 21.2 Q361.0 23.3 359.45 26.5 361.0 23.3 364.1 21.2 L364.3 20.95 Q363.3 14.4 358.75 9.1 357.75 7.85 357.35 6.4 356.95 4.8 356.95 3.2 357.0 1.4 357.2 -0.4 M379.05 10.45 L379.9 10.65 379.8 10.9 Q380.7 14.35 380.95 18.0 381.2 21.95 378.0 24.7 377.25 25.35 376.35 25.55 373.1 26.3 373.1 28.95 373.1 26.3 376.35 25.55 377.25 25.35 378.0 24.7 381.2 21.95 380.95 18.0 380.7 14.35 379.8 10.9 L379.9 10.65 379.05 10.45 M379.75 31.7 Q381.8 30.65 382.45 28.8 383.7 25.55 386.05 22.75 L386.25 22.1 Q386.45 19.1 384.5 16.5 381.25 11.95 377.7 7.65 376.85 6.65 376.5 5.45 376.1 4.2 376.6 3.05 377.6 0.8 376.8 -1.6 377.6 0.8 376.6 3.05 376.1 4.2 376.5 5.45 376.85 6.65 377.7 7.65 381.25 11.95 384.5 16.5 386.45 19.1 386.25 22.1 L386.05 22.75 Q383.7 25.55 382.45 28.8 381.8 30.65 379.75 31.7 M388.65 51.45 Q388.7 48.6 387.75 45.75 386.3 41.7 389.65 38.7 L393.15 35.05 397.75 29.3 Q398.7 28.05 398.8 26.3 399.0 21.85 397.2 17.6 394.4 11.0 395.5 4.0 394.4 11.0 397.2 17.6 399.0 21.85 398.8 26.3 398.7 28.05 397.75 29.3 L393.15 35.05 389.65 38.7 Q386.3 41.7 387.75 45.75 388.7 48.6 388.65 51.45 M254.2 -0.8 L257.95 2.3 Q264.45 7.15 264.7 14.85 264.75 16.3 264.0 17.55 L262.4 19.35 Q258.9 22.7 261.9 26.5 258.9 22.7 262.4 19.35 L264.0 17.55 Q264.75 16.3 264.7 14.85 264.45 7.15 257.95 2.3 L254.2 -0.8 M267.4 31.75 L268.45 30.35 Q271.45 25.45 271.7 19.7 271.8 18.65 271.45 17.75 269.1 11.95 272.3 6.75 L273.4 4.6 Q274.8 1.55 273.5 -1.6 274.8 1.55 273.4 4.6 L272.3 6.75 Q269.1 11.95 271.45 17.75 271.8 18.65 271.7 19.7 271.45 25.45 268.45 30.35 L267.4 31.75 M279.7 39.0 Q278.0 38.2 278.2 36.45 278.25 35.6 278.7 34.9 281.0 31.15 283.75 27.4 286.1 24.1 285.0 20.4 283.75 16.5 285.05 12.4 287.3 5.45 286.1 -1.6 287.3 5.45 285.05 12.4 283.75 16.5 285.0 20.4 286.1 24.1 283.75 27.4 281.0 31.15 278.7 34.9 278.25 35.6 278.2 36.45 278.0 38.2 279.7 39.0 M309.1 15.6 Q308.35 18.65 308.45 21.6 308.65 25.85 311.15 29.35 313.65 32.85 311.6 36.55 313.65 32.85 311.15 29.35 308.65 25.85 308.45 21.6 308.35 18.65 309.1 15.6 M296.6 0.4 L299.55 9.3 Q300.1 11.1 299.4 12.8 298.55 14.9 297.3 16.75 296.3 18.25 296.7 19.85 L296.95 21.3 Q297.6 26.85 299.75 31.75 297.6 26.85 296.95 21.3 L296.7 19.85 Q296.3 18.25 297.3 16.75 298.55 14.9 299.4 12.8 300.1 11.1 299.55 9.3 L296.6 0.4 M330.3 35.75 Q328.95 35.6 328.4 34.65 L325.9 30.5 Q322.1 24.6 322.65 18.05 L323.0 13.65 Q323.05 12.4 322.1 11.65 319.8 9.7 318.25 7.55 317.75 6.75 317.85 5.9 318.35 1.65 322.05 -1.6 318.35 1.65 317.85 5.9 317.75 6.75 318.25 7.55 319.8 9.7 322.1 11.65 323.05 12.4 323.0 13.65 L322.65 18.05 Q322.1 24.6 325.9 30.5 L328.4 34.65 Q328.95 35.6 330.3 35.75 M340.8 29.75 Q340.4 25.5 337.9 21.7 L336.05 19.4 Q332.3 15.85 334.55 11.6 L336.25 8.85 Q339.85 3.95 340.65 -1.6 339.85 3.95 336.25 8.85 L334.55 11.6 Q332.3 15.85 336.05 19.4 L337.9 21.7 Q340.4 25.5 340.8 29.75 M212.7 0.8 Q215.5 2.7 217.5 6.45 219.45 10.2 220.0 13.9 220.5 17.6 220.85 18.7 L222.0 23.0 220.95 23.7 222.0 23.0 220.85 18.7 Q220.5 17.6 220.0 13.9 219.45 10.2 217.5 6.45 215.5 2.7 212.7 0.8 M232.15 14.45 Q231.95 11.05 233.65 8.2 234.25 7.2 235.15 6.45 L237.65 4.25 Q240.1 1.65 241.75 -1.6 240.1 1.65 237.65 4.25 L235.15 6.45 Q234.25 7.2 233.65 8.2 231.95 11.05 232.15 14.45" fill="url(#gradient2)" fill-rule="evenodd" stroke="none"/>
    <path d="M-8.95 270.95 L-13.5 270.95 -13.5 232.6 Q-12.55 232.75 -11.75 233.4 L-9.95 234.6 -5.7 237.4 4.75 243.7 Q6.2 244.6 8.15 244.65 12.65 244.3 16.95 245.95 13.35 250.45 11.75 255.9 11.35 257.25 10.55 258.45 9.25 260.45 8.25 262.55 7.4 264.2 5.35 264.3 L1.55 262.3 Q1.2 261.25 -0.1 260.9 L-1.45 260.5 -4.7 258.9 -8.95 270.95" fill="url(#gradient3)" fill-rule="evenodd" stroke="none"/>
    <path d="M406.65 108.55 L406.65 233.55 Q402.5 235.3 398.0 235.95 393.05 235.6 389.55 232.7 L387.95 231.5 382.1 226.85 Q379.85 224.95 376.8 224.65 372.2 224.3 368.35 226.45 361.05 230.55 352.55 231.2 L338.4 230.55 334.9 230.1 Q327.0 229.15 319.45 226.6 311.75 224.05 303.45 222.25 L298.85 221.25 Q292.75 222.1 286.75 223.8 L285.6 227.35 285.25 227.4 285.15 227.35 285.05 227.1 Q280.1 228.8 274.9 229.5 270.95 229.95 266.95 229.65 L252.85 229.0 248.35 228.55 Q245.1 227.9 241.35 228.45 L236.4 228.1 224.7 227.4 219.6 226.4 Q213.3 225.0 207.2 226.6 L206.05 226.95 196.7 222.9 196.25 222.55 179.55 223.95 Q177.0 224.0 175.35 222.2 172.65 219.15 168.1 219.9 161.3 221.15 154.55 218.6 L154.5 218.5 154.55 218.6 154.5 218.55 154.5 218.5 Q153.15 211.2 145.95 207.1 L144.3 205.85 Q138.15 200.05 134.0 193.0 133.05 191.35 132.6 189.55 L132.0 189.1 Q132.1 183.05 130.0 177.3 129.55 176.0 129.85 174.7 130.5 172.2 131.4 169.8 134.7 160.95 141.95 154.35 L145.95 150.5 Q148.95 147.55 150.85 144.1 L151.15 143.05 Q151.9 129.8 145.6 117.7 143.75 114.15 142.65 110.35 141.75 107.15 142.0 103.75 142.05 102.4 143.3 101.55 150.45 96.8 158.2 92.85 161.5 91.1 165.1 89.8 L170.95 87.65 173.35 86.15 176.85 82.95 Q181.6 78.65 185.25 73.65 190.75 70.55 197.25 69.55 202.85 68.65 207.15 65.3 209.5 63.5 212.6 63.35 L216.9 62.95 221.75 63.3 230.5 63.45 Q237.5 63.6 239.75 58.25 240.15 57.35 240.8 56.65 244.05 52.85 249.55 53.2 L250.2 52.7 250.9 52.7 250.8 52.85 Q249.8 55.0 249.3 57.3 248.8 61.9 244.9 64.15 L243.7 64.95 244.1 65.4 Q245.75 66.2 247.45 68.1 248.25 69.05 249.75 69.4 L254.1 69.6 Q256.45 69.35 257.0 67.4 L258.7 66.55 259.2 66.75 Q263.2 68.7 266.55 66.2 L264.75 61.35 265.05 58.9 Q264.5 56.85 263.6 55.0 265.55 55.75 267.35 56.8 273.5 60.35 280.55 61.05 L295.65 61.85 Q313.7 63.9 331.7 63.8 335.15 64.45 337.9 66.05 339.05 66.7 339.0 67.85 338.65 71.9 341.75 74.95 346.05 76.75 350.25 77.75 L355.25 79.2 356.4 79.3 Q357.8 79.6 359.35 80.35 L365.15 83.6 Q366.15 86.1 365.0 88.5 364.1 90.45 363.6 92.5 363.4 93.35 363.95 94.1 366.2 97.0 369.75 99.1 371.3 100.05 373.05 100.5 L375.85 101.2 381.8 101.9 Q390.1 101.3 397.0 105.5 L399.8 107.4 Q402.9 109.7 406.65 108.55 M350.8 109.75 L350.25 109.45 349.7 109.15 Q348.15 107.55 347.15 110.2 348.15 107.55 349.7 109.15 L350.25 109.45 350.8 109.75 M348.05 110.95 Q347.7 110.25 347.15 110.2 L344.0 110.15 347.15 110.2 Q347.7 110.25 348.05 110.95 M369.05 145.9 L368.55 145.5 Q366.55 143.25 365.4 145.5 366.55 143.25 368.55 145.5 L369.05 145.9 M366.35 146.7 Q365.3 146.25 364.05 146.35 365.3 146.25 366.35 146.7 M269.85 62.2 L267.25 65.75 Q268.65 67.65 273.75 65.4 L272.45 62.5 270.55 62.6 269.85 62.2 M261.3 71.9 L260.55 72.65 260.85 73.0 265.1 73.65 267.6 73.4 267.3 70.55 265.6 70.3 Q263.05 70.35 261.3 71.9 M329.35 76.75 Q329.25 75.85 328.0 75.8 L327.25 75.85 Q326.25 76.25 325.75 77.2 326.25 76.25 327.25 75.85 L328.0 75.8 Q329.25 75.85 329.35 76.75 M197.7 84.0 L197.25 83.6 196.7 83.35 Q194.4 82.95 193.55 84.4 194.4 82.95 196.7 83.35 L197.25 83.6 197.7 84.0 M194.95 85.25 L191.3 85.25 194.95 85.25 M238.2 66.6 L240.05 67.75 Q241.35 69.9 243.6 68.7 L243.7 68.5 Q243.4 64.9 240.5 62.15 L238.2 66.6 M220.6 129.35 L217.25 129.45 220.6 129.35 M218.6 130.65 L215.45 130.65 218.6 130.65 M244.65 161.2 L243.35 160.35 242.8 160.2 242.3 160.3 Q241.55 160.5 241.45 161.2 241.55 160.5 242.3 160.3 L242.8 160.2 243.35 160.35 244.65 161.2 M196.3 197.8 Q195.3 198.05 195.2 197.45 L194.85 197.0 Q193.1 195.95 192.65 197.4 193.1 195.95 194.85 197.0 L195.2 197.45 Q195.3 198.05 196.3 197.8 M243.7 162.6 L240.05 162.8 243.7 162.6 M337.3 118.95 Q337.0 117.9 335.65 118.15 L334.85 119.0 335.65 118.15 Q337.0 117.9 337.3 118.95 M307.05 143.65 L304.3 143.5 307.05 143.65 M335.75 119.8 L335.0 120.0 Q334.05 120.7 333.95 119.8 334.05 120.7 335.0 120.0 L335.75 119.8 M277.45 102.9 L276.6 102.8 276.05 102.55 Q274.5 101.65 273.75 103.3 274.5 101.65 276.05 102.55 L276.6 102.8 277.45 102.9 M310.25 142.7 L309.75 141.95 309.3 141.6 308.75 141.3 Q308.2 140.7 307.4 141.85 306.45 143.25 307.05 142.3 306.45 143.25 307.4 141.85 308.2 140.7 308.75 141.3 L309.3 141.6 309.75 141.95 310.25 142.7 M274.2 104.55 L271.95 104.55 274.2 104.55 M305.65 179.7 L304.8 179.6 304.25 179.45 Q302.05 179.1 301.6 180.5 302.05 179.1 304.25 179.45 L304.8 179.6 305.65 179.7 M302.95 181.7 L299.75 181.3 302.95 181.7 M131.35 47.05 L131.6 46.6 132.0 47.45 131.35 47.05 M152.55 159.6 L149.35 159.6 152.55 159.6 M155.3 158.4 L154.5 157.9 Q152.6 156.25 151.65 158.4 152.6 156.25 154.5 157.9 L155.3 158.4 M261.9 207.85 L260.15 207.35 259.7 207.3 Q258.45 207.6 257.85 208.65 258.45 207.6 259.7 207.3 L260.15 207.35 261.9 207.85 M259.65 209.05 L258.9 209.25 Q258.25 209.65 257.4 209.6 L256.0 209.45 257.4 209.6 Q258.25 209.65 258.9 209.25 L259.65 209.05 M194.0 198.2 L190.4 198.2 194.0 198.2" fill="url(#gradient4)" fill-rule="evenodd" stroke="none"/>
    <path d="M396.45 270.95 L260.65 270.95 266.0 270.4 Q269.7 270.45 273.25 269.25 274.2 268.9 274.95 268.25 L276.4 267.15 Q277.9 265.95 279.7 265.1 282.75 263.6 286.05 262.55 289.15 261.45 291.7 259.75 L293.5 258.6 Q295.15 257.6 297.15 257.95 300.15 258.15 302.2 256.2 304.6 254.0 307.55 252.5 313.25 249.5 316.0 244.1 L317.5 244.4 321.15 244.3 Q322.8 243.35 324.9 243.4 325.9 245.05 326.45 247.0 L327.35 249.0 Q330.95 254.8 333.2 260.85 333.6 261.85 334.55 262.7 336.2 264.2 338.4 263.7 344.0 262.5 349.3 260.6 351.7 259.7 353.35 258.1 L355.15 256.2 356.45 255.2 358.45 255.25 Q360.6 256.6 363.4 256.35 L366.35 259.3 367.8 260.85 Q368.65 262.0 370.0 262.5 L374.35 264.45 374.5 265.25 Q374.45 266.0 375.1 266.35 L379.25 269.4 Q383.55 266.65 388.05 264.3 390.45 263.15 392.5 263.45 L392.55 263.7 Q393.05 268.15 396.45 270.95 M44.45 270.95 L-8.95 270.95 -4.7 258.9 -1.45 260.5 -0.1 260.9 Q1.2 261.25 1.55 262.3 L5.35 264.3 Q7.4 264.2 8.25 262.55 9.25 260.45 10.55 258.45 11.35 257.25 11.75 255.9 13.35 250.45 16.95 245.95 21.0 241.4 22.45 236.0 22.65 235.4 23.5 235.15 L24.95 234.8 Q27.75 237.9 28.95 241.9 29.35 243.15 30.2 244.3 31.4 245.95 31.55 247.8 31.65 252.8 34.95 256.65 35.6 257.45 35.8 258.55 36.35 262.35 39.3 264.85 L41.9 267.75 44.45 270.95" fill="#011818" fill-rule="evenodd" stroke="none"/>
    <path d="M406.65 67.95 L406.65 108.55 Q402.9 109.7 399.8 107.4 L397.0 105.5 Q390.1 101.3 381.8 101.9 L375.85 101.2 373.05 100.5 Q371.3 100.05 369.75 99.1 366.2 97.0 363.95 94.1 363.4 93.35 363.6 92.5 364.1 90.45 365.0 88.5 366.15 86.1 365.15 83.6 L359.35 80.35 Q357.8 79.6 356.4 79.3 L355.25 79.2 350.25 77.75 Q346.05 76.75 341.75 74.95 338.65 71.9 339.0 67.85 339.05 66.7 337.9 66.05 335.15 64.45 331.7 63.8 313.7 63.9 295.65 61.85 L280.55 61.05 Q273.5 60.35 267.35 56.8 265.55 55.75 263.6 55.0 262.25 52.25 259.95 50.0 258.45 48.55 257.85 46.6 257.15 44.6 256.8 42.5 L256.8 42.2 254.45 40.8 Q254.2 40.45 254.0 40.8 251.15 45.3 251.25 50.7 251.3 51.8 250.9 52.7 L250.2 52.7 249.55 53.2 Q244.05 52.85 240.8 56.65 240.15 57.35 239.75 58.25 237.5 63.6 230.5 63.45 L221.75 63.3 216.9 62.95 212.6 63.35 Q209.5 63.5 207.15 65.3 202.85 68.65 197.25 69.55 190.75 70.55 185.25 73.65 181.6 78.65 176.85 82.95 L173.35 86.15 170.95 87.65 165.1 89.8 Q161.5 91.1 158.2 92.85 150.45 96.8 143.3 101.55 142.05 102.4 142.0 103.75 141.75 107.15 142.65 110.35 143.75 114.15 145.6 117.7 151.9 129.8 151.15 143.05 L150.85 144.1 Q148.95 147.55 145.95 150.5 L141.95 154.35 Q134.7 160.95 131.4 169.8 130.5 172.2 129.85 174.7 129.55 176.0 130.0 177.3 132.1 183.05 132.0 189.1 L132.6 189.55 Q133.05 191.35 134.0 193.0 138.15 200.05 144.3 205.85 L145.95 207.1 Q153.15 211.2 154.5 218.5 L154.5 218.55 154.55 218.6 Q161.3 221.15 168.1 219.9 172.65 219.15 175.35 222.2 177.0 224.0 179.55 223.95 L196.25 222.55 196.7 222.9 206.05 226.95 207.2 226.6 Q213.3 225.0 219.6 226.4 L224.7 227.4 236.4 228.1 241.35 228.45 Q245.1 227.9 248.35 228.55 L252.85 229.0 266.95 229.65 Q270.95 229.95 274.9 229.5 280.1 228.8 285.05 227.1 L285.15 227.35 285.25 227.4 285.6 227.35 286.75 223.8 Q292.75 222.1 298.85 221.25 L303.45 222.25 Q311.75 224.05 319.45 226.6 327.0 229.15 334.9 230.1 L338.4 230.55 352.55 231.2 Q361.05 230.55 368.35 226.45 372.2 224.3 376.8 224.65 379.85 224.95 382.1 226.85 L387.95 231.5 389.55 232.7 Q393.05 235.6 398.0 235.95 402.5 235.3 406.65 233.55 L406.65 270.95 396.45 270.95 Q393.05 268.15 392.55 263.7 L392.5 263.45 Q390.45 263.15 388.05 264.3 383.55 266.65 379.25 269.4 L375.1 266.35 Q374.45 266.0 374.5 265.25 L374.35 264.45 370.0 262.5 Q368.65 262.0 367.8 260.85 L366.35 259.3 363.4 256.35 Q360.6 256.6 358.45 255.25 L356.45 255.2 355.15 256.2 353.35 258.1 Q351.7 259.7 349.3 260.6 344.0 262.5 338.4 263.7 336.2 264.2 334.55 262.7 333.6 261.85 333.2 260.85 330.95 254.8 327.35 249.0 L326.45 247.0 Q325.9 245.05 324.9 243.4 322.8 243.35 321.15 244.3 L317.5 244.4 316.0 244.1 Q313.25 249.5 307.55 252.5 304.6 254.0 302.2 256.2 300.15 258.15 297.15 257.95 295.15 257.6 293.5 258.6 L291.7 259.75 Q289.15 261.45 286.05 262.55 282.75 263.6 279.7 265.1 277.9 265.95 276.4 267.15 L274.95 268.25 Q274.2 268.9 273.25 269.25 269.7 270.45 266.0 270.4 L260.65 270.95 44.45 270.95 41.9 267.75 39.3 264.85 Q36.35 262.35 35.8 258.55 35.6 257.45 34.95 256.65 31.65 252.8 31.55 247.8 31.4 245.95 30.2 244.3 29.35 243.15 28.95 241.9 27.75 237.9 24.95 234.8 L23.5 235.15 Q22.65 235.4 22.45 236.0 21.0 241.4 16.95 245.95 12.65 244.3 8.15 244.65 6.2 244.6 4.75 243.7 L-5.7 237.4 -9.95 234.6 -11.75 233.4 Q-12.55 232.75 -13.5 232.6 L-13.5 55.05 -13.5 51.65 -10.15 51.15 -1.95 49.7 Q-0.45 49.35 0.4 48.25 2.4 45.7 5.7 44.7 8.0 44.0 10.05 42.9 12.8 41.45 15.0 39.4 18.5 36.05 23.6 36.0 L29.25 35.5 40.45 34.65 43.85 34.2 46.65 33.45 Q49.35 32.35 51.3 31.1 L51.6 29.7 53.3 29.7 55.05 29.85 66.45 31.15 68.95 30.95 96.15 24.9 Q104.55 22.8 113.2 23.15 L127.05 23.9 Q131.95 24.25 136.4 25.95 136.45 27.25 137.95 27.5 L143.65 27.05 Q146.15 27.2 147.3 28.9 L148.1 29.6 Q152.35 32.45 157.85 32.45 L166.7 31.85 181.7 31.95 188.05 32.75 203.15 33.7 214.3 32.75 215.0 30.55 217.25 31.05 218.35 30.75 222.6 30.05 224.95 29.2 Q227.25 28.15 229.65 28.1 235.6 28.4 241.4 29.6 L250.25 30.25 Q257.65 30.1 264.7 31.35 267.2 31.8 266.65 33.95 L264.4 35.8 264.95 37.3 Q265.3 37.95 266.05 38.2 269.25 39.4 271.9 41.55 272.95 42.35 274.25 42.7 280.85 43.25 287.4 44.75 290.95 45.7 294.95 45.7 L302.6 45.85 307.35 46.7 Q313.2 48.05 319.0 46.65 L320.65 45.95 328.4 42.3 330.15 38.1 334.8 37.6 Q339.35 38.0 343.65 36.8 L343.85 36.3 344.25 35.0 Q344.7 33.5 346.25 33.1 350.05 31.95 354.25 31.9 L357.6 32.25 367.2 33.65 372.15 34.3 Q375.45 35.0 378.1 36.6 L376.45 39.35 378.6 42.6 379.35 44.35 Q379.85 47.5 381.25 50.35 383.15 54.05 387.05 56.35 389.95 58.2 393.1 59.55 396.45 61.0 400.05 61.35 402.8 61.5 404.4 63.2 406.15 65.15 406.65 67.95 M361.7 53.05 L356.3 52.9 351.7 52.65 350.9 52.8 Q348.5 54.0 346.2 53.15 L344.45 52.7 Q341.5 52.3 340.3 53.5 341.5 52.3 344.45 52.7 L346.2 53.15 Q348.5 54.0 350.9 52.8 L351.7 52.65 356.3 52.9 361.7 53.05 M379.05 74.0 L374.6 73.75 374.05 73.8 370.85 73.7 369.1 73.75 363.15 73.9 361.7 73.7 Q359.2 73.35 357.65 74.4 359.2 73.35 361.7 73.7 L363.15 73.9 369.1 73.75 370.85 73.7 374.05 73.8 374.6 73.75 379.05 74.0 M383.15 68.35 L377.75 67.85 377.2 67.7 Q376.0 67.45 375.1 68.1 373.05 69.55 371.85 67.4 370.4 67.95 369.05 68.75 370.4 67.95 371.85 67.4 373.05 69.55 375.1 68.1 376.0 67.45 377.2 67.7 L377.75 67.85 383.15 68.35 M397.75 70.35 L392.6 66.45 387.4 61.8 386.7 61.3 381.4 58.2 380.3 57.65 Q376.5 55.75 374.6 53.05 373.55 51.65 372.95 49.9 L372.8 49.4 372.45 48.3 371.8 46.65 370.65 43.05 Q370.1 41.0 368.05 39.9 365.7 38.7 363.1 37.9 L359.0 37.4 363.1 37.9 Q365.7 38.7 368.05 39.9 370.1 41.0 370.65 43.05 L371.8 46.65 372.45 48.3 372.8 49.4 372.95 49.9 Q373.55 51.65 374.6 53.05 376.5 55.75 380.3 57.65 L381.4 58.2 386.7 61.3 387.4 61.8 392.6 66.45 397.75 70.35 M353.55 36.6 Q351.75 37.5 350.25 39.35 L350.0 39.85 Q348.6 42.3 344.95 41.65 L340.8 41.45 336.2 42.2 Q335.4 42.45 335.0 43.5 L334.75 44.65 334.1 46.3 332.95 47.75 330.25 49.75 329.35 50.1 Q324.75 50.45 320.75 51.9 L319.85 52.1 317.05 52.4 315.7 52.5 310.25 52.65 Q301.25 52.6 293.4 50.15 289.5 48.95 285.15 48.7 L282.9 48.5 278.35 48.2 275.65 47.9 271.05 47.3 270.15 47.1 265.1 45.5 Q263.4 44.95 262.25 43.9 259.95 41.75 258.35 39.4 L257.7 38.9 Q251.25 36.6 244.65 34.6 251.25 36.6 257.7 38.9 L258.35 39.4 Q259.95 41.75 262.25 43.9 263.4 44.95 265.1 45.5 L270.15 47.1 271.05 47.3 275.65 47.9 278.35 48.2 282.9 48.5 285.15 48.7 Q289.5 48.95 293.4 50.15 301.25 52.6 310.25 52.65 L315.7 52.5 317.05 52.4 319.85 52.1 320.75 51.9 Q324.75 50.45 329.35 50.1 L330.25 49.75 332.95 47.75 334.1 46.3 334.75 44.65 335.0 43.5 Q335.4 42.45 336.2 42.2 L340.8 41.45 344.95 41.65 Q348.6 42.3 350.0 39.85 L350.25 39.35 Q351.75 37.5 353.55 36.6 M132.1 28.15 Q130.85 26.75 128.85 26.7 L126.9 26.3 126.1 26.15 124.2 25.9 123.4 25.75 118.8 25.45 117.45 25.25 116.55 25.1 114.3 24.8 Q113.3 24.7 113.05 25.2 L112.45 25.4 110.65 25.6 Q109.4 25.65 108.75 26.0 L107.9 26.2 103.35 26.85 102.05 27.1 101.45 27.2 99.25 27.45 97.9 27.6 95.1 27.9 94.6 28.05 90.6 28.75 90.1 28.85 87.0 29.85 86.0 30.05 Q81.4 30.85 78.2 32.4 L77.45 32.7 75.55 33.4 Q73.75 34.25 71.45 34.25 L56.85 34.0 55.5 33.9 Q52.95 33.55 51.45 34.3 L49.6 35.1 49.1 35.4 Q46.95 36.85 45.05 37.35 L43.25 37.9 42.7 38.05 38.15 38.55 34.55 38.45 33.65 38.35 29.05 38.15 24.5 38.65 22.2 39.2 19.9 39.25 Q18.95 39.15 18.65 39.65 L18.1 39.9 Q17.65 40.0 17.2 40.25 14.1 41.95 11.65 44.15 L8.9 46.2 6.1 48.05 5.4 48.35 4.9 48.45 2.6 48.95 -1.4 50.0 -1.95 50.2 -5.15 52.65 -6.45 53.2 -7.0 53.45 Q-8.8 54.65 -11.5 54.9 L-12.0 54.95 -13.5 55.05 -12.0 54.95 -11.5 54.9 Q-8.8 54.65 -7.0 53.45 L-6.45 53.2 -5.15 52.65 -1.95 50.2 -1.4 50.0 2.6 48.95 4.9 48.45 5.4 48.35 6.1 48.05 8.9 46.2 11.65 44.15 Q14.1 41.95 17.2 40.25 17.65 40.0 18.1 39.9 L18.65 39.65 Q18.95 39.15 19.9 39.25 L22.2 39.2 24.5 38.65 29.05 38.15 33.65 38.35 34.55 38.45 38.15 38.55 42.7 38.05 43.25 37.9 45.05 37.35 Q46.95 36.85 49.1 35.4 L49.6 35.1 51.45 34.3 Q52.95 33.55 55.5 33.9 L56.85 34.0 71.45 34.25 Q73.75 34.25 75.55 33.4 L77.45 32.7 78.2 32.4 Q81.4 30.85 86.0 30.05 L87.0 29.85 90.1 28.85 90.6 28.75 94.6 28.05 95.1 27.9 97.9 27.6 99.25 27.45 101.45 27.2 102.05 27.1 103.35 26.85 107.9 26.2 108.75 26.0 Q109.4 25.65 110.65 25.6 L112.45 25.4 113.05 25.2 Q113.3 24.7 114.3 24.8 L116.55 25.1 117.45 25.25 118.8 25.45 123.4 25.75 124.2 25.9 126.1 26.15 126.9 26.3 128.85 26.7 Q130.85 26.75 132.1 28.15 M380.4 94.05 L375.5 93.55 375.0 93.45 Q374.5 93.45 374.25 93.75 373.5 94.65 371.8 94.3 L371.45 94.0 Q371.2 92.65 369.95 93.65 L368.55 94.85 369.95 93.65 Q371.2 92.65 371.45 94.0 L371.8 94.3 Q373.5 94.65 374.25 93.75 374.5 93.45 375.0 93.45 L375.5 93.55 380.4 94.05 M373.55 251.65 L370.35 249.7 369.5 249.4 364.55 249.8 Q362.9 250.35 361.3 249.2 360.55 248.65 359.9 248.55 358.65 248.35 357.75 248.95 356.3 249.95 354.45 249.95 352.2 249.9 351.1 248.1 L350.95 247.6 Q350.85 247.0 349.95 247.35 347.65 248.25 346.25 249.65 347.65 248.25 349.95 247.35 350.85 247.0 350.95 247.6 L351.1 248.1 Q352.2 249.9 354.45 249.95 356.3 249.95 357.75 248.95 358.65 248.35 359.9 248.55 360.55 248.65 361.3 249.2 362.9 250.35 364.55 249.8 L369.5 249.4 370.35 249.7 373.55 251.65 M385.9 234.75 L385.4 234.0 384.95 233.6 Q384.0 233.15 383.2 232.3 380.7 229.75 376.35 229.9 L374.15 230.15 369.1 230.9 Q368.3 231.0 367.15 231.45 L364.05 232.7 362.1 233.4 Q358.0 234.8 353.55 235.65 L352.65 235.8 349.85 236.1 348.95 236.2 Q344.6 236.4 340.3 236.2 L338.95 236.1 335.75 235.8 331.25 235.35 328.45 235.15 327.2 234.95 323.4 233.65 315.25 230.7 312.2 229.4 Q309.7 228.2 306.55 228.35 304.85 228.45 304.3 229.55 304.85 228.45 306.55 228.35 309.7 228.2 312.2 229.4 L315.25 230.7 323.4 233.65 327.2 234.95 328.45 235.15 331.25 235.35 335.75 235.8 338.95 236.1 340.3 236.2 Q344.6 236.4 348.95 236.2 L349.85 236.1 352.65 235.8 353.55 235.65 Q358.0 234.8 362.1 233.4 L364.05 232.7 367.15 231.45 Q368.3 231.0 369.1 230.9 L374.15 230.15 376.35 229.9 Q380.7 229.75 383.2 232.3 384.0 233.15 384.95 233.6 L385.4 234.0 385.9 234.75 M337.1 60.3 L335.75 60.4 332.15 60.6 Q329.3 60.55 327.6 59.45 L327.05 59.25 325.3 59.1 309.8 59.1 325.3 59.1 327.05 59.25 327.6 59.45 Q329.3 60.55 332.15 60.6 L335.75 60.4 337.1 60.3 M245.1 43.45 L240.95 43.4 Q238.5 43.3 236.85 43.9 L233.75 44.1 233.2 43.95 232.35 43.8 Q229.8 43.6 228.2 44.25 229.8 43.6 232.35 43.8 L233.2 43.95 233.75 44.1 236.85 43.9 Q238.5 43.3 240.95 43.4 L245.1 43.45 M220.5 49.45 L218.6 49.45 216.85 49.65 213.65 50.2 212.35 50.05 206.75 49.6 206.0 49.55 200.4 49.15 196.3 49.85 200.4 49.15 206.0 49.55 206.75 49.6 212.35 50.05 213.65 50.2 216.85 49.65 218.6 49.45 220.5 49.45 M238.2 33.4 L236.45 32.85 235.95 32.7 232.4 33.0 231.4 33.25 227.75 33.85 223.65 34.7 222.75 34.9 221.9 35.15 219.5 36.1 215.45 37.15 214.55 37.3 213.2 37.5 211.35 37.85 210.45 38.1 209.15 38.35 206.7 38.8 Q205.65 39.0 204.55 38.8 L199.95 38.6 199.2 38.45 Q198.5 38.1 197.25 38.05 L192.65 37.4 188.6 36.65 187.75 36.45 Q185.65 35.65 183.1 35.95 L182.65 36.0 182.25 36.05 182.65 36.0 183.1 35.95 Q185.65 35.65 187.75 36.45 L188.6 36.65 192.65 37.4 197.25 38.05 Q198.5 38.1 199.2 38.45 L199.95 38.6 204.55 38.8 Q205.65 39.0 206.7 38.8 L209.15 38.35 210.45 38.1 211.35 37.85 213.2 37.5 214.55 37.3 215.45 37.15 219.5 36.1 221.9 35.15 222.75 34.9 223.65 34.7 227.75 33.85 231.4 33.25 232.4 33.0 235.95 32.7 236.45 32.85 238.2 33.4 M182.1 36.05 L174.9 36.2 170.85 35.7 170.35 35.6 164.9 35.4 163.55 35.2 161.25 35.15 160.75 35.25 158.05 35.3 156.2 35.05 151.65 34.45 150.7 34.3 Q150.25 34.2 149.95 34.0 L147.1 32.15 Q146.85 31.95 146.6 31.85 144.75 31.0 142.95 30.3 L142.45 30.0 Q142.15 29.5 141.15 29.6 L138.95 29.6 138.35 29.5 136.2 29.2 135.7 29.15 Q133.9 29.15 133.0 28.55 133.9 29.15 135.7 29.15 L136.2 29.2 138.35 29.5 138.95 29.6 141.15 29.6 Q142.15 29.5 142.45 30.0 L142.95 30.3 Q144.75 31.0 146.6 31.85 146.85 31.95 147.1 32.15 L149.95 34.0 Q150.25 34.2 150.7 34.3 L151.65 34.45 156.2 35.05 158.05 35.3 160.75 35.25 161.25 35.15 163.55 35.2 164.9 35.4 170.35 35.6 170.85 35.7 174.9 36.2 182.1 36.05 Q181.8 36.75 182.15 36.1 L182.25 36.05 182.15 35.85 182.1 36.05 M163.0 55.5 L160.75 55.0 159.95 55.0 Q158.55 55.5 156.75 54.65 L156.2 54.5 155.3 54.6 Q154.85 54.7 154.65 54.9 153.85 55.6 152.15 55.35 L151.55 55.15 150.7 54.9 Q148.55 55.0 148.0 56.3 148.55 55.0 150.7 54.9 L151.55 55.15 152.15 55.35 Q153.85 55.6 154.65 54.9 154.85 54.7 155.3 54.6 L156.2 54.5 156.75 54.65 Q158.55 55.5 159.95 55.0 L160.75 55.0 163.0 55.5 M137.8 111.8 L136.8 107.3 Q135.8 103.85 138.15 100.75 143.8 93.1 153.35 89.2 163.35 85.15 170.35 77.45 L171.9 75.15 Q174.15 70.75 179.15 68.45 182.35 67.0 185.95 66.45 193.0 66.4 198.85 63.1 193.0 66.4 185.95 66.45 182.35 67.0 179.15 68.45 174.15 70.75 171.9 75.15 L170.35 77.45 Q163.35 85.15 153.35 89.2 143.8 93.1 138.15 100.75 135.8 103.85 136.8 107.3 L137.8 111.8 M182.15 44.65 L177.2 44.65 176.35 44.5 172.6 43.85 171.8 44.0 Q170.1 44.8 168.05 44.5 L167.15 44.35 160.75 43.85 159.95 44.0 157.6 44.25 159.95 44.0 160.75 43.85 167.15 44.35 168.05 44.5 Q170.1 44.8 171.8 44.0 L172.6 43.85 176.35 44.5 177.2 44.65 182.15 44.65 M214.55 59.0 L215.1 59.25 Q224.55 61.9 233.1 57.45 224.55 61.9 215.1 59.25 L214.55 59.0 M131.35 47.05 L132.0 47.45 131.6 46.6 131.35 47.05 M130.25 86.15 Q129.4 87.35 127.3 87.6 L125.85 87.35 Q124.2 86.55 121.6 86.9 L120.9 87.0 Q118.35 87.5 115.8 86.45 114.0 87.05 113.35 88.2 114.0 87.05 115.8 86.45 118.35 87.5 120.9 87.0 L121.6 86.9 Q124.2 86.55 125.85 87.35 L127.3 87.6 Q129.4 87.35 130.25 86.15 M90.15 68.7 L86.05 68.2 84.35 68.4 79.1 68.6 76.75 68.2 Q75.25 67.85 74.8 68.6 74.45 69.25 73.3 69.25 74.45 69.25 74.8 68.6 75.25 67.85 76.75 68.2 L79.1 68.6 84.35 68.4 86.05 68.2 90.15 68.7 M95.1 39.0 Q94.65 39.0 94.5 38.8 94.05 38.35 92.85 38.45 91.05 38.6 89.25 38.4 L86.5 38.2 85.65 38.4 Q82.85 39.9 79.7 38.9 L79.25 38.8 76.1 39.5 75.5 39.65 67.8 40.6 75.5 39.65 76.1 39.5 79.25 38.8 79.7 38.9 Q82.85 39.9 85.65 38.4 L86.5 38.2 89.25 38.4 Q91.05 38.6 92.85 38.45 94.05 38.35 94.5 38.8 94.65 39.0 95.1 39.0 M44.1 45.85 L38.15 46.05 37.65 46.1 36.35 46.35 Q34.6 46.65 33.2 46.35 L32.4 46.4 Q30.8 47.25 28.6 46.9 L27.7 46.75 26.3 46.6 Q23.75 46.4 22.7 47.45 23.75 46.4 26.3 46.6 L27.7 46.75 28.6 46.9 Q30.8 47.25 32.4 46.4 L33.2 46.35 Q34.6 46.65 36.35 46.35 L37.65 46.1 38.15 46.05 44.1 45.85 M95.35 147.15 L90.1 146.8 89.05 146.45 85.5 146.1 83.8 145.9 Q81.2 145.15 79.7 146.2 78.9 146.75 77.4 146.5 L76.65 146.05 Q76.3 145.0 74.9 145.4 73.4 145.9 72.7 147.15 73.4 145.9 74.9 145.4 76.3 145.0 76.65 146.05 L77.4 146.5 Q78.9 146.75 79.7 146.2 81.2 145.15 83.8 145.9 L85.5 146.1 89.05 146.45 90.1 146.8 95.35 147.15 M121.55 134.35 L115.7 134.9 114.7 134.65 Q113.3 134.15 112.25 133.3 L110.95 134.75 109.85 135.2 Q107.5 135.6 106.0 134.15 104.65 134.85 103.5 135.9 104.65 134.85 106.0 134.15 107.5 135.6 109.85 135.2 L110.95 134.75 112.25 133.3 Q113.3 134.15 114.7 134.65 L115.7 134.9 121.55 134.35 M27.35 162.55 L25.1 162.3 Q22.4 161.75 21.0 162.6 L20.35 162.85 Q17.45 163.05 15.65 161.55 L12.8 161.45 11.0 162.2 Q9.45 162.45 9.0 161.4 L8.65 161.0 Q6.85 160.7 5.25 162.5 4.3 163.65 4.65 163.55 4.3 163.65 5.25 162.5 6.85 160.7 8.65 161.0 L9.0 161.4 Q9.45 162.45 11.0 162.2 L12.8 161.45 15.65 161.55 Q17.45 163.05 20.35 162.85 L21.0 162.6 Q22.4 161.75 25.1 162.3 L27.35 162.55 M41.3 102.05 L40.15 102.05 Q38.2 102.15 36.5 102.85 32.95 104.3 29.85 101.9 28.15 100.6 26.8 101.6 L26.4 102.1 Q26.0 102.95 24.45 102.85 L23.3 102.8 18.05 103.05 23.3 102.8 24.45 102.85 Q26.0 102.95 26.4 102.1 L26.8 101.6 Q28.15 100.6 29.85 101.9 32.95 104.3 36.5 102.85 38.2 102.15 40.15 102.05 L41.3 102.05 M11.75 61.1 L4.9 61.5 Q4.45 61.5 4.3 61.7 L2.65 61.85 -1.0 61.65 -1.5 61.8 Q-1.9 61.9 -2.05 62.1 L-3.25 62.2 -3.85 62.0 -4.35 61.75 Q-4.6 61.25 -5.6 61.4 -7.5 61.75 -7.85 63.15 -7.5 61.75 -5.6 61.4 -4.6 61.25 -4.35 61.75 L-3.85 62.0 -3.25 62.2 -2.05 62.1 Q-1.9 61.9 -1.5 61.8 L-1.0 61.65 2.65 61.85 4.3 61.7 Q4.45 61.5 4.9 61.5 L11.75 61.1 M144.75 219.45 Q144.9 217.85 144.05 216.7 140.75 211.85 136.8 207.9 134.55 205.65 131.75 203.8 125.75 199.75 123.9 193.45 121.35 184.75 122.25 175.9 122.65 171.65 124.5 167.9 L127.3 162.15 Q129.4 157.95 133.7 155.3 137.8 152.75 140.35 149.3 143.2 145.3 140.1 141.5 143.2 145.3 140.35 149.3 137.8 152.75 133.7 155.3 129.4 157.95 127.3 162.15 L124.5 167.9 Q122.65 171.65 122.25 175.9 121.35 184.75 123.9 193.45 125.75 199.75 131.75 203.8 134.55 205.65 136.8 207.9 140.75 211.85 144.05 216.7 144.9 217.85 144.75 219.45 M179.9 259.7 Q178.85 259.15 177.65 259.05 L173.05 258.9 166.7 259.35 Q165.1 259.55 164.0 258.85 L163.4 258.65 Q162.8 258.5 162.15 258.65 157.9 259.65 153.5 258.8 L152.55 258.75 148.45 258.75 147.1 258.6 145.8 258.35 144.3 257.85 143.65 257.5 142.1 257.3 Q140.1 257.8 139.8 259.3 140.1 257.8 142.1 257.3 L143.65 257.5 144.3 257.85 145.8 258.35 147.1 258.6 148.45 258.75 152.55 258.75 153.5 258.8 Q157.9 259.65 162.15 258.65 162.8 258.5 163.4 258.65 L164.0 258.85 Q165.1 259.55 166.7 259.35 L173.05 258.9 177.65 259.05 Q178.85 259.15 179.9 259.7 M97.4 263.3 L96.55 263.2 96.05 263.1 Q93.1 262.9 90.15 263.0 L82.85 262.45 81.45 262.2 Q79.25 261.9 77.45 262.65 75.2 263.6 72.35 263.25 L70.05 262.95 69.2 263.05 66.45 263.35 Q63.95 263.2 61.9 262.35 60.35 261.7 59.15 262.9 60.35 261.7 61.9 262.35 63.95 263.2 66.45 263.35 L69.2 263.05 70.05 262.95 72.35 263.25 Q75.2 263.6 77.45 262.65 79.25 261.9 81.45 262.2 L82.85 262.45 90.15 263.0 Q93.1 262.9 96.05 263.1 L96.55 263.2 97.4 263.3 M75.65 221.5 L75.05 221.6 73.85 221.75 68.6 221.55 67.65 221.25 Q66.3 220.45 64.5 221.45 L62.75 222.5 61.75 222.65 Q60.15 222.25 59.15 220.55 58.05 218.7 56.6 220.1 L53.55 222.55 56.6 220.1 Q58.05 218.7 59.15 220.55 60.15 222.25 61.75 222.65 L62.75 222.5 64.5 221.45 Q66.3 220.45 67.65 221.25 L68.6 221.55 73.85 221.75 75.05 221.6 75.65 221.5 M100.6 200.5 Q99.05 199.45 97.55 200.35 L95.95 200.9 91.25 201.3 89.55 201.1 88.45 200.8 Q85.3 199.7 83.2 201.55 82.45 202.15 80.9 201.85 79.15 201.45 77.8 200.1 77.4 199.7 76.9 199.8 74.45 200.4 73.85 202.05 74.45 200.4 76.9 199.8 77.4 199.7 77.8 200.1 79.15 201.45 80.9 201.85 82.45 202.15 83.2 201.55 85.3 199.7 88.45 200.8 L89.55 201.1 91.25 201.3 95.95 200.9 97.55 200.35 Q99.05 199.45 100.6 200.5 M155.25 224.6 L156.45 225.0 Q160.2 225.6 163.35 224.9 L164.55 224.65 Q168.2 224.95 171.7 226.9 L174.2 228.45 Q176.55 230.0 179.45 230.4 L183.2 229.8 Q190.15 227.75 197.25 229.55 206.15 232.05 215.4 233.3 216.0 232.5 217.2 232.35 L223.75 232.7 227.45 233.8 Q235.4 236.25 243.6 237.2 252.4 238.0 260.45 235.35 264.85 233.85 268.65 235.35 L276.75 235.0 281.4 234.2 Q286.0 233.95 288.95 231.25 286.0 233.95 281.4 234.2 L276.75 235.0 268.65 235.35 Q264.85 233.85 260.45 235.35 252.4 238.0 243.6 237.2 235.4 236.25 227.45 233.8 L223.75 232.7 217.2 232.35 Q216.0 232.5 215.4 233.3 206.15 232.05 197.25 229.55 190.15 227.75 183.2 229.8 L179.45 230.4 Q176.55 230.0 174.2 228.45 L171.7 226.9 Q168.2 224.95 164.55 224.65 L163.35 224.9 Q160.2 225.6 156.45 225.0 L155.25 224.6 M129.65 237.9 Q129.05 237.4 128.0 237.2 L127.3 237.15 126.1 237.3 125.1 237.6 Q123.45 238.3 121.55 238.4 L120.45 238.25 Q117.95 237.25 116.25 238.45 116.0 238.7 115.65 238.75 113.75 239.1 113.2 237.95 112.05 235.6 109.9 236.95 L109.4 237.45 Q108.4 239.1 108.75 238.95 108.4 239.1 109.4 237.45 L109.9 236.95 Q112.05 235.6 113.2 237.95 113.75 239.1 115.65 238.75 116.0 238.7 116.25 238.45 117.95 237.25 120.45 238.25 L121.55 238.4 Q123.45 238.3 125.1 237.6 L126.1 237.3 127.3 237.15 128.0 237.2 Q129.05 237.4 129.65 237.9 M21.55 218.95 Q20.65 218.15 19.25 218.35 18.65 218.45 18.3 218.7 L15.15 219.05 14.1 218.75 Q12.55 218.2 11.2 219.1 8.3 221.05 2.95 221.5 8.3 221.05 11.2 219.1 12.55 218.2 14.1 218.75 L15.15 219.05 18.3 218.7 Q18.65 218.45 19.25 218.35 20.65 218.15 21.55 218.95 M312.05 241.6 L303.85 241.3 302.95 241.5 300.15 241.3 296.1 240.95 295.2 241.0 293.35 240.75 292.45 240.45 291.1 240.2 Q287.6 240.05 286.55 242.0 287.6 240.05 291.1 240.2 L292.45 240.45 293.35 240.75 295.2 241.0 296.1 240.95 300.15 241.3 302.95 241.5 303.85 241.3 312.05 241.6 M266.5 247.65 Q262.25 249.35 258.8 246.75 256.55 245.1 253.75 246.45 L252.85 246.8 Q249.85 247.6 246.9 246.8 L246.05 246.7 244.25 247.0 Q242.4 247.25 241.0 248.1 L240.45 248.3 Q238.85 248.6 237.9 247.6 236.8 246.5 235.45 246.1 L234.75 246.2 Q233.25 247.25 231.9 248.45 233.25 247.25 234.75 246.2 L235.45 246.1 Q236.8 246.5 237.9 247.6 238.85 248.6 240.45 248.3 L241.0 248.1 Q242.4 247.25 244.25 247.0 L246.05 246.7 246.9 246.8 Q249.85 247.6 252.85 246.8 L253.75 246.45 Q256.55 245.1 258.8 246.75 262.25 249.35 266.5 247.65 M247.35 255.65 L240.5 256.05 238.75 255.85 236.85 255.8 230.5 256.05 229.2 255.85 225.0 255.55 224.15 255.75 222.35 256.2 221.4 256.35 Q220.3 256.45 219.6 255.65 L219.05 255.3 218.45 254.7 Q217.95 253.7 216.35 253.95 L215.05 254.25 212.2 255.15 211.5 255.4 Q209.75 256.2 208.7 254.8 L207.6 253.7 Q207.1 253.15 205.9 253.4 L205.35 253.55 Q203.5 254.4 203.15 256.05 203.5 254.4 205.35 253.55 L205.9 253.4 Q207.1 253.15 207.6 253.7 L208.7 254.8 Q209.75 256.2 211.5 255.4 L212.2 255.15 215.05 254.25 216.35 253.95 Q217.95 253.7 218.45 254.7 L219.05 255.3 219.6 255.65 Q220.3 256.45 221.4 256.35 L222.35 256.2 224.15 255.75 225.0 255.55 229.2 255.85 230.5 256.05 236.85 255.8 238.75 255.85 240.5 256.05 247.35 255.65 M205.85 266.15 L202.25 267.05 198.6 267.2 197.7 267.05 190.4 266.35 189.5 266.3 187.3 266.35 184.85 266.85 184.1 266.8 Q181.95 265.8 179.45 265.7 L178.7 265.9 178.05 266.5 176.75 267.75 178.05 266.5 178.7 265.9 179.45 265.7 Q181.95 265.8 184.1 266.8 L184.85 266.85 187.3 266.35 189.5 266.3 190.4 266.35 197.7 267.05 198.6 267.2 202.25 267.05 205.85 266.15" fill="url(#gradient5)" fill-rule="evenodd" stroke="none"/>
    <path d="M263.6 55.0 Q264.5 56.85 265.05 58.9 L264.75 61.35 266.55 66.2 Q263.2 68.7 259.2 66.75 L258.7 66.55 257.0 67.4 Q256.45 69.35 254.1 69.6 L249.75 69.4 Q248.25 69.05 247.45 68.1 245.75 66.2 244.1 65.4 L243.7 64.95 244.9 64.15 Q248.8 61.9 249.3 57.3 249.8 55.0 250.8 52.85 L250.9 52.7 Q251.3 51.8 251.25 50.7 251.15 45.3 254.0 40.8 254.2 40.45 254.45 40.8 L256.8 42.2 256.8 42.5 Q257.15 44.6 257.85 46.6 258.45 48.55 259.95 50.0 262.25 52.25 263.6 55.0 M270.55 62.6 L272.45 62.5 273.75 65.4 Q268.65 67.65 267.25 65.75 L269.85 62.2 270.55 62.6 M261.3 71.9 Q263.05 70.35 265.6 70.3 L267.3 70.55 267.6 73.4 265.1 73.65 260.85 73.0 260.55 72.65 261.3 71.9 M238.2 66.6 L240.5 62.15 Q243.4 64.9 243.7 68.5 L243.6 68.7 Q241.35 69.9 240.05 67.75 L238.2 66.6" fill="url(#gradient6)" fill-rule="evenodd" stroke="none"/>
    <path d="M106.75 22.5 Q106.75 20.55 105.95 19.15 105.1 17.75 103.9 17.75 102.05 20.7 98.35 19.75 96.9 19.4 95.65 20.05 L93.95 17.4 90.25 16.8 Q88.3 14.85 88.25 12.05 88.2 8.65 86.9 5.4 L84.6 -0.5 85.1 -1.6 M395.5 4.0 Q394.4 11.0 397.2 17.6 399.0 21.85 398.8 26.3 398.7 28.05 397.75 29.3 L393.15 35.05 389.65 38.7 Q386.3 41.7 387.75 45.75 388.7 48.6 388.65 51.45 M376.8 -1.6 Q377.6 0.8 376.6 3.05 376.1 4.2 376.5 5.45 376.85 6.65 377.7 7.65 381.25 11.95 384.5 16.5 386.45 19.1 386.25 22.1 L386.05 22.75 Q383.7 25.55 382.45 28.8 381.8 30.65 379.75 31.7 M373.1 28.95 Q373.1 26.3 376.35 25.55 377.25 25.35 378.0 24.7 381.2 21.95 380.95 18.0 380.7 14.35 379.8 10.9 L379.9 10.65 379.05 10.45 M359.45 26.5 Q361.0 23.3 364.1 21.2 L364.3 20.95 Q363.3 14.4 358.75 9.1 357.75 7.85 357.35 6.4 356.95 4.8 356.95 3.2 357.0 1.4 357.2 -0.4 M406.65 67.95 Q406.15 65.15 404.4 63.2 402.8 61.5 400.05 61.35 396.45 61.0 393.1 59.55 389.95 58.2 387.05 56.35 383.15 54.05 381.25 50.35 379.85 47.5 379.35 44.35 L378.6 42.6 376.45 39.35 378.1 36.6 Q375.45 35.0 372.15 34.3 L367.2 33.65 357.6 32.25 354.25 31.9 Q350.05 31.95 346.25 33.1 344.7 33.5 344.25 35.0 L343.85 36.3 343.65 36.8 Q339.35 38.0 334.8 37.6 L330.15 38.1 328.4 42.3 320.65 45.95 319.0 46.65 Q313.2 48.05 307.35 46.7 L302.6 45.85 294.95 45.7 Q290.95 45.7 287.4 44.75 280.85 43.25 274.25 42.7 272.95 42.35 271.9 41.55 269.25 39.4 266.05 38.2 265.3 37.95 264.95 37.3 L264.4 35.8 266.65 33.95 Q267.2 31.8 264.7 31.35 257.65 30.1 250.25 30.25 L241.4 29.6 Q235.6 28.4 229.65 28.1 227.25 28.15 224.95 29.2 L222.6 30.05 218.35 30.75 217.25 31.05 215.0 30.55 214.3 32.75 203.15 33.7 188.05 32.75 181.7 31.95 166.7 31.85 157.85 32.45 Q152.35 32.45 148.1 29.6 L147.3 28.9 Q146.15 27.2 143.65 27.05 L137.95 27.5 Q136.45 27.25 136.4 25.95 131.95 24.25 127.05 23.9 L113.2 23.15 Q104.55 22.8 96.15 24.9 L68.95 30.95 66.45 31.15 55.05 29.85 53.3 29.7 51.6 29.7 51.3 31.1 Q49.35 32.35 46.65 33.45 L43.85 34.2 40.45 34.65 29.25 35.5 23.6 36.0 Q18.5 36.05 15.0 39.4 12.8 41.45 10.05 42.9 8.0 44.0 5.7 44.7 2.4 45.7 0.4 48.25 -0.45 49.35 -1.95 49.7 L-10.15 51.15 -13.5 51.65 M406.65 108.55 Q402.9 109.7 399.8 107.4 L397.0 105.5 Q390.1 101.3 381.8 101.9 L375.85 101.2 373.05 100.5 Q371.3 100.05 369.75 99.1 366.2 97.0 363.95 94.1 363.4 93.35 363.6 92.5 364.1 90.45 365.0 88.5 366.15 86.1 365.15 83.6 L359.35 80.35 Q357.8 79.6 356.4 79.3 L355.25 79.2 350.25 77.75 Q346.05 76.75 341.75 74.95 338.65 71.9 339.0 67.85 339.05 66.7 337.9 66.05 335.15 64.45 331.7 63.8 313.7 63.9 295.65 61.85 L280.55 61.05 Q273.5 60.35 267.35 56.8 265.55 55.75 263.6 55.0 264.5 56.85 265.05 58.9 L264.75 61.35 266.55 66.2 M243.7 64.95 L244.9 64.15 Q248.8 61.9 249.3 57.3 249.8 55.0 250.8 52.85 L250.9 52.7 250.2 52.7 249.55 53.2 Q244.05 52.85 240.8 56.65 240.15 57.35 239.75 58.25 237.5 63.6 230.5 63.45 L221.75 63.3 216.9 62.95 212.6 63.35 Q209.5 63.5 207.15 65.3 202.85 68.65 197.25 69.55 190.75 70.55 185.25 73.65 181.6 78.65 176.85 82.95 L173.35 86.15 170.95 87.65 165.1 89.8 Q161.5 91.1 158.2 92.85 150.45 96.8 143.3 101.55 142.05 102.4 142.0 103.75 141.75 107.15 142.65 110.35 143.75 114.15 145.6 117.7 151.9 129.8 151.15 143.05 L150.85 144.1 Q148.95 147.55 145.95 150.5 L141.95 154.35 Q134.7 160.95 131.4 169.8 130.5 172.2 129.85 174.7 129.55 176.0 130.0 177.3 132.1 183.05 132.0 189.1 L132.6 189.55 Q133.05 191.35 134.0 193.0 138.15 200.05 144.3 205.85 L145.95 207.1 Q153.15 211.2 154.5 218.5 L154.55 218.6 Q161.3 221.15 168.1 219.9 172.65 219.15 175.35 222.2 177.0 224.0 179.55 223.95 L196.25 222.55 196.7 222.9 206.05 226.95 207.2 226.6 Q213.3 225.0 219.6 226.4 L224.7 227.4 236.4 228.1 241.35 228.45 Q245.1 227.9 248.35 228.55 L252.85 229.0 266.95 229.65 Q270.95 229.95 274.9 229.5 280.1 228.8 285.05 227.1 L285.15 227.35 285.25 227.4 285.6 227.35 286.75 223.8 Q292.75 222.1 298.85 221.25 L303.45 222.25 Q311.75 224.05 319.45 226.6 327.0 229.15 334.9 230.1 L338.4 230.55 352.55 231.2 Q361.05 230.55 368.35 226.45 372.2 224.3 376.8 224.65 379.85 224.95 382.1 226.85 L387.95 231.5 389.55 232.7 Q393.05 235.6 398.0 235.95 402.5 235.3 406.65 233.55 M340.65 -1.6 Q339.85 3.95 336.25 8.85 L334.55 11.6 Q332.3 15.85 336.05 19.4 L337.9 21.7 Q340.4 25.5 340.8 29.75 M322.05 -1.6 Q318.35 1.65 317.85 5.9 317.75 6.75 318.25 7.55 319.8 9.7 322.1 11.65 323.05 12.4 323.0 13.65 L322.65 18.05 Q322.1 24.6 325.9 30.5 L328.4 34.65 Q328.95 35.6 330.3 35.75 M299.75 31.75 Q297.6 26.85 296.95 21.3 L296.7 19.85 Q296.3 18.25 297.3 16.75 298.55 14.9 299.4 12.8 300.1 11.1 299.55 9.3 L296.6 0.4 M311.6 36.55 Q313.65 32.85 311.15 29.35 308.65 25.85 308.45 21.6 308.35 18.65 309.1 15.6 M286.1 -1.6 Q287.3 5.45 285.05 12.4 283.75 16.5 285.0 20.4 286.1 24.1 283.75 27.4 281.0 31.15 278.7 34.9 278.25 35.6 278.2 36.45 278.0 38.2 279.7 39.0 M273.5 -1.6 Q274.8 1.55 273.4 4.6 L272.3 6.75 Q269.1 11.95 271.45 17.75 271.8 18.65 271.7 19.7 271.45 25.45 268.45 30.35 L267.4 31.75 M261.9 26.5 Q258.9 22.7 262.4 19.35 L264.0 17.55 Q264.75 16.3 264.7 14.85 264.45 7.15 257.95 2.3 L254.2 -0.8 M263.6 55.0 Q262.25 52.25 259.95 50.0 258.45 48.55 257.85 46.6 257.15 44.6 256.8 42.5 L256.8 42.2 254.45 40.8 Q254.2 40.45 254.0 40.8 251.15 45.3 251.25 50.7 251.3 51.8 250.9 52.7 M269.85 62.2 L267.25 65.75 Q268.65 67.65 273.75 65.4 L272.45 62.5 270.55 62.6 M261.3 71.9 L260.55 72.65 260.85 73.0 265.1 73.65 267.6 73.4 267.3 70.55 265.6 70.3 Q263.05 70.35 261.3 71.9 M241.75 -1.6 Q240.1 1.65 237.65 4.25 L235.15 6.45 Q234.25 7.2 233.65 8.2 231.95 11.05 232.15 14.45 M220.95 23.7 L222.0 23.0 220.85 18.7 Q220.5 17.6 220.0 13.9 219.45 10.2 217.5 6.45 215.5 2.7 212.7 0.8 M209.0 -1.6 Q206.15 1.05 205.35 4.75 205.2 5.55 204.65 6.2 L200.7 10.3 Q199.05 11.8 198.8 13.7 198.55 15.45 198.95 17.25 L199.35 19.95 Q199.55 22.6 199.25 25.3 199.1 26.45 199.7 27.65 201.25 30.8 203.15 33.7 M185.85 31.35 Q184.8 30.95 185.9 29.35 187.0 27.85 188.35 26.9 189.05 26.4 189.15 25.7 189.75 22.1 189.65 18.5 L189.45 16.75 188.6 14.65 184.65 7.55 180.35 0.4 M178.5 -1.6 Q177.8 1.05 176.2 3.55 175.75 4.25 175.85 5.15 175.95 8.8 176.3 12.45 176.75 17.1 175.0 21.3 173.85 23.95 173.65 26.85 L173.5 27.7 Q171.35 29.4 168.85 29.35 167.25 29.35 166.8 27.85 L165.95 25.25 Q165.7 24.55 165.9 23.85 L167.15 19.55 Q167.55 18.05 167.45 16.6 167.15 11.9 163.55 8.85 L160.15 5.8 Q157.9 3.7 157.3 0.95 156.95 -0.4 157.6 -1.6 M238.2 66.6 L240.05 67.75 Q241.35 69.9 243.6 68.7 L243.7 68.5 Q243.4 64.9 240.5 62.15 L238.2 66.6 M141.15 -1.6 Q141.3 1.6 140.1 4.7 139.55 6.3 139.45 7.95 139.35 9.4 138.65 10.7 137.45 13.0 135.3 14.7 134.7 15.2 133.9 15.25 134.3 16.2 134.35 17.25 L134.25 19.4 Q133.65 22.6 135.7 24.9 M133.9 15.25 L133.8 15.05 Q132.15 13.05 129.7 11.7 128.35 10.9 127.2 9.85 122.55 5.55 122.5 -0.4 M111.55 -1.6 Q109.9 0.8 107.5 2.5 106.9 2.85 106.8 3.5 106.65 4.3 106.85 5.1 107.65 8.4 106.4 11.6 L103.9 17.75 M68.25 -1.6 Q65.65 2.5 67.4 7.15 67.8 8.2 68.75 9.05 70.9 11.15 71.45 13.85 72.0 16.6 71.7 19.3 71.25 24.0 74.05 27.95 74.7 28.9 73.7 29.35 M61.0 -1.6 Q61.75 1.85 61.45 5.35 61.4 5.9 60.95 6.45 59.3 8.4 60.25 10.9 L61.65 14.35 Q62.4 16.35 63.6 18.0 64.45 19.15 64.25 20.5 63.35 25.45 59.15 28.55 M42.1 -1.6 L42.6 2.95 Q40.65 4.8 38.0 6.3 37.05 6.95 36.35 8.05 L34.15 11.75 32.1 15.4 Q31.3 17.05 31.65 19.05 32.05 21.65 33.95 23.8 L33.2 26.1 40.25 26.95 43.05 31.1 44.25 31.8 44.35 32.95 M17.35 -1.6 L19.25 5.25 Q16.6 11.35 15.7 18.1 15.6 19.0 16.1 19.7 L18.5 22.3 Q18.85 22.7 18.8 23.15 18.5 27.0 17.2 30.55 L19.85 30.65 22.3 30.45 27.15 29.85 Q30.75 28.8 33.2 26.1 M8.75 -1.6 Q7.85 4.6 1.65 8.1 -3.5 11.15 -4.85 16.05 -5.55 18.6 -4.5 21.0 -3.5 23.4 -3.3 26.05 L-2.65 28.65 -1.0 31.5 Q1.25 34.6 -0.95 37.8 L-4.7 43.8 M154.5 218.55 L154.55 218.6" fill="none" stroke="#002829" stroke-linecap="round" stroke-linejoin="round" stroke-width="1.0"/>
    <path d="M-13.5 55.05 L-14.25 55.0 Q-15.55 54.85 -15.6 55.9 M-13.5 55.05 L-12.0 54.95 -11.5 54.9 Q-8.8 54.65 -7.0 53.45 L-6.45 53.2 -5.15 52.65 -1.95 50.2 -1.4 50.0 2.6 48.95 4.9 48.45 5.4 48.35 6.1 48.05 8.9 46.2 11.65 44.15 Q14.1 41.95 17.2 40.25 17.65 40.0 18.1 39.9 L18.65 39.65 Q18.95 39.15 19.9 39.25 L22.2 39.2 24.5 38.65 29.05 38.15 33.65 38.35 34.55 38.45 38.15 38.55 42.7 38.05 43.25 37.9 45.05 37.35 Q46.95 36.85 49.1 35.4 L49.6 35.1 51.45 34.3 Q52.95 33.55 55.5 33.9 L56.85 34.0 71.45 34.25 Q73.75 34.25 75.55 33.4 L77.45 32.7 78.2 32.4 Q81.4 30.85 86.0 30.05 L87.0 29.85 90.1 28.85 90.6 28.75 94.6 28.05 95.1 27.9 97.9 27.6 99.25 27.45 101.45 27.2 102.05 27.1 103.35 26.85 107.9 26.2 108.75 26.0 Q109.4 25.65 110.65 25.6 L112.45 25.4 113.05 25.2 Q113.3 24.7 114.3 24.8 L116.55 25.1 117.45 25.25 118.8 25.45 123.4 25.75 124.2 25.9 126.1 26.15 126.9 26.3 128.85 26.7 Q130.85 26.75 132.1 28.15 M244.65 34.6 Q251.25 36.6 257.7 38.9 L258.35 39.4 Q259.95 41.75 262.25 43.9 263.4 44.95 265.1 45.5 L270.15 47.1 271.05 47.3 275.65 47.9 278.35 48.2 282.9 48.5 285.15 48.7 Q289.5 48.95 293.4 50.15 301.25 52.6 310.25 52.65 L315.7 52.5 317.05 52.4 319.85 52.1 320.75 51.9 Q324.75 50.45 329.35 50.1 L330.25 49.75 332.95 47.75 334.1 46.3 334.75 44.65 335.0 43.5 Q335.4 42.45 336.2 42.2 L340.8 41.45 344.95 41.65 Q348.6 42.3 350.0 39.85 L350.25 39.35 Q351.75 37.5 353.55 36.6 M359.0 37.4 L363.1 37.9 Q365.7 38.7 368.05 39.9 370.1 41.0 370.65 43.05 L371.8 46.65 372.45 48.3 372.8 49.4 372.95 49.9 Q373.55 51.65 374.6 53.05 376.5 55.75 380.3 57.65 L381.4 58.2 386.7 61.3 387.4 61.8 392.6 66.45 397.75 70.35 M369.05 68.75 Q370.4 67.95 371.85 67.4 373.05 69.55 375.1 68.1 376.0 67.45 377.2 67.7 L377.75 67.85 383.15 68.35 M357.65 74.4 Q359.2 73.35 361.7 73.7 L363.15 73.9 369.1 73.75 370.85 73.7 374.05 73.8 374.6 73.75 379.05 74.0 M340.3 53.5 Q341.5 52.3 344.45 52.7 L346.2 53.15 Q348.5 54.0 350.9 52.8 L351.7 52.65 356.3 52.9 361.7 53.05 M368.55 94.85 L369.95 93.65 Q371.2 92.65 371.45 94.0 L371.8 94.3 Q373.5 94.65 374.25 93.75 374.5 93.45 375.0 93.45 L375.5 93.55 380.4 94.05 M304.3 229.55 Q304.85 228.45 306.55 228.35 309.7 228.2 312.2 229.4 L315.25 230.7 323.4 233.65 327.2 234.95 328.45 235.15 331.25 235.35 335.75 235.8 338.95 236.1 340.3 236.2 Q344.6 236.4 348.95 236.2 L349.85 236.1 352.65 235.8 353.55 235.65 Q358.0 234.8 362.1 233.4 L364.05 232.7 367.15 231.45 Q368.3 231.0 369.1 230.9 L374.15 230.15 376.35 229.9 Q380.7 229.75 383.2 232.3 384.0 233.15 384.95 233.6 L385.4 234.0 385.9 234.75 M346.25 249.65 Q347.65 248.25 349.95 247.35 350.85 247.0 350.95 247.6 L351.1 248.1 Q352.2 249.9 354.45 249.95 356.3 249.95 357.75 248.95 358.65 248.35 359.9 248.55 360.55 248.65 361.3 249.2 362.9 250.35 364.55 249.8 L369.5 249.4 370.35 249.7 373.55 251.65 M309.8 59.1 L325.3 59.1 327.05 59.25 327.6 59.45 Q329.3 60.55 332.15 60.6 L335.75 60.4 337.1 60.3 M182.25 36.05 L182.65 36.0 183.1 35.95 Q185.65 35.65 187.75 36.45 L188.6 36.65 192.65 37.4 197.25 38.05 Q198.5 38.1 199.2 38.45 L199.95 38.6 204.55 38.8 Q205.65 39.0 206.7 38.8 L209.15 38.35 210.45 38.1 211.35 37.85 213.2 37.5 214.55 37.3 215.45 37.15 219.5 36.1 221.9 35.15 222.75 34.9 223.65 34.7 227.75 33.85 231.4 33.25 232.4 33.0 235.95 32.7 236.45 32.85 238.2 33.4 M196.3 49.85 L200.4 49.15 206.0 49.55 206.75 49.6 212.35 50.05 213.65 50.2 216.85 49.65 218.6 49.45 220.5 49.45 M228.2 44.25 Q229.8 43.6 232.35 43.8 L233.2 43.95 233.75 44.1 236.85 43.9 Q238.5 43.3 240.95 43.4 L245.1 43.45 M133.0 28.55 Q133.9 29.15 135.7 29.15 L136.2 29.2 138.35 29.5 138.95 29.6 141.15 29.6 Q142.15 29.5 142.45 30.0 L142.95 30.3 Q144.75 31.0 146.6 31.85 146.85 31.95 147.1 32.15 L149.95 34.0 Q150.25 34.2 150.7 34.3 L151.65 34.45 156.2 35.05 158.05 35.3 160.75 35.25 161.25 35.15 163.55 35.2 164.9 35.4 170.35 35.6 170.85 35.7 174.9 36.2 182.1 36.05 M182.25 36.05 L182.1 36.05 M157.6 44.25 L159.95 44.0 160.75 43.85 167.15 44.35 168.05 44.5 Q170.1 44.8 171.8 44.0 L172.6 43.85 176.35 44.5 177.2 44.65 182.15 44.65 M198.85 63.1 Q193.0 66.4 185.95 66.45 182.35 67.0 179.15 68.45 174.15 70.75 171.9 75.15 L170.35 77.45 Q163.35 85.15 153.35 89.2 143.8 93.1 138.15 100.75 135.8 103.85 136.8 107.3 L137.8 111.8 M148.0 56.3 Q148.55 55.0 150.7 54.9 L151.55 55.15 152.15 55.35 Q153.85 55.6 154.65 54.9 154.85 54.7 155.3 54.6 L156.2 54.5 156.75 54.65 Q158.55 55.5 159.95 55.0 L160.75 55.0 163.0 55.5 M233.1 57.45 Q224.55 61.9 215.1 59.25 L214.55 59.0 M67.8 40.6 L75.5 39.65 76.1 39.5 79.25 38.8 79.7 38.9 Q82.85 39.9 85.65 38.4 L86.5 38.2 89.25 38.4 Q91.05 38.6 92.85 38.45 94.05 38.35 94.5 38.8 94.65 39.0 95.1 39.0 M73.3 69.25 Q74.45 69.25 74.8 68.6 75.25 67.85 76.75 68.2 L79.1 68.6 84.35 68.4 86.05 68.2 90.15 68.7 M113.35 88.2 Q114.0 87.05 115.8 86.45 118.35 87.5 120.9 87.0 L121.6 86.9 Q124.2 86.55 125.85 87.35 L127.3 87.6 Q129.4 87.35 130.25 86.15 M22.7 47.45 Q23.75 46.4 26.3 46.6 L27.7 46.75 28.6 46.9 Q30.8 47.25 32.4 46.4 L33.2 46.35 Q34.6 46.65 36.35 46.35 L37.65 46.1 38.15 46.05 44.1 45.85 M-7.85 63.15 Q-7.5 61.75 -5.6 61.4 -4.6 61.25 -4.35 61.75 L-3.85 62.0 -3.25 62.2 -2.05 62.1 Q-1.9 61.9 -1.5 61.8 L-1.0 61.65 2.65 61.85 4.3 61.7 Q4.45 61.5 4.9 61.5 L11.75 61.1 M18.05 103.05 L23.3 102.8 24.45 102.85 Q26.0 102.95 26.4 102.1 L26.8 101.6 Q28.15 100.6 29.85 101.9 32.95 104.3 36.5 102.85 38.2 102.15 40.15 102.05 L41.3 102.05 M4.65 163.55 Q4.3 163.65 5.25 162.5 6.85 160.7 8.65 161.0 L9.0 161.4 Q9.45 162.45 11.0 162.2 L12.8 161.45 15.65 161.55 Q17.45 163.05 20.35 162.85 L21.0 162.6 Q22.4 161.75 25.1 162.3 L27.35 162.55 M103.5 135.9 Q104.65 134.85 106.0 134.15 107.5 135.6 109.85 135.2 L110.95 134.75 112.25 133.3 Q113.3 134.15 114.7 134.65 L115.7 134.9 121.55 134.35 M72.7 147.15 Q73.4 145.9 74.9 145.4 76.3 145.0 76.65 146.05 L77.4 146.5 Q78.9 146.75 79.7 146.2 81.2 145.15 83.8 145.9 L85.5 146.1 89.05 146.45 90.1 146.8 95.35 147.15 M140.1 141.5 Q143.2 145.3 140.35 149.3 137.8 152.75 133.7 155.3 129.4 157.95 127.3 162.15 L124.5 167.9 Q122.65 171.65 122.25 175.9 121.35 184.75 123.9 193.45 125.75 199.75 131.75 203.8 134.55 205.65 136.8 207.9 140.75 211.85 144.05 216.7 144.9 217.85 144.75 219.45 M108.75 238.95 Q108.4 239.1 109.4 237.45 L109.9 236.95 Q112.05 235.6 113.2 237.95 113.75 239.1 115.65 238.75 116.0 238.7 116.25 238.45 117.95 237.25 120.45 238.25 L121.55 238.4 Q123.45 238.3 125.1 237.6 L126.1 237.3 127.3 237.15 128.0 237.2 Q129.05 237.4 129.65 237.9 M288.95 231.25 Q286.0 233.95 281.4 234.2 L276.75 235.0 268.65 235.35 Q264.85 233.85 260.45 235.35 252.4 238.0 243.6 237.2 235.4 236.25 227.45 233.8 L223.75 232.7 217.2 232.35 Q216.0 232.5 215.4 233.3 206.15 232.05 197.25 229.55 190.15 227.75 183.2 229.8 L179.45 230.4 Q176.55 230.0 174.2 228.45 L171.7 226.9 Q168.2 224.95 164.55 224.65 L163.35 224.9 Q160.2 225.6 156.45 225.0 L155.25 224.6 M73.85 202.05 Q74.45 200.4 76.9 199.8 77.4 199.7 77.8 200.1 79.15 201.45 80.9 201.85 82.45 202.15 83.2 201.55 85.3 199.7 88.45 200.8 L89.55 201.1 91.25 201.3 95.95 200.9 97.55 200.35 Q99.05 199.45 100.6 200.5 M53.55 222.55 L56.6 220.1 Q58.05 218.7 59.15 220.55 60.15 222.25 61.75 222.65 L62.75 222.5 64.5 221.45 Q66.3 220.45 67.65 221.25 L68.6 221.55 73.85 221.75 75.05 221.6 75.65 221.5 M59.15 262.9 Q60.35 261.7 61.9 262.35 63.95 263.2 66.45 263.35 L69.2 263.05 70.05 262.95 72.35 263.25 Q75.2 263.6 77.45 262.65 79.25 261.9 81.45 262.2 L82.85 262.45 90.15 263.0 Q93.1 262.9 96.05 263.1 L96.55 263.2 97.4 263.3 M139.8 259.3 Q140.1 257.8 142.1 257.3 L143.65 257.5 144.3 257.85 145.8 258.35 147.1 258.6 148.45 258.75 152.55 258.75 153.5 258.8 Q157.9 259.65 162.15 258.65 162.8 258.5 163.4 258.65 L164.0 258.85 Q165.1 259.55 166.7 259.35 L173.05 258.9 177.65 259.05 Q178.85 259.15 179.9 259.7 M2.95 221.5 Q8.3 221.05 11.2 219.1 12.55 218.2 14.1 218.75 L15.15 219.05 18.3 218.7 Q18.65 218.45 19.25 218.35 20.65 218.15 21.55 218.95 M286.55 242.0 Q287.6 240.05 291.1 240.2 L292.45 240.45 293.35 240.75 295.2 241.0 296.1 240.95 300.15 241.3 302.95 241.5 303.85 241.3 312.05 241.6 M231.9 248.45 Q233.25 247.25 234.75 246.2 L235.45 246.1 Q236.8 246.5 237.9 247.6 238.85 248.6 240.45 248.3 L241.0 248.1 Q242.4 247.25 244.25 247.0 L246.05 246.7 246.9 246.8 Q249.85 247.6 252.85 246.8 L253.75 246.45 Q256.55 245.1 258.8 246.75 262.25 249.35 266.5 247.65 M176.75 267.75 L178.05 266.5 178.7 265.9 179.45 265.7 Q181.95 265.8 184.1 266.8 L184.85 266.85 187.3 266.35 189.5 266.3 190.4 266.35 197.7 267.05 198.6 267.2 202.25 267.05 205.85 266.15 M203.15 256.05 Q203.5 254.4 205.35 253.55 L205.9 253.4 Q207.1 253.15 207.6 253.7 L208.7 254.8 Q209.75 256.2 211.5 255.4 L212.2 255.15 215.05 254.25 216.35 253.95 Q217.95 253.7 218.45 254.7 L219.05 255.3 219.6 255.65 Q220.3 256.45 221.4 256.35 L222.35 256.2 224.15 255.75 225.0 255.55 229.2 255.85 230.5 256.05 236.85 255.8 238.75 255.85 240.5 256.05 247.35 255.65" fill="none" stroke="#99cce3" stroke-linecap="round" stroke-linejoin="round" stroke-opacity="0.17254902" stroke-width="1.0"/>
    <path d="M344.0 110.15 L347.15 110.2 Q347.7 110.25 348.05 110.95 M364.05 146.35 Q365.3 146.25 366.35 146.7 M191.3 85.25 L194.95 85.25 M215.45 130.65 L218.6 130.65 M240.05 162.8 L243.7 162.6 M333.95 119.8 Q334.05 120.7 335.0 120.0 L335.75 119.8 M304.3 143.5 L307.05 143.65 M271.95 104.55 L274.2 104.55 M299.75 181.3 L302.95 181.7 M149.35 159.6 L152.55 159.6 M256.0 209.45 L257.4 209.6 Q258.25 209.65 258.9 209.25 L259.65 209.05 M190.4 198.2 L194.0 198.2" fill="none" stroke="#475769" stroke-linecap="round" stroke-linejoin="round" stroke-width="1.0"/>
    <path d="M347.15 110.2 Q348.15 107.55 349.7 109.15 L350.25 109.45 350.8 109.75 M365.4 145.5 Q366.55 143.25 368.55 145.5 L369.05 145.9 M325.75 77.2 Q326.25 76.25 327.25 75.85 L328.0 75.8 Q329.25 75.85 329.35 76.75 M193.55 84.4 Q194.4 82.95 196.7 83.35 L197.25 83.6 197.7 84.0 M217.25 129.45 L220.6 129.35 M192.65 197.4 Q193.1 195.95 194.85 197.0 L195.2 197.45 Q195.3 198.05 196.3 197.8 M241.45 161.2 Q241.55 160.5 242.3 160.3 L242.8 160.2 243.35 160.35 244.65 161.2 M334.85 119.0 L335.65 118.15 Q337.0 117.9 337.3 118.95 M307.05 142.3 Q306.45 143.25 307.4 141.85 308.2 140.7 308.75 141.3 L309.3 141.6 309.75 141.95 310.25 142.7 M273.75 103.3 Q274.5 101.65 276.05 102.55 L276.6 102.8 277.45 102.9 M301.6 180.5 Q302.05 179.1 304.25 179.45 L304.8 179.6 305.65 179.7 M151.65 158.4 Q152.6 156.25 154.5 157.9 L155.3 158.4 M257.85 208.65 Q258.45 207.6 259.7 207.3 L260.15 207.35 261.9 207.85" fill="none" stroke="#85adad" stroke-linecap="round" stroke-linejoin="round" stroke-width="1.0"/>
  </g>
  <defs>
    <radialGradient cx="0" cy="0" gradientTransform="matrix(0.0046, 0.2296, -0.5187, 0.008, 191.55, 147.0)" gradientUnits="userSpaceOnUse" id="gradient0" r="819.2" spreadMethod="pad">
      <stop offset="0.0" stop-color="#73858c"/>
      <stop offset="0.36470588235294116" stop-color="#546369"/>
      <stop offset="0.7490196078431373" stop-color="#263a4a"/>
      <stop offset="1.0" stop-color="#19263d"/>
    </radialGradient>
    <radialGradient cx="0" cy="0" gradientTransform="matrix(0.1408, 0.0, 0.0, 0.1242, 97.75, 25.0)" gradientUnits="userSpaceOnUse" id="gradient1" r="819.2" spreadMethod="pad">
      <stop offset="0.0" stop-color="#73858c"/>
      <stop offset="0.36470588235294116" stop-color="#023839"/>
      <stop offset="1.0" stop-color="#022827"/>
    </radialGradient>
    <radialGradient cx="0" cy="0" gradientTransform="matrix(0.1358, 0.0, 0.0, 0.1198, 302.65, 33.2)" gradientUnits="userSpaceOnUse" id="gradient2" r="819.2" spreadMethod="pad">
      <stop offset="0.0" stop-color="#73858c"/>
      <stop offset="0.36470588235294116" stop-color="#023839"/>
      <stop offset="1.0" stop-color="#022827"/>
    </radialGradient>
    <radialGradient cx="0" cy="0" gradientTransform="matrix(0.2871, 0.0, 0.0, 0.2044, 194.45, 133.85)" gradientUnits="userSpaceOnUse" id="gradient3" r="819.2" spreadMethod="pad">
      <stop offset="0.0" stop-color="#467797"/>
      <stop offset="0.36470588235294116" stop-color="#204468"/>
      <stop offset="0.7490196078431373" stop-color="#263a4a"/>
      <stop offset="1.0" stop-color="#19263d"/>
    </radialGradient>
    <radialGradient cx="0" cy="0" gradientTransform="matrix(0.0046, 0.2296, -0.5187, 0.008, 191.55, 147.0)" gradientUnits="userSpaceOnUse" id="gradient4" r="819.2" spreadMethod="pad">
      <stop offset="0.0" stop-color="#73858c"/>
      <stop offset="0.36470588235294116" stop-color="#546369"/>
      <stop offset="0.7490196078431373" stop-color="#263a4a"/>
      <stop offset="1.0" stop-color="#19263d"/>
    </radialGradient>
    <radialGradient cx="0" cy="0" gradientTransform="matrix(0.2871, 0.0, 0.0, 0.2044, 194.45, 133.85)" gradientUnits="userSpaceOnUse" id="gradient5" r="819.2" spreadMethod="pad">
      <stop offset="0.0" stop-color="#467797" stop-opacity="0.8"/>
      <stop offset="0.36470588235294116" stop-color="#204468" stop-opacity="0.8"/>
      <stop offset="0.7490196078431373" stop-color="#263a4a" stop-opacity="0.88235295"/>
      <stop offset="1.0" stop-color="#19263d" stop-opacity="0.9529412"/>
    </radialGradient>
    <radialGradient cx="0" cy="0" gradientTransform="matrix(0.1408, 0.0, 0.0, 0.1242, 236.25, 40.15)" gradientUnits="userSpaceOnUse" id="gradient6" r="819.2" spreadMethod="pad">
      <stop offset="0.0" stop-color="#73858c"/>
      <stop offset="0.36470588235294116" stop-color="#023839"/>
      <stop offset="1.0" stop-color="#022827"/>
    </radialGradient>
  </defs>
</svg>
