<?xml version="1.0" encoding="UTF-8" standalone="no"?>
<svg xmlns:xlink="http://www.w3.org/1999/xlink" height="131.4px" width="252.75px" xmlns="http://www.w3.org/2000/svg">
  <g transform="matrix(1.0, 0.0, 0.0, 1.0, -65.9, -85.9)">
    <path d="M261.4 116.2 L261.3 116.2 261.35 116.1 261.4 116.2" fill="url(#gradient0)" fill-rule="evenodd" stroke="none"/>
    <path d="M175.0 90.7 L195.05 90.0 216.5 91.15 Q226.5 92.25 236.35 94.15 245.75 96.1 254.8 99.05 263.5 101.95 271.7 105.75 279.2 109.25 286.15 113.85 294.65 119.35 300.95 126.5 307.6 133.95 309.75 143.0 L310.7 150.65 310.7 151.0 310.5 154.5 Q309.7 164.05 304.15 172.15 299.05 179.55 291.35 185.35 284.3 190.65 276.2 194.75 267.5 199.2 258.05 202.55 248.25 206.05 238.05 208.15 227.3 210.5 216.3 211.5 L198.85 212.55 Q189.9 212.75 180.85 212.35 L163.7 210.9 Q152.9 209.65 142.4 207.0 132.5 204.55 123.0 200.7 113.85 197.1 105.35 192.35 95.85 187.1 88.5 180.15 80.75 172.95 77.25 163.5 73.9 154.45 75.65 145.15 77.4 135.6 83.7 127.9 89.65 120.55 97.7 114.95 105.3 109.7 113.85 105.75 L117.7 104.05 Q124.85 101.0 132.45 98.55 142.4 95.35 152.85 93.5 163.75 91.4 175.0 90.7 M261.4 116.2 L261.35 116.1 261.3 116.2 261.4 116.2" fill="url(#gradient1)" fill-rule="evenodd" stroke="none"/>
    <path d="M246.3 92.05 Q257.0 94.7 267.2 98.65 277.05 102.4 286.1 107.6 294.25 112.25 301.2 118.0 308.55 124.2 313.4 132.4 318.8 141.4 318.65 151.6 L317.9 158.35 Q316.7 166.7 311.6 173.95 306.0 181.95 297.9 188.05 290.3 193.75 281.7 198.2 272.35 203.0 262.15 206.5 251.7 210.15 240.7 212.5 232.15 214.35 223.5 215.45 L205.1 217.0 Q195.5 217.45 185.8 217.25 L167.05 216.1 149.5 213.65 132.9 209.8 Q122.35 206.9 112.45 202.6 102.95 198.5 94.2 193.2 86.65 188.55 80.3 182.6 73.45 176.1 69.6 167.9 65.85 160.1 65.9 151.6 66.0 141.35 71.2 132.4 76.0 124.15 83.4 117.95 90.4 112.15 98.45 107.6 107.5 102.45 117.35 98.65 127.55 94.75 138.3 92.05 146.65 89.95 155.2 88.65 L173.2 86.65 192.2 85.9 211.4 86.65 229.35 88.65 Q237.9 90.05 246.3 92.05 M167.85 89.1 L186.0 88.0 Q195.25 87.75 204.6 88.2 L222.45 89.8 Q233.6 91.15 244.55 93.9 255.1 96.45 264.8 100.3 274.4 104.0 283.15 108.95 291.0 113.35 297.8 119.0 305.05 125.05 309.65 132.95 314.6 141.65 314.6 151.55 314.8 158.15 312.45 164.35 309.4 172.4 303.3 178.85 296.3 186.35 287.3 191.9 278.85 197.05 269.55 201.0 260.05 205.15 249.8 207.95 239.25 210.95 228.15 212.65 L210.65 214.6 192.15 215.2 173.75 214.6 156.35 212.65 Q145.5 210.9 134.75 207.95 124.55 205.1 114.9 201.0 105.7 197.15 97.2 191.9 88.2 186.3 81.2 178.9 75.05 172.35 72.1 164.25 68.75 154.95 70.5 145.2 72.3 135.3 78.9 127.25 85.0 119.6 93.5 113.8 101.3 108.45 110.25 104.35 119.75 99.95 129.6 96.8 140.0 93.4 150.75 91.55 L167.85 89.1 150.75 91.55 Q140.0 93.4 129.6 96.8 119.75 99.95 110.25 104.35 101.3 108.45 93.5 113.8 85.0 119.6 78.9 127.25 72.3 135.3 70.5 145.2 68.75 154.95 72.1 164.25 75.05 172.35 81.2 178.9 88.2 186.3 97.2 191.9 105.7 197.15 114.9 201.0 124.55 205.1 134.75 207.95 145.5 210.9 156.35 212.65 L173.75 214.6 192.15 215.2 210.65 214.6 228.15 212.65 Q239.25 210.95 249.8 207.95 260.05 205.15 269.55 201.0 278.85 197.05 287.3 191.9 296.3 186.35 303.3 178.85 309.4 172.4 312.45 164.35 314.8 158.15 314.6 151.55 314.6 141.65 309.65 132.95 305.05 125.05 297.8 119.0 291.0 113.35 283.15 108.95 274.4 104.0 264.8 100.3 255.1 96.45 244.55 93.9 233.6 91.15 222.45 89.8 L204.6 88.2 Q195.25 87.75 186.0 88.0 L167.85 89.1 M175.0 90.7 Q163.75 91.4 152.85 93.5 142.4 95.35 132.45 98.55 124.85 101.0 117.7 104.05 L113.85 105.75 Q105.3 109.7 97.7 114.95 89.65 120.55 83.7 127.9 77.4 135.6 75.65 145.15 73.9 154.45 77.25 163.5 80.75 172.95 88.5 180.15 95.85 187.1 105.35 192.35 113.85 197.1 123.0 200.7 132.5 204.55 142.4 207.0 152.9 209.65 163.7 210.9 L180.85 212.35 Q189.9 212.75 198.85 212.55 L216.3 211.5 Q227.3 210.5 238.05 208.15 248.25 206.05 258.05 202.55 267.5 199.2 276.2 194.75 284.3 190.65 291.35 185.35 299.05 179.55 304.15 172.15 309.7 164.05 310.5 154.5 L310.7 151.0 310.7 150.65 309.75 143.0 Q307.6 133.95 300.95 126.5 294.65 119.35 286.15 113.85 279.2 109.25 271.7 105.75 263.5 101.95 254.8 99.05 245.75 96.1 236.35 94.15 226.5 92.25 216.5 91.15 L195.05 90.0 175.0 90.7 M195.45 89.5 L195.05 90.0 195.45 89.5 M272.4 105.0 L271.7 105.75 272.4 105.0" fill="#406387" fill-rule="evenodd" stroke="none"/>
    <path d="M175.0 90.7 Q163.75 91.4 152.85 93.5 142.4 95.35 132.45 98.55 124.85 101.0 117.7 104.05 L113.85 105.75 Q105.3 109.7 97.7 114.95 89.65 120.55 83.7 127.9 77.4 135.6 75.65 145.15 73.9 154.45 77.25 163.5 80.75 172.95 88.5 180.15 95.85 187.1 105.35 192.35 113.85 197.1 123.0 200.7 132.5 204.55 142.4 207.0 152.9 209.65 163.7 210.9 L180.85 212.35 Q189.9 212.75 198.85 212.55 L216.3 211.5 Q227.3 210.5 238.05 208.15 248.25 206.05 258.05 202.55 267.5 199.2 276.2 194.75 284.3 190.65 291.35 185.35 299.05 179.55 304.15 172.15 309.7 164.05 310.5 154.5 L310.7 151.0 310.7 150.65 309.75 143.0 Q307.6 133.95 300.95 126.5 294.65 119.35 286.15 113.85 279.2 109.25 271.7 105.75 263.5 101.95 254.8 99.05 245.75 96.1 236.35 94.15 226.5 92.25 216.5 91.15 L195.05 90.0 175.0 90.7 M195.05 90.0 L195.45 89.5 M261.4 116.2 L261.35 116.1 261.3 116.2 261.4 116.2 M271.7 105.75 L272.4 105.0" fill="none" stroke="#00ccff" stroke-linecap="round" stroke-linejoin="round" stroke-width="0.05"/>
    <path d="M167.85 89.1 L150.75 91.55 Q140.0 93.4 129.6 96.8 119.75 99.95 110.25 104.35 101.3 108.45 93.5 113.8 85.0 119.6 78.9 127.25 72.3 135.3 70.5 145.2 68.75 154.95 72.1 164.25 75.05 172.35 81.2 178.9 88.2 186.3 97.2 191.9 105.7 197.15 114.9 201.0 124.55 205.1 134.75 207.95 145.5 210.9 156.35 212.65 L173.75 214.6 192.15 215.2 210.65 214.6 228.15 212.65 Q239.25 210.95 249.8 207.95 260.05 205.15 269.55 201.0 278.85 197.05 287.3 191.9 296.3 186.35 303.3 178.85 309.4 172.4 312.45 164.35 314.8 158.15 314.6 151.55 314.6 141.65 309.65 132.95 305.05 125.05 297.8 119.0 291.0 113.35 283.15 108.95 274.4 104.0 264.8 100.3 255.1 96.45 244.55 93.9 233.6 91.15 222.45 89.8 L204.6 88.2 Q195.25 87.75 186.0 88.0 L167.85 89.1" fill="none" stroke="#9cded9" stroke-linecap="round" stroke-linejoin="round" stroke-width="1.0"/>
    <path d="M229.05 125.8 Q226.7 124.6 226.7 122.9 226.7 121.2 229.05 119.85 231.65 118.6 234.95 118.6 238.25 118.6 240.6 119.85 243.2 121.2 243.2 122.9 243.2 124.6 240.6 125.8 238.25 127.15 234.95 127.15 231.65 127.15 229.05 125.8 M177.35 178.3 Q197.4 172.9 215.1 174.5 225.05 175.45 234.0 178.3 244.85 182.2 255.25 183.65 276.95 186.45 298.4 178.5 310.45 166.3 310.7 151.55 276.7 141.2 238.5 151.55 186.8 165.35 144.1 151.55 109.4 138.4 74.7 151.55 75.15 176.45 109.4 194.15 143.85 211.95 192.7 211.95 241.55 211.95 276.25 194.15 290.15 186.95 298.4 178.5 M310.7 151.55 L310.7 150.95 Q310.7 125.7 276.25 107.9 241.55 89.95 192.7 89.95 143.85 89.95 109.4 107.9 95.45 114.95 87.2 123.25 107.75 118.0 125.45 119.6 135.35 120.55 144.3 123.4 155.15 127.3 165.55 128.75 187.5 131.55 209.2 123.4 M74.7 151.55 L74.7 150.95 Q74.7 135.7 87.2 123.25 M142.9 173.5 Q145.75 173.5 147.85 174.6 150.0 175.7 150.0 177.2 150.0 178.65 147.85 179.75 145.75 180.85 142.9 180.85 140.05 180.85 137.95 179.75 135.8 178.65 135.8 177.2 135.8 175.7 137.95 174.6 140.05 173.5 142.9 173.5" fill="none" stroke="#00ccff" stroke-linecap="round" stroke-linejoin="round" stroke-width="1.0"/>
  </g>
  <defs>
    <radialGradient cx="0" cy="0" gradientTransform="matrix(0.1455, 0.0, 0.0, 0.0754, 192.85, 151.3)" gradientUnits="userSpaceOnUse" id="gradient0" r="819.2" spreadMethod="pad">
      <stop offset="0.0" stop-color="#70185f"/>
      <stop offset="0.5372549019607843" stop-color="#260855"/>
      <stop offset="1.0" stop-color="#180536"/>
    </radialGradient>
    <radialGradient cx="0" cy="0" gradientTransform="matrix(0.144, 0.0, 0.0, 0.1272, 192.9, 151.3)" gradientUnits="userSpaceOnUse" id="gradient1" r="819.2" spreadMethod="pad">
      <stop offset="0.0" stop-color="#3ec2e3"/>
      <stop offset="1.0" stop-color="#266fd9"/>
    </radialGradient>
  </defs>
</svg>
