<?xml version="1.0" encoding="UTF-8" standalone="no"?>
<svg xmlns:xlink="http://www.w3.org/1999/xlink" height="256.2px" width="427.15px" xmlns="http://www.w3.org/2000/svg">
  <g transform="matrix(1.0, 0.0, 0.0, 1.0, 19.5, 0.75)">
    <path d="M65.85 34.15 L64.7 26.95 Q63.55 28.4 62.75 30.0 61.9 31.6 61.5 33.4 61.3 34.25 61.25 35.15 L61.9 36.25 61.75 37.5 57.15 32.3 59.45 41.0 58.85 41.55 55.6 41.45 55.4 42.15 53.4 42.4 Q52.45 41.55 51.05 41.35 48.95 41.65 47.35 43.0 43.4 40.4 40.5 43.45 39.85 44.15 39.55 45.15 L36.95 45.4 Q31.2 37.85 22.4 37.15 2.75 23.7 -13.55 35.8 L-15.35 35.8 -15.35 3.0 -14.05 -0.55 -13.95 -0.75 407.65 -0.75 407.65 62.55 Q398.45 60.65 389.25 60.1 381.0 60.15 373.85 56.4 359.45 48.65 342.1 48.85 L341.65 49.6 Q340.3 51.75 337.9 52.45 336.15 52.85 335.0 53.95 L333.85 55.05 331.45 55.1 330.7 53.1 326.65 58.85 325.5 51.95 319.7 62.3 Q320.3 54.8 319.65 47.45 318.5 33.9 305.8 41.2 300.55 44.2 295.05 41.8 279.55 34.9 266.2 40.1 266.45 43.95 263.9 46.65 L259.75 50.15 Q259.2 50.45 258.8 51.05 254.45 52.4 250.0 53.2 242.65 54.75 235.85 52.2 L234.95 49.95 218.9 48.0 218.4 48.5 216.5 48.05 Q210.3 44.65 203.55 42.9 188.6 39.15 173.75 38.85 L169.45 41.9 169.15 42.05 Q166.5 42.55 165.2 44.9 164.25 46.55 164.0 48.45 L163.75 49.95 162.75 50.8 160.45 47.9 159.85 52.4 157.6 57.4 155.0 52.2 154.1 52.0 152.75 56.15 151.45 56.15 149.0 52.3 147.75 51.95 146.6 59.45 Q143.2 58.55 140.95 55.75 139.5 54.0 139.0 51.9 L138.95 51.75 138.9 51.9 136.6 59.3 135.1 58.4 Q133.05 57.0 131.95 54.75 L131.4 53.75 131.1 53.35 127.7 54.55 126.55 51.75 125.3 51.1 118.9 54.25 Q117.5 52.4 117.85 49.8 118.15 47.7 117.0 45.85 L116.2 44.55 114.25 52.5 Q112.2 49.45 112.05 45.95 111.9 43.35 110.55 41.25 109.2 39.05 107.15 37.35 L105.4 37.05 Q102.35 36.85 99.7 38.3 98.25 39.1 96.65 39.5 L96.2 39.65 Q93.2 38.65 91.05 37.0 87.9 34.6 84.3 37.0 L82.8 38.0 81.8 37.05 Q80.5 35.1 80.45 32.35 L80.2 28.85 73.85 36.35 76.2 27.7 69.25 35.8 70.9 27.5 70.4 26.55 69.45 27.35 Q67.25 29.2 66.4 32.0 L65.85 34.15" fill="#230132" fill-opacity="0.42352942" fill-rule="evenodd" stroke="none"/>
    <path d="M65.85 34.15 L65.85 34.3 65.85 34.15" fill="#2e371e" fill-rule="evenodd" stroke="none"/>
    <path d="M406.5 254.3 L-13.05 254.3 -13.05 3.85 406.5 3.85 406.5 254.3" fill="url(#gradient0)" fill-rule="evenodd" stroke="none"/>
    <path d="M381.6 68.25 L381.55 68.3 381.25 67.9 381.6 68.25 M324.65 47.5 L324.55 47.6 Q324.3 47.45 324.2 47.15 L324.65 47.5" fill="#845125" fill-rule="evenodd" stroke="none"/>
    <path d="M350.55 27.65 L350.9 27.7 350.55 30.05 350.55 27.65 M58.1 22.5 L58.0 22.65 57.95 22.6 58.1 22.5 M293.7 37.35 L293.8 37.3 293.8 37.45 293.7 37.35" fill="#3d2312" fill-rule="evenodd" stroke="none"/>
    <path d="M169.15 28.95 L169.4 29.1 168.9 29.9 169.15 28.95" fill="#2d2717" fill-rule="evenodd" stroke="none"/>
    <path d="M331.3 57.1 L331.45 57.65 331.35 57.7 331.3 57.1 M381.25 67.9 L381.6 68.25 381.25 67.9" fill="url(#gradient1)" fill-rule="evenodd" stroke="none"/>
    <path d="M396.35 1.0 L396.35 6.5 Q396.05 18.4 394.25 30.2 392.15 25.15 391.2 19.7 390.1 13.15 392.1 7.1 L392.25 1.0 396.35 1.0 M381.8 28.7 L380.9 23.2 Q379.25 12.25 379.65 1.0 L388.4 1.0 388.2 7.0 Q387.5 18.65 381.8 28.7 M362.85 1.0 L362.95 3.15 Q363.15 11.7 359.25 19.35 L355.85 1.0 362.85 1.0 M351.45 1.0 L351.85 6.15 Q352.65 16.95 350.55 27.65 L350.55 30.05 Q350.0 34.65 347.5 38.6 L346.95 39.15 Q344.1 37.9 344.05 34.45 L344.0 32.3 341.3 38.75 341.3 33.15 Q341.4 24.7 342.35 16.35 343.25 8.7 343.35 1.0 L351.45 1.0 M338.9 1.0 Q337.05 10.0 336.65 19.15 336.35 25.4 333.05 30.5 L328.15 35.3 Q326.5 28.25 326.2 21.1 325.8 11.0 326.0 1.0 L338.9 1.0 M91.5 23.3 L87.05 23.2 Q87.3 14.25 89.3 5.5 L90.4 1.0 101.35 1.0 100.8 4.05 Q98.6 15.05 91.5 23.3 M80.7 23.0 L76.9 21.65 75.6 22.15 76.4 16.35 Q75.25 16.8 74.2 17.4 72.65 18.2 71.4 19.5 70.0 20.95 69.25 22.5 70.15 16.65 73.9 12.1 L71.4 13.15 Q67.65 14.95 64.8 17.95 L64.4 12.65 66.5 1.0 84.85 1.0 84.9 3.0 Q84.75 13.4 80.7 23.0 M55.15 17.5 L53.1 16.7 52.55 26.95 Q47.45 17.5 45.95 6.85 L45.3 1.0 59.4 1.0 55.15 17.5 M-14.2 30.1 L-14.2 1.0 -7.8 1.0 Q-7.35 7.75 -8.55 14.55 -9.25 18.45 -10.65 22.2 -12.15 26.25 -14.2 30.1 M7.75 1.0 L13.6 1.0 13.8 3.4 Q14.4 12.85 12.55 22.0 10.55 18.55 9.85 14.65 8.65 7.85 7.75 1.0 M20.6 1.0 L27.95 1.0 25.25 19.95 20.6 1.0 M118.2 1.0 L123.65 1.0 117.65 22.1 118.2 1.0 M128.15 1.0 L136.0 1.0 135.0 22.05 Q134.8 25.9 132.65 28.85 L131.0 23.3 Q127.95 12.4 128.15 1.0 M154.3 1.0 L163.35 1.0 164.3 23.65 162.2 23.65 158.6 30.05 Q155.8 24.65 155.05 18.75 153.95 10.05 154.3 1.0 M171.05 1.0 L178.0 1.0 178.25 21.05 177.0 18.9 Q172.3 10.55 171.05 1.0 M197.5 1.0 L214.15 1.0 205.0 25.8 202.8 20.75 Q198.9 11.2 197.5 1.0 M225.15 1.0 L235.85 1.0 237.5 14.0 231.4 26.1 232.6 19.0 Q227.25 20.65 224.1 25.3 222.7 27.35 222.2 30.0 L221.65 17.85 219.85 21.2 225.15 1.0 M274.3 1.0 L288.3 1.0 288.05 7.0 Q287.2 18.35 281.85 28.45 L279.95 23.15 Q276.15 12.35 274.3 1.0 M294.4 1.0 L309.4 1.0 309.3 12.7 Q309.3 23.65 304.5 33.35 L303.6 28.25 300.95 30.7 Q299.3 32.5 298.3 34.4 L297.8 35.2 298.75 28.0 296.3 29.9 295.25 22.25 Q294.1 11.55 294.4 1.0 M252.4 32.6 Q252.6 29.8 252.95 27.05 253.75 21.05 256.45 16.0 L257.45 19.8 Q259.45 27.15 259.05 34.6 L255.7 27.1 252.4 32.6" fill="url(#gradient2)" fill-rule="evenodd" stroke="none"/>
    <path d="M396.35 1.0 L407.65 1.0 407.65 68.85 Q406.4 69.45 405.25 70.2 404.15 70.9 403.55 71.95 399.8 78.55 397.7 86.05 397.15 88.1 394.85 88.75 L391.2 85.4 Q390.0 79.75 392.65 74.7 393.05 73.95 393.75 73.45 396.95 71.15 398.05 67.4 399.5 62.65 394.85 60.3 L392.95 60.65 Q385.95 62.35 381.6 68.25 L381.25 67.9 379.9 68.7 375.65 78.8 Q374.35 81.7 371.1 82.5 L370.15 78.1 Q369.45 74.8 370.0 71.45 370.95 65.5 370.6 59.75 L368.7 59.5 Q367.65 59.5 366.85 60.05 361.2 64.35 354.9 66.95 L352.5 65.2 356.45 60.9 354.95 61.15 353.8 57.1 349.9 61.7 348.4 60.85 346.75 53.45 348.5 52.7 344.2 52.2 Q341.95 52.3 340.25 53.6 336.25 56.7 331.45 57.65 L331.3 57.1 Q336.55 48.2 345.25 43.1 350.95 39.8 353.5 33.65 L359.25 19.35 Q363.15 11.7 362.95 3.15 L362.85 1.0 379.65 1.0 Q379.25 12.25 380.9 23.2 L381.8 28.7 385.4 40.4 388.5 38.75 Q393.3 36.0 394.25 30.25 L394.25 30.2 Q396.05 18.4 396.35 6.5 L396.35 1.0 M326.0 1.0 Q325.8 11.0 326.2 21.1 326.5 28.25 328.15 35.3 L330.75 39.4 324.65 47.5 324.2 47.15 318.0 50.2 319.15 43.85 312.85 48.05 308.75 36.9 308.65 38.7 308.3 40.4 Q307.1 44.25 304.25 46.3 L303.7 46.6 301.85 42.7 298.4 47.3 297.25 45.0 294.35 47.6 292.85 47.55 289.15 43.25 287.2 46.5 281.65 42.1 282.25 46.15 274.25 41.35 274.65 49.0 273.95 50.1 278.45 52.3 Q275.85 54.2 272.95 52.6 L272.0 52.05 270.75 52.95 267.8 49.05 266.65 54.2 263.75 50.95 261.85 51.05 262.4 56.0 Q259.45 54.45 256.35 55.8 L255.5 56.25 254.9 62.9 252.05 63.5 245.6 54.45 Q241.5 56.65 240.55 61.55 L240.15 63.4 240.55 63.55 240.7 63.95 240.7 64.35 238.3 66.1 237.8 65.8 Q235.05 63.65 232.15 61.75 231.35 61.2 230.35 61.0 L226.55 56.3 220.55 54.35 219.25 54.9 Q212.6 53.65 206.7 56.8 L202.95 58.85 191.05 64.6 192.8 56.5 202.65 50.1 Q199.65 48.8 198.15 45.95 L197.4 44.4 Q192.85 45.25 189.65 48.6 L188.1 49.85 Q181.7 53.8 174.3 55.35 177.85 47.8 185.75 44.75 L185.75 44.4 Q185.25 42.85 183.7 42.7 176.7 41.55 170.6 45.0 L167.05 47.25 159.15 44.65 158.75 43.25 151.8 46.7 Q150.65 43.1 152.65 39.8 L153.25 38.75 145.45 45.55 144.15 33.45 140.85 41.5 137.35 31.7 Q137.2 38.3 132.6 42.65 L131.2 43.75 134.4 51.45 130.0 49.25 127.0 47.4 Q123.15 45.15 119.0 43.65 113.65 41.7 108.05 40.45 104.6 42.7 104.0 46.7 L103.85 47.8 102.75 47.85 92.25 56.65 89.35 54.95 90.6 52.95 Q91.95 51.0 93.7 49.5 96.65 47.0 95.85 43.35 L95.55 42.45 Q88.85 40.85 82.25 43.35 78.4 44.7 75.05 47.3 L73.9 47.3 Q71.85 42.6 74.25 38.05 L74.6 37.75 80.75 37.95 91.5 23.3 Q98.6 15.05 100.8 4.05 L101.35 1.0 118.2 1.0 117.65 22.1 Q118.1 30.95 121.9 32.2 125.65 33.45 126.5 34.85 L132.65 28.85 Q134.8 25.9 135.0 22.05 L136.0 1.0 154.3 1.0 Q153.95 10.05 155.05 18.75 155.8 24.65 158.6 30.05 L159.35 31.35 Q162.8 36.9 168.3 40.1 L170.5 37.75 Q174.35 33.8 176.1 28.9 L178.25 21.05 178.0 1.0 197.5 1.0 Q198.9 11.2 202.8 20.75 L205.0 25.8 210.95 36.15 Q218.85 40.15 225.9 34.55 227.5 33.25 228.45 31.4 229.7 29.05 231.1 27.45 L231.4 26.1 237.5 14.0 243.5 1.0 262.0 1.0 262.0 4.2 263.2 1.0 274.3 1.0 Q276.15 12.35 279.95 23.15 L281.85 28.45 Q283.35 32.75 286.7 35.95 L288.45 37.55 296.95 43.3 304.5 33.35 Q309.3 23.65 309.3 12.7 L309.4 1.0 326.0 1.0 M52.55 26.95 L61.75 36.9 62.6 38.55 Q65.6 43.25 65.2 49.1 57.05 44.7 48.35 41.0 L45.45 41.15 42.25 42.6 Q41.05 43.0 40.7 44.95 39.75 50.4 34.9 53.45 L33.8 51.6 34.1 51.0 Q35.3 47.9 33.55 44.95 L34.6 44.3 Q30.9 38.8 24.35 39.8 L21.9 43.05 Q13.55 52.05 1.75 49.6 6.05 44.95 11.95 43.0 L13.9 42.0 Q17.5 39.25 14.65 35.05 L12.85 34.85 10.7 36.95 7.95 35.2 7.5 33.6 2.35 37.45 2.35 28.8 -1.15 34.6 -3.15 22.45 Q-2.35 33.55 -12.65 38.05 L-13.4 37.85 Q-16.9 35.6 -16.7 31.2 L-14.2 30.1 Q-12.15 26.25 -10.65 22.2 -9.25 18.45 -8.55 14.55 -7.35 7.75 -7.8 1.0 L7.75 1.0 Q8.65 7.85 9.85 14.65 10.55 18.55 12.55 22.0 15.05 26.15 19.3 28.85 L20.35 29.55 25.25 19.95 27.95 1.0 45.3 1.0 45.95 6.85 Q47.45 17.5 52.55 26.95 M259.05 34.6 Q259.45 27.15 257.45 19.8 L256.45 16.0 Q253.75 21.05 252.95 27.05 252.6 29.8 252.4 32.6 252.8 38.7 255.15 44.4 L256.4 47.15 257.95 47.2 259.05 34.6" fill="url(#gradient3)" fill-rule="evenodd" stroke="none"/>
    <path d="M394.25 30.2 L394.25 30.25 Q393.3 36.0 388.5 38.75 L385.4 40.4 381.8 28.7 Q387.5 18.65 388.2 7.0 L388.4 1.0 392.25 1.0 392.1 7.1 Q390.1 13.15 391.2 19.7 392.15 25.15 394.25 30.2 M359.25 19.35 L353.5 33.65 350.9 27.7 350.55 27.65 Q352.65 16.95 351.85 6.15 L351.45 1.0 355.85 1.0 359.25 19.35 M343.35 1.0 Q343.25 8.7 342.35 16.35 341.4 24.7 341.3 33.15 L341.3 38.75 340.9 39.5 Q340.2 40.05 339.45 40.05 L338.65 40.05 337.85 39.75 337.65 37.55 Q337.3 34.3 335.3 31.7 L333.05 30.5 Q336.35 25.4 336.65 19.15 337.05 10.0 338.9 1.0 L343.35 1.0 M87.05 23.2 L80.7 23.0 Q84.75 13.4 84.9 3.0 L84.85 1.0 90.4 1.0 89.3 5.5 Q87.3 14.25 87.05 23.2 M64.4 12.65 L62.95 12.65 61.3 14.95 Q59.05 18.4 58.1 22.5 L57.95 22.6 55.15 17.5 59.4 1.0 66.5 1.0 64.4 12.65 M13.6 1.0 L20.6 1.0 25.25 19.95 20.35 29.55 19.3 28.85 Q15.05 26.15 12.55 22.0 14.4 12.85 13.8 3.4 L13.6 1.0 M123.65 1.0 L128.15 1.0 Q127.95 12.4 131.0 23.3 L132.65 28.85 126.5 34.85 Q125.65 33.45 121.9 32.2 118.1 30.95 117.65 22.1 L123.65 1.0 M163.35 1.0 L171.05 1.0 Q172.3 10.55 177.0 18.9 L178.25 21.05 176.1 28.9 173.15 23.05 169.4 29.1 169.15 28.95 Q171.95 20.7 167.95 13.25 L168.65 16.35 Q169.65 22.9 164.4 26.95 L164.3 23.65 163.35 1.0 M214.15 1.0 L225.15 1.0 219.85 21.2 217.05 31.95 211.8 21.35 212.1 23.25 Q213.15 29.9 210.95 36.15 L205.0 25.8 214.15 1.0 M235.85 1.0 L243.5 1.0 237.5 14.0 235.85 1.0 M288.3 1.0 L294.4 1.0 Q294.1 11.55 295.25 22.25 L296.3 29.9 293.8 37.3 293.7 37.35 290.3 27.1 288.45 37.55 286.7 35.95 Q283.35 32.75 281.85 28.45 287.2 18.35 288.05 7.0 L288.3 1.0" fill="#6a0297" fill-opacity="0.42352942" fill-rule="evenodd" stroke="none"/>
    <path d="M308.95 38.65 Q311.8 26.95 317.55 17.05 318.05 16.2 319.05 15.6 322.9 16.8 324.65 20.4 L325.8 23.05 Q327.15 26.6 327.8 30.45 331.15 49.35 331.95 68.55 332.05 70.6 330.9 72.25 329.75 73.9 327.85 74.25 L324.95 72.1 323.8 75.0 321.45 71.55 320.3 75.25 320.05 74.0 319.6 72.85 319.05 71.75 Q317.85 69.85 316.3 68.65 L316.0 70.1 313.4 73.0 309.05 70.75 307.05 67.5 308.6 43.85 308.95 38.65 308.9 38.65 308.95 38.65 313.15 37.0 315.2 33.5 316.45 36.15 317.6 35.85 317.35 38.25 318.1 41.55 315.2 39.75 311.2 42.15 308.6 43.85 311.2 42.15 315.2 39.75 318.1 41.55 317.35 38.25 317.6 35.85 316.45 36.15 315.2 33.5 313.15 37.0 308.95 38.65 312.4 39.15 311.2 42.15 312.4 39.15 308.95 38.65 M326.2 61.2 L325.6 57.6 329.65 56.55 325.6 57.6 326.2 61.2 M342.2 227.85 L350.25 236.95 348.3 238.85 334.75 237.65 336.35 233.05 337.25 231.65 Q338.3 230.5 339.5 229.65 340.8 228.65 342.2 227.85 M319.85 19.05 L323.5 24.3 319.85 19.05 M325.8 23.05 L323.5 24.3 317.55 24.25 323.5 24.3 325.8 23.05 M325.05 42.7 L323.35 35.35 323.75 27.05 323.35 35.35 325.05 42.7 M317.35 38.25 L316.45 36.15 313.15 37.0 312.4 39.15 315.2 39.75 317.35 38.25 315.2 39.75 312.4 39.15 313.15 37.0 316.45 36.15 317.35 38.25 M315.2 45.0 L316.65 45.4 316.7 47.0 314.25 47.35 313.6 46.15 314.65 45.6 313.6 46.15 314.25 47.35 316.7 47.0 316.65 45.4 315.2 45.0 M312.9 28.85 Q316.2 31.75 319.65 29.55 320.5 28.9 320.6 27.7 L323.75 27.05 320.6 27.7 Q320.5 28.9 319.65 29.55 316.2 31.75 312.9 28.85 M323.75 27.05 L323.5 24.3 323.75 27.05 Q324.4 26.3 324.45 27.45 324.4 26.3 323.75 27.05 M316.8 59.25 Q317.45 59.9 317.45 60.8 317.45 61.7 316.8 62.35 316.15 63.0 315.25 63.0 314.35 63.0 313.7 62.35 313.05 61.7 313.05 60.8 313.05 59.9 313.7 59.25 314.35 58.6 315.25 58.6 316.15 58.6 316.8 59.25 316.15 58.6 315.25 58.6 314.35 58.6 313.7 59.25 313.05 59.9 313.05 60.8 313.05 61.7 313.7 62.35 314.35 63.0 315.25 63.0 316.15 63.0 316.8 62.35 317.45 61.7 317.45 60.8 317.45 59.9 316.8 59.25 M315.8 47.9 L315.8 54.85 319.55 54.65 321.45 58.6 321.45 58.85 Q322.3 64.4 317.0 65.7 313.4 66.45 310.5 64.55 L310.6 61.75 310.5 64.55 Q313.4 66.45 317.0 65.7 322.3 64.4 321.45 58.85 L321.45 58.6 319.55 54.65 315.8 54.85 315.8 47.9 M297.25 64.8 L298.5 65.6 299.55 66.5 299.95 67.15 300.7 69.2 294.45 69.75 293.55 68.9 297.25 64.8 M323.9 49.05 L320.4 54.85 323.9 49.05 M56.1 22.9 Q59.75 24.0 61.15 28.6 63.5 36.6 63.85 44.8 64.0 47.9 66.5 49.8 L67.55 55.95 64.05 53.8 62.35 55.95 59.9 52.65 57.7 55.25 56.1 54.95 53.75 56.5 52.45 55.45 49.75 57.55 Q44.6 56.25 43.65 50.9 43.3 48.8 43.95 46.75 44.95 43.8 46.45 41.0 L47.0 39.4 49.75 26.65 Q50.4 24.05 52.7 22.55 L56.1 22.9 Q51.2 24.55 51.15 29.3 51.1 38.5 48.2 47.15 L47.35 47.9 48.2 47.15 Q51.1 38.5 51.15 29.3 51.2 24.55 56.1 22.9 M51.4 45.6 L54.45 42.85 56.6 39.85 Q53.4 39.3 51.4 41.35 L53.7 42.7 51.4 41.35 Q53.4 39.3 56.6 39.85 L54.45 42.85 59.2 43.55 60.0 42.3 59.6 43.7 59.55 43.9 Q59.15 45.7 60.35 46.95 L60.65 47.25 61.8 47.35 60.65 47.25 60.35 46.95 Q59.15 45.7 59.55 43.9 L59.6 43.7 60.0 42.3 59.2 43.55 54.45 42.85 51.4 45.6 M57.6 33.15 L57.55 30.05 56.6 30.6 57.55 30.05 58.9 28.3 54.95 28.8 55.45 33.45 58.3 34.05 55.45 33.45 54.95 28.8 58.9 28.3 57.55 30.05 57.6 33.15 M58.35 36.25 L54.85 36.35 58.35 36.25 M55.45 33.45 L53.7 34.05 55.45 33.45 M17.35 61.75 Q15.05 50.8 9.05 41.4 3.25 32.35 1.1 21.85 L-0.7 14.45 -0.75 14.25 Q-1.4 12.35 -3.35 11.9 L-17.3 12.1 -3.35 11.9 Q-1.4 12.35 -0.75 14.25 L-0.7 14.45 1.1 21.85 Q3.25 32.35 9.05 41.4 15.05 50.8 17.35 61.75 M3.1 15.3 Q3.9 22.45 6.3 29.2 7.4 32.4 9.35 35.15 15.9 44.2 19.4 54.95 21.5 61.25 22.25 67.8 L12.9 71.65 8.55 65.35 7.05 70.4 1.2 65.75 0.0 70.35 -3.5 67.0 -6.05 72.4 -14.6 73.35 -15.05 73.85 -18.15 72.4 -18.0 70.45 Q-17.55 64.0 -17.8 57.5 -18.1 50.5 -18.7 43.5 -20.1 26.7 -19.0 9.9 -9.25 7.15 -0.6 11.1 0.6 11.65 1.45 12.8 L3.1 15.3 M52.55 51.95 L54.3 49.05 52.55 51.95 M9.9 53.0 L6.35 51.35 9.9 53.0 M5.75 52.55 L5.75 51.4 5.7 51.15 Q5.3 44.75 1.15 39.85 5.3 44.75 5.7 51.15 L5.75 51.4 5.75 52.55 Q11.55 56.7 8.25 63.0 L7.5 64.05 8.25 63.0 Q11.55 56.7 5.75 52.55 5.75 57.3 3.6 60.7 1.4 64.05 -1.7 64.05 1.4 64.05 3.6 60.7 5.75 57.3 5.75 52.55 M253.5 237.05 L254.75 237.85 255.8 238.75 256.2 239.4 256.95 241.45 250.7 242.0 249.8 241.15 253.5 237.05 M325.6 57.6 L321.45 58.6 325.6 57.6 M329.1 65.8 L322.75 63.5 329.1 65.8 M-12.1 20.8 L-10.15 19.55 Q-6.2 17.25 -1.7 17.9 L-1.15 14.45 -1.7 17.9 Q-6.2 17.25 -10.15 19.55 L-12.1 20.8 M-3.7 41.4 L2.95 37.65 -3.7 41.4 -1.15 51.95 -3.7 41.4 -5.75 37.5 -3.7 41.4 M-3.4 55.5 L-9.2 56.0 -3.4 55.5 M-11.55 47.45 L-9.2 47.85 -9.4 50.25 -13.3 51.9 Q-13.9 53.1 -14.15 54.4 -14.45 55.7 -14.35 57.1 L-14.15 57.85 -9.55 60.9 -9.8 61.95 -10.05 62.6 Q-10.75 63.7 -11.95 64.15 L-13.25 64.65 -11.95 64.15 Q-10.75 63.7 -10.05 62.6 L-9.8 61.95 -9.55 60.9 -14.15 57.85 -14.35 57.1 Q-14.45 55.7 -14.15 54.4 -13.9 53.1 -13.3 51.9 L-9.4 50.25 -9.2 47.85 -11.55 47.45 -14.4 47.35 -11.55 47.45 -11.55 43.85 -11.55 47.45 M-7.6 28.8 Q-6.7 28.8 -6.05 29.7 -5.4 30.55 -5.4 31.75 -5.4 32.95 -6.05 33.85 -6.7 34.7 -7.6 34.7 -8.5 34.7 -9.15 33.85 -9.8 32.95 -9.8 31.75 -9.8 30.55 -9.15 29.7 -8.5 28.8 -7.6 28.8 -8.5 28.8 -9.15 29.7 -9.8 30.55 -9.8 31.75 -9.8 32.95 -9.15 33.85 -8.5 34.7 -7.6 34.7 -6.7 34.7 -6.05 33.85 -5.4 32.95 -5.4 31.75 -5.4 30.55 -6.05 29.7 -6.7 28.8 -7.6 28.8 M-0.7 23.55 L-2.3 24.25 -0.7 23.55 M-6.9 23.65 L-5.9 23.65 -1.45 28.6 Q-0.55 32.2 -2.95 34.8 -5.35 37.4 -8.7 36.6 -12.25 35.8 -12.55 32.05 -13.05 25.65 -6.9 24.25 -13.05 25.65 -12.55 32.05 -12.25 35.8 -8.7 36.6 -5.35 37.4 -2.95 34.8 -0.55 32.2 -1.45 28.6 L-5.9 23.65 -6.9 23.65" fill="#030069" fill-rule="evenodd" stroke="none"/>
    <path d="M323.5 24.3 L319.85 19.05 M323.75 27.05 L323.35 35.35 325.05 42.7 M323.5 24.3 L323.75 27.05 M56.1 22.9 Q51.2 24.55 51.15 29.3 51.1 38.5 48.2 47.15 L47.35 47.9 M-17.3 12.1 L-3.35 11.9 Q-1.4 12.35 -0.75 14.25 L-0.7 14.45 1.1 21.85 Q3.25 32.35 9.05 41.4 15.05 50.8 17.35 61.75 M-1.15 14.45 L-1.7 17.9 Q-6.2 17.25 -10.15 19.55 L-12.1 20.8" fill="none" stroke="#999999" stroke-linecap="round" stroke-linejoin="round" stroke-width="1.0"/>
    <path d="M308.95 38.65 L308.9 38.65 308.95 38.65 313.15 37.0 315.2 33.5 316.45 36.15 317.6 35.85 317.35 38.25 318.1 41.55 315.2 39.75 311.2 42.15 308.6 43.85 M329.65 56.55 L325.6 57.6 326.2 61.2 M317.55 24.25 L323.5 24.3 325.8 23.05 M323.75 27.05 L320.6 27.7 Q320.5 28.9 319.65 29.55 316.2 31.75 312.9 28.85 M311.2 42.15 L312.4 39.15 308.95 38.65 M314.65 45.6 L313.6 46.15 314.25 47.35 316.7 47.0 316.65 45.4 315.2 45.0 M317.35 38.25 L315.2 39.75 312.4 39.15 313.15 37.0 316.45 36.15 317.35 38.25 M323.75 27.05 Q324.4 26.3 324.45 27.45 M310.6 61.75 L310.5 64.55 Q313.4 66.45 317.0 65.7 322.3 64.4 321.45 58.85 L321.45 58.6 319.55 54.65 315.8 54.85 315.8 47.9 M316.8 59.25 Q316.15 58.6 315.25 58.6 314.35 58.6 313.7 59.25 313.05 59.9 313.05 60.8 313.05 61.7 313.7 62.35 314.35 63.0 315.25 63.0 316.15 63.0 316.8 62.35 317.45 61.7 317.45 60.8 317.45 59.9 316.8 59.25 M320.4 54.85 L323.9 49.05 M56.6 30.6 L57.55 30.05 58.9 28.3 54.95 28.8 55.45 33.45 58.3 34.05 M53.7 34.05 L55.45 33.45 M54.85 36.35 L58.35 36.25 M57.55 30.05 L57.6 33.15 M53.7 42.7 L51.4 41.35 Q53.4 39.3 56.6 39.85 L54.45 42.85 59.2 43.55 60.0 42.3 59.6 43.7 59.55 43.9 Q59.15 45.7 60.35 46.95 L60.65 47.25 61.8 47.35 M54.45 42.85 L51.4 45.6 M7.5 64.05 L8.25 63.0 Q11.55 56.7 5.75 52.55 5.75 57.3 3.6 60.7 1.4 64.05 -1.7 64.05 M1.15 39.85 Q5.3 44.75 5.7 51.15 L5.75 51.4 5.75 52.55 M6.35 51.35 L9.9 53.0 M54.3 49.05 L52.55 51.95 M322.75 63.5 L329.1 65.8 M321.45 58.6 L325.6 57.6 M-6.9 24.25 Q-13.05 25.65 -12.55 32.05 -12.25 35.8 -8.7 36.6 -5.35 37.4 -2.95 34.8 -0.55 32.2 -1.45 28.6 L-5.9 23.65 -6.9 23.65 M-2.3 24.25 L-0.7 23.55 M-7.6 28.8 Q-8.5 28.8 -9.15 29.7 -9.8 30.55 -9.8 31.75 -9.8 32.95 -9.15 33.85 -8.5 34.7 -7.6 34.7 -6.7 34.7 -6.05 33.85 -5.4 32.95 -5.4 31.75 -5.4 30.55 -6.05 29.7 -6.7 28.8 -7.6 28.8 M-14.4 47.35 L-11.55 47.45 -11.55 43.85 M-1.15 51.95 L-3.7 41.4 -5.75 37.5 M-13.25 64.65 L-11.95 64.15 Q-10.75 63.7 -10.05 62.6 L-9.8 61.95 -9.55 60.9 -14.15 57.85 -14.35 57.1 Q-14.45 55.7 -14.15 54.4 -13.9 53.1 -13.3 51.9 L-9.4 50.25 -9.2 47.85 -11.55 47.45 M-9.2 56.0 L-3.4 55.5 M2.95 37.65 L-3.7 41.4" fill="none" stroke="#99ff00" stroke-linecap="round" stroke-linejoin="round" stroke-width="1.0"/>
    <path d="M339.9 62.3 L337.0 68.65 M332.4 61.7 L333.55 70.95 M367.75 84.75 L370.5 91.7 M380.7 84.05 L379.15 87.7 M375.2 83.6 L375.7 88.25 M394.15 88.25 Q394.1 91.9 391.95 94.95 L391.25 96.35 M393.55 144.8 Q393.85 147.5 392.05 149.9 391.25 151.0 390.7 152.3 M383.75 145.4 Q382.45 150.0 385.25 154.25 L385.5 154.6 M276.4 51.9 L276.4 58.25 M268.35 53.35 L271.8 58.85 M307.95 51.2 L305.25 56.5 302.95 47.85 294.3 54.2 297.75 45.55 Q291.45 48.4 287.6 53.9 L284.5 50.15 284.5 57.7 M173.1 42.1 Q171.3 44.8 171.65 48.0 L171.95 49.6 M165.6 45.0 Q169.05 47.6 168.55 51.95 L168.4 52.65 167.9 53.05 M221.0 58.85 L221.15 57.15 Q216.75 57.35 214.65 61.15 L214.1 55.35 212.4 60.1 208.35 57.15 Q210.8 60.3 209.45 63.45 M277.0 104.4 L277.55 110.2 M272.55 111.25 L274.1 113.65 M255.05 180.0 L253.35 192.7 M280.95 171.3 L281.05 175.4 M275.85 173.65 L277.55 177.7 M262.45 183.4 L260.25 189.8 M249.05 185.85 L250.45 189.25 M284.2 107.35 L282.75 113.65 M89.15 38.7 L88.3 45.0 M83.1 39.8 Q85.3 42.25 85.1 45.35 L84.8 46.15 M143.9 92.95 L140.2 97.5 M139.05 87.1 L134.45 94.05 M126.95 93.45 L127.1 94.55 128.3 95.55 129.25 97.5 M130.4 89.4 L131.0 94.05 M13.45 72.0 L8.65 65.5 7.05 69.85 Q5.45 68.2 1.6 65.9 L0.55 70.75 -3.15 67.05 -6.65 74.0 M66.35 84.2 L64.05 93.45 M58.85 87.1 L58.25 93.45 M53.65 85.35 L54.8 91.15 M44.4 49.6 L44.4 58.25 M49.05 55.4 L47.3 58.25 M39.8 50.2 L42.1 59.4 M30.0 166.15 L28.25 171.35 M21.9 163.25 Q21.5 165.9 22.9 168.45 L23.65 169.6 M16.85 168.95 L19.6 173.1 M122.35 234.8 L123.5 243.45 M130.3 241.1 L129.25 247.5 M119.55 242.85 L122.35 247.5" fill="none" stroke="#5f006a" stroke-linecap="round" stroke-linejoin="round" stroke-width="1.0"/>
    <path d="M399.8 229.1 Q399.1 237.9 399.85 246.7 402.3 239.75 407.65 236.45 L407.65 252.8 406.15 255.45 351.4 255.45 344.55 240.05 356.1 247.7 Q352.15 240.65 350.65 233.15 L350.3 215.25 359.2 233.95 Q362.1 239.4 365.3 244.65 L366.4 244.45 Q368.45 239.5 369.45 234.55 371.4 223.9 368.5 213.3 L367.75 210.7 365.9 206.0 369.4 210.4 369.45 210.45 Q375.7 219.3 377.95 229.65 L378.5 232.25 Q379.35 237.75 379.0 243.6 L385.3 229.6 387.8 223.9 388.0 228.85 388.55 242.7 Q392.1 234.9 398.25 228.95 L399.95 227.35 399.8 229.1 M37.7 227.1 Q29.3 237.6 28.35 251.0 37.05 239.25 51.8 239.55 46.05 246.15 44.5 254.9 L38.05 255.45 -13.65 255.45 -13.65 254.2 Q-13.3 249.9 -15.35 246.9 L-15.35 230.45 Q-10.05 234.0 -7.6 240.55 L-6.8 242.9 -6.85 240.55 Q-6.95 226.35 1.3 214.5 L2.9 214.5 Q2.85 227.3 2.25 240.35 4.35 230.8 13.4 226.55 L13.65 226.65 7.35 244.7 Q19.65 230.7 37.7 227.1" fill="#c851fb" fill-opacity="0.42352942" fill-rule="evenodd" stroke="none"/>
    <path d="M350.65 233.15 L326.65 237.1 325.6 234.9 321.65 235.6 322.1 233.2 318.1 235.5 316.35 226.25 315.35 228.3 313.6 230.75 312.9 231.3 307.7 234.35 308.1 229.65 303.65 236.05 299.6 230.9 299.75 236.6 280.95 239.1 279.25 235.1 275.5 238.3 274.25 238.2 271.9 235.2 272.25 240.0 223.35 239.4 222.2 237.1 215.3 239.55 215.3 237.25 211.9 238.95 211.95 237.8 210.8 237.4 208.55 239.75 205.5 237.8 206.1 241.35 202.2 241.7 197.4 237.25 198.4 242.25 Q165.05 243.95 131.7 240.75 167.9 241.35 202.05 229.75 L202.05 232.05 231.05 227.55 231.95 230.35 233.3 230.45 236.15 227.1 241.55 227.1 243.85 230.4 247.6 228.3 249.9 231.05 250.95 230.9 253.15 229.0 258.0 230.3 259.45 226.25 291.0 222.65 294.35 226.5 301.0 223.5 301.65 224.55 306.05 221.2 309.4 222.6 311.85 218.3 321.2 216.35 320.95 219.35 Q343.85 212.2 367.75 210.7 L368.5 213.3 Q371.4 223.9 369.45 234.55 L359.2 233.95 350.3 215.25 350.65 233.15 M369.45 210.45 L381.1 210.2 383.9 214.15 384.75 210.85 386.05 210.1 391.85 214.4 391.95 210.1 396.7 212.85 399.05 206.95 401.45 204.8 Q403.85 202.65 404.9 199.55 406.1 196.15 406.4 192.35 L407.0 229.55 399.8 229.1 399.95 227.35 398.25 228.95 388.0 228.85 387.8 223.9 385.3 229.6 378.5 232.25 377.95 229.65 Q375.7 219.3 369.45 210.45" fill="#230132" fill-opacity="0.42352942" fill-rule="evenodd" stroke="none"/>
  </g>
  <defs>
    <radialGradient cx="0" cy="0" gradientTransform="matrix(0.0041, 0.2296, -0.4577, 0.008, 192.0, 147.0)" gradientUnits="userSpaceOnUse" id="gradient0" r="819.2" spreadMethod="pad">
      <stop offset="0.0" stop-color="#3582f4"/>
      <stop offset="0.36470588235294116" stop-color="#823aef"/>
      <stop offset="0.7490196078431373" stop-color="#6206bd"/>
      <stop offset="1.0" stop-color="#271232"/>
    </radialGradient>
    <linearGradient gradientTransform="matrix(0.0, -0.0416, 0.032, 0.0, 6.15, 35.2)" gradientUnits="userSpaceOnUse" id="gradient1" spreadMethod="pad" x1="-819.2" x2="819.2">
      <stop offset="0.0" stop-color="#494126"/>
      <stop offset="1.0" stop-color="#252d13"/>
    </linearGradient>
    <linearGradient gradientTransform="matrix(0.0, -0.0156, 0.0178, 0.0, -11.0, 13.95)" gradientUnits="userSpaceOnUse" id="gradient2" spreadMethod="pad" x1="-819.2" x2="819.2">
      <stop offset="0.0" stop-color="#ff870b" stop-opacity="0.21176471"/>
      <stop offset="1.0" stop-color="#ff00ff" stop-opacity="0.7529412"/>
    </linearGradient>
    <linearGradient gradientTransform="matrix(0.0, -0.0416, 0.032, 0.0, 6.15, 35.2)" gradientUnits="userSpaceOnUse" id="gradient3" spreadMethod="pad" x1="-819.2" x2="819.2">
      <stop offset="0.0" stop-color="#d84126" stop-opacity="0.83137256"/>
      <stop offset="1.0" stop-color="#ba2d8c" stop-opacity="0.4509804"/>
    </linearGradient>
  </defs>
</svg>
