<?xml version="1.0" encoding="UTF-8" standalone="no"?>
<svg xmlns:xlink="http://www.w3.org/1999/xlink" height="257.0px" width="446.9px" xmlns="http://www.w3.org/2000/svg">
  <g transform="matrix(1.0, 0.0, 0.0, 1.0, 22.55, 2.6)">
    <path d="M406.0 68.9 L406.0 84.9 406.0 106.2 406.0 129.85 406.0 152.9 406.0 178.3 406.0 204.4 406.0 231.65 406.0 252.4 300.7 252.4 195.9 252.4 103.65 252.4 -15.45 252.4 -15.45 247.05 -15.45 231.65 -15.45 204.4 -15.45 178.3 -15.45 152.9 -15.45 129.85 -15.45 106.2 -15.45 84.9 -15.45 68.9 406.0 68.9 M406.0 106.2 L350.5 106.2 340.4 84.9 406.0 84.9 340.4 84.9 350.5 106.2 406.0 106.2 M374.95 152.9 L361.75 129.85 406.0 129.85 361.75 129.85 374.95 152.9 406.0 152.9 374.95 152.9 324.05 152.9 335.25 178.3 388.15 178.3 406.0 178.3 388.15 178.3 335.25 178.3 324.05 152.9 374.95 152.9 M398.85 204.4 L406.0 204.4 398.85 204.4 344.35 204.4 353.85 231.65 295.2 231.65 245.15 231.65 242.0 204.4 288.9 204.4 344.35 204.4 288.9 204.4 242.0 204.4 245.15 231.65 295.2 231.65 353.85 231.65 344.35 204.4 398.85 204.4 388.15 178.3 398.85 204.4 M353.85 231.65 L406.0 231.65 353.85 231.65 M239.05 178.3 L282.95 178.3 288.9 204.4 282.95 178.3 239.05 178.3 195.9 178.3 162.7 178.3 164.8 152.9 195.9 152.9 195.9 129.85 231.7 129.85 228.6 106.2 261.95 106.2 303.3 106.2 312.8 129.85 268.2 129.85 231.7 129.85 268.2 129.85 312.8 129.85 303.3 106.2 261.95 106.2 228.6 106.2 231.7 129.85 195.9 129.85 195.9 152.9 235.4 152.9 275.6 152.9 268.2 129.85 275.6 152.9 235.4 152.9 195.9 152.9 164.8 152.9 162.7 178.3 195.9 178.3 239.05 178.3 235.4 152.9 239.05 178.3 M256.3 84.9 L261.95 106.2 256.3 84.9 225.8 84.9 224.3 73.65 225.8 84.9 256.3 84.9 294.7 84.9 290.6 74.8 294.7 84.9 256.3 84.9 M195.9 106.2 L195.9 84.9 170.25 84.9 171.0 74.8 170.25 84.9 195.9 84.9 225.8 84.9 195.9 84.9 195.9 106.2 228.6 106.2 195.9 106.2 168.65 106.2 166.9 129.85 195.9 129.85 166.9 129.85 168.65 106.2 195.9 106.2 M170.25 84.9 L136.25 84.9 103.0 84.9 105.3 77.75 103.0 84.9 136.25 84.9 170.25 84.9 M61.1 84.9 L103.0 84.9 61.1 84.9 51.05 106.2 1.25 106.2 -15.45 106.2 1.25 106.2 51.05 106.2 61.1 84.9 14.0 84.9 61.1 84.9 M136.25 84.9 L132.1 106.2 96.15 106.2 88.55 129.85 127.5 129.85 122.1 152.9 164.8 152.9 122.1 152.9 79.55 152.9 70.6 178.3 116.65 178.3 162.7 178.3 116.65 178.3 70.6 178.3 79.55 152.9 122.1 152.9 127.5 129.85 88.55 129.85 39.9 129.85 26.75 152.9 79.55 152.9 26.75 152.9 39.9 129.85 88.55 129.85 96.15 106.2 51.05 106.2 96.15 106.2 132.1 106.2 136.25 84.9 M116.65 178.3 L112.3 204.4 63.35 204.4 3.0 204.4 13.6 178.3 70.6 178.3 13.6 178.3 3.0 204.4 63.35 204.4 112.3 204.4 116.65 178.3 M18.3 77.75 L14.0 84.9 -15.45 84.9 14.0 84.9 18.3 77.75 M132.1 106.2 L168.65 106.2 132.1 106.2 M166.9 129.85 L127.5 129.85 166.9 129.85 M195.9 178.3 L195.9 204.4 242.0 204.4 195.9 204.4 161.0 204.4 159.2 231.65 195.9 231.65 245.15 231.65 195.9 231.65 159.2 231.65 161.0 204.4 195.9 204.4 195.9 178.3 M195.9 252.4 L195.9 231.65 195.9 252.4 M295.2 231.65 L300.7 252.4 295.2 231.65 M161.0 204.4 L112.3 204.4 161.0 204.4 M107.7 231.65 L103.65 252.4 107.7 231.65 55.75 231.65 63.35 204.4 55.75 231.65 107.7 231.65 159.2 231.65 107.7 231.65 M294.7 84.9 L340.4 84.9 294.7 84.9 M282.95 178.3 L335.25 178.3 282.95 178.3 M324.05 152.9 L275.6 152.9 324.05 152.9 M361.75 129.85 L312.8 129.85 361.75 129.85 M350.5 106.2 L303.3 106.2 350.5 106.2 M26.75 152.9 L-15.45 152.9 26.75 152.9 M-15.45 178.3 L13.6 178.3 -15.45 178.3 M39.9 129.85 L-12.95 129.85 -15.45 129.85 -12.95 129.85 1.25 106.2 -12.95 129.85 39.9 129.85 M3.0 204.4 L-15.45 204.4 3.0 204.4 M-15.45 231.65 L-8.2 231.65 -15.45 247.05 -8.2 231.65 -15.45 231.65 M-8.2 231.65 L55.75 231.65 -8.2 231.65" fill="url(#gradient0)" fill-rule="evenodd" stroke="none"/>
    <path d="M406.0 23.3 L406.0 40.5 406.0 57.1 -15.45 57.1 -15.45 40.5 33.1 40.5 33.1 46.4 33.1 40.5 -15.45 40.5 -15.45 23.3 -15.45 2.05 406.0 2.05 406.0 23.3 388.0 23.3 388.25 25.7 388.0 23.3 406.0 23.3 M326.1 47.6 L326.1 40.5 283.5 40.5 283.5 28.65 283.5 40.5 326.1 40.5 364.45 40.5 364.0 35.2 364.45 40.5 326.1 40.5 326.1 47.6 M387.65 20.4 L388.0 23.3 308.95 23.3 108.25 23.3 108.25 20.4 108.25 23.3 308.95 23.3 388.0 23.3 387.65 20.4 M364.45 40.5 L406.0 40.5 364.45 40.5 M308.95 30.45 L308.95 23.3 308.95 30.45 M71.0 26.3 L71.3 23.3 108.25 23.3 108.25 40.5 108.25 49.35 108.25 40.5 85.8 40.5 85.8 48.2 85.8 40.5 108.25 40.5 108.25 23.3 71.3 23.3 71.0 26.3 M14.15 28.05 L14.15 23.3 -15.45 23.3 14.15 23.3 71.3 23.3 71.55 20.4 71.3 23.3 14.15 23.3 14.15 28.05 M85.8 40.5 L33.1 40.5 85.8 40.5 M283.5 40.5 L108.25 40.5 283.5 40.5" fill="url(#gradient1)" fill-rule="evenodd" stroke="none"/>
    <path d="M406.0 57.1 L406.0 68.9 -15.45 68.9 -15.45 57.1 406.0 57.1" fill="url(#gradient2)" fill-rule="evenodd" stroke="none"/>
    <path d="M406.0 152.9 L374.95 152.9 324.05 152.9 335.25 178.3 388.15 178.3 406.0 178.3 M406.0 129.85 L361.75 129.85 374.95 152.9 M406.0 84.9 L340.4 84.9 350.5 106.2 406.0 106.2 M344.35 204.4 L288.9 204.4 242.0 204.4 245.15 231.65 295.2 231.65 353.85 231.65 344.35 204.4 398.85 204.4 388.15 178.3 M406.0 231.65 L353.85 231.65 M406.0 204.4 L398.85 204.4 M224.3 73.65 L225.8 84.9 256.3 84.9 294.7 84.9 290.6 74.8 M171.0 74.8 L170.25 84.9 195.9 84.9 225.8 84.9 M231.7 129.85 L268.2 129.85 312.8 129.85 303.3 106.2 261.95 106.2 228.6 106.2 231.7 129.85 195.9 129.85 195.9 152.9 235.4 152.9 275.6 152.9 268.2 129.85 M228.6 106.2 L195.9 106.2 168.65 106.2 166.9 129.85 195.9 129.85 M195.9 152.9 L164.8 152.9 162.7 178.3 195.9 178.3 239.05 178.3 235.4 152.9 M195.9 84.9 L195.9 106.2 M261.95 106.2 L256.3 84.9 M288.9 204.4 L282.95 178.3 239.05 178.3 M105.3 77.75 L103.0 84.9 136.25 84.9 170.25 84.9 M-15.45 84.9 L14.0 84.9 18.3 77.75 M-15.45 106.2 L1.25 106.2 51.05 106.2 61.1 84.9 14.0 84.9 M164.8 152.9 L122.1 152.9 79.55 152.9 70.6 178.3 116.65 178.3 162.7 178.3 M122.1 152.9 L127.5 129.85 88.55 129.85 39.9 129.85 26.75 152.9 79.55 152.9 M70.6 178.3 L13.6 178.3 3.0 204.4 63.35 204.4 112.3 204.4 116.65 178.3 M88.55 129.85 L96.15 106.2 51.05 106.2 M96.15 106.2 L132.1 106.2 136.25 84.9 M103.0 84.9 L61.1 84.9 M242.0 204.4 L195.9 204.4 161.0 204.4 159.2 231.65 195.9 231.65 245.15 231.65 M63.35 204.4 L55.75 231.65 107.7 231.65 159.2 231.65 M103.65 252.4 L107.7 231.65 M112.3 204.4 L161.0 204.4 M300.7 252.4 L295.2 231.65 M195.9 231.65 L195.9 252.4 M195.9 204.4 L195.9 178.3 M127.5 129.85 L166.9 129.85 M168.65 106.2 L132.1 106.2 M303.3 106.2 L350.5 106.2 M312.8 129.85 L361.75 129.85 M275.6 152.9 L324.05 152.9 M335.25 178.3 L282.95 178.3 M340.4 84.9 L294.7 84.9 M-15.45 129.85 L-12.95 129.85 1.25 106.2 M-15.45 247.05 L-8.2 231.65 -15.45 231.65 M-15.45 204.4 L3.0 204.4 M-12.95 129.85 L39.9 129.85 M13.6 178.3 L-15.45 178.3 M-15.45 152.9 L26.75 152.9 M55.75 231.65 L-8.2 231.65" fill="none" stroke="#3d2312" stroke-linecap="round" stroke-linejoin="round" stroke-width="0.05"/>
    <path d="M406.0 68.9 L-15.45 68.9" fill="none" stroke="#143814" stroke-linecap="round" stroke-linejoin="round" stroke-width="0.05"/>
    <path d="M406.0 57.1 L414.3 57.1 M-15.45 57.1 L-22.55 57.1 M-15.45 57.1 L406.0 57.1" fill="none" stroke="#252c21" stroke-linecap="round" stroke-linejoin="round" stroke-width="0.05"/>
    <path d="M406.0 40.5 L424.35 40.5 M406.0 23.3 L410.75 23.3 M406.0 23.3 L388.0 23.3 388.25 25.7 M108.25 20.4 L108.25 23.3 308.95 23.3 388.0 23.3 387.65 20.4 M283.5 28.65 L283.5 40.5 326.1 40.5 364.45 40.5 364.0 35.2 M326.1 40.5 L326.1 47.6 M406.0 40.5 L364.45 40.5 M308.95 23.3 L308.95 30.45 M108.25 49.35 L108.25 40.5 85.8 40.5 85.8 48.2 M108.25 40.5 L108.25 23.3 71.3 23.3 71.0 26.3 M-15.45 23.3 L14.15 23.3 71.3 23.3 71.55 20.4 M14.15 23.3 L14.15 28.05 M33.1 46.4 L33.1 40.5 -15.45 40.5 M33.1 40.5 L85.8 40.5 M108.25 40.5 L283.5 40.5 M-15.45 23.3 L-20.2 23.3 M-19.0 40.5 L-15.45 40.5" fill="none" stroke="#1a1d16" stroke-linecap="round" stroke-linejoin="round" stroke-width="0.05"/>
    <path d="M229.05 140.6 Q221.55 135.25 211.8 132.55 200.75 138.2 199.6 148.55 L200.05 157.1 Q215.8 155.35 229.05 140.6 M244.75 144.25 L246.75 150.05 236.1 143.9 Q216.15 164.15 195.95 164.35 175.65 164.15 155.85 143.9 L145.15 150.05 147.05 144.25 153.7 139.25 Q174.75 124.6 195.95 124.7 217.2 124.6 238.1 139.25 241.5 141.55 244.75 144.25 M195.95 141.3 L196.15 141.55 196.2 141.65 Q200.9 134.05 206.05 131.3 L195.95 130.4 185.75 131.3 Q191.05 134.05 195.75 141.65 L195.95 141.3 M192.35 148.55 Q191.15 138.2 180.1 132.55 170.4 135.25 162.75 140.6 176.0 155.35 191.75 157.1 L192.35 148.55" fill="#432f23" fill-rule="evenodd" stroke="none"/>
    <path d="M195.55 54.5 L185.55 54.5 185.55 32.6 Q187.4 16.95 195.8 10.65 204.1 16.95 206.0 32.6 L206.0 54.5 195.55 54.5 195.55 12.1 195.55 54.5 206.0 54.5 206.0 32.6 Q204.1 16.95 195.8 10.65 187.4 16.95 185.55 32.6 L185.55 54.5 195.55 54.5 M195.8 9.35 Q205.3 15.95 207.45 32.25 L207.45 65.15 184.1 65.15 184.1 32.25 Q186.25 15.95 195.8 9.35 M206.0 54.5 L206.0 64.1 185.55 64.1 185.55 54.5 185.55 64.1 206.0 64.1 206.0 54.5" fill="url(#gradient3)" fill-rule="evenodd" stroke="none"/>
    <path d="M195.8 9.35 Q186.25 15.95 184.1 32.25 L184.1 65.15 207.45 65.15 207.45 32.25 Q205.3 15.95 195.8 9.35 M182.05 29.1 Q184.6 9.35 195.8 1.4 207.05 9.35 209.55 29.1 L209.55 68.9 182.05 68.9 182.05 29.1" fill="#0d1c0c" fill-rule="evenodd" stroke="none"/>
    <path d="M195.55 12.1 L195.55 54.5 206.0 54.5 206.0 32.6 Q204.1 16.95 195.8 10.65 187.4 16.95 185.55 32.6 L185.55 54.5 195.55 54.5 M195.8 9.35 Q186.25 15.95 184.1 32.25 L184.1 65.15 207.45 65.15 207.45 32.25 Q205.3 15.95 195.8 9.35 M185.55 54.5 L185.55 64.1 206.0 64.1 206.0 54.5" fill="none" stroke="#33cc33" stroke-linecap="round" stroke-linejoin="round" stroke-width="0.05"/>
    <path d="M182.05 29.1 L182.05 68.9 209.55 68.9 209.55 29.1 Q207.05 9.35 195.8 1.4 184.6 9.35 182.05 29.1" fill="none" stroke="#000000" stroke-linecap="round" stroke-linejoin="round" stroke-width="0.05"/>
    <path d="M186.8 31.4 L188.0 30.5 Q191.8 27.85 195.65 27.85 199.5 27.85 203.25 30.5 L204.45 31.4 204.8 32.45 202.9 31.35 Q199.3 35.0 195.65 35.05 191.95 35.0 188.4 31.35 L186.45 32.45 186.8 31.4 M193.8 29.05 Q194.75 29.55 195.6 30.95 L195.7 30.95 Q196.55 29.55 197.45 29.05 L195.65 28.9 193.8 29.05 M201.6 30.75 Q200.25 29.8 198.5 29.3 196.5 30.3 196.3 32.2 L196.4 33.75 Q199.2 33.4 201.6 30.75 M189.65 30.75 Q192.05 33.4 194.85 33.75 L195.0 32.2 Q194.75 30.3 192.75 29.3 191.0 29.8 189.65 30.75" fill="#33cc33" fill-rule="evenodd" stroke="none"/>
    <path d="M240.4 30.2 Q237.95 15.5 229.05 9.35 220.95 14.95 218.2 27.45 217.7 29.75 217.35 32.25 L217.35 40.45 217.35 65.15 240.7 65.15 240.7 59.05 240.7 41.0 240.7 34.15 240.7 32.25 240.4 30.2 M229.05 1.4 Q240.3 9.35 242.8 29.1 L242.8 68.9 215.3 68.9 215.3 29.1 Q217.85 9.35 229.05 1.4" fill="#0d1c0c" fill-rule="evenodd" stroke="none"/>
    <path d="M247.55 74.85 L247.9 75.4 246.8 75.45 247.55 74.85 M248.7 78.05 L247.2 80.0 240.5 76.7 248.7 78.05 M223.3 17.35 L223.3 17.3 Q225.65 13.2 229.05 10.65 237.05 16.7 239.1 31.45 237.05 16.7 229.05 10.65 225.65 13.2 223.3 17.3 L223.3 17.35 Q220.35 22.55 219.15 30.3 220.35 22.55 223.3 17.35 L222.5 29.7 221.25 30.5 220.05 31.4 219.75 32.35 219.15 30.3 218.2 27.45 Q220.95 14.95 229.05 9.35 237.95 15.5 240.4 30.2 L239.1 31.45 238.05 32.45 237.7 31.4 236.5 30.5 235.8 30.05 235.6 25.15 231.6 28.1 229.95 20.85 228.8 22.55 225.55 28.25 223.3 17.35 M228.8 12.1 L228.8 22.55 228.8 12.1 M222.4 32.05 L222.1 40.65 219.8 32.4 221.65 31.35 222.4 32.05 M217.35 40.45 L218.8 41.75 222.1 44.65 219.55 47.9 221.7 53.7 223.0 50.9 224.15 54.5 225.95 59.45 226.25 54.9 234.2 64.1 234.95 64.85 235.2 64.1 235.3 54.5 235.45 49.75 238.65 54.5 239.25 55.85 240.7 59.05 240.7 65.15 217.35 65.15 217.35 40.45 M240.7 41.0 L239.25 39.95 237.2 38.6 239.25 36.05 240.7 34.15 240.7 41.0 M238.05 32.45 L236.05 34.25 235.8 31.7 236.15 31.35 238.05 32.45 M239.25 36.05 L239.25 39.95 239.25 36.05 M235.2 64.1 L239.25 64.1 239.25 55.85 239.25 64.1 235.2 64.1 M238.65 54.5 L235.3 54.5 238.65 54.5 M220.75 71.0 L223.6 72.2 220.2 72.75 220.75 71.0 M218.8 41.75 L218.8 54.5 218.8 64.1 234.2 64.1 218.8 64.1 218.8 54.5 218.8 41.75 M234.65 74.5 L228.35 74.9 232.8 72.45 234.65 74.5 M230.7 82.9 L231.05 83.7 229.85 83.7 230.7 82.9 M218.8 54.5 L224.15 54.5 218.8 54.5" fill="url(#gradient4)" fill-rule="evenodd" stroke="none"/>
    <path d="M235.8 30.05 L236.5 30.5 237.7 31.4 238.05 32.45 236.15 31.35 235.8 31.7 235.8 30.05 M222.5 29.7 L222.4 32.05 221.65 31.35 219.8 32.4 219.7 32.45 219.75 32.35 220.05 31.4 221.25 30.5 222.5 29.7 M219.8 32.4 L219.75 32.35 219.8 32.4" fill="#33cc33" fill-rule="evenodd" stroke="none"/>
    <path d="M223.3 17.35 L225.55 28.25 228.8 22.55 229.95 20.85 231.6 28.1 235.6 25.15 235.8 30.05 235.8 31.7 236.05 34.25 238.05 32.45 239.1 31.45 240.4 30.2 240.7 32.25 240.7 34.15 239.25 36.05 237.2 38.6 239.25 39.95 240.7 41.0 240.7 59.05 239.25 55.85 238.65 54.5 235.45 49.75 235.3 54.5 235.2 64.1 234.95 64.85 234.2 64.1 226.25 54.9 225.95 59.45 224.15 54.5 223.0 50.9 221.7 53.7 219.55 47.9 222.1 44.65 218.8 41.75 217.35 40.45 217.35 32.25 Q217.7 29.75 218.2 27.45 L219.15 30.3 219.75 32.35 219.7 32.45 219.8 32.4 222.1 40.65 222.4 32.05 222.5 29.7 223.3 17.35" fill="#151812" fill-rule="evenodd" stroke="none"/>
    <path d="M248.7 78.05 L240.5 76.7 247.2 80.0 248.7 78.05 M247.55 74.85 L246.8 75.45 247.9 75.4 247.55 74.85 M228.8 22.55 L228.8 12.1 M239.1 31.45 Q237.05 16.7 229.05 10.65 225.65 13.2 223.3 17.3 L223.3 17.35 225.55 28.25 228.8 22.55 229.95 20.85 231.6 28.1 235.6 25.15 235.8 30.05 M238.05 32.45 L239.1 31.45 240.4 30.2 Q237.95 15.5 229.05 9.35 220.95 14.95 218.2 27.45 L219.15 30.3 Q220.35 22.55 223.3 17.35 L222.5 29.7 222.4 32.05 222.1 40.65 219.8 32.4 M219.75 32.35 L219.15 30.3 M219.75 32.35 L219.8 32.4 M217.35 40.45 L218.8 41.75 222.1 44.65 219.55 47.9 221.7 53.7 223.0 50.9 224.15 54.5 225.95 59.45 226.25 54.9 234.2 64.1 234.95 64.85 235.2 64.1 235.3 54.5 235.45 49.75 238.65 54.5 239.25 55.85 240.7 59.05 M240.7 41.0 L239.25 39.95 237.2 38.6 239.25 36.05 240.7 34.15 240.7 32.25 240.4 30.2 M238.05 32.45 L236.05 34.25 235.8 31.7 235.8 30.05 M239.25 39.95 L239.25 36.05 M240.7 41.0 L240.7 34.15 M235.3 54.5 L238.65 54.5 M239.25 55.85 L239.25 64.1 235.2 64.1 M217.35 40.45 L217.35 65.15 240.7 65.15 240.7 59.05 M220.75 71.0 L223.6 72.2 220.2 72.75 220.75 71.0 M234.2 64.1 L218.8 64.1 218.8 54.5 218.8 41.75 M234.65 74.5 L232.8 72.45 228.35 74.9 234.65 74.5 M230.7 82.9 L231.05 83.7 229.85 83.7 230.7 82.9 M224.15 54.5 L218.8 54.5" fill="none" stroke="#33cc33" stroke-linecap="round" stroke-linejoin="round" stroke-width="0.05"/>
    <path d="M229.05 1.4 Q217.85 9.35 215.3 29.1 L215.3 68.9 242.8 68.9 242.8 29.1 Q240.3 9.35 229.05 1.4" fill="none" stroke="#000000" stroke-linecap="round" stroke-linejoin="round" stroke-width="0.05"/>
    <path d="M162.2 9.35 Q171.7 15.95 173.85 32.25 L173.85 65.15 150.5 65.15 150.5 32.25 Q152.65 15.95 162.2 9.35 M161.95 54.5 L151.95 54.5 151.95 32.6 Q153.8 16.95 162.2 10.65 170.5 16.95 172.4 32.6 L172.4 54.5 161.95 54.5 161.95 12.1 161.95 54.5 172.4 54.5 172.4 32.6 Q170.5 16.95 162.2 10.65 153.8 16.95 151.95 32.6 L151.95 54.5 161.95 54.5 M172.4 54.5 L172.4 64.1 151.95 64.1 151.95 54.5 151.95 64.1 172.4 64.1 172.4 54.5" fill="url(#gradient5)" fill-rule="evenodd" stroke="none"/>
    <path d="M162.2 9.35 Q152.65 15.95 150.5 32.25 L150.5 65.15 173.85 65.15 173.85 32.25 Q171.7 15.95 162.2 9.35 M148.45 29.1 Q151.0 9.35 162.2 1.4 173.45 9.35 175.95 29.1 L175.95 68.9 148.45 68.9 148.45 29.1" fill="#0d1c0c" fill-rule="evenodd" stroke="none"/>
    <path d="M162.2 9.35 Q152.65 15.95 150.5 32.25 L150.5 65.15 173.85 65.15 173.85 32.25 Q171.7 15.95 162.2 9.35 M161.95 12.1 L161.95 54.5 172.4 54.5 172.4 32.6 Q170.5 16.95 162.2 10.65 153.8 16.95 151.95 32.6 L151.95 54.5 161.95 54.5 M151.95 54.5 L151.95 64.1 172.4 64.1 172.4 54.5" fill="none" stroke="#33cc33" stroke-linecap="round" stroke-linejoin="round" stroke-width="0.05"/>
    <path d="M148.45 29.1 L148.45 68.9 175.95 68.9 175.95 29.1 Q173.45 9.35 162.2 1.4 151.0 9.35 148.45 29.1" fill="none" stroke="#000000" stroke-linecap="round" stroke-linejoin="round" stroke-width="0.05"/>
    <path d="M153.2 31.4 L154.4 30.5 Q158.2 27.85 162.05 27.85 165.9 27.85 169.65 30.5 L170.85 31.4 171.2 32.45 169.3 31.35 Q165.7 35.0 162.05 35.05 158.35 35.0 154.8 31.35 L152.85 32.45 153.2 31.4 M168.0 30.75 Q166.65 29.8 164.9 29.3 162.9 30.3 162.7 32.2 L162.8 33.75 Q165.6 33.4 168.0 30.75 M156.05 30.75 Q158.45 33.4 161.25 33.75 L161.4 32.2 Q161.15 30.3 159.15 29.3 157.4 29.8 156.05 30.75 M160.2 29.05 Q161.15 29.55 162.0 30.95 L162.1 30.95 Q162.95 29.55 163.85 29.05 L162.05 28.9 160.2 29.05" fill="#33cc33" fill-rule="evenodd" stroke="none"/>
    <path d="M129.0 4.1 L129.0 15.95 129.0 4.1 M119.65 3.35 Q125.45 6.65 127.2 15.65 125.45 6.65 119.65 3.35 M133.85 18.85 Q132.1 17.4 129.7 17.4 127.0 17.4 125.1 19.3 L124.95 19.45 125.1 19.3 Q127.0 17.4 129.7 17.4 132.1 17.4 133.85 18.85 L134.35 19.3 Q136.25 21.2 136.25 23.9 136.25 26.65 134.35 28.55 L133.85 29.0 Q132.1 30.45 129.7 30.45 127.0 30.45 125.1 28.55 L124.95 28.4 125.1 28.55 Q127.0 30.45 129.7 30.45 132.1 30.45 133.85 29.0 L133.85 71.85 124.95 71.85 124.95 28.4 Q123.2 26.55 123.2 23.9 123.2 21.3 124.95 19.45 125.2 8.9 110.7 2.05 L149.85 2.05 Q136.15 8.15 133.85 18.85 M130.9 19.05 Q125.9 19.55 124.4 24.65 125.9 19.55 130.9 19.05 M140.35 3.95 Q131.95 7.35 131.9 16.05 131.95 7.35 140.35 3.95 M127.05 68.3 L127.05 32.05 127.05 68.3 M130.9 33.1 L130.9 67.85 130.9 33.1" fill="#252c21" fill-rule="evenodd" stroke="none"/>
    <path d="M124.95 19.45 L125.1 19.3 Q127.0 17.4 129.7 17.4 132.1 17.4 133.85 18.85 136.15 8.15 149.85 2.05 L110.7 2.05 Q125.2 8.9 124.95 19.45 123.2 21.3 123.2 23.9 123.2 26.55 124.95 28.4 L125.1 28.55 Q127.0 30.45 129.7 30.45 132.1 30.45 133.85 29.0 L134.35 28.55 Q136.25 26.65 136.25 23.9 136.25 21.2 134.35 19.3 L133.85 18.85 M133.85 29.0 L133.85 71.85 124.95 71.85 124.95 28.4" fill="none" stroke="#0d1c0c" stroke-linecap="round" stroke-linejoin="round" stroke-width="0.05"/>
    <path d="M127.2 15.65 Q125.45 6.65 119.65 3.35 M129.0 15.95 L129.0 4.1 M124.4 24.65 Q125.9 19.55 130.9 19.05 M130.9 67.85 L130.9 33.1 M127.05 32.05 L127.05 68.3 M131.9 16.05 Q131.95 7.35 140.35 3.95" fill="none" stroke="#363f30" stroke-linecap="round" stroke-linejoin="round" stroke-width="0.05"/>
    <path d="M261.1 4.1 L261.1 15.95 261.1 4.1 M251.75 3.35 Q257.55 6.65 259.3 15.65 257.55 6.65 251.75 3.35 M265.95 18.85 Q264.2 17.4 261.8 17.4 259.1 17.4 257.2 19.3 L257.05 19.45 257.2 19.3 Q259.1 17.4 261.8 17.4 264.2 17.4 265.95 18.85 L266.45 19.3 Q268.35 21.2 268.35 23.9 268.35 26.65 266.45 28.55 L265.95 29.0 Q264.2 30.45 261.8 30.45 259.1 30.45 257.2 28.55 L257.05 28.4 257.2 28.55 Q259.1 30.45 261.8 30.45 264.2 30.45 265.95 29.0 L265.95 71.85 257.05 71.85 257.05 28.4 Q255.3 26.55 255.3 23.9 255.3 21.3 257.05 19.45 257.3 8.9 242.8 2.05 L281.95 2.05 Q268.25 8.15 265.95 18.85 M263.0 19.05 Q258.0 19.55 256.5 24.65 258.0 19.55 263.0 19.05 M263.0 33.1 L263.0 67.85 263.0 33.1 M259.15 68.3 L259.15 32.05 259.15 68.3 M272.45 3.95 Q264.05 7.35 264.0 16.05 264.05 7.35 272.45 3.95" fill="#252c21" fill-rule="evenodd" stroke="none"/>
    <path d="M257.05 19.45 L257.2 19.3 Q259.1 17.4 261.8 17.4 264.2 17.4 265.95 18.85 268.25 8.15 281.95 2.05 L242.8 2.05 Q257.3 8.9 257.05 19.45 255.3 21.3 255.3 23.9 255.3 26.55 257.05 28.4 L257.2 28.55 Q259.1 30.45 261.8 30.45 264.2 30.45 265.95 29.0 L266.45 28.55 Q268.35 26.65 268.35 23.9 268.35 21.2 266.45 19.3 L265.95 18.85 M265.95 29.0 L265.95 71.85 257.05 71.85 257.05 28.4" fill="none" stroke="#0d1c0c" stroke-linecap="round" stroke-linejoin="round" stroke-width="0.05"/>
    <path d="M259.3 15.65 Q257.55 6.65 251.75 3.35 M261.1 15.95 L261.1 4.1 M256.5 24.65 Q258.0 19.55 263.0 19.05 M264.0 16.05 Q264.05 7.35 272.45 3.95 M259.15 32.05 L259.15 68.3 M263.0 67.85 L263.0 33.1" fill="none" stroke="#363f30" stroke-linecap="round" stroke-linejoin="round" stroke-width="0.05"/>
    <path d="M48.25 4.05 L48.25 15.9 48.25 4.05 M38.9 3.3 Q44.7 6.6 46.45 15.6 44.7 6.6 38.9 3.3 M53.1 18.8 Q51.35 17.35 48.95 17.35 46.25 17.35 44.35 19.25 L44.2 19.4 44.35 19.25 Q46.25 17.35 48.95 17.35 51.35 17.35 53.1 18.8 L53.6 19.25 Q55.5 21.15 55.5 23.85 55.5 26.6 53.6 28.5 L53.1 28.95 Q51.35 30.4 48.95 30.4 46.25 30.4 44.35 28.5 L44.2 28.35 44.35 28.5 Q46.25 30.4 48.95 30.4 51.35 30.4 53.1 28.95 L53.1 71.8 44.2 71.8 44.2 28.35 Q42.45 26.5 42.45 23.85 42.45 21.25 44.2 19.4 44.45 8.85 30.0 2.0 L69.1 2.0 Q55.4 8.1 53.1 18.8 M50.15 19.0 Q45.15 19.5 43.65 24.6 45.15 19.5 50.15 19.0 M50.15 33.05 L50.15 67.8 50.15 33.05 M46.3 68.25 L46.3 32.0 46.3 68.25 M59.6 3.9 Q51.2 7.3 51.15 16.0 51.2 7.3 59.6 3.9" fill="#252c21" fill-rule="evenodd" stroke="none"/>
    <path d="M44.2 19.4 L44.35 19.25 Q46.25 17.35 48.95 17.35 51.35 17.35 53.1 18.8 55.4 8.1 69.1 2.0 L30.0 2.0 Q44.45 8.85 44.2 19.4 42.45 21.25 42.45 23.85 42.45 26.5 44.2 28.35 L44.35 28.5 Q46.25 30.4 48.95 30.4 51.35 30.4 53.1 28.95 L53.6 28.5 Q55.5 26.6 55.5 23.85 55.5 21.15 53.6 19.25 L53.1 18.8 M53.1 28.95 L53.1 71.8 44.2 71.8 44.2 28.35" fill="none" stroke="#0d1c0c" stroke-linecap="round" stroke-linejoin="round" stroke-width="0.05"/>
    <path d="M46.45 15.6 Q44.7 6.6 38.9 3.3 M48.25 15.9 L48.25 4.05 M43.65 24.6 Q45.15 19.5 50.15 19.0 M51.15 16.0 Q51.2 7.3 59.6 3.9 M46.3 32.0 L46.3 68.25 M50.15 67.8 L50.15 33.05" fill="none" stroke="#363f30" stroke-linecap="round" stroke-linejoin="round" stroke-width="0.05"/>
    <path d="M348.25 4.05 L348.25 15.9 348.25 4.05 M338.9 3.3 Q344.7 6.6 346.45 15.6 344.7 6.6 338.9 3.3 M353.1 18.8 Q351.35 17.35 348.95 17.35 346.25 17.35 344.35 19.25 L344.2 19.4 344.35 19.25 Q346.25 17.35 348.95 17.35 351.35 17.35 353.1 18.8 L353.6 19.25 Q355.5 21.15 355.5 23.85 355.5 26.6 353.6 28.5 L353.1 28.95 Q351.35 30.4 348.95 30.4 346.25 30.4 344.35 28.5 L344.2 28.35 344.35 28.5 Q346.25 30.4 348.95 30.4 351.35 30.4 353.1 28.95 L353.1 71.8 344.2 71.8 344.2 28.35 Q342.45 26.5 342.45 23.85 342.45 21.25 344.2 19.4 344.45 8.85 330.0 2.0 L369.1 2.0 Q355.4 8.1 353.1 18.8 M350.15 19.0 Q345.15 19.5 343.65 24.6 345.15 19.5 350.15 19.0 M359.6 3.9 Q351.2 7.3 351.15 16.0 351.2 7.3 359.6 3.9 M346.3 68.25 L346.3 32.0 346.3 68.25 M350.15 33.05 L350.15 67.8 350.15 33.05" fill="#252c21" fill-rule="evenodd" stroke="none"/>
    <path d="M344.2 19.4 L344.35 19.25 Q346.25 17.35 348.95 17.35 351.35 17.35 353.1 18.8 355.4 8.1 369.1 2.0 L330.0 2.0 Q344.45 8.85 344.2 19.4 342.45 21.25 342.45 23.85 342.45 26.5 344.2 28.35 L344.35 28.5 Q346.25 30.4 348.95 30.4 351.35 30.4 353.1 28.95 L353.6 28.5 Q355.5 26.6 355.5 23.85 355.5 21.15 353.6 19.25 L353.1 18.8 M353.1 28.95 L353.1 71.8 344.2 71.8 344.2 28.35" fill="none" stroke="#0d1c0c" stroke-linecap="round" stroke-linejoin="round" stroke-width="0.05"/>
    <path d="M346.45 15.6 Q344.7 6.6 338.9 3.3 M348.25 15.9 L348.25 4.05 M343.65 24.6 Q345.15 19.5 350.15 19.0 M350.15 67.8 L350.15 33.05 M346.3 32.0 L346.3 68.25 M351.15 16.0 Q351.2 7.3 359.6 3.9" fill="none" stroke="#363f30" stroke-linecap="round" stroke-linejoin="round" stroke-width="0.05"/>
    <path d="M362.8 70.65 L364.9 71.35 364.75 72.05 Q364.4 73.5 362.85 74.35 L362.2 74.9 362.15 78.05 361.85 78.2 Q360.5 78.4 359.5 77.5 358.85 76.85 358.35 75.85 L342.35 74.3 328.5 72.1 328.75 70.45 332.15 69.7 333.05 67.75 334.35 67.7 Q335.95 71.05 339.85 71.85 L347.45 72.45 359.4 73.45 362.8 70.65 M384.1 71.65 L384.3 72.55 387.05 72.6 Q390.1 71.95 389.65 69.2 L387.95 68.15 387.1 68.4 Q385.0 69.5 384.1 71.65 L383.9 70.65 384.1 71.65 M384.2 61.5 Q387.9 61.05 390.75 63.3 391.75 64.0 392.15 65.0 393.95 69.85 390.55 74.3 L388.95 75.15 Q386.0 74.0 382.75 75.7 L382.8 74.8 380.35 75.0 379.3 74.85 378.8 73.35 379.1 72.3 379.05 72.3 378.5 71.15 Q378.0 69.7 378.25 68.1 379.05 62.75 384.2 61.5 L383.75 64.0 385.0 65.95 383.75 64.0 384.2 61.5 M380.95 73.95 L380.35 75.0 380.95 73.95 M382.35 71.9 Q382.85 71.45 382.85 70.85 382.85 70.25 382.35 69.8 381.85 69.35 381.15 69.35 380.45 69.35 379.95 69.8 379.5 70.25 379.5 70.85 379.5 71.45 379.95 71.9 380.45 72.35 381.15 72.35 L382.35 71.9 M383.35 73.15 L382.75 75.7 383.35 73.15 M379.9 237.2 L381.85 233.45 Q383.0 230.9 381.6 228.6 380.95 227.5 380.75 226.15 380.35 223.45 383.4 222.85 L384.95 223.05 386.0 226.95 390.45 228.45 391.3 230.7 Q389.95 232.55 387.55 233.4 L386.7 234.2 384.2 238.1 382.45 240.65 379.9 245.35 382.45 240.65 384.2 238.1 Q392.3 242.75 400.65 243.3 L404.45 243.2 403.35 248.1 404.9 249.35 Q404.5 252.4 401.45 253.25 L399.25 253.1 Q396.05 251.55 393.05 249.7 387.05 245.95 379.9 245.35 L377.05 254.4 376.1 254.3 375.75 253.55 374.7 253.1 372.85 251.5 371.5 251.6 369.85 253.65 367.6 253.5 367.5 252.45 Q367.55 251.4 368.2 250.7 L373.75 244.55 373.8 244.5 378.2 239.6 379.9 237.2 378.2 239.6 373.8 244.5 373.35 244.15 368.3 242.5 Q365.85 241.7 363.25 241.4 L352.9 239.6 Q348.5 238.7 349.25 234.45 L350.3 234.3 349.65 233.95 352.0 230.45 353.65 232.1 355.35 232.45 356.15 231.9 Q355.55 230.35 355.45 228.9 355.4 227.75 356.2 227.05 L358.1 226.95 Q359.05 228.15 359.0 229.75 358.95 231.15 359.8 232.15 363.2 236.05 368.3 237.15 L367.2 234.55 367.65 234.2 367.6 232.45 Q367.65 231.2 368.15 230.15 368.75 228.85 370.35 228.85 372.15 234.55 378.05 236.75 L379.9 237.2 M378.2 239.6 L368.3 237.15 378.2 239.6 M382.45 240.65 Q390.0 244.15 398.0 246.45 L403.35 248.1 398.0 246.45 Q390.0 244.15 382.45 240.65 M341.7 234.95 Q339.9 241.0 343.1 246.65 344.0 248.25 345.6 249.6 349.8 252.9 355.1 253.4 349.05 255.1 343.95 252.45 341.25 251.05 340.05 248.3 337.2 241.35 341.7 234.95 M331.65 239.05 Q331.05 241.0 331.05 243.3 331.0 250.25 337.8 252.85 334.45 254.75 330.9 253.6 329.75 253.2 329.45 252.4 326.9 245.4 331.65 239.05 M356.15 237.0 Q354.35 233.7 350.3 234.3 354.35 233.7 356.15 237.0 M16.75 72.15 L29.65 72.8 34.95 72.55 37.5 67.95 41.8 69.05 38.95 72.1 43.3 73.15 43.8 75.0 Q42.35 75.95 40.85 75.3 L38.45 74.9 Q29.55 76.05 20.55 74.15 L15.25 75.9 15.4 74.9 15.3 73.45 13.2 73.25 12.3 74.15 11.4 73.65 11.6 72.85 16.75 72.15 11.6 72.85 11.4 73.65 12.3 74.15 13.2 73.25 15.3 73.45 15.4 74.9 15.25 75.9 15.2 76.05 14.05 77.8 11.6 77.65 7.85 75.2 6.95 75.15 Q6.5 75.25 6.15 75.45 2.05 77.95 -3.65 75.9 -9.45 76.9 -15.4 75.9 L-16.3 72.0 -14.4 72.1 Q-13.45 72.35 -12.65 73.1 L-12.45 73.35 -7.4 73.5 -17.25 68.75 -17.3 67.65 -13.75 68.0 -12.15 67.25 Q-10.55 69.4 -8.1 70.9 L-8.0 70.95 -6.5 69.05 -3.2 72.6 -5.05 67.8 Q-6.25 64.1 -3.75 60.85 -4.8 63.65 -4.0 66.55 -3.05 70.4 0.6 72.6 -1.4 68.6 -0.05 64.2 1.55 58.7 7.35 56.75 L6.0 58.15 Q-0.1 65.1 3.95 73.05 L4.2 73.0 6.8 69.55 6.4 72.75 Q9.25 72.45 10.85 70.15 L12.3 70.55 11.9 72.05 12.95 71.3 13.05 71.25 Q15.25 69.55 16.65 67.2 L18.45 63.9 20.5 68.55 16.75 72.15 M-3.65 75.9 L0.7 74.9 6.95 75.15 0.7 74.9 -3.65 75.9 M11.6 72.85 L11.9 72.05 11.6 72.85 M4.2 73.0 L5.95 72.75 6.4 72.75 5.95 72.75 4.2 73.0 M53.55 235.0 Q56.25 234.05 59.25 234.05 65.2 234.05 67.9 238.8 70.45 243.35 66.8 247.85 L64.55 250.1 61.75 252.15 59.0 249.75 56.25 252.85 54.4 250.8 51.75 251.1 Q50.65 251.65 50.15 252.85 L49.4 252.75 48.35 251.95 47.65 250.9 49.0 247.15 Q46.75 244.5 47.5 241.2 48.6 236.65 53.55 235.0 M149.85 120.3 L152.3 119.15 152.7 122.45 156.1 123.2 156.05 123.8 Q155.75 125.6 154.0 125.8 151.05 124.85 148.5 126.7 L146.4 128.3 Q139.5 133.3 131.0 132.75 L131.2 131.2 Q139.75 130.2 146.6 125.05 149.15 123.15 149.85 120.3 M60.2 242.15 Q59.25 242.75 58.85 243.8 57.95 245.9 59.5 247.4 L60.9 247.8 Q63.9 247.95 64.9 245.25 L64.65 244.2 Q64.05 242.35 62.1 241.7 L60.2 242.15 M55.9 246.5 L56.0 244.05 Q54.4 241.7 51.8 243.15 L50.3 243.65 Q49.2 246.25 51.8 247.15 53.9 247.85 55.9 246.5 M22.35 219.4 Q18.6 216.9 14.35 215.4 L10.4 214.4 6.2 213.7 6.35 211.8 11.65 212.0 Q15.2 212.65 18.45 214.2 25.6 217.65 32.5 221.75 L34.7 221.6 35.55 221.15 37.95 222.15 36.95 223.15 34.05 223.45 35.1 226.8 Q31.3 227.25 29.4 224.25 L27.85 222.7 22.35 219.4 M6.0 217.65 L7.9 222.7 10.25 221.15 11.25 221.65 10.7 224.7 8.65 224.6 Q4.0 227.8 1.9 233.2 0.3 237.2 -0.4 241.6 L-1.2 240.9 -1.5 239.7 -6.55 240.45 -7.6 239.55 Q-7.15 238.2 -6.1 237.45 0.05 233.0 3.0 226.5 L3.6 224.65 4.6 217.9 6.0 217.65 M3.95 73.05 L-1.5 73.65 -7.4 73.5 -1.5 73.65 Q-3.3 72.55 -5.45 71.95 L-8.0 70.95 -5.45 71.95 Q-3.3 72.55 -1.5 73.65 L3.95 73.05" fill="#999966" fill-rule="evenodd" stroke="none"/>
    <path d="M384.1 71.65 Q385.0 69.5 387.1 68.4 L387.95 68.15 389.65 69.2 Q390.1 71.95 387.05 72.6 L384.3 72.55 384.1 71.65 M382.35 71.9 L381.15 72.35 Q380.45 72.35 379.95 71.9 379.5 71.45 379.5 70.85 379.5 70.25 379.95 69.8 380.45 69.35 381.15 69.35 381.85 69.35 382.35 69.8 382.85 70.25 382.85 70.85 382.85 71.45 382.35 71.9 M55.9 246.5 Q53.9 247.85 51.8 247.15 49.2 246.25 50.3 243.65 L51.8 243.15 Q54.4 241.7 56.0 244.05 L55.9 246.5 M60.2 242.15 L62.1 241.7 Q64.05 242.35 64.65 244.2 L64.9 245.25 Q63.9 247.95 60.9 247.8 L59.5 247.4 Q57.95 245.9 58.85 243.8 59.25 242.75 60.2 242.15" fill="#2e2d1f" fill-rule="evenodd" stroke="none"/>
    <path d="M362.8 70.65 L364.9 71.35 364.75 72.05 Q364.4 73.5 362.85 74.35 L362.2 74.9 362.15 78.05 361.85 78.2 Q360.5 78.4 359.5 77.5 358.85 76.85 358.35 75.85 L342.35 74.3 328.5 72.1 328.75 70.45 332.15 69.7 333.05 67.75 334.35 67.7 Q335.95 71.05 339.85 71.85 L347.45 72.45 359.4 73.45 362.8 70.65 M384.1 71.65 Q385.0 69.5 387.1 68.4 L387.95 68.15 389.65 69.2 Q390.1 71.95 387.05 72.6 L384.3 72.55 384.1 71.65 383.9 70.65 M382.75 75.7 Q386.0 74.0 388.95 75.15 L390.55 74.3 Q393.95 69.85 392.15 65.0 391.75 64.0 390.75 63.3 387.9 61.05 384.2 61.5 L383.75 64.0 385.0 65.95 M384.2 61.5 Q379.05 62.75 378.25 68.1 378.0 69.7 378.5 71.15 L379.05 72.3 379.1 72.3 378.8 73.35 378.45 74.25 377.95 74.85 M379.3 74.85 L380.35 75.0 380.95 73.95 M382.35 71.9 L381.15 72.35 Q380.45 72.35 379.95 71.9 379.5 71.45 379.5 70.85 379.5 70.25 379.95 69.8 380.45 69.35 381.15 69.35 381.85 69.35 382.35 69.8 382.85 70.25 382.85 70.85 382.85 71.45 382.35 71.9 M379.3 74.85 L378.45 74.25 M380.35 75.0 L379.95 75.7 M380.35 75.0 L382.8 74.8 382.75 75.7 383.35 73.15 M390.55 74.3 L393.85 75.2 M384.2 238.1 L386.7 234.2 387.55 233.4 Q389.95 232.55 391.3 230.7 L390.45 228.45 386.0 226.95 384.95 223.05 383.4 222.85 Q380.35 223.45 380.75 226.15 380.95 227.5 381.6 228.6 383.0 230.9 381.85 233.45 L379.9 237.2 378.2 239.6 373.8 244.5 373.75 244.55 368.2 250.7 Q367.55 251.4 367.5 252.45 L367.6 253.5 369.85 253.65 371.5 251.6 372.85 251.5 374.7 253.1 375.75 253.55 376.1 254.3 377.05 254.4 379.9 245.35 382.45 240.65 384.2 238.1 Q392.3 242.75 400.65 243.3 L404.45 243.2 403.35 248.1 404.9 249.35 Q404.5 252.4 401.45 253.25 L399.25 253.1 Q396.05 251.55 393.05 249.7 387.05 245.95 379.9 245.35 M379.9 237.2 L378.05 236.75 Q372.15 234.55 370.35 228.85 368.75 228.85 368.15 230.15 367.65 231.2 367.6 232.45 L367.65 234.2 367.2 234.55 368.3 237.15 378.2 239.6 M350.3 234.3 L349.25 234.45 Q348.5 238.7 352.9 239.6 L363.25 241.4 Q365.85 241.7 368.3 242.5 L373.35 244.15 M403.35 248.1 L398.0 246.45 Q390.0 244.15 382.45 240.65 M331.65 239.05 Q326.9 245.4 329.45 252.4 329.75 253.2 330.9 253.6 334.45 254.75 337.8 252.85 331.0 250.25 331.05 243.3 331.05 241.0 331.65 239.05 M341.7 234.95 Q337.2 241.35 340.05 248.3 341.25 251.05 343.95 252.45 349.05 255.1 355.1 253.4 349.8 252.9 345.6 249.6 344.0 248.25 343.1 246.65 339.9 241.0 341.7 234.95 M368.3 237.15 Q363.2 236.05 359.8 232.15 358.95 231.15 359.0 229.75 359.05 228.15 358.1 226.95 L356.2 227.05 Q355.4 227.75 355.45 228.9 355.55 230.35 356.15 231.9 L355.35 232.45 353.65 232.1 352.0 230.45 349.65 233.95 349.25 234.45 M350.3 234.3 Q354.35 233.7 356.15 237.0 M15.25 75.9 L20.55 74.15 Q29.55 76.05 38.45 74.9 L40.85 75.3 Q42.35 75.95 43.8 75.0 L43.3 73.15 38.95 72.1 41.8 69.05 37.5 67.95 34.95 72.55 29.65 72.8 16.75 72.15 11.6 72.85 11.4 73.65 12.3 74.15 13.2 73.25 15.3 73.45 15.4 74.9 15.25 75.9 15.2 76.05 14.05 77.8 11.6 77.65 7.85 75.2 6.95 75.15 Q6.5 75.25 6.15 75.45 2.05 77.95 -3.65 75.9 -9.45 76.9 -15.4 75.9 L-16.3 72.0 -14.4 72.1 Q-13.45 72.35 -12.65 73.1 L-12.45 73.35 -7.4 73.5 -17.25 68.75 -17.3 67.65 -13.75 68.0 -12.15 67.25 Q-10.55 69.4 -8.1 70.9 L-8.0 70.95 -6.5 69.05 -3.2 72.6 -5.05 67.8 Q-6.25 64.1 -3.75 60.85 -4.8 63.65 -4.0 66.55 -3.05 70.4 0.6 72.6 -1.4 68.6 -0.05 64.2 1.55 58.7 7.35 56.75 L6.0 58.15 Q-0.1 65.1 3.95 73.05 L4.2 73.0 6.8 69.55 6.4 72.75 Q9.25 72.45 10.85 70.15 L12.3 70.55 11.9 72.05 12.95 71.3 13.05 71.25 Q15.25 69.55 16.65 67.2 L18.45 63.9 20.5 68.55 16.75 72.15 M6.4 72.75 L5.95 72.75 4.2 73.0 M11.9 72.05 L11.6 72.85 M6.95 75.15 L0.7 74.9 -3.65 75.9 M149.85 120.3 Q149.15 123.15 146.6 125.05 139.75 130.2 131.2 131.2 L131.0 132.75 Q139.5 133.3 146.4 128.3 L148.5 126.7 Q151.05 124.85 154.0 125.8 155.75 125.6 156.05 123.8 L156.1 123.2 152.7 122.45 152.3 119.15 149.85 120.3 M53.55 235.0 Q48.6 236.65 47.5 241.2 46.75 244.5 49.0 247.15 L47.65 250.9 48.35 251.95 49.4 252.75 50.15 252.85 Q50.65 251.65 51.75 251.1 L54.4 250.8 56.25 252.85 59.0 249.75 61.75 252.15 64.55 250.1 66.8 247.85 Q70.45 243.35 67.9 238.8 65.2 234.05 59.25 234.05 56.25 234.05 53.55 235.0 M55.9 246.5 Q53.9 247.85 51.8 247.15 49.2 246.25 50.3 243.65 L51.8 243.15 Q54.4 241.7 56.0 244.05 L55.9 246.5 M60.2 242.15 L62.1 241.7 Q64.05 242.35 64.65 244.2 L64.9 245.25 Q63.9 247.95 60.9 247.8 L59.5 247.4 Q57.95 245.9 58.85 243.8 59.25 242.75 60.2 242.15 M22.35 219.4 Q18.6 216.9 14.35 215.4 L10.4 214.4 6.2 213.7 6.35 211.8 11.65 212.0 Q15.2 212.65 18.45 214.2 25.6 217.65 32.5 221.75 L34.7 221.6 35.55 221.15 37.95 222.15 36.95 223.15 34.05 223.45 35.1 226.8 Q31.3 227.25 29.4 224.25 L27.85 222.7 22.35 219.4 M6.0 217.65 L4.6 217.9 3.6 224.65 3.0 226.5 Q0.05 233.0 -6.1 237.45 -7.15 238.2 -7.6 239.55 L-6.55 240.45 -1.5 239.7 -1.2 240.9 -0.4 241.6 Q0.3 237.2 1.9 233.2 4.0 227.8 8.65 224.6 L10.7 224.7 11.25 221.65 10.25 221.15 7.9 222.7 6.0 217.65 M-7.4 73.5 L-1.5 73.65 Q-3.3 72.55 -5.45 71.95 L-8.0 70.95 M-1.5 73.65 L3.95 73.05" fill="none" stroke="#333300" stroke-linecap="round" stroke-linejoin="round" stroke-width="0.05"/>
    <path d="M-14.5 -2.1 L-1.4 -2.1 -1.4 79.05 -1.4 84.15 Q-8.7 89.45 -14.5 84.15 L-14.5 78.7 -14.5 -2.1" fill="url(#gradient6)" fill-rule="evenodd" stroke="none"/>
    <path d="M-14.5 78.7 L-14.5 84.15 Q-8.7 89.45 -1.4 84.15 L-1.4 79.05 -0.75 79.4 Q2.15 81.2 2.4 83.7 L2.4 84.15 2.4 84.3 2.35 84.9 2.35 84.95 2.3 85.25 1.9 86.3 Q1.1 87.7 -0.75 88.85 -3.9 90.8 -8.3 90.8 -12.75 90.8 -15.85 88.85 -17.7 87.7 -18.45 86.3 L-19.0 84.4 -19.0 84.0 Q-18.95 81.3 -15.85 79.4 -15.2 79.0 -14.5 78.7" fill="url(#gradient7)" fill-rule="evenodd" stroke="none"/>
    <path d="M-19.0 84.4 L-18.45 86.3 Q-17.7 87.7 -15.85 88.85 -12.75 90.8 -8.3 90.8 -3.9 90.8 -0.75 88.85 1.1 87.7 1.9 86.3 L2.3 85.25 2.35 87.65 2.4 88.95 2.35 87.65 2.4 88.45 2.4 88.95 Q2.1 91.35 -0.75 93.1 -3.9 95.05 -8.3 95.1 -12.75 95.05 -15.85 93.1 -18.95 91.25 -19.0 88.55 L-19.0 88.3 -19.0 84.4" fill="url(#gradient8)" fill-rule="evenodd" stroke="none"/>
    <path d="M-14.5 -2.1 L-14.5 78.7 -14.5 84.15 Q-8.7 89.45 -1.4 84.15 L-1.4 79.05 -1.4 -2.1 M2.4 84.3 L2.4 84.15 2.4 83.7 Q2.15 81.2 -0.75 79.4 L-1.4 79.05 M-19.0 84.4 L-18.45 86.3 Q-17.7 87.7 -15.85 88.85 -12.75 90.8 -8.3 90.8 -3.9 90.8 -0.75 88.85 1.1 87.7 1.9 86.3 L2.3 85.25 M-14.5 78.7 Q-15.2 79.0 -15.85 79.4 -18.95 81.3 -19.0 84.0 L-19.0 84.4 -19.0 88.3 M-19.0 88.55 Q-18.95 91.25 -15.85 93.1 -12.75 95.05 -8.3 95.1 -3.9 95.05 -0.75 93.1 2.1 91.35 2.4 88.95 L2.35 87.65 2.3 85.25 M2.4 88.95 L2.4 88.45 2.35 87.65" fill="none" stroke="#000000" stroke-linecap="round" stroke-linejoin="round" stroke-width="1.0"/>
    <path d="M394.5 78.7 L394.5 0.85 407.6 0.85 407.6 79.05 407.6 84.15 Q400.3 89.45 394.5 84.15 L394.5 78.7" fill="url(#gradient9)" fill-rule="evenodd" stroke="none"/>
    <path d="M411.3 85.25 L411.35 87.65 411.4 88.45 411.4 88.95 Q411.1 91.35 408.25 93.1 405.1 95.05 400.7 95.1 396.25 95.05 393.15 93.1 390.05 91.25 390.0 88.55 L390.0 88.3 390.0 84.4 Q390.05 85.4 390.55 86.3 391.3 87.7 393.15 88.85 396.25 90.8 400.7 90.8 405.1 90.8 408.25 88.85 410.1 87.7 410.9 86.3 L411.3 85.25 M411.4 88.95 L411.35 87.65 411.4 88.95" fill="url(#gradient10)" fill-rule="evenodd" stroke="none"/>
    <path d="M407.6 79.05 L408.25 79.4 Q411.15 81.2 411.4 83.7 L411.4 84.15 411.4 84.3 411.35 84.9 411.35 84.95 411.3 85.25 410.9 86.3 Q410.1 87.7 408.25 88.85 405.1 90.8 400.7 90.8 396.25 90.8 393.15 88.85 391.3 87.7 390.55 86.3 390.05 85.4 390.0 84.4 L390.0 84.0 Q390.05 81.3 393.15 79.4 L394.5 78.7 394.5 84.15 Q400.3 89.45 407.6 84.15 L407.6 79.05" fill="url(#gradient11)" fill-rule="evenodd" stroke="none"/>
    <path d="M407.6 79.05 L408.25 79.4 Q411.15 81.2 411.4 83.7 L411.4 84.15 411.4 84.3 M411.3 85.25 L411.35 87.65 411.4 88.45 411.4 88.95 Q411.1 91.35 408.25 93.1 405.1 95.05 400.7 95.1 396.25 95.05 393.15 93.1 390.05 91.25 390.0 88.55 M390.0 88.3 L390.0 84.4 390.0 84.0 Q390.05 81.3 393.15 79.4 L394.5 78.7 394.5 0.85 M407.6 0.85 L407.6 79.05 407.6 84.15 Q400.3 89.45 394.5 84.15 L394.5 78.7 M411.3 85.25 L410.9 86.3 Q410.1 87.7 408.25 88.85 405.1 90.8 400.7 90.8 396.25 90.8 393.15 88.85 391.3 87.7 390.55 86.3 390.05 85.4 390.0 84.4 M411.35 87.65 L411.4 88.95" fill="none" stroke="#000000" stroke-linecap="round" stroke-linejoin="round" stroke-width="1.0"/>
    <path d="M387.4 70.65 Q387.4 67.85 388.9 65.9 390.35 63.9 392.45 63.9 M388.9 72.2 L392.5 68.15 M387.1 71.0 Q387.6 63.3 382.9 57.3 382.45 56.8 381.65 56.55 L380.6 56.8 M286.3 15.9 L284.1 18.9 M290.6 14.2 L293.0 17.15 M282.35 -0.6 L280.95 4.9 273.05 10.7 Q278.5 8.5 284.5 9.9 289.6 11.25 289.45 16.55 M272.25 10.65 L273.05 10.7 266.95 18.9 M266.95 35.5 Q263.0 33.9 259.7 31.65 255.85 29.1 255.7 24.65 L255.2 24.15 Q254.8 17.45 257.5 11.25 258.05 10.0 258.1 8.6 258.2 3.5 254.5 0.0 M248.0 18.35 Q248.0 16.9 249.25 15.85 250.45 14.8 252.15 14.8 M264.6 56.2 Q266.7 49.5 261.55 44.75 259.45 42.85 256.65 42.25 253.7 38.85 255.9 35.2 256.55 34.05 257.5 33.1 M240.3 49.7 L239.4 49.0 Q238.8 42.85 243.55 38.45 L249.3 32.7 Q250.35 31.55 250.4 29.9 250.5 23.2 245.1 19.1 241.8 16.5 240.05 12.7 237.65 7.5 241.9 3.9 243.0 2.95 244.45 2.35 M234.4 62.1 Q233.45 66.4 236.55 69.15 237.7 70.15 239.15 69.9 243.3 69.05 247.4 69.75 249.75 69.9 252.0 71.0 254.2 72.1 255.85 73.85 L255.7 76.9 Q251.7 72.25 247.05 75.3 246.7 75.5 246.4 75.8 L251.2 80.35 252.15 80.8 Q256.8 81.9 261.4 83.8 L263.75 83.7 265.45 83.1 266.55 74.1 269.85 73.5 271.1 71.6 M267.55 71.0 Q266.2 64.25 259.45 61.25 256.1 59.7 255.45 56.25 254.7 52.1 258.05 49.1 M256.3 82.85 Q255.45 83.45 256.45 83.65 L256.9 83.55 257.6 84.05 256.9 87.55 M243.85 84.6 L245.25 82.7 248.75 82.95 Q251.45 83.75 252.15 80.8 M251.2 80.35 L249.2 79.9 M276.3 75.1 Q275.55 75.9 274.5 76.05 271.8 75.55 269.85 73.5 M243.85 37.25 Q245.75 31.0 242.25 25.75 240.55 23.2 238.3 21.15 L233.85 16.9 Q231.15 14.3 229.8 10.85 227.8 5.65 230.85 1.15 M227.9 10.65 L227.0 10.05 224.1 12.0 225.5 15.35 M237.35 21.3 L235.45 22.3 M307.2 130.2 L312.55 127.3 M293.6 129.6 Q291.35 127.95 288.75 128.0 L287.1 128.1 M300.7 129.6 Q304.15 131.25 306.9 128.2 L307.85 126.55 Q309.25 121.65 306.0 117.75 M56.25 54.45 Q54.7 59.95 55.65 65.45 L56.25 66.45 Q60.0 69.8 64.55 67.25 L72.1 63.35 Q73.95 65.55 76.6 66.4 L78.9 66.8 Q83.25 66.6 85.95 70.05 L87.1 70.25 88.3 70.0 Q89.8 69.45 90.55 68.05 M43.8 35.5 Q41.7 32.75 43.35 29.85 44.15 28.45 45.6 27.55 46.65 26.85 47.85 26.5 53.8 24.9 57.05 20.2 57.55 19.45 57.4 18.45 L56.9 16.05 Q56.2 13.9 56.8 11.8 M43.8 55.6 Q39.8 50.3 44.1 44.95 L46.65 41.95 Q50.05 38.3 54.2 35.3 55.3 34.5 55.5 33.35 55.7 32.0 55.05 30.75 M33.75 71.0 Q34.85 66.85 38.95 67.4 44.6 67.5 48.7 63.4 L50.95 60.85 Q52.75 58.35 53.2 55.2 53.8 51.05 51.8 47.6 50.1 44.65 50.75 41.2 L51.5 40.8 M59.8 18.9 L63.35 18.9 M59.8 21.9 L61.2 22.95 M68.65 69.8 Q71.55 67.95 74.7 69.7 L79.8 72.8 82.85 71.0 M57.4 72.2 Q61.35 71.6 62.6 75.55 L62.75 76.3 Q59.5 76.9 56.4 77.85 53.45 78.9 53.25 82.25 M58.0 79.3 L59.9 82.7 M66.3 75.75 L68.05 76.9 M76.95 173.4 L76.4 171.8 77.2 170.5 M62.75 178.1 Q65.85 177.3 69.1 177.1 70.8 176.75 72.0 175.6 L72.1 173.55 74.0 169.25 M71.6 176.95 L80.5 175.15 M78.15 181.05 L84.1 182.15 M46.75 231.95 L47.8 228.85 M51.5 246.15 Q53.65 239.3 47.55 235.75 46.1 234.95 44.35 235.0 L40.85 234.6 Q33.25 235.25 30.45 228.35 28.15 222.65 33.05 219.5 36.6 217.2 39.6 219.9 41.55 221.55 40.15 223.7 L37.3 223.75 Q36.45 223.4 36.5 222.45 L36.7 221.9 M28.4 220.15 L24.85 216.3 M28.4 229.6 L24.85 230.2 M37.9 237.3 L36.7 240.25" fill="none" stroke="#396020" stroke-linecap="round" stroke-linejoin="round" stroke-width="1.0"/>
  </g>
  <defs>
    <radialGradient cx="0" cy="0" gradientTransform="matrix(0.0043, 0.2296, -0.4895, 0.008, 192.7, 147.0)" gradientUnits="userSpaceOnUse" id="gradient0" r="819.2" spreadMethod="pad">
      <stop offset="0.0" stop-color="#4e3f32"/>
      <stop offset="0.7490196078431373" stop-color="#332b21"/>
      <stop offset="1.0" stop-color="#1a1511"/>
    </radialGradient>
    <linearGradient gradientTransform="matrix(0.0, -0.0536, 0.0549, 0.0, 196.8, 42.85)" gradientUnits="userSpaceOnUse" id="gradient1" spreadMethod="pad" x1="-819.2" x2="819.2">
      <stop offset="0.0" stop-color="#3c4c33"/>
      <stop offset="1.0" stop-color="#151515"/>
    </linearGradient>
    <linearGradient gradientTransform="matrix(0.0, 0.0055, -0.0072, 0.0, 195.25, 63.0)" gradientUnits="userSpaceOnUse" id="gradient2" spreadMethod="pad" x1="-819.2" x2="819.2">
      <stop offset="0.0" stop-color="#293322"/>
      <stop offset="1.0" stop-color="#151515"/>
    </linearGradient>
    <linearGradient gradientTransform="matrix(0.0, 0.0338, -0.034, 0.0, 195.8, 37.25)" gradientUnits="userSpaceOnUse" id="gradient3" spreadMethod="pad" x1="-819.2" x2="819.2">
      <stop offset="0.0" stop-color="#3cd133"/>
      <stop offset="1.0" stop-color="#0e3615"/>
    </linearGradient>
    <linearGradient gradientTransform="matrix(0.0, 0.0338, -0.034, 0.0, 229.05, 37.25)" gradientUnits="userSpaceOnUse" id="gradient4" spreadMethod="pad" x1="-819.2" x2="819.2">
      <stop offset="0.0" stop-color="#3cd133"/>
      <stop offset="1.0" stop-color="#0e3615"/>
    </linearGradient>
    <linearGradient gradientTransform="matrix(0.0, 0.0338, -0.034, 0.0, 162.2, 37.25)" gradientUnits="userSpaceOnUse" id="gradient5" spreadMethod="pad" x1="-819.2" x2="819.2">
      <stop offset="0.0" stop-color="#3cd133"/>
      <stop offset="1.0" stop-color="#0e3615"/>
    </linearGradient>
    <linearGradient gradientTransform="matrix(0.008, 0.0, 0.0, 0.0627, -7.95, 32.8)" gradientUnits="userSpaceOnUse" id="gradient6" spreadMethod="pad" x1="-819.2" x2="819.2">
      <stop offset="0.0" stop-color="#0d110d"/>
      <stop offset="0.5137254901960784" stop-color="#485140"/>
      <stop offset="1.0" stop-color="#0d110d"/>
    </linearGradient>
    <linearGradient gradientTransform="matrix(0.0131, 0.0, 0.0, 0.0081, -8.35, 84.15)" gradientUnits="userSpaceOnUse" id="gradient7" spreadMethod="pad" x1="-819.2" x2="819.2">
      <stop offset="0.0" stop-color="#0d110d"/>
      <stop offset="0.5137254901960784" stop-color="#485140"/>
      <stop offset="1.0" stop-color="#0d110d"/>
    </linearGradient>
    <linearGradient gradientTransform="matrix(0.0131, 0.0, 0.0, 0.0081, -8.35, 88.4)" gradientUnits="userSpaceOnUse" id="gradient8" spreadMethod="pad" x1="-819.2" x2="819.2">
      <stop offset="0.0" stop-color="#0d110d"/>
      <stop offset="0.5137254901960784" stop-color="#485140"/>
      <stop offset="1.0" stop-color="#0d110d"/>
    </linearGradient>
    <linearGradient gradientTransform="matrix(0.008, 0.0, 0.0, 0.0627, 401.05, 32.8)" gradientUnits="userSpaceOnUse" id="gradient9" spreadMethod="pad" x1="-819.2" x2="819.2">
      <stop offset="0.0" stop-color="#0d110d"/>
      <stop offset="0.5137254901960784" stop-color="#485140"/>
      <stop offset="1.0" stop-color="#0d110d"/>
    </linearGradient>
    <linearGradient gradientTransform="matrix(0.0131, 0.0, 0.0, 0.0081, 400.65, 88.4)" gradientUnits="userSpaceOnUse" id="gradient10" spreadMethod="pad" x1="-819.2" x2="819.2">
      <stop offset="0.0" stop-color="#0d110d"/>
      <stop offset="0.5137254901960784" stop-color="#485140"/>
      <stop offset="1.0" stop-color="#0d110d"/>
    </linearGradient>
    <linearGradient gradientTransform="matrix(0.0131, 0.0, 0.0, 0.0081, 400.65, 84.15)" gradientUnits="userSpaceOnUse" id="gradient11" spreadMethod="pad" x1="-819.2" x2="819.2">
      <stop offset="0.0" stop-color="#0d110d"/>
      <stop offset="0.5137254901960784" stop-color="#485140"/>
      <stop offset="1.0" stop-color="#0d110d"/>
    </linearGradient>
  </defs>
</svg>
