<?xml version="1.0" encoding="UTF-8" standalone="no"?>
<svg xmlns:xlink="http://www.w3.org/1999/xlink" height="259.45px" width="424.2px" xmlns="http://www.w3.org/2000/svg">
  <g transform="matrix(1.0, 0.0, 0.0, 1.0, 17.75, 6.9)">
    <path d="M-13.65 65.6 L-13.65 2.15 405.95 2.15 405.95 65.6 -13.65 65.6 M121.8 38.7 Q123.05 37.1 124.45 35.6 L125.3 34.9 Q125.85 34.5 126.45 34.35 L128.05 34.3 128.1 34.3 128.7 34.65 128.1 34.3 128.05 34.3 126.45 34.35 Q125.85 34.5 125.3 34.9 L124.45 35.6 Q123.05 37.1 121.8 38.7 M134.05 33.25 L133.55 33.4 Q132.25 34.45 132.2 35.8 132.25 34.45 133.55 33.4 L134.05 33.25" fill="url(#gradient0)" fill-rule="evenodd" stroke="none"/>
    <path d="M405.95 65.6 L405.95 252.55 -13.65 252.55 -13.65 65.6 405.95 65.6 M248.25 148.35 L247.15 149.55 245.4 151.85 245.15 152.2 Q244.2 153.7 245.35 154.7 244.2 153.7 245.15 152.2 L245.4 151.85 247.15 149.55 248.25 148.35 M282.4 132.65 L278.85 133.1 270.75 133.05 270.15 132.9 269.05 132.65 Q267.05 132.2 267.0 134.45 267.15 136.05 269.6 135.65 267.5 136.45 265.0 136.25 L264.0 136.45 Q262.3 137.4 262.1 140.25 262.3 137.4 264.0 136.45 L265.0 136.25 Q267.5 136.45 269.6 135.65 267.15 136.05 267.0 134.45 267.05 132.2 269.05 132.65 L270.15 132.9 270.75 133.05 278.85 133.1 282.4 132.65 M241.3 148.9 L241.5 150.6 241.7 151.75 241.7 151.8 241.9 155.85 241.7 151.8 241.7 151.75 241.5 150.6 241.3 148.9 M236.7 146.6 L238.4 147.8 238.9 148.4 239.8 149.9 240.65 151.7 Q241.0 153.2 240.75 155.25 241.0 153.2 240.65 151.7 L239.8 149.9 238.9 148.4 238.4 147.8 236.7 146.6 M311.75 80.2 L311.3 80.85 310.9 81.95 310.0 85.4 310.9 81.95 311.3 80.85 311.75 80.2 M307.15 86.55 Q307.4 84.6 306.9 83.55 306.6 82.95 306.55 82.15 L306.5 81.95 Q306.3 76.75 310.0 73.3 306.3 76.75 306.5 81.95 L306.55 82.15 Q306.6 82.95 306.9 83.55 307.4 84.6 307.15 86.55 M301.35 76.75 Q302.25 78.0 302.65 80.15 L302.9 81.4 303.0 82.0 303.65 86.0 303.0 82.0 302.9 81.4 302.65 80.15 Q302.25 78.0 301.35 76.75 M367.75 107.35 Q367.2 107.35 367.0 107.6 366.6 108.2 366.5 109.1 366.4 110.35 364.85 110.45 L363.75 110.5 356.95 110.05 Q358.6 111.45 358.5 114.25 358.6 111.45 356.95 110.05 L363.75 110.5 364.85 110.45 Q366.4 110.35 366.5 109.1 366.6 108.2 367.0 107.6 367.2 107.35 367.75 107.35 M224.0 215.3 Q225.15 216.65 225.5 218.2 226.0 220.5 226.3 219.9 226.0 220.5 225.5 218.2 225.15 216.65 224.0 215.3 M255.75 215.85 L255.3 216.5 Q254.15 219.65 255.6 221.95 L256.3 222.8 255.6 221.95 Q254.15 219.65 255.3 216.5 L255.75 215.85 M248.05 215.45 L251.15 221.2 251.4 221.75 252.85 225.1 251.4 221.75 251.15 221.2 248.05 215.45 M41.0 220.5 L40.45 221.1 Q37.9 224.75 36.35 228.55 37.9 224.75 40.45 221.1 L41.0 220.5 M36.35 218.15 Q34.0 221.0 33.3 224.45 33.2 225.1 33.35 225.4 L34.05 227.4 33.35 225.4 Q33.2 225.1 33.3 224.45 34.0 221.0 36.35 218.15 M30.6 219.35 Q30.3 219.95 30.3 220.5 30.4 225.65 32.35 229.15 30.4 225.65 30.3 220.5 30.3 219.95 30.6 219.35 M158.75 240.1 L159.4 239.0 159.95 238.5 Q161.35 237.9 161.5 236.65 161.7 234.85 159.9 234.25 L157.05 234.0 Q154.65 234.15 153.55 233.2 L154.1 232.55 154.7 231.9 155.3 232.0 Q155.25 231.4 154.7 231.9 L151.25 230.9 Q149.25 230.25 147.2 230.85 149.25 230.25 151.25 230.9 L154.7 231.9 Q155.25 231.4 155.3 232.0 L154.7 231.9 154.1 232.55 153.55 233.2 Q154.65 234.15 157.05 234.0 L159.9 234.25 Q161.7 234.85 161.5 236.65 161.35 237.9 159.95 238.5 L159.4 239.0 158.75 240.1 M87.75 184.7 L88.05 183.3 Q88.65 180.1 88.65 176.6 88.65 180.1 88.05 183.3 L87.75 184.7 M80.8 177.75 Q80.05 178.05 82.0 178.95 82.6 179.2 83.1 179.6 85.2 181.15 85.95 182.4 L86.75 183.35 86.9 183.5 Q87.85 184.45 86.6 185.25 87.85 184.45 86.9 183.5 L86.75 183.35 85.95 182.4 Q85.2 181.15 83.1 179.6 82.6 179.2 82.0 178.95 80.05 178.05 80.8 177.75 M93.5 177.2 L93.0 177.8 Q90.95 180.3 89.7 183.2 L88.9 185.25 89.7 183.2 Q90.95 180.3 93.0 177.8 L93.5 177.2 M101.05 156.4 L99.5 152.25 99.25 151.55 98.5 149.55 Q98.05 148.25 97.0 147.15 98.05 148.25 98.5 149.55 L99.25 151.55 99.5 152.25 101.05 156.4 M103.9 155.85 Q103.15 153.55 102.95 151.1 102.7 148.4 103.05 145.5 102.7 148.4 102.95 151.1 103.15 153.55 103.9 155.85 M107.95 147.15 L107.9 147.75 107.5 150.9 Q107.25 153.35 107.4 155.85 107.25 153.35 107.5 150.9 L107.9 147.75 107.95 147.15 M86.0 192.75 Q85.25 191.5 83.15 191.35 L82.0 191.35 Q79.95 191.45 78.5 190.45 79.6 189.4 80.85 188.8 83.05 187.7 84.3 186.4 L83.7 186.4 82.7 186.15 Q81.15 185.2 78.5 185.25 L77.4 185.4 Q73.15 186.8 68.7 187.6 73.15 186.8 77.4 185.4 L78.5 185.25 Q81.15 185.2 82.7 186.15 L83.7 186.4 84.3 186.4 Q83.05 187.7 80.85 188.8 79.6 189.4 78.5 190.45 79.95 191.45 82.0 191.35 L83.15 191.35 Q85.25 191.5 86.0 192.75 M44.45 116.6 Q43.2 115.0 42.15 116.0 L41.75 116.65 Q41.55 117.45 41.8 118.2 L42.7 120.6 Q39.4 120.15 38.85 122.4 38.7 122.95 38.95 123.4 L40.25 124.85 40.7 125.25 28.85 132.75 40.7 125.25 40.25 124.85 38.95 123.4 Q38.7 122.95 38.85 122.4 39.4 120.15 42.7 120.6 L41.8 118.2 Q41.55 117.45 41.75 116.65 L42.15 116.0 Q43.2 115.0 44.45 116.6" fill="url(#gradient1)" fill-rule="evenodd" stroke="none"/>
    <path d="M358.5 114.25 Q358.6 111.45 356.95 110.05 L363.75 110.5 364.85 110.45 Q366.4 110.35 366.5 109.1 366.6 108.2 367.0 107.6 367.2 107.35 367.75 107.35 M303.65 86.0 L303.0 82.0 302.9 81.4 302.65 80.15 Q302.25 78.0 301.35 76.75 M310.0 73.3 Q306.3 76.75 306.5 81.95 L306.55 82.15 Q306.6 82.95 306.9 83.55 307.4 84.6 307.15 86.55 M310.0 85.4 L310.9 81.95 311.3 80.85 311.75 80.2 M240.75 155.25 Q241.0 153.2 240.65 151.7 L239.8 149.9 238.9 148.4 238.4 147.8 236.7 146.6 M241.9 155.85 L241.7 151.8 241.7 151.75 241.5 150.6 241.3 148.9 M262.1 140.25 Q262.3 137.4 264.0 136.45 L265.0 136.25 Q267.5 136.45 269.6 135.65 267.15 136.05 267.0 134.45 267.05 132.2 269.05 132.65 L270.15 132.9 270.75 133.05 278.85 133.1 282.4 132.65 M245.35 154.7 Q244.2 153.7 245.15 152.2 L245.4 151.85 247.15 149.55 248.25 148.35 M132.2 35.8 Q132.25 34.45 133.55 33.4 L134.05 33.25 M128.7 34.65 L128.1 34.3 128.05 34.3 126.45 34.35 Q125.85 34.5 125.3 34.9 L124.45 35.6 Q123.05 37.1 121.8 38.7 M28.85 132.75 L40.7 125.25 40.25 124.85 38.95 123.4 Q38.7 122.95 38.85 122.4 39.4 120.15 42.7 120.6 L41.8 118.2 Q41.55 117.45 41.75 116.65 L42.15 116.0 Q43.2 115.0 44.45 116.6 M68.7 187.6 Q73.15 186.8 77.4 185.4 L78.5 185.25 Q81.15 185.2 82.7 186.15 L83.7 186.4 84.3 186.4 Q83.05 187.7 80.85 188.8 79.6 189.4 78.5 190.45 79.95 191.45 82.0 191.35 L83.15 191.35 Q85.25 191.5 86.0 192.75 M107.4 155.85 Q107.25 153.35 107.5 150.9 L107.9 147.75 107.95 147.15 M103.05 145.5 Q102.7 148.4 102.95 151.1 103.15 153.55 103.9 155.85 M97.0 147.15 Q98.05 148.25 98.5 149.55 L99.25 151.55 99.5 152.25 101.05 156.4 M88.9 185.25 L89.7 183.2 Q90.95 180.3 93.0 177.8 L93.5 177.2 M86.6 185.25 Q87.85 184.45 86.9 183.5 L86.75 183.35 85.95 182.4 Q85.2 181.15 83.1 179.6 82.6 179.2 82.0 178.95 80.05 178.05 80.8 177.75 M88.65 176.6 Q88.65 180.1 88.05 183.3 L87.75 184.7 M147.2 230.85 Q149.25 230.25 151.25 230.9 L154.7 231.9 Q155.25 231.4 155.3 232.0 L154.7 231.9 154.1 232.55 153.55 233.2 Q154.65 234.15 157.05 234.0 L159.9 234.25 Q161.7 234.85 161.5 236.65 161.35 237.9 159.95 238.5 L159.4 239.0 158.75 240.1 M32.35 229.15 Q30.4 225.65 30.3 220.5 30.3 219.95 30.6 219.35 M34.05 227.4 L33.35 225.4 Q33.2 225.1 33.3 224.45 34.0 221.0 36.35 218.15 M36.35 228.55 Q37.9 224.75 40.45 221.1 L41.0 220.5 M252.85 225.1 L251.4 221.75 251.15 221.2 248.05 215.45 M256.3 222.8 L255.6 221.95 Q254.15 219.65 255.3 216.5 L255.75 215.85 M226.3 219.9 Q226.0 220.5 225.5 218.2 225.15 216.65 224.0 215.3" fill="none" stroke="#396020" stroke-linecap="round" stroke-linejoin="round" stroke-width="1.0"/>
    <path d="M374.05 39.25 L372.0 39.15 370.35 39.0 368.3 39.0 366.1 38.7 364.2 38.75 M397.75 25.4 Q397.65 26.75 397.9 27.5 L398.4 29.35 398.55 31.45 398.25 33.25 Q398.0 34.1 398.05 35.35 M397.75 36.5 Q397.3 37.85 396.55 38.05 L394.9 38.75 393.35 39.45 391.4 39.85 M338.85 12.7 L338.45 14.6 Q338.15 15.55 338.2 16.3 338.25 17.05 337.65 18.15 337.1 19.3 336.9 20.1 L336.6 22.2 M336.6 23.45 L336.65 25.2 Q336.7 26.35 337.1 27.3 337.5 28.3 337.5 29.15 L337.55 31.1 337.7 33.05 338.05 35.1 Q338.3 36.25 338.85 37.05 M347.95 38.1 L345.95 37.95 344.1 37.4 342.35 37.05 341.75 36.95 M339.85 37.85 L341.4 38.55 342.3 38.7 M363.0 38.95 Q362.1 39.5 360.9 39.45 359.7 39.4 359.1 39.0 358.55 38.6 357.5 38.55 L355.25 38.8 352.9 38.6 350.7 38.2 349.15 38.2 M361.95 51.4 Q361.8 50.55 361.9 49.5 L362.25 47.25 362.5 45.2 362.45 43.3 362.5 41.95 363.1 39.85 M372.35 61.75 L370.95 60.9 Q370.55 60.65 369.55 61.2 L367.9 62.25 Q367.3 62.75 366.4 62.9 L364.4 63.2 Q363.25 63.35 362.95 63.75 L362.55 64.05 M334.3 82.35 L332.35 82.45 330.75 82.3 Q330.3 82.35 329.65 81.95 M346.05 78.3 Q345.2 78.9 344.6 79.45 344.05 80.05 343.0 80.65 L341.15 81.4 339.3 81.5 337.15 81.5 Q336.05 81.6 335.45 82.05 M392.8 72.8 L391.4 73.85 M382.2 75.6 L380.55 75.9 378.6 76.05 Q377.65 75.75 377.8 75.05 L377.95 73.95 Q377.95 73.55 376.95 72.95 L375.65 71.9 Q375.4 71.45 375.5 71.2 L377.55 71.0 M375.85 95.8 L376.45 97.95 Q376.75 99.1 376.55 100.2 L376.45 102.25 Q376.5 103.25 376.0 103.85 375.5 104.5 375.35 105.05 375.25 105.6 373.5 106.2 M398.35 80.2 L396.45 80.3 394.85 80.4 392.55 80.2 M375.85 106.75 L373.7 106.7 371.8 106.7 369.85 106.6 367.95 106.5 366.0 106.45 363.95 106.35 361.9 106.75 M367.15 132.75 L364.95 132.7 Q364.1 132.9 363.35 132.3 362.6 131.7 361.4 131.4 360.25 131.1 359.95 130.65 L358.55 129.05 356.8 129.45 354.9 129.85 353.25 130.05 351.6 129.85 M373.5 128.7 Q373.7 129.2 373.25 129.75 372.85 130.3 372.0 129.95 371.2 129.6 371.0 129.3 370.8 129.05 371.35 128.7 L373.5 127.55 M360.8 107.15 L358.7 107.8 356.75 108.25 354.8 108.0 Q353.7 107.7 353.6 108.0 353.5 108.3 354.1 109.3 354.7 110.3 355.5 110.9 356.3 111.55 356.55 112.5 356.85 113.5 357.4 114.0 M358.1 115.3 L358.5 117.35 Q358.75 118.15 358.5 119.25 358.3 120.4 358.5 121.3 L358.7 123.55 Q358.65 124.9 358.95 125.8 L359.25 127.05 358.55 129.05 358.5 128.15 M345.25 161.6 L346.3 163.5 Q346.8 164.55 346.7 165.45 346.6 166.4 346.8 167.4 L347.25 169.6 347.55 171.65 347.6 173.55 347.4 175.55 M323.15 181.7 L325.1 181.6 327.05 181.5 328.8 181.4 330.9 181.05 333.0 180.9 334.8 181.0 337.1 180.85 339.15 180.8 Q338.85 180.05 337.85 179.3 L336.25 177.9 335.35 176.65 Q335.15 176.1 334.55 176.05 M365.85 182.75 Q364.75 182.2 364.05 181.9 L362.1 181.05 360.1 180.3 358.3 179.95 356.4 179.95 354.55 180.2 352.9 180.4 350.95 180.9 349.55 181.1 347.8 181.15 346.3 180.9 344.05 180.85 342.35 180.75 340.65 180.85 339.15 180.8 M324.55 186.1 Q324.15 184.75 324.3 184.4 L324.45 182.4 M329.05 182.4 L327.25 183.65 Q326.4 184.35 326.2 184.9 L325.6 186.4 M325.6 203.15 L325.3 201.55 324.95 199.3 324.95 197.25 324.9 195.3 324.6 193.3 Q324.4 192.3 324.65 191.4 L324.85 189.4 324.6 187.3 M347.05 176.75 L345.9 178.5 345.1 180.0 Q345.0 180.5 344.05 180.85 M349.55 181.1 Q348.9 180.05 348.35 179.85 347.8 179.65 347.55 178.9 M381.0 182.95 L378.95 182.75 Q377.95 183.0 377.1 182.75 L375.05 182.45 373.0 182.3 371.25 182.55 369.35 182.8 367.1 182.95 M292.65 43.85 L290.8 43.55 288.45 43.1 286.25 43.0 284.65 43.2 282.65 43.05 280.45 43.0 278.55 43.0 276.95 42.75 275.95 42.7 M252.15 37.2 L250.4 37.25 Q249.65 37.65 249.35 37.5 M267.35 35.45 L265.2 35.65 263.25 35.8 261.45 35.9 259.65 35.95 257.4 36.35 255.15 36.75 253.35 37.0 M274.2 24.25 L274.35 26.1 274.05 27.9 273.6 30.0 272.95 31.8 271.7 33.75 Q270.95 34.7 270.4 34.85 L268.65 35.3 M275.9 44.9 L275.55 43.2 Q275.3 42.15 274.55 41.2 273.85 40.25 272.8 40.15 L270.8 39.5 269.05 38.35 Q268.25 37.8 267.25 37.55 L265.9 37.15 Q265.5 36.95 263.8 37.5 M278.25 55.4 Q277.75 54.8 277.55 53.85 L277.0 52.0 276.4 50.3 275.9 48.35 Q275.6 47.2 275.8 46.1 M273.05 39.55 L273.6 39.85 M269.05 56.55 L268.2 58.35 267.2 60.0 266.0 61.7 264.8 63.4 Q264.15 64.2 263.15 64.2 L261.15 64.35 258.9 64.25 Q257.65 64.05 257.15 64.55 M278.85 64.65 L276.85 64.45 274.9 63.9 273.25 63.35 271.4 62.7 Q270.35 62.4 269.9 61.7 269.5 61.05 269.4 60.15 L269.15 57.8 M255.95 64.75 L253.95 64.85 252.4 65.15 250.6 65.75 M251.7 76.2 L249.5 76.3 247.55 76.25 246.0 75.95 Q245.2 76.05 244.15 75.6 L242.45 75.2 241.3 75.0 M282.3 81.25 Q281.6 81.45 280.45 81.25 L278.1 81.2 276.05 81.25 275.0 81.15 273.05 80.8 M296.15 75.6 Q296.1 76.7 296.2 77.65 L296.5 79.2 297.4 81.35 Q297.35 81.65 297.8 81.45 L297.95 81.35 Q298.55 81.05 299.5 81.8 300.55 81.35 301.45 81.8 302.35 82.3 303.55 82.2 L305.6 82.1 307.45 82.15 309.35 82.25 311.25 82.25 313.1 82.35 Q314.0 82.6 314.75 83.55 L316.1 85.45 M297.4 81.35 L295.2 81.3 293.2 81.45 291.45 81.6 289.55 81.85 287.5 81.7 285.4 81.3 283.5 81.15 M297.8 81.45 L298.7 81.65 299.5 81.8 M316.5 86.7 L316.55 89.05 316.3 90.7 Q316.15 91.5 315.35 91.9 L314.05 92.9 M221.75 16.7 Q221.55 17.9 221.75 18.8 L222.05 20.75 Q222.15 21.8 221.85 22.7 L221.35 24.6 220.8 26.6 220.25 28.7 Q220.1 29.75 220.5 30.75 M220.45 32.0 Q220.35 33.1 220.65 33.95 L221.2 35.5 Q221.4 36.2 222.25 36.95 M233.8 37.5 Q233.0 38.4 231.75 38.35 L229.6 38.15 227.7 38.05 225.7 38.0 223.6 37.65 221.45 37.55 219.45 37.85 217.6 38.0 M216.45 38.35 L215.5 39.8 215.25 41.15 215.3 42.15 M234.95 43.85 Q234.75 43.1 234.95 41.9 235.15 40.7 234.6 39.85 L233.95 38.65 M176.05 20.2 Q175.8 21.1 175.85 21.9 L176.15 23.8 176.45 25.9 176.5 27.95 176.55 30.15 M176.35 31.3 Q176.35 32.55 175.9 33.25 L174.7 34.85 173.75 35.8 Q173.55 35.8 173.75 36.35 M177.8 39.25 L176.05 39.1 173.85 38.9 171.65 38.8 170.05 38.65 168.2 38.45 165.95 38.5 Q164.75 38.6 163.95 38.15 M180.1 54.25 Q179.9 53.65 180.1 52.3 L180.3 50.2 180.2 48.15 179.85 46.2 179.55 44.45 179.45 42.4 Q179.45 41.45 179.1 40.55 L178.2 38.7 176.85 37.1 M175.75 37.2 Q175.9 37.35 175.5 37.5 M187.15 62.55 Q185.75 61.9 184.9 61.9 184.1 61.9 183.9 61.15 L183.65 59.75 Q183.6 59.1 183.2 59.05 182.85 59.0 181.95 59.5 L180.3 60.35 Q179.55 60.7 178.45 61.65 M202.05 61.6 Q201.15 61.65 200.15 62.15 L198.2 63.05 196.25 63.3 194.25 62.95 192.2 62.85 190.3 63.3 188.4 63.05 M210.6 65.55 L208.7 64.75 Q208.0 64.35 207.3 64.25 L205.35 63.55 Q204.1 63.0 203.6 62.1 L203.0 60.85 202.8 60.65 M177.35 62.35 Q176.2 62.7 175.55 63.3 174.95 63.9 173.7 64.2 L171.55 64.65 169.65 64.95 167.7 64.8 M166.5 64.95 L164.55 64.85 163.15 65.15 160.5 65.75 M166.2 61.75 L165.4 63.75 164.25 64.65 163.35 64.65 M234.95 64.05 L233.05 64.2 231.0 64.35 Q229.85 64.5 229.05 64.9 L227.5 65.25 226.75 65.4 226.3 65.6 M224.0 72.15 L226.15 72.25 Q227.4 72.3 228.05 72.65 L229.7 73.2 231.9 73.7 234.15 74.0 235.7 73.85 236.1 73.85 M210.7 65.6 L210.6 65.55 M200.45 172.25 Q199.65 172.75 198.3 172.65 L196.05 172.3 194.55 171.8 192.55 171.45 Q191.15 171.3 190.35 171.45 L189.0 171.35 188.2 171.4 M224.95 152.6 Q225.95 151.9 227.05 152.1 L229.25 152.45 231.15 152.3 233.0 151.7 234.65 151.6 236.45 151.55 238.65 151.65 240.75 151.7 M217.65 171.4 L215.65 171.05 213.6 171.35 211.6 171.8 209.5 171.85 207.65 171.75 205.55 171.9 203.45 172.15 201.65 172.3 M300.85 122.5 Q301.1 122.35 300.8 121.2 M310.0 131.0 L308.2 131.0 306.3 131.0 304.65 131.05 302.5 130.95 300.95 130.95 Q300.35 130.85 300.25 130.0 300.15 129.15 300.45 127.95 L301.0 125.5 Q301.2 124.25 300.85 123.75 M303.05 129.6 L302.5 130.95 M266.85 131.45 L266.9 131.05 M257.05 157.4 Q256.15 156.95 255.1 156.85 L253.7 157.05 Q253.35 157.4 252.85 157.55 M242.1 151.75 L244.2 152.05 246.1 151.85 248.05 152.1 250.2 152.45 252.1 152.45 253.95 151.95 255.4 151.2 Q255.85 150.9 256.9 151.8 M321.9 181.7 L319.9 181.85 317.9 182.1 315.95 181.8 313.9 181.5 311.8 181.75 309.85 181.95 M308.65 181.9 L306.6 181.7 305.15 181.55 303.1 181.25 M135.65 21.35 L135.6 23.15 135.5 25.15 135.5 27.15 Q135.55 28.35 135.0 29.35 134.5 30.35 134.45 30.85 L134.5 32.35 M137.95 28.3 Q137.75 29.8 137.4 30.4 L136.3 31.8 Q135.55 32.6 135.3 32.5 135.05 32.45 134.05 33.25 M128.1 34.3 L129.95 34.15 131.85 34.1 Q132.6 34.05 133.55 33.4 M119.5 34.65 L119.65 36.2 Q119.55 36.65 120.0 36.75 L121.85 36.0 Q122.6 35.65 123.35 35.45 L125.4 34.85 M114.1 35.0 L115.95 34.95 117.75 34.55 119.8 34.15 121.95 34.05 123.85 34.15 125.4 34.3 126.45 34.35 M162.75 38.15 L161.3 38.15 160.45 38.1 M98.7 27.7 Q98.3 28.6 98.3 29.3 98.35 30.0 99.15 31.0 99.95 32.05 100.85 32.7 L102.5 33.65 104.35 34.1 106.6 34.65 108.85 34.8 110.85 34.7 112.8 34.8 M120.9 41.85 L120.55 39.95 120.3 38.35 120.0 36.75 M119.5 57.15 Q118.95 56.2 118.95 55.25 L119.1 53.15 119.3 50.9 119.45 49.15 119.9 47.35 120.35 45.2 120.75 43.05 M117.75 59.45 L115.8 59.85 113.75 59.9 111.65 59.8 109.65 59.75 107.8 59.7 106.1 59.6 103.85 59.5 M102.65 59.5 L101.25 59.45 99.25 59.45 M114.9 73.85 L113.25 73.15 110.9 72.95 108.9 73.35 107.25 73.5 105.3 73.65 102.95 74.0 101.1 73.75 M120.15 62.3 L120.0 63.6 Q119.85 64.0 120.05 64.65 M99.9 73.6 Q99.25 73.25 98.35 73.8 L96.95 75.05 Q96.5 75.8 96.3 76.8 96.1 77.8 96.3 78.6 L97.05 80.35 Q97.6 81.3 98.5 82.1 L100.4 83.75 M91.3 92.95 Q90.1 93.0 89.75 93.45 89.45 93.95 88.35 94.05 M101.45 84.3 L101.45 86.2 Q101.55 87.15 101.1 87.9 L100.05 89.4 Q99.45 90.15 98.4 90.4 97.4 90.65 96.4 91.15 L94.4 91.85 Q93.4 92.05 92.5 92.55 M144.9 64.65 Q143.85 64.6 143.35 64.2 142.85 63.85 142.5 62.85 L141.95 60.7 141.6 58.65 Q141.5 57.75 141.15 57.8 140.8 57.85 140.35 58.9 L139.45 60.8 M128.0 62.25 L127.6 63.75 Q127.5 64.25 127.55 65.55 M128.15 65.6 L130.0 65.35 130.2 65.35 M131.15 65.35 L132.45 65.3 134.3 65.15 135.6 65.15 137.4 64.65 137.15 63.6 M138.95 62.05 L138.2 63.1 Q137.65 63.65 137.4 64.65 137.75 64.75 137.4 65.25 M163.95 75.0 L161.9 75.3 159.8 75.45 157.75 75.2 155.9 75.1 153.9 75.3 151.8 75.3 149.8 75.15 Q148.85 75.1 147.85 75.5 L146.65 75.6 M50.2 16.15 L50.6 18.1 50.7 20.1 50.85 21.95 51.15 23.9 Q51.2 25.0 50.9 26.1 L50.15 28.3 49.0 30.15 Q48.3 30.9 48.15 31.75 M47.25 32.7 L45.9 33.55 Q45.6 33.75 45.65 34.3 L47.1 35.55 48.7 36.55 Q49.7 37.2 49.95 37.8 50.2 38.4 51.35 38.1 M45.65 34.3 Q45.3 34.9 44.35 35.3 43.4 35.7 42.65 36.4 L40.85 37.65 Q39.8 38.2 38.8 38.1 L36.75 37.95 34.8 37.8 32.8 37.9 M62.35 37.5 Q61.7 38.15 60.55 38.1 L58.35 38.1 56.25 38.2 54.25 38.4 52.45 38.6 50.55 38.75 48.4 38.75 46.3 38.8 44.85 38.9 43.25 39.25 M-0.35 39.05 L1.0 38.95 3.45 39.25 M31.55 37.9 L29.6 37.9 27.5 38.05 25.65 37.95 23.45 37.85 21.3 38.1 20.1 38.1 18.45 38.1 M21.35 32.9 L21.45 34.4 22.5 36.35 M32.3 38.7 L32.3 40.65 32.1 42.35 Q32.05 43.05 32.25 43.0 33.1 42.65 33.6 41.8 34.1 41.0 34.85 40.65 L36.35 39.85 M31.65 48.15 L31.85 45.9 32.0 44.5 32.1 43.9 31.75 44.45 M32.1 43.9 L32.25 43.0 M31.15 59.45 Q31.5 58.45 31.45 57.6 L31.35 55.8 31.3 53.5 31.2 51.25 Q31.1 50.35 31.4 49.45 M60.6 101.0 Q61.2 102.0 60.9 102.9 60.65 103.85 60.75 104.85 L60.75 106.9 60.3 108.8 59.3 110.45 58.3 110.8 M45.6 118.3 L46.2 117.15 Q46.25 116.75 47.35 116.25 L47.25 114.75 Q47.15 113.8 46.65 112.55 46.4 112.4 45.6 112.55 L43.9 112.15 42.1 112.0 39.9 111.55 37.5 110.95 35.7 111.0 M46.65 112.55 L48.5 112.35 50.55 112.35 52.2 112.6 Q52.7 112.85 52.35 112.9 L51.15 113.5 49.5 114.55 48.0 115.7 Q47.9 115.55 47.35 116.25 M34.4 110.95 L32.4 110.7 30.4 111.0 28.25 111.1 26.75 111.35 24.8 111.4 M25.4 115.45 L23.35 114.85 21.8 115.05 Q21.4 115.5 21.25 116.6 21.1 117.75 20.4 118.25 L18.8 119.55 17.0 120.55 15.1 120.9 M13.9 121.25 L12.0 121.95 Q10.85 122.55 10.1 122.65 9.4 122.8 8.65 123.35 7.9 123.9 7.05 124.75 L5.7 126.65 4.9 128.15 M5.3 129.5 L7.05 130.7 8.9 132.1 10.7 132.9 12.35 133.65 14.3 134.45 Q15.55 134.85 16.15 135.6 L17.5 137.0 19.05 138.45 M35.8 130.9 L37.6 129.95 38.65 129.3 40.4 128.7 M20.3 138.2 L22.0 137.45 23.95 136.55 25.85 135.6 27.45 134.7 Q28.1 134.25 29.05 133.85 L31.05 133.1 33.0 132.4 Q34.0 132.15 34.7 131.4 M73.3 158.15 L75.1 158.0 77.2 157.4 79.25 157.05 81.15 156.8 83.2 156.35 85.1 155.8 86.95 155.95 88.95 156.6 91.05 157.4 M85.9 148.15 L85.45 148.15 Q84.9 148.25 84.85 147.9 M85.9 148.15 L87.0 148.3 M92.35 157.8 L93.85 158.85 95.6 160.05 97.3 161.0 98.85 162.15 100.6 163.1 Q101.65 163.45 102.55 164.2 L103.9 165.5 M104.6 166.6 L105.55 168.3 106.65 170.05 Q107.2 171.1 107.9 171.9 108.6 172.75 108.35 173.75 L107.5 175.9 106.4 177.65 105.05 179.1 103.85 180.25 M103.0 181.05 L101.1 182.55 99.2 183.8 Q98.4 184.4 97.55 184.55 L95.7 184.8 93.95 184.5 91.9 183.5 89.7 183.2 M88.45 183.3 L86.9 183.5 M89.5 196.8 L89.6 194.65 89.85 192.8 89.85 190.65 89.7 188.7 89.4 187.5 Q89.1 187.1 89.5 185.85 M150.7 215.3 Q151.85 216.2 151.9 217.1 152.0 218.05 151.6 219.15 L151.0 220.7 150.6 222.15 150.3 224.35 Q150.25 225.6 149.45 226.0 L147.65 226.8 145.7 227.45 M144.5 227.55 Q143.7 228.1 142.55 228.0 L140.5 227.95 138.65 228.0 136.4 228.4 134.2 228.85 132.45 229.1 130.55 229.0 128.55 229.15 M127.35 229.25 L125.4 229.35 123.5 229.7 121.4 230.05 119.3 230.0 117.7 229.9 115.8 229.55 114.0 228.85 M134.5 248.75 L134.8 246.7 Q134.95 245.9 134.7 245.0 L134.45 243.55 134.2 241.5 132.2 240.75 130.15 240.15 128.35 239.6 126.65 239.55 124.7 239.7 122.5 239.5 120.5 239.7 M134.2 241.5 L133.95 240.7 M88.45 228.9 L86.3 228.65 84.8 228.65 83.7 228.55 M99.65 228.85 L97.65 228.9 95.65 229.05 93.7 228.95 91.7 229.15 89.65 229.0 M112.85 228.5 L110.85 228.2 108.85 227.9 106.7 227.75 104.9 227.9 103.0 228.05 Q101.75 228.3 100.9 228.7 M119.3 239.65 Q118.3 239.15 117.45 239.1 116.65 239.1 115.7 238.3 L114.05 236.95 112.45 235.7 Q111.55 235.0 111.25 234.0 L110.6 232.3 Q110.3 231.55 110.3 230.9 L110.25 229.15 M61.3 230.5 Q61.9 229.55 62.0 228.55 62.15 227.6 61.1 227.15 60.1 226.75 59.45 226.25 L57.95 225.05 56.65 223.85 Q56.2 223.45 55.25 223.2 54.3 223.0 53.25 223.75 M46.2 230.3 L48.05 230.2 50.25 230.15 52.35 230.3 54.4 230.5 56.3 230.7 58.1 230.85 60.15 230.95 M52.15 224.3 Q50.95 224.55 50.2 225.25 L48.7 226.55 47.15 227.75 46.3 228.55 Q46.25 228.75 45.05 229.15 M21.35 214.15 L21.45 216.25 Q21.65 217.05 22.45 217.8 L23.6 219.5 24.3 221.2 24.7 223.2 24.55 225.05 23.6 227.2 23.5 227.3 25.1 228.5 26.45 229.55 Q26.9 229.9 28.35 230.45 L30.45 230.35 32.2 230.15 34.4 230.2 36.75 230.35 38.65 230.65 39.85 231.05 41.0 231.45 M6.5 230.5 L8.7 230.95 10.5 231.25 Q11.5 231.5 12.45 231.25 L14.3 230.95 16.2 230.8 18.2 230.8 20.55 230.7 22.6 230.65 24.55 230.55 M3.45 241.85 Q3.25 240.9 3.45 239.85 L4.0 237.65 4.25 235.55 3.9 233.65 3.5 232.5 2.9 230.3 M-10.95 229.15 L-8.9 229.2 -6.95 229.35 -5.0 229.45 -2.9 229.5 -1.1 229.65 1.15 229.8 3.3 229.85 5.2 230.15 M23.5 227.3 Q22.75 227.95 22.55 228.5 L21.95 229.15 M25.85 230.5 Q26.45 230.3 27.15 230.5 L28.35 230.45 M286.05 208.45 L285.75 210.35 Q285.65 211.25 285.15 212.35 L284.1 214.4 Q283.6 215.4 282.45 216.0 281.3 216.6 280.85 217.3 L279.75 218.8 278.3 220.0 M282.3 197.95 L283.55 199.25 Q284.0 200.05 284.15 201.2 L284.65 203.2 285.25 205.1 285.6 207.05 M277.4 220.85 L276.35 221.85 278.15 222.5 280.25 223.05 282.35 223.45 284.3 223.4 286.15 222.8 288.25 222.95 M289.45 223.6 L291.3 224.15 Q292.2 224.4 292.9 225.15 L294.15 226.6 294.8 227.7 295.6 229.15 M276.35 221.85 Q275.15 222.05 274.2 221.85 L272.35 221.55 270.45 221.45 268.45 221.55 266.3 221.25 264.4 221.35 M251.15 221.2 Q251.5 220.75 251.95 221.05 252.45 221.35 253.3 221.5 L255.25 221.8 257.2 222.2 259.05 222.15 261.05 221.7 263.1 221.4 M252.3 221.65 Q251.25 221.5 250.45 222.0 249.7 222.5 249.35 222.85 249.0 223.25 248.8 223.9 L248.95 226.05 248.95 227.95 248.7 229.95 248.4 232.0 247.9 233.9 247.4 235.2 247.1 236.05 M248.8 222.8 L248.8 223.9 M247.65 226.85 L246.15 225.25 245.0 223.95 244.0 222.9 243.05 222.2 M221.7 221.65 L220.1 221.25 219.25 221.05 M-8.1 19.05 L-8.25 20.7 -8.05 22.9 -7.7 25.05 -7.25 26.75 Q-7.0 27.5 -7.1 28.95 M-7.0 30.2 L-6.95 32.3 Q-6.9 33.5 -7.15 34.35 L-7.45 36.05 -7.25 37.85 Q-7.0 38.8 -5.7 38.75 L-3.65 38.75 -1.65 38.95 M-2.8 46.25 Q-2.2 45.25 -2.2 44.25 L-2.15 42.75 Q-2.1 42.25 -2.35 41.0" fill="none" stroke="#2e2d0f" stroke-linecap="round" stroke-linejoin="round" stroke-width="1.0"/>
    <path d="M335.5 65.7 L335.75 65.7 337.8 65.7 339.75 65.6 341.55 65.45 343.5 65.4 345.65 65.35 347.7 65.6 M348.95 65.6 L350.95 65.6 353.05 65.7 355.2 65.65 357.1 65.55 358.8 65.4 360.8 65.25 362.95 65.6 M335.5 65.7 L333.7 65.75 331.7 65.6 M316.4 65.6 L318.35 65.7 320.45 65.55 322.6 65.5 324.5 65.35 326.55 65.4 328.85 65.6 330.4 65.6 M379.45 65.6 L381.65 65.65 383.45 65.4 385.55 65.2 387.5 65.4 389.4 65.45 391.4 65.6 Q392.35 65.8 393.45 65.6 M394.75 65.6 L396.85 65.8 398.85 65.8 400.45 65.7 402.35 65.6 404.1 65.85 405.95 65.6 M364.15 65.6 L366.15 65.65 368.15 65.55 370.0 65.55 372.25 65.35 374.25 65.45 376.05 65.8 378.15 65.6 M263.3 65.6 L265.65 65.6 267.5 65.55 269.15 65.6 271.2 65.75 273.3 65.6 M274.5 65.6 L276.55 65.4 278.6 65.45 Q279.75 65.75 280.6 65.45 L282.45 65.4 284.45 65.75 286.45 65.65 288.5 65.6 M250.6 65.75 L251.9 65.65 254.1 65.65 255.85 65.5 Q256.6 65.35 257.6 65.5 L259.8 65.8 262.05 65.6 M242.05 65.6 L244.05 65.5 246.1 65.35 248.3 65.85 Q249.5 66.1 250.15 65.85 L250.6 65.75 M303.1 65.6 L305.35 65.6 307.0 65.75 Q307.95 66.0 309.0 65.75 L311.1 65.4 313.1 65.4 315.1 65.6 M289.8 65.6 L291.95 65.7 294.05 65.55 295.95 65.5 297.95 65.5 299.6 65.5 299.95 65.55 301.8 65.6 M184.65 65.6 Q185.2 65.4 186.65 65.6 L188.85 65.7 190.45 65.55 192.4 65.6 194.35 65.8 196.65 65.6 M197.95 65.6 L199.9 65.5 201.8 65.3 203.85 65.7 Q205.2 65.95 206.05 65.7 L207.9 65.5 209.25 65.6 210.6 65.55 M169.35 65.6 L171.3 65.5 173.55 65.55 175.65 65.45 177.5 65.25 179.5 65.35 181.4 65.45 183.35 65.6 M160.5 65.75 L161.85 65.85 164.1 65.55 166.05 65.45 168.1 65.6 M226.75 65.4 L228.7 65.5 230.85 65.7 232.75 65.7 234.8 65.7 236.85 65.45 238.95 65.25 240.8 65.6 M226.3 65.6 L225.5 65.4 224.0 65.6 M210.7 65.6 L212.55 65.65 214.95 65.85 216.85 65.9 218.55 65.55 220.65 65.5 222.7 65.6 M94.95 65.6 L97.0 65.4 99.1 65.5 100.85 65.85 102.6 65.7 104.95 65.3 106.85 65.1 108.9 65.35 111.35 65.65 113.1 65.8 114.95 65.6 M116.25 65.6 L118.0 65.5 120.4 65.85 122.5 65.6 124.3 65.55 126.25 65.6 M81.65 65.6 L84.0 65.75 85.9 65.5 87.85 65.35 89.85 65.25 91.7 65.55 93.65 65.6 M144.8 65.6 L146.95 65.5 149.0 65.8 150.9 65.65 152.8 65.4 154.8 65.6 M156.1 65.6 L157.9 65.6 159.65 65.65 160.5 65.75 M127.55 65.55 L128.15 65.6 M130.2 65.35 L131.15 65.35 131.35 65.4 133.55 65.6 135.5 65.65 137.65 65.6 139.8 65.6 141.65 65.7 143.6 65.6 M129.6 65.6 L130.2 65.35 M16.75 65.6 L18.75 65.6 20.65 65.6 22.6 65.85 Q23.65 66.1 24.75 65.85 L26.8 65.6 28.75 65.6 M29.95 65.6 L31.95 65.45 Q32.75 65.75 33.9 65.45 L36.0 65.3 37.95 65.45 39.95 65.35 42.1 65.2 43.9 65.5 45.75 65.8 47.95 65.6 M1.55 65.6 L3.3 65.8 5.35 65.9 7.4 65.7 9.5 65.5 11.6 65.5 13.6 65.65 15.55 65.6 M49.15 65.6 L51.25 65.55 53.05 65.5 54.95 65.6 57.0 65.8 59.4 65.6 61.4 65.6 63.3 65.6 65.15 65.6 M66.45 65.6 Q67.15 65.25 68.45 65.25 L70.8 65.4 72.65 65.5 74.3 65.65 76.3 65.65 78.45 65.8 80.45 65.6 M-13.65 65.6 L-11.6 65.3 -9.6 65.5 -7.35 65.7 -5.45 65.85 -3.85 65.8 -1.9 65.5 0.35 65.6" fill="none" stroke="#2e3c0f" stroke-linecap="round" stroke-linejoin="round" stroke-width="1.0"/>
    <path d="M331.95 5.2 L332.9 7.1 333.6 9.05 334.1 11.1 334.7 13.15 335.2 15.1 335.25 16.9 Q335.15 17.7 335.4 18.95 335.7 20.2 335.6 21.2 335.55 22.2 335.9 23.25 M336.0 24.55 Q335.75 25.35 336.0 26.65 336.3 27.95 336.2 28.7 L336.25 30.5 Q336.4 31.55 336.05 32.3 335.7 33.1 335.75 34.2 L336.15 36.55 M336.15 37.85 Q336.4 38.85 336.25 40.0 L336.2 42.0 Q336.3 42.85 336.0 43.85 335.7 44.85 336.05 45.9 336.45 46.95 336.3 47.65 L336.05 49.75 Q335.95 51.2 336.15 52.05 336.4 52.9 336.1 53.85 M336.1 55.15 L336.0 57.35 335.95 59.3 335.9 60.9 335.8 62.95 335.65 64.9 335.5 65.7 M352.85 107.5 L350.85 107.1 349.0 107.35 346.8 107.8 344.8 107.9 342.55 108.2 340.5 108.4 338.8 108.15 336.85 108.0 334.85 107.75 M333.65 107.55 L331.4 107.25 329.4 106.85 327.45 106.75 325.5 106.5 Q324.75 106.15 324.2 106.3 323.65 106.45 322.7 105.05 M304.2 6.95 L302.9 8.6 301.55 10.15 Q300.85 10.8 300.5 11.8 L299.9 13.65 Q299.65 14.5 299.55 15.75 L299.45 17.65 299.4 19.6 Q299.35 20.95 299.55 21.75 M299.45 23.05 Q298.85 24.0 298.95 24.75 L299.15 26.7 299.3 28.65 299.5 30.65 Q299.6 31.9 299.3 32.9 299.0 33.9 299.25 34.95 L299.6 36.9 299.8 38.75 Q299.9 39.7 299.65 40.65 299.45 41.65 299.55 42.85 M299.6 44.15 Q299.35 45.6 299.65 46.5 299.95 47.4 299.9 48.45 L299.95 50.45 299.95 52.05 299.8 54.0 299.55 56.3 Q299.35 57.4 299.5 58.1 L299.65 60.15 M299.6 65.5 L299.6 62.55 299.65 61.45 M210.1 5.2 L210.5 7.1 Q210.65 8.0 211.25 8.85 L212.4 10.85 213.2 12.9 213.75 14.7 Q214.05 15.6 214.0 16.9 M214.1 18.15 L214.3 20.1 214.55 22.1 Q214.8 23.15 214.55 23.9 214.3 24.7 214.4 25.95 L214.5 28.35 214.4 30.05 M214.45 31.3 L214.4 33.5 214.45 35.25 214.55 37.4 214.65 39.55 214.75 41.35 214.75 43.3 M214.75 44.6 L214.7 46.4 214.95 48.8 Q215.2 49.9 214.95 50.75 214.7 51.6 214.6 52.55 214.5 53.5 214.7 54.55 L214.95 56.55 214.7 58.3 Q214.35 59.2 214.45 60.4 L214.75 62.6 M188.75 2.9 L187.1 4.0 Q186.2 4.45 185.5 5.35 L184.15 7.15 182.85 9.0 Q182.3 9.95 182.35 10.85 M182.1 11.85 Q182.4 13.15 182.2 14.0 182.05 14.9 182.05 15.85 L182.1 17.85 182.2 19.8 182.1 21.7 Q181.95 22.65 181.95 23.85 M181.95 25.1 Q182.35 26.55 182.25 27.3 L182.05 29.2 181.85 31.25 181.7 33.15 181.6 35.15 181.95 37.0 Q182.3 37.95 182.25 39.0 182.25 40.1 181.85 41.1 M181.85 42.4 Q181.35 43.1 181.6 44.1 L181.9 46.4 181.9 48.65 181.9 50.4 182.05 52.25 181.85 54.4 M181.85 55.65 Q181.55 56.1 181.85 57.15 M214.75 63.85 L214.75 64.65 M203.8 88.3 Q203.7 89.7 203.95 90.55 L204.8 92.15 Q205.35 92.95 205.3 93.45 L204.95 96.4 M204.95 96.95 L204.55 99.0 204.35 100.95 204.1 102.2 203.8 102.9 Q204.25 102.25 205.0 102.2 L206.85 102.0 208.95 101.85 M191.65 109.45 L193.4 109.25 195.3 108.8 197.35 108.15 199.5 107.4 200.85 106.45 201.75 104.75 Q202.45 103.65 203.65 103.2 L203.8 102.9 M190.45 109.6 L188.55 110.1 186.6 110.6 184.45 110.75 182.55 110.35 180.6 109.8 178.5 109.4 176.6 109.3 174.75 109.4 Q174.8 109.8 174.35 109.4 L173.15 109.9 Q173.0 110.1 172.6 111.95 M174.35 109.4 L172.3 109.2 170.55 108.95 168.5 108.85 166.95 109.05 Q166.45 109.2 165.2 108.6 L166.6 109.35 M175.3 120.6 Q175.75 119.85 175.4 118.7 L174.65 116.45 173.85 114.75 172.5 113.5 170.7 112.3 168.95 111.25 Q168.05 110.8 167.5 110.05 M165.2 108.6 L163.55 108.1 161.35 107.85 159.25 108.0 157.25 108.05 155.3 107.9 Q154.35 107.65 153.35 108.15 M176.65 135.65 Q176.95 134.25 176.7 133.65 L176.4 131.95 176.3 129.9 176.1 127.75 175.65 125.6 175.3 123.95 175.35 121.8 M155.85 132.75 L157.9 132.8 159.9 132.65 162.0 132.9 164.1 133.6 Q165.2 133.9 165.85 134.35 L167.5 135.35 Q168.5 135.95 169.65 136.25 L171.8 136.3 173.8 135.6 175.25 134.85 175.5 134.5 M307.35 122.7 L308.5 122.2 310.55 122.55 312.55 123.3 Q313.65 123.65 314.15 124.35 314.65 125.1 315.7 125.5 316.75 125.95 316.85 126.55 316.95 127.2 315.95 127.9 M299.6 130.75 L297.85 130.65 295.65 130.55 293.5 130.65 291.6 130.55 289.6 130.3 287.65 129.7 Q286.7 129.25 285.7 129.15 284.7 129.05 283.7 129.85 M315.0 128.6 L313.0 129.55 311.25 129.75 309.25 129.6 307.3 129.35 Q306.25 129.1 305.8 128.6 305.35 128.1 305.1 126.95 304.9 125.85 305.3 124.95 L306.3 123.25 M266.5 131.75 Q266.45 131.3 265.8 131.1 L264.0 130.35 Q262.85 129.8 261.9 129.55 L260.0 129.05 257.9 128.35 Q256.75 127.95 256.25 127.25 L255.4 125.7 M259.35 144.4 L259.35 142.15 Q259.35 140.95 259.5 140.1 L260.15 138.35 Q260.6 137.4 261.35 136.7 262.1 136.05 262.3 135.15 262.5 134.25 263.2 133.5 263.95 132.8 265.25 132.4 M265.0 154.7 L263.05 154.8 261.3 154.2 Q260.5 153.95 259.8 153.25 L258.35 151.55 Q257.6 150.5 258.05 149.4 L258.95 147.4 Q259.35 146.45 259.2 145.65 M282.45 130.1 L280.4 130.1 278.2 130.15 276.5 130.3 274.5 130.45 272.25 130.85 270.15 131.15 268.25 131.55 Q267.95 131.3 267.85 131.55 M254.8 124.7 L254.0 123.5 M98.1 20.15 Q97.85 20.8 97.9 22.0 L97.85 24.1 97.6 26.1 97.35 28.2 Q97.2 29.2 97.65 30.4 98.1 31.65 97.85 32.45 97.65 33.25 97.7 34.25 L97.6 36.25 M94.65 7.5 L95.85 9.2 97.0 11.05 98.0 12.95 Q98.55 14.0 98.45 14.95 98.35 15.9 98.65 16.9 99.0 17.9 98.5 18.85 M97.6 37.5 Q97.45 38.6 97.75 39.35 98.05 40.15 97.8 41.4 L97.35 43.35 Q97.15 44.05 97.5 45.15 97.85 46.3 97.55 47.6 97.3 48.95 97.4 49.6 L97.55 51.5 M97.55 52.8 Q97.2 53.8 97.35 54.8 L97.55 56.55 97.65 58.55 97.65 60.7 Q97.5 61.65 97.65 62.0 97.8 62.35 97.55 64.05 M69.25 8.1 L68.05 9.4 67.05 11.1 65.95 12.9 Q65.3 13.85 65.25 15.0 L65.05 17.05 64.65 18.9 Q64.45 19.85 64.5 20.75 L64.6 23.1 M64.55 24.35 L64.1 25.85 63.8 28.0 63.65 29.95 63.65 31.95 63.75 34.15 63.75 36.25 63.7 38.15 63.6 40.25 M63.6 41.55 Q63.15 42.7 63.25 43.6 L63.45 45.7 63.75 47.8 Q63.95 48.75 63.75 49.65 L63.6 51.55 M63.75 52.85 Q64.2 53.7 64.15 54.7 L64.15 56.75 64.1 58.7 63.9 60.25 64.05 62.35 M80.25 111.4 L78.25 111.25 76.25 111.2 74.1 111.65 72.45 111.5 70.75 110.8 68.9 110.45 66.6 110.6 M65.4 110.75 L63.55 110.9 61.55 111.1 59.45 111.65 57.15 112.2 55.8 112.0 53.75 112.25 M47.35 116.25 L47.8 118.4 47.45 119.8 46.85 121.75 Q46.6 122.85 45.95 123.6 L44.75 125.35 Q44.25 126.3 44.05 127.2 L43.6 129.15 M41.55 140.25 Q41.8 139.3 42.2 138.4 L43.0 136.45 43.5 134.35 43.8 132.35 Q44.05 131.4 43.55 130.35 M35.55 186.5 Q34.6 185.95 33.35 185.8 32.15 185.65 31.7 185.8 L31.15 185.85 M56.55 185.7 L54.5 185.5 52.5 185.6 50.4 186.1 Q49.3 186.35 48.35 186.1 L46.5 186.05 44.7 186.1 42.8 185.8 40.75 185.85 38.45 186.3 36.75 186.55 M75.7 184.15 L74.0 184.4 71.6 184.4 69.55 184.5 67.8 184.7 65.7 185.15 63.7 185.35 61.85 185.45 59.65 185.4 Q58.35 185.25 57.8 185.7 M86.9 183.5 L84.95 183.8 83.0 183.9 80.7 184.05 78.75 184.1 76.9 184.15 M152.15 108.15 L150.1 108.25 148.15 108.45 146.15 108.65 144.2 108.3 142.0 108.4 139.95 108.8 138.2 109.0 136.2 109.0 135.1 109.1 M146.05 102.15 L147.0 104.1 147.7 105.15 148.35 105.6 M84.85 147.9 L83.15 147.85 Q82.35 147.8 81.4 148.35 80.65 149.45 80.75 149.8 L81.7 150.45 83.6 150.85 85.5 150.7 Q86.4 150.5 86.8 149.8 87.25 149.15 86.45 148.5 L85.9 148.15 M84.85 147.9 L85.9 148.15 M122.75 156.15 L122.15 154.05 Q122.0 153.2 121.1 152.95 120.25 152.75 119.25 152.2 L117.25 151.3 115.35 150.9 113.5 150.85 111.25 150.75 M104.5 160.45 Q105.8 160.3 106.6 160.85 107.45 161.4 108.45 161.65 109.5 161.95 110.5 162.65 111.55 163.4 112.45 163.2 L114.35 162.6 116.2 161.95 Q117.0 161.75 117.75 160.85 L119.1 159.65 120.8 158.55 Q121.9 157.85 122.2 157.2 M110.0 150.95 L108.2 150.8 105.9 150.9 103.95 151.0 102.05 151.4 100.3 151.6 98.25 151.7 M97.05 151.65 L95.3 152.05 Q94.1 152.3 93.85 153.25 L93.4 155.0 Q93.2 155.8 93.45 156.85 93.75 157.9 94.6 158.05 L96.55 158.35 98.5 158.8 100.25 159.6 102.15 160.55 104.1 161.75 Q103.65 161.8 105.05 162.2 M119.7 161.15 Q118.8 161.45 118.0 162.0 117.2 162.55 116.55 163.15 L115.1 164.65 113.9 165.8 Q113.55 166.15 113.15 167.4 M147.2 151.2 L148.3 152.9 Q148.95 153.95 148.65 154.75 L148.2 156.05 147.5 157.25 148.95 157.55 M147.5 157.25 L145.6 157.6 143.7 157.95 141.5 158.5 139.5 158.65 137.7 158.4 135.7 158.1 133.6 158.2 M159.9 165.65 L157.8 165.05 155.85 164.75 154.1 164.6 152.4 164.3 150.25 163.6 Q149.05 163.15 148.55 162.5 L147.55 160.9 Q147.0 160.0 145.85 159.4 144.7 158.8 144.25 158.8 L143.75 158.7 M132.55 158.6 Q132.1 159.0 130.8 159.2 L128.6 159.5 126.7 159.6 124.95 159.8 123.0 160.1 Q121.8 160.25 120.85 160.7 M148.3 243.85 L146.0 243.55 144.15 243.0 142.3 242.5 140.5 242.35 138.5 242.25 136.4 241.9 134.95 241.75 Q134.4 241.8 134.2 241.5 M150.8 226.0 L152.9 226.2 Q153.75 226.55 154.7 227.2 155.7 227.9 156.55 227.95 L158.55 228.3 160.75 228.8 Q161.75 229.0 162.45 229.7 L164.1 231.0 Q165.1 231.55 165.65 232.4 M163.55 244.15 L162.05 244.95 Q161.3 245.35 160.2 245.4 L157.95 245.7 156.05 246.25 Q155.35 246.5 154.8 245.75 L153.5 244.55 Q152.8 244.1 151.6 243.9 150.4 243.7 149.5 243.9 M313.75 210.0 Q313.5 209.25 313.85 208.5 L314.8 207.15 Q315.4 206.5 316.4 206.25 L318.45 205.95 320.45 206.1 M321.0 207.2 Q321.85 207.45 322.55 208.15 323.3 208.85 323.35 209.65 323.4 210.5 322.55 211.05 321.75 211.6 320.75 211.7 L318.65 211.75 316.6 211.4 Q315.65 211.2 314.85 210.7 M247.95 221.2 L249.45 221.25 251.15 221.2 M236.7 215.3 L235.9 216.25 235.0 217.1 Q235.0 219.2 234.5 219.6 234.05 220.05 233.8 221.25 L234.45 221.35 236.65 221.6 238.6 221.75 240.65 221.85 242.65 221.65 244.5 221.35 246.65 221.3 M214.65 216.65 L216.05 218.1 217.5 219.4 218.7 220.45 219.25 221.05 221.2 220.85 223.15 221.05 225.25 221.1 227.3 221.4 229.3 221.55 231.3 221.35 M234.5 214.1 L234.85 215.35 235.0 217.1 M232.6 221.45 L233.8 221.25 M210.7 202.0 Q210.55 203.0 210.65 204.15 L210.75 205.95 211.25 207.8 Q211.7 208.95 211.6 209.85 L211.65 211.85 Q211.8 212.9 212.65 213.8 213.55 214.7 213.85 215.6 M206.05 221.7 L204.95 221.65 M219.25 221.05 L217.2 220.95 215.15 221.3 213.25 221.5 211.3 221.85 209.3 222.0 207.3 221.75 M166.3 233.7 Q166.5 234.75 166.3 235.65 L166.1 237.6 Q166.15 238.65 165.85 239.4 L165.3 241.35 164.5 243.45" fill="none" stroke="#59531e" stroke-linecap="round" stroke-linejoin="round" stroke-width="1.0"/>
    <path d="M378.15 14.5 L371.25 -6.9 401.35 -6.9 392.3 14.55 Q389.2 13.65 385.15 13.65 381.2 13.65 378.15 14.5" fill="url(#gradient2)" fill-rule="evenodd" stroke="none"/>
    <path d="M391.05 27.35 L391.05 73.1 378.65 73.1 378.65 27.25 385.1 27.9 391.05 27.35" fill="url(#gradient3)" fill-rule="evenodd" stroke="none"/>
    <path d="M389.95 22.55 L392.25 23.0 Q395.2 23.85 395.2 25.05 395.2 26.2 392.25 27.05 L391.05 27.35 385.1 27.9 378.65 27.25 377.95 27.05 Q375.0 26.2 375.0 25.0 375.0 23.85 377.95 23.0 L380.3 22.55 385.15 22.9 389.95 22.55" fill="url(#gradient4)" fill-rule="evenodd" stroke="none"/>
    <path d="M392.3 14.55 L393.75 15.0 Q397.3 16.35 397.3 18.35 397.3 20.2 393.75 21.5 L389.95 22.55 385.15 22.9 380.3 22.55 376.55 21.5 Q373.0 20.2 373.0 18.25 373.0 16.35 376.55 15.0 L378.15 14.5 Q381.2 13.65 385.15 13.65 389.2 13.65 392.3 14.55" fill="url(#gradient5)" fill-rule="evenodd" stroke="none"/>
    <path d="M378.15 14.5 L371.25 -6.9 401.35 -6.9 392.3 14.55 393.75 15.0 Q397.3 16.35 397.3 18.35 397.3 20.2 393.75 21.5 L389.95 22.55 392.25 23.0 Q395.2 23.85 395.2 25.05 395.2 26.2 392.25 27.05 L391.05 27.35 391.05 73.1 378.65 73.1 378.65 27.25 377.95 27.05 Q375.0 26.2 375.0 25.0 375.0 23.85 377.95 23.0 L380.3 22.55 376.55 21.5 Q373.0 20.2 373.0 18.25 373.0 16.35 376.55 15.0 L378.15 14.5 Q381.2 13.65 385.15 13.65 389.2 13.65 392.3 14.55 M389.95 22.55 L385.15 22.9 380.3 22.55 M391.05 27.35 L385.1 27.9 378.65 27.25" fill="none" stroke="#20280b" stroke-linecap="round" stroke-linejoin="round" stroke-width="0.05"/>
    <path d="M236.6 14.5 L229.7 -6.9 259.8 -6.9 250.75 14.55 Q247.65 13.65 243.6 13.65 239.65 13.65 236.6 14.5" fill="url(#gradient6)" fill-rule="evenodd" stroke="none"/>
    <path d="M249.5 27.35 L249.5 73.1 237.1 73.1 237.1 27.25 243.55 27.9 249.5 27.35" fill="url(#gradient7)" fill-rule="evenodd" stroke="none"/>
    <path d="M248.4 22.55 L250.7 23.0 Q253.65 23.85 253.65 25.05 253.65 26.2 250.7 27.05 L249.5 27.35 243.55 27.9 237.1 27.25 236.4 27.05 Q233.45 26.2 233.45 25.0 233.45 23.85 236.4 23.0 L238.75 22.55 243.6 22.9 248.4 22.55" fill="url(#gradient8)" fill-rule="evenodd" stroke="none"/>
    <path d="M250.75 14.55 L252.2 15.0 Q255.75 16.35 255.75 18.35 255.75 20.2 252.2 21.5 250.5 22.2 248.4 22.55 L243.6 22.9 238.75 22.55 235.0 21.5 Q231.45 20.2 231.45 18.25 231.45 16.35 235.0 15.0 L236.6 14.5 Q239.65 13.65 243.6 13.65 247.65 13.65 250.75 14.55" fill="url(#gradient9)" fill-rule="evenodd" stroke="none"/>
    <path d="M236.6 14.5 L229.7 -6.9 259.8 -6.9 250.75 14.55 252.2 15.0 Q255.75 16.35 255.75 18.35 255.75 20.2 252.2 21.5 250.5 22.2 248.4 22.55 L250.7 23.0 Q253.65 23.85 253.65 25.05 253.65 26.2 250.7 27.05 L249.5 27.35 249.5 73.1 237.1 73.1 237.1 27.25 236.4 27.05 Q233.45 26.2 233.45 25.0 233.45 23.85 236.4 23.0 L238.75 22.55 235.0 21.5 Q231.45 20.2 231.45 18.25 231.45 16.35 235.0 15.0 L236.6 14.5 Q239.65 13.65 243.6 13.65 247.65 13.65 250.75 14.55 M248.4 22.55 L243.6 22.9 238.75 22.55 M249.5 27.35 L243.55 27.9 237.1 27.25" fill="none" stroke="#20280b" stroke-linecap="round" stroke-linejoin="round" stroke-width="0.05"/>
    <path d="M146.55 14.5 L139.65 -6.9 169.75 -6.9 160.7 14.55 Q157.6 13.65 153.55 13.65 149.6 13.65 146.55 14.5" fill="url(#gradient10)" fill-rule="evenodd" stroke="none"/>
    <path d="M159.45 27.35 L159.45 73.1 147.05 73.1 147.05 27.25 153.5 27.9 159.45 27.35" fill="url(#gradient11)" fill-rule="evenodd" stroke="none"/>
    <path d="M158.35 22.55 L160.65 23.0 Q163.6 23.85 163.6 25.05 163.6 26.2 160.65 27.05 L159.45 27.35 153.5 27.9 147.05 27.25 146.35 27.05 Q143.4 26.2 143.4 25.0 143.4 23.85 146.35 23.0 L148.7 22.55 153.55 22.9 158.35 22.55" fill="url(#gradient12)" fill-rule="evenodd" stroke="none"/>
    <path d="M160.7 14.55 L162.15 15.0 Q165.7 16.35 165.7 18.35 165.7 20.2 162.15 21.5 160.45 22.2 158.35 22.55 L153.55 22.9 148.7 22.55 144.95 21.5 Q141.4 20.2 141.4 18.25 141.4 16.35 144.95 15.0 L146.55 14.5 Q149.6 13.65 153.55 13.65 157.6 13.65 160.7 14.55" fill="url(#gradient13)" fill-rule="evenodd" stroke="none"/>
    <path d="M146.55 14.5 L139.65 -6.9 169.75 -6.9 160.7 14.55 162.15 15.0 Q165.7 16.35 165.7 18.35 165.7 20.2 162.15 21.5 160.45 22.2 158.35 22.55 L160.65 23.0 Q163.6 23.85 163.6 25.05 163.6 26.2 160.65 27.05 L159.45 27.35 159.45 73.1 147.05 73.1 147.05 27.25 146.35 27.05 Q143.4 26.2 143.4 25.0 143.4 23.85 146.35 23.0 L148.7 22.55 144.95 21.5 Q141.4 20.2 141.4 18.25 141.4 16.35 144.95 15.0 L146.55 14.5 Q149.6 13.65 153.55 13.65 157.6 13.65 160.7 14.55 M158.35 22.55 L153.55 22.9 148.7 22.55 M159.45 27.35 L153.5 27.9 147.05 27.25" fill="none" stroke="#20280b" stroke-linecap="round" stroke-linejoin="round" stroke-width="0.05"/>
    <path d="M20.2 -3.45 Q21.7 -0.2 21.4 4.6 L21.15 5.7 Q19.05 10.35 16.7 12.7 19.05 10.35 21.15 5.7 L21.4 4.6 Q21.7 -0.2 20.2 -3.45 M6.05 14.5 L-0.85 -6.9 29.25 -6.9 21.65 11.2 20.2 14.55 16.55 13.85 13.05 13.65 Q9.1 13.65 6.05 14.5 M21.65 11.2 L16.55 13.85 21.65 11.2" fill="url(#gradient14)" fill-rule="evenodd" stroke="none"/>
    <path d="M17.85 22.55 L20.15 23.0 Q23.1 23.85 23.1 25.05 23.1 26.2 20.2 27.05 L20.2 24.8 20.2 27.05 20.15 27.05 18.95 27.35 13.0 27.9 7.75 27.5 6.55 27.25 5.85 27.05 Q2.9 26.2 2.9 25.0 2.9 23.85 5.85 23.0 L8.2 22.55 9.65 22.75 13.05 22.9 17.85 22.55 M9.65 22.75 L7.75 27.5 9.65 22.75" fill="url(#gradient15)" fill-rule="evenodd" stroke="none"/>
    <path d="M20.2 14.55 L21.65 15.0 Q25.2 16.35 25.2 18.35 25.2 20.2 21.65 21.5 L17.85 22.55 13.05 22.9 9.65 22.75 8.2 22.55 4.45 21.5 Q0.9 20.2 0.9 18.25 0.9 16.35 4.45 15.0 L6.05 14.5 Q9.1 13.65 13.05 13.65 L16.55 13.85 20.2 14.55 M9.65 22.75 L12.25 16.2 12.75 15.7 16.55 13.85 12.75 15.7 12.25 16.2 9.65 22.75" fill="url(#gradient16)" fill-rule="evenodd" stroke="none"/>
    <path d="M18.95 31.4 L18.95 51.05 17.5 52.7 Q15.65 54.9 13.25 55.1 L12.65 55.3 Q11.25 55.95 10.55 56.75 L7.6 60.15 6.75 61.05 6.55 61.3 6.75 61.05 7.6 60.15 10.55 56.75 Q11.25 55.95 12.65 55.3 L13.25 55.1 Q15.65 54.9 17.5 52.7 L18.95 51.05 18.95 64.2 12.7 69.25 12.65 65.95 Q12.55 62.55 14.45 60.0 L12.3 61.9 Q8.85 65.25 7.6 69.9 L6.55 66.75 6.55 61.3 6.55 41.85 7.1 41.15 Q8.45 39.6 11.05 37.65 12.35 36.7 13.8 36.2 16.5 35.3 18.2 32.75 L18.7 31.9 18.95 31.4 18.7 31.9 18.2 32.75 Q16.5 35.3 13.8 36.2 12.35 36.7 11.05 37.65 8.45 39.6 7.1 41.15 L6.55 41.85 6.55 30.5 6.55 27.25 7.75 27.5 13.0 27.9 18.95 27.35 18.95 31.4 M6.55 30.5 L7.75 27.5 6.55 30.5" fill="url(#gradient17)" fill-rule="evenodd" stroke="none"/>
    <path d="M20.2 14.55 L21.65 15.0 Q25.2 16.35 25.2 18.35 25.2 20.2 21.65 21.5 L17.85 22.55 20.15 23.0 Q23.1 23.85 23.1 25.05 23.1 26.2 20.2 27.05 L20.15 27.05 18.95 27.35 18.95 31.4 18.95 51.05 18.95 64.2 M8.2 22.55 L5.85 23.0 Q2.9 23.85 2.9 25.0 2.9 26.2 5.85 27.05 L6.55 27.25 7.75 27.5 M9.65 22.75 L8.2 22.55 4.45 21.5 Q0.9 20.2 0.9 18.25 0.9 16.35 4.45 15.0 L6.05 14.5 -0.85 -6.9 29.25 -6.9 21.65 11.2 20.2 14.55 16.55 13.85 13.05 13.65 Q9.1 13.65 6.05 14.5 M9.65 22.75 L13.05 22.9 17.85 22.55 M6.55 41.85 L6.55 61.3 M6.55 66.75 L6.55 61.3 M18.95 27.35 L13.0 27.9 7.75 27.5 M6.55 30.5 L6.55 41.85 M6.55 27.25 L6.55 30.5" fill="none" stroke="#20280b" stroke-linecap="round" stroke-linejoin="round" stroke-width="0.05"/>
    <path d="M16.7 12.7 Q19.05 10.35 21.15 5.7 L21.4 4.6 Q21.7 -0.2 20.2 -3.45 M21.65 11.2 L22.4 10.75 Q25.9 8.8 28.9 5.85 31.3 3.4 31.15 0.0 M20.2 27.05 L19.35 30.5 18.95 31.4 18.7 31.9 18.2 32.75 Q16.5 35.3 13.8 36.2 12.35 36.7 11.05 37.65 8.45 39.6 7.1 41.15 L6.55 41.85 Q3.1 46.35 5.75 53.1 M18.95 51.05 L20.2 49.65 Q21.4 48.4 21.7 46.7 22.25 43.4 20.75 41.55 M7.75 27.5 L9.65 22.75 M16.55 13.85 L12.75 15.7 12.25 16.2 9.65 22.75 M20.2 27.05 L20.2 24.8 M6.55 61.3 L6.75 61.05 7.6 60.15 10.55 56.75 Q11.25 55.95 12.65 55.3 L13.25 55.1 Q15.65 54.9 17.5 52.7 L18.95 51.05 M6.55 61.3 Q4.65 63.35 4.15 65.85 3.6 68.4 4.6 70.4 M7.75 27.5 L6.55 30.5 5.15 34.05 M16.55 13.85 L21.65 11.2" fill="none" stroke="#396020" stroke-linecap="round" stroke-linejoin="round" stroke-width="1.0"/>
    <path d="M208.1 27.7 L208.1 13.9 Q198.2 2.85 188.25 13.9 L188.25 27.7 208.1 27.7 188.25 27.7 188.25 13.9 Q198.2 2.85 208.1 13.9 L208.1 27.7 M201.2 58.6 L205.65 58.6 205.65 46.35 205.65 40.45 190.9 40.45 190.9 46.35 190.9 58.6 195.35 58.6 190.9 58.6 190.9 46.35 190.9 40.45 205.65 40.45 205.65 46.35 205.65 58.6 201.2 58.6 M210.2 29.35 L185.75 29.35 185.75 12.9 Q198.0 -0.35 210.2 12.9 L210.2 29.35 M185.75 34.4 L210.2 34.4 210.2 65.6 185.75 65.6 185.75 34.4 M208.55 36.1 L187.85 36.1 187.85 63.5 208.55 63.5 208.55 36.1 208.55 63.5 187.85 63.5 187.85 36.1 208.55 36.1 M190.9 46.35 L205.65 46.35 190.9 46.35" fill="url(#gradient18)" fill-rule="evenodd" stroke="none"/>
    <path d="M195.35 58.6 L190.9 58.6 190.9 46.35 190.9 40.45 205.65 40.45 205.65 46.35 205.65 58.6 201.2 58.6 M208.1 27.7 L188.25 27.7 188.25 13.9 Q198.2 2.85 208.1 13.9 L208.1 27.7 M210.2 29.35 L185.75 29.35 185.75 12.9 Q198.0 -0.35 210.2 12.9 L210.2 29.35 M185.75 34.4 L185.75 65.6 210.2 65.6 210.2 34.4 185.75 34.4 M205.65 46.35 L190.9 46.35 M208.55 36.1 L208.55 63.5 187.85 63.5 187.85 36.1 208.55 36.1" fill="none" stroke="#66ff00" stroke-linecap="round" stroke-linejoin="round" stroke-width="0.05"/>
    <path d="M200.9 19.75 L197.9 19.75 196.9 21.6 198.85 23.8 197.9 25.25 Q200.6 25.25 202.5 23.35 204.35 21.45 204.4 18.85 L201.9 18.85 200.95 18.85 194.85 18.85 193.9 18.85 191.4 18.85 Q191.45 21.45 193.3 23.35 195.2 25.25 197.9 25.25 M201.9 18.85 L201.9 18.7 Q201.9 17.05 200.7 15.85 199.55 14.7 197.9 14.7 196.25 14.7 195.05 15.85 193.9 17.05 193.9 18.7 L193.9 18.85 M191.4 18.85 L191.4 18.7 Q191.4 16.0 193.3 14.1 195.2 12.2 197.9 12.2 200.6 12.2 202.5 14.1 204.4 16.0 204.4 18.7 L204.4 18.85 M194.85 18.85 L194.85 18.7 Q194.8 17.45 195.7 16.55 196.6 15.65 197.9 15.65 199.15 15.65 200.05 16.55 200.95 17.45 200.95 18.7 L200.95 18.85 M197.9 19.75 L194.8 19.75" fill="none" stroke="#66ff00" stroke-linecap="round" stroke-linejoin="round" stroke-width="0.05"/>
    <path d="M93.0 29.35 L68.55 29.35 68.55 12.9 Q80.8 -0.35 93.0 12.9 L93.0 29.35 M73.7 46.35 L88.45 46.35 88.45 40.45 73.7 40.45 73.7 46.35 73.7 58.6 78.15 58.6 73.7 58.6 73.7 46.35 73.7 40.45 88.45 40.45 88.45 46.35 88.45 58.6 84.0 58.6 88.45 58.6 88.45 46.35 73.7 46.35 M91.35 36.1 L70.65 36.1 70.65 63.5 91.35 63.5 91.35 36.1 91.35 63.5 70.65 63.5 70.65 36.1 91.35 36.1 M90.9 27.7 L90.9 13.9 Q81.0 2.85 71.05 13.9 L71.05 27.7 90.9 27.7 71.05 27.7 71.05 13.9 Q81.0 2.85 90.9 13.9 L90.9 27.7 M68.55 34.4 L93.0 34.4 93.0 65.6 68.55 65.6 68.55 34.4" fill="url(#gradient19)" fill-rule="evenodd" stroke="none"/>
    <path d="M93.0 29.35 L68.55 29.35 68.55 12.9 Q80.8 -0.35 93.0 12.9 L93.0 29.35 M90.9 27.7 L71.05 27.7 71.05 13.9 Q81.0 2.85 90.9 13.9 L90.9 27.7 M91.35 36.1 L91.35 63.5 70.65 63.5 70.65 36.1 91.35 36.1 M78.15 58.6 L73.7 58.6 73.7 46.35 73.7 40.45 88.45 40.45 88.45 46.35 88.45 58.6 84.0 58.6 M88.45 46.35 L73.7 46.35 M68.55 34.4 L68.55 65.6 93.0 65.6 93.0 34.4 68.55 34.4" fill="none" stroke="#66ff00" stroke-linecap="round" stroke-linejoin="round" stroke-width="0.05"/>
    <path d="M83.7 19.75 L80.7 19.75 79.7 21.6 81.65 23.8 80.7 25.25 Q83.4 25.25 85.3 23.35 87.15 21.45 87.2 18.85 L84.7 18.85 83.75 18.85 77.65 18.85 76.7 18.85 74.2 18.85 Q74.25 21.45 76.1 23.35 78.0 25.25 80.7 25.25 M84.7 18.85 L84.7 18.7 Q84.7 17.05 83.5 15.85 82.35 14.7 80.7 14.7 79.05 14.7 77.85 15.85 76.7 17.05 76.7 18.7 L76.7 18.85 M74.2 18.85 L74.2 18.7 Q74.2 16.0 76.1 14.1 78.0 12.2 80.7 12.2 83.4 12.2 85.3 14.1 87.2 16.0 87.2 18.7 L87.2 18.85 M77.65 18.85 L77.65 18.7 Q77.6 17.45 78.5 16.55 79.4 15.65 80.7 15.65 81.95 15.65 82.85 16.55 83.75 17.45 83.75 18.7 L83.75 18.85 M80.7 19.75 L77.6 19.75" fill="none" stroke="#66ff00" stroke-linecap="round" stroke-linejoin="round" stroke-width="0.05"/>
    <path d="M88.25 62.8 L89.75 66.65 86.0 68.1 86.75 70.65 90.25 71.7 86.0 74.45 87.55 75.65 89.15 76.5 Q92.5 77.65 94.1 80.8 L72.15 80.2 72.6 82.0 73.05 83.15 74.4 85.05 75.2 85.85 74.9 86.25 74.95 87.85 71.8 87.05 71.6 90.05 Q59.35 82.45 44.45 87.15 L49.05 91.2 45.0 90.6 47.35 96.4 45.45 97.0 34.05 92.35 33.55 96.7 38.65 103.9 27.1 99.25 27.7 104.15 20.75 100.5 18.3 100.9 19.15 107.95 Q16.9 106.9 14.45 106.4 12.45 105.95 10.7 106.75 9.95 107.05 9.35 107.6 8.35 108.4 7.5 109.35 L8.65 110.8 Q4.75 114.5 0.0 116.7 -2.85 118.05 -4.0 120.95 L-5.2 123.3 Q-6.9 125.7 -4.7 127.85 L-5.05 130.35 Q-5.35 131.95 -6.3 133.25 L-6.85 133.95 -6.95 142.0 Q-4.85 140.35 -2.05 140.2 0.0 140.1 1.45 138.6 L2.5 137.2 2.95 136.4 4.05 136.4 4.6 141.75 Q8.4 139.3 8.45 134.9 8.45 132.3 7.5 129.85 11.5 132.65 11.15 138.25 11.0 140.4 11.55 142.55 L16.75 137.35 15.6 146.0 19.6 144.3 Q16.6 150.15 16.5 156.6 L15.85 156.1 Q13.6 153.9 10.45 153.95 L5.15 160.35 -1.25 159.6 -3.25 169.1 -8.0 167.65 -8.9 168.8 -12.5 167.15 -12.7 170.85 -14.75 171.25 -15.0 70.4 -15.6 70.4 Q-18.25 65.8 -17.65 60.2 L-17.5 57.85 -16.75 57.05 -16.2 53.65 -14.6 61.8 -10.4 50.8 -9.75 51.45 -11.2 62.2 Q-6.55 59.5 -5.45 53.95 -5.05 51.95 -5.2 50.2 -2.8 55.4 -4.4 60.75 2.55 58.25 4.4 51.35 L4.6 49.6 Q6.65 54.75 5.1 60.2 L4.6 61.75 12.1 55.95 10.95 61.75 12.6 61.15 13.25 60.0 14.05 62.8 Q17.95 60.8 19.7 56.6 L20.35 56.45 20.75 65.2 24.8 61.15 25.95 63.5 28.3 61.75 30.3 63.15 34.65 64.65 37.35 59.35 41.05 62.85 50.85 63.85 52.3 64.9 53.75 64.2 64.55 64.3 71.6 57.15 71.0 64.65 76.8 63.3 78.5 63.95 80.35 63.0 83.75 64.0 88.25 62.8 M-7.45 103.25 Q-6.35 106.05 -4.05 107.95 -6.35 106.05 -7.45 103.25 M-4.65 99.85 L-4.65 100.45 Q-4.65 103.35 -2.9 105.05 -4.65 103.35 -4.65 100.45 L-4.65 99.85 M4.0 99.85 Q3.35 100.0 2.9 101.0 L1.6 103.2 Q0.05 105.3 0.0 107.95 0.05 105.3 1.6 103.2 L2.9 101.0 Q3.35 100.0 4.0 99.85 M47.9 70.4 L47.85 71.0 Q47.35 73.9 44.45 75.05 L44.45 73.9 44.2 72.85 Q43.9 72.2 43.85 71.15 43.9 72.7 43.1 73.8 L38.1 79.65 43.1 73.8 Q43.9 72.7 43.85 71.15 43.9 72.2 44.2 72.85 L44.45 73.9 44.45 75.05 Q47.35 73.9 47.85 71.0 L47.9 70.4 M62.9 71.0 L63.3 72.2 Q63.9 74.45 62.9 76.2 63.9 74.45 63.3 72.2 L62.9 71.0 M30.55 73.9 L31.25 75.55 Q31.7 76.65 31.6 77.95 L31.15 81.95 31.6 77.95 Q31.7 76.65 31.25 75.55 L30.55 73.9 M17.3 72.75 Q16.35 71.75 15.95 69.9 15.6 68.3 15.0 67.55 14.8 69.3 13.85 71.0 13.55 71.6 13.5 72.15 13.3 74.8 10.95 75.6 L11.15 71.6 Q11.4 69.4 10.35 68.7 8.8 70.8 7.25 73.8 L6.75 75.15 Q6.3 77.15 5.15 77.95 L5.1 76.75 4.65 72.75 Q4.4 70.8 2.8 70.4 1.4 77.25 3.45 83.7 1.4 77.25 2.8 70.4 4.4 70.8 4.65 72.75 L5.1 76.75 5.15 77.95 Q6.3 77.15 6.75 75.15 L7.25 73.8 Q8.8 70.8 10.35 68.7 11.4 69.4 11.15 71.6 L10.95 75.6 Q13.3 74.8 13.5 72.15 13.55 71.6 13.85 71.0 14.8 69.3 15.0 67.55 15.6 68.3 15.95 69.9 16.35 71.75 17.3 72.75" fill="#193a00" fill-rule="evenodd" stroke="none"/>
    <path d="M3.45 83.7 Q1.4 77.25 2.8 70.4 4.4 70.8 4.65 72.75 L5.1 76.75 5.15 77.95 Q6.3 77.15 6.75 75.15 L7.25 73.8 Q8.8 70.8 10.35 68.7 11.4 69.4 11.15 71.6 L10.95 75.6 Q13.3 74.8 13.5 72.15 13.55 71.6 13.85 71.0 14.8 69.3 15.0 67.55 15.6 68.3 15.95 69.9 16.35 71.75 17.3 72.75 M31.15 81.95 L31.6 77.95 Q31.7 76.65 31.25 75.55 L30.55 73.9 M62.9 76.2 Q63.9 74.45 63.3 72.2 L62.9 71.0 M38.1 79.65 L43.1 73.8 Q43.9 72.7 43.85 71.15 43.9 72.2 44.2 72.85 L44.45 73.9 44.45 75.05 Q47.35 73.9 47.85 71.0 L47.9 70.4 M0.0 107.95 Q0.05 105.3 1.6 103.2 L2.9 101.0 Q3.35 100.0 4.0 99.85 M-2.9 105.05 Q-4.65 103.35 -4.65 100.45 L-4.65 99.85 M-4.05 107.95 Q-6.35 106.05 -7.45 103.25" fill="none" stroke="#396020" stroke-linecap="round" stroke-linejoin="round" stroke-width="1.0"/>
    <path d="M324.5 41.5 L324.45 41.55 324.5 41.85 324.5 45.2 324.5 41.85 325.05 44.7 324.5 45.2 323.25 46.35 309.75 46.35 309.75 40.45 324.5 40.45 324.5 41.5 324.5 40.45 309.75 40.45 309.75 46.35 323.25 46.35 322.45 47.05 321.55 47.3 318.1 49.35 318.1 56.55 317.55 57.4 314.95 59.45 314.9 59.7 Q313.85 61.7 313.4 63.5 L306.7 63.5 306.7 36.1 327.4 36.1 327.4 39.45 327.4 36.1 306.7 36.1 306.7 63.5 313.4 63.5 313.0 65.6 304.6 65.6 304.6 34.4 329.05 34.4 329.05 39.35 328.8 39.25 327.4 39.45 Q325.5 39.9 324.5 41.5 M326.95 27.7 L326.95 13.9 Q317.05 2.85 307.1 13.9 L307.1 27.7 326.95 27.7 307.1 27.7 307.1 13.9 Q317.05 2.85 326.95 13.9 L326.95 27.7 M329.05 29.35 L304.6 29.35 304.6 12.9 Q316.85 -0.35 329.05 12.9 L329.05 29.35 M314.2 58.6 L309.75 58.6 309.75 46.35 309.75 58.6 314.2 58.6" fill="url(#gradient20)" fill-rule="evenodd" stroke="none"/>
    <path d="M324.5 41.85 L324.45 41.55 324.5 41.5 324.5 41.85 324.5 41.5 Q325.5 39.9 327.4 39.45 L328.8 39.25 329.05 39.35 329.05 65.6 313.0 65.6 313.4 63.5 Q313.85 61.7 314.9 59.7 L314.95 59.45 317.55 57.4 318.1 56.55 318.1 49.35 321.55 47.3 322.45 47.05 323.25 46.35 324.5 45.2 324.5 46.35 323.25 46.35 324.5 46.35 324.5 45.2 325.05 44.7 324.5 41.85 M313.4 63.5 L327.4 63.5 327.4 39.45 327.4 63.5 313.4 63.5 M320.05 58.6 L324.5 58.6 324.5 46.35 324.5 58.6 320.05 58.6" fill="url(#gradient21)" fill-rule="evenodd" stroke="none"/>
    <path d="M324.5 41.5 L324.5 40.45 309.75 40.45 309.75 46.35 323.25 46.35 M324.5 45.2 L324.5 41.85 M327.4 39.45 L327.4 36.1 306.7 36.1 306.7 63.5 313.4 63.5 M329.05 39.35 L329.05 34.4 304.6 34.4 304.6 65.6 313.0 65.6 M326.95 27.7 L307.1 27.7 307.1 13.9 Q317.05 2.85 326.95 13.9 L326.95 27.7 M329.05 29.35 L304.6 29.35 304.6 12.9 Q316.85 -0.35 329.05 12.9 L329.05 29.35 M309.75 46.35 L309.75 58.6 314.2 58.6" fill="none" stroke="#66ff00" stroke-linecap="round" stroke-linejoin="round" stroke-width="0.05"/>
    <path d="M324.5 41.85 L324.5 41.5 M323.25 46.35 L324.5 46.35 324.5 45.2 M327.4 39.45 L327.4 63.5 313.4 63.5 M313.0 65.6 L329.05 65.6 329.05 39.35 M324.5 46.35 L324.5 58.6 320.05 58.6" fill="none" stroke="#669900" stroke-linecap="round" stroke-linejoin="round" stroke-width="0.05"/>
    <path d="M319.75 19.75 L316.75 19.75 315.75 21.6 317.7 23.8 316.75 25.25 Q319.45 25.25 321.35 23.35 323.2 21.45 323.25 18.85 L320.75 18.85 319.8 18.85 313.7 18.85 312.75 18.85 310.25 18.85 Q310.3 21.45 312.15 23.35 314.05 25.25 316.75 25.25 M320.75 18.85 L320.75 18.7 Q320.75 17.05 319.55 15.85 318.4 14.7 316.75 14.7 315.1 14.7 313.9 15.85 312.75 17.05 312.75 18.7 L312.75 18.85 M310.25 18.85 L310.25 18.7 Q310.25 16.0 312.15 14.1 314.05 12.2 316.75 12.2 319.45 12.2 321.35 14.1 323.25 16.0 323.25 18.7 L323.25 18.85 M313.7 18.85 L313.7 18.7 Q313.65 17.45 314.55 16.55 315.45 15.65 316.75 15.65 318.0 15.65 318.9 16.55 319.8 17.45 319.8 18.7 L319.8 18.85 M316.75 19.75 L313.65 19.75" fill="none" stroke="#66ff00" stroke-linecap="round" stroke-linejoin="round" stroke-width="0.05"/>
  </g>
  <defs>
    <linearGradient gradientTransform="matrix(0.0, -0.0536, 0.0549, 0.0, 196.8, 42.85)" gradientUnits="userSpaceOnUse" id="gradient0" spreadMethod="pad" x1="-819.2" x2="819.2">
      <stop offset="0.0" stop-color="#564d18"/>
      <stop offset="1.0" stop-color="#242d0f"/>
    </linearGradient>
    <radialGradient cx="0" cy="0" gradientTransform="matrix(0.0033, 0.1743, -0.3718, 0.0061, 192.7, 147.0)" gradientUnits="userSpaceOnUse" id="gradient1" r="819.2" spreadMethod="pad">
      <stop offset="0.0" stop-color="#87843d"/>
      <stop offset="0.5803921568627451" stop-color="#5e5b29"/>
      <stop offset="1.0" stop-color="#052600"/>
    </radialGradient>
    <linearGradient gradientTransform="matrix(0.0196, 0.0, 0.0, 0.0132, 385.25, 3.9)" gradientUnits="userSpaceOnUse" id="gradient2" spreadMethod="pad" x1="-819.2" x2="819.2">
      <stop offset="0.0" stop-color="#242d0f"/>
      <stop offset="0.5098039215686274" stop-color="#706021"/>
      <stop offset="1.0" stop-color="#242d0f"/>
    </linearGradient>
    <linearGradient gradientTransform="matrix(0.0076, 0.0, 0.0, 0.0287, 384.85, 49.55)" gradientUnits="userSpaceOnUse" id="gradient3" spreadMethod="pad" x1="-819.2" x2="819.2">
      <stop offset="0.0" stop-color="#242d0f"/>
      <stop offset="0.5098039215686274" stop-color="#706021"/>
      <stop offset="1.0" stop-color="#242d0f"/>
    </linearGradient>
    <linearGradient gradientTransform="matrix(0.0123, 0.0, 0.0, 0.0035, 385.1, 25.05)" gradientUnits="userSpaceOnUse" id="gradient4" spreadMethod="pad" x1="-819.2" x2="819.2">
      <stop offset="0.0" stop-color="#242d0f"/>
      <stop offset="0.5098039215686274" stop-color="#706021"/>
      <stop offset="1.0" stop-color="#242d0f"/>
    </linearGradient>
    <linearGradient gradientTransform="matrix(0.0149, 0.0, 0.0, 0.0057, 385.15, 18.35)" gradientUnits="userSpaceOnUse" id="gradient5" spreadMethod="pad" x1="-819.2" x2="819.2">
      <stop offset="0.0" stop-color="#242d0f"/>
      <stop offset="0.5098039215686274" stop-color="#706021"/>
      <stop offset="1.0" stop-color="#242d0f"/>
    </linearGradient>
    <linearGradient gradientTransform="matrix(0.0196, 0.0, 0.0, 0.0132, 243.7, 3.9)" gradientUnits="userSpaceOnUse" id="gradient6" spreadMethod="pad" x1="-819.2" x2="819.2">
      <stop offset="0.0" stop-color="#242d0f"/>
      <stop offset="0.5098039215686274" stop-color="#706021"/>
      <stop offset="1.0" stop-color="#242d0f"/>
    </linearGradient>
    <linearGradient gradientTransform="matrix(0.0076, 0.0, 0.0, 0.0287, 243.3, 49.55)" gradientUnits="userSpaceOnUse" id="gradient7" spreadMethod="pad" x1="-819.2" x2="819.2">
      <stop offset="0.0" stop-color="#242d0f"/>
      <stop offset="0.5098039215686274" stop-color="#706021"/>
      <stop offset="1.0" stop-color="#242d0f"/>
    </linearGradient>
    <linearGradient gradientTransform="matrix(0.0123, 0.0, 0.0, 0.0035, 243.55, 25.05)" gradientUnits="userSpaceOnUse" id="gradient8" spreadMethod="pad" x1="-819.2" x2="819.2">
      <stop offset="0.0" stop-color="#242d0f"/>
      <stop offset="0.5098039215686274" stop-color="#706021"/>
      <stop offset="1.0" stop-color="#242d0f"/>
    </linearGradient>
    <linearGradient gradientTransform="matrix(0.0149, 0.0, 0.0, 0.0057, 243.6, 18.35)" gradientUnits="userSpaceOnUse" id="gradient9" spreadMethod="pad" x1="-819.2" x2="819.2">
      <stop offset="0.0" stop-color="#242d0f"/>
      <stop offset="0.5098039215686274" stop-color="#706021"/>
      <stop offset="1.0" stop-color="#242d0f"/>
    </linearGradient>
    <linearGradient gradientTransform="matrix(0.0196, 0.0, 0.0, 0.0132, 153.65, 3.9)" gradientUnits="userSpaceOnUse" id="gradient10" spreadMethod="pad" x1="-819.2" x2="819.2">
      <stop offset="0.0" stop-color="#242d0f"/>
      <stop offset="0.5098039215686274" stop-color="#706021"/>
      <stop offset="1.0" stop-color="#242d0f"/>
    </linearGradient>
    <linearGradient gradientTransform="matrix(0.0076, 0.0, 0.0, 0.0287, 153.25, 49.55)" gradientUnits="userSpaceOnUse" id="gradient11" spreadMethod="pad" x1="-819.2" x2="819.2">
      <stop offset="0.0" stop-color="#242d0f"/>
      <stop offset="0.5098039215686274" stop-color="#706021"/>
      <stop offset="1.0" stop-color="#242d0f"/>
    </linearGradient>
    <linearGradient gradientTransform="matrix(0.0123, 0.0, 0.0, 0.0035, 153.5, 25.05)" gradientUnits="userSpaceOnUse" id="gradient12" spreadMethod="pad" x1="-819.2" x2="819.2">
      <stop offset="0.0" stop-color="#242d0f"/>
      <stop offset="0.5098039215686274" stop-color="#706021"/>
      <stop offset="1.0" stop-color="#242d0f"/>
    </linearGradient>
    <linearGradient gradientTransform="matrix(0.0149, 0.0, 0.0, 0.0057, 153.55, 18.35)" gradientUnits="userSpaceOnUse" id="gradient13" spreadMethod="pad" x1="-819.2" x2="819.2">
      <stop offset="0.0" stop-color="#242d0f"/>
      <stop offset="0.5098039215686274" stop-color="#706021"/>
      <stop offset="1.0" stop-color="#242d0f"/>
    </linearGradient>
    <linearGradient gradientTransform="matrix(0.0196, 0.0, 0.0, 0.0132, 13.15, 3.9)" gradientUnits="userSpaceOnUse" id="gradient14" spreadMethod="pad" x1="-819.2" x2="819.2">
      <stop offset="0.0" stop-color="#242d0f"/>
      <stop offset="0.5098039215686274" stop-color="#706021"/>
      <stop offset="1.0" stop-color="#242d0f"/>
    </linearGradient>
    <linearGradient gradientTransform="matrix(0.0123, 0.0, 0.0, 0.0035, 13.0, 25.05)" gradientUnits="userSpaceOnUse" id="gradient15" spreadMethod="pad" x1="-819.2" x2="819.2">
      <stop offset="0.0" stop-color="#242d0f"/>
      <stop offset="0.5098039215686274" stop-color="#706021"/>
      <stop offset="1.0" stop-color="#242d0f"/>
    </linearGradient>
    <linearGradient gradientTransform="matrix(0.0149, 0.0, 0.0, 0.0057, 13.05, 18.35)" gradientUnits="userSpaceOnUse" id="gradient16" spreadMethod="pad" x1="-819.2" x2="819.2">
      <stop offset="0.0" stop-color="#242d0f"/>
      <stop offset="0.5098039215686274" stop-color="#706021"/>
      <stop offset="1.0" stop-color="#242d0f"/>
    </linearGradient>
    <linearGradient gradientTransform="matrix(0.0076, 0.0, 0.0, 0.0287, 12.75, 49.55)" gradientUnits="userSpaceOnUse" id="gradient17" spreadMethod="pad" x1="-819.2" x2="819.2">
      <stop offset="0.0" stop-color="#242d0f"/>
      <stop offset="0.5098039215686274" stop-color="#706021"/>
      <stop offset="1.0" stop-color="#242d0f"/>
    </linearGradient>
    <linearGradient gradientTransform="matrix(0.0, -0.0336, 0.0118, 0.0, 180.25, 35.95)" gradientUnits="userSpaceOnUse" id="gradient18" spreadMethod="pad" x1="-819.2" x2="819.2">
      <stop offset="0.0" stop-color="#294301"/>
      <stop offset="1.0" stop-color="#76c102"/>
    </linearGradient>
    <linearGradient gradientTransform="matrix(0.0, -0.0336, 0.0118, 0.0, 63.05, 35.95)" gradientUnits="userSpaceOnUse" id="gradient19" spreadMethod="pad" x1="-819.2" x2="819.2">
      <stop offset="0.0" stop-color="#294301"/>
      <stop offset="1.0" stop-color="#76c102"/>
    </linearGradient>
    <linearGradient gradientTransform="matrix(0.0, -0.0336, 0.0118, 0.0, 299.1, 35.95)" gradientUnits="userSpaceOnUse" id="gradient20" spreadMethod="pad" x1="-819.2" x2="819.2">
      <stop offset="0.0" stop-color="#294301"/>
      <stop offset="1.0" stop-color="#76c102"/>
    </linearGradient>
    <linearGradient gradientTransform="matrix(0.0, -0.0336, 0.0118, 0.0, 299.1, 35.95)" gradientUnits="userSpaceOnUse" id="gradient21" spreadMethod="pad" x1="-819.2" x2="819.2">
      <stop offset="0.0" stop-color="#261901"/>
      <stop offset="1.0" stop-color="#767f02"/>
    </linearGradient>
  </defs>
</svg>
