<?xml version="1.0" encoding="UTF-8" standalone="no"?>
<svg xmlns:xlink="http://www.w3.org/1999/xlink" height="131.4px" width="252.75px" xmlns="http://www.w3.org/2000/svg">
  <g transform="matrix(1.0, 0.0, 0.0, 1.0, -65.9, -85.9)">
    <path d="M246.3 92.05 Q257.0 94.7 267.2 98.65 277.05 102.4 286.1 107.6 294.25 112.25 301.2 118.0 308.55 124.2 313.4 132.4 318.8 141.4 318.65 151.6 L317.9 158.35 Q316.7 166.7 311.6 173.95 306.0 181.95 297.9 188.05 290.3 193.75 281.7 198.2 272.35 203.0 262.15 206.5 251.7 210.15 240.7 212.5 232.15 214.35 223.5 215.45 L205.1 217.0 Q195.5 217.45 185.8 217.25 L167.05 216.1 149.5 213.65 132.9 209.8 Q122.35 206.9 112.45 202.6 102.95 198.5 94.2 193.2 86.65 188.55 80.3 182.6 73.45 176.1 69.6 167.9 65.85 160.1 65.9 151.6 66.0 141.35 71.2 132.4 76.0 124.15 83.4 117.95 90.4 112.15 98.45 107.6 107.5 102.45 117.35 98.65 127.55 94.75 138.3 92.05 146.65 89.95 155.2 88.65 L173.2 86.65 192.2 85.9 211.4 86.65 229.35 88.65 Q237.9 90.05 246.3 92.05 M175.0 90.7 Q163.75 91.4 152.85 93.5 142.4 95.35 132.45 98.55 124.85 101.0 117.7 104.05 L113.85 105.75 Q105.3 109.7 97.7 114.95 89.65 120.55 83.7 127.9 77.4 135.6 75.65 145.15 73.9 154.45 77.25 163.5 80.75 172.95 88.5 180.15 95.85 187.1 105.35 192.35 113.85 197.1 123.0 200.7 132.5 204.55 142.4 207.0 152.9 209.65 163.7 210.9 L180.85 212.35 Q189.9 212.75 198.85 212.55 L216.3 211.5 Q227.3 210.5 238.05 208.15 248.25 206.05 258.05 202.55 267.5 199.2 276.2 194.75 284.3 190.65 291.35 185.35 299.05 179.55 304.15 172.15 309.7 164.05 310.5 154.5 L310.7 151.0 310.7 150.65 309.75 143.0 Q307.6 133.95 300.95 126.5 294.65 119.35 286.15 113.85 279.2 109.25 271.7 105.75 263.5 101.95 254.8 99.05 245.75 96.1 236.35 94.15 226.5 92.25 216.5 91.15 L195.05 90.0 175.0 90.7" fill="#4f4317" fill-rule="evenodd" stroke="none"/>
    <path d="M175.0 90.7 L195.05 90.0 216.5 91.15 Q226.5 92.25 236.35 94.15 245.75 96.1 254.8 99.05 263.5 101.95 271.7 105.75 279.2 109.25 286.15 113.85 294.65 119.35 300.95 126.5 307.6 133.95 309.75 143.0 L310.7 150.65 310.7 151.0 310.5 154.5 Q309.7 164.05 304.15 172.15 299.05 179.55 291.35 185.35 284.3 190.65 276.2 194.75 267.5 199.2 258.05 202.55 248.25 206.05 238.05 208.15 227.3 210.5 216.3 211.5 L198.85 212.55 Q189.9 212.75 180.85 212.35 L163.7 210.9 Q152.9 209.65 142.4 207.0 132.5 204.55 123.0 200.7 113.85 197.1 105.35 192.35 95.85 187.1 88.5 180.15 80.75 172.95 77.25 163.5 73.9 154.45 75.65 145.15 77.4 135.6 83.7 127.9 89.65 120.55 97.7 114.95 105.3 109.7 113.85 105.75 L117.7 104.05 Q124.85 101.0 132.45 98.55 142.4 95.35 152.85 93.5 163.75 91.4 175.0 90.7" fill="url(#gradient0)" fill-rule="evenodd" stroke="none"/>
    <path d="M175.0 90.7 Q163.75 91.4 152.85 93.5 142.4 95.35 132.45 98.55 124.85 101.0 117.7 104.05 L113.85 105.75 Q105.3 109.7 97.7 114.95 89.65 120.55 83.7 127.9 77.4 135.6 75.65 145.15 73.9 154.45 77.25 163.5 80.75 172.95 88.5 180.15 95.85 187.1 105.35 192.35 113.85 197.1 123.0 200.7 132.5 204.55 142.4 207.0 152.9 209.65 163.7 210.9 L180.85 212.35 Q189.9 212.75 198.85 212.55 L216.3 211.5 Q227.3 210.5 238.05 208.15 248.25 206.05 258.05 202.55 267.5 199.2 276.2 194.75 284.3 190.65 291.35 185.35 299.05 179.55 304.15 172.15 309.7 164.05 310.5 154.5 L310.7 151.0 310.7 150.65 309.75 143.0 Q307.6 133.95 300.95 126.5 294.65 119.35 286.15 113.85 279.2 109.25 271.7 105.75 263.5 101.95 254.8 99.05 245.75 96.1 236.35 94.15 226.5 92.25 216.5 91.15 L195.05 90.0 175.0 90.7 Z" fill="none" stroke="#66ff00" stroke-linecap="round" stroke-linejoin="round" stroke-width="0.05"/>
    <path d="M248.95 95.0 Q250.0 95.75 250.9 95.85 L252.7 96.15 254.65 96.7 256.6 97.1 258.5 97.7 Q259.45 98.2 260.6 98.35 261.75 98.5 262.6 99.1 263.45 99.7 264.4 100.1 M235.85 91.95 L237.95 92.45 239.95 92.9 242.05 93.4 243.95 93.7 245.65 93.9 247.75 94.7 M176.25 88.4 L178.0 88.7 180.2 88.5 182.25 88.4 183.75 87.95 186.0 88.0 187.95 87.6 190.1 87.65 192.35 87.8 194.2 87.85 195.8 87.85 197.65 87.85 199.8 87.9 202.0 88.1 M160.9 90.05 L163.0 89.55 164.7 89.5 166.75 89.3 169.0 88.95 171.1 88.75 173.15 88.65 174.95 88.5 M203.3 88.1 L205.45 88.05 207.4 88.05 209.25 88.5 211.25 88.75 213.3 88.55 Q214.35 88.45 215.3 89.05 M216.6 89.15 L218.7 88.95 220.45 89.15 Q221.55 89.25 222.35 89.7 223.15 90.2 224.3 90.05 L226.5 90.2 228.55 90.6 230.45 90.9 232.45 91.1 Q233.55 91.15 234.55 91.7 M289.9 113.1 L291.95 114.4 293.3 115.45 295.05 116.7 Q296.15 117.4 296.55 118.0 L297.95 119.5 299.85 120.85 301.3 121.9 302.45 123.35 304.0 125.0 M276.15 105.3 L277.7 106.3 279.45 107.3 Q280.6 108.05 281.45 108.3 282.35 108.55 283.4 109.15 L285.5 110.5 287.05 111.5 288.8 112.4 M304.85 126.0 L306.15 127.45 307.25 129.15 308.3 130.85 309.4 132.45 310.4 134.2 311.2 136.2 312.05 138.05 M312.5 139.25 Q312.55 140.2 312.95 141.3 L313.7 143.35 Q314.05 144.3 314.0 145.05 313.95 145.85 314.35 147.0 314.8 148.15 314.65 149.2 L314.4 151.0 Q314.25 151.75 314.55 152.95 314.85 154.2 314.5 155.25 M265.6 100.6 Q267.05 101.15 267.75 101.65 268.5 102.2 269.5 102.3 270.5 102.4 271.3 102.85 L273.05 103.55 Q274.05 103.8 274.95 104.7 M287.0 192.1 L285.45 193.1 283.85 194.2 Q282.9 194.75 281.65 195.1 280.4 195.5 279.65 195.95 L278.15 196.75 276.45 197.6 274.7 198.6 Q273.85 199.2 273.0 199.45 272.15 199.75 270.85 200.2 269.6 200.65 269.0 201.2 M314.35 156.55 Q313.8 157.55 313.65 158.4 L313.4 160.45 313.0 162.6 312.3 164.4 311.5 166.25 310.7 168.1 309.85 169.9 M309.25 171.0 Q308.35 171.9 308.2 172.75 308.1 173.65 307.0 174.35 305.95 175.05 305.6 176.05 305.25 177.1 304.4 177.75 L302.85 179.25 301.5 180.85 300.2 182.0 M299.3 182.85 Q298.1 183.45 297.55 184.25 L296.15 185.75 294.65 187.0 292.95 188.25 291.45 189.15 Q291.05 189.3 290.15 189.95 L288.25 191.3 M119.7 100.25 Q120.6 99.45 121.55 99.1 L123.4 98.45 125.3 98.0 127.25 97.6 129.4 96.9 M130.5 96.5 L132.2 95.85 134.35 95.25 136.35 94.65 138.1 94.1 140.05 93.85 Q141.2 93.8 142.05 93.15 142.9 92.55 144.25 92.8 M145.55 92.5 L147.5 92.15 149.5 91.8 151.6 91.3 153.5 90.8 155.45 90.65 157.7 90.3 159.6 90.25 M70.9 143.2 L71.5 141.25 72.15 139.4 72.95 137.5 73.65 135.6 Q73.85 134.75 74.35 133.95 L75.35 132.35 76.45 130.65 77.85 128.9 79.2 127.4 Q79.8 126.75 80.05 125.85 M70.95 160.35 Q70.7 159.35 70.6 158.25 L70.5 156.35 70.1 154.45 Q69.75 153.35 69.75 152.15 L69.7 150.45 Q69.65 149.9 69.9 148.65 L70.35 146.15 70.65 144.4 M77.3 174.15 Q76.8 173.15 76.15 172.45 L75.05 170.8 74.35 169.05 Q74.15 168.25 73.55 167.2 L72.55 165.45 71.8 163.75 71.25 161.55 M92.8 188.95 L91.0 187.65 89.4 186.6 87.9 185.4 86.7 184.1 85.3 182.8 83.6 181.2 82.15 179.65 80.65 178.45 79.4 177.0 78.05 175.15 M103.85 107.5 L105.6 106.6 107.3 105.75 109.25 104.8 111.2 103.9 113.0 103.0 114.85 102.2 Q115.7 101.95 116.35 101.3 117.05 100.7 118.5 100.75 M90.6 115.9 Q91.85 115.65 92.5 114.7 93.15 113.75 94.3 113.3 L96.05 112.3 97.45 111.15 99.2 110.05 100.85 108.95 Q101.55 108.4 102.75 108.1 M80.85 124.9 L82.2 123.65 83.6 121.85 84.8 120.45 86.5 119.15 88.2 117.8 Q88.8 117.25 89.6 116.65 M105.85 196.8 Q105.35 196.35 104.3 195.85 L102.55 194.9 100.75 193.8 Q99.6 193.15 98.8 192.55 98.0 192.0 96.95 191.55 L95.1 190.9 Q94.25 190.7 93.8 189.65 M164.15 213.6 Q163.2 213.15 162.1 213.3 L159.9 213.35 158.15 213.05 156.4 212.45 154.1 211.8 152.0 211.7 150.25 211.55 M149.05 211.35 Q148.15 210.7 147.0 210.85 L144.75 210.65 142.8 210.05 140.95 209.55 139.0 209.15 137.05 208.6 135.05 208.05 M133.85 207.65 Q132.95 207.4 132.2 206.9 L130.25 206.3 128.2 205.85 126.3 205.3 124.25 204.55 122.45 203.65 Q121.65 203.2 120.8 203.3 M119.7 202.9 L117.5 201.9 Q116.55 201.3 115.7 201.1 114.9 200.95 114.1 200.45 113.3 200.0 112.05 199.75 L110.05 199.1 108.45 198.25 106.95 197.35 M267.9 201.7 L266.2 202.35 264.25 202.85 Q263.3 203.1 262.35 203.85 261.4 204.6 260.2 204.7 259.05 204.85 258.35 205.35 257.7 205.9 256.75 205.75 M255.55 206.15 L253.75 206.65 Q253.0 206.65 251.8 207.1 L249.6 208.0 247.8 208.6 245.9 208.9 243.65 209.4 241.7 210.05 240.0 210.5 238.0 210.8 M236.8 211.1 L235.0 211.2 233.0 211.55 230.85 212.15 229.05 212.35 226.8 212.7 224.7 212.95 Q223.9 212.85 222.8 213.25 L220.85 213.6 M204.55 214.95 L202.55 215.25 200.85 215.2 198.75 215.0 196.7 215.25 194.9 215.3 192.65 215.1 190.4 215.1 188.5 215.2 186.4 215.25 184.55 215.15 M219.65 213.7 L217.55 213.8 215.3 214.4 213.35 214.45 211.45 214.25 Q210.7 214.25 209.5 214.7 L207.35 215.15 205.75 214.9 M183.35 215.15 L181.4 215.0 179.2 214.75 177.4 214.5 175.55 214.6 173.25 214.65 171.15 214.35 169.4 214.1 167.3 213.95 165.35 213.8" fill="none" stroke="#59531e" stroke-linecap="round" stroke-linejoin="round" stroke-width="1.0"/>
    <path d="M192.5 211.95 L192.7 211.95 Q241.55 211.95 276.25 194.15 309.75 176.7 310.7 152.2 L265.15 152.2 248.4 152.2 137.25 152.2 120.5 152.2 74.7 152.2 Q75.65 176.7 109.4 194.15 143.6 211.95 192.5 211.95 L209.95 198.55 175.0 177.8 192.5 160.75 137.0 160.75 M137.25 152.2 L137.25 150.95 Q137.0 139.0 153.3 130.6 169.6 122.15 192.7 122.15 215.85 122.15 232.1 130.6 248.4 139.0 248.4 150.95 L248.4 152.2 M265.15 152.2 L265.15 150.95 Q265.15 135.35 243.9 124.35 222.7 113.5 192.7 113.5 162.75 113.5 141.5 124.35 120.25 135.35 120.5 150.95 120.25 151.6 120.5 152.2 M74.7 152.2 L74.7 150.95 Q74.7 125.7 109.4 107.9 143.85 89.95 192.7 89.95 241.55 89.95 276.25 107.9 310.7 125.7 310.7 150.95 L310.7 152.2 M192.5 160.75 L246.75 160.75" fill="none" stroke="#00ff00" stroke-linecap="round" stroke-linejoin="round" stroke-width="1.0"/>
  </g>
  <defs>
    <radialGradient cx="0" cy="0" gradientTransform="matrix(0.144, 0.0, 0.0, 0.1272, 192.9, 151.3)" gradientUnits="userSpaceOnUse" id="gradient0" r="819.2" spreadMethod="pad">
      <stop offset="0.0" stop-color="#76c102"/>
      <stop offset="1.0" stop-color="#294301"/>
    </radialGradient>
  </defs>
</svg>
