<?xml version="1.0" encoding="UTF-8" standalone="no"?>
<svg xmlns:xlink="http://www.w3.org/1999/xlink" height="190.05px" width="409.85px" xmlns="http://www.w3.org/2000/svg">
  <g transform="matrix(1.0, 0.0, 0.0, 1.0, 9.65, -51.75)">
    <path d="M346.1 99.1 Q348.05 90.35 343.85 81.85 369.1 94.0 383.45 109.35 376.55 122.3 352.1 128.95 346.4 130.55 340.45 131.3 308.45 134.75 279.05 128.0 L269.15 126.2 Q244.8 122.05 220.65 124.9 202.5 126.85 194.15 134.55 193.0 135.65 193.0 136.9 192.8 141.35 193.2 145.75 177.1 134.65 179.5 121.45 179.9 119.15 181.65 116.9 188.55 108.05 207.85 105.8 L230.25 103.3 Q247.05 101.4 252.45 93.8 255.3 89.6 248.0 86.6 242.5 84.35 235.9 85.2 225.7 86.65 215.6 88.65 202.7 91.1 189.1 91.6 L184.65 90.85 Q169.9 87.35 177.6 80.1 179.4 78.4 182.8 77.65 L208.25 72.4 Q214.25 71.2 218.15 69.5 221.8 68.05 220.35 65.95 208.05 62.35 193.3 62.8 L189.9 62.75 Q181.95 61.1 185.25 57.2 188.45 53.5 196.5 51.75 L208.35 52.0 202.7 53.65 Q197.45 54.85 196.1 57.5 L199.0 59.45 Q219.8 59.45 238.7 63.65 240.25 64.05 241.2 64.8 244.6 68.1 237.15 69.6 217.85 73.3 199.4 77.65 190.3 79.75 192.15 83.8 L211.35 83.15 Q240.65 77.8 271.6 80.65 277.2 81.25 281.3 83.15 291.0 87.65 285.15 93.45 263.8 101.05 237.9 104.4 219.0 106.95 202.4 111.3 198.15 112.45 194.95 114.1 187.45 118.25 188.35 123.55 211.8 113.0 245.0 113.8 256.75 114.25 267.7 116.6 L278.85 118.65 Q293.7 120.95 309.4 119.9 319.1 119.2 326.9 116.1 343.85 109.4 346.1 99.1 M345.0 144.6 L355.1 156.6 Q357.35 159.45 360.75 161.3 363.75 163.1 368.5 162.5 376.85 157.05 376.65 150.2 376.25 149.4 376.95 148.6 380.8 145.05 389.05 146.7 396.9 148.4 400.2 152.2 L399.15 157.65 395.75 154.95 Q393.55 152.5 387.9 151.75 L383.55 153.0 Q382.55 162.6 372.55 171.05 371.7 171.7 369.85 172.1 362.6 173.55 359.75 170.05 352.6 161.0 344.05 152.25 339.9 147.95 331.05 148.65 328.25 153.1 331.55 157.5 341.7 171.25 334.05 185.4 332.5 187.9 328.15 189.75 317.95 194.0 305.65 191.05 290.4 180.8 284.3 168.7 279.75 159.9 271.1 152.05 268.95 149.95 265.3 148.45 256.75 144.75 245.3 144.95 267.0 156.25 263.55 171.5 262.15 176.9 256.45 181.85 253.55 184.25 251.4 186.9 245.7 193.6 247.25 200.85 248.2 205.3 254.7 209.15 268.3 217.3 290.6 218.8 309.3 220.15 327.95 218.6 300.4 229.7 266.45 235.5 238.7 231.7 225.6 220.15 222.4 217.4 221.05 214.6 215.2 199.7 231.05 186.5 233.65 184.35 235.5 182.0 245.7 171.05 240.75 159.8 237.45 151.3 221.25 147.05 L216.1 146.4 Q206.5 146.1 196.9 146.05 221.9 139.2 250.15 140.95 L259.95 142.2 Q278.85 145.75 282.75 154.8 L287.0 165.25 Q290.3 173.05 306.6 175.9 315.55 177.45 322.3 174.25 327.45 171.75 326.0 168.7 323.3 164.0 319.5 159.2 314.75 153.1 314.35 146.85 315.05 145.75 316.2 144.8 324.55 138.15 339.8 142.15 343.45 142.95 345.0 144.6 M322.05 89.3 Q323.3 92.65 322.4 96.0 320.75 102.25 310.85 106.8 295.25 114.05 274.0 110.7 290.3 109.75 300.0 103.8 320.0 91.6 307.3 77.2 319.4 81.95 322.05 89.3 M174.95 148.3 L193.7 148.1 193.6 147.8 194.15 148.1 Q209.7 159.1 207.35 172.1 206.95 174.45 205.15 176.7 198.25 185.55 178.95 187.8 L156.45 190.25 Q139.65 192.15 134.3 199.85 131.4 204.05 138.75 206.95 144.2 209.2 150.8 208.4 L171.1 205.0 Q184.0 202.45 197.65 201.95 L202.1 202.75 Q216.85 206.25 209.1 213.5 207.35 215.2 203.95 215.95 L178.45 221.2 Q172.45 222.4 168.55 224.05 164.95 225.55 166.4 227.65 178.65 231.25 193.4 230.8 195.05 230.6 196.8 230.85 204.75 232.5 201.45 236.35 198.25 240.1 190.2 241.8 L178.35 241.55 Q181.05 240.6 184.0 239.9 189.3 238.75 190.6 236.1 L187.75 234.1 Q166.9 234.1 148.0 229.95 146.45 229.6 145.55 228.75 142.15 225.5 149.55 224.0 168.85 220.3 187.3 215.9 196.4 213.85 194.55 209.75 184.75 208.7 175.35 210.4 146.05 215.75 115.1 212.9 109.55 212.35 105.4 210.4 95.7 205.9 101.6 200.1 122.95 192.55 148.85 189.15 167.8 186.6 184.45 182.25 188.65 181.15 191.85 179.45 199.4 175.3 198.45 170.1 175.05 180.6 141.8 179.8 130.05 179.35 119.1 176.95 L108.0 174.9 Q93.1 172.6 77.45 173.6 67.75 174.3 59.9 177.45 43.0 184.1 40.6 194.45 38.65 203.15 42.85 211.65 17.6 199.55 3.35 184.15 10.25 171.2 34.7 164.6 40.4 162.95 46.4 162.2 78.35 158.75 107.75 165.55 L117.7 167.35 Q142.05 171.5 166.15 168.7 184.35 166.7 192.7 159.05 193.8 157.95 193.8 156.65 194.05 152.45 193.7 148.3 169.8 155.6 141.5 154.6 L131.6 153.6 Q112.3 150.45 107.35 141.55 L101.9 131.25 Q97.65 123.55 81.05 121.05 71.95 119.75 65.55 123.15 60.85 125.7 62.6 128.7 65.8 133.4 70.1 138.1 75.6 144.05 76.7 150.3 L75.05 152.4 Q67.55 159.15 51.85 155.65 48.15 154.85 46.4 153.3 L34.95 141.55 Q32.35 138.8 28.75 137.0 25.55 135.3 20.9 135.95 13.15 141.7 14.2 148.5 14.7 149.25 14.1 150.1 10.7 153.75 2.1 152.2 -5.95 150.8 -9.65 147.05 L-9.25 141.6 Q-7.15 142.85 -5.5 144.2 -3.05 146.65 2.75 147.25 L6.95 145.9 Q6.85 136.25 15.85 127.55 16.65 126.85 18.4 126.45 25.55 124.8 28.75 128.25 36.9 137.15 46.5 145.6 51.0 149.8 59.8 148.9 62.15 144.4 58.25 140.05 46.6 126.55 52.55 112.25 53.8 109.7 57.95 107.8 67.65 103.3 80.2 106.0 96.85 115.8 104.25 127.7 109.85 136.4 119.45 144.1 121.8 146.05 125.5 147.45 134.5 150.9 145.85 150.45 122.95 139.75 124.5 124.35 125.4 118.95 130.45 113.9 133.05 111.45 134.9 108.75 139.75 101.9 137.4 94.7 135.95 90.2 129.15 86.55 114.6 78.8 92.2 77.8 L54.85 78.95 Q80.95 67.25 114.25 60.55 142.35 63.7 156.8 74.9 160.4 77.55 162.05 80.3 169.6 95.0 155.25 108.65 152.95 110.85 151.3 113.15 142.55 124.5 148.75 135.55 153.05 143.9 169.8 147.75 L174.95 148.3 M64.35 197.55 Q66.0 191.3 76.0 186.8 91.55 179.5 112.85 182.85 96.55 183.75 86.7 189.75 66.7 201.95 79.4 216.35 67.35 211.6 64.65 204.25 63.4 200.85 64.35 197.55 M85.6 88.75 Q99.1 89.5 108.9 94.05 124.8 101.2 117.7 111.05 115.5 103.55 102.6 99.1 76.0 89.9 44.85 95.8 55.15 90.25 71.05 88.95 78.35 88.4 85.6 88.75 M268.95 185.0 Q270.15 192.6 282.55 197.35 308.05 207.15 339.8 202.0 328.9 207.35 312.9 208.2 305.45 208.65 298.45 208.0 285.05 206.95 275.65 202.15 260.7 194.7 268.95 185.0 M268.3 109.6 L270.4 110.05 274.0 110.7 Q270.3 111.0 268.3 109.6" fill="url(#gradient0)" fill-rule="evenodd" stroke="none"/>
  </g>
  <defs>
    <radialGradient cx="0" cy="0" gradientTransform="matrix(0.2561, 0.0, 0.0, 0.1182, 195.9, 147.0)" gradientUnits="userSpaceOnUse" id="gradient0" r="819.2" spreadMethod="pad">
      <stop offset="0.0" stop-color="#b7ffff"/>
      <stop offset="0.47058823529411764" stop-color="#1fff9b" stop-opacity="0.77254903"/>
      <stop offset="1.0" stop-color="#24ce4c" stop-opacity="0.13333334"/>
    </radialGradient>
  </defs>
</svg>
