<?xml version="1.0" encoding="UTF-8" standalone="no"?>
<svg xmlns:xlink="http://www.w3.org/1999/xlink" height="270.95px" width="432.4px" xmlns="http://www.w3.org/2000/svg">
  <g transform="matrix(1.0, 0.0, 0.0, 1.0, 25.2, 14.95)">
    <path d="M1.15 -5.15 L10.95 -5.15 10.95 11.15 1.15 11.15 1.15 -5.15 M283.95 71.25 L283.95 40.6 304.2 40.6 304.2 71.25 283.95 71.25" fill="#3f2b16" fill-rule="evenodd" stroke="none"/>
    <path d="M82.95 -5.15 L103.05 -5.15 103.05 -1.9 103.05 29.75 103.05 62.1 103.05 74.5 96.3 74.5 98.85 70.3 Q96.5 68.4 95.35 65.65 94.9 64.65 95.15 63.5 96.45 58.05 92.7 54.1 91.05 52.4 88.8 51.7 88.05 51.6 87.5 50.95 90.5 49.6 93.05 47.6 94.45 46.5 95.1 44.9 94.2 41.3 95.1 37.25 95.25 36.55 94.55 36.05 91.8 33.9 91.4 30.4 91.25 28.95 90.55 27.6 92.45 24.15 93.6 20.75 93.85 20.0 93.5 19.15 93.15 18.45 92.5 18.1 84.1 12.45 74.25 10.2 71.75 9.6 70.55 7.2 77.1 5.05 84.3 4.95 86.75 4.9 88.35 3.35 85.85 -0.7 81.0 -2.6 L82.95 -5.15 M10.05 34.85 Q11.5 32.55 14.4 32.2 20.45 44.35 15.25 58.3 L13.35 58.2 Q11.9 55.45 8.7 55.3 5.1 54.7 1.45 56.15 L1.35 54.85 0.1 48.55 Q5.45 42.1 10.05 34.85" fill="#e0aa5a" fill-rule="evenodd" stroke="none"/>
    <path d="M1.15 -5.15 L1.15 11.15 10.95 11.15 10.95 -5.15 82.95 -5.15 81.0 -2.6 Q85.85 -0.7 88.35 3.35 86.75 4.9 84.3 4.95 77.1 5.05 70.55 7.2 71.75 9.6 74.25 10.2 84.1 12.45 92.5 18.1 93.15 18.45 93.5 19.15 93.85 20.0 93.6 20.75 92.45 24.15 90.55 27.6 91.25 28.95 91.4 30.4 91.8 33.9 94.55 36.05 95.25 36.55 95.1 37.25 94.2 41.3 95.1 44.9 94.45 46.5 93.05 47.6 90.5 49.6 87.5 50.95 88.05 51.6 88.8 51.7 91.05 52.4 92.7 54.1 96.45 58.05 95.15 63.5 94.9 64.65 95.35 65.65 96.5 68.4 98.85 70.3 L96.3 74.5 94.55 75.15 Q87.35 77.45 75.45 75.15 L72.35 74.5 72.35 15.2 38.4 15.2 38.4 74.5 Q13.25 70.65 -14.5 74.5 L-14.5 -5.15 1.15 -5.15 M358.5 -1.9 L358.5 -14.25 406.7 -14.25 406.7 101.3 400.45 101.3 400.45 43.75 394.3 35.95 Q399.2 34.4 400.45 28.15 L400.45 24.75 Q396.4 8.65 384.8 4.95 373.2 8.65 369.15 24.75 L369.15 28.15 Q370.45 34.4 375.3 35.95 L369.15 43.75 369.15 101.3 358.5 101.3 358.5 71.25 358.5 34.7 358.5 23.6 358.5 7.3 358.5 -1.9 M10.05 34.85 Q5.45 42.1 0.1 48.55 L1.35 54.85 1.45 56.15 Q5.1 54.7 8.7 55.3 11.9 55.45 13.35 58.2 L15.25 58.3 Q20.45 44.35 14.4 32.2 11.5 32.55 10.05 34.85" fill="#e2b560" fill-rule="evenodd" stroke="none"/>
    <path d="M103.05 -1.9 L358.5 -1.9 358.5 7.3 253.85 7.3 251.9 23.8 255.2 23.8 255.2 29.75 103.05 29.75 103.05 -1.9" fill="url(#gradient0)" fill-rule="evenodd" stroke="none"/>
    <path d="M369.15 101.3 L369.15 43.75 375.3 35.95 Q370.45 34.4 369.15 28.15 L369.15 24.75 Q373.2 8.65 384.8 4.95 396.4 8.65 400.45 24.75 L400.45 28.15 Q399.2 34.4 394.3 35.95 L400.45 43.75 400.45 101.3 Q388.15 98.05 369.15 101.3" fill="url(#gradient1)" fill-rule="evenodd" stroke="none"/>
    <path d="M358.5 7.3 L358.5 23.6 289.5 23.6 Q294.85 24.5 299.95 26.2 L301.35 26.7 Q301.9 26.9 302.4 27.35 317.95 27.25 333.7 29.4 L333.15 30.5 326.5 32.65 327.85 34.65 327.95 34.7 268.3 34.7 268.3 23.6 265.0 23.6 Q263.9 24.8 263.55 26.2 L263.3 27.5 Q263.15 29.55 262.6 31.45 L262.35 31.85 258.6 34.6 260.55 36.1 260.15 37.1 Q259.9 38.55 260.8 39.45 L261.3 39.75 261.9 39.95 261.45 42.75 258.05 47.0 261.2 50.3 255.2 55.55 255.2 29.75 255.2 23.8 251.9 23.8 253.85 7.3 358.5 7.3" fill="#ab8d6d" fill-rule="evenodd" stroke="none"/>
    <path d="M358.5 23.6 L358.5 34.7 327.95 34.7 327.85 34.65 326.5 32.65 333.15 30.5 333.7 29.4 Q317.95 27.25 302.4 27.35 301.9 26.9 301.35 26.7 L299.95 26.2 Q294.85 24.5 289.5 23.6 L358.5 23.6 M255.2 55.55 L261.2 50.3 258.05 47.0 261.45 42.75 261.9 39.95 261.3 39.75 260.8 39.45 Q259.9 38.55 260.15 37.1 L260.55 36.1 258.6 34.6 262.35 31.85 262.6 31.45 Q263.15 29.55 263.3 27.5 L263.55 26.2 Q263.9 24.8 265.0 23.6 L268.3 23.6 268.3 34.7 268.3 71.25 255.2 71.25 255.2 62.1 255.2 55.55" fill="#bca37f" fill-rule="evenodd" stroke="none"/>
    <path d="M358.5 34.7 L358.5 71.25 Q334.8 67.8 304.2 71.25 L304.2 40.6 283.95 40.6 283.95 71.25 268.3 71.25 268.3 34.7 327.95 34.7 358.5 34.7" fill="#de9953" fill-rule="evenodd" stroke="none"/>
    <path d="M406.7 101.3 L406.7 256.0 -14.5 256.0 -14.5 74.5 Q13.25 70.65 38.4 74.5 57.85 70.7 72.35 74.5 L75.45 75.15 Q87.35 77.45 94.55 75.15 L96.3 74.5 103.05 74.5 103.05 62.1 Q179.15 58.4 255.2 62.1 L255.2 71.25 268.3 71.25 283.95 71.25 304.2 71.25 Q334.8 67.8 358.5 71.25 L358.5 101.3 369.15 101.3 Q388.15 98.05 400.45 101.3 L406.7 101.3 M385.3 199.8 L384.65 199.75 Q381.7 199.3 379.4 201.1 381.7 199.3 384.65 199.75 L385.3 199.8 M361.15 186.75 L358.5 186.6 Q356.1 186.3 355.25 187.4 356.1 186.3 358.5 186.6 L361.15 186.75 M379.25 145.65 Q379.1 145.3 378.7 145.25 L372.25 144.95 378.7 145.25 Q379.1 145.3 379.25 145.65 M280.2 85.45 Q277.5 84.55 274.3 84.9 277.5 84.55 280.2 85.45 M125.4 69.85 L124.75 69.85 Q124.1 69.85 123.95 69.6 123.55 68.8 122.1 68.95 119.85 69.2 117.6 68.9 114.05 68.45 111.7 70.5 114.05 68.45 117.6 68.9 119.85 69.2 122.1 68.95 123.55 68.8 123.95 69.6 124.1 69.85 124.75 69.85 L125.4 69.85 M193.35 102.6 Q190.65 103.5 187.45 103.15 190.65 103.5 193.35 102.6 M233.9 76.9 Q232.45 76.1 229.9 76.4 232.45 76.1 233.9 76.9 M172.4 69.85 L170.45 69.7 Q168.05 69.4 167.2 70.5 168.05 69.4 170.45 69.7 L172.4 69.85 M151.5 67.25 L150.85 67.25 145.65 67.25 150.85 67.25 151.5 67.25 M108.4 86.2 L107.75 86.2 106.3 86.25 103.2 86.85 106.3 86.25 107.75 86.2 108.4 86.2 M39.2 89.15 Q36.3 89.15 34.65 90.1 36.3 89.15 39.2 89.15 M32.0 199.8 L31.35 199.8 30.3 199.5 Q29.0 198.45 27.45 199.8 29.0 198.45 30.3 199.5 L31.35 199.8 32.0 199.8 M95.35 217.4 L94.7 217.4 Q92.05 217.25 89.5 218.05 92.05 217.25 94.7 217.4 L95.35 217.4 M5.9 167.15 L4.55 167.7 0.0 169.1 4.55 167.7 5.9 167.15 M16.35 110.35 L15.0 109.85 13.85 109.45 Q11.45 108.45 9.15 109.7 11.45 108.45 13.85 109.45 L15.0 109.85 16.35 110.35 M37.9 142.35 L37.25 142.3 33.3 141.7 37.25 142.3 37.9 142.35 M77.1 104.45 L76.4 104.4 Q73.8 104.0 71.85 105.1 73.8 104.0 76.4 104.4 L77.1 104.45 M329.9 132.4 Q327.05 130.5 323.25 131.9 327.05 130.5 329.9 132.4" fill="url(#gradient2)" fill-rule="evenodd" stroke="none"/>
    <path d="M103.05 62.1 L103.05 29.75 255.2 29.75 255.2 55.55 255.2 62.1 Q179.15 58.4 103.05 62.1" fill="#c89a63" fill-rule="evenodd" stroke="none"/>
    <path d="M38.4 74.5 L38.4 15.2 72.35 15.2 72.35 74.5 Q57.85 70.7 38.4 74.5" fill="url(#gradient3)" fill-rule="evenodd" stroke="none"/>
    <path d="M369.15 101.3 L369.15 43.75 375.3 35.95 Q370.45 34.4 369.15 28.15 L369.15 24.75 Q373.2 8.65 384.8 4.95 396.4 8.65 400.45 24.75 L400.45 28.15 Q399.2 34.4 394.3 35.95 L400.45 43.75 400.45 101.3" fill="none" stroke="#efce6a" stroke-linecap="round" stroke-linejoin="round" stroke-width="3.0"/>
    <path d="M372.25 144.95 L378.7 145.25 Q379.1 145.3 379.25 145.65 M355.25 187.4 Q356.1 186.3 358.5 186.6 L361.15 186.75 M379.4 201.1 Q381.7 199.3 384.65 199.75 L385.3 199.8 M274.3 84.9 Q277.5 84.55 280.2 85.45 M167.2 70.5 Q168.05 69.4 170.45 69.7 L172.4 69.85 M229.9 76.4 Q232.45 76.1 233.9 76.9 M187.45 103.15 Q190.65 103.5 193.35 102.6 M111.7 70.5 Q114.05 68.45 117.6 68.9 119.85 69.2 122.1 68.95 123.55 68.8 123.95 69.6 124.1 69.85 124.75 69.85 L125.4 69.85 M103.2 86.85 L106.3 86.25 107.75 86.2 108.4 86.2 M145.65 67.25 L150.85 67.25 151.5 67.25 M34.65 90.1 Q36.3 89.15 39.2 89.15 M71.85 105.1 Q73.8 104.0 76.4 104.4 L77.1 104.45 M33.3 141.7 L37.25 142.3 37.9 142.35 M9.15 109.7 Q11.45 108.45 13.85 109.45 L15.0 109.85 16.35 110.35 M0.0 169.1 L4.55 167.7 5.9 167.15 M89.5 218.05 Q92.05 217.25 94.7 217.4 L95.35 217.4 M27.45 199.8 Q29.0 198.45 30.3 199.5 L31.35 199.8 32.0 199.8 M323.25 131.9 Q327.05 130.5 329.9 132.4" fill="none" stroke="#f3d694" stroke-linecap="round" stroke-linejoin="round" stroke-width="1.0"/>
    <path d="M304.2 71.25 L304.2 40.6 283.95 40.6 283.95 71.25" fill="none" stroke="#efce6a" stroke-linecap="round" stroke-linejoin="miter" stroke-miterlimit="3.0" stroke-width="3.0"/>
    <path d="M75.45 75.15 Q87.35 77.45 94.55 75.15" fill="none" stroke="#c68e3a" stroke-linecap="round" stroke-linejoin="round" stroke-width="1.0"/>
    <path d="M255.2 29.75 L103.05 29.75" fill="none" stroke="#a36f3a" stroke-linecap="round" stroke-linejoin="round" stroke-width="1.0"/>
    <path d="M358.5 12.6 L358.5 10.55 358.5 8.75 Q358.5 8.05 357.7 7.55 356.95 7.05 355.85 7.15 L353.55 7.25 351.6 7.3 349.8 7.3 Q349.8 7.0 348.55 7.3 348.7 9.05 348.5 9.3 348.35 9.55 348.35 10.45 L348.25 12.5 347.85 14.6 Q347.55 15.55 347.6 16.4 L347.65 18.4 347.4 20.6 Q347.15 21.6 347.25 22.6 M284.75 7.3 L285.25 7.3 287.5 7.45 289.15 7.1 Q289.95 6.9 291.1 7.1 L292.7 7.55 Q293.15 7.8 293.65 7.35 293.3 7.05 293.7 7.3 L295.8 7.2 297.85 7.3 299.95 7.3 301.5 7.3 303.7 7.3 304.15 7.3 306.05 7.3 308.05 7.3 310.15 7.35 311.6 7.1 Q311.9 6.8 312.65 7.3 L314.9 7.45 316.55 7.1 Q317.35 6.9 318.5 7.1 L320.1 7.55 321.8 7.3 324.05 7.45 325.7 7.1 Q326.5 6.9 327.65 7.1 L329.25 7.55 Q329.7 7.8 330.6 7.3 L332.65 7.4 334.75 7.25 336.55 7.2 338.15 7.5 340.4 7.3 342.2 7.45 344.55 7.3 346.7 7.3 347.95 7.15 348.55 7.3 M337.0 23.6 L338.9 23.5 340.95 23.45 342.9 23.35 Q343.95 23.2 344.85 23.35 L346.8 23.7 348.9 23.95 351.0 23.6 M352.3 23.6 L354.2 23.7 356.25 23.95 Q357.3 24.05 357.9 23.4 358.5 22.75 358.4 21.8 L358.4 19.8 358.3 17.75 Q358.1 16.8 358.3 15.8 L358.5 13.8 M339.1 20.95 L339.4 18.85 339.45 16.65 339.75 14.85 340.0 12.95 340.1 11.05 340.25 9.6 340.4 7.3 M329.3 21.6 Q329.5 20.6 329.3 19.6 329.15 18.6 329.45 17.65 329.8 16.7 329.75 15.75 L329.9 13.6 330.25 11.4 330.2 9.75 Q330.1 9.05 330.4 8.25 L330.6 7.3 M317.7 23.6 L319.75 23.65 321.65 23.45 323.6 23.6 325.7 23.95 327.65 23.8 329.75 23.75 331.95 23.7 334.1 23.65 335.7 23.6 M327.35 32.35 L329.25 31.65 Q330.2 31.45 330.9 30.9 331.65 30.35 332.3 30.1 332.95 29.9 332.7 29.65 L331.1 29.35 329.05 29.05 327.15 28.65 M325.95 28.55 L324.3 28.6 Q323.4 28.5 322.3 28.0 L320.05 27.7 317.9 27.75 315.9 27.65 314.15 27.55 312.3 27.6 309.95 27.4 M320.05 34.7 L321.85 34.65 324.0 34.8 326.05 34.45 Q326.95 34.35 326.95 33.9 L326.7 32.95 M320.5 19.95 L320.8 17.95 321.0 15.95 321.1 13.75 Q321.25 12.6 321.55 11.75 L321.95 10.05 Q322.1 9.2 321.9 8.55 321.7 7.9 321.8 7.3 M302.85 19.35 Q303.2 17.95 302.95 17.15 302.75 16.4 302.8 15.35 L303.2 13.45 303.45 11.7 303.55 9.55 303.95 8.0 304.15 7.3 M311.35 20.65 L311.25 18.4 311.5 16.45 311.9 14.25 312.1 12.45 312.3 10.65 312.55 9.1 312.65 7.3 M304.4 23.6 L306.25 24.0 308.2 23.8 310.35 23.55 312.45 23.6 314.45 23.9 Q315.45 24.1 316.4 23.6 M283.95 19.65 Q284.5 18.8 284.35 17.55 284.2 16.35 284.55 15.55 L284.8 13.9 Q284.7 13.1 285.0 11.8 285.3 10.5 285.1 9.55 L285.05 8.15 285.25 7.3 M292.4 20.65 Q292.4 19.6 292.55 18.45 L292.85 16.5 293.0 14.8 293.15 12.75 293.5 10.6 293.6 8.65 M286.95 23.6 L285.15 23.4 283.2 23.5 280.95 23.25 278.95 23.15 276.9 23.45 Q275.9 23.65 275.0 23.45 L272.95 23.6 M293.8 24.5 L291.75 23.95 290.45 23.8 291.15 23.6 292.85 23.25 294.8 23.35 297.2 23.55 299.3 23.45 301.15 23.7 303.2 23.6 M308.75 27.4 L306.55 27.25 304.45 27.55 Q303.7 27.75 302.7 27.2 L300.8 26.4 299.05 25.75 Q298.2 25.3 297.1 25.2 L295.05 24.8 M285.55 34.7 L287.4 34.7 289.25 34.45 291.4 34.55 293.6 34.65 295.6 34.6 297.65 34.75 299.55 34.7 M300.85 34.7 L302.95 34.6 304.8 34.25 306.75 34.5 308.65 34.55 310.4 34.7 312.6 34.95 314.8 34.75 316.8 34.85 318.85 34.7 M253.55 9.9 Q253.35 9.05 253.8 8.25 254.25 7.45 255.3 7.4 L257.3 7.35 259.25 7.35 261.05 7.3 262.7 7.5 Q263.4 7.7 263.6 7.5 L263.65 7.3 265.45 7.45 267.8 7.3 269.95 7.3 271.2 7.15 273.5 7.3 275.5 7.35 277.25 7.3 279.2 7.35 281.35 7.2 283.5 7.3 M268.3 50.7 Q268.1 49.7 268.35 48.7 L268.5 46.7 268.3 44.55 268.4 42.55 268.35 40.5 268.2 38.25 268.3 36.4 268.3 34.7 268.3 32.4 268.2 30.25 Q268.2 29.3 268.35 28.5 268.55 27.7 268.4 26.55 L268.3 25.05 268.3 23.6 266.8 23.45 265.0 23.6 Q264.45 24.0 264.0 25.15 L263.3 27.15 Q263.0 27.95 262.95 29.15 262.9 30.35 262.5 31.1 L261.6 32.5 260.4 33.8 258.9 34.8 M272.2 20.65 Q271.85 19.6 272.2 18.55 L272.8 16.55 273.05 14.6 273.05 12.6 Q273.0 11.65 273.35 10.6 273.75 9.6 273.4 9.1 273.1 8.65 273.5 7.3 M271.7 23.6 L270.5 23.8 268.3 23.6 M255.2 39.8 L255.1 37.7 255.15 36.0 255.35 34.0 255.5 31.75 255.45 29.8 255.25 27.8 254.95 25.8 Q254.75 24.95 255.2 23.8 L253.15 23.6 Q252.55 23.3 252.4 22.75 252.25 22.25 252.45 21.1 L252.7 19.05 252.75 17.3 252.85 15.3 Q252.85 14.2 253.0 13.0 L253.35 11.1 M262.35 21.25 Q262.9 20.25 262.8 19.05 262.75 17.9 263.0 17.05 L263.15 15.4 263.2 13.2 263.3 10.95 263.15 9.55 Q263.1 9.05 263.6 7.5 M265.0 23.6 L263.0 23.45 260.9 23.55 Q259.8 23.35 258.9 23.55 L257.05 23.7 255.2 23.8 M254.9 51.7 L255.0 51.05 255.2 49.1 255.25 47.1 255.1 45.0 254.9 43.05 Q254.9 42.2 255.2 41.05 M259.9 35.6 Q259.85 36.7 260.05 37.2 L260.6 38.85 261.4 40.5 Q261.85 41.1 261.25 42.1 L260.25 43.95 259.35 45.5 Q258.85 46.25 258.7 46.9 258.6 47.55 259.55 48.6 M268.3 34.7 L270.3 34.4 272.2 34.25 274.35 34.5 276.4 34.55 Q277.25 34.4 278.3 34.55 L280.5 34.7 282.35 34.7 284.3 34.7 M268.3 51.95 L268.15 53.95 268.0 55.7 Q267.9 56.45 268.15 57.8 268.45 59.15 268.35 59.9 L268.35 61.85 268.4 64.0 268.3 65.95 M268.3 67.25 L268.4 68.65 268.3 71.15 M260.45 49.5 L260.2 50.95 Q260.0 51.8 259.15 52.4 L257.55 53.65 256.4 54.6 255.2 55.55 Q254.95 56.65 254.95 57.65 L255.1 59.65 255.15 61.1 255.2 62.1 M254.9 51.7 L255.15 53.25 Q255.6 54.55 255.2 55.05 L255.2 55.55" fill="none" stroke="#8c6f51" stroke-linecap="round" stroke-linejoin="round" stroke-width="1.0"/>
    <path d="M1.15 6.75 Q1.2 5.7 1.4 4.95 L1.6 3.15 1.35 0.95 1.0 -1.15 Q0.85 -2.05 1.0 -2.5 L1.15 -5.15 M10.95 -5.15 L10.95 -3.1 10.95 -1.25 11.0 1.0 Q11.0 2.3 11.15 2.85 L11.25 4.65 11.0 6.9 11.05 8.85 Q11.25 9.9 10.55 10.55 9.9 11.25 9.25 11.15 M103.05 -5.15 Q103.05 -3.95 103.2 -3.0 L103.2 -1.1 102.95 0.85 Q102.9 1.85 103.0 2.65 L103.1 4.75 103.15 6.75 103.05 8.85 M358.5 -7.95 L358.35 -9.8 358.2 -11.85 Q358.1 -13.1 358.85 -13.75 359.65 -14.35 360.15 -14.4 L362.2 -14.25 M358.5 7.3 Q358.2 5.9 358.35 5.1 L358.45 3.15 358.35 1.15 Q358.3 0.25 358.55 -0.7 358.85 -1.6 358.65 -2.65 L358.35 -4.8 Q358.25 -5.9 358.5 -6.7 M380.8 -14.25 L382.8 -14.2 384.6 -14.3 386.4 -14.25 388.8 -14.35 390.9 -14.1 Q391.75 -13.9 392.8 -14.1 L394.85 -14.3 396.85 -14.3 398.65 -14.15 400.8 -14.25 M363.5 -14.25 L365.6 -14.15 367.4 -14.3 Q368.35 -14.5 369.3 -14.3 L371.5 -14.15 373.45 -14.4 375.5 -14.4 377.75 -14.25 379.5 -14.25 M402.1 -14.25 L404.2 -14.3 405.5 -14.05 406.7 -14.25 M343.25 34.7 Q342.25 34.2 341.25 34.25 L339.2 34.55 Q338.2 34.75 337.3 34.55 L335.2 34.45 333.25 34.6 331.55 34.9 329.25 34.7 M344.5 34.7 L346.7 34.5 348.45 34.45 350.3 34.65 352.3 34.6 354.55 34.4 356.5 34.3 358.5 34.7 Q358.35 33.3 358.5 32.3 L358.55 30.4 358.3 28.6 Q358.15 27.7 358.3 26.65 L358.45 24.95 358.5 23.6 M358.5 36.4 L358.5 34.7 M358.5 49.6 L358.7 47.55 Q358.95 46.6 358.7 45.65 L358.4 43.65 358.45 41.5 358.35 39.4 Q358.2 38.4 358.5 37.6 M358.5 64.8 L358.5 62.65 358.45 60.8 358.45 58.85 358.45 56.8 358.35 54.55 358.3 52.75 358.5 50.8 M358.35 71.2 L358.35 70.2 358.7 68.05 Q358.95 66.9 358.5 66.05 M358.5 82.05 L358.7 80.1 358.75 77.9 358.6 75.9 358.45 74.1 358.35 72.15 358.35 71.2 M358.5 101.3 Q358.35 100.45 358.5 99.15 L358.65 97.1 358.55 95.15 358.55 93.05 358.7 91.25 Q358.8 90.35 358.5 89.55 358.25 88.75 358.35 87.45 L358.6 85.2 358.5 83.3 M248.65 37.95 Q248.7 38.4 249.95 37.95 L250.0 37.95 249.95 36.0 M231.35 37.95 L233.4 38.2 235.4 38.05 237.5 37.95 239.5 38.15 241.35 37.85 243.35 37.75 245.3 38.0 247.35 37.95 M250.6 37.95 Q250.8 37.5 250.0 37.95 M249.95 37.95 L249.95 39.9 M202.95 37.95 L204.7 37.75 206.75 38.0 208.75 38.2 210.55 38.05 213.0 37.9 215.4 37.95 216.95 37.95 M218.15 37.95 L220.35 38.0 222.3 37.95 224.1 37.95 226.05 37.9 228.0 37.8 230.15 37.95 M228.4 47.75 L227.1 48.95 225.95 50.05 225.15 51.0 M178.5 46.45 L176.5 46.6 174.4 46.35 172.3 46.3 170.4 46.3 168.5 46.4 166.35 46.4 164.35 46.3 162.5 46.45 M193.8 46.45 L191.85 46.5 189.65 46.55 187.6 46.65 Q186.7 46.85 185.75 46.65 L183.8 46.45 181.7 46.35 179.8 46.45 M186.2 53.6 L188.15 53.8 190.1 53.4 192.2 53.25 194.1 53.45 196.3 53.85 198.2 53.8 200.1 53.4 202.2 53.6 M170.95 53.6 L172.9 53.8 Q174.2 54.0 175.1 53.8 L177.0 53.6 178.95 53.6 181.0 53.8 Q182.05 54.0 183.05 53.8 L184.95 53.6 M220.8 53.6 L222.95 53.5 225.0 53.35 226.8 53.25 229.0 53.4 230.75 53.45 231.7 53.6 M203.5 53.6 L205.55 53.55 207.65 53.5 209.55 53.6 211.5 53.6 213.6 53.55 215.65 53.35 217.7 53.4 219.5 53.6 M143.9 46.45 L141.8 46.45 139.65 46.5 137.65 46.5 135.85 46.5 133.65 46.55 131.45 46.45 129.9 46.45 M128.6 46.45 L126.6 46.25 124.6 46.25 122.5 46.3 121.15 46.4 120.0 46.45 M161.2 46.45 L159.0 46.6 157.15 46.55 155.1 46.5 153.15 46.45 151.55 46.35 149.3 46.45 146.95 46.35 145.2 46.45 M103.05 10.15 Q103.05 11.25 103.2 12.1 103.4 12.95 103.2 14.05 103.05 15.2 103.15 16.25 L103.15 18.45 103.05 20.15 102.85 21.9 Q102.65 23.15 102.85 24.05 L103.05 26.15 M121.95 34.7 L120.05 34.75 118.1 34.85 115.95 34.6 113.85 34.45 111.65 34.6 109.7 34.85 108.3 35.0 106.3 34.7 M103.05 27.45 L103.05 29.25 Q102.95 29.95 103.15 31.15 L103.25 32.0 103.1 33.6 Q102.85 34.85 103.15 35.5 103.5 36.15 103.35 37.4 L102.9 39.55 Q102.6 40.45 103.05 41.45 M103.4 49.05 L103.3 50.65 Q103.05 51.8 103.1 52.65 L103.35 54.75 Q103.5 56.0 103.25 56.85 L103.05 58.9 103.05 60.75 M103.05 42.75 Q102.85 44.1 102.95 44.9 L103.05 46.75 Q103.05 47.75 103.3 48.6 L103.4 49.05 M116.35 57.55 L114.15 57.55 112.25 57.55 110.35 57.55 108.55 57.6 106.8 57.6 105.65 57.55 M127.65 57.55 L125.55 57.35 123.3 57.45 121.45 57.65 119.6 57.75 117.65 57.55 M103.05 62.1 L103.05 63.7 102.85 65.9 102.7 67.95 102.65 69.95 Q102.6 70.9 102.85 72.1 L103.15 73.75 103.05 74.5 M142.85 57.55 L140.85 57.5 139.1 57.85 136.9 57.7 134.65 57.55 132.85 57.35 Q131.85 57.15 131.0 57.35 L128.85 57.55 M66.7 15.2 L65.05 15.1 62.9 15.1 60.4 15.2 58.65 15.0 56.85 14.95 54.6 15.45 52.75 15.7 50.7 15.2 M72.35 24.8 L72.55 22.55 72.65 20.55 72.5 18.7 72.4 17.0 Q72.45 16.35 71.55 15.75 70.7 15.2 69.8 14.95 68.95 14.7 67.95 15.2 M49.5 15.2 Q48.5 15.0 47.55 15.2 L45.55 15.3 43.5 15.0 41.45 14.85 Q40.45 14.9 39.9 15.3 L38.9 16.4 Q38.4 17.1 38.55 18.05 L38.4 20.1 M72.35 46.1 L72.05 44.3 71.95 42.35 72.1 39.95 72.2 38.1 Q72.15 37.55 72.45 36.35 L72.7 34.2 72.65 32.25 Q72.7 31.2 72.35 30.05 72.05 28.95 72.1 28.0 L72.35 26.1 M72.35 59.3 L72.05 57.45 72.15 55.3 72.3 53.25 72.2 51.5 72.05 49.3 Q72.0 47.95 72.35 47.3 M38.4 21.4 L38.55 23.35 38.4 25.5 Q38.15 26.55 38.45 27.65 38.8 28.8 38.55 29.4 38.3 30.05 38.4 31.4 M7.95 11.15 L5.75 10.95 3.75 10.9 2.4 10.75 1.7 10.0 1.15 7.95 M38.4 32.7 L38.6 34.8 38.7 36.6 Q38.75 37.65 38.4 38.65 38.1 39.65 38.25 40.65 L38.45 42.6 38.4 44.5 38.4 46.7 M38.4 48.0 Q38.25 48.55 38.4 49.75 L38.45 52.1 38.4 54.1 38.4 56.05 38.2 57.85 Q38.0 58.7 38.2 59.65 L38.4 62.0 M38.4 63.3 Q38.2 64.65 38.3 65.45 L38.2 67.25 Q38.05 68.3 38.2 69.25 38.4 70.25 38.15 71.25 37.95 72.25 38.15 72.7 L38.4 74.5 M72.35 74.5 L72.3 72.55 72.35 70.6 72.2 68.75 Q71.95 67.6 72.15 66.6 L72.3 64.55 72.3 62.5 72.35 60.5" fill="none" stroke="#a36f3a" stroke-linecap="round" stroke-linejoin="round" stroke-width="1.0"/>
    <path d="M344.1 69.9 L346.0 70.05 348.1 70.15 350.25 70.55 352.3 70.65 354.1 70.6 356.15 70.9 358.1 71.15 Q357.7 70.95 358.35 71.2 M328.8 69.55 L330.7 69.55 332.75 69.55 334.8 69.35 Q335.8 69.2 336.6 69.35 L338.45 69.6 340.75 69.75 342.8 69.8 M315.5 70.15 L317.65 70.15 319.5 70.0 321.6 70.05 323.65 69.95 325.45 69.6 327.5 69.55 M406.7 101.3 L404.65 101.5 402.65 101.4 401.35 101.15 400.45 101.3 M369.15 101.3 L367.25 101.7 365.25 101.5 362.95 101.3 360.9 101.2 359.65 101.2 358.5 101.3 M268.7 71.25 L268.3 71.15 266.6 70.9 264.6 71.1 262.7 71.25 260.8 71.15 258.6 71.15 256.5 70.85 Q255.75 70.65 255.25 69.95 254.75 69.3 255.2 68.75 M283.95 71.25 L281.6 71.25 279.75 71.2 277.85 71.25 275.8 71.3 274.05 71.35 272.1 71.4 269.95 71.25 M247.35 61.7 L245.2 61.5 243.55 61.4 241.5 61.5 239.05 61.3 237.35 61.2 M255.2 67.5 L255.05 65.55 254.95 63.6 Q254.9 62.8 254.25 62.25 253.6 61.75 252.35 61.7 L250.55 61.75 248.6 61.8 M304.2 71.25 L306.3 70.9 308.55 70.95 310.4 70.5 312.15 70.45 314.2 70.25 M205.75 60.65 L203.7 60.6 201.85 60.45 199.9 60.45 197.6 60.65 195.55 60.5 193.85 60.35 192.0 60.35 189.75 60.65 M188.55 60.65 L186.35 60.75 184.4 60.5 182.55 60.65 180.55 60.65 178.45 60.65 176.25 60.45 174.55 60.65 M173.35 60.65 L171.35 60.65 169.35 60.85 167.3 60.75 165.3 60.4 163.5 60.3 161.45 60.65 Q160.35 61.1 159.35 60.65 M236.15 61.2 L234.05 61.1 232.35 61.25 230.25 61.25 228.15 60.95 226.25 60.85 224.05 60.95 222.15 60.65 M220.95 60.65 L218.9 60.7 216.85 60.7 214.95 60.65 212.7 60.4 210.65 60.5 208.9 60.65 Q207.95 60.5 206.95 60.65 M127.75 61.3 L125.75 61.15 123.75 61.3 121.55 61.6 119.55 61.45 Q118.75 61.2 117.55 61.7 L115.55 62.0 Q114.75 61.8 113.55 62.0 L111.6 62.05 109.75 61.9 M108.55 61.9 L106.5 62.0 105.1 62.1 103.05 62.1 M103.05 74.5 L100.95 74.55 98.6 74.5 97.05 74.25 Q96.5 74.25 95.75 74.6 L94.55 75.15 M158.15 60.65 L156.05 60.7 154.05 61.05 152.1 60.55 150.1 60.4 148.15 60.65 146.1 60.7 144.15 60.8 M142.95 60.8 L140.95 60.85 138.95 61.15 136.95 61.2 134.95 61.1 132.75 61.0 130.6 61.1 128.95 61.3 M23.25 72.85 L21.35 72.75 19.3 72.75 17.1 72.5 15.2 72.55 13.35 72.9 11.25 72.6 M38.4 74.5 L36.55 74.3 34.2 73.9 32.05 73.6 30.4 73.4 28.5 73.35 26.2 73.15 24.45 72.95 M10.05 72.6 L8.15 72.5 6.1 72.65 3.9 72.95 1.8 73.25 -0.1 73.3 -2.2 73.3 -3.95 73.4 M75.45 75.15 L73.95 74.65 72.35 74.5 M-5.25 73.5 L-7.5 73.75 -9.2 73.85 -11.3 74.05 Q-12.4 74.1 -13.1 74.45 L-14.5 74.5" fill="none" stroke="#c68e3a" stroke-linecap="round" stroke-linejoin="round" stroke-width="1.0"/>
    <path d="M248.2 32.1 L250.35 32.05 252.2 32.1 254.0 32.1 255.2 32.1 M235.0 32.1 L237.05 31.9 239.1 31.9 241.0 31.9 243.15 32.0 245.2 31.95 247.0 32.1 M245.45 45.15 L245.55 47.0 Q245.75 48.05 245.6 49.05 L245.4 50.6 245.45 51.65 247.35 51.55 249.35 51.65 251.25 51.4 252.9 51.6 254.9 51.7 255.2 51.65 M243.75 51.65 L245.45 51.65 M204.5 32.1 L206.55 31.9 208.65 32.25 210.5 32.0 212.5 31.9 Q213.65 32.15 214.55 31.9 215.5 31.7 216.3 31.9 L218.25 31.95 220.5 32.1 M199.7 32.75 L199.65 34.7 Q199.55 35.75 199.6 36.75 L199.5 38.8 199.45 40.1 199.7 41.2 201.7 41.15 203.45 41.2 205.65 41.25 207.8 41.15 209.75 41.0 212.05 41.1 213.7 41.2 M214.95 41.2 L216.9 40.95 218.7 40.75 220.6 40.75 222.6 40.95 224.95 41.05 227.0 41.15 228.95 41.2 Q230.25 41.0 230.95 41.2 M221.8 32.1 L223.8 32.05 225.8 32.05 227.6 32.0 229.7 32.15 232.05 32.35 233.8 32.1 M172.1 32.1 L174.3 32.1 176.3 32.15 178.15 31.9 180.2 31.8 182.0 32.15 184.05 32.2 186.05 32.25 188.1 32.45 190.1 32.1 M156.8 32.1 L158.9 32.1 160.8 32.05 162.55 31.95 164.55 32.05 166.8 32.15 168.8 32.1 170.8 32.1 M184.5 41.2 L182.45 40.95 180.25 40.75 178.65 40.75 Q178.2 40.75 177.5 41.2 M191.3 32.1 L193.3 32.3 195.05 32.1 197.1 32.2 Q198.3 32.4 199.2 32.2 L201.2 32.1 203.3 32.1 M199.7 41.2 L197.7 41.15 195.45 41.2 193.65 41.25 191.8 41.15 189.75 41.0 188.05 41.1 185.7 41.2 M228.45 51.65 L230.65 51.75 232.45 51.75 234.45 51.5 236.35 51.6 238.1 51.55 240.15 51.5 242.45 51.65 M135.6 32.1 L137.7 31.95 139.5 32.1 141.6 32.1 143.6 32.3 145.6 32.2 147.4 31.95 149.2 32.05 151.5 32.1 153.6 32.0 155.6 32.1 M120.35 32.1 L122.3 31.95 124.35 32.15 126.4 32.3 128.35 32.0 130.55 31.85 132.55 32.1 134.35 32.1 M140.25 54.95 Q140.65 52.65 140.45 52.3 L140.15 51.0 Q140.05 50.05 140.25 49.05 L138.15 49.0 136.45 48.8 134.45 49.0 132.2 49.2 130.35 49.25 128.35 49.3 126.4 49.0 124.35 48.95 122.25 49.05 M149.4 49.05 L147.3 49.05 145.45 49.2 143.25 49.15 141.85 48.95 140.25 49.05 M103.25 32.0 L105.0 31.8 107.1 32.05 109.15 32.1 111.05 32.1 113.05 32.0 115.05 31.8 117.3 32.05 119.05 32.1 M103.4 49.05 L103.05 49.05 M112.85 49.7 L112.85 49.05 110.6 48.8 108.75 48.75 106.95 49.15 Q106.15 49.35 105.4 49.15 L103.4 49.05 M112.85 49.05 Q112.45 48.05 112.6 46.8 L112.75 44.75 112.95 43.15 112.9 41.15 112.75 39.5 112.85 38.6 M120.95 49.05 L119.0 48.85 116.9 49.1 114.8 49.05 113.45 48.9 112.85 49.05" fill="none" stroke="#f2ce5e" stroke-linecap="round" stroke-linejoin="round" stroke-width="1.0"/>
    <path d="M362.45 -7.85 Q362.05 -6.85 362.3 -6.05 362.6 -5.2 362.45 -4.05 L362.25 -1.9 362.25 0.3 362.25 2.3 362.2 4.15 Q362.2 5.2 362.45 6.2 M362.45 7.5 L362.2 9.5 Q362.0 10.45 362.05 11.45 L362.1 13.6 362.15 15.85 362.3 17.7 362.35 19.3 362.45 21.5 M362.45 22.8 Q362.25 23.8 362.35 24.65 L362.55 26.65 362.55 28.95 362.3 30.9 362.2 32.75 362.5 34.75 Q362.8 35.8 362.45 36.8 M362.45 38.1 Q361.95 39.35 362.2 40.45 362.45 41.55 362.2 42.25 362.0 42.95 362.05 44.05 L362.05 45.95 Q362.0 46.75 362.35 47.9 362.75 49.1 362.45 50.1 362.2 51.15 362.45 52.15 M362.45 53.45 Q362.35 54.25 362.4 55.35 L362.25 57.35 Q362.1 58.25 362.1 59.35 L362.3 61.6 362.55 63.6 362.55 65.7 362.45 67.5 M362.45 68.8 Q362.05 69.6 362.15 70.7 L362.35 72.85 362.7 74.8 362.75 76.7 362.45 78.75 Q362.35 79.8 362.4 80.8 L362.2 82.8 Q362.0 83.8 362.15 84.95 362.35 86.15 362.15 87.0 362.0 87.85 362.45 88.8 M339.6 92.05 L337.55 91.75 335.65 92.05 334.1 92.4 333.05 92.7 M362.45 90.1 Q362.35 91.6 362.5 92.4 L362.75 94.25 Q362.9 95.35 362.6 96.2 362.3 97.1 362.35 97.75 L362.45 99.9" fill="none" stroke="#f3d694" stroke-linecap="round" stroke-linejoin="round" stroke-width="1.0"/>
    <path d="M233.7 6.65 Q235.7 4.65 238.55 4.65 241.45 4.65 243.45 6.65 244.6 7.8 245.1 9.2 245.45 10.25 245.45 11.5 245.45 14.35 243.45 16.35 241.45 18.4 238.55 18.4 235.7 18.4 233.7 16.35 231.7 14.35 231.7 11.5 231.7 10.25 232.1 9.2 232.55 7.8 233.7 6.65" fill="#ffffcc" fill-rule="evenodd" stroke="none"/>
    <path d="M24.0 55.6 L24.0 84.75 14.3 84.75 14.3 55.6 24.0 55.6 M-24.55 84.75 L-24.55 55.6 -15.85 55.6 -15.85 84.75 -24.55 84.75" fill="#e2b560" fill-rule="evenodd" stroke="none"/>
    <path d="M23.65 46.95 L24.0 46.95 24.0 55.6 14.3 55.6 5.6 55.6 -2.55 55.6 -9.2 55.6 -15.85 55.6 -24.55 55.6 -24.55 46.95 23.65 46.95 M24.0 84.75 L24.0 95.5 -24.55 95.5 -24.55 84.75 -15.85 84.75 -9.2 84.75 -2.55 84.75 5.6 84.75 14.3 84.75 24.0 84.75" fill="#dfa753" fill-rule="evenodd" stroke="none"/>
    <path d="M-24.7 46.6 L-24.7 41.35 11.25 41.35 23.65 46.6 23.65 46.95 -24.55 46.95 -24.7 46.6 M5.6 55.6 L14.3 55.6 14.3 84.75 5.6 84.75 5.6 55.6 5.6 84.75 -2.55 84.75 -9.2 84.75 -9.2 55.6 -9.2 84.75 -15.85 84.75 -15.85 55.6 -9.2 55.6 -2.55 55.6 -2.55 84.75 -2.55 55.6 5.6 55.6" fill="#ba8236" fill-rule="evenodd" stroke="none"/>
    <path d="M-24.7 46.6 L-24.7 41.35 11.25 41.35 23.65 46.6 M23.65 46.95 L24.0 46.95 24.0 55.6 24.0 84.75 24.0 95.5 -24.55 95.5 -24.55 84.75 -24.55 55.6 -24.55 46.95 23.65 46.95 M14.3 55.6 L5.6 55.6 5.6 84.75 14.3 84.75 14.3 55.6 24.0 55.6 M14.3 84.75 L24.0 84.75 M-2.55 55.6 L-9.2 55.6 -9.2 84.75 -2.55 84.75 -2.55 55.6 5.6 55.6 M-9.2 55.6 L-15.85 55.6 -15.85 84.75 -9.2 84.75 M-15.85 84.75 L-24.55 84.75 M-24.55 55.6 L-15.85 55.6 M-2.55 84.75 L5.6 84.75" fill="none" stroke="#895e32" stroke-linecap="round" stroke-linejoin="round" stroke-width="1.0"/>
    <path d="M234.15 54.65 L234.15 67.75 238.55 67.75 238.55 54.65 234.15 54.65 M256.0 67.75 L256.0 54.65 252.05 54.65 252.05 67.75 256.0 67.75" fill="#e2b560" fill-rule="evenodd" stroke="none"/>
    <path d="M234.3 50.75 L234.15 50.75 234.15 54.65 238.55 54.65 242.45 54.65 246.1 54.65 249.1 54.65 252.05 54.65 256.0 54.65 256.0 50.75 234.3 50.75 M234.15 67.75 L234.15 72.55 256.0 72.55 256.0 67.75 252.05 67.75 249.1 67.75 246.1 67.75 242.45 67.75 238.55 67.75 234.15 67.75" fill="#dfa753" fill-rule="evenodd" stroke="none"/>
    <path d="M256.0 50.75 L256.05 50.6 256.05 48.25 239.9 48.25 234.3 50.6 234.3 50.75 256.0 50.75 M242.45 54.65 L238.55 54.65 238.55 67.75 242.45 67.75 242.45 54.65 242.45 67.75 246.1 67.75 249.1 67.75 252.05 67.75 252.05 54.65 249.1 54.65 246.1 54.65 242.45 54.65 M246.1 54.65 L246.1 67.75 246.1 54.65 M249.1 67.75 L249.1 54.65 249.1 67.75" fill="#ba8236" fill-rule="evenodd" stroke="none"/>
    <path d="M234.3 50.75 L234.15 50.75 234.15 54.65 234.15 67.75 234.15 72.55 256.0 72.55 256.0 67.75 256.0 54.65 256.0 50.75 M256.05 50.6 L256.05 48.25 239.9 48.25 234.3 50.6 M234.3 50.75 L256.0 50.75 M238.55 54.65 L242.45 54.65 242.45 67.75 238.55 67.75 238.55 54.65 234.15 54.65 M238.55 67.75 L234.15 67.75 M252.05 54.65 L249.1 54.65 246.1 54.65 242.45 54.65 M242.45 67.75 L246.1 67.75 249.1 67.75 252.05 67.75 256.0 67.75 M249.1 54.65 L249.1 67.75 M246.1 67.75 L246.1 54.65 M252.05 54.65 L256.0 54.65 M252.05 67.75 L252.05 54.65" fill="none" stroke="#895e32" stroke-linecap="round" stroke-linejoin="round" stroke-width="1.0"/>
    <path d="M309.8 56.45 L309.8 85.6 319.5 85.6 319.5 56.45 309.8 56.45 M358.35 85.6 L358.35 56.45 349.65 56.45 349.65 85.6 358.35 85.6" fill="#e2b560" fill-rule="evenodd" stroke="none"/>
    <path d="M310.15 47.8 L309.8 47.8 309.8 56.45 319.5 56.45 328.2 56.45 336.35 56.45 343.0 56.45 349.65 56.45 358.35 56.45 358.35 47.8 310.15 47.8 M309.8 85.6 L309.8 96.35 358.35 96.35 358.35 85.6 349.65 85.6 343.0 85.6 336.35 85.6 328.2 85.6 319.5 85.6 309.8 85.6" fill="#dfa753" fill-rule="evenodd" stroke="none"/>
    <path d="M358.35 47.8 L358.5 47.45 358.5 42.2 322.55 42.2 310.15 47.45 310.15 47.8 358.35 47.8 M328.2 56.45 L319.5 56.45 319.5 85.6 328.2 85.6 328.2 56.45 328.2 85.6 336.35 85.6 343.0 85.6 349.65 85.6 349.65 56.45 343.0 56.45 336.35 56.45 328.2 56.45 M336.35 56.45 L336.35 85.6 336.35 56.45 M343.0 85.6 L343.0 56.45 343.0 85.6" fill="#ba8236" fill-rule="evenodd" stroke="none"/>
    <path d="M310.15 47.8 L309.8 47.8 309.8 56.45 309.8 85.6 309.8 96.35 358.35 96.35 358.35 85.6 358.35 56.45 358.35 47.8 M358.5 47.45 L358.5 42.2 322.55 42.2 310.15 47.45 M310.15 47.8 L358.35 47.8 M319.5 56.45 L328.2 56.45 328.2 85.6 319.5 85.6 319.5 56.45 309.8 56.45 M319.5 85.6 L309.8 85.6 M349.65 56.45 L343.0 56.45 336.35 56.45 328.2 56.45 M328.2 85.6 L336.35 85.6 343.0 85.6 349.65 85.6 358.35 85.6 M343.0 56.45 L343.0 85.6 M336.35 85.6 L336.35 56.45 M349.65 56.45 L358.35 56.45 M349.65 85.6 L349.65 56.45" fill="none" stroke="#895e32" stroke-linecap="round" stroke-linejoin="round" stroke-width="1.0"/>
  </g>
  <defs>
    <linearGradient gradientTransform="matrix(0.0, 0.0308, -0.0193, 0.0, 241.85, 13.95)" gradientUnits="userSpaceOnUse" id="gradient0" spreadMethod="pad" x1="-819.2" x2="819.2">
      <stop offset="0.3215686274509804" stop-color="#b4e9fe"/>
      <stop offset="1.0" stop-color="#ffb216"/>
    </linearGradient>
    <linearGradient gradientTransform="matrix(0.0, 0.0595, -0.0588, 0.0, 384.8, 53.1)" gradientUnits="userSpaceOnUse" id="gradient1" spreadMethod="pad" x1="-819.2" x2="819.2">
      <stop offset="0.0" stop-color="#3d2512"/>
      <stop offset="1.0" stop-color="#825121"/>
    </linearGradient>
    <radialGradient cx="0" cy="0" gradientTransform="matrix(0.2803, 0.0, 0.0, 0.1378, 196.1, 159.05)" gradientUnits="userSpaceOnUse" id="gradient2" r="819.2" spreadMethod="pad">
      <stop offset="0.0" stop-color="#ebe1be"/>
      <stop offset="0.5019607843137255" stop-color="#e3dba6"/>
      <stop offset="1.0" stop-color="#d6b357"/>
    </radialGradient>
    <linearGradient gradientTransform="matrix(0.0, 0.0207, -0.0362, 0.0, 55.35, 44.85)" gradientUnits="userSpaceOnUse" id="gradient3" spreadMethod="pad" x1="-819.2" x2="819.2">
      <stop offset="0.0" stop-color="#3d2512"/>
      <stop offset="1.0" stop-color="#60391c"/>
    </linearGradient>
  </defs>
</svg>
