<?xml version="1.0" encoding="UTF-8" standalone="no"?>
<svg xmlns:xlink="http://www.w3.org/1999/xlink" height="277.75px" width="429.2px" xmlns="http://www.w3.org/2000/svg">
  <g transform="matrix(1.0, 0.0, 0.0, 1.0, 21.05, 18.85)">
    <path d="M307.7 -6.75 L307.55 -3.35 Q307.05 -1.4 304.8 -0.45 306.4 -2.1 306.35 -5.45 306.25 -9.2 306.75 -10.05 307.65 -9.15 307.7 -6.75" fill="#89fff4" fill-rule="evenodd" stroke="none"/>
    <path d="M8.3 -11.5 L13.1 -8.65 Q20.0 -3.6 20.0 0.5 20.0 2.6 17.6 5.35 15.15 8.15 15.15 8.85 15.15 9.75 16.7 10.8 18.55 12.0 20.9 12.0 L28.7 11.35 29.25 11.25 28.8 10.4 Q28.1 8.9 28.1 7.3 28.1 5.85 30.55 2.8 33.0 -0.25 33.0 -0.9 31.3 -1.95 29.55 -3.1 26.1 -5.35 26.1 -7.8 26.1 -9.1 30.4 -11.65 34.65 -14.2 34.65 -15.55 34.65 -16.75 35.85 -16.3 37.05 -15.85 37.05 -14.55 37.05 -13.05 32.7 -10.55 L28.35 -7.75 Q28.35 -5.7 31.5 -4.2 34.65 -2.75 34.65 -0.95 34.65 0.8 32.1 3.6 29.55 6.4 29.55 7.35 29.55 8.5 30.9 9.6 L32.1 10.8 33.6 10.7 Q40.65 10.7 44.05 12.05 45.9 12.75 48.15 15.0 50.25 17.05 52.85 17.9 L58.2 18.95 57.8 17.75 57.45 15.45 Q57.45 14.05 57.8 13.9 58.1 12.3 61.45 11.75 L63.25 11.45 63.3 10.95 Q63.3 7.25 54.5 5.5 49.95 4.6 48.4 3.95 45.65 2.8 45.65 0.65 45.65 -1.4 46.4 -2.3 47.1 -3.25 47.1 -5.55 47.1 -5.75 50.85 -7.45 54.6 -9.15 54.6 -10.8 L54.25 -11.9 53.85 -13.0 54.0 -13.5 Q55.1 -13.9 55.7 -12.65 56.15 -11.8 56.15 -10.8 56.15 -8.45 53.15 -7.15 49.6 -5.55 49.2 -4.85 48.75 -2.65 47.9 -1.45 47.25 -0.6 47.25 0.9 47.25 1.95 49.9 2.85 L55.75 4.45 Q64.2 6.85 64.2 10.7 L64.1 11.3 Q69.05 10.35 72.45 8.9 L70.05 6.35 Q69.35 5.65 69.35 4.2 L69.6 -1.95 Q69.6 -3.7 75.3 -5.6 83.9 -8.5 84.65 -8.85 L84.8 -8.65 84.9 -8.1 Q84.9 -6.3 80.05 -4.9 74.5 -3.55 72.95 -2.9 71.5 -2.3 71.05 0.0 70.8 1.25 70.8 4.05 70.8 5.1 72.4 6.4 L73.15 7.05 73.85 6.7 Q75.45 6.0 77.3 6.0 79.25 6.0 80.3 6.6 81.35 7.2 82.9 7.2 90.95 7.2 92.7 3.55 93.15 2.55 93.3 0.75 93.4 -0.85 93.75 -1.2 L94.45 -0.3 94.5 0.6 Q94.5 3.15 92.5 5.4 89.4 8.75 82.95 8.75 80.9 8.75 79.9 8.0 78.95 7.2 75.8 7.2 75.65 7.2 74.3 7.95 L73.9 8.2 74.0 8.7 Q74.0 10.85 66.65 12.55 59.25 14.3 59.25 14.9 L60.5 17.15 61.75 19.2 65.25 19.25 Q67.9 19.25 68.85 20.9 69.35 21.75 69.3 22.65 69.3 25.25 64.8 26.7 L61.8 27.5 Q62.75 27.85 63.45 28.55 65.25 30.25 65.25 32.85 L64.9 34.75 64.55 36.6 Q64.55 37.5 66.8 38.45 69.35 39.5 72.45 39.45 L72.6 39.55 72.75 40.05 Q72.75 40.55 72.0 40.65 L70.65 40.7 Q67.1 40.7 64.85 38.9 63.15 37.6 63.15 36.6 63.95 33.85 63.95 32.9 63.95 31.45 62.7 30.1 61.15 28.5 58.55 28.5 L57.3 28.3 55.0 28.65 Q47.85 29.75 45.15 30.65 40.65 32.15 40.65 34.8 40.65 35.6 41.5 36.2 L43.8 38.25 Q44.2 38.75 44.2 39.8 L44.25 41.55 Q44.4 42.3 45.8 43.0 47.55 43.85 48.15 44.45 L49.25 46.1 49.8 47.55 Q49.8 50.85 44.8 52.95 37.6 55.35 33.15 57.3 28.55 59.35 26.6 63.05 24.7 66.65 26.1 69.9 L26.0 70.1 Q25.6 69.85 25.25 67.9 24.9 66.1 24.9 64.8 24.9 59.3 36.6 54.9 L44.65 51.7 Q48.3 49.85 48.3 47.75 48.3 46.45 45.05 44.95 41.8 43.5 41.75 41.4 41.7 38.1 39.8 37.15 37.95 36.2 37.95 34.8 37.95 32.55 39.0 31.25 L38.5 30.25 Q37.1 28.2 31.25 28.2 29.75 28.2 27.95 29.6 26.15 30.95 22.35 30.95 L20.7 30.9 20.35 31.15 Q19.65 31.7 19.65 32.1 19.65 32.6 20.35 33.7 21.0 34.75 21.0 35.4 21.0 36.25 20.4 37.45 19.6 39.2 18.15 39.2 L17.4 39.0 19.05 37.05 Q19.95 36.05 19.95 35.35 L18.6 32.1 Q18.6 31.5 19.35 30.8 17.35 30.45 17.0 29.65 16.5 28.35 10.9 28.35 9.05 28.35 7.45 30.45 L5.45 33.15 Q4.8 32.85 4.8 32.1 4.8 31.1 6.15 29.45 L8.4 26.9 Q9.65 25.45 15.15 27.25 L22.3 29.4 Q25.15 29.4 27.65 28.05 30.15 26.7 31.3 26.7 36.35 26.7 38.9 29.4 L39.8 30.5 Q41.25 29.5 44.8 28.75 60.5 25.45 66.9 23.1 66.35 21.65 64.5 21.7 L60.3 22.1 Q55.6 22.1 52.65 20.7 51.2 19.95 48.4 17.6 43.1 13.05 33.6 13.05 L28.35 13.7 20.8 14.3 Q17.1 14.3 14.75 12.2 13.05 10.7 13.05 9.5 13.05 8.45 13.95 6.95 L13.35 5.95 Q12.15 3.75 10.05 3.75 8.55 3.75 7.9 6.15 7.1 9.05 6.3 9.6 L1.0 10.6 Q-3.5 11.4 -4.05 13.35 L-4.55 13.55 Q-5.25 13.35 -5.25 12.45 -5.25 11.15 -3.0 10.65 L3.15 9.45 Q5.75 8.9 6.25 7.4 6.4 5.75 6.95 5.0 10.7 0.25 14.1 6.6 L15.55 4.45 18.0 0.75 16.65 -2.0 Q15.15 -4.6 14.3 -5.45 13.75 -6.0 9.45 -8.4 6.15 -10.25 6.15 -11.6 L8.3 -11.5 M180.45 -5.1 Q181.0 -4.15 183.7 -1.25 185.95 1.15 186.3 2.6 186.75 4.5 187.65 6.5 187.95 4.35 190.0 -0.05 192.3 -5.05 193.8 -6.8 195.1 -8.35 198.75 -15.8 201.15 -20.75 201.15 -17.65 201.15 -17.05 198.25 -11.65 L194.4 -4.7 191.45 0.9 200.55 -2.05 Q212.6 -5.8 215.85 -7.7 L216.0 -7.05 Q216.0 -5.25 204.8 -1.4 194.55 2.05 190.8 2.25 L188.25 7.85 Q189.45 10.3 191.25 12.95 L194.75 17.85 194.3 20.55 Q193.85 22.25 193.85 23.45 194.8 24.5 194.75 25.7 L194.7 26.2 194.65 26.3 195.65 27.6 Q195.9 23.75 202.6 18.95 205.2 17.05 213.2 12.5 214.6 11.75 217.75 8.9 221.15 6.2 224.85 5.3 228.5 4.4 231.9 1.7 L236.15 -1.8 236.5 -1.5 236.7 -0.85 Q236.7 1.4 233.6 3.65 230.65 5.75 226.25 6.9 223.2 7.7 219.3 10.45 215.45 13.45 214.05 14.25 L211.6 15.7 212.8 15.65 Q219.35 15.65 230.0 21.65 240.15 27.3 240.15 29.7 240.15 30.6 238.8 30.6 235.6 27.5 230.15 24.15 L226.7 22.2 226.9 22.75 Q227.9 25.75 227.9 27.3 227.9 28.15 225.9 32.5 223.95 36.75 223.1 37.8 L222.35 37.8 Q222.15 37.9 222.15 37.15 L226.05 27.5 225.15 23.4 224.6 21.15 Q217.35 17.75 209.8 16.75 206.35 18.7 202.95 20.7 201.05 21.95 199.05 24.9 L196.55 28.5 Q197.7 29.7 197.7 30.3 L193.5 41.65 193.95 43.2 194.4 44.6 192.35 51.5 Q192.35 52.5 195.15 63.2 194.05 62.15 192.4 57.2 190.85 52.7 190.85 51.6 190.85 50.5 191.8 48.4 192.75 46.25 192.75 44.7 L192.4 43.25 192.0 41.75 Q192.0 39.75 193.8 36.6 195.6 33.45 195.6 30.6 193.4 27.2 192.65 25.25 191.1 24.15 189.2 23.1 183.4 19.8 178.7 19.8 L175.9 19.95 172.4 22.95 Q169.1 25.7 168.0 27.15 167.4 28.0 166.95 31.75 166.2 35.15 163.5 35.15 L162.9 35.1 162.75 34.85 164.7 31.55 Q165.45 30.35 165.45 29.1 165.45 27.35 170.35 23.05 172.35 21.3 173.85 20.2 169.55 20.9 165.45 22.9 159.0 26.0 151.15 26.0 148.5 26.0 146.2 24.85 144.6 24.05 144.15 23.45 144.15 22.65 144.8 22.65 145.95 22.65 147.35 23.4 148.7 24.15 152.3 24.15 158.3 24.15 165.05 21.05 160.75 19.8 158.0 14.6 156.85 12.45 156.1 9.85 L155.55 7.65 Q155.55 3.2 156.75 6.55 L158.1 11.55 Q159.5 13.0 161.35 16.05 163.25 18.35 167.3 20.05 173.35 17.45 179.15 17.75 188.65 19.7 192.35 22.15 L192.9 17.85 190.1 13.6 Q186.7 8.6 184.5 4.05 183.1 1.1 179.45 -3.35 177.05 -6.25 177.05 -9.6 177.05 -10.8 177.9 -10.85 178.8 -10.95 179.3 -9.0 179.8 -6.3 180.45 -5.1 M284.05 -6.0 Q281.1 -2.05 281.1 1.05 281.1 3.1 282.5 5.15 L282.7 5.2 282.75 5.4 282.75 5.45 282.8 5.55 286.6 9.55 287.4 10.4 287.4 10.1 Q287.4 6.9 289.2 4.8 291.55 2.05 297.45 0.15 L308.25 -0.3 311.15 -0.25 311.15 -0.6 313.95 -0.25 317.85 -0.45 322.35 -2.55 Q324.2 -3.25 327.35 -5.35 L330.8 -7.55 331.2 -7.5 331.25 -7.05 Q331.25 -5.9 328.65 -4.15 326.3 -2.55 323.85 -1.7 321.1 -0.8 320.1 -0.05 L319.3 0.65 316.6 0.75 Q318.5 1.65 320.6 3.25 325.55 7.05 325.55 9.95 325.55 11.25 324.95 12.15 325.35 12.3 324.6 12.3 321.9 7.05 320.6 5.25 319.35 3.4 316.25 2.15 L312.85 0.75 308.4 0.75 Q298.55 0.75 294.9 2.4 290.1 4.55 288.45 11.6 292.05 16.1 292.05 20.6 292.05 22.0 290.5 24.4 L288.75 27.15 Q289.45 28.45 289.5 29.3 L289.05 31.15 Q288.7 32.55 289.1 33.45 290.4 36.15 299.65 36.15 L309.5 34.9 Q317.0 33.6 322.45 33.6 L326.6 33.85 326.25 32.9 325.8 30.55 Q325.8 26.55 330.15 24.3 332.6 23.05 339.8 21.3 L341.1 21.0 Q341.8 20.5 342.95 18.25 344.1 16.05 344.1 15.45 344.1 14.5 340.9 11.7 337.7 8.95 337.7 6.3 337.7 4.75 338.1 4.25 338.55 3.6 340.8 2.45 L340.95 3.45 340.05 4.75 Q339.15 5.9 339.15 6.3 339.15 8.35 342.35 10.95 345.5 13.6 345.5 15.3 345.5 16.75 344.6 18.8 L343.75 20.25 Q347.5 19.15 349.4 18.05 353.75 15.45 353.75 10.9 353.75 9.8 353.05 8.7 352.35 7.6 352.35 6.75 352.35 5.7 353.15 4.7 354.05 3.5 355.55 3.35 L355.65 3.8 354.9 5.2 Q354.15 6.25 354.15 6.7 L354.85 8.4 Q355.5 9.9 355.5 10.8 355.5 14.4 353.2 17.0 L357.35 16.65 362.7 17.25 368.2 17.8 369.85 16.3 Q372.1 13.7 373.2 9.75 374.0 7.05 375.95 5.15 378.45 2.65 381.75 2.9 L381.95 3.35 Q376.0 5.0 374.2 10.7 373.2 13.95 372.6 14.95 371.55 16.75 369.6 17.85 L372.3 17.85 Q376.7 17.85 379.2 16.7 380.65 16.0 382.65 14.1 386.6 10.2 394.05 9.95 L394.15 10.1 394.2 10.65 392.4 10.9 Q389.2 11.6 383.3 14.85 382.6 16.45 381.55 17.45 L380.5 18.2 Q381.8 18.4 382.6 19.0 383.75 19.8 384.8 22.6 385.9 25.4 387.55 26.7 390.2 28.8 395.85 29.25 L396.0 29.45 394.95 30.1 393.0 30.45 Q389.1 30.45 386.9 28.55 385.5 27.35 384.05 24.4 382.55 21.3 381.55 20.25 380.5 19.2 379.0 18.75 L372.45 19.4 362.5 18.7 357.25 18.0 352.1 18.6 350.9 18.95 Q347.85 20.95 341.5 22.75 333.35 25.0 331.85 25.65 327.45 27.55 327.45 30.55 L328.0 32.5 328.6 34.2 Q334.4 35.4 338.15 39.15 338.55 38.15 340.0 36.65 342.2 34.3 344.15 34.2 353.25 33.65 354.9 31.4 L355.55 29.9 Q355.85 29.25 357.0 29.25 L357.2 29.35 357.3 29.85 Q357.3 31.55 355.05 33.1 351.75 35.3 345.15 35.25 340.9 35.2 339.95 37.45 L339.2 40.3 Q342.6 44.3 342.6 47.55 342.6 51.85 338.45 58.35 335.45 63.05 331.1 67.8 331.65 66.0 336.55 58.65 340.8 52.2 340.8 49.1 340.8 44.7 337.7 41.45 332.2 35.7 318.45 35.7 L310.25 36.95 303.4 37.85 Q302.5 38.3 302.15 38.8 301.65 39.45 301.65 41.2 301.65 41.75 302.2 43.25 302.75 44.75 302.75 45.5 302.75 48.45 296.6 50.7 L296.15 50.75 Q296.0 50.75 296.0 50.25 296.0 49.95 298.75 48.3 301.5 46.7 301.5 45.55 L300.95 43.5 Q300.35 41.95 300.35 41.2 300.35 39.25 301.15 38.05 L298.35 38.15 Q290.15 38.15 288.2 35.7 287.7 35.1 287.7 32.25 L287.45 29.55 Q287.05 28.05 285.75 27.0 284.85 26.35 284.0 24.6 283.15 22.9 281.9 22.05 L277.95 20.6 Q273.65 21.3 271.95 25.2 270.85 27.65 270.9 30.3 269.7 33.1 267.7 35.65 L264.45 38.9 265.2 40.1 Q265.7 41.35 265.7 42.35 265.7 44.1 262.6 46.35 259.5 48.65 259.5 49.75 259.5 50.45 259.65 50.85 L260.4 52.25 260.3 52.45 259.7 52.5 Q258.9 52.5 258.45 51.2 L258.15 49.8 Q258.15 47.9 261.4 45.65 264.6 43.45 264.6 42.25 L263.9 40.5 263.5 39.5 Q261.45 40.7 259.25 40.7 257.25 40.7 256.1 39.95 254.95 39.2 251.4 39.2 249.7 39.2 248.15 40.1 246.35 41.15 245.6 41.25 L245.35 41.2 245.25 40.65 Q245.25 40.0 247.55 38.85 249.9 37.65 251.4 37.65 254.65 37.65 256.2 38.5 L257.85 39.3 Q264.55 39.3 267.65 34.75 269.7 31.7 269.7 28.05 269.7 24.5 272.35 22.25 274.15 20.65 276.9 20.2 273.1 18.95 272.6 18.5 271.4 17.25 270.05 16.45 267.55 14.85 264.55 14.85 262.15 14.85 260.5 16.7 258.85 18.5 255.65 18.5 253.45 18.5 252.65 17.65 L252.3 16.75 252.3 16.1 252.5 15.95 253.1 15.8 Q253.5 15.8 253.8 16.2 254.1 16.55 254.45 16.55 257.25 16.55 258.95 15.4 L261.3 13.25 Q263.85 11.15 271.2 14.75 L273.25 16.65 Q274.45 17.8 277.55 18.35 283.0 19.4 284.55 21.3 L287.5 25.1 288.05 25.95 Q288.35 24.95 289.0 23.75 290.25 21.45 290.25 20.65 290.25 16.15 284.7 10.55 L281.05 6.5 278.75 7.35 Q274.7 8.7 271.65 8.7 262.65 4.25 257.55 -0.15 257.0 -3.0 264.4 1.9 268.15 4.35 272.0 7.35 273.6 7.35 277.0 6.25 L280.15 5.35 Q279.15 3.9 279.15 3.15 279.15 -1.65 280.2 -3.95 281.65 -7.25 286.55 -10.8 L286.8 -10.6 286.95 -10.05 284.05 -6.0" fill="url(#gradient0)" fill-rule="evenodd" stroke="none"/>
    <path d="M358.0 70.3 L358.0 22.95 Q361.3 11.0 371.1 5.6 380.9 11.0 384.2 22.95 L384.2 70.3 358.0 70.3" fill="url(#gradient1)" fill-rule="evenodd" stroke="none"/>
    <path d="M288.0 70.3 L288.0 22.95 Q291.3 11.0 301.1 5.6 310.9 11.0 314.2 22.95 L314.2 70.3 288.0 70.3" fill="url(#gradient2)" fill-rule="evenodd" stroke="none"/>
    <path d="M218.0 70.3 L218.0 22.95 Q221.3 11.0 231.1 5.6 240.9 11.0 244.2 22.95 L244.2 70.3 218.0 70.3" fill="url(#gradient3)" fill-rule="evenodd" stroke="none"/>
    <path d="M148.0 70.3 L148.0 22.95 Q151.3 11.0 161.1 5.6 170.9 11.0 174.2 22.95 L174.2 70.3 148.0 70.3" fill="url(#gradient4)" fill-rule="evenodd" stroke="none"/>
    <path d="M78.0 70.3 L78.0 22.95 Q81.3 11.0 91.1 5.6 100.9 11.0 104.2 22.95 L104.2 70.3 78.0 70.3" fill="url(#gradient5)" fill-rule="evenodd" stroke="none"/>
    <path d="M8.0 70.3 L8.0 22.95 Q11.3 11.0 21.1 5.6 30.9 11.0 34.2 22.95 L34.2 70.3 8.0 70.3" fill="url(#gradient6)" fill-rule="evenodd" stroke="none"/>
    <path d="M407.65 77.15 L407.65 258.9 -20.55 258.9 -20.55 80.05 -20.55 77.15 407.65 77.15 M406.5 80.05 L-20.55 80.05 406.5 80.05" fill="url(#gradient7)" fill-rule="evenodd" stroke="none"/>
    <path d="M384.2 70.3 L384.2 22.95 Q380.9 11.0 371.1 5.6 361.3 11.0 358.0 22.95 L358.0 70.3 M-20.55 77.15 L407.65 77.15 M314.2 70.3 L314.2 22.95 Q310.9 11.0 301.1 5.6 291.3 11.0 288.0 22.95 L288.0 70.3 M244.2 70.3 L244.2 22.95 Q240.9 11.0 231.1 5.6 221.3 11.0 218.0 22.95 L218.0 70.3 M174.2 70.3 L174.2 22.95 Q170.9 11.0 161.1 5.6 151.3 11.0 148.0 22.95 L148.0 70.3 M104.2 70.3 L104.2 22.95 Q100.9 11.0 91.1 5.6 81.3 11.0 78.0 22.95 L78.0 70.3 M8.0 70.3 L8.0 22.95 Q11.3 11.0 21.1 5.6 30.9 11.0 34.2 22.95 L34.2 70.3" fill="none" stroke="#33ff99" stroke-linecap="round" stroke-linejoin="round" stroke-width="1.0"/>
    <path d="M-20.55 80.05 L406.5 80.05" fill="none" stroke="#99ffff" stroke-linecap="round" stroke-linejoin="round" stroke-width="1.0"/>
  </g>
  <defs>
    <linearGradient gradientTransform="matrix(0.0, 0.0521, -0.0528, 0.0, 44.6, 26.85)" gradientUnits="userSpaceOnUse" id="gradient0" spreadMethod="pad" x1="-819.2" x2="819.2">
      <stop offset="0.0" stop-color="#c4fff9"/>
      <stop offset="0.4745098039215686" stop-color="#89fff4"/>
      <stop offset="1.0" stop-color="#33ff99" stop-opacity="0.39215687"/>
    </linearGradient>
    <linearGradient gradientTransform="matrix(-1.0E-4, 0.0396, -0.0289, 0.0, 355.9, 37.95)" gradientUnits="userSpaceOnUse" id="gradient1" spreadMethod="pad" x1="-819.2" x2="819.2">
      <stop offset="0.0" stop-color="#33ff99"/>
      <stop offset="1.0" stop-color="#33ff99" stop-opacity="0.0"/>
    </linearGradient>
    <linearGradient gradientTransform="matrix(-1.0E-4, 0.0396, -0.0289, 0.0, 285.9, 37.95)" gradientUnits="userSpaceOnUse" id="gradient2" spreadMethod="pad" x1="-819.2" x2="819.2">
      <stop offset="0.0" stop-color="#33ff99"/>
      <stop offset="1.0" stop-color="#33ff99" stop-opacity="0.0"/>
    </linearGradient>
    <linearGradient gradientTransform="matrix(-1.0E-4, 0.0396, -0.0289, 0.0, 215.9, 37.95)" gradientUnits="userSpaceOnUse" id="gradient3" spreadMethod="pad" x1="-819.2" x2="819.2">
      <stop offset="0.0" stop-color="#33ff99"/>
      <stop offset="1.0" stop-color="#33ff99" stop-opacity="0.0"/>
    </linearGradient>
    <linearGradient gradientTransform="matrix(-1.0E-4, 0.0396, -0.0289, 0.0, 145.9, 37.95)" gradientUnits="userSpaceOnUse" id="gradient4" spreadMethod="pad" x1="-819.2" x2="819.2">
      <stop offset="0.0" stop-color="#33ff99"/>
      <stop offset="1.0" stop-color="#33ff99" stop-opacity="0.0"/>
    </linearGradient>
    <linearGradient gradientTransform="matrix(-1.0E-4, 0.0396, -0.0289, 0.0, 75.9, 37.95)" gradientUnits="userSpaceOnUse" id="gradient5" spreadMethod="pad" x1="-819.2" x2="819.2">
      <stop offset="0.0" stop-color="#33ff99"/>
      <stop offset="1.0" stop-color="#33ff99" stop-opacity="0.0"/>
    </linearGradient>
    <linearGradient gradientTransform="matrix(-1.0E-4, 0.0396, -0.0289, 0.0, 5.9, 37.95)" gradientUnits="userSpaceOnUse" id="gradient6" spreadMethod="pad" x1="-819.2" x2="819.2">
      <stop offset="0.0" stop-color="#33ff99"/>
      <stop offset="1.0" stop-color="#33ff99" stop-opacity="0.0"/>
    </linearGradient>
    <linearGradient gradientTransform="matrix(0.1981, 0.1698, -0.0721, 0.0841, 193.55, 168.0)" gradientUnits="userSpaceOnUse" id="gradient7" spreadMethod="pad" x1="-819.2" x2="819.2">
      <stop offset="0.0" stop-color="#33ff99" stop-opacity="0.14117648"/>
      <stop offset="0.1411764705882353" stop-color="#a3fecf" stop-opacity="0.6627451"/>
      <stop offset="0.25882352941176473" stop-color="#33ff99" stop-opacity="0.07058824"/>
      <stop offset="0.32941176470588235" stop-color="#02c161" stop-opacity="0.3529412"/>
      <stop offset="0.39215686274509803" stop-color="#c4ffe1" stop-opacity="0.6627451"/>
      <stop offset="0.4627450980392157" stop-color="#33ff99" stop-opacity="0.2509804"/>
      <stop offset="0.5568627450980392" stop-color="#bcfedc" stop-opacity="0.92156863"/>
      <stop offset="0.6627450980392157" stop-color="#02f47b" stop-opacity="0.4627451"/>
      <stop offset="0.7568627450980392" stop-color="#018743" stop-opacity="0.14117648"/>
      <stop offset="0.8509803921568627" stop-color="#a3fecf" stop-opacity="0.8235294"/>
      <stop offset="1.0" stop-color="#33ff99" stop-opacity="0.18039216"/>
    </linearGradient>
  </defs>
</svg>
