<?xml version="1.0" encoding="UTF-8" standalone="no"?>
<svg xmlns:xlink="http://www.w3.org/1999/xlink" height="255.35px" width="424.7px" xmlns="http://www.w3.org/2000/svg">
  <g transform="matrix(1.0, 0.0, 0.0, 1.0, 17.9, 0.5)">
    <path d="M-14.4 23.3 L-14.4 3.05 405.8 3.05 405.8 28.9 401.7 30.25 Q382.75 35.25 363.25 36.25 L361.8 36.4 Q357.1 35.05 352.9 32.9 329.95 21.05 309.25 34.4 301.7 30.2 293.45 27.5 269.65 19.65 245.85 27.05 L245.55 27.15 245.25 27.05 Q227.6 15.15 209.5 23.05 199.1 27.5 188.1 24.25 175.45 20.4 163.15 15.15 L156.85 14.9 Q129.05 24.5 100.3 31.55 L93.2 30.45 Q69.7 25.15 47.35 16.0 42.7 14.15 38.15 15.85 21.25 22.3 4.4 29.7 L3.95 29.55 -0.15 27.85 Q-7.0 25.05 -14.4 23.3 M105.05 18.3 Q105.05 14.45 102.35 11.75 99.65 9.0 95.8 9.0 91.95 9.0 89.25 11.75 86.55 14.45 86.55 18.3 86.55 22.15 89.25 24.9 91.95 27.6 95.8 27.6 99.65 27.6 102.35 24.9 105.05 22.15 105.05 18.3" fill="#f5c95e" fill-rule="evenodd" stroke="none"/>
    <path d="M405.8 70.05 L405.8 90.05 405.8 117.0 405.8 145.95 405.8 177.55 405.8 208.95 405.8 233.4 -14.4 233.4 -14.4 208.95 -14.4 177.55 -14.4 145.95 -14.4 117.0 -14.4 90.05 -14.4 70.05 405.8 70.05 M330.5 44.25 L330.45 44.2 330.5 44.25 M245.85 27.05 L245.8 27.2 245.55 27.15 245.3 27.2 245.25 27.05 245.55 27.15 245.85 27.05 M199.8 41.3 L199.4 41.4 199.35 41.3 199.8 41.3 M363.25 36.25 L363.15 36.7 361.8 36.4 363.25 36.25 M399.8 229.4 L390.9 208.95 405.8 208.95 390.9 208.95 399.8 229.4 M350.95 117.0 L339.2 90.05 405.8 90.05 339.2 90.05 350.95 117.0 405.8 117.0 350.95 117.0 271.15 117.0 276.1 145.95 363.5 145.95 276.1 145.95 271.15 117.0 350.95 117.0 M405.8 177.55 L377.25 177.55 363.5 145.95 405.8 145.95 363.5 145.95 377.25 177.55 405.8 177.55 M263.4 72.0 L266.5 90.05 188.45 90.05 88.1 90.05 90.05 71.55 88.1 90.05 188.45 90.05 266.5 90.05 263.4 72.0 M188.45 90.05 L188.45 117.0 271.15 117.0 188.45 117.0 85.3 117.0 82.25 145.95 188.45 145.95 82.25 145.95 85.3 117.0 188.45 117.0 188.45 90.05 M377.25 177.55 L281.55 177.55 188.45 177.55 188.45 145.95 276.1 145.95 188.45 145.95 188.45 177.55 281.55 177.55 377.25 177.55 M4.4 29.7 L4.05 29.85 3.95 29.55 4.4 29.7 M82.25 145.95 L2.35 145.95 -14.4 145.95 2.35 145.95 82.25 145.95 M85.3 117.0 L7.3 117.0 11.95 90.05 88.1 90.05 11.95 90.05 7.3 117.0 85.3 117.0 M-10.45 220.4 L-8.5 208.95 75.65 208.95 188.45 208.95 188.45 229.9 188.45 208.95 75.65 208.95 -8.5 208.95 -10.45 220.4 M281.55 177.55 L286.9 208.95 188.45 208.95 286.9 208.95 281.55 177.55 M75.65 208.95 L78.95 177.55 188.45 177.55 78.95 177.55 75.65 208.95 M390.9 208.95 L286.9 208.95 390.9 208.95 M266.5 90.05 L339.2 90.05 266.5 90.05 M2.35 145.95 L-3.1 177.55 -14.4 177.55 -3.1 177.55 2.35 145.95 M-14.4 208.95 L-8.5 208.95 -14.4 208.95 M-14.4 90.05 L11.95 90.05 -14.4 90.05 M7.3 117.0 L-14.4 117.0 7.3 117.0 M-3.1 177.55 L78.95 177.55 -3.1 177.55" fill="#a38345" fill-rule="evenodd" stroke="none"/>
    <path d="M405.8 56.8 L405.8 70.05 -14.4 70.05 -14.4 63.05 Q4.6 54.2 24.45 47.65 L33.55 44.5 Q56.9 32.6 81.3 38.4 L90.7 40.45 Q110.95 51.05 133.4 51.7 154.1 52.3 173.9 47.4 L199.4 41.4 199.8 41.3 245.3 27.2 245.55 27.15 245.8 27.2 245.85 27.05 Q269.65 19.65 293.45 27.5 301.7 30.2 309.25 34.4 L330.45 44.2 330.5 44.25 Q351.3 54.2 374.25 55.65 L405.8 56.8" fill="#edd18f" fill-rule="evenodd" stroke="none"/>
    <path d="M405.8 28.9 L405.8 56.8 374.25 55.65 Q351.3 54.2 330.5 44.25 343.5 38.45 357.5 36.75 L361.8 36.4 363.15 36.7 363.25 36.25 Q382.75 35.25 401.7 30.25 L405.8 28.9 M199.4 41.4 L173.9 47.4 Q154.1 52.3 133.4 51.7 110.95 51.05 90.7 40.45 112.15 29.0 136.2 28.35 160.2 27.7 181.95 37.5 190.2 41.2 199.35 41.3 L199.4 41.4 M33.55 44.5 L24.45 47.65 Q4.6 54.2 -14.4 63.05 L-14.4 23.3 Q-7.0 25.05 -0.15 27.85 L3.95 29.55 4.05 29.85 4.4 29.7 Q16.4 37.05 29.05 42.7 31.25 43.7 33.55 44.5" fill="#d48f5e" fill-rule="evenodd" stroke="none"/>
    <path d="M330.45 44.2 L309.25 34.4 Q329.95 21.05 352.9 32.9 357.1 35.05 361.8 36.4 L357.5 36.75 Q343.5 38.45 330.5 44.25 L330.45 44.2 M245.3 27.2 L199.8 41.3 199.35 41.3 Q190.2 41.2 181.95 37.5 160.2 27.7 136.2 28.35 112.15 29.0 90.7 40.45 L81.3 38.4 Q56.9 32.6 33.55 44.5 31.25 43.7 29.05 42.7 16.4 37.05 4.4 29.7 21.25 22.3 38.15 15.85 42.7 14.15 47.35 16.0 69.7 25.15 93.2 30.45 L100.3 31.55 Q129.05 24.5 156.85 14.9 L163.15 15.15 Q175.45 20.4 188.1 24.25 199.1 27.5 209.5 23.05 227.6 15.15 245.25 27.05 L245.3 27.2" fill="#e6a35e" fill-rule="evenodd" stroke="none"/>
    <path d="M405.8 233.4 L405.8 236.9 405.8 239.4 405.8 254.35 388.35 254.35 364.85 254.35 335.85 254.35 313.4 254.35 292.4 254.35 268.45 254.35 243.95 254.35 220.95 254.35 195.0 254.35 163.5 254.35 129.5 254.35 105.5 254.35 75.55 254.35 42.05 254.35 11.1 254.35 -14.4 254.35 -14.4 239.4 -14.4 236.9 -14.4 233.4 405.8 233.4 M388.35 239.4 L405.8 239.4 388.35 239.4 388.35 254.35 388.35 239.4 364.85 239.4 364.85 254.35 364.85 239.4 388.35 239.4 M335.85 254.35 L335.85 239.4 364.85 239.4 335.85 239.4 335.85 254.35 M268.45 239.4 L292.4 239.4 313.4 239.4 313.4 254.35 313.4 239.4 292.4 239.4 292.4 254.35 292.4 239.4 268.45 239.4 268.45 254.35 268.45 239.4 243.95 239.4 243.95 254.35 243.95 239.4 268.45 239.4 M75.55 239.4 L105.5 239.4 129.5 239.4 129.5 254.35 129.5 239.4 105.5 239.4 105.5 254.35 105.5 239.4 75.55 239.4 75.55 254.35 75.55 239.4 42.05 239.4 42.05 254.35 42.05 239.4 75.55 239.4 M11.1 254.35 L11.1 239.4 42.05 239.4 11.1 239.4 11.1 254.35 M195.0 239.4 L220.95 239.4 220.95 254.35 220.95 239.4 195.0 239.4 195.0 254.35 195.0 239.4 163.5 239.4 163.5 254.35 163.5 239.4 195.0 239.4 M220.95 239.4 L243.95 239.4 220.95 239.4 M129.5 239.4 L163.5 239.4 129.5 239.4 M313.4 239.4 L335.85 239.4 313.4 239.4 M405.8 236.9 L-14.4 236.9 405.8 236.9 M-14.4 239.4 L11.1 239.4 -14.4 239.4" fill="#c8a844" fill-rule="evenodd" stroke="none"/>
    <path d="M105.05 18.3 Q105.05 22.15 102.35 24.9 99.65 27.6 95.8 27.6 91.95 27.6 89.25 24.9 86.55 22.15 86.55 18.3 86.55 14.45 89.25 11.75 91.95 9.0 95.8 9.0 99.65 9.0 102.35 11.75 105.05 14.45 105.05 18.3" fill="#ffff8c" fill-rule="evenodd" stroke="none"/>
    <path d="M405.8 236.9 L405.8 239.4 388.35 239.4 364.85 239.4 364.85 254.35 M-14.4 239.4 L-16.4 239.4 M405.8 145.95 L363.5 145.95 377.25 177.55 405.8 177.55 M405.8 117.0 L350.95 117.0 271.15 117.0 276.1 145.95 363.5 145.95 M405.8 90.05 L339.2 90.05 350.95 117.0 M405.8 208.95 L390.9 208.95 399.8 229.4 M388.35 254.35 L388.35 239.4 M364.85 239.4 L335.85 239.4 335.85 254.35 M90.05 71.55 L88.1 90.05 188.45 90.05 266.5 90.05 263.4 72.0 M276.1 145.95 L188.45 145.95 188.45 177.55 281.55 177.55 377.25 177.55 M271.15 117.0 L188.45 117.0 85.3 117.0 82.25 145.95 188.45 145.95 M188.45 117.0 L188.45 90.05 M88.1 90.05 L11.95 90.05 7.3 117.0 85.3 117.0 M-14.4 145.95 L2.35 145.95 82.25 145.95 M129.5 254.35 L129.5 239.4 105.5 239.4 105.5 254.35 M75.55 254.35 L75.55 239.4 42.05 239.4 42.05 254.35 M42.05 239.4 L11.1 239.4 11.1 254.35 M105.5 239.4 L75.55 239.4 M313.4 254.35 L313.4 239.4 292.4 239.4 292.4 254.35 M268.45 254.35 L268.45 239.4 243.95 239.4 243.95 254.35 M292.4 239.4 L268.45 239.4 M188.45 229.9 L188.45 208.95 75.65 208.95 -8.5 208.95 -10.45 220.4 M195.0 254.35 L195.0 239.4 163.5 239.4 163.5 254.35 M220.95 254.35 L220.95 239.4 195.0 239.4 M188.45 208.95 L286.9 208.95 281.55 177.55 M243.95 239.4 L220.95 239.4 M188.45 177.55 L78.95 177.55 75.65 208.95 M163.5 239.4 L129.5 239.4 M286.9 208.95 L390.9 208.95 M335.85 239.4 L313.4 239.4 M339.2 90.05 L266.5 90.05 M-14.4 177.55 L-3.1 177.55 2.35 145.95 M-8.5 208.95 L-14.4 208.95 M405.8 233.4 L-14.4 233.4 M-14.4 117.0 L7.3 117.0 M11.95 90.05 L-14.4 90.05 M11.1 239.4 L-14.4 239.4 M78.95 177.55 L-3.1 177.55" fill="none" stroke="#8c5e30" stroke-linecap="round" stroke-linejoin="round" stroke-width="1.0"/>
    <path d="M-14.4 236.9 L405.8 236.9 M-14.4 236.9 L-17.4 236.9" fill="none" stroke="#d9b56d" stroke-linecap="round" stroke-linejoin="round" stroke-width="1.0"/>
    <path d="M-14.4 70.05 L405.8 70.05" fill="none" stroke="#c8a844" stroke-linecap="round" stroke-linejoin="round" stroke-width="2.0"/>
    <path d="M345.3 74.0 L345.65 74.15 345.8 74.5 345.65 74.85 345.3 75.0 344.95 74.85 344.8 74.5 344.95 74.15 Q345.1 74.0 345.3 74.0 M353.65 74.15 L353.8 74.5 353.65 74.85 353.3 75.0 352.95 74.85 352.8 74.5 352.95 74.15 Q353.1 74.0 353.3 74.0 353.5 74.0 353.65 74.15 M349.65 74.15 L349.8 74.5 349.65 74.85 349.3 75.0 348.95 74.85 348.8 74.5 348.95 74.15 Q349.1 74.0 349.3 74.0 L349.65 74.15 M361.65 74.15 L361.8 74.5 361.65 74.85 361.3 75.0 360.95 74.85 360.8 74.5 360.95 74.15 Q361.1 74.0 361.3 74.0 L361.65 74.15 M357.65 74.15 L357.8 74.5 357.65 74.85 357.3 75.0 Q357.1 75.0 356.95 74.85 L356.8 74.5 356.95 74.15 Q357.1 74.0 357.3 74.0 L357.65 74.15 M325.3 74.0 L325.65 74.15 325.8 74.5 325.65 74.85 325.3 75.0 324.95 74.85 324.8 74.5 324.95 74.15 325.3 74.0 M333.65 74.15 L333.8 74.5 333.65 74.85 333.3 75.0 332.95 74.85 332.8 74.5 Q332.8 74.3 332.95 74.15 333.1 74.0 333.3 74.0 L333.65 74.15 M329.65 74.15 L329.8 74.5 329.65 74.85 329.3 75.0 328.95 74.85 328.8 74.5 328.95 74.15 Q329.1 74.0 329.3 74.0 L329.65 74.15 M341.65 74.15 L341.8 74.5 341.65 74.85 341.3 75.0 340.95 74.85 340.8 74.5 340.95 74.15 341.3 74.0 Q341.5 74.0 341.65 74.15 M337.65 74.15 L337.8 74.5 337.65 74.85 337.3 75.0 336.95 74.85 336.8 74.5 336.95 74.15 337.3 74.0 337.65 74.15 M325.5 94.15 Q325.65 94.0 325.85 94.0 326.05 94.0 326.2 94.15 L326.35 94.5 326.2 94.85 325.85 95.0 325.5 94.85 325.35 94.5 Q325.35 94.3 325.5 94.15 M333.5 94.15 Q333.65 94.0 333.85 94.0 L334.2 94.15 334.35 94.5 334.2 94.85 333.85 95.0 333.5 94.85 333.35 94.5 333.5 94.15 M329.5 94.15 Q329.65 94.0 329.85 94.0 330.05 94.0 330.2 94.15 L330.35 94.5 330.2 94.85 329.85 95.0 329.5 94.85 329.35 94.5 Q329.35 94.3 329.5 94.15 M352.95 94.65 Q353.1 94.5 353.3 94.5 353.5 94.5 353.65 94.65 L353.8 95.0 353.65 95.35 353.3 95.5 352.95 95.35 352.8 95.0 352.95 94.65 M356.95 94.65 Q357.1 94.5 357.3 94.5 L357.65 94.65 357.8 95.0 357.65 95.35 357.3 95.5 Q357.1 95.5 356.95 95.35 L356.8 95.0 356.95 94.65 M361.65 94.65 L361.8 95.0 361.65 95.35 361.3 95.5 360.95 95.35 360.8 95.0 360.95 94.65 Q361.1 94.5 361.3 94.5 L361.65 94.65 M365.3 74.0 Q365.5 74.0 365.65 74.15 L365.8 74.5 365.65 74.85 365.3 75.0 364.95 74.85 364.8 74.5 Q364.8 74.3 364.95 74.15 365.1 74.0 365.3 74.0 M373.65 74.15 L373.8 74.5 373.65 74.85 373.3 75.0 372.95 74.85 372.8 74.5 372.95 74.15 Q373.1 74.0 373.3 74.0 L373.65 74.15 M369.65 74.15 L369.8 74.5 369.65 74.85 369.3 75.0 368.95 74.85 368.8 74.5 Q368.8 74.3 368.95 74.15 369.1 74.0 369.3 74.0 369.5 74.0 369.65 74.15 M381.65 74.15 L381.8 74.5 381.65 74.85 381.3 75.0 380.95 74.85 380.8 74.5 Q380.8 74.3 380.95 74.15 381.1 74.0 381.3 74.0 381.5 74.0 381.65 74.15 M377.65 74.15 L377.8 74.5 377.65 74.85 377.3 75.0 376.95 74.85 376.8 74.5 Q376.8 74.3 376.95 74.15 377.1 74.0 377.3 74.0 377.5 74.0 377.65 74.15 M369.3 94.5 Q369.5 94.5 369.65 94.65 L369.8 95.0 369.65 95.35 369.3 95.5 368.95 95.35 368.8 95.0 Q368.8 94.8 368.95 94.65 369.1 94.5 369.3 94.5 M364.95 94.65 Q365.1 94.5 365.3 94.5 365.5 94.5 365.65 94.65 L365.8 95.0 365.65 95.35 365.3 95.5 364.95 95.35 364.8 95.0 Q364.8 94.8 364.95 94.65 M372.95 94.65 Q373.1 94.5 373.3 94.5 L373.65 94.65 373.8 95.0 373.65 95.35 373.3 95.5 372.95 95.35 372.8 95.0 372.95 94.65 M376.95 94.65 Q377.1 94.5 377.3 94.5 377.5 94.5 377.65 94.65 L377.8 95.0 377.65 95.35 377.3 95.5 376.95 95.35 376.8 95.0 Q376.8 94.8 376.95 94.65 M381.65 94.65 L381.8 95.0 381.65 95.35 381.3 95.5 380.95 95.35 380.8 95.0 Q380.8 94.8 380.95 94.65 381.1 94.5 381.3 94.5 381.5 94.5 381.65 94.65 M366.95 122.15 L367.3 122.0 367.65 122.15 367.8 122.5 367.65 122.85 367.3 123.0 366.95 122.85 366.8 122.5 366.95 122.15 M371.65 122.15 L371.8 122.5 371.65 122.85 371.3 123.0 370.95 122.85 370.8 122.5 370.95 122.15 Q371.1 122.0 371.3 122.0 L371.65 122.15 M374.95 122.15 Q375.1 122.0 375.3 122.0 L375.65 122.15 375.8 122.5 375.65 122.85 375.3 123.0 374.95 122.85 374.8 122.5 Q374.8 122.3 374.95 122.15 M379.65 122.15 L379.8 122.5 379.65 122.85 379.3 123.0 378.95 122.85 378.8 122.5 378.95 122.15 379.3 122.0 379.65 122.15 M383.65 122.15 L383.8 122.5 383.65 122.85 383.3 123.0 382.95 122.85 382.8 122.5 382.95 122.15 383.3 122.0 Q383.5 122.0 383.65 122.15 M346.95 122.15 Q347.1 122.0 347.3 122.0 347.5 122.0 347.65 122.15 L347.8 122.5 347.65 122.85 347.3 123.0 346.95 122.85 346.8 122.5 Q346.8 122.3 346.95 122.15 M351.65 122.15 L351.8 122.5 351.65 122.85 351.3 123.0 350.95 122.85 350.8 122.5 Q350.8 122.3 350.95 122.15 351.1 122.0 351.3 122.0 351.5 122.0 351.65 122.15 M354.95 122.15 L355.3 122.0 355.65 122.15 355.8 122.5 355.65 122.85 355.3 123.0 354.95 122.85 354.8 122.5 354.95 122.15 M359.3 122.0 L359.65 122.15 359.8 122.5 359.65 122.85 359.3 123.0 358.95 122.85 358.8 122.5 358.95 122.15 Q359.1 122.0 359.3 122.0 M362.95 122.15 Q363.1 122.0 363.3 122.0 L363.65 122.15 363.8 122.5 363.65 122.85 363.3 123.0 362.95 122.85 362.8 122.5 Q362.8 122.3 362.95 122.15 M326.95 122.15 Q327.1 122.0 327.3 122.0 327.5 122.0 327.65 122.15 L327.8 122.5 327.65 122.85 327.3 123.0 326.95 122.85 326.8 122.5 Q326.8 122.3 326.95 122.15 M331.65 122.15 L331.8 122.5 331.65 122.85 331.3 123.0 330.95 122.85 330.8 122.5 330.95 122.15 Q331.1 122.0 331.3 122.0 L331.65 122.15 M334.95 122.15 Q335.1 122.0 335.3 122.0 335.5 122.0 335.65 122.15 L335.8 122.5 335.65 122.85 335.3 123.0 334.95 122.85 334.8 122.5 Q334.8 122.3 334.95 122.15 M338.8 122.5 Q338.8 122.3 338.95 122.15 339.1 122.0 339.3 122.0 339.5 122.0 339.65 122.15 L339.8 122.5 339.65 122.85 339.3 123.0 338.95 122.85 338.8 122.5 M343.65 122.15 L343.8 122.5 343.65 122.85 343.3 123.0 342.95 122.85 342.8 122.5 342.95 122.15 Q343.1 122.0 343.3 122.0 L343.65 122.15 M359.85 150.95 L359.7 151.3 359.35 151.45 359.0 151.3 358.85 150.95 359.0 150.6 359.35 150.45 359.7 150.6 359.85 150.95 M355.0 150.6 Q355.15 150.45 355.35 150.45 L355.7 150.6 355.85 150.95 355.7 151.3 355.35 151.45 355.0 151.3 354.85 150.95 Q354.85 150.75 355.0 150.6 M351.7 150.6 L351.85 150.95 351.7 151.3 351.35 151.45 351.0 151.3 350.85 150.95 351.0 150.6 Q351.15 150.45 351.35 150.45 L351.7 150.6 M347.0 150.6 L347.35 150.45 347.7 150.6 347.85 150.95 347.7 151.3 347.35 151.45 347.0 151.3 346.85 150.95 347.0 150.6 M343.7 150.6 L343.85 150.95 343.7 151.3 343.35 151.45 343.0 151.3 342.85 150.95 Q342.85 150.75 343.0 150.6 343.15 150.45 343.35 150.45 L343.7 150.6 M339.85 150.95 L339.7 151.3 339.35 151.45 339.0 151.3 338.85 150.95 339.0 150.6 Q339.15 150.45 339.35 150.45 L339.7 150.6 339.85 150.95 M335.0 150.6 L335.35 150.45 335.7 150.6 335.85 150.95 335.7 151.3 335.35 151.45 335.0 151.3 334.85 150.95 335.0 150.6 M331.7 150.6 L331.85 150.95 331.7 151.3 331.35 151.45 331.0 151.3 330.85 150.95 Q330.85 150.75 331.0 150.6 331.15 150.45 331.35 150.45 331.55 150.45 331.7 150.6 M327.0 150.6 Q327.15 150.45 327.35 150.45 327.55 150.45 327.7 150.6 L327.85 150.95 327.7 151.3 327.35 151.45 327.0 151.3 326.85 150.95 Q326.85 150.75 327.0 150.6 M336.5 182.6 L336.85 182.45 337.2 182.6 337.35 182.95 337.2 183.3 336.85 183.45 336.5 183.3 336.35 182.95 336.5 182.6 M340.5 182.6 Q340.65 182.45 340.85 182.45 L341.2 182.6 341.35 182.95 341.2 183.3 340.85 183.45 340.5 183.3 340.35 182.95 340.5 182.6 M324.5 182.6 L324.85 182.45 325.2 182.6 325.35 182.95 325.2 183.3 324.85 183.45 324.5 183.3 324.35 182.95 324.5 182.6 M328.35 182.95 L328.5 182.6 Q328.65 182.45 328.85 182.45 L329.2 182.6 329.35 182.95 329.2 183.3 328.85 183.45 328.5 183.3 328.35 182.95 M332.5 182.6 Q332.65 182.45 332.85 182.45 L333.2 182.6 333.35 182.95 333.2 183.3 332.85 183.45 332.5 183.3 332.35 182.95 Q332.35 182.75 332.5 182.6 M356.5 182.6 Q356.65 182.45 356.85 182.45 L357.2 182.6 357.35 182.95 357.2 183.3 356.85 183.45 356.5 183.3 356.35 182.95 356.5 182.6 M361.2 182.6 L361.35 182.95 361.2 183.3 360.85 183.45 360.5 183.3 360.35 182.95 360.5 182.6 Q360.65 182.45 360.85 182.45 L361.2 182.6 M344.5 182.6 Q344.65 182.45 344.85 182.45 L345.2 182.6 345.35 182.95 345.2 183.3 344.85 183.45 344.5 183.3 344.35 182.95 Q344.35 182.75 344.5 182.6 M348.85 183.45 L348.5 183.3 348.35 182.95 348.5 182.6 348.85 182.45 349.2 182.6 349.35 182.95 349.2 183.3 348.85 183.45 M353.2 182.6 L353.35 182.95 353.2 183.3 352.85 183.45 352.5 183.3 352.35 182.95 352.5 182.6 352.85 182.45 Q353.05 182.45 353.2 182.6 M365.35 182.95 L365.2 183.3 364.85 183.45 364.5 183.3 364.35 182.95 364.5 182.6 Q364.65 182.45 364.85 182.45 365.05 182.45 365.2 182.6 L365.35 182.95 M368.85 183.45 Q368.65 183.45 368.5 183.3 L368.35 182.95 368.5 182.6 Q368.65 182.45 368.85 182.45 L369.2 182.6 369.35 182.95 369.2 183.3 368.85 183.45 M373.2 182.6 L373.35 182.95 373.2 183.3 372.85 183.45 372.5 183.3 372.35 182.95 372.5 182.6 Q372.65 182.45 372.85 182.45 L373.2 182.6 M370.3 215.4 L370.15 215.75 369.8 215.9 369.45 215.75 369.3 215.4 369.45 215.05 Q369.6 214.9 369.8 214.9 L370.15 215.05 370.3 215.4 M373.45 215.05 Q373.6 214.9 373.8 214.9 L374.15 215.05 374.3 215.4 374.15 215.75 373.8 215.9 373.45 215.75 373.3 215.4 Q373.3 215.2 373.45 215.05 M365.45 215.05 L365.8 214.9 366.15 215.05 366.3 215.4 366.15 215.75 365.8 215.9 365.45 215.75 365.3 215.4 365.45 215.05 M350.3 215.4 L350.15 215.75 349.8 215.9 349.45 215.75 349.3 215.4 Q349.3 215.2 349.45 215.05 349.6 214.9 349.8 214.9 350.0 214.9 350.15 215.05 L350.3 215.4 M353.45 215.05 Q353.6 214.9 353.8 214.9 L354.15 215.05 354.3 215.4 354.15 215.75 353.8 215.9 353.45 215.75 353.3 215.4 353.45 215.05 M345.45 215.05 Q345.6 214.9 345.8 214.9 346.0 214.9 346.15 215.05 L346.3 215.4 346.15 215.75 345.8 215.9 345.45 215.75 345.3 215.4 Q345.3 215.2 345.45 215.05 M362.15 215.05 L362.3 215.4 362.15 215.75 361.8 215.9 361.45 215.75 361.3 215.4 Q361.3 215.2 361.45 215.05 361.6 214.9 361.8 214.9 362.0 214.9 362.15 215.05 M357.45 215.05 Q357.6 214.9 357.8 214.9 358.0 214.9 358.15 215.05 L358.3 215.4 358.15 215.75 357.8 215.9 357.45 215.75 357.3 215.4 Q357.3 215.2 357.45 215.05 M329.45 215.05 Q329.6 214.9 329.8 214.9 L330.15 215.05 330.3 215.4 330.15 215.75 329.8 215.9 329.45 215.75 329.3 215.4 329.45 215.05 M333.45 215.05 Q333.6 214.9 333.8 214.9 334.0 214.9 334.15 215.05 L334.3 215.4 334.15 215.75 333.8 215.9 333.45 215.75 333.3 215.4 Q333.3 215.2 333.45 215.05 M325.45 215.05 Q325.6 214.9 325.8 214.9 L326.15 215.05 326.3 215.4 326.15 215.75 325.8 215.9 Q325.6 215.9 325.45 215.75 L325.3 215.4 325.45 215.05 M341.45 215.05 Q341.6 214.9 341.8 214.9 L342.15 215.05 342.3 215.4 342.15 215.75 341.8 215.9 341.45 215.75 341.3 215.4 341.45 215.05 M338.15 215.05 L338.3 215.4 338.15 215.75 337.8 215.9 337.45 215.75 337.3 215.4 Q337.3 215.2 337.45 215.05 337.6 214.9 337.8 214.9 338.0 214.9 338.15 215.05 M273.3 74.0 L273.65 74.15 273.8 74.5 273.65 74.85 273.3 75.0 Q273.1 75.0 272.95 74.85 L272.8 74.5 272.95 74.15 Q273.1 74.0 273.3 74.0 M277.3 74.0 L277.65 74.15 277.8 74.5 277.65 74.85 277.3 75.0 276.95 74.85 276.8 74.5 276.95 74.15 Q277.1 74.0 277.3 74.0 M281.3 74.0 Q281.5 74.0 281.65 74.15 L281.8 74.5 281.65 74.85 281.3 75.0 280.95 74.85 280.8 74.5 Q280.8 74.3 280.95 74.15 281.1 74.0 281.3 74.0 M256.05 74.7 Q256.2 74.55 256.4 74.55 L256.75 74.7 256.9 75.05 256.75 75.4 256.4 75.55 256.05 75.4 255.9 75.05 256.05 74.7 M252.05 74.7 L252.4 74.55 252.75 74.7 252.9 75.05 252.75 75.4 252.4 75.55 252.05 75.4 251.9 75.05 252.05 74.7 M248.9 75.05 L248.75 75.4 248.4 75.55 248.05 75.4 247.9 75.05 Q247.9 74.85 248.05 74.7 248.2 74.55 248.4 74.55 248.6 74.55 248.75 74.7 L248.9 75.05 M244.05 74.7 Q244.2 74.55 244.4 74.55 244.6 74.55 244.75 74.7 L244.9 75.05 244.75 75.4 244.4 75.55 244.05 75.4 243.9 75.05 Q243.9 74.85 244.05 74.7 M245.5 94.15 Q245.65 94.0 245.85 94.0 246.05 94.0 246.2 94.15 L246.35 94.5 246.2 94.85 245.85 95.0 245.5 94.85 245.35 94.5 Q245.35 94.3 245.5 94.15 M250.2 94.15 L250.35 94.5 250.2 94.85 249.85 95.0 249.5 94.85 249.35 94.5 249.5 94.15 Q249.65 94.0 249.85 94.0 L250.2 94.15 M257.85 94.0 Q258.05 94.0 258.2 94.15 L258.35 94.5 258.2 94.85 257.85 95.0 257.5 94.85 257.35 94.5 Q257.35 94.3 257.5 94.15 257.65 94.0 257.85 94.0 M253.5 94.15 Q253.65 94.0 253.85 94.0 254.05 94.0 254.2 94.15 L254.35 94.5 254.2 94.85 253.85 95.0 253.5 94.85 253.35 94.5 Q253.35 94.3 253.5 94.15 M261.5 94.15 L261.85 94.0 262.2 94.15 262.35 94.5 262.2 94.85 261.85 95.0 261.5 94.85 261.35 94.5 261.5 94.15 M265.5 94.15 Q265.65 94.0 265.85 94.0 L266.2 94.15 266.35 94.5 266.2 94.85 265.85 95.0 265.5 94.85 265.35 94.5 265.5 94.15 M270.2 94.15 L270.35 94.5 270.2 94.85 269.85 95.0 269.5 94.85 269.35 94.5 Q269.35 94.3 269.5 94.15 269.65 94.0 269.85 94.0 L270.2 94.15 M278.2 94.15 L278.35 94.5 278.2 94.85 277.85 95.0 277.5 94.85 277.35 94.5 277.5 94.15 Q277.65 94.0 277.85 94.0 L278.2 94.15 M274.35 94.5 L274.2 94.85 273.85 95.0 273.5 94.85 273.35 94.5 273.5 94.15 273.85 94.0 274.2 94.15 274.35 94.5 M282.2 94.15 L282.35 94.5 282.2 94.85 281.85 95.0 281.5 94.85 281.35 94.5 Q281.35 94.3 281.5 94.15 281.65 94.0 281.85 94.0 L282.2 94.15 M305.3 74.0 Q305.5 74.0 305.65 74.15 L305.8 74.5 305.65 74.85 305.3 75.0 304.95 74.85 304.8 74.5 Q304.8 74.3 304.95 74.15 305.1 74.0 305.3 74.0 M313.65 74.15 L313.8 74.5 313.65 74.85 313.3 75.0 312.95 74.85 312.8 74.5 312.95 74.15 313.3 74.0 313.65 74.15 M309.65 74.15 L309.8 74.5 309.65 74.85 309.3 75.0 308.95 74.85 308.8 74.5 Q308.8 74.3 308.95 74.15 309.1 74.0 309.3 74.0 309.5 74.0 309.65 74.15 M317.65 74.15 L317.8 74.5 317.65 74.85 317.3 75.0 316.95 74.85 316.8 74.5 316.95 74.15 Q317.1 74.0 317.3 74.0 L317.65 74.15 M321.3 74.0 L321.65 74.15 321.8 74.5 321.65 74.85 321.3 75.0 320.95 74.85 320.8 74.5 Q320.8 74.3 320.95 74.15 321.1 74.0 321.3 74.0 M285.3 74.0 Q285.5 74.0 285.65 74.15 L285.8 74.5 285.65 74.85 285.3 75.0 284.95 74.85 284.8 74.5 Q284.8 74.3 284.95 74.15 285.1 74.0 285.3 74.0 M293.3 74.0 Q293.5 74.0 293.65 74.15 L293.8 74.5 293.65 74.85 293.3 75.0 292.95 74.85 292.8 74.5 Q292.8 74.3 292.95 74.15 293.1 74.0 293.3 74.0 M289.65 74.15 L289.8 74.5 289.65 74.85 289.3 75.0 288.95 74.85 288.8 74.5 288.95 74.15 Q289.1 74.0 289.3 74.0 L289.65 74.15 M301.65 74.15 L301.8 74.5 301.65 74.85 301.3 75.0 300.95 74.85 300.8 74.5 300.95 74.15 Q301.1 74.0 301.3 74.0 L301.65 74.15 M297.65 74.15 L297.8 74.5 297.65 74.85 297.3 75.0 296.95 74.85 296.8 74.5 Q296.8 74.3 296.95 74.15 297.1 74.0 297.3 74.0 297.5 74.0 297.65 74.15 M285.5 94.15 L285.85 94.0 286.2 94.15 286.35 94.5 286.2 94.85 285.85 95.0 285.5 94.85 285.35 94.5 285.5 94.15 M293.5 94.15 Q293.65 94.0 293.85 94.0 L294.2 94.15 294.35 94.5 294.2 94.85 293.85 95.0 293.5 94.85 293.35 94.5 293.5 94.15 M289.5 94.15 L289.85 94.0 Q290.05 94.0 290.2 94.15 L290.35 94.5 290.2 94.85 289.85 95.0 289.5 94.85 289.35 94.5 289.5 94.15 M298.2 94.15 L298.35 94.5 298.2 94.85 297.85 95.0 297.5 94.85 297.35 94.5 297.5 94.15 Q297.65 94.0 297.85 94.0 L298.2 94.15 M302.2 94.15 L302.35 94.5 302.2 94.85 301.85 95.0 301.5 94.85 301.35 94.5 301.5 94.15 Q301.65 94.0 301.85 94.0 302.05 94.0 302.2 94.15 M305.5 94.15 Q305.65 94.0 305.85 94.0 L306.2 94.15 306.35 94.5 306.2 94.85 305.85 95.0 Q305.65 95.0 305.5 94.85 L305.35 94.5 305.5 94.15 M313.5 94.15 Q313.65 94.0 313.85 94.0 314.05 94.0 314.2 94.15 L314.35 94.5 314.2 94.85 313.85 95.0 313.5 94.85 313.35 94.5 Q313.35 94.3 313.5 94.15 M309.5 94.15 Q309.65 94.0 309.85 94.0 L310.2 94.15 310.35 94.5 310.2 94.85 309.85 95.0 309.5 94.85 309.35 94.5 309.5 94.15 M318.2 94.15 L318.35 94.5 318.2 94.85 317.85 95.0 317.5 94.85 317.35 94.5 Q317.35 94.3 317.5 94.15 317.65 94.0 317.85 94.0 318.05 94.0 318.2 94.15 M322.2 94.15 L322.35 94.5 322.2 94.85 321.85 95.0 321.5 94.85 321.35 94.5 321.5 94.15 Q321.65 94.0 321.85 94.0 L322.2 94.15 M180.05 74.7 L180.4 74.55 180.75 74.7 180.9 75.05 180.75 75.4 180.4 75.55 180.05 75.4 179.9 75.05 180.05 74.7 M176.75 74.7 L176.9 75.05 176.75 75.4 176.4 75.55 176.05 75.4 175.9 75.05 Q175.9 74.85 176.05 74.7 176.2 74.55 176.4 74.55 L176.75 74.7 M172.9 75.05 L172.75 75.4 172.4 75.55 172.05 75.4 171.9 75.05 172.05 74.7 Q172.2 74.55 172.4 74.55 L172.75 74.7 172.9 75.05 M168.05 74.7 L168.4 74.55 168.75 74.7 168.9 75.05 168.75 75.4 168.4 75.55 168.05 75.4 167.9 75.05 168.05 74.7 M164.05 74.7 Q164.2 74.55 164.4 74.55 164.6 74.55 164.75 74.7 L164.9 75.05 164.75 75.4 164.4 75.55 164.05 75.4 163.9 75.05 Q163.9 74.85 164.05 74.7 M166.3 94.15 L166.45 94.5 166.3 94.85 165.95 95.0 165.6 94.85 165.45 94.5 165.6 94.15 165.95 94.0 Q166.15 94.0 166.3 94.15 M162.45 94.5 L162.3 94.85 161.95 95.0 161.6 94.85 161.45 94.5 161.6 94.15 161.95 94.0 162.3 94.15 162.45 94.5 M170.3 94.15 L170.45 94.5 170.3 94.85 169.95 95.0 169.6 94.85 169.45 94.5 169.6 94.15 Q169.75 94.0 169.95 94.0 L170.3 94.15 M173.6 94.15 Q173.75 94.0 173.95 94.0 L174.3 94.15 174.45 94.5 174.3 94.85 173.95 95.0 173.6 94.85 173.45 94.5 173.6 94.15 M181.6 94.15 Q181.75 94.0 181.95 94.0 L182.3 94.15 182.45 94.5 182.3 94.85 181.95 95.0 Q181.75 95.0 181.6 94.85 L181.45 94.5 181.6 94.15 M177.6 94.15 Q177.75 94.0 177.95 94.0 178.15 94.0 178.3 94.15 L178.45 94.5 178.3 94.85 177.95 95.0 177.6 94.85 177.45 94.5 177.6 94.15 M200.75 74.7 L200.9 75.05 200.75 75.4 200.4 75.55 200.05 75.4 199.9 75.05 200.05 74.7 Q200.2 74.55 200.4 74.55 L200.75 74.7 M196.75 74.7 L196.9 75.05 196.75 75.4 196.4 75.55 196.05 75.4 195.9 75.05 196.05 74.7 196.4 74.55 Q196.6 74.55 196.75 74.7 M192.9 75.05 L192.75 75.4 192.4 75.55 192.05 75.4 191.9 75.05 192.05 74.7 192.4 74.55 192.75 74.7 192.9 75.05 M188.05 74.7 Q188.2 74.55 188.4 74.55 L188.75 74.7 188.9 75.05 188.75 75.4 188.4 75.55 188.05 75.4 187.9 75.05 Q187.9 74.85 188.05 74.7 M184.05 74.7 Q184.2 74.55 184.4 74.55 L184.75 74.7 184.9 75.05 184.75 75.4 184.4 75.55 184.05 75.4 183.9 75.05 184.05 74.7 M193.5 94.15 Q193.65 94.0 193.85 94.0 L194.2 94.15 194.35 94.5 194.2 94.85 193.85 95.0 193.5 94.85 193.35 94.5 193.5 94.15 M201.5 94.15 L201.85 94.0 202.2 94.15 202.35 94.5 202.2 94.85 201.85 95.0 201.5 94.85 201.35 94.5 201.5 94.15 M198.35 94.5 L198.2 94.85 197.85 95.0 197.5 94.85 197.35 94.5 Q197.35 94.3 197.5 94.15 197.65 94.0 197.85 94.0 L198.2 94.15 198.35 94.5 M220.05 74.7 Q220.2 74.55 220.4 74.55 220.6 74.55 220.75 74.7 L220.9 75.05 220.75 75.4 220.4 75.55 220.05 75.4 219.9 75.05 Q219.9 74.85 220.05 74.7 M216.75 74.7 L216.9 75.05 216.75 75.4 216.4 75.55 216.05 75.4 215.9 75.05 216.05 74.7 Q216.2 74.55 216.4 74.55 L216.75 74.7 M212.9 75.05 L212.75 75.4 212.4 75.55 Q212.2 75.55 212.05 75.4 L211.9 75.05 212.05 74.7 Q212.2 74.55 212.4 74.55 L212.75 74.7 212.9 75.05 M208.05 74.7 Q208.2 74.55 208.4 74.55 208.6 74.55 208.75 74.7 L208.9 75.05 208.75 75.4 208.4 75.55 208.05 75.4 207.9 75.05 208.05 74.7 M204.05 74.7 Q204.2 74.55 204.4 74.55 L204.75 74.7 204.9 75.05 204.75 75.4 204.4 75.55 204.05 75.4 203.9 75.05 204.05 74.7 M205.5 94.15 L205.85 94.0 Q206.05 94.0 206.2 94.15 L206.35 94.5 206.2 94.85 205.85 95.0 205.5 94.85 205.35 94.5 205.5 94.15 M210.2 94.15 L210.35 94.5 210.2 94.85 209.85 95.0 209.5 94.85 209.35 94.5 209.5 94.15 Q209.65 94.0 209.85 94.0 L210.2 94.15 M217.35 94.5 L217.5 94.15 Q217.65 94.0 217.85 94.0 218.05 94.0 218.2 94.15 L218.35 94.5 218.2 94.85 217.85 95.0 217.5 94.85 217.35 94.5 M213.5 94.15 Q213.65 94.0 213.85 94.0 L214.2 94.15 214.35 94.5 214.2 94.85 213.85 95.0 213.5 94.85 213.35 94.5 213.5 94.15 M221.5 94.15 Q221.65 94.0 221.85 94.0 L222.2 94.15 222.35 94.5 222.2 94.85 221.85 95.0 Q221.65 95.0 221.5 94.85 L221.35 94.5 221.5 94.15 M240.75 74.7 L240.9 75.05 240.75 75.4 240.4 75.55 240.05 75.4 239.9 75.05 240.05 74.7 Q240.2 74.55 240.4 74.55 L240.75 74.7 M236.05 74.7 Q236.2 74.55 236.4 74.55 236.6 74.55 236.75 74.7 L236.9 75.05 236.75 75.4 236.4 75.55 236.05 75.4 235.9 75.05 Q235.9 74.85 236.05 74.7 M232.05 74.7 Q232.2 74.55 232.4 74.55 232.6 74.55 232.75 74.7 L232.9 75.05 232.75 75.4 232.4 75.55 232.05 75.4 231.9 75.05 Q231.9 74.85 232.05 74.7 M228.05 74.7 Q228.2 74.55 228.4 74.55 L228.75 74.7 228.9 75.05 228.75 75.4 228.4 75.55 228.05 75.4 227.9 75.05 228.05 74.7 M224.05 74.7 Q224.2 74.55 224.4 74.55 224.6 74.55 224.75 74.7 L224.9 75.05 224.75 75.4 224.4 75.55 224.05 75.4 223.9 75.05 Q223.9 74.85 224.05 74.7 M225.5 94.15 Q225.65 94.0 225.85 94.0 L226.2 94.15 226.35 94.5 226.2 94.85 225.85 95.0 225.5 94.85 225.35 94.5 225.5 94.15 M230.2 94.15 L230.35 94.5 230.2 94.85 229.85 95.0 229.5 94.85 229.35 94.5 Q229.35 94.3 229.5 94.15 229.65 94.0 229.85 94.0 230.05 94.0 230.2 94.15 M237.85 94.0 L238.2 94.15 238.35 94.5 238.2 94.85 237.85 95.0 237.5 94.85 237.35 94.5 237.5 94.15 Q237.65 94.0 237.85 94.0 M233.5 94.15 Q233.65 94.0 233.85 94.0 234.05 94.0 234.2 94.15 L234.35 94.5 234.2 94.85 233.85 95.0 233.5 94.85 233.35 94.5 Q233.35 94.3 233.5 94.15 M241.5 94.15 Q241.65 94.0 241.85 94.0 242.05 94.0 242.2 94.15 L242.35 94.5 242.2 94.85 241.85 95.0 241.5 94.85 241.35 94.5 Q241.35 94.3 241.5 94.15 M224.05 122.15 Q224.2 122.0 224.4 122.0 224.6 122.0 224.75 122.15 L224.9 122.5 224.75 122.85 224.4 123.0 224.05 122.85 223.9 122.5 Q223.9 122.3 224.05 122.15 M228.05 122.15 Q228.2 122.0 228.4 122.0 L228.75 122.15 228.9 122.5 228.75 122.85 228.4 123.0 228.05 122.85 227.9 122.5 228.05 122.15 M232.05 122.15 Q232.2 122.0 232.4 122.0 232.6 122.0 232.75 122.15 L232.9 122.5 232.75 122.85 232.4 123.0 232.05 122.85 231.9 122.5 Q231.9 122.3 232.05 122.15 M236.05 122.15 Q236.2 122.0 236.4 122.0 236.6 122.0 236.75 122.15 L236.9 122.5 236.75 122.85 236.4 123.0 236.05 122.85 235.9 122.5 Q235.9 122.3 236.05 122.15 M240.75 122.15 L240.9 122.5 240.75 122.85 240.4 123.0 240.05 122.85 239.9 122.5 240.05 122.15 Q240.2 122.0 240.4 122.0 L240.75 122.15 M204.05 122.15 Q204.2 122.0 204.4 122.0 L204.75 122.15 204.9 122.5 204.75 122.85 204.4 123.0 204.05 122.85 203.9 122.5 204.05 122.15 M208.05 122.15 Q208.2 122.0 208.4 122.0 208.6 122.0 208.75 122.15 L208.9 122.5 208.75 122.85 208.4 123.0 208.05 122.85 207.9 122.5 208.05 122.15 M212.05 122.15 Q212.2 122.0 212.4 122.0 L212.75 122.15 212.9 122.5 212.75 122.85 212.4 123.0 Q212.2 123.0 212.05 122.85 L211.9 122.5 212.05 122.15 M216.75 122.15 L216.9 122.5 216.75 122.85 216.4 123.0 216.05 122.85 215.9 122.5 216.05 122.15 Q216.2 122.0 216.4 122.0 L216.75 122.15 M220.05 122.15 Q220.2 122.0 220.4 122.0 220.6 122.0 220.75 122.15 L220.9 122.5 220.75 122.85 220.4 123.0 220.05 122.85 219.9 122.5 Q219.9 122.3 220.05 122.15 M184.05 122.15 Q184.2 122.0 184.4 122.0 L184.75 122.15 184.9 122.5 184.75 122.85 184.4 123.0 184.05 122.85 183.9 122.5 184.05 122.15 M188.05 122.15 Q188.2 122.0 188.4 122.0 L188.75 122.15 188.9 122.5 188.75 122.85 188.4 123.0 188.05 122.85 187.9 122.5 Q187.9 122.3 188.05 122.15 M192.05 122.15 L192.4 122.0 192.75 122.15 192.9 122.5 192.75 122.85 192.4 123.0 192.05 122.85 191.9 122.5 192.05 122.15 M196.75 122.15 L196.9 122.5 196.75 122.85 196.4 123.0 196.05 122.85 195.9 122.5 196.05 122.15 196.4 122.0 Q196.6 122.0 196.75 122.15 M200.75 122.15 L200.9 122.5 200.75 122.85 200.4 123.0 200.05 122.85 199.9 122.5 200.05 122.15 Q200.2 122.0 200.4 122.0 L200.75 122.15 M164.05 122.15 Q164.2 122.0 164.4 122.0 164.6 122.0 164.75 122.15 L164.9 122.5 164.75 122.85 164.4 123.0 164.05 122.85 163.9 122.5 Q163.9 122.3 164.05 122.15 M168.05 122.15 L168.4 122.0 168.75 122.15 168.9 122.5 168.75 122.85 168.4 123.0 168.05 122.85 167.9 122.5 168.05 122.15 M172.05 122.15 Q172.2 122.0 172.4 122.0 L172.75 122.15 172.9 122.5 172.75 122.85 172.4 123.0 172.05 122.85 171.9 122.5 172.05 122.15 M176.75 122.15 L176.9 122.5 176.75 122.85 176.4 123.0 176.05 122.85 175.9 122.5 Q175.9 122.3 176.05 122.15 176.2 122.0 176.4 122.0 L176.75 122.15 M180.05 122.15 L180.4 122.0 180.75 122.15 180.9 122.5 180.75 122.85 180.4 123.0 180.05 122.85 179.9 122.5 180.05 122.15 M199.0 150.6 Q199.15 150.45 199.35 150.45 L199.7 150.6 199.85 150.95 199.7 151.3 199.35 151.45 199.0 151.3 198.85 150.95 199.0 150.6 M195.0 150.6 L195.35 150.45 Q195.55 150.45 195.7 150.6 L195.85 150.95 195.7 151.3 195.35 151.45 195.0 151.3 194.85 150.95 195.0 150.6 M177.7 151.6 Q177.85 151.45 178.05 151.45 178.25 151.45 178.4 151.6 L178.55 151.95 178.4 152.3 178.05 152.45 177.7 152.3 177.55 151.95 Q177.55 151.75 177.7 151.6 M174.4 151.6 L174.55 151.95 174.4 152.3 174.05 152.45 173.7 152.3 173.55 151.95 Q173.55 151.75 173.7 151.6 173.85 151.45 174.05 151.45 174.25 151.45 174.4 151.6 M169.7 151.6 Q169.85 151.45 170.05 151.45 L170.4 151.6 170.55 151.95 170.4 152.3 170.05 152.45 169.7 152.3 169.55 151.95 169.7 151.6 M162.05 152.45 L161.7 152.3 161.55 151.95 Q161.55 151.75 161.7 151.6 161.85 151.45 162.05 151.45 162.25 151.45 162.4 151.6 L162.55 151.95 162.4 152.3 162.05 152.45 M165.7 151.6 Q165.85 151.45 166.05 151.45 166.25 151.45 166.4 151.6 L166.55 151.95 166.4 152.3 166.05 152.45 165.7 152.3 165.55 151.95 Q165.55 151.75 165.7 151.6 M172.9 182.95 L172.75 183.3 172.4 183.45 172.05 183.3 171.9 182.95 172.05 182.6 Q172.2 182.45 172.4 182.45 L172.75 182.6 172.9 182.95 M176.4 183.45 L176.05 183.3 175.9 182.95 Q175.9 182.75 176.05 182.6 176.2 182.45 176.4 182.45 L176.75 182.6 176.9 182.95 176.75 183.3 176.4 183.45 M180.05 182.6 L180.4 182.45 180.75 182.6 180.9 182.95 180.75 183.3 180.4 183.45 180.05 183.3 179.9 182.95 180.05 182.6 M164.05 182.6 Q164.2 182.45 164.4 182.45 164.6 182.45 164.75 182.6 L164.9 182.95 164.75 183.3 164.4 183.45 164.05 183.3 163.9 182.95 Q163.9 182.75 164.05 182.6 M168.05 182.6 L168.4 182.45 168.75 182.6 168.9 182.95 168.75 183.3 168.4 183.45 168.05 183.3 167.9 182.95 168.05 182.6 M192.9 182.95 L192.75 183.3 192.4 183.45 192.05 183.3 191.9 182.95 192.05 182.6 192.4 182.45 192.75 182.6 192.9 182.95 M196.4 183.45 L196.05 183.3 195.9 182.95 196.05 182.6 196.4 182.45 Q196.6 182.45 196.75 182.6 L196.9 182.95 196.75 183.3 196.4 183.45 M200.75 182.6 L200.9 182.95 200.75 183.3 200.4 183.45 200.05 183.3 199.9 182.95 200.05 182.6 Q200.2 182.45 200.4 182.45 L200.75 182.6 M184.05 182.6 Q184.2 182.45 184.4 182.45 L184.75 182.6 184.9 182.95 184.75 183.3 184.4 183.45 184.05 183.3 183.9 182.95 184.05 182.6 M188.05 182.6 Q188.2 182.45 188.4 182.45 L188.75 182.6 188.9 182.95 188.75 183.3 188.4 183.45 188.05 183.3 187.9 182.95 Q187.9 182.75 188.05 182.6 M239.0 150.6 Q239.15 150.45 239.35 150.45 L239.7 150.6 239.85 150.95 239.7 151.3 239.35 151.45 239.0 151.3 238.85 150.95 239.0 150.6 M235.0 150.6 Q235.15 150.45 235.35 150.45 235.55 150.45 235.7 150.6 L235.85 150.95 235.7 151.3 235.35 151.45 235.0 151.3 234.85 150.95 Q234.85 150.75 235.0 150.6 M231.7 150.6 L231.85 150.95 231.7 151.3 231.35 151.45 231.0 151.3 230.85 150.95 Q230.85 150.75 231.0 150.6 231.15 150.45 231.35 150.45 231.55 150.45 231.7 150.6 M227.7 150.6 L227.85 150.95 227.7 151.3 227.35 151.45 227.0 151.3 226.85 150.95 227.0 150.6 Q227.15 150.45 227.35 150.45 L227.7 150.6 M223.0 150.6 Q223.15 150.45 223.35 150.45 223.55 150.45 223.7 150.6 L223.85 150.95 223.7 151.3 223.35 151.45 223.0 151.3 222.85 150.95 Q222.85 150.75 223.0 150.6 M219.0 150.6 Q219.15 150.45 219.35 150.45 219.55 150.45 219.7 150.6 L219.85 150.95 219.7 151.3 219.35 151.45 219.0 151.3 218.85 150.95 Q218.85 150.75 219.0 150.6 M215.0 150.6 Q215.15 150.45 215.35 150.45 L215.7 150.6 215.85 150.95 215.7 151.3 215.35 151.45 215.0 151.3 214.85 150.95 215.0 150.6 M211.0 150.6 Q211.15 150.45 211.35 150.45 L211.7 150.6 211.85 150.95 211.7 151.3 211.35 151.45 Q211.15 151.45 211.0 151.3 L210.85 150.95 211.0 150.6 M207.85 150.95 L207.7 151.3 207.35 151.45 207.0 151.3 206.85 150.95 207.0 150.6 Q207.15 150.45 207.35 150.45 207.55 150.45 207.7 150.6 L207.85 150.95 M203.0 150.6 Q203.15 150.45 203.35 150.45 L203.7 150.6 203.85 150.95 203.7 151.3 203.35 151.45 203.0 151.3 202.85 150.95 203.0 150.6 M212.9 182.95 L212.75 183.3 212.4 183.45 Q212.2 183.45 212.05 183.3 L211.9 182.95 212.05 182.6 Q212.2 182.45 212.4 182.45 L212.75 182.6 212.9 182.95 M216.4 183.45 L216.05 183.3 215.9 182.95 216.05 182.6 Q216.2 182.45 216.4 182.45 L216.75 182.6 216.9 182.95 216.75 183.3 216.4 183.45 M220.05 182.6 Q220.2 182.45 220.4 182.45 220.6 182.45 220.75 182.6 L220.9 182.95 220.75 183.3 220.4 183.45 220.05 183.3 219.9 182.95 Q219.9 182.75 220.05 182.6 M204.05 182.6 Q204.2 182.45 204.4 182.45 L204.75 182.6 204.9 182.95 204.75 183.3 204.4 183.45 204.05 183.3 203.9 182.95 204.05 182.6 M208.05 182.6 Q208.2 182.45 208.4 182.45 208.6 182.45 208.75 182.6 L208.9 182.95 208.75 183.3 208.4 183.45 208.05 183.3 207.9 182.95 208.05 182.6 M224.75 182.6 L224.9 182.95 224.75 183.3 224.4 183.45 224.05 183.3 223.9 182.95 Q223.9 182.75 224.05 182.6 224.2 182.45 224.4 182.45 224.6 182.45 224.75 182.6 M306.95 122.15 Q307.1 122.0 307.3 122.0 L307.65 122.15 307.8 122.5 307.65 122.85 307.3 123.0 306.95 122.85 306.8 122.5 306.95 122.15 M311.65 122.15 L311.8 122.5 311.65 122.85 311.3 123.0 310.95 122.85 310.8 122.5 310.95 122.15 Q311.1 122.0 311.3 122.0 311.5 122.0 311.65 122.15 M314.95 122.15 Q315.1 122.0 315.3 122.0 L315.65 122.15 315.8 122.5 315.65 122.85 315.3 123.0 Q315.1 123.0 314.95 122.85 L314.8 122.5 314.95 122.15 M319.8 122.5 L319.65 122.85 319.3 123.0 318.95 122.85 318.8 122.5 318.95 122.15 Q319.1 122.0 319.3 122.0 L319.65 122.15 319.8 122.5 M322.95 122.15 Q323.1 122.0 323.3 122.0 323.5 122.0 323.65 122.15 L323.8 122.5 323.65 122.85 323.3 123.0 322.95 122.85 322.8 122.5 Q322.8 122.3 322.95 122.15 M283.8 122.5 L283.65 122.85 283.3 123.0 282.95 122.85 282.8 122.5 282.95 122.15 283.3 122.0 283.65 122.15 283.8 122.5 M287.65 122.15 L287.8 122.5 287.65 122.85 287.3 123.0 286.95 122.85 286.8 122.5 286.95 122.15 Q287.1 122.0 287.3 122.0 L287.65 122.15 M291.65 122.15 L291.8 122.5 291.65 122.85 291.3 123.0 290.95 122.85 290.8 122.5 Q290.8 122.3 290.95 122.15 291.1 122.0 291.3 122.0 L291.65 122.15 M294.95 122.15 L295.3 122.0 295.65 122.15 295.8 122.5 295.65 122.85 295.3 123.0 294.95 122.85 294.8 122.5 294.95 122.15 M298.95 122.15 L299.3 122.0 Q299.5 122.0 299.65 122.15 L299.8 122.5 299.65 122.85 299.3 123.0 298.95 122.85 298.8 122.5 298.95 122.15 M303.65 122.15 L303.8 122.5 303.65 122.85 303.3 123.0 302.95 122.85 302.8 122.5 302.95 122.15 Q303.1 122.0 303.3 122.0 L303.65 122.15 M264.05 122.15 L264.4 122.0 264.75 122.15 264.9 122.5 264.75 122.85 264.4 123.0 264.05 122.85 263.9 122.5 264.05 122.15 M278.95 122.15 Q279.1 122.0 279.3 122.0 L279.65 122.15 279.8 122.5 279.65 122.85 279.3 123.0 278.95 122.85 278.8 122.5 Q278.8 122.3 278.95 122.15 M244.05 122.15 Q244.2 122.0 244.4 122.0 244.6 122.0 244.75 122.15 L244.9 122.5 244.75 122.85 244.4 123.0 244.05 122.85 243.9 122.5 Q243.9 122.3 244.05 122.15 M247.9 122.5 Q247.9 122.3 248.05 122.15 248.2 122.0 248.4 122.0 248.6 122.0 248.75 122.15 L248.9 122.5 248.75 122.85 248.4 123.0 248.05 122.85 247.9 122.5 M252.05 122.15 L252.4 122.0 252.75 122.15 252.9 122.5 252.75 122.85 252.4 123.0 252.05 122.85 251.9 122.5 252.05 122.15 M256.05 122.15 Q256.2 122.0 256.4 122.0 L256.75 122.15 256.9 122.5 256.75 122.85 256.4 123.0 256.05 122.85 255.9 122.5 256.05 122.15 M260.05 122.15 Q260.2 122.0 260.4 122.0 L260.75 122.15 260.9 122.5 260.75 122.85 260.4 123.0 260.05 122.85 259.9 122.5 Q259.9 122.3 260.05 122.15 M283.35 150.45 L283.7 150.6 283.85 150.95 283.7 151.3 283.35 151.45 283.0 151.3 282.85 150.95 283.0 150.6 Q283.15 150.45 283.35 150.45 M279.0 150.6 L279.35 150.45 Q279.55 150.45 279.7 150.6 L279.85 150.95 279.7 151.3 279.35 151.45 279.0 151.3 278.85 150.95 279.0 150.6 M275.0 150.6 L275.35 150.45 275.7 150.6 275.85 150.95 275.7 151.3 275.35 151.45 275.0 151.3 274.85 150.95 275.0 150.6 M271.7 150.6 L271.85 150.95 271.7 151.3 271.35 151.45 271.0 151.3 270.85 150.95 Q270.85 150.75 271.0 150.6 271.15 150.45 271.35 150.45 L271.7 150.6 M267.7 150.6 L267.85 150.95 267.7 151.3 267.35 151.45 267.0 151.3 266.85 150.95 267.0 150.6 Q267.15 150.45 267.35 150.45 L267.7 150.6 M263.85 150.95 L263.7 151.3 263.35 151.45 263.0 151.3 262.85 150.95 263.0 150.6 263.35 150.45 263.7 150.6 263.85 150.95 M259.0 150.6 Q259.15 150.45 259.35 150.45 L259.7 150.6 259.85 150.95 259.7 151.3 259.35 151.45 259.0 151.3 258.85 150.95 Q258.85 150.75 259.0 150.6 M255.0 150.6 Q255.15 150.45 255.35 150.45 L255.7 150.6 255.85 150.95 255.7 151.3 255.35 151.45 255.0 151.3 254.85 150.95 255.0 150.6 M251.7 150.6 L251.85 150.95 251.7 151.3 251.35 151.45 251.0 151.3 250.85 150.95 251.0 150.6 251.35 150.45 251.7 150.6 M247.7 150.6 L247.85 150.95 247.7 151.3 247.35 151.45 247.0 151.3 246.85 150.95 Q246.85 150.75 247.0 150.6 247.15 150.45 247.35 150.45 247.55 150.45 247.7 150.6 M243.85 150.95 L243.7 151.3 243.35 151.45 243.0 151.3 242.85 150.95 Q242.85 150.75 243.0 150.6 243.15 150.45 243.35 150.45 243.55 150.45 243.7 150.6 L243.85 150.95 M255.55 183.1 Q255.7 182.95 255.9 182.95 256.1 182.95 256.25 183.1 L256.4 183.45 256.25 183.8 255.9 183.95 255.55 183.8 255.4 183.45 Q255.4 183.25 255.55 183.1 M259.55 183.1 Q259.7 182.95 259.9 182.95 L260.25 183.1 260.4 183.45 260.25 183.8 259.9 183.95 259.55 183.8 259.4 183.45 259.55 183.1 M251.55 183.1 Q251.7 182.95 251.9 182.95 252.1 182.95 252.25 183.1 L252.4 183.45 252.25 183.8 251.9 183.95 251.55 183.8 251.4 183.45 Q251.4 183.25 251.55 183.1 M275.55 183.1 Q275.7 182.95 275.9 182.95 276.1 182.95 276.25 183.1 L276.4 183.45 276.25 183.8 275.9 183.95 275.55 183.8 275.4 183.45 Q275.4 183.25 275.55 183.1 M263.55 183.1 Q263.7 182.95 263.9 182.95 264.1 182.95 264.25 183.1 L264.4 183.45 264.25 183.8 263.9 183.95 263.55 183.8 263.4 183.45 Q263.4 183.25 263.55 183.1 M268.25 183.1 L268.4 183.45 268.25 183.8 267.9 183.95 267.55 183.8 267.4 183.45 Q267.4 183.25 267.55 183.1 267.7 182.95 267.9 182.95 268.1 182.95 268.25 183.1 M272.25 183.1 L272.4 183.45 272.25 183.8 271.9 183.95 271.55 183.8 271.4 183.45 271.55 183.1 Q271.7 182.95 271.9 182.95 L272.25 183.1 M323.7 150.6 L323.85 150.95 323.7 151.3 323.35 151.45 323.0 151.3 322.85 150.95 323.0 150.6 Q323.15 150.45 323.35 150.45 L323.7 150.6 M319.85 150.95 L319.7 151.3 319.35 151.45 319.0 151.3 318.85 150.95 Q318.85 150.75 319.0 150.6 319.15 150.45 319.35 150.45 319.55 150.45 319.7 150.6 L319.85 150.95 M315.0 150.6 Q315.15 150.45 315.35 150.45 315.55 150.45 315.7 150.6 L315.85 150.95 315.7 151.3 315.35 151.45 315.0 151.3 314.85 150.95 Q314.85 150.75 315.0 150.6 M311.7 150.6 L311.85 150.95 311.7 151.3 311.35 151.45 311.0 151.3 310.85 150.95 311.0 150.6 Q311.15 150.45 311.35 150.45 L311.7 150.6 M307.0 150.6 Q307.15 150.45 307.35 150.45 307.55 150.45 307.7 150.6 L307.85 150.95 307.7 151.3 307.35 151.45 307.0 151.3 306.85 150.95 Q306.85 150.75 307.0 150.6 M303.7 150.6 L303.85 150.95 303.7 151.3 303.35 151.45 303.0 151.3 302.85 150.95 Q302.85 150.75 303.0 150.6 303.15 150.45 303.35 150.45 303.55 150.45 303.7 150.6 M299.0 150.6 Q299.15 150.45 299.35 150.45 L299.7 150.6 299.85 150.95 299.7 151.3 299.35 151.45 299.0 151.3 298.85 150.95 299.0 150.6 M295.0 150.6 Q295.15 150.45 295.35 150.45 L295.7 150.6 295.85 150.95 295.7 151.3 295.35 151.45 Q295.15 151.45 295.0 151.3 L294.85 150.95 295.0 150.6 M291.7 150.6 L291.85 150.95 291.7 151.3 291.35 151.45 291.0 151.3 290.85 150.95 291.0 150.6 Q291.15 150.45 291.35 150.45 291.55 150.45 291.7 150.6 M287.7 150.6 L287.85 150.95 287.7 151.3 287.35 151.45 287.0 151.3 286.85 150.95 287.0 150.6 Q287.15 150.45 287.35 150.45 L287.7 150.6 M296.5 182.6 Q296.65 182.45 296.85 182.45 297.05 182.45 297.2 182.6 L297.35 182.95 297.2 183.3 296.85 183.45 296.5 183.3 296.35 182.95 Q296.35 182.75 296.5 182.6 M300.5 182.6 Q300.65 182.45 300.85 182.45 L301.2 182.6 301.35 182.95 301.2 183.3 300.85 183.45 300.5 183.3 300.35 182.95 300.5 182.6 M292.5 182.6 Q292.65 182.45 292.85 182.45 293.05 182.45 293.2 182.6 L293.35 182.95 293.2 183.3 292.85 183.45 292.5 183.3 292.35 182.95 Q292.35 182.75 292.5 182.6 M316.5 182.6 Q316.65 182.45 316.85 182.45 317.05 182.45 317.2 182.6 L317.35 182.95 317.2 183.3 316.85 183.45 316.5 183.3 316.35 182.95 Q316.35 182.75 316.5 182.6 M321.2 182.6 L321.35 182.95 321.2 183.3 320.85 183.45 320.5 183.3 320.35 182.95 Q320.35 182.75 320.5 182.6 320.65 182.45 320.85 182.45 321.05 182.45 321.2 182.6 M304.5 182.6 Q304.65 182.45 304.85 182.45 305.05 182.45 305.2 182.6 L305.35 182.95 305.2 183.3 304.85 183.45 304.5 183.3 304.35 182.95 Q304.35 182.75 304.5 182.6 M308.35 182.95 Q308.35 182.75 308.5 182.6 308.65 182.45 308.85 182.45 309.05 182.45 309.2 182.6 L309.35 182.95 309.2 183.3 308.85 183.45 308.5 183.3 308.35 182.95 M312.5 182.6 Q312.65 182.45 312.85 182.45 L313.2 182.6 313.35 182.95 313.2 183.3 312.85 183.45 312.5 183.3 312.35 182.95 312.5 182.6 M82.9 73.65 L83.05 74.0 82.9 74.35 82.55 74.5 82.2 74.35 82.05 74.0 82.2 73.65 Q82.35 73.5 82.55 73.5 L82.9 73.65 M100.05 74.7 Q100.2 74.55 100.4 74.55 L100.75 74.7 100.9 75.05 100.75 75.4 100.4 75.55 100.05 75.4 99.9 75.05 100.05 74.7 M96.9 75.05 L96.75 75.4 96.4 75.55 96.05 75.4 95.9 75.05 96.05 74.7 96.4 74.55 96.75 74.7 96.9 75.05 M85.95 94.0 L86.3 94.15 86.45 94.5 86.3 94.85 85.95 95.0 85.6 94.85 85.45 94.5 85.6 94.15 Q85.75 94.0 85.95 94.0 M81.6 94.15 L81.95 94.0 Q82.15 94.0 82.3 94.15 L82.45 94.5 82.3 94.85 81.95 95.0 81.6 94.85 81.45 94.5 81.6 94.15 M89.6 94.15 Q89.75 94.0 89.95 94.0 L90.3 94.15 90.45 94.5 90.3 94.85 89.95 95.0 89.6 94.85 89.45 94.5 89.6 94.15 M93.6 94.15 Q93.75 94.0 93.95 94.0 94.15 94.0 94.3 94.15 L94.45 94.5 94.3 94.85 93.95 95.0 93.6 94.85 93.45 94.5 93.6 94.15 M98.3 94.15 L98.45 94.5 98.3 94.85 97.95 95.0 Q97.75 95.0 97.6 94.85 L97.45 94.5 97.6 94.15 Q97.75 94.0 97.95 94.0 L98.3 94.15 M120.75 74.7 L120.9 75.05 120.75 75.4 120.4 75.55 120.05 75.4 119.9 75.05 120.05 74.7 Q120.2 74.55 120.4 74.55 L120.75 74.7 M116.9 75.05 L116.75 75.4 116.4 75.55 116.05 75.4 115.9 75.05 116.05 74.7 Q116.2 74.55 116.4 74.55 L116.75 74.7 116.9 75.05 M112.05 74.7 L112.4 74.55 Q112.6 74.55 112.75 74.7 L112.9 75.05 112.75 75.4 112.4 75.55 112.05 75.4 111.9 75.05 112.05 74.7 M108.75 74.7 L108.9 75.05 108.75 75.4 108.4 75.55 108.05 75.4 107.9 75.05 108.05 74.7 108.4 74.55 108.75 74.7 M104.05 74.7 Q104.2 74.55 104.4 74.55 L104.75 74.7 104.9 75.05 104.75 75.4 104.4 75.55 104.05 75.4 103.9 75.05 Q103.9 74.85 104.05 74.7 M106.3 94.15 L106.45 94.5 106.3 94.85 105.95 95.0 105.6 94.85 105.45 94.5 Q105.45 94.3 105.6 94.15 105.75 94.0 105.95 94.0 106.15 94.0 106.3 94.15 M101.6 94.15 Q101.75 94.0 101.95 94.0 L102.3 94.15 102.45 94.5 102.3 94.85 101.95 95.0 101.6 94.85 101.45 94.5 101.6 94.15 M110.3 94.15 L110.45 94.5 110.3 94.85 109.95 95.0 109.6 94.85 109.45 94.5 Q109.45 94.3 109.6 94.15 109.75 94.0 109.95 94.0 110.15 94.0 110.3 94.15 M113.6 94.15 Q113.75 94.0 113.95 94.0 L114.3 94.15 114.45 94.5 114.3 94.85 113.95 95.0 113.6 94.85 113.45 94.5 113.6 94.15 M118.3 94.15 L118.45 94.5 118.3 94.85 117.95 95.0 117.6 94.85 117.45 94.5 Q117.45 94.3 117.6 94.15 117.75 94.0 117.95 94.0 118.15 94.0 118.3 94.15 M140.75 74.7 L140.9 75.05 140.75 75.4 140.4 75.55 140.05 75.4 139.9 75.05 Q139.9 74.85 140.05 74.7 140.2 74.55 140.4 74.55 140.6 74.55 140.75 74.7 M136.9 75.05 L136.75 75.4 136.4 75.55 136.05 75.4 135.9 75.05 Q135.9 74.85 136.05 74.7 136.2 74.55 136.4 74.55 136.6 74.55 136.75 74.7 L136.9 75.05 M132.05 74.7 Q132.2 74.55 132.4 74.55 L132.75 74.7 132.9 75.05 132.75 75.4 132.4 75.55 132.05 75.4 131.9 75.05 132.05 74.7 M128.75 74.7 L128.9 75.05 128.75 75.4 128.4 75.55 Q128.2 75.55 128.05 75.4 L127.9 75.05 128.05 74.7 Q128.2 74.55 128.4 74.55 L128.75 74.7 M124.05 74.7 Q124.2 74.55 124.4 74.55 124.6 74.55 124.75 74.7 L124.9 75.05 124.75 75.4 124.4 75.55 124.05 75.4 123.9 75.05 124.05 74.7 M126.3 94.15 L126.45 94.5 126.3 94.85 125.95 95.0 125.6 94.85 125.45 94.5 125.6 94.15 Q125.75 94.0 125.95 94.0 L126.3 94.15 M122.45 94.5 L122.3 94.85 121.95 95.0 121.6 94.85 121.45 94.5 Q121.45 94.3 121.6 94.15 121.75 94.0 121.95 94.0 122.15 94.0 122.3 94.15 L122.45 94.5 M130.3 94.15 L130.45 94.5 130.3 94.85 129.95 95.0 129.6 94.85 129.45 94.5 Q129.45 94.3 129.6 94.15 129.75 94.0 129.95 94.0 130.15 94.0 130.3 94.15 M133.6 94.15 Q133.75 94.0 133.95 94.0 134.15 94.0 134.3 94.15 L134.45 94.5 134.3 94.85 133.95 95.0 133.6 94.85 133.45 94.5 Q133.45 94.3 133.6 94.15 M141.6 94.15 Q141.75 94.0 141.95 94.0 L142.3 94.15 142.45 94.5 142.3 94.85 141.95 95.0 141.6 94.85 141.45 94.5 141.6 94.15 M137.6 94.15 L137.95 94.0 138.3 94.15 138.45 94.5 138.3 94.85 137.95 95.0 137.6 94.85 137.45 94.5 137.6 94.15 M160.75 74.7 L160.9 75.05 160.75 75.4 160.4 75.55 160.05 75.4 159.9 75.05 Q159.9 74.85 160.05 74.7 160.2 74.55 160.4 74.55 160.6 74.55 160.75 74.7 M156.75 74.7 L156.9 75.05 156.75 75.4 156.4 75.55 156.05 75.4 155.9 75.05 156.05 74.7 Q156.2 74.55 156.4 74.55 L156.75 74.7 M152.05 74.7 Q152.2 74.55 152.4 74.55 152.6 74.55 152.75 74.7 L152.9 75.05 152.75 75.4 152.4 75.55 152.05 75.4 151.9 75.05 Q151.9 74.85 152.05 74.7 M148.75 74.7 L148.9 75.05 148.75 75.4 148.4 75.55 148.05 75.4 147.9 75.05 Q147.9 74.85 148.05 74.7 148.2 74.55 148.4 74.55 148.6 74.55 148.75 74.7 M144.05 74.7 Q144.2 74.55 144.4 74.55 L144.75 74.7 144.9 75.05 144.75 75.4 144.4 75.55 144.05 75.4 143.9 75.05 144.05 74.7 M146.3 94.15 L146.45 94.5 146.3 94.85 145.95 95.0 145.6 94.85 145.45 94.5 Q145.45 94.3 145.6 94.15 145.75 94.0 145.95 94.0 L146.3 94.15 M150.3 94.15 L150.45 94.5 150.3 94.85 149.95 95.0 149.6 94.85 149.45 94.5 149.6 94.15 149.95 94.0 150.3 94.15 M153.6 94.15 Q153.75 94.0 153.95 94.0 L154.3 94.15 154.45 94.5 154.3 94.85 153.95 95.0 153.6 94.85 153.45 94.5 153.6 94.15 M157.6 94.15 Q157.75 94.0 157.95 94.0 L158.3 94.15 158.45 94.5 158.3 94.85 157.95 95.0 157.6 94.85 157.45 94.5 Q157.45 94.3 157.6 94.15 M22.9 73.65 L23.05 74.0 22.9 74.35 22.55 74.5 22.2 74.35 22.05 74.0 22.2 73.65 Q22.35 73.5 22.55 73.5 22.75 73.5 22.9 73.65 M26.2 73.65 Q26.35 73.5 26.55 73.5 L26.9 73.65 27.05 74.0 26.9 74.35 26.55 74.5 Q26.35 74.5 26.2 74.35 L26.05 74.0 26.2 73.65 M30.2 73.65 Q30.35 73.5 30.55 73.5 L30.9 73.65 31.05 74.0 30.9 74.35 30.55 74.5 30.2 74.35 30.05 74.0 30.2 73.65 M34.9 73.65 L35.05 74.0 34.9 74.35 34.55 74.5 34.2 74.35 34.05 74.0 Q34.05 73.8 34.2 73.65 34.35 73.5 34.55 73.5 34.75 73.5 34.9 73.65 M38.2 73.65 Q38.35 73.5 38.55 73.5 38.75 73.5 38.9 73.65 L39.05 74.0 38.9 74.35 38.55 74.5 38.2 74.35 38.05 74.0 Q38.05 73.8 38.2 73.65 M17.6 94.15 Q17.75 94.0 17.95 94.0 L18.3 94.15 18.45 94.5 18.3 94.85 17.95 95.0 17.6 94.85 17.45 94.5 17.6 94.15 M21.6 94.15 Q21.75 94.0 21.95 94.0 22.15 94.0 22.3 94.15 L22.45 94.5 22.3 94.85 21.95 95.0 21.6 94.85 21.45 94.5 Q21.45 94.3 21.6 94.15 M29.6 94.15 Q29.75 94.0 29.95 94.0 L30.3 94.15 30.45 94.5 30.3 94.85 29.95 95.0 29.6 94.85 29.45 94.5 29.6 94.15 M25.6 94.15 Q25.75 94.0 25.95 94.0 26.15 94.0 26.3 94.15 L26.45 94.5 26.3 94.85 25.95 95.0 25.6 94.85 25.45 94.5 Q25.45 94.3 25.6 94.15 M33.6 94.15 Q33.75 94.0 33.95 94.0 34.15 94.0 34.3 94.15 L34.45 94.5 34.3 94.85 33.95 95.0 33.6 94.85 33.45 94.5 Q33.45 94.3 33.6 94.15 M38.3 94.15 L38.45 94.5 38.3 94.85 37.95 95.0 37.6 94.85 37.45 94.5 Q37.45 94.3 37.6 94.15 37.75 94.0 37.95 94.0 38.15 94.0 38.3 94.15 M62.2 73.65 Q62.35 73.5 62.55 73.5 62.75 73.5 62.9 73.65 L63.05 74.0 62.9 74.35 62.55 74.5 62.2 74.35 62.05 74.0 Q62.05 73.8 62.2 73.65 M70.2 73.65 Q70.35 73.5 70.55 73.5 L70.9 73.65 71.05 74.0 70.9 74.35 70.55 74.5 70.2 74.35 70.05 74.0 70.2 73.65 M66.2 73.65 L66.55 73.5 66.9 73.65 67.05 74.0 66.9 74.35 66.55 74.5 66.2 74.35 66.05 74.0 66.2 73.65 M74.9 73.65 L75.05 74.0 74.9 74.35 74.55 74.5 74.2 74.35 74.05 74.0 Q74.05 73.8 74.2 73.65 74.35 73.5 74.55 73.5 L74.9 73.65 M78.9 73.65 L79.05 74.0 78.9 74.35 78.55 74.5 78.2 74.35 78.05 74.0 78.2 73.65 78.55 73.5 78.9 73.65 M42.9 73.65 L43.05 74.0 42.9 74.35 42.55 74.5 42.2 74.35 42.05 74.0 42.2 73.65 Q42.35 73.5 42.55 73.5 L42.9 73.65 M50.2 73.65 Q50.35 73.5 50.55 73.5 50.75 73.5 50.9 73.65 L51.05 74.0 50.9 74.35 50.55 74.5 50.2 74.35 50.05 74.0 Q50.05 73.8 50.2 73.65 M46.2 73.65 Q46.35 73.5 46.55 73.5 46.75 73.5 46.9 73.65 L47.05 74.0 46.9 74.35 46.55 74.5 46.2 74.35 46.05 74.0 Q46.05 73.8 46.2 73.65 M54.9 73.65 L55.05 74.0 54.9 74.35 54.55 74.5 54.2 74.35 54.05 74.0 54.2 73.65 Q54.35 73.5 54.55 73.5 L54.9 73.65 M58.9 73.65 L59.05 74.0 58.9 74.35 58.55 74.5 58.2 74.35 58.05 74.0 Q58.05 73.8 58.2 73.65 58.35 73.5 58.55 73.5 58.75 73.5 58.9 73.65 M41.6 94.15 Q41.75 94.0 41.95 94.0 L42.3 94.15 42.45 94.5 42.3 94.85 41.95 95.0 41.6 94.85 41.45 94.5 41.6 94.15 M49.6 94.15 Q49.75 94.0 49.95 94.0 50.15 94.0 50.3 94.15 L50.45 94.5 50.3 94.85 49.95 95.0 49.6 94.85 49.45 94.5 Q49.45 94.3 49.6 94.15 M46.45 94.5 L46.3 94.85 45.95 95.0 45.6 94.85 45.45 94.5 Q45.45 94.3 45.6 94.15 45.75 94.0 45.95 94.0 46.15 94.0 46.3 94.15 L46.45 94.5 M53.6 94.15 L53.95 94.0 54.3 94.15 54.45 94.5 54.3 94.85 53.95 95.0 53.6 94.85 53.45 94.5 53.6 94.15 M58.3 94.15 L58.45 94.5 58.3 94.85 57.95 95.0 57.6 94.85 57.45 94.5 57.6 94.15 Q57.75 94.0 57.95 94.0 L58.3 94.15 M65.45 94.5 L65.6 94.15 65.95 94.0 66.3 94.15 66.45 94.5 66.3 94.85 65.95 95.0 65.6 94.85 65.45 94.5 M61.6 94.15 Q61.75 94.0 61.95 94.0 L62.3 94.15 62.45 94.5 62.3 94.85 61.95 95.0 61.6 94.85 61.45 94.5 Q61.45 94.3 61.6 94.15 M69.6 94.15 Q69.75 94.0 69.95 94.0 L70.3 94.15 70.45 94.5 70.3 94.85 69.95 95.0 69.6 94.85 69.45 94.5 69.6 94.15 M73.6 94.15 Q73.75 94.0 73.95 94.0 L74.3 94.15 74.45 94.5 74.3 94.85 73.95 95.0 73.6 94.85 73.45 94.5 Q73.45 94.3 73.6 94.15 M78.3 94.15 L78.45 94.5 78.3 94.85 77.95 95.0 77.6 94.85 77.45 94.5 77.6 94.15 77.95 94.0 78.3 94.15 M61.4 121.6 L61.55 121.95 61.4 122.3 61.05 122.45 60.7 122.3 60.55 121.95 Q60.55 121.75 60.7 121.6 60.85 121.45 61.05 121.45 61.25 121.45 61.4 121.6 M64.7 121.6 Q64.85 121.45 65.05 121.45 L65.4 121.6 65.55 121.95 65.4 122.3 65.05 122.45 64.7 122.3 64.55 121.95 64.7 121.6 M68.7 121.6 Q68.85 121.45 69.05 121.45 69.25 121.45 69.4 121.6 L69.55 121.95 69.4 122.3 69.05 122.45 68.7 122.3 68.55 121.95 Q68.55 121.75 68.7 121.6 M73.4 121.6 L73.55 121.95 73.4 122.3 73.05 122.45 72.7 122.3 72.55 121.95 Q72.55 121.75 72.7 121.6 72.85 121.45 73.05 121.45 73.25 121.45 73.4 121.6 M76.7 121.6 L77.05 121.45 77.4 121.6 77.55 121.95 77.4 122.3 77.05 122.45 76.7 122.3 76.55 121.95 76.7 121.6 M40.7 121.6 Q40.85 121.45 41.05 121.45 L41.4 121.6 41.55 121.95 41.4 122.3 41.05 122.45 40.7 122.3 40.55 121.95 40.7 121.6 M44.7 121.6 Q44.85 121.45 45.05 121.45 45.25 121.45 45.4 121.6 L45.55 121.95 45.4 122.3 45.05 122.45 44.7 122.3 44.55 121.95 Q44.55 121.75 44.7 121.6 M48.7 121.6 Q48.85 121.45 49.05 121.45 49.25 121.45 49.4 121.6 L49.55 121.95 49.4 122.3 49.05 122.45 48.7 122.3 48.55 121.95 Q48.55 121.75 48.7 121.6 M53.4 121.6 L53.55 121.95 53.4 122.3 53.05 122.45 52.7 122.3 52.55 121.95 52.7 121.6 Q52.85 121.45 53.05 121.45 L53.4 121.6 M57.4 121.6 L57.55 121.95 57.4 122.3 57.05 122.45 56.7 122.3 56.55 121.95 Q56.55 121.75 56.7 121.6 56.85 121.45 57.05 121.45 57.25 121.45 57.4 121.6 M25.05 121.45 L25.4 121.6 25.55 121.95 25.4 122.3 25.05 122.45 24.7 122.3 24.55 121.95 24.7 121.6 Q24.85 121.45 25.05 121.45 M28.7 121.6 Q28.85 121.45 29.05 121.45 L29.4 121.6 29.55 121.95 29.4 122.3 29.05 122.45 28.7 122.3 28.55 121.95 28.7 121.6 M33.4 121.6 L33.55 121.95 33.4 122.3 33.05 122.45 32.7 122.3 32.55 121.95 32.7 121.6 Q32.85 121.45 33.05 121.45 33.25 121.45 33.4 121.6 M36.7 121.6 Q36.85 121.45 37.05 121.45 L37.4 121.6 37.55 121.95 37.4 122.3 37.05 122.45 Q36.85 122.45 36.7 122.3 L36.55 121.95 36.7 121.6 M37.7 151.6 L38.05 151.45 38.4 151.6 38.55 151.95 38.4 152.3 38.05 152.45 37.7 152.3 37.55 151.95 37.7 151.6 M13.95 184.6 L14.1 184.95 13.95 185.3 13.6 185.45 13.25 185.3 13.1 184.95 13.25 184.6 Q13.4 184.45 13.6 184.45 L13.95 184.6 M17.25 184.6 Q17.4 184.45 17.6 184.45 17.8 184.45 17.95 184.6 L18.1 184.95 17.95 185.3 17.6 185.45 17.25 185.3 17.1 184.95 Q17.1 184.75 17.25 184.6 M33.95 184.6 L34.1 184.95 33.95 185.3 33.6 185.45 33.25 185.3 33.1 184.95 Q33.1 184.75 33.25 184.6 33.4 184.45 33.6 184.45 L33.95 184.6 M37.25 184.6 L37.6 184.45 37.95 184.6 38.1 184.95 37.95 185.3 37.6 185.45 37.25 185.3 37.1 184.95 37.25 184.6 M21.95 184.6 L22.1 184.95 21.95 185.3 21.6 185.45 21.25 185.3 21.1 184.95 Q21.1 184.75 21.25 184.6 21.4 184.45 21.6 184.45 21.8 184.45 21.95 184.6 M25.25 184.6 L25.6 184.45 25.95 184.6 26.1 184.95 25.95 185.3 25.6 185.45 25.25 185.3 25.1 184.95 25.25 184.6 M29.25 184.6 Q29.4 184.45 29.6 184.45 L29.95 184.6 30.1 184.95 29.95 185.3 29.6 185.45 29.25 185.3 29.1 184.95 29.25 184.6 M77.7 151.6 Q77.85 151.45 78.05 151.45 78.25 151.45 78.4 151.6 L78.55 151.95 78.4 152.3 78.05 152.45 77.7 152.3 77.55 151.95 Q77.55 151.75 77.7 151.6 M74.4 151.6 L74.55 151.95 74.4 152.3 74.05 152.45 73.7 152.3 73.55 151.95 73.7 151.6 Q73.85 151.45 74.05 151.45 L74.4 151.6 M66.05 152.45 L65.7 152.3 65.55 151.95 Q65.55 151.75 65.7 151.6 65.85 151.45 66.05 151.45 66.25 151.45 66.4 151.6 L66.55 151.95 66.4 152.3 66.05 152.45 M69.7 151.6 Q69.85 151.45 70.05 151.45 70.25 151.45 70.4 151.6 L70.55 151.95 70.4 152.3 70.05 152.45 69.7 152.3 69.55 151.95 Q69.55 151.75 69.7 151.6 M62.05 152.45 L61.7 152.3 61.55 151.95 61.7 151.6 Q61.85 151.45 62.05 151.45 L62.4 151.6 62.55 151.95 62.4 152.3 62.05 152.45 M57.7 151.6 Q57.85 151.45 58.05 151.45 L58.4 151.6 58.55 151.95 58.4 152.3 58.05 152.45 Q57.85 152.45 57.7 152.3 L57.55 151.95 57.7 151.6 M54.4 151.6 L54.55 151.95 54.4 152.3 54.05 152.45 53.7 152.3 53.55 151.95 53.7 151.6 Q53.85 151.45 54.05 151.45 54.25 151.45 54.4 151.6 M46.05 152.45 L45.7 152.3 45.55 151.95 45.7 151.6 Q45.85 151.45 46.05 151.45 L46.4 151.6 46.55 151.95 46.4 152.3 46.05 152.45 M49.7 151.6 Q49.85 151.45 50.05 151.45 L50.4 151.6 50.55 151.95 50.4 152.3 50.05 152.45 49.7 152.3 49.55 151.95 49.7 151.6 M41.7 151.6 L42.05 151.45 Q42.25 151.45 42.4 151.6 L42.55 151.95 42.4 152.3 42.05 152.45 41.7 152.3 41.55 151.95 41.7 151.6 M53.95 184.6 L54.1 184.95 53.95 185.3 53.6 185.45 53.25 185.3 53.1 184.95 53.25 184.6 53.6 184.45 Q53.8 184.45 53.95 184.6 M57.25 184.6 Q57.4 184.45 57.6 184.45 L57.95 184.6 58.1 184.95 57.95 185.3 57.6 185.45 57.25 185.3 57.1 184.95 57.25 184.6 M41.25 184.6 Q41.4 184.45 41.6 184.45 L41.95 184.6 42.1 184.95 41.95 185.3 41.6 185.45 41.25 185.3 41.1 184.95 41.25 184.6 M45.25 184.6 Q45.4 184.45 45.6 184.45 L45.95 184.6 46.1 184.95 45.95 185.3 45.6 185.45 45.25 185.3 45.1 184.95 Q45.1 184.75 45.25 184.6 M49.25 184.6 L49.6 184.45 49.95 184.6 50.1 184.95 49.95 185.3 49.6 185.45 49.25 185.3 49.1 184.95 49.25 184.6 M61.25 184.6 Q61.4 184.45 61.6 184.45 L61.95 184.6 62.1 184.95 61.95 185.3 61.6 185.45 61.25 185.3 61.1 184.95 61.25 184.6 M144.05 122.15 Q144.2 122.0 144.4 122.0 L144.75 122.15 144.9 122.5 144.75 122.85 144.4 123.0 144.05 122.85 143.9 122.5 144.05 122.15 M148.75 122.15 L148.9 122.5 148.75 122.85 148.4 123.0 148.05 122.85 147.9 122.5 Q147.9 122.3 148.05 122.15 148.2 122.0 148.4 122.0 148.6 122.0 148.75 122.15 M152.05 122.15 Q152.2 122.0 152.4 122.0 152.6 122.0 152.75 122.15 L152.9 122.5 152.75 122.85 152.4 123.0 152.05 122.85 151.9 122.5 Q151.9 122.3 152.05 122.15 M156.75 122.15 L156.9 122.5 156.75 122.85 156.4 123.0 156.05 122.85 155.9 122.5 156.05 122.15 Q156.2 122.0 156.4 122.0 L156.75 122.15 M160.75 122.15 L160.9 122.5 160.75 122.85 160.4 123.0 160.05 122.85 159.9 122.5 Q159.9 122.3 160.05 122.15 160.2 122.0 160.4 122.0 160.6 122.0 160.75 122.15 M124.05 122.15 Q124.2 122.0 124.4 122.0 124.6 122.0 124.75 122.15 L124.9 122.5 124.75 122.85 124.4 123.0 124.05 122.85 123.9 122.5 124.05 122.15 M128.75 122.15 L128.9 122.5 128.75 122.85 128.4 123.0 Q128.2 123.0 128.05 122.85 L127.9 122.5 128.05 122.15 Q128.2 122.0 128.4 122.0 L128.75 122.15 M132.05 122.15 Q132.2 122.0 132.4 122.0 L132.75 122.15 132.9 122.5 132.75 122.85 132.4 123.0 132.05 122.85 131.9 122.5 132.05 122.15 M136.4 122.0 Q136.6 122.0 136.75 122.15 L136.9 122.5 136.75 122.85 136.4 123.0 136.05 122.85 135.9 122.5 Q135.9 122.3 136.05 122.15 136.2 122.0 136.4 122.0 M140.75 122.15 L140.9 122.5 140.75 122.85 140.4 123.0 140.05 122.85 139.9 122.5 Q139.9 122.3 140.05 122.15 140.2 122.0 140.4 122.0 140.6 122.0 140.75 122.15 M104.05 122.15 Q104.2 122.0 104.4 122.0 L104.75 122.15 104.9 122.5 104.75 122.85 104.4 123.0 104.05 122.85 103.9 122.5 Q103.9 122.3 104.05 122.15 M108.75 122.15 L108.9 122.5 108.75 122.85 108.4 123.0 108.05 122.85 107.9 122.5 108.05 122.15 108.4 122.0 108.75 122.15 M112.05 122.15 L112.4 122.0 Q112.6 122.0 112.75 122.15 L112.9 122.5 112.75 122.85 112.4 123.0 112.05 122.85 111.9 122.5 112.05 122.15 M116.4 122.0 L116.75 122.15 116.9 122.5 116.75 122.85 116.4 123.0 116.05 122.85 115.9 122.5 116.05 122.15 Q116.2 122.0 116.4 122.0 M120.05 122.15 Q120.2 122.0 120.4 122.0 L120.75 122.15 120.9 122.5 120.75 122.85 120.4 123.0 120.05 122.85 119.9 122.5 120.05 122.15 M92.05 122.15 Q92.2 122.0 92.4 122.0 L92.75 122.15 92.9 122.5 92.75 122.85 92.4 123.0 92.05 122.85 91.9 122.5 Q91.9 122.3 92.05 122.15 M95.9 122.5 L96.05 122.15 96.4 122.0 96.75 122.15 96.9 122.5 96.75 122.85 96.4 123.0 96.05 122.85 95.9 122.5 M100.75 122.15 L100.9 122.5 100.75 122.85 100.4 123.0 100.05 122.85 99.9 122.5 100.05 122.15 Q100.2 122.0 100.4 122.0 L100.75 122.15 M117.7 151.6 Q117.85 151.45 118.05 151.45 L118.4 151.6 118.55 151.95 118.4 152.3 118.05 152.45 117.7 152.3 117.55 151.95 Q117.55 151.75 117.7 151.6 M114.4 151.6 L114.55 151.95 114.4 152.3 114.05 152.45 113.7 152.3 113.55 151.95 113.7 151.6 Q113.85 151.45 114.05 151.45 L114.4 151.6 M106.4 152.3 L106.05 152.45 105.7 152.3 105.55 151.95 Q105.55 151.75 105.7 151.6 105.85 151.45 106.05 151.45 L106.4 151.6 106.55 151.95 106.4 152.3 M109.7 151.6 L110.05 151.45 110.4 151.6 110.55 151.95 110.4 152.3 110.05 152.45 109.7 152.3 109.55 151.95 109.7 151.6 M102.05 152.45 L101.7 152.3 101.55 151.95 101.7 151.6 Q101.85 151.45 102.05 151.45 L102.4 151.6 102.55 151.95 102.4 152.3 102.05 152.45 M97.7 151.6 L98.05 151.45 98.4 151.6 98.55 151.95 98.4 152.3 98.05 152.45 97.7 152.3 97.55 151.95 97.7 151.6 M94.4 151.6 L94.55 151.95 94.4 152.3 94.05 152.45 93.7 152.3 93.55 151.95 Q93.55 151.75 93.7 151.6 93.85 151.45 94.05 151.45 94.25 151.45 94.4 151.6 M86.4 152.3 L86.05 152.45 85.7 152.3 85.55 151.95 85.7 151.6 Q85.85 151.45 86.05 151.45 L86.4 151.6 86.55 151.95 86.4 152.3 M89.7 151.6 Q89.85 151.45 90.05 151.45 90.25 151.45 90.4 151.6 L90.55 151.95 90.4 152.3 90.05 152.45 89.7 152.3 89.55 151.95 Q89.55 151.75 89.7 151.6 M82.05 152.45 L81.7 152.3 81.55 151.95 Q81.55 151.75 81.7 151.6 81.85 151.45 82.05 151.45 82.25 151.45 82.4 151.6 L82.55 151.95 82.4 152.3 82.05 152.45 M92.05 182.6 Q92.2 182.45 92.4 182.45 L92.75 182.6 92.9 182.95 92.75 183.3 92.4 183.45 92.05 183.3 91.9 182.95 Q91.9 182.75 92.05 182.6 M95.9 182.95 L96.05 182.6 96.4 182.45 96.75 182.6 96.9 182.95 96.75 183.3 96.4 183.45 96.05 183.3 95.9 182.95 M100.4 183.45 L100.05 183.3 99.9 182.95 100.05 182.6 Q100.2 182.45 100.4 182.45 L100.75 182.6 100.9 182.95 100.75 183.3 100.4 183.45 M88.05 182.6 Q88.2 182.45 88.4 182.45 L88.75 182.6 88.9 182.95 88.75 183.3 88.4 183.45 88.05 183.3 87.9 182.95 88.05 182.6 M112.05 182.6 L112.4 182.45 Q112.6 182.45 112.75 182.6 L112.9 182.95 112.75 183.3 112.4 183.45 112.05 183.3 111.9 182.95 112.05 182.6 M115.9 182.95 L116.05 182.6 Q116.2 182.45 116.4 182.45 L116.75 182.6 116.9 182.95 116.75 183.3 116.4 183.45 116.05 183.3 115.9 182.95 M120.05 182.6 Q120.2 182.45 120.4 182.45 L120.75 182.6 120.9 182.95 120.75 183.3 120.4 183.45 120.05 183.3 119.9 182.95 120.05 182.6 M104.05 182.6 Q104.2 182.45 104.4 182.45 L104.75 182.6 104.9 182.95 104.75 183.3 104.4 183.45 104.05 183.3 103.9 182.95 Q103.9 182.75 104.05 182.6 M108.75 182.6 L108.9 182.95 108.75 183.3 108.4 183.45 108.05 183.3 107.9 182.95 108.05 182.6 108.4 182.45 108.75 182.6 M158.05 152.45 L157.7 152.3 157.55 151.95 157.7 151.6 Q157.85 151.45 158.05 151.45 L158.4 151.6 158.55 151.95 158.4 152.3 158.05 152.45 M154.4 151.6 L154.55 151.95 154.4 152.3 154.05 152.45 153.7 152.3 153.55 151.95 Q153.55 151.75 153.7 151.6 153.85 151.45 154.05 151.45 154.25 151.45 154.4 151.6 M149.7 151.6 Q149.85 151.45 150.05 151.45 150.25 151.45 150.4 151.6 L150.55 151.95 150.4 152.3 150.05 152.45 149.7 152.3 149.55 151.95 Q149.55 151.75 149.7 151.6 M142.05 152.45 Q141.85 152.45 141.7 152.3 L141.55 151.95 141.7 151.6 Q141.85 151.45 142.05 151.45 L142.4 151.6 142.55 151.95 142.4 152.3 142.05 152.45 M145.7 151.6 Q145.85 151.45 146.05 151.45 L146.4 151.6 146.55 151.95 146.4 152.3 146.05 152.45 145.7 152.3 145.55 151.95 145.7 151.6 M138.05 152.45 L137.7 152.3 137.55 151.95 137.7 151.6 Q137.85 151.45 138.05 151.45 138.25 151.45 138.4 151.6 L138.55 151.95 138.4 152.3 138.05 152.45 M134.4 151.6 L134.55 151.95 134.4 152.3 134.05 152.45 133.7 152.3 133.55 151.95 133.7 151.6 Q133.85 151.45 134.05 151.45 L134.4 151.6 M129.7 151.6 Q129.85 151.45 130.05 151.45 L130.4 151.6 130.55 151.95 130.4 152.3 130.05 152.45 129.7 152.3 129.55 151.95 129.7 151.6 M122.05 152.45 L121.7 152.3 121.55 151.95 121.7 151.6 122.05 151.45 122.4 151.6 122.55 151.95 122.4 152.3 122.05 152.45 M125.7 151.6 L126.05 151.45 Q126.25 151.45 126.4 151.6 L126.55 151.95 126.4 152.3 126.05 152.45 125.7 152.3 125.55 151.95 125.7 151.6 M132.05 182.6 Q132.2 182.45 132.4 182.45 L132.75 182.6 132.9 182.95 132.75 183.3 132.4 183.45 132.05 183.3 131.9 182.95 132.05 182.6 M135.9 182.95 Q135.9 182.75 136.05 182.6 136.2 182.45 136.4 182.45 136.6 182.45 136.75 182.6 L136.9 182.95 136.75 183.3 136.4 183.45 136.05 183.3 135.9 182.95 M140.4 183.45 L140.05 183.3 139.9 182.95 Q139.9 182.75 140.05 182.6 140.2 182.45 140.4 182.45 140.6 182.45 140.75 182.6 L140.9 182.95 140.75 183.3 140.4 183.45 M124.05 182.6 Q124.2 182.45 124.4 182.45 124.6 182.45 124.75 182.6 L124.9 182.95 124.75 183.3 124.4 183.45 124.05 183.3 123.9 182.95 124.05 182.6 M128.75 182.6 L128.9 182.95 128.75 183.3 128.4 183.45 Q128.2 183.45 128.05 183.3 L127.9 182.95 128.05 182.6 Q128.2 182.45 128.4 182.45 L128.75 182.6 M152.05 182.6 Q152.2 182.45 152.4 182.45 152.6 182.45 152.75 182.6 L152.9 182.95 152.75 183.3 152.4 183.45 152.05 183.3 151.9 182.95 Q151.9 182.75 152.05 182.6 M156.4 183.45 L156.05 183.3 155.9 182.95 156.05 182.6 Q156.2 182.45 156.4 182.45 L156.75 182.6 156.9 182.95 156.75 183.3 156.4 183.45 M160.75 182.6 L160.9 182.95 160.75 183.3 160.4 183.45 160.05 183.3 159.9 182.95 Q159.9 182.75 160.05 182.6 160.2 182.45 160.4 182.45 160.6 182.45 160.75 182.6 M144.05 182.6 Q144.2 182.45 144.4 182.45 L144.75 182.6 144.9 182.95 144.75 183.3 144.4 183.45 144.05 183.3 143.9 182.95 144.05 182.6 M148.75 182.6 L148.9 182.95 148.75 183.3 148.4 183.45 148.05 183.3 147.9 182.95 Q147.9 182.75 148.05 182.6 148.2 182.45 148.4 182.45 148.6 182.45 148.75 182.6 M149.25 213.55 Q149.4 213.4 149.6 213.4 149.8 213.4 149.95 213.55 L150.1 213.9 149.95 214.25 149.6 214.4 149.25 214.25 149.1 213.9 149.25 213.55 M141.95 214.25 L141.6 214.4 141.25 214.25 141.1 213.9 141.25 213.55 Q141.4 213.4 141.6 213.4 L141.95 213.55 142.1 213.9 141.95 214.25 M145.25 213.55 Q145.4 213.4 145.6 213.4 L145.95 213.55 146.1 213.9 145.95 214.25 145.6 214.4 145.25 214.25 145.1 213.9 145.25 213.55 M157.6 214.4 L157.25 214.25 157.1 213.9 157.25 213.55 Q157.4 213.4 157.6 213.4 L157.95 213.55 158.1 213.9 157.95 214.25 157.6 214.4 M161.25 213.55 Q161.4 213.4 161.6 213.4 161.8 213.4 161.95 213.55 L162.1 213.9 161.95 214.25 161.6 214.4 161.25 214.25 161.1 213.9 Q161.1 213.7 161.25 213.55 M153.95 213.55 L154.1 213.9 153.95 214.25 153.6 214.4 Q153.4 214.4 153.25 214.25 L153.1 213.9 153.25 213.55 Q153.4 213.4 153.6 213.4 L153.95 213.55 M129.25 213.55 Q129.4 213.4 129.6 213.4 L129.95 213.55 130.1 213.9 129.95 214.25 129.6 214.4 129.25 214.25 129.1 213.9 Q129.1 213.7 129.25 213.55 M122.1 213.9 L121.95 214.25 121.6 214.4 121.25 214.25 121.1 213.9 121.25 213.55 121.6 213.4 121.95 213.55 122.1 213.9 M125.25 213.55 Q125.4 213.4 125.6 213.4 L125.95 213.55 126.1 213.9 125.95 214.25 125.6 214.4 125.25 214.25 125.1 213.9 125.25 213.55 M137.6 214.4 L137.25 214.25 137.1 213.9 137.25 213.55 137.6 213.4 Q137.8 213.4 137.95 213.55 L138.1 213.9 137.95 214.25 137.6 214.4 M133.95 213.55 L134.1 213.9 133.95 214.25 133.6 214.4 133.25 214.25 133.1 213.9 133.25 213.55 133.6 213.4 133.95 213.55 M109.25 213.55 L109.6 213.4 109.95 213.55 110.1 213.9 109.95 214.25 109.6 214.4 109.25 214.25 109.1 213.9 109.25 213.55 M101.6 214.4 L101.25 214.25 101.1 213.9 Q101.1 213.7 101.25 213.55 101.4 213.4 101.6 213.4 101.8 213.4 101.95 213.55 L102.1 213.9 101.95 214.25 101.6 214.4 M105.25 213.55 Q105.4 213.4 105.6 213.4 105.8 213.4 105.95 213.55 L106.1 213.9 105.95 214.25 105.6 214.4 105.25 214.25 105.1 213.9 Q105.1 213.7 105.25 213.55 M117.6 214.4 L117.25 214.25 117.1 213.9 Q117.1 213.7 117.25 213.55 117.4 213.4 117.6 213.4 L117.95 213.55 118.1 213.9 117.95 214.25 117.6 214.4 M113.95 213.55 L114.1 213.9 113.95 214.25 113.6 214.4 113.25 214.25 113.1 213.9 113.25 213.55 Q113.4 213.4 113.6 213.4 L113.95 213.55 M89.25 213.55 Q89.4 213.4 89.6 213.4 89.8 213.4 89.95 213.55 L90.1 213.9 89.95 214.25 89.6 214.4 89.25 214.25 89.1 213.9 Q89.1 213.7 89.25 213.55 M81.25 213.55 Q81.4 213.4 81.6 213.4 81.8 213.4 81.95 213.55 L82.1 213.9 81.95 214.25 81.6 214.4 81.25 214.25 81.1 213.9 Q81.1 213.7 81.25 213.55 M85.25 213.55 Q85.4 213.4 85.6 213.4 L85.95 213.55 86.1 213.9 85.95 214.25 85.6 214.4 85.25 214.25 85.1 213.9 85.25 213.55 M97.25 213.55 Q97.4 213.4 97.6 213.4 L97.95 213.55 98.1 213.9 97.95 214.25 97.6 214.4 97.25 214.25 97.1 213.9 97.25 213.55 M93.95 213.55 L94.1 213.9 93.95 214.25 93.6 214.4 93.25 214.25 93.1 213.9 Q93.1 213.7 93.25 213.55 93.4 213.4 93.6 213.4 93.8 213.4 93.95 213.55 M65.95 214.25 L65.6 214.4 65.25 214.25 65.1 213.9 65.25 213.55 Q65.4 213.4 65.6 213.4 65.8 213.4 65.95 213.55 L66.1 213.9 65.95 214.25 M69.25 213.55 Q69.4 213.4 69.6 213.4 L69.95 213.55 70.1 213.9 69.95 214.25 69.6 214.4 Q69.4 214.4 69.25 214.25 L69.1 213.9 69.25 213.55 M61.6 214.4 L61.25 214.25 61.1 213.9 61.25 213.55 Q61.4 213.4 61.6 213.4 L61.95 213.55 62.1 213.9 61.95 214.25 61.6 214.4 M77.25 213.55 Q77.4 213.4 77.6 213.4 77.8 213.4 77.95 213.55 L78.1 213.9 77.95 214.25 77.6 214.4 77.25 214.25 77.1 213.9 Q77.1 213.7 77.25 213.55 M73.95 213.55 L74.1 213.9 73.95 214.25 73.6 214.4 73.25 214.25 73.1 213.9 73.25 213.55 Q73.4 213.4 73.6 213.4 L73.95 213.55 M45.6 214.4 L45.25 214.25 45.1 213.9 Q45.1 213.7 45.25 213.55 45.4 213.4 45.6 213.4 L45.95 213.55 46.1 213.9 45.95 214.25 45.6 214.4 M49.25 213.55 L49.6 213.4 49.95 213.55 50.1 213.9 49.95 214.25 49.6 214.4 49.25 214.25 49.1 213.9 49.25 213.55 M41.25 213.55 Q41.4 213.4 41.6 213.4 L41.95 213.55 42.1 213.9 41.95 214.25 41.6 214.4 41.25 214.25 41.1 213.9 41.25 213.55 M57.25 213.55 Q57.4 213.4 57.6 213.4 L57.95 213.55 58.1 213.9 57.95 214.25 57.6 214.4 57.25 214.25 57.1 213.9 57.25 213.55 M53.95 213.55 L54.1 213.9 53.95 214.25 53.6 214.4 53.25 214.25 53.1 213.9 53.25 213.55 53.6 213.4 Q53.8 213.4 53.95 213.55 M25.6 214.4 L25.25 214.25 25.1 213.9 25.25 213.55 25.6 213.4 25.95 213.55 26.1 213.9 25.95 214.25 25.6 214.4 M29.25 213.55 Q29.4 213.4 29.6 213.4 L29.95 213.55 30.1 213.9 29.95 214.25 29.6 214.4 29.25 214.25 29.1 213.9 29.25 213.55 M21.6 214.4 L21.25 214.25 21.1 213.9 Q21.1 213.7 21.25 213.55 21.4 213.4 21.6 213.4 21.8 213.4 21.95 213.55 L22.1 213.9 21.95 214.25 21.6 214.4 M37.25 213.55 L37.6 213.4 37.95 213.55 38.1 213.9 37.95 214.25 37.6 214.4 37.25 214.25 37.1 213.9 37.25 213.55 M33.95 213.55 L34.1 213.9 33.95 214.25 33.6 214.4 33.25 214.25 33.1 213.9 Q33.1 213.7 33.25 213.55 33.4 213.4 33.6 213.4 L33.95 213.55 M17.25 213.55 Q17.4 213.4 17.6 213.4 17.8 213.4 17.95 213.55 L18.1 213.9 17.95 214.25 17.6 214.4 17.25 214.25 17.1 213.9 Q17.1 213.7 17.25 213.55 M13.95 213.55 L14.1 213.9 13.95 214.25 13.6 214.4 13.25 214.25 13.1 213.9 13.25 213.55 Q13.4 213.4 13.6 213.4 L13.95 213.55 M309.45 215.05 L309.8 214.9 Q310.0 214.9 310.15 215.05 L310.3 215.4 310.15 215.75 309.8 215.9 309.45 215.75 309.3 215.4 309.45 215.05 M313.45 215.05 Q313.6 214.9 313.8 214.9 L314.15 215.05 314.3 215.4 314.15 215.75 313.8 215.9 313.45 215.75 313.3 215.4 313.45 215.05 M305.45 215.05 L305.8 214.9 306.15 215.05 306.3 215.4 306.15 215.75 305.8 215.9 305.45 215.75 305.3 215.4 305.45 215.05 M322.15 215.05 L322.3 215.4 322.15 215.75 321.8 215.9 321.45 215.75 321.3 215.4 321.45 215.05 Q321.6 214.9 321.8 214.9 322.0 214.9 322.15 215.05 M318.15 215.05 L318.3 215.4 318.15 215.75 317.8 215.9 317.45 215.75 317.3 215.4 317.45 215.05 Q317.6 214.9 317.8 214.9 L318.15 215.05 M289.45 215.05 Q289.6 214.9 289.8 214.9 L290.15 215.05 290.3 215.4 290.15 215.75 289.8 215.9 289.45 215.75 289.3 215.4 Q289.3 215.2 289.45 215.05 M293.45 215.05 L293.8 214.9 294.15 215.05 294.3 215.4 294.15 215.75 293.8 215.9 293.45 215.75 293.3 215.4 293.45 215.05 M285.45 215.05 Q285.6 214.9 285.8 214.9 L286.15 215.05 286.3 215.4 286.15 215.75 285.8 215.9 285.45 215.75 285.3 215.4 285.45 215.05 M301.45 215.05 Q301.6 214.9 301.8 214.9 L302.15 215.05 302.3 215.4 302.15 215.75 301.8 215.9 301.45 215.75 301.3 215.4 Q301.3 215.2 301.45 215.05 M298.15 215.05 L298.3 215.4 298.15 215.75 297.8 215.9 297.45 215.75 297.3 215.4 297.45 215.05 Q297.6 214.9 297.8 214.9 L298.15 215.05 M270.15 215.05 L270.3 215.4 270.15 215.75 269.8 215.9 269.45 215.75 269.3 215.4 269.45 215.05 Q269.6 214.9 269.8 214.9 L270.15 215.05 M265.45 215.05 Q265.6 214.9 265.8 214.9 266.0 214.9 266.15 215.05 L266.3 215.4 266.15 215.75 265.8 215.9 265.45 215.75 265.3 215.4 Q265.3 215.2 265.45 215.05 M282.15 215.05 L282.3 215.4 282.15 215.75 281.8 215.9 281.45 215.75 281.3 215.4 281.45 215.05 281.8 214.9 282.15 215.05 M274.3 215.4 L274.15 215.75 273.8 215.9 273.45 215.75 273.3 215.4 Q273.3 215.2 273.45 215.05 273.6 214.9 273.8 214.9 274.0 214.9 274.15 215.05 L274.3 215.4 M278.15 215.05 L278.3 215.4 278.15 215.75 277.8 215.9 277.45 215.75 277.3 215.4 Q277.3 215.2 277.45 215.05 277.6 214.9 277.8 214.9 278.0 214.9 278.15 215.05 M250.15 215.05 L250.3 215.4 250.15 215.75 249.8 215.9 249.45 215.75 249.3 215.4 Q249.3 215.2 249.45 215.05 249.6 214.9 249.8 214.9 250.0 214.9 250.15 215.05 M245.45 215.05 Q245.6 214.9 245.8 214.9 L246.15 215.05 246.3 215.4 246.15 215.75 245.8 215.9 245.45 215.75 245.3 215.4 245.45 215.05 M261.45 215.05 Q261.6 214.9 261.8 214.9 262.0 214.9 262.15 215.05 L262.3 215.4 262.15 215.75 261.8 215.9 261.45 215.75 261.3 215.4 Q261.3 215.2 261.45 215.05 M253.45 215.05 Q253.6 214.9 253.8 214.9 254.0 214.9 254.15 215.05 L254.3 215.4 254.15 215.75 253.8 215.9 253.45 215.75 253.3 215.4 Q253.3 215.2 253.45 215.05 M258.15 215.05 L258.3 215.4 258.15 215.75 257.8 215.9 257.45 215.75 257.3 215.4 257.45 215.05 Q257.6 214.9 257.8 214.9 L258.15 215.05 M230.15 215.05 L230.3 215.4 230.15 215.75 229.8 215.9 229.45 215.75 229.3 215.4 229.45 215.05 Q229.6 214.9 229.8 214.9 L230.15 215.05 M225.45 215.05 L225.8 214.9 Q226.0 214.9 226.15 215.05 L226.3 215.4 226.15 215.75 225.8 215.9 225.45 215.75 225.3 215.4 225.45 215.05 M238.3 215.4 L238.15 215.75 237.8 215.9 237.45 215.75 237.3 215.4 237.45 215.05 Q237.6 214.9 237.8 214.9 238.0 214.9 238.15 215.05 L238.3 215.4 M241.45 215.05 Q241.6 214.9 241.8 214.9 L242.15 215.05 242.3 215.4 242.15 215.75 241.8 215.9 Q241.6 215.9 241.45 215.75 L241.3 215.4 241.45 215.05 M233.45 215.05 Q233.6 214.9 233.8 214.9 L234.15 215.05 234.3 215.4 234.15 215.75 233.8 215.9 233.45 215.75 233.3 215.4 233.45 215.05 M210.15 215.05 L210.3 215.4 210.15 215.75 209.8 215.9 209.45 215.75 209.3 215.4 209.45 215.05 209.8 214.9 210.15 215.05 M205.45 215.05 Q205.6 214.9 205.8 214.9 L206.15 215.05 206.3 215.4 206.15 215.75 205.8 215.9 205.45 215.75 205.3 215.4 Q205.3 215.2 205.45 215.05 M218.3 215.4 L218.15 215.75 217.8 215.9 217.45 215.75 217.3 215.4 Q217.3 215.2 217.45 215.05 217.6 214.9 217.8 214.9 L218.15 215.05 218.3 215.4 M222.15 215.05 L222.3 215.4 222.15 215.75 221.8 215.9 221.45 215.75 221.3 215.4 221.45 215.05 221.8 214.9 222.15 215.05 M213.45 215.05 Q213.6 214.9 213.8 214.9 L214.15 215.05 214.3 215.4 214.15 215.75 213.8 215.9 213.45 215.75 213.3 215.4 213.45 215.05 M198.3 215.4 L198.15 215.75 197.8 215.9 197.45 215.75 197.3 215.4 197.45 215.05 197.8 214.9 198.15 215.05 198.3 215.4 M202.15 215.05 L202.3 215.4 202.15 215.75 201.8 215.9 201.45 215.75 201.3 215.4 201.45 215.05 Q201.6 214.9 201.8 214.9 L202.15 215.05 M169.25 213.55 Q169.4 213.4 169.6 213.4 L169.95 213.55 170.1 213.9 169.95 214.25 169.6 214.4 169.25 214.25 169.1 213.9 169.25 213.55 M165.95 213.55 L166.1 213.9 165.95 214.25 165.6 214.4 165.25 214.25 165.1 213.9 Q165.1 213.7 165.25 213.55 165.4 213.4 165.6 213.4 165.8 213.4 165.95 213.55 M173.25 213.55 Q173.4 213.4 173.6 213.4 173.8 213.4 173.95 213.55 L174.1 213.9 173.95 214.25 173.6 214.4 173.25 214.25 173.1 213.9 Q173.1 213.7 173.25 213.55" fill="#c8a844" fill-rule="evenodd" stroke="none"/>
    <path d="M405.3 104.25 L405.3 113.85 403.4 112.55 Q397.9 108.25 395.35 102.85 392.45 96.65 394.7 88.15 399.35 96.7 405.3 104.25 M-5.3 96.5 Q-1.65 99.9 -3.25 104.4 L-3.7 105.55 Q-6.85 109.9 -11.6 112.1 L-12.9 112.75 -12.9 103.25 Q-11.9 102.9 -11.1 102.35 -7.25 100.25 -5.3 96.5" fill="#c8a844" fill-rule="evenodd" stroke="none"/>
    <path d="M14.45 12.5 Q14.4 25.05 13.2 37.15 L13.0 39.7 12.55 40.05 Q10.3 70.65 -5.3 96.5 -7.25 100.25 -11.1 102.35 -11.9 102.9 -12.9 103.25 L-12.9 93.25 -13.5 16.0 Q-0.35 9.0 12.85 11.85 13.65 12.05 14.45 12.5 M-3.7 105.55 Q10.8 125.8 9.25 151.3 7.85 174.6 10.65 198.2 12.1 210.55 8.75 221.6 8.25 223.4 6.95 224.75 5.05 224.6 3.75 223.25 1.8 221.15 -1.0 220.85 L-2.25 221.0 -4.85 225.7 -6.0 225.9 Q-7.15 225.65 -8.2 224.7 L-9.25 223.9 -10.45 223.55 -11.65 223.75 -12.9 224.2 -12.9 149.3 -12.9 112.75 -11.6 112.1 Q-6.85 109.9 -3.7 105.55 M-11.5 70.9 L-11.35 74.05 Q-9.9 84.1 -12.9 93.25 -9.9 84.1 -11.35 74.05 L-11.5 70.9 M-3.8 20.9 L-4.05 25.8 Q-4.7 37.3 -9.5 47.95 -4.7 37.3 -4.05 25.8 L-3.8 20.9 M0.5 209.8 Q1.45 207.6 1.45 205.2 1.4 180.8 0.55 156.35 -0.15 135.35 -10.0 116.9 -0.15 135.35 0.55 156.35 1.4 180.8 1.45 205.2 1.45 207.6 0.5 209.8 M8.5 21.95 L2.55 40.05 Q0.45 46.7 0.25 53.1 -0.7 77.2 -11.5 98.4 -0.7 77.2 0.25 53.1 0.45 46.7 2.55 40.05 L8.5 21.95 M-12.9 149.3 L-10.7 163.65 Q-7.35 187.7 -7.5 212.3 -7.35 187.7 -10.7 163.65 L-12.9 149.3" fill="url(#gradient0)" fill-rule="evenodd" stroke="none"/>
    <path d="M405.2 12.5 L405.3 104.25 Q399.35 96.7 394.7 88.15 388.15 76.0 384.6 62.15 378.45 37.85 381.25 13.15 391.2 11.2 401.05 11.55 L405.2 12.5 M405.3 113.85 L405.3 225.9 Q403.7 226.8 402.05 226.7 395.35 225.8 392.25 218.3 L388.55 223.35 386.9 223.65 Q384.4 219.75 383.2 211.75 382.05 204.55 382.6 198.75 384.9 174.65 383.9 149.7 382.95 124.95 395.35 102.85 397.9 108.25 403.4 112.55 L405.3 113.85 M398.7 22.95 Q397.6 27.55 397.45 32.7 396.8 56.85 402.7 80.4 396.8 56.85 397.45 32.7 397.6 27.55 398.7 22.95 M390.25 21.95 Q390.0 22.2 389.9 22.65 388.2 31.25 389.75 39.95 388.2 31.25 389.9 22.65 390.0 22.2 390.25 21.95 M388.75 60.45 L390.05 65.3 Q394.2 80.25 404.7 91.4 394.2 80.25 390.05 65.3 L388.75 60.45 M399.2 126.35 Q398.55 139.95 396.2 153.2 392.1 177.35 389.75 201.8 392.1 177.35 396.2 153.2 398.55 139.95 399.2 126.35 M404.25 160.95 L402.75 165.4 Q397.7 180.15 398.2 194.8 397.7 180.15 402.75 165.4 L404.25 160.95" fill="url(#gradient1)" fill-rule="evenodd" stroke="none"/>
    <path d="M405.2 0.0 L405.2 12.5 401.05 11.55 Q391.2 11.2 381.25 13.15 379.4 12.5 377.4 11.25 375.4 10.0 373.55 9.35 369.85 8.2 366.25 9.7 353.15 15.15 340.35 10.7 L335.45 10.5 Q320.35 13.85 306.4 9.05 303.55 8.0 300.8 9.1 287.45 14.7 274.25 11.15 L269.55 11.25 Q254.8 17.05 240.85 11.15 L236.6 10.95 Q219.35 17.75 203.3 10.4 L198.5 10.2 Q183.9 15.2 170.65 7.3 167.7 7.5 165.3 8.7 150.55 16.15 136.45 8.95 L132.9 8.85 Q116.9 16.95 100.45 9.45 98.75 8.7 97.4 9.1 84.65 14.0 72.85 7.95 L66.75 7.8 Q52.0 15.0 37.4 9.45 L37.0 9.5 Q30.1 13.0 25.65 13.65 20.85 14.35 14.45 12.5 L14.0 5.45 14.45 12.5 Q13.65 12.05 12.85 11.85 -0.35 9.0 -13.5 16.0 L-13.5 0.0 51.45 0.0 348.35 0.0 385.7 0.0 405.2 0.0 M385.7 0.0 L384.25 9.45 385.7 0.0 M348.35 0.0 L348.65 2.35 Q349.05 6.3 348.25 9.95 349.05 6.3 348.65 2.35 L348.35 0.0 M24.95 2.5 L23.0 10.95 24.95 2.5 M51.45 0.0 L47.95 7.95 51.45 0.0 M112.9 1.5 L112.45 2.45 112.8 3.55 Q114.0 7.35 111.4 10.45 114.0 7.35 112.8 3.55 L112.45 2.45 112.9 1.5 M191.85 0.5 L190.35 7.45 191.85 0.5 M186.1 0.5 L185.35 8.95 186.1 0.5 M213.85 1.5 L213.85 10.95 213.85 1.5 M257.8 0.5 L255.3 10.45 257.8 0.5 M319.8 0.5 L318.8 8.45 319.8 0.5" fill="url(#gradient2)" fill-rule="evenodd" stroke="none"/>
    <path d="M405.3 225.9 Q403.7 226.8 402.05 226.7 395.35 225.8 392.25 218.3 L388.55 223.35 386.9 223.65 Q384.4 219.75 383.2 211.75 382.05 204.55 382.6 198.75 384.9 174.65 383.9 149.7 382.95 124.95 395.35 102.85 392.45 96.65 394.7 88.15 388.15 76.0 384.6 62.15 378.45 37.85 381.25 13.15 379.4 12.5 377.4 11.25 375.4 10.0 373.55 9.35 369.85 8.2 366.25 9.7 353.15 15.15 340.35 10.7 L335.45 10.5 Q320.35 13.85 306.4 9.05 303.55 8.0 300.8 9.1 287.45 14.7 274.25 11.15 L269.55 11.25 Q254.8 17.05 240.85 11.15 L236.6 10.95 Q219.35 17.75 203.3 10.4 L198.5 10.2 Q183.9 15.2 170.65 7.3 167.7 7.5 165.3 8.7 150.55 16.15 136.45 8.95 L132.9 8.85 Q116.9 16.95 100.45 9.45 98.75 8.7 97.4 9.1 84.65 14.0 72.85 7.95 L66.75 7.8 Q52.0 15.0 37.4 9.45 L37.0 9.5 Q30.1 13.0 25.65 13.65 20.85 14.35 14.45 12.5 14.4 25.05 13.2 37.15 L13.0 39.7 12.55 40.05 Q10.3 70.65 -5.3 96.5 -1.65 99.9 -3.25 104.4 L-3.7 105.55 Q10.8 125.8 9.25 151.3 7.85 174.6 10.65 198.2 12.1 210.55 8.75 221.6 8.25 223.4 6.95 224.75 5.05 224.6 3.75 223.25 1.8 221.15 -1.0 220.85 L-2.25 221.0 -4.85 225.7 -6.0 225.9 Q-7.15 225.65 -8.2 224.7 L-9.25 223.9 -10.45 223.55 -11.65 223.75 -12.9 224.2 M-13.5 0.0 L51.45 0.0 348.35 0.0 385.7 0.0 405.2 0.0 M402.7 80.4 Q396.8 56.85 397.45 32.7 397.6 27.55 398.7 22.95 M381.25 13.15 Q391.2 11.2 401.05 11.55 L405.2 12.5 M384.25 9.45 L385.7 0.0 M389.75 39.95 Q388.2 31.25 389.9 22.65 390.0 22.2 390.25 21.95 M348.25 9.95 Q349.05 6.3 348.65 2.35 L348.35 0.0 M404.7 91.4 Q394.2 80.25 390.05 65.3 L388.75 60.45 M395.35 102.85 Q397.9 108.25 403.4 112.55 L405.3 113.85 M398.2 194.8 Q397.7 180.15 402.75 165.4 L404.25 160.95 M389.75 201.8 Q392.1 177.35 396.2 153.2 398.55 139.95 399.2 126.35 M394.7 88.15 Q399.35 96.7 405.3 104.25 M318.8 8.45 L319.8 0.5 M255.3 10.45 L257.8 0.5 M213.85 10.95 L213.85 1.5 M185.35 8.95 L186.1 0.5 M190.35 7.45 L191.85 0.5 M111.4 10.45 Q114.0 7.35 112.8 3.55 L112.45 2.45 112.9 1.5 M47.95 7.95 L51.45 0.0 M23.0 10.95 L24.95 2.5 M14.0 5.45 L14.45 12.5 Q13.65 12.05 12.85 11.85 -0.35 9.0 -13.5 16.0 M-11.5 98.4 Q-0.7 77.2 0.25 53.1 0.45 46.7 2.55 40.05 L8.5 21.95 M-10.0 116.9 Q-0.15 135.35 0.55 156.35 1.4 180.8 1.45 205.2 1.45 207.6 0.5 209.8 M-9.5 47.95 Q-4.7 37.3 -4.05 25.8 L-3.8 20.9 M-12.9 93.25 Q-9.9 84.1 -11.35 74.05 L-11.5 70.9 M-3.7 105.55 Q-6.85 109.9 -11.6 112.1 L-12.9 112.75 M-5.3 96.5 Q-7.25 100.25 -11.1 102.35 -11.9 102.9 -12.9 103.25 M-7.5 212.3 Q-7.35 187.7 -10.7 163.65 L-12.9 149.3" fill="none" stroke="#8f361b" stroke-linecap="round" stroke-linejoin="round" stroke-width="1.0"/>
  </g>
  <defs>
    <linearGradient gradientTransform="matrix(0.0171, 0.0, 0.0, 0.0563, -3.55, 57.15)" gradientUnits="userSpaceOnUse" id="gradient0" spreadMethod="pad" x1="-819.2" x2="819.2">
      <stop offset="0.0" stop-color="#b33e1b"/>
      <stop offset="1.0" stop-color="#cc4f36"/>
    </linearGradient>
    <linearGradient gradientTransform="matrix(-0.0152, 1.0E-4, -3.0E-4, -0.0566, 396.6, 174.35)" gradientUnits="userSpaceOnUse" id="gradient1" spreadMethod="pad" x1="-819.2" x2="819.2">
      <stop offset="0.0" stop-color="#b33e1b"/>
      <stop offset="1.0" stop-color="#cc4f36"/>
    </linearGradient>
    <linearGradient gradientTransform="matrix(0.2601, 0.0, 0.0, 0.0098, 195.6, 8.0)" gradientUnits="userSpaceOnUse" id="gradient2" spreadMethod="pad" x1="-819.2" x2="819.2">
      <stop offset="0.0" stop-color="#942f16"/>
      <stop offset="0.5254901960784314" stop-color="#c04629"/>
      <stop offset="1.0" stop-color="#872d23"/>
    </linearGradient>
  </defs>
</svg>
