<?xml version="1.0" encoding="UTF-8" standalone="no"?>
<svg xmlns:xlink="http://www.w3.org/1999/xlink" height="257.65px" width="423.55px" xmlns="http://www.w3.org/2000/svg">
  <g transform="matrix(1.0, 0.0, 0.0, 1.0, 16.05, -0.6)">
    <path d="M407.0 99.0 L407.0 197.55 Q391.65 207.3 369.5 215.9 336.7 228.8 297.7 235.8 L298.3 235.4 297.7 235.8 Q251.8 244.0 197.3 244.0 96.45 244.0 25.15 215.9 0.55 206.3 -15.55 195.25 L-15.55 101.35 Q0.55 90.25 25.15 80.55 96.45 52.7 197.3 52.7 298.15 52.7 369.5 80.55 391.65 89.25 407.0 99.0 M326.4 71.7 L325.8 71.25 Q324.55 70.4 323.25 70.15 324.55 70.4 325.8 71.25 L326.4 71.7 M362.25 98.7 Q362.0 98.45 361.65 98.35 L360.7 98.15 Q359.25 98.05 358.05 97.2 357.6 96.9 357.15 97.0 355.75 97.4 354.5 98.25 353.05 99.2 353.95 99.25 353.05 99.2 354.5 98.25 355.75 97.4 357.15 97.0 357.6 96.9 358.05 97.2 359.25 98.05 360.7 98.15 L361.65 98.35 Q362.0 98.45 362.25 98.7 M365.9 93.5 L362.75 94.0 361.8 94.25 Q360.4 95.0 358.1 94.9 L357.05 94.6 Q356.55 94.3 356.0 94.35 353.9 94.45 352.9 95.6 353.9 94.45 356.0 94.35 356.55 94.3 357.05 94.6 L358.1 94.9 Q360.4 95.0 361.8 94.25 L362.75 94.0 365.9 93.5 M394.35 95.75 L393.65 94.95 Q393.0 94.15 392.4 94.1 L391.4 93.9 390.8 93.75 Q388.1 93.35 386.2 92.4 L385.65 92.2 Q382.75 92.2 381.45 90.4 382.75 92.2 385.65 92.2 L386.2 92.4 Q388.1 93.35 390.8 93.75 L391.4 93.9 392.4 94.1 Q393.0 94.15 393.65 94.95 L394.35 95.75 M400.2 108.05 L397.65 107.85 397.05 107.75 Q394.95 107.55 393.95 108.6 394.95 107.55 397.05 107.75 L397.65 107.85 400.2 108.05 M403.3 142.9 Q401.5 143.25 400.15 142.4 L399.2 142.2 395.5 142.35 399.2 142.2 400.15 142.4 Q401.5 143.25 403.3 142.9 M400.75 104.55 Q398.45 105.9 395.0 105.45 398.45 105.9 400.75 104.55 M355.5 188.1 L354.0 187.95 352.85 187.65 349.3 187.25 Q347.15 187.5 345.7 186.45 345.1 186.0 344.05 186.0 342.05 186.45 341.95 188.1 342.05 186.45 344.05 186.0 345.1 186.0 345.7 186.45 347.15 187.5 349.3 187.25 L352.85 187.65 354.0 187.95 355.5 188.1 M356.55 115.35 Q356.8 115.65 356.45 115.8 355.3 115.35 356.0 114.85 355.3 115.35 356.45 115.8 356.8 115.65 356.55 115.35 M358.6 118.55 L359.1 118.6 360.7 118.9 361.6 119.2 Q363.0 119.9 362.85 122.1 362.75 123.1 362.15 123.45 L360.2 124.3 357.5 124.95 355.0 125.0 Q351.35 124.4 350.8 121.05 350.45 118.75 351.9 118.0 L354.1 116.6 Q354.7 116.1 355.5 116.0 L356.45 115.8 356.55 115.85 Q358.0 116.45 358.6 118.55 356.7 118.3 355.75 119.25 L355.2 119.75 354.8 120.5 354.55 121.1 354.45 121.6 Q356.45 123.2 357.7 121.75 356.45 123.2 354.45 121.6 L354.55 121.1 354.8 120.5 355.2 119.75 355.75 119.25 Q356.7 118.3 358.6 118.55 358.0 116.45 356.55 115.85 L356.45 115.8 355.5 116.0 Q354.7 116.1 354.1 116.6 L351.9 118.0 Q350.45 118.75 350.8 121.05 351.35 124.4 355.0 125.0 L357.5 124.95 360.2 124.3 362.15 123.45 Q362.75 123.1 362.85 122.1 363.0 119.9 361.6 119.2 L360.7 118.9 359.1 118.6 358.6 118.55 M403.3 147.05 Q401.1 146.0 398.65 145.3 L398.05 145.2 Q396.1 144.95 395.0 147.05 396.1 144.95 398.05 145.2 L398.65 145.3 Q401.1 146.0 403.3 147.05 M353.3 183.2 L352.8 183.6 Q352.45 184.3 351.4 183.85 349.5 183.15 347.15 183.35 L346.2 183.2 Q343.45 182.05 342.5 183.95 343.45 182.05 346.2 183.2 L347.15 183.35 Q349.5 183.15 351.4 183.85 352.45 184.3 352.8 183.6 L353.3 183.2 M329.5 186.55 Q330.0 186.25 330.6 186.1 332.5 185.6 333.15 186.55 332.5 185.6 330.6 186.1 330.0 186.25 329.5 186.55 M401.75 179.8 L401.2 179.8 400.5 179.55 Q399.15 178.0 397.5 177.5 396.45 178.15 396.0 179.25 396.45 178.15 397.5 177.5 399.15 178.0 400.5 179.55 L401.2 179.8 401.75 179.8 M402.25 175.6 L401.7 176.0 Q400.2 176.5 399.25 175.5 398.55 174.7 397.65 174.8 396.25 175.0 396.0 176.15 396.25 175.0 397.65 174.8 398.55 174.7 399.25 175.5 400.2 176.5 401.7 176.0 L402.25 175.6 M406.4 107.55 L405.9 107.55 404.85 107.55 405.9 107.55 406.4 107.55 M377.85 199.55 L377.15 199.3 Q376.7 198.65 375.25 199.05 L374.2 199.5 373.3 199.65 Q372.3 199.2 371.55 200.0 L370.05 200.05 371.55 200.0 Q372.3 199.2 373.3 199.65 L374.2 199.5 375.25 199.05 Q376.7 198.65 377.15 199.3 L377.85 199.55 M272.35 72.75 L271.75 72.4 269.2 72.2 271.75 72.4 272.35 72.75 M276.5 76.35 Q274.2 76.5 272.85 74.3 L272.35 74.8 272.1 75.35 Q272.15 76.7 271.3 76.9 272.15 76.7 272.1 75.35 L272.35 74.8 272.85 74.3 Q274.2 76.5 276.5 76.35 M267.15 59.25 L264.55 58.85 260.9 58.5 251.0 58.2 260.9 58.5 264.55 58.85 267.15 59.25 M288.45 76.9 L287.95 76.8 286.9 76.55 282.75 76.35 286.9 76.55 287.95 76.8 288.45 76.9 M219.3 70.15 L218.75 69.65 217.75 69.35 217.2 69.4 Q215.2 69.85 214.25 68.95 213.25 68.05 212.05 68.2 210.75 68.3 210.05 69.15 208.95 70.45 209.45 69.6 208.95 70.45 210.05 69.15 210.75 68.3 212.05 68.2 213.25 68.05 214.25 68.95 215.2 69.85 217.2 69.4 L217.75 69.35 218.75 69.65 219.3 70.15 M232.75 69.4 L231.9 69.8 228.7 70.05 Q227.05 69.8 226.6 70.65 227.05 69.8 228.7 70.05 L231.9 69.8 232.75 69.4 M224.5 57.15 L218.8 56.8 212.05 56.45 210.5 56.3 Q205.15 55.8 200.1 56.5 L198.1 56.95 195.45 57.0 193.35 56.65 191.3 56.45 190.2 56.35 179.3 56.1 190.2 56.35 191.3 56.45 193.35 56.65 195.45 57.0 198.1 56.95 200.1 56.5 Q205.15 55.8 210.5 56.3 L212.05 56.45 218.8 56.8 224.5 57.15 M223.5 67.55 L221.95 67.35 216.7 66.8 210.5 66.5 216.7 66.8 221.95 67.35 223.5 67.55 M214.65 168.35 L211.6 168.15 211.0 168.1 210.45 168.2 209.45 168.45 207.35 168.85 209.45 168.45 210.45 168.2 211.0 168.1 211.6 168.15 214.65 168.35 M286.35 124.7 L285.8 124.4 283.25 124.05 Q280.7 123.7 280.65 125.2 280.7 123.7 283.25 124.05 L285.8 124.4 286.35 124.7 M266.6 123.15 L265.6 123.4 264.5 123.2 Q262.5 122.4 261.95 121.05 L261.45 121.15 256.75 123.65 261.45 121.15 261.95 121.05 Q262.5 122.4 264.5 123.2 L265.6 123.4 266.6 123.15 M265.05 127.8 L264.55 127.3 263.0 125.75 262.4 125.3 Q260.85 124.35 260.0 125.3 259.05 126.4 258.8 127.8 259.05 126.4 260.0 125.3 260.85 124.35 262.4 125.3 L263.0 125.75 264.55 127.3 265.05 127.8 M258.3 195.35 L254.65 195.35 Q254.15 195.35 253.95 195.6 253.45 196.25 252.05 196.05 L248.95 195.4 Q245.5 194.5 245.3 197.45 245.5 194.5 248.95 195.4 L252.05 196.05 Q253.45 196.25 253.95 195.6 254.15 195.35 254.65 195.35 L258.3 195.35 M274.4 193.8 Q273.3 192.45 271.3 192.7 L270.55 192.5 Q270.05 191.85 268.7 191.85 266.75 191.85 265.6 192.75 264.45 193.65 264.55 193.3 264.45 193.65 265.6 192.75 266.75 191.85 268.7 191.85 270.05 191.85 270.55 192.5 L271.3 192.7 Q273.3 192.45 274.4 193.8 M281.15 195.35 Q280.5 194.75 279.1 194.95 L277.0 195.35 279.1 194.95 Q280.5 194.75 281.15 195.35 M270.25 190.15 L268.7 190.15 266.65 189.95 Q263.55 189.35 261.95 191.75 263.55 189.35 266.65 189.95 L268.7 190.15 270.25 190.15 M286.35 197.95 L284.85 197.75 284.3 197.7 278.55 198.5 284.3 197.7 284.85 197.75 286.35 197.95 M117.45 60.25 L112.8 60.25 110.75 60.45 104.0 61.95 102.9 62.15 99.8 62.35 102.9 62.15 104.0 61.95 110.75 60.45 112.8 60.25 117.45 60.25 M73.3 93.0 L74.3 93.05 Q75.75 93.1 75.75 91.95 75.8 89.9 73.3 90.1 L71.7 90.3 Q69.4 90.65 69.15 93.5 69.1 94.05 69.35 94.35 L70.0 95.2 Q71.8 97.35 75.35 97.15 L76.25 96.9 Q76.95 96.4 77.95 96.05 L78.9 95.5 79.65 94.75 Q81.0 93.45 81.4 91.4 81.85 89.4 81.0 88.35 L80.2 87.2 Q78.45 84.65 74.3 84.8 71.7 84.9 69.6 86.15 67.6 87.3 66.7 89.95 L66.35 90.5 Q65.65 90.8 65.8 91.95 L66.0 93.5 65.8 91.95 Q65.65 90.8 66.35 90.5 L66.7 89.95 Q67.6 87.3 69.6 86.15 71.7 84.9 74.3 84.8 78.45 84.65 80.2 87.2 L81.0 88.35 Q81.85 89.4 81.4 91.4 81.0 93.45 79.65 94.75 L78.9 95.5 77.95 96.05 Q76.95 96.4 76.25 96.9 L75.35 97.15 Q71.8 97.35 70.0 95.2 L69.35 94.35 Q69.1 94.05 69.15 93.5 69.4 90.65 71.7 90.3 L73.3 90.1 Q75.8 89.9 75.75 91.95 75.75 93.1 74.3 93.05 L73.3 93.0 M130.95 81.55 L130.0 81.4 129.4 81.3 128.35 81.25 Q126.4 81.15 125.75 82.1 126.4 81.15 128.35 81.25 L129.4 81.3 130.0 81.4 130.95 81.55 M10.9 94.05 L9.35 94.1 Q6.85 94.25 4.7 95.05 1.4 96.25 -2.1 97.25 -6.55 98.5 -9.35 101.3 -6.55 98.5 -2.1 97.25 1.4 96.25 4.7 95.05 6.85 94.25 9.35 94.1 L10.9 94.05 M40.55 81.05 L39.05 81.25 34.8 82.65 33.8 82.9 Q32.05 82.95 31.2 83.65 32.05 82.95 33.8 82.9 L34.8 82.65 39.05 81.25 40.55 81.05 M51.95 117.95 Q51.0 117.7 50.4 118.45 L49.85 118.85 49.05 118.75 Q48.0 117.8 45.75 118.1 L44.2 118.45 45.75 118.1 Q48.0 117.8 49.05 118.75 L49.85 118.85 50.4 118.45 Q51.0 117.7 51.95 117.95 M81.1 145.5 L80.55 145.5 80.05 145.5 80.55 145.5 81.1 145.5 M69.1 94.55 L68.6 94.5 64.95 93.5 68.6 94.5 69.1 94.55 M74.3 69.6 L72.75 69.25 70.15 69.55 64.4 71.1 Q60.2 72.1 56.15 73.7 L54.65 74.45 51.9 74.35 Q51.45 74.05 50.9 73.9 L50.1 74.0 46.25 76.35 50.1 74.0 50.9 73.9 Q51.45 74.05 51.9 74.35 L54.65 74.45 56.15 73.7 Q60.2 72.1 64.4 71.1 L70.15 69.55 72.75 69.25 74.3 69.6 M44.2 116.4 L43.15 116.4 Q42.65 116.4 42.35 116.65 41.0 117.8 39.0 116.9 41.0 117.8 42.35 116.65 42.65 116.4 43.15 116.4 L44.2 116.4 M14.6 139.85 L14.0 140.25 13.05 140.45 Q11.95 140.3 10.95 139.65 L9.4 139.45 8.8 139.6 Q8.35 139.75 8.15 140.0 7.6 140.7 6.25 140.8 7.6 140.7 8.15 140.0 8.35 139.75 8.8 139.6 L9.4 139.45 10.95 139.65 Q11.95 140.3 13.05 140.45 L14.0 140.25 14.6 139.85 M17.15 144.45 L16.15 144.6 15.05 144.85 14.1 145.1 13.6 145.15 12.0 144.8 10.9 144.45 Q8.7 143.5 7.3 144.95 8.7 143.5 10.9 144.45 L12.0 144.8 13.6 145.15 14.1 145.1 15.05 144.85 16.15 144.6 17.15 144.45 M110.7 110.15 Q110.75 109.35 109.7 109.75 L109.1 110.0 108.5 109.9 Q108.15 109.35 107.05 109.55 L106.15 109.4 103.5 109.25 102.85 109.5 101.9 109.75 100.85 110.0 Q98.9 110.25 98.25 111.7 98.9 110.25 100.85 110.0 L101.9 109.75 102.85 109.5 103.5 109.25 106.15 109.4 107.05 109.55 Q108.15 109.35 108.5 109.9 L109.1 110.0 109.7 109.75 Q110.75 109.35 110.7 110.15 M49.4 197.45 L48.85 197.45 47.95 197.2 45.25 195.75 44.7 195.65 Q43.45 195.65 42.05 196.3 39.85 197.3 39.0 198.5 39.85 197.3 42.05 196.3 43.45 195.65 44.7 195.65 L45.25 195.75 47.95 197.2 48.85 197.45 49.4 197.45 M27.55 170.95 L27.0 171.4 Q26.1 171.95 25.0 171.75 L24.4 171.6 23.9 171.3 Q22.95 168.1 26.5 168.2 29.05 168.25 30.3 169.8 L31.3 171.4 31.45 172.0 Q31.45 173.05 30.8 173.7 29.55 175.05 28.05 175.2 25.45 175.4 23.95 174.55 21.8 173.35 20.85 171.45 19.65 169.05 20.85 167.35 L21.15 166.75 21.55 165.95 22.2 165.15 Q23.65 163.6 25.95 164.8 26.25 165.0 26.5 165.75 26.75 165.1 27.05 166.25 L26.15 166.95 Q25.15 168.25 24.95 167.85 25.15 168.25 26.15 166.95 L27.05 166.25 Q26.75 165.1 26.5 165.75 26.25 165.0 25.95 164.8 23.65 163.6 22.2 165.15 L21.55 165.95 21.15 166.75 20.85 167.35 Q19.65 169.05 20.85 171.45 21.8 173.35 23.95 174.55 25.45 175.4 28.05 175.2 29.55 175.05 30.8 173.7 31.45 173.05 31.45 172.0 L31.3 171.4 30.3 169.8 Q29.05 168.25 26.5 168.2 22.95 168.1 23.9 171.3 L24.4 171.6 25.0 171.75 Q26.1 171.95 27.0 171.4 L27.55 170.95 M42.6 145.5 Q41.35 144.25 39.5 144.4 L38.5 144.65 Q37.3 145.15 37.4 147.05 37.3 145.15 38.5 144.65 L39.5 144.4 Q41.35 144.25 42.6 145.5 M109.15 114.3 L106.0 114.65 102.35 113.95 101.7 114.05 Q100.3 115.95 98.25 116.4 100.3 115.95 101.7 114.05 L102.35 113.95 106.0 114.65 109.15 114.3 M139.8 162.1 Q138.4 162.2 137.7 161.7 L136.7 161.1 Q133.55 159.75 132.0 161.6 133.55 159.75 136.7 161.1 L137.7 161.7 Q138.4 162.2 139.8 162.1 M130.95 156.4 Q130.15 157.2 128.9 156.9 L123.7 156.6 Q123.2 156.65 122.95 157.05 122.4 158.1 122.15 156.9 122.4 158.1 122.95 157.05 123.2 156.65 123.7 156.6 L128.9 156.9 Q130.15 157.2 130.95 156.4 M161.7 237.55 Q158.3 239.3 154.9 237.45 158.3 239.3 161.7 237.55 M54.55 200.55 L52.55 200.35 51.95 200.25 41.6 199.55 51.95 200.25 52.55 200.35 54.55 200.55 M102.9 220.85 Q102.4 220.85 102.1 221.1 101.45 221.7 99.8 221.45 L98.85 221.55 Q96.95 222.35 94.6 220.9 L93.65 220.2 Q93.0 219.55 92.05 219.95 90.35 220.75 89.4 222.4 90.35 220.75 92.05 219.95 93.0 219.55 93.65 220.2 L94.6 220.9 Q96.95 222.35 98.85 221.55 L99.8 221.45 Q101.45 221.7 102.1 221.1 102.4 220.85 102.9 220.85 M18.7 202.65 L18.2 202.65 15.6 202.65 18.2 202.65 18.7 202.65 M227.65 235.4 L226.55 235.0 225.65 235.05 224.0 235.4 225.65 235.05 226.55 235.0 227.65 235.4 M-6.75 195.9 L-8.8 194.3 Q-9.1 194.1 -9.35 194.05 -12.6 193.8 -14.55 192.25 -12.6 193.8 -9.35 194.05 -9.1 194.1 -8.8 194.3 L-6.75 195.9" fill="url(#gradient0)" fill-rule="evenodd" stroke="none"/>
    <path d="M310.9 2.85 L407.0 2.85 407.0 75.4 Q395.15 69.5 380.4 64.05 359.3 56.25 335.8 50.65 L335.55 50.6 335.05 49.3 335.05 48.3 Q335.95 43.55 338.0 39.1 L339.55 35.95 340.45 34.95 Q344.1 32.5 348.7 32.05 L350.25 31.9 350.3 31.9 Q352.3 30.25 351.8 27.55 351.4 25.55 349.8 25.3 L349.2 25.05 Q345.2 23.05 342.85 19.35 341.15 16.65 343.0 14.05 L345.75 10.0 343.0 14.05 Q341.15 16.65 342.85 19.35 345.2 23.05 349.2 25.05 L349.8 25.3 Q351.4 25.55 351.8 27.55 352.3 30.25 350.3 31.9 355.5 31.35 360.15 32.7 L362.35 32.5 363.15 32.05 Q365.65 30.75 368.4 29.55 L371.15 28.35 372.55 27.9 Q373.55 27.65 373.85 27.2 374.2 26.8 374.75 26.6 376.2 26.05 376.2 23.9 376.15 22.95 375.15 22.45 372.7 21.35 374.2 18.75 375.15 17.1 375.0 15.1 L374.65 14.7 373.9 14.3 373.65 13.55 Q373.65 11.6 372.85 10.7 372.6 10.45 372.85 10.05 L373.55 9.25 Q374.6 8.2 376.75 8.25 378.5 8.25 378.35 6.75 378.5 8.25 376.75 8.25 374.6 8.2 373.55 9.25 L372.85 10.05 Q372.6 10.45 372.85 10.7 373.65 11.6 373.65 13.55 L373.9 14.3 374.65 14.7 375.0 15.1 Q375.15 17.1 374.2 18.75 372.7 21.35 375.15 22.45 376.15 22.95 376.2 23.9 376.2 26.05 374.75 26.6 374.2 26.8 373.85 27.2 373.55 27.65 372.55 27.9 L371.15 28.35 368.4 29.55 Q365.65 30.75 363.15 32.05 L362.35 32.5 360.15 32.7 Q355.5 31.35 350.3 31.9 L350.25 31.9 348.7 32.05 Q344.1 32.5 340.45 34.95 L339.55 35.95 338.0 39.1 Q335.95 43.55 335.05 48.3 L335.05 49.3 335.55 50.6 322.15 47.65 Q289.8 41.0 253.1 38.2 L231.75 36.95 Q236.3 29.8 233.6 20.85 L234.05 16.05 234.05 15.1 Q233.85 13.8 234.0 12.5 234.05 11.95 234.35 11.45 235.5 9.1 235.2 6.3 L234.9 5.75 Q234.4 5.2 234.55 4.2 L234.75 3.6 234.9 2.85 234.75 3.6 234.55 4.2 Q234.4 5.2 234.9 5.75 L235.2 6.3 Q235.5 9.1 234.35 11.45 234.05 11.95 234.0 12.5 233.85 13.8 234.05 15.1 L234.05 16.05 233.6 20.85 Q236.3 29.8 231.75 36.95 215.4 36.2 198.2 36.2 L150.75 37.7 Q149.65 36.55 150.55 35.25 151.3 34.2 151.35 32.75 151.45 28.45 149.2 24.9 L148.7 23.85 Q147.55 20.35 146.95 16.65 L146.55 15.1 146.95 16.65 Q147.55 20.35 148.7 23.85 L149.2 24.9 Q151.45 28.45 151.35 32.75 151.3 34.2 150.55 35.25 149.65 36.55 150.75 37.7 74.1 42.6 16.0 64.05 -1.9 70.7 -15.55 78.05 L-15.55 2.85 63.9 2.85 78.75 2.85 76.9 7.8 78.75 2.85 234.9 2.85 310.9 2.85 310.2 3.55 309.55 4.3 Q309.15 5.15 308.15 5.75 307.15 6.3 306.8 7.35 306.6 8.05 306.8 8.8 307.45 10.75 309.2 12.5 L309.6 13.05 Q309.75 13.55 309.5 13.8 L305.15 18.3 303.85 19.6 302.15 21.45 301.05 23.0 Q299.65 24.9 297.2 25.85 293.1 27.4 291.5 31.65 L291.25 32.75 291.0 40.05 291.0 41.6 291.0 40.05 291.25 32.75 291.5 31.65 Q293.1 27.4 297.2 25.85 299.65 24.9 301.05 23.0 L302.15 21.45 303.85 19.6 305.15 18.3 309.5 13.8 Q309.75 13.55 309.6 13.05 L309.2 12.5 Q307.45 10.75 306.8 8.8 306.6 8.05 306.8 7.35 307.15 6.3 308.15 5.75 309.15 5.15 309.55 4.3 L310.2 3.55 310.9 2.85 M399.1 13.55 L398.3 13.4 396.0 15.1 393.55 17.85 Q392.9 18.65 393.1 19.75 393.15 20.3 393.55 20.65 394.95 22.05 395.2 23.85 L395.15 24.35 Q394.65 26.15 392.85 27.5 L391.95 28.2 Q389.75 30.1 391.75 31.3 L394.9 33.3 395.3 33.85 Q395.95 36.5 393.85 37.9 L393.1 38.6 391.9 39.6 391.25 39.85 386.6 39.7 385.6 39.45 Q379.35 38.65 374.2 41.65 372.4 42.7 371.55 44.7 L371.15 45.8 Q370.7 47.4 371.55 47.8 370.7 47.4 371.15 45.8 L371.55 44.7 Q372.4 42.7 374.2 41.65 379.35 38.65 385.6 39.45 L386.6 39.7 391.25 39.85 391.9 39.6 393.1 38.6 393.85 37.9 Q395.95 36.5 395.3 33.85 L394.9 33.3 391.75 31.3 Q389.75 30.1 391.95 28.2 L392.85 27.5 Q394.65 26.15 395.15 24.35 L395.2 23.85 Q394.95 22.05 393.55 20.65 393.15 20.3 393.1 19.75 392.9 18.65 393.55 17.85 L396.0 15.1 398.3 13.4 399.1 13.55 M402.25 22.35 L399.55 24.35 Q398.65 25.0 398.65 26.5 398.75 29.65 399.3 32.7 L399.5 33.3 399.8 34.25 400.0 34.9 Q400.15 35.35 399.9 35.7 L396.5 40.55 399.9 35.7 Q400.15 35.35 400.0 34.9 L399.8 34.25 399.5 33.3 399.3 32.7 Q398.75 29.65 398.65 26.5 398.65 25.0 399.55 24.35 L402.25 22.35 M387.0 60.7 Q388.25 59.25 389.25 58.75 388.4 57.8 387.2 57.1 L386.8 56.6 Q386.3 55.3 387.05 54.9 388.2 54.35 388.2 52.5 L388.0 51.55 Q387.7 50.9 387.85 49.95 387.95 49.4 388.35 49.15 390.65 48.0 391.5 46.7 L391.1 45.85 390.6 44.25 390.25 43.85 388.2 43.65 380.95 43.45 Q378.4 43.35 377.35 45.75 L376.65 47.25 375.2 49.4 376.65 47.25 377.35 45.75 Q378.4 43.35 380.95 43.45 L388.2 43.65 390.25 43.85 390.6 44.25 391.1 45.85 391.5 46.7 Q390.65 48.0 388.35 49.15 387.95 49.4 387.85 49.95 387.7 50.9 388.0 51.55 L388.2 52.5 Q388.2 54.35 387.05 54.9 386.3 55.3 386.8 56.6 L387.2 57.1 Q388.4 57.8 389.25 58.75 388.25 59.25 387.0 60.7 M381.95 11.95 Q379.95 11.7 379.15 13.4 L380.35 15.65 380.8 16.7 Q380.95 17.2 380.7 17.55 L380.05 18.35 Q379.65 18.75 379.65 19.2 L380.25 21.35 380.2 22.25 Q379.2 24.05 379.3 26.5 L379.1 27.3 376.3 29.7 375.9 30.2 375.55 31.1 Q375.25 31.75 374.6 31.9 L372.1 32.4 Q371.55 32.45 371.05 32.75 369.6 33.5 367.95 33.75 367.45 33.8 367.3 34.05 366.95 34.6 365.85 34.45 L363.3 34.5 362.7 34.65 361.2 34.95 359.6 35.25 Q359.1 35.35 358.75 35.6 L357.05 35.7 356.5 35.6 Q351.7 35.6 347.2 36.55 L346.05 36.8 Q343.7 37.3 343.15 39.05 L342.8 39.95 Q341.55 42.2 340.75 44.65 L340.65 45.2 Q340.7 47.9 339.85 49.4 340.7 47.9 340.65 45.2 L340.75 44.65 Q341.55 42.2 342.8 39.95 L343.15 39.05 Q343.7 37.3 346.05 36.8 L347.2 36.55 Q351.7 35.6 356.5 35.6 L357.05 35.7 358.75 35.6 Q359.1 35.35 359.6 35.25 L361.2 34.95 362.7 34.65 363.3 34.5 365.85 34.45 Q366.95 34.6 367.3 34.05 367.45 33.8 367.95 33.75 369.6 33.5 371.05 32.75 371.55 32.45 372.1 32.4 L374.6 31.9 Q375.25 31.75 375.55 31.1 L375.9 30.2 376.3 29.7 379.1 27.3 379.3 26.5 Q379.2 24.05 380.2 22.25 L380.25 21.35 379.65 19.2 Q379.65 18.75 380.05 18.35 L380.7 17.55 Q380.95 17.2 380.8 16.7 L380.35 15.65 379.15 13.4 Q379.95 11.7 381.95 11.95 M396.0 68.1 Q397.15 67.4 397.25 65.5 397.4 63.4 396.7 61.75 L396.3 60.9 393.4 55.1 393.15 54.05 393.35 53.0 394.4 50.9 395.1 50.25 Q396.8 49.4 396.25 46.85 395.25 41.7 391.25 39.85 395.25 41.7 396.25 46.85 396.8 49.4 395.1 50.25 L394.4 50.9 393.35 53.0 393.15 54.05 393.4 55.1 396.3 60.9 396.7 61.75 Q397.4 63.4 397.25 65.5 397.15 67.4 396.0 68.1 M353.4 10.4 L353.15 15.6 Q352.75 20.35 355.4 21.9 L355.8 22.4 356.15 24.95 Q356.45 27.65 354.95 29.1 356.45 27.65 356.15 24.95 L355.8 22.4 355.4 21.9 Q352.75 20.35 353.15 15.6 L353.4 10.4 M327.1 36.5 L326.65 37.75 Q327.3 38.85 326.35 39.0 327.3 38.85 326.65 37.75 L327.1 36.5 M317.5 6.75 L315.5 6.95 315.1 7.35 314.7 8.8 Q314.35 9.85 313.5 10.55 L311.8 11.95 Q309.85 13.65 311.35 15.55 L311.55 16.1 311.35 17.15 310.7 19.25 310.1 20.1 Q309.65 20.4 309.3 21.35 308.1 24.6 305.05 26.45 L304.0 26.8 Q302.3 26.85 301.4 27.55 L298.45 30.3 Q297.45 31.3 297.2 32.75 296.55 36.25 296.75 40.05 296.55 36.25 297.2 32.75 297.45 31.3 298.45 30.3 L301.4 27.55 Q302.3 26.85 304.0 26.8 L305.05 26.45 Q308.1 24.6 309.3 21.35 309.65 20.4 310.1 20.1 L310.7 19.25 311.35 17.15 311.55 16.1 311.35 15.55 Q309.85 13.65 311.8 11.95 L313.5 10.55 Q314.35 9.85 314.7 8.8 L315.1 7.35 315.5 6.95 317.5 6.75 M243.2 10.4 L243.75 11.95 244.0 13.0 Q244.1 14.75 244.85 16.05 L245.2 16.7 246.8 20.3 Q247.9 23.6 250.55 25.45 L251.4 26.1 Q254.7 28.75 253.85 33.75 L253.1 38.2 253.85 33.75 Q254.7 28.75 251.4 26.1 L250.55 25.45 Q247.9 23.6 246.8 20.3 L245.2 16.7 244.85 16.05 Q244.1 14.75 244.0 13.0 L243.75 11.95 243.2 10.4 M285.45 18.55 Q286.45 18.05 286.5 16.65 286.75 11.15 281.65 10.45 275.8 9.65 274.25 13.5 L274.05 14.1 Q273.45 16.0 274.35 16.7 L274.75 17.2 274.9 17.45 Q272.45 19.35 270.75 20.3 L271.25 20.8 271.85 21.15 Q272.35 21.3 272.6 21.55 273.35 22.35 274.9 22.4 L280.6 21.85 Q282.8 21.15 284.65 19.15 L285.45 18.55 M321.7 34.85 Q321.8 36.3 321.2 37.45 320.5 38.85 320.4 40.55 L320.4 41.6 320.4 42.65 Q320.5 45.6 322.15 47.65 320.5 45.6 320.4 42.65 L320.4 41.6 320.4 40.55 Q320.5 38.85 321.2 37.45 321.8 36.3 321.7 34.85 M251.5 9.9 Q252.45 10.25 251.95 11.9 L251.65 13.05 Q251.25 14.8 249.9 16.6 L249.7 17.15 Q249.8 19.0 248.95 20.35 L248.4 21.3 248.95 20.35 Q249.8 19.0 249.7 17.15 L249.9 16.6 Q251.25 14.8 251.65 13.05 L251.95 11.9 Q252.45 10.25 251.5 9.9 M256.7 10.95 Q253.4 13.15 254.1 18.2 L256.7 36.9 254.1 18.2 Q253.4 13.15 256.7 10.95 M208.4 7.3 Q208.45 11.35 207.75 15.1 207.6 16.1 206.95 16.75 L205.35 18.75 204.65 19.65 203.55 21.2 Q202.65 22.95 203.2 22.9 202.65 22.95 203.55 21.2 L204.65 19.65 205.35 18.75 206.95 16.75 Q207.6 16.1 207.75 15.1 208.45 11.35 208.4 7.3 M228.15 4.7 L228.3 5.7 228.5 6.3 229.25 8.3 Q231.25 14.6 233.6 20.85 231.25 14.6 229.25 8.3 L228.5 6.3 228.3 5.7 228.15 4.7 M198.0 7.3 Q197.1 7.45 197.55 8.8 198.3 11.2 198.0 14.05 197.5 18.45 200.7 21.2 L202.35 22.75 Q203.7 24.2 203.1 27.0 L201.1 34.85 203.1 27.0 Q203.7 24.2 202.35 22.75 L200.7 21.2 Q197.5 18.45 198.0 14.05 198.3 11.2 197.55 8.8 197.1 7.45 198.0 7.3 M141.75 15.75 Q142.15 16.15 142.1 16.65 L141.9 20.3 142.05 21.2 143.95 24.45 Q145.1 26.1 145.3 28.1 L145.6 31.7 Q145.8 34.3 145.0 35.85 145.8 34.3 145.6 31.7 L145.3 28.1 Q145.1 26.1 143.95 24.45 L142.05 21.2 141.9 20.3 142.1 16.65 Q142.15 16.15 141.75 15.75 M126.25 3.65 L126.25 4.15 126.0 5.0 Q122.95 8.8 120.65 13.6 119.8 15.4 120.25 17.65 L121.2 21.8 121.35 22.9 121.2 23.95 120.85 24.85 Q120.45 25.65 120.5 27.05 L120.3 27.95 119.6 28.75 118.05 29.85 Q115.85 31.2 113.35 31.9 L112.7 32.0 109.65 32.25 109.75 31.7 109.95 30.15 Q110.15 28.05 109.95 26.0 L109.6 25.0 Q107.8 22.35 107.2 19.2 106.95 17.8 107.45 16.6 108.35 14.5 108.35 11.95 L108.25 11.4 Q107.55 9.75 107.55 10.4 107.55 9.75 108.25 11.4 L108.35 11.95 Q108.35 14.5 107.45 16.6 106.95 17.8 107.2 19.2 107.8 22.35 109.6 25.0 L109.95 26.0 Q110.15 28.05 109.95 30.15 L109.75 31.7 109.65 32.25 112.7 32.0 113.35 31.9 Q115.85 31.2 118.05 29.85 L119.6 28.75 120.3 27.95 120.5 27.05 Q120.45 25.65 120.85 24.85 L121.2 23.95 121.35 22.9 121.2 21.8 120.25 17.65 Q119.8 15.4 120.65 13.6 122.95 8.8 126.0 5.0 L126.25 4.15 126.25 3.65 M103.4 13.0 L103.15 15.05 Q102.9 16.05 103.1 17.1 103.45 19.1 103.4 21.3 L103.15 22.2 Q102.55 23.05 103.0 24.9 L103.3 26.05 Q103.95 28.55 105.4 30.25 105.8 30.65 105.85 31.2 106.3 34.25 105.4 36.85 L104.8 37.75 Q103.25 38.85 102.9 41.05 103.25 38.85 104.8 37.75 L105.4 36.85 Q106.3 34.25 105.85 31.2 105.8 30.65 105.4 30.25 103.95 28.55 103.3 26.05 L103.0 24.9 Q102.55 23.05 103.15 22.2 L103.4 21.3 Q103.45 19.1 103.1 17.1 102.9 16.05 103.15 15.05 L103.4 13.0 M120.05 6.75 L119.5 6.75 118.95 6.85 Q118.65 8.4 117.45 9.4 L117.2 9.9 Q117.2 11.4 116.45 12.55 L116.1 13.55 Q115.9 15.35 116.1 17.1 L116.8 21.85 116.7 22.8 Q115.1 26.45 111.7 28.6 115.1 26.45 116.7 22.8 L116.8 21.85 116.1 17.1 Q115.9 15.35 116.1 13.55 L116.45 12.55 Q117.2 11.4 117.2 9.9 L117.45 9.4 Q118.65 8.4 118.95 6.85 L119.5 6.75 120.05 6.75 M82.6 24.1 L79.95 22.15 Q78.7 22.6 77.9 23.85 L77.4 24.45 Q75.6 26.1 75.2 28.05 L75.1 29.1 Q75.1 29.4 75.25 29.7 76.45 32.3 79.05 33.05 L80.5 33.4 82.1 33.6 Q84.7 33.75 86.85 32.45 88.5 31.45 89.95 29.15 L90.2 28.55 Q90.85 25.85 89.55 23.8 88.9 22.8 87.75 22.55 84.85 22.0 83.35 23.65 L82.65 24.05 82.6 24.1 M109.65 32.25 L109.4 33.15 Q109.0 34.4 108.9 35.85 L108.55 37.95 107.95 38.7 Q106.4 39.65 106.0 41.6 106.4 39.65 107.95 38.7 L108.55 37.95 108.9 35.85 Q109.0 34.4 109.4 33.15 L109.65 32.25 M68.6 25.5 L68.3 24.9 68.05 20.3 67.8 19.4 Q67.35 18.7 67.15 17.65 67.0 16.9 67.2 16.15 L68.0 12.5 68.1 11.45 Q68.5 5.8 64.4 3.2 L63.9 2.85 64.4 3.2 Q68.5 5.8 68.1 11.45 L68.0 12.5 67.2 16.15 Q67.0 16.9 67.15 17.65 67.35 18.7 67.8 19.4 L68.05 20.3 68.3 24.9 68.6 25.5 M61.3 4.15 Q63.5 4.05 63.6 6.25 L63.6 7.25 Q63.4 9.4 62.75 11.4 L62.5 12.5 Q61.75 17.75 63.85 21.35 L64.15 22.35 63.9 26.0 64.15 22.35 63.85 21.35 Q61.75 17.75 62.5 12.5 L62.75 11.4 Q63.4 9.4 63.6 7.25 L63.6 6.25 Q63.5 4.05 61.3 4.15 M45.7 31.7 L45.55 33.75 45.35 34.9 44.95 36.3 Q43.95 39.2 44.15 42.65 44.3 45.1 43.5 46.75 L43.25 47.35 42.85 48.1 Q42.25 48.75 42.5 50.4 L42.35 51.9 Q41.7 54.05 39.9 54.9 L39.1 55.35 Q37.4 56.4 34.3 56.15 37.4 56.4 39.1 55.35 L39.9 54.9 Q41.7 54.05 42.35 51.9 L42.5 50.4 Q42.25 48.75 42.85 48.1 L43.25 47.35 43.5 46.75 Q44.3 45.1 44.15 42.65 43.95 39.2 44.95 36.3 L45.35 34.9 45.55 33.75 45.7 31.7 M48.3 33.8 Q50.0 34.4 48.8 35.8 L48.55 36.4 Q48.4 37.8 47.8 38.45 47.15 39.1 47.05 40.55 L47.05 41.55 47.25 46.8 47.05 47.7 Q46.35 49.25 46.25 50.95 46.35 49.25 47.05 47.7 L47.25 46.8 47.05 41.55 47.05 40.55 Q47.15 39.1 47.8 38.45 48.4 37.8 48.55 36.4 L48.8 35.8 Q50.0 34.4 48.3 33.8 M33.7 14.9 Q34.6 14.25 35.35 13.05 35.85 12.25 34.95 11.3 L34.15 10.65 33.25 10.5 Q30.2 10.95 29.15 13.6 27.8 17.1 29.7 20.25 31.95 23.85 36.9 23.2 37.4 23.15 37.75 22.75 L40.25 20.05 Q40.5 19.8 40.35 19.3 L40.1 18.65 39.35 16.7 39.0 16.05 Q38.4 15.35 37.4 15.25 36.35 15.1 35.75 14.75 L34.8 14.6 33.7 14.9 M15.55 15.1 Q14.8 15.65 15.75 17.05 17.0 18.85 16.5 21.25 15.6 25.6 13.5 29.1 L12.85 30.05 Q10.25 33.3 10.85 37.95 11.2 40.55 10.25 42.6 10.1 42.9 10.1 43.15 10.15 44.65 9.25 45.1 L9.25 45.2 Q9.15 48.6 10.45 51.4 L10.95 51.9 Q12.8 52.7 13.8 54.7 L14.2 55.2 Q14.9 55.5 14.75 56.65 L14.35 61.35 14.2 62.4 Q13.9 63.85 12.95 64.45 13.9 63.85 14.2 62.4 L14.35 61.35 14.75 56.65 Q14.9 55.5 14.2 55.2 L13.8 54.7 Q12.8 52.7 10.95 51.9 L10.45 51.4 Q9.15 48.6 9.25 45.2 L9.25 45.1 9.25 44.7 9.6 41.1 Q10.25 36.4 9.65 31.2 L9.3 30.2 Q7.95 27.85 8.6 25.45 L8.8 23.9 8.6 19.25 8.25 18.75 Q5.2 16.6 5.7 12.5 L6.4 8.9 7.0 7.15 7.5 6.5 7.0 7.15 6.4 8.9 5.7 12.5 Q5.2 16.6 8.25 18.75 L8.6 19.25 8.8 23.9 8.6 25.45 Q7.95 27.85 9.3 30.2 L9.65 31.2 Q10.25 36.4 9.6 41.1 L9.25 44.7 9.25 45.1 Q10.15 44.65 10.1 43.15 10.1 42.9 10.25 42.6 11.2 40.55 10.85 37.95 10.25 33.3 12.85 30.05 L13.5 29.1 Q15.6 25.6 16.5 21.25 17.0 18.85 15.75 17.05 14.8 15.65 15.55 15.1 M0.0 8.85 L0.0 17.15 -0.2 18.65 Q-0.5 19.65 -0.35 20.75 L-0.3 21.85 Q-0.4 24.2 0.9 25.6 1.3 26.0 1.5 26.55 L3.0 30.2 4.05 32.3 Q4.9 33.7 5.15 35.35 L4.95 36.2 Q4.4 36.95 4.45 37.95 4.7 42.65 3.6 47.3 4.7 42.65 4.45 37.95 4.4 36.95 4.95 36.2 L5.15 35.35 Q4.9 33.7 4.05 32.3 L3.0 30.2 1.5 26.55 Q1.3 26.0 0.9 25.6 -0.4 24.2 -0.3 21.85 L-0.35 20.75 Q-0.5 19.65 -0.2 18.65 L0.0 17.15 0.0 8.85 M17.8 21.9 L17.4 23.3 Q16.9 24.85 16.75 26.5 L16.4 29.05 16.35 29.65 Q16.35 30.65 15.45 30.95 10.75 32.7 11.1 37.95 L11.45 40.05 12.1 42.05 Q12.75 43.65 12.5 46.25 12.2 49.1 14.5 50.5 L14.8 50.95 Q15.0 53.0 16.05 54.65 L16.35 55.6 Q16.45 58.15 17.15 60.3 16.45 58.15 16.35 55.6 L16.05 54.65 Q15.0 53.0 14.8 50.95 L14.5 50.5 Q12.2 49.1 12.5 46.25 12.75 43.65 12.1 42.05 L11.45 40.05 11.1 37.95 Q10.75 32.7 15.45 30.95 16.35 30.65 16.35 29.65 L16.4 29.05 16.75 26.5 Q16.9 24.85 17.4 23.3 L17.8 21.9" fill="url(#gradient1)" fill-rule="evenodd" stroke="none"/>
    <path d="M407.0 197.55 L407.0 214.65 Q391.65 224.4 369.5 233.0 333.1 247.35 289.1 254.35 L235.25 254.35 105.55 254.35 Q61.5 247.35 25.15 233.0 0.55 223.4 -15.55 212.35 L-15.55 195.25 Q0.55 206.3 25.15 215.9 96.45 244.0 197.3 244.0 251.8 244.0 297.7 235.8 336.7 228.8 369.5 215.9 391.65 207.3 407.0 197.55 M282.75 238.5 L286.45 238.8 287.4 239.0 Q288.9 239.1 289.65 239.9 L290.45 240.65 291.05 241.1 Q291.65 241.75 291.8 243.15 L292.0 243.75 293.65 246.3 291.95 242.25 Q291.35 240.95 291.25 240.05 291.05 238.3 293.05 237.85 L294.1 237.4 294.75 237.1 297.7 235.8 294.75 237.1 294.1 237.4 293.05 237.85 Q291.05 238.3 291.25 240.05 291.35 240.95 291.95 242.25 L293.65 246.3 292.0 243.75 291.8 243.15 Q291.65 241.75 291.05 241.1 L290.45 240.65 289.65 239.9 Q288.9 239.1 287.4 239.0 L286.45 238.8 282.75 238.5 M230.75 246.3 Q233.7 246.05 234.7 248.45 L234.75 249.35 234.45 250.0 233.85 250.95 Q234.0 251.85 235.4 252.0 235.7 252.05 235.7 252.55 235.75 253.5 235.25 254.35 235.75 253.5 235.7 252.55 235.7 252.05 235.4 252.0 234.0 251.85 233.85 250.95 L234.45 250.0 234.75 249.35 234.7 248.45 Q233.7 246.05 230.75 246.3 M272.35 242.65 L271.65 241.75 Q271.3 241.35 271.3 241.15 271.4 240.25 270.75 240.6 271.4 240.25 271.3 241.15 271.3 241.35 271.65 241.75 L272.35 242.65 M253.7 246.4 Q251.55 247.75 250.5 249.4 251.55 247.75 253.7 246.4 M297.3 251.5 L297.3 250.95 297.3 249.4 297.3 250.95 297.3 251.5 M239.6 250.45 Q238.35 250.1 239.5 248.8 L239.75 247.95 Q239.25 246.4 237.4 245.45 L236.65 245.0 Q235.55 244.15 235.45 245.25 235.55 244.15 236.65 245.0 L237.4 245.45 Q239.25 246.4 239.75 247.95 L239.5 248.8 Q238.35 250.1 239.6 250.45" fill="url(#gradient2)" fill-rule="evenodd" stroke="none"/>
    <path d="M407.0 214.65 L407.0 254.35 289.1 254.35 Q333.1 247.35 369.5 233.0 391.65 224.4 407.0 214.65 M362.75 242.15 Q363.4 242.15 361.7 242.7 L360.15 243.2 Q355.05 244.7 349.85 246.55 348.2 247.1 346.6 247.75 342.9 249.15 339.35 250.0 L332.1 251.3 Q330.15 251.5 328.55 252.25 326.9 253.0 326.35 252.05 326.9 253.0 328.55 252.25 330.15 251.5 332.1 251.3 L339.35 250.0 Q342.9 249.15 346.6 247.75 348.2 247.1 349.85 246.55 355.05 244.7 360.15 243.2 L361.7 242.7 Q363.4 242.15 362.75 242.15 M399.65 241.1 Q399.1 242.6 397.6 243.75 395.2 245.65 392.45 247.05 L390.15 247.95 Q384.35 249.75 378.35 252.05 384.35 249.75 390.15 247.95 L392.45 247.05 Q395.2 245.65 397.6 243.75 399.1 242.6 399.65 241.1 M404.3 222.4 L403.25 223.35 Q399.25 225.8 394.95 227.6 399.25 225.8 403.25 223.35 L404.3 222.4 M405.8 225.35 L404.95 225.75 403.7 226.35 Q401.9 227.2 400.2 228.25 397.35 230.0 395.0 230.9 L394.4 231.1 Q391.8 231.9 389.2 233.2 L387.1 234.25 Q385.45 235.1 383.5 237.45 L382.95 237.9 377.35 240.25 Q372.65 242.05 367.95 243.2 372.65 242.05 377.35 240.25 L382.95 237.9 383.5 237.45 Q385.45 235.1 387.1 234.25 L389.2 233.2 Q391.8 231.9 394.4 231.1 L395.0 230.9 Q397.35 230.0 400.2 228.25 401.9 227.2 403.7 226.35 L404.95 225.75 405.8 225.35 M59.75 249.95 Q58.0 250.15 57.2 249.4 L56.6 249.15 Q53.35 248.6 50.4 247.35 L49.3 247.0 47.3 246.7 42.65 245.65 42.05 245.5 Q38.4 244.85 35.85 243.2 38.4 244.85 42.05 245.5 L42.65 245.65 47.3 246.7 49.3 247.0 50.4 247.35 Q53.35 248.6 56.6 249.15 L57.2 249.4 Q58.0 250.15 59.75 249.95 M33.25 252.55 L32.75 252.45 32.2 252.3 Q30.1 252.4 28.6 251.45 25.85 249.75 22.9 248.8 L19.2 247.35 Q18.7 247.1 18.1 247.0 L16.7 246.6 12.45 246.35 9.85 246.8 8.95 246.6 Q6.25 245.1 3.1 244.35 -0.25 243.55 -3.2 241.7 -3.65 241.4 -4.2 241.35 -6.5 241.35 -7.3 240.1 -6.5 241.35 -4.2 241.35 -3.65 241.4 -3.2 241.7 -0.25 243.55 3.1 244.35 6.25 245.1 8.95 246.6 L9.85 246.8 12.45 246.35 16.7 246.6 18.1 247.0 Q18.7 247.1 19.2 247.35 L22.9 248.8 Q25.85 249.75 28.6 251.45 30.1 252.4 32.2 252.3 L32.75 252.45 33.25 252.55 M27.5 240.1 L24.45 239.4 23.85 239.15 Q21.55 238.15 19.7 237.65 L18.85 237.25 17.15 236.4 16.25 235.8 Q15.0 234.65 12.45 234.4 11.95 234.35 11.7 234.1 11.0 233.25 9.35 233.15 L7.75 233.0 3.1 232.6 2.55 232.35 1.5 231.85 Q-0.6 231.0 -1.65 228.65 L-2.25 227.75 Q-3.55 226.25 -5.15 225.45 L-5.65 224.95 Q-6.55 223.5 -8.3 222.35 -8.6 222.15 -8.9 222.1 -11.05 221.85 -12.5 220.35 -12.75 220.1 -13.0 220.1 -14.65 220.15 -15.1 219.3 -14.65 220.15 -13.0 220.1 -12.75 220.1 -12.5 220.35 -11.05 221.85 -8.9 222.1 -8.6 222.15 -8.3 222.35 -6.55 223.5 -5.65 224.95 L-5.15 225.45 Q-3.55 226.25 -2.25 227.75 L-1.65 228.65 Q-0.6 231.0 1.5 231.85 L2.55 232.35 3.1 232.6 7.75 233.0 9.35 233.15 Q11.0 233.25 11.7 234.1 11.95 234.35 12.45 234.4 15.0 234.65 16.25 235.8 L17.15 236.4 18.85 237.25 19.7 237.65 Q21.55 238.15 23.85 239.15 L24.45 239.4 27.5 240.1 M-15.55 212.35 Q0.55 223.4 25.15 233.0 61.5 247.35 105.55 254.35 L-15.55 254.35 -15.55 212.35" fill="url(#gradient3)" fill-rule="evenodd" stroke="none"/>
    <path d="M407.0 75.4 L407.0 99.0 Q391.65 89.25 369.5 80.55 298.15 52.7 197.3 52.7 96.45 52.7 25.15 80.55 0.55 90.25 -15.55 101.35 L-15.55 96.1 -15.55 78.05 Q-1.9 70.7 16.0 64.05 74.1 42.6 150.75 37.7 L198.2 36.2 Q215.4 36.2 231.75 36.95 L253.1 38.2 Q289.8 41.0 322.15 47.65 L335.55 50.6 335.8 50.65 Q359.3 56.25 380.4 64.05 395.15 69.5 407.0 75.4 M382.5 79.0 L379.4 78.3 378.85 78.25 Q377.6 78.25 376.75 77.45 L376.25 76.9 Q375.35 75.75 373.15 76.05 371.85 76.2 371.2 75.25 370.4 74.1 369.5 73.95 L367.95 73.7 366.4 73.4 365.45 73.1 363.25 72.3 360.7 71.55 360.1 71.4 Q357.55 70.9 356.0 71.7 357.55 70.9 360.1 71.4 L360.7 71.55 363.25 72.3 365.45 73.1 366.4 73.4 367.95 73.7 369.5 73.95 Q370.4 74.1 371.2 75.25 371.85 76.2 373.15 76.05 375.35 75.75 376.25 76.9 L376.75 77.45 Q377.6 78.25 378.85 78.25 L379.4 78.3 382.5 79.0 M366.9 66.55 Q364.7 66.65 363.3 65.9 L362.7 65.55 Q362.25 65.25 361.7 65.2 359.45 65.2 357.55 64.4 L356.6 63.85 Q355.35 62.7 354.4 62.4 352.7 61.85 350.8 61.85 L349.8 61.7 345.65 60.2 344.55 60.0 Q342.0 60.0 339.9 59.15 L339.3 58.9 Q337.45 58.4 336.75 59.25 337.45 58.4 339.3 58.9 L339.9 59.15 Q342.0 60.0 344.55 60.0 L345.65 60.2 349.8 61.7 350.8 61.85 Q352.7 61.85 354.4 62.4 355.35 62.7 356.6 63.85 L357.55 64.4 Q359.45 65.2 361.7 65.2 362.25 65.25 362.7 65.55 L363.3 65.9 Q364.7 66.65 366.9 66.55 M403.8 81.1 Q403.3 80.55 402.25 80.55 L401.3 80.35 398.65 78.9 398.05 78.7 395.55 78.3 Q395.0 78.25 394.65 77.8 393.65 76.35 391.85 75.9 L386.15 74.3 391.85 75.9 Q393.65 76.35 394.65 77.8 395.0 78.25 395.55 78.3 L398.05 78.7 398.65 78.9 401.3 80.35 402.25 80.55 Q403.3 80.55 403.8 81.1 M405.9 88.35 Q403.75 88.45 402.35 87.7 401.7 87.35 400.7 87.3 401.7 87.35 402.35 87.7 403.75 88.45 405.9 88.35 M280.1 46.8 L279.05 46.45 274.9 46.25 274.0 46.0 Q273.05 45.45 271.8 45.55 L269.25 45.1 268.65 44.9 260.9 45.2 268.65 44.9 269.25 45.1 271.8 45.55 Q273.05 45.45 274.0 46.0 L274.9 46.25 279.05 46.45 280.1 46.8 M246.3 47.8 L243.75 47.6 243.15 47.5 241.15 47.15 238.0 46.85 Q233.3 46.8 228.65 47.05 L228.15 47.05 222.95 47.3 219.85 47.1 Q217.55 46.8 216.2 48.35 217.55 46.8 219.85 47.1 L222.95 47.3 228.15 47.05 228.65 47.05 Q233.3 46.8 238.0 46.85 L241.15 47.15 243.15 47.5 243.75 47.6 246.3 47.8 M317.5 53.55 L314.4 53.55 313.45 53.35 Q311.25 52.25 308.7 52.05 308.2 52.0 307.95 52.25 307.5 52.85 306.1 52.6 L305.15 52.3 Q304.55 52.0 303.55 51.85 L302.45 51.75 Q297.7 52.05 294.2 49.85 L293.6 49.65 285.8 49.4 293.6 49.65 294.2 49.85 Q297.7 52.05 302.45 51.75 L303.55 51.85 Q304.55 52.0 305.15 52.3 L306.1 52.6 Q307.5 52.85 307.95 52.25 308.2 52.0 308.7 52.05 311.25 52.25 313.45 53.35 L314.4 53.55 317.5 53.55 M323.25 59.75 Q322.15 59.0 320.1 59.0 L319.6 59.0 313.35 58.75 319.6 59.0 320.1 59.0 Q322.15 59.0 323.25 59.75 M226.55 43.15 L221.4 43.35 220.35 43.5 214.55 43.3 Q211.2 42.3 207.35 42.6 L206.7 42.45 Q206.4 41.75 205.25 42.15 L203.7 42.5 201.15 42.85 200.6 42.9 199.5 42.8 198.9 42.45 Q198.4 41.45 196.95 41.55 L194.4 41.8 Q192.35 42.15 190.7 43.15 192.35 42.15 194.4 41.8 L196.95 41.55 Q198.4 41.45 198.9 42.45 L199.5 42.8 200.6 42.9 201.15 42.85 203.7 42.5 205.25 42.15 Q206.4 41.75 206.7 42.45 L207.35 42.6 Q211.2 42.3 214.55 43.3 L220.35 43.5 221.4 43.35 226.55 43.15 M178.75 47.3 L173.15 47.1 171.5 47.3 173.15 47.1 178.75 47.3 M160.05 43.15 L158.0 42.95 157.4 42.8 Q155.65 42.3 154.3 43.1 L153.3 43.45 150.2 43.75 146.6 44.35 145.95 44.5 Q143.25 44.85 141.85 43.65 143.25 44.85 145.95 44.5 L146.6 44.35 150.2 43.75 153.3 43.45 154.3 43.1 Q155.65 42.3 157.4 42.8 L158.0 42.95 160.05 43.15 M128.35 50.4 L125.75 50.4 123.7 50.6 119.0 51.0 115.95 50.7 115.35 50.7 114.25 50.8 Q113.8 50.95 113.5 51.2 111.9 52.55 108.6 52.45 L103.4 52.95 99.25 54.05 103.4 52.95 108.6 52.45 Q111.9 52.55 113.5 51.2 113.8 50.95 114.25 50.8 L115.35 50.7 115.95 50.7 119.0 51.0 123.7 50.6 125.75 50.4 128.35 50.4 M98.7 49.4 L90.95 50.45 Q87.05 51.05 83.6 52.4 80.45 53.65 76.9 53.4 74.45 53.2 73.15 53.85 L72.5 54.3 Q71.45 55.6 69.05 56.5 L68.2 56.9 66.0 57.45 65.45 57.5 60.25 57.7 65.45 57.5 66.0 57.45 68.2 56.9 69.05 56.5 Q71.45 55.6 72.5 54.3 L73.15 53.85 Q74.45 53.2 76.9 53.4 80.45 53.65 83.6 52.4 87.05 51.05 90.95 50.45 L98.7 49.4 M43.65 66.0 Q40.85 65.8 38.45 66.6 34.85 67.8 31.7 69.1 30.5 69.6 30.1 70.15 30.5 69.6 31.7 69.1 34.85 67.8 38.45 66.6 40.85 65.8 43.65 66.0 M36.35 63.95 L35.85 63.95 34.85 64.1 Q29.7 66.0 24.45 68.2 L22.3 68.9 Q17.55 70.2 14.45 71.5 L10.85 73.25 Q7.35 75.2 3.7 76.6 L1.95 77.2 -14.55 82.65 1.95 77.2 3.7 76.6 Q7.35 75.2 10.85 73.25 L14.45 71.5 Q17.55 70.2 22.3 68.9 L24.45 68.2 Q29.7 66.0 34.85 64.1 L35.85 63.95 36.35 63.95 M21.8 77.45 Q18.15 78.9 15.0 81.0 13.85 81.8 12.55 82.3 10.8 83.0 8.8 83.0 5.7 83.0 3.1 84.25 -3.45 87.4 -9.35 91.5 L-9.95 91.85 Q-12.9 93.3 -15.55 96.1 -12.9 93.3 -9.95 91.85 L-9.35 91.5 Q-3.45 87.4 3.1 84.25 5.7 83.0 8.8 83.0 10.8 83.0 12.55 82.3 13.85 81.8 15.0 81.0 18.15 78.9 21.8 77.45" fill="url(#gradient4)" fill-rule="evenodd" stroke="none"/>
    <path d="M285.45 18.55 L284.65 19.15 Q282.8 21.15 280.6 21.85 L274.9 22.4 Q273.35 22.35 272.6 21.55 272.35 21.3 271.85 21.15 L271.25 20.8 270.75 20.3 Q272.45 19.35 274.9 17.45 L274.75 17.2 274.35 16.7 Q273.45 16.0 274.05 14.1 L274.25 13.5 Q275.8 9.65 281.65 10.45 286.75 11.15 286.5 16.65 286.45 18.05 285.45 18.55 M274.9 17.45 Q275.85 19.35 278.55 18.2 L279.65 17.8 Q281.3 17.4 280.95 15.65 L280.75 15.05 Q280.2 13.75 279.05 13.75 276.9 13.8 277.5 15.1 276.9 13.8 279.05 13.75 280.2 13.75 280.75 15.05 L280.95 15.65 Q281.3 17.4 279.65 17.8 L278.55 18.2 Q275.85 19.35 274.9 17.45 M82.6 24.1 L82.65 24.05 83.35 23.65 Q84.85 22.0 87.75 22.55 88.9 22.8 89.55 23.8 90.85 25.85 90.2 28.55 L89.95 29.15 Q88.5 31.45 86.85 32.45 84.7 33.75 82.1 33.6 L80.5 33.4 79.05 33.05 Q76.45 32.3 75.25 29.7 75.1 29.4 75.1 29.1 L75.2 28.05 Q75.6 26.1 77.4 24.45 L77.9 23.85 Q78.7 22.6 79.95 22.15 L82.6 24.1 82.05 24.35 Q80.45 25.25 80.15 27.1 79.85 28.75 81.55 28.85 L82.15 28.9 Q84.0 29.2 84.75 28.15 85.2 27.55 85.2 26.5 85.2 27.55 84.75 28.15 84.0 29.2 82.15 28.9 L81.55 28.85 Q79.85 28.75 80.15 27.1 80.45 25.25 82.05 24.35 L82.6 24.1 M33.7 14.9 L34.8 14.6 35.75 14.75 Q36.35 15.1 37.4 15.25 38.4 15.35 39.0 16.05 L39.35 16.7 40.1 18.65 40.35 19.3 Q40.5 19.8 40.25 20.05 L37.75 22.75 Q37.4 23.15 36.9 23.2 31.95 23.85 29.7 20.25 27.8 17.1 29.15 13.6 30.2 10.95 33.25 10.5 L34.15 10.65 34.95 11.3 Q35.85 12.25 35.35 13.05 34.6 14.25 33.7 14.9 L33.3 15.15 32.6 16.05 32.15 16.6 Q31.0 17.55 32.2 19.25 32.75 20.0 33.75 19.9 L35.7 19.4 Q36.1 19.25 36.3 18.7 L36.35 18.2 36.3 18.7 Q36.1 19.25 35.7 19.4 L33.75 19.9 Q32.75 20.0 32.2 19.25 31.0 17.55 32.15 16.6 L32.6 16.05 33.3 15.15 33.7 14.9" fill="#9b8453" fill-rule="evenodd" stroke="none"/>
    <path d="M-15.55 195.25 L-15.55 212.35" fill="none" stroke="#000000" stroke-linecap="round" stroke-linejoin="round" stroke-width="0.05"/>
    <path d="M371.55 47.8 Q370.7 47.4 371.15 45.8 L371.55 44.7 Q372.4 42.7 374.2 41.65 379.35 38.65 385.6 39.45 L386.6 39.7 391.25 39.85 391.9 39.6 393.1 38.6 393.85 37.9 Q395.95 36.5 395.3 33.85 L394.9 33.3 391.75 31.3 Q389.75 30.1 391.95 28.2 L392.85 27.5 Q394.65 26.15 395.15 24.35 L395.2 23.85 Q394.95 22.05 393.55 20.65 393.15 20.3 393.1 19.75 392.9 18.65 393.55 17.85 L396.0 15.1 398.3 13.4 399.1 13.55 M345.75 10.0 L343.0 14.05 Q341.15 16.65 342.85 19.35 345.2 23.05 349.2 25.05 L349.8 25.3 Q351.4 25.55 351.8 27.55 352.3 30.25 350.3 31.9 355.5 31.35 360.15 32.7 L362.35 32.5 363.15 32.05 Q365.65 30.75 368.4 29.55 L371.15 28.35 372.55 27.9 Q373.55 27.65 373.85 27.2 374.2 26.8 374.75 26.6 376.2 26.05 376.2 23.9 376.15 22.95 375.15 22.45 372.7 21.35 374.2 18.75 375.15 17.1 375.0 15.1 L374.65 14.7 373.9 14.3 373.65 13.55 Q373.65 11.6 372.85 10.7 372.6 10.45 372.85 10.05 L373.55 9.25 Q374.6 8.2 376.75 8.25 378.5 8.25 378.35 6.75 M391.25 39.85 Q395.25 41.7 396.25 46.85 396.8 49.4 395.1 50.25 L394.4 50.9 393.35 53.0 393.15 54.05 393.4 55.1 396.3 60.9 396.7 61.75 Q397.4 63.4 397.25 65.5 397.15 67.4 396.0 68.1 M335.55 50.6 L335.05 49.3 335.05 48.3 Q335.95 43.55 338.0 39.1 L339.55 35.95 340.45 34.95 Q344.1 32.5 348.7 32.05 L350.25 31.9 350.3 31.9 M335.55 50.6 L335.8 50.65 Q359.3 56.25 380.4 64.05 395.15 69.5 407.0 75.4 M-15.55 101.35 Q0.55 90.25 25.15 80.55 96.45 52.7 197.3 52.7 298.15 52.7 369.5 80.55 391.65 89.25 407.0 99.0 M407.0 214.65 Q391.65 224.4 369.5 233.0 333.1 247.35 289.1 254.35 M310.9 2.85 Q311.3 2.25 311.3 1.55 M291.0 41.6 L291.0 40.05 291.25 32.75 291.5 31.65 Q293.1 27.4 297.2 25.85 299.65 24.9 301.05 23.0 L302.15 21.45 303.85 19.6 305.15 18.3 309.5 13.8 Q309.75 13.55 309.6 13.05 L309.2 12.5 Q307.45 10.75 306.8 8.8 306.6 8.05 306.8 7.35 307.15 6.3 308.15 5.75 309.15 5.15 309.55 4.3 L310.2 3.55 310.9 2.85 M234.9 2.85 L234.75 3.6 234.55 4.2 Q234.4 5.2 234.9 5.75 L235.2 6.3 Q235.5 9.1 234.35 11.45 234.05 11.95 234.0 12.5 233.85 13.8 234.05 15.1 L234.05 16.05 233.6 20.85 Q236.3 29.8 231.75 36.95 L253.1 38.2 253.85 33.75 Q254.7 28.75 251.4 26.1 L250.55 25.45 Q247.9 23.6 246.8 20.3 L245.2 16.7 244.85 16.05 Q244.1 14.75 244.0 13.0 L243.75 11.95 243.2 10.4 M285.45 18.55 L284.65 19.15 Q282.8 21.15 280.6 21.85 L274.9 22.4 Q273.35 22.35 272.6 21.55 272.35 21.3 271.85 21.15 L271.25 20.8 270.75 20.3 Q272.45 19.35 274.9 17.45 L274.75 17.2 274.35 16.7 Q273.45 16.0 274.05 14.1 L274.25 13.5 Q275.8 9.65 281.65 10.45 286.75 11.15 286.5 16.65 286.45 18.05 285.45 18.55 M277.5 15.1 Q276.9 13.8 279.05 13.75 280.2 13.75 280.75 15.05 L280.95 15.65 Q281.3 17.4 279.65 17.8 L278.55 18.2 Q275.85 19.35 274.9 17.45 M248.4 21.3 L248.95 20.35 Q249.8 19.0 249.7 17.15 L249.9 16.6 Q251.25 14.8 251.65 13.05 L251.95 11.9 Q252.45 10.25 251.5 9.9 M253.1 38.2 Q289.8 41.0 322.15 47.65 L335.55 50.6 M233.6 20.85 Q231.25 14.6 229.25 8.3 L228.5 6.3 228.3 5.7 228.15 4.7 M203.2 22.9 Q202.65 22.95 203.55 21.2 L204.65 19.65 205.35 18.75 206.95 16.75 Q207.6 16.1 207.75 15.1 208.45 11.35 208.4 7.3 M201.1 34.85 L203.1 27.0 Q203.7 24.2 202.35 22.75 L200.7 21.2 Q197.5 18.45 198.0 14.05 198.3 11.2 197.55 8.8 197.1 7.45 198.0 7.3 M150.75 37.7 L198.2 36.2 Q215.4 36.2 231.75 36.95 M150.75 37.7 Q149.65 36.55 150.55 35.25 151.3 34.2 151.35 32.75 151.45 28.45 149.2 24.9 L148.7 23.85 Q147.55 20.35 146.95 16.65 L146.55 15.1 M107.55 10.4 Q107.55 9.75 108.25 11.4 L108.35 11.95 Q108.35 14.5 107.45 16.6 106.95 17.8 107.2 19.2 107.8 22.35 109.6 25.0 L109.95 26.0 Q110.15 28.05 109.95 30.15 L109.75 31.7 109.65 32.25 112.7 32.0 113.35 31.9 Q115.85 31.2 118.05 29.85 L119.6 28.75 120.3 27.95 120.5 27.05 Q120.45 25.65 120.85 24.85 L121.2 23.95 121.35 22.9 121.2 21.8 120.25 17.65 Q119.8 15.4 120.65 13.6 122.95 8.8 126.0 5.0 L126.25 4.15 126.25 3.65 M82.6 24.1 L79.95 22.15 Q78.7 22.6 77.9 23.85 L77.4 24.45 Q75.6 26.1 75.2 28.05 L75.1 29.1 Q75.1 29.4 75.25 29.7 76.45 32.3 79.05 33.05 L80.5 33.4 82.1 33.6 Q84.7 33.75 86.85 32.45 88.5 31.45 89.95 29.15 L90.2 28.55 Q90.85 25.85 89.55 23.8 88.9 22.8 87.75 22.55 84.85 22.0 83.35 23.65 L82.65 24.05 82.6 24.1 82.05 24.35 Q80.45 25.25 80.15 27.1 79.85 28.75 81.55 28.85 L82.15 28.9 Q84.0 29.2 84.75 28.15 85.2 27.55 85.2 26.5 M106.0 41.6 Q106.4 39.65 107.95 38.7 L108.55 37.95 108.9 35.85 Q109.0 34.4 109.4 33.15 L109.65 32.25 M76.9 7.8 L78.75 2.85 79.0 2.1 M63.9 2.85 L64.4 3.2 Q68.5 5.8 68.1 11.45 L68.0 12.5 67.2 16.15 Q67.0 16.9 67.15 17.65 67.35 18.7 67.8 19.4 L68.05 20.3 68.3 24.9 68.6 25.5 M61.8 1.55 Q61.05 0.6 62.3 1.65 L63.9 2.85 M-15.55 78.05 Q-1.9 70.7 16.0 64.05 74.1 42.6 150.75 37.7 M34.3 56.15 Q37.4 56.4 39.1 55.35 L39.9 54.9 Q41.7 54.05 42.35 51.9 L42.5 50.4 Q42.25 48.75 42.85 48.1 L43.25 47.35 43.5 46.75 Q44.3 45.1 44.15 42.65 43.95 39.2 44.95 36.3 L45.35 34.9 45.55 33.75 45.7 31.7 M33.7 14.9 Q34.6 14.25 35.35 13.05 35.85 12.25 34.95 11.3 L34.15 10.65 33.25 10.5 Q30.2 10.95 29.15 13.6 27.8 17.1 29.7 20.25 31.95 23.85 36.9 23.2 37.4 23.15 37.75 22.75 L40.25 20.05 Q40.5 19.8 40.35 19.3 L40.1 18.65 39.35 16.7 39.0 16.05 Q38.4 15.35 37.4 15.25 36.35 15.1 35.75 14.75 L34.8 14.6 33.7 14.9 33.3 15.15 32.6 16.05 32.15 16.6 Q31.0 17.55 32.2 19.25 32.75 20.0 33.75 19.9 L35.7 19.4 Q36.1 19.25 36.3 18.7 L36.35 18.2 M12.95 64.45 Q13.9 63.85 14.2 62.4 L14.35 61.35 14.75 56.65 Q14.9 55.5 14.2 55.2 L13.8 54.7 Q12.8 52.7 10.95 51.9 L10.45 51.4 Q9.15 48.6 9.25 45.2 L9.25 45.1 9.25 44.7 9.6 41.1 Q10.25 36.4 9.65 31.2 L9.3 30.2 Q7.95 27.85 8.6 25.45 L8.8 23.9 8.6 19.25 8.25 18.75 Q5.2 16.6 5.7 12.5 L6.4 8.9 7.0 7.15 7.5 6.5 M9.25 45.1 Q10.15 44.65 10.1 43.15 10.1 42.9 10.25 42.6 11.2 40.55 10.85 37.95 10.25 33.3 12.85 30.05 L13.5 29.1 Q15.6 25.6 16.5 21.25 17.0 18.85 15.75 17.05 14.8 15.65 15.55 15.1 M105.55 254.35 Q61.5 247.35 25.15 233.0 0.55 223.4 -15.55 212.35" fill="none" stroke="#4d3a26" stroke-linecap="round" stroke-linejoin="round" stroke-width="1.0"/>
    <path d="M407.0 197.55 Q391.65 207.3 369.5 215.9 336.7 228.8 297.7 235.8 251.8 244.0 197.3 244.0 96.45 244.0 25.15 215.9 0.55 206.3 -15.55 195.25" fill="none" stroke="#e6b977" stroke-linecap="round" stroke-linejoin="round" stroke-width="1.0"/>
    <path d="M336.75 59.25 Q337.45 58.4 339.3 58.9 L339.9 59.15 Q342.0 60.0 344.55 60.0 L345.65 60.2 349.8 61.7 350.8 61.85 Q352.7 61.85 354.4 62.4 355.35 62.7 356.6 63.85 L357.55 64.4 Q359.45 65.2 361.7 65.2 362.25 65.25 362.7 65.55 L363.3 65.9 Q364.7 66.65 366.9 66.55 M356.0 71.7 Q357.55 70.9 360.1 71.4 L360.7 71.55 363.25 72.3 365.45 73.1 366.4 73.4 367.95 73.7 369.5 73.95 Q370.4 74.1 371.2 75.25 371.85 76.2 373.15 76.05 375.35 75.75 376.25 76.9 L376.75 77.45 Q377.6 78.25 378.85 78.25 L379.4 78.3 382.5 79.0 M386.15 74.3 L391.85 75.9 Q393.65 76.35 394.65 77.8 395.0 78.25 395.55 78.3 L398.05 78.7 398.65 78.9 401.3 80.35 402.25 80.55 Q403.3 80.55 403.8 81.1 M400.7 87.3 Q401.7 87.35 402.35 87.7 403.75 88.45 405.9 88.35 M367.95 243.2 Q372.65 242.05 377.35 240.25 L382.95 237.9 383.5 237.45 Q385.45 235.1 387.1 234.25 L389.2 233.2 Q391.8 231.9 394.4 231.1 L395.0 230.9 Q397.35 230.0 400.2 228.25 401.9 227.2 403.7 226.35 L404.95 225.75 405.8 225.35 M394.95 227.6 Q399.25 225.8 403.25 223.35 L404.3 222.4 M378.35 252.05 Q384.35 249.75 390.15 247.95 L392.45 247.05 Q395.2 245.65 397.6 243.75 399.1 242.6 399.65 241.1 M326.35 252.05 Q326.9 253.0 328.55 252.25 330.15 251.5 332.1 251.3 L339.35 250.0 Q342.9 249.15 346.6 247.75 348.2 247.1 349.85 246.55 355.05 244.7 360.15 243.2 L361.7 242.7 Q363.4 242.15 362.75 242.15 M216.2 48.35 Q217.55 46.8 219.85 47.1 L222.95 47.3 228.15 47.05 228.65 47.05 Q233.3 46.8 238.0 46.85 L241.15 47.15 243.15 47.5 243.75 47.6 246.3 47.8 M260.9 45.2 L268.65 44.9 269.25 45.1 271.8 45.55 Q273.05 45.45 274.0 46.0 L274.9 46.25 279.05 46.45 280.1 46.8 M313.35 58.75 L319.6 59.0 320.1 59.0 Q322.15 59.0 323.25 59.75 M285.8 49.4 L293.6 49.65 294.2 49.85 Q297.7 52.05 302.45 51.75 L303.55 51.85 Q304.55 52.0 305.15 52.3 L306.1 52.6 Q307.5 52.85 307.95 52.25 308.2 52.0 308.7 52.05 311.25 52.25 313.45 53.35 L314.4 53.55 317.5 53.55 M190.7 43.15 Q192.35 42.15 194.4 41.8 L196.95 41.55 Q198.4 41.45 198.9 42.45 L199.5 42.8 200.6 42.9 201.15 42.85 203.7 42.5 205.25 42.15 Q206.4 41.75 206.7 42.45 L207.35 42.6 Q211.2 42.3 214.55 43.3 L220.35 43.5 221.4 43.35 226.55 43.15 M171.5 47.3 L173.15 47.1 178.75 47.3 M141.85 43.65 Q143.25 44.85 145.95 44.5 L146.6 44.35 150.2 43.75 153.3 43.45 154.3 43.1 Q155.65 42.3 157.4 42.8 L158.0 42.95 160.05 43.15 M99.25 54.05 L103.4 52.95 108.6 52.45 Q111.9 52.55 113.5 51.2 113.8 50.95 114.25 50.8 L115.35 50.7 115.95 50.7 119.0 51.0 123.7 50.6 125.75 50.4 128.35 50.4 M60.25 57.7 L65.45 57.5 66.0 57.45 68.2 56.9 69.05 56.5 Q71.45 55.6 72.5 54.3 L73.15 53.85 Q74.45 53.2 76.9 53.4 80.45 53.65 83.6 52.4 87.05 51.05 90.95 50.45 L98.7 49.4 M-14.55 82.65 L1.95 77.2 3.7 76.6 Q7.35 75.2 10.85 73.25 L14.45 71.5 Q17.55 70.2 22.3 68.9 L24.45 68.2 Q29.7 66.0 34.85 64.1 L35.85 63.95 36.35 63.95 M30.1 70.15 Q30.5 69.6 31.7 69.1 34.85 67.8 38.45 66.6 40.85 65.8 43.65 66.0 M-15.55 96.1 Q-12.9 93.3 -9.95 91.85 L-9.35 91.5 Q-3.45 87.4 3.1 84.25 5.7 83.0 8.8 83.0 10.8 83.0 12.55 82.3 13.85 81.8 15.0 81.0 18.15 78.9 21.8 77.45 M35.85 243.2 Q38.4 244.85 42.05 245.5 L42.65 245.65 47.3 246.7 49.3 247.0 50.4 247.35 Q53.35 248.6 56.6 249.15 L57.2 249.4 Q58.0 250.15 59.75 249.95 M-15.1 219.3 Q-14.65 220.15 -13.0 220.1 -12.75 220.1 -12.5 220.35 -11.05 221.85 -8.9 222.1 -8.6 222.15 -8.3 222.35 -6.55 223.5 -5.65 224.95 L-5.15 225.45 Q-3.55 226.25 -2.25 227.75 L-1.65 228.65 Q-0.6 231.0 1.5 231.85 L2.55 232.35 3.1 232.6 7.75 233.0 9.35 233.15 Q11.0 233.25 11.7 234.1 11.95 234.35 12.45 234.4 15.0 234.65 16.25 235.8 L17.15 236.4 18.85 237.25 19.7 237.65 Q21.55 238.15 23.85 239.15 L24.45 239.4 27.5 240.1 M-7.3 240.1 Q-6.5 241.35 -4.2 241.35 -3.65 241.4 -3.2 241.7 -0.25 243.55 3.1 244.35 6.25 245.1 8.95 246.6 L9.85 246.8 12.45 246.35 16.7 246.6 18.1 247.0 Q18.7 247.1 19.2 247.35 L22.9 248.8 Q25.85 249.75 28.6 251.45 30.1 252.4 32.2 252.3 L32.75 252.45 33.25 252.55" fill="none" stroke="#99ccff" stroke-linecap="round" stroke-linejoin="round" stroke-width="0.05"/>
    <path d="M396.5 40.55 L399.9 35.7 Q400.15 35.35 400.0 34.9 L399.8 34.25 399.5 33.3 399.3 32.7 Q398.75 29.65 398.65 26.5 398.65 25.0 399.55 24.35 L402.25 22.35 M339.85 49.4 Q340.7 47.9 340.65 45.2 L340.75 44.65 Q341.55 42.2 342.8 39.95 L343.15 39.05 Q343.7 37.3 346.05 36.8 L347.2 36.55 Q351.7 35.6 356.5 35.6 L357.05 35.7 358.75 35.6 Q359.1 35.35 359.6 35.25 L361.2 34.95 362.7 34.65 363.3 34.5 365.85 34.45 Q366.95 34.6 367.3 34.05 367.45 33.8 367.95 33.75 369.6 33.5 371.05 32.75 371.55 32.45 372.1 32.4 L374.6 31.9 Q375.25 31.75 375.55 31.1 L375.9 30.2 376.3 29.7 379.1 27.3 379.3 26.5 Q379.2 24.05 380.2 22.25 L380.25 21.35 379.65 19.2 Q379.65 18.75 380.05 18.35 L380.7 17.55 Q380.95 17.2 380.8 16.7 L380.35 15.65 379.15 13.4 Q379.95 11.7 381.95 11.95 M375.2 49.4 L376.65 47.25 377.35 45.75 Q378.4 43.35 380.95 43.45 L388.2 43.65 390.25 43.85 390.6 44.25 391.1 45.85 391.5 46.7 Q390.65 48.0 388.35 49.15 387.95 49.4 387.85 49.95 387.7 50.9 388.0 51.55 L388.2 52.5 Q388.2 54.35 387.05 54.9 386.3 55.3 386.8 56.6 L387.2 57.1 Q388.4 57.8 389.25 58.75 388.25 59.25 387.0 60.7 M354.95 29.1 Q356.45 27.65 356.15 24.95 L355.8 22.4 355.4 21.9 Q352.75 20.35 353.15 15.6 L353.4 10.4 M326.35 39.0 Q327.3 38.85 326.65 37.75 L327.1 36.5 M296.75 40.05 Q296.55 36.25 297.2 32.75 297.45 31.3 298.45 30.3 L301.4 27.55 Q302.3 26.85 304.0 26.8 L305.05 26.45 Q308.1 24.6 309.3 21.35 309.65 20.4 310.1 20.1 L310.7 19.25 311.35 17.15 311.55 16.1 311.35 15.55 Q309.85 13.65 311.8 11.95 L313.5 10.55 Q314.35 9.85 314.7 8.8 L315.1 7.35 315.5 6.95 317.5 6.75 M322.15 47.65 Q320.5 45.6 320.4 42.65 L320.4 41.6 320.4 40.55 Q320.5 38.85 321.2 37.45 321.8 36.3 321.7 34.85 M256.7 36.9 L254.1 18.2 Q253.4 13.15 256.7 10.95 M145.0 35.85 Q145.8 34.3 145.6 31.7 L145.3 28.1 Q145.1 26.1 143.95 24.45 L142.05 21.2 141.9 20.3 142.1 16.65 Q142.15 16.15 141.75 15.75 M111.7 28.6 Q115.1 26.45 116.7 22.8 L116.8 21.85 116.1 17.1 Q115.9 15.35 116.1 13.55 L116.45 12.55 Q117.2 11.4 117.2 9.9 L117.45 9.4 Q118.65 8.4 118.95 6.85 L119.5 6.75 120.05 6.75 M102.9 41.05 Q103.25 38.85 104.8 37.75 L105.4 36.85 Q106.3 34.25 105.85 31.2 105.8 30.65 105.4 30.25 103.95 28.55 103.3 26.05 L103.0 24.9 Q102.55 23.05 103.15 22.2 L103.4 21.3 Q103.45 19.1 103.1 17.1 102.9 16.05 103.15 15.05 L103.4 13.0 M63.9 26.0 L64.15 22.35 63.85 21.35 Q61.75 17.75 62.5 12.5 L62.75 11.4 Q63.4 9.4 63.6 7.25 L63.6 6.25 Q63.5 4.05 61.3 4.15 M46.25 50.95 Q46.35 49.25 47.05 47.7 L47.25 46.8 47.05 41.55 47.05 40.55 Q47.15 39.1 47.8 38.45 48.4 37.8 48.55 36.4 L48.8 35.8 Q50.0 34.4 48.3 33.8 M17.15 60.3 Q16.45 58.15 16.35 55.6 L16.05 54.65 Q15.0 53.0 14.8 50.95 L14.5 50.5 Q12.2 49.1 12.5 46.25 12.75 43.65 12.1 42.05 L11.45 40.05 11.1 37.95 Q10.75 32.7 15.45 30.95 16.35 30.65 16.35 29.65 L16.4 29.05 16.75 26.5 Q16.9 24.85 17.4 23.3 L17.8 21.9 M3.6 47.3 Q4.7 42.65 4.45 37.95 4.4 36.95 4.95 36.2 L5.15 35.35 Q4.9 33.7 4.05 32.3 L3.0 30.2 1.5 26.55 Q1.3 26.0 0.9 25.6 -0.4 24.2 -0.3 21.85 L-0.35 20.75 Q-0.5 19.65 -0.2 18.65 L0.0 17.15 0.0 8.85" fill="none" stroke="#967556" stroke-linecap="round" stroke-linejoin="round" stroke-width="0.05"/>
    <path d="M235.25 254.35 L235.0 254.7 M352.9 95.6 Q353.9 94.45 356.0 94.35 356.55 94.3 357.05 94.6 L358.1 94.9 Q360.4 95.0 361.8 94.25 L362.75 94.0 365.9 93.5 M395.0 105.45 Q398.45 105.9 400.75 104.55 M395.5 142.35 L399.2 142.2 400.15 142.4 Q401.5 143.25 403.3 142.9 M333.15 186.55 Q332.5 185.6 330.6 186.1 330.0 186.25 329.5 186.55 M342.5 183.95 Q343.45 182.05 346.2 183.2 L347.15 183.35 Q349.5 183.15 351.4 183.85 352.45 184.3 352.8 183.6 L353.3 183.2 M396.0 176.15 Q396.25 175.0 397.65 174.8 398.55 174.7 399.25 175.5 400.2 176.5 401.7 176.0 L402.25 175.6 M370.05 200.05 L371.55 200.0 Q372.3 199.2 373.3 199.65 L374.2 199.5 375.25 199.05 Q376.7 198.65 377.15 199.3 L377.85 199.55 M297.7 235.8 L294.75 237.1 294.1 237.4 293.05 237.85 Q291.05 238.3 291.25 240.05 291.35 240.95 291.95 242.25 L293.65 246.3 292.0 243.75 291.8 243.15 Q291.65 241.75 291.05 241.1 L290.45 240.65 289.65 239.9 Q288.9 239.1 287.4 239.0 L286.45 238.8 282.75 238.5 M269.2 72.2 L271.75 72.4 272.35 72.75 M210.5 66.5 L216.7 66.8 221.95 67.35 223.5 67.55 M207.35 168.85 L209.45 168.45 210.45 168.2 211.0 168.1 211.6 168.15 214.65 168.35 M256.75 123.65 L261.45 121.15 261.95 121.05 Q262.5 122.4 264.5 123.2 L265.6 123.4 266.6 123.15 M245.3 197.45 Q245.5 194.5 248.95 195.4 L252.05 196.05 Q253.45 196.25 253.95 195.6 254.15 195.35 254.65 195.35 L258.3 195.35 M261.95 191.75 Q263.55 189.35 266.65 189.95 L268.7 190.15 270.25 190.15 M277.0 195.35 L279.1 194.95 Q280.5 194.75 281.15 195.35 M125.75 82.1 Q126.4 81.15 128.35 81.25 L129.4 81.3 130.0 81.4 130.95 81.55 M-9.35 101.3 Q-6.55 98.5 -2.1 97.25 1.4 96.25 4.7 95.05 6.85 94.25 9.35 94.1 L10.9 94.05 M31.2 83.65 Q32.05 82.95 33.8 82.9 L34.8 82.65 39.05 81.25 40.55 81.05 M39.0 116.9 Q41.0 117.8 42.35 116.65 42.65 116.4 43.15 116.4 L44.2 116.4 M7.3 144.95 Q8.7 143.5 10.9 144.45 L12.0 144.8 13.6 145.15 14.1 145.1 15.05 144.85 16.15 144.6 17.15 144.45 M98.25 116.4 Q100.3 115.95 101.7 114.05 L102.35 113.95 106.0 114.65 109.15 114.3 M122.15 156.9 Q122.4 158.1 122.95 157.05 123.2 156.65 123.7 156.6 L128.9 156.9 Q130.15 157.2 130.95 156.4 M89.4 222.4 Q90.35 220.75 92.05 219.95 93.0 219.55 93.65 220.2 L94.6 220.9 Q96.95 222.35 98.85 221.55 L99.8 221.45 Q101.45 221.7 102.1 221.1 102.4 220.85 102.9 220.85 M41.6 199.55 L51.95 200.25 52.55 200.35 54.55 200.55 M15.6 202.65 L18.2 202.65 18.7 202.65 M235.25 254.35 Q235.75 253.5 235.7 252.55 235.7 252.05 235.4 252.0 234.0 251.85 233.85 250.95 L234.45 250.0 234.75 249.35 234.7 248.45 Q233.7 246.05 230.75 246.3 M297.7 235.8 L298.3 235.4 M297.3 249.4 L297.3 250.95 297.3 251.5 M250.5 249.4 Q251.55 247.75 253.7 246.4 M-14.55 192.25 Q-12.6 193.8 -9.35 194.05 -9.1 194.1 -8.8 194.3 L-6.75 195.9" fill="none" stroke="#694e34" stroke-linecap="round" stroke-linejoin="round" stroke-width="1.0"/>
    <path d="M323.25 70.15 Q324.55 70.4 325.8 71.25 L326.4 71.7 M353.95 99.25 Q353.05 99.2 354.5 98.25 355.75 97.4 357.15 97.0 357.6 96.9 358.05 97.2 359.25 98.05 360.7 98.15 L361.65 98.35 Q362.0 98.45 362.25 98.7 M381.45 90.4 Q382.75 92.2 385.65 92.2 L386.2 92.4 Q388.1 93.35 390.8 93.75 L391.4 93.9 392.4 94.1 Q393.0 94.15 393.65 94.95 L394.35 95.75 M393.95 108.6 Q394.95 107.55 397.05 107.75 L397.65 107.85 400.2 108.05 M395.0 147.05 Q396.1 144.95 398.05 145.2 L398.65 145.3 Q401.1 146.0 403.3 147.05 M357.7 121.75 Q356.45 123.2 354.45 121.6 L354.55 121.1 354.8 120.5 355.2 119.75 355.75 119.25 Q356.7 118.3 358.6 118.55 358.0 116.45 356.55 115.85 L356.45 115.8 355.5 116.0 Q354.7 116.1 354.1 116.6 L351.9 118.0 Q350.45 118.75 350.8 121.05 351.35 124.4 355.0 125.0 L357.5 124.95 360.2 124.3 362.15 123.45 Q362.75 123.1 362.85 122.1 363.0 119.9 361.6 119.2 L360.7 118.9 359.1 118.6 358.6 118.55 M356.0 114.85 Q355.3 115.35 356.45 115.8 356.8 115.65 356.55 115.35 M341.95 188.1 Q342.05 186.45 344.05 186.0 345.1 186.0 345.7 186.45 347.15 187.5 349.3 187.25 L352.85 187.65 354.0 187.95 355.5 188.1 M396.0 179.25 Q396.45 178.15 397.5 177.5 399.15 178.0 400.5 179.55 L401.2 179.8 401.75 179.8 M404.85 107.55 L405.9 107.55 406.4 107.55 M251.0 58.2 L260.9 58.5 264.55 58.85 267.15 59.25 M271.3 76.9 Q272.15 76.7 272.1 75.35 L272.35 74.8 272.85 74.3 Q274.2 76.5 276.5 76.35 M282.75 76.35 L286.9 76.55 287.95 76.8 288.45 76.9 M179.3 56.1 L190.2 56.35 191.3 56.45 193.35 56.65 195.45 57.0 198.1 56.95 200.1 56.5 Q205.15 55.8 210.5 56.3 L212.05 56.45 218.8 56.8 224.5 57.15 M226.6 70.65 Q227.05 69.8 228.7 70.05 L231.9 69.8 232.75 69.4 M209.45 69.6 Q208.95 70.45 210.05 69.15 210.75 68.3 212.05 68.2 213.25 68.05 214.25 68.95 215.2 69.85 217.2 69.4 L217.75 69.35 218.75 69.65 219.3 70.15 M280.65 125.2 Q280.7 123.7 283.25 124.05 L285.8 124.4 286.35 124.7 M258.8 127.8 Q259.05 126.4 260.0 125.3 260.85 124.35 262.4 125.3 L263.0 125.75 264.55 127.3 265.05 127.8 M264.55 193.3 Q264.45 193.65 265.6 192.75 266.75 191.85 268.7 191.85 270.05 191.85 270.55 192.5 L271.3 192.7 Q273.3 192.45 274.4 193.8 M278.55 198.5 L284.3 197.7 284.85 197.75 286.35 197.95 M99.8 62.35 L102.9 62.15 104.0 61.95 110.75 60.45 112.8 60.25 117.45 60.25 M66.0 93.5 L65.8 91.95 Q65.65 90.8 66.35 90.5 L66.7 89.95 Q67.6 87.3 69.6 86.15 71.7 84.9 74.3 84.8 78.45 84.65 80.2 87.2 L81.0 88.35 Q81.85 89.4 81.4 91.4 81.0 93.45 79.65 94.75 L78.9 95.5 77.95 96.05 Q76.95 96.4 76.25 96.9 L75.35 97.15 Q71.8 97.35 70.0 95.2 L69.35 94.35 Q69.1 94.05 69.15 93.5 69.4 90.65 71.7 90.3 L73.3 90.1 Q75.8 89.9 75.75 91.95 75.75 93.1 74.3 93.05 L73.3 93.0 M46.25 76.35 L50.1 74.0 50.9 73.9 Q51.45 74.05 51.9 74.35 L54.65 74.45 56.15 73.7 Q60.2 72.1 64.4 71.1 L70.15 69.55 72.75 69.25 74.3 69.6 M64.95 93.5 L68.6 94.5 69.1 94.55 M80.05 145.5 L80.55 145.5 81.1 145.5 M44.2 118.45 L45.75 118.1 Q48.0 117.8 49.05 118.75 L49.85 118.85 50.4 118.45 Q51.0 117.7 51.95 117.95 M6.25 140.8 Q7.6 140.7 8.15 140.0 8.35 139.75 8.8 139.6 L9.4 139.45 10.95 139.65 Q11.95 140.3 13.05 140.45 L14.0 140.25 14.6 139.85 M37.4 147.05 Q37.3 145.15 38.5 144.65 L39.5 144.4 Q41.35 144.25 42.6 145.5 M24.95 167.85 Q25.15 168.25 26.15 166.95 L27.05 166.25 Q26.75 165.1 26.5 165.75 26.25 165.0 25.95 164.8 23.65 163.6 22.2 165.15 L21.55 165.95 21.15 166.75 20.85 167.35 Q19.65 169.05 20.85 171.45 21.8 173.35 23.95 174.55 25.45 175.4 28.05 175.2 29.55 175.05 30.8 173.7 31.45 173.05 31.45 172.0 L31.3 171.4 30.3 169.8 Q29.05 168.25 26.5 168.2 22.95 168.1 23.9 171.3 L24.4 171.6 25.0 171.75 Q26.1 171.95 27.0 171.4 L27.55 170.95 M39.0 198.5 Q39.85 197.3 42.05 196.3 43.45 195.65 44.7 195.65 L45.25 195.75 47.95 197.2 48.85 197.45 49.4 197.45 M98.25 111.7 Q98.9 110.25 100.85 110.0 L101.9 109.75 102.85 109.5 103.5 109.25 106.15 109.4 107.05 109.55 Q108.15 109.35 108.5 109.9 L109.1 110.0 109.7 109.75 Q110.75 109.35 110.7 110.15 M132.0 161.6 Q133.55 159.75 136.7 161.1 L137.7 161.7 Q138.4 162.2 139.8 162.1 M154.9 237.45 Q158.3 239.3 161.7 237.55 M270.75 240.6 Q271.4 240.25 271.3 241.15 271.3 241.35 271.65 241.75 L272.35 242.65 M235.45 245.25 Q235.55 244.15 236.65 245.0 L237.4 245.45 Q239.25 246.4 239.75 247.95 L239.5 248.8 Q238.35 250.1 239.6 250.45 M224.0 235.4 L225.65 235.05 226.55 235.0 227.65 235.4" fill="none" stroke="#c4ae95" stroke-linecap="round" stroke-linejoin="round" stroke-width="1.0"/>
    <path d="M380.4 67.55 Q395.45 73.15 407.0 78.9 L407.0 99.0 Q391.65 89.25 369.5 80.55 298.15 52.7 197.3 52.7 96.45 52.7 25.15 80.55 0.55 90.25 -15.55 101.35 L-15.55 81.55 Q-2.0 74.25 16.0 67.55 91.6 39.7 198.2 39.7 304.9 39.7 380.4 67.55 M407.0 258.25 L289.1 258.25 Q333.1 251.25 369.5 236.9 391.65 228.3 407.0 218.55 L407.0 258.25 M25.15 236.9 Q61.5 251.25 105.55 258.25 L-15.55 258.25 -15.55 216.25 Q0.55 227.3 25.15 236.9" fill="#81c0fe" fill-opacity="0.3137255" fill-rule="evenodd" stroke="none"/>
  </g>
  <defs>
    <radialGradient cx="0" cy="0" gradientTransform="matrix(0.0039, 0.2187, -0.436, 0.0077, 192.0, 147.0)" gradientUnits="userSpaceOnUse" id="gradient0" r="819.2" spreadMethod="pad">
      <stop offset="0.0" stop-color="#c5a989"/>
      <stop offset="0.36470588235294116" stop-color="#b69b6a"/>
      <stop offset="0.6666666666666666" stop-color="#a68653"/>
      <stop offset="1.0" stop-color="#58472c"/>
    </radialGradient>
    <radialGradient cx="0" cy="0" gradientTransform="matrix(0.0014, 0.0816, -0.2417, 0.0043, 191.25, 36.4)" gradientUnits="userSpaceOnUse" id="gradient1" r="819.2" spreadMethod="pad">
      <stop offset="0.0" stop-color="#a58254"/>
      <stop offset="1.0" stop-color="#58472c"/>
    </radialGradient>
    <radialGradient cx="0" cy="0" gradientTransform="matrix(0.2614, 0.0, 0.0, 0.2614, 195.75, 224.8)" gradientUnits="userSpaceOnUse" id="gradient2" r="819.2" spreadMethod="pad">
      <stop offset="0.0" stop-color="#a58254"/>
      <stop offset="1.0" stop-color="#58472c"/>
    </radialGradient>
    <linearGradient gradientTransform="matrix(-3.0E-4, 0.0299, -0.0314, -3.0E-4, 119.25, 233.75)" gradientUnits="userSpaceOnUse" id="gradient3" spreadMethod="pad" x1="-819.2" x2="819.2">
      <stop offset="0.0" stop-color="#c7a98d"/>
      <stop offset="1.0" stop-color="#2c2116"/>
    </linearGradient>
    <linearGradient gradientTransform="matrix(-5.0E-4, 0.0364, -0.0398, -5.0E-4, 195.6, 66.55)" gradientUnits="userSpaceOnUse" id="gradient4" spreadMethod="pad" x1="-819.2" x2="819.2">
      <stop offset="0.0" stop-color="#c7a98d"/>
      <stop offset="1.0" stop-color="#2c2116"/>
    </linearGradient>
  </defs>
</svg>
