<?xml version="1.0" encoding="UTF-8" standalone="no"?>
<svg xmlns:xlink="http://www.w3.org/1999/xlink" height="264.4px" width="443.35px" xmlns="http://www.w3.org/2000/svg">
  <g transform="matrix(1.0, 0.0, 0.0, 1.0, 27.5, 5.1)">
    <path d="M373.15 4.15 Q379.9 5.6 384.1 10.7 384.55 11.2 384.55 11.9 L384.7 14.55 Q384.9 17.0 386.05 19.35 386.75 20.7 386.95 22.3 387.35 25.15 385.75 27.45 383.2 31.1 379.9 34.1 379.05 34.85 378.8 36.05 378.2 38.7 379.8 40.65 M355.1 31.4 L354.3 31.55 Q358.6 35.05 358.9 40.35 L358.65 41.2 Q355.55 45.55 358.55 49.95 361.3 45.15 366.0 42.6 L367.05 42.05 Q372.2 43.0 374.65 47.75 375.05 48.45 375.85 48.95 L379.25 51.45 381.9 54.4 Q383.05 55.95 385.05 56.45 385.8 52.3 387.4 48.45 387.95 47.1 389.25 46.25 392.9 44.1 396.6 42.2 398.35 41.3 398.45 39.3 398.65 36.15 396.05 34.1 394.8 33.05 394.15 31.65 391.15 25.1 397.05 21.15 399.0 19.85 398.15 17.7 396.2 12.65 395.1 7.45 394.6 4.95 396.55 3.5 399.4 1.3 403.0 0.55 M363.35 42.7 Q364.05 39.25 366.4 36.6 368.2 34.6 370.95 34.05 373.85 33.25 376.35 31.35 382.75 26.35 380.75 18.9 379.7 14.95 376.15 12.8 370.8 9.6 366.55 14.75 L364.4 17.65 Q363.65 18.7 363.7 20.15 363.8 23.25 366.05 25.25 368.4 25.7 370.55 24.65 372.35 23.8 373.1 21.8 373.4 20.95 373.15 19.95 L371.6 18.95 370.55 19.55 M406.6 35.5 Q402.4 35.15 400.1 33.3 397.75 31.4 398.3 29.1 398.8 26.75 401.85 25.35 404.85 23.95 408.15 24.2 M355.1 4.15 L355.25 9.05 Q358.1 12.2 362.4 11.35 364.95 10.9 365.75 8.35 M333.0 56.6 L339.3 47.9 Q343.05 47.3 346.75 45.75 348.25 45.15 349.0 43.7 351.05 39.7 347.4 36.75 L343.3 33.3 341.05 31.65 Q340.85 28.4 343.35 26.35 345.85 24.3 348.95 23.95 L353.6 23.15 Q358.3 21.9 357.75 17.0 356.15 14.0 353.05 13.25 346.9 12.0 341.3 14.85 340.6 15.25 340.25 16.1 340.0 16.75 339.9 17.5 L335.55 22.65 Q332.5 21.4 332.4 18.6 332.3 16.5 333.25 14.55 334.0 13.15 335.1 11.95 337.3 9.5 339.7 7.2 M221.3 35.0 L223.5 32.4 Q224.8 33.5 226.4 32.95 228.1 32.45 229.3 31.55 L230.95 30.6 230.6 25.4 227.75 23.25 Q224.55 23.05 221.6 24.45 L219.75 25.5 218.8 27.4 Q216.7 30.3 213.9 32.6 L211.95 34.5 217.65 50.3 232.15 51.65 246.65 52.8 246.85 51.75 248.6 50.25 Q250.75 48.9 253.2 48.4 L260.1 46.95 Q261.0 46.65 261.65 45.85 262.45 44.9 262.6 43.8 262.9 41.25 265.45 40.75 L270.65 40.25 272.8 40.7 Q276.1 41.65 279.6 41.65 L283.65 42.4 286.9 42.8 287.3 43.25 292.05 44.6 292.5 45.95 293.95 47.2 296.6 50.65 300.1 51.75 303.5 52.65 306.1 51.65 Q308.35 50.5 310.9 50.45 L314.1 44.8 Q307.25 42.75 303.45 36.95 300.3 32.2 303.9 28.15 307.9 23.65 313.8 24.8 319.5 26.15 324.5 29.5 325.5 30.15 325.65 31.4 L325.7 32.7 Q324.15 34.25 321.75 33.9 L310.4 32.15 308.8 32.3 Q307.05 33.1 306.35 34.8 L307.05 36.75 Q312.35 40.2 318.65 40.6 L321.35 40.7 Q323.65 42.05 324.4 44.5 328.35 46.2 331.85 43.6 L332.7 42.6 Q334.45 39.05 334.15 35.05 L333.8 32.95 Q332.85 29.35 330.5 26.6 L324.05 19.7 Q323.4 19.05 322.55 18.65 318.7 16.65 316.6 12.9 317.6 9.75 320.75 8.1 323.1 6.75 325.05 4.8 327.45 2.35 328.35 -1.0 M329.9 66.4 L330.85 66.7 Q334.4 61.45 340.3 58.85 341.15 58.45 342.1 58.25 346.5 58.3 350.1 56.1 354.5 53.35 358.55 49.95 M338.65 59.2 L336.85 57.45 333.6 56.75 Q332.4 57.45 331.1 57.15 327.0 56.15 322.8 54.75 321.55 53.35 319.7 52.3 318.5 51.75 317.2 51.6 L310.9 50.45 M415.35 77.7 Q409.85 75.2 403.95 75.4 L399.1 76.0 Q397.5 75.95 396.7 74.7 394.2 70.75 389.9 70.1 386.4 71.6 382.4 71.5 372.65 70.8 363.8 74.75 L360.8 76.1 358.85 76.15 Q357.35 76.1 356.0 75.5 347.35 71.6 337.85 70.45 L334.55 70.15 Q333.95 69.0 332.9 67.95 L332.0 67.3 330.85 66.7 M389.9 70.1 L390.55 69.65 Q391.0 69.35 390.8 68.7 389.3 64.45 390.65 60.2 L385.05 56.45 M400.4 48.4 Q396.1 51.0 395.1 55.65 393.7 62.15 397.8 67.25 398.7 68.35 398.55 69.75 L396.8 71.55 M379.3 115.25 Q381.95 113.45 384.8 115.15 385.15 115.4 385.5 115.8 M311.35 254.15 L325.85 247.3 Q331.5 244.65 337.3 243.4 L344.45 242.95 352.3 243.5 354.1 243.15 Q360.4 241.0 365.65 236.85 L366.85 235.65 Q369.9 231.65 375.15 230.6 379.1 229.65 381.75 226.75 383.35 225.05 384.55 223.05 386.05 220.65 388.3 220.1 393.7 218.7 399.3 217.9 L406.3 217.75 Q408.3 217.6 410.1 216.55 M248.6 48.9 Q246.1 43.05 251.55 39.4 255.65 36.7 260.15 35.2 269.65 32.0 279.45 34.3 L281.2 34.1 Q286.15 31.7 290.85 28.9 291.5 28.45 291.8 27.6 293.4 22.5 291.2 17.4 L287.15 11.95 271.75 8.75 M290.25 4.15 Q295.3 6.1 299.7 8.65 303.8 10.9 302.7 15.4 301.7 19.65 299.4 23.4 L293.95 32.15 Q293.45 33.0 293.95 33.7 295.4 34.9 295.75 36.95 295.95 38.35 296.75 39.6 297.7 41.2 299.2 42.5 300.8 43.9 300.8 46.2 300.8 48.75 298.5 49.9 M281.0 19.05 Q280.6 22.75 276.75 21.8 275.65 21.5 275.05 20.8 273.55 19.1 273.9 16.8 277.4 14.7 281.4 14.6 284.1 15.05 284.6 17.85 285.6 23.75 281.3 27.6 278.15 30.35 273.9 29.9 L268.05 28.95 Q264.2 28.05 260.5 26.6 259.2 22.9 261.7 19.95 263.85 17.5 266.6 15.6 265.55 10.25 259.75 9.9 253.55 14.45 247.2 10.3 246.55 9.95 246.2 9.25 L245.55 7.45 Q249.85 5.05 254.75 5.15 M229.55 3.1 Q227.35 8.75 232.4 12.25 233.3 12.9 234.4 13.25 240.1 14.8 245.15 17.8 248.6 19.85 250.9 23.15 251.95 27.3 251.05 31.35 250.8 32.4 249.7 32.8 241.4 35.9 238.65 43.9 237.45 47.35 240.35 48.9 M301.1 77.7 L308.15 73.6 Q308.95 73.15 309.85 73.05 312.25 73.35 314.15 74.85 L317.05 77.2 Q312.45 80.45 306.75 79.75 L304.65 79.65 302.65 79.15 302.35 77.7 302.6 77.2 M210.5 6.2 L223.45 19.05 229.15 19.7 Q233.65 19.6 237.5 21.8 239.75 23.05 240.0 25.55 240.35 29.3 240.1 33.15 240.0 34.45 239.1 34.9 L230.0 39.3 Q228.45 40.15 227.0 41.25 L226.75 42.35 226.55 43.5 Q225.85 46.95 228.45 49.1 229.4 49.85 230.55 49.9 M200.7 42.7 L203.35 34.05 Q203.75 32.6 203.65 31.15 203.4 26.25 201.6 21.7 200.55 19.1 200.05 16.35 L199.7 13.4 M194.55 12.9 L201.25 0.0 M186.85 30.9 Q183.05 26.15 181.3 20.45 180.95 19.3 181.1 18.05 182.05 11.1 186.35 5.4 187.3 4.1 187.85 2.6 188.9 -0.55 188.35 -4.1 M156.45 19.05 Q156.45 16.4 156.7 13.8 156.8 12.55 157.75 11.95 163.15 8.6 166.6 3.5 167.6 2.0 167.5 0.1 L167.25 -2.55 M173.45 2.6 Q173.7 4.95 172.95 7.3 171.45 12.05 170.65 17.0 169.9 21.45 171.05 25.75 171.35 26.8 172.0 27.7 176.9 34.25 181.15 41.15 M68.45 59.2 Q73.9 58.3 79.4 59.4 L83.15 59.3 91.7 57.35 Q93.35 56.85 94.65 55.55 94.7 52.75 97.3 52.05 L105.3 50.3 Q107.9 49.55 109.15 47.35 112.3 41.8 118.8 40.05 L126.6 39.45 Q130.85 39.75 133.5 42.95 137.85 48.25 142.5 53.0 143.85 54.4 145.8 55.4 155.35 60.1 165.55 56.65 L168.55 55.5 Q172.3 50.95 173.2 45.25 L173.45 43.7 168.8 33.95 M192.75 24.55 L194.25 26.8 Q195.9 29.2 196.05 32.0 196.4 39.0 193.2 45.3 L190.0 51.7 Q189.7 52.25 190.0 54.35 L195.1 54.45 198.4 54.6 198.8 55.05 Q205.5 55.7 211.45 52.3 213.3 51.2 215.45 50.6 L217.65 50.3 M173.45 43.7 Q176.65 48.3 175.3 53.15 L175.0 54.05 190.0 54.35 M168.55 55.5 L175.0 54.05 M211.0 101.35 L212.65 99.95 216.7 101.35 M305.7 169.3 L307.55 167.9 310.25 169.5 M149.75 3.1 Q146.75 7.1 145.45 11.9 L144.55 15.85 Q145.35 19.25 148.0 21.65 L150.35 23.8 Q152.75 26.0 153.35 29.35 M150.3 47.85 Q150.25 41.15 147.95 35.0 L147.0 33.4 Q144.6 30.95 141.55 29.1 L140.1 27.8 Q137.2 24.2 137.05 19.45 136.95 14.75 140.0 10.8 M130.2 8.25 L127.65 21.1 M123.0 36.55 Q125.6 33.6 123.4 30.25 122.35 28.75 120.85 27.65 118.05 25.5 118.05 21.95 118.05 20.8 118.55 19.85 120.0 16.95 121.75 14.25 L124.95 9.15 125.15 8.65 124.55 7.75 M154.9 53.5 Q158.25 47.3 160.1 40.75 161.55 35.45 160.15 30.0 159.15 26.25 161.45 23.2 163.7 20.25 164.7 17.0 M129.7 26.75 Q138.25 31.8 142.25 40.9 143.75 44.35 144.3 48.35 144.5 49.9 143.6 51.45 M90.05 36.05 L100.5 18.65 103.7 18.35 Q109.35 17.45 111.55 12.3 112.75 9.65 111.35 7.1 L109.1 6.2 M94.2 23.7 L93.15 14.4 M70.5 56.1 Q71.5 55.3 70.35 53.75 69.15 52.05 69.2 49.9 69.25 44.9 73.8 43.05 78.75 41.1 83.15 38.15 L83.85 37.35 Q86.8 30.55 84.3 24.15 84.0 23.3 83.35 22.6 81.5 20.6 82.35 18.0 M60.75 18.0 Q66.05 13.0 72.85 10.4 75.45 9.4 78.25 9.5 86.4 9.8 93.65 6.1 L93.15 2.6 M88.55 53.5 Q86.25 50.5 88.85 47.75 L93.1 43.45 97.5 39.15 95.2 29.85 M102.4 27.8 Q108.15 31.55 112.7 36.8 113.15 37.4 113.1 38.3 L113.0 38.85 M145.15 88.5 L150.0 88.95 150.8 88.5 M38.1 40.65 Q33.8 36.7 32.85 31.1 L32.85 30.25 43.25 22.65 Q42.55 20.7 41.15 19.4 L38.7 17.35 M34.0 6.2 L49.25 14.4 Q52.2 16.0 55.05 17.95 55.95 18.5 55.85 19.45 55.4 23.55 51.7 26.2 50.55 27.0 49.2 27.45 45.1 29.25 43.6 33.15 43.0 34.7 42.85 36.45 42.5 40.5 43.75 44.25 M71.05 17.5 L72.75 33.05 Q70.65 34.55 67.95 35.05 64.95 35.8 62.3 37.5 56.35 41.15 56.55 47.8 56.55 48.35 56.9 48.85 58.15 50.7 58.6 53.4 59.65 53.8 60.7 54.35 62.7 55.35 64.4 57.05 L66.6 58.9 Q69.35 60.6 67.85 63.55 62.8 66.6 57.2 67.75 L54.4 68.1 43.5 69.05 Q39.6 69.5 35.7 68.95 L29.7 67.95 29.25 67.45 Q22.0 66.8 14.95 68.9 11.35 70.0 7.9 71.55 4.5 73.2 0.8 73.3 0.0 73.6 -0.8 73.3 -3.1 72.25 -4.25 70.1 L-11.45 69.9 Q-14.7 70.85 -18.1 71.3 M49.4 35.5 Q54.2 29.95 61.75 29.75 64.55 29.7 66.0 27.2 67.5 24.45 66.5 21.55 M18.0 33.95 Q18.3 29.75 21.95 28.1 27.45 25.55 33.2 23.4 L37.05 22.15 Q35.9 19.3 33.05 17.8 27.3 14.6 21.85 10.95 20.35 9.9 20.9 8.4 22.05 5.4 23.7 2.6 M4.65 3.6 L5.05 24.0 4.1 24.8 Q1.85 26.25 0.15 28.2 -2.05 30.75 -1.0 33.95 M-7.7 43.75 Q-8.35 38.75 -7.75 33.65 -7.6 32.5 -6.8 31.55 L-3.15 27.9 Q0.0 25.25 2.05 21.65 4.05 18.1 3.2 14.35 1.05 5.0 0.0 -4.6 M12.35 17.5 Q10.6 14.35 10.65 10.65 10.65 10.2 10.8 9.8 M8.25 37.55 L7.05 37.05 Q5.7 31.65 11.25 28.7 16.0 26.3 19.4 22.8 20.55 21.6 20.85 20.05 22.1 13.15 16.4 8.7 15.9 8.3 15.8 7.7 L15.05 1.5 M58.6 53.4 L55.7 52.7 Q48.0 51.4 41.15 47.7 L38.9 46.15 Q31.8 39.6 22.7 36.65 21.25 37.45 19.4 37.65 L15.9 38.15 Q13.5 38.6 11.35 39.75 4.8 43.05 -2.55 43.25 L-22.65 48.4 M23.35 72.4 Q26.25 73.9 27.1 76.95 L27.3 78.2 Q20.6 79.8 13.7 78.95 L10.25 75.0 Q15.75 72.05 21.7 71.4 L23.35 72.4 M80.3 56.6 L79.6 56.25 Q78.3 51.35 80.5 46.4 M85.95 135.35 L88.55 132.85 91.1 134.8 M-26.25 251.1 L-27.0 251.55 Q-23.2 242.2 -15.0 236.05 -13.5 234.9 -11.75 235.65 -11.05 238.0 -8.8 238.7 L-7.1 239.1 -6.3 238.95 Q-3.15 233.85 1.55 230.5 4.15 228.6 5.9 225.85 L6.65 224.4 Q7.75 221.8 9.9 219.85 12.8 217.05 12.05 213.15 11.85 212.1 12.4 211.1 13.5 209.3 13.5 207.0 L13.15 206.6 13.65 205.55 Q18.7 202.9 22.8 206.75 28.25 211.9 29.85 219.25 30.2 220.75 30.95 222.15 33.95 227.5 35.55 233.45 36.4 236.65 37.7 239.75 37.9 240.25 38.4 240.6 40.15 241.9 42.25 241.3 46.55 240.05 51.05 239.3 52.65 239.15 54.15 238.35 57.9 236.55 62.0 237.05 67.8 243.25 74.15 248.55 75.4 249.55 76.9 250.25 L80.85 251.7 87.1 254.4 Q92.75 256.95 98.8 258.8 M288.9 237.55 L284.6 239.3 283.5 242.3 280.5 244.4 Q288.5 246.9 296.7 245.85 L302.15 244.85 Q312.65 243.4 322.5 239.65 L322.1 237.2 301.65 231.1 288.9 237.55 290.8 237.2 M197.1 207.35 L198.0 205.65 201.65 206.55 M-8.25 3.1 Q-4.6 6.2 -3.2 10.85 L-2.85 12.15 -4.2 16.0 Q-3.35 16.95 -3.15 18.4 L-3.1 20.6" fill="none" stroke="#9900cc" stroke-linecap="round" stroke-linejoin="round" stroke-width="1.0"/>
    <path d="M369.2 18.0 Q370.95 14.9 374.15 15.95 378.6 17.25 379.5 21.55 379.75 22.6 379.3 23.65 L370.5 29.6 370.55 30.9 M348.45 18.0 L349.15 19.0 351.0 18.0 348.95 16.35 344.15 17.8 343.65 18.75 342.8 19.2 343.85 21.55 350.05 22.15 354.1 19.55 M368.5 43.75 Q364.85 46.75 363.8 51.5 L363.55 52.8 Q359.7 56.35 354.65 57.25 345.1 58.45 337.6 64.35 340.55 66.75 344.35 67.15 356.7 68.55 368.55 65.6 L369.7 64.9 Q371.45 62.5 368.65 60.5 368.15 60.15 368.05 59.5 L368.0 58.65 M368.0 58.15 L358.6 59.2 Q356.95 59.45 356.15 61.05 L356.5 61.45 Q357.8 62.8 359.8 63.05 361.6 63.3 363.35 62.25 M405.05 52.5 Q399.5 53.95 398.55 59.35 398.3 60.8 399.05 62.35 400.8 66.1 404.0 68.95 M382.4 115.8 L381.25 115.95 Q380.65 116.25 380.55 116.8 380.4 117.35 380.8 117.8 381.15 118.25 381.9 118.35 M329.4 252.1 Q338.4 247.25 348.3 246.55 L353.8 246.95 Q361.1 246.4 367.4 242.2 L369.0 241.1 Q371.9 239.1 373.95 236.45 374.55 235.7 375.45 235.3 377.35 234.35 379.4 233.75 L388.5 230.95 Q393.3 229.6 397.5 226.9 L399.55 226.8 401.45 228.45 M305.2 4.65 Q305.15 5.7 305.55 6.4 307.95 10.3 309.55 14.7 307.05 17.3 307.75 20.6 M319.6 30.35 L319.15 29.5 Q312.9 27.1 306.25 27.8 M279.45 17.5 L280.35 17.6 280.75 17.25 283.3 18.35 Q284.65 21.15 282.35 23.4 278.9 26.7 273.95 27.4 268.85 28.25 267.75 23.5 269.55 22.3 270.45 20.25 L271.25 18.0 M304.15 77.7 L309.85 75.15 M224.4 6.2 Q226.45 11.05 230.85 13.75 L232.1 14.4 M225.95 26.75 Q220.9 28.9 218.65 33.6 216.95 37.05 218.05 40.7 L219.75 41.15 M196.1 1.55 Q191.5 6.15 189.35 11.95 189.0 12.85 189.1 13.85 L189.4 15.95 M181.7 52.0 L184.85 46.85 Q184.8 43.0 185.2 39.4 185.3 38.6 184.75 37.9 181.7 33.7 179.6 28.8 178.05 25.1 179.1 21.1 M195.1 54.45 L197.65 46.85 M210.5 102.9 L213.6 101.9 M148.8 55.1 Q152.65 51.55 153.6 46.35 L153.9 44.8 M142.05 90.55 L142.75 91.25 145.65 91.6 M47.35 5.15 Q51.45 10.3 56.7 14.25 57.5 14.85 57.9 15.9 60.2 21.7 55.1 25.25 M73.6 36.55 Q76.95 35.45 77.55 32.05 L77.65 31.0 78.2 30.15 77.2 23.15 M-14.9 49.9 L2.15 46.7 Q8.6 45.45 14.8 42.7 L17.55 41.25 Q20.25 41.15 22.85 42.2 L35.75 47.8 Q44.15 51.55 52.85 54.55 54.6 55.2 54.9 56.95 L54.6 57.75 Q52.75 58.85 50.75 59.25 44.95 60.1 39.15 58.55 28.6 55.6 18.65 58.9 L16.45 58.8 Q14.4 58.45 12.85 57.1 M24.7 32.95 L25.05 32.45 Q24.75 28.6 28.6 27.15 L31.25 25.4 32.45 24.2 M20.6 73.05 L23.7 75.15 23.2 76.0 20.6 76.15 M89.05 134.3 L88.0 134.8 89.05 136.35 M44.8 245.95 L58.75 241.7 59.85 242.6 63.65 246.1 65.35 248.0 66.9 250.05 M18.0 209.4 Q16.75 215.0 17.2 220.85 L17.1 223.25 Q16.3 227.8 14.65 232.25 14.25 233.35 14.7 234.4 15.25 235.6 16.1 236.25 L19.3 236.4 Q21.0 234.75 21.8 232.75 22.6 230.85 21.4 229.05 L19.15 230.05 M18.0 207.85 Q24.65 213.2 26.65 221.35 L30.45 237.15 Q30.95 239.35 30.8 241.4 L30.35 244.4 M292.85 242.85 L289.7 243.6 287.65 242.35 292.8 238.2 Q294.4 236.75 296.4 236.3 L301.6 234.9 Q303.75 236.55 306.25 235.65 M-2.55 43.25 Q-3.45 39.6 -2.85 35.75 L-2.35 33.55" fill="none" stroke="#33ff99" stroke-linecap="round" stroke-linejoin="round" stroke-width="1.0"/>
  </g>
</svg>
