<?xml version="1.0" encoding="UTF-8" standalone="no"?>
<svg xmlns:xlink="http://www.w3.org/1999/xlink" height="269.05px" width="521.3px" xmlns="http://www.w3.org/2000/svg">
  <g transform="matrix(1.0, 0.0, 0.0, 1.0, 98.35, -0.8)">
    <path d="M404.5 269.85 L-12.65 269.85 -12.65 3.85 404.5 3.85 404.5 269.85" fill="url(#gradient0)" fill-rule="evenodd" stroke="none"/>
    <path d="M405.55 66.7 L-15.0 66.7 -15.0 0.8 405.55 0.8 405.55 66.7 M344.6 49.45 L316.7 49.45 344.6 49.45 381.55 49.45 344.6 49.45 344.6 57.7 344.6 49.45 M87.25 21.95 L68.5 21.95 87.25 21.95 87.25 12.55 87.25 21.95 128.0 21.95 87.25 21.95 M72.25 42.8 L36.85 42.8 6.85 42.8 -4.95 42.8 6.85 42.8 36.85 42.8 36.85 18.05 36.85 42.8 72.25 42.8 M6.85 54.55 L6.85 42.8 6.85 54.55 M180.0 51.4 L154.8 51.4 154.8 41.55 154.8 51.4 180.0 51.4 193.4 51.4 180.0 51.4 180.0 58.85 180.0 51.4 M144.65 51.4 L154.8 51.4 154.8 51.8 154.8 51.4 144.65 51.4 M128.0 32.15 L128.0 21.95 149.45 21.95 128.0 21.95 128.0 32.15 M256.15 32.55 L240.6 32.55 230.4 32.55 240.6 32.55 240.6 24.75 240.6 32.55 256.15 32.55 273.3 32.55 284.0 32.55 273.3 32.55 256.15 32.55 256.15 45.15 256.15 32.55 M273.3 18.05 L273.3 32.55 273.3 18.05 M390.15 16.1 L343.5 16.1 343.5 31.75 327.4 31.75 343.5 31.75 343.5 16.1 319.4 16.1 343.5 16.1 390.15 16.1 M376.2 31.75 L343.5 31.75 376.2 31.75 387.45 31.75 376.2 31.75 376.2 42.8 376.2 31.75" fill="url(#gradient1)" fill-rule="evenodd" stroke="none"/>
    <path d="M387.45 31.75 L376.2 31.75 376.2 42.8 M327.4 31.75 L343.5 31.75 343.5 16.1 319.4 16.1 M343.5 31.75 L376.2 31.75 M381.55 49.45 L344.6 49.45 344.6 57.7 M343.5 16.1 L390.15 16.1 M284.0 32.55 L273.3 32.55 256.15 32.55 256.15 45.15 M273.3 32.55 L273.3 18.05 M230.4 32.55 L240.6 32.55 240.6 24.75 M193.4 51.4 L180.0 51.4 180.0 58.85 M240.6 32.55 L256.15 32.55 M149.45 21.95 L128.0 21.95 128.0 32.15 M87.25 12.55 L87.25 21.95 128.0 21.95 M154.8 51.8 L154.8 51.4 144.65 51.4 M154.8 41.55 L154.8 51.4 180.0 51.4 M-4.95 42.8 L6.85 42.8 36.85 42.8 36.85 18.05 M6.85 42.8 L6.85 54.55 M36.85 42.8 L72.25 42.8 M68.5 21.95 L87.25 21.95 M316.7 49.45 L344.6 49.45" fill="none" stroke="#2f6c7b" stroke-linecap="round" stroke-linejoin="round" stroke-width="0.05"/>
    <path d="M-97.85 138.75 L-95.6 78.85" fill="none" stroke="#8f7545" stroke-linecap="round" stroke-linejoin="round" stroke-width="1.0"/>
    <path d="M417.25 90.05 Q422.45 93.2 422.45 97.55 L422.45 97.75 Q422.35 101.95 417.25 105.0 412.15 108.15 404.85 108.15 L399.9 107.75 Q395.75 107.0 392.4 105.0 387.5 101.95 387.25 97.75 387.1 101.95 382.05 105.0 376.9 108.15 369.65 108.15 L362.5 107.3 Q359.65 106.45 357.25 105.0 352.3 101.95 352.2 97.75 352.1 101.95 347.0 105.0 341.85 108.15 334.6 108.15 L329.55 107.75 Q325.5 106.95 322.25 105.0 317.3 101.95 317.15 97.75 317.05 101.95 312.0 105.0 306.85 108.15 299.6 108.15 L293.25 107.5 Q289.9 106.65 287.25 105.0 282.3 101.95 282.2 97.75 282.0 101.95 276.95 105.0 271.85 108.15 264.55 108.15 260.55 108.15 257.15 107.15 254.45 106.4 252.2 105.0 247.25 101.95 247.15 97.75 247.0 101.95 241.9 105.0 236.8 108.15 229.5 108.15 L222.75 107.4 Q219.7 106.55 217.2 105.0 212.2 101.95 212.1 97.75 211.95 101.95 206.9 105.0 201.75 108.15 194.55 108.15 L187.65 107.35 Q184.65 106.55 182.15 105.0 177.2 101.95 177.1 97.75 177.0 101.95 171.9 105.0 166.75 108.15 159.5 108.15 L153.0 107.45 Q149.8 106.6 147.1 105.0 142.15 101.95 142.05 97.75 141.95 101.95 136.85 105.0 131.7 108.15 124.5 108.15 118.65 108.15 114.25 106.15 L112.15 105.0 Q107.15 101.95 107.0 97.75 106.9 101.95 101.85 105.0 96.7 108.15 89.45 108.15 83.75 108.15 79.35 106.2 L77.1 105.0 Q72.15 101.95 72.05 97.75 71.9 101.95 66.8 105.0 61.7 108.15 54.4 108.15 49.8 108.15 46.05 106.85 43.9 106.15 42.05 105.0 37.1 101.95 37.0 97.75 36.85 101.95 31.75 105.0 26.65 108.15 19.45 108.15 14.5 108.15 10.5 106.7 L7.05 105.0 Q2.05 101.95 1.95 97.75 1.85 101.95 -3.25 105.0 -8.4 108.15 -15.6 108.15 -20.6 108.15 -24.65 106.65 -26.4 106.0 -28.0 105.0 -32.95 101.95 -33.05 97.75 L-33.05 97.55 Q-33.05 93.2 -28.0 90.05 -22.9 87.0 -15.6 87.0 -11.4 87.0 -7.85 88.05 -5.4 88.8 -3.25 90.05 1.9 93.1 1.95 97.45 2.0 93.1 7.05 90.05 12.15 87.0 19.45 87.0 23.3 87.0 26.55 87.85 29.35 88.65 31.75 90.05 36.95 93.1 37.0 97.45 37.05 93.1 42.05 90.05 47.2 87.0 54.4 87.0 58.85 87.0 62.55 88.15 64.8 88.9 66.8 90.05 71.95 93.1 72.05 97.45 72.1 93.1 77.1 90.05 82.2 87.0 89.45 87.0 L95.25 87.55 Q98.9 88.3 101.85 90.05 106.95 93.1 107.0 97.45 107.05 93.1 112.15 90.05 117.25 87.0 124.5 87.0 L130.25 87.55 Q133.9 88.25 136.85 90.05 142.0 93.1 142.05 97.45 142.1 93.1 147.1 90.05 152.3 87.0 159.5 87.0 165.0 87.0 169.3 88.8 170.65 89.35 171.9 90.05 177.05 93.1 177.1 97.45 177.15 93.1 182.15 90.05 187.25 87.0 194.55 87.0 199.8 87.0 204.1 88.7 205.55 89.25 206.9 90.05 212.05 93.1 212.1 97.45 212.15 93.1 217.2 90.05 222.3 87.0 229.5 87.0 235.0 87.0 239.25 88.75 240.65 89.3 241.9 90.05 247.1 93.1 247.15 97.45 247.2 93.1 252.2 90.05 257.35 87.0 264.55 87.0 269.5 87.0 273.5 88.4 275.3 89.1 276.95 90.05 282.05 93.1 282.2 97.45 282.25 93.1 287.25 90.05 292.35 87.0 299.6 87.0 305.1 87.0 309.5 88.85 L312.0 90.05 Q317.1 93.1 317.15 97.45 317.2 93.1 322.25 90.05 327.4 87.0 334.6 87.0 340.95 87.0 345.65 89.35 L347.0 90.05 Q352.15 93.1 352.2 97.45 352.25 93.1 357.25 90.05 362.45 87.0 369.65 87.0 374.8 87.0 378.85 88.55 380.55 89.15 382.05 90.05 387.2 93.15 387.25 97.45 387.4 93.1 392.4 90.05 397.65 87.0 404.85 87.0 411.45 87.0 416.25 89.5 L417.25 90.05 M363.15 69.5 L364.6 70.3 Q369.75 73.3 369.8 77.7 369.85 73.3 374.85 70.3 380.05 67.2 387.25 67.2 392.25 67.2 396.2 68.7 398.05 69.3 399.65 70.3 404.8 73.35 404.85 77.7 L404.85 77.8 404.85 77.95 Q404.75 82.15 399.65 85.25 394.5 88.35 387.25 88.35 383.2 88.35 379.85 87.4 377.15 86.65 374.85 85.25 369.85 82.15 369.8 77.95 369.75 82.15 364.6 85.25 359.5 88.35 352.2 88.35 L347.0 87.9 Q343.0 87.15 339.9 85.25 334.85 82.15 334.75 77.95 334.7 82.15 329.6 85.25 324.45 88.35 317.2 88.35 L310.5 87.6 Q307.4 86.85 304.85 85.25 299.85 82.15 299.8 77.95 299.65 82.15 294.55 85.25 289.45 88.35 282.2 88.35 277.95 88.35 274.45 87.3 271.95 86.5 269.8 85.25 264.8 82.15 264.75 77.95 264.7 82.15 259.5 85.25 254.4 88.35 247.15 88.35 L240.3 87.55 Q237.3 86.8 234.8 85.25 229.75 82.15 229.7 77.95 229.65 82.15 224.55 85.25 219.35 88.35 212.15 88.35 L205.1 87.5 Q202.15 86.75 199.75 85.25 194.75 82.15 194.7 77.95 194.65 82.15 189.5 85.25 184.35 88.35 177.1 88.35 L170.35 87.6 Q167.3 86.8 164.7 85.25 159.7 82.15 159.65 77.95 159.6 82.15 154.45 85.25 149.35 88.35 142.1 88.35 136.05 88.35 131.45 86.15 L129.75 85.25 Q124.7 82.15 124.6 77.95 124.55 82.15 119.45 85.25 114.3 88.35 107.05 88.35 101.0 88.35 96.45 86.2 L94.7 85.25 Q89.7 82.15 89.65 77.95 89.6 82.15 84.4 85.25 79.3 88.35 72.05 88.35 67.3 88.35 63.5 87.05 61.45 86.3 59.65 85.25 54.65 82.15 54.6 77.95 54.55 82.15 49.35 85.25 44.25 88.35 37.05 88.35 31.7 88.35 27.55 86.7 26.0 86.05 24.65 85.25 19.6 82.15 19.55 77.95 19.5 82.15 14.4 85.25 9.2 88.35 2.0 88.35 -2.95 88.35 -6.85 86.95 L-10.4 85.25 Q-15.45 82.1 -15.45 77.8 -15.45 73.45 -10.4 70.3 -5.25 67.2 2.0 67.2 6.3 67.2 9.95 68.35 12.35 69.05 14.4 70.3 19.5 73.3 19.55 77.7 19.6 73.3 24.65 70.3 29.75 67.2 37.05 67.2 40.5 67.2 43.5 67.95 46.7 68.7 49.35 70.3 54.55 73.3 54.6 77.7 54.65 73.3 59.65 70.3 64.8 67.2 72.05 67.2 76.35 67.2 80.0 68.35 82.35 69.05 84.4 70.3 89.6 73.3 89.65 77.7 89.7 73.3 94.7 70.3 99.8 67.2 107.05 67.2 L112.3 67.65 Q116.25 68.4 119.45 70.3 124.55 73.3 124.6 77.7 124.7 73.3 129.75 70.3 134.85 67.2 142.1 67.2 L147.45 67.65 Q151.3 68.4 154.45 70.3 159.6 73.3 159.65 77.7 159.7 73.3 164.7 70.3 169.9 67.2 177.1 67.2 182.5 67.2 186.7 68.9 188.1 69.45 189.5 70.3 194.65 73.3 194.7 77.7 194.75 73.3 199.75 70.3 204.9 67.2 212.15 67.2 217.35 67.2 221.5 68.8 223.1 69.4 224.55 70.3 229.65 73.3 229.7 77.7 229.75 73.3 234.8 70.3 239.9 67.2 247.15 67.2 252.55 67.2 256.8 68.95 258.2 69.5 259.5 70.3 264.7 73.3 264.75 77.7 264.8 73.3 269.8 70.3 274.95 67.2 282.2 67.2 286.95 67.2 290.8 68.55 292.8 69.25 294.55 70.3 299.65 73.3 299.8 77.7 299.85 73.3 304.85 70.3 309.95 67.2 317.2 67.2 322.6 67.2 326.8 68.95 328.3 69.5 329.6 70.3 334.7 73.3 334.75 77.7 334.85 73.3 339.9 70.3 345.0 67.2 352.2 67.2 358.45 67.2 363.15 69.5 M334.75 77.95 L334.75 77.7 M369.8 77.7 L369.8 77.95 M387.25 97.45 L387.25 97.55 387.25 97.7 387.25 97.75 M404.85 117.2 L404.85 117.5 404.85 117.6 404.85 117.75 Q404.75 121.95 399.65 125.05 394.5 128.2 387.25 128.2 L382.05 127.7 Q378.05 127.0 374.85 125.05 369.85 121.95 369.8 117.75 369.75 121.95 364.6 125.05 359.5 128.2 352.2 128.2 348.3 128.2 344.95 127.25 342.2 126.5 339.9 125.05 334.85 121.95 334.75 117.75 334.7 121.95 329.6 125.05 324.45 128.2 317.2 128.2 L312.0 127.7 Q307.95 127.0 304.85 125.05 299.85 121.95 299.8 117.75 299.65 121.95 294.55 125.05 289.45 128.2 282.2 128.2 L275.75 127.45 Q272.5 126.7 269.8 125.05 264.8 121.95 264.75 117.75 264.7 121.95 259.5 125.05 254.4 128.2 247.15 128.2 243.05 128.2 239.7 127.2 237.0 126.45 234.8 125.05 229.75 121.95 229.7 117.75 229.65 121.95 224.55 125.05 219.35 128.2 212.15 128.2 208.35 128.2 205.1 127.3 202.2 126.55 199.75 125.05 194.75 121.95 194.7 117.75 194.65 121.95 189.5 125.05 184.35 128.2 177.1 128.2 173.3 128.2 170.05 127.3 167.15 126.55 164.7 125.05 159.7 121.95 159.65 117.75 159.6 121.95 154.45 125.05 149.35 128.2 142.1 128.2 138.55 128.2 135.45 127.4 132.35 126.65 129.75 125.05 124.7 121.95 124.6 117.75 124.55 121.95 119.45 125.05 114.3 128.2 107.05 128.2 101.3 128.2 96.85 126.25 L94.7 125.05 Q89.7 121.95 89.65 117.75 89.6 121.95 84.4 125.05 79.3 128.2 72.05 128.2 66.45 128.2 62.15 126.35 L59.65 125.05 Q54.65 121.95 54.6 117.75 54.55 121.95 49.35 125.05 44.25 128.2 37.05 128.2 32.35 128.2 28.5 126.85 26.4 126.15 24.65 125.05 19.6 121.95 19.55 117.75 19.5 121.95 14.4 125.05 9.2 128.2 2.0 128.2 -2.75 128.2 -6.65 126.85 -8.6 126.15 -10.4 125.05 -15.45 121.9 -15.45 117.6 L-15.45 117.2 Q-15.2 113.1 -10.4 110.1 -5.25 107.0 2.0 107.0 6.05 107.0 9.45 108.0 12.1 108.7 14.4 110.1 19.3 113.05 19.55 117.2 19.75 113.05 24.65 110.1 29.75 107.0 37.05 107.0 41.35 107.0 44.95 108.15 47.3 108.85 49.35 110.1 54.35 113.05 54.6 117.2 54.8 113.05 59.65 110.1 64.8 107.0 72.05 107.0 L78.1 107.65 Q81.55 108.4 84.4 110.1 89.4 113.05 89.65 117.2 89.85 113.05 94.7 110.1 99.8 107.0 107.05 107.0 L112.9 107.6 Q116.5 108.35 119.45 110.1 124.4 113.05 124.6 117.2 124.85 113.05 129.75 110.1 134.85 107.0 142.1 107.0 147.55 107.0 151.85 108.75 153.2 109.35 154.45 110.1 159.45 113.05 159.65 117.2 159.9 113.05 164.7 110.1 169.9 107.0 177.1 107.0 182.4 107.0 186.55 108.65 L189.5 110.1 Q194.5 113.05 194.7 117.2 194.95 113.05 199.75 110.1 204.9 107.0 212.15 107.0 217.45 107.0 221.65 108.65 L224.55 110.1 Q229.45 113.05 229.7 117.2 229.9 113.05 234.8 110.1 239.9 107.0 247.15 107.0 252.05 107.0 256.05 108.45 257.85 109.1 259.5 110.1 264.5 113.05 264.75 117.2 264.95 113.05 269.8 110.1 274.95 107.0 282.2 107.0 287.75 107.0 292.05 108.8 L294.55 110.1 Q299.5 113.05 299.8 117.2 300.0 113.05 304.85 110.1 309.95 107.0 317.2 107.0 323.45 107.0 328.2 109.35 L329.6 110.1 Q334.55 113.05 334.75 117.2 335.0 113.05 339.9 110.1 345.0 107.0 352.2 107.0 357.3 107.0 361.35 108.55 L364.6 110.1 Q369.6 113.05 369.8 117.2 370.05 113.05 374.85 110.1 380.05 107.0 387.25 107.0 393.65 107.0 398.45 109.45 L399.65 110.1 Q404.65 113.1 404.85 117.2 M369.8 117.75 L369.8 117.5 369.8 117.2 M369.65 126.8 Q362.45 126.8 357.25 129.9 352.3 132.85 352.2 137.15 L352.2 137.25 352.2 137.55 Q352.25 141.8 357.25 144.85 360.4 146.8 364.3 147.55 L369.65 148.0 Q376.9 148.0 382.05 144.85 387.15 141.8 387.25 137.55 L387.25 137.4 387.25 137.25 387.25 137.15 Q387.15 132.9 382.05 129.9 L380.7 129.15 Q376.0 126.8 369.65 126.8 M387.25 137.15 Q387.5 132.85 392.4 129.9 397.65 126.8 404.85 126.8 412.15 126.8 417.25 129.9 L418.55 130.75 Q422.35 133.5 422.45 137.15 L422.45 137.4 Q422.45 141.75 417.25 144.85 412.15 148.0 404.85 148.0 L402.85 147.95 Q396.9 147.55 392.4 144.85 387.4 141.8 387.25 137.55 M352.2 97.45 L352.2 97.75 M334.75 117.2 L334.75 117.5 334.75 117.75 M352.2 137.55 Q352.15 141.8 347.0 144.85 341.85 148.0 334.6 148.0 L327.55 147.15 Q324.65 146.35 322.25 144.85 317.2 141.8 317.15 137.55 317.1 141.8 312.0 144.85 306.85 148.0 299.6 148.0 L294.5 147.6 Q290.45 146.85 287.25 144.85 282.25 141.8 282.2 137.55 282.05 141.8 276.95 144.85 271.85 148.0 264.55 148.0 L258.45 147.4 Q254.95 146.55 252.2 144.85 247.2 141.8 247.15 137.55 247.1 141.8 241.9 144.85 236.8 148.0 229.5 148.0 225.6 148.0 222.3 147.1 219.55 146.3 217.2 144.85 212.15 141.8 212.1 137.55 212.05 141.8 206.9 144.85 201.75 148.0 194.55 148.0 190.75 148.0 187.55 147.2 184.6 146.35 182.15 144.85 177.15 141.8 177.1 137.55 177.05 141.8 171.9 144.85 166.75 148.0 159.5 148.0 155.75 148.0 152.6 147.2 149.6 146.4 147.1 144.85 142.1 141.8 142.05 137.55 142.0 141.8 136.85 144.85 131.7 148.0 124.5 148.0 L118.1 147.3 Q114.8 146.5 112.15 144.85 107.05 141.8 107.0 137.55 106.95 141.8 101.85 144.85 96.7 148.0 89.45 148.0 83.9 148.0 79.65 146.2 L77.1 144.85 Q72.1 141.8 72.05 137.55 71.95 141.8 66.8 144.85 61.7 148.0 54.4 148.0 49.2 148.0 45.05 146.35 43.45 145.75 42.05 144.85 37.05 141.8 37.0 137.55 36.95 141.8 31.75 144.85 26.65 148.0 19.45 148.0 14.8 148.0 11.1 146.7 8.95 146.0 7.05 144.85 2.0 141.8 1.95 137.55 1.9 141.8 -3.25 144.85 -8.4 148.0 -15.6 148.0 -20.05 148.0 -23.7 146.9 -26.0 146.1 -28.0 144.85 -33.05 141.75 -33.05 137.4 L-33.05 137.15 Q-32.95 132.95 -28.0 129.9 -22.9 126.8 -15.6 126.8 -11.25 126.8 -7.55 127.9 -5.25 128.7 -3.25 129.9 1.85 132.85 1.95 137.15 2.05 132.85 7.05 129.9 12.15 126.8 19.45 126.8 23.85 126.8 27.55 128.0 29.75 128.7 31.75 129.9 36.85 132.85 37.0 137.15 37.1 132.85 42.05 129.9 47.2 126.8 54.4 126.8 L61.05 127.55 Q64.2 128.35 66.8 129.9 71.9 132.85 72.05 137.15 72.15 132.85 77.1 129.9 82.2 126.8 89.45 126.8 L95.75 127.45 Q99.1 128.25 101.85 129.9 106.9 132.85 107.0 137.15 107.15 132.85 112.15 129.9 117.25 126.8 124.5 126.8 130.05 126.8 134.4 128.65 L136.85 129.9 Q141.95 132.85 142.05 137.15 142.15 132.85 147.1 129.9 152.3 126.8 159.5 126.8 164.85 126.8 169.05 128.5 170.5 129.05 171.9 129.9 177.0 132.85 177.1 137.15 177.2 132.85 182.15 129.9 187.25 126.8 194.55 126.8 199.9 126.8 204.1 128.5 205.55 129.05 206.9 129.9 211.95 132.85 212.1 137.15 212.2 132.85 217.2 129.9 222.3 126.8 229.5 126.8 234.65 126.8 238.65 128.35 240.35 128.95 241.9 129.9 247.0 132.85 247.15 137.15 247.25 132.85 252.2 129.9 257.35 126.8 264.55 126.8 270.3 126.8 274.7 128.7 L276.95 129.9 Q282.0 132.85 282.2 137.15 282.3 132.85 287.25 129.9 292.35 126.8 299.6 126.8 305.9 126.8 310.7 129.15 L312.0 129.9 Q317.05 132.85 317.15 137.15 317.3 132.85 322.25 129.9 327.4 126.8 334.6 126.8 339.8 126.8 343.95 128.4 345.55 129.0 347.0 129.9 352.1 132.85 352.2 137.15 M346.3 167.65 Q342.8 166.8 339.9 165.05 334.85 162.0 334.75 157.75 334.7 162.0 329.6 165.05 324.45 168.2 317.2 168.2 313.25 168.2 309.95 167.25 307.15 166.5 304.85 165.05 299.85 162.0 299.8 157.75 299.65 162.0 294.55 165.05 289.45 168.2 282.2 168.2 L276.85 167.75 Q272.9 166.95 269.8 165.05 264.8 162.0 264.75 157.75 264.7 162.0 259.5 165.05 254.4 168.2 247.15 168.2 L240.85 167.55 Q237.55 166.7 234.8 165.05 229.75 162.0 229.7 157.75 229.65 162.0 224.55 165.05 219.35 168.2 212.15 168.2 208.1 168.2 204.7 167.2 202.05 166.45 199.75 165.05 194.75 162.0 194.7 157.75 194.65 162.0 189.5 165.05 184.35 168.2 177.1 168.2 173.15 168.2 169.75 167.25 167.05 166.45 164.7 165.05 159.7 162.0 159.65 157.75 159.6 162.0 154.45 165.05 149.35 168.2 142.1 168.2 138.2 168.2 134.95 167.3 132.1 166.5 129.75 165.05 124.7 162.0 124.6 157.75 124.55 162.0 119.45 165.05 114.3 168.2 107.05 168.2 L100.5 167.5 Q97.3 166.65 94.7 165.05 89.7 162.0 89.65 157.75 89.6 162.0 84.4 165.05 79.3 168.2 72.05 168.2 66.5 168.2 62.2 166.35 60.85 165.8 59.65 165.05 54.65 162.0 54.6 157.75 54.55 162.0 49.35 165.05 44.25 168.2 37.05 168.2 31.8 168.2 27.75 166.6 26.15 165.95 24.65 165.05 19.6 162.0 19.55 157.75 19.5 162.0 14.4 165.05 9.2 168.2 2.0 168.2 -2.75 168.2 -6.65 166.85 -8.6 166.15 -10.4 165.05 -15.45 161.95 -15.45 157.6 L-15.4 157.15 Q-15.15 153.1 -10.4 150.1 -5.25 147.05 2.0 147.05 6.25 147.05 9.85 148.1 12.3 148.9 14.4 150.1 19.25 153.05 19.55 157.15 19.85 153.05 24.65 150.1 29.75 147.05 37.05 147.05 40.65 147.05 43.8 147.8 46.8 148.55 49.35 150.1 54.3 153.05 54.6 157.15 54.85 153.05 59.65 150.1 64.8 147.05 72.05 147.05 L78.35 147.7 Q81.7 148.45 84.4 150.1 89.35 153.05 89.65 157.15 89.9 153.05 94.7 150.1 99.8 147.05 107.05 147.05 112.5 147.05 116.8 148.8 L119.45 150.1 Q124.35 153.05 124.6 157.15 124.9 153.05 129.75 150.1 134.85 147.05 142.1 147.05 147.3 147.05 151.35 148.6 L154.45 150.1 Q159.4 153.05 159.65 157.15 159.95 153.05 164.7 150.1 169.9 147.05 177.1 147.05 182.2 147.05 186.3 148.55 L189.5 150.1 Q194.4 153.05 194.7 157.15 195.0 153.05 199.75 150.1 204.9 147.05 212.15 147.05 217.1 147.05 221.05 148.45 222.9 149.15 224.55 150.1 229.4 153.05 229.7 157.15 230.0 153.05 234.8 150.1 239.9 147.05 247.15 147.05 252.75 147.05 257.15 148.9 L259.5 150.1 Q264.45 153.05 264.75 157.15 265.0 153.05 269.8 150.1 274.95 147.05 282.2 147.05 288.35 147.05 293.0 149.3 L294.55 150.1 Q299.45 153.05 299.8 157.15 300.05 153.05 304.85 150.1 309.95 147.05 317.2 147.05 322.25 147.05 326.3 148.55 328.05 149.2 329.6 150.1 334.5 153.05 334.75 157.15 335.05 153.05 339.9 150.1 345.0 147.05 352.2 147.05 358.25 147.05 362.85 149.2 L364.6 150.1 Q369.55 153.05 369.8 157.15 370.1 153.05 374.85 150.1 380.05 147.05 387.25 147.05 394.5 147.05 399.65 150.1 L400.45 150.65 Q404.65 153.4 404.85 157.15 L404.85 157.5 404.85 157.6 404.85 157.75 Q404.75 162.0 399.65 165.05 394.5 168.2 387.25 168.2 L384.6 168.1 Q379.0 167.6 374.85 165.05 369.85 162.0 369.8 157.75 369.75 162.0 364.6 165.05 359.5 168.2 352.2 168.2 L346.3 167.65 M347.0 169.9 Q352.15 172.9 352.2 177.3 352.25 172.9 357.25 169.9 362.45 166.8 369.65 166.8 376.9 166.8 382.05 169.9 L382.6 170.25 383.05 170.5 Q387.2 173.4 387.25 177.3 387.4 172.9 392.4 169.9 397.65 166.8 404.85 166.8 410.9 166.8 415.5 168.95 L417.25 169.9 Q422.45 173.0 422.45 177.4 L422.45 177.65 Q422.3 181.8 417.25 184.85 412.15 187.95 404.85 187.95 L399.05 187.4 Q395.45 186.65 392.4 184.85 387.5 181.8 387.25 177.65 387.1 181.8 382.05 184.85 376.9 187.95 369.65 187.95 L366.6 187.8 366.25 187.8 Q361.2 187.2 357.25 184.85 352.3 181.8 352.2 177.65 352.1 181.8 347.0 184.85 341.85 187.95 334.6 187.95 L328.6 187.35 Q325.1 186.6 322.25 184.85 317.3 181.8 317.15 177.65 317.05 181.8 312.0 184.85 306.85 187.95 299.6 187.95 L292.55 187.1 Q289.65 186.35 287.25 184.85 282.3 181.8 282.2 177.65 282.0 181.8 276.95 184.85 271.85 187.95 264.55 187.95 L259.4 187.5 Q255.35 186.8 252.2 184.85 247.25 181.8 247.15 177.65 247.0 181.8 241.9 184.85 236.8 187.95 229.5 187.95 L223.5 187.35 Q220.05 186.6 217.2 184.85 212.2 181.8 212.1 177.65 211.95 181.8 206.9 184.85 201.75 187.95 194.55 187.95 L187.4 187.1 Q184.55 186.25 182.15 184.85 177.2 181.8 177.1 177.65 177.0 181.8 171.9 184.85 166.75 187.95 159.5 187.95 L152.2 187.05 Q149.45 186.25 147.1 184.85 142.15 181.8 142.05 177.65 141.95 181.8 136.85 184.85 131.7 187.95 124.5 187.95 120.7 187.95 117.5 187.15 114.55 186.35 112.15 184.85 107.15 181.8 107.0 177.65 106.9 181.8 101.85 184.85 96.7 187.95 89.45 187.95 L83.15 187.3 Q79.8 186.5 77.1 184.85 72.15 181.8 72.05 177.65 71.9 181.8 66.8 184.85 61.7 187.95 54.4 187.95 49.15 187.95 44.95 186.25 43.4 185.65 42.05 184.85 37.1 181.8 37.0 177.65 36.85 181.8 31.75 184.85 26.65 187.95 19.45 187.95 14.55 187.95 10.7 186.6 8.75 185.85 7.05 184.85 2.05 181.8 1.95 177.65 1.85 181.8 -3.25 184.85 -8.4 187.95 -15.6 187.95 -20.25 187.95 -24.05 186.7 -26.2 185.95 -28.0 184.85 -32.9 181.8 -33.05 177.65 L-33.05 177.4 Q-33.05 173.0 -28.0 169.9 -22.9 166.8 -15.6 166.8 -11.25 166.8 -7.6 167.95 -5.25 168.65 -3.25 169.9 1.9 172.9 1.95 177.3 2.0 172.9 7.05 169.9 12.15 166.8 19.45 166.8 23.4 166.8 26.75 167.75 29.5 168.5 31.75 169.9 36.95 172.9 37.0 177.3 37.05 172.9 42.05 169.9 47.2 166.8 54.4 166.8 58.05 166.8 61.1 167.6 64.25 168.35 66.8 169.9 71.95 172.9 72.05 177.3 72.1 172.9 77.1 169.9 82.2 166.8 89.45 166.8 95.05 166.8 99.4 168.65 L101.85 169.9 Q106.95 172.9 107.0 177.3 107.05 172.9 112.15 169.9 117.25 166.8 124.5 166.8 129.8 166.8 133.95 168.45 L136.85 169.9 Q142.0 172.9 142.05 177.3 142.1 172.9 147.1 169.9 152.3 166.8 159.5 166.8 164.65 166.8 168.75 168.4 170.4 169.0 171.9 169.9 177.05 172.9 177.1 177.3 177.15 172.9 182.15 169.9 187.25 166.8 194.55 166.8 199.65 166.8 203.75 168.35 205.4 168.95 206.9 169.9 212.05 172.9 212.1 177.3 212.15 172.9 217.2 169.9 222.3 166.8 229.5 166.8 235.3 166.8 239.75 168.75 240.9 169.25 241.9 169.9 247.1 172.9 247.15 177.3 247.2 172.9 252.2 169.9 257.35 166.8 264.55 166.8 270.85 166.8 275.6 169.1 L276.95 169.9 Q282.05 172.9 282.2 177.3 282.25 172.9 287.25 169.9 292.35 166.8 299.6 166.8 304.8 166.8 308.95 168.4 310.5 169.0 312.0 169.9 317.1 172.9 317.15 177.3 317.2 172.9 322.25 169.9 327.4 166.8 334.6 166.8 340.55 166.8 345.1 168.9 L347.0 169.9 M334.75 157.75 L334.75 157.5 334.75 157.15 M334.75 197.3 Q334.85 192.95 339.9 189.9 345.0 186.85 352.2 186.85 359.5 186.85 364.6 189.9 L364.65 189.95 Q369.75 192.95 369.8 197.3 369.85 192.95 374.85 189.9 380.05 186.85 387.25 186.85 393.2 186.85 397.75 188.95 L399.65 189.9 Q404.8 193.0 404.85 197.3 L404.85 197.4 404.85 197.55 404.85 198.15 Q404.4 202.0 399.65 204.85 394.5 208.0 387.25 208.0 L381.35 207.45 Q377.75 206.6 374.85 204.85 370.2 202.0 369.85 198.15 L369.8 197.7 369.8 198.15 Q369.4 202.0 364.6 204.85 359.5 208.0 352.2 208.0 L348.45 207.8 Q343.55 207.15 339.9 204.85 335.15 202.0 334.85 198.15 L334.75 197.65 334.75 198.15 Q334.35 202.0 329.6 204.85 324.45 208.0 317.2 208.0 L310.75 207.3 Q307.5 206.5 304.85 204.85 300.2 202.0 299.85 198.15 L299.8 197.7 299.8 198.15 Q299.35 202.0 294.55 204.85 289.45 208.0 282.2 208.0 L275.1 207.15 Q272.2 206.3 269.8 204.85 265.15 202.0 264.8 198.15 L264.75 197.7 264.75 198.15 Q264.35 202.0 259.5 204.85 254.4 208.0 247.15 208.0 L241.85 207.55 Q237.95 206.75 234.8 204.85 230.1 202.0 229.75 198.15 L229.7 197.7 229.7 198.15 Q229.3 202.0 224.55 204.85 219.35 208.0 212.15 208.0 L206.0 207.4 Q202.55 206.55 199.75 204.85 195.1 202.0 194.75 198.15 L194.7 197.7 194.7 198.15 Q194.3 202.0 189.5 204.85 184.35 208.0 177.1 208.0 173.2 208.0 169.95 207.1 167.1 206.3 164.7 204.85 160.05 202.0 159.7 198.15 L159.65 197.7 159.65 198.15 Q159.25 202.0 154.45 204.85 149.35 208.0 142.1 208.0 137.95 208.0 134.55 207.05 131.95 206.2 129.75 204.85 125.0 202.0 124.7 198.15 L124.6 197.65 124.6 198.15 Q124.2 202.0 119.45 204.85 114.3 208.0 107.05 208.0 103.2 208.0 99.9 207.15 97.05 206.3 94.7 204.85 90.05 202.0 89.7 198.15 L89.65 197.7 89.65 198.15 Q89.25 202.0 84.4 204.85 79.3 208.0 72.05 208.0 L65.6 207.3 Q62.35 206.5 59.65 204.85 55.0 202.0 54.65 198.15 L54.6 197.7 54.6 198.15 Q54.2 202.0 49.35 204.85 44.25 208.0 37.05 208.0 31.75 208.0 27.6 206.35 26.0 205.75 24.65 204.85 19.95 202.0 19.6 198.15 L19.55 197.7 19.55 198.15 Q19.15 202.0 14.4 204.85 9.2 208.0 2.0 208.0 -2.7 208.0 -6.5 206.7 -8.55 205.95 -10.4 204.85 -15.0 202.0 -15.4 198.15 L-15.45 197.4 Q-15.45 193.05 -10.4 189.9 -5.25 186.85 2.0 186.85 6.15 186.85 9.6 187.85 12.15 188.6 14.4 189.9 19.5 192.95 19.55 197.3 19.6 192.95 24.65 189.9 29.75 186.85 37.05 186.85 40.65 186.85 43.8 187.6 46.8 188.4 49.35 189.9 54.55 192.95 54.6 197.3 54.65 192.95 59.65 189.9 64.8 186.85 72.05 186.85 77.6 186.85 81.9 188.7 L84.4 189.9 Q89.6 192.95 89.65 197.3 89.7 192.95 94.7 189.9 99.8 186.85 107.05 186.85 112.25 186.85 116.4 188.45 118.0 189.05 119.45 189.9 124.55 192.95 124.6 197.3 124.7 192.95 129.75 189.9 134.85 186.85 142.1 186.85 147.1 186.85 151.1 188.35 152.85 189.0 154.45 189.9 159.6 192.95 159.65 197.3 159.7 192.95 164.7 189.9 169.9 186.85 177.1 186.85 182.2 186.85 186.25 188.4 187.95 189.0 189.5 189.9 194.65 192.95 194.7 197.3 194.75 192.95 199.75 189.9 204.9 186.85 212.15 186.85 217.8 186.85 222.25 188.8 L224.55 189.9 Q229.65 192.95 229.7 197.3 229.75 192.95 234.8 189.9 239.9 186.85 247.15 186.85 253.4 186.85 258.05 189.1 L259.5 189.9 Q264.7 192.95 264.75 197.3 264.8 192.95 269.8 189.9 274.95 186.85 282.2 186.85 287.35 186.85 291.45 188.45 293.1 189.05 294.55 189.9 299.65 192.95 299.8 197.3 299.85 192.95 304.85 189.9 309.95 186.85 317.2 186.85 322.9 186.85 327.35 188.8 L329.6 189.9 Q334.7 192.95 334.75 197.3 L334.75 197.65 M352.2 177.65 L352.2 177.55 352.2 177.3 M369.8 157.15 L369.8 157.5 369.8 157.75 M369.8 197.7 L369.8 197.3 M387.25 177.3 L387.25 177.4 387.25 177.55 387.25 177.65 M422.45 217.55 Q422.25 221.7 417.25 224.7 412.15 227.85 404.85 227.85 L400.5 227.5 Q396.0 226.85 392.4 224.7 387.55 221.65 387.25 217.55 387.0 221.65 382.05 224.7 376.9 227.85 369.65 227.85 L363.8 227.25 Q360.2 226.5 357.25 224.7 352.4 221.65 352.2 217.55 352.05 221.65 347.0 224.7 341.85 227.85 334.6 227.85 L330.45 227.55 Q325.85 226.9 322.25 224.7 317.35 221.65 317.15 217.55 317.0 221.65 312.0 224.7 306.85 227.85 299.6 227.85 296.05 227.85 292.95 227.05 289.85 226.3 287.25 224.7 282.35 221.65 282.2 217.55 281.95 221.65 276.95 224.7 271.85 227.85 264.55 227.85 260.8 227.85 257.7 227.0 254.7 226.2 252.2 224.7 247.3 221.65 247.15 217.55 246.95 221.65 241.9 224.7 236.8 227.85 229.5 227.85 L224.35 227.35 Q220.4 226.65 217.2 224.7 212.25 221.65 212.1 217.55 211.9 221.65 206.9 224.7 201.75 227.85 194.55 227.85 L188.7 227.25 Q185.05 226.5 182.15 224.7 177.25 221.65 177.1 217.55 176.95 221.65 171.9 224.7 166.75 227.85 159.5 227.85 L152.55 227.0 Q149.6 226.2 147.1 224.7 142.25 221.65 142.05 217.55 141.9 221.65 136.85 224.7 131.7 227.85 124.5 227.85 120.4 227.85 117.0 226.85 114.35 226.1 112.15 224.7 107.2 221.65 107.0 217.55 106.85 221.65 101.85 224.7 96.7 227.85 89.45 227.85 85.65 227.85 82.5 227.0 79.5 226.2 77.1 224.7 72.2 221.65 72.05 217.55 71.85 221.65 66.8 224.7 61.7 227.85 54.4 227.85 L48.25 227.15 Q44.8 226.4 42.05 224.7 37.15 221.65 37.0 217.55 36.8 221.65 31.75 224.7 26.65 227.85 19.45 227.85 14.4 227.85 10.35 226.35 8.6 225.6 7.05 224.7 2.1 221.65 1.95 217.55 1.75 221.65 -3.25 224.7 -8.4 227.85 -15.6 227.85 -20.0 227.85 -23.6 226.7 -25.95 225.95 -28.0 224.7 -32.8 221.7 -33.05 217.55 L-33.05 217.2 Q-33.05 212.85 -28.0 209.7 -22.9 206.6 -15.6 206.6 -11.1 206.6 -7.45 207.8 -5.2 208.5 -3.25 209.7 1.9 212.75 1.95 217.1 2.0 212.75 7.05 209.7 12.15 206.6 19.45 206.6 23.3 206.6 26.6 207.55 29.35 208.25 31.75 209.7 36.95 212.75 37.0 217.1 37.05 212.75 42.05 209.7 47.2 206.6 54.4 206.6 60.15 206.6 64.55 208.5 L66.8 209.7 Q71.95 212.75 72.05 217.1 72.1 212.75 77.1 209.7 82.2 206.6 89.45 206.6 94.75 206.6 98.9 208.25 100.45 208.9 101.85 209.7 106.95 212.75 107.0 217.1 107.05 212.75 112.15 209.7 117.25 206.6 124.5 206.6 129.55 206.6 133.6 208.15 135.3 208.75 136.85 209.7 142.0 212.75 142.05 217.1 142.1 212.75 147.1 209.7 152.3 206.6 159.5 206.6 164.8 206.6 168.9 208.25 L171.9 209.7 Q177.05 212.75 177.1 217.1 177.15 212.75 182.15 209.7 187.25 206.6 194.55 206.6 200.4 206.6 204.95 208.65 L206.9 209.7 Q212.05 212.75 212.1 217.1 212.15 212.75 217.2 209.7 222.3 206.6 229.5 206.6 235.9 206.6 240.55 209.0 L241.9 209.7 Q247.1 212.75 247.15 217.1 247.2 212.75 252.2 209.7 257.35 206.6 264.55 206.6 269.9 206.6 274.05 208.25 275.6 208.9 276.95 209.7 282.05 212.75 282.2 217.1 282.25 212.75 287.25 209.7 292.35 206.6 299.6 206.6 305.25 206.6 309.65 208.5 L312.0 209.7 Q317.1 212.75 317.15 217.1 317.2 212.75 322.25 209.7 327.4 206.6 334.6 206.6 341.75 206.6 346.8 209.6 L347.0 209.7 Q352.15 212.75 352.2 217.1 352.25 212.75 357.25 209.7 362.45 206.6 369.65 206.6 375.65 206.6 380.2 208.7 L382.05 209.7 Q387.2 212.8 387.25 217.1 387.4 212.75 392.4 209.7 397.65 206.6 404.85 206.6 412.15 206.6 417.25 209.7 L417.35 209.8 Q422.45 212.9 422.45 217.2 L422.45 217.55 M387.25 217.55 L387.25 217.35 387.25 217.2 387.25 217.1 M369.8 238.1 Q369.7 242.25 364.6 245.35 359.5 248.5 352.2 248.5 348.65 248.5 345.6 247.7 342.5 246.95 339.9 245.35 334.9 242.25 334.75 238.1 334.65 242.25 329.6 245.35 324.45 248.5 317.2 248.5 L311.8 248.0 Q307.95 247.25 304.85 245.35 299.9 242.25 299.8 238.1 299.6 242.25 294.55 245.35 289.45 248.5 282.2 248.5 278.1 248.5 274.7 247.5 272.05 246.75 269.8 245.35 264.85 242.25 264.75 238.1 264.65 242.25 259.5 245.35 254.4 248.5 247.15 248.5 243.1 248.5 239.75 247.5 237.1 246.75 234.8 245.35 229.8 242.25 229.7 238.1 229.6 242.25 224.55 245.35 219.35 248.5 212.15 248.5 L206.3 247.9 Q202.65 247.15 199.75 245.35 194.8 242.25 194.7 238.1 194.6 242.25 189.5 245.35 184.35 248.5 177.1 248.5 L170.8 247.8 Q167.45 247.0 164.7 245.35 159.8 242.25 159.65 238.1 159.55 242.25 154.45 245.35 149.35 248.5 142.1 248.5 138.0 248.5 134.65 247.5 132.0 246.75 129.75 245.35 124.75 242.25 124.6 238.1 124.5 242.25 119.45 245.35 114.3 248.5 107.05 248.5 102.6 248.5 98.95 247.3 96.6 246.55 94.7 245.35 89.75 242.25 89.65 238.1 89.5 242.25 84.4 245.35 79.3 248.5 72.05 248.5 67.95 248.5 64.45 247.45 61.85 246.7 59.65 245.35 54.7 242.25 54.6 238.1 54.5 242.25 49.35 245.35 44.25 248.5 37.05 248.5 33.4 248.5 30.3 247.7 27.2 246.9 24.65 245.35 19.65 242.25 19.55 238.1 19.45 242.25 14.4 245.35 9.2 248.5 2.0 248.5 -3.3 248.5 -7.4 246.85 L-10.4 245.35 Q-15.35 242.25 -15.45 238.1 L-15.45 237.9 Q-15.45 233.55 -10.4 230.4 -5.25 227.3 2.0 227.3 5.65 227.3 8.8 228.15 11.8 228.85 14.4 230.4 19.5 233.45 19.55 237.8 19.6 233.45 24.65 230.4 29.75 227.3 37.05 227.3 42.4 227.3 46.65 229.0 L49.35 230.4 Q54.55 233.45 54.6 237.8 54.65 233.45 59.65 230.4 64.8 227.3 72.05 227.3 76.95 227.3 80.95 228.75 82.75 229.4 84.4 230.4 89.6 233.45 89.65 237.8 89.7 233.45 94.7 230.4 99.8 227.3 107.05 227.3 111.65 227.3 115.5 228.6 117.6 229.25 119.45 230.4 124.55 233.45 124.6 237.8 124.7 233.45 129.75 230.4 134.85 227.3 142.1 227.3 147.05 227.3 151.05 228.75 152.85 229.4 154.45 230.4 159.6 233.45 159.65 237.8 159.7 233.45 164.7 230.4 169.9 227.3 177.1 227.3 182.7 227.3 187.05 229.15 188.3 229.7 189.5 230.4 194.65 233.45 194.7 237.8 194.75 233.45 199.75 230.4 204.9 227.3 212.15 227.3 218.05 227.3 222.6 229.35 L224.55 230.4 Q229.65 233.45 229.7 237.8 229.75 233.45 234.8 230.4 239.9 227.3 247.15 227.3 252.15 227.3 256.1 228.8 257.9 229.4 259.5 230.4 264.7 233.45 264.75 237.8 264.8 233.45 269.8 230.4 274.95 227.3 282.2 227.3 287.35 227.3 291.4 228.85 293.1 229.45 294.55 230.4 299.65 233.45 299.8 237.8 299.85 233.45 304.85 230.4 309.95 227.3 317.2 227.3 323.65 227.3 328.45 229.8 L329.6 230.4 Q334.7 233.45 334.75 237.8 334.85 233.45 339.9 230.4 345.0 227.3 352.2 227.3 357.75 227.3 362.1 229.15 363.4 229.7 364.6 230.4 369.75 233.45 369.8 237.8 369.85 233.45 374.85 230.4 380.05 227.3 387.25 227.3 393.65 227.3 398.45 229.75 L399.65 230.4 Q404.8 233.5 404.85 237.8 L404.85 237.9 404.85 238.05 404.85 238.1 Q404.7 242.25 399.65 245.35 394.5 248.5 387.25 248.5 L381.15 247.85 Q377.7 247.1 374.85 245.35 369.95 242.25 369.8 238.1 L369.8 237.8 M352.2 217.1 L352.2 217.35 352.2 217.55 M334.75 237.8 L334.75 238.1 M264.75 77.7 L264.75 77.95 M299.8 77.7 L299.8 77.95 M194.7 77.7 L194.7 77.95 M229.7 77.7 L229.7 77.95 M229.7 117.2 L229.7 117.5 229.7 117.75 M212.1 97.45 L212.1 97.75 M212.1 137.15 L212.1 137.25 212.1 137.55 M194.7 117.2 L194.7 117.5 194.7 117.75 M177.1 97.45 L177.1 97.75 M177.1 137.55 L177.1 137.25 177.1 137.15 M194.7 157.75 L194.7 157.5 194.7 157.15 M177.1 177.65 L177.1 177.55 177.1 177.3 M194.7 197.3 L194.7 197.7 M229.7 157.15 L229.7 157.5 229.7 157.75 M212.1 177.3 L212.1 177.55 212.1 177.65 M229.7 197.3 L229.7 197.7 M317.15 97.75 L317.15 97.45 M299.8 117.2 L299.8 117.5 299.8 117.75 M317.15 137.55 L317.15 137.25 317.15 137.15 M264.75 117.2 L264.75 117.5 264.75 117.75 M282.2 97.45 L282.2 97.75 M247.15 97.75 L247.15 97.45 M247.15 137.15 L247.15 137.25 247.15 137.55 M282.2 137.55 L282.2 137.25 282.2 137.15 M264.75 157.15 L264.75 157.5 264.75 157.75 M247.15 177.3 L247.15 177.55 247.15 177.65 M282.2 177.3 L282.2 177.55 282.2 177.65 M264.75 197.3 L264.75 197.7 M299.8 157.75 L299.8 157.5 299.8 157.15 M299.8 197.3 L299.8 197.7 M317.15 177.65 L317.15 177.55 317.15 177.3 M89.65 77.7 L89.65 77.95 M124.6 77.7 L124.6 77.95 M159.65 77.7 L159.65 77.95 M19.55 77.7 L19.55 77.95 M54.6 77.7 L54.6 77.95 M72.05 97.75 L72.05 97.45 M54.6 117.2 L54.6 117.5 54.6 117.75 M72.05 137.15 L72.05 137.25 72.05 137.55 M37.0 97.45 L37.0 97.75 M1.95 97.45 L1.95 97.75 M19.55 117.2 L19.55 117.5 19.55 117.75 M1.95 137.55 L1.95 137.25 1.95 137.15 M37.0 137.15 L37.0 137.25 37.0 137.55 M19.55 157.75 L19.55 157.5 19.55 157.15 M1.95 177.3 L1.95 177.55 1.95 177.65 M19.55 197.3 L19.55 197.7 M37.0 177.3 L37.0 177.55 37.0 177.65 M54.6 157.15 L54.6 157.5 54.6 157.75 M54.6 197.3 L54.6 197.7 M72.05 177.3 L72.05 177.55 72.05 177.65 M142.05 97.75 L142.05 97.45 M159.65 117.2 L159.65 117.5 159.65 117.75 M124.6 117.2 L124.6 117.5 124.6 117.75 M142.05 137.55 L142.05 137.25 142.05 137.15 M107.0 97.45 L107.0 97.75 M89.65 117.75 L89.65 117.5 89.65 117.2 M107.0 137.55 L107.0 137.25 107.0 137.15 M89.65 157.15 L89.65 157.5 89.65 157.75 M89.65 197.3 L89.65 197.7 M107.0 177.3 L107.0 177.55 107.0 177.65 M159.65 157.75 L159.65 157.5 159.65 157.15 M124.6 157.15 L124.6 157.5 124.6 157.75 M124.6 197.3 L124.6 197.65 M142.05 177.65 L142.05 177.55 142.05 177.3 M159.65 197.3 L159.65 197.7 M142.05 217.1 L142.05 217.35 142.05 217.55 M124.6 237.8 L124.6 238.1 M159.65 237.8 L159.65 238.1 M107.0 217.55 L107.0 217.35 107.0 217.1 M89.65 237.8 L89.65 238.1 M72.05 217.1 L72.05 217.35 72.05 217.55 M54.6 237.8 L54.6 238.1 M37.0 217.55 L37.0 217.35 37.0 217.1 M1.95 217.55 L1.95 217.35 1.95 217.1 M19.55 237.8 L19.55 238.1 M317.15 217.55 L317.15 217.35 317.15 217.1 M299.8 237.8 L299.8 238.1 M282.2 217.55 L282.2 217.35 282.2 217.1 M247.15 217.55 L247.15 217.35 247.15 217.1 M264.75 237.8 L264.75 238.1 M212.1 217.1 L212.1 217.35 212.1 217.55 M229.7 237.8 L229.7 238.1 M177.1 217.1 L177.1 217.35 177.1 217.55 M194.7 237.8 L194.7 238.1" fill="none" stroke="#70a4ba" stroke-linecap="round" stroke-linejoin="round" stroke-width="1.0"/>
    <path d="M360.9 19.7 L361.9 19.4 Q365.6 18.6 369.35 19.9 L366.7 20.55 Q365.85 20.85 365.35 21.3 L364.8 21.95 Q366.7 21.65 368.55 22.4 370.3 23.05 371.6 24.4 L367.5 24.7 Q366.3 25.1 365.3 26.1 L365.7 26.3 Q366.75 26.8 367.6 27.4 L369.2 28.85 367.3 28.8 Q366.15 29.1 365.8 30.15 363.85 35.7 358.6 37.8 L358.7 37.4 Q359.1 36.2 358.3 35.15 L357.1 33.95 357.05 35.45 354.55 45.15 352.05 35.45 352.0 33.95 350.8 35.15 Q350.0 36.2 350.4 37.4 L350.5 37.8 Q345.25 35.7 343.3 30.15 342.95 29.1 341.8 28.8 L339.9 28.85 341.5 27.4 343.4 26.3 343.8 26.1 Q342.8 25.1 341.6 24.7 L337.5 24.4 Q338.8 23.05 340.55 22.4 342.4 21.65 344.3 21.95 L343.75 21.3 342.4 20.55 339.75 19.9 Q343.5 18.6 347.2 19.4 L348.2 19.7 Q350.1 23.5 348.9 27.85 348.35 29.9 350.3 30.9 L354.25 30.55 354.55 31.85 354.85 30.55 358.8 30.9 Q360.75 29.9 360.2 27.85 359.0 23.5 360.9 19.7" fill="#31576d" fill-rule="evenodd" stroke="none"/>
    <path d="M350.1 23.55 L349.35 25.75 350.1 27.6 352.4 28.9 352.75 29.3 356.5 29.5 357.05 29.1 357.8 29.1 358.0 28.9 Q359.05 28.65 359.3 27.8 L359.4 27.75 360.25 26.7 360.25 26.45 Q360.2 25.5 360.6 24.8 L360.3 23.25 Q360.0 22.4 359.3 21.6 L358.75 21.2 358.35 20.65 357.8 20.5 357.65 20.1 356.5 19.9 356.15 19.7 355.05 20.0 Q354.6 18.15 352.05 18.45 348.95 18.85 348.95 21.35 L349.05 22.6 Q349.35 23.25 350.1 23.55 M363.7 23.95 Q363.7 27.7 361.05 30.3 358.4 32.95 354.65 32.95 350.9 32.95 348.3 30.3 345.65 27.7 345.65 23.95 345.65 20.2 348.3 17.55 350.9 14.95 354.65 14.95 358.4 14.95 361.05 17.55 363.7 20.2 363.7 23.95" fill="#b3dbde" fill-rule="evenodd" stroke="none"/>
    <path d="M355.05 20.0 L355.15 20.9 Q355.15 21.9 354.6 22.65 353.8 23.8 351.85 23.8 L350.1 23.55 Q349.35 23.25 349.05 22.6 L348.95 21.35 Q348.95 18.85 352.05 18.45 354.6 18.15 355.05 20.0" fill="#ffffff" fill-rule="evenodd" stroke="none"/>
    <path d="M355.05 20.0 L356.15 19.7 356.5 19.9 357.65 20.1 357.8 20.5 358.35 20.65 358.75 21.2 359.3 21.6 Q360.0 22.4 360.3 23.25 L360.6 24.8 Q360.2 25.5 360.25 26.45 L360.25 26.7 359.4 27.75 359.3 27.8 Q359.05 28.65 358.0 28.9 L357.8 29.1 357.05 29.1 356.5 29.5 352.75 29.3 352.4 28.9 350.1 27.6 349.35 25.75 350.1 23.55 351.85 23.8 Q353.8 23.8 354.6 22.65 355.15 21.9 355.15 20.9 L355.05 20.0" fill="#429b9a" fill-rule="evenodd" stroke="none"/>
    <path d="M363.7 23.95 Q363.7 27.7 361.05 30.3 358.4 32.95 354.65 32.95 350.9 32.95 348.3 30.3 345.65 27.7 345.65 23.95 345.65 20.2 348.3 17.55 350.9 14.95 354.65 14.95 358.4 14.95 361.05 17.55 363.7 20.2 363.7 23.95 Z" fill="none" stroke="#ffffff" stroke-linecap="round" stroke-linejoin="round" stroke-width="0.05"/>
    <path d="M31.5 19.7 L32.5 19.4 Q36.2 18.6 39.95 19.9 L37.3 20.55 Q36.45 20.85 35.95 21.3 L35.4 21.95 Q37.3 21.65 39.15 22.4 40.9 23.05 42.2 24.4 L38.1 24.7 Q36.9 25.1 35.9 26.1 L36.3 26.3 Q37.35 26.8 38.2 27.4 L39.8 28.85 37.9 28.8 Q36.75 29.1 36.4 30.15 34.45 35.7 29.2 37.8 L29.3 37.4 Q29.7 36.2 28.9 35.15 L27.7 33.95 27.65 35.45 25.15 45.15 22.65 35.45 22.6 33.95 21.4 35.15 Q20.6 36.2 21.0 37.4 L21.1 37.8 Q15.85 35.7 13.9 30.15 13.55 29.1 12.4 28.8 L10.5 28.85 12.1 27.4 Q12.95 26.8 14.0 26.3 L14.4 26.1 Q13.4 25.1 12.2 24.7 L8.1 24.4 Q9.4 23.05 11.15 22.4 13.0 21.65 14.9 21.95 L14.35 21.3 Q13.85 20.85 13.0 20.55 L10.35 19.9 Q14.1 18.6 17.8 19.4 L18.8 19.7 Q20.7 23.5 19.5 27.85 18.95 29.9 20.9 30.9 L24.85 30.55 25.15 31.85 25.45 30.55 29.4 30.9 Q31.35 29.9 30.8 27.85 29.6 23.5 31.5 19.7" fill="#31576d" fill-rule="evenodd" stroke="none"/>
    <path d="M20.7 23.55 L19.95 25.75 20.7 27.6 23.0 28.9 23.35 29.3 27.1 29.5 27.65 29.1 28.4 29.1 28.6 28.9 Q29.65 28.65 29.9 27.8 L30.0 27.75 30.85 26.7 30.85 26.45 Q30.8 25.5 31.2 24.8 L30.9 23.25 29.9 21.6 29.35 21.2 28.95 20.65 28.4 20.5 28.25 20.1 27.1 19.9 26.75 19.7 25.65 20.0 Q25.2 18.15 22.65 18.45 19.55 18.85 19.55 21.35 L19.65 22.6 Q19.95 23.25 20.7 23.55 M34.3 23.95 Q34.3 27.7 31.65 30.3 29.0 32.95 25.25 32.95 21.5 32.95 18.9 30.3 16.25 27.7 16.25 23.95 16.25 20.2 18.9 17.55 21.5 14.95 25.25 14.95 29.0 14.95 31.65 17.55 34.3 20.2 34.3 23.95" fill="#b3dbde" fill-rule="evenodd" stroke="none"/>
    <path d="M25.65 20.0 L25.75 20.9 Q25.75 21.9 25.2 22.65 24.4 23.8 22.45 23.8 L20.7 23.55 Q19.95 23.25 19.65 22.6 L19.55 21.35 Q19.55 18.85 22.65 18.45 25.2 18.15 25.65 20.0" fill="#ffffff" fill-rule="evenodd" stroke="none"/>
    <path d="M25.65 20.0 L26.75 19.7 27.1 19.9 28.25 20.1 28.4 20.5 28.95 20.65 29.35 21.2 29.9 21.6 30.9 23.25 31.2 24.8 Q30.8 25.5 30.85 26.45 L30.85 26.7 30.0 27.75 29.9 27.8 Q29.65 28.65 28.6 28.9 L28.4 29.1 27.65 29.1 27.1 29.5 23.35 29.3 23.0 28.9 20.7 27.6 19.95 25.75 20.7 23.55 22.45 23.8 Q24.4 23.8 25.2 22.65 25.75 21.9 25.75 20.9 L25.65 20.0" fill="#429b9a" fill-rule="evenodd" stroke="none"/>
    <path d="M34.3 23.95 Q34.3 27.7 31.65 30.3 29.0 32.95 25.25 32.95 21.5 32.95 18.9 30.3 16.25 27.7 16.25 23.95 16.25 20.2 18.9 17.55 21.5 14.95 25.25 14.95 29.0 14.95 31.65 17.55 34.3 20.2 34.3 23.95 Z" fill="none" stroke="#ffffff" stroke-linecap="round" stroke-linejoin="round" stroke-width="0.05"/>
    <path d="M74.25 43.8 Q74.3 44.55 73.75 45.05 L73.0 45.35 72.7 45.2 72.15 44.3 72.05 44.1 71.85 44.25 Q71.3 44.8 70.6 44.9 L70.4 44.85 Q69.55 44.2 69.4 43.4 L68.9 44.9 68.75 45.15 68.9 44.9 69.4 43.4 Q69.55 44.2 70.4 44.85 L70.6 44.9 Q71.3 44.8 71.85 44.25 L72.05 44.1 72.15 44.3 72.7 45.2 73.0 45.35 73.75 45.05 Q74.3 44.55 74.25 43.8 M65.85 43.6 Q65.85 44.45 64.85 44.65 L64.5 44.6 Q63.4 44.25 63.75 43.15 63.3 44.2 62.15 44.5 L61.65 44.35 61.05 43.0 60.4 45.0 61.05 43.0 61.65 44.35 62.15 44.5 Q63.3 44.2 63.75 43.15 63.4 44.25 64.5 44.6 L64.85 44.65 Q65.85 44.45 65.85 43.6 M74.65 39.0 L74.35 39.4 73.95 39.7 Q73.0 40.5 72.5 39.5 L72.35 39.1 Q72.05 39.7 71.4 39.85 L70.9 40.0 Q69.95 40.2 69.9 39.4 69.85 38.8 70.05 38.3 69.2 39.7 67.5 40.0 66.65 40.15 66.75 39.25 L66.75 38.7 Q66.75 38.1 67.0 37.9 L66.5 38.5 65.55 39.45 64.85 39.75 Q63.95 39.9 63.9 39.1 L63.8 38.8 63.6 38.35 63.5 38.45 Q63.1 39.45 62.15 39.75 61.7 39.9 61.6 39.5 L61.6 39.25 Q61.65 38.25 61.1 37.5 L59.35 39.8 61.1 37.5 Q61.65 38.25 61.6 39.25 L61.6 39.5 Q61.7 39.9 62.15 39.75 63.1 39.45 63.5 38.45 L63.6 38.35 63.8 38.8 63.9 39.1 Q63.95 39.9 64.85 39.75 L65.55 39.45 66.5 38.5 67.0 37.9 Q66.75 38.1 66.75 38.7 L66.75 39.25 Q66.65 40.15 67.5 40.0 69.2 39.7 70.05 38.3 69.85 38.8 69.9 39.4 69.95 40.2 70.9 40.0 L71.4 39.85 Q72.05 39.7 72.35 39.1 L72.5 39.5 Q73.0 40.5 73.95 39.7 L74.35 39.4 74.65 39.0 M73.3 33.9 L72.85 34.4 72.6 34.5 Q72.15 34.4 72.2 34.0 71.45 34.65 70.45 34.85 L69.55 34.7 69.35 34.4 Q69.3 34.15 69.0 34.15 68.15 34.7 67.0 34.5 L63.35 35.1 67.0 34.5 Q68.15 34.7 69.0 34.15 69.3 34.15 69.35 34.4 L69.55 34.7 70.45 34.85 Q71.45 34.65 72.2 34.0 72.15 34.4 72.6 34.5 L72.85 34.4 73.3 33.9 M74.1 29.05 L73.9 29.3 73.75 29.5 73.0 30.1 Q72.2 30.55 72.0 29.75 L71.8 29.45 Q71.15 30.5 69.95 30.6 L69.8 30.55 Q69.7 29.9 69.15 29.45 L68.8 29.65 Q68.15 30.15 67.4 30.25 L67.15 30.2 Q66.4 29.7 66.85 28.8 L65.25 30.25 65.0 30.35 64.7 30.35 63.1 30.4 64.7 30.35 65.0 30.35 65.25 30.25 66.85 28.8 Q66.4 29.7 67.15 30.2 L67.4 30.25 Q68.15 30.15 68.8 29.65 L69.15 29.45 Q69.7 29.9 69.8 30.55 L69.95 30.6 Q71.15 30.5 71.8 29.45 L72.0 29.75 Q72.2 30.55 73.0 30.1 L73.75 29.5 73.9 29.3 74.1 29.05 M74.35 26.0 L74.2 26.2 73.75 26.25 Q73.3 25.6 73.3 24.8 L72.55 25.5 Q71.85 26.1 71.0 26.25 L70.75 26.2 70.55 25.95 70.25 25.15 69.9 25.4 69.0 25.95 68.65 26.0 Q68.1 25.85 67.8 25.3 L67.65 25.15 Q67.35 25.15 67.05 25.4 L66.7 25.65 66.2 25.6 66.05 25.25 65.85 25.35 64.85 26.0 64.65 26.0 64.05 25.45 63.4 26.5 Q63.2 27.0 63.1 26.65 63.2 27.0 63.4 26.5 L64.05 25.45 64.65 26.0 64.85 26.0 65.85 25.35 66.05 25.25 66.2 25.6 66.7 25.65 67.05 25.4 Q67.35 25.15 67.65 25.15 L67.8 25.3 Q68.1 25.85 68.65 26.0 L69.0 25.95 69.9 25.4 70.25 25.15 70.55 25.95 70.75 26.2 71.0 26.25 Q71.85 26.1 72.55 25.5 L73.3 24.8 Q73.3 25.6 73.75 26.25 L74.2 26.2 74.35 26.0 M77.15 21.7 L77.15 49.0 57.85 49.0 57.85 21.7 77.15 21.7" fill="#e7e7ec" fill-rule="evenodd" stroke="none"/>
    <path d="M63.1 26.65 Q63.2 27.0 63.4 26.5 L64.05 25.45 64.65 26.0 64.85 26.0 65.85 25.35 66.05 25.25 66.2 25.6 66.7 25.65 67.05 25.4 Q67.35 25.15 67.65 25.15 L67.8 25.3 Q68.1 25.85 68.65 26.0 L69.0 25.95 69.9 25.4 70.25 25.15 70.55 25.95 70.75 26.2 71.0 26.25 Q71.85 26.1 72.55 25.5 L73.3 24.8 Q73.3 25.6 73.75 26.25 L74.2 26.2 74.35 26.0 M63.1 30.4 L64.7 30.35 65.0 30.35 65.25 30.25 66.85 28.8 Q66.4 29.7 67.15 30.2 L67.4 30.25 Q68.15 30.15 68.8 29.65 L69.15 29.45 Q69.7 29.9 69.8 30.55 L69.95 30.6 Q71.15 30.5 71.8 29.45 L72.0 29.75 Q72.2 30.55 73.0 30.1 L73.75 29.5 73.9 29.3 74.1 29.05 M63.35 35.1 L67.0 34.5 Q68.15 34.7 69.0 34.15 69.3 34.15 69.35 34.4 L69.55 34.7 70.45 34.85 Q71.45 34.65 72.2 34.0 72.15 34.4 72.6 34.5 L72.85 34.4 73.3 33.9 M59.35 39.8 L61.1 37.5 Q61.65 38.25 61.6 39.25 L61.6 39.5 Q61.7 39.9 62.15 39.75 63.1 39.45 63.5 38.45 L63.6 38.35 63.8 38.8 63.9 39.1 Q63.95 39.9 64.85 39.75 L65.55 39.45 66.5 38.5 67.0 37.9 Q66.75 38.1 66.75 38.7 L66.75 39.25 Q66.65 40.15 67.5 40.0 69.2 39.7 70.05 38.3 69.85 38.8 69.9 39.4 69.95 40.2 70.9 40.0 L71.4 39.85 Q72.05 39.7 72.35 39.1 L72.5 39.5 Q73.0 40.5 73.95 39.7 L74.35 39.4 74.65 39.0 M60.4 45.0 L61.05 43.0 61.65 44.35 62.15 44.5 Q63.3 44.2 63.75 43.15 63.4 44.25 64.5 44.6 L64.85 44.65 Q65.85 44.45 65.85 43.6 M68.75 45.15 L68.9 44.9 69.4 43.4 Q69.55 44.2 70.4 44.85 L70.6 44.9 Q71.3 44.8 71.85 44.25 L72.05 44.1 72.15 44.3 72.7 45.2 73.0 45.35 73.75 45.05 Q74.3 44.55 74.25 43.8 M77.15 21.7 L77.15 49.0 57.85 49.0 57.85 21.7 77.15 21.7" fill="none" stroke="#31576d" stroke-linecap="round" stroke-linejoin="round" stroke-width="0.05"/>
    <path d="M60.35 33.7 L60.5 33.2 Q60.7 33.0 61.05 32.95 L61.55 33.15 61.75 33.65 61.55 34.15 61.05 34.4 Q60.65 34.4 60.5 34.15 L60.35 33.7 M60.8 23.9 Q61.1 23.65 61.4 23.5 L61.55 23.4 61.6 23.4 61.7 23.45 61.7 23.55 61.65 24.1 61.5 25.4 61.45 25.9 61.4 27.05 61.35 28.45 61.25 29.85 61.2 31.0 61.2 31.55 61.15 31.85 61.0 32.0 60.85 31.85 60.8 31.25 60.6 27.55 60.55 27.1 60.5 26.3 60.45 25.45 60.35 24.9 60.35 24.75 60.3 24.65 60.35 24.55 60.4 24.45 60.8 23.9" fill="#cc3300" fill-rule="evenodd" stroke="none"/>
    <path d="M188.1 66.7 L184.1 66.7 184.1 12.3 Q184.1 9.15 187.85 6.9 190.5 5.35 193.95 4.85 L197.1 4.65 199.85 4.8 Q203.5 5.25 206.25 6.9 210.1 9.15 210.1 12.3 L210.1 66.7 206.1 66.7 206.1 25.15 206.1 14.95 Q206.1 11.95 203.4 9.8 201.85 8.55 199.85 8.05 L197.1 7.7 193.95 8.15 Q192.15 8.65 190.7 9.8 188.1 11.95 188.1 14.95 L188.1 25.15 188.1 66.7 M193.95 4.85 L193.95 8.15 193.95 4.85 M199.85 4.8 L199.85 8.05 199.85 4.8" fill="#78afbf" fill-rule="evenodd" stroke="none"/>
    <path d="M188.1 25.15 L188.1 14.95 Q188.1 11.95 190.7 9.8 192.15 8.65 193.95 8.15 L197.1 7.7 199.85 8.05 Q201.85 8.55 203.4 9.8 206.1 11.95 206.1 14.95 L206.1 25.15 Q197.1 11.8 188.1 25.15 M197.15 18.45 Q198.7 18.45 199.8 17.75 200.9 17.05 200.9 16.05 200.9 15.05 199.8 14.3 198.7 13.6 197.15 13.6 195.6 13.6 194.5 14.3 193.4 15.05 193.4 16.05 193.4 17.05 194.5 17.75 195.6 18.45 197.15 18.45" fill="#44889b" fill-rule="evenodd" stroke="none"/>
    <path d="M197.15 18.45 Q195.6 18.45 194.5 17.75 193.4 17.05 193.4 16.05 193.4 15.05 194.5 14.3 195.6 13.6 197.15 13.6 198.7 13.6 199.8 14.3 200.9 15.05 200.9 16.05 200.9 17.05 199.8 17.75 198.7 18.45 197.15 18.45" fill="#78f7f7" fill-rule="evenodd" stroke="none"/>
    <path d="M206.1 66.7 L188.1 66.7 188.1 25.15 Q197.1 11.8 206.1 25.15 L206.1 66.7 M193.5 42.9 L190.35 42.9 190.35 36.7 196.7 36.7 196.7 42.9 203.35 42.9 203.35 36.7 199.9 36.7 203.35 36.7 203.35 42.9 196.7 42.9 196.7 36.7 190.35 36.7 190.35 42.9 193.5 42.9 M200.2 34.0 L203.35 34.0 203.35 27.8 197.0 27.8 197.0 34.0 190.35 34.0 190.35 27.8 193.8 27.8 190.35 27.8 190.35 34.0 197.0 34.0 197.0 27.8 203.35 27.8 203.35 34.0 200.2 34.0 M193.5 60.6 L190.35 60.6 190.35 54.4 196.7 54.4 196.7 60.6 203.35 60.6 203.35 54.4 199.9 54.4 203.35 54.4 203.35 60.6 196.7 60.6 196.7 54.4 190.35 54.4 190.35 60.6 193.5 60.6 M200.2 51.7 L203.35 51.7 203.35 45.5 197.0 45.5 197.0 51.7 190.35 51.7 190.35 45.5 193.8 45.5 190.35 45.5 190.35 51.7 197.0 51.7 197.0 45.5 203.35 45.5 203.35 51.7 200.2 51.7" fill="url(#gradient2)" fill-rule="evenodd" stroke="none"/>
    <path d="M188.1 66.7 L184.1 66.7 184.1 12.3 Q184.1 9.15 187.85 6.9 190.5 5.35 193.95 4.85 L197.1 4.65 199.85 4.8 Q203.5 5.25 206.25 6.9 210.1 9.15 210.1 12.3 L210.1 66.7 206.1 66.7 188.1 66.7 188.1 25.15 188.1 14.95 Q188.1 11.95 190.7 9.8 192.15 8.65 193.95 8.15 L193.95 4.85 M193.95 8.15 L197.1 7.7 199.85 8.05 199.85 4.8 M197.15 18.45 Q195.6 18.45 194.5 17.75 193.4 17.05 193.4 16.05 193.4 15.05 194.5 14.3 195.6 13.6 197.15 13.6 198.7 13.6 199.8 14.3 200.9 15.05 200.9 16.05 200.9 17.05 199.8 17.75 198.7 18.45 197.15 18.45 M199.85 8.05 Q201.85 8.55 203.4 9.8 206.1 11.95 206.1 14.95 L206.1 25.15 206.1 66.7 M193.8 45.5 L190.35 45.5 190.35 51.7 197.0 51.7 197.0 45.5 203.35 45.5 203.35 51.7 200.2 51.7 M199.9 54.4 L203.35 54.4 203.35 60.6 196.7 60.6 196.7 54.4 190.35 54.4 190.35 60.6 193.5 60.6 M188.1 25.15 Q197.1 11.8 206.1 25.15" fill="none" stroke="#31576d" stroke-linecap="round" stroke-linejoin="round" stroke-width="0.05"/>
    <path d="M193.8 27.8 L190.35 27.8 190.35 34.0 197.0 34.0 197.0 27.8 203.35 27.8 203.35 34.0 200.2 34.0 M199.9 36.7 L203.35 36.7 203.35 42.9 196.7 42.9 196.7 36.7 190.35 36.7 190.35 42.9 193.5 42.9" fill="none" stroke="#5f98ac" stroke-linecap="round" stroke-linejoin="round" stroke-width="0.05"/>
    <path d="M238.85 5.35 L238.85 8.65 238.85 5.35 242.0 5.15 244.75 5.3 244.75 8.55 244.75 5.3 Q248.4 5.75 251.15 7.4 255.0 9.65 255.0 12.8 L255.0 67.2 251.0 67.2 251.0 25.65 251.0 15.45 Q251.0 12.45 248.3 10.3 246.75 9.05 244.75 8.55 L242.0 8.2 238.85 8.65 Q237.05 9.15 235.6 10.3 233.0 12.45 233.0 15.45 L233.0 25.65 233.0 67.2 229.0 67.2 229.0 12.8 Q229.0 9.65 232.75 7.4 235.4 5.85 238.85 5.35" fill="#78afbf" fill-rule="evenodd" stroke="none"/>
    <path d="M233.0 25.65 L233.0 15.45 Q233.0 12.45 235.6 10.3 237.05 9.15 238.85 8.65 L242.0 8.2 244.75 8.55 Q246.75 9.05 248.3 10.3 251.0 12.45 251.0 15.45 L251.0 25.65 Q242.0 12.3 233.0 25.65 M242.05 18.95 Q243.6 18.95 244.7 18.25 245.8 17.55 245.8 16.55 245.8 15.55 244.7 14.8 243.6 14.1 242.05 14.1 240.5 14.1 239.4 14.8 238.3 15.55 238.3 16.55 238.3 17.55 239.4 18.25 240.5 18.95 242.05 18.95" fill="#44889b" fill-rule="evenodd" stroke="none"/>
    <path d="M242.05 18.95 Q240.5 18.95 239.4 18.25 238.3 17.55 238.3 16.55 238.3 15.55 239.4 14.8 240.5 14.1 242.05 14.1 243.6 14.1 244.7 14.8 245.8 15.55 245.8 16.55 245.8 17.55 244.7 18.25 243.6 18.95 242.05 18.95" fill="#78f7f7" fill-rule="evenodd" stroke="none"/>
    <path d="M233.0 67.2 L233.0 25.65 Q242.0 12.3 251.0 25.65 L251.0 67.2 233.0 67.2 M245.1 34.5 L248.25 34.5 248.25 28.3 241.9 28.3 241.9 34.5 235.25 34.5 235.25 28.3 238.7 28.3 235.25 28.3 235.25 34.5 241.9 34.5 241.9 28.3 248.25 28.3 248.25 34.5 245.1 34.5 M238.4 43.4 L235.25 43.4 235.25 37.2 241.6 37.2 241.6 43.4 248.25 43.4 248.25 37.2 244.8 37.2 248.25 37.2 248.25 43.4 241.6 43.4 241.6 37.2 235.25 37.2 235.25 43.4 238.4 43.4 M238.4 61.1 L235.25 61.1 235.25 54.9 241.6 54.9 241.6 61.1 248.25 61.1 248.25 54.9 244.8 54.9 248.25 54.9 248.25 61.1 241.6 61.1 241.6 54.9 235.25 54.9 235.25 61.1 238.4 61.1 M245.1 52.2 L248.25 52.2 248.25 46.0 241.9 46.0 241.9 52.2 235.25 52.2 235.25 46.0 238.7 46.0 235.25 46.0 235.25 52.2 241.9 52.2 241.9 46.0 248.25 46.0 248.25 52.2 245.1 52.2" fill="url(#gradient3)" fill-rule="evenodd" stroke="none"/>
    <path d="M238.85 8.65 L238.85 5.35 Q235.4 5.85 232.75 7.4 229.0 9.65 229.0 12.8 L229.0 67.2 233.0 67.2 233.0 25.65 233.0 15.45 Q233.0 12.45 235.6 10.3 237.05 9.15 238.85 8.65 L242.0 8.2 244.75 8.55 244.75 5.3 242.0 5.15 238.85 5.35 M242.05 18.95 Q240.5 18.95 239.4 18.25 238.3 17.55 238.3 16.55 238.3 15.55 239.4 14.8 240.5 14.1 242.05 14.1 243.6 14.1 244.7 14.8 245.8 15.55 245.8 16.55 245.8 17.55 244.7 18.25 243.6 18.95 242.05 18.95 M244.75 8.55 Q246.75 9.05 248.3 10.3 251.0 12.45 251.0 15.45 L251.0 25.65 251.0 67.2 255.0 67.2 255.0 12.8 Q255.0 9.65 251.15 7.4 248.4 5.75 244.75 5.3 M238.7 46.0 L235.25 46.0 235.25 52.2 241.9 52.2 241.9 46.0 248.25 46.0 248.25 52.2 245.1 52.2 M244.8 54.9 L248.25 54.9 248.25 61.1 241.6 61.1 241.6 54.9 235.25 54.9 235.25 61.1 238.4 61.1 M251.0 67.2 L233.0 67.2 M233.0 25.65 Q242.0 12.3 251.0 25.65" fill="none" stroke="#31576d" stroke-linecap="round" stroke-linejoin="round" stroke-width="0.05"/>
    <path d="M244.8 37.2 L248.25 37.2 248.25 43.4 241.6 43.4 241.6 37.2 235.25 37.2 235.25 43.4 238.4 43.4 M238.7 28.3 L235.25 28.3 235.25 34.5 241.9 34.5 241.9 28.3 248.25 28.3 248.25 34.5 245.1 34.5" fill="none" stroke="#5f98ac" stroke-linecap="round" stroke-linejoin="round" stroke-width="0.05"/>
    <path d="M147.7 4.85 L147.7 8.15 147.7 4.85 150.85 4.65 153.6 4.8 153.6 8.05 153.6 4.8 Q157.25 5.25 160.0 6.9 163.85 9.15 163.85 12.3 L163.85 66.7 159.85 66.7 159.85 25.15 159.85 14.95 Q159.85 11.95 157.15 9.8 155.6 8.55 153.6 8.05 L150.85 7.7 147.7 8.15 Q145.9 8.65 144.45 9.8 141.85 11.95 141.85 14.95 L141.85 25.15 141.85 66.7 137.85 66.7 137.85 12.3 Q137.85 9.15 141.6 6.9 144.25 5.35 147.7 4.85" fill="#78afbf" fill-rule="evenodd" stroke="none"/>
    <path d="M141.85 25.15 L141.85 14.95 Q141.85 11.95 144.45 9.8 145.9 8.65 147.7 8.15 L150.85 7.7 153.6 8.05 Q155.6 8.55 157.15 9.8 159.85 11.95 159.85 14.95 L159.85 25.15 Q150.85 11.8 141.85 25.15 M150.9 18.45 Q152.45 18.45 153.55 17.75 154.65 17.05 154.65 16.05 154.65 15.05 153.55 14.3 152.45 13.6 150.9 13.6 149.35 13.6 148.25 14.3 147.15 15.05 147.15 16.05 147.15 17.05 148.25 17.75 149.35 18.45 150.9 18.45" fill="#44889b" fill-rule="evenodd" stroke="none"/>
    <path d="M150.9 18.45 Q149.35 18.45 148.25 17.75 147.15 17.05 147.15 16.05 147.15 15.05 148.25 14.3 149.35 13.6 150.9 13.6 152.45 13.6 153.55 14.3 154.65 15.05 154.65 16.05 154.65 17.05 153.55 17.75 152.45 18.45 150.9 18.45" fill="#78f7f7" fill-rule="evenodd" stroke="none"/>
    <path d="M141.85 66.7 L141.85 25.15 Q150.85 11.8 159.85 25.15 L159.85 66.7 141.85 66.7 M153.95 34.0 L157.1 34.0 157.1 27.8 150.75 27.8 150.75 34.0 144.1 34.0 144.1 27.8 147.55 27.8 144.1 27.8 144.1 34.0 150.75 34.0 150.75 27.8 157.1 27.8 157.1 34.0 153.95 34.0 M147.25 42.9 L144.1 42.9 144.1 36.7 150.45 36.7 150.45 42.9 157.1 42.9 157.1 36.7 153.65 36.7 157.1 36.7 157.1 42.9 150.45 42.9 150.45 36.7 144.1 36.7 144.1 42.9 147.25 42.9 M147.25 60.6 L144.1 60.6 144.1 54.4 150.45 54.4 150.45 60.6 157.1 60.6 157.1 54.4 153.65 54.4 157.1 54.4 157.1 60.6 150.45 60.6 150.45 54.4 144.1 54.4 144.1 60.6 147.25 60.6 M153.95 51.7 L157.1 51.7 157.1 45.5 150.75 45.5 150.75 51.7 144.1 51.7 144.1 45.5 147.55 45.5 144.1 45.5 144.1 51.7 150.75 51.7 150.75 45.5 157.1 45.5 157.1 51.7 153.95 51.7" fill="url(#gradient4)" fill-rule="evenodd" stroke="none"/>
    <path d="M147.7 8.15 L147.7 4.85 Q144.25 5.35 141.6 6.9 137.85 9.15 137.85 12.3 L137.85 66.7 141.85 66.7 141.85 25.15 141.85 14.95 Q141.85 11.95 144.45 9.8 145.9 8.65 147.7 8.15 L150.85 7.7 153.6 8.05 153.6 4.8 150.85 4.65 147.7 4.85 M150.9 18.45 Q149.35 18.45 148.25 17.75 147.15 17.05 147.15 16.05 147.15 15.05 148.25 14.3 149.35 13.6 150.9 13.6 152.45 13.6 153.55 14.3 154.65 15.05 154.65 16.05 154.65 17.05 153.55 17.75 152.45 18.45 150.9 18.45 M153.6 8.05 Q155.6 8.55 157.15 9.8 159.85 11.95 159.85 14.95 L159.85 25.15 159.85 66.7 163.85 66.7 163.85 12.3 Q163.85 9.15 160.0 6.9 157.25 5.25 153.6 4.8 M147.55 45.5 L144.1 45.5 144.1 51.7 150.75 51.7 150.75 45.5 157.1 45.5 157.1 51.7 153.95 51.7 M153.65 54.4 L157.1 54.4 157.1 60.6 150.45 60.6 150.45 54.4 144.1 54.4 144.1 60.6 147.25 60.6 M159.85 66.7 L141.85 66.7 M141.85 25.15 Q150.85 11.8 159.85 25.15" fill="none" stroke="#31576d" stroke-linecap="round" stroke-linejoin="round" stroke-width="0.05"/>
    <path d="M153.65 36.7 L157.1 36.7 157.1 42.9 150.45 42.9 150.45 36.7 144.1 36.7 144.1 42.9 147.25 42.9 M147.55 27.8 L144.1 27.8 144.1 34.0 150.75 34.0 150.75 27.8 157.1 27.8 157.1 34.0 153.95 34.0" fill="none" stroke="#5f98ac" stroke-linecap="round" stroke-linejoin="round" stroke-width="0.05"/>
  </g>
  <defs>
    <radialGradient cx="0" cy="0" gradientTransform="matrix(0.0043, 0.2296, -0.4895, 0.008, 192.7, 147.0)" gradientUnits="userSpaceOnUse" id="gradient0" r="819.2" spreadMethod="pad">
      <stop offset="0.0" stop-color="#75aec0"/>
      <stop offset="0.7490196078431373" stop-color="#3e889d"/>
      <stop offset="1.0" stop-color="#29475e"/>
    </radialGradient>
    <linearGradient gradientTransform="matrix(4.0E-4, -0.0393, 1.3157, 0.0, -2344.0, 33.7)" gradientUnits="userSpaceOnUse" id="gradient1" spreadMethod="pad" x1="-819.2" x2="819.2">
      <stop offset="0.0" stop-color="#77afbf"/>
      <stop offset="1.0" stop-color="#337180"/>
    </linearGradient>
    <linearGradient gradientTransform="matrix(-1.0E-4, -0.011, 0.0294, -2.0E-4, 197.05, 42.6)" gradientUnits="userSpaceOnUse" id="gradient2" spreadMethod="pad" x1="-819.2" x2="819.2">
      <stop offset="0.0" stop-color="#5fa2b1"/>
      <stop offset="1.0" stop-color="#275661"/>
    </linearGradient>
    <linearGradient gradientTransform="matrix(-1.0E-4, -0.011, 0.0294, -2.0E-4, 241.95, 43.1)" gradientUnits="userSpaceOnUse" id="gradient3" spreadMethod="pad" x1="-819.2" x2="819.2">
      <stop offset="0.0" stop-color="#5fa2b1"/>
      <stop offset="1.0" stop-color="#275661"/>
    </linearGradient>
    <linearGradient gradientTransform="matrix(-1.0E-4, -0.011, 0.0294, -2.0E-4, 150.8, 42.6)" gradientUnits="userSpaceOnUse" id="gradient4" spreadMethod="pad" x1="-819.2" x2="819.2">
      <stop offset="0.0" stop-color="#5fa2b1"/>
      <stop offset="1.0" stop-color="#275661"/>
    </linearGradient>
  </defs>
</svg>
