<?xml version="1.0" encoding="UTF-8" standalone="no"?>
<svg xmlns:xlink="http://www.w3.org/1999/xlink" height="288.9px" width="446.7px" xmlns="http://www.w3.org/2000/svg">
  <g transform="matrix(1.0, 0.0, 0.0, 1.0, 18.05, 18.4)">
    <path d="M404.4 270.3 L404.4 252.6 404.4 73.15 -12.9 73.15 -12.9 45.95 404.55 45.95 404.55 252.6 404.55 270.3 404.4 270.3 M404.55 252.6 L404.4 252.6 404.55 252.6" fill="#4b5963" fill-rule="evenodd" stroke="none"/>
    <path d="M373.9 235.2 L378.7 252.6 404.4 252.6 378.7 252.6 373.9 235.2 M368.65 252.6 L378.7 252.6 379.1 254.1 378.7 252.6 368.65 252.6 M348.15 125.8 L391.75 125.8 348.15 125.8 325.45 125.8 348.15 125.8 343.35 111.5 348.15 125.8 M-12.9 73.15 L404.4 73.15 404.4 252.6 404.4 270.3 404.4 270.5 -12.95 270.5 -12.95 237.75 -12.95 102.8 -12.95 74.65 -12.95 73.15 -12.9 73.15 M402.75 74.65 L-12.95 74.65 402.75 74.65 M-12.95 102.8 L1.3 102.8 39.75 102.8 71.25 102.8 39.75 102.8 1.3 102.8 -4.85 115.05 1.3 102.8 -12.95 102.8 M8.75 237.75 L-12.95 237.75 8.75 237.75 13.55 221.9 8.75 237.75 24.55 237.75 8.75 237.75 M319.4 189.7 L362.4 189.7 319.4 189.7 325.45 203.5 319.4 189.7 258.95 189.7 319.4 189.7 M179.7 240.3 L184.75 240.3 179.7 240.3 119.05 240.3 111.55 240.3 119.05 240.3 179.7 240.3 180.15 220.9 179.7 240.3 M115.6 256.15 L119.05 240.3 115.6 256.15 M39.75 102.8 L47.0 93.05 39.75 102.8 M116.55 150.85 L75.3 150.85 51.05 150.85 75.3 150.85 80.4 139.6 75.3 150.85 116.55 150.85 115.6 148.3 116.55 150.85 124.7 150.85 116.55 150.85 M120.25 166.2 L124.7 150.85 143.3 150.85 124.7 150.85 120.25 166.2 M252.25 88.45 L255.15 101.75 252.25 88.45 222.1 88.45 221.15 77.2 222.1 88.45 252.25 88.45 297.8 88.45 252.25 88.45 M314.1 182.55 L313.6 183.15 312.75 183.85 Q311.55 184.5 311.4 185.55 L311.9 186.25 Q312.65 189.0 309.45 189.2 312.65 189.0 311.9 186.25 L311.4 185.55 Q311.55 184.5 312.75 183.85 L313.6 183.15 314.1 182.55 M255.7 175.9 L258.95 189.7 227.45 189.7 258.95 189.7 255.7 175.9 M193.45 88.45 L222.1 88.45 193.45 88.45 M285.1 79.75 L286.25 87.95 285.1 79.75" fill="url(#gradient0)" fill-rule="evenodd" stroke="none"/>
    <path d="M325.45 125.8 L348.15 125.8 343.35 111.5 M391.75 125.8 L348.15 125.8 M379.1 254.1 L378.7 252.6 368.65 252.6 M404.4 252.6 L378.7 252.6 373.9 235.2 M-12.95 74.65 L402.75 74.65 M404.4 252.6 L404.55 252.6 428.15 252.6 M286.25 87.95 L285.1 79.75 M221.15 77.2 L222.1 88.45 252.25 88.45 297.8 88.45 M222.1 88.45 L193.45 88.45 M227.45 189.7 L258.95 189.7 255.7 175.9 M309.45 189.2 Q312.65 189.0 311.9 186.25 L311.4 185.55 Q311.55 184.5 312.75 183.85 L313.6 183.15 314.1 182.55 M325.45 203.5 L319.4 189.7 258.95 189.7 M255.15 101.75 L252.25 88.45 M71.25 102.8 L39.75 102.8 1.3 102.8 -4.85 115.05 M51.05 150.85 L75.3 150.85 80.4 139.6 M143.3 150.85 L124.7 150.85 120.25 166.2 M115.6 148.3 L116.55 150.85 124.7 150.85 M75.3 150.85 L116.55 150.85 M47.0 93.05 L39.75 102.8 M111.55 240.3 L119.05 240.3 179.7 240.3 180.15 220.9 M119.05 240.3 L115.6 256.15 M13.55 221.9 L8.75 237.75 24.55 237.75 M184.75 240.3 L179.7 240.3 M362.4 189.7 L319.4 189.7 M-12.95 237.75 L8.75 237.75 M1.3 102.8 L-12.95 102.8" fill="none" stroke="#3a3434" stroke-linecap="round" stroke-linejoin="round" stroke-width="1.0"/>
    <path d="M-12.95 48.6 L-12.95 -1.55 404.4 -1.55 404.4 48.6 -12.95 48.6" fill="url(#gradient1)" fill-rule="evenodd" stroke="none"/>
    <path d="M35.1 52.15 Q34.2 52.9 32.15 52.8 L25.3 52.45 24.05 52.3 22.35 52.05 Q19.9 51.85 17.85 52.8 13.9 54.65 10.2 52.8 L8.5 52.35 Q6.55 52.15 4.5 52.35 L3.25 52.5 1.15 53.0 -0.15 53.3 Q-1.8 53.5 -2.4 52.15 L-3.0 51.6 Q-6.25 51.2 -8.8 52.7 -6.25 51.2 -3.0 51.6 L-2.4 52.15 Q-1.8 53.5 -0.15 53.3 L1.15 53.0 3.25 52.5 4.5 52.35 Q6.55 52.15 8.5 52.35 L10.2 52.8 Q13.9 54.65 17.85 52.8 19.9 51.85 22.35 52.05 L24.05 52.3 25.3 52.45 32.15 52.8 Q34.2 52.9 35.1 52.15 M404.4 48.6 L404.4 73.15 -12.95 73.15 -12.95 48.6 404.4 48.6 M85.8 65.95 L85.15 66.45 84.0 66.85 Q80.5 67.35 77.65 66.05 75.45 65.0 72.5 65.25 L67.9 65.65 Q67.35 65.7 66.9 66.1 65.35 67.7 63.95 66.45 L62.65 65.7 Q57.45 63.5 51.65 64.85 L50.7 65.15 Q49.2 65.8 47.75 65.95 49.2 65.8 50.7 65.15 L51.65 64.85 Q57.45 63.5 62.65 65.7 L63.95 66.45 Q65.35 67.7 66.9 66.1 67.35 65.7 67.9 65.65 L72.5 65.25 Q75.45 65.0 77.65 66.05 80.5 67.35 84.0 66.85 L85.15 66.45 85.8 65.95 M178.6 55.25 L172.25 56.0 169.4 56.15 161.95 55.6 161.35 55.55 152.65 55.8 151.7 55.5 149.8 54.2 Q149.25 53.7 148.5 53.5 146.7 52.95 145.1 53.55 144.6 53.7 144.2 53.95 142.25 55.2 140.0 55.75 142.25 55.2 144.2 53.95 144.6 53.7 145.1 53.55 146.7 52.95 148.5 53.5 149.25 53.7 149.8 54.2 L151.7 55.5 152.65 55.8 161.35 55.55 161.95 55.6 169.4 56.15 172.25 56.0 178.6 55.25 M228.2 64.95 L223.6 66.05 222.4 66.25 213.75 66.5 212.65 66.65 Q210.1 67.6 208.0 65.95 L207.4 65.65 Q205.85 65.35 204.65 66.1 L202.25 67.45 Q199.35 68.8 197.65 67.0 L197.15 66.8 Q195.35 66.95 194.0 67.9 192.7 68.8 193.55 68.55 192.7 68.8 194.0 67.9 195.35 66.95 197.15 66.8 L197.65 67.0 Q199.35 68.8 202.25 67.45 L204.65 66.1 Q205.85 65.35 207.4 65.65 L208.0 65.95 Q210.1 67.6 212.65 66.65 L213.75 66.5 222.4 66.25 223.6 66.05 228.2 64.95 M302.55 54.2 L300.2 54.35 298.5 54.5 291.55 54.7 290.9 54.9 Q290.5 55.55 289.25 55.4 L287.05 55.05 285.8 54.85 284.9 54.45 Q283.65 53.55 281.2 53.8 L278.95 54.3 273.8 54.5 273.2 54.45 Q271.95 54.4 271.25 55.1 270.1 56.1 270.2 55.75 270.1 56.1 271.25 55.1 271.95 54.4 273.2 54.45 L273.8 54.5 278.95 54.3 281.2 53.8 Q283.65 53.55 284.9 54.45 L285.8 54.85 287.05 55.05 289.25 55.4 Q290.5 55.55 290.9 54.9 L291.55 54.7 298.5 54.5 300.2 54.35 302.55 54.2 M395.35 68.0 L394.15 68.0 393.15 68.2 Q390.2 69.6 385.55 69.5 L382.75 68.95 382.05 68.8 367.1 70.05 382.05 68.8 382.75 68.95 385.55 69.5 Q390.2 69.6 393.15 68.2 L394.15 68.0 395.35 68.0 M334.85 62.4 L330.2 62.15 329.05 62.35 322.1 62.55 321.2 62.15 Q319.9 61.2 318.0 62.35 L316.95 62.65 Q308.55 62.65 300.2 63.95 308.55 62.65 316.95 62.65 L318.0 62.35 Q319.9 61.2 321.2 62.15 L322.1 62.55 329.05 62.35 330.2 62.15 334.85 62.4 M380.95 65.45 Q379.75 66.75 376.85 67.1 373.2 67.55 370.65 65.9 L369.95 65.65 Q367.85 65.3 366.3 66.85 365.95 67.25 365.3 67.35 362.25 68.0 361.25 66.55 L360.7 66.15 Q357.75 65.6 356.7 68.0 357.75 65.6 360.7 66.15 L361.25 66.55 Q362.25 68.0 365.3 67.35 365.95 67.25 366.3 66.85 367.85 65.3 369.95 65.65 L370.65 65.9 Q373.2 67.55 376.85 67.1 379.75 66.75 380.95 65.45" fill="url(#gradient2)" fill-rule="evenodd" stroke="none"/>
    <path d="M-8.8 52.7 Q-6.25 51.2 -3.0 51.6 L-2.4 52.15 Q-1.8 53.5 -0.15 53.3 L1.15 53.0 3.25 52.5 4.5 52.35 Q6.55 52.15 8.5 52.35 L10.2 52.8 Q13.9 54.65 17.85 52.8 19.9 51.85 22.35 52.05 L24.05 52.3 25.3 52.45 32.15 52.8 Q34.2 52.9 35.1 52.15 M356.7 68.0 Q357.75 65.6 360.7 66.15 L361.25 66.55 Q362.25 68.0 365.3 67.35 365.95 67.25 366.3 66.85 367.85 65.3 369.95 65.65 L370.65 65.9 Q373.2 67.55 376.85 67.1 379.75 66.75 380.95 65.45 M300.2 63.95 Q308.55 62.65 316.95 62.65 L318.0 62.35 Q319.9 61.2 321.2 62.15 L322.1 62.55 329.05 62.35 330.2 62.15 334.85 62.4 M367.1 70.05 L382.05 68.8 382.75 68.95 385.55 69.5 Q390.2 69.6 393.15 68.2 L394.15 68.0 395.35 68.0 M270.2 55.75 Q270.1 56.1 271.25 55.1 271.95 54.4 273.2 54.45 L273.8 54.5 278.95 54.3 281.2 53.8 Q283.65 53.55 284.9 54.45 L285.8 54.85 287.05 55.05 289.25 55.4 Q290.5 55.55 290.9 54.9 L291.55 54.7 298.5 54.5 300.2 54.35 302.55 54.2 M193.55 68.55 Q192.7 68.8 194.0 67.9 195.35 66.95 197.15 66.8 L197.65 67.0 Q199.35 68.8 202.25 67.45 L204.65 66.1 Q205.85 65.35 207.4 65.65 L208.0 65.95 Q210.1 67.6 212.65 66.65 L213.75 66.5 222.4 66.25 223.6 66.05 228.2 64.95 M140.0 55.75 Q142.25 55.2 144.2 53.95 144.6 53.7 145.1 53.55 146.7 52.95 148.5 53.5 149.25 53.7 149.8 54.2 L151.7 55.5 152.65 55.8 161.35 55.55 161.95 55.6 169.4 56.15 172.25 56.0 178.6 55.25 M47.75 65.95 Q49.2 65.8 50.7 65.15 L51.65 64.85 Q57.45 63.5 62.65 65.7 L63.95 66.45 Q65.35 67.7 66.9 66.1 67.35 65.7 67.9 65.65 L72.5 65.25 Q75.45 65.0 77.65 66.05 80.5 67.35 84.0 66.85 L85.15 66.45 85.8 65.95" fill="none" stroke="#e6c7b3" stroke-linecap="round" stroke-linejoin="round" stroke-opacity="0.3529412" stroke-width="1.0"/>
    <path d="M355.9 48.6 L357.9 48.35 359.7 48.45 361.55 48.5 363.9 48.4 365.9 48.55 367.7 48.65 369.9 48.6 M371.1 48.6 L372.95 48.4 Q373.65 48.2 374.8 48.4 L377.1 48.55 379.2 48.35 Q380.15 48.3 381.1 48.7 L383.15 49.05 385.1 48.6 M386.4 48.6 L388.25 48.6 390.4 48.6 392.65 48.6 394.7 48.75 396.3 48.7 398.0 48.5 400.15 48.75 402.4 48.6 M403.7 48.6 Q403.95 48.15 404.4 48.6 M323.3 48.6 L325.3 48.65 327.2 48.65 328.9 48.75 331.0 48.75 333.15 48.65 335.5 48.75 337.3 48.6 M338.6 48.6 L340.6 48.55 342.6 48.5 344.6 48.55 346.75 48.85 348.6 48.75 Q349.25 48.4 350.25 48.4 L352.25 48.5 354.6 48.6 M290.9 48.6 L293.05 48.7 294.9 48.65 296.9 48.55 298.7 48.55 300.85 48.25 302.8 48.4 304.6 48.55 306.9 48.6 M277.7 48.6 L279.95 48.45 281.8 48.5 283.7 48.45 285.9 48.6 287.95 48.7 289.7 48.6 M308.1 48.6 L309.7 48.5 311.75 48.65 313.9 48.75 316.1 48.7 318.05 48.6 320.0 48.4 322.1 48.6 M245.1 48.6 L247.25 48.55 249.25 48.55 251.1 48.45 253.0 48.4 255.1 48.55 257.45 48.6 259.1 48.6 M260.4 48.6 L262.4 48.6 264.3 48.65 266.35 48.4 268.1 48.65 270.35 48.9 272.75 48.85 274.65 48.8 276.4 48.6 M193.3 48.6 L195.45 48.8 197.4 48.65 199.2 48.55 201.15 48.5 203.15 48.55 205.55 48.35 207.65 48.25 209.3 48.6 M210.6 48.6 Q211.8 48.4 212.9 48.6 L214.75 48.7 216.55 48.75 218.6 48.55 220.6 48.2 222.35 48.25 224.25 48.45 226.7 48.55 228.6 48.6 M229.9 48.6 L231.9 48.6 233.9 48.55 235.8 48.55 237.85 48.6 239.95 48.7 241.8 48.45 243.9 48.6 M158.7 48.6 L160.7 48.75 162.8 48.4 Q163.95 48.2 164.8 48.4 L166.7 48.5 168.7 48.55 170.6 48.6 172.6 48.5 174.65 48.55 176.7 48.6 M178.0 48.6 L179.85 48.15 181.7 48.35 183.85 48.75 186.0 48.6 187.95 48.45 189.95 48.5 192.0 48.6 M111.0 48.6 L113.0 48.65 115.1 48.55 117.25 48.45 119.2 48.6 121.15 48.65 122.95 48.35 124.9 48.45 127.0 48.7 129.0 48.6 M130.2 48.6 L132.3 48.8 134.35 48.8 136.1 48.55 138.2 48.3 140.35 48.45 142.4 48.55 Q143.4 48.35 144.25 48.55 L146.2 48.6 M147.4 48.6 L149.6 49.0 151.3 48.8 153.25 48.55 155.2 48.65 157.4 48.6 M72.6 48.6 L74.5 48.8 76.4 48.85 Q77.55 49.05 78.35 48.85 L80.3 48.45 82.5 48.3 84.5 48.55 86.4 48.5 88.2 48.55 90.6 48.6 M91.8 48.6 L93.6 48.7 95.5 48.7 97.5 48.65 99.65 48.55 101.9 48.55 103.6 48.55 105.55 48.55 107.95 48.55 109.8 48.6 M30.85 48.6 L32.9 48.55 35.1 48.6 37.05 48.65 38.95 48.85 Q40.05 49.1 41.0 48.85 41.95 48.6 42.85 48.85 L44.7 48.8 46.85 48.6 M48.05 48.6 L50.1 48.3 52.05 48.5 54.1 48.7 56.0 48.5 58.05 48.6 M59.35 48.6 Q60.35 48.85 61.4 48.6 L63.55 48.5 65.45 48.6 67.4 48.65 69.3 48.85 71.35 48.6 M2.25 48.6 L4.25 48.4 6.55 48.5 8.2 48.35 10.05 48.5 12.25 48.6 M13.55 48.6 L15.7 48.45 17.5 48.7 19.4 48.7 21.5 48.6 23.4 48.7 Q24.3 48.9 25.6 48.7 L27.7 48.55 29.55 48.6 M-12.95 48.6 L-11.15 48.45 -9.1 48.4 -6.85 48.4 -4.95 48.5 -3.0 48.65 -1.0 48.45 1.05 48.6" fill="none" stroke="#e6c7b3" stroke-linecap="round" stroke-linejoin="round" stroke-opacity="0.3529412" stroke-width="1.0"/>
    <path d="M25.05 -14.7 L29.1 -14.7 25.05 -11.1 25.05 -14.7 M47.2 -14.7 L51.25 -14.7 51.25 -11.1 47.2 -14.7 M51.25 43.35 L47.2 43.35 51.25 39.75 51.25 43.35 M29.1 43.35 L25.05 43.35 25.05 39.75 29.1 43.35" fill="#bfaa9d" fill-rule="evenodd" stroke="none"/>
    <path d="M24.7 -4.05 L38.15 -15.3 52.1 -4.05 38.15 2.8 24.7 -4.05" fill="#c1afa0" fill-rule="evenodd" stroke="none"/>
    <path d="M24.7 32.45 L24.35 32.2 24.35 17.45 24.35 10.95 24.35 -3.8 24.7 -4.05 38.15 2.8 38.15 10.95 38.15 17.45 38.15 25.6 24.7 32.45" fill="#9f918a" fill-rule="evenodd" stroke="none"/>
    <path d="M52.1 -4.05 L52.45 -3.8 52.45 10.95 52.45 17.45 52.45 32.2 52.1 32.45 38.15 25.6 38.15 17.45 38.15 10.95 38.15 2.8 52.1 -4.05" fill="#797675" fill-rule="evenodd" stroke="none"/>
    <path d="M52.1 32.45 L38.15 43.7 24.7 32.45 38.15 25.6 52.1 32.45" fill="#41382d" fill-rule="evenodd" stroke="none"/>
    <path d="M25.05 -14.7 L25.05 -11.1 29.1 -14.7 25.05 -14.7 M34.15 -16.35 L22.7 -6.15 22.7 -16.35 34.15 -16.35 M53.6 -16.35 L53.6 -6.15 42.15 -16.35 53.6 -16.35 M47.2 -14.7 L51.25 -11.1 51.25 -14.7 47.2 -14.7 M51.25 43.35 L51.25 39.75 47.2 43.35 51.25 43.35 M42.15 45.0 L53.6 34.8 53.6 45.0 42.15 45.0 M29.1 43.35 L25.05 39.75 25.05 43.35 29.1 43.35 M22.7 34.8 L34.15 45.0 22.7 45.0 22.7 34.8" fill="#3f3533" fill-rule="evenodd" stroke="none"/>
    <path d="M34.15 -16.35 L22.7 -16.35 22.7 -6.15 34.15 -16.35 M52.1 -4.05 L38.15 -15.3 24.7 -4.05 24.35 -3.8 24.35 10.95 24.35 17.45 24.35 32.2 24.7 32.45 38.15 43.7 52.1 32.45 52.45 32.2 52.45 17.45 52.45 10.95 52.45 -3.8 52.1 -4.05 M53.6 -16.35 L42.15 -16.35 53.6 -6.15 53.6 -16.35 M55.6 -17.9 L55.6 46.1 21.2 46.1 21.2 -17.9 55.6 -17.9 M42.15 45.0 L53.6 45.0 53.6 34.8 42.15 45.0 M22.7 34.8 L22.7 45.0 34.15 45.0 22.7 34.8" fill="#675754" fill-rule="evenodd" stroke="none"/>
    <path d="M24.7 -4.05 L38.15 -15.3 52.1 -4.05 52.45 -3.8 52.45 10.95 52.45 17.45 52.45 32.2 52.1 32.45 38.15 43.7 24.7 32.45 24.35 32.2 24.35 17.45 24.35 10.95 24.35 -3.8 24.7 -4.05 38.15 2.8 52.1 -4.05 M38.15 2.8 L38.15 10.95 38.15 17.45 38.15 25.6 52.1 32.45 M38.15 25.6 L24.7 32.45" fill="none" stroke="#bbbbbb" stroke-linecap="round" stroke-linejoin="round" stroke-width="1.0"/>
    <path d="M64.3 -14.7 L68.35 -14.7 64.3 -11.1 64.3 -14.7 M90.5 -14.7 L90.5 -11.1 86.45 -14.7 90.5 -14.7 M90.5 39.75 L90.5 43.35 86.45 43.35 90.5 39.75 M64.3 39.75 L68.35 43.35 64.3 43.35 64.3 39.75" fill="#bfaa9d" fill-rule="evenodd" stroke="none"/>
    <path d="M63.95 -4.05 L77.4 -15.3 91.35 -4.05 77.4 2.8 63.95 -4.05" fill="#c1afa0" fill-rule="evenodd" stroke="none"/>
    <path d="M63.95 32.45 L63.6 32.2 63.6 17.45 63.6 10.95 63.6 -3.8 63.95 -4.05 77.4 2.8 77.4 10.95 77.4 17.45 77.4 25.6 63.95 32.45" fill="#9f918a" fill-rule="evenodd" stroke="none"/>
    <path d="M91.35 -4.05 L91.7 -3.8 91.7 10.95 91.7 17.45 91.7 32.2 91.35 32.45 77.4 25.6 77.4 17.45 77.4 10.95 77.4 2.8 91.35 -4.05" fill="#797675" fill-rule="evenodd" stroke="none"/>
    <path d="M91.35 32.45 L77.4 43.7 63.95 32.45 77.4 25.6 91.35 32.45" fill="#41382d" fill-rule="evenodd" stroke="none"/>
    <path d="M73.4 -16.35 L61.95 -6.15 61.95 -16.35 73.4 -16.35 M64.3 -14.7 L64.3 -11.1 68.35 -14.7 64.3 -14.7 M81.4 -16.35 L92.85 -16.35 92.85 -6.15 81.4 -16.35 M90.5 -14.7 L86.45 -14.7 90.5 -11.1 90.5 -14.7 M90.5 39.75 L86.45 43.35 90.5 43.35 90.5 39.75 M92.85 45.0 L81.4 45.0 92.85 34.8 92.85 45.0 M64.3 39.75 L64.3 43.35 68.35 43.35 64.3 39.75 M61.95 34.8 L73.4 45.0 61.95 45.0 61.95 34.8" fill="#3f3533" fill-rule="evenodd" stroke="none"/>
    <path d="M73.4 -16.35 L61.95 -16.35 61.95 -6.15 73.4 -16.35 M91.35 -4.05 L77.4 -15.3 63.95 -4.05 63.6 -3.8 63.6 10.95 63.6 17.45 63.6 32.2 63.95 32.45 77.4 43.7 91.35 32.45 91.7 32.2 91.7 17.45 91.7 10.95 91.7 -3.8 91.35 -4.05 M81.4 -16.35 L92.85 -6.15 92.85 -16.35 81.4 -16.35 M94.85 -17.9 L94.85 46.1 60.45 46.1 60.45 -17.9 94.85 -17.9 M92.85 45.0 L92.85 34.8 81.4 45.0 92.85 45.0 M61.95 34.8 L61.95 45.0 73.4 45.0 61.95 34.8" fill="#675754" fill-rule="evenodd" stroke="none"/>
    <path d="M63.95 -4.05 L77.4 -15.3 91.35 -4.05 91.7 -3.8 91.7 10.95 91.7 17.45 91.7 32.2 91.35 32.45 77.4 43.7 63.95 32.45 63.6 32.2 63.6 17.45 63.6 10.95 63.6 -3.8 63.95 -4.05 77.4 2.8 91.35 -4.05 M77.4 2.8 L77.4 10.95 77.4 17.45 77.4 25.6 91.35 32.45 M77.4 25.6 L63.95 32.45" fill="none" stroke="#bbbbbb" stroke-linecap="round" stroke-linejoin="round" stroke-width="1.0"/>
    <path d="M142.8 -14.7 L146.85 -14.7 142.8 -11.1 142.8 -14.7 M169.0 -14.7 L169.0 -11.1 164.95 -14.7 169.0 -14.7 M169.0 39.75 L169.0 43.35 164.95 43.35 169.0 39.75 M142.8 43.35 L142.8 39.75 146.85 43.35 142.8 43.35" fill="#bfaa9d" fill-rule="evenodd" stroke="none"/>
    <path d="M142.45 -4.05 L155.9 -15.3 169.85 -4.05 155.9 2.8 142.45 -4.05" fill="#c1afa0" fill-rule="evenodd" stroke="none"/>
    <path d="M142.45 32.45 L142.1 32.2 142.1 17.45 142.1 10.95 142.1 -3.8 142.45 -4.05 155.9 2.8 155.9 10.95 155.9 17.45 155.9 25.6 142.45 32.45" fill="#9f918a" fill-rule="evenodd" stroke="none"/>
    <path d="M169.85 -4.05 L170.2 -3.8 170.2 10.95 170.2 17.45 170.2 32.2 169.85 32.45 155.9 25.6 155.9 17.45 155.9 10.95 155.9 2.8 169.85 -4.05" fill="#797675" fill-rule="evenodd" stroke="none"/>
    <path d="M169.85 32.45 L155.9 43.7 142.45 32.45 155.9 25.6 169.85 32.45" fill="#41382d" fill-rule="evenodd" stroke="none"/>
    <path d="M151.9 -16.35 L140.45 -16.35 140.45 -6.15 151.9 -16.35 M169.85 -4.05 L155.9 -15.3 142.45 -4.05 142.1 -3.8 142.1 10.95 142.1 17.45 142.1 32.2 142.45 32.45 155.9 43.7 169.85 32.45 170.2 32.2 170.2 17.45 170.2 10.95 170.2 -3.8 169.85 -4.05 M171.35 -6.15 L171.35 -16.35 159.9 -16.35 171.35 -6.15 M173.35 -17.9 L173.35 46.1 138.95 46.1 138.95 -17.9 173.35 -17.9 M171.35 34.8 L159.9 45.0 171.35 45.0 171.35 34.8 M140.45 34.8 L140.45 45.0 151.9 45.0 140.45 34.8" fill="#675754" fill-rule="evenodd" stroke="none"/>
    <path d="M142.8 -14.7 L142.8 -11.1 146.85 -14.7 142.8 -14.7 M151.9 -16.35 L140.45 -6.15 140.45 -16.35 151.9 -16.35 M169.0 -14.7 L164.95 -14.7 169.0 -11.1 169.0 -14.7 M171.35 -6.15 L159.9 -16.35 171.35 -16.35 171.35 -6.15 M171.35 34.8 L171.35 45.0 159.9 45.0 171.35 34.8 M169.0 39.75 L164.95 43.35 169.0 43.35 169.0 39.75 M140.45 34.8 L151.9 45.0 140.45 45.0 140.45 34.8 M142.8 43.35 L146.85 43.35 142.8 39.75 142.8 43.35" fill="#3f3533" fill-rule="evenodd" stroke="none"/>
    <path d="M142.45 -4.05 L155.9 -15.3 169.85 -4.05 170.2 -3.8 170.2 10.95 170.2 17.45 170.2 32.2 169.85 32.45 155.9 43.7 142.45 32.45 142.1 32.2 142.1 17.45 142.1 10.95 142.1 -3.8 142.45 -4.05 155.9 2.8 169.85 -4.05 M155.9 2.8 L155.9 10.95 155.9 17.45 155.9 25.6 169.85 32.45 M155.9 25.6 L142.45 32.45" fill="none" stroke="#bbbbbb" stroke-linecap="round" stroke-linejoin="round" stroke-width="1.0"/>
    <path d="M221.3 -14.8 L225.35 -14.8 221.3 -11.2 221.3 -14.8 M247.5 -14.8 L247.5 -11.2 243.45 -14.8 247.5 -14.8 M243.45 43.25 L247.5 39.65 247.5 43.25 243.45 43.25 M221.3 39.65 L225.35 43.25 221.3 43.25 221.3 39.65" fill="#bfaa9d" fill-rule="evenodd" stroke="none"/>
    <path d="M220.95 -4.15 L234.4 -15.4 248.35 -4.15 234.4 2.7 Q227.7 -0.7 220.95 -4.15" fill="#c1afa0" fill-rule="evenodd" stroke="none"/>
    <path d="M220.95 32.35 L220.6 32.1 220.6 17.35 220.6 10.85 220.6 -3.9 220.95 -4.15 Q227.7 -0.7 234.4 2.7 L234.4 10.85 234.4 17.35 234.4 25.5 Q227.7 28.95 220.95 32.35" fill="#9f918a" fill-rule="evenodd" stroke="none"/>
    <path d="M248.35 -4.15 L248.7 -3.9 248.7 10.85 248.7 17.35 248.7 32.1 248.35 32.35 234.4 25.5 234.4 17.35 234.4 10.85 234.4 2.7 248.35 -4.15" fill="#797675" fill-rule="evenodd" stroke="none"/>
    <path d="M248.35 32.35 L234.4 43.6 220.95 32.35 Q227.7 28.95 234.4 25.5 L248.35 32.35" fill="#41382d" fill-rule="evenodd" stroke="none"/>
    <path d="M230.4 -16.45 L218.95 -6.25 218.95 -16.45 230.4 -16.45 M221.3 -14.8 L221.3 -11.2 225.35 -14.8 221.3 -14.8 M249.85 -6.25 L238.4 -16.45 249.85 -16.45 249.85 -6.25 M247.5 -14.8 L243.45 -14.8 247.5 -11.2 247.5 -14.8 M249.85 34.7 L249.85 44.9 238.4 44.9 249.85 34.7 M243.45 43.25 L247.5 43.25 247.5 39.65 243.45 43.25 M221.3 39.65 L221.3 43.25 225.35 43.25 221.3 39.65 M218.95 34.7 L230.4 44.9 218.95 44.9 218.95 34.7" fill="#3f3533" fill-rule="evenodd" stroke="none"/>
    <path d="M230.4 -16.45 L218.95 -16.45 218.95 -6.25 230.4 -16.45 M248.35 -4.15 L234.4 -15.4 220.95 -4.15 220.6 -3.9 220.6 10.85 220.6 17.35 220.6 32.1 220.95 32.35 234.4 43.6 248.35 32.35 248.7 32.1 248.7 17.35 248.7 10.85 248.7 -3.9 248.35 -4.15 M249.85 -6.25 L249.85 -16.45 238.4 -16.45 249.85 -6.25 M251.85 -18.0 L251.85 46.0 217.45 46.0 217.45 -18.0 251.85 -18.0 M249.85 34.7 L238.4 44.9 249.85 44.9 249.85 34.7 M218.95 34.7 L218.95 44.9 230.4 44.9 218.95 34.7" fill="#675754" fill-rule="evenodd" stroke="none"/>
    <path d="M220.95 -4.15 L234.4 -15.4 248.35 -4.15 248.7 -3.9 248.7 10.85 248.7 17.35 248.7 32.1 248.35 32.35 234.4 43.6 220.95 32.35 220.6 32.1 220.6 17.35 220.6 10.85 220.6 -3.9 220.95 -4.15 Q227.7 -0.7 234.4 2.7 L248.35 -4.15 M234.4 2.7 L234.4 10.85 234.4 17.35 234.4 25.5 248.35 32.35 M234.4 25.5 Q227.7 28.95 220.95 32.35" fill="none" stroke="#bbbbbb" stroke-linecap="round" stroke-linejoin="round" stroke-width="1.0"/>
    <path d="M300.05 -14.8 L304.1 -14.8 300.05 -11.2 300.05 -14.8 M326.25 -11.2 L322.2 -14.8 326.25 -14.8 326.25 -11.2 M326.25 39.65 L326.25 43.25 322.2 43.25 326.25 39.65 M300.05 39.65 L304.1 43.25 300.05 43.25 300.05 39.65" fill="#bfaa9d" fill-rule="evenodd" stroke="none"/>
    <path d="M299.7 -4.15 L313.15 -15.4 327.1 -4.15 313.15 2.7 299.7 -4.15" fill="#c1afa0" fill-rule="evenodd" stroke="none"/>
    <path d="M299.7 32.35 L299.35 32.1 299.35 17.35 299.35 10.85 299.35 -3.9 299.7 -4.15 313.15 2.7 313.15 10.85 313.15 17.35 313.15 25.5 299.7 32.35" fill="#9f918a" fill-rule="evenodd" stroke="none"/>
    <path d="M327.1 -4.15 L327.45 -3.9 327.45 10.85 327.45 17.35 327.45 32.1 327.1 32.35 313.15 25.5 313.15 17.35 313.15 10.85 313.15 2.7 327.1 -4.15" fill="#797675" fill-rule="evenodd" stroke="none"/>
    <path d="M327.1 32.35 L313.15 43.6 299.7 32.35 313.15 25.5 327.1 32.35" fill="#41382d" fill-rule="evenodd" stroke="none"/>
    <path d="M300.05 -14.8 L300.05 -11.2 304.1 -14.8 300.05 -14.8 M309.15 -16.45 L297.7 -6.25 297.7 -16.45 309.15 -16.45 M326.25 -11.2 L326.25 -14.8 322.2 -14.8 326.25 -11.2 M328.6 -6.25 L317.15 -16.45 328.6 -16.45 328.6 -6.25 M328.6 34.7 L328.6 44.9 317.15 44.9 328.6 34.7 M326.25 39.65 L322.2 43.25 326.25 43.25 326.25 39.65 M300.05 39.65 L300.05 43.25 304.1 43.25 300.05 39.65 M297.7 34.7 L309.15 44.9 297.7 44.9 297.7 34.7" fill="#3f3533" fill-rule="evenodd" stroke="none"/>
    <path d="M309.15 -16.45 L297.7 -16.45 297.7 -6.25 309.15 -16.45 M327.1 -4.15 L313.15 -15.4 299.7 -4.15 299.35 -3.9 299.35 10.85 299.35 17.35 299.35 32.1 299.7 32.35 313.15 43.6 327.1 32.35 327.45 32.1 327.45 17.35 327.45 10.85 327.45 -3.9 327.1 -4.15 M328.6 -6.25 L328.6 -16.45 317.15 -16.45 328.6 -6.25 M330.6 -18.0 L330.6 46.0 296.2 46.0 296.2 -18.0 330.6 -18.0 M328.6 34.7 L317.15 44.9 328.6 44.9 328.6 34.7 M297.7 34.7 L297.7 44.9 309.15 44.9 297.7 34.7" fill="#675754" fill-rule="evenodd" stroke="none"/>
    <path d="M299.7 -4.15 L313.15 -15.4 327.1 -4.15 327.45 -3.9 327.45 10.85 327.45 17.35 327.45 32.1 327.1 32.35 313.15 43.6 299.7 32.35 299.35 32.1 299.35 17.35 299.35 10.85 299.35 -3.9 299.7 -4.15 313.15 2.7 327.1 -4.15 M313.15 2.7 L313.15 10.85 313.15 17.35 313.15 25.5 327.1 32.35 M313.15 25.5 L299.7 32.35" fill="none" stroke="#bbbbbb" stroke-linecap="round" stroke-linejoin="round" stroke-width="1.0"/>
    <path d="M343.1 -14.8 L339.05 -11.2 339.05 -14.8 343.1 -14.8 M365.25 -11.2 L361.2 -14.8 365.25 -14.8 365.25 -11.2 M365.25 39.65 L365.25 43.25 361.2 43.25 365.25 39.65 M339.05 39.65 L343.1 43.25 339.05 43.25 339.05 39.65" fill="#bfaa9d" fill-rule="evenodd" stroke="none"/>
    <path d="M338.7 -4.15 L352.15 -15.4 366.1 -4.15 352.15 2.7 338.7 -4.15" fill="#c1afa0" fill-rule="evenodd" stroke="none"/>
    <path d="M338.7 32.35 L338.35 32.1 338.35 17.35 338.35 10.85 338.35 -3.9 338.7 -4.15 352.15 2.7 352.15 10.85 352.15 17.35 352.15 25.5 338.7 32.35" fill="#9f918a" fill-rule="evenodd" stroke="none"/>
    <path d="M366.1 -4.15 L366.45 -3.9 366.45 10.85 366.45 17.35 366.45 32.1 366.1 32.35 352.15 25.5 352.15 17.35 352.15 10.85 352.15 2.7 366.1 -4.15" fill="#797675" fill-rule="evenodd" stroke="none"/>
    <path d="M366.1 32.35 L352.15 43.6 338.7 32.35 352.15 25.5 366.1 32.35" fill="#41382d" fill-rule="evenodd" stroke="none"/>
    <path d="M343.1 -14.8 L339.05 -14.8 339.05 -11.2 343.1 -14.8 M336.7 -6.25 L336.7 -16.45 348.15 -16.45 336.7 -6.25 M365.25 -11.2 L365.25 -14.8 361.2 -14.8 365.25 -11.2 M367.6 -6.25 L356.15 -16.45 367.6 -16.45 367.6 -6.25 M365.25 39.65 L361.2 43.25 365.25 43.25 365.25 39.65 M367.6 34.7 L367.6 44.9 356.15 44.9 367.6 34.7 M339.05 39.65 L339.05 43.25 343.1 43.25 339.05 39.65 M336.7 34.7 L348.15 44.9 336.7 44.9 336.7 34.7" fill="#3f3533" fill-rule="evenodd" stroke="none"/>
    <path d="M336.7 -6.25 L348.15 -16.45 336.7 -16.45 336.7 -6.25 M366.1 -4.15 L352.15 -15.4 338.7 -4.15 338.35 -3.9 338.35 10.85 338.35 17.35 338.35 32.1 338.7 32.35 352.15 43.6 366.1 32.35 366.45 32.1 366.45 17.35 366.45 10.85 366.45 -3.9 366.1 -4.15 M367.6 -6.25 L367.6 -16.45 356.15 -16.45 367.6 -6.25 M369.6 -18.0 L369.6 46.0 335.2 46.0 335.2 -18.0 369.6 -18.0 M367.6 34.7 L356.15 44.9 367.6 44.9 367.6 34.7 M336.7 34.7 L336.7 44.9 348.15 44.9 336.7 34.7" fill="#675754" fill-rule="evenodd" stroke="none"/>
    <path d="M338.7 -4.15 L352.15 -15.4 366.1 -4.15 366.45 -3.9 366.45 10.85 366.45 17.35 366.45 32.1 366.1 32.35 352.15 43.6 338.7 32.35 338.35 32.1 338.35 17.35 338.35 10.85 338.35 -3.9 338.7 -4.15 352.15 2.7 366.1 -4.15 M352.15 2.7 L352.15 10.85 352.15 17.35 352.15 25.5 366.1 32.35 M352.15 25.5 L338.7 32.35" fill="none" stroke="#bbbbbb" stroke-linecap="round" stroke-linejoin="round" stroke-width="1.0"/>
    <path d="M378.0 32.3 L377.65 32.05 377.65 17.3 377.65 10.8 377.65 -3.95 378.0 -4.2 391.45 2.65 391.45 10.8 391.45 17.3 391.45 25.45 378.0 32.3" fill="#9f918a" fill-rule="evenodd" stroke="none"/>
    <path d="M378.35 -11.25 L378.35 -14.85 382.4 -14.85 378.35 -11.25 M400.5 -14.85 L404.55 -14.85 404.55 -11.25 400.5 -14.85 M378.35 43.2 L378.35 39.6 382.4 43.2 378.35 43.2 M400.5 43.2 L404.55 39.6 404.55 43.2 400.5 43.2" fill="#bfaa9d" fill-rule="evenodd" stroke="none"/>
    <path d="M378.0 -4.2 L391.45 -15.45 405.4 -4.2 391.45 2.65 378.0 -4.2" fill="#c1afa0" fill-rule="evenodd" stroke="none"/>
    <path d="M405.4 -4.2 L405.75 -3.95 405.75 10.8 405.75 17.3 405.75 32.05 405.4 32.3 391.45 25.45 391.45 17.3 391.45 10.8 391.45 2.65 405.4 -4.2" fill="#797675" fill-rule="evenodd" stroke="none"/>
    <path d="M405.4 32.3 L391.45 43.55 378.0 32.3 391.45 25.45 405.4 32.3" fill="#41382d" fill-rule="evenodd" stroke="none"/>
    <path d="M376.0 -6.3 L376.0 -16.5 387.45 -16.5 376.0 -6.3 M378.35 -11.25 L382.4 -14.85 378.35 -14.85 378.35 -11.25 M400.5 -14.85 L404.55 -11.25 404.55 -14.85 400.5 -14.85 M406.9 -6.3 L395.45 -16.5 406.9 -16.5 406.9 -6.3 M406.9 34.65 L406.9 44.85 395.45 44.85 406.9 34.65 M376.0 34.65 L387.45 44.85 376.0 44.85 376.0 34.65 M378.35 43.2 L382.4 43.2 378.35 39.6 378.35 43.2 M400.5 43.2 L404.55 43.2 404.55 39.6 400.5 43.2" fill="#3f3533" fill-rule="evenodd" stroke="none"/>
    <path d="M378.0 -4.2 L377.65 -3.95 377.65 10.8 377.65 17.3 377.65 32.05 378.0 32.3 391.45 43.55 405.4 32.3 405.75 32.05 405.75 17.3 405.75 10.8 405.75 -3.95 405.4 -4.2 391.45 -15.45 378.0 -4.2 M376.0 -6.3 L387.45 -16.5 376.0 -16.5 376.0 -6.3 M406.9 -6.3 L406.9 -16.5 395.45 -16.5 406.9 -6.3 M408.9 -18.05 L408.9 45.95 374.5 45.95 374.5 -18.05 408.9 -18.05 M406.9 34.65 L395.45 44.85 406.9 44.85 406.9 34.65 M376.0 34.65 L376.0 44.85 387.45 44.85 376.0 34.65" fill="#675754" fill-rule="evenodd" stroke="none"/>
    <path d="M378.0 32.3 L377.65 32.05 377.65 17.3 377.65 10.8 377.65 -3.95 378.0 -4.2 391.45 -15.45 405.4 -4.2 405.75 -3.95 405.75 10.8 405.75 17.3 405.75 32.05 405.4 32.3 391.45 43.55 378.0 32.3 391.45 25.45 391.45 17.3 391.45 10.8 391.45 2.65 378.0 -4.2 M391.45 25.45 L405.4 32.3 M391.45 2.65 L405.4 -4.2" fill="none" stroke="#bbbbbb" stroke-linecap="round" stroke-linejoin="round" stroke-width="1.0"/>
    <path d="M12.0 -11.2 L7.95 -14.8 12.0 -14.8 12.0 -11.2 M7.95 43.25 L12.0 39.65 12.0 43.25 7.95 43.25 M-14.2 -11.2 L-14.2 -14.8 -10.15 -14.8 -14.2 -11.2 M-14.2 43.25 L-14.2 39.65 -10.15 43.25 -14.2 43.25" fill="#bfaa9d" fill-rule="evenodd" stroke="none"/>
    <path d="M12.85 -4.15 L13.2 -3.9 13.2 10.85 13.2 17.35 13.2 32.1 12.85 32.35 -1.1 25.5 -1.1 17.35 -1.1 10.85 -1.1 2.7 12.85 -4.15" fill="#797675" fill-rule="evenodd" stroke="none"/>
    <path d="M12.85 32.35 L-1.1 43.6 -14.55 32.35 -1.1 25.5 12.85 32.35" fill="#41382d" fill-rule="evenodd" stroke="none"/>
    <path d="M-14.55 -4.15 L-1.1 -15.4 12.85 -4.15 -1.1 2.7 -14.55 -4.15" fill="#c1afa0" fill-rule="evenodd" stroke="none"/>
    <path d="M-14.55 32.35 L-14.9 32.1 -14.9 17.35 -14.9 10.85 -14.9 -3.9 -14.55 -4.15 -1.1 2.7 -1.1 10.85 -1.1 17.35 -1.1 25.5 -14.55 32.35" fill="#9f918a" fill-rule="evenodd" stroke="none"/>
    <path d="M14.35 -16.45 L2.9 -16.45 14.35 -6.25 14.35 -16.45 M12.85 32.35 L13.2 32.1 13.2 17.35 13.2 10.85 13.2 -3.9 12.85 -4.15 -1.1 -15.4 -14.55 -4.15 -14.9 -3.9 -14.9 10.85 -14.9 17.35 -14.9 32.1 -14.55 32.35 -1.1 43.6 12.85 32.35 M14.35 34.7 L2.9 44.9 14.35 44.9 14.35 34.7 M16.35 46.0 L-18.05 46.0 -18.05 -18.0 16.35 -18.0 16.35 46.0 M-16.55 -16.45 L-16.55 -6.25 -5.1 -16.45 -16.55 -16.45 M-16.55 34.7 L-16.55 44.9 -5.1 44.9 -16.55 34.7" fill="#675754" fill-rule="evenodd" stroke="none"/>
    <path d="M12.0 -11.2 L12.0 -14.8 7.95 -14.8 12.0 -11.2 M14.35 -16.45 L14.35 -6.25 2.9 -16.45 14.35 -16.45 M14.35 34.7 L14.35 44.9 2.9 44.9 14.35 34.7 M7.95 43.25 L12.0 43.25 12.0 39.65 7.95 43.25 M-14.2 -11.2 L-10.15 -14.8 -14.2 -14.8 -14.2 -11.2 M-16.55 -16.45 L-5.1 -16.45 -16.55 -6.25 -16.55 -16.45 M-14.2 43.25 L-10.15 43.25 -14.2 39.65 -14.2 43.25 M-16.55 34.7 L-5.1 44.9 -16.55 44.9 -16.55 34.7" fill="#3f3533" fill-rule="evenodd" stroke="none"/>
    <path d="M12.85 -4.15 L13.2 -3.9 13.2 10.85 13.2 17.35 13.2 32.1 12.85 32.35 -1.1 43.6 -14.55 32.35 -14.9 32.1 -14.9 17.35 -14.9 10.85 -14.9 -3.9 -14.55 -4.15 -1.1 -15.4 12.85 -4.15 -1.1 2.7 -1.1 10.85 -1.1 17.35 -1.1 25.5 12.85 32.35 M-1.1 25.5 L-14.55 32.35 M-14.55 -4.15 L-1.1 2.7" fill="none" stroke="#bbbbbb" stroke-linecap="round" stroke-linejoin="round" stroke-width="1.0"/>
    <path d="M103.55 -11.2 L103.55 -14.8 107.6 -14.8 103.55 -11.2 M125.7 -14.8 L129.75 -14.8 129.75 -11.2 125.7 -14.8 M125.7 43.25 L129.75 39.65 129.75 43.25 125.7 43.25 M107.6 43.25 L103.55 43.25 103.55 39.65 107.6 43.25" fill="#bfaa9d" fill-rule="evenodd" stroke="none"/>
    <path d="M116.65 -15.4 L130.6 -4.15 130.95 -3.9 130.95 10.85 130.95 11.55 130.95 12.75 130.95 17.35 130.95 23.85 130.95 28.5 130.95 32.1 130.6 32.35 116.65 43.6 103.2 32.35 102.85 32.1 102.85 17.35 102.85 12.1 102.85 10.9 102.85 10.85 102.85 2.25 102.85 -3.9 103.2 -4.15 116.65 -15.4 M114.75 26.5 Q118.6 24.7 122.05 25.25 123.95 25.55 125.65 26.5 127.75 27.8 129.75 28.3 L130.95 28.5 129.75 28.3 Q127.75 27.8 125.65 26.5 123.95 25.55 122.05 25.25 118.6 24.7 114.75 26.5 M102.85 12.1 Q105.6 12.4 108.35 14.2 116.6 18.75 126.5 14.2 128.75 13.15 130.95 12.75 128.75 13.15 126.5 14.2 116.6 18.75 108.35 14.2 105.6 12.4 102.85 12.1 M127.45 3.45 Q127.45 2.9 126.95 2.45 126.5 2.05 125.85 2.05 125.2 2.05 124.7 2.45 124.25 2.9 124.25 3.45 124.25 4.0 124.7 4.4 125.2 4.85 125.85 4.85 126.5 4.85 126.95 4.4 127.45 4.0 127.45 3.45 127.45 4.0 126.95 4.4 126.5 4.85 125.85 4.85 125.2 4.85 124.7 4.4 124.25 4.0 124.25 3.45 124.25 2.9 124.7 2.45 125.2 2.05 125.85 2.05 126.5 2.05 126.95 2.45 127.45 2.9 127.45 3.45 M120.9 3.6 Q116.7 6.35 112.5 5.4 110.5 4.9 108.4 3.6 106.65 2.7 104.75 2.35 L102.85 2.25 104.75 2.35 Q106.65 2.7 108.4 3.6 110.5 4.9 112.5 5.4 116.7 6.35 120.9 3.6 M109.45 26.15 Q109.45 25.65 109.05 25.3 108.7 24.9 108.1 24.9 107.55 24.9 107.15 25.3 106.8 25.65 106.8 26.15 106.8 26.65 107.15 27.0 107.55 27.35 108.1 27.35 108.7 27.35 109.05 27.0 109.45 26.65 109.45 26.15 109.45 26.65 109.05 27.0 108.7 27.35 108.1 27.35 107.55 27.35 107.15 27.0 106.8 26.65 106.8 26.15 106.8 25.65 107.15 25.3 107.55 24.9 108.1 24.9 108.7 24.9 109.05 25.3 109.45 25.65 109.45 26.15" fill="url(#gradient3)" fill-rule="evenodd" stroke="none"/>
    <path d="M103.55 -11.2 L107.6 -14.8 103.55 -14.8 103.55 -11.2 M101.2 -6.25 L101.2 -16.45 112.65 -16.45 101.2 -6.25 M125.7 -14.8 L129.75 -11.2 129.75 -14.8 125.7 -14.8 M132.1 -6.25 L120.65 -16.45 132.1 -16.45 132.1 -6.25 M125.7 43.25 L129.75 43.25 129.75 39.65 125.7 43.25 M132.1 34.7 L132.1 44.9 120.65 44.9 132.1 34.7 M101.2 34.7 L112.65 44.9 101.2 44.9 101.2 34.7 M107.6 43.25 L103.55 39.65 103.55 43.25 107.6 43.25" fill="#3f3533" fill-rule="evenodd" stroke="none"/>
    <path d="M116.65 -15.4 L103.2 -4.15 102.85 -3.9 102.85 2.25 102.85 10.85 102.85 10.9 102.85 12.1 102.85 17.35 102.85 32.1 103.2 32.35 116.65 43.6 130.6 32.35 130.95 32.1 130.95 28.5 130.95 23.85 130.95 17.35 130.95 12.75 130.95 11.55 130.95 10.85 130.95 -3.9 130.6 -4.15 116.65 -15.4 M101.2 -6.25 L112.65 -16.45 101.2 -16.45 101.2 -6.25 M132.1 -6.25 L132.1 -16.45 120.65 -16.45 132.1 -6.25 M134.15 -18.0 L134.15 46.0 99.7 46.0 99.7 -18.0 134.15 -18.0 M132.1 34.7 L120.65 44.9 132.1 44.9 132.1 34.7 M101.2 34.7 L101.2 44.9 112.65 44.9 101.2 34.7" fill="#675754" fill-rule="evenodd" stroke="none"/>
    <path d="M116.65 -15.4 L130.6 -4.15 130.95 -3.9 130.95 10.85 130.95 11.55 130.95 12.75 130.95 17.35 130.95 23.85 130.95 28.5 130.95 32.1 130.6 32.35 116.65 43.6 103.2 32.35 102.85 32.1 102.85 17.35 102.85 12.1 102.85 10.9 102.85 10.85 102.85 2.25 102.85 -3.9 103.2 -4.15 116.65 -15.4 M127.45 3.45 Q127.45 4.0 126.95 4.4 126.5 4.85 125.85 4.85 125.2 4.85 124.7 4.4 124.25 4.0 124.25 3.45 124.25 2.9 124.7 2.45 125.2 2.05 125.85 2.05 126.5 2.05 126.95 2.45 127.45 2.9 127.45 3.45 M130.95 12.75 Q128.75 13.15 126.5 14.2 116.6 18.75 108.35 14.2 105.6 12.4 102.85 12.1 M130.95 28.5 L129.75 28.3 Q127.75 27.8 125.65 26.5 123.95 25.55 122.05 25.25 118.6 24.7 114.75 26.5 M102.85 2.25 L104.75 2.35 Q106.65 2.7 108.4 3.6 110.5 4.9 112.5 5.4 116.7 6.35 120.9 3.6 M109.45 26.15 Q109.45 26.65 109.05 27.0 108.7 27.35 108.1 27.35 107.55 27.35 107.15 27.0 106.8 26.65 106.8 26.15 106.8 25.65 107.15 25.3 107.55 24.9 108.1 24.9 108.7 24.9 109.05 25.3 109.45 25.65 109.45 26.15" fill="none" stroke="#8e8271" stroke-linecap="round" stroke-linejoin="round" stroke-width="1.0"/>
    <path d="M181.7 -4.2 L195.15 -15.45 209.1 -4.2 209.45 -3.95 209.45 10.8 209.45 11.5 209.45 12.7 209.45 17.3 209.45 23.8 209.45 28.45 209.45 32.05 209.1 32.3 195.15 43.55 181.7 32.3 181.35 32.05 181.35 17.3 181.35 12.05 181.35 10.85 181.35 10.8 181.35 2.2 181.35 -3.95 181.7 -4.2 M181.35 12.05 Q184.1 12.35 186.85 14.15 195.1 18.7 205.0 14.15 207.25 13.1 209.45 12.7 207.25 13.1 205.0 14.15 195.1 18.7 186.85 14.15 184.1 12.35 181.35 12.05 M205.95 3.4 Q205.95 2.85 205.45 2.4 205.0 2.0 204.35 2.0 203.7 2.0 203.2 2.4 202.75 2.85 202.75 3.4 202.75 3.95 203.2 4.35 L204.35 4.8 Q205.0 4.8 205.45 4.35 205.95 3.95 205.95 3.4 205.95 3.95 205.45 4.35 205.0 4.8 204.35 4.8 L203.2 4.35 Q202.75 3.95 202.75 3.4 202.75 2.85 203.2 2.4 203.7 2.0 204.35 2.0 205.0 2.0 205.45 2.4 205.95 2.85 205.95 3.4 M199.4 3.55 Q195.2 6.3 191.0 5.35 189.0 4.85 186.9 3.55 185.15 2.65 183.25 2.3 L181.35 2.2 183.25 2.3 Q185.15 2.65 186.9 3.55 189.0 4.85 191.0 5.35 195.2 6.3 199.4 3.55 M193.25 26.45 Q197.1 24.65 200.55 25.2 202.45 25.5 204.15 26.45 206.25 27.75 208.25 28.25 L209.45 28.45 208.25 28.25 Q206.25 27.75 204.15 26.45 202.45 25.5 200.55 25.2 197.1 24.65 193.25 26.45 M186.6 27.3 L187.55 26.95 Q187.95 26.6 187.95 26.1 187.95 25.6 187.55 25.25 187.2 24.85 186.6 24.85 186.05 24.85 185.65 25.25 185.3 25.6 185.3 26.1 185.3 26.6 185.65 26.95 186.05 27.3 186.6 27.3 186.05 27.3 185.65 26.95 185.3 26.6 185.3 26.1 185.3 25.6 185.65 25.25 186.05 24.85 186.6 24.85 187.2 24.85 187.55 25.25 187.95 25.6 187.95 26.1 187.95 26.6 187.55 26.95 L186.6 27.3" fill="url(#gradient4)" fill-rule="evenodd" stroke="none"/>
    <path d="M179.7 -6.3 L179.7 -16.5 191.15 -16.5 179.7 -6.3 M186.1 -14.85 L182.05 -14.85 182.05 -11.25 186.1 -14.85 M208.25 -11.25 L208.25 -14.85 204.2 -14.85 208.25 -11.25 M210.6 -6.3 L199.15 -16.5 210.6 -16.5 210.6 -6.3 M210.6 34.65 L210.6 44.85 199.15 44.85 210.6 34.65 M208.25 43.2 L208.25 39.6 204.2 43.2 208.25 43.2 M182.05 39.6 L182.05 43.2 186.1 43.2 182.05 39.6 M179.7 34.65 L191.15 44.85 179.7 44.85 179.7 34.65" fill="#3f3533" fill-rule="evenodd" stroke="none"/>
    <path d="M179.7 -6.3 L191.15 -16.5 179.7 -16.5 179.7 -6.3 M181.7 -4.2 L181.35 -3.95 181.35 2.2 181.35 10.8 181.35 10.85 181.35 12.05 181.35 17.3 181.35 32.05 181.7 32.3 195.15 43.55 209.1 32.3 209.45 32.05 209.45 28.45 209.45 23.8 209.45 17.3 209.45 12.7 209.45 11.5 209.45 10.8 209.45 -3.95 209.1 -4.2 195.15 -15.45 181.7 -4.2 M210.6 -6.3 L210.6 -16.5 199.15 -16.5 210.6 -6.3 M212.65 -18.05 L212.65 45.95 178.2 45.95 178.2 -18.05 212.65 -18.05 M210.6 34.65 L199.15 44.85 210.6 44.85 210.6 34.65 M179.7 34.65 L179.7 44.85 191.15 44.85 179.7 34.65" fill="#675754" fill-rule="evenodd" stroke="none"/>
    <path d="M186.1 -14.85 L182.05 -11.25 182.05 -14.85 186.1 -14.85 M208.25 -11.25 L204.2 -14.85 208.25 -14.85 208.25 -11.25 M208.25 43.2 L204.2 43.2 208.25 39.6 208.25 43.2 M182.05 39.6 L186.1 43.2 182.05 43.2 182.05 39.6" fill="#bfaa9d" fill-rule="evenodd" stroke="none"/>
    <path d="M181.7 -4.2 L195.15 -15.45 209.1 -4.2 209.45 -3.95 209.45 10.8 209.45 11.5 209.45 12.7 209.45 17.3 209.45 23.8 209.45 28.45 209.45 32.05 209.1 32.3 195.15 43.55 181.7 32.3 181.35 32.05 181.35 17.3 181.35 12.05 181.35 10.85 181.35 10.8 181.35 2.2 181.35 -3.95 181.7 -4.2 M205.95 3.4 Q205.95 3.95 205.45 4.35 205.0 4.8 204.35 4.8 L203.2 4.35 Q202.75 3.95 202.75 3.4 202.75 2.85 203.2 2.4 203.7 2.0 204.35 2.0 205.0 2.0 205.45 2.4 205.95 2.85 205.95 3.4 M209.45 12.7 Q207.25 13.1 205.0 14.15 195.1 18.7 186.85 14.15 184.1 12.35 181.35 12.05 M209.45 28.45 L208.25 28.25 Q206.25 27.75 204.15 26.45 202.45 25.5 200.55 25.2 197.1 24.65 193.25 26.45 M181.35 2.2 L183.25 2.3 Q185.15 2.65 186.9 3.55 189.0 4.85 191.0 5.35 195.2 6.3 199.4 3.55 M186.6 27.3 Q186.05 27.3 185.65 26.95 185.3 26.6 185.3 26.1 185.3 25.6 185.65 25.25 186.05 24.85 186.6 24.85 187.2 24.85 187.55 25.25 187.95 25.6 187.95 26.1 187.95 26.6 187.55 26.95 L186.6 27.3" fill="none" stroke="#8e8271" stroke-linecap="round" stroke-linejoin="round" stroke-width="1.0"/>
    <path d="M260.15 -4.05 L273.6 -15.3 287.55 -4.05 287.9 -3.8 287.9 10.95 287.9 11.65 287.9 12.85 287.9 17.45 287.9 23.95 287.9 28.6 287.9 32.2 287.55 32.45 273.6 43.7 260.15 32.45 259.8 32.2 259.8 17.45 259.8 12.2 259.8 11.0 259.8 10.95 259.8 2.35 259.8 -3.8 260.15 -4.05 M271.7 26.6 Q275.55 24.8 279.0 25.35 280.9 25.65 282.6 26.6 284.7 27.9 286.7 28.4 L287.9 28.6 286.7 28.4 Q284.7 27.9 282.6 26.6 280.9 25.65 279.0 25.35 275.55 24.8 271.7 26.6 M283.9 4.5 Q284.4 4.1 284.4 3.55 284.4 3.0 283.9 2.55 283.45 2.15 282.8 2.15 282.15 2.15 281.65 2.55 281.2 3.0 281.2 3.55 281.2 4.1 281.65 4.5 282.15 4.95 282.8 4.95 283.45 4.95 283.9 4.5 283.45 4.95 282.8 4.95 282.15 4.95 281.65 4.5 281.2 4.1 281.2 3.55 281.2 3.0 281.65 2.55 282.15 2.15 282.8 2.15 283.45 2.15 283.9 2.55 284.4 3.0 284.4 3.55 284.4 4.1 283.9 4.5 M277.85 3.7 Q273.65 6.45 269.45 5.5 267.45 5.0 265.35 3.7 263.6 2.8 261.7 2.45 L259.8 2.35 261.7 2.45 Q263.6 2.8 265.35 3.7 267.45 5.0 269.45 5.5 273.65 6.45 277.85 3.7 M259.8 12.2 Q262.55 12.5 265.3 14.3 273.55 18.85 283.45 14.3 285.7 13.25 287.9 12.85 285.7 13.25 283.45 14.3 273.55 18.85 265.3 14.3 262.55 12.5 259.8 12.2 M266.4 26.25 Q266.4 25.75 266.0 25.4 265.65 25.0 265.05 25.0 264.5 25.0 264.1 25.4 263.75 25.75 263.75 26.25 263.75 26.75 264.1 27.1 264.5 27.45 265.05 27.45 L266.0 27.1 Q266.4 26.75 266.4 26.25 266.4 26.75 266.0 27.1 L265.05 27.45 Q264.5 27.45 264.1 27.1 263.75 26.75 263.75 26.25 263.75 25.75 264.1 25.4 264.5 25.0 265.05 25.0 265.65 25.0 266.0 25.4 266.4 25.75 266.4 26.25" fill="url(#gradient5)" fill-rule="evenodd" stroke="none"/>
    <path d="M264.55 -14.7 L260.5 -14.7 260.5 -11.1 264.55 -14.7 M258.15 -6.15 L258.15 -16.35 269.6 -16.35 258.15 -6.15 M289.05 -6.15 L277.6 -16.35 289.05 -16.35 289.05 -6.15 M286.7 -11.1 L286.7 -14.7 282.65 -14.7 286.7 -11.1 M286.7 39.75 L282.65 43.35 286.7 43.35 286.7 39.75 M289.05 34.8 L289.05 45.0 277.6 45.0 289.05 34.8 M258.15 34.8 L269.6 45.0 258.15 45.0 258.15 34.8 M260.5 39.75 L260.5 43.35 264.55 43.35 260.5 39.75" fill="#3f3533" fill-rule="evenodd" stroke="none"/>
    <path d="M260.15 -4.05 L259.8 -3.8 259.8 2.35 259.8 10.95 259.8 11.0 259.8 12.2 259.8 17.45 259.8 32.2 260.15 32.45 273.6 43.7 287.55 32.45 287.9 32.2 287.9 28.6 287.9 23.95 287.9 17.45 287.9 12.85 287.9 11.65 287.9 10.95 287.9 -3.8 287.55 -4.05 273.6 -15.3 260.15 -4.05 M258.15 -6.15 L269.6 -16.35 258.15 -16.35 258.15 -6.15 M289.05 -6.15 L289.05 -16.35 277.6 -16.35 289.05 -6.15 M291.1 -17.9 L291.1 46.1 256.65 46.1 256.65 -17.9 291.1 -17.9 M289.05 34.8 L277.6 45.0 289.05 45.0 289.05 34.8 M258.15 34.8 L258.15 45.0 269.6 45.0 258.15 34.8" fill="#675754" fill-rule="evenodd" stroke="none"/>
    <path d="M264.55 -14.7 L260.5 -11.1 260.5 -14.7 264.55 -14.7 M286.7 -11.1 L282.65 -14.7 286.7 -14.7 286.7 -11.1 M286.7 39.75 L286.7 43.35 282.65 43.35 286.7 39.75 M260.5 39.75 L264.55 43.35 260.5 43.35 260.5 39.75" fill="#bfaa9d" fill-rule="evenodd" stroke="none"/>
    <path d="M260.15 -4.05 L273.6 -15.3 287.55 -4.05 287.9 -3.8 287.9 10.95 287.9 11.65 287.9 12.85 287.9 17.45 287.9 23.95 287.9 28.6 287.9 32.2 287.55 32.45 273.6 43.7 260.15 32.45 259.8 32.2 259.8 17.45 259.8 12.2 259.8 11.0 259.8 10.95 259.8 2.35 259.8 -3.8 260.15 -4.05 M283.9 4.5 Q283.45 4.95 282.8 4.95 282.15 4.95 281.65 4.5 281.2 4.1 281.2 3.55 281.2 3.0 281.65 2.55 282.15 2.15 282.8 2.15 283.45 2.15 283.9 2.55 284.4 3.0 284.4 3.55 284.4 4.1 283.9 4.5 M287.9 28.6 L286.7 28.4 Q284.7 27.9 282.6 26.6 280.9 25.65 279.0 25.35 275.55 24.8 271.7 26.6 M287.9 12.85 Q285.7 13.25 283.45 14.3 273.55 18.85 265.3 14.3 262.55 12.5 259.8 12.2 M259.8 2.35 L261.7 2.45 Q263.6 2.8 265.35 3.7 267.45 5.0 269.45 5.5 273.65 6.45 277.85 3.7 M266.4 26.25 Q266.4 26.75 266.0 27.1 L265.05 27.45 Q264.5 27.45 264.1 27.1 263.75 26.75 263.75 26.25 263.75 25.75 264.1 25.4 264.5 25.0 265.05 25.0 265.65 25.0 266.0 25.4 266.4 25.75 266.4 26.25" fill="none" stroke="#8e8271" stroke-linecap="round" stroke-linejoin="round" stroke-width="1.0"/>
    <path d="M40.0 -17.9 L42.8 -14.25 42.4 -13.1 Q41.35 -11.15 39.0 -10.45 L39.45 -7.7 M214.3 -1.05 Q220.3 -3.2 220.55 -8.6 220.6 -9.5 221.35 -10.25 224.2 -12.85 228.4 -12.4 229.95 -12.7 231.25 -13.5 L233.2 -14.85 M234.95 -6.15 L240.1 -1.0 242.95 1.65 245.35 3.0 248.15 3.05 M219.5 3.05 Q219.55 -0.85 223.4 -1.35 L224.95 -1.25 Q227.9 -1.4 229.8 -3.4 231.5 -5.25 233.9 -6.5 235.05 -7.1 236.3 -6.5 240.45 -4.4 245.25 -3.6 M241.3 -5.65 L247.3 -8.45 248.15 -7.7 M360.55 17.35 Q364.6 14.85 363.9 10.2 363.45 6.95 361.15 4.25 359.5 2.25 359.55 -0.05 359.55 -1.9 360.55 -3.6 M362.85 6.1 Q366.8 2.6 366.0 -2.2 365.5 -5.25 364.35 -8.25 L362.85 -12.8 M363.4 15.3 Q363.3 17.9 365.5 19.65 366.1 20.2 366.3 21.0 L366.3 21.95 M362.85 48.05 Q365.15 45.1 368.45 46.85 L369.75 47.7 374.3 47.05 375.7 44.55 375.65 40.75 Q374.15 37.25 376.55 34.35 378.0 32.6 377.15 30.65 M387.55 39.85 Q386.25 40.95 384.3 41.05 381.0 40.5 378.4 38.5 L375.65 40.75 M375.7 44.55 L376.05 43.95 M375.9 46.3 Q377.95 45.85 379.8 47.0 L381.8 47.55 382.95 47.05 M321.55 35.8 Q324.2 34.0 325.25 31.3 325.45 30.6 325.25 29.95 324.3 27.3 326.15 25.05 M351.9 43.45 Q356.15 41.5 357.4 37.45 L357.7 36.55 Q358.0 34.35 356.95 32.35 355.75 29.85 358.25 28.1 M357.7 36.55 L363.55 33.2 365.15 26.05 M362.85 120.2 Q362.7 121.45 361.1 121.45 358.95 121.15 358.0 119.45 L355.8 119.35 355.95 122.7 Q352.55 125.95 347.9 123.95 L346.75 123.45 M306.65 37.3 Q307.25 38.95 309.15 39.4 L311.85 39.5 315.25 41.4 Q321.4 38.45 321.15 32.2 320.95 28.45 318.8 25.05 L320.95 20.95 M314.05 42.45 L315.25 41.4 M218.35 2.55 L218.75 6.15 Q216.55 8.1 217.25 10.75 L217.75 12.25 M217.75 -2.05 L216.3 3.3 213.7 4.3 Q210.75 5.5 210.25 8.45 L210.9 9.2 M211.45 21.95 Q218.15 21.4 217.9 16.7 L218.9 12.75 M211.45 33.2 Q212.1 29.15 216.25 27.7 L217.45 27.3 218.9 24.55 M319.75 192.45 Q317.6 190.25 314.6 191.05 L314.25 191.25 312.6 193.15 Q309.4 193.7 306.65 191.95 305.95 191.5 304.95 191.4 L304.45 191.55 302.65 193.3 M320.05 196.6 L317.05 195.95 315.25 197.9 M40.55 11.75 Q38.8 13.35 37.95 15.25 37.1 17.3 37.45 19.4 38.55 24.55 44.8 24.8 46.9 25.05 47.6 26.6 48.95 29.4 46.35 31.15 44.6 32.25 43.7 33.8 41.5 37.5 45.2 39.8 46.1 35.4 50.55 33.25 L51.95 32.2 Q53.75 30.35 53.75 27.65 50.25 23.45 53.05 19.35 53.45 18.7 53.75 19.4 M42.3 47.55 L45.25 42.85 Q45.6 42.2 45.55 41.45 L45.2 39.8 M45.15 48.05 L46.45 44.85 Q49.25 45.0 51.3 43.65 53.1 42.5 53.15 40.4 M52.05 46.0 Q54.65 44.5 57.2 42.95 M43.95 44.45 Q42.9 41.6 39.45 43.15 38.25 43.65 37.65 44.6 L36.9 45.15 Q33.15 46.25 29.65 43.95 M138.1 149.95 L135.25 151.8 133.8 150.45 129.0 151.0 127.9 151.8 124.25 151.35 121.95 157.5 M137.45 156.5 Q132.7 156.9 129.2 153.95 L127.75 152.9" fill="none" stroke="#875027" stroke-linecap="round" stroke-linejoin="round" stroke-width="1.0"/>
  </g>
  <defs>
    <radialGradient cx="0" cy="0" gradientTransform="matrix(0.0038, 0.1924, -0.4324, 0.0067, 192.7, 147.0)" gradientUnits="userSpaceOnUse" id="gradient0" r="819.2" spreadMethod="pad">
      <stop offset="0.0" stop-color="#a2a2a2"/>
      <stop offset="0.36470588235294116" stop-color="#797575"/>
      <stop offset="0.7490196078431373" stop-color="#433634"/>
      <stop offset="1.0" stop-color="#1e190f"/>
    </radialGradient>
    <linearGradient gradientTransform="matrix(0.0, -0.0302, 0.0308, 0.0, 195.7, 23.5)" gradientUnits="userSpaceOnUse" id="gradient1" spreadMethod="pad" x1="-819.2" x2="819.2">
      <stop offset="0.0" stop-color="#604738"/>
      <stop offset="1.0" stop-color="#151515"/>
    </linearGradient>
    <radialGradient cx="0" cy="0" gradientTransform="matrix(0.2553, 0.0, 0.0, 0.2265, 195.75, 60.9)" gradientUnits="userSpaceOnUse" id="gradient2" r="819.2" spreadMethod="pad">
      <stop offset="0.0" stop-color="#d1b394" stop-opacity="0.8"/>
      <stop offset="0.36470588235294116" stop-color="#936f39" stop-opacity="0.8"/>
      <stop offset="0.7490196078431373" stop-color="#74583f" stop-opacity="0.88235295"/>
      <stop offset="1.0" stop-color="#584f41" stop-opacity="0.9529412"/>
    </radialGradient>
    <linearGradient gradientTransform="matrix(0.0, -0.0347, 0.0404, 0.0, 116.85, 14.1)" gradientUnits="userSpaceOnUse" id="gradient3" spreadMethod="pad" x1="-819.2" x2="819.2">
      <stop offset="0.0" stop-color="#222222"/>
      <stop offset="1.0" stop-color="#b28e7f"/>
    </linearGradient>
    <linearGradient gradientTransform="matrix(0.0, -0.0347, 0.0404, 0.0, 195.35, 14.05)" gradientUnits="userSpaceOnUse" id="gradient4" spreadMethod="pad" x1="-819.2" x2="819.2">
      <stop offset="0.0" stop-color="#222222"/>
      <stop offset="1.0" stop-color="#b28e7f"/>
    </linearGradient>
    <linearGradient gradientTransform="matrix(0.0, -0.0347, 0.0404, 0.0, 273.8, 14.2)" gradientUnits="userSpaceOnUse" id="gradient5" spreadMethod="pad" x1="-819.2" x2="819.2">
      <stop offset="0.0" stop-color="#222222"/>
      <stop offset="1.0" stop-color="#b28e7f"/>
    </linearGradient>
  </defs>
</svg>
