<?xml version="1.0" encoding="UTF-8" standalone="no"?>
<svg xmlns:xlink="http://www.w3.org/1999/xlink" height="105.45px" width="76.4px" xmlns="http://www.w3.org/2000/svg">
  <g transform="matrix(1.0, 0.0, 0.0, 1.0, 38.0, 56.75)">
    <path d="M23.95 31.55 L18.0 36.7 Q15.7 38.8 10.65 41.7 5.6 44.6 0.6 45.75 L-8.95 47.9 Q-13.5 48.85 -19.4 46.6 -25.35 44.35 -26.45 41.15 L-28.75 34.3 -30.9 27.7 -32.6 22.55 -33.4 20.2 -35.4 13.25 Q-38.45 3.75 -36.4 -5.7 L-35.8 -8.7 -35.75 -10.8 Q-35.85 -11.6 -36.7 -13.6 -37.6 -15.6 -37.5 -18.1 -37.45 -20.65 -36.3 -23.95 -35.2 -27.25 -33.85 -33.45 -32.5 -39.65 -28.1 -44.9 -23.75 -50.15 -20.9 -52.0 -15.85 -55.35 -9.3 -55.7 L-7.85 -55.85 0.35 -56.25 Q5.8 -56.4 11.55 -53.9 L14.85 -52.25 17.1 -51.0 21.15 -48.35 29.05 -42.1 Q33.7 -38.2 36.1 -28.8 37.4 -23.75 37.75 -18.45 38.2 -11.85 37.15 -5.35 L37.1 -5.25 37.05 -4.7 36.85 -3.85 Q35.95 0.9 33.9 5.4 L32.8 7.55 31.2 6.85 32.7 7.8 30.1 12.0 28.6 12.5 Q29.95 19.25 28.2 25.8 27.5 28.35 25.6 30.1 L23.95 31.55 M24.6 -10.5 Q25.3 -15.6 29.8 -16.25 31.05 -15.75 32.2 -14.1 34.95 -10.4 34.25 -5.7 L34.2 -5.45 34.2 -5.25 Q33.7 -2.25 32.7 0.65 32.15 2.35 31.75 4.45 L31.2 6.85 Q28.4 10.15 25.6 7.5 28.4 10.15 31.2 6.85 L31.75 4.45 Q32.15 2.35 32.7 0.65 33.7 -2.25 34.2 -5.25 L34.2 -5.45 34.25 -5.7 Q34.95 -10.4 32.2 -14.1 31.05 -15.75 29.8 -16.25 25.3 -15.6 24.6 -10.5 M29.5 0.1 L29.5 -0.4 29.5 -2.9 29.5 -0.4 29.5 0.1 M31.5 -5.9 L31.5 -7.9 31.3 -8.8 Q30.4 -10.9 29.0 -9.4 L28.65 -8.85 Q28.1 -7.05 26.5 -6.4 28.1 -7.05 28.65 -8.85 L29.0 -9.4 Q30.4 -10.9 31.3 -8.8 L31.5 -7.9 31.5 -5.9 M-24.15 -8.55 Q-20.55 -7.1 -21.85 -3.4 -23.2 0.3 -24.75 6.1 -26.3 11.9 -27.3 14.05 -28.35 16.15 -25.8 18.15 -23.25 20.1 -18.8 19.0 -23.25 20.1 -25.8 18.15 -28.35 16.15 -27.3 14.05 -26.3 11.9 -24.75 6.1 -23.2 0.3 -21.85 -3.4 -20.55 -7.1 -24.15 -8.55 M-14.85 20.15 Q-13.15 18.65 -13.8 16.5 -13.15 18.65 -14.85 20.15 M-26.2 14.3 L-26.2 14.35 -26.15 14.3 -26.2 14.3" fill="url(#gradient0)" fill-rule="evenodd" stroke="none"/>
    <path d="M32.8 7.55 L32.8 7.65 32.7 7.8 31.2 6.85 32.8 7.55" fill="url(#gradient1)" fill-rule="evenodd" stroke="none"/>
    <path d="M23.95 31.55 L18.0 36.7 Q15.7 38.8 10.65 41.7 5.6 44.6 0.6 45.75 L-8.95 47.9 Q-13.5 48.85 -19.4 46.6 -25.35 44.35 -26.45 41.15 L-28.75 34.3 -30.9 27.7 -32.6 22.55 -33.4 20.2 -35.4 13.25 Q-38.45 3.75 -36.4 -5.7 L-35.8 -8.7 -35.75 -10.8 Q-35.85 -11.6 -36.7 -13.6 -37.6 -15.6 -37.5 -18.1 -37.45 -20.65 -36.3 -23.95 -35.2 -27.25 -33.85 -33.45 -32.5 -39.65 -28.1 -44.9 -23.75 -50.15 -20.9 -52.0 -15.85 -55.35 -9.3 -55.7 L-7.85 -55.85 0.35 -56.25 Q5.8 -56.4 11.55 -53.9 L14.85 -52.25 17.1 -51.0 21.15 -48.35 29.05 -42.1 Q33.7 -38.2 36.1 -28.8 37.4 -23.75 37.75 -18.45 38.2 -11.85 37.15 -5.35 L37.1 -5.25 37.05 -4.7 36.85 -3.85 Q35.95 0.9 33.9 5.4 L32.8 7.55 32.8 7.65 32.7 7.8 30.1 12.0 M-18.8 19.0 Q-23.25 20.1 -25.8 18.15 -28.35 16.15 -27.3 14.05 -26.3 11.9 -24.75 6.1 -23.2 0.3 -21.85 -3.4 -20.55 -7.1 -24.15 -8.55 M26.5 -6.4 Q28.1 -7.05 28.65 -8.85 L29.0 -9.4 Q30.4 -10.9 31.3 -8.8 L31.5 -7.9 31.5 -5.9 M29.5 -2.9 L29.5 -0.4 29.5 0.1 M25.6 7.5 Q28.4 10.15 31.2 6.85 L31.75 4.45 Q32.15 2.35 32.7 0.65 33.7 -2.25 34.2 -5.25 L34.2 -5.45 34.25 -5.7 Q34.95 -10.4 32.2 -14.1 31.05 -15.75 29.8 -16.25 25.3 -15.6 24.6 -10.5 M-13.8 16.5 Q-13.15 18.65 -14.85 20.15" fill="none" stroke="#000000" stroke-linecap="round" stroke-linejoin="round" stroke-width="1.0"/>
    <path d="M28.6 12.5 Q29.95 19.25 28.2 25.8 27.5 28.35 25.6 30.1 L23.95 31.55 Z" fill="none" stroke="#b9a882" stroke-linecap="round" stroke-linejoin="round" stroke-width="0.05"/>
  </g>
  <defs>
    <radialGradient cx="0" cy="0" gradientTransform="matrix(0.0543, 0.0, 0.0, 0.0824, -19.95, -7.25)" gradientUnits="userSpaceOnUse" id="gradient0" r="819.2" spreadMethod="pad">
      <stop offset="0.0" stop-color="#f1d0b1"/>
      <stop offset="0.6274509803921569" stop-color="#ecc59d"/>
      <stop offset="1.0" stop-color="#e9bb8f"/>
    </radialGradient>
    <radialGradient cx="0" cy="0" gradientTransform="matrix(0.0494, 0.0, 0.0, 0.0681, -15.95, -1.25)" gradientUnits="userSpaceOnUse" id="gradient1" r="819.2" spreadMethod="pad">
      <stop offset="0.0" stop-color="#f1d0b1"/>
      <stop offset="0.6274509803921569" stop-color="#ecc59d"/>
      <stop offset="1.0" stop-color="#e9bb8f"/>
    </radialGradient>
  </defs>
</svg>
