<?xml version="1.0" encoding="UTF-8" standalone="no"?>
<svg xmlns:xlink="http://www.w3.org/1999/xlink" height="103.25px" width="72.7px" xmlns="http://www.w3.org/2000/svg">
  <g transform="matrix(1.0, 0.0, 0.0, 1.0, 38.6, 55.75)">
    <path d="M13.7 -51.45 Q20.6 -48.2 26.35 -38.45 32.05 -28.7 33.3 -16.7 34.55 -4.75 30.85 6.6 L30.85 6.65 30.4 7.7 28.9 11.0 26.15 15.5 24.65 16.0 Q24.8 19.1 23.15 21.85 21.45 24.6 19.45 26.75 L16.0 30.4 12.45 33.9 Q7.05 38.8 -0.85 42.8 -8.75 46.8 -13.15 47.0 -17.55 47.15 -19.55 44.6 -21.6 42.05 -24.95 36.35 -28.35 30.65 -32.45 20.55 -36.5 10.4 -35.5 4.65 -34.5 -1.1 -34.3 -0.9 L-36.2 -4.8 Q-38.3 -8.9 -38.1 -15.1 -37.9 -21.35 -37.25 -24.45 -36.65 -27.6 -36.05 -29.25 -32.45 -38.55 -26.25 -46.2 -21.0 -52.55 -12.8 -54.1 -6.45 -55.4 0.2 -55.2 6.75 -54.75 13.7 -51.45 M21.4 -7.0 Q22.05 -10.15 24.85 -11.6 L25.6 -12.0 Q30.25 -9.65 30.1 -4.05 30.25 -9.65 25.6 -12.0 L24.85 -11.6 Q22.05 -10.15 21.4 -7.0 M22.55 -2.9 Q24.5 -3.7 25.2 -5.85 L25.5 -6.3 26.65 -6.35 27.35 -3.4 26.65 -6.35 25.5 -6.3 25.2 -5.85 Q24.5 -3.7 22.55 -2.9 M29.95 -1.95 L30.0 -2.1 30.1 -4.05 27.35 -3.4 27.55 -2.4 29.95 -1.95 Q29.6 0.9 28.45 3.7 L28.35 4.05 Q28.05 4.8 28.15 5.7 L28.15 7.55 27.9 8.65 27.25 10.2 Q26.05 12.1 23.5 12.15 L22.35 11.5 21.65 11.0 22.35 11.5 23.5 12.15 Q26.05 12.1 27.25 10.2 L27.9 8.65 28.15 7.55 28.15 5.7 Q28.05 4.8 28.35 4.05 L28.45 3.7 Q29.6 0.9 29.95 -1.95 M-14.5 17.05 Q-13.9 17.05 -13.45 16.15 -13.0 15.3 -13.0 14.05 -13.0 15.3 -13.45 16.15 -13.9 17.05 -14.5 17.05 M-23.15 -3.75 Q-21.45 -5.3 -21.7 -0.45 -21.95 4.45 -23.0 7.0 L-25.25 13.3 Q-25.2 14.1 -24.3 15.55 -23.25 17.4 -19.0 17.75 -23.25 17.4 -24.3 15.55 -25.2 14.1 -25.25 13.3 L-23.0 7.0 Q-21.95 4.45 -21.7 -0.45 -21.45 -5.3 -23.15 -3.75 M25.55 3.6 L25.55 0.6 25.55 3.6" fill="url(#gradient0)" fill-rule="evenodd" stroke="none"/>
    <path d="M30.1 -4.05 L30.0 -2.1 29.95 -1.95 27.55 -2.4 27.35 -3.4 30.1 -4.05" fill="url(#gradient1)" fill-rule="evenodd" stroke="none"/>
    <path d="M13.7 -51.45 Q20.6 -48.2 26.35 -38.45 32.05 -28.7 33.3 -16.7 34.55 -4.75 30.85 6.6 L30.85 6.65 30.4 7.7 28.9 11.0 26.15 15.5 24.65 16.0 Q24.8 19.1 23.15 21.85 21.45 24.6 19.45 26.75 L16.0 30.4 12.45 33.9 Q7.05 38.8 -0.85 42.8 -8.75 46.8 -13.15 47.0 -17.55 47.15 -19.55 44.6 -21.6 42.05 -24.95 36.35 -28.35 30.65 -32.45 20.55 -36.5 10.4 -35.5 4.65 -34.5 -1.1 -34.3 -0.9 L-36.2 -4.8 Q-38.3 -8.9 -38.1 -15.1 -37.9 -21.35 -37.25 -24.45 -36.65 -27.6 -36.05 -29.25 -32.45 -38.55 -26.25 -46.2 -21.0 -52.55 -12.8 -54.1 -6.45 -55.4 0.2 -55.2 6.75 -54.75 13.7 -51.45 M27.35 -3.4 L26.65 -6.35 25.5 -6.3 25.2 -5.85 Q24.5 -3.7 22.55 -2.9 M30.1 -4.05 Q30.25 -9.65 25.6 -12.0 L24.85 -11.6 Q22.05 -10.15 21.4 -7.0 M30.1 -4.05 L30.0 -2.1 29.95 -1.95 Q29.6 0.9 28.45 3.7 L28.35 4.05 Q28.05 4.8 28.15 5.7 L28.15 7.55 27.9 8.65 27.25 10.2 Q26.05 12.1 23.5 12.15 L22.35 11.5 21.65 11.0 M27.55 -2.4 L27.35 -3.4 M25.55 0.6 L25.55 3.6 M-19.0 17.75 Q-23.25 17.4 -24.3 15.55 -25.2 14.1 -25.25 13.3 L-23.0 7.0 Q-21.95 4.45 -21.7 -0.45 -21.45 -5.3 -23.15 -3.75 M-13.0 14.05 Q-13.0 15.3 -13.45 16.15 -13.9 17.05 -14.5 17.05" fill="none" stroke="#000000" stroke-linecap="round" stroke-linejoin="round" stroke-width="1.0"/>
  </g>
  <defs>
    <radialGradient cx="0" cy="0" gradientTransform="matrix(0.0494, 0.0, 0.0, 0.0681, -16.1, -0.15)" gradientUnits="userSpaceOnUse" id="gradient0" r="819.2" spreadMethod="pad">
      <stop offset="0.0" stop-color="#f3d6c7"/>
      <stop offset="0.6274509803921569" stop-color="#ecc59d"/>
      <stop offset="1.0" stop-color="#e9bb8f"/>
    </radialGradient>
    <radialGradient cx="0" cy="0" gradientTransform="matrix(0.0494, 0.0, 0.0, 0.0681, -16.1, -0.15)" gradientUnits="userSpaceOnUse" id="gradient1" r="819.2" spreadMethod="pad">
      <stop offset="0.0" stop-color="#f1d3b8"/>
      <stop offset="0.6274509803921569" stop-color="#eecba8"/>
      <stop offset="1.0" stop-color="#e8b98a"/>
    </radialGradient>
  </defs>
</svg>
