<?xml version="1.0" encoding="UTF-8" standalone="no"?>
<svg xmlns:xlink="http://www.w3.org/1999/xlink" height="104.1px" width="99.4px" xmlns="http://www.w3.org/2000/svg">
  <g transform="matrix(1.0, 0.0, 0.0, 1.0, 0.5, 2.15)">
    <path d="M93.8 2.55 Q94.5 3.65 93.55 4.45 92.6 5.25 91.85 3.9 91.1 2.5 92.1 2.0 93.05 1.5 93.8 2.55 M95.15 3.6 Q94.65 2.85 95.3 2.4 L96.05 2.35 96.05 2.3 Q96.75 1.55 97.6 2.5 98.45 3.45 97.45 3.95 L96.15 4.0 Q95.55 4.25 95.15 3.6 M98.55 -0.7 Q97.9 -0.25 97.2 -1.0 96.45 -1.75 97.3 -2.05 98.15 -2.4 98.65 -1.75 99.2 -1.1 98.55 -0.7 M89.2 8.7 Q88.8 8.2 89.3 7.65 89.8 7.1 90.4 7.8 91.0 8.5 90.3 8.85 89.55 9.2 89.2 8.7 M85.95 10.2 Q86.35 10.75 85.8 11.2 85.3 11.65 84.9 10.9 84.45 10.15 85.0 9.85 85.55 9.6 85.95 10.2 M82.9 14.8 Q82.65 14.4 82.9 14.2 82.9 13.75 83.5 13.5 84.55 13.1 85.25 13.9 85.9 14.75 85.05 15.25 84.35 15.75 83.55 15.1 83.2 15.25 82.9 14.8 M85.65 13.25 Q86.1 12.7 86.7 13.4 87.25 14.05 86.55 14.4 85.85 14.7 85.5 14.25 85.15 13.75 85.65 13.25 M88.1 12.15 Q87.4 11.05 88.3 10.35 89.25 9.7 90.0 10.9 90.75 12.05 89.8 12.65 88.85 13.25 88.1 12.15 M80.1 15.65 Q80.8 16.7 79.9 17.45 78.95 18.25 78.25 16.9 77.5 15.6 78.45 15.1 79.4 14.6 80.1 15.65 M77.1 19.0 Q76.35 18.25 77.2 17.95 78.05 17.6 78.55 18.25 79.1 18.9 78.45 19.3 77.8 19.75 77.1 19.0 M77.6 21.85 Q78.25 22.9 77.4 23.4 76.55 23.95 75.95 22.95 75.35 22.0 76.15 21.45 76.4 21.25 76.6 21.25 76.3 20.65 76.85 20.05 77.4 19.45 78.1 20.25 78.85 21.05 77.95 21.45 L77.45 21.65 77.6 21.85 M74.55 25.75 Q74.65 26.0 74.35 26.15 L73.6 26.0 73.5 25.85 73.1 25.35 Q72.55 24.3 73.3 23.85 74.1 23.45 74.65 24.3 75.15 25.1 74.55 25.75 M72.95 28.3 Q73.5 28.95 72.85 29.25 72.2 29.6 71.85 29.1 71.5 28.65 71.95 28.15 72.4 27.65 72.95 28.3 M92.65 7.55 Q91.9 6.8 92.75 6.5 93.6 6.15 94.1 6.8 94.65 7.45 94.0 7.85 93.35 8.3 92.65 7.55 M69.05 30.35 Q68.55 29.55 69.2 29.1 69.85 28.6 70.4 29.45 70.95 30.3 70.25 30.75 69.55 31.2 69.05 30.35 M67.2 30.95 Q67.95 30.55 68.45 31.4 69.0 32.2 68.3 32.8 67.55 33.4 67.05 32.45 L66.85 32.6 Q66.35 32.95 65.75 32.35 65.2 31.8 65.9 31.5 L66.8 31.6 Q66.8 31.15 67.2 30.95 M64.15 34.15 Q63.75 33.65 64.25 33.1 64.75 32.55 65.35 33.25 65.95 33.95 65.25 34.3 64.5 34.65 64.15 34.15 M62.5 37.55 Q61.55 38.35 60.8 37.0 60.05 35.6 61.05 35.1 62.0 34.6 62.75 35.65 63.45 36.75 62.5 37.55 M60.15 37.6 Q60.75 38.3 60.2 38.7 60.7 39.5 59.85 40.05 58.95 40.65 57.9 39.6 56.9 38.55 58.1 38.05 L58.65 37.95 58.9 37.45 Q59.45 36.85 60.15 37.6 M60.25 41.0 Q61.0 42.15 60.05 42.75 59.15 43.3 58.4 42.25 57.75 41.15 58.65 40.5 59.55 39.85 60.25 41.0 M52.95 47.2 Q53.45 47.85 52.8 48.15 L51.9 48.05 51.85 48.45 52.1 48.75 Q52.75 49.75 51.85 50.55 50.95 51.3 50.25 50.0 49.7 48.95 50.2 48.45 49.75 47.65 50.4 47.15 51.1 46.65 51.65 47.55 L51.75 47.7 Q51.7 47.4 51.95 47.1 52.4 46.6 52.95 47.2 M54.9 42.4 Q55.6 42.0 56.15 42.8 56.65 43.6 55.95 44.15 55.25 44.75 54.75 43.75 54.2 42.75 54.9 42.4 M52.3 44.95 Q51.65 45.4 50.95 44.65 50.2 43.9 51.05 43.6 51.9 43.25 52.4 43.9 52.95 44.55 52.3 44.95 M49.75 52.1 Q50.7 53.2 49.55 53.75 48.4 54.3 47.85 53.5 47.25 52.7 48.05 51.85 48.8 51.05 49.75 52.1 M45.6 50.55 Q44.85 49.8 45.7 49.5 46.55 49.15 47.05 49.8 47.6 50.45 46.95 50.85 46.3 51.3 45.6 50.55 M44.25 54.35 L44.45 54.9 44.55 54.8 Q45.35 54.4 45.9 55.25 46.45 56.1 45.7 56.75 44.95 57.4 44.35 56.3 44.0 55.6 44.2 55.2 L44.15 55.2 Q43.7 55.5 43.35 54.95 43.05 54.45 43.45 54.1 43.9 53.8 44.25 54.35 M41.2 58.1 Q40.75 58.4 40.25 57.9 39.8 57.4 40.35 57.2 40.9 56.95 41.25 57.4 41.6 57.85 41.2 58.1 M38.95 58.0 Q38.1 58.45 37.65 57.85 37.25 57.25 37.85 56.6 38.4 56.0 39.1 56.8 39.85 57.6 38.95 58.0 M33.35 65.7 L33.45 65.55 Q34.1 64.85 34.95 65.75 35.75 66.7 34.75 67.15 L33.4 67.1 Q32.75 67.55 32.3 66.8 31.8 66.05 32.45 65.6 L33.35 65.7 M35.35 63.4 Q36.15 63.1 36.65 63.7 37.15 64.3 36.5 64.75 35.9 65.15 35.2 64.45 34.55 63.75 35.35 63.4 M37.35 62.85 Q36.65 63.45 36.15 62.45 35.85 61.9 35.95 61.55 L35.7 61.25 Q35.05 60.25 35.85 59.65 36.7 59.05 37.35 60.1 37.9 60.9 37.5 61.45 L37.55 61.5 Q38.05 62.3 37.35 62.85 M30.7 69.45 L29.9 69.55 Q29.05 70.0 28.1 69.05 27.1 68.0 28.25 67.55 29.3 67.1 29.95 67.75 30.45 67.65 30.85 68.2 31.3 68.9 30.7 69.45 M24.35 75.25 L24.0 76.0 Q23.35 76.55 22.85 75.65 22.35 74.7 23.0 74.35 L23.5 74.3 Q23.5 74.0 23.95 73.8 24.75 73.5 25.25 74.1 25.75 74.7 25.1 75.15 L24.35 75.25 M28.55 75.4 Q27.4 75.95 26.85 75.15 L26.7 74.9 26.55 75.0 Q26.15 75.25 25.9 74.8 25.6 74.35 25.95 74.1 26.3 73.85 26.6 74.3 26.65 73.9 27.05 73.5 27.8 72.7 28.75 73.75 29.7 74.85 28.55 75.4 M21.25 79.7 Q21.7 80.35 21.15 80.7 20.6 81.05 20.2 80.4 L20.15 80.3 19.75 80.45 20.05 80.8 Q20.6 81.6 19.9 82.2 19.15 82.8 18.6 81.8 18.05 80.75 18.8 80.35 L19.0 80.25 18.75 80.0 Q18.25 79.25 18.95 78.5 19.65 77.75 20.55 78.75 L20.9 79.35 21.25 79.7 M17.2 83.6 Q17.1 83.25 17.55 83.05 18.2 82.8 18.6 83.3 19.05 83.8 18.5 84.15 L18.25 84.3 Q18.65 84.9 17.9 85.3 17.0 85.7 16.55 85.1 16.1 84.5 16.7 83.85 16.95 83.6 17.2 83.6 M12.65 88.25 Q11.9 86.85 12.9 86.3 13.9 85.8 14.65 86.9 15.4 88.0 14.4 88.85 13.45 89.65 12.65 88.25 M15.1 86.0 Q15.75 85.55 16.3 86.35 16.8 87.2 16.15 87.6 15.45 88.05 14.95 87.25 14.45 86.5 15.1 86.0 M9.9 89.2 Q9.5 89.45 9.05 89.0 8.6 88.5 9.1 88.3 9.65 88.1 10.0 88.5 10.3 88.9 9.9 89.2 M0.0 98.2 Q0.85 97.75 1.5 98.7 2.1 99.65 1.25 100.35 0.45 101.05 -0.25 99.85 -0.9 98.65 0.0 98.2 M6.05 96.95 Q6.6 97.6 5.9 98.05 L5.2 98.2 5.0 98.3 Q4.2 98.7 3.75 98.1 3.35 97.55 3.9 96.95 4.15 96.65 4.45 96.7 L4.5 96.7 4.35 96.5 Q3.85 95.55 4.5 95.2 5.15 94.9 5.65 95.6 6.0 96.15 5.7 96.65 L6.05 96.95 M9.05 93.4 Q8.55 92.65 9.2 92.15 9.85 91.7 10.4 92.5 10.9 93.35 10.25 93.75 9.55 94.2 9.05 93.4 M8.9 91.15 Q8.45 90.55 9.1 89.85 9.7 89.2 10.5 90.05 11.25 90.95 10.3 91.35 9.4 91.8 8.9 91.15 M1.7 101.45 Q1.25 100.75 1.85 100.35 2.45 99.9 2.9 100.65 3.4 101.4 2.8 101.8 2.15 102.2 1.7 101.45" fill="#69f3e4" fill-opacity="0.77254903" fill-rule="evenodd" stroke="none"/>
  </g>
</svg>
