<?xml version="1.0" encoding="UTF-8" standalone="no"?>
<svg xmlns:xlink="http://www.w3.org/1999/xlink" height="39.55px" width="82.35px" xmlns="http://www.w3.org/2000/svg">
  <g transform="matrix(1.0, 0.0, 0.0, 1.0, 9.1, 8.0)">
    <path d="M10.95 -7.55 L11.6 -7.4 Q16.15 -4.45 21.65 -4.75 L21.85 -4.4 Q16.95 -1.2 11.5 -4.5 L10.6 -5.25 Q5.05 -6.85 0.75 -2.4 0.2 -1.85 -0.5 -1.65 -0.65 -4.5 4.05 -6.55 L7.5 -8.0 10.95 -7.55 M55.6 -4.0 Q62.65 -3.2 68.5 -6.65 69.5 -6.5 69.95 -5.6 L70.1 -5.25 Q62.05 3.45 52.0 -3.25 L51.6 -3.5 Q48.8 -1.05 46.0 -1.65 L46.05 -2.35 46.35 -3.15 Q47.35 -3.65 47.75 -4.6 L48.0 -5.0 Q52.35 -8.15 55.6 -4.0 M45.1 21.85 Q36.25 32.75 22.65 25.5 18.7 23.4 14.5 22.4 9.7 21.25 6.6 25.4 6.25 25.85 5.6 26.1 5.45 23.1 8.6 20.7 10.25 19.45 12.15 18.8 L13.0 18.5 Q21.2 19.75 29.35 22.5 33.6 23.95 37.45 21.65 41.15 19.45 44.75 20.35 L45.0 20.75 Q45.35 21.3 45.1 21.85 M43.35 31.25 L43.05 30.45 43.0 29.75 Q44.8 27.65 47.1 26.1 48.5 25.2 50.0 25.35 56.45 28.65 63.65 27.8 L63.85 28.0 63.85 28.7 63.55 29.45 63.35 29.75 Q56.15 32.85 49.85 28.85 L49.5 28.6 Q46.55 29.05 44.2 31.05 L43.35 31.25 M1.85 14.6 Q-0.25 18.4 -6.0 15.75 -7.25 15.6 -8.15 16.45 L-8.5 16.6 -9.0 16.5 Q-9.35 15.65 -8.7 14.95 L-8.45 14.65 -7.75 13.6 -5.5 13.25 Q-2.15 14.85 1.65 14.45 L1.85 14.6 M11.85 30.6 Q7.5 30.0 2.0 31.5 0.8 31.8 0.35 30.75 L0.4 30.4 Q0.55 30.0 0.85 29.75 L1.5 29.35 4.25 29.6 6.75 28.15 Q7.45 27.7 8.0 27.5 11.15 27.05 13.15 29.2 L13.35 29.5 13.35 29.85 Q13.3 30.75 12.5 30.75 L11.85 30.6" fill="#000000" fill-opacity="0.36078432" fill-rule="evenodd" stroke="none"/>
    <path d="M66.6 16.0 L66.35 16.25 Q54.1 21.95 41.7 14.55 32.4 8.95 24.25 15.6 34.2 4.85 48.8 11.9 56.85 15.8 65.45 13.1 70.0 11.7 73.25 8.6 70.65 12.3 66.6 16.0" fill="#000000" fill-opacity="0.36078432" fill-rule="evenodd" stroke="none"/>
    <path d="M52.5 6.0 Q40.95 18.5 24.05 9.3 22.15 8.25 20.85 6.5 11.3 1.9 3.7 8.15 2.8 8.9 1.75 8.35 3.55 3.65 9.45 2.4 L14.0 1.5 Q24.5 3.7 35.0 7.15 L43.7 6.9 51.6 3.75 51.85 4.15 52.0 4.5 52.25 5.25 52.5 6.0" fill="#000000" fill-opacity="0.36078432" fill-rule="evenodd" stroke="none"/>
  </g>
</svg>
