<?xml version="1.0" encoding="UTF-8" standalone="no"?>
<svg xmlns:xlink="http://www.w3.org/1999/xlink" height="529.0px" width="721.0px" xmlns="http://www.w3.org/2000/svg">
  <g transform="matrix(1.0, 0.0, 0.0, 1.0, 0.5, 0.5)">
    <path d="M712.0 520.0 L712.0 8.0 8.0 8.0 8.0 520.0 712.0 520.0 M720.0 528.0 L0.0 528.0 0.0 0.0 720.0 0.0 720.0 528.0" fill="url(#gradient0)" fill-rule="evenodd" stroke="none"/>
    <path d="M712.0 520.0 L8.0 520.0 8.0 8.0 712.0 8.0 712.0 520.0 M720.0 528.0 L0.0 528.0 0.0 0.0 720.0 0.0 720.0 528.0" fill="none" stroke="#000000" stroke-linecap="round" stroke-linejoin="round" stroke-width="1.0"/>
    <path d="M653.6 442.5 L653.05 442.7 653.1 443.0 654.1 445.45 655.05 447.95 657.35 454.1 658.35 456.55 Q661.45 455.9 661.45 457.5 661.45 458.35 659.4 459.0 L657.95 459.4 657.45 459.85 Q655.9 461.3 654.15 461.3 651.1 461.3 646.15 455.7 642.85 451.95 640.0 447.4 L639.7 447.6 642.3 455.7 642.3 455.8 Q644.1 459.55 644.45 461.3 647.95 460.75 647.95 462.3 647.95 462.95 644.6 464.1 641.25 465.2 639.25 465.2 637.6 465.2 637.6 464.05 637.6 463.45 638.95 462.85 638.2 462.4 637.55 459.85 L636.55 455.0 635.35 451.0 Q634.7 448.95 634.6 447.55 L632.9 447.8 632.3 447.7 632.2 447.15 Q632.2 446.35 635.9 444.9 638.8 443.8 639.8 444.25 L640.35 444.2 646.45 451.2 Q652.3 458.15 654.15 458.15 655.2 457.6 655.3 457.35 654.05 455.2 652.0 449.3 650.35 444.55 650.15 443.4 L649.05 443.45 Q648.2 443.45 647.95 442.95 L647.85 442.4 Q647.85 441.6 652.2 440.45 656.5 439.3 656.5 440.95 656.5 441.55 653.6 442.5 M600.05 451.95 L599.95 456.55 603.55 456.3 603.5 455.95 Q603.5 454.7 604.85 455.3 606.15 455.85 606.15 457.1 L605.65 459.15 604.75 459.35 Q604.2 459.35 604.0 458.85 L603.85 458.25 599.9 458.45 Q599.95 463.3 601.05 468.0 602.1 468.15 602.1 468.75 L601.9 469.4 600.65 469.75 600.55 469.75 600.5 469.75 597.95 469.85 Q594.65 469.85 593.9 469.3 L593.8 468.75 Q593.8 468.25 594.15 468.0 594.65 467.55 596.4 467.3 594.6 456.25 594.35 452.6 L590.85 452.75 Q590.0 452.75 590.0 451.95 590.0 450.95 592.7 450.6 L602.1 449.55 607.1 448.4 Q609.8 447.95 609.8 449.45 609.05 454.9 608.35 454.9 607.2 454.9 607.15 453.05 L607.3 450.65 601.05 451.8 600.05 451.95 M599.1 452.1 L598.35 452.2 598.35 452.35 598.1 455.65 598.0 456.65 598.75 456.6 Q598.75 455.15 598.9 454.1 L599.1 452.15 599.1 452.1 M591.3 465.75 Q591.55 466.6 591.35 467.6 L591.5 469.0 Q591.5 469.8 590.8 470.25 588.9 471.5 580.2 471.5 L576.05 471.3 574.25 471.6 572.05 471.35 569.95 470.8 Q569.85 470.95 569.85 470.45 569.85 470.35 570.3 470.2 L571.5 468.8 571.4 468.4 570.95 464.6 570.5 457.1 570.55 454.05 569.45 453.65 Q568.4 453.25 568.05 452.9 569.1 451.8 571.6 451.5 L573.7 451.65 574.9 451.6 Q578.5 451.6 578.5 452.75 578.5 453.55 577.45 453.7 L574.45 453.95 575.2 460.3 576.0 469.15 578.15 469.4 584.5 469.05 589.05 468.6 589.15 467.55 Q589.15 466.6 588.1 466.3 587.0 466.0 587.0 465.15 587.0 464.05 588.55 464.05 590.8 464.05 591.3 465.75 M597.8 459.05 Q597.8 460.5 598.4 464.1 598.7 465.85 599.05 466.6 L599.65 467.45 599.15 463.8 598.75 458.5 597.85 458.5 597.8 459.05 M573.75 454.0 L572.45 454.1 Q573.5 458.65 572.9 465.15 573.0 467.5 574.6 468.55 574.25 466.9 574.0 463.8 L573.6 457.15 Q573.6 455.15 573.75 454.0 M567.8 469.8 L567.8 469.95 567.85 470.3 Q567.85 470.85 566.5 471.2 L557.1 472.25 551.4 472.9 550.2 473.2 Q548.75 473.2 548.85 471.6 L549.2 469.95 Q548.5 465.0 548.5 462.85 548.5 460.5 547.3 458.35 L546.1 455.95 Q546.1 454.35 549.9 454.0 L550.2 454.0 550.75 453.95 560.95 453.7 Q561.2 452.75 562.85 453.2 564.85 453.75 564.85 455.35 564.85 456.65 564.2 456.65 L563.3 455.6 Q562.8 454.85 561.9 454.75 L559.45 455.45 551.65 456.3 Q552.65 458.6 552.85 461.4 L557.75 460.35 564.3 459.6 564.2 459.3 Q564.2 457.2 565.45 459.15 566.7 461.1 566.7 462.05 566.7 463.05 566.0 463.05 565.5 463.05 565.0 461.75 L564.55 461.85 558.25 462.7 553.25 463.5 554.4 469.85 565.5 469.3 565.7 468.65 Q565.7 467.3 566.35 466.8 L566.65 467.9 Q566.65 468.5 567.25 469.0 L567.8 469.8 M638.55 454.7 L637.35 451.0 Q636.45 448.25 636.3 447.05 L635.15 447.4 Q637.6 450.9 639.85 462.15 L639.85 462.5 641.7 461.95 Q641.1 460.8 640.4 458.9 L639.65 456.65 Q638.65 455.5 638.55 454.7 M634.95 464.55 Q634.95 465.2 634.4 465.45 L631.95 465.75 Q629.35 465.75 626.95 459.15 L626.3 457.0 621.55 457.55 621.3 457.55 Q620.65 460.4 620.65 461.6 L620.8 465.25 620.8 467.0 Q620.45 468.0 618.35 468.0 L615.8 468.6 613.0 469.2 Q612.25 469.2 612.0 468.7 L611.9 468.2 Q611.9 467.5 615.1 466.65 L615.05 466.6 614.95 466.0 Q614.95 465.15 617.95 456.35 L618.65 451.4 Q618.9 449.4 619.7 448.25 L617.85 448.4 617.25 447.75 Q617.25 446.9 622.6 445.75 627.9 444.65 627.9 446.25 627.9 447.35 625.1 447.75 626.2 449.5 627.25 452.9 630.25 459.05 631.2 463.7 L633.7 463.55 Q635.1 463.55 634.95 464.55 M623.5 448.35 Q622.1 448.35 621.75 452.1 L621.55 455.45 Q622.5 455.15 623.95 454.8 L625.55 454.5 623.75 448.45 Q624.0 448.35 623.5 448.35 M618.85 457.55 L616.0 466.4 Q618.75 465.5 618.7 464.25 618.55 461.35 618.8 459.1 619.45 457.2 619.75 454.4 L618.85 457.55 M508.55 448.3 Q502.55 449.75 495.6 452.5 480.5 458.45 480.5 463.45 480.5 465.5 482.85 467.2 485.8 469.35 491.25 469.35 498.45 469.35 502.7 465.6 505.8 462.85 505.8 460.45 L505.35 459.3 Q504.75 458.5 503.95 458.5 L498.8 459.05 497.2 459.6 496.8 459.5 Q496.7 459.7 496.7 459.2 496.7 458.6 498.7 458.05 500.95 457.4 504.05 457.4 505.85 457.4 506.6 458.9 507.0 459.65 507.0 460.45 507.0 463.8 503.2 466.8 498.05 470.85 488.45 470.85 483.9 470.85 481.05 467.75 478.85 465.4 478.85 463.45 478.85 459.55 484.85 455.8 490.1 452.5 501.65 448.4 L507.5 446.4 514.05 445.25 Q525.2 444.05 531.3 445.45 536.65 446.7 536.65 449.35 536.65 451.8 533.8 455.75 530.6 460.1 527.25 460.8 L526.8 460.9 Q534.65 461.4 539.75 463.35 545.4 465.45 545.4 468.6 545.4 472.1 538.7 474.55 531.4 477.25 519.6 477.25 L504.6 476.15 502.95 475.75 502.75 475.75 Q501.75 475.75 501.1 475.05 L500.4 474.45 500.45 474.2 Q500.5 474.1 500.6 474.1 L500.45 473.65 Q500.45 473.35 501.0 472.35 501.55 471.35 501.85 471.15 L502.0 472.15 502.1 473.1 Q502.25 473.6 503.0 474.15 L503.4 474.55 507.0 474.85 514.4 475.15 514.35 474.45 514.65 472.1 Q514.65 468.8 514.1 465.3 L512.8 465.45 Q511.9 465.45 511.6 465.0 L511.45 464.5 Q511.45 463.8 513.65 463.05 512.9 459.5 511.55 455.8 509.1 450.1 508.55 448.3 M513.8 447.3 L514.0 448.9 514.35 450.6 515.95 457.55 517.1 462.1 519.0 461.6 518.85 461.15 516.75 454.65 Q515.0 449.0 514.95 447.15 L513.8 447.3 M517.65 464.25 L517.8 464.75 Q518.8 468.45 518.8 471.35 518.8 474.15 518.6 474.75 L518.45 475.25 521.5 475.25 520.65 470.0 519.5 463.65 517.85 464.15 517.65 464.25 M522.35 469.2 L522.05 475.25 523.8 475.25 Q531.6 475.25 537.9 472.85 543.65 470.65 543.65 468.5 543.65 465.95 537.1 464.25 531.6 462.8 525.95 462.8 L521.3 463.2 Q522.35 467.2 522.35 469.2 M523.15 460.45 Q534.85 456.7 534.85 449.4 534.85 448.4 530.35 447.6 L520.4 446.75 515.95 447.0 519.3 456.5 520.75 461.1 523.15 460.45 M549.2 456.55 Q550.2 457.95 550.7 459.8 L550.0 456.5 549.2 456.55 M551.55 463.75 L551.3 463.8 551.85 470.2 553.15 470.0 551.55 463.75" fill="#5a4d36" fill-rule="evenodd" stroke="none"/>
  </g>
  <defs>
    <linearGradient gradientTransform="matrix(0.1679, 0.4048, -0.2968, 0.1232, 360.0, 264.0)" gradientUnits="userSpaceOnUse" id="gradient0" spreadMethod="pad" x1="-819.2" x2="819.2">
      <stop offset="0.0" stop-color="#663300"/>
      <stop offset="0.4666666666666667" stop-color="#ba5e45"/>
      <stop offset="0.596078431372549" stop-color="#e9c2ba"/>
      <stop offset="0.6862745098039216" stop-color="#984d29"/>
      <stop offset="1.0" stop-color="#663300"/>
    </linearGradient>
  </defs>
</svg>
