<?xml version="1.0" encoding="UTF-8" standalone="no"?>
<svg xmlns:xlink="http://www.w3.org/1999/xlink" height="28.6px" width="86.9px" xmlns="http://www.w3.org/2000/svg">
  <g transform="matrix(1.0, 0.0, 0.0, 1.0, 0.75, 27.8)">
    <path d="M7.7 -23.25 L8.0 -23.15 8.5 -23.5 18.5 -24.2 24.45 -23.95 27.7 -24.1 39.4 -23.35 48.45 -23.2 48.65 -23.2 Q54.35 -23.1 60.05 -23.5 L71.45 -24.75 76.1 -24.65 76.55 -24.65 Q76.55 -19.6 77.05 -14.4 L77.55 -8.6 Q77.6 -7.45 77.9 -6.35 77.6 -7.45 77.55 -8.6 L77.05 -14.4 Q76.55 -19.6 76.55 -24.65 76.5 -25.35 76.9 -25.85 77.25 -26.35 77.75 -26.35 L78.75 -25.3 79.6 -26.8 84.3 -27.0 84.6 -25.7 84.6 -25.5 85.05 -18.35 85.0 -18.25 85.05 -18.25 84.9 -14.8 85.35 -6.75 Q83.95 -5.0 81.65 -5.0 79.45 -4.75 78.4 -6.5 L77.9 -6.35 77.95 -6.25 76.95 -5.7 68.05 -5.0 60.3 -4.5 48.85 -3.8 48.65 -3.8 38.0 -3.85 27.6 -4.2 Q22.05 -4.55 16.45 -4.1 13.25 -4.15 10.65 -2.65 10.4 -4.6 8.35 -5.0 L6.5 -5.35 Q4.45 -5.5 3.15 -3.8 L2.55 -2.55 3.15 -3.8 Q4.45 -5.5 6.5 -5.35 L8.35 -5.0 Q10.4 -4.6 10.65 -2.65 L10.2 -1.95 9.1 -2.25 8.7 -1.45 Q7.5 0.15 5.5 0.0 3.15 -0.3 2.55 -2.55 L1.65 -2.55 1.05 -9.7 3.05 -11.7 1.05 -9.7 0.2 -18.0 0.05 -20.9 0.25 -21.7 Q1.25 -23.15 3.05 -23.4 L7.7 -23.25 9.25 -12.5 9.7 -6.85 Q9.7 -5.55 10.5 -4.55 9.7 -5.55 9.7 -6.85 L9.25 -12.5 7.7 -23.25 M1.35 -14.0 L2.75 -16.35 1.35 -14.0 M2.75 -20.9 L0.2 -18.0 2.75 -20.9 M5.9 -2.55 Q6.25 -2.9 6.65 -3.05 8.35 -3.95 9.1 -2.25 8.35 -3.95 6.65 -3.05 6.25 -2.9 5.9 -2.55 M81.55 -25.7 L78.75 -25.3 81.55 -25.7 M78.75 -25.3 L78.6 -24.05 Q80.1 -23.0 82.0 -23.55 83.2 -23.8 84.1 -24.65 L84.6 -25.5 84.1 -24.65 Q83.2 -23.8 82.0 -23.55 80.1 -23.0 78.6 -24.05 L78.75 -25.3 M82.4 -9.4 L84.1 -11.15 82.4 -9.4 M82.4 -18.9 L83.95 -20.55 82.4 -18.9 M82.7 -12.85 L84.9 -14.8 82.7 -12.85 M82.7 -16.6 L85.0 -18.25 82.7 -16.6" fill="#d8c49b" fill-rule="evenodd" stroke="none"/>
    <path d="M8.0 -23.15 L7.7 -23.25 9.25 -12.5 9.7 -6.85 Q9.7 -5.55 10.5 -4.55 M7.7 -23.25 L3.05 -23.4 Q1.25 -23.15 0.25 -21.7 L0.05 -20.9 0.2 -18.0 2.75 -20.9 M2.75 -16.35 L1.35 -14.0 M3.05 -11.7 L1.05 -9.7 1.65 -2.55 M2.55 -2.55 L3.15 -3.8 Q4.45 -5.5 6.5 -5.35 L8.35 -5.0 Q10.4 -4.6 10.65 -2.65 13.25 -4.15 16.45 -4.1 22.05 -4.55 27.6 -4.2 L38.0 -3.85 48.65 -3.8 48.85 -3.8 60.3 -4.5 68.05 -5.0 76.95 -5.7 M77.95 -6.25 L77.9 -6.35 Q77.6 -7.45 77.55 -8.6 L77.05 -14.4 Q76.55 -19.6 76.55 -24.65 M76.1 -24.65 L71.45 -24.75 60.05 -23.5 Q54.35 -23.1 48.65 -23.2 L48.45 -23.2 39.4 -23.35 27.7 -24.1 24.45 -23.95 18.5 -24.2 8.5 -23.5 M2.55 -2.55 Q3.15 -0.3 5.5 0.0 7.5 0.15 8.7 -1.45 L9.1 -2.25 Q8.35 -3.95 6.65 -3.05 6.25 -2.9 5.9 -2.55 M10.2 -1.95 L10.65 -2.65 M0.2 -18.0 L1.05 -9.7 M77.75 -26.35 Q77.25 -26.35 76.9 -25.85 76.5 -25.35 76.55 -24.65 M78.75 -25.3 L81.55 -25.7 M77.75 -26.35 L79.6 -26.8 84.3 -27.0 84.6 -25.7 84.6 -25.5 85.05 -18.35 85.05 -18.25 84.9 -14.8 85.35 -6.75 Q83.95 -5.0 81.65 -5.0 79.45 -4.75 78.4 -6.5 M84.6 -25.5 L84.1 -24.65 Q83.2 -23.8 82.0 -23.55 80.1 -23.0 78.6 -24.05 L78.75 -25.3 M84.6 -25.7 L84.6 -25.5 M85.0 -18.25 L85.05 -18.35 M85.0 -18.25 L82.7 -16.6 M84.9 -14.8 L82.7 -12.85 M83.95 -20.55 L82.4 -18.9 M84.1 -11.15 L82.4 -9.4" fill="none" stroke="#5a4d36" stroke-linecap="round" stroke-linejoin="round" stroke-width="1.6"/>
  </g>
</svg>
