<?xml version="1.0" encoding="UTF-8" standalone="no"?>
<svg xmlns:xlink="http://www.w3.org/1999/xlink" height="13.05px" width="39.1px" xmlns="http://www.w3.org/2000/svg">
  <g transform="matrix(1.0, 0.0, 0.0, 1.0, -22.9, 21.7)">
    <path d="M25.75 -16.85 Q23.65 -16.4 23.4 -18.3 23.35 -18.7 23.6 -19.05 L24.55 -20.05 Q26.0 -21.25 28.05 -21.2 L29.95 -20.85 31.4 -19.9 Q33.25 -17.9 31.15 -16.05 30.3 -15.25 29.2 -15.25 27.6 -15.25 27.9 -13.8 28.05 -13.25 28.6 -12.85 M36.95 -17.75 L35.05 -18.1 34.95 -18.6 Q35.05 -20.85 37.5 -20.7 L40.05 -20.5 Q41.15 -20.4 41.85 -19.45 L42.15 -18.8 42.05 -18.0 Q41.7 -17.05 40.65 -16.9 38.55 -16.5 38.65 -14.6 38.65 -14.3 38.95 -14.0 M29.2 -9.15 L28.9 -9.15 M39.2 -9.15 L39.45 -9.5 M57.55 -18.85 L54.95 -19.0 Q54.8 -19.0 54.65 -19.15 54.5 -20.25 55.8 -20.45 L57.55 -20.85 59.6 -20.65 61.15 -19.85 61.45 -19.45 Q61.6 -18.5 60.95 -17.75 60.2 -16.9 59.05 -16.55 L57.45 -15.55 Q57.1 -15.15 57.25 -14.7 57.55 -13.85 58.1 -13.15 M46.95 -18.0 Q45.4 -17.75 45.15 -18.95 45.1 -19.4 45.65 -19.75 L47.25 -20.15 49.25 -20.05 50.85 -19.75 51.7 -19.1 Q52.65 -17.7 51.15 -16.75 50.55 -16.3 49.8 -16.05 48.8 -15.7 48.0 -15.15 47.65 -14.85 47.85 -14.45 L48.65 -13.7 M49.25 -9.7 Q49.65 -9.7 49.5 -10.15 M57.8 -10.0 L58.1 -10.0 58.4 -10.0" fill="none" stroke="#5a4d36" stroke-linecap="round" stroke-linejoin="round" stroke-width="1.0"/>
  </g>
</svg>
