<?xml version="1.0" encoding="UTF-8" standalone="no"?>
<svg xmlns:xlink="http://www.w3.org/1999/xlink" height="28.6px" width="86.9px" xmlns="http://www.w3.org/2000/svg">
  <g transform="matrix(1.0, 0.0, 0.0, 1.0, 0.7, 0.8)">
    <path d="M78.8 1.7 L78.65 2.95 Q80.15 4.0 82.05 3.45 83.25 3.2 84.15 2.35 L84.65 1.5 84.15 2.35 Q83.25 3.2 82.05 3.45 80.15 4.0 78.65 2.95 L78.8 1.7 79.65 0.2 84.35 0.0 84.65 1.3 84.65 1.5 85.1 8.65 85.05 8.75 85.1 8.75 84.95 12.2 85.4 20.25 Q84.0 22.0 81.7 22.0 79.5 22.25 78.45 20.5 L77.95 20.65 77.6 18.4 77.1 12.6 Q76.6 7.4 76.6 2.35 76.6 7.4 77.1 12.6 L77.6 18.4 77.95 20.65 78.0 20.75 77.0 21.3 68.1 22.0 60.35 22.5 48.9 23.2 48.7 23.2 38.05 23.15 27.65 22.8 Q22.1 22.45 16.5 22.9 13.3 22.85 10.7 24.35 10.45 22.4 8.4 22.0 L6.55 21.65 Q4.5 21.5 3.2 23.2 L2.6 24.45 3.2 23.2 Q4.5 21.5 6.55 21.65 L8.4 22.0 Q10.45 22.4 10.7 24.35 L10.25 25.05 9.15 24.75 8.75 25.55 Q7.55 27.15 5.55 27.0 3.2 26.7 2.6 24.45 L1.7 24.45 1.1 17.3 3.1 15.3 1.1 17.3 0.25 9.0 0.1 6.1 0.3 5.3 Q1.3 3.85 3.1 3.6 L7.75 3.75 8.05 3.85 8.55 3.5 18.55 2.8 24.5 3.05 27.75 2.9 39.45 3.65 48.5 3.8 48.7 3.8 Q54.4 3.9 60.1 3.5 L71.5 2.25 76.15 2.35 76.6 2.35 Q76.55 1.65 76.95 1.15 77.3 0.65 77.8 0.65 L78.8 1.7 81.6 1.3 78.8 1.7 M82.75 14.15 L84.95 12.2 82.75 14.15 M82.75 10.4 L85.05 8.75 82.75 10.4 M82.45 17.6 L84.15 15.85 82.45 17.6 M82.45 8.1 L84.0 6.45 82.45 8.1 M10.55 22.45 Q9.75 21.45 9.75 20.15 L9.3 14.5 7.75 3.75 9.3 14.5 9.75 20.15 Q9.75 21.45 10.55 22.45 M2.8 6.1 L0.25 9.0 2.8 6.1 M5.95 24.45 L6.7 23.95 Q8.4 23.05 9.15 24.75 8.4 23.05 6.7 23.95 L5.95 24.45 M1.4 13.0 L2.8 10.65 1.4 13.0" fill="#d8c49b" fill-rule="evenodd" stroke="none"/>
    <path d="M84.65 1.5 L84.15 2.35 Q83.25 3.2 82.05 3.45 80.15 4.0 78.65 2.95 L78.8 1.7 81.6 1.3 M77.8 0.65 Q77.3 0.65 76.95 1.15 76.55 1.65 76.6 2.35 76.6 7.4 77.1 12.6 L77.6 18.4 77.95 20.65 M78.45 20.5 Q79.5 22.25 81.7 22.0 84.0 22.0 85.4 20.25 L84.95 12.2 82.75 14.15 M84.65 1.5 L84.65 1.3 84.35 0.0 79.65 0.2 77.8 0.65 M84.65 1.3 L84.65 1.5 85.1 8.65 85.1 8.75 84.95 12.2 M85.05 8.75 L82.75 10.4 M85.05 8.75 L85.1 8.65 M84.0 6.45 L82.45 8.1 M84.15 15.85 L82.45 17.6 M76.15 2.35 L71.5 2.25 60.1 3.5 Q54.4 3.9 48.7 3.8 L48.5 3.8 39.45 3.65 27.75 2.9 24.5 3.05 18.55 2.8 8.55 3.5 M8.05 3.85 L7.75 3.75 9.3 14.5 9.75 20.15 Q9.75 21.45 10.55 22.45 M78.0 20.75 L77.95 20.65 M10.7 24.35 Q13.3 22.85 16.5 22.9 22.1 22.45 27.65 22.8 L38.05 23.15 48.7 23.2 48.9 23.2 60.35 22.5 68.1 22.0 77.0 21.3 M7.75 3.75 L3.1 3.6 Q1.3 3.85 0.3 5.3 L0.1 6.1 0.25 9.0 2.8 6.1 M1.1 17.3 L1.7 24.45 M2.6 24.45 L3.2 23.2 Q4.5 21.5 6.55 21.65 L8.4 22.0 Q10.45 22.4 10.7 24.35 L10.25 25.05 M9.15 24.75 L8.75 25.55 Q7.55 27.15 5.55 27.0 3.2 26.7 2.6 24.45 M9.15 24.75 Q8.4 23.05 6.7 23.95 L5.95 24.45 M1.1 17.3 L3.1 15.3 M0.25 9.0 L1.1 17.3 M2.8 10.65 L1.4 13.0" fill="none" stroke="#5a4d36" stroke-linecap="round" stroke-linejoin="round" stroke-width="1.6"/>
    <path d="M64.35 11.7 L67.65 11.35 67.8 11.25 Q67.85 10.7 67.2 10.5 65.75 10.1 64.35 10.8 63.7 11.1 63.75 11.85 63.75 12.65 64.2 13.25 64.8 14.05 65.75 14.25 L68.35 14.4 69.25 14.0 M63.45 15.0 L61.7 14.85 Q60.95 14.65 60.55 14.0 L60.2 12.85 Q60.15 11.1 58.4 11.0 57.05 10.9 55.9 11.75 L56.0 12.15 56.6 14.6 Q56.7 15.35 57.1 15.9 M55.9 11.75 L55.8 10.95 M52.5 10.4 L52.65 10.1 M45.7 16.05 L45.8 15.6 46.0 13.45 Q46.45 10.65 47.15 7.95 47.1 9.6 47.45 11.2 L48.15 13.55 48.55 12.65 49.35 9.5 49.85 7.65 50.05 9.5 51.0 13.6 52.05 15.9 M53.8 15.3 L53.35 13.15 M33.4 15.9 L33.3 15.6 Q32.85 13.0 34.4 10.95 35.4 12.1 35.45 13.85 L35.55 14.45 35.7 14.15 36.55 12.05 37.3 10.8 Q37.65 13.05 38.3 15.25 L38.75 16.05 M22.7 9.8 Q23.25 9.5 22.8 8.85 L22.2 8.4 20.55 8.35 Q19.8 8.55 19.35 9.15 18.6 10.2 18.35 11.45 18.15 13.0 18.75 14.35 19.45 15.75 20.9 16.25 22.5 16.85 24.15 16.25 L26.2 14.9 26.3 14.85 26.35 14.6 26.45 14.45 26.3 14.85 25.5 18.05 25.45 18.7 M31.65 15.3 Q30.85 16.3 29.75 15.85 28.95 15.55 28.9 14.95 L29.0 13.95 Q29.15 13.25 29.65 12.65 L31.2 11.4 Q30.9 13.15 29.0 13.95 M23.15 14.45 Q25.25 13.65 27.45 13.25" fill="none" stroke="#5a4d36" stroke-linecap="round" stroke-linejoin="round" stroke-width="1.0"/>
  </g>
</svg>
