<?xml version="1.0" encoding="UTF-8" standalone="no"?>
<svg xmlns:xlink="http://www.w3.org/1999/xlink" height="28.6px" width="86.9px" xmlns="http://www.w3.org/2000/svg">
  <g transform="matrix(1.0, 0.0, 0.0, 1.0, 103.1, -0.8)">
    <path d="M-22.75 1.8 L-18.05 1.6 -17.75 2.9 -17.75 3.1 -17.3 10.25 -17.35 10.35 -17.3 10.35 -17.45 13.8 -17.0 21.85 Q-18.4 23.6 -20.7 23.6 -22.9 23.85 -23.95 22.1 L-24.45 22.25 -24.4 22.35 -25.4 22.9 -34.3 23.6 -42.05 24.1 -53.5 24.8 -53.7 24.8 -64.35 24.75 -74.75 24.4 Q-80.3 24.05 -85.9 24.5 -89.1 24.45 -91.7 25.95 L-92.15 26.65 -93.25 26.35 -93.65 27.15 Q-94.85 28.75 -96.85 28.6 -99.2 28.3 -99.8 26.05 L-100.7 26.05 -101.3 18.9 -102.15 10.6 -102.3 7.7 -102.1 6.9 Q-101.1 5.45 -99.3 5.2 L-94.65 5.35 -94.35 5.45 -93.85 5.1 -83.85 4.4 -77.9 4.65 -74.65 4.5 -62.95 5.25 -53.9 5.4 -53.7 5.4 Q-48.0 5.5 -42.3 5.1 L-30.9 3.85 -26.25 3.95 -25.8 3.95 Q-25.85 3.25 -25.45 2.75 -25.1 2.25 -24.6 2.25 L-23.6 3.3 -22.75 1.8 M-20.8 2.9 L-23.6 3.3 -20.8 2.9 M-23.6 3.3 L-23.75 4.55 Q-22.25 5.6 -20.35 5.05 -19.15 4.8 -18.25 3.95 L-17.75 3.1 -18.25 3.95 Q-19.15 4.8 -20.35 5.05 -22.25 5.6 -23.75 4.55 L-23.6 3.3 M-19.95 9.7 L-18.4 8.05 -19.95 9.7 M-19.65 12.0 L-17.35 10.35 -19.65 12.0 M-99.6 7.7 L-102.15 10.6 -99.6 7.7 M-99.3 16.9 L-101.3 18.9 -99.3 16.9 M-96.45 26.05 L-95.7 25.55 Q-94.0 24.65 -93.25 26.35 -94.0 24.65 -95.7 25.55 L-96.45 26.05 M-101.0 14.6 L-99.6 12.25 -101.0 14.6 M-99.8 26.05 L-99.2 24.8 Q-97.9 23.1 -95.85 23.25 L-94.0 23.6 Q-91.95 24.0 -91.7 25.95 -91.95 24.0 -94.0 23.6 L-95.85 23.25 Q-97.9 23.1 -99.2 24.8 L-99.8 26.05 M-91.85 24.05 Q-92.65 23.05 -92.65 21.75 -92.75 18.9 -93.1 16.1 -93.8 10.65 -94.65 5.35 -93.8 10.65 -93.1 16.1 -92.75 18.9 -92.65 21.75 -92.65 23.05 -91.85 24.05 M-24.45 22.25 L-24.8 20.0 -25.3 14.2 Q-25.8 9.0 -25.8 3.95 -25.8 9.0 -25.3 14.2 L-24.8 20.0 -24.45 22.25 M-19.65 15.75 L-17.45 13.8 -19.65 15.75 M-19.95 19.2 L-18.25 17.45 -19.95 19.2" fill="#d8c49b" fill-rule="evenodd" stroke="none"/>
    <path d="M-17.75 3.1 L-17.75 2.9 -18.05 1.6 -22.75 1.8 M-23.6 3.3 L-20.8 2.9 M-17.75 3.1 L-17.75 2.9 M-17.75 3.1 L-17.3 10.25 -17.3 10.35 -17.45 13.8 -17.0 21.85 Q-18.4 23.6 -20.7 23.6 -22.9 23.85 -23.95 22.1 M-24.45 22.25 L-24.4 22.35 M-25.4 22.9 L-34.3 23.6 -42.05 24.1 -53.5 24.8 -53.7 24.8 -64.35 24.75 -74.75 24.4 Q-80.3 24.05 -85.9 24.5 -89.1 24.45 -91.7 25.95 L-92.15 26.65 M-93.25 26.35 L-93.65 27.15 Q-94.85 28.75 -96.85 28.6 -99.2 28.3 -99.8 26.05 M-100.7 26.05 L-101.3 18.9 -102.15 10.6 -102.3 7.7 -102.1 6.9 Q-101.1 5.45 -99.3 5.2 L-94.65 5.35 -94.35 5.45 M-93.85 5.1 L-83.85 4.4 -77.9 4.65 -74.65 4.5 -62.95 5.25 -53.9 5.4 -53.7 5.4 Q-48.0 5.5 -42.3 5.1 L-30.9 3.85 -26.25 3.95 M-25.8 3.95 Q-25.85 3.25 -25.45 2.75 -25.1 2.25 -24.6 2.25 L-22.75 1.8 M-17.75 3.1 L-18.25 3.95 Q-19.15 4.8 -20.35 5.05 -22.25 5.6 -23.75 4.55 L-23.6 3.3 M-17.35 10.35 L-19.65 12.0 M-18.4 8.05 L-19.95 9.7 M-17.3 10.25 L-17.35 10.35 M-18.25 17.45 L-19.95 19.2 M-17.45 13.8 L-19.65 15.75 M-25.8 3.95 Q-25.8 9.0 -25.3 14.2 L-24.8 20.0 -24.45 22.25 M-94.65 5.35 Q-93.8 10.65 -93.1 16.1 -92.75 18.9 -92.65 21.75 -92.65 23.05 -91.85 24.05 M-91.7 25.95 Q-91.95 24.0 -94.0 23.6 L-95.85 23.25 Q-97.9 23.1 -99.2 24.8 L-99.8 26.05 M-99.6 12.25 L-101.0 14.6 M-93.25 26.35 Q-94.0 24.65 -95.7 25.55 L-96.45 26.05 M-101.3 18.9 L-99.3 16.9 M-102.15 10.6 L-99.6 7.7" fill="none" stroke="#5a4d36" stroke-linecap="round" stroke-linejoin="round" stroke-width="1.6"/>
  </g>
</svg>
