<?xml version="1.0" encoding="UTF-8" standalone="no"?>
<svg xmlns:xlink="http://www.w3.org/1999/xlink" height="35.9px" width="173.45px" xmlns="http://www.w3.org/2000/svg">
  <g transform="matrix(1.0, 0.0, 0.0, 1.0, -482.2, -444.45)">
    <path d="M652.35 446.6 L648.1 447.2 640.6 448.0 642.0 454.3 Q643.2 460.4 643.15 462.05 642.95 466.1 641.05 466.0 L640.35 465.9 640.1 465.65 Q639.95 465.25 640.05 464.7 L640.3 463.5 Q640.35 462.2 638.8 456.15 637.2 450.05 637.3 447.05 637.4 445.1 640.95 444.65 644.6 444.15 654.75 444.95 L654.5 448.9 654.05 451.85 Q653.95 454.0 654.85 458.5 L655.65 462.8 655.65 463.5 655.45 463.85 655.25 464.0 654.4 464.1 Q651.75 464.0 651.6 456.9 651.55 452.7 652.35 446.6 M597.25 448.55 Q597.6 448.05 598.95 448.55 605.1 450.8 609.7 451.0 611.3 451.05 613.5 450.15 L615.55 449.2 Q617.25 449.3 617.2 450.85 617.15 451.85 614.85 453.1 612.25 454.45 609.35 454.35 604.8 454.15 600.35 451.8 601.05 455.65 602.75 460.95 603.75 464.0 603.55 468.25 603.5 469.25 602.9 470.15 602.1 471.1 600.9 471.05 L599.7 470.85 599.55 470.75 599.45 469.95 Q599.45 469.4 599.95 469.35 600.4 469.3 600.45 468.7 600.6 465.35 598.6 460.05 596.6 454.75 596.7 451.65 596.8 449.05 597.25 448.55 M591.8 465.3 Q592.05 465.85 591.7 466.45 L591.9 468.2 Q591.9 469.5 590.9 470.4 589.6 471.65 586.4 472.25 587.2 471.25 588.05 468.75 L588.4 467.1 Q585.75 467.0 585.8 465.3 585.85 464.65 586.45 464.4 L588.8 464.15 Q591.35 464.25 591.8 465.3 M603.55 461.25 Q603.2 461.0 603.25 460.3 603.3 459.2 607.0 458.75 610.65 458.3 610.6 460.25 610.55 461.05 609.2 461.65 608.0 462.15 607.05 462.1 604.3 462.0 603.55 461.25 M576.5 454.1 Q576.75 456.3 576.45 463.8 L576.6 466.45 576.65 469.75 Q578.85 469.7 581.0 470.8 582.1 471.35 583.8 472.55 580.75 472.75 576.5 472.6 574.0 472.5 574.05 469.8 L574.55 466.95 Q574.2 455.45 573.4 451.95 L572.7 452.05 Q570.8 452.0 570.4 451.4 575.45 446.5 576.5 454.1 M567.1 471.15 Q566.4 471.8 562.0 471.95 L556.35 472.0 548.75 471.7 548.55 470.0 549.65 466.95 Q550.8 463.85 550.75 462.5 550.6 459.05 548.2 455.55 L545.8 452.05 545.9 450.75 564.5 449.8 564.6 449.95 564.75 450.75 Q564.7 456.05 563.35 456.95 562.0 456.4 561.95 454.9 562.25 453.2 562.0 452.5 L552.4 453.35 552.95 455.1 553.45 457.0 Q553.6 460.7 553.35 463.05 553.0 466.8 551.7 469.5 L551.55 469.55 552.25 469.8 553.15 469.9 557.5 469.55 564.0 469.25 Q563.65 468.5 564.15 467.45 564.65 466.3 565.7 466.3 L566.85 466.5 567.25 469.1 567.1 471.15 M629.6 452.2 Q629.4 454.4 629.9 455.6 631.55 459.45 634.55 463.1 L637.2 466.1 Q637.15 467.25 636.95 467.25 L636.5 467.45 635.5 467.55 Q630.45 467.35 627.9 460.2 626.1 455.05 626.25 450.55 L623.55 450.9 622.8 460.45 Q621.7 466.25 617.95 469.85 L617.3 469.4 Q617.0 469.1 617.05 468.35 L617.95 467.5 Q618.9 466.2 619.25 463.5 L619.75 460.9 620.25 458.25 620.0 452.4 Q620.1 448.85 622.75 448.1 629.35 446.15 629.75 449.1 L629.6 452.2 M627.7 460.6 Q627.35 462.35 625.8 462.3 624.5 462.25 624.1 461.4 L623.95 460.45 Q624.05 458.55 625.95 458.6 627.8 458.7 627.7 460.6 M518.05 456.3 L518.5 459.5 518.95 463.85 518.1 470.85 517.1 476.5 517.25 476.5 534.35 476.2 Q536.75 475.75 538.85 473.6 540.65 471.75 540.65 470.6 540.65 467.45 535.4 465.6 530.3 463.85 521.85 463.85 L519.35 463.55 Q519.15 464.15 519.15 463.05 519.15 462.7 525.15 460.25 531.15 457.2 531.15 453.75 531.15 451.6 527.3 449.45 522.25 446.55 513.5 446.55 501.85 446.55 493.75 451.75 487.35 455.85 487.35 459.0 L487.6 460.2 487.8 461.3 488.05 461.7 492.05 458.6 Q495.4 456.3 498.75 456.3 502.5 456.3 503.7 459.0 504.3 460.35 504.15 461.95 504.15 464.8 502.7 467.0 500.15 470.8 493.9 470.8 492.1 470.8 489.35 467.9 487.5 465.95 486.5 464.3 484.8 465.85 482.85 468.95 L482.2 468.8 484.7 465.35 486.25 463.05 485.85 460.95 485.4 458.85 Q485.4 454.6 492.1 450.55 499.15 446.35 510.2 444.6 523.0 443.65 528.75 447.95 532.6 450.8 532.6 455.05 532.6 456.25 530.9 458.0 L527.85 461.0 527.4 461.1 Q535.25 463.15 538.7 465.2 542.45 467.45 542.45 470.5 542.45 474.5 535.7 476.9 525.0 480.7 498.3 480.3 L497.25 479.75 Q501.4 477.05 516.5 476.55 L516.5 476.2 Q516.5 475.65 517.0 473.4 L517.5 470.55 Q517.5 463.25 514.2 450.15 516.2 450.05 517.3 452.7 518.05 454.6 518.05 456.3 M515.3 466.75 Q515.3 467.9 514.15 471.8 512.95 475.65 512.4 476.45 512.1 477.15 512.1 476.0 512.1 474.8 512.8 470.6 513.5 466.4 513.5 461.8 513.5 457.75 514.4 457.35 L515.0 462.75 515.3 466.75 M488.6 462.9 Q488.6 465.05 490.35 467.0 492.5 469.35 496.1 469.35 499.45 469.35 501.6 466.9 503.15 465.15 503.15 464.15 503.15 455.35 495.9 458.25 493.6 459.15 490.85 461.1 L488.6 462.9 M556.05 460.85 Q556.0 459.75 557.15 459.35 L560.6 459.0 560.8 459.3 561.0 460.15 Q561.0 461.0 560.15 461.65 L558.95 462.1 556.3 461.85 556.15 461.65 556.05 460.85" fill="#5a4d36" fill-rule="evenodd" stroke="none"/>
  </g>
</svg>
