<?xml version="1.0" encoding="UTF-8" standalone="no"?>
<svg xmlns:xlink="http://www.w3.org/1999/xlink" height="38.75px" width="181.2px" xmlns="http://www.w3.org/2000/svg">
  <g transform="matrix(1.0, 0.0, 0.0, 1.0, -486.15, -441.65)">
    <path d="M658.15 442.45 L658.35 441.65 658.6 441.65 Q658.75 445.55 661.65 451.2 663.05 454.05 667.35 460.85 666.95 461.5 666.45 461.6 662.25 456.55 660.2 452.5 657.95 447.95 657.95 443.7 L658.15 442.45 M653.3 466.7 Q650.4 461.15 649.0 458.0 646.45 452.35 646.45 448.8 646.45 443.1 648.65 445.45 650.85 447.85 651.15 452.15 L652.85 458.05 Q654.2 462.55 654.2 464.4 654.2 465.4 653.3 466.7 M606.85 454.25 Q608.0 456.45 608.9 460.65 L609.15 460.55 622.0 456.2 622.1 456.1 622.2 456.9 Q622.2 459.75 609.5 462.95 610.9 466.55 614.25 469.0 L627.4 465.6 Q623.9 468.85 617.0 470.7 L601.35 474.1 600.0 474.0 599.6 473.1 610.45 470.0 Q608.05 468.35 606.75 463.9 L606.7 463.6 597.35 465.5 597.15 465.15 Q601.7 463.05 606.4 461.45 L605.7 456.8 Q605.7 456.2 606.2 455.2 L606.85 454.25 M589.6 449.55 L583.45 448.95 Q574.4 448.95 573.1 460.55 572.5 466.35 573.65 472.25 L573.2 476.4 572.45 477.0 Q570.8 472.95 570.25 467.7 569.9 464.3 569.9 458.2 569.9 448.55 580.3 446.05 584.45 445.05 588.15 445.95 591.95 446.9 593.2 449.35 L593.4 449.7 592.85 450.0 591.85 450.15 589.6 449.55 M629.15 449.5 Q628.75 450.55 628.7 451.65 628.7 452.45 630.75 460.0 632.85 467.85 633.0 469.7 L632.0 470.55 Q631.0 469.05 628.3 460.9 625.5 452.45 625.5 450.5 625.5 445.3 628.45 444.4 631.1 443.65 635.0 446.35 638.8 449.05 641.55 453.45 644.5 458.3 644.5 462.75 644.5 466.15 640.55 469.5 636.4 472.95 629.35 475.2 L628.8 475.15 Q628.65 475.1 628.65 474.45 628.65 473.95 635.2 469.65 641.75 465.35 641.75 462.25 635.85 447.5 631.95 447.5 630.0 447.5 629.15 449.5 M507.3 457.75 Q505.75 458.65 497.5 461.85 L503.35 476.65 506.85 475.9 511.1 474.85 Q511.8 475.15 511.95 475.75 L506.6 478.6 Q503.45 480.4 497.15 480.4 489.85 480.4 487.25 475.05 486.45 473.35 486.2 471.3 L486.15 469.55 Q486.15 466.15 487.05 464.6 488.55 461.9 493.65 459.75 489.25 451.55 489.25 450.6 489.25 449.0 492.45 448.0 495.55 447.05 499.55 447.2 509.85 447.6 509.85 453.6 509.85 456.2 507.3 457.75 M489.25 469.65 Q489.25 471.6 490.5 473.65 492.65 477.2 497.4 477.2 L499.65 477.0 501.5 476.65 Q499.1 474.05 497.3 469.5 L494.65 462.6 Q490.95 463.65 489.8 466.05 489.25 467.2 489.25 469.65 M496.65 459.2 L503.05 457.25 Q507.9 455.4 507.9 453.8 507.9 447.55 493.1 451.35 L496.65 459.2 M555.2 466.95 Q555.2 468.95 552.9 470.0 L546.85 471.35 Q534.75 473.15 529.2 475.85 L528.95 475.65 530.3 474.0 530.55 473.75 527.1 473.65 527.0 473.45 Q526.85 473.3 526.85 472.65 526.85 471.95 531.2 470.9 533.55 470.35 534.6 469.4 L534.05 470.35 543.15 469.35 Q549.95 468.45 553.35 467.15 547.05 462.9 544.65 462.15 542.75 461.6 542.2 463.1 L541.0 466.3 Q539.65 468.15 535.95 468.15 535.7 468.15 535.2 468.7 L535.5 467.6 535.0 466.35 Q534.45 465.7 534.45 465.1 534.45 464.0 536.1 463.25 538.6 462.15 539.9 460.95 L540.1 460.65 Q537.55 458.85 531.85 457.35 527.85 456.25 527.85 454.3 527.85 452.4 541.35 448.9 554.85 445.4 554.85 448.75 554.85 450.1 544.95 459.2 L544.85 459.5 Q549.85 460.95 552.7 463.15 555.2 465.15 555.2 466.95 M550.25 450.15 Q546.75 449.95 540.75 451.75 L532.7 454.1 Q532.45 454.25 532.15 454.35 534.4 455.5 542.0 458.1 543.3 458.1 546.2 455.25 549.05 452.4 550.15 450.25 L550.25 450.15" fill="#5a4d36" fill-rule="evenodd" stroke="none"/>
  </g>
</svg>
