<?xml version="1.0" encoding="UTF-8" standalone="no"?>
<svg xmlns:xlink="http://www.w3.org/1999/xlink" height="40.8px" width="164.65px" xmlns="http://www.w3.org/2000/svg">
  <g transform="matrix(1.0, 0.0, 0.0, 1.0, -476.2, -437.35)">
    <path d="M606.2 448.5 Q609.9 448.5 612.35 452.3 615.15 456.65 615.15 464.55 L615.0 467.35 Q614.65 469.1 613.5 469.1 612.75 469.1 611.15 460.9 609.5 452.7 606.85 452.7 603.3 452.7 602.05 456.7 601.65 458.0 601.5 459.7 L602.05 459.5 Q607.85 457.35 609.5 458.4 L609.75 458.6 610.05 459.1 603.85 461.8 601.8 462.7 602.55 464.05 Q603.85 466.1 606.15 468.15 605.9 468.9 604.7 469.65 603.45 470.45 602.45 470.45 599.45 470.45 598.05 465.9 L597.8 464.55 597.6 464.7 Q596.4 464.05 596.4 462.8 596.4 462.3 597.3 461.7 L597.25 461.45 Q597.25 455.65 600.05 451.9 602.65 448.5 606.2 448.5 M590.85 452.45 Q590.85 453.3 586.85 455.55 582.8 457.75 582.8 460.05 582.8 461.05 583.15 462.3 L594.6 461.05 594.9 461.75 Q591.1 463.65 584.85 465.45 L584.45 465.6 585.5 467.55 588.2 472.3 Q588.2 472.9 587.45 473.3 L586.55 473.65 Q582.85 473.65 580.5 466.9 L580.45 466.6 575.1 467.35 574.4 467.3 574.1 467.1 Q573.9 467.65 573.9 466.5 573.9 464.3 579.55 462.95 L578.85 460.0 Q578.85 451.2 590.65 451.8 L590.75 451.7 590.85 452.45 M577.45 469.7 L577.5 470.4 Q577.5 471.4 573.75 472.2 L568.65 472.85 Q565.5 472.85 563.6 471.45 558.9 473.3 549.35 474.25 L539.35 474.85 538.55 474.8 537.35 474.55 Q545.9 472.2 551.05 471.4 L562.75 470.65 Q561.9 469.7 561.4 468.35 560.85 466.95 560.8 465.25 L560.85 463.85 Q560.85 461.6 561.6 459.25 562.35 456.8 563.6 455.2 L564.4 455.4 Q564.75 455.6 564.75 456.3 L564.25 460.1 563.75 463.85 Q563.75 467.35 565.3 468.6 568.2 471.0 577.35 469.55 L577.45 469.7 M640.85 455.2 L640.4 459.5 Q639.3 463.4 636.2 463.4 633.0 463.4 628.9 460.45 L624.15 456.85 Q623.7 457.65 623.7 459.05 623.7 460.2 624.7 462.9 L625.65 465.6 Q625.65 466.35 625.0 466.85 L624.15 467.15 Q621.0 467.15 619.8 463.25 L619.25 459.2 Q619.25 456.8 619.65 455.55 620.65 452.35 623.9 452.35 627.5 452.35 631.25 455.3 L635.9 458.85 Q636.45 457.25 636.45 454.85 L636.0 451.6 635.55 448.3 Q635.55 445.2 638.2 448.6 640.85 452.05 640.85 455.2 M507.5 438.35 Q520.1 436.35 529.0 438.45 538.8 440.75 538.8 447.05 538.8 450.9 535.35 454.05 531.3 457.65 522.25 460.8 L522.0 460.85 Q526.9 461.3 528.6 463.9 529.4 465.15 529.4 467.35 529.4 471.05 515.75 474.85 503.95 478.15 498.3 478.15 L495.1 477.95 494.95 477.85 Q494.75 477.75 494.75 477.1 494.75 475.8 499.8 474.75 L511.0 472.95 511.8 472.85 512.0 472.6 Q512.4 472.15 512.4 471.45 L511.75 469.95 511.1 468.6 Q511.1 467.25 512.4 465.65 L513.5 463.85 510.75 464.7 Q506.05 466.35 504.2 466.35 L503.25 466.2 502.95 465.95 Q502.8 465.85 502.8 465.15 502.8 464.2 508.05 462.55 L513.55 460.9 Q513.25 458.15 512.25 454.85 L509.65 445.6 Q512.55 445.55 514.65 449.5 516.3 452.65 516.6 456.1 L516.8 459.9 519.6 459.05 Q536.4 453.5 536.4 446.9 536.4 443.35 531.45 441.65 526.65 440.0 516.75 440.0 501.9 440.0 489.6 446.4 478.8 452.0 478.8 456.65 478.8 459.3 480.6 461.6 483.7 465.6 491.0 465.6 494.85 465.6 498.6 463.15 501.95 460.9 501.95 459.3 501.95 458.5 500.8 457.6 499.8 456.75 499.15 456.75 497.85 456.75 494.9 457.7 L491.9 458.65 Q492.3 458.0 494.2 457.05 496.35 456.0 497.85 456.0 500.35 456.0 501.75 457.6 L502.65 459.2 Q502.65 461.7 498.4 464.85 493.95 468.15 489.7 468.15 481.95 468.15 478.3 463.35 477.15 461.8 476.55 459.95 476.2 458.8 476.2 458.35 476.2 451.1 486.0 445.4 494.7 440.35 507.5 438.35 M517.4 463.45 Q518.15 466.45 518.15 468.65 518.15 470.5 515.85 471.2 513.8 471.85 512.6 472.7 527.2 470.35 527.2 467.0 527.2 465.2 526.05 464.4 524.15 463.05 518.6 463.05 L517.35 463.15 517.4 463.45 M547.75 466.3 L544.3 466.7 544.65 468.9 544.5 470.95 Q544.0 472.05 542.0 472.85 L541.2 472.6 Q540.9 472.4 540.9 471.7 540.9 471.15 541.45 470.25 542.0 469.4 542.0 468.8 L541.55 467.15 Q535.8 468.15 534.95 469.55 533.35 469.55 532.85 468.6 532.7 468.25 532.7 467.55 532.7 466.15 539.95 464.85 L538.5 463.35 Q534.95 460.05 534.95 458.4 534.95 454.9 539.8 453.65 545.75 452.15 559.85 453.8 L545.05 455.5 Q537.45 456.5 537.45 457.8 537.45 458.95 541.05 462.2 L543.0 464.3 545.75 463.9 Q558.75 462.15 558.75 463.85 558.75 465.15 547.75 466.3" fill="#5a4d36" fill-rule="evenodd" stroke="none"/>
  </g>
</svg>
