<?xml version="1.0" encoding="UTF-8" standalone="no"?>
<svg xmlns:xlink="http://www.w3.org/1999/xlink" height="43.15px" width="179.55px" xmlns="http://www.w3.org/2000/svg">
  <g transform="matrix(1.0, 0.0, 0.0, 1.0, -474.75, -442.85)">
    <path d="M653.5 459.45 Q652.3 461.75 649.95 461.75 647.35 461.75 644.7 460.45 L641.4 459.0 Q641.75 462.45 638.65 464.5 637.95 463.75 637.5 461.6 637.1 459.8 637.1 458.45 637.1 457.2 637.6 456.25 638.45 454.8 640.4 454.8 642.95 454.8 645.05 456.25 647.25 457.8 649.8 457.85 L650.15 457.5 650.35 456.55 Q650.35 453.95 648.0 450.45 645.6 446.9 645.6 444.65 645.6 442.4 646.95 442.95 648.15 443.45 649.95 445.85 654.3 451.7 654.3 455.95 654.3 457.8 653.5 459.45 M591.95 457.0 L591.15 457.85 592.15 460.35 Q599.7 458.8 606.0 459.3 L606.1 459.1 606.2 459.75 Q606.2 460.8 593.35 463.95 594.75 468.3 596.35 471.35 L596.25 471.65 595.4 471.8 Q595.1 471.8 594.75 471.5 L594.65 471.85 594.45 471.9 594.3 472.2 593.4 472.3 Q588.95 472.3 586.75 466.8 L586.45 465.6 584.35 466.05 Q583.25 466.05 582.5 465.3 582.35 465.75 582.35 464.6 582.35 463.3 585.6 462.1 L585.35 461.0 Q585.35 456.55 589.6 453.6 594.8 449.95 602.7 452.8 602.2 453.35 597.35 454.95 592.45 456.6 591.95 457.0 M590.2 464.75 L592.15 467.65 593.1 468.9 Q592.25 467.15 591.3 464.45 L590.2 464.75 M589.9 459.95 L589.85 460.05 589.65 460.9 590.15 460.8 589.9 459.95 M607.05 460.65 Q607.05 455.6 609.95 452.45 612.65 449.6 616.4 449.65 620.25 449.75 622.85 453.0 623.95 454.4 624.6 456.15 L630.5 455.1 632.6 455.2 632.95 455.3 Q633.35 455.35 633.45 455.55 630.0 457.35 625.35 458.7 625.75 460.75 625.75 463.2 L625.5 464.35 Q625.15 465.05 624.6 465.05 623.2 465.05 622.35 463.35 L621.15 459.75 620.7 459.85 Q617.05 460.65 614.0 461.75 614.1 465.65 614.45 468.15 L614.35 468.95 613.45 469.25 Q612.3 469.25 611.85 467.35 L611.55 465.35 611.4 462.75 Q611.2 462.8 611.05 462.9 611.0 465.05 611.3 467.3 L611.15 468.4 611.1 469.1 611.0 469.5 610.2 469.65 Q607.85 469.65 607.2 465.15 L607.05 460.65 M574.5 454.65 L574.65 455.45 574.0 461.3 Q573.45 464.5 573.3 466.95 576.85 468.05 584.8 467.7 L584.9 467.5 585.0 468.15 Q585.0 469.25 582.95 470.0 580.85 470.8 577.5 470.8 570.75 470.8 568.45 467.65 567.75 466.6 567.55 465.4 L567.5 464.3 Q567.5 460.6 567.95 458.95 568.9 455.65 571.8 454.65 L571.9 454.5 572.0 455.15 571.15 457.95 Q570.25 460.65 570.25 461.6 570.25 465.1 571.4 466.0 L571.55 466.15 571.55 464.95 Q571.55 461.35 571.95 459.35 572.55 456.25 574.3 454.5 L574.5 454.65 M636.75 454.65 L636.95 460.0 636.85 462.3 636.85 465.3 636.8 465.55 635.95 465.75 Q634.55 465.75 634.25 462.8 L634.2 459.7 Q634.2 457.15 634.4 456.35 634.9 454.1 636.75 454.65 M620.15 457.3 Q618.5 454.25 615.7 454.25 614.65 454.25 613.85 454.7 L613.95 459.1 618.9 457.6 620.15 457.3 M611.35 459.25 L611.2 460.15 611.35 460.1 611.35 459.25 M518.4 443.95 Q526.5 445.7 526.5 452.3 526.5 452.95 524.65 455.7 L522.45 458.75 522.25 459.0 528.75 458.65 Q537.75 458.65 541.6 461.1 544.1 462.7 544.1 465.0 544.1 471.25 522.45 477.05 L517.75 478.3 Q517.35 479.25 516.65 479.25 515.95 479.25 515.45 478.85 L511.2 479.8 Q512.05 482.95 513.45 485.8 L513.25 486.0 Q510.55 483.45 509.2 480.2 500.55 481.95 495.0 481.95 491.8 481.95 490.8 481.2 490.25 480.8 490.05 479.4 L503.3 477.45 508.2 476.75 Q507.7 474.05 507.75 467.35 L507.45 463.9 506.9 463.45 506.8 462.65 507.1 462.15 505.6 456.7 Q503.35 449.9 503.35 448.95 L503.55 448.7 503.65 448.7 Q508.35 453.95 509.6 460.95 L511.15 460.4 Q509.4 456.35 509.4 455.9 509.4 450.05 510.8 450.5 511.95 450.9 513.85 455.55 L515.2 458.95 Q523.25 455.7 523.25 451.45 523.25 449.65 518.05 448.05 513.2 446.6 508.7 446.6 499.85 446.6 488.35 452.0 477.9 456.9 477.9 459.15 477.9 460.6 482.8 462.5 487.8 464.5 491.95 464.5 497.45 464.5 500.75 461.85 503.1 459.95 503.1 458.7 503.1 457.7 502.0 457.05 500.75 456.3 498.75 456.3 498.0 456.3 495.0 457.3 495.25 456.0 496.75 455.25 498.25 454.5 500.7 454.5 503.3 454.5 504.35 456.25 505.0 457.25 505.0 458.55 505.0 461.4 502.2 463.9 498.05 467.6 489.45 467.6 482.45 467.6 478.0 463.9 474.75 461.15 474.75 459.2 474.75 455.45 482.85 451.1 490.55 447.0 500.65 444.8 511.45 442.45 518.4 443.95 M509.95 467.25 Q509.7 472.05 510.45 476.4 L514.25 475.8 514.15 474.75 513.9 467.45 512.55 463.7 509.95 464.1 509.95 467.25 M520.05 474.7 Q540.55 470.65 540.55 464.9 540.55 462.05 528.75 462.05 L516.55 463.05 Q518.25 468.65 518.25 472.2 L518.25 475.05 520.05 474.7 M553.75 462.3 Q558.1 461.4 563.3 461.25 L563.95 462.05 Q561.45 464.55 554.2 465.15 L554.75 469.05 Q558.75 470.85 564.75 470.1 L562.9 471.55 Q561.45 472.65 557.0 472.65 551.25 472.65 547.95 467.6 546.85 465.9 546.3 464.45 L546.2 464.4 546.25 464.4 Q545.65 462.85 545.65 461.6 545.65 457.95 549.9 455.15 555.25 451.6 563.3 454.5 L555.2 456.9 Q553.55 457.4 552.35 458.0 553.3 459.8 553.75 462.3 M551.15 462.9 L550.5 459.1 Q549.0 460.25 549.0 461.55 549.0 462.55 549.3 463.5 L551.15 462.9 M550.15 465.35 Q551.05 466.65 552.55 467.75 L552.75 467.9 551.75 465.3 550.15 465.35" fill="#5a4d36" fill-rule="evenodd" stroke="none"/>
  </g>
</svg>
