<?xml version="1.0" encoding="UTF-8" standalone="no"?>
<svg xmlns:xlink="http://www.w3.org/1999/xlink" height="68.7px" width="105.6px" xmlns="http://www.w3.org/2000/svg">
  <g transform="matrix(1.0, 0.0, 0.0, 1.0, 52.8, 34.3)">
    <path d="M2.0 -24.6 L1.85 -26.25 -1.5 -26.65 -0.9 -29.5 5.45 -29.75 4.6 -32.1 3.25 -31.25 0.6 -31.1 0.85 -32.7 0.6 -31.1 3.25 -31.25 4.6 -32.1 5.45 -29.75 -0.9 -29.5 -1.5 -26.65 1.85 -26.25 2.0 -24.6 M0.0 -33.8 L10.5 -33.2 Q15.3 -32.5 20.05 -31.2 24.55 -29.8 28.85 -27.9 L37.0 -23.95 Q41.4 -21.2 45.2 -17.3 49.05 -13.4 50.85 -8.2 52.85 -2.55 52.1 3.45 51.45 8.65 48.55 13.0 45.35 17.9 40.65 21.4 36.1 24.85 31.1 27.35 25.75 30.0 20.1 31.4 15.35 32.75 10.5 33.25 L0.0 33.9 -10.4 33.25 Q-15.35 32.85 -20.15 31.55 -25.65 29.95 -31.0 27.35 -36.05 24.8 -40.6 21.4 -45.3 17.85 -48.45 12.95 -51.35 8.55 -52.05 3.45 -52.8 -1.7 -51.3 -6.7 -49.75 -11.65 -46.25 -15.75 -42.95 -19.7 -38.85 -22.65 -34.05 -26.0 -28.9 -28.1 L-20.05 -31.2 Q-15.25 -32.6 -10.4 -33.2 L0.0 -33.8 M12.15 -25.15 Q21.6 -22.8 26.3 -14.45 L31.2 -17.05 29.45 -18.2 26.65 -20.05 Q26.25 -20.3 26.0 -20.7 L28.4 -21.4 30.7 -22.15 Q31.85 -22.6 32.15 -23.75 L31.2 -24.6 32.15 -23.75 Q31.85 -22.6 30.7 -22.15 L28.4 -21.4 26.0 -20.7 Q26.25 -20.3 26.65 -20.05 L29.45 -18.2 31.2 -17.05 26.3 -14.45 Q21.6 -22.8 12.15 -25.15 M26.9 -7.25 L27.2 -6.75 28.35 -6.4 28.9 -10.15 31.8 -9.85 30.05 -2.6 34.25 -2.35 34.4 -8.1 37.15 -8.0 37.1 -7.6 Q36.9 -6.5 36.85 -5.4 L37.05 -3.65 39.6 -3.5 Q39.45 -4.45 39.55 -5.35 L39.85 -7.0 42.45 -6.7 42.85 -3.45 44.05 -3.4 44.85 -5.35 46.7 -5.2 46.95 -4.8 47.25 -3.5 50.9 -3.2 47.25 -3.5 46.95 -4.8 46.7 -5.2 44.85 -5.35 44.05 -3.4 42.85 -3.45 42.45 -6.7 39.85 -7.0 39.55 -5.35 Q39.45 -4.45 39.6 -3.5 L37.05 -3.65 36.85 -5.4 Q36.9 -6.5 37.1 -7.6 L37.15 -8.0 34.4 -8.1 34.25 -2.35 30.05 -2.6 31.8 -9.85 28.9 -10.15 28.35 -6.4 27.2 -6.75 26.9 -7.25 M39.75 -1.45 L39.8 -1.25 Q40.1 -0.1 41.1 0.7 L33.6 1.15 33.35 1.8 Q33.25 2.25 33.45 2.65 36.0 4.25 38.9 4.2 L38.7 4.5 Q37.65 5.45 37.85 6.8 38.95 9.35 41.35 8.75 L41.85 8.15 Q42.15 7.6 42.05 7.0 L41.85 6.7 Q41.15 6.3 41.5 5.9 L42.05 5.7 Q43.6 6.65 45.15 6.5 L45.65 5.85 45.75 5.4 46.3 4.95 46.85 4.1 46.7 3.7 Q46.3 2.85 45.55 2.35 L45.65 1.5 Q45.5 -0.45 44.9 -2.2 L44.5 -2.35 43.65 -2.55 43.65 -2.5 42.2 -2.1 Q40.6 -3.05 39.75 -1.45 M42.8 -18.8 L42.35 -18.85 37.25 -15.7 Q34.25 -13.6 31.1 -11.75 L30.05 -11.3 31.1 -11.75 Q34.25 -13.6 37.25 -15.7 L42.35 -18.85 42.8 -18.8 M18.75 -19.35 Q10.85 -24.0 -0.3 -24.0 -11.45 -24.0 -19.3 -19.35 -27.2 -14.75 -27.2 -8.25 -27.2 -1.75 -19.3 2.9 -11.45 7.5 -0.3 7.5 10.85 7.5 18.75 2.9 26.6 -1.75 26.6 -8.25 26.6 -14.75 18.75 -19.35 M46.55 -15.05 L46.1 -14.9 Q45.2 -13.9 43.95 -13.6 45.2 -13.9 46.1 -14.9 L46.55 -15.05 M42.8 -17.35 L41.55 -16.3 Q38.85 -14.35 36.7 -12.15 38.85 -14.35 41.55 -16.3 L42.8 -17.35 M-27.2 -17.65 Q-20.45 -25.0 -10.4 -26.9 L-12.15 -29.25 -13.1 -28.8 Q-14.1 -28.3 -15.3 -28.2 -19.9 -27.4 -23.45 -24.0 L-25.75 -27.2 -23.45 -24.0 Q-19.9 -27.4 -15.3 -28.2 -14.1 -28.3 -13.1 -28.8 L-12.15 -29.25 -10.4 -26.9 Q-20.45 -25.0 -27.2 -17.65 M-28.05 -9.85 L-30.1 -9.85 -30.85 -10.2 -30.65 -13.05 -33.25 -13.6 -33.55 -5.8 -37.0 -6.1 -36.4 -11.7 -38.2 -11.7 -38.75 -8.7 -41.35 -9.0 -41.35 -11.6 -42.65 -11.1 -43.25 -8.65 -45.7 -9.0 Q-47.85 -9.0 -47.45 -11.0 L-47.95 -10.75 Q-48.8 -10.0 -49.0 -8.75 -48.8 -10.0 -47.95 -10.75 L-47.45 -11.0 Q-47.85 -9.0 -45.7 -9.0 L-43.25 -8.65 -42.65 -11.1 -41.35 -11.6 -41.35 -9.0 -38.75 -8.7 -38.2 -11.7 -36.4 -11.7 -37.0 -6.1 -33.55 -5.8 -33.25 -13.6 -30.65 -13.05 -30.85 -10.2 -30.1 -9.85 -28.05 -9.85 M-0.3 8.65 L-0.6 11.25 2.3 11.55 1.15 15.9 Q-1.45 15.0 -4.05 14.8 -4.95 14.9 -5.1 15.7 L-5.35 18.2 -5.2 18.75 Q-2.45 17.8 -0.15 19.4 L-0.3 22.85 Q-2.1 22.2 -4.0 22.35 L-4.65 24.3 -1.45 25.15 -2.1 27.85 -4.05 27.75 Q-3.45 29.0 -4.0 30.3 L-3.75 30.65 -4.0 30.3 Q-3.45 29.0 -4.05 27.75 L-2.1 27.85 -1.45 25.15 -4.65 24.3 -4.0 22.35 Q-2.1 22.2 -0.3 22.85 L-0.15 19.4 Q-2.45 17.8 -5.2 18.75 L-5.35 18.2 -5.1 15.7 Q-4.95 14.9 -4.05 14.8 -1.45 15.0 1.15 15.9 L2.3 11.55 -0.6 11.25 -0.3 8.65 M21.4 5.5 L23.05 7.05 Q26.3 10.7 28.6 14.75 L27.6 15.35 Q21.95 17.4 16.75 20.25 L15.35 19.05 Q14.8 19.2 14.3 19.5 13.0 20.0 13.35 21.25 L13.55 21.45 Q14.9 22.65 16.45 21.95 14.9 22.65 13.55 21.45 L13.35 21.25 Q13.0 20.0 14.3 19.5 14.8 19.2 15.35 19.05 L16.75 20.25 Q21.95 17.4 27.6 15.35 L28.6 14.75 Q26.3 10.7 23.05 7.05 L21.4 5.5 M15.3 8.65 L16.95 7.95 20.75 5.4 Q23.15 3.5 26.2 3.0 L26.5 3.25 29.55 5.5 Q32.25 7.35 34.9 8.9 L37.75 10.7 41.35 12.4 37.75 10.7 34.9 8.9 Q32.25 7.35 29.55 5.5 L26.5 3.25 26.2 3.0 Q23.15 3.5 20.75 5.4 L16.95 7.95 15.3 8.65 M-39.45 -16.55 Q-35.7 -19.6 -33.4 -22.65 -37.7 -20.2 -40.8 -16.4 -40.15 -16.05 -39.55 -16.4 L-39.45 -16.55 M-25.35 -20.1 Q-25.7 -20.75 -26.6 -20.45 L-27.05 -20.4 Q-27.85 -20.35 -28.05 -19.8 L-27.65 -19.55 Q-26.2 -19.2 -25.25 -19.9 L-25.35 -20.1 M-28.95 -23.2 L-29.35 -23.05 Q-32.4 -21.75 -33.5 -19.45 -32.4 -19.4 -31.25 -19.95 -28.1 -21.45 -28.95 -23.2 M-37.75 -1.55 L-38.75 -1.75 Q-39.25 -0.9 -37.95 -1.0 L-37.75 -1.55 -33.25 3.5 -39.2 7.65 -39.5 7.1 -39.2 7.65 -33.25 3.5 -37.75 -1.55 -37.95 -1.0 Q-39.25 -0.9 -38.75 -1.75 L-37.75 -1.55 M-27.75 1.7 L-29.0 3.1 -30.2 4.5 -29.0 3.1 -27.75 1.7 M-30.2 4.5 L-31.25 2.3 -32.2 2.9 -31.25 2.3 -30.2 4.5 Q-28.1 8.35 -24.55 11.2 L-22.55 12.7 Q-26.7 16.2 -30.05 20.75 L-31.95 23.15 -32.7 24.0 -31.95 23.15 -30.05 20.75 Q-26.7 16.2 -22.55 12.7 L-24.55 11.2 Q-28.1 8.35 -30.2 4.5 L-31.8 6.35 -30.2 4.5 M-32.2 2.9 L-33.25 3.5 -32.2 2.9 -29.8 0.25 -32.2 2.9 -34.1 5.15 Q-36.8 8.55 -39.9 11.25 -36.8 8.55 -34.1 5.15 L-32.2 2.9 M-39.5 7.1 L-39.8 6.65 -41.4 4.8 Q-42.85 3.6 -43.75 2.0 -44.8 1.0 -46.0 2.3 L-45.55 2.7 Q-43.75 3.7 -43.75 2.0 -43.75 3.7 -45.55 2.7 L-46.0 2.3 Q-44.8 1.0 -43.75 2.0 -42.85 3.6 -41.4 4.8 L-39.8 6.65 -39.5 7.1 -35.85 2.9 -39.5 7.1 -39.75 7.35 -44.6 13.55 -46.0 15.3 -44.6 13.55 -39.75 7.35 -39.5 7.1" fill="url(#gradient0)" fill-rule="evenodd" stroke="none"/>
    <path d="M17.05 -18.6 Q16.65 -18.55 16.35 -18.2 16.05 -17.95 16.1 -17.6 17.7 -16.05 19.95 -15.05 L20.55 -15.5 20.8 -15.85 20.75 -16.05 Q19.6 -18.25 17.05 -18.6 M7.5 -14.45 Q8.0 -13.85 8.65 -13.9 12.45 -13.45 15.55 -10.95 L18.3 -8.7 18.65 -8.4 18.3 -8.7 15.55 -10.95 Q12.45 -13.45 8.65 -13.9 8.0 -13.85 7.5 -14.45 M13.6 -12.75 L14.3 -13.4 14.3 -13.65 Q13.85 -16.9 11.5 -19.3 L15.9 -19.4 11.5 -19.3 Q13.85 -16.9 14.3 -13.65 L14.3 -13.4 13.6 -12.75 M2.75 -17.05 Q2.75 -18.0 2.25 -18.65 1.7 -19.35 0.95 -19.35 L-0.15 -19.5 -4.2 -19.25 Q-5.75 -18.55 -5.6 -16.95 -3.25 -14.55 0.3 -15.35 1.25 -15.6 2.1 -16.0 2.95 -16.4 2.75 -17.05 L6.05 -16.5 2.75 -17.05 Q2.95 -16.4 2.1 -16.0 1.25 -15.6 0.3 -15.35 -3.25 -14.55 -5.6 -16.95 -5.75 -18.55 -4.2 -19.25 L-0.15 -19.5 0.95 -19.35 Q1.7 -19.35 2.25 -18.65 2.75 -18.0 2.75 -17.05 M1.45 -20.55 L2.0 -22.55 1.45 -20.55 M16.45 -16.5 Q18.55 -13.25 20.95 -10.3 L18.65 -8.4 17.9 -7.8 18.65 -8.4 20.95 -10.3 Q18.55 -13.25 16.45 -16.5 M16.95 -2.05 Q18.05 -1.55 18.55 -2.45 L18.35 -2.45 16.9 -2.1 16.95 -2.05 M12.15 -10.95 L12.1 -10.85 Q11.4 -9.05 13.65 -8.2 11.4 -7.0 9.45 -5.3 9.6 -4.4 10.7 -4.3 L13.05 -5.3 Q16.3 -7.0 15.05 -8.9 L15.0 -8.85 14.25 -8.5 Q13.4 -9.9 12.15 -10.95 M15.05 -6.3 L15.0 -6.25 Q14.3 -4.6 16.6 -4.4 L16.5 -4.65 Q16.15 -6.0 15.05 -6.3 M8.95 -17.95 L11.5 -19.3 8.95 -17.95 M20.75 -14.05 Q20.5 -14.45 20.5 -15.05 L20.8 -14.45 20.9 -13.75 20.75 -14.05 20.9 -13.75 20.8 -14.45 20.5 -15.05 Q20.5 -14.45 20.75 -14.05 M22.1 -11.2 L21.55 -11.8 21.4 -11.7 Q20.95 -11.0 21.4 -10.65 L20.95 -10.3 22.45 -8.45 Q23.6 -9.45 25.1 -10.25 L25.7 -10.7 25.1 -10.25 Q23.6 -9.45 22.45 -8.45 L20.95 -10.3 21.4 -10.65 Q21.65 -10.45 22.2 -10.35 L22.2 -10.55 22.1 -11.2 22.3 -11.35 20.9 -13.75 22.3 -11.35 22.1 -11.2 M23.1 -10.15 L22.3 -11.35 23.7 -12.45 22.3 -11.35 23.1 -10.15 M23.05 -7.75 L22.45 -8.45 20.85 -6.65 22.45 -8.45 23.05 -7.75 M21.7 -6.1 L20.85 -6.65 21.7 -6.1 M18.75 -19.35 Q26.6 -14.75 26.6 -8.25 26.6 -1.75 18.75 2.9 10.85 7.5 -0.3 7.5 -11.45 7.5 -19.3 2.9 -27.2 -1.75 -27.2 -8.25 -27.2 -14.75 -19.3 -19.35 -11.45 -24.0 -0.3 -24.0 10.85 -24.0 18.75 -19.35 M20.85 -6.65 Q19.65 -7.5 18.65 -8.4 19.65 -7.5 20.85 -6.65 M-19.1 -14.2 L-21.7 -11.6 Q-24.45 -8.8 -25.75 -5.2 -24.45 -8.8 -21.7 -11.6 L-19.1 -14.2 M-12.15 -16.5 L-16.7 -13.75 -12.15 -16.5 M-6.65 -17.35 L-9.85 -16.8 -6.65 -17.35 M-6.65 -20.55 L-9.25 -21.7 -6.65 -20.55 M-16.7 -13.75 L-17.15 -13.45 -16.7 -13.75 M-18.95 -11.4 Q-16.6 -10.15 -14.05 -9.25 L-9.75 -7.35 Q-9.2 -7.05 -8.7 -6.55 L-11.6 -2.35 -11.9 -3.2 -12.25 -3.4 -14.2 -3.2 -12.25 -3.4 -11.9 -3.2 -11.6 -2.35 -8.7 -6.55 Q-9.2 -7.05 -9.75 -7.35 L-14.05 -9.25 Q-16.6 -10.15 -18.95 -11.4 L-19.95 -10.4 -18.95 -11.4 -19.45 -11.65 -17.15 -13.45 -19.45 -11.65 -18.95 -11.4 -17.15 -13.45 -18.95 -11.4" fill="url(#gradient1)" fill-rule="evenodd" stroke="none"/>
    <path d="M17.05 -18.6 Q19.6 -18.25 20.75 -16.05 L20.8 -15.85 20.55 -15.5 19.95 -15.05 Q17.7 -16.05 16.1 -17.6 16.05 -17.95 16.35 -18.2 16.65 -18.55 17.05 -18.6 M15.05 -6.3 Q16.15 -6.0 16.5 -4.65 L16.6 -4.4 Q14.3 -4.6 15.0 -6.25 L15.05 -6.3 M12.15 -10.95 Q13.4 -9.9 14.25 -8.5 L15.0 -8.85 15.05 -8.9 Q16.3 -7.0 13.05 -5.3 L10.7 -4.3 Q9.6 -4.4 9.45 -5.3 11.4 -7.0 13.65 -8.2 11.4 -9.05 12.1 -10.85 L12.15 -10.95 M16.95 -2.05 L16.9 -2.1 18.35 -2.45 18.55 -2.45 Q18.05 -1.55 16.95 -2.05 M21.4 -10.65 Q20.95 -11.0 21.4 -11.7 L21.55 -11.8 22.1 -11.2 22.2 -10.55 22.2 -10.35 Q21.65 -10.45 21.4 -10.65 M39.75 -1.45 Q40.6 -3.05 42.2 -2.1 L43.65 -2.5 43.65 -2.55 44.5 -2.35 44.9 -2.2 Q45.5 -0.45 45.65 1.5 L45.55 2.35 Q46.3 2.85 46.7 3.7 L46.85 4.1 46.3 4.95 45.75 5.4 45.65 5.85 45.15 6.5 Q43.6 6.65 42.05 5.7 L41.5 5.9 Q41.15 6.3 41.85 6.7 L42.05 7.0 Q42.15 7.6 41.85 8.15 L41.35 8.75 Q38.95 9.35 37.85 6.8 37.65 5.45 38.7 4.5 L38.9 4.2 Q36.0 4.25 33.45 2.65 33.25 2.25 33.35 1.8 L33.6 1.15 41.1 0.7 Q40.1 -0.1 39.8 -1.25 L39.75 -1.45 M-28.95 -23.2 Q-28.1 -21.45 -31.25 -19.95 -32.4 -19.4 -33.5 -19.45 -32.4 -21.75 -29.35 -23.05 L-28.95 -23.2 M-25.35 -20.1 L-25.25 -19.9 Q-26.2 -19.2 -27.65 -19.55 L-28.05 -19.8 Q-27.85 -20.35 -27.05 -20.4 L-26.6 -20.45 Q-25.7 -20.75 -25.35 -20.1 M-39.45 -16.55 L-39.55 -16.4 Q-40.15 -16.05 -40.8 -16.4 -37.7 -20.2 -33.4 -22.65 -35.7 -19.6 -39.45 -16.55" fill="#333333" fill-rule="evenodd" stroke="none"/>
    <path d="M0.0 -33.8 L-10.4 -33.2 Q-15.25 -32.6 -20.05 -31.2 L-28.9 -28.1 Q-34.05 -26.0 -38.85 -22.65 -42.95 -19.7 -46.25 -15.75 -49.75 -11.65 -51.3 -6.7 -52.8 -1.7 -52.05 3.45 -51.35 8.55 -48.45 12.95 -45.3 17.85 -40.6 21.4 -36.05 24.8 -31.0 27.35 -25.65 29.95 -20.15 31.55 -15.35 32.85 -10.4 33.25 L0.0 33.9 10.5 33.25 Q15.35 32.75 20.1 31.4 25.75 30.0 31.1 27.35 36.1 24.85 40.65 21.4 45.35 17.9 48.55 13.0 51.45 8.65 52.1 3.45 52.85 -2.55 50.85 -8.2 49.05 -13.4 45.2 -17.3 41.4 -21.2 37.0 -23.95 L28.85 -27.9 Q24.55 -29.8 20.05 -31.2 15.3 -32.5 10.5 -33.2 L0.0 -33.8 M18.75 -19.35 Q10.85 -24.0 -0.3 -24.0 -11.45 -24.0 -19.3 -19.35 -27.2 -14.75 -27.2 -8.25 -27.2 -1.75 -19.3 2.9 -11.45 7.5 -0.3 7.5 10.85 7.5 18.75 2.9 26.6 -1.75 26.6 -8.25 26.6 -14.75 18.75 -19.35" fill="none" stroke="#000000" stroke-linecap="round" stroke-linejoin="round" stroke-width="1.0"/>
    <path d="M0.85 -32.7 L0.6 -31.1 3.25 -31.25 4.6 -32.1 5.45 -29.75 -0.9 -29.5 -1.5 -26.65 1.85 -26.25 2.0 -24.6 M2.0 -22.55 L1.45 -20.55 M6.05 -16.5 L2.75 -17.05 Q2.95 -16.4 2.1 -16.0 1.25 -15.6 0.3 -15.35 -3.25 -14.55 -5.6 -16.95 -5.75 -18.55 -4.2 -19.25 L-0.15 -19.5 0.95 -19.35 Q1.7 -19.35 2.25 -18.65 2.75 -18.0 2.75 -17.05 M31.2 -24.6 L32.15 -23.75 Q31.85 -22.6 30.7 -22.15 L28.4 -21.4 26.0 -20.7 Q26.25 -20.3 26.65 -20.05 L29.45 -18.2 31.2 -17.05 26.3 -14.45 Q21.6 -22.8 12.15 -25.15 M50.9 -3.2 L47.25 -3.5 46.95 -4.8 46.7 -5.2 44.85 -5.35 44.05 -3.4 42.85 -3.45 42.45 -6.7 39.85 -7.0 39.55 -5.35 Q39.45 -4.45 39.6 -3.5 L37.05 -3.65 36.85 -5.4 Q36.9 -6.5 37.1 -7.6 L37.15 -8.0 34.4 -8.1 34.25 -2.35 30.05 -2.6 31.8 -9.85 28.9 -10.15 28.35 -6.4 27.2 -6.75 26.9 -7.25 M41.35 12.4 L37.75 10.7 34.9 8.9 Q32.25 7.35 29.55 5.5 L26.5 3.25 26.2 3.0 Q23.15 3.5 20.75 5.4 L16.95 7.95 15.3 8.65 M16.45 21.95 Q14.9 22.65 13.55 21.45 L13.35 21.25 Q13.0 20.0 14.3 19.5 14.8 19.2 15.35 19.05 L16.75 20.25 Q21.95 17.4 27.6 15.35 L28.6 14.75 Q26.3 10.7 23.05 7.05 L21.4 5.5 M-3.75 30.65 L-4.0 30.3 Q-3.45 29.0 -4.05 27.75 L-2.1 27.85 -1.45 25.15 -4.65 24.3 -4.0 22.35 Q-2.1 22.2 -0.3 22.85 L-0.15 19.4 Q-2.45 17.8 -5.2 18.75 L-5.35 18.2 -5.1 15.7 Q-4.95 14.9 -4.05 14.8 -1.45 15.0 1.15 15.9 L2.3 11.55 -0.6 11.25 -0.3 8.65 M-49.0 -8.75 Q-48.8 -10.0 -47.95 -10.75 L-47.45 -11.0 Q-47.85 -9.0 -45.7 -9.0 L-43.25 -8.65 -42.65 -11.1 -41.35 -11.6 -41.35 -9.0 -38.75 -8.7 -38.2 -11.7 -36.4 -11.7 -37.0 -6.1 -33.55 -5.8 -33.25 -13.6 -30.65 -13.05 -30.85 -10.2 -30.1 -9.85 -28.05 -9.85 M-25.75 -27.2 L-23.45 -24.0 Q-19.9 -27.4 -15.3 -28.2 -14.1 -28.3 -13.1 -28.8 L-12.15 -29.25 -10.4 -26.9 Q-20.45 -25.0 -27.2 -17.65 M-9.25 -21.7 L-6.65 -20.55 M-9.85 -16.8 L-6.65 -17.35 M-16.7 -13.75 L-12.15 -16.5 M-14.2 -3.2 L-12.25 -3.4 -11.9 -3.2 -11.6 -2.35 -8.7 -6.55 Q-9.2 -7.05 -9.75 -7.35 L-14.05 -9.25 Q-16.6 -10.15 -18.95 -11.4 L-19.45 -11.65 -17.15 -13.45" fill="none" stroke="#00ffff" stroke-linecap="round" stroke-linejoin="round" stroke-width="0.05"/>
    <path d="M15.9 -19.4 L11.5 -19.3 Q13.85 -16.9 14.3 -13.65 L14.3 -13.4 13.6 -12.75 M18.65 -8.4 L18.3 -8.7 15.55 -10.95 Q12.45 -13.45 8.65 -13.9 8.0 -13.85 7.5 -14.45 M11.5 -19.3 L8.95 -17.95 M20.85 -6.65 L21.7 -6.1 M18.65 -8.4 Q19.65 -7.5 20.85 -6.65 M-39.5 7.1 L-39.2 7.65 -33.25 3.5 -37.75 -1.55 -37.95 -1.0 Q-39.25 -0.9 -38.75 -1.75 L-37.75 -1.55 M-30.2 4.5 Q-28.1 8.35 -24.55 11.2 L-22.55 12.7 Q-26.7 16.2 -30.05 20.75 L-31.95 23.15 -32.7 24.0 M-32.2 2.9 L-31.25 2.3 -30.2 4.5 M-33.25 3.5 L-32.2 2.9 M-43.75 2.0 Q-43.75 3.7 -45.55 2.7 L-46.0 2.3 Q-44.8 1.0 -43.75 2.0 -42.85 3.6 -41.4 4.8 L-39.8 6.65 -39.5 7.1" fill="none" stroke="#006699" stroke-linecap="round" stroke-linejoin="round" stroke-width="0.05"/>
    <path d="M17.9 -7.8 L18.65 -8.4 20.95 -10.3 Q18.55 -13.25 16.45 -16.5 M20.75 -14.05 L20.9 -13.75 20.8 -14.45 20.5 -15.05 Q20.5 -14.45 20.75 -14.05 M22.1 -11.2 L22.3 -11.35 20.9 -13.75 M21.4 -10.65 L20.95 -10.3 22.45 -8.45 Q23.6 -9.45 25.1 -10.25 L25.7 -10.7 M20.85 -6.65 L22.45 -8.45 23.05 -7.75 M23.7 -12.45 L22.3 -11.35 23.1 -10.15 M30.05 -11.3 L31.1 -11.75 Q34.25 -13.6 37.25 -15.7 L42.35 -18.85 42.8 -18.8 M36.7 -12.15 Q38.85 -14.35 41.55 -16.3 L42.8 -17.35 M43.95 -13.6 Q45.2 -13.9 46.1 -14.9 L46.55 -15.05 M-25.75 -5.2 Q-24.45 -8.8 -21.7 -11.6 L-19.1 -14.2 M-17.15 -13.45 L-16.7 -13.75 M-18.95 -11.4 L-19.95 -10.4 M-17.15 -13.45 L-18.95 -11.4 M-30.2 4.5 L-29.0 3.1 -27.75 1.7 M-30.2 4.5 L-31.8 6.35 M-32.2 2.9 L-29.8 0.25 M-32.2 2.9 L-34.1 5.15 Q-36.8 8.55 -39.9 11.25 M-39.5 7.1 L-35.85 2.9 M-39.5 7.1 L-39.75 7.35 -44.6 13.55 -46.0 15.3" fill="none" stroke="#333333" stroke-linecap="round" stroke-linejoin="round" stroke-width="0.05"/>
  </g>
  <defs>
    <radialGradient cx="0" cy="0" gradientTransform="matrix(0.086, 0.0, 0.0, 0.0569, -7.8, 6.1)" gradientUnits="userSpaceOnUse" id="gradient0" r="819.2" spreadMethod="pad">
      <stop offset="0.4627450980392157" stop-color="#000000" stop-opacity="0.9019608"/>
      <stop offset="0.8156862745098039" stop-color="#b9b9b9"/>
      <stop offset="1.0" stop-color="#cff9fe" stop-opacity="0.9019608"/>
    </radialGradient>
    <radialGradient cx="0" cy="0" gradientTransform="matrix(0.086, 0.0, 0.0, 0.0569, -11.0, 6.65)" gradientUnits="userSpaceOnUse" id="gradient1" r="819.2" spreadMethod="pad">
      <stop offset="0.4627450980392157" stop-color="#000000" stop-opacity="0.9019608"/>
      <stop offset="0.8156862745098039" stop-color="#b9b9b9"/>
      <stop offset="1.0" stop-color="#cff9fe" stop-opacity="0.9019608"/>
    </radialGradient>
  </defs>
</svg>
