<?xml version="1.0" encoding="UTF-8" standalone="no"?>
<svg xmlns:xlink="http://www.w3.org/1999/xlink" height="68.7px" width="105.7px" xmlns="http://www.w3.org/2000/svg">
  <g transform="matrix(1.0, 0.0, 0.0, 1.0, 52.85, 34.35)">
    <path d="M37.0 -23.95 Q52.35 -14.0 52.35 0.0 52.35 14.0 37.0 23.9 21.7 33.85 0.0 33.85 -21.7 33.85 -37.05 23.9 -52.35 14.0 -52.35 0.0 -52.35 -14.0 -37.05 -23.95 -21.7 -33.85 0.0 -33.85 21.7 -33.85 37.0 -23.95" fill="url(#gradient0)" fill-rule="evenodd" stroke="none"/>
    <path d="M37.0 -23.95 Q52.35 -14.0 52.35 0.0 52.35 14.0 37.0 23.9 21.7 33.85 0.0 33.85 -21.7 33.85 -37.05 23.9 -52.35 14.0 -52.35 0.0 -52.35 -14.0 -37.05 -23.95 -21.7 -33.85 0.0 -33.85 21.7 -33.85 37.0 -23.95 Z" fill="none" stroke="#000000" stroke-linecap="round" stroke-linejoin="round" stroke-width="1.0"/>
  </g>
  <defs>
    <radialGradient cx="0" cy="0" gradientTransform="matrix(0.086, 0.0, 0.0, 0.0569, -7.8, 6.1)" gradientUnits="userSpaceOnUse" id="gradient0" r="819.2" spreadMethod="pad">
      <stop offset="0.4627450980392157" stop-color="#000000" stop-opacity="0.9019608"/>
      <stop offset="0.8156862745098039" stop-color="#b9b9b9"/>
      <stop offset="1.0" stop-color="#cff9fe" stop-opacity="0.9019608"/>
    </radialGradient>
  </defs>
</svg>
