<?xml version="1.0" encoding="UTF-8" standalone="no"?>
<svg xmlns:xlink="http://www.w3.org/1999/xlink" height="330.0px" width="487.1px" xmlns="http://www.w3.org/2000/svg">
  <g transform="matrix(1.0, 0.0, 0.0, 1.0, 229.65, 165.15)">
    <path d="M225.15 -165.15 L225.15 164.85 -224.85 164.85 -224.85 -165.15 225.15 -165.15" fill="#1a2235" fill-rule="evenodd" stroke="none"/>
    <path d="M225.15 -165.15 L225.15 164.85 -224.85 164.85 -224.85 -165.15 225.15 -165.15" fill="url(#gradient0)" fill-rule="evenodd" stroke="none"/>
    <path d="M127.2 18.25 L128.35 19.2 148.3 10.9 148.55 11.05 Q152.3 15.55 157.95 17.6 160.55 18.6 162.7 19.95 L166.65 18.6 170.2 18.45 Q175.85 18.65 180.25 15.15 182.1 13.6 184.15 12.35 196.4 5.15 207.95 -3.0 210.75 4.3 215.0 10.9 L216.15 12.3 228.75 10.85 240.1 29.55 -229.65 29.55 -229.65 23.1 -204.85 10.8 -202.25 13.2 -201.05 13.95 -199.65 14.4 -198.6 14.3 -196.2 16.5 -194.5 16.2 Q-191.45 14.45 -188.25 13.15 -174.2 7.45 -161.75 -1.25 -161.5 0.5 -160.55 2.1 -160.0 3.0 -159.1 3.5 -153.55 6.75 -148.2 10.7 -145.15 12.9 -142.4 15.5 -140.7 17.05 -138.7 15.9 -136.4 14.65 -134.25 13.85 L-127.75 14.4 -123.5 14.6 Q-120.25 15.55 -117.6 17.4 -115.9 18.55 -114.2 18.25 L-108.15 16.95 Q-105.95 16.3 -103.8 17.3 -99.45 19.25 -94.75 19.85 -91.8 20.0 -89.1 18.65 -69.25 9.4 -48.25 2.75 -47.45 2.45 -46.65 3.05 -42.6 6.3 -39.65 10.85 -35.85 16.8 -30.75 20.5 L-20.7 15.6 Q-19.5 18.55 -16.65 19.05 -15.6 19.25 -14.95 19.85 -14.45 20.4 -13.9 20.4 L-8.5 17.8 -7.35 18.7 Q-4.75 20.35 -1.55 20.25 L1.55 21.05 Q6.45 21.9 10.25 18.45 16.35 12.95 23.55 9.35 30.1 6.05 33.85 0.5 35.1 4.45 38.15 7.3 41.6 10.6 46.05 12.1 L75.95 -8.25 75.75 -6.65 76.4 -6.2 79.9 -4.65 Q82.1 -3.6 83.9 -1.95 L94.95 8.4 96.95 10.05 Q103.15 14.15 110.8 15.5 115.0 16.45 118.95 18.05 123.2 19.8 127.2 18.25" fill="url(#gradient1)" fill-rule="evenodd" stroke="none"/>
    <path d="M257.0 28.45 L-13.05 28.45 Q-13.55 22.55 -13.55 16.5 -13.55 -39.65 26.1 -79.35 65.8 -119.0 121.95 -119.0 178.1 -119.0 217.75 -79.35 257.45 -39.65 257.45 16.5 L257.0 28.45" fill="url(#gradient2)" fill-rule="evenodd" stroke="none"/>
    <path d="M118.75 29.0 Q123.6 28.45 128.45 29.15 L131.6 29.7 115.9 35.4 130.85 37.55 118.05 40.4 129.65 42.9 Q126.75 44.5 123.5 44.75 L121.25 44.9 120.4 45.0 119.65 45.2 118.0 46.2 117.4 46.8" fill="none" stroke="#ffffff" stroke-linecap="round" stroke-linejoin="round" stroke-opacity="0.7921569" stroke-width="0.05"/>
    <path d="M117.4 46.8 L117.25 46.95 Q119.4 48.25 123.35 48.95 L125.6 49.35 126.65 49.9 127.65 50.45 129.45 51.8 120.15 55.35 127.85 60.9 127.45 61.6 120.9 62.5 126.25 64.65" fill="none" stroke="#ffffff" stroke-linecap="round" stroke-linejoin="round" stroke-opacity="0.6313726" stroke-width="0.05"/>
    <path d="M126.25 64.65 L128.0 65.35 123.0 67.5 129.75 69.65 118.45 74.25 130.15 77.5 124.45 80.35 129.7 81.75" fill="none" stroke="#ffffff" stroke-linecap="round" stroke-linejoin="round" stroke-opacity="0.5019608" stroke-width="0.05"/>
    <path d="M129.7 81.75 L132.3 82.45 126.6 85.3 131.6 86.05 127.3 88.9 133.7 90.3 125.35 93.4 Q127.2 94.95 129.5 95.8 L130.95 96.2 132.5 96.5 134.05 96.5 135.7 96.4 137.3 96.0 129.8 98.15" fill="none" stroke="#ffffff" stroke-linecap="round" stroke-linejoin="round" stroke-opacity="0.34117648" stroke-width="0.05"/>
    <path d="M129.8 98.15 L122.3 100.3 134.45 104.6 126.6 107.45 131.45 109.05 125.9 111.0 129.5 113.15" fill="none" stroke="#ffffff" stroke-linecap="round" stroke-linejoin="round" stroke-opacity="0.22352941" stroke-width="0.05"/>
    <path d="M129.5 113.15 L133.0 115.25 126.6 117.4 133.0 119.55 128.0 121.0 134.3 123.85" fill="none" stroke="#ffffff" stroke-linecap="round" stroke-linejoin="round" stroke-opacity="0.17254902" stroke-width="0.05"/>
    <path d="M134.3 123.85 L135.85 124.55 132.45 125.25 Q130.8 125.8 129.3 126.65 L127.3 128.1 132.15 131.35 127.3 133.8 132.3 135.95 130.3 138.15" fill="none" stroke="#ffffff" stroke-linecap="round" stroke-linejoin="round" stroke-opacity="0.0627451" stroke-width="0.05"/>
  </g>
  <defs>
    <linearGradient gradientTransform="matrix(-1.0E-4, 0.1982, -0.2014, -1.0E-4, 0.15, -0.15)" gradientUnits="userSpaceOnUse" id="gradient0" spreadMethod="pad" x1="-819.2" x2="819.2">
      <stop offset="0.0" stop-color="#c6f0ff" stop-opacity="0.5019608"/>
      <stop offset="0.5882352941176471" stop-color="#ae5414"/>
      <stop offset="1.0" stop-color="#275387" stop-opacity="0.0"/>
    </linearGradient>
    <linearGradient gradientTransform="matrix(0.0, 0.0244, -0.0231, 0.0, 4.9, 10.65)" gradientUnits="userSpaceOnUse" id="gradient1" spreadMethod="pad" x1="-819.2" x2="819.2">
      <stop offset="0.5843137254901961" stop-color="#000000" stop-opacity="0.18039216"/>
      <stop offset="1.0" stop-color="#dc2323" stop-opacity="0.12156863"/>
    </linearGradient>
    <radialGradient cx="0" cy="0" gradientTransform="matrix(0.1671, 0.0, 0.0, 0.1671, 121.95, 16.5)" gradientUnits="userSpaceOnUse" id="gradient2" r="819.2" spreadMethod="pad">
      <stop offset="0.054901960784313725" stop-color="#ffffff"/>
      <stop offset="0.09803921568627451" stop-color="#ff513a" stop-opacity="0.2"/>
      <stop offset="0.7843137254901961" stop-color="#ff513a" stop-opacity="0.18039216"/>
      <stop offset="1.0" stop-color="#9c1818" stop-opacity="0.0"/>
    </radialGradient>
  </defs>
</svg>
