<?xml version="1.0" encoding="UTF-8" standalone="no"?>
<svg xmlns:xlink="http://www.w3.org/1999/xlink" height="377.55px" width="495.4px" xmlns="http://www.w3.org/2000/svg">
  <g transform="matrix(1.0, 0.0, 0.0, 1.0, 245.9, 191.9)">
    <path d="M-199.3 -179.75 Q-199.05 -180.15 -198.5 -180.3 -184.65 -159.0 -187.25 -132.25 -187.75 -127.45 -189.45 -123.45 -186.55 -115.0 -185.85 -105.25 L-185.85 -104.8 Q-183.65 -101.45 -181.05 -98.3 -176.35 -92.65 -173.4 -85.95 -167.9 -73.55 -165.35 -60.7 -164.9 -67.65 -164.95 -74.6 -164.95 -83.2 -162.1 -90.7 -159.15 -119.95 -167.85 -147.7 -170.2 -155.3 -171.55 -163.05 -173.05 -171.9 -167.05 -176.55 L-165.35 -175.6 -164.95 -175.15 Q-165.45 -158.7 -159.15 -142.9 -156.1 -150.85 -150.1 -158.0 -146.4 -162.4 -143.65 -167.6 -142.85 -169.25 -141.35 -169.8 -140.0 -161.45 -147.6 -153.55 -154.05 -146.85 -157.4 -138.7 -154.8 -132.6 -155.1 -125.9 -155.7 -112.75 -157.2 -99.95 L-157.15 -100.1 -156.8 -100.2 -155.75 -100.35 -155.7 -100.45 -154.8 -100.15 Q-149.2 -108.85 -139.15 -114.4 L-134.45 -118.7 -128.45 -123.65 -124.2 -127.1 Q-118.25 -138.65 -126.6 -150.0 -128.7 -152.8 -128.15 -156.35 -125.75 -171.6 -128.1 -187.25 -127.5 -190.15 -125.9 -191.75 L-125.85 -191.9 Q-119.2 -172.05 -120.95 -150.25 -121.2 -147.8 -119.6 -145.5 -118.05 -143.3 -117.4 -140.75 -117.35 -137.0 -118.3 -133.65 -112.65 -140.65 -106.1 -146.85 -103.3 -149.5 -100.85 -152.45 L-100.1 -153.5 Q-95.3 -160.3 -91.45 -167.65 -87.4 -175.35 -80.85 -181.05 L-79.4 -181.3 -79.4 -181.4 -77.2 -180.35 -76.9 -179.95 Q-81.45 -171.0 -86.9 -162.2 -94.3 -145.95 -108.45 -134.5 -110.65 -132.7 -112.55 -129.95 -124.45 -112.6 -143.15 -102.7 L-149.7 -95.9 -153.45 -91.5 Q-157.25 -68.85 -158.4 -45.55 L-158.6 -43.4 -157.65 -37.65 Q-149.9 -47.65 -140.45 -56.4 L-138.1 -61.25 -138.1 -61.75 -138.15 -62.85 Q-136.25 -69.65 -135.0 -76.75 L-134.85 -77.25 Q-137.0 -88.35 -134.7 -98.05 L-134.35 -98.3 Q-127.45 -81.95 -133.95 -66.0 -133.05 -64.95 -132.65 -63.4 -128.65 -67.4 -125.55 -72.45 -118.05 -84.6 -105.75 -92.0 -101.4 -94.6 -97.3 -97.5 -94.65 -109.3 -95.3 -122.6 -95.6 -128.15 -92.5 -131.1 -90.5 -123.85 -90.35 -114.15 -90.25 -107.3 -92.3 -101.25 -87.4 -105.15 -82.9 -109.55 -78.65 -123.35 -71.05 -134.05 -73.9 -142.8 -74.7 -153.95 -74.7 -154.7 -73.8 -154.45 -67.5 -146.5 -68.9 -136.95 -66.95 -140.85 -63.35 -143.9 L-62.0 -144.65 -60.2 -144.3 Q-54.2 -149.6 -46.0 -153.35 -36.45 -157.65 -29.0 -164.25 -38.7 -147.05 -60.5 -140.7 L-60.6 -140.65 Q-62.1 -137.75 -64.2 -134.55 L-64.9 -133.05 -65.85 -131.9 Q-66.95 -127.4 -68.5 -123.15 -58.9 -131.05 -44.45 -133.55 -39.95 -134.3 -35.75 -136.6 -27.2 -141.2 -19.9 -146.8 -17.8 -141.8 -26.05 -137.35 -45.4 -127.0 -65.65 -119.4 -68.55 -118.3 -71.05 -116.2 L-72.05 -115.35 Q-80.15 -100.3 -96.0 -90.55 -110.3 -81.75 -119.65 -68.1 -123.65 -62.35 -128.7 -57.6 -143.0 -44.3 -155.45 -29.4 L-157.5 -26.8 Q-158.5 -16.4 -163.65 -6.5 L-164.2 -5.45 -166.65 6.7 Q-149.6 -10.65 -126.7 -21.7 -120.3 -24.75 -115.3 -29.95 -107.75 -37.7 -101.7 -46.5 -108.1 -51.65 -114.85 -56.3 -117.05 -57.85 -117.95 -60.35 -117.95 -61.25 -117.15 -61.85 -116.3 -62.6 -115.5 -62.65 -106.55 -57.7 -98.5 -51.4 L-95.95 -55.7 -93.45 -56.05 -91.25 -57.5 Q-90.85 -68.75 -92.1 -79.7 -92.35 -81.3 -90.7 -81.35 L-89.45 -80.9 -88.7 -80.5 Q-85.95 -73.25 -84.45 -65.75 -82.5 -72.2 -81.85 -79.35 -81.8 -79.85 -81.4 -79.95 -78.05 -71.25 -84.05 -63.4 -82.55 -54.9 -82.65 -46.05 -73.35 -49.9 -63.5 -52.65 L-62.6 -52.85 -61.55 -52.45 -61.0 -52.15 -58.15 -52.5 -59.9 -51.4 -60.65 -50.9 -61.05 -49.85 -61.5 -49.3 Q-72.2 -44.9 -82.75 -41.05 L-83.0 -37.65 -82.9 -36.65 Q-77.6 -29.45 -74.25 -20.4 L-73.3 -18.1 Q-72.6 -22.85 -70.25 -27.35 L-69.9 -27.9 Q-67.35 -29.2 -65.8 -31.1 -65.7 -30.2 -66.25 -29.45 L-66.5 -28.95 Q-66.75 -27.85 -65.95 -26.8 L-69.75 -11.8 Q-68.4 -9.85 -66.7 -8.0 -63.8 -4.75 -62.15 -0.75 -60.8 2.6 -59.7 6.3 L-57.55 3.2 -43.55 -15.1 Q-40.15 -30.8 -42.7 -47.5 L-42.75 -48.55 Q-42.4 -49.55 -41.55 -50.15 L-40.6 -54.15 -40.15 -54.25 Q-39.55 -52.8 -39.75 -51.05 L-39.8 -50.55 -38.3 -48.9 Q-35.2 -33.65 -39.75 -20.25 L-38.65 -21.8 Q-32.45 -30.25 -29.7 -40.6 -28.25 -46.05 -26.0 -51.0 -28.15 -69.65 -29.1 -89.35 -29.55 -98.4 -25.6 -104.35 -23.7 -94.25 -22.8 -83.75 -22.15 -89.55 -18.1 -93.55 L-18.05 -93.65 Q-14.9 -84.6 -22.45 -78.85 L-22.2 -71.75 -21.75 -69.05 Q-20.75 -64.2 -21.1 -59.75 -16.55 -66.55 -10.15 -72.35 -6.95 -75.25 -4.55 -79.0 -1.0 -84.7 1.55 -90.75 1.3 -92.9 1.65 -95.1 L1.95 -96.15 Q3.35 -107.65 2.55 -119.25 1.75 -131.15 4.55 -142.7 6.35 -145.3 8.6 -146.8 11.3 -145.8 9.95 -143.2 L9.75 -142.7 Q9.55 -125.5 7.75 -108.55 13.5 -126.35 30.2 -137.8 L30.8 -138.05 Q32.65 -131.75 25.25 -125.6 15.8 -117.7 10.2 -106.7 L8.6 -106.15 Q8.5 -104.1 7.25 -104.55 L7.15 -103.15 Q7.8 -103.6 8.6 -103.85 9.6 -102.4 10.1 -100.65 L10.25 -100.1 Q4.8 -70.15 -18.3 -49.5 -19.6 -48.35 -20.35 -46.5 -22.2 -41.7 -24.15 -37.0 L-24.1 -36.45 -23.55 -36.9 -13.6 -44.15 Q-5.7 -51.1 3.95 -56.3 L5.1 -56.75 5.25 -56.7 Q12.9 -61.5 20.8 -65.95 26.0 -68.9 30.25 -73.4 40.3 -84.15 45.75 -97.95 L47.5 -98.75 47.5 -98.85 49.25 -97.85 49.7 -97.4 48.8 -94.6 49.7 -95.45 Q59.95 -98.3 70.15 -100.4 L71.25 -100.45 Q70.75 -99.05 68.65 -98.1 L68.4 -97.75 Q57.7 -95.25 47.65 -91.6 43.35 -80.4 36.05 -71.6 43.95 -75.2 54.6 -74.45 60.3 -74.05 65.9 -75.6 L83.35 -80.65 Q85.35 -78.7 82.0 -75.95 L81.6 -75.5 Q56.9 -66.2 31.5 -66.65 20.4 -55.7 3.8 -49.2 L-2.7 -46.35 Q-14.1 -36.75 -25.25 -26.4 -28.55 -12.7 -35.2 -0.5 -30.95 -2.15 -25.95 -2.8 -19.3 -3.7 -12.85 -5.6 13.1 -38.9 54.3 -51.1 L60.75 -53.0 Q63.0 -52.7 63.55 -50.5 L63.65 -50.0 63.2 -49.0 62.4 -47.85 Q39.75 -38.75 18.7 -27.05 15.25 -25.1 12.15 -22.55 L17.5 -22.55 Q42.55 -17.2 67.1 -21.15 L67.85 -20.95 68.1 -20.35 68.25 -19.35 68.0 -18.25 Q48.0 -8.2 25.2 -15.95 16.95 -18.75 8.0 -17.5 L6.9 -17.5 Q-2.3 -8.15 -12.9 -1.2 -15.05 0.2 -17.75 0.5 L-21.7 1.05 Q-32.15 5.7 -42.8 11.4 -45.3 14.8 -48.1 18.05 -58.1 29.65 -60.4 45.2 L-61.15 49.4 Q-56.35 44.8 -49.55 41.45 -31.25 32.35 -11.7 26.4 -8.05 25.25 -4.05 24.9 L-2.35 24.75 Q1.4 22.0 6.45 20.4 L16.45 17.25 Q20.7 15.95 25.0 15.8 L35.7 15.8 36.5 16.25 37.8 17.2 37.8 17.6 36.4 19.2 34.05 19.15 Q38.7 21.0 41.2 25.4 L41.1 25.8 Q32.3 24.1 27.75 19.25 16.55 19.85 6.05 23.35 L2.9 24.6 Q3.7 25.1 4.05 26.15 L4.25 26.65 Q4.3 27.6 3.7 28.25 L2.8 29.15 Q-5.45 30.15 -13.15 32.05 L-8.4 32.3 -8.4 32.2 Q6.0 32.45 16.85 39.2 L16.8 39.5 Q-3.3 39.85 -24.3 35.3 -46.15 42.85 -63.85 58.3 L-66.3 63.75 Q-76.05 83.45 -81.85 104.5 -84.25 113.25 -84.4 122.4 L-84.4 123.3 Q-66.9 125.45 -53.95 111.45 L-50.85 108.85 Q-46.55 108.1 -45.35 112.25 -46.05 115.8 -49.05 118.1 -43.7 117.25 -43.1 122.6 -38.3 126.9 -31.15 125.45 -29.4 126.6 -29.5 128.65 L-29.5 129.0 Q-25.55 127.9 -22.0 129.9 -21.2 128.9 -20.85 127.65 L-20.25 126.5 Q-14.25 127.3 -7.85 130.85 L-5.6 130.8 Q-5.6 127.55 -5.75 124.35 -5.75 123.45 -5.15 122.75 1.45 120.4 1.85 128.3 4.15 127.4 5.95 128.8 12.55 130.8 16.55 136.85 30.15 137.85 42.65 134.8 L46.85 133.3 Q50.75 131.5 53.45 135.05 60.05 134.8 66.6 134.9 L67.9 133.65 Q68.85 129.9 68.1 126.3 67.8 125.1 68.85 125.05 70.05 126.3 71.9 126.55 L72.45 126.85 Q73.75 130.25 72.9 133.85 L72.55 135.05 75.1 135.15 75.1 134.9 Q75.1 129.25 81.0 123.3 L81.85 122.4 Q85.35 121.65 87.9 119.25 L88.05 119.2 Q87.65 121.1 85.45 122.45 L84.7 122.95 83.8 124.75 78.3 135.3 86.0 135.9 Q86.2 134.6 86.85 133.4 87.3 132.6 88.05 132.4 90.2 133.2 89.55 135.4 L89.3 135.95 89.15 136.2 Q98.6 137.15 108.0 138.85 110.1 139.25 111.65 140.7 118.85 147.35 129.65 143.05 140.7 138.65 152.75 136.5 157.7 129.85 164.0 126.3 162.85 124.3 160.85 122.9 160.15 122.4 159.95 121.5 159.3 120.55 160.85 120.1 L162.05 119.75 Q166.0 121.2 167.9 124.45 170.9 123.3 174.25 122.8 L173.35 121.35 Q173.55 120.05 173.2 118.8 173.15 118.5 173.65 118.65 L176.1 122.55 187.05 122.95 188.5 121.05 187.7 118.35 187.65 118.0 Q185.7 108.8 191.1 100.25 L191.15 100.1 Q192.5 105.15 191.9 112.35 L191.5 117.55 Q196.1 112.65 201.85 109.7 L201.4 109.55 Q195.6 100.9 197.5 91.55 197.6 90.9 198.2 90.85 L199.25 91.3 200.0 91.75 Q202.55 99.75 204.7 107.9 L204.8 108.35 204.95 108.25 205.5 107.35 Q203.85 95.35 202.95 82.45 L202.95 81.95 Q204.55 80.4 205.3 78.75 L205.4 78.75 Q206.7 90.3 208.4 102.2 L210.75 97.35 Q212.0 82.2 209.95 66.95 L208.2 54.95 207.45 50.05 Q204.85 43.1 204.5 35.8 203.7 35.1 203.6 33.8 L203.6 33.25 Q202.5 14.65 188.15 0.65 L182.2 -5.3 Q171.0 -8.45 157.1 -6.35 136.45 -3.25 118.75 -11.65 112.85 -14.5 114.55 -17.9 115.55 -17.25 116.5 -17.5 L117.4 -17.7 Q140.15 -7.1 166.65 -11.3 L171.7 -11.65 Q164.45 -15.75 158.3 -22.15 154.45 -26.2 149.45 -28.85 144.2 -31.65 138.65 -34.1 138.2 -34.65 138.15 -35.25 137.95 -36.65 136.3 -36.8 L136.45 -37.2 137.4 -37.15 138.85 -37.8 140.05 -38.2 Q151.55 -34.55 161.35 -28.15 150.9 -40.6 141.55 -53.8 139.05 -57.3 139.15 -61.4 139.7 -62.4 140.75 -62.95 L141.6 -63.35 141.95 -63.2 143.4 -62.85 Q152.1 -48.7 162.95 -36.05 159.5 -45.8 159.6 -57.3 159.7 -63.8 158.6 -69.95 146.25 -78.8 139.1 -91.75 131.6 -105.55 117.6 -111.1 116.2 -111.65 118.0 -112.05 138.2 -104.6 149.5 -85.2 150.85 -82.95 153.25 -81.5 L156.05 -79.7 Q153.65 -86.4 149.7 -92.7 148.9 -93.9 149.35 -95.25 149.65 -96.4 150.8 -96.7 L151.7 -96.9 Q170.85 -76.5 168.5 -47.2 168.2 -43.05 169.0 -38.75 170.3 -32.3 172.15 -26.05 177.8 -20.25 183.95 -14.8 196.5 -3.6 202.65 10.35 201.1 -6.35 200.5 -23.25 200.3 -27.75 199.7 -32.2 189.4 -46.9 173.95 -53.4 175.4 -55.55 178.55 -54.85 L181.25 -55.0 Q191.15 -50.9 197.3 -43.05 L195.2 -49.3 Q186.1 -73.1 176.2 -96.45 174.5 -100.4 173.4 -104.5 170.75 -106.3 168.05 -109.8 155.1 -126.8 133.55 -132.6 125.55 -134.75 117.8 -137.5 105.55 -134.3 92.35 -133.95 90.3 -135.3 87.8 -136.0 87.5 -136.1 87.35 -136.65 L110.5 -140.2 Q106.95 -141.6 103.45 -143.15 94.0 -147.25 92.55 -155.5 92.35 -156.25 93.35 -156.25 128.75 -138.85 164.55 -122.3 L168.35 -119.85 170.85 -117.4 167.1 -138.85 Q166.2 -139.15 165.35 -139.85 161.0 -160.65 140.3 -169.35 136.75 -170.85 133.85 -173.65 125.95 -181.05 129.5 -187.6 142.45 -170.65 161.3 -158.6 162.95 -157.55 164.0 -155.9 L161.45 -169.25 Q159.9 -177.4 164.65 -183.15 L165.55 -183.45 166.65 -183.7 168.0 -183.25 168.95 -182.8 Q172.45 -163.25 175.6 -142.85 177.15 -132.4 180.75 -122.45 188.7 -100.7 197.35 -79.1 196.25 -103.8 206.3 -127.65 L206.4 -127.8 Q206.15 -135.15 200.1 -139.65 199.15 -140.4 199.25 -141.65 200.1 -143.05 202.1 -143.2 L203.35 -143.4 Q206.45 -142.0 208.45 -139.8 L208.95 -174.8 210.6 -175.55 211.6 -175.85 213.0 -175.4 213.9 -174.95 Q222.2 -134.9 206.65 -96.5 204.95 -92.35 204.8 -87.8 204.45 -73.9 205.45 -60.5 L205.25 -59.55 211.85 -43.9 213.9 -38.65 Q217.4 -47.65 224.2 -55.35 223.6 -64.95 223.4 -74.25 223.4 -74.65 223.85 -74.75 228.55 -68.2 228.7 -60.0 L228.95 -60.25 Q231.25 -62.45 232.3 -65.7 234.15 -71.7 237.6 -76.4 238.1 -78.65 239.6 -80.0 L240.2 -80.3 Q242.9 -78.45 240.7 -75.1 L240.45 -74.6 240.85 -73.5 241.05 -73.0 Q234.1 -51.55 217.8 -34.85 216.55 -33.6 215.9 -32.0 218.9 -20.15 218.4 -7.35 216.7 35.55 230.25 75.85 L234.95 89.9 Q237.65 97.85 232.65 101.6 234.4 103.4 235.75 105.8 240.1 104.25 244.25 101.35 246.15 100.9 247.85 102.1 248.9 102.95 249.3 104.2 L249.5 104.75 Q246.65 110.55 242.5 112.5 244.15 116.15 244.35 120.4 L244.7 131.65 244.8 139.7 244.85 146.65 Q244.9 152.0 245.55 157.25 247.95 175.75 233.05 184.05 230.35 185.6 227.2 185.6 190.75 185.95 154.05 184.0 20.75 177.0 -112.3 178.55 -169.35 179.2 -225.85 175.65 -233.75 175.15 -233.95 167.5 -234.65 138.25 -235.7 108.65 -235.85 104.95 -234.4 101.9 L-234.6 101.7 Q-234.25 101.0 -233.7 100.65 L-233.35 100.1 -232.1 99.65 -231.05 99.4 -229.65 99.85 -228.95 100.2 Q-219.7 95.35 -213.3 86.9 -210.0 89.3 -212.65 93.75 L-212.9 94.25 -209.4 94.4 Q-209.05 94.5 -208.8 94.75 -207.65 96.7 -209.15 98.6 L-209.65 99.6 Q-205.7 100.95 -201.75 101.65 L-195.55 88.05 Q-193.3 83.2 -192.35 77.85 -185.4 39.35 -174.5 2.2 L-172.8 -4.05 -172.95 -4.55 -172.55 -9.5 -173.0 -9.9 Q-173.8 -20.6 -179.5 -28.1 L-179.95 -27.8 Q-180.35 -27.6 -180.8 -27.55 L-201.05 -26.8 -201.35 -27.9 -201.2 -28.95 -200.95 -29.5 Q-195.45 -31.65 -189.6 -32.9 L-187.25 -33.4 -183.65 -32.6 Q-186.5 -35.1 -190.0 -37.15 -203.5 -44.95 -214.8 -55.05 -226.65 -48.05 -241.4 -50.0 -244.7 -51.15 -245.9 -53.75 L-245.55 -54.7 -244.65 -55.7 Q-231.75 -54.2 -219.55 -57.65 L-217.7 -57.7 Q-221.15 -61.0 -224.4 -64.45 -224.5 -65.35 -223.85 -66.0 -222.85 -67.05 -221.75 -67.1 -210.55 -57.9 -198.55 -49.65 -204.75 -70.7 -212.85 -91.05 L-213.1 -92.05 Q-212.55 -93.9 -210.6 -93.95 L-210.6 -94.05 Q-199.55 -78.0 -196.9 -57.8 -196.05 -51.5 -193.05 -45.95 L-187.75 -42.55 Q-183.15 -39.65 -179.55 -35.8 -172.6 -28.45 -169.85 -18.6 -168.9 -24.7 -168.45 -30.85 -167.8 -39.45 -166.6 -48.25 -171.95 -67.5 -180.8 -85.7 L-182.2 -88.45 Q-185.1 -91.0 -187.65 -93.95 -188.9 -95.5 -190.45 -96.7 -214.45 -99.55 -235.8 -110.0 -236.75 -110.5 -236.6 -111.5 -236.75 -112.5 -235.9 -113.15 -235.1 -113.8 -234.25 -113.8 -210.9 -105.55 -187.6 -98.2 -191.85 -105.4 -196.8 -112.3 -201.8 -119.3 -203.2 -128.0 L-203.45 -130.15 -204.1 -130.75 Q-214.25 -146.85 -231.55 -157.2 -233.65 -158.45 -235.0 -160.7 L-234.65 -163.85 Q-234.55 -164.65 -233.65 -164.45 -215.9 -153.3 -203.6 -136.6 L-203.35 -136.3 Q-202.85 -140.0 -201.0 -142.7 L-199.8 -142.25 -199.05 -141.8 Q-197.2 -130.65 -193.3 -120.2 -189.3 -147.35 -199.55 -174.05 L-200.25 -175.7 Q-200.6 -178.1 -199.3 -179.75 M194.8 -161.6 Q193.85 -159.6 192.2 -157.8 L191.95 -157.3 Q184.85 -145.55 178.5 -132.75 L178.15 -132.2 Q176.05 -144.95 188.15 -156.9 L188.95 -157.85 Q190.05 -158.65 191.45 -158.4 192.85 -160.25 194.65 -161.55 L194.8 -161.6 M154.3 -122.2 Q161.75 -113.6 162.65 -102.05 L162.7 -101.5 Q161.15 -96.2 157.05 -92.8 158.65 -95.8 159.3 -99.2 L159.5 -100.25 Q155.15 -110.9 153.85 -121.75 153.8 -122.1 154.3 -122.2 M-192.25 -118.4 L-192.5 -118.1 -192.3 -117.6 -192.25 -118.4 M-147.35 -2.2 L-147.55 -1.7 Q-160.6 6.85 -169.45 19.25 L-171.05 25.8 Q-172.85 33.3 -173.95 41.0 -178.0 70.05 -175.3 98.9 L-171.25 98.05 Q-162.9 86.35 -165.5 72.45 -165.7 71.55 -164.6 71.75 -157.55 85.55 -169.55 96.35 L-170.25 96.9 -170.35 97.85 -163.95 96.9 -163.65 96.9 Q-161.95 93.3 -158.15 90.8 L-157.45 90.85 Q-157.45 91.75 -156.8 92.5 L-156.55 93.0 -157.95 95.45 Q-156.0 94.65 -154.75 96.55 -154.45 97.85 -154.5 99.25 L-154.55 100.3 Q-154.0 101.1 -151.5 101.7 -150.35 104.85 -151.3 108.25 L-151.25 109.2 Q-146.05 100.85 -137.0 97.05 -139.5 92.7 -135.95 87.3 L-135.6 86.75 Q-134.55 86.1 -133.25 86.05 -132.5 84.85 -131.3 84.65 L-130.95 84.6 Q-129.9 85.7 -131.45 86.8 L-132.0 87.3 Q-133.25 91.85 -134.95 96.2 L-131.4 95.15 -130.55 94.95 Q-129.25 95.1 -128.35 95.65 -124.8 93.1 -121.85 89.6 -121.6 89.3 -121.15 89.4 -123.45 93.7 -127.9 96.0 -127.15 96.55 -126.75 97.45 -127.6 101.15 -130.6 104.4 -130.3 106.65 -129.05 108.65 L-128.6 109.2 Q-126.85 108.1 -124.85 108.65 -122.2 111.45 -121.05 115.1 L-120.9 115.65 -119.45 117.25 -118.55 115.8 Q-115.85 106.6 -106.25 100.7 -88.3 89.7 -80.0 70.15 -68.65 43.5 -63.0 15.05 L-64.25 11.4 Q-69.7 -3.35 -79.1 -15.5 -85.35 -23.65 -87.6 -33.8 L-91.85 -37.9 Q-98.25 -35.75 -104.6 -33.85 -120.4 -14.0 -145.85 -3.4 L-147.15 -2.8 -147.35 -2.2 M-92.2 -55.5 Q-93.1 -54.9 -92.5 -53.85 L-92.4 -53.4 -94.9 -48.5 -90.2 -44.4 Q-91.45 -50.0 -91.25 -56.3 L-91.65 -56.0 -92.2 -55.5 M-94.65 -40.45 L-97.9 -43.3 Q-100.35 -39.4 -103.05 -35.75 L-94.65 -40.45 M-113.9 118.45 L-115.05 120.05 -114.6 119.7 -113.9 118.45 M-96.0 117.8 L-95.95 116.7 -96.25 117.25 -96.0 117.8 M-146.6 88.75 L-146.1 88.7 Q-149.75 94.25 -152.9 99.95 L-153.15 100.5 Q-153.9 100.25 -154.0 98.9 L-154.2 98.35 Q-152.85 94.0 -150.0 90.3 L-149.3 89.4 -146.6 88.75 M-158.95 97.05 L-160.6 99.35 -159.55 98.5 -158.95 97.05 M-169.8 85.3 L-169.45 85.85 Q-170.2 89.5 -169.95 93.35 L-169.95 93.9 Q-171.0 95.85 -172.4 97.6 -173.35 91.35 -171.3 84.15 -171.1 83.55 -170.4 83.7 L-169.8 85.3" fill="#000000" fill-rule="evenodd" stroke="none"/>
    <path d="M-168.4 -165.7 L-165.55 -162.15 -167.65 -158.9 Q-169.65 -157.9 -171.3 -159.45 L-172.45 -160.9 Q-172.0 -163.65 -169.55 -165.1 L-168.4 -165.7 M-141.2 -171.9 Q-143.9 -163.6 -152.5 -161.95 L-153.75 -164.65 Q-149.6 -170.05 -143.5 -173.35 L-142.1 -172.9 -141.2 -171.9 M-112.5 -171.95 L-110.7 -172.3 -109.25 -170.5 Q-112.9 -164.05 -120.8 -162.75 L-122.55 -162.5 -123.45 -163.65 -123.3 -165.7 Q-118.85 -170.55 -112.5 -171.95 M-67.2 -172.1 L-64.35 -169.6 -65.05 -168.55 Q-69.55 -162.45 -77.1 -163.05 L-79.05 -163.4 -79.45 -166.05 -67.2 -172.1 M-93.85 -166.25 Q-94.55 -163.95 -96.85 -162.85 -98.0 -162.25 -99.4 -162.5 -97.85 -165.0 -95.15 -165.95 L-93.85 -166.25 M-94.3 -172.65 L-92.45 -171.1 -93.2 -169.1 -97.25 -167.5 -99.2 -164.8 -101.25 -168.9 -100.55 -169.65 -94.3 -172.65 M192.4 -173.2 L193.75 -173.9 Q196.5 -169.55 194.25 -165.2 193.1 -163.05 190.9 -161.8 L187.45 -163.2 187.45 -165.05 Q187.75 -170.6 192.4 -173.2 M224.7 -145.9 L226.1 -145.55 227.75 -143.4 Q228.9 -134.9 220.6 -132.5 218.5 -131.95 217.05 -133.65 L217.55 -135.75 219.8 -137.35 222.9 -145.35 224.7 -145.9 M205.9 -154.45 L204.6 -150.4 Q205.2 -151.6 206.35 -152.85 L207.5 -153.95 210.0 -151.45 207.45 -143.05 205.9 -143.0 Q203.55 -145.6 203.95 -148.25 L203.45 -146.8 Q200.65 -149.0 200.75 -152.8 200.2 -156.05 203.05 -157.35 L203.9 -157.65 205.9 -154.45 M199.1 -161.75 Q198.8 -160.75 197.8 -159.85 196.2 -158.4 194.45 -159.55 L194.1 -161.75 196.2 -164.45 201.0 -165.85 202.45 -163.9 199.1 -161.75 M191.5 -158.15 L198.6 -153.95 197.3 -148.05 196.1 -148.6 Q189.5 -150.35 191.05 -156.75 L191.5 -158.15 M179.5 -153.0 Q178.4 -151.25 176.9 -151.25 175.4 -151.25 174.35 -153.0 173.25 -154.8 173.2 -157.35 173.2 -159.9 174.3 -161.65 175.3 -163.45 176.8 -163.45 178.3 -163.45 179.45 -161.65 180.5 -159.9 180.5 -157.35 180.55 -154.8 179.5 -153.0 M200.1 -138.3 L203.35 -136.95 206.8 -132.5 Q204.75 -128.15 201.25 -131.45 197.95 -134.4 200.1 -138.3 M206.85 -123.1 Q206.4 -123.1 206.1 -123.8 205.75 -124.5 205.75 -125.5 205.75 -126.5 206.05 -127.2 206.35 -127.9 206.8 -127.9 L207.6 -127.2 Q207.95 -126.5 207.95 -125.5 L207.65 -123.8 Q207.3 -123.1 206.85 -123.1 M201.95 -116.15 Q204.65 -111.7 203.3 -106.7 L198.65 -107.4 Q196.0 -111.95 198.6 -115.7 199.15 -116.45 200.0 -117.0 L201.95 -116.15 M217.9 -68.95 Q219.35 -68.95 220.45 -67.3 221.5 -65.7 221.5 -63.4 221.55 -61.1 220.5 -59.45 219.45 -57.85 218.0 -57.85 216.55 -57.85 215.5 -59.45 214.45 -61.1 214.4 -63.4 214.4 -65.7 215.45 -67.3 216.45 -68.95 217.9 -68.95 M206.75 -75.15 Q211.55 -69.55 203.8 -68.25 202.05 -68.0 201.25 -69.8 L201.65 -70.75 206.75 -75.15 M229.75 -69.25 L229.85 -68.0 228.5 -66.7 227.0 -67.1 Q223.2 -71.55 225.75 -76.75 L225.9 -76.8 Q229.55 -73.85 229.75 -69.25 M157.8 -153.65 Q156.2 -153.95 155.2 -155.05 153.35 -157.1 153.8 -159.8 L157.2 -158.9 159.55 -154.65 157.8 -153.65 M148.7 -130.35 L145.3 -136.1 150.5 -132.55 150.35 -131.1 148.7 -130.35 M145.55 -118.75 Q144.9 -119.8 144.85 -121.25 144.85 -122.7 145.5 -123.7 146.1 -124.75 146.95 -124.75 147.8 -124.75 148.45 -123.7 149.05 -122.7 149.05 -121.25 149.1 -119.8 148.5 -118.75 147.85 -117.75 147.0 -117.75 146.15 -117.75 145.55 -118.75 M158.55 -125.6 L157.95 -136.25 159.9 -137.1 Q167.95 -131.1 161.8 -122.8 160.45 -121.05 158.3 -121.3 L157.9 -121.95 158.55 -125.6 M119.4 -148.85 L120.5 -151.1 Q123.15 -147.85 122.7 -143.55 122.4 -141.05 121.0 -138.95 L119.65 -138.55 117.75 -140.0 117.75 -141.65 Q117.75 -145.5 119.4 -148.85 M132.25 -159.5 Q140.25 -161.0 147.4 -156.95 139.65 -152.4 132.05 -157.5 L131.2 -158.2 132.25 -159.5 M135.75 -142.3 Q136.65 -137.85 133.5 -134.45 L131.7 -132.75 129.05 -134.65 Q129.9 -140.05 133.45 -144.3 L135.75 -142.3 M106.8 -164.25 L107.6 -166.25 Q113.5 -157.45 109.9 -147.7 L108.35 -147.7 Q103.9 -155.65 106.8 -164.25 M110.9 -132.7 L95.65 -126.1 98.65 -129.5 Q104.55 -135.55 113.0 -135.9 L110.9 -132.7 M99.3 -138.05 L92.65 -138.8 90.45 -137.6 89.8 -137.55 89.25 -137.7 Q88.25 -138.15 87.8 -139.2 L87.45 -140.55 Q91.3 -145.05 97.3 -142.6 99.45 -141.75 101.2 -140.0 L99.3 -138.05 M133.8 -131.0 Q134.9 -131.0 135.65 -129.8 136.4 -128.65 136.4 -126.95 136.45 -125.25 135.7 -124.05 134.95 -122.9 133.85 -122.9 132.75 -122.9 132.0 -124.05 131.25 -125.25 131.2 -126.95 131.2 -128.65 131.95 -129.8 132.7 -131.0 133.8 -131.0 M122.55 -124.2 Q125.8 -128.55 129.15 -124.35 127.3 -120.2 122.9 -120.95 L122.55 -124.2 M130.4 -108.7 Q123.15 -106.25 118.75 -112.55 L120.85 -114.35 132.45 -111.15 Q132.2 -109.2 130.4 -108.7 M124.65 -105.8 Q116.4 -104.35 109.8 -109.55 L110.35 -111.7 Q118.1 -113.7 123.45 -107.25 L124.65 -105.8 M134.8 -92.2 Q134.85 -90.75 133.6 -89.7 132.35 -88.7 130.6 -88.7 128.85 -88.7 127.6 -89.7 126.35 -90.75 126.3 -92.2 126.3 -93.65 127.55 -94.65 128.8 -95.7 130.55 -95.7 132.3 -95.7 133.55 -94.65 134.8 -93.65 134.8 -92.2 M132.6 -77.2 Q138.5 -78.9 140.25 -73.3 L140.35 -72.6 138.35 -71.4 132.05 -75.85 132.6 -77.2 M134.75 -71.6 L139.75 -67.6 139.4 -66.2 138.35 -65.9 137.55 -66.05 Q134.8 -66.85 133.7 -69.5 L134.75 -71.6 M155.5 -108.2 Q153.35 -107.85 150.85 -109.35 L150.85 -109.65 154.4 -112.4 155.75 -111.35 155.5 -108.2 M151.05 -76.6 Q152.25 -76.6 153.15 -75.7 154.0 -74.85 154.05 -73.6 154.05 -72.35 153.2 -71.45 152.3 -70.6 151.1 -70.6 149.9 -70.6 149.05 -71.45 148.15 -72.35 148.15 -73.6 148.1 -74.85 149.0 -75.7 149.85 -76.6 151.05 -76.6 M163.85 -89.55 L166.0 -88.15 161.3 -75.6 159.5 -75.5 157.9 -77.6 158.2 -79.15 Q159.2 -84.45 162.8 -88.45 L163.85 -89.55 M166.0 -68.0 Q170.85 -71.95 174.15 -67.8 L174.65 -67.0 173.5 -65.3 Q181.7 -65.1 185.15 -57.85 L183.4 -56.05 Q174.7 -57.5 170.35 -63.6 L164.6 -64.8 165.9 -66.2 166.0 -68.0 M146.15 -58.75 L146.35 -60.15 151.65 -57.1 156.2 -46.0 Q154.85 -45.8 153.55 -46.85 L152.7 -47.8 150.1 -50.95 147.6 -54.25 Q146.1 -56.3 146.15 -58.75 M144.3 -43.55 Q136.95 -47.1 128.9 -48.05 L128.7 -50.7 Q135.75 -55.0 142.45 -50.2 144.25 -48.95 145.85 -47.3 L146.0 -46.1 144.3 -43.55 M176.65 -24.25 L176.7 -23.1 175.6 -21.85 173.85 -22.2 Q168.75 -26.35 171.6 -31.55 L172.2 -32.5 173.3 -31.5 Q176.4 -28.55 176.65 -24.25 M132.25 -28.95 Q141.15 -19.45 147.25 -7.95 L145.8 -7.2 131.0 -28.15 132.25 -28.95 M114.3 -19.1 L115.25 -18.15 99.9 -16.85 100.1 -19.5 105.65 -21.4 Q110.65 -22.55 114.3 -19.1 M119.8 -5.8 Q114.05 0.2 106.2 -0.45 L105.8 -2.4 109.7 -5.6 Q115.0 -10.25 119.35 -6.5 L119.8 -5.8 M131.25 -0.8 L130.85 -5.4 132.65 -6.15 133.45 -7.25 134.6 -7.75 Q136.5 -3.9 133.1 -1.65 132.2 -1.15 131.25 -0.8 M166.55 -5.9 Q166.15 -5.55 165.6 -5.55 165.05 -5.55 164.7 -5.9 164.3 -6.3 164.3 -6.8 164.3 -7.3 164.7 -7.65 165.05 -8.05 165.6 -8.05 166.15 -8.05 166.55 -7.65 L166.9 -6.8 Q166.9 -6.3 166.55 -5.9 M169.0 0.35 L167.65 0.65 Q166.35 -5.6 172.4 -7.75 175.1 -1.75 169.0 0.35 M193.6 -47.4 L190.75 -47.15 Q186.45 -51.9 189.1 -57.4 L189.8 -58.75 Q194.5 -55.15 194.2 -49.3 194.15 -48.3 193.6 -47.4 M193.7 -18.8 Q199.85 -12.55 191.3 -9.0 L192.55 -10.9 190.9 -12.75 Q190.6 -15.65 192.6 -17.75 L193.7 -18.8 M190.15 -17.55 Q189.5 -11.5 185.65 -6.95 L184.7 -5.8 181.55 -7.0 Q181.6 -12.75 185.8 -16.95 L188.0 -18.95 190.15 -17.55 M82.65 -165.0 Q88.35 -161.8 90.5 -155.8 L91.65 -151.8 90.65 -150.65 87.7 -150.35 Q83.5 -153.4 81.15 -157.95 80.05 -160.25 79.25 -162.65 L82.65 -165.0 M92.35 -134.5 Q95.4 -136.1 97.15 -133.05 L96.35 -131.05 87.05 -128.25 Q88.65 -132.4 92.35 -134.5 M25.75 -144.65 Q29.7 -137.2 25.6 -128.65 L24.85 -127.1 23.25 -126.55 21.05 -127.55 21.85 -141.45 25.75 -144.65 M20.25 -140.9 Q17.75 -135.1 12.0 -132.7 11.15 -132.35 10.25 -132.15 L7.65 -135.55 17.95 -142.0 20.25 -140.9 M34.2 -133.95 L37.95 -136.3 41.45 -134.55 Q40.5 -133.1 39.3 -132.3 37.0 -130.9 34.35 -131.65 L34.2 -133.95 M32.1 -128.9 Q31.3 -125.4 27.45 -124.95 L25.55 -125.25 Q22.85 -123.3 19.85 -124.5 26.05 -125.95 30.85 -130.95 L32.1 -128.9 M30.35 -116.85 Q22.7 -110.4 12.9 -112.3 L12.65 -114.7 18.3 -116.7 Q24.45 -120.7 29.8 -117.4 L30.35 -116.85 M54.15 -109.35 L50.35 -98.3 49.0 -97.95 48.05 -98.05 Q46.45 -98.35 45.55 -99.75 L49.75 -110.95 51.7 -111.85 54.15 -109.35 M45.45 -93.5 Q51.5 -93.1 55.8 -89.0 L56.95 -87.85 Q54.1 -85.05 50.05 -86.0 L47.35 -86.65 46.95 -85.0 44.4 -85.85 42.35 -89.05 43.65 -92.7 45.45 -93.5 M54.7 -99.75 Q59.25 -106.35 67.0 -107.45 L68.75 -107.3 Q65.85 -100.05 57.75 -98.4 L55.1 -98.0 54.7 -99.75 M22.0 -105.25 Q17.2 -100.7 12.0 -105.1 L13.35 -109.0 15.15 -108.75 16.1 -107.2 17.1 -107.25 22.0 -105.25 M34.9 -79.4 Q38.2 -76.45 35.25 -73.3 34.6 -72.55 33.5 -72.1 30.65 -75.7 34.05 -78.65 L34.9 -79.4 M20.35 -76.95 Q21.4 -75.6 21.6 -73.95 L28.9 -77.25 29.7 -75.3 Q27.6 -69.9 21.7 -70.4 19.85 -61.7 13.25 -65.0 12.95 -65.15 12.8 -65.45 L13.3 -66.35 15.55 -67.4 15.8 -77.85 17.75 -78.7 Q19.3 -78.15 20.35 -76.95 M49.5 -75.3 L59.8 -84.6 Q60.4 -74.55 50.5 -74.8 L49.5 -75.3 M44.75 -68.7 Q50.25 -73.6 58.3 -69.4 L62.95 -65.0 45.3 -66.55 44.75 -68.7 M70.55 -102.15 Q71.6 -101.75 72.75 -101.5 70.25 -98.2 66.7 -99.75 65.75 -100.05 65.4 -101.0 67.6 -103.15 70.55 -102.15 M62.35 -76.9 Q65.5 -82.3 71.2 -85.1 L72.2 -84.7 73.25 -83.5 Q70.35 -75.85 62.35 -76.9 M79.15 -83.7 Q79.15 -84.3 80.05 -84.7 L82.15 -85.1 84.3 -84.7 Q85.15 -84.3 85.15 -83.7 85.15 -83.1 84.3 -82.7 L82.15 -82.3 80.05 -82.7 Q79.15 -83.1 79.15 -83.7 M84.75 -68.35 Q83.75 -68.35 83.05 -68.8 82.3 -69.25 82.3 -69.9 82.3 -70.55 83.05 -71.0 83.75 -71.45 84.75 -71.45 L86.5 -71.0 Q87.2 -70.55 87.2 -69.9 87.2 -69.25 86.5 -68.8 85.75 -68.35 84.75 -68.35 M79.9 -68.0 Q72.65 -65.4 66.65 -70.3 72.8 -73.5 78.5 -69.05 L79.9 -68.0 M-2.4 -141.3 L-1.4 -140.55 Q0.95 -138.5 2.2 -135.6 L2.7 -134.55 1.9 -133.3 -0.15 -132.7 -5.6 -139.65 -5.9 -142.25 -3.45 -142.15 -2.4 -141.3 M-16.5 -136.5 Q-24.2 -135.9 -29.6 -131.1 L-30.15 -130.55 -31.9 -132.9 -29.6 -137.7 Q-23.8 -139.6 -18.1 -137.25 L-16.5 -136.5 M-8.8 -130.75 L-7.65 -131.1 Q-0.2 -127.25 4.25 -120.05 L2.1 -117.0 Q-6.2 -119.8 -10.85 -127.35 L-10.8 -128.15 Q-10.45 -130.0 -8.8 -130.75 M9.7 -126.3 L17.3 -131.45 Q17.25 -125.9 11.85 -124.35 L10.4 -124.15 9.7 -126.3 M-35.35 -157.65 L-25.05 -165.35 -24.4 -163.8 Q-25.35 -158.95 -30.45 -158.05 L-35.35 -157.65 M-40.3 -142.1 L-33.85 -135.25 -34.8 -134.85 -38.05 -135.0 Q-42.0 -137.35 -41.35 -141.9 L-43.8 -141.8 -48.1 -142.5 -52.35 -143.8 -52.35 -145.25 Q-49.8 -146.4 -46.85 -146.35 -41.45 -145.55 -36.55 -143.75 L-40.3 -142.1 M-40.15 -158.55 Q-41.2 -152.7 -47.7 -150.7 L-48.85 -150.35 Q-46.3 -157.75 -39.1 -160.15 L-40.15 -158.55 M-59.1 -147.2 L-59.65 -148.6 -55.85 -156.6 -52.45 -157.85 Q-52.0 -151.6 -56.55 -147.5 L-57.7 -146.6 -59.1 -147.2 M-52.55 -129.15 Q-45.55 -128.45 -40.35 -124.1 L-39.15 -123.1 Q-47.65 -122.0 -54.45 -127.7 L-52.55 -129.15 M-39.2 -90.65 Q-37.75 -91.5 -36.4 -92.4 L-32.25 -86.0 -28.3 -84.75 Q-29.3 -82.15 -31.65 -81.35 L-33.95 -81.2 -34.85 -81.55 Q-38.15 -84.8 -39.0 -89.3 L-39.2 -90.65 M-30.05 -79.95 Q-19.7 -78.8 -21.6 -70.1 L-22.1 -69.05 -31.8 -78.8 -30.05 -79.95 M-14.4 -93.45 L-15.3 -92.55 -16.1 -88.6 Q-17.6 -88.1 -18.75 -89.3 -19.7 -90.3 -20.35 -91.7 -18.6 -99.95 -13.25 -100.45 -11.55 -96.5 -14.4 -93.45 M-4.3 -79.55 Q-6.25 -73.05 -12.8 -72.0 -14.45 -71.85 -16.05 -72.65 L-7.9 -78.85 -4.3 -79.55 M-17.05 -85.3 L-16.2 -84.35 -14.2 -84.6 -16.35 -83.45 -17.05 -85.3 M14.45 -46.8 L16.15 -45.8 Q17.5 -40.25 14.85 -35.15 L14.0 -33.75 11.0 -35.0 Q10.4 -40.1 12.95 -44.45 L14.45 -46.8 M-13.45 -44.6 L-11.2 -44.65 -7.6 -41.6 Q-11.25 -39.55 -15.35 -38.9 -17.85 -38.55 -20.2 -38.8 L-20.45 -41.6 -19.65 -42.3 Q-16.75 -44.35 -13.45 -44.6 M-23.2 -31.9 Q-23.25 -33.0 -22.25 -33.75 -21.3 -34.5 -19.95 -34.5 -18.6 -34.5 -17.6 -33.75 -16.65 -33.0 -16.6 -31.9 -16.6 -30.8 -17.55 -30.05 -18.55 -29.3 -19.9 -29.3 -21.25 -29.3 -22.2 -30.05 -23.2 -30.8 -23.2 -31.9 M-14.95 -22.35 L-15.6 -19.7 Q-22.65 -17.2 -27.7 -22.4 L-28.6 -23.5 -28.0 -24.5 Q-22.05 -26.6 -16.45 -23.35 L-14.95 -22.35 M7.2 -25.25 L5.85 -24.5 4.3 -26.65 9.55 -36.6 10.8 -33.15 Q11.45 -27.95 7.2 -25.25 M-34.5 -42.35 Q-35.85 -39.1 -34.6 -35.65 -34.35 -34.95 -34.4 -34.2 L-34.5 -33.6 -35.7 -38.6 -42.6 -42.2 -39.8 -35.75 -42.5 -33.75 Q-59.1 -41.6 -52.65 -52.65 L-47.05 -48.5 -46.15 -48.75 Q-40.95 -47.45 -36.75 -44.2 L-34.5 -42.35 M-32.05 -62.3 L-30.05 -59.05 Q-28.9 -53.7 -31.6 -48.6 L-32.45 -46.95 -37.25 -45.7 Q-36.8 -49.8 -36.8 -53.8 -36.75 -55.95 -34.7 -56.8 L-32.05 -62.3 M-59.95 -50.7 L-58.25 -49.3 Q-59.25 -44.75 -63.5 -45.8 -64.85 -46.0 -65.25 -47.5 L-64.7 -49.15 -73.6 -44.65 -75.65 -45.05 Q-71.1 -43.2 -70.45 -38.65 L-76.45 -40.1 -78.85 -37.7 -80.7 -39.65 -78.7 -44.9 Q-74.5 -53.2 -63.85 -55.45 -60.5 -56.7 -58.95 -53.65 L-58.55 -52.35 -59.95 -50.7 M-60.55 -19.05 Q-60.8 -18.0 -60.7 -16.85 L-70.9 -4.1 -72.75 -5.95 -67.8 -15.0 Q-70.4 -12.4 -73.45 -14.15 L-74.25 -14.8 -75.15 -15.75 Q-69.75 -21.65 -61.95 -22.2 -60.0 -21.1 -60.55 -19.05 M-25.1 6.25 Q-30.05 7.6 -34.8 5.65 L-34.9 4.4 Q-33.15 1.0 -29.55 2.15 -26.65 3.1 -23.95 4.7 L-25.1 6.25 M-51.05 12.0 L-49.95 11.35 -35.65 17.95 -40.1 18.45 Q-47.0 19.3 -51.8 14.25 L-51.05 12.0 M-48.95 24.55 L-48.3 27.75 Q-46.3 29.15 -44.5 30.9 L-44.75 31.1 -45.4 31.4 -46.05 31.45 Q-48.15 31.45 -49.6 30.05 L-48.95 24.55 M-24.15 24.55 L-21.8 26.5 Q-22.8 30.85 -26.55 33.75 -29.45 35.9 -32.9 35.35 L-33.35 32.55 -32.4 31.3 -24.15 24.55 M-15.9 4.85 L-15.5 6.3 -16.95 12.05 -17.75 12.65 Q-19.25 12.55 -20.25 11.25 -21.65 9.4 -21.8 7.05 L-17.9 3.65 -15.9 4.85 M-14.55 16.95 Q-13.6 17.25 -13.3 18.3 L-13.9 19.9 -21.85 23.3 -23.1 21.15 Q-20.4 14.55 -14.55 16.95 M-9.35 25.4 L0.1 20.45 Q1.7 22.2 0.65 24.15 -2.8 30.6 -9.5 28.1 L-9.35 25.4 M16.5 23.35 L29.95 14.0 30.4 15.35 30.55 16.65 Q29.75 24.5 21.95 26.6 L24.6 31.7 22.3 33.1 21.15 32.65 20.05 32.0 Q16.65 30.0 15.3 26.3 L16.65 24.85 16.5 23.35 M75.3 -56.3 L71.65 -53.55 71.1 -57.2 72.1 -58.0 75.3 -56.3 M64.5 -51.95 L69.3 -53.0 74.4 -50.7 63.4 -46.55 61.9 -49.45 64.5 -51.95 M72.35 -30.9 L75.4 -27.9 74.5 -27.2 Q72.9 -26.0 70.75 -25.5 L67.6 -25.6 66.7 -26.65 53.9 -21.3 51.75 -21.65 48.6 -20.05 51.45 -22.5 51.55 -24.85 Q56.85 -29.0 63.75 -29.75 L64.95 -28.5 64.6 -27.05 66.65 -27.55 67.55 -29.15 72.35 -30.9 M63.15 -41.25 L50.6 -42.45 52.1 -43.75 52.15 -44.5 Q48.95 -42.6 45.45 -43.95 L45.05 -44.35 44.65 -44.65 54.4 -48.55 54.55 -46.85 61.15 -45.0 63.15 -41.25 M37.4 -44.2 L35.7 -43.75 33.75 -41.95 30.55 -43.2 34.55 -43.4 Q37.75 -52.5 40.7 -48.7 40.6 -45.3 37.4 -44.2 M25.6 -42.5 L24.3 -41.95 Q25.2 -47.3 29.4 -50.7 30.5 -45.1 25.6 -42.5 M27.55 -20.2 L36.6 -13.55 36.3 -11.9 Q28.5 -11.5 27.5 -19.1 L27.55 -20.2 M32.4 -37.15 L45.9 -30.55 44.75 -28.25 42.6 -28.15 40.55 -28.3 Q34.3 -29.2 29.85 -34.0 L30.0 -35.65 32.4 -37.15 M31.2 -19.9 L39.55 -28.4 42.6 -27.55 Q41.95 -23.8 39.2 -21.2 36.45 -18.6 32.7 -18.25 L31.2 -19.9 M53.25 -15.25 L58.3 -8.45 56.85 -8.05 50.3 -12.95 53.25 -15.25 M-68.15 -164.35 L-66.4 -166.05 Q-63.55 -161.55 -66.1 -156.9 -66.7 -155.8 -66.85 -154.45 -72.9 -158.6 -68.15 -164.35 M-82.2 -154.8 Q-88.2 -151.8 -93.6 -155.9 -88.55 -158.1 -83.5 -155.55 L-82.2 -154.8 M-89.25 -144.7 L-88.85 -143.4 Q-95.55 -138.05 -104.2 -139.65 L-104.2 -141.8 Q-98.25 -145.45 -91.25 -145.55 L-89.25 -144.7 M-105.35 -143.45 Q-103.4 -138.0 -111.45 -135.55 L-116.05 -135.6 Q-119.65 -129.35 -126.8 -131.65 L-126.95 -133.95 -117.55 -139.85 -115.8 -139.3 -113.9 -141.3 Q-110.45 -144.9 -105.8 -143.55 L-105.35 -143.45 M-91.8 -129.15 L-89.9 -128.15 Q-87.85 -117.9 -91.05 -108.2 -91.25 -107.55 -91.85 -107.05 L-93.0 -107.2 Q-93.75 -108.4 -94.05 -109.9 L-94.3 -112.8 Q-94.4 -115.65 -93.15 -117.9 L-97.3 -113.7 -98.95 -114.7 -99.75 -125.4 -97.5 -127.35 -94.75 -125.5 -93.95 -128.1 -91.8 -129.15 M-95.75 -134.85 Q-99.4 -131.35 -104.15 -132.8 -104.75 -132.95 -105.3 -133.25 L-105.2 -135.55 Q-100.7 -139.15 -97.15 -135.75 L-95.75 -134.85 M-88.45 -122.2 L-89.25 -123.8 Q-86.55 -127.25 -81.5 -127.65 L-78.95 -129.85 Q-76.35 -118.9 -87.05 -118.1 L-88.15 -118.0 -88.65 -119.9 -86.4 -122.65 -88.45 -122.2 M-110.4 -157.15 Q-112.5 -151.8 -117.95 -150.65 L-119.5 -150.55 Q-118.45 -149.85 -118.2 -148.55 -117.8 -146.35 -119.35 -144.75 L-120.25 -143.9 -122.95 -144.6 -132.0 -139.7 -135.4 -141.1 -135.75 -143.75 Q-129.45 -149.8 -121.0 -150.9 L-121.6 -153.4 Q-119.05 -157.45 -114.7 -159.6 L-113.45 -160.15 -111.5 -159.5 -110.4 -157.15 M-142.15 -159.1 L-142.95 -159.45 -144.15 -162.15 Q-143.4 -165.8 -139.85 -167.3 L-137.75 -163.75 Q-138.05 -159.15 -142.15 -159.1 M-140.3 -154.9 L-139.8 -153.65 Q-142.85 -146.5 -150.05 -147.8 L-151.65 -148.4 -151.7 -150.55 Q-147.5 -154.95 -141.25 -155.45 L-140.3 -154.9 M-135.25 -123.6 L-134.6 -123.2 -132.85 -120.0 Q-127.2 -125.3 -120.2 -120.25 L-121.05 -118.2 -135.25 -116.45 -137.15 -117.4 Q-138.4 -120.6 -136.0 -122.95 L-135.25 -123.6 M-145.1 -127.2 Q-148.3 -120.95 -155.3 -122.05 L-157.15 -122.55 -157.9 -125.75 Q-153.0 -130.55 -146.2 -129.55 L-145.1 -127.2 M-120.4 -109.25 Q-121.7 -108.45 -123.65 -108.45 -125.6 -108.45 -127.0 -109.25 -128.35 -110.1 -128.35 -111.25 -128.35 -112.4 -127.0 -113.2 -125.65 -114.05 -123.7 -114.05 -121.75 -114.05 -120.4 -113.2 -119.05 -112.4 -119.05 -111.25 -119.05 -110.1 -120.4 -109.25 M-121.95 -93.4 L-122.8 -92.75 -125.0 -93.0 Q-126.0 -97.3 -122.2 -99.4 L-121.4 -98.55 Q-119.25 -95.65 -121.95 -93.4 M-144.4 -105.7 L-145.5 -105.95 -146.3 -108.3 -140.85 -113.1 -139.15 -112.1 Q-138.05 -106.1 -144.4 -105.7 M-139.85 -99.4 L-140.7 -97.25 -150.55 -94.65 -152.0 -98.5 -148.6 -102.05 -141.45 -102.05 -139.85 -99.4 M-139.1 -91.25 L-142.5 -89.75 Q-145.4 -85.65 -150.85 -85.15 L-155.95 -85.3 -156.15 -87.45 -144.95 -92.6 -139.1 -91.25 M-126.65 -92.45 L-125.5 -90.1 Q-127.35 -84.1 -132.9 -81.85 L-137.0 -81.55 -137.55 -83.5 -129.6 -92.9 -126.65 -92.45 M-137.6 -66.95 Q-146.9 -67.45 -149.1 -76.15 L-149.4 -77.7 -146.95 -79.25 Q-139.8 -74.75 -135.1 -67.8 L-137.6 -66.95 M-131.8 -76.75 L-131.15 -75.5 -125.15 -75.3 Q-124.5 -73.55 -125.85 -72.25 -130.55 -67.8 -135.3 -72.3 L-131.8 -76.75 M-106.2 -80.15 L-112.9 -79.6 -105.3 -78.5 -112.0 -76.55 -117.0 -78.35 -116.6 -80.7 -116.1 -80.95 -115.6 -81.0 -113.2 -81.3 Q-109.5 -81.4 -106.2 -80.15 M-120.05 -85.95 Q-120.0 -85.1 -120.55 -84.5 -121.15 -83.95 -122.0 -83.95 -122.85 -83.95 -123.4 -84.5 -124.0 -85.1 -124.05 -85.95 -124.05 -86.8 -123.45 -87.35 -122.9 -87.95 -122.05 -87.95 -121.2 -87.95 -120.6 -87.35 -120.05 -86.8 -120.05 -85.95 M-118.05 -71.35 L-117.1 -71.5 -114.75 -68.0 Q-118.0 -64.3 -122.25 -66.5 L-123.5 -67.1 Q-121.65 -70.45 -118.05 -71.35 M-96.7 -100.8 L-94.4 -102.95 -92.25 -100.4 Q-90.85 -98.55 -91.7 -96.3 -94.35 -94.7 -97.6 -95.1 L-101.85 -96.0 -95.3 -96.4 -96.55 -97.6 -96.7 -100.8 M-87.7 -87.05 Q-92.05 -80.7 -96.45 -85.25 L-96.95 -86.2 Q-95.05 -89.65 -91.05 -89.6 L-90.0 -89.55 -87.7 -87.05 M-87.25 -77.6 L-86.7 -76.55 Q-87.1 -69.7 -93.8 -69.95 L-90.8 -78.0 -87.25 -77.6 M-157.1 -158.75 Q-159.45 -152.7 -164.85 -149.0 L-166.45 -148.05 -170.75 -149.1 Q-167.9 -156.0 -161.3 -159.85 L-159.8 -160.7 -158.4 -160.3 -157.1 -158.75 M-176.15 -143.45 Q-177.75 -137.45 -183.85 -136.7 L-185.55 -136.7 -186.4 -138.6 Q-183.75 -143.65 -178.25 -145.0 L-176.15 -143.45 M-173.5 -162.7 L-173.65 -161.25 Q-179.35 -153.45 -188.6 -150.55 -186.85 -156.7 -181.35 -160.35 -178.4 -162.4 -174.85 -164.0 L-173.5 -162.7 M-180.05 -126.7 L-181.8 -128.8 -176.7 -132.9 -175.0 -129.65 -180.05 -126.7 M-160.95 -132.7 Q-157.55 -135.95 -153.9 -134.2 L-153.45 -133.8 Q-155.4 -126.85 -163.45 -127.35 -164.0 -129.3 -162.9 -130.95 -162.15 -132.1 -160.95 -132.7 M-197.6 -161.25 L-194.55 -160.15 Q-195.8 -153.7 -201.95 -152.4 L-203.5 -152.4 -204.3 -154.3 Q-202.6 -158.5 -198.65 -160.7 L-197.6 -161.25 M-220.9 -145.15 L-225.55 -145.05 -226.35 -147.35 -225.05 -148.95 Q-220.95 -153.7 -214.9 -155.7 L-213.25 -156.25 Q-211.75 -147.75 -220.9 -145.15 M-220.8 -120.2 Q-222.2 -113.7 -228.85 -112.9 L-230.95 -113.05 -230.75 -115.4 -222.95 -121.65 -220.8 -120.2 M-198.45 -108.25 L-198.45 -110.6 -191.5 -113.8 -189.2 -111.85 Q-190.75 -107.35 -195.7 -108.05 L-198.45 -108.25 M-209.65 -106.5 Q-208.7 -110.6 -203.95 -111.3 -205.2 -107.1 -209.4 -106.35 L-209.65 -106.5 M-217.2 -112.65 L-215.85 -111.35 Q-216.7 -106.2 -222.05 -106.25 L-223.1 -106.45 -223.4 -109.15 Q-221.5 -112.0 -218.1 -112.55 L-217.2 -112.65 M-217.75 -99.9 L-216.1 -97.25 Q-218.5 -93.65 -221.7 -90.85 -223.05 -89.75 -224.75 -89.4 L-227.5 -91.7 Q-226.35 -95.5 -223.2 -98.05 -221.3 -99.45 -219.2 -100.25 L-217.75 -99.9 M-209.65 -75.3 Q-208.15 -79.5 -204.0 -81.55 L-202.65 -82.25 -201.05 -81.45 -200.55 -80.2 -200.8 -79.2 -207.55 -73.35 -208.9 -73.95 -209.65 -75.3 M-217.7 -71.0 Q-221.55 -63.25 -228.7 -58.7 -229.75 -58.05 -230.85 -57.55 L-232.2 -59.45 Q-229.05 -68.6 -220.35 -73.0 L-217.7 -71.0 M-193.6 -90.3 Q-191.15 -97.25 -184.45 -100.3 L-182.8 -101.0 -180.9 -100.3 -179.8 -97.95 -181.8 -95.05 -174.95 -102.25 -173.55 -102.6 -171.5 -101.8 -171.3 -105.1 -158.65 -111.7 -156.75 -111.0 -155.6 -108.65 Q-160.65 -101.6 -169.05 -101.25 L-171.15 -101.35 -170.35 -99.55 Q-172.35 -93.4 -178.25 -90.85 -181.95 -89.35 -183.6 -93.1 -187.15 -89.8 -192.0 -88.3 L-190.0 -86.85 Q-189.4 -86.3 -189.6 -85.3 -191.9 -79.1 -198.45 -78.45 L-199.9 -78.5 Q-198.2 -85.2 -192.0 -88.3 L-192.5 -88.15 -193.6 -90.3 M-158.85 -113.0 Q-154.5 -119.6 -146.45 -118.45 -146.7 -112.1 -153.4 -111.25 -156.15 -110.7 -158.7 -112.15 L-158.85 -113.0 M-157.35 -91.9 Q-158.95 -87.4 -163.45 -86.2 L-164.75 -86.7 Q-167.85 -81.2 -173.05 -79.95 -174.45 -79.5 -175.55 -80.85 -172.85 -88.6 -165.65 -92.4 L-163.5 -90.95 -157.8 -95.65 Q-156.6 -94.0 -157.35 -91.9 M-173.75 -43.75 L-172.35 -43.35 -171.1 -41.8 Q-172.15 -34.2 -178.85 -32.2 L-180.7 -31.9 Q-184.05 -38.3 -175.95 -42.55 L-173.75 -43.75 M-178.95 -21.3 L-181.8 -23.25 Q-180.9 -26.9 -177.85 -29.1 L-175.8 -30.4 -173.7 -28.95 Q-174.2 -25.1 -177.0 -22.85 L-178.95 -21.3 M-196.5 -60.15 Q-200.6 -52.75 -208.1 -53.6 -209.4 -53.7 -210.05 -55.15 L-198.35 -62.5 -196.5 -60.15 M-188.8 -48.2 Q-186.7 -53.25 -181.7 -55.7 -178.95 -48.1 -187.9 -48.05 L-188.8 -48.2 M-200.7 -44.35 Q-200.75 -41.35 -203.7 -40.35 L-205.45 -41.4 -205.65 -42.85 -201.65 -46.7 -200.85 -45.7 -200.7 -44.35 M-219.2 -59.8 L-213.9 -65.5 -210.35 -66.2 Q-209.3 -64.25 -209.9 -62.3 -211.5 -56.8 -217.15 -56.25 L-219.2 -59.8 M-225.75 -36.45 L-228.5 -38.95 Q-225.15 -46.45 -217.3 -49.3 -215.95 -41.15 -224.15 -37.2 L-225.75 -36.45 M-188.45 -24.7 Q-191.4 -18.75 -198.1 -17.5 -199.65 -17.35 -201.2 -17.5 -199.4 -25.05 -191.8 -27.2 L-190.15 -27.5 -188.45 -24.7 M-200.25 -37.85 Q-197.95 -43.85 -192.35 -46.95 -190.7 -37.85 -199.5 -37.35 L-200.25 -37.85 M-68.35 -61.2 Q-73.8 -52.45 -83.15 -47.85 L-85.85 -46.6 -87.3 -47.75 -87.5 -49.1 Q-83.2 -56.8 -75.55 -61.3 -73.5 -62.6 -71.25 -63.7 L-68.35 -61.2 M-95.5 -66.0 Q-87.95 -58.05 -91.6 -47.65 L-96.95 -48.4 -93.75 -50.0 -95.5 -64.45 -95.5 -66.0 M-93.65 -30.5 L-93.0 -31.8 -103.65 -35.2 -102.75 -37.85 Q-94.3 -39.65 -85.95 -36.7 -83.6 -35.85 -83.5 -33.4 L-88.45 -32.0 -84.65 -27.9 Q-79.85 -26.95 -77.05 -23.3 -74.65 -20.25 -75.5 -16.6 L-78.55 -16.1 -93.25 -29.0 -93.65 -30.5 M-73.4 -26.3 L-67.1 -32.9 Q-65.6 -25.85 -71.8 -24.85 L-72.3 -25.05 -73.4 -26.3 M-112.6 -60.15 Q-120.25 -58.1 -128.1 -58.1 L-129.15 -58.4 -129.5 -61.2 Q-123.15 -62.55 -116.65 -61.2 L-112.6 -60.15 M-131.65 -56.35 L-125.75 -56.4 -131.25 -54.6 -131.8 -53.55 -134.45 -51.95 -130.85 -49.3 -134.4 -50.35 -138.0 -49.65 -138.45 -50.15 -139.0 -50.75 -139.35 -51.4 -139.8 -52.85 -139.85 -53.55 -139.7 -54.25 -139.45 -55.0 -133.25 -57.3 -131.65 -56.35 M-108.55 -40.85 L-108.05 -53.9 -105.1 -58.55 Q-102.6 -50.15 -105.85 -42.3 L-106.75 -40.35 -108.55 -40.85 M-81.1 -5.25 L-82.35 -3.65 Q-88.05 -3.2 -92.0 -7.55 L-90.95 -10.25 -88.65 -10.95 -77.95 -6.4 -81.1 -5.25 M10.45 41.15 L11.65 42.55 10.25 45.05 Q3.55 45.35 -0.4 40.1 L-2.85 36.45 -0.55 34.5 Q6.05 36.1 10.45 41.15 M-19.6 45.0 L-21.75 45.8 Q-25.4 39.95 -20.5 35.05 L-19.75 36.15 Q-17.55 39.85 -19.1 43.9 L-19.6 45.0 M-8.35 37.7 Q-4.15 41.25 -5.45 46.55 L-5.85 47.85 Q-11.15 44.0 -8.35 37.7 M-46.5 52.3 Q-47.45 52.95 -48.6 52.65 -52.85 51.7 -52.8 47.15 L-46.5 52.3" fill="#000000" fill-rule="evenodd" stroke="none"/>
  </g>
</svg>
