<?xml version="1.0" encoding="UTF-8" standalone="no"?>
<svg xmlns:xlink="http://www.w3.org/1999/xlink" height="377.55px" width="494.05px" xmlns="http://www.w3.org/2000/svg">
  <g transform="matrix(1.0, 0.0, 0.0, 1.0, 244.25, 191.9)">
    <path d="M-196.55 -179.75 L-195.75 -180.3 Q-182.1 -159.0 -184.95 -132.25 -185.45 -127.45 -187.2 -123.45 -184.4 -115.0 -183.75 -105.25 L-183.75 -104.8 -179.0 -98.3 Q-174.35 -92.65 -171.45 -85.95 -166.1 -73.55 -163.65 -60.7 -163.15 -67.65 -163.1 -74.6 -163.05 -83.2 -160.15 -90.7 -156.95 -119.95 -165.4 -147.7 -167.7 -155.3 -168.95 -163.05 -170.4 -171.9 -164.35 -176.55 -163.45 -176.15 -162.65 -175.6 L-162.25 -175.15 Q-162.9 -158.7 -156.75 -142.9 -153.6 -150.85 -147.55 -158.0 -143.8 -162.4 -141.05 -167.6 -140.2 -169.25 -138.7 -169.8 -137.45 -161.45 -145.1 -153.55 -151.6 -146.85 -155.0 -138.7 -152.5 -132.6 -152.85 -125.9 -153.55 -112.75 -155.15 -99.95 L-155.1 -100.1 -154.75 -100.2 -153.7 -100.35 -153.65 -100.45 -152.75 -100.15 Q-147.1 -108.85 -137.0 -114.4 L-132.25 -118.7 -126.2 -123.65 -121.9 -127.1 Q-115.85 -138.65 -124.15 -150.0 -126.2 -152.8 -125.6 -156.35 -123.1 -171.6 -125.3 -187.25 -124.7 -190.15 -123.05 -191.75 L-123.0 -191.9 Q-116.55 -172.05 -118.5 -150.25 -118.75 -147.8 -117.15 -145.5 -115.65 -143.3 -115.0 -140.75 -115.0 -137.0 -115.95 -133.65 -110.25 -140.65 -103.65 -146.85 -100.85 -149.5 -98.35 -152.45 L-97.6 -153.5 Q-92.75 -160.3 -88.85 -167.65 -84.7 -175.35 -78.1 -181.05 L-76.65 -181.3 -76.65 -181.4 Q-75.5 -180.95 -74.45 -180.35 L-74.15 -179.95 Q-78.8 -171.0 -84.3 -162.2 -91.85 -145.95 -106.1 -134.5 -108.35 -132.7 -110.25 -129.95 -122.3 -112.6 -141.1 -102.7 L-147.7 -95.9 -151.5 -91.5 Q-155.45 -68.85 -156.8 -45.55 L-157.05 -43.4 Q-156.45 -40.5 -156.15 -37.65 -148.3 -47.65 -138.75 -56.4 L-136.4 -61.25 -136.4 -61.75 -136.4 -62.85 Q-134.45 -69.65 -133.15 -76.75 L-133.0 -77.25 Q-135.05 -88.35 -132.65 -98.05 L-132.3 -98.3 Q-125.55 -81.95 -132.2 -66.0 -131.3 -64.95 -130.9 -63.4 -126.9 -67.4 -123.75 -72.45 -116.15 -84.6 -103.75 -92.0 L-95.25 -97.5 Q-92.5 -109.3 -93.05 -122.6 -93.3 -128.15 -90.2 -131.1 -88.25 -123.85 -88.2 -114.15 -88.15 -107.3 -90.25 -101.25 -85.3 -105.15 -80.75 -109.55 -76.4 -123.35 -68.7 -134.05 -71.5 -142.8 -72.2 -153.95 -72.2 -154.7 -71.3 -154.45 -65.05 -146.5 -66.55 -136.95 -64.55 -140.85 -60.95 -143.9 L-59.55 -144.65 -57.8 -144.3 Q-51.75 -149.6 -43.5 -153.35 -33.9 -157.65 -26.4 -164.25 -36.25 -147.05 -58.1 -140.7 L-58.2 -140.65 Q-59.75 -137.75 -61.85 -134.55 L-62.55 -133.05 -63.55 -131.9 Q-64.65 -127.4 -66.25 -123.15 -56.6 -131.05 -42.1 -133.55 -37.6 -134.3 -33.4 -136.6 -24.8 -141.2 -17.45 -146.8 -15.4 -141.8 -23.7 -137.35 -43.1 -127.0 -63.45 -119.4 -66.35 -118.3 -68.85 -116.2 L-69.85 -115.35 Q-78.1 -100.3 -94.05 -90.55 -108.4 -81.75 -117.9 -68.1 -121.9 -62.35 -127.0 -57.6 -141.45 -44.3 -154.0 -29.4 L-156.1 -26.8 Q-157.15 -16.4 -162.4 -6.5 L-162.95 -5.45 -165.5 6.7 Q-148.3 -10.65 -125.3 -21.7 -118.9 -24.75 -113.85 -29.95 -106.25 -37.7 -100.1 -46.5 -106.45 -51.65 -113.2 -56.3 -115.35 -57.85 -116.25 -60.35 -116.25 -61.25 -115.45 -61.85 -114.55 -62.6 -113.75 -62.65 -104.85 -57.7 -96.85 -51.4 L-94.3 -55.7 Q-93.15 -56.25 -91.8 -56.05 L-89.55 -57.5 Q-89.05 -68.75 -90.25 -79.7 -90.45 -81.3 -88.8 -81.35 L-87.55 -80.9 -86.8 -80.5 Q-84.15 -73.25 -82.7 -65.75 -80.7 -72.2 -80.0 -79.35 -79.95 -79.85 -79.5 -79.95 -76.25 -71.25 -82.3 -63.4 -80.9 -54.9 -81.05 -46.05 -71.75 -49.9 -61.85 -52.65 L-60.95 -52.85 -59.9 -52.45 -59.35 -52.15 -56.5 -52.5 -58.25 -51.4 -59.0 -50.9 -59.45 -49.85 -59.9 -49.3 Q-70.6 -44.9 -81.2 -41.05 L-81.5 -37.65 -81.4 -36.65 Q-76.15 -29.45 -72.9 -20.4 L-71.95 -18.1 Q-71.2 -22.85 -68.8 -27.35 L-68.45 -27.9 Q-65.9 -29.2 -64.35 -31.1 -64.25 -30.2 -64.8 -29.45 L-65.05 -28.95 Q-65.3 -27.85 -64.55 -26.8 L-68.45 -11.8 -65.45 -8.0 Q-62.55 -4.75 -60.95 -0.75 -59.65 2.6 -58.55 6.3 L-56.4 3.2 -42.25 -15.1 Q-38.7 -30.8 -41.1 -47.5 L-41.15 -48.55 Q-40.8 -49.55 -39.95 -50.15 L-38.95 -54.15 -38.5 -54.25 Q-37.9 -52.8 -38.1 -51.05 L-38.15 -50.55 -36.7 -48.9 Q-33.7 -33.65 -38.4 -20.25 L-37.25 -21.8 Q-31.0 -30.25 -28.15 -40.6 -26.65 -46.05 -24.35 -51.0 -26.35 -69.65 -27.15 -89.35 -27.5 -98.4 -23.5 -104.35 -21.7 -94.25 -20.9 -83.75 -20.2 -89.55 -16.1 -93.55 L-16.05 -93.65 Q-13.0 -84.6 -20.6 -78.85 L-20.4 -71.75 -19.95 -69.05 Q-19.0 -64.2 -19.4 -59.75 -14.8 -66.55 -8.35 -72.35 -5.1 -75.25 -2.7 -79.0 0.9 -84.7 3.5 -90.75 3.3 -92.9 3.65 -95.1 L3.95 -96.15 Q5.45 -107.65 4.75 -119.25 4.05 -131.15 6.95 -142.7 8.8 -145.3 11.05 -146.8 13.75 -145.8 12.35 -143.2 L12.15 -142.7 Q11.8 -125.5 9.85 -108.55 15.75 -126.35 32.55 -137.8 L33.15 -138.05 Q34.95 -131.75 27.5 -125.6 18.0 -117.7 12.3 -106.7 L10.7 -106.15 Q10.6 -104.1 9.35 -104.55 L9.2 -103.15 Q9.9 -103.6 10.7 -103.85 11.65 -102.4 12.15 -100.65 L12.3 -100.1 Q6.6 -70.15 -16.7 -49.5 -18.0 -48.35 -18.75 -46.5 L-22.65 -37.0 -22.6 -36.45 -22.05 -36.9 -12.05 -44.15 Q-4.05 -51.1 5.6 -56.3 L6.8 -56.75 6.95 -56.7 Q14.6 -61.5 22.55 -65.95 27.8 -68.9 32.05 -73.4 42.2 -84.15 47.8 -97.95 L49.55 -98.75 49.55 -98.85 51.3 -97.85 51.7 -97.4 50.8 -94.6 51.7 -95.45 Q62.0 -98.3 72.2 -100.4 L73.3 -100.45 Q72.8 -99.05 70.7 -98.1 L70.45 -97.75 Q59.7 -95.25 49.65 -91.6 45.25 -80.4 37.85 -71.6 45.8 -75.2 56.45 -74.45 62.15 -74.05 67.75 -75.6 L85.25 -80.65 Q87.2 -78.7 83.85 -75.95 L83.45 -75.5 Q58.65 -66.2 33.25 -66.65 22.05 -55.7 5.4 -49.2 L-1.1 -46.35 Q-12.6 -36.75 -23.85 -26.4 -27.25 -12.7 -34.0 -0.5 -29.75 -2.15 -24.75 -2.8 -18.05 -3.7 -11.6 -5.6 14.65 -38.9 55.95 -51.1 L62.4 -53.0 Q64.65 -52.7 65.2 -50.5 L65.25 -50.0 64.8 -49.0 64.0 -47.85 Q41.3 -38.75 20.15 -27.05 16.65 -25.1 13.55 -22.55 L18.9 -22.55 Q43.9 -17.2 68.5 -21.15 L69.2 -20.95 69.45 -20.35 69.6 -19.35 69.35 -18.25 Q49.25 -8.2 26.55 -15.95 18.3 -18.75 9.35 -17.5 L8.25 -17.5 Q-1.05 -8.15 -11.7 -1.2 -13.85 0.2 -16.55 0.5 L-20.5 1.05 Q-31.0 5.7 -41.7 11.4 L-47.05 18.05 Q-57.15 29.65 -59.6 45.2 L-60.4 49.4 Q-55.55 44.8 -48.7 41.45 -30.35 32.35 -10.75 26.4 -7.05 25.25 -3.05 24.9 L-1.35 24.75 Q2.4 22.0 7.45 20.4 L17.5 17.25 Q21.75 15.95 26.05 15.8 L36.75 15.8 Q37.2 15.95 37.55 16.25 L38.85 17.2 38.85 17.6 37.45 19.2 35.1 19.15 Q39.7 21.0 42.2 25.4 L42.1 25.8 Q33.3 24.1 28.8 19.25 17.6 19.85 7.05 23.35 5.5 23.9 3.9 24.6 4.7 25.1 5.0 26.15 L5.2 26.65 Q5.25 27.6 4.65 28.25 L3.75 29.15 Q-4.5 30.15 -12.25 32.05 L-7.5 32.3 -7.5 32.2 Q6.9 32.45 17.7 39.2 L17.65 39.5 Q-2.45 39.85 -23.4 35.3 -45.3 42.85 -63.15 58.3 L-65.65 63.75 Q-75.55 83.45 -81.55 104.5 -84.0 113.25 -84.25 122.4 L-84.25 123.3 Q-66.75 125.45 -53.7 111.45 L-50.6 108.85 Q-46.3 108.1 -45.1 112.25 -45.85 115.8 -48.85 118.1 -43.5 117.25 -42.95 122.6 -38.2 126.9 -31.0 125.45 -29.3 126.6 -29.4 128.65 L-29.4 129.0 Q-25.45 127.9 -21.9 129.9 -21.1 128.9 -20.75 127.65 L-20.15 126.5 Q-14.15 127.3 -7.75 130.85 L-5.5 130.8 -5.6 124.35 Q-5.6 123.45 -5.0 122.75 1.6 120.4 1.95 128.3 4.25 127.4 6.05 128.8 12.65 130.8 16.6 136.85 30.15 137.85 42.7 134.8 44.75 134.3 46.9 133.3 50.85 131.5 53.5 135.05 60.1 134.8 66.65 134.9 L67.95 133.65 Q68.95 129.9 68.2 126.3 67.95 125.1 69.0 125.05 70.15 126.3 72.0 126.55 72.3 126.6 72.55 126.85 73.85 130.25 72.95 133.85 L72.6 135.05 75.15 135.15 75.15 134.9 Q75.2 129.25 81.15 123.3 L82.0 122.4 Q85.5 121.65 88.1 119.25 L88.25 119.2 Q87.8 121.1 85.6 122.45 L84.85 122.95 83.95 124.75 78.35 135.3 86.05 135.9 Q86.25 134.6 86.9 133.4 87.35 132.6 88.1 132.4 90.25 133.2 89.6 135.4 L89.35 135.95 89.2 136.2 Q98.65 137.15 108.0 138.85 110.1 139.25 111.65 140.7 118.8 147.35 129.65 143.05 140.7 138.65 152.8 136.5 157.8 129.85 164.1 126.3 163.0 124.3 161.0 122.9 160.3 122.4 160.1 121.5 159.45 120.55 161.0 120.1 L162.25 119.75 Q166.15 121.2 168.05 124.45 171.05 123.3 174.4 122.8 L173.5 121.35 Q173.7 120.05 173.4 118.8 173.35 118.5 173.85 118.65 L176.25 122.55 187.2 122.95 188.65 121.05 187.9 118.35 187.85 118.0 Q185.95 108.8 191.45 100.25 L191.5 100.1 Q192.8 105.15 192.15 112.35 L191.7 117.55 Q196.35 112.65 202.1 109.7 L201.65 109.55 Q195.95 100.9 197.9 91.55 198.0 90.9 198.6 90.85 L199.65 91.3 200.4 91.75 Q202.9 99.75 205.0 107.9 L205.05 108.35 205.2 108.25 205.8 107.35 Q204.25 95.35 203.45 82.45 L203.45 81.95 Q205.05 80.4 205.8 78.75 L205.9 78.75 Q207.15 90.3 208.7 102.2 L211.1 97.35 Q212.5 82.2 210.6 66.95 L208.95 54.95 208.2 50.05 Q205.7 43.1 205.4 35.8 204.6 35.1 204.5 33.8 L204.5 33.25 Q203.55 14.65 189.35 0.65 L183.45 -5.3 Q172.25 -8.45 158.35 -6.35 137.65 -3.25 120.05 -11.65 114.15 -14.5 115.9 -17.9 116.9 -17.25 117.85 -17.5 L118.75 -17.7 Q141.4 -7.1 167.95 -11.3 L173.0 -11.65 Q165.8 -15.75 159.7 -22.15 155.85 -26.2 150.9 -28.85 145.65 -31.65 140.15 -34.1 139.7 -34.65 139.65 -35.25 139.45 -36.65 137.8 -36.8 L137.95 -37.2 138.9 -37.15 140.35 -37.8 141.55 -38.2 Q153.05 -34.55 162.8 -28.15 152.45 -40.6 143.2 -53.8 140.75 -57.3 140.85 -61.4 141.45 -62.4 142.5 -62.95 L143.35 -63.35 143.7 -63.2 145.15 -62.85 Q153.7 -48.7 164.45 -36.05 161.1 -45.8 161.3 -57.3 161.45 -63.8 160.4 -69.95 148.1 -78.8 141.1 -91.75 133.7 -105.55 119.75 -111.1 118.35 -111.65 120.15 -112.05 140.3 -104.6 151.4 -85.2 152.75 -82.95 155.15 -81.5 L157.9 -79.7 Q155.6 -86.4 151.7 -92.7 150.9 -93.9 151.35 -95.25 151.65 -96.4 152.8 -96.7 L153.7 -96.9 Q172.7 -76.5 170.1 -47.2 169.75 -43.05 170.55 -38.75 171.75 -32.3 173.55 -26.05 179.15 -20.25 185.25 -14.8 197.75 -3.6 203.75 10.35 202.35 -6.35 201.9 -23.25 L201.15 -32.2 Q191.0 -46.9 175.6 -53.4 177.05 -55.55 180.2 -54.85 L182.9 -55.0 Q192.8 -50.9 198.85 -43.05 L196.8 -49.3 Q187.9 -73.1 178.2 -96.45 176.55 -100.4 175.5 -104.5 172.85 -106.3 170.2 -109.8 157.35 -126.8 135.85 -132.6 127.9 -134.75 120.15 -137.5 107.9 -134.3 94.7 -133.95 92.65 -135.3 90.15 -136.0 89.85 -136.1 89.7 -136.65 L112.9 -140.2 Q109.35 -141.6 105.85 -143.15 96.45 -147.25 95.05 -155.5 94.9 -156.25 95.9 -156.25 131.15 -138.85 166.8 -122.3 L170.55 -119.85 173.05 -117.4 169.5 -138.85 Q168.6 -139.15 167.75 -139.85 163.55 -160.65 142.95 -169.35 139.4 -170.85 136.5 -173.65 128.7 -181.05 132.3 -187.6 145.1 -170.65 163.85 -158.6 165.5 -157.55 166.5 -155.9 L164.1 -169.25 Q162.6 -177.4 167.4 -183.15 L168.3 -183.45 169.4 -183.7 170.75 -183.25 171.7 -182.8 Q175.05 -163.25 178.0 -142.85 179.45 -132.4 183.0 -122.45 190.75 -100.7 199.2 -79.1 198.35 -103.8 208.6 -127.65 L208.7 -127.8 Q208.5 -135.15 202.5 -139.65 201.55 -140.4 201.65 -141.65 202.5 -143.05 204.5 -143.2 L205.75 -143.4 Q208.85 -142.0 210.85 -139.8 L211.65 -174.8 213.3 -175.55 214.3 -175.85 215.7 -175.4 216.6 -174.95 Q224.55 -134.9 208.65 -96.5 206.95 -92.35 206.75 -87.8 206.25 -73.9 207.15 -60.5 L206.95 -59.55 213.4 -43.9 215.4 -38.65 Q219.0 -47.65 225.85 -55.35 225.35 -64.95 225.25 -74.25 225.25 -74.65 225.7 -74.75 230.35 -68.2 230.4 -60.0 L230.65 -60.25 Q233.0 -62.45 234.05 -65.7 235.95 -71.7 239.45 -76.4 239.95 -78.65 241.5 -80.0 L242.1 -80.3 Q244.75 -78.45 242.55 -75.1 L242.3 -74.6 242.65 -73.5 242.85 -73.0 Q235.75 -51.55 219.3 -34.85 218.05 -33.6 217.35 -32.0 220.25 -20.15 219.65 -7.35 217.6 35.55 230.8 75.85 L235.4 89.9 Q238.0 97.85 233.0 101.6 234.7 103.4 236.05 105.8 240.4 104.25 244.6 101.35 246.5 100.9 248.2 102.1 249.2 102.95 249.6 104.2 L249.8 104.75 Q246.9 110.55 242.75 112.5 244.35 116.15 244.5 120.4 L244.75 131.65 244.8 139.7 244.8 146.65 Q244.8 152.0 245.4 157.25 247.65 175.75 232.7 184.05 229.95 185.6 226.8 185.6 190.35 185.95 153.7 184.0 20.45 177.0 -112.65 178.55 -169.7 179.2 -226.15 175.65 -234.05 175.15 -234.2 167.5 -234.65 138.25 -235.45 108.65 -235.55 104.95 -234.05 101.9 L-234.25 101.7 Q-233.9 101.0 -233.35 100.65 L-233.0 100.1 -231.75 99.65 -230.7 99.4 -229.3 99.85 -228.6 100.2 Q-219.3 95.35 -212.85 86.9 -209.55 89.3 -212.25 93.75 L-212.5 94.25 -209.0 94.4 -208.4 94.75 Q-207.3 96.7 -208.8 98.6 L-209.3 99.6 Q-205.35 100.95 -201.4 101.65 L-195.1 88.05 Q-192.8 83.2 -191.8 77.85 -184.55 39.35 -173.3 2.2 -172.35 -0.9 -171.55 -4.05 L-171.7 -4.55 -171.25 -9.5 -171.7 -9.9 Q-172.45 -20.6 -178.05 -28.1 L-178.5 -27.8 -179.35 -27.55 -199.65 -26.8 -199.9 -27.9 -199.75 -28.95 -199.5 -29.5 Q-194.0 -31.65 -188.1 -32.9 L-185.75 -33.4 -182.2 -32.6 Q-185.0 -35.1 -188.5 -37.15 -201.9 -44.95 -213.15 -55.05 -225.05 -48.05 -239.8 -50.0 -243.05 -51.15 -244.25 -53.75 L-243.9 -54.7 -243.0 -55.7 Q-230.1 -54.2 -217.85 -57.65 L-216.0 -57.7 -222.65 -64.45 Q-222.75 -65.35 -222.1 -66.0 -221.1 -67.05 -220.0 -67.1 -208.85 -57.9 -196.95 -49.65 -202.95 -70.7 -210.9 -91.05 L-211.1 -92.05 Q-210.55 -93.9 -208.6 -93.95 L-208.6 -94.05 Q-197.7 -78.0 -195.2 -57.8 -194.4 -51.5 -191.45 -45.95 L-186.2 -42.55 Q-181.6 -39.65 -178.05 -35.8 -171.15 -28.45 -168.5 -18.6 -167.5 -24.7 -167.0 -30.85 -166.25 -39.45 -165.0 -48.25 -170.2 -67.5 -178.9 -85.7 L-180.25 -88.45 Q-183.15 -91.0 -185.65 -93.95 -186.9 -95.5 -188.45 -96.7 -212.4 -99.55 -233.65 -110.0 -234.6 -110.5 -234.45 -111.5 -234.6 -112.5 -233.75 -113.15 -232.95 -113.8 -232.1 -113.8 -208.8 -105.55 -185.55 -98.2 -189.75 -105.4 -194.65 -112.3 -199.6 -119.3 -200.9 -128.0 L-201.15 -130.15 -201.8 -130.75 Q-211.8 -146.85 -229.0 -157.2 -231.1 -158.45 -232.45 -160.7 L-232.05 -163.85 Q-231.95 -164.65 -231.05 -164.45 -213.4 -153.3 -201.25 -136.6 L-201.0 -136.3 Q-200.45 -140.0 -198.6 -142.7 L-197.4 -142.25 -196.65 -141.8 Q-194.9 -130.65 -191.1 -120.2 -186.85 -147.35 -196.85 -174.05 L-197.55 -175.7 Q-197.9 -178.1 -196.55 -179.75 M197.35 -161.6 Q196.4 -159.6 194.75 -157.8 L194.5 -157.3 Q187.3 -145.55 180.85 -132.75 L180.45 -132.2 Q178.5 -144.95 190.7 -156.9 L191.5 -157.85 Q192.6 -158.65 194.0 -158.4 195.4 -160.25 197.2 -161.55 L197.35 -161.6 M156.55 -122.2 Q163.9 -113.6 164.7 -102.05 L164.75 -101.5 Q163.15 -96.2 159.05 -92.8 160.65 -95.8 161.35 -99.2 L161.55 -100.25 Q157.3 -110.9 156.1 -121.75 156.05 -122.1 156.55 -122.2 M-190.05 -118.4 L-190.3 -118.1 -190.1 -117.6 -190.05 -118.4 M-146.15 -2.2 L-146.35 -1.7 Q-159.45 6.85 -168.4 19.25 L-170.05 25.8 Q-171.95 33.3 -173.1 41.0 -177.4 70.05 -174.95 98.9 L-170.9 98.05 Q-162.45 86.35 -164.9 72.45 -165.1 71.55 -164.0 71.75 -157.1 85.55 -169.2 96.35 L-169.9 96.9 -170.0 97.85 -163.6 96.9 -163.3 96.9 Q-161.55 93.3 -157.75 90.8 L-157.05 90.85 Q-157.05 91.75 -156.4 92.5 L-156.15 93.0 -157.55 95.45 Q-155.6 94.65 -154.4 96.55 -154.1 97.85 -154.15 99.25 L-154.2 100.3 Q-153.65 101.1 -151.15 101.7 -150.05 104.85 -151.05 108.25 L-151.0 109.2 Q-145.7 100.85 -136.65 97.05 -139.1 92.7 -135.5 87.3 L-135.15 86.75 Q-134.1 86.1 -132.8 86.05 -132.05 84.85 -130.85 84.65 L-130.5 84.6 Q-129.45 85.7 -131.0 86.8 L-131.55 87.3 Q-132.85 91.85 -134.55 96.2 L-131.0 95.15 -130.15 94.95 Q-128.85 95.1 -127.95 95.65 -124.4 93.1 -121.4 89.6 -121.15 89.3 -120.7 89.4 -123.05 93.7 -127.5 96.0 -126.8 96.55 -126.4 97.45 -127.25 101.15 -130.3 104.4 -130.0 106.65 -128.8 108.65 L-128.35 109.2 Q-126.6 108.1 -124.6 108.65 -121.95 111.45 -120.85 115.1 L-120.7 115.65 -119.25 117.25 -118.35 115.8 Q-115.55 106.6 -105.9 100.7 -87.85 89.7 -79.4 70.15 -67.85 43.5 -61.95 15.05 L-63.15 11.4 Q-68.5 -3.35 -77.75 -15.5 -83.95 -23.65 -86.1 -33.8 L-90.35 -37.9 Q-96.75 -35.75 -103.1 -33.85 -119.1 -14.0 -144.65 -3.4 L-145.95 -2.8 -146.15 -2.2 M-90.55 -55.5 Q-91.45 -54.9 -90.85 -53.85 L-90.75 -53.4 Q-91.95 -50.9 -93.3 -48.5 L-88.65 -44.4 Q-89.85 -50.0 -89.6 -56.3 L-90.0 -56.0 -90.55 -55.5 M-93.1 -40.45 L-96.35 -43.3 Q-98.8 -39.4 -101.55 -35.75 L-93.1 -40.45 M-113.7 118.45 L-114.9 120.05 -114.4 119.7 -113.7 118.45 M-95.8 117.8 L-95.75 116.7 -96.05 117.25 -95.8 117.8 M-146.15 88.75 L-145.65 88.7 Q-149.35 94.25 -152.55 99.95 L-152.8 100.5 Q-153.55 100.25 -153.65 98.9 L-153.85 98.35 Q-152.45 94.0 -149.55 90.3 L-148.85 89.4 -146.15 88.75 M-158.6 97.05 L-160.25 99.35 -159.2 98.5 -158.6 97.05 M-169.35 85.3 L-169.0 85.85 Q-169.75 89.5 -169.55 93.35 L-169.55 93.9 Q-170.6 95.85 -172.05 97.6 -172.95 91.35 -170.8 84.15 -170.6 83.55 -169.9 83.7 -169.8 84.6 -169.35 85.3" fill="#000000" fill-rule="evenodd" stroke="none"/>
    <path d="M-165.8 -165.7 L-162.95 -162.15 -165.1 -158.9 Q-167.1 -157.9 -168.75 -159.45 L-169.9 -160.9 Q-169.4 -163.65 -166.95 -165.1 L-165.8 -165.7 M-138.55 -171.9 Q-141.3 -163.6 -149.95 -161.95 L-151.15 -164.65 Q-146.95 -170.05 -140.85 -173.35 L-139.45 -172.9 -138.55 -171.9 M-109.85 -171.95 L-108.05 -172.3 -106.6 -170.5 Q-110.3 -164.05 -118.2 -162.75 L-119.95 -162.5 -120.85 -163.65 -120.7 -165.7 Q-116.2 -170.55 -109.85 -171.95 M-64.55 -172.1 L-61.7 -169.6 -62.4 -168.55 Q-66.95 -162.45 -74.5 -163.05 L-76.45 -163.4 -76.85 -166.05 -64.55 -172.1 M-91.25 -166.25 Q-91.95 -163.95 -94.25 -162.85 -95.4 -162.25 -96.8 -162.5 -95.25 -165.0 -92.55 -165.95 L-91.25 -166.25 M-91.65 -172.65 L-89.8 -171.1 -90.55 -169.1 -94.65 -167.5 -96.6 -164.8 -98.6 -168.9 -97.9 -169.65 -91.65 -172.65 M195.05 -173.2 L196.45 -173.9 Q199.15 -169.55 196.85 -165.2 195.7 -163.05 193.45 -161.8 L190.05 -163.2 190.05 -165.05 Q190.4 -170.6 195.05 -173.2 M227.15 -145.9 L228.55 -145.55 230.15 -143.4 Q231.25 -134.9 222.9 -132.5 220.8 -131.95 219.4 -133.65 L219.9 -135.75 222.15 -137.35 225.35 -145.35 227.15 -145.9 M208.4 -154.45 L207.1 -150.4 Q207.7 -151.6 208.85 -152.85 L210.0 -153.95 212.5 -151.45 209.85 -143.05 208.3 -143.0 Q206.0 -145.6 206.4 -148.25 L205.9 -146.8 Q203.1 -149.0 203.25 -152.8 202.7 -156.05 205.6 -157.35 L206.45 -157.65 208.4 -154.45 M201.65 -161.75 Q201.35 -160.75 200.35 -159.85 198.75 -158.4 197.0 -159.55 L196.65 -161.75 198.8 -164.45 203.6 -165.85 205.05 -163.9 201.65 -161.75 M194.05 -158.15 L201.1 -153.95 199.75 -148.05 198.55 -148.6 Q192.0 -150.35 193.6 -156.75 L194.05 -158.15 M182.0 -153.0 Q180.9 -151.25 179.4 -151.25 177.9 -151.25 176.85 -153.0 175.75 -154.8 175.75 -157.35 175.75 -159.9 176.85 -161.65 177.9 -163.45 179.4 -163.45 180.9 -163.45 182.0 -161.65 183.05 -159.9 183.05 -157.35 183.05 -154.8 182.0 -153.0 M202.45 -138.3 L205.7 -136.95 209.1 -132.5 Q207.05 -128.15 203.55 -131.45 200.3 -134.4 202.45 -138.3 M209.1 -123.1 Q208.65 -123.1 208.35 -123.8 208.0 -124.5 208.0 -125.5 208.0 -126.5 208.35 -127.2 208.65 -127.9 209.1 -127.9 209.55 -127.9 209.9 -127.2 L210.2 -125.5 209.9 -123.8 Q209.55 -123.1 209.1 -123.1 M204.15 -116.15 Q206.8 -111.7 205.4 -106.7 L200.75 -107.4 Q198.15 -111.95 200.8 -115.7 L202.2 -117.0 204.15 -116.15 M219.7 -68.95 Q221.15 -68.95 222.2 -67.3 223.25 -65.7 223.25 -63.4 223.25 -61.1 222.2 -59.45 221.15 -57.85 219.7 -57.85 218.25 -57.85 217.2 -59.45 216.15 -61.1 216.15 -63.4 216.15 -65.7 217.2 -67.3 218.25 -68.95 219.7 -68.95 M208.6 -75.15 Q213.35 -69.55 205.6 -68.25 203.8 -68.0 203.05 -69.8 L203.45 -70.75 208.6 -75.15 M231.55 -69.25 L231.6 -68.0 230.25 -66.7 228.75 -67.1 Q225.0 -71.55 227.6 -76.75 L227.75 -76.8 Q231.35 -73.85 231.55 -69.25 M160.3 -153.65 Q158.7 -153.95 157.7 -155.05 155.9 -157.1 156.35 -159.8 L159.75 -158.9 162.05 -154.65 160.3 -153.65 M151.0 -130.35 L147.65 -136.1 152.8 -132.55 152.65 -131.1 151.0 -130.35 M147.75 -118.75 Q147.1 -119.8 147.1 -121.25 147.1 -122.7 147.75 -123.7 148.35 -124.75 149.2 -124.75 150.05 -124.75 150.7 -123.7 151.3 -122.7 151.3 -121.25 151.3 -119.8 150.7 -118.75 150.05 -117.75 149.2 -117.75 148.35 -117.75 147.75 -118.75 M160.8 -125.6 L160.3 -136.25 162.25 -137.1 Q170.25 -131.1 164.05 -122.8 162.7 -121.05 160.55 -121.3 L160.15 -121.95 160.8 -125.6 M121.85 -148.85 L123.0 -151.1 Q125.6 -147.85 125.1 -143.55 124.8 -141.05 123.4 -138.95 L122.0 -138.55 120.15 -140.0 120.15 -141.65 Q120.2 -145.5 121.85 -148.85 M134.8 -159.5 Q142.8 -161.0 149.95 -156.95 142.15 -152.4 134.6 -157.5 L133.75 -158.2 134.8 -159.5 M138.15 -142.3 Q139.0 -137.85 135.85 -134.45 L134.05 -132.75 131.4 -134.65 Q132.3 -140.05 135.85 -144.3 L138.15 -142.3 M109.4 -164.25 L110.2 -166.25 Q116.05 -157.45 112.35 -147.7 L110.8 -147.7 Q106.4 -155.65 109.4 -164.25 M113.2 -132.7 L97.9 -126.1 100.95 -129.5 Q106.9 -135.55 115.35 -135.9 L113.2 -132.7 M101.65 -138.05 L95.05 -138.8 92.8 -137.6 92.15 -137.55 91.6 -137.7 Q90.6 -138.15 90.2 -139.2 L89.85 -140.55 Q93.75 -145.05 99.7 -142.6 101.85 -141.75 103.6 -140.0 L101.65 -138.05 M136.1 -131.0 Q137.2 -131.0 137.95 -129.8 138.7 -128.65 138.7 -126.95 138.7 -125.25 137.95 -124.05 137.2 -122.9 136.1 -122.9 135.0 -122.9 134.25 -124.05 133.5 -125.25 133.5 -126.95 133.5 -128.65 134.25 -129.8 135.0 -131.0 136.1 -131.0 M124.8 -124.2 Q128.1 -128.55 131.4 -124.35 129.5 -120.2 125.1 -120.95 L124.8 -124.2 M132.5 -108.7 Q125.25 -106.25 120.9 -112.55 L123.0 -114.35 134.6 -111.15 Q134.3 -109.2 132.5 -108.7 M126.75 -105.8 Q118.5 -104.35 111.95 -109.55 L112.5 -111.7 Q120.25 -113.7 125.55 -107.25 L126.75 -105.8 M136.8 -92.2 Q136.8 -90.75 135.55 -89.7 134.3 -88.7 132.55 -88.7 130.8 -88.7 129.55 -89.7 128.3 -90.75 128.3 -92.2 128.3 -93.65 129.55 -94.65 130.8 -95.7 132.55 -95.7 134.3 -95.7 135.55 -94.65 136.8 -93.65 136.8 -92.2 M134.45 -77.2 Q140.35 -78.9 142.05 -73.3 L142.15 -72.6 140.15 -71.4 133.9 -75.85 134.45 -77.2 M136.55 -71.6 L141.5 -67.6 141.15 -66.2 140.1 -65.9 139.3 -66.05 Q136.55 -66.85 135.5 -69.5 L136.55 -71.6 M157.6 -108.2 Q155.45 -107.85 153.0 -109.35 L153.0 -109.65 156.55 -112.4 157.9 -111.35 157.6 -108.2 M152.9 -76.6 Q154.1 -76.6 155.0 -75.7 155.85 -74.85 155.85 -73.6 155.85 -72.35 155.0 -71.45 154.1 -70.6 152.9 -70.6 151.7 -70.6 150.85 -71.45 149.95 -72.35 149.95 -73.6 149.95 -74.85 150.85 -75.7 151.7 -76.6 152.9 -76.6 M165.8 -89.55 L167.95 -88.15 163.15 -75.6 161.35 -75.5 159.75 -77.6 160.05 -79.15 Q161.1 -84.45 164.75 -88.45 L165.8 -89.55 M167.75 -68.0 Q172.65 -71.95 175.9 -67.8 L176.4 -67.0 175.25 -65.3 Q183.45 -65.1 186.85 -57.85 L185.05 -56.05 Q176.4 -57.5 172.1 -63.6 L166.35 -64.8 167.65 -66.2 167.75 -68.0 M147.85 -58.75 L148.05 -60.15 153.35 -57.1 157.8 -46.0 Q156.45 -45.8 155.15 -46.85 L154.3 -47.8 151.75 -50.95 149.25 -54.25 Q147.75 -56.3 147.85 -58.75 M145.85 -43.55 Q138.55 -47.1 130.5 -48.05 L130.35 -50.7 Q137.4 -55.0 144.05 -50.2 L147.45 -47.3 147.6 -46.1 145.85 -43.55 M178.05 -24.25 L178.1 -23.1 177.0 -21.85 175.25 -22.2 Q170.15 -26.35 173.05 -31.55 L173.65 -32.5 174.75 -31.5 Q177.85 -28.55 178.05 -24.25 M133.7 -28.95 Q142.5 -19.45 148.5 -7.95 L147.05 -7.2 132.45 -28.15 133.7 -28.95 M115.65 -19.1 L116.6 -18.15 101.25 -16.85 101.45 -19.5 107.05 -21.4 Q112.05 -22.55 115.65 -19.1 M121.05 -5.8 Q115.25 0.2 107.4 -0.45 L107.0 -2.4 110.95 -5.6 Q116.3 -10.25 120.6 -6.5 L121.05 -5.8 M132.45 -0.8 L132.1 -5.4 133.9 -6.15 134.7 -7.25 135.85 -7.75 Q137.75 -3.9 134.3 -1.65 L132.45 -0.8 M167.8 -5.9 Q167.4 -5.55 166.85 -5.55 166.3 -5.55 165.95 -5.9 165.55 -6.3 165.55 -6.8 165.55 -7.3 165.95 -7.65 166.3 -8.05 166.85 -8.05 167.4 -8.05 167.8 -7.65 168.15 -7.3 168.15 -6.8 168.15 -6.3 167.8 -5.9 M170.2 0.35 L168.85 0.65 Q167.6 -5.6 173.65 -7.75 176.3 -1.75 170.2 0.35 M195.2 -47.4 L192.35 -47.15 Q188.1 -51.9 190.8 -57.4 L191.5 -58.75 Q196.15 -55.15 195.8 -49.3 195.75 -48.3 195.2 -47.4 M195.05 -18.8 Q201.15 -12.55 192.55 -9.0 L193.85 -10.9 192.2 -12.75 Q191.95 -15.65 193.95 -17.75 L195.05 -18.8 M191.5 -17.55 Q190.8 -11.5 186.9 -6.95 L185.95 -5.8 182.8 -7.0 Q182.9 -12.75 187.15 -16.95 L189.35 -18.95 191.5 -17.55 M85.25 -165.0 Q90.9 -161.8 93.0 -155.8 L94.15 -151.8 93.15 -150.65 90.2 -150.35 Q86.0 -153.4 83.7 -157.95 82.6 -160.25 81.85 -162.65 L85.25 -165.0 M94.7 -134.5 Q97.75 -136.1 99.5 -133.05 L98.65 -131.05 89.35 -128.25 Q90.95 -132.4 94.7 -134.5 M28.2 -144.65 Q32.05 -137.2 27.9 -128.65 L27.15 -127.1 25.5 -126.55 23.35 -127.55 24.25 -141.45 28.2 -144.65 M22.65 -140.9 Q20.1 -135.1 14.3 -132.7 L12.55 -132.15 10.0 -135.55 20.35 -142.0 22.65 -140.9 M36.55 -133.95 L40.3 -136.3 43.8 -134.55 Q42.85 -133.1 41.6 -132.3 39.3 -130.9 36.65 -131.65 L36.55 -133.95 M34.4 -128.9 Q33.55 -125.4 29.7 -124.95 L27.8 -125.25 Q25.1 -123.3 22.1 -124.5 28.3 -125.95 33.15 -130.95 L34.4 -128.9 M32.55 -116.85 Q24.85 -110.4 15.05 -112.3 L14.8 -114.7 20.5 -116.7 Q26.65 -120.7 32.0 -117.4 L32.55 -116.85 M56.3 -109.35 L52.4 -98.3 51.05 -97.95 50.1 -98.05 Q48.5 -98.35 47.6 -99.75 L51.9 -110.95 53.85 -111.85 56.3 -109.35 M47.45 -93.5 Q53.5 -93.1 57.75 -89.0 L58.9 -87.85 Q56.0 -85.05 52.0 -86.0 L49.3 -86.65 48.85 -85.0 46.35 -85.85 44.3 -89.05 45.65 -92.7 47.45 -93.5 M56.75 -99.75 Q61.35 -106.35 69.1 -107.45 L70.85 -107.3 Q67.9 -100.05 59.8 -98.4 L57.15 -98.0 56.75 -99.75 M24.1 -105.25 Q19.25 -100.7 14.1 -105.1 L15.45 -109.0 17.25 -108.75 18.2 -107.2 19.2 -107.25 24.1 -105.25 M36.75 -79.4 Q40.05 -76.45 37.05 -73.3 36.4 -72.55 35.3 -72.1 32.5 -75.7 35.9 -78.65 L36.75 -79.4 M22.2 -76.95 Q23.25 -75.6 23.4 -73.95 L30.75 -77.25 31.55 -75.3 Q29.4 -69.9 23.5 -70.4 21.55 -61.7 15.0 -65.0 14.7 -65.15 14.55 -65.45 L15.05 -66.35 17.3 -67.4 17.65 -77.85 19.6 -78.7 Q21.15 -78.15 22.2 -76.95 M51.35 -75.3 L61.7 -84.6 Q62.25 -74.55 52.35 -74.8 L51.35 -75.3 M46.55 -68.7 Q52.05 -73.6 60.1 -69.4 L64.7 -65.0 47.05 -66.55 46.55 -68.7 M72.6 -102.15 Q73.65 -101.75 74.8 -101.5 72.3 -98.2 68.75 -99.75 67.8 -100.05 67.45 -101.0 69.65 -103.15 72.6 -102.15 M64.2 -76.9 Q67.4 -82.3 73.1 -85.1 L74.1 -84.7 75.15 -83.5 Q72.2 -75.85 64.2 -76.9 M81.05 -83.7 Q81.05 -84.3 81.95 -84.7 L84.05 -85.1 86.2 -84.7 Q87.05 -84.3 87.05 -83.7 87.05 -83.1 86.2 -82.7 L84.05 -82.3 81.95 -82.7 Q81.05 -83.1 81.05 -83.7 M86.55 -68.35 Q85.55 -68.35 84.85 -68.8 84.1 -69.25 84.1 -69.9 84.1 -70.55 84.85 -71.0 85.55 -71.45 86.55 -71.45 L88.3 -71.0 Q89.0 -70.55 89.0 -69.9 89.0 -69.25 88.3 -68.8 87.55 -68.35 86.55 -68.35 M81.65 -68.0 Q74.4 -65.4 68.45 -70.3 74.6 -73.5 80.3 -69.05 L81.65 -68.0 M0.0 -141.3 L1.0 -140.55 Q3.3 -138.5 4.55 -135.6 L5.05 -134.55 4.25 -133.3 2.15 -132.7 -3.2 -139.65 -3.5 -142.25 -1.05 -142.15 0.0 -141.3 M-14.15 -136.5 Q-21.85 -135.9 -27.3 -131.1 L-27.85 -130.55 -29.55 -132.9 -27.25 -137.7 Q-21.4 -139.6 -15.75 -137.25 L-14.15 -136.5 M-6.5 -130.75 L-5.35 -131.1 Q2.1 -127.25 6.45 -120.05 L4.3 -117.0 Q-4.0 -119.8 -8.55 -127.35 L-8.5 -128.15 Q-8.15 -130.0 -6.5 -130.75 M11.95 -126.3 L19.6 -131.45 Q19.5 -125.9 14.1 -124.35 L12.65 -124.15 11.95 -126.3 M-32.8 -157.65 L-22.45 -165.35 -21.8 -163.8 Q-22.8 -158.95 -27.9 -158.05 L-32.8 -157.65 M-37.9 -142.1 L-31.5 -135.25 -32.45 -134.85 -35.7 -135.0 Q-39.65 -137.35 -38.95 -141.9 L-41.4 -141.8 -45.7 -142.5 -49.95 -143.8 -49.9 -145.25 Q-47.35 -146.4 -44.4 -146.35 -39.0 -145.55 -34.15 -143.75 L-37.9 -142.1 M-37.6 -158.55 Q-38.7 -152.7 -45.2 -150.7 L-46.35 -150.35 Q-43.75 -157.75 -36.55 -160.15 L-37.6 -158.55 M-56.65 -147.2 L-57.2 -148.6 -53.3 -156.6 -49.9 -157.85 Q-49.5 -151.6 -54.1 -147.5 L-55.25 -146.6 -56.65 -147.2 M-50.25 -129.15 Q-43.25 -128.45 -38.1 -124.1 L-36.9 -123.1 Q-45.4 -122.0 -52.15 -127.7 L-50.25 -129.15 M-37.25 -90.65 L-34.4 -92.4 -30.3 -86.0 -26.4 -84.75 Q-27.4 -82.15 -29.75 -81.35 L-32.05 -81.2 -32.95 -81.55 Q-36.25 -84.8 -37.05 -89.3 L-37.25 -90.65 M-28.15 -79.95 Q-17.85 -78.8 -19.8 -70.1 L-20.3 -69.05 -29.95 -78.8 -28.15 -79.95 M-12.4 -93.45 L-13.3 -92.55 -14.15 -88.6 Q-15.65 -88.1 -16.8 -89.3 -17.75 -90.3 -18.35 -91.7 -16.55 -99.95 -11.2 -100.45 -9.55 -96.5 -12.4 -93.45 M-2.45 -79.55 Q-4.45 -73.05 -11.0 -72.0 -12.65 -71.85 -14.25 -72.65 L-6.05 -78.85 -2.45 -79.55 M-15.15 -85.3 L-14.3 -84.35 -12.3 -84.6 -14.45 -83.45 -15.15 -85.3 M16.05 -46.8 L17.75 -45.8 Q19.05 -40.25 16.35 -35.15 L15.5 -33.75 12.5 -35.0 Q11.95 -40.1 14.5 -44.45 L16.05 -46.8 M-11.9 -44.6 L-9.6 -44.65 -6.05 -41.6 Q-9.7 -39.55 -13.8 -38.9 -16.35 -38.55 -18.65 -38.8 L-18.9 -41.6 -18.1 -42.3 Q-15.2 -44.35 -11.9 -44.6 M-21.75 -31.9 Q-21.75 -33.0 -20.75 -33.75 -19.8 -34.5 -18.45 -34.5 -17.1 -34.5 -16.1 -33.75 -15.15 -33.0 -15.15 -31.9 -15.15 -30.8 -16.1 -30.05 -17.1 -29.3 -18.45 -29.3 -19.8 -29.3 -20.75 -30.05 -21.75 -30.8 -21.75 -31.9 M-13.55 -22.35 L-14.25 -19.7 Q-21.3 -17.2 -26.3 -22.4 L-27.2 -23.5 -26.6 -24.5 Q-20.65 -26.6 -15.05 -23.35 L-13.55 -22.35 M8.6 -25.25 L7.25 -24.5 5.7 -26.65 11.05 -36.6 12.3 -33.15 Q12.9 -27.95 8.6 -25.25 M-32.95 -42.35 Q-34.3 -39.1 -33.1 -35.65 -32.85 -34.95 -32.9 -34.2 L-33.0 -33.6 -34.2 -38.6 -41.05 -42.2 -38.3 -35.75 -41.0 -33.75 Q-57.55 -41.6 -51.0 -52.65 L-45.45 -48.5 -44.55 -48.75 Q-39.35 -47.45 -35.2 -44.2 L-32.95 -42.35 M-30.3 -62.3 L-28.35 -59.05 Q-27.25 -53.7 -30.0 -48.6 L-30.85 -46.95 -35.65 -45.7 Q-35.2 -49.8 -35.15 -53.8 -35.1 -55.95 -33.0 -56.8 L-30.3 -62.3 M-58.3 -50.7 L-56.65 -49.3 Q-57.65 -44.75 -61.9 -45.8 -63.25 -46.0 -63.65 -47.5 L-63.1 -49.15 -72.0 -44.65 -74.05 -45.05 Q-69.55 -43.2 -68.95 -38.65 L-74.9 -40.1 -77.35 -37.7 -79.15 -39.65 -77.1 -44.9 Q-72.85 -53.2 -62.2 -55.45 -58.8 -56.7 -57.3 -53.65 L-56.9 -52.35 -58.3 -50.7 M-59.2 -19.05 Q-59.45 -18.0 -59.35 -16.85 L-69.65 -4.1 -71.5 -5.95 -66.5 -15.0 Q-69.1 -12.4 -72.15 -14.15 L-72.95 -14.8 -73.8 -15.75 Q-68.35 -21.65 -60.55 -22.2 -58.65 -21.1 -59.2 -19.05 M-23.95 6.25 Q-28.9 7.6 -33.65 5.65 L-33.75 4.4 Q-31.95 1.0 -28.35 2.15 -25.5 3.1 -22.8 4.7 L-23.95 6.25 M-49.95 12.0 L-48.85 11.35 -34.6 17.95 -39.05 18.45 Q-45.95 19.3 -50.75 14.25 L-49.95 12.0 M-47.95 24.55 L-47.35 27.75 Q-45.35 29.15 -43.55 30.9 L-43.8 31.1 -44.45 31.4 -45.1 31.45 Q-47.2 31.45 -48.65 30.05 L-47.95 24.55 M-23.15 24.55 L-20.85 26.5 Q-21.85 30.85 -25.65 33.75 -28.55 35.9 -32.0 35.35 L-32.45 32.55 -31.45 31.3 -23.15 24.55 M-14.75 4.85 L-14.35 6.3 -15.85 12.05 -16.65 12.65 Q-18.15 12.55 -19.15 11.25 -20.55 9.4 -20.65 7.05 L-16.75 3.65 -14.75 4.85 M-13.5 16.95 Q-12.55 17.25 -12.25 18.3 L-12.85 19.9 -20.85 23.3 -22.1 21.15 Q-19.35 14.55 -13.5 16.95 M-8.35 25.4 L1.1 20.45 Q2.7 22.2 1.65 24.15 -1.85 30.6 -8.55 28.1 L-8.35 25.4 M17.5 23.35 L31.05 14.0 31.45 15.35 31.6 16.65 Q30.75 24.5 22.9 26.6 L25.55 31.7 23.2 33.1 22.05 32.65 20.95 32.0 Q17.6 30.0 16.25 26.3 L17.65 24.85 17.5 23.35 M76.95 -56.3 L73.3 -53.55 72.8 -57.2 73.8 -58.0 76.95 -56.3 M66.15 -51.95 L70.95 -53.0 76.05 -50.7 65.0 -46.55 63.5 -49.45 66.15 -51.95 M73.8 -30.9 L76.85 -27.9 75.95 -27.2 Q74.3 -26.0 72.15 -25.5 L69.0 -25.6 68.1 -26.65 55.3 -21.3 53.15 -21.65 49.95 -20.05 52.85 -22.5 52.95 -24.85 Q58.3 -29.0 65.2 -29.75 L66.4 -28.5 66.05 -27.05 68.1 -27.55 69.0 -29.15 73.8 -30.9 M64.7 -41.25 L52.15 -42.45 53.65 -43.75 53.7 -44.5 Q50.5 -42.6 47.0 -43.95 L46.6 -44.35 46.25 -44.65 56.0 -48.55 56.15 -46.85 62.75 -45.0 64.7 -41.25 M38.95 -44.2 L37.25 -43.75 35.3 -41.95 32.1 -43.2 36.1 -43.4 Q39.4 -52.5 42.3 -48.7 42.2 -45.3 38.95 -44.2 M27.15 -42.5 L25.85 -41.95 Q26.8 -47.3 31.05 -50.7 32.1 -45.1 27.15 -42.5 M28.9 -20.2 L37.9 -13.55 37.6 -11.9 Q29.8 -11.5 28.85 -19.1 L28.9 -20.2 M33.9 -37.15 L47.35 -30.55 46.2 -28.25 44.05 -28.15 42.0 -28.3 Q35.75 -29.2 31.35 -34.0 L31.5 -35.65 33.9 -37.15 M32.55 -19.9 L41.0 -28.4 44.05 -27.55 Q43.35 -23.8 40.6 -21.2 37.8 -18.6 34.05 -18.25 L32.55 -19.9 M54.55 -15.25 L59.55 -8.45 58.1 -8.05 51.6 -12.95 54.55 -15.25 M-65.55 -164.35 L-63.8 -166.05 Q-61.0 -161.55 -63.55 -156.9 -64.2 -155.8 -64.35 -154.45 -70.35 -158.6 -65.55 -164.35 M-79.7 -154.8 Q-85.7 -151.8 -91.1 -155.9 -86.0 -158.1 -81.0 -155.55 L-79.7 -154.8 M-86.8 -144.7 L-86.45 -143.4 Q-93.2 -138.05 -101.8 -139.65 L-101.8 -141.8 Q-95.8 -145.45 -88.8 -145.55 L-86.8 -144.7 M-102.95 -143.45 Q-101.05 -138.0 -109.1 -135.55 L-113.7 -135.6 Q-117.35 -129.35 -124.5 -131.65 L-124.6 -133.95 -115.15 -139.85 -113.4 -139.3 -111.5 -141.3 Q-108.0 -144.9 -103.4 -143.55 L-102.95 -143.45 M-89.5 -129.15 L-87.6 -128.15 Q-85.65 -117.9 -88.95 -108.2 -89.15 -107.55 -89.75 -107.05 L-90.9 -107.2 Q-91.65 -108.4 -91.9 -109.9 L-92.15 -112.8 Q-92.2 -115.65 -90.95 -117.9 L-95.15 -113.7 -96.8 -114.7 -97.5 -125.4 -95.2 -127.35 -92.5 -125.5 -91.65 -128.1 -89.5 -129.15 M-93.4 -134.85 Q-97.1 -131.35 -101.8 -132.8 L-102.95 -133.25 -102.85 -135.55 Q-98.3 -139.15 -94.8 -135.75 L-93.4 -134.85 M-86.2 -122.2 L-87.0 -123.8 Q-84.25 -127.25 -79.2 -127.65 L-76.65 -129.85 Q-74.15 -118.9 -84.85 -118.1 L-85.95 -118.0 -86.45 -119.9 -84.15 -122.65 -86.2 -122.2 M-107.85 -157.15 Q-110.0 -151.8 -115.45 -150.65 L-117.0 -150.55 Q-116.0 -149.85 -115.75 -148.55 -115.35 -146.35 -116.9 -144.75 L-117.85 -143.9 -120.5 -144.6 -129.6 -139.7 -133.0 -141.1 -133.35 -143.75 Q-127.0 -149.8 -118.5 -150.9 L-119.1 -153.4 Q-116.5 -157.45 -112.15 -159.6 L-110.9 -160.15 -108.95 -159.5 -107.85 -157.15 M-139.6 -159.1 L-140.4 -159.45 -141.55 -162.15 Q-140.8 -165.8 -137.25 -167.3 L-135.15 -163.75 Q-135.5 -159.15 -139.6 -159.1 M-137.8 -154.9 L-137.3 -153.65 Q-140.4 -146.5 -147.6 -147.8 L-149.2 -148.4 -149.2 -150.55 Q-145.0 -154.95 -138.75 -155.45 L-137.8 -154.9 M-133.0 -123.6 L-132.35 -123.2 -130.65 -120.0 Q-124.95 -125.3 -118.0 -120.25 L-118.85 -118.2 -133.05 -116.45 -134.95 -117.4 Q-136.2 -120.6 -133.75 -122.95 L-133.0 -123.6 M-142.8 -127.2 Q-146.1 -120.95 -153.05 -122.05 L-154.9 -122.55 -155.65 -125.75 Q-150.7 -130.55 -143.9 -129.55 L-142.8 -127.2 M-118.25 -109.25 Q-119.6 -108.45 -121.55 -108.45 -123.5 -108.45 -124.85 -109.25 -126.2 -110.1 -126.2 -111.25 -126.2 -112.4 -124.85 -113.2 -123.5 -114.05 -121.55 -114.05 -119.6 -114.05 -118.25 -113.2 -116.9 -112.4 -116.9 -111.25 -116.9 -110.1 -118.25 -109.25 M-119.95 -93.4 L-120.8 -92.75 -123.0 -93.0 Q-124.0 -97.3 -120.15 -99.4 L-119.35 -98.55 Q-117.25 -95.65 -119.95 -93.4 M-142.3 -105.7 L-143.4 -105.95 -144.2 -108.3 -138.7 -113.1 -137.0 -112.1 Q-135.95 -106.1 -142.3 -105.7 M-137.8 -99.4 L-138.7 -97.25 -148.55 -94.65 -149.95 -98.5 -146.55 -102.05 -139.4 -102.05 -137.8 -99.4 M-137.15 -91.25 L-140.55 -89.75 Q-143.5 -85.65 -148.95 -85.15 L-154.05 -85.3 -154.2 -87.45 -142.95 -92.6 -137.15 -91.25 M-124.65 -92.45 L-123.55 -90.1 Q-125.45 -84.1 -131.0 -81.85 L-135.1 -81.55 -135.65 -83.5 -127.6 -92.9 -124.65 -92.45 M-135.85 -66.95 Q-145.15 -67.45 -147.25 -76.15 L-147.55 -77.7 -145.1 -79.25 Q-137.95 -74.75 -133.35 -67.8 L-135.85 -66.95 M-129.95 -76.75 L-129.3 -75.5 -123.3 -75.3 Q-122.7 -73.55 -124.05 -72.25 -128.8 -67.8 -133.5 -72.3 L-129.95 -76.75 M-104.3 -80.15 L-111.05 -79.6 -103.45 -78.5 -110.15 -76.55 -115.15 -78.35 -114.7 -80.7 -114.2 -80.95 -113.7 -81.0 -111.3 -81.3 Q-107.6 -81.4 -104.3 -80.15 M-118.1 -85.95 Q-118.1 -85.1 -118.65 -84.5 -119.25 -83.95 -120.1 -83.95 -120.95 -83.95 -121.5 -84.5 -122.1 -85.1 -122.1 -85.95 -122.1 -86.8 -121.5 -87.35 -120.95 -87.95 -120.1 -87.95 -119.25 -87.95 -118.65 -87.35 -118.1 -86.8 -118.1 -85.95 M-116.25 -71.35 L-115.3 -71.5 -113.0 -68.0 Q-116.25 -64.3 -120.5 -66.5 L-121.75 -67.1 Q-119.85 -70.45 -116.25 -71.35 M-94.65 -100.8 L-92.35 -102.95 -90.2 -100.4 Q-88.8 -98.55 -89.7 -96.3 -92.35 -94.7 -95.6 -95.1 L-99.85 -96.0 -93.3 -96.4 -94.5 -97.6 -94.65 -100.8 M-85.75 -87.05 Q-90.15 -80.7 -94.55 -85.25 L-95.0 -86.2 Q-93.1 -89.65 -89.1 -89.6 L-88.05 -89.55 -85.75 -87.05 M-85.4 -77.6 L-84.85 -76.55 Q-85.3 -69.7 -92.0 -69.95 L-88.95 -78.0 -85.4 -77.6 M-154.55 -158.75 Q-156.95 -152.7 -162.4 -149.0 L-164.0 -148.05 -168.3 -149.1 Q-165.4 -156.0 -158.75 -159.85 L-157.25 -160.7 -155.85 -160.3 -154.55 -158.75 M-173.75 -143.45 Q-175.4 -137.45 -181.5 -136.7 L-183.2 -136.7 -184.0 -138.6 Q-181.35 -143.65 -175.8 -145.0 L-173.75 -143.45 M-170.9 -162.7 L-171.1 -161.25 Q-176.85 -153.45 -186.1 -150.55 -184.3 -156.7 -178.8 -160.35 -175.8 -162.4 -172.25 -164.0 L-170.9 -162.7 M-177.8 -126.7 L-179.5 -128.8 -174.35 -132.9 -172.7 -129.65 -177.8 -126.7 M-158.65 -132.7 Q-155.2 -135.95 -151.55 -134.2 L-151.1 -133.8 Q-153.1 -126.85 -161.15 -127.35 -161.7 -129.3 -160.6 -130.95 -159.85 -132.1 -158.65 -132.7 M-195.05 -161.25 L-192.0 -160.15 Q-193.3 -153.7 -199.45 -152.4 L-201.0 -152.4 -201.8 -154.3 Q-200.05 -158.5 -196.1 -160.7 L-195.05 -161.25 M-218.45 -145.15 L-223.1 -145.05 -223.9 -147.35 -222.6 -148.95 Q-218.45 -153.7 -212.4 -155.7 L-210.7 -156.25 Q-209.3 -147.75 -218.45 -145.15 M-218.6 -120.2 Q-220.05 -113.7 -226.7 -112.9 L-228.8 -113.05 -228.55 -115.4 -220.7 -121.65 -218.6 -120.2 M-196.35 -108.25 L-196.3 -110.6 -189.35 -113.8 -187.05 -111.85 Q-188.65 -107.35 -193.6 -108.05 L-196.35 -108.25 M-207.55 -106.5 Q-206.55 -110.6 -201.8 -111.3 -203.1 -107.1 -207.3 -106.35 L-207.55 -106.5 M-215.05 -112.65 L-213.7 -111.35 Q-214.6 -106.2 -219.95 -106.25 L-221.0 -106.45 -221.3 -109.15 Q-219.35 -112.0 -215.95 -112.55 L-215.05 -112.65 M-215.7 -99.9 L-214.1 -97.25 Q-216.5 -93.65 -219.75 -90.85 -221.1 -89.75 -222.8 -89.4 L-225.5 -91.7 Q-224.35 -95.5 -221.15 -98.05 -219.25 -99.45 -217.15 -100.25 L-215.7 -99.9 M-207.8 -75.3 Q-206.3 -79.5 -202.1 -81.55 L-200.75 -82.25 -199.15 -81.45 -198.65 -80.2 -198.95 -79.2 -205.75 -73.35 -207.1 -73.95 -207.8 -75.3 M-215.9 -71.0 Q-219.8 -63.25 -227.0 -58.7 -228.05 -58.05 -229.15 -57.55 L-230.5 -59.45 Q-227.25 -68.6 -218.55 -73.0 L-215.9 -71.0 M-191.65 -90.3 Q-189.15 -97.25 -182.4 -100.3 L-180.75 -101.0 -178.85 -100.3 -177.75 -97.95 -179.8 -95.05 -172.9 -102.25 -171.5 -102.6 -169.45 -101.8 -169.2 -105.1 -156.5 -111.7 -154.6 -111.0 -153.5 -108.65 Q-158.6 -101.6 -167.0 -101.25 L-169.1 -101.35 -168.3 -99.55 Q-170.35 -93.4 -176.3 -90.85 -180.0 -89.35 -181.6 -93.1 -185.2 -89.8 -190.05 -88.3 L-188.05 -86.85 Q-187.45 -86.3 -187.7 -85.3 -190.05 -79.1 -196.6 -78.45 L-198.05 -78.5 Q-196.3 -85.2 -190.05 -88.3 L-190.55 -88.15 -191.65 -90.3 M-156.7 -113.0 Q-152.3 -119.6 -144.25 -118.45 -144.55 -112.1 -151.25 -111.25 -154.0 -110.7 -156.55 -112.15 L-156.7 -113.0 M-155.35 -91.9 Q-157.0 -87.4 -161.5 -86.2 L-162.8 -86.7 Q-165.95 -81.2 -171.15 -79.95 -172.6 -79.5 -173.65 -80.85 -170.9 -88.6 -163.65 -92.4 L-161.55 -90.95 -155.8 -95.65 Q-154.6 -94.0 -155.35 -91.9 M-172.2 -43.75 L-170.8 -43.35 -169.55 -41.8 Q-170.65 -34.2 -177.4 -32.2 L-179.25 -31.9 Q-182.55 -38.3 -174.4 -42.55 L-172.2 -43.75 M-177.55 -21.3 L-180.4 -23.25 Q-179.5 -26.9 -176.4 -29.1 L-174.35 -30.4 -172.25 -28.95 Q-172.8 -25.1 -175.6 -22.85 -176.55 -22.05 -177.55 -21.3 M-194.8 -60.15 Q-198.95 -52.75 -206.45 -53.6 -207.75 -53.7 -208.4 -55.15 L-196.6 -62.5 -194.8 -60.15 M-187.2 -48.2 Q-185.05 -53.25 -180.05 -55.7 -177.35 -48.1 -186.3 -48.05 L-187.2 -48.2 M-199.15 -44.35 Q-199.2 -41.35 -202.15 -40.35 L-203.9 -41.4 -204.1 -42.85 -200.05 -46.7 -199.25 -45.7 -199.15 -44.35 M-217.5 -59.8 L-212.15 -65.5 -208.6 -66.2 Q-207.55 -64.25 -208.15 -62.3 -209.8 -56.8 -215.5 -56.25 L-217.5 -59.8 M-224.25 -36.45 L-226.95 -38.95 Q-223.55 -46.45 -215.7 -49.3 -214.4 -41.15 -222.65 -37.2 L-224.25 -36.45 M-187.05 -24.7 Q-190.05 -18.75 -196.75 -17.5 -198.3 -17.35 -199.85 -17.5 -198.0 -25.05 -190.35 -27.2 L-188.7 -27.5 -187.05 -24.7 M-198.75 -37.85 Q-196.4 -43.85 -190.75 -46.95 -189.2 -37.85 -198.0 -37.35 L-198.75 -37.85 M-66.65 -61.2 Q-72.15 -52.45 -81.55 -47.85 L-84.25 -46.6 -85.7 -47.75 -85.9 -49.1 Q-81.5 -56.8 -73.85 -61.3 -71.75 -62.6 -69.5 -63.7 L-66.65 -61.2 M-93.75 -66.0 Q-86.25 -58.05 -90.0 -47.65 L-95.35 -48.4 -92.15 -50.0 -93.75 -64.45 -93.75 -66.0 M-92.2 -30.5 L-91.55 -31.8 -102.15 -35.2 -101.25 -37.85 Q-92.75 -39.65 -84.45 -36.7 -82.1 -35.85 -82.0 -33.4 L-87.0 -32.0 -83.2 -27.9 Q-78.45 -26.95 -75.65 -23.3 -73.3 -20.25 -74.15 -16.6 L-77.2 -16.1 -91.8 -29.0 -92.2 -30.5 M-72.0 -26.3 L-65.6 -32.9 Q-64.2 -25.85 -70.4 -24.85 L-70.9 -25.05 -72.0 -26.3 M-110.9 -60.15 Q-118.55 -58.1 -126.4 -58.1 -126.95 -58.1 -127.45 -58.4 L-127.8 -61.2 Q-121.4 -62.55 -114.95 -61.2 L-110.9 -60.15 M-130.0 -56.35 L-124.05 -56.4 -129.6 -54.6 -130.15 -53.55 -132.8 -51.95 -129.25 -49.3 -132.8 -50.35 -136.4 -49.65 -136.85 -50.15 -137.35 -50.75 -137.7 -51.4 -138.15 -52.85 -138.2 -53.55 -138.05 -54.25 -137.8 -55.0 -131.55 -57.3 -130.0 -56.35 M-107.0 -40.85 L-106.4 -53.9 -103.4 -58.55 Q-101.0 -50.15 -104.3 -42.3 L-105.2 -40.35 -107.0 -40.85 M-79.85 -5.25 L-81.1 -3.65 Q-86.85 -3.2 -90.75 -7.55 L-89.65 -10.25 -87.35 -10.95 -76.7 -6.4 -79.85 -5.25 M11.3 41.15 L12.5 42.55 11.05 45.05 Q4.35 45.35 0.45 40.1 L-1.95 36.45 0.35 34.5 Q6.95 36.1 11.3 41.15 M-18.8 45.0 L-20.95 45.8 Q-24.55 39.95 -19.6 35.05 L-18.85 36.15 Q-16.7 39.85 -18.3 43.9 L-18.8 45.0 M-7.5 37.7 Q-3.3 41.25 -4.65 46.55 L-5.05 47.85 Q-10.35 44.0 -7.5 37.7 M-45.75 52.3 Q-46.7 52.95 -47.85 52.65 -52.1 51.7 -52.0 47.15 L-45.75 52.3" fill="#000000" fill-rule="evenodd" stroke="none"/>
  </g>
</svg>
