<?xml version="1.0" encoding="UTF-8" standalone="no"?>
<svg xmlns:xlink="http://www.w3.org/1999/xlink" height="377.55px" width="497.4px" xmlns="http://www.w3.org/2000/svg">
  <g transform="matrix(1.0, 0.0, 0.0, 1.0, 248.45, 191.9)">
    <path d="M-203.4 -179.75 L-202.6 -180.3 Q-188.5 -159.0 -190.8 -132.25 -191.2 -127.45 -192.85 -123.45 -189.9 -115.0 -189.05 -105.25 L-189.0 -104.8 Q-186.8 -101.45 -184.15 -98.3 -179.35 -92.65 -176.3 -85.95 -170.7 -73.55 -168.0 -60.7 -167.65 -67.65 -167.75 -74.6 -167.85 -83.2 -165.15 -90.7 -162.55 -119.95 -171.6 -147.7 -174.05 -155.3 -175.45 -163.05 -177.1 -171.9 -171.15 -176.55 L-169.4 -175.6 -169.0 -175.15 Q-169.3 -158.7 -162.85 -142.9 -159.85 -150.85 -153.95 -158.0 -150.3 -162.4 -147.65 -167.6 -146.85 -169.25 -145.35 -169.8 -143.9 -161.45 -151.4 -153.55 -157.75 -146.85 -161.0 -138.7 -158.35 -132.6 -158.55 -125.9 -159.0 -112.75 -160.3 -99.95 L-160.25 -100.1 -159.95 -100.2 -158.9 -100.35 -158.85 -100.45 -157.95 -100.15 Q-152.45 -108.85 -142.5 -114.4 L-137.8 -118.7 -131.85 -123.65 -127.65 -127.1 Q-121.85 -138.65 -130.4 -150.0 -132.5 -152.8 -131.95 -156.35 -129.8 -171.6 -132.3 -187.25 -131.8 -190.15 -130.15 -191.75 L-130.1 -191.9 Q-123.25 -172.05 -124.75 -150.25 -124.95 -147.8 -123.3 -145.5 -121.75 -143.3 -121.05 -140.75 -120.95 -137.0 -121.85 -133.65 -116.3 -140.65 -109.8 -146.85 -107.05 -149.5 -104.65 -152.45 L-103.9 -153.5 Q-99.2 -160.3 -95.45 -167.65 -91.45 -175.35 -85.0 -181.05 L-83.55 -181.3 -83.55 -181.4 Q-82.4 -180.95 -81.35 -180.35 L-81.0 -179.95 Q-85.5 -171.0 -90.8 -162.2 -98.0 -145.95 -112.0 -134.5 -114.2 -132.7 -116.05 -129.95 -127.75 -112.6 -146.35 -102.7 L-152.8 -95.9 -156.5 -91.5 Q-159.95 -68.85 -160.8 -45.55 L-161.0 -43.4 Q-160.35 -40.5 -160.0 -37.65 -152.35 -47.65 -143.0 -56.4 L-140.75 -61.25 -140.75 -61.75 -140.8 -62.85 Q-139.0 -69.65 -137.85 -76.75 L-137.7 -77.25 Q-140.0 -88.35 -137.8 -98.05 L-137.45 -98.3 Q-130.35 -81.95 -136.65 -66.0 -135.75 -64.95 -135.3 -63.4 -131.4 -67.4 -128.35 -72.45 -121.0 -84.6 -108.75 -92.0 -104.45 -94.6 -100.35 -97.5 -97.85 -109.3 -98.7 -122.6 -99.05 -128.15 -96.05 -131.1 -93.95 -123.85 -93.65 -114.15 -93.5 -107.3 -95.45 -101.25 -90.6 -105.15 -86.1 -109.55 -82.05 -123.35 -74.6 -134.05 -77.6 -142.8 -78.5 -153.95 -78.55 -154.7 -77.65 -154.45 -71.2 -146.5 -72.5 -136.95 -70.6 -140.85 -67.05 -143.9 -66.3 -144.55 -65.65 -144.65 L-63.9 -144.3 Q-57.95 -149.6 -49.8 -153.35 -40.3 -157.65 -32.95 -164.25 -42.4 -147.05 -64.15 -140.7 L-64.25 -140.65 Q-65.7 -137.75 -67.75 -134.55 L-68.4 -133.05 -69.4 -131.9 Q-70.4 -127.4 -71.9 -123.15 -62.45 -131.05 -48.0 -133.55 -43.5 -134.3 -39.35 -136.6 -30.85 -141.2 -23.6 -146.8 -21.45 -141.8 -29.65 -137.35 -48.85 -127.0 -69.05 -119.4 -71.9 -118.3 -74.35 -116.2 L-75.35 -115.35 Q-83.3 -100.3 -99.0 -90.55 -113.2 -81.75 -122.4 -68.1 -126.25 -62.35 -131.25 -57.6 -145.45 -44.3 -157.7 -29.4 L-159.7 -26.8 Q-160.55 -16.4 -165.6 -6.5 L-166.1 -5.45 -168.4 6.7 Q-151.6 -10.65 -128.8 -21.7 -122.5 -24.75 -117.55 -29.95 -110.1 -37.7 -104.15 -46.5 -110.6 -51.65 -117.45 -56.3 -119.65 -57.85 -120.6 -60.35 -120.6 -61.25 -119.8 -61.85 -118.95 -62.6 -118.15 -62.65 -109.15 -57.7 -101.0 -51.4 L-98.55 -55.7 Q-97.4 -56.25 -96.05 -56.05 L-93.8 -57.5 Q-93.55 -68.75 -95.0 -79.7 -95.25 -81.3 -93.6 -81.35 L-92.3 -80.9 -91.55 -80.5 Q-88.75 -73.25 -87.15 -65.75 -85.3 -72.2 -84.75 -79.35 -84.7 -79.85 -84.25 -79.95 -80.8 -71.25 -86.7 -63.4 -85.1 -54.9 -85.1 -46.05 -75.85 -49.9 -66.0 -52.65 L-65.1 -52.85 -64.05 -52.45 -63.5 -52.15 -60.65 -52.5 -62.4 -51.4 -63.15 -50.9 -63.55 -49.85 -64.0 -49.3 Q-74.6 -44.9 -85.1 -41.05 L-85.35 -37.65 -85.25 -36.65 Q-79.85 -29.45 -76.4 -20.4 L-75.4 -18.1 Q-74.75 -22.85 -72.45 -27.35 L-72.1 -27.9 Q-69.55 -29.2 -68.05 -31.1 -67.95 -30.2 -68.5 -29.45 L-68.7 -28.95 Q-68.95 -27.85 -68.15 -26.8 L-71.75 -11.8 -68.65 -8.0 Q-65.7 -4.75 -64.0 -0.75 -62.65 2.6 -61.45 6.3 L-59.4 3.2 -45.6 -15.1 Q-42.4 -30.8 -45.15 -47.5 L-45.25 -48.55 Q-44.9 -49.55 -44.05 -50.15 L-43.15 -54.15 -42.7 -54.25 Q-42.05 -52.8 -42.25 -51.05 L-42.25 -50.55 -40.8 -48.9 Q-37.45 -33.65 -41.9 -20.25 L-40.75 -21.8 Q-34.7 -30.25 -32.05 -40.6 -30.7 -46.05 -28.5 -51.0 -30.9 -69.65 -32.1 -89.35 -32.65 -98.4 -28.75 -104.35 -26.75 -94.25 -25.75 -83.75 -25.15 -89.55 -21.15 -93.55 L-21.1 -93.65 Q-17.85 -84.6 -25.3 -78.85 L-24.95 -71.75 Q-24.95 -70.5 -24.45 -69.05 -23.4 -64.2 -23.7 -59.75 -19.25 -66.55 -12.95 -72.35 -9.75 -75.25 -7.45 -79.0 -3.95 -84.7 -1.5 -90.75 -1.7 -92.9 -1.4 -95.1 L-1.15 -96.15 Q0.1 -107.65 -0.85 -119.25 -1.8 -131.15 0.85 -142.7 2.65 -145.3 4.9 -146.8 7.6 -145.8 6.25 -143.2 L6.05 -142.7 Q6.1 -125.5 4.5 -108.55 10.0 -126.35 26.6 -137.8 L27.15 -138.05 Q29.1 -131.75 21.8 -125.6 12.45 -117.7 7.0 -106.7 L5.4 -106.15 Q5.35 -104.1 4.1 -104.55 L3.95 -103.15 Q4.65 -103.6 5.45 -103.85 6.45 -102.4 6.95 -100.65 L7.15 -100.1 Q2.05 -70.15 -20.8 -49.5 -22.1 -48.35 -22.8 -46.5 L-26.5 -37.0 -26.45 -36.45 -25.9 -36.9 -16.05 -44.15 Q-8.2 -51.1 1.35 -56.3 L2.55 -56.75 2.7 -56.7 Q10.25 -61.5 18.1 -65.95 23.3 -68.9 27.45 -73.4 37.35 -84.15 42.65 -97.95 L44.4 -98.75 44.4 -98.85 46.15 -97.85 46.6 -97.4 45.75 -94.6 46.6 -95.45 Q56.85 -98.3 67.0 -100.4 L68.1 -100.45 Q67.65 -99.05 65.55 -98.1 L65.35 -97.75 Q54.65 -95.25 44.65 -91.6 40.5 -80.4 33.3 -71.6 41.15 -75.2 51.8 -74.45 57.55 -74.05 63.1 -75.6 L80.5 -80.65 Q82.5 -78.7 79.2 -75.95 L78.8 -75.5 Q54.2 -66.2 28.8 -66.65 17.8 -55.7 1.3 -49.2 L-5.15 -46.35 Q-16.45 -36.75 -27.45 -26.4 -30.55 -12.7 -37.05 -0.5 -32.85 -2.15 -27.85 -2.8 -21.2 -3.7 -14.75 -5.6 10.75 -38.9 51.8 -51.1 L58.2 -53.0 Q60.5 -52.7 61.1 -50.5 L61.15 -50.0 60.7 -49.0 59.95 -47.85 Q37.45 -38.75 16.5 -27.05 13.05 -25.1 10.0 -22.55 L15.35 -22.55 Q40.5 -17.2 65.0 -21.15 L65.7 -20.95 65.95 -20.35 66.15 -19.35 65.9 -18.25 Q46.0 -8.2 23.15 -15.95 14.85 -18.75 5.95 -17.5 L4.85 -17.5 Q-4.3 -8.15 -14.8 -1.2 -16.9 0.2 -19.6 0.5 L-23.55 1.05 Q-33.95 5.7 -44.5 11.4 L-49.7 18.05 Q-59.55 29.65 -61.7 45.2 L-62.4 49.4 Q-57.65 44.8 -50.85 41.45 -32.7 32.35 -13.25 26.4 -9.55 25.25 -5.6 24.9 L-3.9 24.75 Q-0.2 22.0 4.85 20.4 L14.8 17.25 Q19.05 15.95 23.35 15.8 L34.05 15.8 Q34.5 15.95 34.85 16.25 L36.15 17.2 36.15 17.6 34.8 19.2 32.45 19.15 Q37.1 21.0 39.7 25.4 L39.6 25.8 Q30.75 24.1 26.15 19.25 14.95 19.85 4.5 23.35 2.95 23.9 1.35 24.6 2.2 25.1 2.5 26.15 L2.7 26.65 Q2.8 27.6 2.2 28.25 L1.3 29.15 Q-6.9 30.15 -14.6 32.05 L-9.85 32.3 -9.85 32.2 Q4.55 32.45 15.5 39.2 L15.45 39.5 Q-4.65 39.85 -25.7 35.3 -47.45 42.85 -64.95 58.3 L-67.35 63.75 Q-76.85 83.45 -82.4 104.5 -84.65 113.25 -84.7 122.4 L-84.7 123.3 Q-67.15 125.45 -54.4 111.45 L-51.35 108.85 Q-47.05 108.1 -45.75 112.25 -46.45 115.8 -49.4 118.1 -44.05 117.25 -43.4 122.6 -38.55 126.9 -31.4 125.45 -29.65 126.6 -29.75 128.65 L-29.7 129.0 Q-25.8 127.9 -22.2 129.9 -21.4 128.9 -21.1 127.65 L-20.5 126.5 Q-14.5 127.3 -8.05 130.85 L-5.8 130.8 -6.0 124.35 Q-6.05 123.45 -5.45 122.75 1.1 120.4 1.6 128.3 3.9 127.4 5.75 128.8 12.35 130.8 16.45 136.85 30.0 137.85 42.5 134.8 44.55 134.3 46.65 133.3 50.6 131.5 53.3 135.05 59.9 134.8 66.45 134.9 L67.75 133.65 Q68.65 129.9 67.8 126.3 67.55 125.1 68.6 125.05 69.75 126.3 71.65 126.55 L72.2 126.85 Q73.55 130.25 72.75 133.85 L72.4 135.05 74.95 135.15 74.95 134.9 Q74.9 129.25 80.7 123.3 L81.55 122.4 Q85.05 121.65 87.55 119.25 L87.7 119.2 Q87.3 121.1 85.15 122.45 L84.4 122.95 83.55 124.75 78.15 135.3 85.9 135.9 Q86.05 134.6 86.65 133.4 87.1 132.6 87.85 132.4 90.0 133.2 89.4 135.4 L89.2 135.95 89.05 136.2 Q98.5 137.15 107.9 138.85 110.0 139.25 111.6 140.7 118.85 147.35 129.65 143.05 140.6 138.65 152.65 136.5 157.5 129.85 163.7 126.3 162.6 124.3 160.55 122.9 159.85 122.4 159.6 121.5 158.95 120.55 160.5 120.1 L161.75 119.75 Q165.65 121.2 167.65 124.45 170.6 123.3 173.95 122.8 L173.0 121.35 Q173.2 120.05 172.85 118.8 172.8 118.5 173.3 118.65 L175.8 122.55 186.75 122.95 188.15 121.05 187.35 118.35 187.3 118.0 Q185.2 108.8 190.5 100.25 L190.55 100.1 Q192.0 105.15 191.5 112.35 L191.15 117.55 Q195.7 112.65 201.35 109.7 L200.9 109.55 Q195.05 100.9 196.8 91.55 196.85 90.9 197.45 90.85 L198.55 91.3 199.3 91.75 Q201.95 99.75 204.25 107.9 L204.3 108.35 204.45 108.25 205.0 107.35 Q203.2 95.35 202.15 82.45 L202.15 81.95 Q203.7 80.4 204.4 78.75 L204.5 78.75 Q206.0 90.3 207.8 102.2 L210.1 97.35 Q211.2 82.2 208.95 66.95 L207.05 54.95 206.2 50.05 Q203.55 43.1 203.1 35.8 202.3 35.1 202.15 33.8 L202.15 33.25 Q200.8 14.65 186.3 0.65 L180.3 -5.3 Q169.0 -8.45 155.15 -6.35 134.55 -3.25 116.75 -11.65 110.8 -14.5 112.45 -17.9 113.5 -17.25 114.45 -17.5 L115.3 -17.7 Q138.2 -7.1 164.65 -11.3 L169.7 -11.65 Q162.4 -15.75 156.2 -22.15 152.25 -26.2 147.25 -28.85 141.95 -31.65 136.35 -34.1 135.9 -34.65 135.85 -35.25 135.6 -36.65 133.95 -36.8 133.95 -37.15 134.1 -37.2 L135.05 -37.15 136.5 -37.8 137.7 -38.2 Q149.25 -34.55 159.15 -28.15 148.55 -40.6 139.0 -53.8 136.5 -57.3 136.5 -61.4 137.05 -62.4 138.1 -62.95 L138.95 -63.35 139.3 -63.2 140.75 -62.85 Q149.6 -48.7 160.65 -36.05 157.1 -45.8 157.05 -57.3 157.05 -63.8 155.85 -69.95 143.4 -78.8 136.1 -91.75 128.4 -105.55 114.35 -111.1 112.95 -111.65 114.7 -112.05 135.05 -104.6 146.55 -85.2 147.95 -82.95 150.35 -81.5 L153.15 -79.7 Q150.7 -86.4 146.7 -92.7 145.85 -93.9 146.3 -95.25 146.55 -96.4 147.7 -96.7 L148.6 -96.9 Q168.05 -76.5 166.05 -47.2 165.8 -43.05 166.7 -38.75 168.0 -32.3 169.95 -26.05 175.65 -20.25 181.9 -14.8 194.6 -3.6 200.9 10.35 199.15 -6.35 198.35 -23.25 L197.4 -32.2 Q186.95 -46.9 171.4 -53.4 172.8 -55.55 176.0 -54.85 L178.7 -55.0 Q188.65 -50.9 194.9 -43.05 L192.7 -49.3 Q183.3 -73.1 173.1 -96.45 171.35 -100.4 170.25 -104.5 167.55 -106.3 164.8 -109.8 151.6 -126.8 130.0 -132.6 122.0 -134.75 114.2 -137.5 102.0 -134.3 88.8 -133.95 86.75 -135.3 84.2 -136.0 83.9 -136.1 83.75 -136.65 L106.9 -140.2 99.75 -143.15 Q90.3 -147.25 88.7 -155.5 88.55 -156.25 89.55 -156.25 125.15 -138.85 161.15 -122.3 163.1 -121.4 164.95 -119.85 L167.5 -117.4 163.5 -138.85 Q162.6 -139.15 161.75 -139.85 157.1 -160.65 136.3 -169.35 132.75 -170.85 129.75 -173.65 121.8 -181.05 125.25 -187.6 138.45 -170.65 157.45 -158.6 159.1 -157.55 160.15 -155.9 L157.45 -169.25 Q155.8 -177.4 160.45 -183.15 L161.35 -183.45 162.45 -183.7 163.8 -183.25 164.75 -182.8 Q168.55 -163.25 171.9 -142.85 173.6 -132.4 177.35 -122.45 185.55 -100.7 194.45 -79.1 193.1 -103.8 202.85 -127.65 L202.95 -127.8 Q202.6 -135.15 196.5 -139.65 195.5 -140.4 195.6 -141.65 196.4 -143.05 198.4 -143.2 L199.65 -143.4 Q202.8 -142.0 204.85 -139.8 204.8 -157.5 204.9 -174.8 L206.55 -175.55 207.5 -175.85 208.95 -175.4 209.85 -174.95 Q218.65 -134.9 203.55 -96.5 201.95 -92.35 201.85 -87.8 201.65 -73.9 202.8 -60.5 L202.65 -59.55 209.4 -43.9 211.55 -38.65 Q214.95 -47.65 221.6 -55.35 220.9 -64.95 220.6 -74.25 220.6 -74.65 221.05 -74.75 225.85 -68.2 226.1 -60.0 L226.3 -60.25 Q228.6 -62.45 229.6 -65.7 231.4 -71.7 234.8 -76.4 235.25 -78.65 236.75 -80.0 L237.35 -80.3 Q240.05 -78.45 237.9 -75.1 L237.65 -74.6 238.05 -73.5 238.25 -73.0 Q231.6 -51.55 215.5 -34.85 214.3 -33.6 213.6 -32.0 216.75 -20.15 216.45 -7.35 215.3 35.55 229.35 75.85 L234.25 89.9 Q237.0 97.85 232.1 101.6 233.85 103.4 235.25 105.8 239.55 104.25 243.7 101.35 245.6 100.9 247.3 102.1 248.35 102.95 248.75 104.2 L248.95 104.75 Q246.2 110.55 242.1 112.5 243.75 116.15 244.0 120.4 L244.5 131.65 244.7 139.7 244.85 146.65 Q244.95 152.0 245.7 157.25 248.3 175.75 233.55 184.05 230.85 185.6 227.7 185.6 191.25 185.95 154.55 184.0 21.15 177.0 -111.9 178.55 -168.95 179.2 -225.5 175.65 -233.4 175.15 -233.7 167.5 -234.75 138.25 -236.2 108.65 -236.4 104.95 -234.95 101.9 L-235.15 101.7 Q-234.8 101.0 -234.25 100.65 L-233.95 100.1 -232.7 99.65 -231.65 99.4 -230.25 99.85 -229.55 100.2 Q-220.35 95.35 -214.05 86.9 -210.7 89.3 -213.3 93.75 L-213.55 94.25 -210.05 94.4 -209.45 94.75 Q-208.3 96.7 -209.75 98.6 L-210.25 99.6 Q-206.25 100.95 -202.3 101.65 L-196.3 88.05 Q-194.1 83.2 -193.2 77.85 -186.75 39.35 -176.3 2.2 L-174.7 -4.05 -174.85 -4.55 -174.5 -9.5 -174.95 -9.9 Q-175.95 -20.6 -181.7 -28.1 L-182.15 -27.8 -183.0 -27.55 -203.25 -26.8 -203.55 -27.9 -203.4 -28.95 -203.2 -29.5 Q-197.7 -31.65 -191.85 -32.9 L-189.5 -33.4 -185.95 -32.6 Q-188.8 -35.1 -192.35 -37.15 -205.9 -44.95 -217.35 -55.05 -229.1 -48.05 -243.9 -50.0 -247.2 -51.15 -248.45 -53.75 L-248.1 -54.7 -247.25 -55.7 Q-234.3 -54.2 -222.1 -57.65 L-220.3 -57.7 -227.05 -64.45 Q-227.2 -65.35 -226.55 -66.0 -225.55 -67.05 -224.5 -67.1 -213.15 -57.9 -201.05 -49.65 -207.5 -70.7 -215.9 -91.05 L-216.1 -92.05 Q-215.6 -93.9 -213.65 -93.95 L-213.65 -94.05 Q-202.4 -78.0 -199.5 -57.8 -198.55 -51.5 -195.5 -45.95 L-190.15 -42.55 Q-185.5 -39.65 -181.85 -35.8 -174.8 -28.45 -171.95 -18.6 -171.1 -24.7 -170.7 -30.85 -170.15 -39.45 -169.1 -48.25 -174.7 -67.5 -183.75 -85.7 L-185.2 -88.45 Q-188.15 -91.0 -190.7 -93.95 -192.0 -95.5 -193.55 -96.7 -217.55 -99.55 -239.05 -110.0 -240.0 -110.5 -239.85 -111.5 -240.05 -112.5 -239.2 -113.15 -238.4 -113.8 -237.55 -113.8 -214.1 -105.55 -190.7 -98.2 -195.05 -105.4 -200.1 -112.3 -205.2 -119.3 -206.65 -128.0 L-206.95 -130.15 -207.6 -130.75 Q-217.95 -146.85 -235.4 -157.2 -237.5 -158.45 -238.9 -160.7 L-238.6 -163.85 Q-238.5 -164.65 -237.6 -164.45 -219.7 -153.3 -207.2 -136.6 L-206.95 -136.3 Q-206.45 -140.0 -204.7 -142.7 L-203.45 -142.25 -202.7 -141.8 Q-200.7 -130.65 -196.7 -120.2 -193.05 -147.35 -203.6 -174.05 L-204.35 -175.7 Q-204.75 -178.1 -203.4 -179.75 M190.85 -161.6 Q189.95 -159.6 188.35 -157.8 L188.1 -157.3 Q181.15 -145.55 175.0 -132.75 L174.6 -132.2 Q172.35 -144.95 184.3 -156.9 L185.1 -157.85 Q186.2 -158.65 187.6 -158.4 188.95 -160.25 190.7 -161.55 L190.85 -161.6 M150.9 -122.2 Q158.45 -113.6 159.5 -102.05 L159.55 -101.5 Q158.05 -96.2 154.05 -92.8 155.55 -95.8 156.2 -99.2 L156.35 -100.25 Q151.9 -110.9 150.45 -121.75 150.4 -122.1 150.9 -122.2 M-195.6 -118.4 L-195.85 -118.1 -195.65 -117.6 -195.6 -118.4 M-149.25 -2.2 L-149.45 -1.7 Q-162.35 6.85 -171.05 19.25 L-172.55 25.8 Q-174.3 33.3 -175.3 41.0 -178.95 70.05 -175.9 98.9 L-171.85 98.05 Q-163.65 86.35 -166.4 72.45 -166.65 71.55 -165.55 71.75 -158.35 85.55 -170.2 96.35 L-170.9 96.9 -171.0 97.85 -164.6 96.9 -164.3 96.9 Q-162.65 93.3 -158.9 90.8 L-158.2 90.85 Q-158.15 91.75 -157.5 92.5 L-157.25 93.0 -158.6 95.45 Q-156.65 94.65 -155.4 96.55 -155.1 97.85 -155.1 99.25 L-155.15 100.3 Q-154.55 101.1 -152.05 101.7 -150.9 104.85 -151.8 108.25 L-151.75 109.2 Q-146.6 100.85 -137.65 97.05 -140.2 92.7 -136.7 87.3 L-136.35 86.75 Q-135.35 86.1 -134.05 86.05 -133.3 84.85 -132.1 84.65 L-131.75 84.6 Q-130.7 85.7 -132.2 86.8 L-132.75 87.3 Q-133.95 91.85 -135.55 96.2 -133.9 95.6 -132.05 95.15 L-131.2 94.95 Q-129.9 95.1 -129.0 95.65 -125.5 93.1 -122.55 89.6 -122.3 89.3 -121.85 89.4 -124.1 93.7 -128.5 96.0 -127.8 96.55 -127.4 97.45 -128.15 101.15 -131.15 104.4 -130.8 106.65 -129.55 108.65 L-129.1 109.2 Q-127.35 108.1 -125.35 108.65 -122.65 111.45 -121.45 115.1 L-121.3 115.65 -119.8 117.25 -118.95 115.8 Q-116.35 106.6 -106.8 100.7 -89.0 89.7 -80.95 70.15 -70.0 43.5 -64.7 15.05 L-65.95 11.4 Q-71.6 -3.35 -81.15 -15.5 -87.5 -23.65 -89.85 -33.8 L-94.2 -37.9 -106.85 -33.85 Q-122.45 -14.0 -147.75 -3.4 L-149.05 -2.8 -149.25 -2.2 M-94.8 -55.5 Q-95.65 -54.9 -95.05 -53.85 L-94.95 -53.4 Q-96.1 -50.9 -97.4 -48.5 L-92.65 -44.4 Q-93.95 -50.0 -93.85 -56.3 L-94.25 -56.0 -94.8 -55.5 M-97.0 -40.45 L-100.3 -43.3 Q-102.7 -39.4 -105.35 -35.75 L-97.0 -40.45 M-114.25 118.45 L-115.4 120.05 -114.9 119.7 -114.25 118.45 M-96.35 117.8 L-96.35 116.7 -96.6 117.25 -96.35 117.8 M-147.3 88.75 L-146.8 88.7 Q-150.4 94.25 -153.5 99.95 L-153.7 100.5 Q-154.5 100.25 -154.6 98.9 L-154.8 98.35 Q-153.5 94.0 -150.7 90.3 L-150.0 89.4 -147.3 88.75 M-159.6 97.05 L-161.2 99.35 -160.15 98.5 -159.6 97.05 M-170.6 85.3 L-170.25 85.85 Q-170.9 89.5 -170.6 93.35 L-170.6 93.9 Q-171.6 95.85 -173.05 97.6 -174.05 91.35 -172.05 84.15 -171.9 83.55 -171.2 83.7 L-170.6 85.3" fill="#000000" fill-rule="evenodd" stroke="none"/>
    <path d="M-172.35 -165.7 L-169.45 -162.15 -171.5 -158.9 Q-173.5 -157.9 -175.2 -159.45 L-176.35 -160.9 Q-175.9 -163.65 -173.5 -165.1 L-172.35 -165.7 M-145.25 -171.9 Q-147.8 -163.6 -156.45 -161.95 L-157.7 -164.65 Q-153.6 -170.05 -147.6 -173.35 L-146.15 -172.9 -145.25 -171.9 M-116.55 -171.95 L-114.75 -172.3 -113.25 -170.5 Q-116.85 -164.05 -124.7 -162.75 L-126.45 -162.5 -127.35 -163.65 -127.25 -165.7 Q-122.85 -170.55 -116.55 -171.95 M-71.25 -172.1 L-68.35 -169.6 -69.05 -168.55 Q-73.45 -162.45 -81.0 -163.05 L-82.95 -163.4 -83.4 -166.05 Q-77.35 -169.05 -71.25 -172.1 M-97.85 -166.25 Q-98.5 -163.95 -100.75 -162.85 -101.9 -162.25 -103.3 -162.5 -101.8 -165.0 -99.1 -165.95 L-97.85 -166.25 M-98.35 -172.65 L-96.5 -171.1 -97.2 -169.1 -101.25 -167.5 -103.15 -164.8 -105.25 -168.9 -104.55 -169.65 -98.35 -172.65 M188.35 -173.2 L189.7 -173.9 Q192.5 -169.55 190.3 -165.2 189.2 -163.05 186.95 -161.8 L183.55 -163.2 183.5 -165.05 Q183.75 -170.6 188.35 -173.2 M221.0 -145.9 L222.4 -145.55 224.05 -143.4 Q225.35 -134.9 217.05 -132.5 214.95 -131.95 213.5 -133.65 L213.95 -135.75 216.2 -137.35 219.2 -145.35 221.0 -145.9 M202.05 -154.45 L200.85 -150.4 Q201.45 -151.6 202.55 -152.85 L203.7 -153.95 206.25 -151.45 203.75 -143.05 202.2 -143.0 Q199.85 -145.6 200.2 -148.25 L199.75 -146.8 Q196.9 -149.0 196.95 -152.8 196.35 -156.05 199.2 -157.35 L200.05 -157.65 202.05 -154.45 M195.15 -161.75 Q194.9 -160.75 193.9 -159.85 192.35 -158.4 190.55 -159.55 L190.15 -161.75 192.25 -164.45 197.05 -165.85 198.5 -163.9 195.15 -161.75 M187.65 -158.15 L194.8 -153.95 193.55 -148.05 192.35 -148.6 Q185.75 -150.35 187.2 -156.75 L187.65 -158.15 M175.7 -153.0 Q174.65 -151.25 173.15 -151.25 171.65 -151.25 170.55 -153.0 169.4 -154.8 169.35 -157.35 169.3 -159.9 170.35 -161.65 171.4 -163.45 172.9 -163.45 174.4 -163.45 175.5 -161.65 176.6 -159.9 176.65 -157.35 176.7 -154.8 175.7 -153.0 M203.25 -132.5 Q201.3 -128.15 197.7 -131.45 194.4 -134.4 196.45 -138.3 L199.75 -136.95 203.25 -132.5 M203.45 -123.1 Q203.0 -123.1 202.65 -123.8 202.3 -124.5 202.3 -125.5 202.25 -126.5 202.6 -127.2 202.9 -127.9 203.35 -127.9 L204.15 -127.2 204.5 -125.5 204.2 -123.8 Q203.9 -123.1 203.45 -123.1 M196.65 -117.0 L198.65 -116.15 Q201.4 -111.7 200.1 -106.7 L195.4 -107.4 Q192.7 -111.95 195.3 -115.7 L196.65 -117.0 M215.2 -68.95 Q216.65 -68.95 217.7 -67.3 218.8 -65.7 218.85 -63.4 218.9 -61.1 217.9 -59.45 216.85 -57.85 215.4 -57.85 213.95 -57.85 212.9 -59.45 211.8 -61.1 211.75 -63.4 211.7 -65.7 212.7 -67.3 213.75 -68.95 215.2 -68.95 M203.95 -75.15 Q208.8 -69.55 201.1 -68.25 199.3 -68.0 198.5 -69.8 L198.9 -70.75 203.95 -75.15 M227.05 -69.25 L227.1 -68.0 225.8 -66.7 224.25 -67.1 Q220.45 -71.55 222.9 -76.75 L223.05 -76.8 Q226.75 -73.85 227.05 -69.25 M154.0 -153.65 Q152.4 -153.95 151.35 -155.05 149.5 -157.1 149.9 -159.8 L153.35 -158.9 155.7 -154.65 154.0 -153.65 M145.2 -130.35 L141.7 -136.1 146.95 -132.55 146.8 -131.1 145.2 -130.35 M142.2 -118.75 Q141.5 -119.8 141.5 -121.25 141.45 -122.7 142.1 -123.7 142.65 -124.75 143.5 -124.75 144.35 -124.75 145.05 -123.7 145.65 -122.7 145.7 -121.25 145.7 -119.8 145.15 -118.75 144.5 -117.75 143.65 -117.75 142.8 -117.75 142.2 -118.75 M155.1 -125.6 L154.35 -136.25 156.3 -137.1 Q164.4 -131.1 158.4 -122.8 157.1 -121.05 154.95 -121.3 L154.5 -121.95 155.1 -125.6 M127.35 -158.2 L128.35 -159.5 Q136.35 -161.0 143.55 -156.95 135.85 -152.4 128.2 -157.5 127.75 -157.8 127.35 -158.2 M116.75 -151.1 Q119.4 -147.85 119.0 -143.55 118.75 -141.05 117.4 -138.95 L116.0 -138.55 114.15 -140.0 114.1 -141.65 Q114.05 -145.5 115.65 -148.85 L116.75 -151.1 M132.1 -142.3 Q133.05 -137.85 129.95 -134.45 L128.2 -132.75 125.5 -134.65 Q126.3 -140.05 129.75 -144.3 L132.1 -142.3 M102.85 -164.25 L103.6 -166.25 Q109.65 -157.45 106.15 -147.7 L104.6 -147.7 Q100.05 -155.65 102.85 -164.25 M107.35 -132.7 L92.15 -126.1 95.15 -129.5 Q100.95 -135.55 109.4 -135.9 L107.35 -132.7 M95.65 -138.05 L89.05 -138.8 86.85 -137.6 86.2 -137.55 85.65 -137.7 Q84.6 -138.15 84.2 -139.2 L83.8 -140.55 Q87.6 -145.05 93.6 -142.6 95.8 -141.75 97.6 -140.0 L95.65 -138.05 M130.25 -131.0 Q131.35 -131.0 132.15 -129.8 132.9 -128.65 132.95 -126.95 133.0 -125.25 132.25 -124.05 131.55 -122.9 130.45 -122.9 129.35 -122.9 128.55 -124.05 127.8 -125.25 127.75 -126.95 127.7 -128.65 128.45 -129.8 129.15 -131.0 130.25 -131.0 M119.1 -124.2 Q122.3 -128.55 125.7 -124.35 123.9 -120.2 119.5 -120.95 L119.1 -124.2 M127.15 -108.7 Q119.95 -106.25 115.45 -112.55 L117.5 -114.35 129.2 -111.15 Q128.95 -109.2 127.15 -108.7 M121.45 -105.8 Q113.25 -104.35 106.6 -109.55 L107.1 -111.7 Q114.8 -113.7 120.2 -107.25 L121.45 -105.8 M130.5 -94.65 Q131.75 -93.65 131.8 -92.2 131.8 -90.75 130.6 -89.7 129.35 -88.7 127.6 -88.7 125.85 -88.7 124.6 -89.7 123.3 -90.75 123.3 -92.2 123.25 -93.65 124.5 -94.65 125.7 -95.7 127.45 -95.7 129.2 -95.7 130.5 -94.65 M129.75 -77.2 Q135.6 -78.9 137.45 -73.3 L137.55 -72.6 135.6 -71.4 129.25 -75.85 129.75 -77.2 M132.0 -71.6 L137.0 -67.6 136.7 -66.2 135.65 -65.9 134.85 -66.05 Q132.1 -66.85 130.95 -69.5 L132.0 -71.6 M147.6 -109.65 L151.1 -112.4 152.5 -111.35 152.25 -108.2 Q150.1 -107.85 147.65 -109.35 147.55 -109.35 147.6 -109.65 M148.2 -76.6 Q149.4 -76.6 150.35 -75.7 151.2 -74.85 151.25 -73.6 151.25 -72.35 150.45 -71.45 149.55 -70.6 148.35 -70.6 147.15 -70.6 146.3 -71.45 145.35 -72.35 145.35 -73.6 145.3 -74.85 146.2 -75.7 147.0 -76.6 148.2 -76.6 M159.8 -88.45 L160.85 -89.55 163.05 -88.15 158.5 -75.6 156.7 -75.5 155.05 -77.6 155.3 -79.15 Q156.25 -84.45 159.8 -88.45 M163.25 -68.0 Q168.05 -71.95 171.4 -67.8 L171.95 -67.0 170.8 -65.3 Q179.0 -65.1 182.55 -57.85 L180.8 -56.05 Q172.15 -57.5 167.7 -63.6 L161.9 -64.8 163.2 -66.2 163.25 -68.0 M143.55 -58.75 L143.7 -60.15 149.1 -57.1 153.75 -46.0 Q152.45 -45.8 151.1 -46.85 L150.25 -47.8 147.6 -50.95 145.05 -54.25 Q143.5 -56.3 143.55 -58.75 M141.85 -43.55 Q134.5 -47.1 126.45 -48.05 L126.2 -50.7 Q133.2 -55.0 139.95 -50.2 L143.4 -47.3 143.55 -46.1 141.85 -43.55 M174.5 -24.25 L174.55 -23.1 173.5 -21.85 171.75 -22.2 Q166.55 -26.35 169.35 -31.55 L169.9 -32.5 171.05 -31.5 Q174.2 -28.55 174.5 -24.25 M130.05 -28.95 Q139.05 -19.45 145.3 -7.95 L143.85 -7.2 128.8 -28.15 130.05 -28.95 M112.2 -19.1 L113.15 -18.15 97.85 -16.85 98.0 -19.5 103.55 -21.4 Q108.5 -22.55 112.2 -19.1 M117.85 -5.8 Q112.2 0.2 104.35 -0.45 L103.9 -2.4 107.8 -5.6 Q113.05 -10.25 117.4 -6.5 L117.85 -5.8 M128.95 -5.4 L130.7 -6.15 131.5 -7.25 132.65 -7.75 Q134.6 -3.9 131.2 -1.65 L129.4 -0.8 128.95 -5.4 M164.6 -5.9 Q164.25 -5.55 163.7 -5.55 163.15 -5.55 162.75 -5.9 162.35 -6.3 162.35 -6.8 162.35 -7.3 162.75 -7.65 163.1 -8.05 163.65 -8.05 164.2 -8.05 164.6 -7.65 L164.95 -6.8 Q164.95 -6.3 164.6 -5.9 M167.15 0.35 L165.8 0.65 Q164.45 -5.6 170.45 -7.75 173.2 -1.75 167.15 0.35 M186.55 -57.4 L187.2 -58.75 Q191.95 -55.15 191.7 -49.3 L191.15 -47.4 188.3 -47.15 Q183.95 -51.9 186.55 -57.4 M191.6 -18.8 Q197.85 -12.55 189.3 -9.0 L190.55 -10.9 188.9 -12.75 Q188.55 -15.65 190.5 -17.75 L191.6 -18.8 M188.1 -17.55 Q187.5 -11.5 183.7 -6.95 L182.75 -5.8 179.6 -7.0 Q179.6 -12.75 183.75 -16.95 L185.9 -18.95 188.1 -17.55 M78.7 -165.0 Q84.4 -161.8 86.65 -155.8 L87.9 -151.8 86.9 -150.65 83.95 -150.35 Q79.7 -153.4 77.3 -157.95 76.15 -160.25 75.35 -162.65 L78.7 -165.0 M88.8 -134.5 Q91.8 -136.1 93.65 -133.05 L92.8 -131.05 83.6 -128.25 Q85.1 -132.4 88.8 -134.5 M22.1 -144.65 Q26.1 -137.2 22.1 -128.65 L21.4 -127.1 19.75 -126.55 17.6 -127.55 18.2 -141.45 22.1 -144.65 M16.6 -140.9 Q14.2 -135.1 8.45 -132.7 7.6 -132.35 6.7 -132.15 L4.05 -135.55 14.3 -142.0 16.6 -140.9 M30.65 -133.95 L34.35 -136.3 Q36.15 -135.4 37.9 -134.55 37.0 -133.1 35.75 -132.3 33.45 -130.9 30.8 -131.65 L30.65 -133.95 M28.6 -128.9 Q27.85 -125.4 24.0 -124.95 L22.1 -125.25 Q19.45 -123.3 16.4 -124.5 22.6 -125.95 27.3 -130.95 L28.6 -128.9 M27.0 -116.85 Q19.45 -110.4 9.6 -112.3 L9.3 -114.7 14.95 -116.7 Q21.05 -120.7 26.45 -117.4 L27.0 -116.85 M50.95 -109.35 L47.25 -98.3 45.9 -97.95 44.95 -98.05 Q43.35 -98.35 42.45 -99.75 L46.5 -110.95 48.45 -111.85 50.95 -109.35 M42.4 -93.5 Q48.45 -93.1 52.8 -89.0 L54.0 -87.85 Q51.15 -85.05 47.1 -86.0 45.7 -86.2 44.4 -86.65 L44.0 -85.0 41.5 -85.85 39.35 -89.05 40.65 -92.7 42.4 -93.5 M51.6 -99.75 Q56.05 -106.35 63.75 -107.45 L65.5 -107.3 Q62.75 -100.05 54.65 -98.4 L52.0 -98.0 51.6 -99.75 M18.8 -105.25 Q14.05 -100.7 8.8 -105.1 L10.1 -109.0 11.9 -108.75 12.9 -107.2 13.85 -107.25 18.8 -105.25 M32.0 -79.4 Q35.4 -76.45 32.45 -73.3 L30.7 -72.1 Q27.85 -75.7 31.2 -78.65 L32.0 -79.4 M17.5 -76.95 Q18.6 -75.6 18.8 -73.95 L26.05 -77.25 26.9 -75.3 Q24.85 -69.9 18.95 -70.4 17.2 -61.7 10.55 -65.0 10.25 -65.15 10.1 -65.45 L10.6 -66.35 12.8 -67.4 12.95 -77.85 14.9 -78.7 Q16.45 -78.15 17.5 -76.95 M46.7 -75.3 L56.85 -84.6 Q57.6 -74.55 47.7 -74.8 L46.7 -75.3 M42.05 -68.7 Q47.45 -73.6 55.6 -69.4 L60.25 -65.0 42.6 -66.55 42.05 -68.7 M63.6 -99.75 Q62.65 -100.05 62.25 -101.0 64.4 -103.15 67.4 -102.15 68.45 -101.75 69.6 -101.5 67.15 -98.2 63.6 -99.75 M59.5 -76.9 Q62.6 -82.3 68.25 -85.1 L69.25 -84.7 70.35 -83.5 Q67.55 -75.85 59.5 -76.9 M79.2 -85.1 L81.35 -84.7 Q82.2 -84.3 82.2 -83.7 82.25 -83.1 81.4 -82.7 L79.25 -82.3 Q78.0 -82.3 77.15 -82.7 76.25 -83.1 76.2 -83.7 76.2 -84.3 77.1 -84.7 L79.2 -85.1 M82.05 -68.35 Q81.05 -68.35 80.35 -68.8 79.6 -69.25 79.55 -69.9 79.55 -70.55 80.3 -71.0 81.0 -71.45 82.0 -71.45 L83.75 -71.0 Q84.45 -70.55 84.45 -69.9 84.5 -69.25 83.8 -68.8 83.05 -68.35 82.05 -68.35 M77.15 -68.0 Q69.95 -65.4 63.9 -70.3 70.0 -73.5 75.8 -69.05 L77.15 -68.0 M-6.05 -141.3 L-5.05 -140.55 Q-2.7 -138.5 -1.4 -135.6 L-0.85 -134.55 -1.65 -133.3 -3.7 -132.7 -9.2 -139.65 -9.55 -142.25 -7.1 -142.15 -6.05 -141.3 M-20.1 -136.5 Q-27.8 -135.9 -33.15 -131.1 L-33.65 -130.55 -35.4 -132.9 -33.2 -137.7 Q-27.4 -139.6 -21.7 -137.25 L-20.1 -136.5 M-12.3 -130.75 L-11.2 -131.1 Q-3.65 -127.25 0.85 -120.05 L-1.25 -117.0 Q-9.6 -119.8 -14.3 -127.35 L-14.25 -128.15 Q-13.95 -130.0 -12.3 -130.75 M6.2 -126.3 L13.75 -131.45 Q13.8 -125.9 8.4 -124.35 L6.95 -124.15 6.2 -126.3 M-39.2 -157.65 L-29.0 -165.35 -28.3 -163.8 Q-29.2 -158.95 -34.3 -158.05 L-39.2 -157.65 M-43.95 -142.1 L-37.4 -135.25 -38.35 -134.85 -41.6 -135.0 Q-45.6 -137.35 -45.0 -141.9 L-47.45 -141.8 -51.75 -142.5 -56.05 -143.8 -56.05 -145.25 Q-53.5 -146.4 -50.55 -146.35 -45.15 -145.55 -40.25 -143.75 L-43.95 -142.1 M-44.0 -158.55 Q-45.0 -152.7 -51.45 -150.7 L-52.6 -150.35 Q-50.15 -157.75 -43.0 -160.15 L-44.0 -158.55 M-62.8 -147.2 L-63.4 -148.6 -59.65 -156.6 -56.3 -157.85 Q-55.75 -151.6 -60.3 -147.5 L-61.4 -146.6 -62.8 -147.2 M-56.05 -129.15 Q-49.05 -128.45 -43.8 -124.1 L-42.55 -123.1 Q-51.05 -122.0 -57.9 -127.7 L-56.05 -129.15 M-34.55 -81.35 L-36.8 -81.2 -37.75 -81.55 Q-41.1 -84.8 -42.0 -89.3 L-42.2 -90.65 -39.4 -92.4 -35.2 -86.0 -31.25 -84.75 Q-32.2 -82.15 -34.55 -81.35 M-32.9 -79.95 Q-22.55 -78.8 -24.35 -70.1 L-24.8 -69.05 -34.65 -78.8 -32.9 -79.95 M-17.45 -93.45 L-18.3 -92.55 -19.1 -88.6 Q-20.55 -88.1 -21.75 -89.3 -22.7 -90.3 -23.35 -91.7 -21.7 -99.95 -16.4 -100.45 -14.65 -96.5 -17.45 -93.45 M-7.2 -79.55 Q-9.05 -73.05 -15.6 -72.0 -17.25 -71.85 -18.85 -72.65 L-10.75 -78.85 -7.2 -79.55 M-20.0 -85.3 L-19.15 -84.35 -17.15 -84.6 -19.25 -83.45 -20.0 -85.3 M12.0 -46.8 L13.75 -45.8 Q15.15 -40.25 12.55 -35.15 L11.75 -33.75 8.7 -35.0 Q8.05 -40.1 10.5 -44.45 L12.0 -46.8 M-15.9 -44.6 L-13.6 -44.65 -10.0 -41.6 Q-13.6 -39.55 -17.7 -38.9 -20.2 -38.55 -22.55 -38.8 L-22.85 -41.6 -22.05 -42.3 Q-19.2 -44.35 -15.9 -44.6 M-25.5 -31.9 Q-25.5 -33.0 -24.5 -33.75 -23.6 -34.5 -22.25 -34.5 -20.9 -34.5 -19.85 -33.75 -18.9 -33.0 -18.9 -31.9 -18.85 -30.8 -19.8 -30.05 -20.75 -29.3 -22.1 -29.3 -23.45 -29.3 -24.45 -30.05 -25.45 -30.8 -25.5 -31.9 M-17.1 -22.35 L-17.7 -19.7 Q-24.7 -17.2 -29.85 -22.4 L-30.75 -23.5 -30.15 -24.5 Q-24.25 -26.6 -18.6 -23.35 L-17.1 -22.35 M5.0 -25.25 L3.7 -24.5 2.1 -26.65 7.2 -36.6 8.55 -33.15 Q9.25 -27.95 5.0 -25.25 M-36.9 -42.35 Q-38.2 -39.1 -36.9 -35.65 -36.65 -34.95 -36.7 -34.2 L-36.75 -33.6 -38.05 -38.6 -45.0 -42.2 -42.1 -35.75 -44.75 -33.75 Q-61.5 -41.6 -55.15 -52.65 L-49.55 -48.5 -48.65 -48.75 Q-43.4 -47.45 -39.2 -44.2 L-36.9 -42.35 M-32.65 -59.05 Q-31.45 -53.7 -34.1 -48.6 L-34.9 -46.95 -39.65 -45.7 Q-39.3 -49.8 -39.35 -53.8 -39.35 -55.95 -37.25 -56.8 L-34.65 -62.3 -32.65 -59.05 M-62.45 -50.7 L-60.75 -49.3 Q-61.65 -44.75 -65.9 -45.8 -67.3 -46.0 -67.7 -47.5 L-67.2 -49.15 -76.0 -44.65 -78.05 -45.05 Q-73.5 -43.2 -72.8 -38.65 L-78.8 -40.1 -81.2 -37.7 -83.05 -39.65 -81.1 -44.9 Q-77.05 -53.2 -66.45 -55.45 -63.05 -56.7 -61.5 -53.65 L-61.05 -52.35 -62.45 -50.7 M-62.65 -19.05 Q-62.9 -18.0 -62.75 -16.85 L-72.8 -4.1 -74.7 -5.95 -69.85 -15.0 Q-72.4 -12.4 -75.5 -14.15 L-76.3 -14.8 -77.2 -15.75 Q-71.85 -21.65 -64.05 -22.2 -62.15 -21.1 -62.65 -19.05 M-36.7 4.4 Q-35.0 1.0 -31.35 2.15 -28.5 3.1 -25.75 4.7 L-26.85 6.25 Q-31.8 7.6 -36.6 5.65 L-36.7 4.4 M-52.75 12.0 L-51.65 11.35 -37.25 17.95 -41.7 18.45 Q-48.6 19.3 -53.5 14.25 L-52.75 12.0 M-45.95 30.9 L-46.2 31.1 -46.85 31.4 -47.5 31.45 Q-49.6 31.45 -51.05 30.05 L-50.5 24.55 -49.8 27.75 Q-47.8 29.15 -45.95 30.9 M-25.7 24.55 L-23.35 26.5 Q-24.25 30.85 -28.0 33.75 -30.85 35.9 -34.3 35.35 L-34.8 32.55 -33.85 31.3 -25.7 24.55 M-19.75 3.65 L-17.7 4.85 -17.25 6.3 -18.65 12.05 -19.45 12.65 Q-20.95 12.55 -21.95 11.25 -23.4 9.4 -23.55 7.05 L-19.75 3.65 M-16.2 16.95 Q-15.25 17.25 -14.9 18.3 L-15.5 19.9 -23.4 23.3 -24.7 21.15 Q-22.1 14.55 -16.2 16.95 M-10.85 25.4 L-1.5 20.45 Q0.1 22.2 -0.9 24.15 -4.25 30.6 -11.0 28.1 L-10.85 25.4 M14.95 23.35 L28.3 14.0 28.7 15.35 28.9 16.65 Q28.2 24.5 20.4 26.6 L23.15 31.7 20.85 33.1 19.7 32.65 18.6 32.0 Q15.2 30.0 13.75 26.3 L15.1 24.85 14.95 23.35 M72.7 -56.3 L69.1 -53.55 68.55 -57.2 69.5 -58.0 72.7 -56.3 M62.0 -51.95 L66.75 -53.0 71.9 -50.7 60.95 -46.55 59.4 -49.45 62.0 -51.95 M70.1 -30.9 L73.2 -27.9 72.3 -27.2 Q70.7 -26.0 68.55 -25.5 L65.4 -25.6 64.5 -26.65 51.8 -21.3 49.65 -21.65 46.45 -20.05 49.3 -22.5 49.35 -24.85 Q54.65 -29.0 61.5 -29.75 L62.75 -28.5 62.4 -27.05 64.45 -27.55 65.35 -29.15 70.1 -30.9 M60.75 -41.25 L48.2 -42.45 49.65 -43.75 49.7 -44.5 Q46.55 -42.6 43.0 -43.95 L42.6 -44.35 42.25 -44.65 51.9 -48.55 52.1 -46.85 58.75 -45.0 60.75 -41.25 M34.95 -44.2 L33.25 -43.75 31.35 -41.95 28.15 -43.2 32.15 -43.4 Q35.25 -52.5 38.2 -48.7 38.2 -45.3 34.95 -44.2 M23.2 -42.5 L21.9 -41.95 Q22.75 -47.3 26.9 -50.7 28.1 -45.1 23.2 -42.5 M25.4 -20.2 L34.55 -13.55 34.3 -11.9 Q26.5 -11.5 25.4 -19.1 L25.4 -20.2 M30.05 -37.15 L43.65 -30.55 42.55 -28.25 40.4 -28.15 38.35 -28.3 Q32.1 -29.2 27.6 -34.0 L27.7 -35.65 30.05 -37.15 M29.1 -19.9 L37.35 -28.4 40.4 -27.55 Q39.8 -23.8 37.1 -21.2 34.35 -18.6 30.6 -18.25 L29.1 -19.9 M51.15 -15.25 L56.3 -8.45 54.9 -8.05 48.25 -12.95 51.15 -15.25 M-72.1 -164.35 L-70.35 -166.05 Q-67.5 -161.55 -69.95 -156.9 -70.55 -155.8 -70.7 -154.45 -76.75 -158.6 -72.1 -164.35 M-86.05 -154.8 Q-91.95 -151.8 -97.45 -155.9 -92.4 -158.1 -87.35 -155.55 L-86.05 -154.8 M-92.9 -144.7 L-92.55 -143.4 Q-99.2 -138.05 -107.8 -139.65 L-107.85 -141.8 Q-101.95 -145.45 -94.95 -145.55 L-92.9 -144.7 M-109.05 -143.45 Q-107.05 -138.0 -115.05 -135.55 L-119.65 -135.6 Q-123.15 -129.35 -130.35 -131.65 L-130.5 -133.95 -121.15 -139.85 -119.4 -139.3 -117.55 -141.3 Q-114.1 -144.9 -109.5 -143.55 L-109.05 -143.45 M-95.3 -129.15 L-93.35 -128.15 Q-91.2 -117.9 -94.3 -108.2 -94.5 -107.55 -95.05 -107.05 L-96.2 -107.2 Q-97.0 -108.4 -97.3 -109.9 L-97.6 -112.8 Q-97.7 -115.65 -96.5 -117.9 L-100.6 -113.7 -102.3 -114.7 -103.2 -125.4 -100.95 -127.35 -98.2 -125.5 -97.4 -128.1 -95.3 -129.15 M-99.3 -134.85 Q-102.95 -131.35 -107.65 -132.8 -108.25 -132.95 -108.85 -133.25 L-108.8 -135.55 Q-104.3 -139.15 -100.75 -135.75 L-99.3 -134.85 M-91.85 -122.2 L-92.7 -123.8 Q-90.0 -127.25 -84.95 -127.65 L-82.45 -129.85 Q-79.7 -118.9 -90.4 -118.1 L-91.5 -118.0 -92.05 -119.9 -89.8 -122.65 -91.85 -122.2 M-114.25 -157.15 Q-116.25 -151.8 -121.7 -150.65 L-123.25 -150.55 Q-122.25 -149.85 -121.95 -148.55 -121.5 -146.35 -123.0 -144.75 L-123.95 -143.9 -126.6 -144.6 -135.6 -139.7 -139.05 -141.1 -139.45 -143.75 Q-133.25 -149.8 -124.75 -150.9 L-125.4 -153.4 Q-122.9 -157.45 -118.6 -159.6 L-117.35 -160.15 -115.4 -159.5 -114.25 -157.15 M-146.0 -159.1 L-146.85 -159.45 -148.05 -162.15 Q-147.35 -165.8 -143.85 -167.3 L-141.65 -163.75 Q-141.95 -159.15 -146.0 -159.1 M-144.15 -154.9 L-143.6 -153.65 Q-146.55 -146.5 -153.8 -147.8 L-155.4 -148.4 -155.45 -150.55 Q-151.35 -154.95 -145.1 -155.45 L-144.15 -154.9 M-138.65 -123.6 L-138.0 -123.2 -136.25 -120.0 Q-130.65 -125.3 -123.6 -120.25 L-124.4 -118.2 -138.55 -116.45 -140.5 -117.4 Q-141.8 -120.6 -139.4 -122.95 L-138.65 -123.6 M-148.55 -127.2 Q-151.7 -120.95 -158.7 -122.05 L-160.55 -122.55 -161.35 -125.75 Q-156.5 -130.55 -149.7 -129.55 L-148.55 -127.2 M-123.6 -109.25 Q-124.95 -108.45 -126.9 -108.45 -128.85 -108.45 -130.2 -109.25 -131.6 -110.1 -131.6 -111.25 -131.65 -112.4 -130.3 -113.2 -128.95 -114.05 -127.0 -114.05 -125.05 -114.05 -123.7 -113.2 -122.35 -112.4 -122.3 -111.25 -122.3 -110.1 -123.6 -109.25 M-128.0 -93.0 Q-129.1 -97.3 -125.3 -99.4 L-124.5 -98.55 Q-122.35 -95.65 -125.0 -93.4 L-125.8 -92.75 -128.0 -93.0 M-142.45 -112.1 Q-141.25 -106.1 -147.6 -105.7 L-148.7 -105.95 -149.55 -108.3 -144.15 -113.1 -142.45 -112.1 M-142.95 -99.4 L-143.8 -97.25 -153.6 -94.65 -155.1 -98.5 -151.75 -102.05 -144.6 -102.05 -142.95 -99.4 M-142.15 -91.25 L-145.5 -89.75 Q-148.35 -85.65 -153.8 -85.15 L-158.9 -85.3 -159.1 -87.45 -147.95 -92.6 -142.15 -91.25 M-129.65 -92.45 L-128.5 -90.1 Q-130.3 -84.1 -135.8 -81.85 L-139.9 -81.55 -140.45 -83.5 -132.6 -92.9 -129.65 -92.45 M-140.3 -66.95 Q-149.65 -67.45 -151.9 -76.15 L-152.25 -77.7 Q-151.0 -78.45 -149.85 -79.25 -142.6 -74.75 -137.85 -67.8 L-140.3 -66.95 M-134.65 -76.75 L-133.95 -75.5 -127.95 -75.3 Q-127.3 -73.55 -128.65 -72.25 -133.3 -67.8 -138.1 -72.3 L-134.65 -76.75 M-109.05 -80.15 L-115.8 -79.6 -108.15 -78.5 -114.85 -76.55 -119.85 -78.35 -119.45 -80.7 -118.95 -80.95 -118.45 -81.0 -116.1 -81.3 Q-112.4 -81.4 -109.05 -80.15 M-122.95 -85.95 Q-122.95 -85.1 -123.5 -84.5 -124.1 -83.95 -124.95 -83.95 -125.8 -83.95 -126.35 -84.5 -126.95 -85.1 -126.95 -85.95 -127.0 -86.8 -126.4 -87.35 -125.85 -87.95 -125.0 -87.95 -124.15 -87.95 -123.55 -87.35 -123.0 -86.8 -122.95 -85.95 M-120.8 -71.35 L-119.85 -71.5 -117.5 -68.0 Q-120.65 -64.3 -124.95 -66.5 L-126.25 -67.1 Q-124.4 -70.45 -120.8 -71.35 M-99.85 -100.8 L-97.6 -102.95 -95.4 -100.4 Q-93.95 -98.55 -94.8 -96.3 -97.4 -94.7 -100.65 -95.1 L-104.95 -96.0 -98.4 -96.4 -99.6 -97.6 -99.85 -100.8 M-90.65 -87.05 Q-94.9 -80.7 -99.4 -85.25 L-99.9 -86.2 Q-98.05 -89.65 -94.05 -89.6 L-93.0 -89.55 -90.65 -87.05 M-96.55 -69.95 L-93.65 -78.0 -90.1 -77.6 -89.55 -76.55 Q-89.85 -69.7 -96.55 -69.95 M-160.95 -158.75 Q-163.25 -152.7 -168.6 -149.0 L-170.2 -148.05 -174.5 -149.1 Q-171.75 -156.0 -165.2 -159.85 L-163.7 -160.7 -162.3 -160.3 -160.95 -158.75 M-179.85 -143.45 Q-181.35 -137.45 -187.45 -136.7 L-189.15 -136.7 -190.0 -138.6 Q-187.45 -143.65 -181.95 -145.0 L-179.85 -143.45 M-177.4 -162.7 L-177.55 -161.25 Q-183.15 -153.45 -192.35 -150.55 -190.65 -156.7 -185.25 -160.35 -182.3 -162.4 -178.8 -164.0 L-177.4 -162.7 M-183.55 -126.7 L-185.3 -128.8 -180.2 -132.9 -178.5 -129.65 -183.55 -126.7 M-164.5 -132.7 Q-161.15 -135.95 -157.45 -134.2 L-157.0 -133.8 Q-158.85 -126.85 -166.9 -127.35 -167.5 -129.3 -166.45 -130.95 -165.7 -132.1 -164.5 -132.7 M-205.75 -152.4 L-207.3 -152.4 -208.1 -154.3 Q-206.45 -158.5 -202.55 -160.7 L-201.5 -161.25 -198.45 -160.15 Q-199.6 -153.7 -205.75 -152.4 M-224.6 -145.15 L-229.25 -145.05 -230.1 -147.35 -228.8 -148.95 Q-224.75 -153.7 -218.75 -155.7 L-217.05 -156.25 Q-215.5 -147.75 -224.6 -145.15 M-224.2 -120.2 Q-225.5 -113.7 -232.15 -112.9 L-234.25 -113.05 -234.05 -115.4 -226.35 -121.65 -224.2 -120.2 M-194.8 -113.8 L-192.45 -111.85 Q-194.0 -107.35 -198.95 -108.05 L-201.7 -108.25 -201.7 -110.6 -194.8 -113.8 M-212.85 -106.5 Q-211.95 -110.6 -207.2 -111.3 -208.4 -107.1 -212.6 -106.35 -212.7 -106.3 -212.85 -106.5 M-226.65 -109.15 Q-224.8 -112.0 -221.4 -112.55 L-220.5 -112.65 -219.1 -111.35 Q-219.9 -106.2 -225.25 -106.25 L-226.3 -106.45 -226.65 -109.15 M-220.85 -99.9 L-219.2 -97.25 Q-221.55 -93.65 -224.75 -90.85 -226.05 -89.75 -227.75 -89.4 L-230.5 -91.7 Q-229.45 -95.5 -226.3 -98.05 -224.4 -99.45 -222.35 -100.25 L-220.85 -99.9 M-212.45 -75.3 Q-211.05 -79.5 -206.9 -81.55 L-205.55 -82.25 -203.95 -81.45 -203.4 -80.2 -203.7 -79.2 -210.35 -73.35 -211.7 -73.95 -212.45 -75.3 M-220.45 -71.0 Q-224.2 -63.25 -231.3 -58.7 -232.35 -58.05 -233.4 -57.55 L-234.8 -59.45 Q-231.75 -68.6 -223.15 -73.0 L-220.45 -71.0 M-196.6 -90.3 Q-194.25 -97.25 -187.6 -100.3 L-185.95 -101.0 -184.05 -100.3 -182.9 -97.95 Q-183.8 -96.4 -184.85 -95.05 L-178.1 -102.25 -176.75 -102.6 -174.65 -101.8 -174.5 -105.1 -161.9 -111.7 -160.0 -111.0 -158.85 -108.65 Q-163.8 -101.6 -172.2 -101.25 L-174.3 -101.35 -173.45 -99.55 Q-175.4 -93.4 -181.3 -90.85 -184.95 -89.35 -186.65 -93.1 -190.15 -89.8 -194.95 -88.3 L-192.95 -86.85 Q-192.35 -86.3 -192.55 -85.3 -194.8 -79.1 -201.3 -78.45 L-202.75 -78.5 Q-201.15 -85.2 -194.95 -88.3 L-195.45 -88.15 -196.6 -90.3 M-162.15 -113.0 Q-157.9 -119.6 -149.8 -118.45 -150.0 -112.1 -156.65 -111.25 -159.4 -110.7 -162.0 -112.15 L-162.15 -113.0 M-160.9 -95.65 Q-159.65 -94.0 -160.35 -91.9 -161.9 -87.4 -166.4 -86.2 L-167.7 -86.7 Q-170.7 -81.2 -175.9 -79.95 -177.35 -79.5 -178.4 -80.85 -175.85 -88.6 -168.65 -92.4 L-166.55 -90.95 -160.9 -95.65 M-173.5 -41.8 Q-174.45 -34.2 -181.15 -32.2 L-183.0 -31.9 Q-186.4 -38.3 -178.35 -42.55 L-176.2 -43.75 -174.75 -43.35 -173.5 -41.8 M-181.05 -21.3 L-183.95 -23.25 Q-183.1 -26.9 -180.05 -29.1 L-178.05 -30.4 -175.9 -28.95 Q-176.4 -25.1 -179.15 -22.85 L-181.05 -21.3 M-191.25 -48.2 Q-189.25 -53.25 -184.3 -55.7 -181.4 -48.1 -190.35 -48.05 L-191.25 -48.2 M-199.15 -60.15 Q-203.1 -52.75 -210.65 -53.6 -211.95 -53.7 -212.6 -55.15 L-201.0 -62.5 -199.15 -60.15 M-208.05 -42.85 L-204.1 -46.7 -203.25 -45.7 -203.15 -44.35 Q-203.15 -41.35 -206.05 -40.35 L-207.85 -41.4 -208.05 -42.85 M-221.8 -59.8 L-216.6 -65.5 -213.05 -66.2 Q-211.95 -64.25 -212.5 -62.3 -214.05 -56.8 -219.75 -56.25 L-221.8 -59.8 M-228.1 -36.45 L-230.85 -38.95 Q-227.6 -46.45 -219.8 -49.3 -218.35 -41.15 -226.5 -37.2 L-228.1 -36.45 M-190.65 -24.7 Q-193.5 -18.75 -200.15 -17.5 -201.7 -17.35 -203.25 -17.5 -201.6 -25.05 -194.0 -27.2 L-192.35 -27.5 -190.65 -24.7 M-202.6 -37.85 Q-200.4 -43.85 -194.8 -46.95 -193.05 -37.85 -201.85 -37.35 L-202.6 -37.85 M-71.0 -61.2 Q-76.3 -52.45 -85.6 -47.85 L-88.3 -46.6 -89.75 -47.75 -90.0 -49.1 Q-85.75 -56.8 -78.2 -61.3 -76.15 -62.6 -73.9 -63.7 L-71.0 -61.2 M-98.2 -66.0 Q-90.55 -58.05 -94.05 -47.65 L-99.45 -48.4 -96.25 -50.0 -98.15 -64.45 -98.2 -66.0 M-95.9 -30.5 L-95.3 -31.8 -105.95 -35.2 -105.1 -37.85 Q-96.65 -39.65 -88.3 -36.7 -85.9 -35.85 -85.75 -33.4 L-90.75 -32.0 -86.85 -27.9 Q-82.05 -26.95 -79.2 -23.3 -76.8 -20.25 -77.55 -16.6 L-80.6 -16.1 -95.45 -29.0 -95.9 -30.5 M-75.6 -26.3 L-69.35 -32.9 Q-67.8 -25.85 -74.0 -24.85 L-74.5 -25.05 -75.6 -26.3 M-115.25 -60.15 Q-122.85 -58.1 -130.7 -58.1 L-131.75 -58.4 -132.15 -61.2 Q-125.8 -62.55 -119.3 -61.2 L-115.25 -60.15 M-134.25 -56.35 L-128.3 -56.4 -133.8 -54.6 -134.35 -53.55 -136.95 -51.95 -133.35 -49.3 -136.9 -50.35 -140.5 -49.65 -140.95 -50.15 -141.5 -50.75 -141.85 -51.4 -142.3 -52.85 -142.4 -53.55 -142.25 -54.25 -142.0 -55.0 -135.8 -57.3 -134.25 -56.35 M-110.9 -40.85 L-110.6 -53.9 -107.7 -58.55 Q-105.1 -50.15 -108.25 -42.3 L-109.1 -40.35 -110.9 -40.85 M-83.0 -5.25 L-84.25 -3.65 Q-89.95 -3.2 -93.95 -7.55 L-92.9 -10.25 -90.65 -10.95 -79.9 -6.4 -83.0 -5.25 M8.95 45.05 Q2.25 45.35 -1.75 40.1 L-4.25 36.45 -1.95 34.5 Q4.65 36.1 9.1 41.15 L10.35 42.55 8.95 45.05 M-20.9 45.0 L-23.05 45.8 Q-26.75 39.95 -21.9 35.05 L-21.15 36.15 Q-18.9 39.85 -20.4 43.9 L-20.9 45.0 M-6.7 46.55 L-7.1 47.85 Q-12.45 44.0 -9.75 37.7 -5.5 41.25 -6.7 46.55 M-47.7 52.3 Q-48.65 52.95 -49.8 52.65 -54.05 51.7 -54.05 47.15 L-47.7 52.3" fill="#000000" fill-rule="evenodd" stroke="none"/>
  </g>
</svg>
