<?xml version="1.0" encoding="UTF-8" standalone="no"?>
<svg xmlns:xlink="http://www.w3.org/1999/xlink" height="261.4px" width="533.55px" xmlns="http://www.w3.org/2000/svg">
  <g transform="matrix(1.0, 0.0, 0.0, 1.0, 266.75, 108.85)">
    <path d="M-125.35 28.4 L-126.6 29.35 -148.5 21.05 -148.8 21.2 Q-152.9 25.7 -159.15 27.75 -162.0 28.75 -164.35 30.1 L-168.7 28.75 -172.6 28.6 Q-178.8 28.8 -183.65 25.3 -185.65 23.75 -187.9 22.5 -201.4 15.3 -214.05 7.15 -217.15 14.45 -221.8 21.05 L-223.1 22.45 -236.95 21.0 -249.4 39.7 266.8 39.7 266.8 33.25 239.55 20.95 Q238.0 22.05 236.7 23.35 L235.4 24.1 233.85 24.55 232.7 24.45 230.05 26.65 228.2 26.35 Q224.85 24.6 221.3 23.3 205.9 17.6 192.2 8.9 191.9 10.65 190.9 12.25 L189.3 13.65 Q183.2 16.9 177.3 20.85 173.95 23.05 170.95 25.65 169.05 27.2 166.85 26.05 164.35 24.8 161.95 24.0 L154.85 24.55 150.15 24.75 Q146.6 25.7 143.7 27.55 141.8 28.7 139.95 28.4 L133.3 27.1 Q130.9 26.45 128.5 27.45 123.75 29.4 118.55 30.0 115.35 30.15 112.35 28.8 90.55 19.55 67.45 12.9 66.6 12.6 65.7 13.2 61.25 16.45 58.0 21.0 53.85 26.95 48.25 30.65 L37.2 25.75 Q35.85 28.7 32.75 29.2 31.6 29.4 30.85 30.0 30.35 30.55 29.7 30.55 L23.8 27.95 22.5 28.85 Q19.65 30.5 16.15 30.4 L12.75 31.2 Q7.35 32.05 3.2 28.6 -3.5 23.1 -11.45 19.5 -18.65 16.2 -22.75 10.65 -24.15 14.6 -27.5 17.45 -31.25 20.75 -36.15 22.25 L-69.0 1.9 -68.8 3.5 -69.5 3.95 -73.35 5.5 Q-75.75 6.55 -77.75 8.2 -83.9 13.3 -89.9 18.55 -90.95 19.45 -92.1 20.2 -98.9 24.3 -107.3 25.65 -111.95 26.6 -116.25 28.2 -120.95 29.95 -125.35 28.4" fill="url(#gradient0)" fill-rule="evenodd" stroke="none"/>
    <path d="M-266.3 38.6 L3.75 38.6 Q4.25 32.7 4.25 26.65 4.25 -29.5 -35.4 -69.2 -75.1 -108.85 -131.25 -108.85 -187.4 -108.85 -227.05 -69.2 -266.75 -29.5 -266.75 26.65 -266.75 32.7 -266.3 38.6" fill="url(#gradient1)" fill-rule="evenodd" stroke="none"/>
    <path d="M-132.7 39.8 L-122.4 40.9 Q-125.35 44.7 -130.4 45.6 -133.9 46.1 -137.3 47.2 L-125.25 49.5 -133.85 52.35 -125.85 55.8 -127.4 56.95 Q-130.75 59.45 -135.0 59.8 L-128.0 63.5 -132.15 67.25 -128.2 70.4 -128.1 71.55 -133.45 74.7" fill="none" stroke="#ffffff" stroke-linecap="round" stroke-linejoin="round" stroke-opacity="0.4627451" stroke-width="0.05"/>
    <path d="M-133.45 74.7 L-134.4 75.25 -128.7 79.3 -129.95 80.2 Q-132.2 81.7 -134.8 82.45 L-136.15 82.7 -128.1 85.0 -136.6 89.7 -129.85 93.6 -131.4 95.2 Q-133.25 97.2 -135.7 98.2" fill="none" stroke="#ffffff" stroke-linecap="round" stroke-linejoin="round" stroke-opacity="0.34117648" stroke-width="0.05"/>
    <path d="M-135.7 98.2 L-137.3 98.75 -136.75 99.65 Q-135.2 101.75 -132.7 102.3 L-132.1 102.65 -131.75 103.05 -131.45 103.5 -134.4 106.75 -127.0 110.75 -127.8 111.6 Q-130.55 114.35 -134.4 115.35 L-127.55 118.8 -128.2 119.35" fill="none" stroke="#ffffff" stroke-linecap="round" stroke-linejoin="round" stroke-opacity="0.23137255" stroke-width="0.05"/>
    <path d="M-128.2 119.35 L-133.85 123.95 -131.05 128.2 -132.0 129.5 Q-134.1 132.25 -137.3 133.65 L-130.4 135.95 -130.8 137.0 Q-131.85 139.2 -133.8 140.5 L-135.55 141.7 -130.4 144.55 -133.85 147.95 Q-132.1 148.85 -130.4 149.7 L-132.7 152.55" fill="none" stroke="#ffffff" stroke-linecap="round" stroke-linejoin="round" stroke-opacity="0.13333334" stroke-width="0.05"/>
  </g>
  <defs>
    <linearGradient gradientTransform="matrix(0.0, 0.0244, 0.0254, 0.0, 9.05, 20.8)" gradientUnits="userSpaceOnUse" id="gradient0" spreadMethod="pad" x1="-819.2" x2="819.2">
      <stop offset="0.5843137254901961" stop-color="#000000" stop-opacity="0.18039216"/>
      <stop offset="1.0" stop-color="#3f15ea" stop-opacity="0.12156863"/>
    </linearGradient>
    <radialGradient cx="0" cy="0" gradientTransform="matrix(-0.1671, 0.0, 0.0, 0.1671, -131.25, 26.65)" gradientUnits="userSpaceOnUse" id="gradient1" r="819.2" spreadMethod="pad">
      <stop offset="0.054901960784313725" stop-color="#f8f8ff"/>
      <stop offset="0.09803921568627451" stop-color="#5c48ec" stop-opacity="0.2"/>
      <stop offset="0.7843137254901961" stop-color="#5781dd" stop-opacity="0.18039216"/>
      <stop offset="1.0" stop-color="#0f839f" stop-opacity="0.0"/>
    </radialGradient>
  </defs>
</svg>
