<?xml version="1.0" encoding="UTF-8" standalone="no"?>
<svg xmlns:xlink="http://www.w3.org/1999/xlink" height="326.3px" width="283.7px" xmlns="http://www.w3.org/2000/svg">
  <g transform="matrix(1.0, 0.0, 0.0, 1.0, 141.85, 163.15)">
    <path d="M85.5 -108.8 Q85.8 -99.85 84.3 -91.0 L81.0 -90.1 Q79.9 -88.9 79.8 -87.25 79.5 -80.6 80.3 -74.05 80.7 -70.65 78.7 -68.1 L83.9 -66.5 85.2 -68.3 84.95 -72.15 90.6 -71.2 Q91.65 -66.45 90.4 -62.05 L90.05 -60.95 Q87.5 -59.3 87.3 -56.2 L87.25 -54.95 Q84.15 -52.6 80.45 -51.35 79.4 -50.95 78.65 -50.1 76.7 -47.95 73.7 -47.45 72.35 -47.1 71.85 -45.55 71.3 -44.0 71.0 -42.25 70.8 -40.95 69.55 -40.35 L68.15 -39.95 59.2 -39.5 Q59.55 -32.9 61.7 -26.55 L62.65 -23.45 Q63.15 -21.45 65.0 -20.2 L67.5 -18.1 74.0 -11.95 76.8 -9.25 Q77.45 -8.65 77.6 -7.8 L78.5 -1.1 Q78.85 1.9 80.7 4.35 81.8 5.85 83.2 7.05 82.5 15.4 87.6 21.95 L95.3 31.5 Q98.3 28.1 102.8 28.65 L104.75 29.25 Q106.8 30.4 109.0 29.7 111.25 29.05 112.3 27.0 L117.05 25.75 Q117.0 28.05 117.85 30.45 118.45 32.25 118.6 34.15 L119.0 37.6 Q119.25 39.05 120.45 39.7 125.9 42.95 131.9 44.85 134.6 45.75 135.05 48.65 L136.5 56.75 137.0 60.75 Q137.45 68.6 139.8 76.35 140.85 79.85 141.35 83.5 142.35 91.15 141.3 98.65 138.5 118.15 136.75 137.75 136.4 141.4 136.7 145.15 L137.25 151.6 Q137.45 154.55 135.2 156.0 131.85 158.2 127.95 158.85 112.9 161.7 97.4 161.8 54.8 162.1 12.15 160.95 -17.55 159.2 -47.0 162.55 -61.8 164.15 -76.45 161.5 -84.05 160.05 -91.9 160.25 -109.4 161.0 -124.95 152.25 -128.75 150.1 -133.15 150.2 -137.25 150.25 -141.85 148.45 -139.85 147.6 -137.85 145.9 -136.2 144.6 -134.25 143.75 -124.5 140.0 -115.55 134.6 -111.85 132.4 -108.8 129.45 -107.85 128.6 -107.2 127.55 -104.1 122.05 -98.9 119.0 -96.95 117.85 -95.4 116.1 -92.9 113.45 -89.5 111.8 L-87.65 110.75 Q-79.4 104.55 -73.3 96.3 L-69.95 91.3 Q-65.05 83.15 -57.2 78.4 -52.75 75.75 -48.2 73.3 -38.35 67.9 -34.35 57.8 -32.95 54.4 -31.1 51.2 L-29.1 48.0 Q-25.95 50.0 -23.0 47.75 -19.65 45.25 -15.8 44.25 -14.35 44.0 -13.1 42.95 -10.45 35.0 -8.15 27.05 L-7.4 26.05 -6.25 25.35 Q0.6 24.7 6.0 20.7 L12.85 15.55 Q17.6 11.8 21.65 7.15 24.45 3.95 25.0 -0.2 25.25 -1.8 24.75 -3.4 L27.05 -7.4 Q25.7 -10.4 26.25 -13.55 L28.7 -25.25 Q30.0 -30.8 29.25 -36.55 28.95 -38.95 27.85 -41.5 21.5 -42.9 16.7 -47.05 15.9 -47.75 15.65 -48.85 14.85 -52.3 15.5 -55.95 12.6 -58.3 10.3 -61.45 L8.5 -63.6 Q5.55 -66.95 4.4 -71.25 3.95 -72.95 3.9 -74.7 L2.5 -122.85 -3.15 -118.55 -4.9 -119.05 Q-0.25 -124.85 1.85 -131.9 2.5 -134.2 3.7 -136.4 5.0 -138.85 5.95 -141.95 L14.1 -120.15 10.0 -119.65 Q11.7 -117.4 11.5 -114.45 11.05 -108.2 12.6 -102.0 L19.1 -103.65 Q19.9 -104.7 19.85 -106.05 19.35 -116.6 19.4 -127.1 19.45 -132.35 20.2 -137.45 20.8 -141.2 20.0 -144.6 L17.9 -146.7 27.15 -163.15 Q31.9 -155.6 30.55 -146.85 L30.05 -144.95 Q29.8 -144.2 29.85 -143.4 30.85 -132.85 29.45 -122.5 L36.35 -122.9 Q35.7 -131.2 36.95 -139.65 37.2 -141.1 38.6 -141.95 43.05 -144.55 45.4 -148.85 L46.6 -151.7 53.1 -143.0 Q49.6 -137.45 50.3 -130.9 L50.45 -127.05 Q50.35 -122.7 51.6 -118.65 L56.05 -116.1 57.45 -116.2 Q57.95 -121.75 59.25 -127.15 59.5 -128.3 60.9 -128.45 63.7 -128.55 66.3 -127.75 67.05 -120.45 66.35 -113.05 65.65 -106.1 69.0 -100.3 69.5 -99.45 70.8 -99.2 L76.65 -99.35 Q77.75 -101.4 77.95 -103.8 79.65 -122.05 78.85 -140.5 76.0 -142.2 72.95 -141.4 L78.7 -150.6 Q79.35 -151.65 80.45 -152.4 L87.25 -141.95 84.75 -140.15 Q83.65 -134.7 83.8 -129.1 83.95 -123.45 84.75 -117.85 L85.5 -108.8 M7.0 -130.6 L6.3 -129.85 Q4.6 -127.0 5.8 -123.8 L8.6 -125.05 7.0 -130.6 M26.9 -143.0 Q26.75 -146.2 26.15 -149.3 25.75 -151.4 24.85 -153.4 L24.05 -150.9 Q23.45 -148.35 23.2 -145.7 23.1 -144.45 23.15 -143.1 L26.9 -143.0 M80.4 -146.55 L79.85 -142.3 82.05 -141.05 Q82.8 -145.4 80.4 -146.55 M28.55 -112.05 L28.55 -112.1 28.45 -112.05 Q24.85 -107.4 25.45 -101.35 L27.05 -99.6 28.15 -99.8 28.3 -100.1 Q30.3 -106.15 28.55 -112.05 M14.55 -89.3 L13.15 -86.25 Q11.15 -81.65 11.75 -76.5 L14.8 -77.0 14.55 -89.3 M61.5 -75.0 L60.65 -73.7 Q57.7 -69.05 58.6 -63.6 L58.65 -63.45 62.65 -62.6 61.5 -75.0 M51.75 -83.0 L50.55 -80.45 Q48.8 -76.55 49.2 -72.2 L51.9 -72.8 Q53.4 -75.75 52.95 -79.05 52.65 -81.2 51.75 -83.0 M50.9 -97.35 Q51.4 -94.85 50.4 -92.75 L54.45 -92.7 53.4 -105.0 52.9 -105.35 51.05 -99.95 Q50.65 -98.65 50.9 -97.35 M44.8 -138.75 L44.1 -138.2 Q41.3 -134.05 41.05 -128.75 L44.85 -128.3 45.55 -131.6 Q46.15 -135.35 44.8 -138.75" fill="#000000" fill-rule="evenodd" stroke="none"/>
    <path d="M80.4 -146.55 Q82.8 -145.4 82.05 -141.05 L79.85 -142.3 80.4 -146.55 M26.9 -143.0 L23.15 -143.1 Q23.1 -144.45 23.2 -145.7 23.45 -148.35 24.05 -150.9 L24.85 -153.4 Q25.75 -151.4 26.15 -149.3 26.75 -146.2 26.9 -143.0 M7.0 -130.6 L8.6 -125.05 5.8 -123.8 Q4.6 -127.0 6.3 -129.85 L7.0 -130.6 M28.45 -112.05 L28.55 -112.05 Q30.3 -106.15 28.3 -100.1 L28.15 -99.8 27.05 -99.6 25.45 -101.35 Q24.85 -107.4 28.45 -112.05 M44.8 -138.75 Q46.15 -135.35 45.55 -131.6 L44.85 -128.3 41.05 -128.75 Q41.3 -134.05 44.1 -138.2 L44.8 -138.75 M50.9 -97.35 Q50.65 -98.65 51.05 -99.95 L52.9 -105.35 53.4 -105.0 54.45 -92.7 50.4 -92.75 Q51.4 -94.85 50.9 -97.35 M51.75 -83.0 Q52.65 -81.2 52.95 -79.05 53.4 -75.75 51.9 -72.8 L49.2 -72.2 Q48.8 -76.55 50.55 -80.45 L51.75 -83.0 M61.5 -75.0 L62.65 -62.6 58.65 -63.45 58.6 -63.6 Q57.7 -69.05 60.65 -73.7 L61.5 -75.0 M14.55 -89.3 L14.8 -77.0 11.75 -76.5 Q11.15 -81.65 13.15 -86.25 L14.55 -89.3" fill="#0af5f5" fill-rule="evenodd" stroke="none"/>
  </g>
</svg>
