<?xml version="1.0" encoding="UTF-8" standalone="no"?>
<svg xmlns:xlink="http://www.w3.org/1999/xlink" height="114.6px" width="310.25px" xmlns="http://www.w3.org/2000/svg">
  <g transform="matrix(1.0, 0.0, 0.0, 1.0, 150.2, 14.95)">
    <path d="M89.25 -1.25 L100.45 -6.55 Q106.2 -9.2 112.5 -10.7 L122.2 -12.55 131.65 -14.4 135.35 -14.6 Q136.95 -14.35 138.5 -14.6 146.65 -16.05 153.3 -11.15 154.4 -10.3 154.45 -8.9 L154.3 -4.8 Q153.9 -1.2 154.3 2.45 L154.2 3.8 153.8 5.2 Q152.55 8.45 151.8 11.85 151.35 13.85 151.75 15.95 152.2 18.55 151.55 21.3 150.1 27.25 147.95 33.2 146.85 36.15 144.7 38.4 L138.9 44.15 Q137.75 45.3 137.05 46.8 136.1 49.05 136.15 51.3 L136.25 54.35 Q136.3 55.85 136.75 57.25 137.2 58.55 138.15 59.45 141.8 62.8 143.15 67.45 L146.2 79.05 Q147.05 82.9 150.4 84.95 L152.15 86.25 Q156.6 90.3 158.2 96.2 158.8 98.25 160.05 99.65 L148.15 99.65 145.8 99.05 Q141.25 97.85 136.7 98.2 134.25 98.7 131.85 99.65 L-150.2 99.65 -150.2 47.5 -146.2 46.9 -145.95 44.9 Q-145.05 33.95 -147.8 23.2 L-142.8 37.25 -140.95 29.45 Q-139.65 23.8 -135.95 19.5 -141.15 30.45 -138.25 42.4 L-137.65 40.95 Q-135.4 35.5 -130.5 32.0 L-131.85 35.1 Q-133.95 40.5 -132.8 46.25 -129.45 45.35 -126.05 45.15 -117.15 44.4 -108.4 42.6 L-109.6 33.1 -106.15 38.95 Q-102.6 32.2 -95.85 28.65 L-96.75 30.1 Q-99.9 35.2 -99.35 41.05 L-98.85 41.9 -98.7 41.0 -97.8 39.2 Q-96.05 35.95 -92.45 34.95 L-92.9 40.0 -90.8 39.55 Q-84.45 37.95 -78.05 37.95 L-67.3 38.5 -57.15 37.85 -53.2 38.25 Q-46.5 39.15 -40.15 36.9 L-28.9 33.15 Q-22.7 31.25 -16.3 31.25 -9.9 31.75 -3.45 30.4 L3.5 28.7 Q9.85 26.85 16.05 24.0 26.05 19.25 37.0 17.55 L51.0 15.1 Q57.15 14.1 62.7 11.35 L89.25 -1.25" fill="#000000" fill-rule="evenodd" stroke="none"/>
  </g>
</svg>
