<?xml version="1.0" encoding="UTF-8" standalone="no"?>
<svg xmlns:xlink="http://www.w3.org/1999/xlink" height="186.85px" width="245.75px" xmlns="http://www.w3.org/2000/svg">
  <g transform="matrix(1.0, 0.0, 0.0, 1.0, 97.55, 109.9)">
    <path d="M0.9 -32.05 Q1.0 -30.7 0.75 -29.45 -1.85 -16.25 1.3 -3.9 2.0 -4.0 2.7 -4.8 L2.8 -4.9 2.6 -4.95 1.2 -10.05 Q3.15 -11.85 6.7 -12.3 9.05 -35.2 10.8 -58.1 12.6 -81.35 15.3 -104.2 15.7 -107.55 18.1 -109.9 L24.35 -92.75 14.05 -10.4 18.8 -9.45 Q19.6 -7.25 18.1 -5.3 16.6 -3.35 14.15 -3.9 15.35 -0.7 14.9 2.9 L14.55 5.1 Q11.7 6.6 8.95 5.15 6.6 3.85 4.55 5.45 7.55 11.9 12.4 17.1 14.35 19.15 15.0 21.5 21.0 43.55 10.7 66.65 L-0.15 65.7 Q-13.5 64.6 -25.4 71.0 -38.45 78.1 -53.0 76.75 -81.4 75.15 -97.55 51.5 -70.8 46.35 -49.2 27.5 -41.6 20.85 -39.95 10.85 -37.55 -3.5 -35.7 -17.75 L-35.75 -18.05 -40.6 -18.6 Q-34.0 -20.9 -30.5 -27.4 -40.8 -22.0 -48.05 -21.15 -42.15 -24.6 -39.75 -30.9 -48.3 -26.05 -57.7 -23.8 -47.7 -29.8 -38.6 -37.75 -45.15 -38.25 -49.75 -32.65 -50.15 -37.0 -46.95 -39.05 -43.8 -41.1 -33.95 -43.25 -24.1 -45.4 -16.45 -58.3 L-15.5 -58.8 Q-11.9 -60.2 -8.85 -57.6 L-8.8 -57.6 -3.0 -58.05 -2.25 -58.05 Q0.3 -52.5 -0.05 -46.35 L0.8 -45.1 -3.1 -36.7 1.2 -32.35 0.9 -32.05 M44.75 -43.5 L44.75 -43.55 45.1 -46.4 Q45.7 -52.85 48.9 -58.7 L54.35 -61.6 Q58.9 -63.85 64.0 -64.8 L63.75 -72.65 Q62.25 -79.5 63.3 -86.45 L69.1 -85.05 Q75.45 -83.65 80.85 -86.75 L77.3 -83.35 83.05 -82.15 77.0 -79.6 79.65 -77.3 76.25 -77.0 Q75.4 -73.75 75.1 -70.5 74.9 -68.3 72.85 -67.05 L73.1 -64.95 Q77.15 -63.0 81.5 -62.6 86.55 -62.3 88.3 -59.75 L89.15 -57.25 Q89.45 -54.15 87.05 -49.2 L87.05 -47.65 Q86.8 -43.45 84.95 -39.65 83.05 -36.6 83.35 -33.2 85.25 -9.2 89.95 14.45 83.15 16.6 76.05 14.25 70.8 1.5 71.05 -13.3 65.6 0.6 63.1 15.1 L47.9 16.65 Q57.25 -11.4 55.4 -38.35 54.8 -36.55 53.75 -35.05 51.15 -31.25 50.75 -24.5 L51.0 -23.6 Q52.65 -16.15 47.95 -10.0 44.7 -5.65 39.85 -3.7 35.55 -8.1 31.3 -26.45 27.1 -44.6 44.75 -43.5 43.95 -39.1 42.15 -34.95 43.95 -39.1 44.75 -43.5 M14.15 -3.9 L2.8 -4.9 14.15 -3.9 M7.2 -12.05 L6.7 -12.3 6.5 -10.7 14.05 -10.4 6.5 -10.7 6.7 -12.3 7.2 -12.05 M84.5 -46.95 L84.95 -39.65 84.5 -46.95 M84.95 -39.65 Q86.8 -43.45 87.05 -47.65 L87.05 -49.2 Q89.45 -54.15 89.15 -57.25 95.05 -40.25 100.55 -23.05 100.95 -21.8 101.65 -20.65 L103.7 -14.45 101.65 -20.65 101.65 -24.05 Q125.25 -29.55 145.7 -47.15 L148.05 -49.25 Q149.15 -40.7 140.7 -35.7 125.05 -26.45 108.55 -18.9 L110.5 -14.85 106.75 -15.4 103.7 -14.45 103.85 -13.7 95.35 -12.6 95.25 -13.65 91.35 -12.1 90.6 -14.55 94.5 -16.9 Q88.55 -26.25 85.55 -36.85 L84.95 -39.65 M95.25 -13.65 L94.5 -16.9 95.25 -13.65 M-0.25 -4.0 L1.3 -3.9 Q2.5 0.8 4.55 5.45 1.85 5.45 -0.05 4.2 -1.95 2.95 -1.95 1.15 -1.95 2.95 -0.05 4.2 1.85 5.45 4.55 5.45 2.5 0.8 1.3 -3.9 L-0.25 -4.0 M-35.75 -18.05 Q-25.75 -20.15 -17.95 -26.9 L-19.7 -20.6 Q-9.25 -26.35 -3.1 -36.7 -9.25 -26.35 -19.7 -20.6 L-17.95 -26.9 Q-25.75 -20.15 -35.75 -18.05 M-10.55 -57.85 L-8.85 -57.6 -10.55 -57.85" fill="#000000" fill-rule="evenodd" stroke="none"/>
    <path d="M0.9 -32.05 Q1.0 -30.7 0.75 -29.45 -1.85 -16.25 1.3 -3.9 2.0 -4.0 2.7 -4.8 L2.8 -4.9 2.6 -4.95 1.2 -10.05 Q3.15 -11.85 6.7 -12.3 9.05 -35.2 10.8 -58.1 12.6 -81.35 15.3 -104.2 15.7 -107.55 18.1 -109.9 L24.35 -92.75 14.05 -10.4 18.8 -9.45 Q19.6 -7.25 18.1 -5.3 16.6 -3.35 14.15 -3.9 15.35 -0.7 14.9 2.9 L14.55 5.1 Q11.7 6.6 8.95 5.15 6.6 3.85 4.55 5.45 7.55 11.9 12.4 17.1 14.35 19.15 15.0 21.5 21.0 43.55 10.7 66.65 L-0.15 65.7 Q-13.5 64.6 -25.4 71.0 -38.45 78.1 -53.0 76.75 -81.4 75.15 -97.55 51.5 -70.8 46.35 -49.2 27.5 -41.6 20.85 -39.95 10.85 -37.55 -3.5 -35.7 -17.75 M-35.75 -18.05 L-40.6 -18.6 Q-34.0 -20.9 -30.5 -27.4 -40.8 -22.0 -48.05 -21.15 -42.15 -24.6 -39.75 -30.9 -48.3 -26.05 -57.7 -23.8 -47.7 -29.8 -38.6 -37.75 -45.15 -38.25 -49.75 -32.65 -50.15 -37.0 -46.95 -39.05 -43.8 -41.1 -33.95 -43.25 -24.1 -45.4 -16.45 -58.3 L-15.5 -58.8 Q-11.9 -60.2 -8.85 -57.6 L-8.8 -57.6 -3.0 -58.05 -2.25 -58.05 Q0.3 -52.5 -0.05 -46.35 L0.8 -45.1 -3.1 -36.7 1.2 -32.35 2.05 -31.5 M89.15 -57.25 L88.3 -59.75 Q86.55 -62.3 81.5 -62.6 77.15 -63.0 73.1 -64.95 L72.85 -67.05 Q74.9 -68.3 75.1 -70.5 75.4 -73.75 76.25 -77.0 L79.65 -77.3 77.0 -79.6 83.05 -82.15 77.3 -83.35 80.85 -86.75 Q75.45 -83.65 69.1 -85.05 L63.3 -86.45 Q62.25 -79.5 63.75 -72.65 L64.0 -64.8 Q58.9 -63.85 54.35 -61.6 L48.9 -58.7 Q45.7 -52.85 45.1 -46.4 L44.75 -43.55 44.75 -43.5 Q43.95 -39.1 42.15 -34.95 M14.05 -10.4 L6.5 -10.7 6.7 -12.3 7.2 -12.05 M2.8 -4.9 L14.15 -3.9 M44.75 -43.5 Q27.1 -44.6 31.3 -26.45 35.55 -8.1 39.85 -3.7 44.7 -5.65 47.95 -10.0 52.65 -16.15 51.0 -23.6 L50.75 -24.5 Q51.15 -31.25 53.75 -35.05 54.8 -36.55 55.4 -38.35 57.25 -11.4 47.9 16.65 L63.1 15.1 Q65.6 0.6 71.05 -13.3 70.8 1.5 76.05 14.25 83.15 16.6 89.95 14.45 85.25 -9.2 83.35 -33.2 83.05 -36.6 84.95 -39.65 L84.5 -46.95 M88.3 -59.75 L87.35 -62.4 M89.15 -57.25 Q89.45 -54.15 87.05 -49.2 L87.05 -47.65 Q86.8 -43.45 84.95 -39.65 L85.55 -36.85 Q88.55 -26.25 94.5 -16.9 L95.25 -13.65 95.35 -12.6 103.85 -13.7 103.7 -14.45 101.65 -20.65 Q100.95 -21.8 100.55 -23.05 95.05 -40.25 89.15 -57.25 M94.5 -16.9 L90.6 -14.55 91.35 -12.1 95.25 -13.65 M103.7 -14.45 L106.75 -15.4 110.5 -14.85 108.55 -18.9 Q125.05 -26.45 140.7 -35.7 149.15 -40.7 148.05 -49.25 L145.7 -47.15 Q125.25 -29.55 101.65 -24.05 L101.65 -20.65 M-1.95 1.15 Q-1.95 2.95 -0.05 4.2 1.85 5.45 4.55 5.45 2.5 0.8 1.3 -3.9 L-0.25 -4.0 M-8.85 -57.6 L-8.8 -57.6 M-8.85 -57.6 L-10.55 -57.85 M-3.1 -36.7 Q-9.25 -26.35 -19.7 -20.6 L-17.95 -26.9 Q-25.75 -20.15 -35.75 -18.05" fill="none" stroke="#000000" stroke-linecap="round" stroke-linejoin="round" stroke-width="0.05"/>
  </g>
</svg>
