<?xml version="1.0" encoding="UTF-8" standalone="no"?>
<svg xmlns:xlink="http://www.w3.org/1999/xlink" height="17.0px" width="17.0px" xmlns="http://www.w3.org/2000/svg">
  <g transform="matrix(1.0, 0.0, 0.0, 1.0, 8.5, 8.45)">
    <path d="M4.5 1.0 Q4.6 4.2 8.0 4.5 4.9 4.85 4.5 8.05 4.2 4.4 1.0 4.5 4.2 4.35 4.5 1.0" fill="#ffffff" fill-rule="evenodd" stroke="none"/>
    <path d="M4.5 1.0 Q4.6 4.2 8.0 4.5 4.9 4.85 4.5 8.05 4.2 4.4 1.0 4.5 4.2 4.35 4.5 1.0" fill="none" stroke="#00ffff" stroke-linecap="round" stroke-linejoin="round" stroke-width="1.0"/>
    <path d="M4.7 -4.2 L4.4 -5.35 2.15 -5.35 M4.05 -7.0 L4.15 -6.75 4.4 -5.35 5.7 -5.35 M-4.8 2.65 L-4.65 3.3 -4.6 3.7 -3.05 3.9 M-4.55 5.1 L-4.6 3.7 -7.0 3.8" fill="none" stroke="#00ccff" stroke-linecap="round" stroke-linejoin="round" stroke-width="1.0"/>
    <path d="M-1.3 -7.95 Q-1.1 -1.75 5.45 -1.2 -0.45 -0.5 -1.3 5.65 -1.85 -1.35 -8.0 -1.2 -1.8 -1.5 -1.3 -7.95" fill="#ffffff" fill-rule="evenodd" stroke="none"/>
    <path d="M-1.3 -7.95 Q-1.1 -1.75 5.45 -1.2 -0.45 -0.5 -1.3 5.65 -1.85 -1.35 -8.0 -1.2 -1.8 -1.5 -1.3 -7.95 Z" fill="none" stroke="#00ffff" stroke-linecap="round" stroke-linejoin="round" stroke-width="1.0"/>
  </g>
</svg>
