<?xml version="1.0" encoding="UTF-8" standalone="no"?>
<svg xmlns:xlink="http://www.w3.org/1999/xlink" height="17.0px" width="17.0px" xmlns="http://www.w3.org/2000/svg">
  <g transform="matrix(1.0, 0.0, 0.0, 1.0, 8.5, 8.5)">
    <path d="M5.65 -5.7 Q8.0 -3.35 8.0 0.0 8.0 3.3 5.65 5.65 3.35 8.0 0.0 8.0 -3.3 8.0 -5.65 5.65 -8.0 3.3 -8.0 0.0 -8.0 -3.35 -5.65 -5.7 -3.3 -8.0 0.0 -8.0 3.35 -8.0 5.65 -5.7 M3.0 3.1 Q4.3 1.85 4.3 0.05 4.3 -1.75 3.0 -3.05 1.75 -4.3 -0.05 -4.25 -1.85 -4.3 -3.15 -3.05 -4.4 -1.75 -4.35 0.05 -4.4 1.85 -3.15 3.1 -1.85 4.4 -0.05 4.4 1.75 4.4 3.0 3.1" fill="#99ccff" fill-rule="evenodd" stroke="none"/>
    <path d="M3.0 3.1 Q1.75 4.4 -0.05 4.4 -1.85 4.4 -3.15 3.1 -4.4 1.85 -4.35 0.05 -4.4 -1.75 -3.15 -3.05 -1.85 -4.3 -0.05 -4.25 1.75 -4.3 3.0 -3.05 4.3 -1.75 4.3 0.05 4.3 1.85 3.0 3.1" fill="#ccffff" fill-rule="evenodd" stroke="none"/>
    <path d="M5.65 -5.7 Q8.0 -3.35 8.0 0.0 8.0 3.3 5.65 5.65 3.35 8.0 0.0 8.0 -3.3 8.0 -5.65 5.65 -8.0 3.3 -8.0 0.0 -8.0 -3.35 -5.65 -5.7 -3.3 -8.0 0.0 -8.0 3.35 -8.0 5.65 -5.7" fill="none" stroke="#9966cc" stroke-linecap="round" stroke-linejoin="round" stroke-width="1.0"/>
    <path d="M3.0 3.1 Q1.75 4.4 -0.05 4.4 -1.85 4.4 -3.15 3.1 -4.4 1.85 -4.35 0.05 -4.4 -1.75 -3.15 -3.05 -1.85 -4.3 -0.05 -4.25 1.75 -4.3 3.0 -3.05 4.3 -1.75 4.3 0.05 4.3 1.85 3.0 3.1" fill="none" stroke="#99ffff" stroke-linecap="round" stroke-linejoin="round" stroke-width="1.0"/>
  </g>
</svg>
