<?xml version="1.0" encoding="UTF-8" standalone="no"?>
<svg xmlns:xlink="http://www.w3.org/1999/xlink" height="17.0px" width="15.0px" xmlns="http://www.w3.org/2000/svg">
  <g transform="matrix(1.0, 0.0, 0.0, 1.0, 7.5, 8.5)">
    <path d="M3.9 -8.0 L7.0 -8.0 7.0 -2.45 7.0 4.7 3.9 6.95 3.9 -0.2 3.9 -8.0 M-4.8 6.45 L-7.0 4.7 -7.0 -2.45 -7.0 -8.0 -4.8 -8.0 -4.8 -0.75 -4.8 6.45 M7.0 -2.45 Q5.45 -1.05 3.9 -0.2 5.45 -1.05 7.0 -2.45 M-4.8 -0.75 Q-5.9 -1.45 -7.0 -2.45 -5.9 -1.45 -4.8 -0.75" fill="#b3b3b3" fill-rule="evenodd" stroke="none"/>
    <path d="M1.6 -8.0 L3.9 -8.0 3.9 -0.2 1.6 0.65 3.9 -0.2 3.9 6.95 1.6 7.85 1.6 0.65 1.6 -8.0 M-2.25 7.65 Q-3.55 7.25 -4.8 6.45 L-4.8 -0.75 -4.8 -8.0 -2.25 -8.0 -2.25 0.5 -2.25 7.65 M-4.8 -0.75 Q-3.55 0.1 -2.25 0.5 -3.55 0.1 -4.8 -0.75" fill="#cccccc" fill-rule="evenodd" stroke="none"/>
    <path d="M1.6 7.85 L-2.25 7.65 -2.25 0.5 -2.25 -8.0 1.6 -8.0 1.6 0.65 1.6 7.85 M1.6 0.65 L-2.25 0.5 1.6 0.65" fill="#ffffff" fill-rule="evenodd" stroke="none"/>
    <path d="M1.6 -8.0 L3.9 -8.0 7.0 -8.0 7.0 -2.45 7.0 4.7 3.9 6.95 1.6 7.85 -2.25 7.65 Q-3.55 7.25 -4.8 6.45 L-7.0 4.7 -7.0 -2.45 -7.0 -8.0 -4.8 -8.0 -2.25 -8.0 1.6 -8.0 M1.6 0.65 L3.9 -0.2 Q5.45 -1.05 7.0 -2.45 M-7.0 -2.45 Q-5.9 -1.45 -4.8 -0.75 M-2.25 0.5 Q-3.55 0.1 -4.8 -0.75 M-2.25 0.5 L1.6 0.65" fill="none" stroke="#666666" stroke-linecap="round" stroke-linejoin="round" stroke-width="1.0"/>
  </g>
</svg>
