<?xml version="1.0" encoding="UTF-8" standalone="no"?>
<svg xmlns:xlink="http://www.w3.org/1999/xlink" height="17.0px" width="17.0px" xmlns="http://www.w3.org/2000/svg">
  <g transform="matrix(1.0, 0.0, 0.0, 1.0, 8.5, 8.5)">
    <path d="M0.15 -8.0 L-1.2 -6.95 Q-2.95 -5.2 -2.95 -2.65 -2.95 -0.1 -1.2 1.65 0.6 3.45 3.15 3.45 5.7 3.45 7.45 1.65 L8.0 1.1 Q7.65 3.75 5.7 5.65 3.35 8.0 0.0 8.0 -3.3 8.0 -5.7 5.65 -8.0 3.35 -8.0 0.0 -8.0 -3.35 -5.7 -5.7 -3.3 -8.0 0.0 -8.0 L0.15 -8.0" fill="#990000" fill-rule="evenodd" stroke="none"/>
    <path d="M0.15 -8.0 L-1.2 -6.95 Q-2.95 -5.2 -2.95 -2.65 -2.95 -0.1 -1.2 1.65 0.6 3.45 3.15 3.45 5.7 3.45 7.45 1.65 L8.0 1.1 Q7.65 3.75 5.7 5.65 3.35 8.0 0.0 8.0 -3.3 8.0 -5.7 5.65 -8.0 3.35 -8.0 0.0 -8.0 -3.35 -5.7 -5.7 -3.3 -8.0 0.0 -8.0 L0.15 -8.0 Z" fill="none" stroke="#660000" stroke-linecap="round" stroke-linejoin="round" stroke-width="1.0"/>
  </g>
</svg>
