<?xml version="1.0" encoding="UTF-8" standalone="no"?>
<svg xmlns:xlink="http://www.w3.org/1999/xlink" height="17.0px" width="17.05px" xmlns="http://www.w3.org/2000/svg">
  <g transform="matrix(1.0, 0.0, 0.0, 1.0, 8.5, 8.5)">
    <path d="M4.9 -4.35 L5.95 -5.4 4.9 -4.35 M0.15 -7.6 L0.15 -6.6 0.15 -7.6 M0.15 -4.35 L0.15 -0.1 0.15 -4.35 M8.05 0.0 Q8.05 3.3 5.7 5.65 3.35 8.0 0.05 8.0 L-0.1 8.0 Q-3.35 7.95 -5.65 5.65 L-5.65 5.6 Q-7.9 3.35 -7.95 0.15 L-7.95 0.0 Q-8.0 -3.15 -5.9 -5.4 L-5.65 -5.65 Q-3.3 -8.0 0.05 -8.0 3.35 -8.0 5.7 -5.65 L5.95 -5.4 Q8.05 -3.15 8.05 0.0 M-0.1 6.65 L-0.1 8.0 -0.1 6.65 M-4.85 4.75 L-5.65 5.6 -4.85 4.75 M-6.75 0.15 L-7.95 0.15 -6.75 0.15 M-4.85 -4.35 L-5.9 -5.4 -4.85 -4.35 M5.75 5.15 L5.25 4.65 5.75 5.15 M7.75 0.15 L6.4 0.15 7.75 0.15 M4.5 3.4 L0.0 0.15 4.5 3.4" fill="url(#gradient0)" fill-rule="evenodd" stroke="none"/>
    <path d="M0.15 -0.1 L0.15 -4.35 M0.15 -6.6 L0.15 -7.6 M5.95 -5.4 L4.9 -4.35 M8.05 0.0 Q8.05 3.3 5.7 5.65 3.35 8.0 0.05 8.0 L-0.1 8.0 Q-3.35 7.95 -5.65 5.65 L-5.65 5.6 Q-7.9 3.35 -7.95 0.15 L-7.95 0.0 Q-8.0 -3.15 -5.9 -5.4 L-5.65 -5.65 Q-3.3 -8.0 0.05 -8.0 3.35 -8.0 5.7 -5.65 L5.95 -5.4 Q8.05 -3.15 8.05 0.0 M0.0 0.15 L4.5 3.4 M6.4 0.15 L7.75 0.15 M5.25 4.65 L5.75 5.15 M-5.9 -5.4 L-4.85 -4.35 M-7.95 0.15 L-6.75 0.15 M-5.65 5.6 L-4.85 4.75 M-0.1 8.0 L-0.1 6.65" fill="none" stroke="#d7a90f" stroke-linecap="round" stroke-linejoin="round" stroke-width="1.0"/>
  </g>
  <defs>
    <linearGradient gradientTransform="matrix(-1.0E-4, -0.0098, 0.0098, -1.0E-4, 0.05, 0.0)" gradientUnits="userSpaceOnUse" id="gradient0" spreadMethod="pad" x1="-819.2" x2="819.2">
      <stop offset="0.0" stop-color="#e47c14" stop-opacity="0.56078434"/>
      <stop offset="1.0" stop-color="#e2c834" stop-opacity="0.56078434"/>
    </linearGradient>
  </defs>
</svg>
