<?xml version="1.0" encoding="UTF-8" standalone="no"?>
<svg xmlns:xlink="http://www.w3.org/1999/xlink" height="17.0px" width="12.9px" xmlns="http://www.w3.org/2000/svg">
  <g transform="matrix(1.0, 0.0, 0.0, 1.0, 6.5, 8.5)">
    <path d="M3.95 -3.75 Q3.7 -3.45 3.35 -3.45 3.0 -3.45 2.75 -3.75 L2.5 -4.3 2.75 -4.95 3.35 -5.2 3.95 -4.95 4.25 -4.3 3.95 -3.75 M3.55 -1.35 Q4.5 -1.35 5.2 -0.65 5.9 0.05 5.9 1.0 5.9 1.95 5.2 2.65 4.5 3.35 3.55 3.35 2.6 3.35 1.9 2.65 1.2 1.95 1.2 1.0 1.2 0.05 1.9 -0.65 2.6 -1.35 3.55 -1.35 M3.5 0.1 L3.4 0.0 3.15 -0.05 3.0 0.05 2.5 0.5 2.45 0.8 2.5 1.1 2.75 1.1 2.8 0.8 2.85 0.75 3.5 0.1 M1.0 6.05 Q1.35 6.4 1.35 6.9 L1.0 7.65 0.25 8.0 -0.55 7.65 -0.85 6.9 Q-0.85 6.4 -0.55 6.05 -0.25 5.75 0.25 5.75 0.7 5.75 1.0 6.05 M-2.2 -6.6 L-2.25 -6.7 -2.65 -6.8 Q-3.95 -6.6 -4.55 -5.4 L-4.55 -5.15 Q-4.6 -4.6 -4.25 -4.4 L-4.2 -4.6 Q-3.7 -6.1 -2.2 -6.6 M-0.3 -7.05 Q0.7 -6.05 0.75 -4.65 0.7 -3.3 -0.3 -2.3 -1.25 -1.3 -2.65 -1.3 -4.05 -1.3 -5.05 -2.3 -6.0 -3.3 -6.0 -4.65 -6.0 -6.05 -5.05 -7.05 -4.05 -8.05 -2.65 -8.0 -1.25 -8.05 -0.3 -7.05 M-1.55 1.35 L-1.7 1.45 -2.05 1.95 -2.0 2.05 Q-1.85 2.4 -1.6 2.25 L-1.6 2.15 Q-1.65 1.8 -1.2 1.8 L-1.15 1.7 Q-1.1 1.25 -1.55 1.35 M-0.55 3.1 Q-1.0 3.5 -1.6 3.5 -2.25 3.5 -2.7 3.1 -3.15 2.65 -3.1 2.0 -3.15 1.4 -2.7 0.95 -2.25 0.5 -1.6 0.55 -1.0 0.5 -0.55 0.95 -0.15 1.4 -0.15 2.0 -0.15 2.65 -0.55 3.1" fill="#37d6ec" fill-opacity="0.77254903" fill-rule="evenodd" stroke="none"/>
    <path d="M3.5 0.1 L2.85 0.75 2.8 0.8 2.75 1.1 2.5 1.1 2.45 0.8 2.5 0.5 3.0 0.05 3.15 -0.05 3.4 0.0 3.5 0.1 M-2.2 -6.6 Q-3.7 -6.1 -4.2 -4.6 L-4.25 -4.4 Q-4.6 -4.6 -4.55 -5.15 L-4.55 -5.4 Q-3.95 -6.6 -2.65 -6.8 L-2.25 -6.7 -2.2 -6.6 M-1.55 1.35 Q-1.1 1.25 -1.15 1.7 L-1.2 1.8 Q-1.65 1.8 -1.6 2.15 L-1.6 2.25 Q-1.85 2.4 -2.0 2.05 L-2.05 1.95 -1.7 1.45 -1.55 1.35" fill="#ffffff" fill-rule="evenodd" stroke="none"/>
    <path d="M3.95 -3.75 Q3.7 -3.45 3.35 -3.45 3.0 -3.45 2.75 -3.75 L2.5 -4.3 2.75 -4.95 3.35 -5.2 3.95 -4.95 4.25 -4.3 3.95 -3.75 M3.55 -1.35 Q4.5 -1.35 5.2 -0.65 5.9 0.05 5.9 1.0 5.9 1.95 5.2 2.65 4.5 3.35 3.55 3.35 2.6 3.35 1.9 2.65 1.2 1.95 1.2 1.0 1.2 0.05 1.9 -0.65 2.6 -1.35 3.55 -1.35 M1.0 6.05 Q1.35 6.4 1.35 6.9 L1.0 7.65 0.25 8.0 -0.55 7.65 -0.85 6.9 Q-0.85 6.4 -0.55 6.05 -0.25 5.75 0.25 5.75 0.7 5.75 1.0 6.05 M-0.3 -7.05 Q0.7 -6.05 0.75 -4.65 0.7 -3.3 -0.3 -2.3 -1.25 -1.3 -2.65 -1.3 -4.05 -1.3 -5.05 -2.3 -6.0 -3.3 -6.0 -4.65 -6.0 -6.05 -5.05 -7.05 -4.05 -8.05 -2.65 -8.0 -1.25 -8.05 -0.3 -7.05 M-0.55 3.1 Q-1.0 3.5 -1.6 3.5 -2.25 3.5 -2.7 3.1 -3.15 2.65 -3.1 2.0 -3.15 1.4 -2.7 0.95 -2.25 0.5 -1.6 0.55 -1.0 0.5 -0.55 0.95 -0.15 1.4 -0.15 2.0 -0.15 2.65 -0.55 3.1" fill="none" stroke="#99ffff" stroke-linecap="round" stroke-linejoin="round" stroke-width="1.0"/>
  </g>
</svg>
