<?xml version="1.0" encoding="UTF-8" standalone="no"?>
<svg xmlns:xlink="http://www.w3.org/1999/xlink" height="15.0px" width="15.0px" xmlns="http://www.w3.org/2000/svg">
  <g transform="matrix(1.0, 0.0, 0.0, 1.0, 7.5, 7.5)">
    <path d="M6.6 0.0 L5.5 1.55 Q4.4 2.65 2.95 2.95 L1.95 3.0 Q0.9 3.0 0.0 2.6 L1.5 1.55 2.6 0.0 Q3.0 -0.9 3.0 -1.95 L2.95 -2.9 Q2.65 -4.45 1.5 -5.55 L0.0 -6.6 1.5 -5.55 Q2.65 -4.45 2.95 -2.9 L3.0 -1.95 Q3.0 -0.9 2.6 0.0 L1.5 1.55 0.0 2.6 Q0.9 3.0 1.95 3.0 L2.95 2.95 Q4.4 2.65 5.5 1.55 L6.6 0.0 Q7.0 0.95 7.0 2.05 7.0 4.1 5.5 5.55 4.05 7.0 1.95 7.0 0.9 7.0 0.0 6.6 -0.85 6.25 -1.55 5.55 -2.65 4.45 -2.9 2.95 L-3.0 2.0 Q-3.0 0.9 -2.6 0.0 L-1.55 -1.55 Q-0.85 -2.25 0.0 -2.6 L-2.05 -3.0 -2.9 -2.9 Q-4.4 -2.7 -5.55 -1.55 L-6.6 0.0 -5.55 -1.55 Q-4.4 -2.7 -2.9 -2.9 L-2.05 -3.0 0.0 -2.6 1.5 -1.55 2.6 0.0 1.5 -1.55 0.0 -2.6 Q-0.85 -2.25 -1.55 -1.55 L-2.6 0.0 Q-3.0 0.9 -3.0 2.0 L-2.9 2.95 Q-2.65 4.45 -1.55 5.55 -0.85 6.25 0.0 6.6 L-2.05 7.0 Q-4.1 7.0 -5.55 5.55 -7.0 4.1 -7.0 2.0 -7.0 0.9 -6.6 0.0 -7.0 -0.9 -7.0 -2.0 -7.0 -4.1 -5.55 -5.55 -4.1 -7.0 -2.05 -7.0 L0.0 -6.6 Q0.9 -7.0 1.95 -7.0 4.05 -7.0 5.5 -5.55 7.0 -4.1 7.0 -1.95 7.0 -0.9 6.6 0.0 M-2.6 0.0 L-1.55 1.55 Q-0.85 2.25 0.0 2.6 -0.85 2.25 -1.55 1.55 L-2.6 0.0" fill="#11f2c0" fill-opacity="0.77254903" fill-rule="evenodd" stroke="none"/>
    <path d="M0.0 -6.6 L1.5 -5.55 Q2.65 -4.45 2.95 -2.9 L3.0 -1.95 Q3.0 -0.9 2.6 0.0 L1.5 1.55 0.0 2.6 Q0.9 3.0 1.95 3.0 L2.95 2.95 Q4.4 2.65 5.5 1.55 L6.6 0.0 Q7.0 -0.9 7.0 -1.95 7.0 -4.1 5.5 -5.55 4.05 -7.0 1.95 -7.0 0.9 -7.0 0.0 -6.6 L-2.05 -7.0 Q-4.1 -7.0 -5.55 -5.55 -7.0 -4.1 -7.0 -2.0 -7.0 -0.9 -6.6 0.0 L-5.55 -1.55 Q-4.4 -2.7 -2.9 -2.9 L-2.05 -3.0 0.0 -2.6 1.5 -1.55 2.6 0.0 M0.0 6.6 Q0.9 7.0 1.95 7.0 4.05 7.0 5.5 5.55 7.0 4.1 7.0 2.05 7.0 0.95 6.6 0.0 M0.0 6.6 Q-0.85 6.25 -1.55 5.55 -2.65 4.45 -2.9 2.95 L-3.0 2.0 Q-3.0 0.9 -2.6 0.0 L-1.55 -1.55 Q-0.85 -2.25 0.0 -2.6 M0.0 2.6 Q-0.85 2.25 -1.55 1.55 L-2.6 0.0 M-6.6 0.0 Q-7.0 0.9 -7.0 2.0 -7.0 4.1 -5.55 5.55 -4.1 7.0 -2.05 7.0 L0.0 6.6" fill="none" stroke="#66ff99" stroke-linecap="round" stroke-linejoin="round" stroke-width="1.0"/>
  </g>
</svg>
