<?xml version="1.0" encoding="UTF-8" standalone="no"?>
<svg xmlns:xlink="http://www.w3.org/1999/xlink" height="16.6px" width="18.5px" xmlns="http://www.w3.org/2000/svg">
  <g transform="matrix(1.0, 0.0, 0.0, 1.0, 9.15, 8.95)">
    <path d="M6.55 -4.55 L6.6 -4.4 5.9 -2.85 Q4.9 -0.9 4.8 1.35 4.7 4.05 5.0 6.75 L4.35 7.15 Q2.6 7.0 0.95 6.45 0.0 7.2 -1.25 6.9 L-1.55 6.55 -3.9 6.95 -3.1 1.6 -8.3 0.1 -8.5 -0.6 -8.65 -1.5 -3.8 -1.35 Q-3.6 -2.3 -3.7 -3.2 -3.95 -5.45 -3.5 -7.65 L-2.8 -8.25 -2.4 -7.4 -1.9 -6.0 Q-1.75 -4.95 -1.05 -5.6 L-1.0 -5.9 Q-1.0 -7.1 -0.3 -8.1 L0.6 -6.35 1.0 -5.65 Q1.3 -5.05 1.75 -5.3 L1.8 -5.4 Q1.75 -7.4 3.45 -8.45 L3.7 -3.1 6.55 -4.55 M-0.15 1.25 L-0.35 0.65 Q-0.9 -1.1 0.5 -2.35 L-0.45 -3.9 0.5 -2.35 Q1.45 -0.55 1.2 1.4 L1.15 1.85 0.25 3.7 0.05 4.55 0.25 3.7 1.15 1.85 1.2 1.4 Q1.45 -0.55 0.5 -2.35 -0.9 -1.1 -0.35 0.65 L-0.15 1.25 M3.05 -1.3 L2.8 0.0 Q2.85 2.55 1.95 4.75 2.85 2.55 2.8 0.0 L3.05 -1.3" fill="#845125" fill-rule="evenodd" stroke="none"/>
    <path d="M7.1 -4.75 Q6.7 -5.9 6.95 -6.7 L7.15 -7.3 Q8.1 -8.1 9.3 -8.1 9.5 -6.95 9.1 -6.05 L9.0 -5.75 Q8.55 -5.2 8.0 -5.0 L7.1 -4.75" fill="#50882d" fill-rule="evenodd" stroke="none"/>
    <path d="M7.1 -4.75 L6.55 -4.55 6.6 -4.4 5.9 -2.85 Q4.9 -0.9 4.8 1.35 4.7 4.05 5.0 6.75 L4.35 7.15 Q2.6 7.0 0.95 6.45 0.0 7.2 -1.25 6.9 L-1.55 6.55 -3.9 6.95 -3.1 1.6 -8.3 0.1 -8.5 -0.6 -8.65 -1.5 -3.8 -1.35 Q-3.6 -2.3 -3.7 -3.2 -3.95 -5.45 -3.5 -7.65 L-2.8 -8.25 -2.4 -7.4 -1.9 -6.0 Q-1.75 -4.95 -1.05 -5.6 L-1.0 -5.9 Q-1.0 -7.1 -0.3 -8.1 L0.6 -6.35 1.0 -5.65 Q1.3 -5.05 1.75 -5.3 L1.8 -5.4 Q1.75 -7.4 3.45 -8.45 L3.7 -3.1 6.55 -4.55 M-0.45 -3.9 L0.5 -2.35 Q1.45 -0.55 1.2 1.4 L1.15 1.85 0.25 3.7 0.05 4.55 M1.95 4.75 Q2.85 2.55 2.8 0.0 L3.05 -1.3 M0.5 -2.35 Q-0.9 -1.1 -0.35 0.65 L-0.15 1.25" fill="none" stroke="#3d2312" stroke-linecap="round" stroke-linejoin="round" stroke-width="1.0"/>
  </g>
</svg>
