<?xml version="1.0" encoding="UTF-8" standalone="no"?>
<svg xmlns:xlink="http://www.w3.org/1999/xlink" height="17.0px" width="17.0px" xmlns="http://www.w3.org/2000/svg">
  <g transform="matrix(1.0, 0.0, 0.0, 1.0, 8.5, 8.5)">
    <path d="M-0.5 -2.35 L1.8 -4.65 0.0 -5.0 Q-2.05 -5.0 -3.55 -3.5 L-4.4 -2.35 -7.65 -2.35 Q-7.1 -4.15 -5.65 -5.65 -3.3 -8.0 -0.05 -8.0 3.2 -8.0 5.55 -5.65 7.05 -4.15 7.65 -2.35 L-0.5 -2.35 M7.4 3.05 Q6.8 4.45 5.55 5.65 3.2 8.0 -0.05 8.0 -3.3 8.0 -5.65 5.65 -6.85 4.45 -7.4 3.05 L-0.2 3.05 -1.8 4.7 0.0 5.0 Q2.05 5.0 3.5 3.5 L3.95 3.05 7.4 3.05" fill="#ffcc00" fill-rule="evenodd" stroke="none"/>
    <path d="M-0.5 -2.35 L7.65 -2.35 Q8.0 -1.25 8.0 0.0 8.0 1.65 7.4 3.05 L3.95 3.05 Q5.0 1.75 5.0 0.0 5.0 -0.95 4.65 -1.8 L-0.2 3.05 -7.4 3.05 Q-8.0 1.65 -8.0 0.0 -8.0 -1.25 -7.65 -2.35 L-4.4 -2.35 Q-5.0 -1.3 -5.0 0.0 L-4.65 1.85 -0.5 -2.35" fill="#ffff00" fill-rule="evenodd" stroke="none"/>
    <path d="M-4.4 -2.35 L-3.55 -3.5 Q-2.05 -5.0 0.0 -5.0 L1.8 -4.65 -0.5 -2.35 M7.65 -2.35 Q7.05 -4.15 5.55 -5.65 3.2 -8.0 -0.05 -8.0 -3.3 -8.0 -5.65 -5.65 -7.1 -4.15 -7.65 -2.35 M-4.4 -2.35 Q-5.0 -1.3 -5.0 0.0 L-4.65 1.85 -0.5 -2.35 M-7.4 3.05 Q-6.85 4.45 -5.65 5.65 -3.3 8.0 -0.05 8.0 3.2 8.0 5.55 5.65 6.8 4.45 7.4 3.05 8.0 1.65 8.0 0.0 8.0 -1.25 7.65 -2.35 M3.95 3.05 L3.5 3.5 Q2.05 5.0 0.0 5.0 L-1.8 4.7 -0.2 3.05 4.65 -1.8 Q5.0 -0.95 5.0 0.0 5.0 1.75 3.95 3.05 M-7.4 3.05 Q-8.0 1.65 -8.0 0.0 -8.0 -1.25 -7.65 -2.35" fill="none" stroke="#ff9900" stroke-linecap="round" stroke-linejoin="round" stroke-width="1.0"/>
  </g>
</svg>
