<?xml version="1.0" encoding="UTF-8" standalone="no"?>
<svg xmlns:xlink="http://www.w3.org/1999/xlink" height="17.0px" width="17.0px" xmlns="http://www.w3.org/2000/svg">
  <g transform="matrix(1.0, 0.0, 0.0, 1.0, 8.5, 8.5)">
    <path d="M2.0 2.0 Q1.15 2.85 -0.05 2.85 -1.2 2.85 -2.05 2.0 -2.85 1.15 -2.85 0.0 -2.85 -1.15 -2.05 -2.0 -1.2 -2.85 -0.05 -2.85 1.15 -2.85 2.0 -2.0 2.85 -1.15 2.85 0.0 2.85 1.15 2.0 2.0" fill="#ffff00" fill-rule="evenodd" stroke="none"/>
    <path d="M0.0 8.0 L-8.0 0.0 0.0 -8.0 8.0 0.0 0.0 8.0" fill="none" stroke="#ff9900" stroke-linecap="round" stroke-linejoin="round" stroke-width="1.0"/>
    <path d="M3.0 -3.0 Q4.25 -1.75 4.25 0.0 4.25 1.8 3.0 3.0 1.75 4.25 0.0 4.25 -1.75 4.25 -3.0 3.0 -4.25 1.8 -4.25 0.0 -4.25 -1.75 -3.0 -3.0 -1.75 -4.25 0.0 -4.25 1.75 -4.25 3.0 -3.0 M2.0 2.0 Q1.15 2.85 -0.05 2.85 -1.2 2.85 -2.05 2.0 -2.85 1.15 -2.85 0.0 -2.85 -1.15 -2.05 -2.0 -1.2 -2.85 -0.05 -2.85 1.15 -2.85 2.0 -2.0 2.85 -1.15 2.85 0.0 2.85 1.15 2.0 2.0" fill="none" stroke="#ffcc00" stroke-linecap="round" stroke-linejoin="round" stroke-width="1.0"/>
    <path d="M5.65 -5.65 L5.65 5.65 -5.65 5.65 -5.65 -5.65 5.65 -5.65 Z" fill="none" stroke="#ff9900" stroke-linecap="round" stroke-linejoin="round" stroke-width="1.0"/>
  </g>
</svg>
