<?xml version="1.0" encoding="UTF-8" standalone="no"?>
<svg xmlns:xlink="http://www.w3.org/1999/xlink" height="23.6px" width="66.3px" xmlns="http://www.w3.org/2000/svg">
  <g transform="matrix(1.0, 0.0, 0.0, 1.0, 11.8, 11.8)">
    <path d="M38.35 -2.35 Q38.9 -4.15 40.35 -5.65 42.7 -8.0 45.95 -8.0 49.2 -8.0 51.55 -5.65 53.05 -4.15 53.65 -2.35 L45.5 -2.35 47.8 -4.65 46.0 -5.0 Q43.95 -5.0 42.45 -3.5 L41.6 -2.35 38.35 -2.35 M53.4 3.05 Q52.8 4.45 51.55 5.65 49.2 8.0 45.95 8.0 42.7 8.0 40.35 5.65 39.15 4.45 38.6 3.05 L45.8 3.05 44.2 4.7 46.0 5.0 Q48.05 5.0 49.5 3.5 L49.95 3.05 53.4 3.05" fill="#ff6600" fill-rule="evenodd" stroke="none"/>
    <path d="M38.35 -2.35 L41.6 -2.35 Q41.0 -1.3 41.0 0.0 41.0 1.0 41.35 1.85 L45.5 -2.35 53.65 -2.35 Q54.0 -1.25 54.0 0.0 54.0 1.65 53.4 3.05 L49.95 3.05 Q51.0 1.75 51.0 0.0 L50.65 -1.8 45.8 3.05 38.6 3.05 Q38.0 1.65 38.0 0.0 38.0 -1.25 38.35 -2.35 M2.8 2.8 Q1.65 4.0 -0.05 4.0 -1.7 4.0 -2.9 2.8 -4.0 1.65 -4.0 0.0 -4.0 -1.65 -2.9 -2.85 -1.7 -4.0 -0.05 -4.0 1.65 -4.0 2.8 -2.85 4.0 -1.65 4.0 0.0 4.0 1.65 2.8 2.8" fill="#ff9900" fill-rule="evenodd" stroke="none"/>
    <path d="M53.65 -2.35 Q53.05 -4.15 51.55 -5.65 49.2 -8.0 45.95 -8.0 42.7 -8.0 40.35 -5.65 38.9 -4.15 38.35 -2.35 M41.6 -2.35 L42.45 -3.5 Q43.95 -5.0 46.0 -5.0 L47.8 -4.65 45.5 -2.35 41.35 1.85 Q41.0 1.0 41.0 0.0 41.0 -1.3 41.6 -2.35 M53.65 -2.35 Q54.0 -1.25 54.0 0.0 54.0 1.65 53.4 3.05 52.8 4.45 51.55 5.65 49.2 8.0 45.95 8.0 42.7 8.0 40.35 5.65 39.15 4.45 38.6 3.05 38.0 1.65 38.0 0.0 38.0 -1.25 38.35 -2.35 M49.95 3.05 L49.5 3.5 Q48.05 5.0 46.0 5.0 L44.2 4.7 45.8 3.05 50.65 -1.8 51.0 0.0 Q51.0 1.75 49.95 3.05 M0.0 11.3 L-11.3 0.0 0.0 -11.3 11.3 0.0 0.0 11.3" fill="none" stroke="#cc3300" stroke-linecap="round" stroke-linejoin="round" stroke-width="1.0"/>
    <path d="M2.8 2.8 Q1.65 4.0 -0.05 4.0 -1.7 4.0 -2.9 2.8 -4.0 1.65 -4.0 0.0 -4.0 -1.65 -2.9 -2.85 -1.7 -4.0 -0.05 -4.0 1.65 -4.0 2.8 -2.85 4.0 -1.65 4.0 0.0 4.0 1.65 2.8 2.8" fill="none" stroke="#ff6600" stroke-linecap="round" stroke-linejoin="round" stroke-width="1.0"/>
    <path d="M8.0 -8.0 L8.0 8.0 -8.0 8.0 -8.0 -8.0 8.0 -8.0 Z" fill="none" stroke="#cc3300" stroke-linecap="round" stroke-linejoin="round" stroke-width="1.0"/>
    <path d="M4.25 -4.25 Q6.0 -2.5 6.0 0.0 6.0 2.5 4.25 4.25 2.5 6.0 0.0 6.0 -2.5 6.0 -4.25 4.25 -6.0 2.5 -6.0 0.0 -6.0 -2.5 -4.25 -4.25 -2.5 -6.0 0.0 -6.0 2.5 -6.0 4.25 -4.25 Z" fill="none" stroke="#ff6600" stroke-linecap="round" stroke-linejoin="round" stroke-width="1.0"/>
  </g>
</svg>
