<?xml version="1.0" encoding="UTF-8" standalone="no"?>
<svg xmlns:xlink="http://www.w3.org/1999/xlink" height="41.95px" width="43.7px" xmlns="http://www.w3.org/2000/svg">
  <g transform="matrix(1.0, 0.0, 0.0, 1.0, 4.15, 3.15)">
    <path d="M2.0 34.0 L2.35 32.35 Q10.35 37.3 18.55 32.25 34.7 22.5 39.05 5.15 39.3 22.3 26.05 33.0 13.5 43.1 2.0 34.0" fill="#4f7b28" fill-rule="evenodd" stroke="none"/>
    <path d="M2.0 34.0 Q13.5 43.1 26.05 33.0 39.3 22.3 39.05 5.15 34.7 22.5 18.55 32.25 10.35 37.3 2.35 32.35 L2.0 34.0 Z" fill="none" stroke="#426822" stroke-linecap="round" stroke-linejoin="round" stroke-width="1.0"/>
    <path d="M36.2 -1.75 L35.6 -1.0 Q24.65 -0.9 17.45 7.0 6.65 18.9 -3.65 27.7 0.85 19.5 5.65 11.7 16.9 -6.3 36.2 -1.75" fill="#4f7b28" fill-rule="evenodd" stroke="none"/>
    <path d="M36.2 -1.75 Q16.9 -6.3 5.65 11.7 0.85 19.5 -3.65 27.7 6.65 18.9 17.45 7.0 24.65 -0.9 35.6 -1.0 L36.2 -1.75 Z" fill="none" stroke="#426822" stroke-linecap="round" stroke-linejoin="round" stroke-width="1.0"/>
  </g>
</svg>
