<?xml version="1.0" encoding="UTF-8" standalone="no"?>
<svg xmlns:xlink="http://www.w3.org/1999/xlink" height="108.25px" width="136.8px" xmlns="http://www.w3.org/2000/svg">
  <g transform="matrix(1.0, 0.0, 0.0, 1.0, 34.7, 65.2)">
    <path d="M36.9 -52.35 L24.5 -44.9 18.5 -41.1 12.75 -41.45 Q8.55 -40.85 4.85 -38.9 L5.2 -39.5 Q1.0 -35.6 -7.8 -34.6 L-9.65 -32.05 -10.7 -32.0 Q-15.9 -30.1 -21.4 -29.9 -25.7 -24.1 -33.1 -25.25 L-34.2 -25.5 Q-24.45 -37.4 -13.9 -48.6 -10.85 -51.85 -6.7 -52.85 L-7.4 -49.8 Q-0.45 -53.3 7.0 -56.3 9.0 -57.1 10.8 -58.35 L10.65 -54.4 Q17.6 -55.2 22.75 -59.9 L25.6 -62.3 24.85 -57.65 Q32.3 -58.9 38.1 -64.05 L39.1 -64.7 Q40.35 -58.5 36.9 -52.35 M-24.6 -34.95 Q-22.05 -34.75 -20.15 -36.2 L-19.6 -36.65 Q-19.55 -32.95 -21.4 -29.9 -19.55 -32.95 -19.6 -36.65 L-20.15 -36.2 Q-22.05 -34.75 -24.6 -34.95 M-7.8 -34.6 L-7.45 -35.9 Q-6.85 -42.8 -7.4 -49.8 -6.85 -42.8 -7.45 -35.9 L-7.8 -34.6 M18.5 -41.1 Q17.85 -44.1 18.3 -44.6 23.0 -50.35 24.85 -57.65 23.0 -50.35 18.3 -44.6 17.85 -44.1 18.5 -41.1 M10.65 -54.4 Q9.15 -47.35 5.85 -40.8 L5.2 -39.5 5.85 -40.8 Q9.15 -47.35 10.65 -54.4" fill="#006666" fill-rule="evenodd" stroke="none"/>
    <path d="M36.9 -52.35 L24.5 -44.9 18.5 -41.1 12.75 -41.45 Q8.55 -40.85 4.85 -38.9 L5.2 -39.5 Q1.0 -35.6 -7.8 -34.6 L-9.65 -32.05 -10.7 -32.0 Q-15.9 -30.1 -21.4 -29.9 -25.7 -24.1 -33.1 -25.25 L-34.2 -25.5 Q-24.45 -37.4 -13.9 -48.6 -10.85 -51.85 -6.7 -52.85 L-7.4 -49.8 Q-0.45 -53.3 7.0 -56.3 9.0 -57.1 10.8 -58.35 L10.65 -54.4 Q17.6 -55.2 22.75 -59.9 L25.6 -62.3 24.85 -57.65 Q32.3 -58.9 38.1 -64.05 L39.1 -64.7 Q40.35 -58.5 36.9 -52.35 M5.2 -39.5 L5.85 -40.8 Q9.15 -47.35 10.65 -54.4 M24.85 -57.65 Q23.0 -50.35 18.3 -44.6 17.85 -44.1 18.5 -41.1 M-7.4 -49.8 Q-6.85 -42.8 -7.45 -35.9 L-7.8 -34.6 M-21.4 -29.9 Q-19.55 -32.95 -19.6 -36.65 L-20.15 -36.2 Q-22.05 -34.75 -24.6 -34.95" fill="none" stroke="#000000" stroke-linecap="round" stroke-linejoin="round" stroke-width="1.0"/>
    <path d="M22.75 -22.05 Q23.15 -23.15 24.4 -24.0 26.2 -25.1 28.2 -25.85 33.3 -27.8 38.65 -28.85 L43.9 -29.9 53.2 -30.35 64.75 -29.35 Q70.8 -29.25 76.6 -30.7 81.6 -32.1 85.95 -34.7 89.95 -37.15 93.3 -40.6 92.1 -36.05 89.0 -32.65 87.6 -31.15 85.9 -30.05 84.3 -28.95 82.25 -28.3 78.75 -27.0 74.9 -26.9 L69.85 -26.75 60.15 -26.5 50.85 -26.45 Q45.25 -26.5 39.75 -25.35 35.2 -24.3 31.3 -21.85 27.3 -19.3 24.25 -15.7 L23.15 -14.3 21.75 -18.9 21.8 -19.55 22.1 -20.35 22.75 -22.05 M84.35 -0.4 L89.85 0.6 Q95.95 1.3 100.6 -2.2 L101.6 -3.0 100.85 -1.9 Q96.7 3.5 91.65 5.65 87.2 7.55 82.05 6.9 L77.65 5.9 77.4 5.85 75.05 4.95 Q67.3 1.7 59.75 -1.95 52.45 -5.5 45.9 -4.5 39.4 -3.5 33.65 2.0 L33.4 2.05 33.35 1.65 Q33.15 0.9 32.5 0.3 31.9 0.4 30.95 -0.1 L29.05 -1.2 Q28.15 -1.85 29.55 -3.8 L29.45 -4.35 Q30.0 -5.8 30.85 -6.95 33.0 -9.95 36.9 -10.8 48.5 -13.55 60.05 -8.75 71.9 -3.65 84.35 -0.4 M73.1 37.2 L74.5 37.9 Q76.35 38.75 78.6 38.9 L79.5 38.95 Q82.85 39.0 85.8 37.7 82.8 40.7 79.6 41.85 72.4 44.35 64.1 37.65 57.8 32.6 50.9 28.8 43.7 24.9 35.9 22.35 L33.45 20.4 32.85 19.65 Q32.05 18.9 32.5 18.3 L33.5 17.15 Q33.95 16.6 35.55 16.7 L36.5 16.65 36.4 16.95 36.8 16.6 37.25 16.3 Q39.55 14.85 42.25 15.5 48.05 16.9 52.0 21.9 60.4 32.5 73.1 37.2 M91.45 5.15 Q86.75 6.15 82.15 5.35 78.85 4.85 76.0 3.35 68.4 -0.55 60.55 -3.9 52.8 -7.2 45.6 -5.95 38.8 -4.85 32.5 0.3 38.8 -4.85 45.6 -5.95 52.8 -7.2 60.55 -3.9 68.4 -0.55 76.0 3.35 78.85 4.85 82.15 5.35 86.75 6.15 91.45 5.15" fill="#50882d" fill-rule="evenodd" stroke="none"/>
    <path d="M36.5 16.65 L36.7 16.1 37.25 16.3 36.8 16.6 36.4 16.95 36.5 16.65" fill="url(#gradient0)" fill-rule="evenodd" stroke="none"/>
    <path d="M74.9 -26.9 Q69.8 -21.8 70.6 -15.7 70.85 -13.65 72.45 -11.85 77.95 -5.65 84.35 -0.4 71.9 -3.65 60.05 -8.75 48.5 -13.55 36.9 -10.8 33.0 -9.95 30.85 -6.95 30.4 -7.55 29.8 -10.6 29.15 -13.7 24.45 -15.5 L24.25 -15.7 Q27.3 -19.3 31.3 -21.85 35.2 -24.3 39.75 -25.35 45.25 -26.5 50.85 -26.45 L60.15 -26.5 69.85 -26.75 74.9 -26.9 M77.4 5.85 L66.15 15.9 Q66.9 21.5 68.55 26.9 70.25 32.3 73.1 37.2 60.4 32.5 52.0 21.9 48.05 16.9 42.25 15.5 39.55 14.85 37.25 16.3 L36.7 16.1 36.85 15.65 Q39.15 7.9 33.4 2.25 L33.65 2.0 Q39.4 -3.5 45.9 -4.5 52.45 -5.5 59.75 -1.95 67.3 1.7 75.05 4.95 L77.4 5.85 M58.1 -16.7 L59.65 -16.5 Q61.9 -16.45 63.9 -17.2 61.9 -16.45 59.65 -16.5 L58.1 -16.7 M41.45 4.6 Q44.25 2.9 47.4 2.3 L50.35 2.4 Q52.75 2.8 55.1 3.5 60.75 5.1 66.75 5.75 60.75 5.1 55.1 3.5 52.75 2.8 50.35 2.4 L47.4 2.3 Q44.25 2.9 41.45 4.6 M61.6 -21.4 L57.7 -21.8 Q42.95 -24.6 31.05 -17.3 42.95 -24.6 57.7 -21.8 L61.6 -21.4 M56.4 13.8 L62.8 17.65 56.4 13.8" fill="url(#gradient1)" fill-rule="evenodd" stroke="none"/>
    <path d="M22.75 -22.05 Q23.15 -23.15 24.4 -24.0 26.2 -25.1 28.2 -25.85 33.3 -27.8 38.65 -28.85 L43.9 -29.9 53.2 -30.35 64.75 -29.35 Q70.8 -29.25 76.6 -30.7 81.6 -32.1 85.95 -34.7 89.95 -37.15 93.3 -40.6 92.1 -36.05 89.0 -32.65 87.6 -31.15 85.9 -30.05 84.3 -28.95 82.25 -28.3 78.75 -27.0 74.9 -26.9 69.8 -21.8 70.6 -15.7 70.85 -13.65 72.45 -11.85 77.95 -5.65 84.35 -0.4 L89.85 0.6 Q95.95 1.3 100.6 -2.2 L101.6 -3.0 100.85 -1.9 Q96.7 3.5 91.65 5.65 87.2 7.55 82.05 6.9 L77.65 5.9 77.4 5.85 66.15 15.9 Q66.9 21.5 68.55 26.9 70.25 32.3 73.1 37.2 L74.5 37.9 Q76.35 38.75 78.6 38.9 L79.5 38.95 Q82.85 39.0 85.8 37.7 82.8 40.7 79.6 41.85 72.4 44.35 64.1 37.65 57.8 32.6 50.9 28.8 43.7 24.9 35.9 22.35 L33.45 20.4 M36.5 16.65 L36.7 16.1 36.85 15.65 Q39.15 7.9 33.4 2.25 L33.4 2.05 33.35 1.65 Q33.15 0.9 32.5 0.3 M29.45 -4.35 Q30.0 -5.8 30.85 -6.95 33.0 -9.95 36.9 -10.8 48.5 -13.55 60.05 -8.75 71.9 -3.65 84.35 -0.4 M24.25 -15.7 L23.15 -14.3 M74.9 -26.9 L69.85 -26.75 60.15 -26.5 50.85 -26.45 Q45.25 -26.5 39.75 -25.35 35.2 -24.3 31.3 -21.85 27.3 -19.3 24.25 -15.7 M77.4 5.85 L75.05 4.95 Q67.3 1.7 59.75 -1.95 52.45 -5.5 45.9 -4.5 39.4 -3.5 33.65 2.0 L33.4 2.25 M73.1 37.2 Q60.4 32.5 52.0 21.9 48.05 16.9 42.25 15.5 39.55 14.85 37.25 16.3 L36.8 16.6 36.4 16.95 36.5 16.65" fill="none" stroke="#000000" stroke-linecap="round" stroke-linejoin="round" stroke-width="1.0"/>
    <path d="M32.5 0.3 Q38.8 -4.85 45.6 -5.95 52.8 -7.2 60.55 -3.9 68.4 -0.55 76.0 3.35 78.85 4.85 82.15 5.35 86.75 6.15 91.45 5.15" fill="none" stroke="#006600" stroke-linecap="round" stroke-linejoin="round" stroke-width="1.0"/>
    <path d="M63.9 -17.2 Q61.9 -16.45 59.65 -16.5 L58.1 -16.7 M31.05 -17.3 Q42.95 -24.6 57.7 -21.8 L61.6 -21.4 M66.75 5.75 Q60.75 5.1 55.1 3.5 52.75 2.8 50.35 2.4 L47.4 2.3 Q44.25 2.9 41.45 4.6 M62.8 17.65 L56.4 13.8" fill="none" stroke="#006666" stroke-linecap="round" stroke-linejoin="round" stroke-width="1.0"/>
  </g>
  <defs>
    <linearGradient gradientTransform="matrix(0.0367, 0.0, 0.0, 0.0162, 54.3, -13.65)" gradientUnits="userSpaceOnUse" id="gradient0" spreadMethod="pad" x1="-819.2" x2="819.2">
      <stop offset="0.0" stop-color="#31552b" stop-opacity="0.8627451"/>
      <stop offset="1.0" stop-color="#41793c" stop-opacity="0.7529412"/>
    </linearGradient>
    <linearGradient gradientTransform="matrix(0.0367, 0.0, 0.0, 0.0162, 54.3, -13.65)" gradientUnits="userSpaceOnUse" id="gradient1" spreadMethod="pad" x1="-819.2" x2="819.2">
      <stop offset="0.0" stop-color="#295648" stop-opacity="0.8627451"/>
      <stop offset="1.0" stop-color="#3a7452" stop-opacity="0.7529412"/>
    </linearGradient>
  </defs>
</svg>
