<?xml version="1.0" encoding="UTF-8" standalone="no"?>
<svg xmlns:xlink="http://www.w3.org/1999/xlink" height="122.25px" width="191.45px" xmlns="http://www.w3.org/2000/svg">
  <g transform="matrix(1.0, 0.0, 0.0, 1.0, 89.35, 53.7)">
    <path d="M-63.85 35.9 Q-64.3 35.15 -64.3 34.15 -64.25 31.85 -61.8 31.3 -60.3 35.45 -56.05 36.4 -54.3 36.9 -52.65 37.75 -50.4 38.85 -49.15 41.0 -47.6 43.6 -47.1 46.4 -46.5 49.55 -47.55 52.55 -48.9 56.5 -52.4 58.8 -51.1 55.6 -50.85 51.7 -50.6 47.75 -52.15 44.15 -52.95 42.25 -54.6 41.0 -57.85 38.6 -61.75 37.35 -63.25 36.85 -63.85 35.9 M-79.3 33.45 L-78.5 29.65 -79.3 33.45 -81.2 34.85 Q-82.95 36.0 -84.3 37.7 -85.65 39.45 -86.1 41.45 -86.95 44.9 -86.85 48.75 -89.35 44.7 -88.75 40.1 -88.55 38.6 -87.85 37.2 -86.4 34.15 -83.65 32.25 L-80.95 30.35 -79.55 29.7 -78.5 29.65 -78.45 29.65 -78.25 29.65 -78.7 33.0 -79.3 33.45" fill="#50882d" fill-rule="evenodd" stroke="none"/>
    <path d="M31.45 -50.45 L31.45 -50.4 30.95 -51.05 31.45 -50.45 M-3.6 -35.3 L-3.6 -35.25 -4.75 -36.2 -3.6 -35.3 M-25.75 -24.85 L-25.55 -23.7 -25.8 -24.85 -25.75 -24.85" fill="#4f7b28" fill-rule="evenodd" stroke="none"/>
    <path d="M-11.6 -42.85 L-10.4 -44.0 Q-2.15 -51.55 8.9 -52.95 L11.5 -52.9 Q21.45 -53.95 30.95 -51.05 L31.45 -50.4 Q26.95 -46.7 22.0 -43.9 L17.2 -41.1 16.95 -41.65 16.6 -42.25 16.3 -42.8 14.75 -44.05 13.4 -44.55 12.5 -44.9 11.35 -45.4 10.8 -44.25 Q12.9 -43.65 14.05 -41.75 4.15 -42.55 -3.5 -37.1 L-4.75 -36.2 -10.8 -36.05 -8.7 -38.15 -12.75 -38.7 -12.75 -39.7 Q-12.55 -41.35 -11.6 -42.85 -12.55 -41.35 -12.75 -39.7 L-12.75 -38.7 -8.7 -38.15 -10.8 -36.05 -4.75 -36.2 -3.6 -35.25 Q-9.35 -26.45 -19.75 -25.75 L-25.75 -24.85 -25.8 -24.85 -25.55 -23.7 Q-30.4 -17.6 -37.4 -14.4 L-37.65 -14.85 -34.55 -21.8 -33.5 -22.9 -33.75 -23.1 Q-28.65 -31.95 -21.55 -38.85 -17.45 -42.95 -11.95 -44.2 L-11.6 -42.85 M11.35 -45.4 L12.2 -47.35 Q9.2 -47.45 9.25 -50.8 9.5 -51.1 9.85 -51.25 12.05 -52.15 11.5 -52.9 12.05 -52.15 9.85 -51.25 9.5 -51.1 9.25 -50.8 9.2 -47.45 12.2 -47.35 L11.35 -45.4 M34.15 -23.55 L32.6 -24.35 Q30.35 -25.25 29.05 -27.65 42.25 -40.5 48.25 -42.6 54.15 -44.7 57.9 -38.3 61.6 -31.95 68.45 -22.3 71.0 -18.7 70.55 -14.25 70.15 -10.4 68.4 -7.05 69.1 -9.7 68.0 -12.1 66.0 -16.4 62.0 -18.9 L60.45 -19.8 Q58.0 -17.6 56.4 -14.9 L51.5 -6.35 Q50.45 -4.3 48.2 -3.75 50.0 -7.4 49.4 -11.5 48.2 -19.9 40.6 -21.4 39.85 -21.5 39.25 -22.15 36.6 -22.45 34.15 -23.55 M-33.5 -22.9 L-25.8 -24.85 -33.5 -22.9" fill="#669966" fill-rule="evenodd" stroke="none"/>
    <path d="M-78.5 29.65 L-79.3 33.45 M-78.45 29.65 L-78.5 29.65 -79.55 29.7 -80.95 30.35 -83.65 32.25 Q-86.4 34.15 -87.85 37.2 -88.55 38.6 -88.75 40.1 -89.35 44.7 -86.85 48.75 -86.95 44.9 -86.1 41.45 -85.65 39.45 -84.3 37.7 -82.95 36.0 -81.2 34.85 L-79.3 33.45" fill="none" stroke="#000000" stroke-linecap="round" stroke-linejoin="round" stroke-width="1.0"/>
    <path d="M-11.6 -42.85 L-10.4 -44.0 Q-2.15 -51.55 8.9 -52.95 L11.5 -52.9 Q21.45 -53.95 30.95 -51.05 L31.75 -50.7 31.45 -50.45 31.45 -50.4 Q26.95 -46.7 22.0 -43.9 L17.2 -41.1 16.95 -41.65 16.6 -42.25 16.3 -42.8 14.75 -44.05 13.4 -44.55 12.5 -44.9 M11.35 -45.4 L10.8 -44.25 Q12.9 -43.65 14.05 -41.75 4.15 -42.55 -3.5 -37.1 L-4.75 -36.2 -3.0 -36.25 -3.6 -35.3 -3.6 -35.25 Q-9.35 -26.45 -19.75 -25.75 L-25.75 -24.85 -25.8 -24.85 -33.5 -22.9 -34.55 -21.8 -33.9 -22.8 -33.75 -23.1 Q-28.65 -31.95 -21.55 -38.85 -17.45 -42.95 -11.95 -44.2 L-10.85 -44.45 -11.6 -42.85 M-25.55 -23.7 Q-30.4 -17.6 -37.4 -14.4 L-38.2 -14.05 -37.65 -14.85 -34.55 -21.8 M11.5 -52.9 Q12.05 -52.15 9.85 -51.25 9.5 -51.1 9.25 -50.8 9.2 -47.45 12.2 -47.35 L11.35 -45.4 M34.15 -23.55 L32.6 -24.35 Q30.35 -25.25 29.05 -27.65 42.25 -40.5 48.25 -42.6 54.15 -44.7 57.9 -38.3 61.6 -31.95 68.45 -22.3 71.0 -18.7 70.55 -14.25 70.15 -10.4 68.4 -7.05 69.1 -9.7 68.0 -12.1 66.0 -16.4 62.0 -18.9 L60.45 -19.8 Q58.0 -17.6 56.4 -14.9 L51.5 -6.35 Q50.45 -4.3 48.2 -3.75 50.0 -7.4 49.4 -11.5 48.2 -19.9 40.6 -21.4 39.85 -21.5 39.25 -22.15 36.6 -22.45 34.15 -23.55 M-4.75 -36.2 L-10.8 -36.05 -8.7 -38.15 -12.75 -38.7 -12.75 -39.7 Q-12.55 -41.35 -11.6 -42.85 M-33.9 -22.8 L-33.5 -22.9 M-61.8 31.3 L-62.0 30.55 M-61.8 31.3 Q-60.3 35.45 -56.05 36.4 -54.3 36.9 -52.65 37.75 -50.4 38.85 -49.15 41.0 -47.6 43.6 -47.1 46.4 -46.5 49.55 -47.55 52.55 -48.9 56.5 -52.4 58.8 -51.1 55.6 -50.85 51.7 -50.6 47.75 -52.15 44.15 -52.95 42.25 -54.6 41.0 -57.85 38.6 -61.75 37.35 -63.25 36.85 -63.85 35.9" fill="none" stroke="#000000" stroke-linecap="round" stroke-linejoin="round" stroke-width="1.0"/>
    <path d="M21.9 -27.0 Q25.1 -33.25 32.45 -33.85 L38.05 -34.55 Q42.35 -35.3 46.3 -36.75 56.05 -40.55 60.4 -49.9 L60.3 -45.5 Q60.4 -39.3 55.7 -36.05 L52.35 -34.2 Q47.25 -32.4 41.6 -32.05 L39.25 -31.45 Q34.95 -31.3 31.0 -29.6 27.1 -27.95 25.0 -24.45 L26.2 -25.1 Q32.2 -27.6 38.6 -29.05 48.65 -31.25 58.5 -29.9 L59.15 -29.8 61.3 -29.65 Q79.9 -27.5 93.3 -40.6 L92.45 -38.4 Q87.45 -27.1 74.9 -26.9 L60.15 -26.5 Q48.7 -27.35 37.6 -24.5 33.1 -23.25 29.4 -20.45 26.65 -18.45 24.25 -15.7 L23.15 -14.3 Q22.45 -16.95 22.0 -19.55 L22.1 -20.35 22.75 -22.05 23.6 -23.25 21.45 -26.05 21.55 -26.25 21.9 -27.0 M84.35 -0.4 L91.4 0.75 Q97.3 0.9 101.6 -3.0 100.4 -1.05 98.8 0.65 89.8 9.85 77.4 5.85 L56.1 -3.15 Q50.45 -5.5 44.4 -3.95 38.2 -2.5 33.65 2.0 L33.4 2.05 32.5 0.3 28.8 -1.55 29.45 -4.35 30.85 -6.95 33.6 -9.2 Q36.4 -11.05 39.8 -11.3 47.2 -12.45 54.25 -10.45 60.4 -8.9 66.15 -6.55 75.1 -2.8 84.35 -0.4 M25.0 -24.45 L23.6 -23.25 25.0 -24.45 M91.45 5.15 Q83.45 6.95 76.0 3.35 L60.5 -3.75 Q49.75 -8.55 39.15 -3.4 35.7 -1.75 32.5 0.3 35.7 -1.75 39.15 -3.4 49.75 -8.55 60.5 -3.75 L76.0 3.35 Q83.45 6.95 91.45 5.15 M36.5 16.65 L36.9 16.65 38.55 16.0 Q41.0 14.8 43.7 15.95 L45.45 16.8 Q50.3 19.3 53.85 23.6 L55.55 25.95 55.85 26.25 Q62.3 32.7 70.65 36.25 L73.1 37.2 74.5 37.9 77.55 38.85 81.2 38.95 Q83.6 38.7 85.8 37.7 83.1 40.55 79.55 41.7 L76.9 42.55 Q72.2 42.8 68.35 40.25 L60.55 35.15 54.2 31.05 Q50.8 28.85 47.15 27.3 39.95 24.3 33.45 20.4 L32.85 19.65 Q32.85 18.4 33.95 17.55 35.0 16.65 36.5 16.65 M31.4 20.55 Q32.55 22.8 32.3 25.75 31.45 36.2 32.25 46.6 32.7 52.4 35.3 57.55 36.7 63.0 39.95 67.45 L40.5 68.05 37.65 67.35 Q32.2 63.1 29.45 57.2 27.3 52.6 26.15 47.5 L25.8 45.95 25.8 45.9 25.65 45.3 25.55 44.95 Q24.1 38.6 24.45 32.0 24.8 24.55 19.4 19.85 L18.95 19.35 18.9 19.3 Q21.15 17.0 24.7 17.5 L28.55 17.3 Q30.45 18.7 31.4 20.55 M11.2 22.05 Q14.15 18.7 18.3 19.95 L18.45 20.2 Q19.85 22.5 18.65 25.3 17.25 28.55 16.55 32.05 15.4 37.95 16.75 43.6 L16.8 43.7 Q17.25 45.75 18.1 47.75 14.65 44.45 13.75 39.6 12.75 34.05 13.5 28.7 14.05 24.7 11.2 22.05" fill="#50882d" fill-rule="evenodd" stroke="none"/>
    <path d="M55.7 -36.05 Q55.7 -33.45 56.7 -31.6 57.45 -30.25 58.5 -29.9 48.65 -31.25 38.6 -29.05 32.2 -27.6 26.2 -25.1 L25.0 -24.45 Q27.1 -27.95 31.0 -29.6 34.95 -31.3 39.25 -31.45 L41.6 -32.05 Q47.25 -32.4 52.35 -34.2 L55.7 -36.05 M74.9 -26.9 L72.95 -24.55 Q70.55 -21.25 70.5 -17.05 L62.25 -19.25 63.55 -17.05 58.55 -16.65 58.1 -16.75 56.55 -17.0 Q58.7 -10.6 65.7 -9.2 L65.4 -11.65 66.1 -11.8 67.8 -11.45 Q70.65 -9.8 73.85 -10.3 L74.35 -9.85 84.35 -0.4 Q75.1 -2.8 66.15 -6.55 60.4 -8.9 54.25 -10.45 47.2 -12.45 39.8 -11.3 36.4 -11.05 33.6 -9.2 L30.85 -6.95 Q30.85 -10.55 28.95 -13.1 27.0 -15.7 24.25 -15.7 26.65 -18.45 29.4 -20.45 33.1 -23.25 37.6 -24.5 48.7 -27.35 60.15 -26.5 L74.9 -26.9 M77.4 5.85 L71.4 11.2 66.0 9.2 66.45 10.25 60.35 8.6 Q64.1 11.55 66.15 15.9 L66.55 18.7 Q67.95 27.55 72.15 35.5 L73.1 37.2 70.65 36.25 Q62.3 32.7 55.85 26.25 L55.55 25.95 54.9 22.8 55.55 25.95 53.85 23.6 54.9 22.8 57.55 23.25 Q58.2 22.05 56.25 21.15 53.8 19.9 51.75 18.3 50.4 17.25 48.8 16.7 L45.55 16.5 45.45 16.8 43.7 15.95 Q41.0 14.8 38.55 16.0 L36.9 16.65 36.5 16.65 36.8 15.6 Q39.2 8.0 33.4 2.25 L33.65 2.0 Q38.2 -2.5 44.4 -3.95 50.45 -5.5 56.1 -3.15 L77.4 5.85 M31.05 -17.3 Q35.6 -20.1 40.5 -21.05 51.05 -23.5 61.6 -21.4 51.05 -23.5 40.5 -21.05 35.6 -20.1 31.05 -17.3 M66.75 5.75 Q60.8 5.25 55.2 3.2 48.0 0.7 41.45 4.6 48.0 0.7 55.2 3.2 60.8 5.25 66.75 5.75 M33.45 20.4 Q39.95 24.3 47.15 27.3 50.8 28.85 54.2 31.05 L60.55 35.15 50.25 33.05 50.1 35.9 47.55 34.95 49.55 40.0 Q47.0 40.55 44.95 41.85 42.75 43.2 41.05 45.4 38.5 48.85 36.95 52.75 36.05 55.1 35.3 57.55 32.7 52.4 32.25 46.6 31.45 36.2 32.3 25.75 32.55 22.8 31.4 20.55 L32.85 19.65 33.45 20.4 M33.8 26.9 L39.55 33.4 Q40.15 38.0 43.9 41.2 L44.95 41.85 43.9 41.2 Q40.15 38.0 39.55 33.4 L33.8 26.9 M62.8 17.65 L56.4 13.8 62.8 17.65 M19.4 19.85 Q24.8 24.55 24.45 32.0 24.1 38.6 25.55 44.95 22.65 42.3 19.7 41.6 L18.6 41.55 17.45 43.45 16.8 43.7 16.75 43.6 Q15.4 37.95 16.55 32.05 17.25 28.55 18.65 25.3 19.85 22.5 18.45 20.2 L19.4 19.85 M21.1 38.7 Q18.7 34.9 20.4 30.75 18.7 34.9 21.1 38.7" fill="url(#gradient0)" fill-rule="evenodd" stroke="none"/>
    <path d="M58.5 -29.9 L59.15 -29.8 M61.3 -29.65 Q79.9 -27.5 93.3 -40.6 L92.45 -38.4 Q87.45 -27.1 74.9 -26.9 L72.95 -24.55 Q70.55 -21.25 70.5 -17.05 M74.35 -9.85 L84.35 -0.4 91.4 0.75 Q97.3 0.9 101.6 -3.0 100.4 -1.05 98.8 0.65 89.8 9.85 77.4 5.85 L71.4 11.2 M25.0 -24.45 L26.2 -25.1 Q32.2 -27.6 38.6 -29.05 48.65 -31.25 58.5 -29.9 M23.6 -23.25 L25.0 -24.45 M22.75 -22.05 L23.6 -23.25 M24.25 -15.7 L23.15 -14.3 M74.9 -26.9 L60.15 -26.5 Q48.7 -27.35 37.6 -24.5 33.1 -23.25 29.4 -20.45 26.65 -18.45 24.25 -15.7 M30.85 -6.95 L33.6 -9.2 Q36.4 -11.05 39.8 -11.3 47.2 -12.45 54.25 -10.45 60.4 -8.9 66.15 -6.55 75.1 -2.8 84.35 -0.4 M30.85 -6.95 L29.45 -4.35 M77.4 5.85 L56.1 -3.15 Q50.45 -5.5 44.4 -3.95 38.2 -2.5 33.65 2.0 L33.4 2.25 Q39.2 8.0 36.8 15.6 L36.5 16.65 36.9 16.65 38.55 16.0 Q41.0 14.8 43.7 15.95 L45.45 16.8 M55.85 26.25 Q62.3 32.7 70.65 36.25 L73.1 37.2 72.15 35.5 Q67.95 27.55 66.55 18.7 L66.15 15.9 M60.55 35.15 L68.35 40.25 Q72.2 42.8 76.9 42.55 L79.55 41.7 Q83.1 40.55 85.8 37.7 83.6 38.7 81.2 38.95 L77.55 38.85 74.5 37.9 73.1 37.2 M53.85 23.6 L55.55 25.95 M53.85 23.6 Q50.3 19.3 45.45 16.8 M60.55 35.15 L54.2 31.05 Q50.8 28.85 47.15 27.3 39.95 24.3 33.45 20.4 M33.4 2.05 L33.4 2.25 M32.5 0.3 L33.4 2.05" fill="none" stroke="#000000" stroke-linecap="round" stroke-linejoin="round" stroke-width="1.0"/>
    <path d="M63.55 -17.05 L58.55 -16.65 58.1 -16.75 M32.5 0.3 Q35.7 -1.75 39.15 -3.4 49.75 -8.55 60.5 -3.75 L76.0 3.35 Q83.45 6.95 91.45 5.15 M61.6 -21.4 Q51.05 -23.5 40.5 -21.05 35.6 -20.1 31.05 -17.3 M41.45 4.6 Q48.0 0.7 55.2 3.2 60.8 5.25 66.75 5.75 M44.95 41.85 L43.9 41.2 Q40.15 38.0 39.55 33.4 L33.8 26.9 M56.4 13.8 L62.8 17.65 M20.4 30.75 Q18.7 34.9 21.1 38.7" fill="none" stroke="#006600" stroke-linecap="round" stroke-linejoin="round" stroke-width="1.0"/>
    <path d="M21.9 -27.0 Q25.1 -33.25 32.45 -33.85 L38.05 -34.55 Q42.35 -35.3 46.3 -36.75 56.05 -40.55 60.4 -49.9 L60.3 -45.5 Q60.4 -39.3 55.7 -36.05 55.7 -33.45 56.7 -31.6 57.45 -30.25 58.5 -29.9 M59.15 -29.8 L61.3 -29.65 M70.5 -17.05 L62.25 -19.25 63.55 -17.05 M58.1 -16.75 L56.55 -17.0 Q58.7 -10.6 65.7 -9.2 L65.4 -11.65 66.1 -11.8 67.8 -11.45 Q70.65 -9.8 73.85 -10.3 L74.35 -9.85 M71.4 11.2 L72.55 11.4 M25.0 -24.45 Q27.1 -27.95 31.0 -29.6 34.95 -31.3 39.25 -31.45 L41.6 -32.05 Q47.25 -32.4 52.35 -34.2 L55.7 -36.05 M45.55 16.5 L48.8 16.7 Q50.4 17.25 51.75 18.3 53.8 19.9 56.25 21.15 58.2 22.05 57.55 23.25 L54.9 22.8 55.55 25.95 55.85 26.25 M66.15 15.9 Q64.1 11.55 60.35 8.6 L66.45 10.25 66.0 9.2 71.4 11.2 M31.4 20.55 Q32.55 22.8 32.3 25.75 31.45 36.2 32.25 46.6 32.7 52.4 35.3 57.55 36.05 55.1 36.95 52.75 38.5 48.85 41.05 45.4 42.75 43.2 44.95 41.85 47.0 40.55 49.55 40.0 L47.55 34.95 50.1 35.9 50.25 33.05 60.55 35.15 M19.4 19.85 Q24.8 24.55 24.45 32.0 24.1 38.6 25.55 44.95 L25.65 45.3 25.8 45.9 25.8 45.95 26.15 47.5 Q27.3 52.6 29.45 57.2 32.2 63.1 37.65 67.35 L40.5 68.05 39.95 67.45 Q36.7 63.0 35.3 57.55 M31.4 20.55 Q30.45 18.7 28.55 17.3 M11.2 22.05 Q14.05 24.7 13.5 28.7 12.75 34.05 13.75 39.6 14.65 44.45 18.1 47.75 17.25 45.75 16.8 43.7 L16.75 43.6 Q15.4 37.95 16.55 32.05 17.25 28.55 18.65 25.3 19.85 22.5 18.45 20.2 L18.3 19.95 18.9 19.3 M17.45 43.45 L18.6 41.55 19.7 41.6 Q22.65 42.3 25.55 44.95" fill="none" stroke="#000000" stroke-linecap="round" stroke-linejoin="round" stroke-width="1.0"/>
  </g>
  <defs>
    <linearGradient gradientTransform="matrix(0.0367, 0.0, 0.0, 0.0162, 54.3, -13.65)" gradientUnits="userSpaceOnUse" id="gradient0" spreadMethod="pad" x1="-819.2" x2="819.2">
      <stop offset="0.0" stop-color="#31552b" stop-opacity="0.8627451"/>
      <stop offset="1.0" stop-color="#41793c" stop-opacity="0.7529412"/>
    </linearGradient>
  </defs>
</svg>
