<?xml version="1.0" encoding="UTF-8" standalone="no"?>
<svg xmlns:xlink="http://www.w3.org/1999/xlink" height="171.5px" width="137.4px" xmlns="http://www.w3.org/2000/svg">
  <g transform="matrix(1.0, 0.0, 0.0, 1.0, 38.7, 62.95)">
    <path d="M31.45 -50.4 L31.4 -50.45 30.95 -51.05 31.45 -50.45 31.4 -50.45 31.45 -50.45 31.45 -50.4 M-25.8 -24.85 L-25.75 -24.85 -25.55 -23.7 -25.8 -24.85 M-3.6 -35.25 L-4.75 -36.2 -3.6 -35.3 -3.6 -35.25" fill="#4f7b28" fill-rule="evenodd" stroke="none"/>
    <path d="M11.35 -45.4 L12.2 -47.35 Q9.2 -47.45 9.25 -50.8 9.5 -51.1 9.85 -51.25 10.8 -51.65 11.95 -53.85 10.8 -51.65 9.85 -51.25 9.5 -51.1 9.25 -50.8 9.2 -47.45 12.2 -47.35 L11.35 -45.4 10.8 -44.25 Q12.9 -43.65 14.05 -41.75 4.15 -42.55 -3.5 -37.1 L-4.75 -36.2 -10.8 -36.05 -8.7 -38.15 -12.75 -38.7 -12.75 -39.7 Q-12.55 -41.35 -11.6 -42.85 -12.55 -41.35 -12.75 -39.7 L-12.75 -38.7 -8.7 -38.15 -10.8 -36.05 -4.75 -36.2 -3.6 -35.25 Q-9.35 -26.45 -19.75 -25.75 L-25.75 -24.85 -25.8 -24.85 -33.5 -22.9 -25.8 -24.85 -25.55 -23.7 Q-30.4 -17.6 -37.4 -14.4 L-37.65 -14.85 -34.55 -21.8 -33.5 -22.9 -33.75 -23.1 Q-28.65 -31.95 -21.55 -38.85 -17.45 -42.95 -12.55 -55.25 L-11.6 -42.85 -10.4 -44.0 Q-2.15 -51.55 7.6 -55.55 10.2 -52.95 14.85 -62.45 13.3 -56.7 11.95 -53.85 L22.05 -51.95 26.35 -51.2 31.4 -50.45 31.45 -50.4 Q26.95 -46.7 22.0 -43.9 L17.2 -41.1 16.95 -41.65 16.6 -42.25 16.3 -42.8 14.75 -44.05 13.4 -44.55 12.5 -44.9 11.35 -45.4 M34.15 -23.55 L32.6 -24.35 Q30.35 -25.25 29.05 -27.65 42.25 -40.5 48.25 -42.6 54.15 -44.7 57.9 -38.3 61.6 -31.95 68.45 -22.3 71.0 -18.7 70.55 -14.25 70.15 -10.4 68.4 -7.05 69.1 -9.7 68.0 -12.1 66.0 -16.4 62.0 -18.9 L60.45 -19.8 Q58.0 -17.6 56.4 -14.9 L51.5 -6.35 Q50.45 -4.3 48.2 -3.75 50.0 -7.4 49.4 -11.5 48.2 -19.9 40.6 -21.4 39.85 -21.5 39.25 -22.15 36.6 -22.45 34.15 -23.55" fill="#918970" fill-rule="evenodd" stroke="none"/>
    <path d="M11.95 -53.85 Q10.8 -51.65 9.85 -51.25 9.5 -51.1 9.25 -50.8 9.2 -47.45 12.2 -47.35 L11.35 -45.4 M12.5 -44.9 L13.4 -44.55 14.75 -44.05 16.3 -42.8 16.6 -42.25 16.95 -41.65 17.2 -41.1 22.0 -43.9 Q26.95 -46.7 31.45 -50.4 M31.4 -50.45 L26.35 -51.2 22.05 -51.95 11.95 -53.85 Q13.3 -56.7 14.85 -62.45 10.2 -52.95 7.6 -55.55 -2.15 -51.55 -10.4 -44.0 L-11.6 -42.85 Q-12.55 -41.35 -12.75 -39.7 L-12.75 -38.7 -8.7 -38.15 -10.8 -36.05 -4.75 -36.2 -3.5 -37.1 Q4.15 -42.55 14.05 -41.75 12.9 -43.65 10.8 -44.25 L11.35 -45.4 M30.95 -51.05 L31.75 -50.7 31.45 -50.45 31.45 -50.4 M31.4 -50.45 L31.45 -50.45 M34.15 -23.55 L32.6 -24.35 Q30.35 -25.25 29.05 -27.65 42.25 -40.5 48.25 -42.6 54.15 -44.7 57.9 -38.3 61.6 -31.95 68.45 -22.3 71.0 -18.7 70.55 -14.25 70.15 -10.4 68.4 -7.05 69.1 -9.7 68.0 -12.1 66.0 -16.4 62.0 -18.9 L60.45 -19.8 Q58.0 -17.6 56.4 -14.9 L51.5 -6.35 Q50.45 -4.3 48.2 -3.75 50.0 -7.4 49.4 -11.5 48.2 -19.9 40.6 -21.4 39.85 -21.5 39.25 -22.15 36.6 -22.45 34.15 -23.55 M-12.55 -55.25 Q-11.4 -44.35 -10.85 -44.45 L-11.6 -42.85 M-12.55 -55.25 Q-17.45 -42.95 -21.55 -38.85 -28.65 -31.95 -33.75 -23.1 L-33.9 -22.8 -33.5 -22.9 -25.8 -24.85 -25.75 -24.85 -19.75 -25.75 Q-9.35 -26.45 -3.6 -35.25 M-4.75 -36.2 L-3.0 -36.25 -3.6 -35.3 -3.6 -35.25 M-33.5 -22.9 L-34.55 -21.8 -37.65 -14.85 M-37.4 -14.4 Q-30.4 -17.6 -25.55 -23.7 M-34.55 -21.8 L-33.9 -22.8 M-37.4 -14.4 L-38.2 -14.05 -37.65 -14.85" fill="none" stroke="#000000" stroke-linecap="round" stroke-linejoin="round" stroke-width="1.0"/>
    <path d="M31.55 -13.15 L33.7 -13.6 Q41.3 -15.1 48.3 -18.7 41.3 -15.1 33.7 -13.6 L31.55 -13.15 M31.3 -3.3 L32.9 -3.85 Q37.3 -5.4 41.65 -4.35 L45.9 -3.4 Q53.8 -1.75 60.65 2.25 L63.55 5.35 Q75.9 18.6 77.5 36.55 L80.05 58.7 81.55 68.1 80.05 58.7 Q80.2 57.25 80.7 56.0 L87.9 38.15 87.95 38.15 87.9 38.1 Q89.55 31.9 88.25 25.45 84.45 5.7 69.55 -5.4 51.65 -18.55 30.6 -8.8 L30.05 -18.65 Q46.3 -22.0 61.35 -25.8 65.25 -26.9 69.9 -25.0 L85.25 -18.8 Q87.85 -10.4 85.2 -1.95 L83.1 4.35 Q97.1 21.55 90.75 41.95 L90.2 42.5 89.4 44.75 Q83.65 55.9 81.55 68.1 82.7 72.05 84.15 75.95 86.35 82.0 91.0 86.4 101.4 96.6 96.8 108.05 L96.8 106.2 Q95.25 95.0 85.7 87.8 L84.35 86.25 Q75.3 74.75 75.9 59.8 L75.95 57.05 Q75.55 43.25 71.8 29.65 68.1 22.25 63.9 15.2 53.2 -3.0 31.65 0.4 L31.3 -3.3 M71.3 -19.4 Q60.9 -24.95 50.9 -20.2 L48.3 -18.7 50.7 -18.85 Q60.2 -18.15 68.85 -13.45 L71.45 -12.1 72.2 -11.75 Q77.1 -7.9 80.05 -1.8 84.5 -11.95 75.95 -17.35 L74.85 -18.05 71.3 -19.4 M83.1 4.35 L80.05 -1.8 83.1 4.35 M73.3 89.9 L73.6 90.25 73.3 90.45 72.8 90.2 73.3 90.45 74.75 91.15 74.9 91.4 75.15 91.4 Q76.3 92.1 77.6 92.65 85.2 96.1 85.95 103.65 L85.5 103.65 82.95 100.75 Q81.0 98.65 78.6 97.75 67.45 94.05 58.85 86.4 55.3 82.1 54.9 76.35 53.95 61.45 52.4 46.55 51.95 42.5 51.95 38.0 52.0 17.6 31.55 11.7 L30.2 12.35 29.05 11.8 31.15 5.35 31.95 5.15 Q50.6 10.9 56.15 29.7 59.65 41.45 59.5 53.8 59.25 74.85 72.8 90.2 L73.3 89.9 M36.65 86.1 L37.2 89.5 36.45 89.5 37.65 91.55 42.4 96.6 Q25.55 85.6 29.7 64.65 32.7 49.2 31.25 33.75 30.45 25.4 23.5 21.7 L27.45 15.15 28.15 15.45 29.5 17.0 Q34.45 22.7 36.35 29.95 L36.7 34.05 Q37.2 40.75 36.35 47.5 36.0 51.2 34.7 54.6 28.6 71.2 35.05 86.85 35.85 86.5 36.65 86.1 M64.05 48.6 L64.3 48.6 64.3 48.7 64.05 48.6 M36.45 89.5 L35.05 86.85 36.45 89.5" fill="#396b2b" fill-rule="evenodd" stroke="none"/>
    <path d="M41.65 -4.35 Q37.3 -5.4 32.9 -3.85 L31.3 -3.3 30.6 -8.8 Q51.65 -18.55 69.55 -5.4 84.45 5.7 88.25 25.45 89.55 31.9 87.9 38.1 L87.0 34.75 84.9 37.85 83.85 30.05 Q82.55 22.0 76.2 17.15 76.45 19.1 77.05 20.95 79.7 28.7 77.5 36.55 75.9 18.6 63.55 5.35 L60.65 2.25 Q60.65 -0.95 59.1 -3.8 L58.05 -5.7 56.1 -6.7 54.55 -5.9 51.95 -5.05 50.4 -5.05 41.8 -7.75 42.4 -5.45 41.65 -4.35 M31.65 0.4 Q53.2 -3.0 63.9 15.2 68.1 22.25 71.8 29.65 L69.9 29.4 69.1 28.9 68.15 28.2 68.0 27.95 66.3 27.7 66.0 30.25 62.05 23.6 60.95 21.05 Q61.0 22.25 61.2 23.35 63.5 35.85 64.05 48.6 L64.15 48.8 64.3 48.7 64.3 48.6 64.55 44.5 65.95 45.9 Q71.8 52.25 75.9 59.8 75.3 74.75 84.35 86.25 L85.7 87.8 Q84.25 87.8 83.05 86.55 L81.55 85.0 80.65 84.15 79.35 82.85 80.65 86.65 81.55 88.4 82.65 90.05 Q74.15 85.25 70.2 75.5 68.9 72.45 67.2 69.55 L73.3 89.9 72.8 90.2 Q59.25 74.85 59.5 53.8 59.65 41.45 56.15 29.7 50.6 10.9 31.95 5.15 L31.15 4.8 31.65 0.4 M68.85 -13.45 Q60.2 -18.15 50.7 -18.85 L48.3 -18.7 50.9 -20.2 Q60.9 -24.95 71.3 -19.4 71.0 -18.35 69.95 -18.45 L67.75 -17.85 68.85 -13.45 M74.85 -18.05 L75.95 -17.35 Q84.5 -11.95 80.05 -1.8 77.1 -7.9 72.2 -11.75 L71.45 -12.1 71.45 -16.45 71.8 -16.5 Q73.8 -16.35 74.85 -18.05 M58.85 86.4 Q56.1 86.0 54.85 83.45 53.95 81.55 53.5 79.6 53.0 77.35 51.25 75.95 L51.35 74.9 51.1 73.95 50.65 73.25 50.35 72.9 49.85 72.6 49.65 72.55 49.05 74.7 48.75 72.85 Q48.0 59.4 44.3 46.45 40.9 58.0 40.9 70.0 40.9 71.75 39.2 72.45 L39.2 66.95 38.55 61.4 Q37.85 64.45 37.3 67.55 35.55 76.8 36.65 86.1 35.85 86.5 35.05 86.85 28.6 71.2 34.7 54.6 36.0 51.2 36.35 47.5 L37.4 46.4 39.2 42.9 40.85 44.3 Q40.8 42.95 41.05 41.7 42.65 33.0 37.15 26.8 L36.35 29.95 Q34.45 22.7 29.5 17.0 L28.15 15.45 27.45 15.0 29.05 11.8 30.2 12.35 31.55 11.7 Q52.0 17.6 51.95 38.0 51.95 42.5 52.4 46.55 53.95 61.45 54.9 76.35 55.3 82.1 58.85 86.4" fill="url(#gradient0)" fill-rule="evenodd" stroke="none"/>
    <path d="M48.3 -18.7 Q41.3 -15.1 33.7 -13.6 L31.55 -13.15 M41.65 -4.35 Q37.3 -5.4 32.9 -3.85 L31.3 -3.3 M31.65 0.4 Q53.2 -3.0 63.9 15.2 68.1 22.25 71.8 29.65 75.55 43.25 75.95 57.05 L75.9 59.8 Q75.3 74.75 84.35 86.25 L85.7 87.8 Q95.25 95.0 96.8 106.2 L96.8 108.05 Q101.4 96.6 91.0 86.4 86.35 82.0 84.15 75.95 82.7 72.05 81.55 68.1 L80.05 58.7 77.5 36.55 Q75.9 18.6 63.55 5.35 L60.65 2.25 Q53.8 -1.75 45.9 -3.4 L41.65 -4.35 42.4 -5.45 41.8 -7.75 50.4 -5.05 51.95 -5.05 54.55 -5.9 56.1 -6.7 58.05 -5.7 59.1 -3.8 Q60.65 -0.95 60.65 2.25 M30.05 -18.65 Q46.3 -22.0 61.35 -25.8 65.25 -26.9 69.9 -25.0 L85.25 -18.8 Q87.85 -10.4 85.2 -1.95 L83.1 4.35 Q97.1 21.55 90.75 41.95 L90.2 42.5 89.4 44.75 Q83.65 55.9 81.55 68.1 M71.3 -19.4 Q60.9 -24.95 50.9 -20.2 L48.3 -18.7 50.7 -18.85 Q60.2 -18.15 68.85 -13.45 L67.75 -17.85 69.95 -18.45 Q71.0 -18.35 71.3 -19.4 L74.85 -18.05 75.95 -17.35 Q84.5 -11.95 80.05 -1.8 L83.1 4.35 M74.85 -18.05 Q73.8 -16.35 71.8 -16.5 L71.45 -16.45 71.45 -12.1 72.2 -11.75 Q77.1 -7.9 80.05 -1.8 M68.85 -13.45 L71.45 -12.1 M30.6 -8.8 Q51.65 -18.55 69.55 -5.4 84.45 5.7 88.25 25.45 89.55 31.9 87.9 38.1 L87.95 38.15 M87.9 38.15 L80.7 56.0 Q80.2 57.25 80.05 58.7 M87.9 38.1 L87.9 38.15 M87.9 38.1 L87.0 34.75 84.9 37.85 83.85 30.05 Q82.55 22.0 76.2 17.15 76.45 19.1 77.05 20.95 79.7 28.7 77.5 36.55 M85.7 87.8 Q84.25 87.8 83.05 86.55 L81.55 85.0 80.65 84.15 79.35 82.85 80.65 86.65 81.55 88.4 82.65 90.05 Q74.15 85.25 70.2 75.5 68.9 72.45 67.2 69.55 L73.3 89.9 73.6 90.25 74.75 91.15 75.15 91.4 Q76.3 92.1 77.6 92.65 85.2 96.1 85.95 103.65 L85.75 104.9 85.5 103.65 82.95 100.75 Q81.0 98.65 78.6 97.75 67.45 94.05 58.85 86.4 56.1 86.0 54.85 83.45 53.95 81.55 53.5 79.6 53.0 77.35 51.25 75.95 L51.35 74.9 51.1 73.95 50.65 73.25 50.35 72.9 49.85 72.6 49.65 72.55 49.05 74.7 48.75 72.85 Q48.0 59.4 44.3 46.45 40.9 58.0 40.9 70.0 40.9 71.75 39.2 72.45 L39.2 66.95 38.55 61.4 Q37.85 64.45 37.3 67.55 35.55 76.8 36.65 86.1 L37.2 89.5 37.75 91.0 37.65 91.55 42.4 96.6 Q25.55 85.6 29.7 64.65 32.7 49.2 31.25 33.75 30.45 25.4 23.5 21.7 M27.45 15.15 L27.45 15.0 M31.15 5.35 L31.15 4.8 M71.8 29.65 L69.9 29.4 69.1 28.9 68.15 28.2 68.0 27.95 66.3 27.7 66.0 30.25 62.05 23.6 60.95 21.05 Q61.0 22.25 61.2 23.35 63.5 35.85 64.05 48.6 L64.15 48.8 64.3 48.7 64.3 48.6 64.55 44.5 65.95 45.9 Q71.8 52.25 75.9 59.8 M30.2 12.35 L31.55 11.7 Q52.0 17.6 51.95 38.0 51.95 42.5 52.4 46.55 53.95 61.45 54.9 76.35 55.3 82.1 58.85 86.4 M37.4 46.4 L39.2 42.9 40.85 44.3 Q40.8 42.95 41.05 41.7 42.65 33.0 37.15 26.8 L36.35 29.95 36.7 34.05 Q37.2 40.75 36.35 47.5 M31.95 5.15 L31.15 4.8 M36.35 29.95 Q34.45 22.7 29.5 17.0 L28.15 15.45 M36.45 89.5 L37.65 91.55 M35.05 86.85 L36.45 89.5 M35.05 86.85 Q28.6 71.2 34.7 54.6 36.0 51.2 36.35 47.5 M72.8 90.2 L73.3 90.45 74.75 91.15 74.9 91.4 M72.8 90.2 Q59.25 74.85 59.5 53.8 59.65 41.45 56.15 29.7 50.6 10.9 31.95 5.15" fill="none" stroke="#000000" stroke-linecap="round" stroke-linejoin="round" stroke-width="1.0"/>
  </g>
  <defs>
    <linearGradient gradientTransform="matrix(0.0268, 0.0364, -0.016, 0.0118, 161.45, -46.55)" gradientUnits="userSpaceOnUse" id="gradient0" spreadMethod="pad" x1="-819.2" x2="819.2">
      <stop offset="0.0" stop-color="#182714" stop-opacity="0.8627451"/>
      <stop offset="1.0" stop-color="#41793c" stop-opacity="0.7529412"/>
    </linearGradient>
  </defs>
</svg>
