<?xml version="1.0" encoding="UTF-8" standalone="no"?>
<svg xmlns:xlink="http://www.w3.org/1999/xlink" height="143.45px" width="184.15px" xmlns="http://www.w3.org/2000/svg">
  <g transform="matrix(1.0, 0.0, 0.0, 1.0, 74.0, 46.75)">
    <path d="M-42.3 -2.9 L-45.8 -5.75 M-16.2 -39.75 Q-18.1 -38.55 -18.95 -36.55 L-19.3 -35.7 -16.6 -34.7 -17.45 -32.35 -18.05 -32.15 -6.75 -30.7 Q-5.4 -30.95 -4.4 -32.2 M-39.75 -19.65 Q-30.35 -12.05 -23.65 -23.5 -21.3 -27.45 -24.0 -31.1 L-25.4 -32.5 -26.25 -32.6 -27.25 -32.1 Q-28.75 -30.8 -28.7 -28.6 -28.65 -26.4 -30.4 -25.1 L-33.35 -25.3 M-25.4 -32.5 Q-26.9 -33.6 -28.95 -33.75 M-38.2 -25.2 L-38.55 -24.75 M7.1 -46.75 Q9.75 -45.75 12.25 -44.1 L13.2 -43.3 M-17.8 14.7 Q-17.75 7.4 -8.9 5.65 1.4 3.7 2.65 -7.2 2.7 -7.85 3.3 -8.45 11.35 -15.9 18.8 -10.25 20.1 -9.2 20.1 -7.15 20.0 8.05 6.55 6.5 3.55 6.3 4.1 3.2 5.7 -6.25 12.6 -1.6 14.15 -0.5 13.15 1.35 10.7 5.75 9.55 1.6 9.45 1.2 9.75 0.75 M-52.55 22.6 Q-52.9 11.8 -42.9 11.75 -35.05 11.7 -27.55 9.5 -30.75 22.3 -41.7 27.75 L-42.75 28.1 Q-44.85 27.05 -43.95 25.0 -42.85 22.6 -40.4 23.25 L-39.55 23.8 -40.2 25.4 M-53.0 3.15 L-51.25 5.75 M-67.3 19.15 L-64.9 19.45 Q-62.35 30.25 -71.4 38.1 L-72.85 39.35 -74.0 38.95" fill="none" stroke="#9900ff" stroke-linecap="round" stroke-linejoin="round" stroke-width="0.05"/>
    <path d="M26.65 -17.75 Q24.7 -22.95 26.45 -23.2 L32.55 -24.55 Q36.85 -25.65 44.2 -20.05 51.5 -14.45 60.05 -5.95 L65.3 -0.8 Q69.45 3.2 74.7 5.75 86.65 11.8 100.0 12.15 104.95 12.3 109.65 10.4 105.0 15.35 98.1 15.9 93.1 16.65 88.0 16.05 L84.65 15.4 Q75.65 13.35 70.25 9.4 63.9 4.75 57.65 -0.45 L55.15 -2.6 Q50.05 -7.2 44.65 -13.55 37.9 -21.45 30.65 -16.25 L26.65 -17.75 M79.4 52.3 Q85.0 56.25 91.9 56.25 95.05 56.25 97.8 54.8 92.55 59.15 86.5 59.4 80.4 59.6 77.15 57.25 L70.4 51.85 Q66.95 48.8 63.7 43.7 L63.55 43.55 Q58.3 37.35 57.1 30.6 55.9 23.7 52.1 18.0 48.25 12.25 41.6 8.55 L35.95 4.8 33.65 2.6 32.9 1.6 Q30.85 -1.75 31.7 -5.75 L33.45 -5.3 Q38.55 -3.85 42.6 -0.05 48.0 5.05 52.55 10.9 58.75 18.85 62.3 28.3 64.6 34.35 68.0 39.8 72.2 46.7 78.6 51.7 L79.35 52.3 79.4 52.3 M38.5 83.75 Q41.8 89.9 46.05 95.45 41.3 94.75 37.65 91.5 36.0 90.0 34.95 88.1 26.85 73.2 29.95 56.35 31.3 49.05 31.85 41.55 32.6 32.0 29.5 23.05 28.45 20.15 28.05 17.0 L28.05 16.95 Q27.7 13.65 30.4 11.35 32.05 11.65 33.25 12.4 35.3 13.7 36.0 16.45 37.65 22.9 37.75 29.65 37.8 32.95 36.65 37.15 35.5 41.35 33.55 49.9 31.55 58.4 32.4 65.2 33.25 72.0 34.6 75.4 36.35 79.7 38.5 83.75" fill="#50882d" fill-rule="evenodd" stroke="none"/>
    <path d="M85.1 16.9 L84.35 17.1 85.3 18.5 80.45 19.05 81.5 20.2 82.15 21.4 82.75 24.15 77.2 21.05 78.0 23.7 Q79.3 27.7 82.25 30.4 L82.5 31.9 81.25 34.35 Q77.15 42.75 79.7 51.8 L79.4 52.3 79.35 52.3 78.6 51.7 Q72.2 46.7 68.0 39.8 64.6 34.35 62.3 28.3 58.75 18.85 52.55 10.9 48.0 5.05 42.6 -0.05 38.55 -3.85 33.45 -5.3 L33.7 -6.3 Q33.65 -10.5 31.8 -14.25 L30.65 -16.25 Q37.9 -21.45 44.65 -13.55 50.05 -7.2 55.15 -2.6 L57.65 -0.45 Q63.9 4.75 70.25 9.4 75.65 13.35 84.65 15.4 L85.1 16.9 M61.45 45.15 Q59.15 45.2 57.1 44.3 L52.9 42.25 54.7 52.1 51.3 52.35 51.95 58.7 48.15 62.7 Q40.2 71.65 39.05 83.45 L38.5 83.75 Q36.35 79.7 34.6 75.4 33.25 72.0 32.4 65.2 31.55 58.4 33.55 49.9 35.5 41.35 36.65 37.15 37.8 32.95 37.75 29.65 37.65 22.9 36.0 16.45 35.3 13.7 33.25 12.4 L33.7 11.65 Q35.35 9.65 35.2 7.05 L35.0 5.85 35.95 4.8 41.6 8.55 Q48.25 12.25 52.1 18.0 55.9 23.7 57.1 30.6 58.3 37.35 63.55 43.55 L61.45 45.15 M76.6 29.9 Q72.35 27.3 70.2 22.85 66.3 14.7 60.7 7.7 57.25 3.3 53.2 -0.4 49.15 -4.15 44.55 -7.2 49.15 -4.15 53.2 -0.4 57.25 3.3 60.7 7.7 66.3 14.7 70.2 22.85 72.35 27.3 76.6 29.9 M48.45 34.7 L47.85 34.05 Q45.4 31.0 45.95 27.0 45.4 31.0 47.85 34.05 L48.45 34.7 M42.15 51.0 Q40.9 39.2 42.7 27.4 L42.8 26.8 Q43.35 21.6 40.1 17.25 43.35 21.6 42.8 26.8 L42.7 27.4 Q40.9 39.2 42.15 51.0" fill="url(#gradient0)" fill-rule="evenodd" stroke="none"/>
    <path d="M26.65 -17.75 Q24.7 -22.95 26.45 -23.2 L32.55 -24.55 Q36.85 -25.65 44.2 -20.05 51.5 -14.45 60.05 -5.95 L65.3 -0.8 Q69.45 3.2 74.7 5.75 86.65 11.8 100.0 12.15 104.95 12.3 109.65 10.4 105.0 15.35 98.1 15.9 93.1 16.65 88.0 16.05 L85.1 16.9 84.35 17.1 85.3 18.5 80.45 19.05 81.5 20.2 82.15 21.4 82.75 24.15 77.2 21.05 78.0 23.7 Q79.3 27.7 82.25 30.4 L82.5 31.9 81.25 34.35 Q77.15 42.75 79.7 51.8 M79.4 52.3 Q85.0 56.25 91.9 56.25 95.05 56.25 97.8 54.8 92.55 59.15 86.5 59.4 80.4 59.6 77.15 57.25 L70.4 51.85 Q66.95 48.8 63.7 43.7 L61.45 45.15 Q59.15 45.2 57.1 44.3 L52.9 42.25 54.7 52.1 51.3 52.35 51.95 58.7 48.15 62.7 Q40.2 71.65 39.05 83.45 M38.5 83.75 Q41.8 89.9 46.05 95.45 L49.6 96.2 M33.7 -6.3 Q33.65 -10.5 31.8 -14.25 L30.65 -16.25 Q37.9 -21.45 44.65 -13.55 50.05 -7.2 55.15 -2.6 L57.65 -0.45 Q63.9 4.75 70.25 9.4 75.65 13.35 84.65 15.4 L88.0 16.05 M31.7 -5.75 L33.45 -5.3 Q38.55 -3.85 42.6 -0.05 48.0 5.05 52.55 10.9 58.75 18.85 62.3 28.3 64.6 34.35 68.0 39.8 72.2 46.7 78.6 51.7 L79.35 52.3 79.4 52.3 M63.55 43.55 Q58.3 37.35 57.1 30.6 55.9 23.7 52.1 18.0 48.25 12.25 41.6 8.55 L35.95 4.8 33.65 2.6 M35.0 5.85 L35.2 7.05 Q35.35 9.65 33.7 11.65 M33.25 12.4 Q35.3 13.7 36.0 16.45 37.65 22.9 37.75 29.65 37.8 32.95 36.65 37.15 35.5 41.35 33.55 49.9 31.55 58.4 32.4 65.2 33.25 72.0 34.6 75.4 36.35 79.7 38.5 83.75 M63.7 43.7 L63.55 43.55 M28.05 16.95 L28.05 17.0 Q28.45 20.15 29.5 23.05 32.6 32.0 31.85 41.55 31.3 49.05 29.95 56.35 26.85 73.2 34.95 88.1 36.0 90.0 37.65 91.5 41.3 94.75 46.05 95.45 M33.25 12.4 Q32.05 11.65 30.4 11.35" fill="none" stroke="#000000" stroke-linecap="round" stroke-linejoin="round" stroke-width="1.0"/>
    <path d="M44.55 -7.2 Q49.15 -4.15 53.2 -0.4 57.25 3.3 60.7 7.7 66.3 14.7 70.2 22.85 72.35 27.3 76.6 29.9 M40.1 17.25 Q43.35 21.6 42.8 26.8 L42.7 27.4 Q40.9 39.2 42.15 51.0 M45.95 27.0 Q45.4 31.0 47.85 34.05 L48.45 34.7" fill="none" stroke="#006600" stroke-linecap="round" stroke-linejoin="round" stroke-width="1.0"/>
  </g>
  <defs>
    <linearGradient gradientTransform="matrix(0.033, 0.0159, -0.007, 0.0145, 75.85, -45.15)" gradientUnits="userSpaceOnUse" id="gradient0" spreadMethod="pad" x1="-819.2" x2="819.2">
      <stop offset="0.0" stop-color="#31552b" stop-opacity="0.8627451"/>
      <stop offset="1.0" stop-color="#41793c" stop-opacity="0.7529412"/>
    </linearGradient>
  </defs>
</svg>
