<?xml version="1.0" encoding="UTF-8" standalone="no"?>
<svg xmlns:xlink="http://www.w3.org/1999/xlink" height="32.0px" width="30.6px" xmlns="http://www.w3.org/2000/svg">
  <g transform="matrix(1.0, 0.0, 0.0, 1.0, 22.6, 16.0)">
    <path d="M5.35 -4.0 Q7.0 -2.35 7.0 0.0 7.0 2.35 5.35 4.0 3.8 5.5 1.7 5.65 L1.7 15.0 -12.85 4.8 -21.6 4.8 -21.6 -4.8 -12.9 -4.8 1.7 -15.0 1.7 -5.6 Q3.8 -5.5 5.35 -4.0 M-12.9 -4.8 L-12.55 -4.8 -12.55 4.8 -12.85 4.8 -12.55 4.8 -12.55 -4.8 -12.9 -4.8 M1.7 -5.6 L1.7 5.65 1.7 -5.6" fill="#ffcc99" fill-rule="evenodd" stroke="none"/>
    <path d="M5.35 -4.0 Q7.0 -2.35 7.0 0.0 7.0 2.35 5.35 4.0 3.8 5.5 1.7 5.65 L1.7 15.0 -12.85 4.8 -21.6 4.8 -21.6 -4.8 -12.9 -4.8 1.7 -15.0 1.7 -5.6 Q3.8 -5.5 5.35 -4.0 M1.7 5.65 L1.7 -5.6 M-12.85 4.8 L-12.55 4.8 -12.55 -4.8 -12.9 -4.8" fill="none" stroke="#53371c" stroke-linecap="round" stroke-linejoin="round" stroke-width="2.0"/>
  </g>
</svg>
