<?xml version="1.0" encoding="UTF-8" standalone="no"?>
<svg xmlns:xlink="http://www.w3.org/1999/xlink" height="43.1px" width="49.95px" xmlns="http://www.w3.org/2000/svg">
  <g transform="matrix(1.0, 0.0, 0.0, 1.0, 25.9, -9.25)">
    <path d="M23.8 9.25 Q23.2 9.85 22.15 10.15 L21.15 10.55 Q19.6 11.75 17.25 12.3 16.95 12.35 16.8 12.5 15.1 14.1 13.75 16.05 L13.15 16.6 6.6 19.85 6.15 20.25 Q4.45 22.55 3.15 25.0 M24.05 10.3 L23.6 10.45 23.0 10.6 22.45 10.75 22.15 10.8 Q21.25 10.8 20.65 11.45 L20.25 11.9 Q20.1 12.2 19.55 12.25 18.05 12.4 17.0 13.35 L16.55 13.7 15.7 14.6 14.25 16.3 13.95 16.75 13.15 17.45 Q11.15 18.3 9.25 19.3 L8.85 19.45 Q7.15 20.05 6.4 20.8 L5.9 21.2 Q4.85 22.05 4.3 23.6 M-3.5 34.25 Q0.4 38.55 2.25 44.3 3.55 48.25 4.0 52.35 M-23.35 36.25 Q-25.25 37.65 -25.7 40.25 L-25.9 40.85" fill="none" stroke="#b9a882" stroke-linecap="round" stroke-linejoin="round" stroke-width="0.05"/>
  </g>
</svg>
