<?xml version="1.0" encoding="UTF-8" standalone="no"?>
<svg xmlns:xlink="http://www.w3.org/1999/xlink" height="159.05px" width="132.2px" xmlns="http://www.w3.org/2000/svg">
  <g transform="matrix(1.0, 0.0, 0.0, 1.0, 51.15, 71.7)">
    <path d="M-47.25 35.7 Q-44.4 29.3 -41.7 24.35 -39.1 19.65 -36.65 11.7 L-37.0 10.05 -37.0 9.2 -36.95 8.75 -42.6 2.35 -50.65 -4.65 -36.65 -20.7 Q-36.85 -30.2 -38.1 -39.65 -38.85 -45.1 -40.4 -50.45 -42.3 -57.05 -44.55 -63.5 -45.35 -65.8 -45.5 -68.2 L-45.45 -70.6 Q-44.6 -71.2 -43.6 -71.2 -42.4 -71.2 -41.5 -70.2 -35.0 -63.15 -25.95 -60.2 -16.55 -57.2 -8.9 -51.15 -6.15 -48.9 -4.95 -45.6 -4.45 -44.2 -3.55 -43.05 L-2.5 -42.1 Q9.4 -43.25 21.05 -39.65 L23.5 -38.75 Q31.95 -46.75 42.7 -51.35 L45.65 -53.0 Q52.6 -58.05 58.2 -64.4 62.55 -58.55 63.25 -51.15 64.25 -41.1 63.6 -31.05 L63.05 -26.9 Q60.05 -11.9 47.4 -3.6 L44.8 -2.0 42.6 -14.4 44.8 -2.0 Q45.55 8.6 47.4 19.0 48.05 22.85 49.15 26.6 51.0 32.75 49.35 38.85 48.25 43.05 46.25 46.85 L44.9 42.1 40.7 32.25 44.9 42.1 Q43.9 47.85 39.5 51.35 L38.3 52.2 Q39.2 55.65 37.95 59.0 36.25 63.4 34.05 67.5 31.45 72.2 28.2 76.5 19.15 79.7 10.45 79.45 -4.5 79.05 -18.45 73.9 L-15.7 65.45 -20.1 64.8 Q-31.45 62.05 -42.3 57.4 L-43.35 56.55 -44.25 55.3 Q-48.85 47.25 -47.7 37.6 L-47.75 36.8 -46.7 35.7 -47.25 35.7 M30.5 -21.3 Q33.3 -20.05 36.35 -19.8 40.25 -19.65 43.4 -21.95 51.95 -28.15 54.65 -38.6 49.45 -36.4 44.35 -34.0 38.5 -31.4 32.95 -28.2 28.5 -25.55 30.5 -21.3 28.5 -25.55 32.95 -28.2 38.5 -31.4 44.35 -34.0 49.45 -36.4 54.65 -38.6 51.95 -28.15 43.4 -21.95 40.25 -19.65 36.35 -19.8 33.3 -20.05 30.5 -21.3 M28.2 -9.8 L27.6 -9.3 25.65 -10.3 Q24.35 -11.1 23.05 -11.25 L10.5 -10.7 Q4.55 -9.75 -1.1 -7.95 -5.85 -6.35 -6.9 -0.6 -5.85 -6.35 -1.1 -7.95 4.55 -9.75 10.5 -10.7 L23.05 -11.25 Q24.35 -11.1 25.65 -10.3 L27.6 -9.3 28.2 -9.8 M19.0 -28.8 Q20.0 -32.9 22.05 -36.5 L23.5 -38.75 22.05 -36.5 Q20.0 -32.9 19.0 -28.8 M-32.25 20.1 L-46.7 35.7 -32.25 20.1 M-43.35 56.55 Q-40.4 52.75 -38.8 47.9 L-37.95 45.25 -38.8 47.9 Q-40.4 52.75 -43.35 56.55 M-42.6 2.35 L-23.7 2.95 -23.0 18.95 -26.5 14.45 -32.8 13.95 Q-35.75 13.95 -36.65 11.7 -35.75 13.95 -32.8 13.95 L-26.5 14.45 -23.0 18.95 -23.7 2.95 -42.6 2.35 M-4.6 14.9 Q-3.2 13.35 -2.9 11.55 L0.8 13.2 Q7.3 15.6 13.15 12.1 L13.55 6.7 20.6 2.0 Q9.35 0.4 -2.2 1.85 L-3.35 4.15 Q-4.35 6.45 -4.8 8.9 -5.6 13.15 -7.5 17.0 L-6.9 16.8 -4.6 14.9 -6.9 16.8 -7.5 17.0 Q-5.6 13.15 -4.8 8.9 -4.35 6.45 -3.35 4.15 L-2.2 1.85 Q9.35 0.4 20.6 2.0 L13.55 6.7 13.15 12.1 Q7.3 15.6 0.8 13.2 L-2.9 11.55 Q-3.2 13.35 -4.6 14.9 M-5.75 18.95 L-6.35 22.4 -25.35 33.95 -6.35 22.4 -5.75 18.95 M-41.45 -6.95 Q-35.55 -8.9 -29.25 -7.0 L-27.25 -6.2 Q-23.35 -3.9 -21.3 0.55 -23.35 -3.9 -27.25 -6.2 L-29.25 -7.0 Q-35.55 -8.9 -41.45 -6.95 M-12.65 -40.3 L-2.5 -42.1 -12.65 -40.3 M-31.2 -29.2 L-27.4 -38.05 -27.2 -38.55 Q-26.4 -41.0 -27.75 -43.2 -29.2 -45.6 -31.65 -47.3 -34.4 -49.15 -36.25 -51.8 L-35.45 -49.8 Q-32.35 -39.9 -31.2 -29.2 L-36.65 -20.7 -31.2 -29.2 Q-32.35 -39.9 -35.45 -49.8 L-36.25 -51.8 Q-34.4 -49.15 -31.65 -47.3 -29.2 -45.6 -27.75 -43.2 -26.4 -41.0 -27.2 -38.55 L-27.4 -38.05 -31.2 -29.2 M-37.95 45.25 L-37.85 45.2 Q-36.15 45.2 -34.9 44.35 -31.35 42.2 -29.1 38.5 L-27.65 36.25 -46.7 35.7 -27.65 36.25 -29.1 38.5 Q-31.35 42.2 -34.9 44.35 -36.15 45.2 -37.85 45.2 L-37.95 45.15 -37.95 45.25 -41.95 45.05 -47.7 37.6 -41.95 45.05 -37.95 45.25 M-42.3 57.4 L-29.85 58.0 -31.25 56.5 Q-32.55 56.2 -33.1 55.2 -35.9 50.35 -37.85 45.2 -35.9 50.35 -33.1 55.2 -32.55 56.2 -31.25 56.5 -19.55 57.55 -7.9 55.4 -7.15 55.3 -6.65 54.75 -2.1 50.25 3.85 47.55 5.35 46.8 7.05 46.45 L12.1 45.45 7.05 46.45 Q5.35 46.8 3.85 47.55 -2.1 50.25 -6.65 54.75 -7.15 55.3 -7.9 55.4 -19.55 57.55 -31.25 56.5 L-29.85 58.0 -42.3 57.4 M25.9 37.4 Q26.1 42.55 27.35 47.4 28.15 50.4 26.75 53.75 21.25 59.5 14.7 63.4 L14.2 63.55 14.4 59.0 13.8 49.45 14.4 59.0 14.2 63.55 14.7 63.4 Q21.25 59.5 26.75 53.75 28.15 50.4 27.35 47.4 26.1 42.55 25.9 37.4 M42.0 1.15 L44.8 -2.0 42.0 1.15 M26.75 53.75 L26.5 56.0 25.95 57.5 25.3 58.45 26.5 58.3 Q33.2 56.75 38.3 52.2 33.2 56.75 26.5 58.3 L25.3 58.45 25.95 57.5 26.5 56.0 26.75 53.75 M14.4 59.0 Q11.5 60.6 8.7 61.8 6.2 63.05 3.6 63.6 -6.05 63.9 -15.7 65.45 -6.05 63.9 3.6 63.6 6.2 63.05 8.7 61.8 11.5 60.6 14.4 59.0" fill="#445907" fill-rule="evenodd" stroke="none"/>
    <path d="M47.4 -3.6 Q52.45 -0.25 53.25 5.7 54.55 15.7 55.35 25.8 55.45 27.25 56.0 28.7 58.1 34.2 62.0 38.75 L64.35 42.0 Q67.95 48.05 67.8 55.2 67.65 60.6 69.35 65.85 70.05 68.0 71.3 69.9 74.5 74.75 77.25 79.75 79.2 83.25 80.55 86.85 64.8 77.9 47.3 73.55 43.4 72.7 40.6 69.8 39.25 68.4 34.05 67.5 36.25 63.4 37.95 59.0 39.2 55.65 38.3 52.2 L39.5 51.35 Q43.9 47.85 44.9 42.1 L46.25 46.85 Q48.25 43.05 49.35 38.85 51.0 32.75 49.15 26.6 48.05 22.85 47.4 19.0 45.55 8.6 44.8 -2.0 L47.4 -3.6" fill="url(#gradient0)" fill-rule="evenodd" stroke="none"/>
    <path d="M-47.25 35.7 Q-44.4 29.3 -41.7 24.35 -39.1 19.65 -36.65 11.7 L-37.0 10.05 -37.0 9.2 -36.95 8.75 -42.6 2.35 -50.65 -4.65 -36.65 -20.7 Q-36.85 -30.2 -38.1 -39.65 -38.85 -45.1 -40.4 -50.45 -42.3 -57.05 -44.55 -63.5 -45.35 -65.8 -45.5 -68.2 L-45.45 -70.6 Q-44.6 -71.2 -43.6 -71.2 -42.4 -71.2 -41.5 -70.2 -35.0 -63.15 -25.95 -60.2 -16.55 -57.2 -8.9 -51.15 -6.15 -48.9 -4.95 -45.6 -4.45 -44.2 -3.55 -43.05 L-2.5 -42.1 Q9.4 -43.25 21.05 -39.65 L23.5 -38.75 Q31.95 -46.75 42.7 -51.35 L45.65 -53.0 Q52.6 -58.05 58.2 -64.4 62.55 -58.55 63.25 -51.15 64.25 -41.1 63.6 -31.05 L63.05 -26.9 Q60.05 -11.9 47.4 -3.6 52.45 -0.25 53.25 5.7 54.55 15.7 55.35 25.8 55.45 27.25 56.0 28.7 58.1 34.2 62.0 38.75 L64.35 42.0 Q67.95 48.05 67.8 55.2 67.65 60.6 69.35 65.85 70.05 68.0 71.3 69.9 74.5 74.75 77.25 79.75 79.2 83.25 80.55 86.85 64.8 77.9 47.3 73.55 43.4 72.7 40.6 69.8 39.25 68.4 34.05 67.5 31.45 72.2 28.2 76.5 19.15 79.7 10.45 79.45 -4.5 79.05 -18.45 73.9 L-15.7 65.45 -20.1 64.8 Q-31.45 62.05 -42.3 57.4 L-43.35 56.55 -44.25 55.3 Q-48.85 47.25 -47.7 37.6 L-47.75 36.8 -47.25 35.7 -46.7 35.7 -32.25 20.1 M23.5 -38.75 L22.05 -36.5 Q20.0 -32.9 19.0 -28.8 M-6.9 -0.6 Q-5.85 -6.35 -1.1 -7.95 4.55 -9.75 10.5 -10.7 L23.05 -11.25 Q24.35 -11.1 25.65 -10.3 L27.6 -9.3 28.2 -9.8 M30.5 -21.3 Q28.5 -25.55 32.95 -28.2 38.5 -31.4 44.35 -34.0 49.45 -36.4 54.65 -38.6 51.95 -28.15 43.4 -21.95 40.25 -19.65 36.35 -19.8 33.3 -20.05 30.5 -21.3 M42.6 -14.4 L44.8 -2.0 47.4 -3.6 M-36.65 -20.7 L-31.2 -29.2 Q-32.35 -39.9 -35.45 -49.8 L-36.25 -51.8 Q-34.4 -49.15 -31.65 -47.3 -29.2 -45.6 -27.75 -43.2 -26.4 -41.0 -27.2 -38.55 L-27.4 -38.05 -31.2 -29.2 M-2.5 -42.1 L-12.65 -40.3 M-21.3 0.55 Q-23.35 -3.9 -27.25 -6.2 L-29.25 -7.0 Q-35.55 -8.9 -41.45 -6.95 M-25.35 33.95 L-6.35 22.4 -5.75 18.95 M-4.6 14.9 L-6.9 16.8 -7.5 17.0 Q-5.6 13.15 -4.8 8.9 -4.35 6.45 -3.35 4.15 L-2.2 1.85 Q9.35 0.4 20.6 2.0 L13.55 6.7 13.15 12.1 Q7.3 15.6 0.8 13.2 L-2.9 11.55 Q-3.2 13.35 -4.6 14.9 M-36.65 11.7 Q-35.75 13.95 -32.8 13.95 L-26.5 14.45 -23.0 18.95 -23.7 2.95 -42.6 2.35 M-37.95 45.25 L-38.8 47.9 Q-40.4 52.75 -43.35 56.55 M-37.85 45.2 L-37.95 45.25 -41.95 45.05 -47.7 37.6 M-37.85 45.2 Q-36.15 45.2 -34.9 44.35 -31.35 42.2 -29.1 38.5 L-27.65 36.25 -46.7 35.7 -47.75 36.8 M-37.95 45.25 L-37.95 45.15 -37.85 45.2 Q-35.9 50.35 -33.1 55.2 -32.55 56.2 -31.25 56.5 -19.55 57.55 -7.9 55.4 -7.15 55.3 -6.65 54.75 -2.1 50.25 3.85 47.55 5.35 46.8 7.05 46.45 L12.1 45.45 M-31.25 56.5 L-29.85 58.0 -42.3 57.4 M44.9 42.1 L46.25 46.85 Q48.25 43.05 49.35 38.85 51.0 32.75 49.15 26.6 48.05 22.85 47.4 19.0 45.55 8.6 44.8 -2.0 L42.0 1.15 M44.9 42.1 L40.7 32.25 M13.8 49.45 L14.4 59.0 14.2 63.55 14.7 63.4 Q21.25 59.5 26.75 53.75 28.15 50.4 27.35 47.4 26.1 42.55 25.9 37.4 M34.05 67.5 Q36.25 63.4 37.95 59.0 39.2 55.65 38.3 52.2 33.2 56.75 26.5 58.3 L25.3 58.45 25.95 57.5 26.5 56.0 26.75 53.75 M38.3 52.2 L39.5 51.35 Q43.9 47.85 44.9 42.1 M-15.7 65.45 Q-6.05 63.9 3.6 63.6 6.2 63.05 8.7 61.8 11.5 60.6 14.4 59.0" fill="none" stroke="#000000" stroke-linecap="round" stroke-linejoin="round" stroke-width="1.0"/>
  </g>
  <defs>
    <radialGradient cx="0" cy="0" gradientTransform="matrix(0.1453, 0.0, 0.0, 0.0963, 0.0, -28.0)" gradientUnits="userSpaceOnUse" id="gradient0" r="819.2" spreadMethod="pad">
      <stop offset="0.0" stop-color="#c39d4f"/>
      <stop offset="0.20392156862745098" stop-color="#eed7a3"/>
      <stop offset="0.33725490196078434" stop-color="#fff5e6"/>
      <stop offset="0.5176470588235295" stop-color="#aa874f"/>
      <stop offset="1.0" stop-color="#c39d4f"/>
    </radialGradient>
  </defs>
</svg>
