<?xml version="1.0" encoding="UTF-8" standalone="no"?>
<svg xmlns:xlink="http://www.w3.org/1999/xlink" height="120.0px" width="99.8px" xmlns="http://www.w3.org/2000/svg">
  <g transform="matrix(1.0, 0.0, 0.0, 1.0, 47.7, 51.8)">
    <path d="M-23.6 -32.8 L-5.65 -39.5 -4.05 -39.75 0.05 -39.4 2.85 -39.0 5.75 -38.8 8.2 -38.25 9.15 -37.85 13.75 -36.65 14.45 -36.35 17.5 -34.25 18.25 -34.2 19.15 -34.9 21.25 -36.35 Q30.95 -42.0 41.5 -45.25 L43.1 -45.7 43.8 -45.85 Q46.25 -46.3 48.5 -47.55 L49.5 -47.9 Q51.75 -48.3 51.5 -46.0 51.8 -43.35 51.2 -41.45 49.65 -36.25 47.7 -31.1 L47.1 -30.0 Q44.5 -26.05 43.4 -21.4 L42.8 -19.5 Q41.55 -16.6 39.15 -16.15 38.0 -16.15 38.95 -14.85 39.95 -13.6 40.1 -12.1 40.45 -9.2 41.1 -6.4 L41.2 -5.75 Q41.45 -2.65 42.35 0.1 L42.8 1.65 Q43.45 4.35 43.3 7.45 L42.95 12.05 42.85 13.2 42.3 19.0 41.7 21.9 Q41.45 22.75 41.35 23.6 40.5 29.55 38.6 33.4 37.45 35.65 36.45 38.05 L35.5 40.2 35.25 40.9 Q35.1 41.45 35.1 42.0 M-13.25 -9.8 L-12.55 -10.25 2.9 -20.1 Q4.95 -21.45 6.4 -22.2 L7.4 -22.65 8.1 -22.95 Q10.05 -24.2 12.7 -24.45 14.25 -24.6 15.1 -25.1 L16.1 -25.35 20.7 -25.15 Q21.3 -25.1 21.75 -24.65 23.05 -23.5 23.9 -21.2 L24.35 -19.65 Q25.8 -14.0 25.5 -7.5 L25.05 1.15 24.8 1.75 Q22.9 4.2 18.4 4.0 L17.3 3.85 16.7 3.45 M-40.3 4.0 Q-41.85 4.1 -42.4 3.3 L-43.55 1.1 Q-44.55 -1.5 -44.4 -5.2 L-44.05 -9.75 -43.0 -15.5 -42.85 -16.7 Q-42.75 -20.25 -39.2 -19.55 -38.6 -20.45 -38.1 -21.95 -37.7 -23.0 -38.3 -23.8 L-38.65 -24.75 Q-39.75 -30.15 -42.05 -35.1 -43.85 -39.0 -45.1 -43.15 L-46.25 -47.15 Q-46.55 -48.25 -46.4 -49.45 -46.25 -50.75 -47.2 -50.65 -46.45 -51.65 -44.3 -51.15 L-38.55 -50.0 Q-35.45 -49.45 -32.85 -47.7 -31.4 -46.7 -30.35 -45.65 L-29.35 -44.85 -23.8 -41.2 -22.95 -40.35 Q-21.6 -38.4 -19.55 -36.85 M-15.55 -8.1 Q-17.05 -9.65 -19.5 -10.55 L-20.1 -11.0 Q-22.6 -14.1 -28.25 -15.95 L-31.0 -16.95 -33.4 -17.9 Q-35.2 -18.65 -36.85 -19.05 L-39.15 -19.55 -39.2 -19.55 -39.7 -19.0 M11.5 0.55 L5.7 0.9 4.1 1.4 Q-0.95 3.0 -3.65 6.15 L-5.0 7.6 -5.75 8.6 Q-7.6 11.6 -7.95 16.1 -7.3 17.05 -5.2 16.9 L0.55 16.45 3.4 15.95 Q8.55 14.3 9.95 8.65 L10.15 7.45 Q10.35 4.6 10.1 1.7 L9.95 1.1 8.6 1.15 M-23.95 16.7 Q-24.35 17.65 -25.3 17.5 -27.7 17.1 -30.45 16.05 -31.05 15.8 -31.7 15.7 -37.05 14.9 -38.2 9.85 -37.75 7.75 -36.75 5.2 -35.9 2.9 -34.45 1.25 -33.2 -0.15 -30.55 0.3 -28.3 0.7 -26.9 2.15 L-26.15 3.05 Q-24.75 4.95 -24.0 8.0 L-23.85 8.65 Q-23.6 10.65 -23.6 12.65 L-23.8 15.45 -23.95 16.7 -24.05 18.95 Q-24.05 24.9 -25.0 30.45 L-25.1 31.1 -25.3 36.8 Q-25.1 42.75 -26.05 48.25 L-26.3 49.5 -26.75 51.1 -27.5 53.55 Q-27.65 54.1 -27.95 54.4 -29.85 56.55 -27.95 58.45 L-26.9 59.05 Q-25.15 60.25 -23.8 61.75 -20.95 64.95 -17.1 67.05 L-16.2 67.4 Q-15.5 68.25 -14.35 66.8 -14.1 66.45 -13.8 66.45 -12.6 66.5 -12.45 65.65 -12.35 65.3 -12.05 65.1 -8.95 63.3 -6.95 60.4 L-6.7 60.05 -5.9 58.65 Q-5.3 57.4 -5.25 55.8 -5.2 54.35 -5.5 53.0 -5.95 50.8 -5.8 47.75 -5.75 47.2 -6.05 46.8 -6.75 45.85 -6.45 43.7 -6.35 43.15 -6.6 42.65 -7.1 41.6 -7.0 39.7 -6.9 38.0 -7.1 36.3 L-7.3 35.05 -7.75 31.7 -8.0 28.75 -8.3 25.35 -8.4 24.7 Q-8.65 23.0 -8.4 21.3 L-8.25 20.65 -8.05 18.95 -7.95 16.1 M-28.8 54.1 L-32.85 46.65 Q-33.75 45.05 -36.25 44.25 -38.8 43.45 -40.3 42.0 -41.65 40.7 -40.55 38.45 L-40.2 37.45 Q-39.65 34.9 -39.75 32.2 -39.95 26.05 -40.9 20.1 L-41.4 16.65 Q-41.75 13.8 -40.85 11.5 M35.25 40.9 Q34.8 41.15 35.1 41.5 34.5 42.0 34.3 42.45 33.25 44.55 29.95 45.1 L29.35 45.15 Q23.3 45.25 17.9 46.75 11.85 48.4 6.3 51.2 L5.25 51.9 Q1.1 55.6 -3.05 58.5 L-4.4 59.5 Q-6.2 60.85 -6.7 60.05 M35.25 40.9 L35.65 37.95" fill="none" stroke="#000000" stroke-linecap="round" stroke-linejoin="round" stroke-width="1.0"/>
  </g>
</svg>
