<?xml version="1.0" encoding="UTF-8" standalone="no"?>
<svg xmlns:xlink="http://www.w3.org/1999/xlink" height="121.7px" width="118.05px" xmlns="http://www.w3.org/2000/svg">
  <g transform="matrix(1.0, 0.0, 0.0, 1.0, 68.4, 59.8)">
    <path d="M-23.6 57.55 Q-23.6 57.0 -24.25 56.8 L-25.3 57.05 -28.55 57.5 -32.25 58.05 -33.3 58.35 -35.1 58.75 -46.6 59.85 -50.65 60.2 -59.3 60.15 -61.5 59.6 Q-63.75 58.5 -65.15 55.85 L-66.45 53.65 Q-67.4 52.05 -67.75 50.55 -68.35 48.0 -66.2 47.15 L-65.05 46.65 -61.4 45.0 Q-61.7 43.7 -61.55 42.0 -61.25 38.5 -62.0 36.2 -62.15 35.7 -61.85 35.4 -61.55 35.1 -61.05 34.9 L-60.4 34.7 Q-57.4 33.8 -55.25 32.8 L-53.05 31.5 Q-48.8 28.65 -45.05 24.65 L-44.15 23.75 Q-42.25 21.75 -41.6 19.5 L-41.15 18.7 -40.75 18.0 -40.7 17.75 Q-40.55 17.05 -40.7 16.1 -41.15 13.15 -41.95 10.35 L-43.05 5.75 Q-43.15 5.2 -43.4 4.75 -43.85 3.85 -43.8 2.3 L-43.95 0.6 Q-44.5 -1.55 -44.05 -4.55 L-44.0 -5.2 Q-44.0 -8.65 -43.05 -10.9 L-42.85 -11.55 Q-42.85 -13.5 -42.1 -14.45 -41.05 -15.85 -40.75 -17.3 -40.3 -19.9 -39.05 -21.85 L-38.7 -22.5 -38.2 -23.7 -38.65 -24.05 Q-45.15 -29.2 -50.1 -35.65 L-52.5 -38.5 Q-56.75 -43.15 -56.3 -49.5 -56.15 -51.7 -53.55 -52.4 L-51.8 -52.65 Q-49.15 -52.55 -47.05 -50.85 -40.3 -45.4 -32.25 -42.05 -28.1 -40.35 -24.4 -37.95 L-23.65 -38.65 Q-21.2 -41.0 -17.9 -42.7 -16.4 -43.5 -14.85 -44.1 L-12.2 -45.15 Q-7.05 -47.35 -1.15 -47.25 L5.15 -47.0 6.35 -46.8 Q9.05 -46.05 12.1 -46.0 16.8 -45.95 20.7 -44.35 L21.9 -43.85 22.25 -43.7 Q25.7 -48.85 30.1 -53.35 32.7 -56.0 35.6 -58.25 L36.8 -59.3 Q38.1 -58.6 38.9 -56.9 L39.9 -54.8 Q41.85 -50.55 42.8 -46.1 43.5 -42.95 42.45 -39.8 41.05 -35.35 39.15 -31.1 L39.75 -30.7 Q40.8 -30.45 41.3 -29.3 L42.7 -25.4 43.05 -24.15 Q44.55 -18.65 46.75 -13.3 L46.9 -12.7 Q47.0 -10.8 47.8 -9.85 L48.05 -9.25 48.35 4.0 Q48.35 4.6 48.6 4.95 49.15 5.8 48.85 6.9 48.6 7.75 48.6 8.6 L48.7 9.8 49.1 12.6 49.15 13.75 Q48.55 17.85 48.85 22.45 L48.65 24.1 Q47.45 28.2 47.25 32.8 L47.0 34.45 46.2 37.45 45.8 38.45 Q44.5 41.0 44.7 44.3 44.9 47.2 44.3 50.1 L42.0 50.5 Q41.45 50.6 41.3 50.85 40.95 51.55 39.65 51.35 L38.05 51.45 35.1 52.05 28.95 52.4 Q28.3 53.0 27.55 53.3 L26.65 53.75 Q25.0 54.9 21.85 55.85 L11.5 58.75 9.8 59.0 Q7.0 59.1 4.65 59.95 L2.25 60.8 Q0.15 61.65 -2.25 61.25 -6.35 60.6 -10.95 61.05 -14.95 61.4 -18.4 60.35 L-19.3 59.7 Q-20.35 58.05 -20.8 55.25 -21.0 54.1 -21.55 53.1 L-21.85 52.45 Q-22.85 52.55 -22.2 51.85 -22.65 49.65 -22.5 46.6 -22.45 46.05 -22.7 45.9 -23.4 45.55 -23.25 44.25 -23.05 42.6 -23.25 40.9 L-24.05 36.2 -24.45 34.55 Q-24.75 33.5 -21.95 33.1 L-16.75 32.0 -11.5 30.45 Q-7.95 29.4 -5.2 28.15 -3.0 27.1 -0.65 26.3 L0.05 26.05 Q10.25 22.7 16.05 13.75 L16.85 12.8 Q18.4 11.2 17.95 8.05 L17.6 6.35 Q16.0 1.15 13.75 -2.25 12.0 -4.9 10.3 -6.25 L9.35 -7.05 Q8.6 -7.8 7.45 -7.9 4.6 -8.1 1.75 -7.8 L0.5 -7.65 -1.15 -7.4 -6.4 -6.45 Q-9.1 -5.7 -12.1 -5.75 L-13.05 -5.5 Q-13.85 -4.9 -14.95 -5.25 L-20.65 -5.55 -21.35 -5.35 Q-23.2 -4.6 -25.3 -4.85 L-25.9 -4.95 -32.25 -5.45 -33.4 -5.5 Q-36.95 -5.7 -37.4 -6.35 M-17.85 -35.1 Q-21.05 -35.9 -24.35 -37.95 L-24.4 -37.95 Q-25.65 -36.9 -26.95 -36.05 L-31.8 -32.45 -32.95 -31.15 -33.45 -30.6 Q-35.1 -29.65 -36.25 -27.65 L-38.2 -23.7 -36.85 -22.45 Q-34.65 -20.05 -33.75 -17.7 M32.8 -12.7 L32.8 -13.85 Q32.8 -15.25 33.15 -16.6 33.65 -18.7 34.4 -20.8 35.4 -23.6 36.75 -26.25 L39.15 -31.1 Q32.65 -37.3 24.6 -42.4 L22.25 -43.7 Q19.35 -39.4 17.1 -34.6 L16.35 -32.7 Q15.6 -30.5 14.95 -31.65 M20.15 9.2 Q16.35 18.5 11.85 25.15 L11.15 26.05 3.45 34.5 Q0.9 37.1 -2.2 38.75 L-3.5 39.6 -9.35 43.45 -11.15 44.6 -11.95 45.1 Q-14.15 46.35 -16.1 47.2 L-17.55 48.0 -18.35 48.5 -20.75 49.3 Q-21.3 49.45 -21.6 49.75 L-22.35 50.7 -21.85 52.45 -20.75 52.15 -20.1 52.05 -14.4 51.3 -2.9 50.85 5.8 50.4 6.9 50.35 12.7 51.0 14.4 51.15 Q15.95 51.1 16.85 51.55 L17.85 51.85 23.6 52.3 28.95 52.4 29.9 51.2 M-61.4 45.0 L-60.6 44.6 -56.3 42.15 Q-52.0 39.35 -48.3 35.7 -44.85 32.25 -42.45 27.1 L-42.15 26.4 -41.2 24.3 Q-40.45 22.85 -40.35 21.25 L-40.5 19.6 -40.75 18.0 M-25.9 50.05 Q-26.2 49.75 -26.5 49.75 L-27.1 49.8 -29.9 49.85 -31.1 49.7 -38.55 49.35 -50.05 48.95 -50.95 48.6 Q-51.7 47.9 -53.55 48.1 L-56.95 48.05 -57.55 48.0 Q-59.5 47.95 -60.35 47.05 -61.1 46.25 -61.4 45.0" fill="none" stroke="#000000" stroke-linecap="round" stroke-linejoin="round" stroke-width="1.0"/>
  </g>
</svg>
