<?xml version="1.0" encoding="UTF-8" standalone="no"?>
<svg xmlns:xlink="http://www.w3.org/1999/xlink" height="92.4px" width="117.9px" xmlns="http://www.w3.org/2000/svg">
  <g transform="matrix(1.0, 0.0, 0.0, 1.0, 60.45, 64.35)">
    <path d="M-22.45 -44.35 L11.5 -45.9 Q13.45 -45.95 15.05 -45.15 15.55 -44.9 15.95 -45.15 L17.3 -45.95 Q21.65 -48.8 28.25 -51.15 34.75 -53.5 41.45 -54.65 L45.45 -54.95 Q46.05 -52.4 45.85 -50.1 L45.4 -48.35 40.6 -36.15 40.1 -34.6 Q39.3 -31.7 36.25 -31.65 M32.8 -33.4 Q31.6 -32.5 34.45 -32.0 L35.15 -31.75 41.35 -28.05 42.6 -27.05 Q49.05 -21.15 51.5 -13.35 L52.15 -11.45 Q54.45 -6.1 54.9 0.0 L55.2 1.7 Q56.5 6.45 56.3 11.5 56.15 15.15 56.95 18.4 54.45 16.95 52.95 14.35 49.7 8.8 47.35 2.45 L46.75 1.55 45.9 0.7 Q44.45 1.55 44.65 4.0 44.9 7.45 44.65 10.9 44.25 16.75 42.55 22.45 L40.75 27.0 40.4 27.55 39.95 26.35 39.5 24.8 37.3 15.5 36.8 13.8 Q35.9 11.3 35.65 8.6 34.25 9.85 34.25 12.65 L34.15 14.95 33.7 21.85 33.45 23.6 33.2 24.7 32.8 25.25 Q31.05 26.65 30.1 24.1 L29.8 23.05 Q28.5 17.3 25.9 12.05 L25.15 11.05 Q23.4 9.45 22.75 12.0 21.5 17.2 19.15 21.0 L18.4 21.15 Q17.4 21.0 17.0 19.6 L16.3 17.7 14.4 13.8 Q12.4 14.1 12.15 16.65 L11.9 17.75 11.5 18.4 Q11.1 18.9 9.65 17.4 9.2 16.95 8.55 16.75 5.7 15.75 2.3 16.05 0.1 16.25 -0.1 14.35 -0.2 13.4 -1.0 12.95 L-1.9 12.15 Q-3.35 10.6 -5.75 10.6 L-6.4 10.55 -9.2 10.4 Q-10.75 10.45 -10.95 9.2 M-9.2 -30.5 Q-4.45 -32.7 1.7 -33.15 L4.65 -33.75 7.15 -33.7 Q7.5 -33.4 8.05 -33.4 11.45 -33.4 13.3 -31.7 15.45 -29.75 13.4 -28.0 11.4 -26.25 8.05 -25.8 L5.75 -25.55 Q2.6 -25.35 -0.6 -25.6 L-1.75 -25.65 Q-3.55 -25.7 -4.75 -26.9 L-5.7 -27.75 Q-6.7 -28.5 -6.35 -29.95 M-51.8 -30.5 Q-50.75 -32.45 -48.35 -34.55 -45.7 -36.9 -44.6 -39.85 -44.3 -40.6 -44.35 -41.45 -44.45 -44.0 -45.2 -45.6 L-45.6 -46.6 Q-46.25 -49.45 -47.5 -51.4 L-47.95 -52.35 -48.25 -53.0 -50.75 -56.95 -51.25 -57.55 Q-52.35 -58.45 -52.6 -60.4 L-52.75 -61.6 Q-52.95 -63.9 -50.0 -63.65 L-48.85 -63.7 Q-42.7 -64.55 -39.55 -61.15 L-38.6 -60.35 Q-35.85 -58.3 -32.85 -56.85 L-32.25 -56.4 Q-30.25 -53.8 -28.7 -50.15 -27.2 -46.6 -24.2 -44.35 M-36.25 -27.65 L-46.6 -27.4 -47.8 -27.25 -50.0 -26.85 -50.7 -26.7 Q-51.8 -26.45 -52.4 -25.9 L-53.0 -25.45 Q-53.3 -22.75 -50.6 -22.2 L-47.8 -21.65 -47.2 -21.55 Q-42.6 -21.15 -38.6 -22.6 -36.8 -23.25 -35.2 -24.35 -33.2 -25.85 -34.55 -27.05 M-50.65 -16.7 Q-52.1 -15.8 -53.2 -13.35 L-53.95 -12.0 Q-57.4 -6.35 -59.1 0.05 -60.15 3.9 -59.9 8.05 L-59.7 9.15 -59.3 9.75 Q-59.2 10.25 -58.3 9.05 -56.7 6.9 -54.15 5.7 L-52.95 5.35 Q-51.9 5.25 -51.45 6.4 L-51.15 7.45 Q-50.55 10.15 -48.25 11.3 L-47.2 11.6 Q-46.1 11.8 -45.35 10.75 L-46.05 10.35 M-48.9 2.3 Q-46.1 -1.3 -42.15 -4.25 -40.95 -5.15 -40.2 -6.3 L-39.7 -6.9 Q-37.95 -8.25 -36.7 -10.9 L-36.3 -11.6 Q-33.85 -15.05 -32.45 -20.2 L-31.25 -23.15 Q-30.4 -24.65 -30.65 -27.05 -30.9 -29.45 -29.95 -30.5 M-45.35 10.75 L-29.8 19.3 -28.0 19.2 -27.1 18.8 -21.9 18.2 Q-18.5 18.3 -15.55 17.3 L-11.55 16.4 -10.9 16.3 -9.2 16.1 M-47.75 2.3 Q-48.45 3.25 -45.5 2.7 L-44.3 2.5 Q-41.75 2.3 -39.15 2.55 -37.6 2.7 -37.05 2.0 -36.8 1.7 -36.25 1.7 L-31.7 1.95 -31.05 2.05 -25.35 2.85 Q-27.25 7.05 -31.5 10.55 L-32.85 12.0 Q-34.1 13.65 -36.9 14.05 L-40.7 12.4 Q-42.55 11.45 -43.35 10.5 L-44.6 9.0 -45.15 8.2 -45.9 7.3 -46.65 6.35 -47.75 4.6" fill="none" stroke="#000000" stroke-linecap="round" stroke-linejoin="round" stroke-width="1.0"/>
  </g>
</svg>
