<?xml version="1.0" encoding="UTF-8" standalone="no"?>
<svg xmlns:xlink="http://www.w3.org/1999/xlink" height="130.0px" width="112.2px" xmlns="http://www.w3.org/2000/svg">
  <g transform="matrix(1.0, 0.0, 0.0, 1.0, 50.05, 80.05)">
    <path d="M-45.45 -28.2 L-44.15 -29.4 -44.9 -29.95 -46.05 -31.65 -47.5 -35.2 -48.6 -37.9 -48.9 -39.75 -49.1 -40.8 Q-49.85 -42.55 -49.35 -45.45 L-49.1 -47.2 -48.65 -50.05 Q-48.45 -51.35 -48.4 -52.95 L-48.1 -53.95 Q-47.65 -54.85 -47.5 -56.4 L-47.4 -57.6 -46.4 -63.25 -46.2 -63.95 Q-45.0 -68.15 -42.8 -70.7 L-42.45 -69.7 -40.7 -64.5 -38.55 -59.3 -37.85 -58.3 Q-36.3 -56.85 -34.75 -54.55 L-32.0 -50.85 Q-29.65 -47.85 -27.3 -46.45 L-23.65 -47.95 Q-23.3 -48.05 -23.0 -48.3 -21.65 -49.25 -19.0 -49.25 L-18.4 -49.25 5.15 -49.3 11.55 -49.85 13.8 -50.1 24.15 -50.35 24.8 -50.45 26.55 -50.65 29.45 -53.45 Q32.45 -56.4 35.5 -58.35 38.65 -60.35 40.4 -62.65 42.15 -64.95 44.25 -66.25 L44.8 -66.8 49.2 -73.3 49.75 -74.1 50.95 -76.65 52.35 -78.85 52.95 -79.45 Q53.3 -80.0 54.2 -77.75 L55.6 -74.15 56.5 -71.4 56.8 -70.2 59.35 -60.5 59.65 -59.25 60.05 -57.6 60.25 -56.4 60.55 -54.75 60.8 -53.5 61.2 -51.85 61.4 -50.65 Q61.95 -47.5 61.2 -44.85 L61.05 -43.2 Q61.2 -40.1 60.2 -37.5 58.2 -32.4 55.9 -28.75 L53.5 -25.35 52.9 -24.85 Q51.2 -23.95 51.8 -23.05 M49.1 -50.5 L47.4 -48.2 46.35 -46.85 Q43.2 -42.9 39.2 -39.7 L38.0 -38.75 Q39.2 -37.35 40.7 -36.55 L41.55 -35.8 45.9 -30.8 47.1 -32.85 Q51.3 -39.9 50.95 -48.35 L50.9 -50.1 Q50.9 -52.05 50.05 -52.95 49.85 -51.65 49.1 -50.5 M31.05 -33.4 L38.0 -38.75 36.85 -40.35 36.1 -41.25 Q34.3 -42.75 32.4 -45.65 L29.7 -49.35 Q28.6 -50.7 26.55 -50.65 24.35 -48.7 22.4 -47.3 18.6 -44.5 16.1 -41.45 M-8.05 -11.55 Q-7.8 -11.05 -6.9 -12.7 -6.0 -14.35 -4.2 -15.3 L-3.3 -16.0 1.2 -20.7 Q4.55 -24.35 9.8 -25.95 L11.5 -26.5 Q17.2 -28.55 23.6 -28.95 26.55 -29.15 28.2 -28.2 29.15 -27.7 28.95 -25.9 L28.6 -21.3 Q28.45 -19.2 27.8 -17.25 L27.5 -16.15 27.2 -14.95 27.05 -13.85 M19.0 -48.95 Q19.4 -48.3 18.35 -48.35 L17.7 -47.95 Q15.25 -45.55 12.7 -44.75 L12.05 -44.45 Q7.15 -41.65 3.6 -38.95 L2.1 -37.55 1.3 -36.7 -2.7 -32.6 Q-4.55 -30.85 -5.9 -28.9 L-7.95 -25.85 Q-9.4 -23.7 -10.2 -21.25 L-10.55 -20.2 -10.8 -19.55 Q-11.85 -17.3 -13.0 -15.4 -14.35 -13.2 -14.25 -9.8 -14.15 -6.7 -17.9 -7.15 -20.55 -5.8 -19.25 -2.8 -18.65 -1.35 -19.4 -0.9 L-20.3 -0.15 Q-21.0 0.6 -22.4 1.25 L-22.9 1.75 Q-23.95 4.0 -25.35 5.75 -26.25 4.05 -26.4 1.7 -26.45 -0.25 -25.2 -0.9 -23.2 -1.85 -23.3 -4.6 L-23.6 -5.2 Q-25.05 -6.75 -24.85 -8.6 -24.75 -9.2 -24.1 -9.65 L-21.8 -10.7 Q-21.0 -10.95 -20.4 -11.35 -20.15 -11.5 -20.25 -12.1 -20.45 -13.55 -21.3 -15.0 L-21.7 -16.15 -22.05 -21.9 Q-22.25 -25.15 -21.55 -27.15 L-21.1 -28.75 -20.85 -29.4 Q-19.75 -31.55 -18.95 -33.95 L-18.55 -35.15 Q-17.4 -39.0 -15.75 -42.15 L-14.55 -43.9 Q-13.75 -44.85 -13.1 -46.6 L-12.7 -47.2 -11.5 -48.35 M3.45 -4.05 L2.85 -4.3 2.25 -4.15 0.4 -3.15 -4.1 -0.65 Q-7.45 1.4 -10.9 4.1 L-14.25 7.05 -19.55 12.65 -20.0 13.25 Q-21.9 17.8 -24.75 23.0 -24.35 24.55 -25.05 25.1 L-25.5 25.85 -26.8 28.9 -29.45 33.3 -29.9 33.95 Q-31.55 35.95 -34.65 34.7 -38.75 33.05 -42.55 30.45 L-43.2 30.05 Q-44.85 29.3 -46.15 28.35 -47.8 27.15 -47.75 24.75 -48.05 24.65 -47.75 24.15 L-46.7 22.9 -45.95 21.9 Q-40.4 13.6 -36.9 3.45 L-35.55 -1.1 -35.35 -2.3 Q-34.95 -6.25 -34.2 -9.85 -33.95 -10.95 -33.85 -12.1 -33.75 -14.05 -34.2 -15.65 M3.45 -6.9 Q4.45 -8.75 7.35 -9.55 L9.25 -10.3 Q12.95 -12.15 17.25 -11.95 19.55 -11.8 20.8 -12.45 L21.85 -12.7 Q23.0 -12.65 23.6 -12.1 23.7 -9.55 21.35 -8.0 L19.4 -6.5 18.4 -5.8 Q14.0 -4.0 8.6 -4.35 6.75 -4.5 6.3 -5.75 M48.9 -8.1 L49.85 -9.35 50.3 -10.3 Q50.95 -11.55 50.95 -13.85 L51.1 -16.15 51.45 -17.2 Q51.8 -17.85 51.6 -18.95 L51.5 -20.15 Q51.5 -23.2 50.05 -24.75 L49.75 -25.35 Q49.6 -26.9 48.85 -27.55 L47.4 -28.95 45.9 -30.8 Q43.9 -27.65 42.0 -25.35 M33.95 16.65 Q34.2 17.75 34.8 18.4 L34.95 18.55 35.6 19.55 35.95 20.55 38.5 24.8 39.25 25.8 41.3 27.8 Q42.35 28.6 42.75 30.45 L43.05 31.7 Q43.55 33.45 42.9 34.2 42.6 34.55 42.6 35.1 L42.6 39.1 Q46.9 36.7 48.95 31.65 L49.4 30.45 Q50.05 28.2 50.15 25.3 50.35 18.85 47.45 13.65 L46.95 12.75 Q45.9 10.75 44.45 9.1 L41.45 5.75 Q45.6 7.85 49.5 10.35 51.4 11.55 52.5 13.75 L52.95 14.35 54.75 14.4 55.15 13.75 Q56.15 12.05 55.65 9.8 L55.3 8.6 Q53.35 3.4 50.55 -0.55 L47.9 -4.15 Q46.6 -6.0 43.75 -5.75 M-27.65 -15.55 Q-29.1 -15.85 -29.1 -17.85 -29.05 -18.15 -29.35 -18.45 -31.05 -20.65 -33.65 -22.75 L-34.45 -23.3 -39.8 -25.7 -40.8 -26.05 -42.05 -26.35 -45.45 -26.85 Q-46.45 -26.9 -46.2 -25.35 L-45.2 -20.2 -44.5 -17.8 -44.0 -17.0 -43.15 -16.7 M-34.55 -11.55 L-36.5 -14.8 Q-36.8 -15.25 -37.4 -15.5 -38.5 -15.9 -39.35 -16.45 L-40.3 -16.7 Q-41.8 -16.65 -41.75 -15.0 L-41.75 -14.35 Q-42.25 -10.75 -41.3 -7.55 -41.0 -6.5 -40.45 -6.1 L-39.65 -5.25 Q-38.85 -3.95 -37.4 -2.9 M-42.6 -5.2 L-43.25 -4.7 -44.3 -4.05 Q-48.0 -2.2 -48.6 1.65 L-48.65 2.3 Q-48.8 3.85 -49.25 4.75 L-49.5 5.75 -49.5 7.45 Q-47.55 5.95 -44.85 5.35 L-43.2 4.95 -42.9 4.9 Q-44.6 5.9 -45.1 9.15 L-45.25 10.35 -45.65 14.95 Q-45.75 16.05 -44.9 16.65 -43.65 16.2 -42.95 15.05 M-44.15 -29.4 L-38.75 -33.65 -37.85 -34.4 -36.45 -35.85 -34.45 -38.55 -33.95 -39.15 Q-32.85 -40.05 -32.1 -42.0 L-31.65 -42.6 -29.15 -45.35 -28.2 -46.05 -27.3 -46.45 M-24.75 23.0 L-33.95 23.3 -34.6 23.4 -36.25 23.65 -47.75 24.15 M-48.9 27.6 Q-47.65 28.35 -47.5 30.5 L-47.15 31.65 Q-45.85 33.9 -45.4 36.25 L-44.15 40.8 -43.75 41.4 Q-41.2 43.55 -36.85 43.45 L-36.2 43.5 Q-33.4 40.9 -33.1 36.25 -31.5 37.05 -30.7 38.95 L-30.1 39.85 Q-28.1 41.9 -26.05 42.75 -24.35 42.3 -21.95 42.7 -20.65 42.9 -20.25 42.25 L-19.75 41.75 -18.95 40.9 -17.7 39.3 -16.7 38.5 -14.95 37.35 Q-11.0 34.75 -6.3 33.55 L-4.65 33.15 -4.05 33.05 -2.9 33.05 -1.7 32.95 -0.05 32.6 1.15 32.45 12.65 31.95 13.3 31.85 Q15.4 31.25 17.1 29.8 17.3 29.65 17.7 30.05 L18.4 31.05 Q19.2 32.55 19.7 34.45 L20.2 35.65 Q21.05 37.15 20.7 39.1 23.75 36.9 25.5 31.7 L25.65 31.0 Q25.9 29.05 25.65 27.1 L25.45 25.85 25.1 24.2 25.0 23.95 Q26.4 25.85 27.2 28.7 L28.05 31.7 Q29.1 34.85 28.6 38.55 L28.4 40.25 Q28.2 42.85 28.35 45.45 28.45 47.4 27.85 48.45 27.6 48.9 27.6 49.45 31.0 47.5 34.55 43.2 37.4 39.75 38.15 35.7 L38.35 34.5 38.7 29.35 Q38.85 27.05 38.2 25.8 36.95 23.25 35.95 20.55 L34.8 18.4 M-36.2 43.5 L-34.6 43.9 -33.9 44.15 -31.15 45.1 -30.5 45.15 -29.9 44.9 Q-28.65 43.85 -27.05 43.1 L-26.05 42.75 -24.75 43.15" fill="none" stroke="#000000" stroke-linecap="round" stroke-linejoin="round" stroke-width="1.0"/>
  </g>
</svg>
