<?xml version="1.0" encoding="UTF-8" standalone="no"?>
<svg xmlns:xlink="http://www.w3.org/1999/xlink" height="134.8px" width="117.2px" xmlns="http://www.w3.org/2000/svg">
  <g transform="matrix(1.0, 0.0, 0.0, 1.0, 52.5, 80.5)">
    <path d="M49.5 -49.9 Q49.0 -47.3 48.15 -44.75 L44.95 -34.6 43.65 -31.5 42.4 -29.6 40.85 -27.9 31.65 -36.0 37.2 -41.3 44.15 -47.6 Q47.5 -50.5 50.1 -54.4 L49.5 -49.9 M2.75 29.8 Q5.1 31.3 2.1 39.95 -0.4 32.05 -2.95 29.8 L2.75 29.8 M-9.85 32.45 Q-8.95 36.85 -12.15 43.8 -13.0 37.5 -15.8 34.6 L-9.85 32.45 M-21.45 40.8 Q-20.95 47.4 -24.6 53.0 L-24.8 53.05 -27.4 41.6 -22.75 41.35 -21.45 40.8 M-37.15 42.0 Q-38.65 47.2 -37.35 53.8 L-39.95 50.65 Q-42.6 46.6 -42.55 41.85 L-38.25 42.15 -37.15 42.0 M-47.3 31.75 Q-49.45 30.0 -49.2 27.1 L-48.75 25.5 -48.5 25.05 Q-48.0 24.35 -47.15 23.9 -45.35 23.1 -43.4 22.55 L-34.65 21.85 -26.45 22.0 Q-25.3 22.3 -24.55 23.15 -22.1 25.9 -23.1 29.55 -23.45 30.95 -24.85 31.75 -26.3 32.65 -28.05 32.0 -28.75 31.7 -29.15 31.0 L-29.7 29.9 -29.65 28.75 -29.2 28.45 -27.6 28.45 -29.2 28.45 -29.65 28.75 -29.7 29.9 -31.6 29.35 -32.95 30.85 Q-35.05 34.1 -35.95 38.25 -36.55 34.55 -38.55 31.25 -39.9 29.0 -42.95 29.7 -43.15 28.7 -44.3 28.15 -43.15 28.7 -42.95 29.7 L-42.95 29.75 -42.95 30.6 -43.15 31.65 -44.5 32.55 -47.3 31.75 M-43.4 15.8 Q-44.7 9.4 -41.7 3.7 L-49.45 8.4 Q-50.05 4.7 -48.7 1.15 -46.65 -4.2 -42.5 -8.35 L-42.9 -9.45 Q-43.9 -13.75 -41.7 -17.95 L-46.85 -18.15 Q-47.95 -22.5 -48.5 -27.05 L-48.3 -28.1 Q-35.0 -27.55 -32.7 -22.2 -30.45 -16.85 -31.45 -13.75 -32.45 -10.65 -35.5 -2.9 -34.05 -8.5 -36.4 -13.95 -36.85 -14.95 -37.75 -15.75 -39.4 -17.1 -41.7 -17.95 -39.4 -17.1 -37.75 -15.75 -36.85 -14.95 -36.4 -13.95 -34.05 -8.5 -35.5 -2.9 L-37.3 -3.65 Q-40.65 -5.1 -42.5 -8.35 -40.65 -5.1 -37.3 -3.65 L-35.5 -2.9 Q-36.5 1.5 -38.4 5.55 L-43.4 15.8 M-47.7 -33.05 L-48.75 -33.9 -49.65 -35.35 Q-51.3 -39.6 -51.75 -44.0 -52.5 -50.9 -50.9 -57.55 -50.3 -60.15 -49.3 -62.6 L-46.85 -67.85 Q-44.7 -72.0 -41.1 -74.8 L-40.65 -72.35 -39.8 -67.85 Q-38.6 -62.45 -36.0 -57.3 L-30.8 -47.45 -35.05 -42.5 Q-36.65 -40.6 -38.45 -38.85 -42.4 -34.9 -47.7 -33.05 M21.8 -11.7 Q18.15 -4.9 11.15 -2.5 L8.9 -2.6 Q1.65 -5.65 -4.65 -0.35 L-4.2 -1.6 -3.1 -2.95 Q6.95 -13.2 21.8 -11.7 M-44.4 -35.8 Q-45.6 -38.0 -46.25 -40.55 -47.5 -45.7 -46.0 -50.65 L-44.9 -47.55 Q-43.1 -42.65 -39.1 -39.4 -43.1 -42.65 -44.9 -47.55 L-46.0 -50.65 Q-47.5 -45.7 -46.25 -40.55 -45.6 -38.0 -44.4 -35.8" fill="url(#gradient0)" fill-rule="evenodd" stroke="none"/>
    <path d="M49.5 -49.9 L50.1 -54.4 Q47.5 -50.5 44.15 -47.6 L37.2 -41.3 31.65 -36.0 40.85 -27.9 42.4 -29.6 43.65 -31.5 44.95 -34.6 48.15 -44.75 Q49.0 -47.3 49.5 -49.9 M-30.8 -47.45 Q-28.45 -49.95 -25.4 -50.95 L-20.3 -51.3 -13.2 -50.8 Q-11.0 -54.4 -7.45 -56.45 -6.45 -57.0 -5.2 -57.15 L4.35 -56.85 12.35 -57.1 18.45 -57.45 19.95 -57.0 21.6 -51.8 24.1 -51.7 26.2 -51.2 35.3 -57.4 Q38.05 -59.55 40.4 -62.05 L43.2 -65.15 Q46.7 -69.4 49.2 -74.35 L50.55 -77.05 Q51.7 -79.1 53.75 -80.0 54.85 -78.6 55.25 -76.8 56.1 -72.7 57.5 -68.45 59.8 -61.6 61.45 -54.35 62.4 -50.3 62.65 -46.0 61.65 -43.7 60.95 -41.0 59.75 -36.35 57.7 -31.95 56.15 -28.8 53.45 -26.25 L53.3 -26.1 53.35 -26.1 53.8 -25.9 Q55.4 -23.15 56.65 -21.8 57.9 -20.45 58.6 -17.6 59.25 -14.75 59.1 -9.0 L59.1 -8.95 60.8 -7.2 Q62.7 -5.1 63.9 1.65 65.05 8.35 61.65 13.1 60.5 12.75 59.95 11.85 L57.7 9.05 Q55.1 6.5 51.55 6.25 L54.55 10.85 57.2 15.55 Q59.0 18.85 58.5 22.6 57.75 28.05 55.7 33.05 53.95 37.25 50.75 40.5 49.7 34.8 46.7 29.65 45.95 28.35 44.5 27.9 45.1 36.15 42.5 43.85 41.75 45.95 40.05 47.3 39.25 45.6 39.05 43.75 38.5 39.35 36.15 35.65 32.1 29.3 26.1 24.8 26.6 27.25 26.55 29.65 26.45 32.5 25.45 35.15 24.35 38.0 22.15 40.0 22.1 36.2 20.6 32.7 19.15 29.4 16.35 27.3 L14.35 27.8 Q14.2 28.9 13.35 29.6 12.75 30.05 12.1 30.1 L7.4 30.3 2.75 29.8 -2.95 29.8 -9.85 32.45 -15.8 34.6 -21.45 40.8 -22.75 41.35 -27.4 41.6 Q-30.85 41.05 -34.4 41.55 L-37.15 42.0 -38.25 42.15 -42.55 41.85 Q-45.0 40.45 -45.5 37.8 -46.05 34.7 -47.3 31.75 L-44.5 32.55 -43.15 31.65 -42.95 30.6 -42.95 29.75 -42.95 29.7 Q-39.9 29.0 -38.55 31.25 -36.55 34.55 -35.95 38.25 -35.05 34.1 -32.95 30.85 L-31.6 29.35 -29.7 29.9 -29.15 31.0 Q-28.75 31.7 -28.05 32.0 -26.3 32.65 -24.85 31.75 -23.45 30.95 -23.1 29.55 -22.1 25.9 -24.55 23.15 -25.3 22.3 -26.45 22.0 L-34.65 21.85 -43.4 22.55 Q-45.35 23.1 -47.15 23.9 -48.0 24.35 -48.5 25.05 L-43.4 15.8 -38.4 5.55 Q-36.5 1.5 -35.5 -2.9 -32.45 -10.65 -31.45 -13.75 -30.45 -16.85 -32.7 -22.2 -35.0 -27.55 -48.3 -28.1 L-50.0 -29.9 Q-50.65 -30.6 -50.45 -31.4 -50.3 -32.2 -49.45 -32.7 L-47.7 -33.05 Q-42.4 -34.9 -38.45 -38.85 -36.65 -40.6 -35.05 -42.5 L-30.8 -47.45 M21.8 -11.7 L25.35 -11.8 26.05 -12.85 Q27.15 -14.6 27.55 -16.35 L28.15 -19.3 29.5 -27.85 29.1 -28.2 19.45 -27.95 17.3 -27.55 11.05 -25.3 Q5.95 -23.5 0.85 -20.7 -4.3 -17.9 -8.55 -13.6 -12.8 -9.35 -14.65 -5.05 -16.5 -0.8 -18.45 2.7 -21.15 7.45 -22.7 12.65 -21.15 7.45 -18.45 2.7 -16.5 -0.8 -14.65 -5.05 -12.8 -9.35 -8.55 -13.6 -4.3 -17.9 0.85 -20.7 5.95 -23.5 11.05 -25.3 L17.3 -27.55 19.45 -27.95 29.1 -28.2 29.5 -27.85 28.15 -19.3 27.55 -16.35 Q27.15 -14.6 26.05 -12.85 L25.35 -11.8 21.8 -11.7 Q6.95 -13.2 -3.1 -2.95 L-4.2 -1.6 -4.65 -1.05 -4.65 -0.35 Q1.65 -5.65 8.9 -2.6 L11.15 -2.5 Q18.15 -4.9 21.8 -11.7 M-2.85 -28.8 Q-0.65 -32.0 2.0 -34.7 L7.9 -40.35 Q12.8 -44.65 18.45 -47.8 20.25 -48.8 21.6 -50.65 L21.6 -51.8 21.6 -50.65 Q20.25 -48.8 18.45 -47.8 12.8 -44.65 7.9 -40.35 L2.0 -34.7 Q-0.65 -32.0 -2.85 -28.8 M41.15 -4.0 L43.45 -2.0 Q47.8 1.75 51.55 6.25 47.8 1.75 43.45 -2.0 L41.15 -4.0 M45.75 -18.7 Q47.0 -20.9 49.0 -22.4 51.25 -24.1 53.3 -26.1 51.25 -24.1 49.0 -22.4 47.0 -20.9 45.75 -18.7 M-2.7 6.6 L-4.05 3.5 Q-4.95 1.6 -4.65 -0.35 -4.95 1.6 -4.05 3.5 L-2.7 6.6 M17.95 -42.8 Q21.35 -47.75 26.2 -51.2 21.35 -47.75 17.95 -42.8 M50.4 -14.75 L52.3 -13.75 Q56.05 -11.9 59.1 -9.0 56.05 -11.9 52.3 -13.75 L50.4 -14.75 M-22.15 -25.35 L-19.3 -36.25 Q-17.95 -41.3 -15.75 -45.9 L-13.2 -50.8 -15.75 -45.9 Q-17.95 -41.3 -19.3 -36.25 L-22.15 -25.35 M35.4 10.95 Q38.5 13.7 40.95 17.15 42.5 19.3 43.3 21.75 44.2 24.7 44.5 27.9 44.2 24.7 43.3 21.75 42.5 19.3 40.95 17.15 38.5 13.7 35.4 10.95" fill="url(#gradient1)" fill-rule="evenodd" stroke="none"/>
    <path d="M49.5 -49.9 Q49.0 -47.3 48.15 -44.75 L44.95 -34.6 43.65 -31.5 42.4 -29.6 40.85 -27.9 31.65 -36.0 37.2 -41.3 44.15 -47.6 Q47.5 -50.5 50.1 -54.4 L49.5 -49.9 M-30.8 -47.45 Q-28.45 -49.95 -25.4 -50.95 L-20.3 -51.3 -13.2 -50.8 Q-11.0 -54.4 -7.45 -56.45 -6.45 -57.0 -5.2 -57.15 L4.35 -56.85 12.35 -57.1 18.45 -57.45 19.95 -57.0 21.6 -51.8 24.1 -51.7 26.2 -51.2 35.3 -57.4 Q38.05 -59.55 40.4 -62.05 L43.2 -65.15 Q46.7 -69.4 49.2 -74.35 L50.55 -77.05 Q51.7 -79.1 53.75 -80.0 54.85 -78.6 55.25 -76.8 56.1 -72.7 57.5 -68.45 59.8 -61.6 61.45 -54.35 62.4 -50.3 62.65 -46.0 61.65 -43.7 60.95 -41.0 59.75 -36.35 57.7 -31.95 56.15 -28.8 53.45 -26.25 L53.3 -26.1 53.35 -26.1 53.8 -25.9 Q55.4 -23.15 56.65 -21.8 57.9 -20.45 58.6 -17.6 59.25 -14.75 59.1 -9.0 L59.1 -8.95 60.8 -7.2 Q62.7 -5.1 63.9 1.65 65.05 8.35 61.65 13.1 60.5 12.75 59.95 11.85 L57.7 9.05 Q55.1 6.5 51.55 6.25 L54.55 10.85 57.2 15.55 Q59.0 18.85 58.5 22.6 57.75 28.05 55.7 33.05 53.95 37.25 50.75 40.5 49.7 34.8 46.7 29.65 45.95 28.35 44.5 27.9 45.1 36.15 42.5 43.85 41.75 45.95 40.05 47.3 39.25 45.6 39.05 43.75 38.5 39.35 36.15 35.65 32.1 29.3 26.1 24.8 26.6 27.25 26.55 29.65 26.45 32.5 25.45 35.15 24.35 38.0 22.15 40.0 22.1 36.2 20.6 32.7 19.15 29.4 16.35 27.3 L14.35 27.8 Q14.2 28.9 13.35 29.6 12.75 30.05 12.1 30.1 L7.4 30.3 2.75 29.8 Q5.1 31.3 2.1 39.95 -0.4 32.05 -2.95 29.8 L-9.85 32.45 Q-8.95 36.85 -12.15 43.8 -13.0 37.5 -15.8 34.6 L-21.45 40.8 Q-20.95 47.4 -24.6 53.0 L-24.8 53.1 -24.8 53.05 -27.4 41.6 Q-30.85 41.05 -34.4 41.55 L-37.15 42.0 Q-38.65 47.2 -37.35 53.8 L-39.95 50.65 Q-42.6 46.6 -42.55 41.85 -45.0 40.45 -45.5 37.8 -46.05 34.7 -47.3 31.75 -49.45 30.0 -49.2 27.1 L-48.75 25.5 -48.5 25.05 -43.4 15.8 Q-44.7 9.4 -41.7 3.7 L-49.45 8.4 Q-50.05 4.7 -48.7 1.15 -46.65 -4.2 -42.5 -8.35 L-42.9 -9.45 Q-43.9 -13.75 -41.7 -17.95 L-46.85 -18.15 Q-47.95 -22.5 -48.5 -27.05 L-48.3 -28.1 -50.0 -29.9 Q-50.65 -30.6 -50.45 -31.4 -50.3 -32.2 -49.45 -32.7 L-47.7 -33.05 -48.75 -33.9 -49.65 -35.35 Q-51.3 -39.6 -51.75 -44.0 -52.5 -50.9 -50.9 -57.55 -50.3 -60.15 -49.3 -62.6 L-46.85 -67.85 Q-44.7 -72.0 -41.1 -74.8 L-40.65 -72.35 -39.8 -67.85 Q-38.6 -62.45 -36.0 -57.3 L-30.8 -47.45 -35.05 -42.5 Q-36.65 -40.6 -38.45 -38.85 -42.4 -34.9 -47.7 -33.05 M21.6 -51.8 L21.6 -50.65 Q20.25 -48.8 18.45 -47.8 12.8 -44.65 7.9 -40.35 L2.0 -34.7 Q-0.65 -32.0 -2.85 -28.8 M-22.7 12.65 Q-21.15 7.45 -18.45 2.7 -16.5 -0.8 -14.65 -5.05 -12.8 -9.35 -8.55 -13.6 -4.3 -17.9 0.85 -20.7 5.95 -23.5 11.05 -25.3 L17.3 -27.55 19.45 -27.95 29.1 -28.2 29.5 -27.85 28.15 -19.3 27.55 -16.35 Q27.15 -14.6 26.05 -12.85 L25.35 -11.8 21.8 -11.7 Q18.15 -4.9 11.15 -2.5 L8.9 -2.6 Q1.65 -5.65 -4.65 -0.35 -4.95 1.6 -4.05 3.5 L-2.7 6.6 M53.3 -26.1 Q51.25 -24.1 49.0 -22.4 47.0 -20.9 45.75 -18.7 M51.55 6.25 Q47.8 1.75 43.45 -2.0 L41.15 -4.0 M59.1 -9.0 L59.1 -8.95 M59.1 -9.0 Q56.05 -11.9 52.3 -13.75 L50.4 -14.75 M26.2 -51.2 Q21.35 -47.75 17.95 -42.8 M-39.1 -39.4 Q-43.1 -42.65 -44.9 -47.55 L-46.0 -50.65 Q-47.5 -45.7 -46.25 -40.55 -45.6 -38.0 -44.4 -35.8 M-13.2 -50.8 L-15.75 -45.9 Q-17.95 -41.3 -19.3 -36.25 L-22.15 -25.35 M-41.7 -17.95 Q-39.4 -17.1 -37.75 -15.75 -36.85 -14.95 -36.4 -13.95 -34.05 -8.5 -35.5 -2.9 -32.45 -10.65 -31.45 -13.75 -30.45 -16.85 -32.7 -22.2 -35.0 -27.55 -48.3 -28.1 M-35.5 -2.9 L-37.3 -3.65 Q-40.65 -5.1 -42.5 -8.35 M-4.2 -1.6 L-4.65 -0.35 -4.65 -1.05 -4.2 -1.6 -3.1 -2.95 Q6.95 -13.2 21.8 -11.7 M-29.7 29.9 L-29.15 31.0 Q-28.75 31.7 -28.05 32.0 -26.3 32.65 -24.85 31.75 -23.45 30.95 -23.1 29.55 -22.1 25.9 -24.55 23.15 -25.3 22.3 -26.45 22.0 L-34.65 21.85 -43.4 22.55 Q-45.35 23.1 -47.15 23.9 -48.0 24.35 -48.5 25.05 M-29.7 29.9 L-29.65 28.75 -29.2 28.45 -27.6 28.45 M-42.95 29.7 Q-39.9 29.0 -38.55 31.25 -36.55 34.55 -35.95 38.25 -35.05 34.1 -32.95 30.85 L-31.6 29.35 -29.7 29.9 M-37.15 42.0 L-38.25 42.15 -42.55 41.85 M-21.45 40.8 L-22.75 41.35 -27.4 41.6 M-9.85 32.45 L-15.8 34.6 M-44.3 28.15 Q-43.15 28.7 -42.95 29.7 L-42.95 29.75 -42.95 30.6 -43.15 31.65 -44.5 32.55 -47.3 31.75 M-43.4 15.8 L-38.4 5.55 Q-36.5 1.5 -35.5 -2.9 M44.5 27.9 Q44.2 24.7 43.3 21.75 42.5 19.3 40.95 17.15 38.5 13.7 35.4 10.95 M2.75 29.8 L-2.95 29.8" fill="none" stroke="#000000" stroke-linecap="round" stroke-linejoin="round" stroke-width="1.0"/>
  </g>
  <defs>
    <radialGradient cx="0" cy="0" gradientTransform="matrix(0.0516, 0.0298, -0.0191, 0.0331, 58.75, 86.85)" gradientUnits="userSpaceOnUse" id="gradient0" r="819.2" spreadMethod="pad">
      <stop offset="0.0" stop-color="#e2f9db"/>
      <stop offset="0.4745098039215686" stop-color="#67933c"/>
      <stop offset="1.0" stop-color="#4e5c23"/>
    </radialGradient>
    <radialGradient cx="0" cy="0" gradientTransform="matrix(0.0721, 0.0193, -0.025, 0.0933, -16.1, -19.0)" gradientUnits="userSpaceOnUse" id="gradient1" r="819.2" spreadMethod="pad">
      <stop offset="0.0" stop-color="#e2f9db"/>
      <stop offset="0.4745098039215686" stop-color="#67933c"/>
      <stop offset="1.0" stop-color="#4e5c23"/>
    </radialGradient>
  </defs>
</svg>
