<?xml version="1.0" encoding="UTF-8" standalone="no"?>
<svg xmlns:xlink="http://www.w3.org/1999/xlink" height="148.85px" width="307.95px" xmlns="http://www.w3.org/2000/svg">
  <g transform="matrix(1.0, 0.0, 0.0, 1.0, 243.25, 67.2)">
    <path d="M-30.8 -34.15 Q-28.45 -36.65 -25.4 -37.65 L-20.3 -38.0 -13.2 -37.5 Q-11.0 -41.1 -7.45 -43.15 -6.45 -43.7 -5.2 -43.85 L4.35 -43.55 12.35 -43.8 18.45 -44.15 19.95 -43.7 21.6 -38.5 24.1 -38.4 26.2 -37.9 35.3 -44.1 Q38.05 -46.25 40.4 -48.75 L43.2 -51.85 Q46.7 -56.1 49.2 -61.05 L50.55 -63.75 Q51.7 -65.8 53.75 -66.7 54.85 -65.3 55.25 -63.5 56.1 -59.4 57.5 -55.15 59.8 -48.3 61.45 -41.05 62.4 -37.0 62.65 -32.7 61.65 -30.4 60.95 -27.7 59.75 -23.05 57.7 -18.65 56.15 -15.5 53.45 -12.95 L53.3 -12.8 53.35 -12.8 53.4 -12.75 53.8 -12.6 Q55.4 -9.85 56.65 -8.5 57.9 -7.15 58.6 -4.3 59.25 -1.45 59.1 4.3 L59.1 4.35 60.8 6.1 Q62.7 8.2 63.9 14.95 65.05 21.65 61.65 26.4 60.5 26.05 59.95 25.15 L57.7 22.35 Q55.1 19.8 51.55 19.55 L54.55 24.15 57.2 28.85 Q59.0 32.15 58.5 35.9 57.75 41.35 55.7 46.35 53.95 50.55 50.75 53.8 49.7 48.1 46.7 42.95 45.95 41.65 44.5 41.2 45.1 49.45 42.5 57.15 41.75 59.25 40.05 60.6 39.25 58.9 39.05 57.05 38.5 52.65 36.15 48.95 31.45 42.75 29.1 40.6 L26.1 38.1 Q26.6 40.55 26.55 42.95 26.45 45.8 25.45 48.45 24.35 51.3 22.15 53.3 22.1 49.5 20.6 46.0 19.15 42.7 16.35 40.6 L14.35 41.1 Q14.2 42.2 13.35 42.9 12.75 43.35 12.1 43.4 L7.4 43.6 2.75 43.1 7.4 43.6 12.1 43.4 Q12.75 43.35 13.35 42.9 14.2 42.2 14.35 41.1 L16.35 40.6 Q19.15 42.7 20.6 46.0 22.1 49.5 22.15 53.3 24.35 51.3 25.45 48.45 26.45 45.8 26.55 42.95 26.6 40.55 26.1 38.1 L29.1 40.6 Q29.65 47.7 26.45 52.5 25.75 53.55 24.7 54.05 17.65 57.75 16.95 62.15 L4.7 65.95 Q-6.95 68.95 -18.35 64.85 -20.3 64.25 -22.8 62.9 -21.1 58.75 -21.45 54.1 L-22.75 54.65 -27.4 54.9 Q-30.85 54.35 -34.4 54.85 L-37.15 55.3 -34.4 54.85 Q-30.85 54.35 -27.4 54.9 L-25.75 62.25 -29.6 62.65 -30.9 62.85 Q-34.9 63.4 -37.95 60.95 -37.9 57.95 -37.15 55.3 L-38.25 55.45 -42.55 55.15 Q-45.0 53.75 -45.5 51.1 -46.05 48.0 -47.3 45.05 L-44.5 45.85 -43.15 44.95 -42.95 43.9 -42.95 43.05 -42.95 43.0 Q-39.9 42.3 -38.55 44.55 -36.55 47.85 -35.95 51.55 -35.05 47.4 -32.95 44.15 L-31.6 42.65 -29.7 43.2 -29.15 44.3 Q-28.75 45.0 -28.05 45.3 -26.3 45.95 -24.85 45.05 -23.45 44.25 -23.1 42.85 -22.1 39.2 -24.55 36.45 -25.3 35.6 -26.45 35.3 -21.15 20.75 -18.45 16.0 -16.5 12.5 -14.65 8.25 -12.8 3.95 -8.55 -0.3 -4.3 -4.6 0.85 -7.4 5.95 -10.2 11.05 -12.0 L17.3 -14.25 19.45 -14.65 29.1 -14.9 29.5 -14.55 28.15 -6.0 27.55 -3.05 Q27.15 -1.3 26.05 0.45 L25.35 1.5 21.8 1.6 25.35 1.5 26.05 0.45 Q27.15 -1.3 27.55 -3.05 L28.15 -6.0 29.5 -14.55 29.1 -14.9 19.45 -14.65 17.3 -14.25 11.05 -12.0 Q5.95 -10.2 0.85 -7.4 -4.3 -4.6 -8.55 -0.3 -12.8 3.95 -14.65 8.25 -16.5 12.5 -18.45 16.0 -21.15 20.75 -26.45 35.3 L-34.65 35.15 -43.4 35.85 Q-45.35 36.4 -47.15 37.2 -48.0 37.65 -48.5 38.35 L-43.4 29.1 -38.4 18.85 Q-36.5 14.8 -35.5 10.4 L-31.45 -0.45 Q-30.45 -3.55 -32.7 -8.9 -35.0 -14.25 -48.3 -14.8 L-50.0 -16.6 Q-50.65 -17.3 -50.45 -18.1 -50.3 -18.9 -49.45 -19.4 L-47.7 -19.75 Q-42.4 -21.6 -38.45 -25.55 -36.65 -27.3 -35.05 -29.2 L-30.8 -34.15 M-2.85 -15.5 Q-0.65 -18.7 2.0 -21.4 L7.9 -27.05 Q12.8 -31.35 18.45 -34.5 20.25 -35.5 21.6 -37.35 L21.6 -38.5 21.6 -37.35 Q20.25 -35.5 18.45 -34.5 12.8 -31.35 7.9 -27.05 L2.0 -21.4 Q-0.65 -18.7 -2.85 -15.5 M-4.65 12.95 Q1.65 7.65 8.9 10.7 L11.15 10.8 Q18.15 8.4 21.8 1.6 6.95 0.1 -3.1 10.35 L-4.2 11.7 -4.65 12.25 -4.65 12.95 Q-4.95 14.9 -4.05 16.8 L-2.7 19.9 -4.05 16.8 Q-4.95 14.9 -4.65 12.95 M37.2 -28.0 L31.65 -22.7 40.85 -14.6 42.4 -16.3 43.65 -18.2 44.95 -21.3 48.15 -31.45 Q49.0 -34.0 49.5 -36.6 L50.1 -41.1 Q47.5 -37.2 44.15 -34.3 L37.2 -28.0 M50.4 -1.45 L52.3 -0.45 Q56.05 1.4 59.1 4.3 56.05 1.4 52.3 -0.45 L50.4 -1.45 M45.75 -5.4 Q47.0 -7.6 49.0 -9.1 51.25 -10.8 53.3 -12.8 51.25 -10.8 49.0 -9.1 47.0 -7.6 45.75 -5.4 M17.95 -29.5 Q21.35 -34.45 26.2 -37.9 21.35 -34.45 17.95 -29.5 M-22.15 -12.05 L-19.3 -22.95 Q-17.95 -28.0 -15.75 -32.6 L-13.2 -37.5 -15.75 -32.6 Q-17.95 -28.0 -19.3 -22.95 L-22.15 -12.05 M-9.85 45.75 L-15.8 47.9 -21.45 54.1 -15.8 47.9 Q-13.0 50.8 -12.15 57.1 -8.95 50.15 -9.85 45.75 L-2.95 43.1 -9.85 45.75 M2.75 43.1 L-2.95 43.1 Q-0.4 45.35 2.1 53.25 5.1 44.6 2.75 43.1 M35.4 24.25 Q38.5 27.0 40.95 30.45 42.5 32.6 43.3 35.05 44.2 38.0 44.5 41.2 44.2 38.0 43.3 35.05 42.5 32.6 40.95 30.45 38.5 27.0 35.4 24.25 M41.15 9.3 L43.45 11.3 Q47.8 15.05 51.55 19.55 47.8 15.05 43.45 11.3 L41.15 9.3" fill="url(#gradient0)" fill-rule="evenodd" stroke="none"/>
    <path d="M-22.8 62.9 L-24.6 66.3 -24.8 66.35 -25.75 62.25 -27.4 54.9 -22.75 54.65 -21.45 54.1 Q-21.1 58.75 -22.8 62.9 M-37.95 60.95 Q-38.0 63.85 -37.35 67.1 L-39.95 63.95 Q-42.6 59.9 -42.55 55.15 L-38.25 55.45 -37.15 55.3 Q-37.9 57.95 -37.95 60.95 M-47.3 45.05 Q-49.45 43.3 -49.2 40.4 L-48.75 38.8 -48.5 38.35 Q-48.0 37.65 -47.15 37.2 -45.35 36.4 -43.4 35.85 L-34.65 35.15 -26.45 35.3 Q-25.3 35.6 -24.55 36.45 -22.1 39.2 -23.1 42.85 -23.45 44.25 -24.85 45.05 -26.3 45.95 -28.05 45.3 -28.75 45.0 -29.15 44.3 L-29.7 43.2 -31.6 42.65 -32.95 44.15 Q-35.05 47.4 -35.95 51.55 -36.55 47.85 -38.55 44.55 -39.9 42.3 -42.95 43.0 L-42.95 43.05 -42.95 43.9 -43.15 44.95 -44.5 45.85 -47.3 45.05 M-43.4 29.1 Q-44.7 22.7 -41.7 17.0 L-49.45 21.7 Q-50.05 18.0 -48.7 14.45 -46.65 9.1 -42.5 4.95 L-42.9 3.85 Q-43.9 -0.45 -41.7 -4.65 L-46.85 -4.85 Q-47.95 -9.2 -48.5 -13.75 L-48.3 -14.8 Q-35.0 -14.25 -32.7 -8.9 -30.45 -3.55 -31.45 -0.45 L-35.5 10.4 Q-36.5 14.8 -38.4 18.85 L-43.4 29.1 M-47.7 -19.75 L-48.75 -20.6 -49.65 -22.05 Q-51.3 -26.3 -51.75 -30.7 -52.5 -37.6 -50.9 -44.25 -50.3 -46.85 -49.3 -49.3 L-46.85 -54.55 Q-44.7 -58.7 -41.1 -61.5 L-40.65 -59.05 -39.8 -54.55 Q-38.6 -49.15 -36.0 -44.0 L-30.8 -34.15 -35.05 -29.2 Q-36.65 -27.3 -38.45 -25.55 -42.4 -21.6 -47.7 -19.75 M21.8 1.6 Q18.15 8.4 11.15 10.8 L8.9 10.7 Q1.65 7.65 -4.65 12.95 L-4.2 11.7 -3.1 10.35 Q6.95 0.1 21.8 1.6 M37.2 -28.0 L44.15 -34.3 Q47.5 -37.2 50.1 -41.1 L49.5 -36.6 Q49.0 -34.0 48.15 -31.45 L44.95 -21.3 43.65 -18.2 42.4 -16.3 40.85 -14.6 31.65 -22.7 37.2 -28.0 M-44.4 -22.5 Q-45.6 -24.7 -46.25 -27.25 -47.5 -32.4 -46.0 -37.35 L-44.9 -34.25 Q-43.1 -29.35 -39.1 -26.1 -43.1 -29.35 -44.9 -34.25 L-46.0 -37.35 Q-47.5 -32.4 -46.25 -27.25 -45.6 -24.7 -44.4 -22.5 M-41.7 -4.65 Q-39.4 -3.8 -37.75 -2.45 -36.85 -1.65 -36.4 -0.65 -34.05 4.8 -35.5 10.4 L-37.3 9.65 Q-40.65 8.2 -42.5 4.95 -40.65 8.2 -37.3 9.65 L-35.5 10.4 Q-34.05 4.8 -36.4 -0.65 -36.85 -1.65 -37.75 -2.45 -39.4 -3.8 -41.7 -4.65 M-27.6 41.75 L-29.2 41.75 -29.65 42.05 -29.7 43.2 -29.65 42.05 -29.2 41.75 -27.6 41.75 M-15.8 47.9 L-9.85 45.75 Q-8.95 50.15 -12.15 57.1 -13.0 50.8 -15.8 47.9 M-2.95 43.1 L2.75 43.1 Q5.1 44.6 2.1 53.25 -0.4 45.35 -2.95 43.1 M-44.3 41.45 Q-43.15 42.0 -42.95 43.0 -43.15 42.0 -44.3 41.45" fill="url(#gradient1)" fill-rule="evenodd" stroke="none"/>
    <path d="M36.15 48.95 Q21.1 61.7 21.2 76.95 25.85 77.95 16.35 79.95 4.95 82.35 -6.4 80.0 -14.15 78.55 -19.95 73.5 -17.05 69.2 -18.35 64.85 -6.95 68.95 4.7 65.95 L16.95 62.15 Q17.65 57.75 24.7 54.05 25.75 53.55 26.45 52.5 29.65 47.7 29.1 40.6 31.45 42.75 36.15 48.95" fill="url(#gradient2)" fill-rule="evenodd" stroke="none"/>
    <path d="M-30.8 -34.15 Q-28.45 -36.65 -25.4 -37.65 L-20.3 -38.0 -13.2 -37.5 Q-11.0 -41.1 -7.45 -43.15 -6.45 -43.7 -5.2 -43.85 L4.35 -43.55 12.35 -43.8 18.45 -44.15 19.95 -43.7 21.6 -38.5 24.1 -38.4 26.2 -37.9 35.3 -44.1 Q38.05 -46.25 40.4 -48.75 L43.2 -51.85 Q46.7 -56.1 49.2 -61.05 L50.55 -63.75 Q51.7 -65.8 53.75 -66.7 54.85 -65.3 55.25 -63.5 56.1 -59.4 57.5 -55.15 59.8 -48.3 61.45 -41.05 62.4 -37.0 62.65 -32.7 61.65 -30.4 60.95 -27.7 59.75 -23.05 57.7 -18.65 56.15 -15.5 53.45 -12.95 L53.3 -12.8 53.35 -12.8 53.4 -12.75 53.8 -12.6 Q55.4 -9.85 56.65 -8.5 57.9 -7.15 58.6 -4.3 59.25 -1.45 59.1 4.3 L59.1 4.35 60.8 6.1 Q62.7 8.2 63.9 14.95 65.05 21.65 61.65 26.4 60.5 26.05 59.95 25.15 L57.7 22.35 Q55.1 19.8 51.55 19.55 L54.55 24.15 57.2 28.85 Q59.0 32.15 58.5 35.9 57.75 41.35 55.7 46.35 53.95 50.55 50.75 53.8 49.7 48.1 46.7 42.95 45.95 41.65 44.5 41.2 45.1 49.45 42.5 57.15 41.75 59.25 40.05 60.6 39.25 58.9 39.05 57.05 38.5 52.65 36.15 48.95 21.1 61.7 21.2 76.95 25.85 77.95 16.35 79.95 4.95 82.35 -6.4 80.0 -14.15 78.55 -19.95 73.5 -17.05 69.2 -18.35 64.85 -20.3 64.25 -22.8 62.9 L-24.6 66.3 -24.8 66.4 -24.8 66.35 -25.75 62.25 -29.6 62.65 -30.9 62.85 Q-34.9 63.4 -37.95 60.95 -38.0 63.85 -37.35 67.1 L-39.95 63.95 Q-42.6 59.9 -42.55 55.15 -45.0 53.75 -45.5 51.1 -46.05 48.0 -47.3 45.05 -49.45 43.3 -49.2 40.4 L-48.75 38.8 -48.5 38.35 -43.4 29.1 Q-44.7 22.7 -41.7 17.0 L-49.45 21.7 Q-50.05 18.0 -48.7 14.45 -46.65 9.1 -42.5 4.95 L-42.9 3.85 Q-43.9 -0.45 -41.7 -4.65 L-46.85 -4.85 Q-47.95 -9.2 -48.5 -13.75 L-48.3 -14.8 -50.0 -16.6 Q-50.65 -17.3 -50.45 -18.1 -50.3 -18.9 -49.45 -19.4 L-47.7 -19.75 -48.75 -20.6 -49.65 -22.05 Q-51.3 -26.3 -51.75 -30.7 -52.5 -37.6 -50.9 -44.25 -50.3 -46.85 -49.3 -49.3 L-46.85 -54.55 Q-44.7 -58.7 -41.1 -61.5 L-40.65 -59.05 -39.8 -54.55 Q-38.6 -49.15 -36.0 -44.0 L-30.8 -34.15 -35.05 -29.2 Q-36.65 -27.3 -38.45 -25.55 -42.4 -21.6 -47.7 -19.75 M21.6 -38.5 L21.6 -37.35 Q20.25 -35.5 18.45 -34.5 12.8 -31.35 7.9 -27.05 L2.0 -21.4 Q-0.65 -18.7 -2.85 -15.5 M-26.45 35.3 Q-21.15 20.75 -18.45 16.0 -16.5 12.5 -14.65 8.25 -12.8 3.95 -8.55 -0.3 -4.3 -4.6 0.85 -7.4 5.95 -10.2 11.05 -12.0 L17.3 -14.25 19.45 -14.65 29.1 -14.9 29.5 -14.55 28.15 -6.0 27.55 -3.05 Q27.15 -1.3 26.05 0.45 L25.35 1.5 21.8 1.6 Q18.15 8.4 11.15 10.8 L8.9 10.7 Q1.65 7.65 -4.65 12.95 -4.95 14.9 -4.05 16.8 L-2.7 19.9 M37.2 -28.0 L44.15 -34.3 Q47.5 -37.2 50.1 -41.1 L49.5 -36.6 Q49.0 -34.0 48.15 -31.45 L44.95 -21.3 43.65 -18.2 42.4 -16.3 40.85 -14.6 31.65 -22.7 37.2 -28.0 M26.2 -37.9 Q21.35 -34.45 17.95 -29.5 M53.3 -12.8 Q51.25 -10.8 49.0 -9.1 47.0 -7.6 45.75 -5.4 M59.1 4.3 Q56.05 1.4 52.3 -0.45 L50.4 -1.45 M-203.7 -27.05 Q-204.0 -29.15 -203.55 -30.95 -203.2 -32.5 -202.3 -33.8 L-201.55 -34.7 Q-200.6 -35.65 -198.55 -35.7 -197.05 -33.35 -196.55 -30.9 L-182.45 -31.35 -180.15 -31.5 -178.4 -31.65 M-218.7 -35.1 Q-218.7 -31.35 -218.15 -27.75 L-217.55 -27.65 -211.8 -27.9 -211.15 -27.95 -207.2 -28.2 M-227.3 -37.45 L-233.05 -37.2 Q-233.6 -37.15 -233.65 -36.8 L-233.75 -33.4 -221.0 -32.3 -220.4 -32.25 M-233.65 -25.35 L-233.75 -33.4 -234.8 -33.4 M-227.9 36.8 Q-228.2 33.45 -230.1 30.4 -234.95 22.55 -238.1 13.75 -242.05 2.55 -242.6 -9.25 -242.85 -15.6 -242.6 -21.9 -242.55 -23.05 -242.1 -24.1 L-241.15 -25.9 M-203.15 -18.45 Q-206.85 -19.35 -207.25 -16.15 -207.65 -13.25 -206.2 -11.2 L-205.45 -10.95 -202.55 -11.1 Q-201.55 -11.25 -201.5 -12.7 -201.4 -15.0 -201.65 -17.25 L-201.85 -17.9 Q-202.7 -20.05 -205.45 -20.15 M-222.15 -8.65 L-221.3 -20.1 -220.5 -19.55 Q-217.4 -14.9 -214.65 -11.55 -213.65 -13.2 -213.3 -14.95 -212.85 -17.35 -211.8 -19.6 M-196.55 -30.9 L-196.5 -30.45 Q-196.15 -28.05 -196.9 -25.95 L-197.4 -24.75 M-183.0 -24.75 L-182.75 -26.4 Q-182.1 -28.45 -182.45 -31.35 M-193.95 -12.1 L-190.35 -11.75 Q-190.1 -13.95 -187.55 -14.75 L-185.95 -15.25 -181.85 -15.55 M-192.2 -16.15 L-199.7 -16.45 Q-200.0 -13.45 -197.45 -12.55 L-196.8 -12.1 Q-195.4 -10.85 -195.4 -9.25 -195.35 -8.65 -195.8 -8.25 -197.0 -7.15 -199.15 -6.6 L-201.4 -6.35 M-190.35 -11.75 L-186.9 -10.8 -184.75 -10.25 -183.0 -10.0 -179.55 -9.8 M-177.25 -5.75 L-183.6 -6.9 Q-187.05 -7.35 -189.75 -9.45 -190.2 -9.8 -190.3 -10.45 L-190.35 -11.75 M-173.8 -4.05 Q-172.6 -3.7 -172.35 -4.5 M-203.55 -30.95 L-196.55 -30.9 M-39.1 -26.1 Q-43.1 -29.35 -44.9 -34.25 L-46.0 -37.35 Q-47.5 -32.4 -46.25 -27.25 -45.6 -24.7 -44.4 -22.5 M-13.2 -37.5 L-15.75 -32.6 Q-17.95 -28.0 -19.3 -22.95 L-22.15 -12.05 M-42.5 4.95 Q-40.65 8.2 -37.3 9.65 L-35.5 10.4 Q-34.05 4.8 -36.4 -0.65 -36.85 -1.65 -37.75 -2.45 -39.4 -3.8 -41.7 -4.65 M-48.3 -14.8 Q-35.0 -14.25 -32.7 -8.9 -30.45 -3.55 -31.45 -0.45 L-35.5 10.4 Q-36.5 14.8 -38.4 18.85 L-43.4 29.1 M21.8 1.6 Q6.95 0.1 -3.1 10.35 L-4.2 11.7 -4.65 12.95 -4.65 12.25 -4.2 11.7 M-26.45 35.3 Q-25.3 35.6 -24.55 36.45 -22.1 39.2 -23.1 42.85 -23.45 44.25 -24.85 45.05 -26.3 45.95 -28.05 45.3 -28.75 45.0 -29.15 44.3 L-29.7 43.2 -31.6 42.65 -32.95 44.15 Q-35.05 47.4 -35.95 51.55 -36.55 47.85 -38.55 44.55 -39.9 42.3 -42.95 43.0 L-42.95 43.05 -42.95 43.9 -43.15 44.95 -44.5 45.85 -47.3 45.05 M-29.7 43.2 L-29.65 42.05 -29.2 41.75 -27.6 41.75 M-48.5 38.35 Q-48.0 37.65 -47.15 37.2 -45.35 36.4 -43.4 35.85 L-34.65 35.15 -26.45 35.3 M-15.8 47.9 L-9.85 45.75 -2.95 43.1 2.75 43.1 7.4 43.6 12.1 43.4 Q12.75 43.35 13.35 42.9 14.2 42.2 14.35 41.1 L16.35 40.6 Q19.15 42.7 20.6 46.0 22.1 49.5 22.15 53.3 24.35 51.3 25.45 48.45 26.45 45.8 26.55 42.95 26.6 40.55 26.1 38.1 L29.1 40.6 Q31.45 42.75 36.15 48.95 M-42.95 43.0 Q-43.15 42.0 -44.3 41.45 M-27.4 54.9 L-22.75 54.65 -21.45 54.1 -15.8 47.9 Q-13.0 50.8 -12.15 57.1 -8.95 50.15 -9.85 45.75 M-37.15 55.3 Q-37.9 57.95 -37.95 60.95 M-42.55 55.15 L-38.25 55.45 -37.15 55.3 -34.4 54.85 Q-30.85 54.35 -27.4 54.9 L-25.75 62.25 M-22.8 62.9 Q-21.1 58.75 -21.45 54.1 M-154.25 47.15 L-123.7 43.45 Q-123.45 43.45 -123.15 43.7 -125.35 50.0 -131.2 49.7 L-139.25 49.2 -141.0 49.1 -145.0 48.35 Q-146.4 48.0 -147.3 47.15 M-206.6 78.8 L-205.15 74.65 Q-204.85 73.95 -204.7 73.1 -204.1 70.15 -203.15 68.45 -202.3 66.9 -200.9 65.55 -197.7 62.35 -193.3 60.45 -184.95 56.85 -174.95 56.2 L-172.65 55.95 -170.95 55.6 -169.75 55.45 -163.45 54.65 -161.2 53.95 Q-160.85 53.8 -160.8 53.45 -160.6 52.6 -159.4 52.95 M-188.2 23.6 Q-188.1 18.8 -189.0 14.4 -189.05 14.1 -189.4 13.95 -191.2 13.35 -193.35 13.3 -195.0 13.25 -195.6 14.4 -196.75 16.65 -196.4 19.55 L-196.0 21.8 Q-195.7 23.25 -194.5 23.6 -193.25 23.95 -193.35 23.0 M-224.45 75.35 Q-224.85 67.9 -223.7 61.05 L-223.45 59.8 Q-222.65 55.1 -218.65 51.25 -216.7 49.4 -215.5 47.35 L-214.8 46.45 -208.2 39.85 -206.7 38.45 Q-204.4 36.3 -202.7 34.9 L-201.85 34.1 Q-197.15 29.3 -193.35 26.45 M-218.7 58.7 Q-214.25 58.85 -211.55 61.25 L-210.7 61.75 -210.0 61.95 -208.35 62.15 M51.55 19.55 Q47.8 15.05 43.45 11.3 L41.15 9.3 M44.5 41.2 Q44.2 38.0 43.3 35.05 42.5 32.6 40.95 30.45 38.5 27.0 35.4 24.25 M29.1 40.6 Q29.65 47.7 26.45 52.5 25.75 53.55 24.7 54.05 17.65 57.75 16.95 62.15 L4.7 65.95 Q-6.95 68.95 -18.35 64.85 M-2.95 43.1 Q-0.4 45.35 2.1 53.25 5.1 44.6 2.75 43.1" fill="none" stroke="#000000" stroke-linecap="round" stroke-linejoin="round" stroke-width="1.0"/>
  </g>
  <defs>
    <radialGradient cx="0" cy="0" gradientTransform="matrix(0.0721, 0.0193, -0.025, 0.0933, -16.1, -5.7)" gradientUnits="userSpaceOnUse" id="gradient0" r="819.2" spreadMethod="pad">
      <stop offset="0.0" stop-color="#e2f9db"/>
      <stop offset="0.4745098039215686" stop-color="#67933c"/>
      <stop offset="1.0" stop-color="#4e5c23"/>
    </radialGradient>
    <radialGradient cx="0" cy="0" gradientTransform="matrix(0.0516, 0.0298, -0.0191, 0.0331, 58.75, 100.15)" gradientUnits="userSpaceOnUse" id="gradient1" r="819.2" spreadMethod="pad">
      <stop offset="0.0" stop-color="#e2f9db"/>
      <stop offset="0.4745098039215686" stop-color="#67933c"/>
      <stop offset="1.0" stop-color="#4e5c23"/>
    </radialGradient>
    <linearGradient gradientTransform="matrix(0.0314, 0.0, 0.0, 0.0321, 4.65, 94.5)" gradientUnits="userSpaceOnUse" id="gradient2" spreadMethod="pad" x1="-819.2" x2="819.2">
      <stop offset="0.0" stop-color="#45701b"/>
      <stop offset="0.4588235294117647" stop-color="#e2f9db"/>
      <stop offset="0.7490196078431373" stop-color="#67933c"/>
      <stop offset="1.0" stop-color="#4e5c23"/>
    </linearGradient>
  </defs>
</svg>
