<?xml version="1.0" encoding="UTF-8" standalone="no"?>
<svg xmlns:xlink="http://www.w3.org/1999/xlink" height="88.15px" width="86.95px" xmlns="http://www.w3.org/2000/svg">
  <g transform="matrix(1.0, 0.0, 0.0, 1.0, 48.1, 59.45)">
    <path d="M-35.85 -12.8 L-34.5 -13.3 -32.6 -13.35 -29.6 -12.8 Q-27.95 -12.3 -26.35 -10.7 -26.15 -10.95 -25.9 -10.4 -25.65 -9.75 -26.3 -9.15 -26.6 -9.1 -27.5 -9.8 -28.4 -10.55 -30.55 -11.3 -32.7 -12.1 -34.95 -12.0 L-37.05 -11.6 Q-38.05 -11.25 -38.95 -10.5 L-38.85 -10.85 Q-38.15 -11.9 -37.25 -12.25 L-37.15 -12.3 -35.85 -12.8" fill="#663300" fill-rule="evenodd" stroke="none"/>
    <path d="M-35.85 -12.8 L-37.15 -12.3 -37.25 -12.25 Q-38.15 -11.9 -38.85 -10.85 L-38.95 -10.5 Q-38.05 -11.25 -37.05 -11.6 L-34.95 -12.0 Q-32.7 -12.1 -30.55 -11.3 -28.4 -10.55 -27.5 -9.8 -26.6 -9.1 -26.3 -9.15 -25.65 -9.75 -25.9 -10.4 -26.15 -10.95 -26.35 -10.7 -27.95 -12.3 -29.6 -12.8 L-32.6 -13.35 -34.5 -13.3 -35.85 -12.8 Z" fill="none" stroke="#482400" stroke-linecap="round" stroke-linejoin="round" stroke-width="0.05"/>
    <path d="M4.6 -13.05 Q-0.05 -13.2 -4.55 -12.1 -9.1 -11.05 -11.0 -9.95 -13.0 -8.95 -13.6 -9.05 -14.95 -9.95 -14.35 -10.85 -13.75 -11.75 -13.35 -11.35 -9.9 -13.7 -6.45 -14.3 L-0.1 -15.0 3.8 -14.9 6.65 -14.2 9.25 -13.4 9.45 -13.35 Q11.25 -12.8 12.65 -11.25 L12.85 -10.75 Q11.0 -11.85 8.95 -12.45 L4.6 -13.05" fill="#663300" fill-rule="evenodd" stroke="none"/>
    <path d="M4.6 -13.05 Q-0.05 -13.2 -4.55 -12.1 -9.1 -11.05 -11.0 -9.95 -13.0 -8.95 -13.6 -9.05 -14.95 -9.95 -14.35 -10.85 -13.75 -11.75 -13.35 -11.35 -9.9 -13.7 -6.45 -14.3 L-0.1 -15.0 3.8 -14.9 6.65 -14.2 9.25 -13.4 9.45 -13.35 Q11.25 -12.8 12.65 -11.25 L12.85 -10.75 Q11.0 -11.85 8.95 -12.45 L4.6 -13.05 Z" fill="none" stroke="#482400" stroke-linecap="round" stroke-linejoin="round" stroke-width="0.05"/>
    <path d="M17.1 -52.3 L17.7 -52.1 18.6 -52.4 20.95 -52.15 Q21.65 -51.75 21.95 -50.85 29.0 -49.0 32.8 -43.9 36.6 -38.8 38.15 -22.2 39.65 -5.6 29.15 28.2 29.45 14.2 30.0 7.85 32.55 2.95 33.45 -5.75 34.35 -14.5 30.15 -15.75 25.95 -17.05 24.75 -11.0 18.7 0.1 19.75 -6.6 20.75 -13.35 20.6 -24.8 3.3 -33.45 -15.2 -25.95 L-17.9 -24.8 -16.3 -28.6 -16.9 -30.8 Q-19.6 -28.4 -29.25 -24.8 -35.15 -22.6 -40.2 -22.55 L-40.9 -22.55 -40.25 -23.05 Q-37.3 -25.45 -37.9 -29.05 -40.6 -26.35 -42.15 -25.5 -43.95 -24.5 -47.6 -23.9 L-39.4 -34.8 Q-43.35 -33.15 -47.4 -33.8 L-36.4 -42.3 Q-39.95 -41.75 -43.4 -42.8 -31.3 -54.05 -16.55 -57.5 -2.0 -60.9 13.2 -56.25 L14.0 -56.95 14.75 -56.55 Q17.3 -55.05 17.1 -52.3" fill="url(#gradient0)" fill-rule="evenodd" stroke="none"/>
    <path d="M17.1 -52.3 Q17.3 -55.05 14.75 -56.55 L14.0 -56.95 13.2 -56.25 Q-2.0 -60.9 -16.55 -57.5 -31.3 -54.05 -43.4 -42.8 -39.95 -41.75 -36.4 -42.3 L-47.4 -33.8 Q-43.35 -33.15 -39.4 -34.8 L-47.6 -23.9 Q-43.95 -24.5 -42.15 -25.5 -40.6 -26.35 -37.9 -29.05 -37.3 -25.45 -40.25 -23.05 L-40.9 -22.55 -40.2 -22.55 Q-35.15 -22.6 -29.25 -24.8 -19.6 -28.4 -16.9 -30.8 L-16.3 -28.6 -17.9 -24.8 -15.2 -25.95 Q3.3 -33.45 20.6 -24.8 20.75 -13.35 19.75 -6.6 18.7 0.1 24.75 -11.0 25.95 -17.05 30.15 -15.75 34.35 -14.5 33.45 -5.75 32.55 2.95 30.0 7.85 29.45 14.2 29.15 28.2 39.65 -5.6 38.15 -22.2 36.6 -38.8 32.8 -43.9 29.0 -49.0 21.95 -50.85 21.65 -51.75 20.95 -52.15 L18.6 -52.4 17.7 -52.1" fill="none" stroke="#000000" stroke-linecap="round" stroke-linejoin="round" stroke-width="1.0"/>
  </g>
  <defs>
    <radialGradient cx="0" cy="0" gradientTransform="matrix(0.0028, 0.1085, -0.1668, 0.0043, -2.4, -48.8)" gradientUnits="userSpaceOnUse" id="gradient0" r="819.2" spreadMethod="pad">
      <stop offset="0.0" stop-color="#3c1e00"/>
      <stop offset="0.3176470588235294" stop-color="#7c543f"/>
      <stop offset="1.0" stop-color="#482400"/>
    </radialGradient>
  </defs>
</svg>
