<?xml version="1.0" encoding="UTF-8" standalone="no"?>
<svg xmlns:xlink="http://www.w3.org/1999/xlink" height="83.55px" width="135.65px" xmlns="http://www.w3.org/2000/svg">
  <g transform="matrix(1.0, 0.0, 0.0, 1.0, 60.05, 48.25)">
    <path d="M47.2 18.1 L47.45 18.3 47.5 18.35 Q54.05 22.6 61.6 20.65 64.2 20.0 66.65 18.95 68.8 18.1 70.8 16.95 L73.85 15.1 75.1 14.1 67.9 14.45 60.75 13.05 Q59.7 12.8 58.7 12.3 56.4 11.2 54.5 9.65 L52.1 7.45 Q51.1 6.3 50.6 5.15 49.6 2.9 49.05 0.6 L48.7 -0.6 Q47.95 -2.85 47.45 -5.2 L47.15 -6.3 Q46.65 -7.55 46.55 -8.95 L46.35 -10.1 45.4 -14.35 44.8 -15.8 Q43.35 -18.45 42.25 -21.3 L40.95 -23.65 39.95 -25.0 37.45 -28.9 36.35 -30.6 35.1 -32.5 Q33.95 -34.45 32.3 -36.05 28.5 -39.7 23.65 -41.85 L22.1 -42.5 Q19.45 -43.7 16.7 -44.35 15.55 -44.65 14.35 -45.1 L13.25 -45.4 Q9.9 -45.85 6.9 -44.65 L5.45 -43.85 Q4.4 -43.05 3.9 -44.55 3.5 -45.85 2.7 -46.95 L1.75 -47.75 1.55 -47.45 Q0.95 -45.85 1.15 -44.05 -0.1 -45.5 -1.7 -46.35 -2.25 -46.3 -2.15 -45.45 -2.0 -44.6 -2.0 -43.75 L-6.0 -44.15 -8.55 -43.85 -9.4 -43.4 -11.45 -41.4 -13.2 -39.7 Q-15.2 -38.05 -17.5 -36.7 L-19.05 -35.85 -20.6 -34.95 -22.15 -34.0 Q-26.35 -30.9 -29.95 -27.1 -31.75 -25.2 -32.9 -22.8 L-35.0 -18.4 Q-37.75 -12.35 -39.45 -6.0 L-40.1 -3.25 -40.9 0.0 Q-42.6 5.35 -45.15 10.35 L-47.05 13.65 Q-48.0 15.1 -49.3 16.3 -51.35 18.3 -53.85 19.8 -55.8 20.95 -58.1 20.75 L-59.55 20.7 Q-54.55 24.45 -48.0 24.6 L-45.45 24.15 Q-48.4 27.2 -51.75 29.6 -51.55 30.15 -50.6 30.1 L-48.65 29.95 Q-47.15 29.8 -45.75 29.25 L-39.45 26.6 -37.6 25.65 Q-36.6 25.15 -36.1 24.25 L-35.7 23.8 -35.35 23.3 M18.45 -9.2 Q17.75 -9.55 18.95 -9.3 L19.85 -8.95 22.6 -7.25 24.6 -5.4 25.85 -3.4 Q27.15 -0.6 27.5 2.55 28.1 8.45 30.0 14.1 30.8 16.4 31.9 18.6 32.95 20.7 34.5 22.5 L37.35 25.35 Q39.35 27.1 41.75 28.2 L39.5 23.8 Q37.9 20.85 38.0 17.55 40.2 23.25 45.5 26.5 48.9 28.6 52.9 29.2 L58.2 29.8 61.55 29.4 64.25 28.6 65.9 28.15 67.05 27.95 65.6 27.7 62.45 27.2 Q56.8 25.75 52.1 22.15 L47.45 18.3 M-31.05 -12.1 L-31.6 -12.0 -33.95 -10.1 Q-37.95 -6.0 -39.35 -0.6 L-39.7 2.0 Q-39.8 7.6 -38.3 12.95 -37.65 15.1 -37.3 17.3 -36.6 21.35 -34.05 24.55 -31.65 27.45 -28.75 29.35 L-28.85 28.8 -31.05 23.6 -32.6 19.5 -33.7 15.25 Q-34.25 12.7 -34.05 10.05 L-33.45 6.1 Q-33.05 4.6 -32.3 3.25 L-30.9 0.75 Q-30.25 -0.45 -29.3 0.25 L-27.0 2.0 Q-26.4 2.45 -26.15 3.0 -25.65 4.05 -24.7 4.3 L-24.75 3.45 Q-25.05 -0.65 -23.3 -4.35 L-22.95 -4.0 -22.05 -1.8 -18.95 3.45 -18.85 1.4 Q-19.0 -2.25 -18.1 -5.5 -15.95 -3.1 -14.1 0.0 -13.2 1.45 -12.6 2.95 -12.05 4.15 -11.2 4.6 L-10.6 0.85 -9.9 -3.15 Q-9.6 -4.6 -8.85 -5.85 L-7.7 -6.75 -5.75 -7.15 Q-0.65 -7.6 3.15 -4.3 3.65 -3.85 4.15 -4.3 L4.35 -4.6 Q8.15 -2.9 10.6 0.6 12.25 3.0 13.25 5.7 14.45 8.9 14.5 12.35 14.55 16.25 13.7 20.0 L11.55 27.9 Q10.35 31.4 8.05 34.2 L7.5 34.8 Q14.6 29.2 19.95 21.8 22.35 18.55 23.65 14.75 25.05 10.8 25.3 6.55 25.5 3.0 24.25 -0.3 23.35 -2.9 21.45 -5.1 L18.7 -8.05 17.3 -9.5 M4.05 -3.75 L4.15 -4.3 M67.35 27.9 L67.05 27.95" fill="none" stroke="#000000" stroke-linecap="round" stroke-linejoin="round" stroke-width="1.0"/>
  </g>
</svg>
