<?xml version="1.0" encoding="UTF-8" standalone="no"?>
<svg xmlns:xlink="http://www.w3.org/1999/xlink" height="294.0px" width="221.8px" xmlns="http://www.w3.org/2000/svg">
  <g transform="matrix(1.0, 0.0, 0.0, 1.0, 98.75, 187.35)">
    <path d="M13.3 -47.95 L12.5 -46.8 Q11.35 -44.6 10.9 -40.3 L10.3 -32.05 Q9.4 -20.75 5.05 -15.4 -1.4 -7.5 -17.25 -7.5 -24.6 -7.5 -33.55 -12.35 L-38.95 -15.1 -36.25 -18.1 Q-33.05 -17.0 -29.0 -17.0 -12.75 -17.0 -5.75 -28.8 -1.75 -35.55 -1.75 -43.0 -1.75 -48.35 -8.8 -50.7 -15.35 -52.9 -24.25 -51.45 -33.6 -49.9 -39.7 -45.1 -46.1 -40.05 -46.7 -32.9 -50.1 -27.85 -52.7 -22.1 -55.75 -15.45 -56.15 -11.2 -58.45 -8.3 -59.6 -2.9 -60.75 2.7 -60.5 8.5 -59.9 12.2 -58.55 15.65 -56.6 20.6 -54.05 21.95 -52.85 24.9 -51.25 27.75 -37.65 52.0 -3.0 52.0 20.5 52.0 34.2 42.05 33.5 43.3 33.5 44.0 33.5 45.55 34.25 45.2 L35.0 44.5 Q42.95 43.35 48.0 33.5 52.0 25.7 52.0 19.0 52.0 17.65 50.95 15.6 L50.8 15.25 Q52.25 8.15 52.25 -0.5 52.25 -13.75 46.8 -26.6 39.5 -43.85 25.5 -49.0 21.85 -50.2 19.15 -50.25 20.0 -51.75 20.0 -53.0 20.0 -58.15 15.0 -57.9 13.0 -57.8 11.55 -56.55 10.0 -55.2 10.0 -53.1 9.9 -51.9 10.5 -50.5 11.3 -48.55 13.3 -47.95 M49.6 -49.1 Q70.1 -28.6 70.1 0.4 70.1 29.4 49.6 49.9 29.1 70.4 0.1 70.4 -28.9 70.4 -49.4 49.9 -69.9 29.4 -69.9 0.4 -69.9 -28.6 -49.4 -49.1 -28.9 -69.6 0.1 -69.6 29.1 -69.6 49.6 -49.1 M-3.0 39.75 L-1.5 39.25 -1.45 39.8 -3.0 39.75" fill="#33cc99" fill-opacity="0.8" fill-rule="evenodd" stroke="none"/>
    <path d="M13.3 -47.95 L15.0 -47.75 Q17.55 -47.75 19.0 -50.05 L19.15 -50.25 Q21.85 -50.2 25.5 -49.0 39.5 -43.85 46.8 -26.6 52.25 -13.75 52.25 -0.5 52.25 8.15 50.8 15.25 49.8 13.5 49.0 13.25 46.2 14.75 44.9 20.2 L42.75 28.75 Q40.6 33.5 36.55 38.6 34.95 40.65 34.2 42.05 20.5 52.0 -3.0 52.0 -37.65 52.0 -51.25 27.75 -52.85 24.9 -54.05 21.95 -53.1 22.5 -52.0 22.5 -49.85 22.5 -48.55 20.75 -47.25 19.1 -47.25 16.6 -47.25 14.4 -49.35 10.75 L-49.85 9.8 Q-48.3 9.5 -47.05 8.75 -44.25 7.15 -44.25 3.85 -44.25 0.85 -46.55 -1.3 -48.35 -3.05 -50.7 -3.5 L-50.5 -4.75 -50.3 -6.0 Q-47.65 -7.25 -42.55 -11.75 L-38.95 -15.1 -33.55 -12.35 Q-24.6 -7.5 -17.25 -7.5 -1.4 -7.5 5.05 -15.4 9.4 -20.75 10.3 -32.05 L10.9 -40.3 Q11.35 -44.6 12.5 -46.8 L13.3 -47.95 M36.0 -0.35 Q36.0 -4.35 34.05 -8.85 32.05 -13.45 29.2 -15.65 26.0 -18.2 23.05 -16.3 19.55 -14.15 17.0 -6.25 15.5 -0.9 11.65 4.75 6.75 4.4 -1.75 6.1 -8.8 7.55 -15.5 9.85 -17.0 10.35 -18.1 10.8 L-20.85 8.25 -26.3 2.9 Q-29.3 0.5 -32.0 0.5 -35.5 0.5 -39.0 2.5 -42.75 4.65 -42.75 7.25 -42.75 8.55 -40.9 12.95 -38.45 18.8 -34.75 23.8 -23.4 39.0 -5.5 39.0 21.85 39.0 31.45 21.0 36.0 12.55 36.0 -0.35 M27.25 -26.05 Q28.5 -27.9 28.5 -30.1 28.5 -32.85 26.8 -34.3 25.25 -35.65 23.0 -35.5 20.8 -35.4 19.2 -33.95 17.5 -32.35 17.5 -29.85 17.4 -28.15 18.0 -26.65 19.25 -23.75 23.0 -23.75 25.7 -23.75 27.25 -26.05 M-30.05 42.0 Q-29.0 40.55 -29.0 39.0 -29.0 36.6 -30.55 35.2 -31.95 33.95 -34.0 33.95 -36.05 33.95 -37.45 35.2 -39.0 36.6 -39.0 39.0 -39.1 39.95 -38.5 41.25 -37.3 44.0 -34.0 44.0 -31.45 44.0 -30.05 42.0 M-3.0 39.75 L-1.45 39.8 -1.5 39.25 -3.0 39.75" fill="#16583e" fill-opacity="0.8" fill-rule="evenodd" stroke="none"/>
    <path d="M27.25 -26.05 Q25.7 -23.75 23.0 -23.75 19.25 -23.75 18.0 -26.65 17.4 -28.15 17.5 -29.85 17.5 -32.35 19.2 -33.95 20.8 -35.4 23.0 -35.5 25.25 -35.65 26.8 -34.3 28.5 -32.85 28.5 -30.1 28.5 -27.9 27.25 -26.05 M36.0 -0.35 Q36.0 12.55 31.45 21.0 21.85 39.0 -5.5 39.0 -23.4 39.0 -34.75 23.8 -38.45 18.8 -40.9 12.95 -42.75 8.55 -42.75 7.25 -42.75 4.65 -39.0 2.5 -35.5 0.5 -32.0 0.5 -29.3 0.5 -26.3 2.9 L-20.85 8.25 -18.1 10.8 Q-17.0 10.35 -15.5 9.85 -8.8 7.55 -1.75 6.1 6.75 4.4 11.65 4.75 15.5 -0.9 17.0 -6.25 19.55 -14.15 23.05 -16.3 26.0 -18.2 29.2 -15.65 32.05 -13.45 34.05 -8.85 36.0 -4.35 36.0 -0.35" fill="#0e3625" fill-opacity="0.8" fill-rule="evenodd" stroke="none"/>
    <path d="M19.15 -50.25 L19.0 -50.05 Q17.55 -47.75 15.0 -47.75 L13.3 -47.95 Q11.3 -48.55 10.5 -50.5 9.9 -51.9 10.0 -53.1 10.0 -55.2 11.55 -56.55 13.0 -57.8 15.0 -57.9 20.0 -58.15 20.0 -53.0 20.0 -51.75 19.15 -50.25 M-38.95 -15.1 L-42.55 -11.75 Q-47.65 -7.25 -50.3 -6.0 L-50.5 -4.75 -50.7 -3.5 -51.6 -3.65 Q-54.65 -4.0 -56.7 -2.25 -59.0 -0.25 -59.0 3.85 -59.25 4.85 -58.55 6.5 -57.0 10.0 -52.0 10.0 L-49.85 9.8 -49.35 10.75 Q-47.25 14.4 -47.25 16.6 -47.25 19.1 -48.55 20.75 -49.85 22.5 -52.0 22.5 -53.1 22.5 -54.05 21.95 -56.6 20.6 -58.55 15.65 -59.9 12.2 -60.5 8.5 -60.75 2.7 -59.6 -2.9 -58.45 -8.3 -56.15 -11.2 -55.75 -15.45 -52.7 -22.1 -50.1 -27.85 -46.7 -32.9 -46.1 -40.05 -39.7 -45.1 -33.6 -49.9 -24.25 -51.45 -15.35 -52.9 -8.8 -50.7 -1.75 -48.35 -1.75 -43.0 -1.75 -35.55 -5.75 -28.8 -12.75 -17.0 -29.0 -17.0 -33.05 -17.0 -36.25 -18.1 L-38.95 -15.1 M34.2 42.05 Q34.95 40.65 36.55 38.6 40.6 33.5 42.75 28.75 L44.9 20.2 Q46.2 14.75 49.0 13.25 49.8 13.5 50.8 15.25 L50.95 15.6 Q52.0 17.65 52.0 19.0 52.0 25.7 48.0 33.5 42.95 43.35 35.0 44.5 L34.25 45.2 Q33.5 45.55 33.5 44.0 33.5 43.3 34.2 42.05 M-17.05 -28.3 Q-13.25 -32.7 -13.25 -35.75 -13.25 -42.2 -17.45 -44.85 -21.2 -47.25 -26.75 -46.0 -32.15 -44.8 -36.05 -41.05 -40.25 -37.0 -40.25 -32.0 -40.35 -29.4 -39.05 -27.1 -36.45 -22.5 -29.5 -22.5 -22.05 -22.5 -17.05 -28.3 M-30.05 42.0 Q-31.45 44.0 -34.0 44.0 -37.3 44.0 -38.5 41.25 -39.1 39.95 -39.0 39.0 -39.0 36.6 -37.45 35.2 -36.05 33.95 -34.0 33.95 -31.95 33.95 -30.55 35.2 -29.0 36.6 -29.0 39.0 -29.0 40.55 -30.05 42.0" fill="#5bffb7" fill-opacity="0.8" fill-rule="evenodd" stroke="none"/>
    <path d="M-50.7 -3.5 Q-48.35 -3.05 -46.55 -1.3 -44.25 0.85 -44.25 3.85 -44.25 7.15 -47.05 8.75 -48.3 9.5 -49.85 9.8 L-52.0 10.0 Q-57.0 10.0 -58.55 6.5 -59.25 4.85 -59.0 3.85 -59.0 -0.25 -56.7 -2.25 -54.65 -4.0 -51.6 -3.65 L-50.7 -3.5 M-17.05 -28.3 Q-22.05 -22.5 -29.5 -22.5 -36.45 -22.5 -39.05 -27.1 -40.35 -29.4 -40.25 -32.0 -40.25 -37.0 -36.05 -41.05 -32.15 -44.8 -26.75 -46.0 -21.2 -47.25 -17.45 -44.85 -13.25 -42.2 -13.25 -35.75 -13.25 -32.7 -17.05 -28.3" fill="#b4fed8" fill-rule="evenodd" stroke="none"/>
    <path d="M14.9 -132.7 Q17.25 -127.5 16.3 -122.05 16.0 -120.5 14.9 -119.7 4.6 -111.8 10.0 -100.45 11.2 -97.9 13.25 -96.2 24.35 -87.05 38.15 -90.4 40.65 -90.95 42.4 -92.9 48.0 -99.0 43.8 -105.4 41.35 -109.2 38.55 -112.75 L33.15 -120.1 Q32.65 -124.8 37.05 -126.6 45.2 -130.1 53.4 -128.2 59.0 -127.0 62.0 -122.2 64.65 -117.85 65.95 -113.0 65.75 -111.45 64.6 -110.45 60.7 -107.3 58.85 -102.6 57.75 -99.8 57.6 -96.75 L57.7 -95.8 64.85 -84.95 Q62.9 -80.15 60.0 -75.85 58.05 -72.95 58.4 -69.45 58.85 -65.05 61.95 -61.6 70.7 -51.7 77.8 -40.6 86.75 -26.5 87.5 -9.65 87.75 -3.75 91.9 -0.1 94.2 2.0 97.5 1.7 105.2 1.0 107.65 -7.1 109.95 -14.8 106.0 -21.35 L104.25 -24.3 Q101.7 -28.85 102.7 -33.9 107.5 -39.35 114.85 -38.55 116.05 -38.25 116.8 -37.15 120.7 -31.75 122.15 -25.25 L123.05 -20.9 Q116.8 -14.7 118.0 -5.95 118.2 -4.4 117.75 -2.85 115.9 3.4 116.7 9.7 117.15 13.1 118.25 16.5 119.25 19.45 118.25 22.5 114.15 35.1 102.1 40.4 89.4 46.05 83.35 58.8 82.0 61.7 81.9 64.75 81.3 78.85 68.05 82.6 62.1 84.3 57.3 80.1 55.85 78.8 54.2 77.8 46.15 73.15 38.45 77.7 36.15 79.0 35.65 81.55 34.75 86.05 31.85 89.5 27.9 94.25 21.8 94.2 14.15 94.15 6.5 92.5 -0.55 91.05 -7.6 93.3 -14.05 95.5 -19.55 99.75 -25.5 104.35 -33.0 105.75 -51.3 108.7 -68.75 101.85 -79.35 97.6 -88.0 90.55 -89.5 89.35 -88.95 87.45 -85.85 85.6 -81.2 86.8 -65.35 90.85 -49.4 91.3 -47.8 91.8 -46.15 91.25 -43.55 90.4 -41.6 88.75 L-41.7 86.55 -47.4 84.15 -47.0 82.95 Q-64.95 75.75 -78.1 61.95 -84.95 54.8 -89.4 45.8 -97.2 30.1 -98.5 12.7 -100.0 -7.1 -92.45 -25.45 -90.15 -30.95 -87.25 -36.05 -82.95 -43.7 -81.15 -52.4 -79.95 -58.15 -79.8 -63.95 -79.4 -78.05 -84.75 -91.2 -86.1 -94.5 -86.4 -98.05 -88.35 -119.8 -70.65 -131.9 -64.0 -136.55 -56.1 -138.8 -51.75 -140.1 -47.25 -140.05 -42.35 -139.6 -40.25 -135.15 L-40.65 -133.2 -54.4 -124.4 Q-60.35 -117.25 -57.9 -108.5 -57.15 -105.75 -54.45 -104.5 -49.6 -102.2 -44.15 -101.75 -36.9 -101.5 -30.5 -104.85 -22.5 -108.95 -21.75 -117.75 -21.3 -123.3 -22.8 -128.5 -27.9 -145.9 -43.55 -154.9 -52.55 -160.1 -49.45 -170.3 -46.05 -181.4 -34.65 -185.35 -24.15 -189.15 -13.9 -185.65 -8.45 -183.8 -3.95 -179.15 -5.65 -176.2 -8.85 -175.0 -13.35 -173.4 -17.25 -170.2 -21.85 -166.5 -22.4 -160.45 -15.35 -150.1 -3.05 -147.3 2.15 -146.25 6.45 -143.1 12.0 -139.0 14.9 -132.7 M49.6 -49.1 Q29.1 -69.6 0.1 -69.6 -28.9 -69.6 -49.4 -49.1 -69.9 -28.6 -69.9 0.4 -69.9 29.4 -49.4 49.9 -28.9 70.4 0.1 70.4 29.1 70.4 49.6 49.9 70.1 29.4 70.1 0.4 70.1 -28.6 49.6 -49.1" fill="#04fb80" fill-opacity="0.2" fill-rule="evenodd" stroke="none"/>
    <path d="M49.6 -49.1 Q70.1 -28.6 70.1 0.4 70.1 29.4 49.6 49.9 29.1 70.4 0.1 70.4 -28.9 70.4 -49.4 49.9 -69.9 29.4 -69.9 0.4 -69.9 -28.6 -49.4 -49.1 -28.9 -69.6 0.1 -69.6 29.1 -69.6 49.6 -49.1 Z" fill="none" stroke="#33ff99" stroke-linecap="round" stroke-linejoin="round" stroke-opacity="0.7137255" stroke-width="10.0"/>
  </g>
</svg>
