<?xml version="1.0" encoding="UTF-8" standalone="no"?>
<svg xmlns:xlink="http://www.w3.org/1999/xlink" height="334.35px" width="142.4px" xmlns="http://www.w3.org/2000/svg">
  <g transform="matrix(1.0, 0.0, 0.0, 1.0, 62.35, 184.5)">
    <path d="M42.8 -47.1 L45.55 -46.05 45.15 -45.1 Q29.55 -28.5 3.6 -30.45 L2.15 -30.2 Q-26.95 -26.7 -46.15 -43.3 -3.1 -65.0 42.75 -47.15 L42.8 -47.1 M-15.35 20.7 Q-12.3 20.7 -10.65 19.0 -9.4 17.75 -9.4 16.15 -9.4 14.15 -12.15 12.55 -14.75 11.1 -18.2 10.75 -21.85 10.4 -24.25 11.65 -27.0 13.05 -27.0 16.15 -27.0 18.05 -26.05 18.8 -23.65 20.7 -15.35 20.7 M-35.25 18.2 L-36.8 17.5 -36.55 15.35 -38.15 14.8 Q-16.55 -5.95 2.95 17.45 3.9 18.6 3.6 20.2 -0.95 26.15 -9.15 26.3 L-11.15 26.3 -12.25 25.4 Q-24.0 24.8 -34.5 19.5 L-35.25 18.2 M35.5 10.05 Q35.5 8.15 32.85 7.4 30.45 6.75 27.1 7.4 23.65 8.05 21.35 9.75 18.7 11.6 18.7 14.15 L19.3 16.25 Q20.45 18.2 23.45 18.2 29.2 18.2 32.8 14.6 35.5 12.0 35.5 10.05 M16.6 24.05 Q9.65 21.05 9.65 13.7 22.7 -2.25 42.0 1.0 45.3 23.05 17.65 24.2 L16.6 24.05 M14.35 51.95 L6.3 38.25 Q5.5 38.75 5.0 39.4 1.4 43.95 1.7 50.3 1.8 52.35 0.15 53.6 L-0.15 50.3 Q-1.15 38.6 5.0 26.85 L5.5 25.3 7.3 27.1 Q15.7 38.45 15.15 52.0 L14.35 51.95" fill="#341e0e" fill-rule="evenodd" stroke="none"/>
    <path d="M-13.1 17.65 Q-12.1 16.95 -12.1 15.75 -12.1 13.3 -18.4 13.1 -24.7 12.95 -24.7 15.25 -24.7 16.3 -22.6 17.25 -20.1 18.4 -16.3 18.4 -14.25 18.4 -13.1 17.65 M-15.35 20.7 Q-23.65 20.7 -26.05 18.8 -27.0 18.05 -27.0 16.15 -27.0 13.05 -24.25 11.65 -21.85 10.4 -18.2 10.75 -14.75 11.1 -12.15 12.55 -9.4 14.15 -9.4 16.15 -9.4 17.75 -10.65 19.0 -12.3 20.7 -15.35 20.7 M35.5 10.05 Q35.5 12.0 32.8 14.6 29.2 18.2 23.45 18.2 20.45 18.2 19.3 16.25 L18.7 14.15 Q18.7 11.6 21.35 9.75 23.65 8.05 27.1 7.4 30.45 6.75 32.85 7.4 35.5 8.15 35.5 10.05 M26.55 9.8 Q24.15 10.5 22.05 11.65 20.05 12.75 20.05 13.35 L20.4 14.6 Q21.25 15.75 23.85 15.75 27.3 15.75 30.15 14.4 33.05 13.05 33.05 11.55 33.05 7.95 26.55 9.8" fill="#341e35" fill-rule="evenodd" stroke="none"/>
    <path d="M-13.1 17.65 Q-14.25 18.4 -16.3 18.4 -20.1 18.4 -22.6 17.25 -24.7 16.3 -24.7 15.25 -24.7 12.95 -18.4 13.1 -12.1 13.3 -12.1 15.75 -12.1 16.95 -13.1 17.65 M-15.05 16.5 Q-15.05 15.1 -17.2 14.6 -19.1 14.2 -21.7 14.6 L-21.85 14.95 -21.9 15.65 Q-21.9 16.25 -20.55 16.9 -18.95 17.7 -16.5 17.7 -15.05 17.7 -15.05 16.5 M30.0 10.95 L25.6 11.5 Q23.25 12.2 23.25 13.15 L23.3 14.2 24.4 14.4 27.65 13.45 Q30.3 12.4 30.3 11.9 L30.15 11.15 30.0 10.95 M26.55 9.8 Q33.05 7.95 33.05 11.55 33.05 13.05 30.15 14.4 27.3 15.75 23.85 15.75 21.25 15.75 20.4 14.6 L20.05 13.35 Q20.05 12.75 22.05 11.65 24.15 10.5 26.55 9.8" fill="#341e6d" fill-rule="evenodd" stroke="none"/>
    <path d="M-15.05 16.5 Q-15.05 17.7 -16.5 17.7 -18.95 17.7 -20.55 16.9 -21.9 16.25 -21.9 15.65 L-21.85 14.95 -21.7 14.6 Q-19.1 14.2 -17.2 14.6 -15.05 15.1 -15.05 16.5 M30.0 10.95 L30.15 11.15 30.3 11.9 Q30.3 12.4 27.65 13.45 L24.4 14.4 23.3 14.2 23.25 13.15 Q23.25 12.2 25.6 11.5 L30.0 10.95" fill="#541e96" fill-rule="evenodd" stroke="none"/>
    <path d="M49.05 -41.2 Q45.4 -37.55 39.95 -34.95 39.5 -34.7 39.05 -34.55 L37.8 -34.0 Q36.0 -32.85 33.05 -31.8 L32.15 -31.5 28.5 -30.25 15.4 -26.0 12.35 -25.1 Q5.65 -23.15 -2.15 -23.6 L-3.55 -23.3 -7.45 -23.05 -9.85 -23.45 -12.1 -23.65 -19.7 -24.6 -21.3 -24.9 -23.5 -25.4 -27.45 -26.5 Q-28.15 -26.7 -28.65 -27.05 -29.65 -27.85 -31.25 -27.95 -33.8 -28.15 -35.75 -29.8 -36.15 -30.1 -36.6 -30.25 L-37.8 -30.9 -40.2 -32.35 Q-41.9 -33.2 -43.25 -34.5 -43.8 -35.1 -44.4 -35.35 -47.65 -36.8 -47.25 -40.45 -47.65 -36.8 -44.4 -35.35 -43.8 -35.1 -43.25 -34.5 -41.9 -33.2 -40.2 -32.35 L-37.8 -30.9 -36.6 -30.25 Q-36.15 -30.1 -35.75 -29.8 -33.8 -28.15 -31.25 -27.95 -29.65 -27.85 -28.65 -27.05 -28.15 -26.7 -27.45 -26.5 L-23.5 -25.4 -21.3 -24.9 -19.7 -24.6 -12.1 -23.65 -9.85 -23.45 -7.45 -23.05 -3.55 -23.3 -2.15 -23.6 Q5.65 -23.15 12.35 -25.1 L15.4 -26.0 28.5 -30.25 32.15 -31.5 33.05 -31.8 Q36.0 -32.85 37.8 -34.0 L39.05 -34.55 Q39.5 -34.7 39.95 -34.95 45.4 -37.55 49.05 -41.2 M42.75 -47.15 Q-3.1 -65.0 -46.15 -43.3 -26.95 -26.7 2.15 -30.2 L3.6 -30.45 Q29.55 -28.5 45.15 -45.1 L45.55 -46.05 42.8 -47.1 42.8 -47.3 42.75 -47.15 M47.5 -0.7 L46.05 -0.95 45.15 -1.15 42.25 -1.75 41.35 -1.9 38.4 -2.55 37.55 -2.7 Q35.3 -3.0 33.05 -2.7 L32.25 -2.6 Q28.4 -2.75 25.25 -1.75 18.6 0.3 13.85 3.1 L12.55 4.1 11.45 5.25 7.15 10.15 Q6.65 10.75 5.5 10.7 L1.7 6.9 1.0 6.1 Q-0.8 2.9 -3.7 0.85 -5.25 -0.3 -8.25 -0.3 L-10.6 -0.4 Q-14.4 -0.7 -18.15 -0.35 L-18.95 -0.3 Q-23.6 -0.2 -27.3 1.75 L-28.2 2.1 Q-35.35 3.9 -38.85 8.45 -35.35 3.9 -28.2 2.1 L-27.3 1.75 Q-23.6 -0.2 -18.95 -0.3 L-18.15 -0.35 Q-14.4 -0.7 -10.6 -0.4 L-8.25 -0.3 Q-5.25 -0.3 -3.7 0.85 -0.8 2.9 1.0 6.1 L1.7 6.9 5.5 10.7 Q6.65 10.75 7.15 10.15 L11.45 5.25 12.55 4.1 13.85 3.1 Q18.6 0.3 25.25 -1.75 28.4 -2.75 32.25 -2.6 L33.05 -2.7 Q35.3 -3.0 37.55 -2.7 L38.4 -2.55 41.35 -1.9 42.25 -1.75 45.15 -1.15 46.05 -0.95 47.5 -0.7 M29.95 -16.0 Q27.4 -16.15 30.65 -16.85 32.35 -17.25 32.1 -16.0 31.7 -13.45 29.9 -13.1 23.9 -11.8 23.85 -16.75 23.85 -17.5 24.2 -17.9 L26.25 -20.5 26.95 -21.15 30.0 -22.0 30.9 -22.4 Q31.4 -23.35 32.9 -22.6 35.35 -21.35 38.25 -20.35 L38.85 -19.75 Q39.1 -18.65 38.75 -17.65 38.2 -15.85 38.0 -13.75 L37.95 -12.9 Q37.6 -9.05 36.6 -6.15 L36.45 -5.3 Q36.55 -3.7 35.3 -3.75 36.55 -3.7 36.45 -5.3 L36.6 -6.15 Q37.6 -9.05 37.95 -12.9 L38.0 -13.75 Q38.2 -15.85 38.75 -17.65 39.1 -18.65 38.85 -19.75 L38.25 -20.35 Q35.35 -21.35 32.9 -22.6 31.4 -23.35 30.9 -22.4 L30.0 -22.0 26.95 -21.15 26.25 -20.5 24.2 -17.9 Q23.85 -17.5 23.85 -16.75 23.9 -11.8 29.9 -13.1 31.7 -13.45 32.1 -16.0 32.35 -17.25 30.65 -16.85 27.4 -16.15 29.95 -16.0 M24.6 -2.25 Q25.1 -3.85 23.85 -4.05 23.45 -4.15 23.3 -4.6 L22.75 -5.9 Q21.9 -7.55 19.3 -7.35 17.0 -7.15 15.4 -6.15 L10.9 -3.65 7.15 -1.9 Q4.15 -0.75 1.0 -2.4 L0.1 -2.7 Q-3.05 -3.1 -3.9 -5.2 -4.05 -5.65 -4.55 -5.85 -6.5 -6.6 -6.7 -9.1 -6.75 -9.85 -7.05 -10.0 -8.0 -10.55 -7.4 -12.1 -5.25 -17.65 0.8 -20.0 L1.7 -20.25 Q10.55 -21.8 12.15 -15.95 L12.65 -14.6 Q13.3 -13.45 12.9 -11.45 12.45 -9.3 11.9 -8.2 10.65 -5.5 7.05 -5.0 L5.5 -5.0 Q2.45 -5.3 -0.6 -6.2 -1.4 -6.45 -1.55 -6.95 -3.05 -12.45 0.15 -14.4 0.9 -14.85 1.3 -15.45 2.25 -16.95 4.7 -16.5 L6.3 -16.15 Q7.95 -15.75 8.1 -13.75 L8.25 -12.85 Q9.05 -9.6 5.5 -9.85 4.7 -9.85 4.25 -10.25 1.95 -12.2 4.7 -13.7 1.95 -12.2 4.25 -10.25 4.7 -9.85 5.5 -9.85 9.05 -9.6 8.25 -12.85 L8.1 -13.75 Q7.95 -15.75 6.3 -16.15 L4.7 -16.5 Q2.25 -16.95 1.3 -15.45 0.9 -14.85 0.15 -14.4 -3.05 -12.45 -1.55 -6.95 -1.4 -6.45 -0.6 -6.2 2.45 -5.3 5.5 -5.0 L7.05 -5.0 Q10.65 -5.5 11.9 -8.2 12.45 -9.3 12.9 -11.45 13.3 -13.45 12.65 -14.6 L12.15 -15.95 Q10.55 -21.8 1.7 -20.25 L0.8 -20.0 Q-5.25 -17.65 -7.4 -12.1 -8.0 -10.55 -7.05 -10.0 -6.75 -9.85 -6.7 -9.1 -6.5 -6.6 -4.55 -5.85 -4.05 -5.65 -3.9 -5.2 -3.05 -3.1 0.1 -2.7 L1.0 -2.4 Q4.15 -0.75 7.15 -1.9 L10.9 -3.65 15.4 -6.15 Q17.0 -7.15 19.3 -7.35 21.9 -7.55 22.75 -5.9 L23.3 -4.6 Q23.45 -4.15 23.85 -4.05 25.1 -3.85 24.6 -2.25 M52.65 -10.55 L52.7 -9.2 Q54.3 11.4 53.6 32.05 L51.85 32.75 Q42.95 36.35 36.1 42.85 35.8 41.7 35.8 40.55 35.5 31.7 39.15 23.75 35.5 31.7 35.8 40.55 35.8 41.7 36.1 42.85 L39.8 55.2 38.2 60.35 33.1 59.55 32.6 57.4 29.4 57.65 29.1 58.35 Q28.85 59.0 29.0 59.65 30.45 64.65 30.4 69.85 L24.65 71.25 23.95 70.85 22.05 69.05 Q19.35 66.0 20.0 62.0 L19.1 62.3 18.25 62.55 17.5 63.0 Q16.05 63.95 15.5 65.75 L15.2 66.65 15.75 67.75 16.1 68.75 16.6 70.8 Q17.0 72.9 16.2 74.75 L11.55 75.1 10.9 81.0 11.1 81.8 Q11.6 93.35 20.1 100.8 L21.9 101.35 Q42.0 104.85 61.25 111.0 71.8 122.55 57.15 129.05 44.0 134.8 29.9 138.1 -13.1 148.3 -44.45 122.35 -42.25 114.6 -35.25 111.2 -42.25 114.6 -44.45 122.35 -13.1 148.3 29.9 138.1 44.0 134.8 57.15 129.05 71.8 122.55 61.25 111.0 70.1 112.5 76.35 118.8 80.9 123.35 76.0 127.05 62.05 137.3 45.0 142.45 -12.4 159.7 -57.85 126.5 L-57.65 124.7 Q-53.15 110.95 -35.8 110.15 L-35.25 111.2 Q-32.4 109.8 -28.8 109.15 -19.6 107.7 -11.6 104.1 7.3 95.65 -3.55 72.95 L-7.3 71.55 -6.75 63.55 -12.6 66.45 -13.1 69.55 -14.4 69.55 -15.75 69.15 -16.35 68.9 Q-18.45 67.8 -19.3 65.8 -17.5 62.9 -18.7 59.65 -21.35 52.45 -19.95 44.25 L-19.9 43.85 -20.1 44.1 -20.2 44.2 -20.4 44.45 -20.9 44.35 -22.35 42.9 -25.6 40.85 Q-30.45 35.75 -42.1 32.5 -43.35 19.25 -42.45 5.55 -41.85 -3.1 -45.7 -10.4 -57.85 -33.85 -44.8 -51.3 L-37.9 -53.75 Q-1.3 -65.9 33.35 -59.2 40.35 -57.9 45.05 -54.1 50.3 -49.7 52.4 -42.1 56.7 -26.65 53.05 -10.55 L52.65 -10.55 52.85 -12.25 52.65 -10.55 M53.65 -22.85 L44.2 -14.75 42.95 -5.3 44.2 -14.75 53.65 -22.85 M-25.85 -12.15 Q-28.5 -12.8 -28.9 -10.65 -27.55 -9.9 -25.9 -10.05 -23.6 -10.3 -21.95 -11.3 -19.15 -13.0 -21.4 -15.85 -22.85 -17.65 -25.1 -17.95 -27.4 -18.3 -29.65 -18.0 L-31.25 -17.8 Q-34.0 -17.45 -35.0 -16.0 L-33.8 -14.3 -33.2 -13.05 -32.25 -10.5 -31.65 -9.25 -28.6 -3.15 -27.4 -1.45 -28.6 -3.15 -31.65 -9.25 -32.25 -10.5 -33.2 -13.05 -33.8 -14.3 -35.0 -16.0 Q-34.0 -17.45 -31.25 -17.8 L-29.65 -18.0 Q-27.4 -18.3 -25.1 -17.95 -22.85 -17.65 -21.4 -15.85 -19.15 -13.0 -21.95 -11.3 -23.6 -10.3 -25.9 -10.05 -27.55 -9.9 -28.9 -10.65 -28.5 -12.8 -25.85 -12.15 M-32.7 -0.7 L-32.7 -2.05 Q-33.2 -13.6 -44.95 -17.5 -33.2 -13.6 -32.7 -2.05 L-32.7 -0.7 M-35.25 18.2 L-34.5 19.5 Q-24.0 24.8 -12.25 25.4 L-11.15 26.3 -9.15 26.3 Q-0.95 26.15 3.6 20.2 3.9 18.6 2.95 17.45 -16.55 -5.95 -38.15 14.8 L-36.55 15.35 -36.8 17.5 -35.25 18.2 M-27.4 27.6 L-24.5 31.65 Q-20.8 36.8 -19.9 43.85 -20.8 36.8 -24.5 31.65 L-27.4 27.6 M0.7 63.0 Q-0.85 61.85 -1.4 59.7 -2.15 60.1 -2.75 60.65 -4.2 62.15 -3.7 62.0 -4.2 62.15 -2.75 60.65 -2.15 60.1 -1.4 59.7 -0.85 61.85 0.7 63.0 M-14.25 63.6 L-14.0 62.75 Q-13.6 55.1 -13.6 47.5 -13.6 46.7 -13.95 46.1 -14.55 44.95 -14.45 42.9 -14.4 41.75 -14.7 40.7 L-16.15 36.1 -16.45 35.2 -17.05 34.05 -20.2 29.7 Q-21.4 27.85 -21.25 28.4 -21.4 27.85 -20.2 29.7 L-17.05 34.05 -16.45 35.2 -16.15 36.1 -14.7 40.7 Q-14.4 41.75 -14.45 42.9 -14.55 44.95 -13.95 46.1 -13.6 46.7 -13.6 47.5 -13.6 55.1 -14.0 62.75 L-14.25 63.6 M-9.05 121.6 Q-11.9 121.6 -13.9 119.15 -15.9 116.7 -15.9 113.2 -15.9 116.7 -13.9 119.15 -11.9 121.6 -9.05 121.6 M8.55 123.9 Q14.6 123.9 20.05 121.25 27.05 117.8 28.35 110.2 L20.1 100.8 28.35 110.2 Q27.05 117.8 20.05 121.25 14.6 123.9 8.55 123.9 M67.4 117.0 Q67.95 119.15 69.65 120.2 L70.25 120.9 Q70.5 121.6 70.1 122.05 68.15 124.65 65.15 126.2 L53.8 131.85 48.4 134.1 42.9 136.05 39.85 136.95 32.95 139.1 Q29.35 140.45 25.4 141.0 L23.8 141.15 16.2 141.8 14.75 141.75 7.0 141.3 Q-0.65 141.5 -8.25 141.1 L-9.05 141.0 -13.6 140.7 -15.0 140.4 Q-16.15 139.8 -18.15 139.65 L-19.75 139.35 -25.8 137.5 -27.4 137.05 Q-34.95 134.85 -40.5 132.55 L-41.65 131.95 Q-43.75 130.45 -47.2 128.45 -48.4 127.7 -49.35 126.75 L-50.1 125.4 Q-50.3 124.65 -50.0 124.5 -49.1 124.0 -49.75 122.45 L-49.9 121.7 Q-49.35 118.7 -46.5 116.2 L-45.9 115.4 Q-44.95 113.3 -44.2 114.75 -44.95 113.3 -45.9 115.4 L-46.5 116.2 Q-49.35 118.7 -49.9 121.7 L-49.75 122.45 Q-49.1 124.0 -50.0 124.5 -50.3 124.65 -50.1 125.4 L-49.35 126.75 Q-48.4 127.7 -47.2 128.45 -43.75 130.45 -41.65 131.95 L-40.5 132.55 Q-34.95 134.85 -27.4 137.05 L-25.8 137.5 -19.75 139.35 -18.15 139.65 Q-16.15 139.8 -15.0 140.4 L-13.6 140.7 -9.05 141.0 -8.25 141.1 Q-0.65 141.5 7.0 141.3 L14.75 141.75 16.2 141.8 23.8 141.15 25.4 141.0 Q29.35 140.45 32.95 139.1 L39.85 136.95 42.9 136.05 48.4 134.1 53.8 131.85 65.15 126.2 Q68.15 124.65 70.1 122.05 70.5 121.6 70.25 120.9 L69.65 120.2 Q67.95 119.15 67.4 117.0 M16.6 24.05 L17.65 24.2 Q45.3 23.05 42.0 1.0 22.7 -2.25 9.65 13.7 9.65 21.05 16.6 24.05 M15.15 52.0 Q15.7 38.45 7.3 27.1 L5.5 25.3 5.0 26.85 Q-1.15 38.6 -0.15 50.3 L0.15 53.6 Q1.8 52.35 1.7 50.3 1.4 43.95 5.0 39.4 5.5 38.75 6.3 38.25 L14.35 51.95 15.0 54.15 15.15 52.0 M26.15 57.3 L24.55 56.85 23.3 57.0 22.05 57.95 Q20.85 59.0 20.75 61.25 20.85 59.0 22.05 57.95 L23.3 57.0 24.55 56.85 26.15 57.3 M35.3 50.55 Q31.85 49.75 31.2 52.75 31.1 53.2 31.45 53.6 31.1 53.2 31.2 52.75 31.85 49.75 35.3 50.55 M33.0 22.25 Q32.9 27.2 30.45 30.5 29.5 31.85 30.1 33.7 31.95 39.55 32.25 46.7 31.95 39.55 30.1 33.7 29.5 31.85 30.45 30.5 32.9 27.2 33.0 22.25 M-3.55 72.95 L0.65 73.55 1.75 72.45 Q0.7 69.15 2.95 66.6 L3.75 65.9 4.75 65.25 7.65 74.55 11.55 75.1 7.65 74.55 4.75 65.25 3.75 65.9 2.95 66.6 Q0.7 69.15 1.75 72.45 L0.65 73.55 -3.55 72.95 M46.0 109.4 Q53.45 110.65 56.5 114.85 57.4 116.1 57.2 117.75 L56.8 120.9 56.3 122.05 Q54.8 124.05 54.4 126.2 54.8 124.05 56.3 122.05 L56.8 120.9 57.2 117.75 Q57.4 116.1 56.5 114.85 53.45 110.65 46.0 109.4 M4.85 117.7 L5.55 118.3 Q9.05 119.6 13.15 119.2 17.65 118.8 20.75 116.2 21.15 115.9 21.35 115.4 L22.2 112.45 Q22.75 109.45 20.8 107.8 L19.95 107.15 Q17.25 105.1 15.25 101.8 L9.15 91.1 8.9 90.25 Q8.55 87.45 7.6 85.0 L7.3 84.1 Q6.25 80.35 5.5 76.5 6.25 80.35 7.3 84.1 L7.6 85.0 Q8.55 87.45 8.9 90.25 L9.15 91.1 15.25 101.8 Q17.25 105.1 19.95 107.15 L20.8 107.8 Q22.75 109.45 22.2 112.45 L21.35 115.4 Q21.15 115.9 20.75 116.2 17.65 118.8 13.15 119.2 9.05 119.6 5.55 118.3 L4.85 117.7 M13.15 62.75 Q11.7 63.15 10.6 62.25 8.45 60.4 7.0 64.3 8.45 60.4 10.6 62.25 11.7 63.15 13.15 62.75" fill="url(#gradient0)" fill-rule="evenodd" stroke="none"/>
    <path d="M42.75 -47.15 Q-3.1 -65.0 -46.15 -43.3 -26.95 -26.7 2.15 -30.2 L3.6 -30.45 Q29.55 -28.5 45.15 -45.1 L45.55 -46.05 42.8 -47.1 42.75 -47.15 M42.8 -47.3 L42.8 -47.1 M36.1 42.85 Q42.95 36.35 51.85 32.75 L53.6 32.05 Q54.3 11.4 52.7 -9.2 L52.65 -10.55 52.85 -12.25 M42.95 -5.3 L44.2 -14.75 53.65 -22.85 M-35.25 111.2 Q-32.4 109.8 -28.8 109.15 -19.6 107.7 -11.6 104.1 7.3 95.65 -3.55 72.95 L-7.3 71.55 -6.75 63.55 -12.6 66.45 -13.1 69.55 -14.4 69.55 -15.75 69.15 -16.35 68.9 Q-18.45 67.8 -19.3 65.8 -17.5 62.9 -18.7 59.65 -21.35 52.45 -19.95 44.25 L-19.9 43.85 -20.1 44.1 -20.2 44.2 -20.4 44.45 -20.9 44.35 -22.35 42.9 -25.6 40.85 Q-30.45 35.75 -42.1 32.5 -43.35 19.25 -42.45 5.55 -41.85 -3.1 -45.7 -10.4 -57.85 -33.85 -44.8 -51.3 L-37.9 -53.75 Q-1.3 -65.9 33.35 -59.2 40.35 -57.9 45.05 -54.1 50.3 -49.7 52.4 -42.1 56.7 -26.65 53.05 -10.55 M-44.95 -17.5 Q-33.2 -13.6 -32.7 -2.05 L-32.7 -0.7 M-35.25 18.2 L-36.8 17.5 -36.55 15.35 -38.15 14.8 Q-16.55 -5.95 2.95 17.45 3.9 18.6 3.6 20.2 -0.95 26.15 -9.15 26.3 L-11.15 26.3 -12.25 25.4 Q-24.0 24.8 -34.5 19.5 L-35.25 18.2 M-19.9 43.85 Q-20.8 36.8 -24.5 31.65 L-27.4 27.6 M-15.9 113.2 Q-15.9 116.7 -13.9 119.15 -11.9 121.6 -9.05 121.6 M-35.25 111.2 Q-42.25 114.6 -44.45 122.35 -13.1 148.3 29.9 138.1 44.0 134.8 57.15 129.05 71.8 122.55 61.25 111.0 42.0 104.85 21.9 101.35 L20.1 100.8 28.35 110.2 Q27.05 117.8 20.05 121.25 14.6 123.9 8.55 123.9 M61.25 111.0 Q70.1 112.5 76.35 118.8 80.9 123.35 76.0 127.05 62.05 137.3 45.0 142.45 -12.4 159.7 -57.85 126.5 L-57.65 124.7 Q-53.15 110.95 -35.8 110.15 M16.6 24.05 Q9.65 21.05 9.65 13.7 22.7 -2.25 42.0 1.0 45.3 23.05 17.65 24.2 L16.6 24.05 M15.15 52.0 Q15.7 38.45 7.3 27.1 L5.5 25.3 5.0 26.85 Q-1.15 38.6 -0.15 50.3 L0.15 53.6 Q1.8 52.35 1.7 50.3 1.4 43.95 5.0 39.4 5.5 38.75 6.3 38.25 L14.35 51.95 M15.15 52.0 L15.0 54.15 14.35 51.95 M39.15 23.75 Q35.5 31.7 35.8 40.55 35.8 41.7 36.1 42.85 L39.8 55.2 38.2 60.35 33.1 59.55 32.6 57.4 29.4 57.65 29.1 58.35 Q28.85 59.0 29.0 59.65 30.45 64.65 30.4 69.85 L24.65 71.25 23.95 70.85 22.05 69.05 Q19.35 66.0 20.0 62.0 L19.1 62.3 18.25 62.55 17.5 63.0 Q16.05 63.95 15.5 65.75 L15.2 66.65 15.75 67.75 16.1 68.75 16.6 70.8 Q17.0 72.9 16.2 74.75 L11.55 75.1 10.9 81.0 11.1 81.8 Q11.6 93.35 20.1 100.8 M11.55 75.1 L7.65 74.55 4.75 65.25 3.75 65.9 2.95 66.6 Q0.7 69.15 1.75 72.45 L0.65 73.55 -3.55 72.95" fill="none" stroke="#663300" stroke-linecap="round" stroke-linejoin="round" stroke-width="3.0"/>
    <path d="M-47.25 -40.45 Q-47.65 -36.8 -44.4 -35.35 -43.8 -35.1 -43.25 -34.5 -41.9 -33.2 -40.2 -32.35 L-37.8 -30.9 -36.6 -30.25 Q-36.15 -30.1 -35.75 -29.8 -33.8 -28.15 -31.25 -27.95 -29.65 -27.85 -28.65 -27.05 -28.15 -26.7 -27.45 -26.5 L-23.5 -25.4 -21.3 -24.9 -19.7 -24.6 -12.1 -23.65 -9.85 -23.45 -7.45 -23.05 -3.55 -23.3 -2.15 -23.6 Q5.65 -23.15 12.35 -25.1 L15.4 -26.0 28.5 -30.25 32.15 -31.5 33.05 -31.8 Q36.0 -32.85 37.8 -34.0 L39.05 -34.55 Q39.5 -34.7 39.95 -34.95 45.4 -37.55 49.05 -41.2 M4.7 -13.7 Q1.95 -12.2 4.25 -10.25 4.7 -9.85 5.5 -9.85 9.05 -9.6 8.25 -12.85 L8.1 -13.75 Q7.95 -15.75 6.3 -16.15 L4.7 -16.5 Q2.25 -16.95 1.3 -15.45 0.9 -14.85 0.15 -14.4 -3.05 -12.45 -1.55 -6.95 -1.4 -6.45 -0.6 -6.2 2.45 -5.3 5.5 -5.0 L7.05 -5.0 Q10.65 -5.5 11.9 -8.2 12.45 -9.3 12.9 -11.45 13.3 -13.45 12.65 -14.6 L12.15 -15.95 Q10.55 -21.8 1.7 -20.25 L0.8 -20.0 Q-5.25 -17.65 -7.4 -12.1 -8.0 -10.55 -7.05 -10.0 -6.75 -9.85 -6.7 -9.1 -6.5 -6.6 -4.55 -5.85 -4.05 -5.65 -3.9 -5.2 -3.05 -3.1 0.1 -2.7 L1.0 -2.4 Q4.15 -0.75 7.15 -1.9 L10.9 -3.65 15.4 -6.15 Q17.0 -7.15 19.3 -7.35 21.9 -7.55 22.75 -5.9 L23.3 -4.6 Q23.45 -4.15 23.85 -4.05 25.1 -3.85 24.6 -2.25 M35.3 -3.75 Q36.55 -3.7 36.45 -5.3 L36.6 -6.15 Q37.6 -9.05 37.95 -12.9 L38.0 -13.75 Q38.2 -15.85 38.75 -17.65 39.1 -18.65 38.85 -19.75 L38.25 -20.35 Q35.35 -21.35 32.9 -22.6 31.4 -23.35 30.9 -22.4 L30.0 -22.0 26.95 -21.15 26.25 -20.5 24.2 -17.9 Q23.85 -17.5 23.85 -16.75 23.9 -11.8 29.9 -13.1 31.7 -13.45 32.1 -16.0 32.35 -17.25 30.65 -16.85 27.4 -16.15 29.95 -16.0 M-38.85 8.45 Q-35.35 3.9 -28.2 2.1 L-27.3 1.75 Q-23.6 -0.2 -18.95 -0.3 L-18.15 -0.35 Q-14.4 -0.7 -10.6 -0.4 L-8.25 -0.3 Q-5.25 -0.3 -3.7 0.85 -0.8 2.9 1.0 6.1 L1.7 6.9 5.5 10.7 Q6.65 10.75 7.15 10.15 L11.45 5.25 12.55 4.1 13.85 3.1 Q18.6 0.3 25.25 -1.75 28.4 -2.75 32.25 -2.6 L33.05 -2.7 Q35.3 -3.0 37.55 -2.7 L38.4 -2.55 41.35 -1.9 42.25 -1.75 45.15 -1.15 46.05 -0.95 47.5 -0.7 M-27.4 -1.45 L-28.6 -3.15 -31.65 -9.25 -32.25 -10.5 -33.2 -13.05 -33.8 -14.3 -35.0 -16.0 Q-34.0 -17.45 -31.25 -17.8 L-29.65 -18.0 Q-27.4 -18.3 -25.1 -17.95 -22.85 -17.65 -21.4 -15.85 -19.15 -13.0 -21.95 -11.3 -23.6 -10.3 -25.9 -10.05 -27.55 -9.9 -28.9 -10.65 -28.5 -12.8 -25.85 -12.15 M-21.25 28.4 Q-21.4 27.85 -20.2 29.7 L-17.05 34.05 -16.45 35.2 -16.15 36.1 -14.7 40.7 Q-14.4 41.75 -14.45 42.9 -14.55 44.95 -13.95 46.1 -13.6 46.7 -13.6 47.5 -13.6 55.1 -14.0 62.75 L-14.25 63.6 M-3.7 62.0 Q-4.2 62.15 -2.75 60.65 -2.15 60.1 -1.4 59.7 -0.85 61.85 0.7 63.0 M-44.2 114.75 Q-44.95 113.3 -45.9 115.4 L-46.5 116.2 Q-49.35 118.7 -49.9 121.7 L-49.75 122.45 Q-49.1 124.0 -50.0 124.5 -50.3 124.65 -50.1 125.4 L-49.35 126.75 Q-48.4 127.7 -47.2 128.45 -43.75 130.45 -41.65 131.95 L-40.5 132.55 Q-34.95 134.85 -27.4 137.05 L-25.8 137.5 -19.75 139.35 -18.15 139.65 Q-16.15 139.8 -15.0 140.4 L-13.6 140.7 -9.05 141.0 -8.25 141.1 Q-0.65 141.5 7.0 141.3 L14.75 141.75 16.2 141.8 23.8 141.15 25.4 141.0 Q29.35 140.45 32.95 139.1 L39.85 136.95 42.9 136.05 48.4 134.1 53.8 131.85 65.15 126.2 Q68.15 124.65 70.1 122.05 70.5 121.6 70.25 120.9 L69.65 120.2 Q67.95 119.15 67.4 117.0 M32.25 46.7 Q31.95 39.55 30.1 33.7 29.5 31.85 30.45 30.5 32.9 27.2 33.0 22.25 M31.45 53.6 Q31.1 53.2 31.2 52.75 31.85 49.75 35.3 50.55 M20.75 61.25 Q20.85 59.0 22.05 57.95 L23.3 57.0 24.55 56.85 26.15 57.3 M7.0 64.3 Q8.45 60.4 10.6 62.25 11.7 63.15 13.15 62.75 M5.5 76.5 Q6.25 80.35 7.3 84.1 L7.6 85.0 Q8.55 87.45 8.9 90.25 L9.15 91.1 15.25 101.8 Q17.25 105.1 19.95 107.15 L20.8 107.8 Q22.75 109.45 22.2 112.45 L21.35 115.4 Q21.15 115.9 20.75 116.2 17.65 118.8 13.15 119.2 9.05 119.6 5.55 118.3 L4.85 117.7 M54.4 126.2 Q54.8 124.05 56.3 122.05 L56.8 120.9 57.2 117.75 Q57.4 116.1 56.5 114.85 53.45 110.65 46.0 109.4" fill="none" stroke="#ffffcc" stroke-linecap="round" stroke-linejoin="round" stroke-width="3.0"/>
    <path d="M27.7 -157.55 L28.45 -158.2 Q30.25 -160.2 31.1 -162.55 31.55 -163.7 31.45 -165.05 33.25 -167.6 36.45 -168.35 39.65 -169.3 42.5 -167.5 46.75 -164.85 50.5 -161.5 56.4 -156.2 55.3 -148.5 55.1 -146.95 54.45 -145.65 L49.75 -136.9 45.05 -127.8 Q44.65 -127.0 44.9 -126.15 45.8 -122.8 47.5 -119.7 L49.1 -116.5 Q51.05 -111.45 50.4 -106.15 50.35 -105.65 49.75 -105.3 44.0 -101.5 37.45 -98.8 L32.6 -96.75 Q30.75 -95.85 29.4 -94.2 27.35 -91.7 26.8 -88.45 26.25 -85.35 28.35 -83.0 30.65 -80.55 34.05 -81.3 L43.45 -81.05 Q46.7 -80.2 49.5 -77.9 51.45 -76.3 50.2 -74.15 L48.3 -71.55 Q45.05 -67.9 40.65 -65.8 40.2 -65.3 40.25 -64.55 L40.45 -63.65 40.6 -63.35 Q44.55 -62.2 46.2 -58.45 L46.35 -56.75 Q46.05 -55.25 45.05 -54.1 42.0 -50.35 43.25 -45.6 43.55 -44.65 44.1 -43.75 L40.3 -39.3 Q42.45 -36.25 40.35 -33.5 L39.15 -32.55 Q35.85 -31.25 32.7 -32.6 27.0 -34.95 21.05 -33.75 L19.15 -33.05 Q17.15 -31.75 15.0 -31.3 11.1 -30.4 7.0 -30.35 L6.6 -29.85 -9.0 -29.85 Q-13.95 -29.45 -18.25 -31.9 -26.8 -30.5 -34.4 -26.5 -35.95 -25.65 -37.7 -26.1 -39.55 -26.7 -40.1 -28.5 -41.1 -31.7 -40.0 -35.05 -39.65 -36.3 -40.5 -37.45 L-42.35 -39.25 Q-45.4 -39.65 -47.5 -41.7 L-48.35 -42.75 Q-47.8 -45.0 -45.8 -46.4 L-41.65 -49.4 Q-40.45 -50.3 -39.35 -51.5 -38.8 -52.2 -38.5 -53.1 -37.0 -57.2 -37.6 -61.45 -38.05 -64.9 -41.05 -66.85 L-51.35 -73.45 Q-55.85 -76.35 -58.75 -80.8 -61.7 -85.35 -60.5 -90.65 -59.8 -93.7 -57.2 -95.55 -48.15 -102.05 -37.5 -105.3 -34.35 -106.3 -32.15 -108.75 -27.7 -113.9 -31.2 -119.75 -32.35 -121.65 -33.9 -123.1 -39.45 -128.15 -46.15 -132.05 -49.8 -134.1 -48.4 -138.3 -47.25 -141.6 -44.55 -143.8 -35.5 -150.95 -25.05 -155.8 -23.85 -156.35 -22.8 -157.2 -19.55 -159.85 -19.9 -163.9 L-20.25 -165.25 Q-22.8 -171.4 -26.1 -176.95 L-26.8 -178.75 Q-19.95 -184.45 -11.4 -182.5 -8.1 -181.85 -6.4 -178.9 -5.8 -177.85 -6.25 -176.65 -7.7 -172.35 -7.1 -167.85 L-6.35 -165.0 Q-5.15 -162.15 -4.35 -159.05 -3.55 -155.7 -1.5 -153.1 L-0.95 -151.75 Q-0.5 -149.55 -1.65 -147.4 -3.65 -143.85 -6.55 -141.1 -11.4 -136.6 -11.0 -130.25 L-10.6 -129.0 Q-7.4 -123.45 -1.25 -121.15 L2.45 -119.8 Q7.8 -117.6 13.3 -117.55 19.4 -117.45 21.8 -122.8 20.85 -125.65 18.8 -127.9 17.2 -129.65 15.9 -131.65 14.15 -134.3 13.45 -137.15 12.95 -139.3 13.8 -141.4 16.35 -148.2 21.7 -153.1 24.5 -155.55 27.7 -157.55 M38.2 -133.8 Q39.7 -136.4 39.7 -139.2 39.7 -146.95 33.35 -146.1 30.95 -145.8 28.9 -144.35 26.9 -142.9 26.9 -141.55 L27.7 -137.85 Q28.45 -134.65 28.45 -133.1 L28.05 -131.4 Q27.7 -130.1 27.7 -129.65 27.7 -127.45 29.6 -125.55 31.45 -123.65 31.45 -120.35 31.45 -119.4 29.65 -116.65 27.55 -113.4 24.6 -110.45 16.15 -102.05 6.7 -102.05 0.3 -102.05 -3.6 -107.0 -6.3 -110.45 -8.65 -117.95 -11.45 -127.05 -12.4 -128.95 -14.9 -133.95 -18.95 -133.95 -22.95 -133.95 -24.9 -129.85 -26.1 -127.25 -26.1 -124.8 -26.1 -122.05 -23.8 -118.1 -21.55 -114.2 -21.55 -111.05 -21.55 -106.45 -23.9 -103.5 -25.6 -101.45 -29.15 -99.6 L-34.4 -96.75 Q-36.8 -94.9 -36.8 -92.3 -36.8 -90.25 -35.85 -89.05 L-31.45 -85.15 Q-34.0 -84.55 -36.15 -81.6 -37.95 -79.05 -37.95 -77.25 -37.95 -74.2 -33.0 -66.75 -28.2 -59.55 -25.1 -57.35 L-31.5 -51.15 Q-34.85 -47.45 -34.85 -44.95 -34.85 -41.65 -33.55 -39.5 -31.15 -35.3 -24.5 -35.3 L-17.8 -34.95 Q-15.6 -34.95 -13.4 -35.85 -11.15 -36.8 -9.25 -36.8 L-6.65 -36.25 Q-5.2 -35.7 -2.35 -35.7 5.35 -35.7 8.45 -39.65 L10.3 -42.4 Q11.3 -43.7 12.75 -43.7 18.4 -43.7 21.05 -41.8 23.7 -39.9 26.1 -39.9 33.4 -39.9 33.4 -48.1 33.4 -49.45 30.75 -51.75 27.8 -54.25 27.3 -56.3 26.9 -57.9 25.7 -60.55 L23.85 -64.6 Q28.55 -66.0 34.75 -66.4 36.45 -66.45 36.95 -66.85 37.6 -67.25 37.6 -68.65 37.6 -70.2 35.85 -72.25 33.25 -75.3 28.4 -75.3 25.85 -75.3 21.65 -73.55 17.45 -71.75 16.2 -71.75 14.75 -71.75 13.3 -74.75 12.0 -77.35 12.0 -78.9 12.0 -81.0 13.75 -83.1 16.2 -86.1 17.2 -88.45 17.85 -90.05 18.05 -93.25 18.6 -96.1 21.4 -98.2 30.15 -104.9 33.25 -108.0 38.55 -113.4 38.55 -117.7 38.55 -119.4 37.6 -123.4 36.65 -127.4 36.65 -130.05 36.65 -131.3 38.2 -133.8" fill="#541e93" fill-opacity="0.57254905" fill-rule="evenodd" stroke="none"/>
    <path d="M38.2 -133.8 Q36.65 -131.3 36.65 -130.05 36.65 -127.4 37.6 -123.4 38.55 -119.4 38.55 -117.7 38.55 -113.4 33.25 -108.0 30.15 -104.9 21.4 -98.2 18.6 -96.1 18.05 -93.25 17.85 -90.05 17.2 -88.45 16.2 -86.1 13.75 -83.1 12.0 -81.0 12.0 -78.9 12.0 -77.35 13.3 -74.75 14.75 -71.75 16.2 -71.75 17.45 -71.75 21.65 -73.55 25.85 -75.3 28.4 -75.3 33.25 -75.3 35.85 -72.25 37.6 -70.2 37.6 -68.65 37.6 -67.25 36.95 -66.85 36.45 -66.45 34.75 -66.4 28.55 -66.0 23.85 -64.6 L25.7 -60.55 Q26.9 -57.9 27.3 -56.3 27.8 -54.25 30.75 -51.75 33.4 -49.45 33.4 -48.1 33.4 -39.9 26.1 -39.9 23.7 -39.9 21.05 -41.8 18.4 -43.7 12.75 -43.7 11.3 -43.7 10.3 -42.4 L8.45 -39.65 Q5.35 -35.7 -2.35 -35.7 -5.2 -35.7 -6.65 -36.25 L-9.25 -36.8 Q-11.15 -36.8 -13.4 -35.85 -15.6 -34.95 -17.8 -34.95 L-24.5 -35.3 Q-31.15 -35.3 -33.55 -39.5 -34.85 -41.65 -34.85 -44.95 -34.85 -47.45 -31.5 -51.15 L-25.1 -57.35 Q-28.2 -59.55 -33.0 -66.75 -37.95 -74.2 -37.95 -77.25 -37.95 -79.05 -36.15 -81.6 -34.0 -84.55 -31.45 -85.15 L-35.85 -89.05 Q-36.8 -90.25 -36.8 -92.3 -36.8 -94.9 -34.4 -96.75 L-29.15 -99.6 Q-25.6 -101.45 -23.9 -103.5 -21.55 -106.45 -21.55 -111.05 -21.55 -114.2 -23.8 -118.1 -26.1 -122.05 -26.1 -124.8 -26.1 -127.25 -24.9 -129.85 -22.95 -133.95 -18.95 -133.95 -14.9 -133.95 -12.4 -128.95 -11.45 -127.05 -8.65 -117.95 -6.3 -110.45 -3.6 -107.0 0.3 -102.05 6.7 -102.05 16.15 -102.05 24.6 -110.45 27.55 -113.4 29.65 -116.65 31.45 -119.4 31.45 -120.35 31.45 -123.65 29.6 -125.55 27.7 -127.45 27.7 -129.65 27.7 -130.1 28.05 -131.4 L28.45 -133.1 Q28.45 -134.65 27.7 -137.85 L26.9 -141.55 Q26.9 -142.9 28.9 -144.35 30.95 -145.8 33.35 -146.1 39.7 -146.95 39.7 -139.2 39.7 -136.4 38.2 -133.8 M9.1 -98.9 L8.9 -97.35 Q8.65 -96.15 6.3 -95.3 L2.85 -94.2 -0.6 -90.55 Q-3.3 -87.45 -4.85 -87.45 -5.4 -87.45 -5.3 -87.65 L-5.2 -87.9 Q-5.2 -88.85 -5.65 -90.45 L-6.05 -92.5 -5.65 -95.55 -5.2 -98.65 Q-5.2 -101.1 -6.95 -103.1 -8.5 -104.95 -10.75 -105.8 L-12.65 -106.2 -14.75 -107.75 -13.2 -110.6 Q-11.7 -113.55 -11.7 -114.2 -11.7 -118.75 -18.6 -122.85 L-18.85 -122.65 -18.95 -121.95 Q-18.95 -120.9 -16.1 -118.8 -13.25 -116.65 -13.25 -114.2 L-15.45 -110.7 Q-17.7 -107.2 -17.7 -106.6 -17.7 -106.0 -16.2 -103.85 L-16.3 -102.7 Q-16.3 -101.65 -15.2 -99.9 -13.85 -97.75 -13.6 -97.0 -18.95 -93.0 -20.95 -90.4 -23.15 -87.5 -23.15 -84.05 -23.15 -80.5 -18.3 -76.0 -13.45 -71.5 -13.45 -68.6 -13.45 -67.4 -16.7 -63.15 -19.9 -58.9 -19.9 -55.15 -19.9 -51.85 -19.1 -50.2 -16.8 -45.8 -9.4 -45.8 L-7.85 -46.2 -5.85 -46.75 -0.55 -46.55 3.8 -46.4 Q5.55 -46.8 6.45 -48.25 L7.8 -50.2 13.45 -52.25 Q18.1 -54.35 18.1 -57.5 18.1 -62.9 10.25 -65.3 L4.85 -66.95 Q2.45 -67.95 2.45 -69.5 L3.55 -72.55 Q4.7 -75.4 4.7 -77.2 L4.4 -79.85 3.25 -83.25 Q9.25 -85.6 11.95 -90.2 13.9 -93.5 13.9 -97.35 L13.75 -98.95 Q13.25 -100.45 11.4 -100.45 9.65 -100.45 9.1 -98.9" fill="#548793" fill-opacity="0.57254905" fill-rule="evenodd" stroke="none"/>
    <path d="M9.1 -98.9 Q9.65 -100.45 11.4 -100.45 13.25 -100.45 13.75 -98.95 L13.9 -97.35 Q13.9 -93.5 11.95 -90.2 9.25 -85.6 3.25 -83.25 L4.4 -79.85 4.7 -77.2 Q4.7 -75.4 3.55 -72.55 L2.45 -69.5 Q2.45 -67.95 4.85 -66.95 L10.25 -65.3 Q18.1 -62.9 18.1 -57.5 18.1 -54.35 13.45 -52.25 L7.8 -50.2 6.45 -48.25 Q5.55 -46.8 3.8 -46.4 L-0.55 -46.55 -5.85 -46.75 -7.85 -46.2 -9.4 -45.8 Q-16.8 -45.8 -19.1 -50.2 -19.9 -51.85 -19.9 -55.15 -19.9 -58.9 -16.7 -63.15 -13.45 -67.4 -13.45 -68.6 -13.45 -71.5 -18.3 -76.0 -23.15 -80.5 -23.15 -84.05 -23.15 -87.5 -20.95 -90.4 -18.95 -93.0 -13.6 -97.0 -13.85 -97.75 -15.2 -99.9 -16.3 -101.65 -16.3 -102.7 L-16.2 -103.85 Q-17.7 -106.0 -17.7 -106.6 -17.7 -107.2 -15.45 -110.7 L-13.25 -114.2 Q-13.25 -116.65 -16.1 -118.8 -18.95 -120.9 -18.95 -121.95 L-18.85 -122.65 -18.6 -122.85 Q-11.7 -118.75 -11.7 -114.2 -11.7 -113.55 -13.2 -110.6 L-14.75 -107.75 -12.65 -106.2 -10.75 -105.8 Q-8.5 -104.95 -6.95 -103.1 -5.2 -101.1 -5.2 -98.65 L-5.65 -95.55 -6.05 -92.5 -5.65 -90.45 Q-5.2 -88.85 -5.2 -87.9 L-5.3 -87.65 Q-5.4 -87.45 -4.85 -87.45 -3.3 -87.45 -0.6 -90.55 L2.85 -94.2 6.3 -95.3 Q8.65 -96.15 8.9 -97.35 L9.1 -98.9" fill="#83e5ea" fill-opacity="0.57254905" fill-rule="evenodd" stroke="none"/>
    <path d="M27.7 -157.55 L28.45 -158.2 Q30.25 -160.2 31.1 -162.55 31.55 -163.7 31.45 -165.05 33.25 -167.6 36.45 -168.35 39.65 -169.3 42.5 -167.5 46.75 -164.85 50.5 -161.5 56.4 -156.2 55.3 -148.5 55.1 -146.95 54.45 -145.65 L49.75 -136.9 45.05 -127.8 Q44.65 -127.0 44.9 -126.15 45.8 -122.8 47.5 -119.7 L49.1 -116.5 Q51.05 -111.45 50.4 -106.15 50.35 -105.65 49.75 -105.3 44.0 -101.5 37.45 -98.8 L32.6 -96.75 Q30.75 -95.85 29.4 -94.2 27.35 -91.7 26.8 -88.45 26.25 -85.35 28.35 -83.0 30.65 -80.55 34.05 -81.3 L43.45 -81.05 Q46.7 -80.2 49.5 -77.9 51.45 -76.3 50.2 -74.15 L48.3 -71.55 Q45.05 -67.9 40.65 -65.8 40.2 -65.3 40.25 -64.55 L40.45 -63.65 40.6 -63.35 Q44.55 -62.2 46.2 -58.45 L46.35 -56.75 Q46.05 -55.25 45.05 -54.1 42.0 -50.35 43.25 -45.6 43.55 -44.65 44.1 -43.75 L40.3 -39.3 Q42.45 -36.25 40.35 -33.5 L39.15 -32.55 Q35.85 -31.25 32.7 -32.6 27.0 -34.95 21.05 -33.75 L19.15 -33.05 Q17.15 -31.75 15.0 -31.3 11.1 -30.4 7.0 -30.35 L6.6 -29.85 -9.0 -29.85 Q-13.95 -29.45 -18.25 -31.9 -26.8 -30.5 -34.4 -26.5 -35.95 -25.65 -37.7 -26.1 -39.55 -26.7 -40.1 -28.5 -41.1 -31.7 -40.0 -35.05 -39.65 -36.3 -40.5 -37.45 L-42.35 -39.25 Q-45.4 -39.65 -47.5 -41.7 L-48.35 -42.75 Q-47.8 -45.0 -45.8 -46.4 L-41.65 -49.4 Q-40.45 -50.3 -39.35 -51.5 -38.8 -52.2 -38.5 -53.1 -37.0 -57.2 -37.6 -61.45 -38.05 -64.9 -41.05 -66.85 L-51.35 -73.45 Q-55.85 -76.35 -58.75 -80.8 -61.7 -85.35 -60.5 -90.65 -59.8 -93.7 -57.2 -95.55 -48.15 -102.05 -37.5 -105.3 -34.35 -106.3 -32.15 -108.75 -27.7 -113.9 -31.2 -119.75 -32.35 -121.65 -33.9 -123.1 -39.45 -128.15 -46.15 -132.05 -49.8 -134.1 -48.4 -138.3 -47.25 -141.6 -44.55 -143.8 -35.5 -150.95 -25.05 -155.8 -23.85 -156.35 -22.8 -157.2 -19.55 -159.85 -19.9 -163.9 L-20.25 -165.25 Q-22.8 -171.4 -26.1 -176.95 L-26.8 -178.75 Q-19.95 -184.45 -11.4 -182.5 -8.1 -181.85 -6.4 -178.9 -5.8 -177.85 -6.25 -176.65 -7.7 -172.35 -7.1 -167.85 L-6.35 -165.0 Q-5.15 -162.15 -4.35 -159.05 -3.55 -155.7 -1.5 -153.1 L-0.95 -151.75 Q-0.5 -149.55 -1.65 -147.4 -3.65 -143.85 -6.55 -141.1 -11.4 -136.6 -11.0 -130.25 L-10.6 -129.0 Q-7.4 -123.45 -1.25 -121.15 L2.45 -119.8 Q7.8 -117.6 13.3 -117.55 19.4 -117.45 21.8 -122.8 20.85 -125.65 18.8 -127.9 17.2 -129.65 15.9 -131.65 14.15 -134.3 13.45 -137.15 12.95 -139.3 13.8 -141.4 16.35 -148.2 21.7 -153.1 24.5 -155.55 27.7 -157.55 Z" fill="none" stroke="#6633cc" stroke-linecap="round" stroke-linejoin="round" stroke-width="3.0"/>
  </g>
  <defs>
    <linearGradient gradientTransform="matrix(0.0649, 0.0, 0.0, 0.0834, 1.6, 6.75)" gradientUnits="userSpaceOnUse" id="gradient0" spreadMethod="pad" x1="-819.2" x2="819.2">
      <stop offset="0.0" stop-color="#896d29"/>
      <stop offset="0.32941176470588235" stop-color="#fff29a"/>
      <stop offset="0.7490196078431373" stop-color="#917d33"/>
      <stop offset="1.0" stop-color="#4b3623"/>
    </linearGradient>
  </defs>
</svg>
