<?xml version="1.0" encoding="UTF-8" standalone="no"?>
<svg xmlns:xlink="http://www.w3.org/1999/xlink" height="436.6px" width="185.4px" xmlns="http://www.w3.org/2000/svg">
  <g transform="matrix(1.0, 0.0, 0.0, 1.0, 95.3, 240.05)">
    <path d="M-60.3 146.4 Q-56.6 144.6 -51.85 143.75 -39.85 141.85 -29.35 137.15 -4.65 126.1 -18.8 96.4 L-23.7 94.55 -23.0 84.05 -30.65 87.85 -31.3 91.9 -33.05 91.9 -34.8 91.4 -35.6 91.05 Q-38.3 89.65 -39.45 87.0 -37.05 83.2 -38.65 79.0 -42.1 69.55 -40.3 58.8 L-40.25 58.3 -40.5 58.65 -40.6 58.75 -40.85 59.1 -41.5 58.95 -43.4 57.05 -47.7 54.35 Q-54.0 47.7 -69.3 43.45 -70.9 26.1 -69.7 8.15 -68.95 -3.15 -73.95 -12.7 -89.9 -43.35 -72.8 -66.2 L-63.8 -69.4 Q-15.85 -85.3 29.45 -76.55 38.65 -74.85 44.75 -69.85 51.65 -64.15 54.4 -54.2 60.0 -33.95 55.25 -12.9 L54.75 -12.9 54.8 -11.1 Q56.85 15.85 55.95 42.85 L53.7 43.8 Q42.0 48.45 33.05 57.0 L37.9 73.15 35.8 79.9 29.15 78.85 28.45 76.0 24.3 76.35 23.9 77.3 Q23.6 78.15 23.8 78.95 25.7 85.5 25.6 92.35 L18.05 94.15 17.15 93.6 Q15.8 92.5 14.7 91.25 11.15 87.25 12.0 82.05 L10.8 82.45 9.7 82.8 8.7 83.35 Q6.85 84.6 6.1 86.95 L5.7 88.15 6.4 89.55 6.9 90.9 7.55 93.55 Q8.05 96.3 7.0 98.75 L0.95 99.2 0.1 106.9 0.35 107.95 Q1.0 123.05 12.15 132.85 13.25 133.5 14.45 133.55 40.75 138.15 66.0 146.2 77.55 148.15 85.75 156.35 91.7 162.3 85.25 167.15 67.05 180.6 44.7 187.3 -30.4 209.9 -89.9 166.45 -89.95 165.2 -89.6 164.1 -83.75 146.1 -61.0 145.05 L-60.3 146.4 Q-69.45 150.85 -72.35 161.05 -31.3 194.95 24.95 181.65 43.4 177.3 60.6 169.8 79.8 161.3 66.0 146.2 79.8 161.3 60.6 169.8 43.4 177.3 24.95 181.65 -31.3 194.95 -72.35 161.05 -69.45 150.85 -60.3 146.4 M-48.0 -15.0 Q-51.45 -15.85 -52.0 -13.0 -50.2 -12.05 -48.05 -12.25 -45.05 -12.55 -42.9 -13.85 -39.25 -16.1 -42.2 -19.85 -44.1 -22.2 -47.05 -22.6 -50.0 -23.0 -52.95 -22.65 L-55.05 -22.4 Q-58.65 -21.95 -60.0 -20.0 -59.0 -19.0 -58.4 -17.8 L-57.65 -16.15 -56.35 -12.85 -55.6 -11.2 -51.6 -3.2 Q-51.0 -2.0 -50.0 -1.0 -51.0 -2.0 -51.6 -3.2 L-55.6 -11.2 -56.35 -12.85 -57.65 -16.15 -58.4 -17.8 Q-59.0 -19.0 -60.0 -20.0 -58.65 -21.95 -55.05 -22.4 L-52.95 -22.65 Q-50.0 -23.0 -47.05 -22.6 -44.1 -22.2 -42.2 -19.85 -39.25 -16.1 -42.9 -13.85 -45.05 -12.55 -48.05 -12.25 -50.2 -12.05 -52.0 -13.0 -51.45 -15.85 -48.0 -15.0 M50.0 -53.0 Q45.2 -48.25 38.1 -44.8 L36.9 -44.3 35.3 -43.55 Q32.9 -42.1 29.1 -40.7 L27.9 -40.3 23.1 -38.7 5.95 -33.1 2.0 -31.95 Q-6.8 -29.35 -17.0 -29.95 L-18.8 -29.6 Q-20.65 -28.65 -23.95 -29.25 L-27.05 -29.75 -30.0 -30.05 Q-35.1 -30.3 -39.95 -31.3 L-42.05 -31.7 -44.9 -32.35 -50.1 -33.75 Q-51.0 -34.0 -51.65 -34.5 -53.0 -35.5 -55.05 -35.65 -58.4 -35.95 -60.95 -38.05 L-62.1 -38.7 Q-63.0 -39.0 -63.65 -39.5 L-66.8 -41.4 Q-69.0 -42.5 -70.75 -44.25 L-72.3 -45.35 Q-76.5 -47.25 -76.0 -52.0 -76.5 -47.25 -72.3 -45.35 L-70.75 -44.25 Q-69.0 -42.5 -66.8 -41.4 L-63.65 -39.5 Q-63.0 -39.0 -62.1 -38.7 L-60.95 -38.05 Q-58.4 -35.95 -55.05 -35.65 -53.0 -35.5 -51.65 -34.5 -51.0 -34.0 -50.1 -33.75 L-44.9 -32.35 -42.05 -31.7 -39.95 -31.3 Q-35.1 -30.3 -30.0 -30.05 L-27.05 -29.75 -23.95 -29.25 Q-20.65 -28.65 -18.8 -29.6 L-17.0 -29.95 Q-6.8 -29.35 2.0 -31.95 L5.95 -33.1 23.1 -38.7 27.9 -40.3 29.1 -40.7 Q32.9 -42.1 35.3 -43.55 L36.9 -44.3 38.1 -44.8 Q45.2 -48.25 50.0 -53.0 M-57.0 0.0 Q-56.9 -0.9 -56.95 -1.75 -57.6 -16.9 -73.0 -22.0 -57.6 -16.9 -56.95 -1.75 -56.9 -0.9 -57.0 0.0 M18.0 -2.0 Q18.65 -4.1 17.05 -4.4 16.5 -4.5 16.3 -5.1 L15.6 -6.8 Q14.45 -8.95 11.05 -8.7 8.05 -8.45 5.95 -7.1 3.5 -5.6 0.1 -3.85 L-4.85 -1.6 Q-8.75 -0.05 -12.9 -2.2 L-14.05 -2.6 Q-18.15 -3.15 -19.25 -5.9 -19.5 -6.5 -20.1 -6.75 -22.7 -7.75 -22.95 -11.0 -23.0 -12.0 -23.4 -12.2 -24.65 -12.9 -23.85 -14.95 -21.05 -22.15 -13.1 -25.25 L-11.95 -25.6 Q-0.4 -27.6 1.75 -19.95 2.0 -19.0 2.4 -18.2 3.2 -16.7 2.7 -14.05 2.1 -11.25 1.4 -9.8 -0.25 -6.25 -4.95 -5.65 L-6.95 -5.6 Q-11.0 -6.0 -14.95 -7.2 -16.0 -7.5 -16.2 -8.2 -18.15 -15.4 -13.95 -17.95 -13.0 -18.5 -12.5 -19.3 -11.25 -21.25 -8.05 -20.7 L-5.95 -20.25 Q-3.8 -19.7 -3.55 -17.05 L-3.35 -15.9 Q-2.35 -11.65 -7.0 -11.95 -8.0 -12.0 -8.6 -12.5 -11.6 -15.05 -8.0 -17.0 -11.6 -15.05 -8.6 -12.5 -8.0 -12.0 -7.0 -11.95 -2.35 -11.65 -3.35 -15.9 L-3.55 -17.05 Q-3.8 -19.7 -5.95 -20.25 L-8.05 -20.7 Q-11.25 -21.25 -12.5 -19.3 -13.0 -18.5 -13.95 -17.95 -18.15 -15.4 -16.2 -8.2 -16.0 -7.5 -14.95 -7.2 -11.0 -6.0 -6.95 -5.6 L-4.95 -5.65 Q-0.25 -6.25 1.4 -9.8 2.1 -11.25 2.7 -14.05 3.2 -16.7 2.4 -18.2 2.0 -19.0 1.75 -19.95 -0.4 -27.6 -11.95 -25.6 L-13.1 -25.25 Q-21.05 -22.15 -23.85 -14.95 -24.65 -12.9 -23.4 -12.2 -23.0 -12.0 -22.95 -11.0 -22.7 -7.75 -20.1 -6.75 -19.5 -6.5 -19.25 -5.9 -18.15 -3.15 -14.05 -2.6 L-12.9 -2.2 Q-8.75 -0.05 -4.85 -1.6 L0.1 -3.85 Q3.5 -5.6 5.95 -7.1 8.05 -8.45 11.05 -8.7 14.45 -8.95 15.6 -6.8 L16.3 -5.1 Q16.5 -4.5 17.05 -4.4 18.65 -4.1 18.0 -2.0 M41.75 -60.8 Q-18.25 -84.15 -74.55 -55.75 -49.45 -34.05 -11.35 -38.6 L-9.45 -38.9 Q24.5 -36.4 44.9 -58.1 45.35 -58.55 45.4 -59.35 L41.85 -60.75 41.8 -61.0 41.75 -60.8 M48.0 0.0 L46.1 -0.3 44.9 -0.6 41.1 -1.4 39.9 -1.6 36.1 -2.4 34.95 -2.6 Q32.0 -3.0 29.05 -2.6 L28.0 -2.5 Q23.0 -2.7 18.85 -1.4 10.15 1.3 3.95 4.95 L2.25 6.25 0.8 7.8 -4.8 14.2 Q-5.5 15.0 -6.95 14.95 -9.3 12.3 -11.95 9.95 L-12.85 8.9 Q-15.2 4.7 -19.0 2.0 -21.05 0.55 -25.0 0.5 L-28.05 0.4 Q-33.0 0.0 -37.95 0.45 L-39.0 0.5 Q-45.05 0.65 -49.9 3.2 L-51.1 3.65 Q-60.45 6.05 -65.0 12.0 -60.45 6.05 -51.1 3.65 L-49.9 3.2 Q-45.05 0.65 -39.0 0.5 L-37.95 0.45 Q-33.0 0.0 -28.05 0.4 L-25.0 0.5 Q-21.05 0.55 -19.0 2.0 -15.2 4.7 -12.85 8.9 L-11.95 9.95 Q-9.3 12.3 -6.95 14.95 -5.5 15.0 -4.8 14.2 L0.8 7.8 2.25 6.25 3.95 4.95 Q10.15 1.3 18.85 -1.4 23.0 -2.7 28.0 -2.5 L29.05 -2.6 Q32.0 -3.0 34.95 -2.6 L36.1 -2.4 39.9 -1.6 41.1 -1.4 44.9 -0.6 46.1 -0.3 48.0 0.0 M25.0 -20.0 Q21.65 -20.2 25.95 -21.15 28.15 -21.65 27.85 -20.0 27.3 -16.7 24.95 -16.2 17.1 -14.5 17.0 -21.0 17.0 -22.0 17.5 -22.5 19.0 -24.0 20.15 -25.9 L21.1 -26.75 Q23.0 -27.5 25.05 -27.85 26.0 -28.0 26.25 -28.4 26.9 -29.65 28.85 -28.65 32.05 -27.05 35.9 -25.7 36.5 -25.5 36.65 -24.9 37.0 -23.5 36.55 -22.15 35.8 -19.8 35.55 -17.05 L35.45 -15.95 Q35.05 -10.95 33.7 -7.1 L33.5 -6.05 Q33.65 -3.9 32.0 -4.0 33.65 -3.9 33.5 -6.05 L33.7 -7.1 Q35.05 -10.95 35.45 -15.95 L35.55 -17.05 Q35.8 -19.8 36.55 -22.15 37.0 -23.5 36.65 -24.9 36.5 -25.5 35.9 -25.7 32.05 -27.05 28.85 -28.65 26.9 -29.65 26.25 -28.4 26.0 -28.0 25.05 -27.85 23.0 -27.5 21.1 -26.75 L20.15 -25.9 Q19.0 -24.0 17.5 -22.5 17.0 -22.0 17.0 -21.0 17.1 -14.5 24.95 -16.2 27.3 -16.7 27.85 -20.0 28.15 -21.65 25.95 -21.15 21.65 -20.2 25.0 -20.0 M56.05 -29.0 L43.65 -18.4 42.05 -6.0 43.65 -18.4 56.05 -29.0 M54.95 -15.1 L54.75 -12.9 54.95 -15.1 M7.55 32.4 L8.95 32.6 Q45.1 31.05 40.8 2.25 15.55 -2.0 -1.55 18.85 -1.55 28.45 7.55 32.4 M29.0 30.0 Q28.85 36.5 25.7 40.85 24.45 42.6 25.2 45.0 27.6 52.65 28.0 62.05 27.6 52.65 25.2 45.0 24.45 42.6 25.7 40.85 28.85 36.5 29.0 30.0 M33.05 57.0 Q32.7 55.5 32.65 54.0 32.3 42.4 37.05 32.0 32.3 42.4 32.65 54.0 32.7 55.5 33.05 57.0 M32.0 67.05 Q27.5 66.0 26.65 69.95 26.5 70.55 27.0 71.05 26.5 70.55 26.65 69.95 27.5 66.0 32.0 67.05 M4.6 68.9 L5.45 71.75 5.65 68.95 Q6.35 51.25 -4.6 36.4 -5.6 35.0 -7.0 34.0 L-7.65 36.05 Q-15.65 51.4 -14.4 66.75 L-14.0 71.05 Q-11.85 69.4 -11.95 66.75 -12.35 58.45 -7.65 52.45 -6.95 51.6 -5.95 51.0 L4.6 68.9 M20.05 75.9 L17.95 75.3 Q17.0 75.05 16.3 75.5 L14.7 76.75 Q13.1 78.15 13.0 81.05 13.1 78.15 14.7 76.75 L16.3 75.5 Q17.0 75.05 17.95 75.3 L20.05 75.9 M-3.0 163.05 Q4.9 163.05 12.05 159.6 21.25 155.05 22.9 145.15 L12.15 132.85 22.9 145.15 Q21.25 155.05 12.05 159.6 4.9 163.05 -3.0 163.05 M46.0 144.05 Q55.75 145.7 59.75 151.2 60.95 152.85 60.7 155.0 L60.15 159.1 Q60.0 160.05 59.5 160.65 57.5 163.25 57.0 166.05 57.5 163.25 59.5 160.65 60.0 160.05 60.15 159.1 L60.7 155.0 Q60.95 152.85 59.75 151.2 55.75 145.7 46.0 144.05 M74.05 154.05 Q74.75 156.85 76.95 158.2 77.55 158.55 77.75 159.15 78.05 160.05 77.55 160.65 75.0 164.0 71.05 166.05 L56.2 173.45 Q52.95 175.0 49.15 176.4 L41.95 178.95 38.0 180.1 Q33.3 181.35 28.95 182.95 24.25 184.7 19.05 185.4 L16.95 185.65 7.05 186.45 5.1 186.4 -5.0 185.85 Q-15.0 186.05 -25.0 185.55 L-26.05 185.45 -32.0 185.05 Q-33.0 185.05 -33.8 184.65 -35.3 183.85 -37.95 183.65 L-40.05 183.25 -47.95 180.85 -50.05 180.25 Q-59.9 177.35 -67.15 174.4 L-68.7 173.6 Q-71.45 171.65 -75.95 169.0 L-78.75 166.8 Q-79.5 166.05 -79.75 165.0 -80.0 164.05 -79.6 163.85 -78.4 163.2 -79.25 161.15 L-79.45 160.15 Q-78.75 156.25 -75.05 153.0 L-74.25 151.95 Q-73.0 149.15 -72.0 151.05 -73.0 149.15 -74.25 151.95 L-75.05 153.0 Q-78.75 156.25 -79.45 160.15 L-79.25 161.15 Q-78.4 163.2 -79.6 163.85 -80.0 164.05 -79.75 165.0 -79.5 166.05 -78.75 166.8 L-75.95 169.0 Q-71.45 171.65 -68.7 173.6 L-67.15 174.4 Q-59.9 177.35 -50.05 180.25 L-47.95 180.85 -40.05 183.25 -37.95 183.65 Q-35.3 183.85 -33.8 184.65 -33.0 185.05 -32.0 185.05 L-26.05 185.45 -25.0 185.55 Q-15.0 186.05 -5.0 185.85 L5.1 186.4 7.05 186.45 16.95 185.65 19.05 185.4 Q24.25 184.7 28.95 182.95 33.3 181.35 38.0 180.1 L41.95 178.95 49.15 176.4 Q52.95 175.0 56.2 173.45 L71.05 166.05 Q75.0 164.0 77.55 160.65 78.05 160.05 77.75 159.15 77.55 158.55 76.95 158.2 74.75 156.85 74.05 154.05 M-7.8 154.95 Q-7.5 155.55 -6.9 155.75 -2.35 157.4 3.0 156.9 8.9 156.4 12.95 153.0 L13.75 151.95 Q14.5 150.05 14.85 148.05 15.6 144.15 13.05 142.0 L11.95 141.15 Q8.4 138.45 5.8 134.15 1.4 126.85 -2.2 120.15 L-2.55 119.0 Q-3.0 115.35 -4.25 112.15 L-4.65 110.95 -7.0 101.05 -4.65 110.95 -4.25 112.15 Q-3.0 115.35 -2.55 119.0 L-2.2 120.15 Q1.4 126.85 5.8 134.15 8.4 138.45 11.95 141.15 L13.05 142.0 Q15.6 144.15 14.85 148.05 14.5 150.05 13.75 151.95 L12.95 153.0 Q8.9 156.4 3.0 156.9 -2.35 157.4 -6.9 155.75 -7.5 155.55 -7.8 154.95 M-32.8 84.15 Q-32.5 83.55 -32.5 83.05 -32.0 73.05 -32.0 63.05 -32.0 62.05 -32.4 61.25 -33.2 59.75 -33.1 57.05 -33.0 55.55 -33.4 54.15 L-35.3 48.15 -35.7 46.95 Q-36.0 46.05 -36.5 45.45 L-40.6 39.8 Q-42.2 37.35 -42.0 38.05 -42.2 37.35 -40.6 39.8 L-36.5 45.45 Q-36.0 46.05 -35.7 46.95 L-35.3 48.15 -33.4 54.15 Q-33.0 55.55 -33.1 57.05 -33.2 59.75 -32.4 61.25 -32.0 62.05 -32.0 63.05 -32.0 73.05 -32.5 83.05 -32.5 83.55 -32.8 84.15 M-30.2 34.15 L-28.75 35.3 -26.15 35.3 Q-15.45 35.15 -9.45 27.35 -9.05 25.25 -10.3 23.75 -35.85 -6.9 -64.1 20.3 L-62.0 21.0 -62.35 23.8 -60.3 24.75 -59.35 26.45 Q-45.6 33.4 -30.2 34.15 M-50.0 37.0 L-46.25 42.35 Q-41.4 49.1 -40.25 58.3 -41.4 49.1 -46.25 42.35 L-50.0 37.0 M-13.25 83.35 Q-15.3 81.85 -16.0 79.05 L-17.75 80.3 Q-19.7 82.25 -19.0 82.05 -19.7 82.25 -17.75 80.3 L-16.0 79.05 Q-15.3 81.85 -13.25 83.35 M3.0 83.05 Q1.1 83.55 -0.3 82.4 -3.15 79.95 -5.0 85.05 -3.15 79.95 -0.3 82.4 1.1 83.55 3.0 83.05 M-26.0 160.05 Q-29.75 160.05 -32.35 156.85 -35.0 153.6 -35.0 149.05 -35.0 153.6 -32.35 156.85 -29.75 160.05 -26.0 160.05 M-18.8 96.4 L-13.3 97.15 -11.9 95.75 Q-13.25 91.4 -10.3 88.05 L-9.25 87.15 -7.95 86.3 -4.15 98.45 0.95 99.2 -4.15 98.45 -7.95 86.3 -9.25 87.15 -10.3 88.05 Q-13.25 91.4 -11.9 95.75 L-13.3 97.15 -18.8 96.4" fill="url(#gradient0)" fill-rule="evenodd" stroke="none"/>
    <path d="M41.85 -60.75 L45.4 -59.35 Q45.35 -58.55 44.9 -58.1 24.5 -36.4 -9.45 -38.9 L-11.35 -38.6 Q-49.45 -34.05 -74.55 -55.75 -18.25 -84.15 41.75 -60.8 L41.85 -60.75 M28.8 10.6 Q25.65 9.75 21.3 10.6 16.75 11.45 13.75 13.65 10.3 16.1 10.3 19.4 L11.1 22.15 Q12.6 24.75 16.5 24.75 24.0 24.75 28.75 20.05 32.25 16.6 32.25 14.05 32.25 11.55 28.8 10.6 M7.55 32.4 Q-1.55 28.45 -1.55 18.85 15.55 -2.0 40.8 2.25 45.1 31.05 8.95 32.6 L7.55 32.4 M5.65 68.95 L4.6 68.9 -5.95 51.0 Q-6.95 51.6 -7.65 52.45 -12.35 58.45 -11.95 66.75 -11.85 69.4 -14.0 71.05 L-14.4 66.75 Q-15.65 51.4 -7.65 36.05 L-7.0 34.0 Q-5.6 35.0 -4.6 36.4 6.35 51.25 5.65 68.95 M-26.5 22.05 Q-26.5 19.45 -30.1 17.35 -33.45 15.45 -38.0 15.0 -42.8 14.55 -45.9 16.15 -49.5 18.0 -49.5 22.05 -49.5 24.55 -48.25 25.5 -45.1 28.0 -34.25 28.0 -30.25 28.0 -28.1 25.8 -26.5 24.15 -26.5 22.05 M-30.2 34.15 Q-45.6 33.4 -59.35 26.45 L-60.3 24.75 -62.35 23.8 -62.0 21.0 -64.1 20.3 Q-35.85 -6.9 -10.3 23.75 -9.05 25.25 -9.45 27.35 -15.45 35.15 -26.15 35.3 L-28.75 35.3 -30.2 34.15" fill="#341e0e" fill-rule="evenodd" stroke="none"/>
    <path d="M29.05 16.0 Q29.05 11.3 20.55 13.75 17.4 14.65 14.7 16.15 12.05 17.6 12.05 18.4 L12.5 20.0 Q13.6 21.5 17.0 21.5 21.55 21.5 25.3 19.75 29.05 18.0 29.05 16.0 M28.8 10.6 Q32.25 11.55 32.25 14.05 32.25 16.6 28.75 20.05 24.0 24.75 16.5 24.75 12.6 24.75 11.1 22.15 L10.3 19.4 Q10.3 16.1 13.75 13.65 16.75 11.45 21.3 10.6 25.65 9.75 28.8 10.6 M-26.5 22.05 Q-26.5 24.15 -28.1 25.8 -30.25 28.0 -34.25 28.0 -45.1 28.0 -48.25 25.5 -49.5 24.55 -49.5 22.05 -49.5 18.0 -45.9 16.15 -42.8 14.55 -38.0 15.0 -33.45 15.45 -30.1 17.35 -26.5 19.45 -26.5 22.05 M-30.0 21.5 Q-30.0 18.3 -38.25 18.05 -46.5 17.85 -46.5 20.9 -46.5 22.25 -43.75 23.5 -40.45 25.0 -35.5 25.0 -32.8 25.0 -31.35 24.0 -30.0 23.1 -30.0 21.5" fill="#341e35" fill-rule="evenodd" stroke="none"/>
    <path d="M29.05 16.0 Q29.05 18.0 25.3 19.75 21.55 21.5 17.0 21.5 13.6 21.5 12.5 20.0 L12.05 18.4 Q12.05 17.6 14.7 16.15 17.4 14.65 20.55 13.75 29.05 11.3 29.05 16.0 M22.0 18.5 Q25.5 17.15 25.5 16.5 L25.3 15.5 25.05 15.25 Q22.15 15.15 19.35 15.95 16.25 16.85 16.25 18.1 L16.3 19.5 17.75 19.75 Q18.7 19.75 22.0 18.5 M-33.85 22.5 Q-33.85 20.65 -36.7 20.05 -39.2 19.5 -42.6 20.0 L-42.8 20.5 -42.85 21.4 Q-42.85 22.15 -41.1 23.0 -38.95 24.05 -35.75 24.05 -33.85 24.05 -33.85 22.5 M-30.0 21.5 Q-30.0 23.1 -31.35 24.0 -32.8 25.0 -35.5 25.0 -40.45 25.0 -43.75 23.5 -46.5 22.25 -46.5 20.9 -46.5 17.85 -38.25 18.05 -30.0 18.3 -30.0 21.5" fill="#341e6d" fill-rule="evenodd" stroke="none"/>
    <path d="M22.0 18.5 Q18.7 19.75 17.75 19.75 L16.3 19.5 16.25 18.1 Q16.25 16.85 19.35 15.95 22.15 15.15 25.05 15.25 L25.3 15.5 25.5 16.5 Q25.5 17.15 22.0 18.5 M-33.85 22.5 Q-33.85 24.05 -35.75 24.05 -38.95 24.05 -41.1 23.0 -42.85 22.15 -42.85 21.4 L-42.8 20.5 -42.6 20.0 Q-39.2 19.5 -36.7 20.05 -33.85 20.65 -33.85 22.5" fill="#541e96" fill-rule="evenodd" stroke="none"/>
    <path d="M-60.3 146.4 Q-56.6 144.6 -51.85 143.75 -39.85 141.85 -29.35 137.15 -4.65 126.1 -18.8 96.4 L-23.7 94.55 -23.0 84.05 -30.65 87.85 -31.3 91.9 -33.05 91.9 -34.8 91.4 -35.6 91.05 Q-38.3 89.65 -39.45 87.0 -37.05 83.2 -38.65 79.0 -42.1 69.55 -40.3 58.8 L-40.25 58.3 -40.5 58.65 -40.6 58.75 -40.85 59.1 -41.5 58.95 -43.4 57.05 -47.7 54.35 Q-54.0 47.7 -69.3 43.45 -70.9 26.1 -69.7 8.15 -68.95 -3.15 -73.95 -12.7 -89.9 -43.35 -72.8 -66.2 L-63.8 -69.4 Q-15.85 -85.3 29.45 -76.55 38.65 -74.85 44.75 -69.85 51.65 -64.15 54.4 -54.2 60.0 -33.95 55.25 -12.9 M54.75 -12.9 L54.8 -11.1 Q56.85 15.85 55.95 42.85 L53.7 43.8 Q42.0 48.45 33.05 57.0 L37.9 73.15 35.8 79.9 29.15 78.85 28.45 76.0 24.3 76.35 23.9 77.3 Q23.6 78.15 23.8 78.95 25.7 85.5 25.6 92.35 L18.05 94.15 17.15 93.6 Q15.8 92.5 14.7 91.25 11.15 87.25 12.0 82.05 L10.8 82.45 9.7 82.8 8.7 83.35 Q6.85 84.6 6.1 86.95 L5.7 88.15 6.4 89.55 6.9 90.9 7.55 93.55 Q8.05 96.3 7.0 98.75 L0.95 99.2 0.1 106.9 0.35 107.95 Q1.0 123.05 12.15 132.85 13.25 133.5 14.45 133.55 40.75 138.15 66.0 146.2 77.55 148.15 85.75 156.35 91.7 162.3 85.25 167.15 67.05 180.6 44.7 187.3 -30.4 209.9 -89.9 166.45 -89.95 165.2 -89.6 164.1 -83.75 146.1 -61.0 145.05 M-60.3 146.4 Q-69.45 150.85 -72.35 161.05 -31.3 194.95 24.95 181.65 43.4 177.3 60.6 169.8 79.8 161.3 66.0 146.2 M-73.0 -22.0 Q-57.6 -16.9 -56.95 -1.75 -56.9 -0.9 -57.0 0.0 M41.75 -60.8 Q-18.25 -84.15 -74.55 -55.75 -49.45 -34.05 -11.35 -38.6 L-9.45 -38.9 Q24.5 -36.4 44.9 -58.1 45.35 -58.55 45.4 -59.35 L41.85 -60.75 41.75 -60.8 M41.8 -61.0 L41.85 -60.75 M54.75 -12.9 L54.95 -15.1 M42.05 -6.0 L43.65 -18.4 56.05 -29.0 M7.55 32.4 Q-1.55 28.45 -1.55 18.85 15.55 -2.0 40.8 2.25 45.1 31.05 8.95 32.6 L7.55 32.4 M37.05 32.0 Q32.3 42.4 32.65 54.0 32.7 55.5 33.05 57.0 M4.6 68.9 L5.45 71.75 5.65 68.95 M4.6 68.9 L-5.95 51.0 Q-6.95 51.6 -7.65 52.45 -12.35 58.45 -11.95 66.75 -11.85 69.4 -14.0 71.05 L-14.4 66.75 Q-15.65 51.4 -7.65 36.05 L-7.0 34.0 Q-5.6 35.0 -4.6 36.4 6.35 51.25 5.65 68.95 M12.15 132.85 L22.9 145.15 Q21.25 155.05 12.05 159.6 4.9 163.05 -3.0 163.05 M-30.2 34.15 Q-45.6 33.4 -59.35 26.45 L-60.3 24.75 -62.35 23.8 -62.0 21.0 -64.1 20.3 Q-35.85 -6.9 -10.3 23.75 -9.05 25.25 -9.45 27.35 -15.45 35.15 -26.15 35.3 L-28.75 35.3 -30.2 34.15 M-40.25 58.3 Q-41.4 49.1 -46.25 42.35 L-50.0 37.0 M0.95 99.2 L-4.15 98.45 -7.95 86.3 -9.25 87.15 -10.3 88.05 Q-13.25 91.4 -11.9 95.75 L-13.3 97.15 -18.8 96.4 M-35.0 149.05 Q-35.0 153.6 -32.35 156.85 -29.75 160.05 -26.0 160.05" fill="none" stroke="#663300" stroke-linecap="round" stroke-linejoin="round" stroke-width="3.0"/>
    <path d="M-76.0 -52.0 Q-76.5 -47.25 -72.3 -45.35 L-70.75 -44.25 Q-69.0 -42.5 -66.8 -41.4 L-63.65 -39.5 Q-63.0 -39.0 -62.1 -38.7 L-60.95 -38.05 Q-58.4 -35.95 -55.05 -35.65 -53.0 -35.5 -51.65 -34.5 -51.0 -34.0 -50.1 -33.75 L-44.9 -32.35 -42.05 -31.7 -39.95 -31.3 Q-35.1 -30.3 -30.0 -30.05 L-27.05 -29.75 -23.95 -29.25 Q-20.65 -28.65 -18.8 -29.6 L-17.0 -29.95 Q-6.8 -29.35 2.0 -31.95 L5.95 -33.1 23.1 -38.7 27.9 -40.3 29.1 -40.7 Q32.9 -42.1 35.3 -43.55 L36.9 -44.3 38.1 -44.8 Q45.2 -48.25 50.0 -53.0 M-50.0 -1.0 Q-51.0 -2.0 -51.6 -3.2 L-55.6 -11.2 -56.35 -12.85 -57.65 -16.15 -58.4 -17.8 Q-59.0 -19.0 -60.0 -20.0 -58.65 -21.95 -55.05 -22.4 L-52.95 -22.65 Q-50.0 -23.0 -47.05 -22.6 -44.1 -22.2 -42.2 -19.85 -39.25 -16.1 -42.9 -13.85 -45.05 -12.55 -48.05 -12.25 -50.2 -12.05 -52.0 -13.0 -51.45 -15.85 -48.0 -15.0 M-8.0 -17.0 Q-11.6 -15.05 -8.6 -12.5 -8.0 -12.0 -7.0 -11.95 -2.35 -11.65 -3.35 -15.9 L-3.55 -17.05 Q-3.8 -19.7 -5.95 -20.25 L-8.05 -20.7 Q-11.25 -21.25 -12.5 -19.3 -13.0 -18.5 -13.95 -17.95 -18.15 -15.4 -16.2 -8.2 -16.0 -7.5 -14.95 -7.2 -11.0 -6.0 -6.95 -5.6 L-4.95 -5.65 Q-0.25 -6.25 1.4 -9.8 2.1 -11.25 2.7 -14.05 3.2 -16.7 2.4 -18.2 2.0 -19.0 1.75 -19.95 -0.4 -27.6 -11.95 -25.6 L-13.1 -25.25 Q-21.05 -22.15 -23.85 -14.95 -24.65 -12.9 -23.4 -12.2 -23.0 -12.0 -22.95 -11.0 -22.7 -7.75 -20.1 -6.75 -19.5 -6.5 -19.25 -5.9 -18.15 -3.15 -14.05 -2.6 L-12.9 -2.2 Q-8.75 -0.05 -4.85 -1.6 L0.1 -3.85 Q3.5 -5.6 5.95 -7.1 8.05 -8.45 11.05 -8.7 14.45 -8.95 15.6 -6.8 L16.3 -5.1 Q16.5 -4.5 17.05 -4.4 18.65 -4.1 18.0 -2.0 M32.0 -4.0 Q33.65 -3.9 33.5 -6.05 L33.7 -7.1 Q35.05 -10.95 35.45 -15.95 L35.55 -17.05 Q35.8 -19.8 36.55 -22.15 37.0 -23.5 36.65 -24.9 36.5 -25.5 35.9 -25.7 32.05 -27.05 28.85 -28.65 26.9 -29.65 26.25 -28.4 26.0 -28.0 25.05 -27.85 23.0 -27.5 21.1 -26.75 L20.15 -25.9 Q19.0 -24.0 17.5 -22.5 17.0 -22.0 17.0 -21.0 17.1 -14.5 24.95 -16.2 27.3 -16.7 27.85 -20.0 28.15 -21.65 25.95 -21.15 21.65 -20.2 25.0 -20.0 M-65.0 12.0 Q-60.45 6.05 -51.1 3.65 L-49.9 3.2 Q-45.05 0.65 -39.0 0.5 L-37.95 0.45 Q-33.0 0.0 -28.05 0.4 L-25.0 0.5 Q-21.05 0.55 -19.0 2.0 -15.2 4.7 -12.85 8.9 L-11.95 9.95 Q-9.3 12.3 -6.95 14.95 -5.5 15.0 -4.8 14.2 L0.8 7.8 2.25 6.25 3.95 4.95 Q10.15 1.3 18.85 -1.4 23.0 -2.7 28.0 -2.5 L29.05 -2.6 Q32.0 -3.0 34.95 -2.6 L36.1 -2.4 39.9 -1.6 41.1 -1.4 44.9 -0.6 46.1 -0.3 48.0 0.0 M28.0 62.05 Q27.6 52.65 25.2 45.0 24.45 42.6 25.7 40.85 28.85 36.5 29.0 30.0 M27.0 71.05 Q26.5 70.55 26.65 69.95 27.5 66.0 32.0 67.05 M13.0 81.05 Q13.1 78.15 14.7 76.75 L16.3 75.5 Q17.0 75.05 17.95 75.3 L20.05 75.9 M-7.0 101.05 L-4.65 110.95 -4.25 112.15 Q-3.0 115.35 -2.55 119.0 L-2.2 120.15 Q1.4 126.85 5.8 134.15 8.4 138.45 11.95 141.15 L13.05 142.0 Q15.6 144.15 14.85 148.05 14.5 150.05 13.75 151.95 L12.95 153.0 Q8.9 156.4 3.0 156.9 -2.35 157.4 -6.9 155.75 -7.5 155.55 -7.8 154.95 M-72.0 151.05 Q-73.0 149.15 -74.25 151.95 L-75.05 153.0 Q-78.75 156.25 -79.45 160.15 L-79.25 161.15 Q-78.4 163.2 -79.6 163.85 -80.0 164.05 -79.75 165.0 -79.5 166.05 -78.75 166.8 L-75.95 169.0 Q-71.45 171.65 -68.7 173.6 L-67.15 174.4 Q-59.9 177.35 -50.05 180.25 L-47.95 180.85 -40.05 183.25 -37.95 183.65 Q-35.3 183.85 -33.8 184.65 -33.0 185.05 -32.0 185.05 L-26.05 185.45 -25.0 185.55 Q-15.0 186.05 -5.0 185.85 L5.1 186.4 7.05 186.45 16.95 185.65 19.05 185.4 Q24.25 184.7 28.95 182.95 33.3 181.35 38.0 180.1 L41.95 178.95 49.15 176.4 Q52.95 175.0 56.2 173.45 L71.05 166.05 Q75.0 164.0 77.55 160.65 78.05 160.05 77.75 159.15 77.55 158.55 76.95 158.2 74.75 156.85 74.05 154.05 M57.0 166.05 Q57.5 163.25 59.5 160.65 60.0 160.05 60.15 159.1 L60.7 155.0 Q60.95 152.85 59.75 151.2 55.75 145.7 46.0 144.05 M-42.0 38.05 Q-42.2 37.35 -40.6 39.8 L-36.5 45.45 Q-36.0 46.05 -35.7 46.95 L-35.3 48.15 -33.4 54.15 Q-33.0 55.55 -33.1 57.05 -33.2 59.75 -32.4 61.25 -32.0 62.05 -32.0 63.05 -32.0 73.05 -32.5 83.05 -32.5 83.55 -32.8 84.15 M-5.0 85.05 Q-3.15 79.95 -0.3 82.4 1.1 83.55 3.0 83.05 M-19.0 82.05 Q-19.7 82.25 -17.75 80.3 L-16.0 79.05 Q-15.3 81.85 -13.25 83.35" fill="none" stroke="#ffffcc" stroke-linecap="round" stroke-linejoin="round" stroke-width="3.0"/>
    <path d="M22.05 -205.25 L23.05 -206.1 Q25.4 -208.7 26.55 -211.8 27.1 -213.3 27.0 -215.05 29.35 -218.4 33.5 -219.4 37.7 -220.6 41.45 -218.25 47.0 -214.8 51.9 -210.45 59.65 -203.5 58.2 -193.4 57.9 -191.4 57.05 -189.7 L50.95 -178.25 44.8 -166.35 Q44.25 -165.25 44.55 -164.15 45.75 -159.75 48.0 -155.75 L50.05 -151.55 Q52.65 -144.9 51.8 -138.0 51.7 -137.35 50.95 -136.85 43.4 -131.9 34.8 -128.4 31.6 -127.15 28.5 -125.7 26.05 -124.5 24.3 -122.35 21.6 -119.05 20.9 -114.85 20.2 -110.75 22.95 -107.7 25.95 -104.5 30.35 -105.5 L42.65 -105.15 Q46.95 -104.05 50.6 -101.05 53.15 -98.9 51.5 -96.1 L49.05 -92.7 Q44.8 -87.95 39.0 -85.2 38.4 -84.55 38.5 -83.55 38.55 -82.95 38.75 -82.35 L38.95 -81.95 Q44.1 -80.45 46.25 -75.6 46.7 -74.55 46.45 -73.35 46.05 -71.4 44.8 -69.85 40.8 -65.0 42.45 -58.75 42.8 -57.5 43.55 -56.35 L38.55 -50.5 Q41.35 -46.55 38.65 -42.95 38.05 -42.15 37.05 -41.7 32.75 -40.0 28.6 -41.75 21.15 -44.85 13.35 -43.25 L10.85 -42.3 Q8.25 -40.65 5.45 -40.05 0.35 -38.85 -5.05 -38.8 L-5.55 -38.15 -25.95 -38.15 Q-32.45 -37.65 -38.05 -40.8 -49.25 -39.0 -59.2 -33.75 -61.25 -32.65 -63.5 -33.25 -65.95 -34.0 -66.65 -36.35 -67.95 -40.55 -66.55 -44.95 -66.05 -46.6 -67.15 -48.1 L-69.6 -50.45 Q-73.6 -50.95 -76.35 -53.65 L-77.45 -55.0 Q-76.7 -57.95 -74.1 -59.8 L-68.7 -63.7 Q-67.1 -64.9 -65.7 -66.45 -64.95 -67.4 -64.55 -68.55 -62.6 -73.95 -63.35 -79.5 -63.95 -84.0 -67.9 -86.55 L-81.35 -95.2 Q-87.25 -99.0 -91.05 -104.8 -94.9 -110.8 -93.35 -117.7 -92.45 -121.7 -89.05 -124.15 -77.2 -132.6 -63.25 -136.85 -59.1 -138.2 -56.25 -141.4 -50.4 -148.1 -55.0 -155.8 -56.5 -158.3 -58.55 -160.2 -65.8 -166.8 -74.55 -171.85 -79.35 -174.55 -77.5 -180.05 -76.0 -184.4 -72.45 -187.25 -60.6 -196.6 -46.95 -202.95 -45.4 -203.7 -44.0 -204.8 -39.75 -208.25 -40.2 -213.55 L-40.65 -215.3 Q-44.0 -223.35 -48.3 -230.65 -48.95 -231.75 -49.25 -233.0 -40.3 -240.45 -29.1 -237.9 -24.75 -237.05 -22.55 -233.2 -21.8 -231.8 -22.35 -230.25 -24.25 -224.6 -23.5 -218.7 -23.25 -216.8 -22.5 -215.0 -20.9 -211.25 -19.9 -207.2 -18.85 -202.85 -16.15 -199.45 -15.6 -198.7 -15.4 -197.65 -14.8 -194.75 -16.35 -192.0 -18.95 -187.3 -22.75 -183.75 -29.1 -177.85 -28.55 -169.5 -28.5 -168.65 -28.05 -167.9 -23.85 -160.6 -15.8 -157.6 L-10.95 -155.85 Q-4.0 -152.95 3.25 -152.9 11.2 -152.8 14.35 -159.75 13.1 -163.5 10.45 -166.45 8.35 -168.75 6.6 -171.35 4.35 -174.8 3.45 -178.55 2.8 -181.4 3.85 -184.1 7.25 -193.0 14.25 -199.4 17.9 -202.65 22.05 -205.25 M35.8 -174.2 Q37.8 -177.55 37.8 -181.25 37.8 -191.4 29.45 -190.25 26.3 -189.85 23.65 -187.95 21.05 -186.05 21.05 -184.3 L22.05 -179.5 Q23.05 -175.3 23.05 -173.25 L22.55 -171.0 22.05 -168.75 Q22.05 -165.85 24.55 -163.4 27.0 -160.9 27.0 -156.55 27.0 -155.35 24.65 -151.75 21.85 -147.45 18.0 -143.6 6.95 -132.6 -5.4 -132.6 -13.8 -132.6 -18.9 -139.1 -22.4 -143.6 -25.5 -153.45 -29.15 -165.35 -30.4 -167.85 -33.65 -174.35 -39.0 -174.35 -44.2 -174.35 -46.75 -169.0 -48.35 -165.6 -48.35 -162.4 -48.35 -158.8 -45.35 -153.65 -42.35 -148.5 -42.35 -144.4 -42.35 -138.4 -45.45 -134.55 -47.65 -131.85 -52.35 -129.45 L-59.2 -125.7 Q-62.35 -123.3 -62.35 -119.85 -62.35 -117.2 -61.1 -115.6 -60.1 -114.4 -55.35 -110.5 -58.7 -109.7 -61.45 -105.85 -63.85 -102.5 -63.85 -100.15 -63.85 -96.2 -57.35 -86.4 -51.05 -77.0 -47.0 -74.1 L-55.4 -66.05 Q-59.75 -61.15 -59.75 -57.9 -59.75 -53.6 -58.1 -50.8 -54.95 -45.3 -46.25 -45.3 L-37.5 -44.8 Q-34.6 -44.8 -31.7 -46.0 -28.8 -47.25 -26.25 -47.25 -24.75 -47.25 -22.85 -46.5 -21.0 -45.8 -17.25 -45.8 -7.2 -45.8 -3.15 -51.0 L-0.7 -54.6 Q0.6 -56.25 2.5 -56.25 9.9 -56.25 13.35 -53.75 16.85 -51.3 20.0 -51.3 29.55 -51.3 29.55 -62.05 29.55 -63.8 26.05 -66.8 22.2 -70.05 21.55 -72.75 21.0 -74.85 19.45 -78.3 L17.05 -83.6 Q23.15 -85.45 31.3 -85.95 33.55 -86.05 34.2 -86.55 35.05 -87.1 35.05 -88.9 35.05 -90.95 32.75 -93.6 29.3 -97.6 23.0 -97.6 19.65 -97.6 14.15 -95.3 8.65 -93.0 7.0 -93.0 5.15 -93.0 3.25 -96.9 1.55 -100.3 1.55 -102.3 1.55 -105.05 3.8 -107.8 7.0 -111.75 8.3 -114.85 9.2 -116.95 9.45 -121.1 10.15 -124.85 13.8 -127.6 25.25 -136.35 29.3 -140.4 36.3 -147.5 36.3 -153.1 36.3 -155.35 35.05 -160.55 33.8 -165.8 33.8 -169.25 33.8 -170.9 35.8 -174.2" fill="#541e93" fill-opacity="0.57254905" fill-rule="evenodd" stroke="none"/>
    <path d="M35.8 -174.2 Q33.8 -170.9 33.8 -169.25 33.8 -165.8 35.05 -160.55 36.3 -155.35 36.3 -153.1 36.3 -147.5 29.3 -140.4 25.25 -136.35 13.8 -127.6 10.15 -124.85 9.45 -121.1 9.2 -116.95 8.3 -114.85 7.0 -111.75 3.8 -107.8 1.55 -105.05 1.55 -102.3 1.55 -100.3 3.25 -96.9 5.15 -93.0 7.0 -93.0 8.65 -93.0 14.15 -95.3 19.65 -97.6 23.0 -97.6 29.3 -97.6 32.75 -93.6 35.05 -90.95 35.05 -88.9 35.05 -87.1 34.2 -86.55 33.55 -86.05 31.3 -85.95 23.15 -85.45 17.05 -83.6 L19.45 -78.3 Q21.0 -74.85 21.55 -72.75 22.2 -70.05 26.05 -66.8 29.55 -63.8 29.55 -62.05 29.55 -51.3 20.0 -51.3 16.85 -51.3 13.35 -53.75 9.9 -56.25 2.5 -56.25 0.6 -56.25 -0.7 -54.6 L-3.15 -51.0 Q-7.2 -45.8 -17.25 -45.8 -21.0 -45.8 -22.85 -46.5 -24.75 -47.25 -26.25 -47.25 -28.8 -47.25 -31.7 -46.0 -34.6 -44.8 -37.5 -44.8 L-46.25 -45.3 Q-54.95 -45.3 -58.1 -50.8 -59.75 -53.6 -59.75 -57.9 -59.75 -61.15 -55.4 -66.05 L-47.0 -74.1 Q-51.05 -77.0 -57.35 -86.4 -63.85 -96.2 -63.85 -100.15 -63.85 -102.5 -61.45 -105.85 -58.7 -109.7 -55.35 -110.5 -60.1 -114.4 -61.1 -115.6 -62.35 -117.2 -62.35 -119.85 -62.35 -123.3 -59.2 -125.7 L-52.35 -129.45 Q-47.65 -131.85 -45.45 -134.55 -42.35 -138.4 -42.35 -144.4 -42.35 -148.5 -45.35 -153.65 -48.35 -158.8 -48.35 -162.4 -48.35 -165.6 -46.75 -169.0 -44.2 -174.35 -39.0 -174.35 -33.65 -174.35 -30.4 -167.85 -29.15 -165.35 -25.5 -153.45 -22.4 -143.6 -18.9 -139.1 -13.8 -132.6 -5.4 -132.6 6.95 -132.6 18.0 -143.6 21.85 -147.45 24.65 -151.75 27.0 -155.35 27.0 -156.55 27.0 -160.9 24.55 -163.4 22.05 -165.85 22.05 -168.75 L22.55 -171.0 23.05 -173.25 Q23.05 -175.3 22.05 -179.5 L21.05 -184.3 Q21.05 -186.05 23.65 -187.95 26.3 -189.85 29.45 -190.25 37.8 -191.4 37.8 -181.25 37.8 -177.55 35.8 -174.2 M-2.25 -128.5 L-2.5 -126.5 Q-2.85 -124.9 -5.95 -123.8 -9.45 -122.85 -10.45 -122.35 L-14.95 -117.55 Q-18.5 -113.5 -20.5 -113.5 -21.25 -113.5 -21.1 -113.8 L-21.0 -114.1 Q-21.0 -115.35 -21.55 -117.45 L-22.1 -120.1 -21.55 -124.1 Q-21.0 -127.5 -21.0 -128.15 -21.0 -131.35 -23.25 -134.0 -25.3 -136.4 -28.25 -137.5 L-30.75 -138.05 -33.5 -140.1 Q-33.3 -140.2 -31.45 -143.8 -29.5 -147.65 -29.5 -148.55 -29.5 -154.5 -38.5 -159.85 L-38.85 -159.6 -39.0 -158.65 Q-39.0 -157.3 -35.25 -154.55 -31.5 -151.75 -31.5 -148.5 L-34.4 -143.95 Q-37.35 -139.35 -37.35 -138.55 -37.35 -137.8 -35.35 -134.95 L-35.5 -133.5 Q-35.5 -132.1 -34.05 -129.8 -32.3 -127.0 -32.0 -126.0 -39.0 -120.75 -41.6 -117.35 -44.5 -113.6 -44.5 -109.1 -44.5 -104.45 -38.1 -98.55 -31.75 -92.65 -31.75 -88.85 -31.75 -87.3 -36.0 -81.7 -40.25 -76.15 -40.25 -71.25 -40.25 -66.95 -39.15 -64.8 -36.15 -59.0 -26.5 -59.0 -25.9 -59.0 -24.45 -59.55 L-21.85 -60.25 -14.9 -60.0 -9.2 -59.8 Q-6.9 -60.3 -5.75 -62.2 L-3.95 -64.75 3.45 -67.45 Q9.5 -70.2 9.5 -74.35 9.5 -81.4 -0.75 -84.55 L-7.8 -86.7 Q-11.0 -88.0 -11.0 -90.0 L-9.5 -94.0 Q-8.0 -97.75 -8.0 -100.1 -8.0 -102.15 -8.45 -103.6 L-9.95 -108.0 Q-2.1 -111.1 1.45 -117.1 4.0 -121.45 4.0 -126.5 L3.8 -128.55 Q3.15 -130.5 0.75 -130.5 -1.55 -130.5 -2.25 -128.5" fill="#548793" fill-opacity="0.57254905" fill-rule="evenodd" stroke="none"/>
    <path d="M-2.25 -128.5 Q-1.55 -130.5 0.75 -130.5 3.15 -130.5 3.8 -128.55 L4.0 -126.5 Q4.0 -121.45 1.45 -117.1 -2.1 -111.1 -9.95 -108.0 L-8.45 -103.6 Q-8.0 -102.15 -8.0 -100.1 -8.0 -97.75 -9.5 -94.0 L-11.0 -90.0 Q-11.0 -88.0 -7.8 -86.7 L-0.75 -84.55 Q9.5 -81.4 9.5 -74.35 9.5 -70.2 3.45 -67.45 L-3.95 -64.75 -5.75 -62.2 Q-6.9 -60.3 -9.2 -59.8 L-14.9 -60.0 -21.85 -60.25 -24.45 -59.55 Q-25.9 -59.0 -26.5 -59.0 -36.15 -59.0 -39.15 -64.8 -40.25 -66.95 -40.25 -71.25 -40.25 -76.15 -36.0 -81.7 -31.75 -87.3 -31.75 -88.85 -31.75 -92.65 -38.1 -98.55 -44.5 -104.45 -44.5 -109.1 -44.5 -113.6 -41.6 -117.35 -39.0 -120.75 -32.0 -126.0 -32.3 -127.0 -34.05 -129.8 -35.5 -132.1 -35.5 -133.5 L-35.35 -134.95 Q-37.35 -137.8 -37.35 -138.55 -37.35 -139.35 -34.4 -143.95 L-31.5 -148.5 Q-31.5 -151.75 -35.25 -154.55 -39.0 -157.3 -39.0 -158.65 L-38.85 -159.6 -38.5 -159.85 Q-29.5 -154.5 -29.5 -148.55 -29.5 -147.65 -31.45 -143.8 -33.3 -140.2 -33.5 -140.1 L-30.75 -138.05 -28.25 -137.5 Q-25.3 -136.4 -23.25 -134.0 -21.0 -131.35 -21.0 -128.15 -21.0 -127.5 -21.55 -124.1 L-22.1 -120.1 -21.55 -117.45 Q-21.0 -115.35 -21.0 -114.1 L-21.1 -113.8 Q-21.25 -113.5 -20.5 -113.5 -18.5 -113.5 -14.95 -117.55 L-10.45 -122.35 Q-9.45 -122.85 -5.95 -123.8 -2.85 -124.9 -2.5 -126.5 L-2.25 -128.5" fill="#83e5ea" fill-opacity="0.57254905" fill-rule="evenodd" stroke="none"/>
    <path d="M22.05 -205.25 L23.05 -206.1 Q25.4 -208.7 26.55 -211.8 27.1 -213.3 27.0 -215.05 29.35 -218.4 33.5 -219.4 37.7 -220.6 41.45 -218.25 47.0 -214.8 51.9 -210.45 59.65 -203.5 58.2 -193.4 57.9 -191.4 57.05 -189.7 L50.95 -178.25 44.8 -166.35 Q44.25 -165.25 44.55 -164.15 45.75 -159.75 48.0 -155.75 L50.05 -151.55 Q52.65 -144.9 51.8 -138.0 51.7 -137.35 50.95 -136.85 43.4 -131.9 34.8 -128.4 31.6 -127.15 28.5 -125.7 26.05 -124.5 24.3 -122.35 21.6 -119.05 20.9 -114.85 20.2 -110.75 22.95 -107.7 25.95 -104.5 30.35 -105.5 L42.65 -105.15 Q46.95 -104.05 50.6 -101.05 53.15 -98.9 51.5 -96.1 L49.05 -92.7 Q44.8 -87.95 39.0 -85.2 38.4 -84.55 38.5 -83.55 38.55 -82.95 38.75 -82.35 L38.95 -81.95 Q44.1 -80.45 46.25 -75.6 46.7 -74.55 46.45 -73.35 46.05 -71.4 44.8 -69.85 40.8 -65.0 42.45 -58.75 42.8 -57.5 43.55 -56.35 L38.55 -50.5 Q41.35 -46.55 38.65 -42.95 38.05 -42.15 37.05 -41.7 32.75 -40.0 28.6 -41.75 21.15 -44.85 13.35 -43.25 L10.85 -42.3 Q8.25 -40.65 5.45 -40.05 0.35 -38.85 -5.05 -38.8 L-5.55 -38.15 -25.95 -38.15 Q-32.45 -37.65 -38.05 -40.8 -49.25 -39.0 -59.2 -33.75 -61.25 -32.65 -63.5 -33.25 -65.95 -34.0 -66.65 -36.35 -67.95 -40.55 -66.55 -44.95 -66.05 -46.6 -67.15 -48.1 L-69.6 -50.45 Q-73.6 -50.95 -76.35 -53.65 L-77.45 -55.0 Q-76.7 -57.95 -74.1 -59.8 L-68.7 -63.7 Q-67.1 -64.9 -65.7 -66.45 -64.95 -67.4 -64.55 -68.55 -62.6 -73.95 -63.35 -79.5 -63.95 -84.0 -67.9 -86.55 L-81.35 -95.2 Q-87.25 -99.0 -91.05 -104.8 -94.9 -110.8 -93.35 -117.7 -92.45 -121.7 -89.05 -124.15 -77.2 -132.6 -63.25 -136.85 -59.1 -138.2 -56.25 -141.4 -50.4 -148.1 -55.0 -155.8 -56.5 -158.3 -58.55 -160.2 -65.8 -166.8 -74.55 -171.85 -79.35 -174.55 -77.5 -180.05 -76.0 -184.4 -72.45 -187.25 -60.6 -196.6 -46.95 -202.95 -45.4 -203.7 -44.0 -204.8 -39.75 -208.25 -40.2 -213.55 L-40.65 -215.3 Q-44.0 -223.35 -48.3 -230.65 -48.95 -231.75 -49.25 -233.0 -40.3 -240.45 -29.1 -237.9 -24.75 -237.05 -22.55 -233.2 -21.8 -231.8 -22.35 -230.25 -24.25 -224.6 -23.5 -218.7 -23.25 -216.8 -22.5 -215.0 -20.9 -211.25 -19.9 -207.2 -18.85 -202.85 -16.15 -199.45 -15.6 -198.7 -15.4 -197.65 -14.8 -194.75 -16.35 -192.0 -18.95 -187.3 -22.75 -183.75 -29.1 -177.85 -28.55 -169.5 -28.5 -168.65 -28.05 -167.9 -23.85 -160.6 -15.8 -157.6 L-10.95 -155.85 Q-4.0 -152.95 3.25 -152.9 11.2 -152.8 14.35 -159.75 13.1 -163.5 10.45 -166.45 8.35 -168.75 6.6 -171.35 4.35 -174.8 3.45 -178.55 2.8 -181.4 3.85 -184.1 7.25 -193.0 14.25 -199.4 17.9 -202.65 22.05 -205.25 Z" fill="none" stroke="#6633cc" stroke-linecap="round" stroke-linejoin="round" stroke-width="3.0"/>
  </g>
  <defs>
    <linearGradient gradientTransform="matrix(0.0849, 0.0, 0.0, 0.1092, -12.1, 9.75)" gradientUnits="userSpaceOnUse" id="gradient0" spreadMethod="pad" x1="-819.2" x2="819.2">
      <stop offset="0.0" stop-color="#896d29"/>
      <stop offset="0.32941176470588235" stop-color="#fff29a"/>
      <stop offset="0.7490196078431373" stop-color="#917d33"/>
      <stop offset="1.0" stop-color="#4b3623"/>
    </linearGradient>
  </defs>
</svg>
