<?xml version="1.0" encoding="UTF-8" standalone="no"?>
<svg xmlns:xlink="http://www.w3.org/1999/xlink" height="62.0px" width="72.85px" xmlns="http://www.w3.org/2000/svg">
  <g transform="matrix(1.0, 0.0, 0.0, 1.0, 36.45, 28.15)">
    <path d="M17.5 -28.15 Q29.45 -27.3 34.4 -16.3 36.15 -12.45 36.35 -8.15 36.55 -4.55 36.05 -1.35 35.35 3.2 33.25 6.95 29.15 14.25 19.8 18.5 11.45 22.3 2.8 19.35 L-1.85 18.05 -2.15 17.8 Q-2.45 17.35 -3.05 17.45 L-3.25 17.2 -4.1 16.15 -4.15 16.0 -4.5 15.9 -5.75 14.9 -5.6 14.85 -4.4 15.35 -4.0 15.45 Q8.45 22.2 21.05 15.35 L22.5 14.5 22.75 14.4 Q28.4 10.85 31.35 5.7 33.35 2.15 34.0 -2.15 34.35 -4.25 34.35 -6.45 34.45 -16.2 26.55 -22.25 19.9 -27.3 11.45 -24.25 5.2 -22.0 -0.75 -18.75 -5.4 -16.15 -9.65 -13.15 L-12.3 -11.25 -15.35 -8.65 Q-18.75 -4.75 -20.35 0.5 -23.65 11.3 -27.4 21.9 L-28.75 28.85 -29.1 30.85 Q-29.9 34.6 -32.25 33.7 L-33.7 33.35 Q-35.4 33.7 -36.45 32.15 -35.75 27.5 -33.3 23.2 L-32.85 22.55 Q-30.85 19.15 -29.95 15.35 L-29.55 14.8 Q-28.2 9.9 -26.45 5.1 L-26.0 3.85 -26.0 3.5 -25.85 3.3 -25.8 3.25 -24.9 0.45 Q-22.0 -9.35 -14.05 -14.3 L-10.4 -16.2 -7.65 -17.85 Q1.1 -22.5 10.2 -26.2 L14.4 -27.75 17.5 -28.15" fill="#43ff33" fill-opacity="0.87058824" fill-rule="evenodd" stroke="none"/>
  </g>
</svg>
