<?xml version="1.0" encoding="UTF-8" standalone="no"?>
<svg xmlns:xlink="http://www.w3.org/1999/xlink" height="466.5px" width="467.6px" xmlns="http://www.w3.org/2000/svg">
  <g transform="matrix(1.0, 0.0, 0.0, 1.0, 235.4, 260.9)">
    <path d="M-196.0 -158.1 Q-183.5 -176.15 -167.1 -192.6 -98.75 -260.9 -2.15 -260.9 94.45 -260.9 162.75 -192.6 179.2 -176.15 191.7 -158.1 231.1 -101.0 231.1 -27.65 231.1 68.95 162.75 137.25 154.0 146.0 144.8 153.65 82.05 205.6 -2.15 205.6 -86.35 205.6 -149.1 153.65 -158.35 146.0 -167.1 137.25 -222.85 81.5 -233.1 6.85 -235.4 -9.9 -235.4 -27.65 -235.4 -45.4 -233.1 -62.15 -225.9 -114.8 -196.0 -158.1 M172.25 -25.9 Q172.25 -97.4 121.65 -148.0 71.1 -198.55 -0.4 -198.55 -71.9 -198.55 -122.5 -148.0 -173.05 -97.4 -173.05 -25.9 -173.05 45.6 -122.5 96.15 -71.9 146.75 -0.4 146.75 71.1 146.75 121.65 96.15 172.25 45.6 172.25 -25.9" fill="url(#gradient0)" fill-rule="evenodd" stroke="none"/>
    <path d="M191.7 -158.1 L232.2 -158.1 232.2 153.65 144.8 153.65 Q154.0 146.0 162.75 137.25 231.1 68.95 231.1 -27.65 231.1 -101.0 191.7 -158.1 M-149.1 153.65 L-233.1 153.65 -233.1 6.85 Q-222.85 81.5 -167.1 137.25 -158.35 146.0 -149.1 153.65 M-233.1 -62.15 L-233.1 -158.1 -196.0 -158.1 Q-225.9 -114.8 -233.1 -62.15 M71.4 -98.85 Q100.65 -69.6 100.65 -28.2 100.65 13.2 71.4 42.45 42.15 71.7 0.75 71.7 -40.65 71.7 -69.9 42.45 -99.15 13.2 -99.15 -28.2 -99.15 -69.6 -69.9 -98.85 -40.65 -128.1 0.75 -128.1 42.15 -128.1 71.4 -98.85" fill="url(#gradient1)" fill-rule="evenodd" stroke="none"/>
    <path d="M172.25 -25.9 Q172.25 45.6 121.65 96.15 71.1 146.75 -0.4 146.75 -71.9 146.75 -122.5 96.15 -173.05 45.6 -173.05 -25.9 -173.05 -97.4 -122.5 -148.0 -71.9 -198.55 -0.4 -198.55 71.1 -198.55 121.65 -148.0 172.25 -97.4 172.25 -25.9 M71.4 -98.85 Q42.15 -128.1 0.75 -128.1 -40.65 -128.1 -69.9 -98.85 -99.15 -69.6 -99.15 -28.2 -99.15 13.2 -69.9 42.45 -40.65 71.7 0.75 71.7 42.15 71.7 71.4 42.45 100.65 13.2 100.65 -28.2 100.65 -69.6 71.4 -98.85" fill="url(#gradient2)" fill-rule="evenodd" stroke="none"/>
  </g>
  <defs>
    <radialGradient cx="0" cy="0" gradientTransform="matrix(0.3197, 0.0, 0.0, 0.3197, -3.3, -69.2)" gradientUnits="userSpaceOnUse" id="gradient0" r="819.2" spreadMethod="pad">
      <stop offset="0.0" stop-color="#422163"/>
      <stop offset="0.3333333333333333" stop-color="#2d1643"/>
      <stop offset="0.8274509803921568" stop-color="#110c18"/>
      <stop offset="1.0" stop-color="#000000"/>
    </radialGradient>
    <radialGradient cx="0" cy="0" gradientTransform="matrix(0.2543, 0.0, 0.0, 0.2543, -3.3, -69.2)" gradientUnits="userSpaceOnUse" id="gradient1" r="819.2" spreadMethod="pad">
      <stop offset="0.0" stop-color="#422163"/>
      <stop offset="0.3333333333333333" stop-color="#2d1643"/>
      <stop offset="0.8274509803921568" stop-color="#110c18"/>
      <stop offset="1.0" stop-color="#000000"/>
    </radialGradient>
    <radialGradient cx="0" cy="0" gradientTransform="matrix(0.2927, 0.0, 0.0, 0.2927, -3.3, -69.2)" gradientUnits="userSpaceOnUse" id="gradient2" r="819.2" spreadMethod="pad">
      <stop offset="0.0" stop-color="#422163"/>
      <stop offset="0.3333333333333333" stop-color="#2d1643"/>
      <stop offset="0.8274509803921568" stop-color="#110c18"/>
      <stop offset="1.0" stop-color="#000000"/>
    </radialGradient>
  </defs>
</svg>
