<?xml version="1.0" encoding="UTF-8" standalone="no"?>
<svg xmlns:xlink="http://www.w3.org/1999/xlink" height="252.7px" width="488.85px" xmlns="http://www.w3.org/2000/svg">
  <g transform="matrix(1.0, 0.0, 0.0, 1.0, 244.4, 126.35)">
    <path d="M220.85 -99.85 Q185.2 -101.7 150.2 -94.75 136.2 -91.8 122.1 -88.2 L121.45 -89.15 120.7 -90.55 Q120.35 -91.3 120.15 -92.15 L119.9 -93.2 119.85 -94.3 119.8 -95.35 119.9 -96.4 Q124.7 -98.95 130.1 -100.55 L140.5 -103.3 149.35 -104.9 151.0 -105.05 149.8 -106.7 148.7 -108.45 147.9 -110.4 147.3 -112.4 146.95 -114.3 95.0 -103.9 M196.6 -46.75 L194.9 -70.8 Q169.85 -71.45 144.8 -69.5 L131.0 -68.55 129.05 -60.05 M80.55 -108.5 Q89.3 -94.45 93.35 -78.45 L94.45 -73.9 Q84.8 -74.55 75.4 -72.75 74.45 -83.4 70.9 -93.6 69.35 -98.05 67.3 -102.15 M227.2 -87.75 Q195.55 -90.6 164.15 -85.0 L156.8 -83.7 M201.25 -18.45 Q173.75 -19.7 146.2 -17.45 L138.3 -16.75 138.25 -15.75 138.15 -14.85 137.95 -13.95 137.7 -13.2 137.4 -12.5 137.05 -11.8 136.6 -11.2 Q134.8 -9.05 131.9 -8.6 L130.0 -8.4 129.55 -8.75 128.9 -9.4 128.3 -10.1 127.9 -10.8 127.65 -11.55 127.55 -12.3 127.7 -13.1 127.95 -14.0 128.4 -14.95 M192.55 -6.35 Q155.9 -12.3 123.3 6.35 111.3 13.3 99.6 20.8 M236.45 12.7 L168.1 12.3 166.0 14.25 Q152.95 26.15 135.4 26.55 L136.3 29.85 Q139.5 41.45 137.75 53.25 L159.65 52.55 M138.3 -62.35 L137.75 -49.2 92.75 -47.8 88.65 -58.85 M97.9 29.45 Q89.35 -7.65 127.6 -23.1 141.95 -29.0 157.4 -26.7 160.45 -41.05 160.3 -56.05 173.35 -58.1 186.8 -57.65 M182.2 -38.1 L182.2 -20.75 M190.25 -34.05 L190.85 -20.75 M235.3 23.7 L171.2 23.1 M205.35 57.1 Q207.35 62.95 206.1 69.2 L205.85 70.45 M243.95 58.3 L207.0 57.15 M233.55 73.35 Q207.4 70.85 181.25 70.8 L166.95 70.7 164.8 77.75 Q160.85 90.95 158.5 104.5 M159.65 73.35 L148.8 73.4 140.35 91.1 115.4 92.85 Q104.1 93.1 92.7 92.4 M166.95 70.7 Q167.25 69.35 167.8 68.15 180.35 40.7 212.2 32.35 M137.75 53.25 L101.85 56.65 78.85 31.2 M67.85 -102.75 L69.65 -104.25 Q68.25 -107.9 64.4 -106.4 L62.85 -105.6 63.25 -102.75 49.3 -100.25 54.7 -84.6 62.7 -87.75 69.05 -62.85 51.7 -59.45 Q48.15 -87.75 26.75 -106.6 19.75 -112.75 11.3 -117.2 M125.55 -122.1 Q91.55 -121.05 58.05 -113.85 50.85 -112.3 43.55 -111.2 L44.2 -112.0 M-158.45 -51.95 L-158.45 -67.6 Q-142.05 -69.75 -125.3 -69.4 L-114.4 -69.1 -115.7 -52.8 -63.5 -58.3 Q-60.1 -74.45 -52.3 -88.9 L-50.6 -91.75 Q-48.1 -95.95 -44.9 -100.1 -38.55 -108.2 -30.75 -114.85 M-176.9 -53.1 Q-199.1 -35.8 -168.85 -28.8 -158.6 -26.4 -148.15 -27.6 L-147.55 -51.05 Q-139.4 -54.9 -130.35 -54.7 -127.1 -41.6 -128.4 -27.95 L-65.5 -27.7 -69.55 -47.15 -114.0 -44.45 M-55.1 -8.05 Q-52.0 -7.65 -50.45 -4.75 L-50.1 -4.0 -54.75 0.1 Q-58.55 -1.95 -56.3 -5.5 L-55.65 -6.35 M-149.2 4.65 L-112.85 3.3 -80.5 42.75 -55.65 36.4 -57.1 35.4 -59.45 33.6 Q-74.85 21.1 -81.85 2.5 L-83.95 -3.45 M49.4 3.5 L65.7 3.25 Q67.4 -18.25 61.0 -38.95 L56.9 -51.35 M139.45 -36.95 L74.2 -35.8 75.3 -31.55 Q81.45 -7.15 73.65 16.75 M60.35 25.4 L62.25 12.85 Q56.8 11.3 51.1 10.9 45.75 10.45 40.5 10.65 L41.3 9.85 M-120.35 -117.75 L-150.35 -117.2 M-32.0 -125.85 Q-63.05 -115.8 -73.95 -85.5 L-74.75 -82.2 -82.8 -80.8 -78.75 -122.4 M-94.95 -125.85 Q-93.7 -104.2 -96.25 -82.5 L-97.05 -72.95 -97.75 -72.45 Q-98.1 -72.2 -98.55 -72.1 -98.9 -71.85 -99.3 -71.7 L-103.0 -71.3 -106.55 -71.35 -106.7 -71.55 -107.4 -78.6 -107.4 -82.2 -107.05 -86.0 -166.8 -82.5 -166.5 -62.9 M-74.15 -72.75 L-84.55 -72.15 M-78.75 -65.8 L-101.3 -63.5 M-118.0 -111.4 Q-134.3 -109.35 -150.95 -109.25 L-154.35 -109.35 M-194.25 -105.05 Q-208.15 -103.55 -222.0 -104.8 L-226.0 -105.25 -225.4 -106.2 M-242.15 -20.75 Q-237.8 -28.55 -236.8 -37.35 L-236.3 -40.85 Q-218.45 -48.9 -198.8 -48.65 -196.05 -59.95 -199.25 -71.5 -199.55 -72.65 -199.4 -73.9 L-234.9 -73.85 -234.05 -74.45 M-178.65 -117.75 L-177.25 -90.3 -178.0 -90.1 Q-180.65 -89.45 -183.25 -90.6 -190.05 -72.2 -174.85 -60.6 -167.2 -54.75 -170.65 -44.2 L-176.15 -42.75 -176.9 -43.3 M-119.75 -102.15 L-158.1 -100.5 -167.1 -99.3 -167.1 -119.5 M-71.85 -13.85 L-131.2 -12.7 -132.5 -18.85 -137.25 -19.7 -142.05 -19.45 -143.1 -13.95 -184.7 -10.7 -183.25 -19.6 -204.8 -18.5 -206.75 -16.75 Q-212.6 -11.5 -219.8 -8.35 -223.25 -6.8 -227.15 -5.65 -235.2 -3.6 -243.6 -3.8 L-243.9 -5.2 M-210.95 17.9 Q-191.1 13.55 -175.6 25.2 L-175.2 25.7 Q-205.65 25.95 -238.2 28.55 -238.7 28.15 -239.25 27.7 M-242.7 39.85 Q-207.75 37.1 -172.75 37.05 -139.8 37.0 -106.9 38.05 L-106.5 37.55 -109.3 35.6 -111.95 33.2 -114.3 30.5 -116.5 27.3 -124.35 14.4 -150.2 13.95 Q-158.2 13.55 -165.95 11.4 -168.6 10.6 -168.45 7.5 -183.25 4.2 -198.5 5.8 -219.75 8.5 -241.0 9.25 M-52.2 23.1 Q-67.75 9.6 -71.95 -10.7 L-72.4 -13.25 M-136.5 66.4 Q-128.55 82.7 -113.9 94.25 L-110.95 96.65 Q-88.4 94.3 -68.95 83.15 -90.5 75.5 -106.65 59.3 L-113.4 51.95 M-107.05 76.2 Q-119.05 70.5 -124.3 57.9 L-125.5 55.05 Q-183.85 56.95 -242.15 57.75 M-186.15 125.85 Q-213.75 110.4 -216.95 79.0 L-217.3 75.05 M-197.1 73.35 Q-196.85 113.85 -153.2 111.2 -145.7 110.55 -138.8 107.95 -162.9 94.35 -171.15 68.15 M-47.6 60.05 Q-41.3 53.7 -33.75 48.95 L-30.25 46.8 Q-45.25 42.5 -58.05 51.75 L-61.45 54.3 M-57.4 -122.4 L-70.7 -108.5 M-201.15 -97.55 Q-217.4 -95.6 -233.85 -94.8 L-241.55 -94.65" fill="none" stroke="#552374" stroke-linecap="round" stroke-linejoin="round" stroke-opacity="0.3019608" stroke-width="1.0"/>
  </g>
</svg>
