<?xml version="1.0" encoding="UTF-8" standalone="no"?>
<svg xmlns:xlink="http://www.w3.org/1999/xlink" height="63.65px" width="48.95px" xmlns="http://www.w3.org/2000/svg">
  <g transform="matrix(1.0, 0.0, 0.0, 1.0, 11.45, 68.55)">
    <path d="M19.0 -54.75 Q20.15 -51.05 16.8 -46.25 L14.3 -43.0 14.25 -41.4 Q15.95 -40.05 16.3 -38.0 L24.5 -37.45 Q27.95 -36.7 31.3 -38.3 L33.05 -39.1 Q34.35 -42.15 36.9 -43.5 L36.95 -43.6 Q39.55 -36.0 29.3 -33.9 22.15 -32.45 15.45 -32.55 L14.9 -31.35 Q16.2 -20.85 7.3 -12.45 5.1 -10.35 5.4 -7.1 5.55 -5.8 4.65 -4.9 -0.95 -5.85 0.45 -13.0 L0.9 -13.85 1.6 -14.75 Q4.8 -20.45 8.8 -26.0 9.15 -26.7 8.8 -27.35 0.9 -26.7 -0.1 -33.85 -7.25 -32.1 -8.3 -24.15 -8.35 -23.65 -8.65 -23.25 -11.8 -24.55 -11.4 -29.05 -11.15 -31.6 -9.95 -33.8 L-7.45 -35.9 -7.05 -36.25 -0.1 -37.15 Q0.2 -38.9 1.25 -40.35 -4.7 -42.05 -9.5 -46.2 L-10.05 -49.2 -10.1 -50.5 Q-9.05 -53.55 -6.35 -54.75 L-6.35 -54.85 Q-3.25 -53.9 -6.25 -51.45 L-6.5 -51.1 Q-6.3 -49.7 -5.3 -48.5 L-4.9 -48.05 Q1.25 -47.15 4.8 -43.2 L6.5 -43.8 6.5 -44.15 7.1 -45.45 7.95 -47.2 Q17.05 -53.55 15.0 -63.65 L13.15 -65.55 12.85 -66.25 Q12.8 -67.3 13.6 -67.95 14.35 -68.5 15.0 -68.55 22.85 -63.3 19.0 -54.75" fill="#000000" fill-opacity="0.4" fill-rule="evenodd" stroke="none"/>
  </g>
</svg>
