<?xml version="1.0" encoding="UTF-8" standalone="no"?>
<svg xmlns:xlink="http://www.w3.org/1999/xlink" height="199.65px" width="122.0px" xmlns="http://www.w3.org/2000/svg">
  <g transform="matrix(1.0, 0.0, 0.0, 1.0, 53.8, 102.55)">
    <path d="M2.05 -99.55 L-30.8 -77.6 6.45 -71.8 6.55 -71.75 7.15 -73.35 7.2 -73.4 7.25 -73.6 7.75 -72.15 27.35 -11.1 39.6 -73.0 M6.7 -73.6 L2.9 -99.35 36.95 -75.65 40.0 -73.5 40.1 -73.45 55.1 -18.15 36.1 9.5 9.35 25.65 8.7 25.3 Q4.9 23.3 0.85 21.8 L-3.9 19.5 -4.75 19.0 -4.8 18.95 -8.35 16.45 Q-17.75 9.05 -24.5 -0.2 -31.6 -9.95 -35.75 -21.75 L-36.3 -23.05 -31.3 -77.3 -30.8 -77.6 M8.4 -72.4 L36.95 -75.65 M53.45 -19.9 L27.5 -10.65 27.45 -10.65 27.4 -10.65 26.8 -7.2 26.5 -7.25 36.1 9.5 M27.35 -11.1 L27.4 -10.65 M-4.3 18.2 L-7.7 -11.55 -7.7 -11.6 -7.8 -11.65 -8.25 -11.75 -24.5 -0.2 M-7.8 -11.65 L-7.75 -12.35 -8.25 -11.75 M9.0 24.55 L26.5 -7.25 -7.6 -11.6 -7.7 -11.6 M-34.9 -23.35 L-9.7 -11.8 -31.3 -77.3 M6.55 -71.75 L-7.75 -12.35" fill="none" stroke="#9900ff" stroke-linecap="round" stroke-linejoin="round" stroke-opacity="0.5019608" stroke-width="6.0"/>
    <path d="M-7.8 -11.65 L-7.75 -12.35 -7.7 -11.6 -7.8 -11.65 M-9.2 -11.1 L-9.7 -11.8 -8.25 -11.75 -9.2 -11.1" fill="#370158" fill-opacity="0.16078432" fill-rule="evenodd" stroke="none"/>
    <path d="M36.95 -75.65 L40.0 -73.5 39.6 -73.0 37.35 -61.65 12.2 -58.25 37.35 -61.65 34.05 -44.85 17.75 -40.9 34.05 -44.85 33.55 -42.35 18.35 -39.1 33.55 -42.35 27.35 -11.1 27.5 -10.65 27.45 -10.65 27.35 -11.1 27.4 -10.65 26.8 -7.2 26.5 -7.25 3.55 -10.15 24.85 -18.8 3.55 -10.15 -7.6 -11.6 -7.65 -11.25 -7.7 -11.55 -7.7 -11.6 -7.75 -12.35 -4.35 -26.55 -2.9 -32.5 -1.05 -40.2 -0.3 -43.4 4.15 -61.8 4.55 -63.5 6.55 -71.75 6.45 -71.8 6.7 -73.6 7.25 -73.6 7.2 -73.4 7.15 -73.35 6.55 -71.75 7.75 -72.15 8.4 -72.4 36.95 -75.65 M-3.9 19.5 L-4.75 19.0 -4.8 18.95 -4.3 18.2 -3.9 19.5 M12.2 -58.25 L7.75 -72.15 12.2 -58.25 14.6 -50.8 16.55 -44.65 17.75 -40.9 16.55 -44.65 14.6 -50.8 12.2 -58.25 M14.6 -50.8 L-1.05 -40.2 14.6 -50.8 M18.35 -39.1 L17.75 -40.9 18.35 -39.1 24.85 -18.8 27.35 -11.1 24.85 -18.8 18.35 -39.1 M-7.7 -11.6 L-7.6 -11.6 -7.7 -11.6 M16.55 -44.65 L-2.9 -32.5 16.55 -44.65" fill="#370158" fill-opacity="0.6117647" fill-rule="evenodd" stroke="none"/>
    <path d="M26.5 -7.25 L26.8 -7.2 26.6 -7.05 26.45 -7.15 26.5 -7.25 26.6 -7.05 26.5 -7.25 M-7.65 -11.25 L-7.5 -9.85 -7.65 -11.25" fill="#1d0134" fill-opacity="0.6117647" fill-rule="evenodd" stroke="none"/>
    <path d="M-24.5 -0.2 Q-27.15 -3.8 -29.35 -7.7 -33.15 -14.3 -35.75 -21.75 L-34.9 -23.35 -17.65 -15.45 -9.7 -11.8 -9.2 -11.1 -24.5 -0.2 M26.45 -7.15 L26.5 -7.25 26.45 -7.15 M-29.35 -7.7 L-17.65 -15.45 -29.35 -7.7" fill="#2b014e" fill-opacity="0.6117647" fill-rule="evenodd" stroke="none"/>
    <path d="M40.2 -73.15 L54.55 -20.2 53.45 -19.9 27.5 -10.65 27.35 -11.1 33.55 -42.35 34.05 -44.85 37.35 -61.65 39.6 -73.0 40.2 -73.15 M8.7 25.3 Q4.9 23.3 0.85 21.8 L-3.9 19.5 -4.3 18.2 -4.8 18.95 -8.35 16.45 Q-17.75 9.05 -24.5 -0.2 L-9.2 -11.1 -7.65 -11.25 -7.5 -9.85 -7.65 -11.25 -7.6 -11.6 3.55 -10.15 26.5 -7.25 26.45 -7.15 19.05 6.3 9.0 24.55 8.7 25.3 M-5.1 11.0 L-7.5 -9.85 -5.1 11.0 19.05 6.3 -5.1 11.0 -4.3 18.2 -5.1 11.0" fill="#120123" fill-opacity="0.6117647" fill-rule="evenodd" stroke="none"/>
    <path d="M55.1 -18.15 L36.1 9.5 10.0 25.25 9.6 25.5 9.0 24.55 19.05 6.3 26.45 -7.15 26.6 -7.05 26.8 -7.2 27.5 -10.65 53.45 -19.9 55.1 -18.15 M26.6 -7.05 L36.1 9.5 26.6 -7.05" fill="#0c0116" fill-opacity="0.6117647" fill-rule="evenodd" stroke="none"/>
    <path d="M2.05 -99.55 L2.9 -99.35 4.1 -91.4 -13.6 -89.05 4.1 -91.4 4.7 -87.25 5.05 -85.0 5.35 -82.95 6.7 -73.6 6.45 -71.8 -30.8 -77.6 -21.55 -83.75 -13.6 -89.05 2.05 -99.55 M-21.55 -83.75 L4.7 -87.25 -21.55 -83.75" fill="#6404c4" fill-opacity="0.6117647" fill-rule="evenodd" stroke="none"/>
    <path d="M-36.2 -23.8 L-34.85 -38.5 -34.25 -45.2 -32.15 -68.05 -31.3 -77.3 -27.95 -67.05 -24.9 -57.8 -24.4 -56.35 -19.0 -40.0 -18.9 -39.75 -16.8 -33.4 -14.1 -25.15 -9.7 -11.8 -17.65 -15.45 -34.9 -23.35 -36.25 -23.45 -36.2 -23.8 M-27.95 -67.05 L-32.15 -68.05 -27.95 -67.05 M-34.25 -45.2 L-19.0 -40.0 -34.25 -45.2 M-17.25 -15.7 L-17.65 -15.45 -17.25 -15.7 M-16.8 -33.4 L-34.85 -38.5 -16.8 -33.4" fill="#6704ca" fill-opacity="0.6117647" fill-rule="evenodd" stroke="none"/>
    <path d="M4.1 -91.4 L2.9 -99.35 29.4 -80.9 Q30.65 -80.05 31.95 -79.15 L36.95 -75.65 8.4 -72.4 7.75 -72.15 7.25 -73.6 6.7 -73.6 5.35 -82.95 5.05 -85.0 4.7 -87.25 4.1 -91.4 M5.05 -85.0 L29.4 -80.9 5.05 -85.0 M5.35 -82.95 L31.95 -79.15 5.35 -82.95" fill="#5e03b8" fill-opacity="0.6117647" fill-rule="evenodd" stroke="none"/>
    <path d="M-31.3 -77.3 L-30.8 -77.6 6.45 -71.8 6.55 -71.75 4.55 -63.5 4.15 -61.8 -24.4 -56.35 4.15 -61.8 -0.3 -43.4 -1.05 -40.2 -2.9 -32.5 -4.35 -26.55 -14.1 -25.15 -4.35 -26.55 -7.75 -12.35 -8.25 -11.75 -9.7 -11.8 -14.1 -25.15 -16.8 -33.4 -18.9 -39.75 -19.0 -40.0 -18.5 -39.8 -19.0 -40.0 -24.4 -56.35 -24.9 -57.8 4.55 -63.5 -24.9 -57.8 -27.95 -67.05 -31.3 -77.3 M-0.3 -43.4 L-18.5 -39.8 -0.3 -43.4 M-18.9 -39.75 L-18.5 -39.8 -18.9 -39.75" fill="#56039a" fill-opacity="0.6117647" fill-rule="evenodd" stroke="none"/>
    <path d="M2.05 -99.55 L-13.6 -89.05 M4.1 -91.4 L2.9 -99.35 29.4 -80.9 Q30.65 -80.05 31.95 -79.15 L36.95 -75.65 40.0 -73.5 40.1 -73.45 40.2 -73.15 54.55 -20.2 55.1 -18.15 36.1 9.5 10.0 25.25 9.35 25.65 8.7 25.3 Q4.9 23.3 0.85 21.8 L-3.9 19.5 -4.75 19.0 -4.8 18.95 -8.35 16.45 Q-17.75 9.05 -24.5 -0.2 -27.15 -3.8 -29.35 -7.7 -33.15 -14.3 -35.75 -21.75 L-36.3 -23.05 -36.2 -23.8 -34.85 -38.5 -34.25 -45.2 -32.15 -68.05 -31.3 -77.3 -30.8 -77.6 -21.55 -83.75 -13.6 -89.05 M6.7 -73.6 L5.35 -82.95 5.05 -85.0 4.7 -87.25 4.1 -91.4 M8.4 -72.4 L36.95 -75.65 M7.75 -72.15 L12.2 -58.25 14.6 -50.8 16.55 -44.65 17.75 -40.9 18.35 -39.1 24.85 -18.8 M37.35 -61.65 L39.6 -73.0 M4.55 -63.5 L6.55 -71.75 6.45 -71.8 -30.8 -77.6 M7.25 -73.6 L7.75 -72.15 M6.55 -71.75 L7.15 -73.35 7.2 -73.4 7.25 -73.6 M34.05 -44.85 L37.35 -61.65 M4.15 -61.8 L4.55 -63.5 M-24.9 -57.8 L-24.4 -56.35 -19.0 -40.0 M4.15 -61.8 L-0.3 -43.4 -1.05 -40.2 M33.55 -42.35 L34.05 -44.85 M33.55 -42.35 L27.35 -11.1 24.85 -18.8 M27.5 -10.65 L53.45 -19.9 M26.8 -7.2 L27.4 -10.65 27.35 -11.1 M3.55 -10.15 L26.5 -7.25 26.8 -7.2 M27.5 -10.65 L27.45 -10.65 27.4 -10.65 M26.45 -7.15 L26.5 -7.25 26.6 -7.05 M26.45 -7.15 L19.05 6.3 9.0 24.55 M36.1 9.5 L26.6 -7.05 M-27.95 -67.05 L-31.3 -77.3 M-27.95 -67.05 L-24.9 -57.8 M-16.8 -33.4 L-18.9 -39.75 -19.0 -40.0 M-16.8 -33.4 L-14.1 -25.15 M-4.35 -26.55 L-2.9 -32.5 -1.05 -40.2 M-34.9 -23.35 L-17.65 -15.45 M-7.8 -11.65 L-7.75 -12.35 -8.25 -11.75 -7.8 -11.65 -7.7 -11.6 -7.7 -11.55 -7.65 -11.25 -7.5 -9.85 -5.1 11.0 M-7.75 -12.35 L-4.35 -26.55 M-7.6 -11.6 L-7.7 -11.6 M-9.7 -11.8 L-17.65 -15.45 M-9.7 -11.8 L-14.1 -25.15 M-8.25 -11.75 L-9.2 -11.1 -24.5 -0.2 M-4.3 18.2 L-5.1 11.0 M3.55 -10.15 L-7.6 -11.6" fill="none" stroke="#9900ff" stroke-linecap="round" stroke-linejoin="round" stroke-width="1.0"/>
    <path d="M12.2 -58.25 L37.35 -61.65 M17.75 -40.9 L34.05 -44.85 M-1.05 -40.2 L14.6 -50.8 M31.95 -79.15 L5.35 -82.95 M29.4 -80.9 L5.05 -85.0 M18.35 -39.1 L33.55 -42.35 M24.85 -18.8 L3.55 -10.15 M-19.0 -40.0 L-18.5 -39.8 -18.9 -39.75 M-17.65 -15.45 L-17.25 -15.7 M-5.1 11.0 L19.05 6.3 M-2.9 -32.5 L16.55 -44.65" fill="none" stroke="#d6a5fe" stroke-linecap="round" stroke-linejoin="round" stroke-opacity="0.7411765" stroke-width="0.05"/>
    <path d="M-13.6 -89.05 L4.1 -91.4 M4.7 -87.25 L-21.55 -83.75 M-32.15 -68.05 L-27.95 -67.05 M-19.0 -40.0 L-34.25 -45.2 M-17.65 -15.45 L-29.35 -7.7 M-34.85 -38.5 L-16.8 -33.4" fill="none" stroke="#d6a5fe" stroke-linecap="round" stroke-linejoin="round" stroke-opacity="0.27058825" stroke-width="0.05"/>
    <path d="M4.55 -63.5 L-24.9 -57.8 M-24.4 -56.35 L4.15 -61.8 M-18.5 -39.8 L-0.3 -43.4 M-14.1 -25.15 L-4.35 -26.55" fill="none" stroke="#d6a5fe" stroke-linecap="round" stroke-linejoin="round" stroke-opacity="0.5019608" stroke-width="0.05"/>
    <path d="M13.4 21.15 Q21.2 14.4 27.85 6.65 33.8 -0.25 37.15 -8.6 L40.2 -2.9 48.05 -17.0 Q48.4 -11.6 48.05 -6.05 47.9 -3.55 46.7 -1.5 43.0 4.7 37.95 10.0 L37.15 10.75 Q32.25 15.05 30.75 21.1 45.45 22.55 59.6 26.8 65.15 28.55 67.7 33.8 57.4 30.55 46.9 30.3 L42.6 30.05 Q37.7 29.25 33.65 31.5 L37.3 35.1 41.35 39.3 Q44.55 42.85 46.45 46.95 48.8 52.1 49.1 57.9 49.45 63.9 44.05 65.75 L42.45 66.5 Q32.2 71.75 31.8 83.45 L30.15 83.6 Q30.7 69.9 27.85 56.9 30.0 57.95 32.45 57.9 33.3 57.7 34.0 57.2 36.5 55.7 37.3 52.95 37.6 52.0 37.4 51.05 35.65 42.0 27.7 36.55 25.85 34.75 23.8 34.65 23.05 34.7 22.45 35.35 18.9 38.85 16.55 43.55 L13.6 49.15 Q10.2 55.15 15.85 58.55 18.25 60.0 19.15 62.35 L16.3 67.4 Q13.55 74.1 11.75 81.15 L11.25 84.0 Q10.4 90.85 7.2 96.6 5.4 93.75 4.75 90.3 2.55 78.45 -1.9 67.4 L-4.7 62.35 Q-2.3 59.1 1.2 56.2 2.0 55.55 1.85 54.25 1.1 48.55 -2.1 43.55 L-5.9 37.2 Q-7.3 34.7 -9.85 35.15 -11.65 35.6 -13.3 36.6 -21.3 41.95 -22.95 51.05 -23.35 53.2 -22.25 54.9 -19.0 59.9 -13.45 56.9 -16.25 70.0 -15.7 83.6 L-17.4 83.45 Q-17.75 72.6 -26.85 66.85 L-27.95 66.3 Q-35.3 64.7 -34.8 56.9 -34.6 53.7 -33.55 50.7 -29.8 40.05 -21.05 33.1 L-19.25 31.5 Q-23.3 29.25 -28.1 30.05 L-32.5 30.3 Q-43.05 30.55 -53.3 33.8 -50.7 28.65 -45.15 27.0 -31.05 22.6 -16.35 21.1 -17.9 15.0 -22.65 10.6 L-24.55 8.75 Q-29.35 3.95 -32.2 -2.2 -33.05 -4.05 -33.3 -6.1 -33.9 -11.6 -33.65 -17.0 L-25.85 -2.9 -22.65 -8.6 Q-17.7 2.9 -8.7 11.75 L0.9 21.05 1.15 20.75 13.35 21.2 13.4 21.2 13.4 21.15 M15.0 21.95 L13.4 21.2 15.0 21.95" fill="#000000" fill-rule="evenodd" stroke="none"/>
    <path d="M-13.3 36.6 Q-11.65 35.6 -9.85 35.15 -7.3 34.7 -5.9 37.2 L-2.1 43.55 Q1.1 48.55 1.85 54.25 2.0 55.55 1.2 56.2 -2.3 59.1 -4.7 62.35 L-1.9 67.4 -2.25 67.55 -4.3 85.9 Q-9.65 77.2 -10.55 66.75 L-10.75 64.75 Q-11.15 60.65 -10.0 56.95 -9.4 54.85 -9.4 52.6 -9.4 46.1 -11.2 39.9 -11.6 38.5 -12.65 37.5 L-13.3 36.6 M16.3 67.4 L19.15 62.35 Q18.25 60.0 15.85 58.55 10.2 55.15 13.6 49.15 L16.55 43.55 Q18.9 38.85 22.45 35.35 23.05 34.7 23.8 34.65 25.85 34.75 27.7 36.55 L27.05 37.5 Q25.75 38.9 25.35 40.8 24.05 46.6 23.85 52.6 23.75 54.85 24.45 56.95 25.7 60.8 25.2 64.7 L25.0 66.8 Q24.2 77.1 18.7 85.9 L16.65 67.55 16.3 67.4" fill="#23202f" fill-rule="evenodd" stroke="none"/>
    <path d="M-17.4 83.45 L-15.7 83.6 -16.35 90.95 -17.4 83.45 M30.15 83.6 L31.8 83.45 30.75 90.95 30.15 83.6" fill="url(#gradient0)" fill-rule="evenodd" stroke="none"/>
    <path d="M31.8 83.45 Q32.2 71.75 42.45 66.5 L44.05 65.75 Q49.45 63.9 49.1 57.9 48.8 52.1 46.45 46.95 44.55 42.85 41.35 39.3 L37.3 35.1 33.65 31.5 Q37.7 29.25 42.6 30.05 L46.9 30.3 Q57.4 30.55 67.7 33.8 65.15 28.55 59.6 26.8 45.45 22.55 30.75 21.1 32.25 15.05 37.15 10.75 L37.95 10.0 Q43.0 4.7 46.7 -1.5 47.9 -3.55 48.05 -6.05 48.4 -11.6 48.05 -17.0 L40.2 -2.9 37.15 -8.6 Q33.8 -0.25 27.85 6.65 21.2 14.4 13.4 21.15 L13.35 21.2 13.4 21.2 15.0 21.95 M0.9 21.05 L-8.7 11.75 Q-17.7 2.9 -22.65 -8.6 L-25.85 -2.9 -33.65 -17.0 Q-33.9 -11.6 -33.3 -6.1 -33.05 -4.05 -32.2 -2.2 -29.35 3.95 -24.55 8.75 L-22.65 10.6 Q-17.9 15.0 -16.35 21.1 -31.05 22.6 -45.15 27.0 -50.7 28.65 -53.3 33.8 -43.05 30.55 -32.5 30.3 L-28.1 30.05 Q-23.3 29.25 -19.25 31.5 L-21.05 33.1 Q-29.8 40.05 -33.55 50.7 -34.6 53.7 -34.8 56.9 -35.3 64.7 -27.95 66.3 L-26.85 66.85 Q-17.75 72.6 -17.4 83.45 L-16.35 90.95 -15.7 83.6 Q-16.25 70.0 -13.45 56.9 -19.0 59.9 -22.25 54.9 -23.35 53.2 -22.95 51.05 -21.3 41.95 -13.3 36.6 -11.65 35.6 -9.85 35.15 -7.3 34.7 -5.9 37.2 L-2.1 43.55 Q1.1 48.55 1.85 54.25 2.0 55.55 1.2 56.2 -2.3 59.1 -4.7 62.35 L-1.9 67.4 Q2.55 78.45 4.75 90.3 5.4 93.75 7.2 96.6 10.4 90.85 11.25 84.0 L11.75 81.15 Q13.55 74.1 16.3 67.4 L19.15 62.35 Q18.25 60.0 15.85 58.55 10.2 55.15 13.6 49.15 L16.55 43.55 Q18.9 38.85 22.45 35.35 23.05 34.7 23.8 34.65 25.85 34.75 27.7 36.55 35.65 42.0 37.4 51.05 37.6 52.0 37.3 52.95 36.5 55.7 34.0 57.2 33.3 57.7 32.45 57.9 30.0 57.95 27.85 56.9 30.7 69.9 30.15 83.6 M31.8 83.45 L30.75 90.95 30.15 83.6 M13.35 21.2 L1.15 20.75 M16.65 67.55 L18.7 85.9 Q24.2 77.1 25.0 66.8 L25.2 64.7 Q25.7 60.8 24.45 56.95 23.75 54.85 23.85 52.6 24.05 46.6 25.35 40.8 25.75 38.9 27.05 37.5 M-12.65 37.5 Q-11.6 38.5 -11.2 39.9 -9.4 46.1 -9.4 52.6 -9.4 54.85 -10.0 56.95 -11.15 60.65 -10.75 64.75 L-10.55 66.75 Q-9.65 77.2 -4.3 85.9 L-2.25 67.55" fill="none" stroke="#000000" stroke-linecap="round" stroke-linejoin="round" stroke-width="1.0"/>
  </g>
  <defs>
    <radialGradient cx="0" cy="0" gradientTransform="matrix(1.0, 0.0, 0.0, 1.0, 0.0, 0.0)" gradientUnits="userSpaceOnUse" id="gradient0" r="819.2" spreadMethod="pad">
      <stop offset="0.0" stop-color="#422163"/>
      <stop offset="0.3333333333333333" stop-color="#2d1643"/>
      <stop offset="0.8274509803921568" stop-color="#110c18"/>
      <stop offset="1.0" stop-color="#000000"/>
    </radialGradient>
  </defs>
</svg>
