<?xml version="1.0" encoding="UTF-8" standalone="no"?>
<svg xmlns:xlink="http://www.w3.org/1999/xlink" height="64.05px" width="48.25px" xmlns="http://www.w3.org/2000/svg">
  <g transform="matrix(1.0, 0.0, 0.0, 1.0, 11.0, 63.8)">
    <path d="M18.1 -50.2 Q19.4 -46.6 16.35 -41.6 L14.0 -38.25 14.05 -36.65 Q15.8 -35.35 16.25 -33.35 19.9 -33.9 24.45 -33.2 27.9 -32.6 31.2 -34.35 L32.9 -35.25 Q34.05 -38.35 36.55 -39.85 L36.6 -39.95 Q39.55 -32.45 29.4 -29.85 22.35 -28.05 15.65 -27.85 L15.2 -26.6 Q17.0 -16.2 8.5 -7.4 6.4 -5.2 6.85 -1.95 7.05 -0.65 6.2 0.25 0.55 -0.4 1.6 -7.6 L2.05 -8.5 2.7 -9.45 Q5.6 -15.25 9.35 -21.0 9.65 -21.7 9.25 -22.35 1.4 -21.3 0.05 -28.4 -7.0 -26.3 -7.65 -18.3 L-8.0 -17.4 Q-11.2 -18.55 -11.0 -23.05 -10.9 -25.6 -9.8 -27.85 L-7.4 -30.1 -7.0 -30.45 -0.1 -31.7 Q0.1 -33.45 1.1 -34.95 -4.95 -36.35 -9.95 -40.3 -10.15 -41.8 -10.65 -43.25 L-10.75 -44.55 Q-9.85 -47.65 -7.2 -49.0 L-7.2 -49.1 Q-4.05 -48.3 -6.95 -45.7 L-7.2 -45.35 Q-6.9 -43.95 -5.85 -42.8 L-5.45 -42.35 Q0.75 -41.75 4.5 -38.0 L6.2 -38.65 6.15 -39.0 6.7 -40.35 7.45 -42.15 Q16.25 -48.95 13.7 -58.9 L11.75 -60.7 11.45 -61.35 Q11.35 -62.4 12.1 -63.1 12.85 -63.7 13.5 -63.8 21.55 -58.9 18.1 -50.2" fill="#000000" fill-opacity="0.4" fill-rule="evenodd" stroke="none"/>
  </g>
</svg>
