<?xml version="1.0" encoding="UTF-8" standalone="no"?>
<svg xmlns:xlink="http://www.w3.org/1999/xlink" height="119.75px" width="214.15px" xmlns="http://www.w3.org/2000/svg">
  <g transform="matrix(1.0, 0.0, 0.0, 1.0, -239.65, -9.3)">
    <path d="M240.65 106.1 L243.45 97.0 244.1 94.7 245.25 95.8 Q248.1 98.45 251.4 99.3 255.5 100.45 260.05 99.9 265.2 99.3 270.2 99.7 L280.75 99.25 Q286.85 98.15 291.3 93.5 295.15 89.6 293.8 85.9 292.0 81.05 288.4 76.05 284.6 70.75 285.75 64.45 287.15 57.35 293.0 52.85 294.55 51.65 297.2 53.3 303.15 57.1 309.4 59.2 317.4 61.95 325.95 60.55 329.65 59.95 332.6 57.15 333.9 55.95 334.75 54.2 336.2 56.5 337.0 58.95 339.35 66.2 340.05 73.7 341.05 84.45 340.65 95.3 340.5 100.7 341.35 105.85 341.9 109.0 344.25 111.55 347.9 115.55 351.85 119.25 355.6 122.7 359.9 124.9 364.45 127.25 369.6 127.95 372.4 128.35 374.35 127.0 375.25 126.4 375.85 124.6 L379.3 114.55 Q380.7 110.7 379.7 107.2 378.7 103.55 377.1 99.85 375.25 95.55 377.0 91.8 380.1 85.3 384.6 79.25 386.65 76.5 385.45 74.5 382.1 69.05 377.45 64.1 373.0 59.35 373.1 53.65 373.25 47.4 377.6 41.6 379.55 39.1 382.05 37.05 L382.5 36.5 Q386.3 27.0 395.25 22.25 396.35 21.7 397.4 22.85 399.8 25.4 400.55 28.75 401.5 33.1 402.7 37.3 403.2 39.1 405.0 39.25 L414.0 39.85 Q415.5 39.95 416.55 41.35 418.05 43.4 419.55 43.7 424.6 44.8 429.4 42.65 432.3 41.4 432.7 38.55 433.15 35.4 431.75 31.95 429.35 25.8 427.75 19.4 L426.45 14.35 426.0 13.15 Q430.45 11.65 435.1 11.9 436.3 12.0 437.05 12.85 438.55 14.55 439.7 16.55 441.55 19.9 444.0 16.95 L445.6 15.0 448.8 11.4 449.95 10.3 451.4 12.95 Q451.95 13.75 452.8 14.3" fill="none" stroke="#7604e8" stroke-linecap="round" stroke-linejoin="round" stroke-opacity="0.5019608" stroke-width="2.0"/>
    <path d="M240.65 106.1 L243.45 97.0 244.1 94.7 245.25 95.8 Q248.1 98.45 251.4 99.3 255.5 100.45 260.05 99.9 265.2 99.3 270.2 99.7 L280.75 99.25 Q286.85 98.15 291.3 93.5 295.15 89.6 293.8 85.9 292.0 81.05 288.4 76.05 284.6 70.75 285.75 64.45 287.15 57.35 293.0 52.85 294.55 51.65 297.2 53.3 303.15 57.1 309.4 59.2 317.4 61.95 325.95 60.55 329.65 59.95 332.6 57.15 333.9 55.95 334.75 54.2 336.2 56.5 337.0 58.95 339.35 66.2 340.05 73.7 341.05 84.45 340.65 95.3 340.5 100.7 341.35 105.85 341.9 109.0 344.25 111.55 347.9 115.55 351.85 119.25 355.6 122.7 359.9 124.9 364.45 127.25 369.6 127.95 372.4 128.35 374.35 127.0 375.25 126.4 375.85 124.6 L379.3 114.55 Q380.7 110.7 379.7 107.2 378.7 103.55 377.1 99.85 375.25 95.55 377.0 91.8 380.1 85.3 384.6 79.25 386.65 76.5 385.45 74.5 382.1 69.05 377.45 64.1 373.0 59.35 373.1 53.65 373.25 47.4 377.6 41.6 379.55 39.1 382.05 37.05 L382.5 36.5 Q386.3 27.0 395.25 22.25 396.35 21.7 397.4 22.85 399.8 25.4 400.55 28.75 401.5 33.1 402.7 37.3 403.2 39.1 405.0 39.25 L414.0 39.85 Q415.5 39.95 416.55 41.35 418.05 43.4 419.55 43.7 424.6 44.8 429.4 42.65 432.3 41.4 432.7 38.55 433.15 35.4 431.75 31.95 429.35 25.8 427.75 19.4 L426.45 14.35 426.0 13.15 Q430.45 11.65 435.1 11.9 436.3 12.0 437.05 12.85 438.55 14.55 439.7 16.55 441.55 19.9 444.0 16.95 L445.6 15.0 448.8 11.4 449.95 10.3 451.4 12.95 Q451.95 13.75 452.8 14.3" fill="none" stroke="#e9d6fe" stroke-linecap="round" stroke-linejoin="round" stroke-opacity="0.84313726" stroke-width="0.05"/>
  </g>
</svg>
