<?xml version="1.0" encoding="UTF-8" standalone="no"?>
<svg xmlns:xlink="http://www.w3.org/1999/xlink" height="177.35px" width="238.05px" xmlns="http://www.w3.org/2000/svg">
  <g transform="matrix(1.0, 0.0, 0.0, 1.0, 10.1, -94.65)">
    <path d="M226.4 118.1 L226.95 117.65 Q226.7 116.4 225.55 115.95 223.3 115.0 220.85 115.5 216.45 116.4 212.1 117.95 L208.65 118.05 Q206.75 117.25 205.2 115.3 203.6 113.25 201.45 112.35 198.75 111.25 195.8 112.0 190.75 113.25 186.05 112.95 181.35 112.7 177.5 109.3 172.25 104.7 166.8 100.3 161.7 96.15 155.5 95.7 149.45 95.3 145.8 99.7 142.9 103.3 145.45 107.0 150.6 114.4 158.15 120.35 162.55 123.8 164.55 128.65 168.55 138.1 168.55 148.35 168.55 156.05 166.75 163.8 165.75 168.1 167.75 171.55 168.55 172.9 166.95 174.45 162.55 178.85 156.85 181.35 152.3 183.45 147.1 183.6 L141.4 183.4 Q138.9 183.15 137.1 184.35 134.6 186.0 133.75 189.1 133.2 191.15 133.55 193.4 133.75 194.85 133.2 195.3 130.65 197.7 127.05 198.2 121.2 199.1 115.3 198.35 L100.85 196.3 85.0 194.4 Q78.45 193.8 72.25 195.45 71.3 195.7 71.55 197.3 71.9 199.7 72.9 202.0 74.15 204.8 73.95 207.55 73.6 212.8 71.85 217.95 71.3 219.65 71.65 221.1 L72.3 222.85 Q73.6 225.65 73.25 228.7 73.0 230.8 71.4 231.3 L67.3 231.05 Q63.3 229.65 59.2 229.3 53.35 228.8 47.55 230.2 39.65 232.2 31.85 234.8 26.85 236.5 21.6 237.3 19.7 237.65 17.7 237.35 L18.3 237.8 Q24.1 241.4 29.05 245.95 31.8 248.45 32.5 252.15 30.7 251.35 30.15 252.7 29.1 255.3 27.4 257.4 25.1 260.15 21.95 261.9 18.85 263.6 15.45 263.4 13.15 263.3 10.65 262.45 L5.3 262.05 -1.8 263.85 -5.5 265.15 Q-6.55 265.6 -7.05 266.6 L-8.7 270.35 -9.1 271.0" fill="none" stroke="#7604e8" stroke-linecap="round" stroke-linejoin="round" stroke-opacity="0.5019608" stroke-width="2.0"/>
    <path d="M226.4 118.1 L226.95 117.65 Q226.7 116.4 225.55 115.95 223.3 115.0 220.85 115.5 216.45 116.4 212.1 117.95 L208.65 118.05 Q206.75 117.25 205.2 115.3 203.6 113.25 201.45 112.35 198.75 111.25 195.8 112.0 190.75 113.25 186.05 112.95 181.35 112.7 177.5 109.3 172.25 104.7 166.8 100.3 161.7 96.15 155.5 95.7 149.45 95.3 145.8 99.7 142.9 103.3 145.45 107.0 150.6 114.4 158.15 120.35 162.55 123.8 164.55 128.65 168.55 138.1 168.55 148.35 168.55 156.05 166.75 163.8 165.75 168.1 167.75 171.55 168.55 172.9 166.95 174.45 162.55 178.85 156.85 181.35 152.3 183.45 147.1 183.6 L141.4 183.4 Q138.9 183.15 137.1 184.35 134.6 186.0 133.75 189.1 133.2 191.15 133.55 193.4 133.75 194.85 133.2 195.3 130.65 197.7 127.05 198.2 121.2 199.1 115.3 198.35 L100.85 196.3 85.0 194.4 Q78.45 193.8 72.25 195.45 71.3 195.7 71.55 197.3 71.9 199.7 72.9 202.0 74.15 204.8 73.95 207.55 73.6 212.8 71.85 217.95 71.3 219.65 71.65 221.1 L72.3 222.85 Q73.6 225.65 73.25 228.7 73.0 230.8 71.4 231.3 L67.3 231.05 Q63.3 229.65 59.2 229.3 53.35 228.8 47.55 230.2 39.65 232.2 31.85 234.8 26.85 236.5 21.6 237.3 19.7 237.65 17.7 237.35 L18.3 237.8 Q24.1 241.4 29.05 245.95 31.8 248.45 32.5 252.15 30.7 251.35 30.15 252.7 29.1 255.3 27.4 257.4 25.1 260.15 21.95 261.9 18.85 263.6 15.45 263.4 13.15 263.3 10.65 262.45 L5.3 262.05 -1.8 263.85 -5.5 265.15 Q-6.55 265.6 -7.05 266.6 L-8.7 270.35 -9.1 271.0" fill="none" stroke="#e9d6fe" stroke-linecap="round" stroke-linejoin="round" stroke-opacity="0.84313726" stroke-width="0.05"/>
  </g>
</svg>
