<?xml version="1.0" encoding="UTF-8" standalone="no"?>
<svg xmlns:xlink="http://www.w3.org/1999/xlink" height="126.25px" width="101.5px" xmlns="http://www.w3.org/2000/svg">
  <g transform="matrix(1.0, 0.0, 0.0, 1.0, -105.95, 14.7)">
    <path d="M206.45 88.45 Q204.35 78.65 198.15 70.45 L190.5 61.05 187.65 57.65 Q181.45 67.3 171.7 73.65 162.55 79.6 154.1 86.45 146.0 93.0 139.0 100.75 138.05 101.85 137.45 103.25 L143.7 100.4 Q140.6 103.85 136.95 106.65 130.35 111.85 125.35 110.1 122.05 109.0 120.65 101.6 118.9 92.45 115.4 83.95 112.65 77.3 108.45 71.25 106.35 68.2 107.2 66.55 108.95 63.35 113.6 61.95 L135.1 55.7 Q139.45 54.5 143.4 52.5 148.55 49.95 152.15 45.75 153.7 43.95 152.5 42.1 150.85 39.7 147.55 39.0 L140.45 37.5 134.45 35.75 122.7 31.7 Q117.5 29.95 113.35 26.65 111.8 25.4 111.8 22.85 111.8 19.45 112.6 16.05 113.8 11.15 116.35 7.05 121.5 -1.1 127.35 -8.85 128.6 -10.55 129.45 -12.55 L124.35 -13.7" fill="none" stroke="#7604e8" stroke-linecap="round" stroke-linejoin="round" stroke-opacity="0.5019608" stroke-width="2.0"/>
    <path d="M206.45 88.45 Q204.35 78.65 198.15 70.45 L190.5 61.05 187.65 57.65 Q181.45 67.3 171.7 73.65 162.55 79.6 154.1 86.45 146.0 93.0 139.0 100.75 138.05 101.85 137.45 103.25 L143.7 100.4 Q140.6 103.85 136.95 106.65 130.35 111.85 125.35 110.1 122.05 109.0 120.65 101.6 118.9 92.45 115.4 83.95 112.65 77.3 108.45 71.25 106.35 68.2 107.2 66.55 108.95 63.35 113.6 61.95 L135.1 55.7 Q139.45 54.5 143.4 52.5 148.55 49.95 152.15 45.75 153.7 43.95 152.5 42.1 150.85 39.7 147.55 39.0 L140.45 37.5 134.45 35.75 122.7 31.7 Q117.5 29.95 113.35 26.65 111.8 25.4 111.8 22.85 111.8 19.45 112.6 16.05 113.8 11.15 116.35 7.05 121.5 -1.1 127.35 -8.85 128.6 -10.55 129.45 -12.55 L124.35 -13.7" fill="none" stroke="#e9d6fe" stroke-linecap="round" stroke-linejoin="round" stroke-opacity="0.84313726" stroke-width="0.05"/>
  </g>
</svg>
