<?xml version="1.0" encoding="UTF-8" standalone="no"?>
<svg xmlns:xlink="http://www.w3.org/1999/xlink" height="249.6px" width="289.3px" xmlns="http://www.w3.org/2000/svg">
  <g transform="matrix(1.0, 0.0, 0.0, 1.0, -102.9, -16.7)">
    <path d="M245.8 131.8 Q248.5 124.4 254.05 118.35 L260.05 112.4 Q259.0 118.5 263.1 119.9 269.45 122.1 277.15 120.3 289.15 117.55 301.2 117.0 308.25 116.7 313.65 120.85 315.65 122.4 314.75 125.8 313.95 128.95 311.75 131.6 308.55 135.5 304.9 138.95 296.55 146.9 289.2 155.6 286.0 159.45 286.45 164.05 286.6 165.15 288.95 166.35 290.0 166.9 290.35 167.9 291.15 170.05 290.7 172.15 289.45 179.15 288.9 186.1 288.6 190.3 291.35 192.1 296.3 195.4 302.5 194.35 312.85 192.55 322.75 188.8 331.65 185.45 340.7 184.6 344.2 184.3 347.75 186.75 L353.75 190.85 Q355.05 191.7 356.5 191.85 L367.85 193.0 Q372.7 193.45 376.05 195.95 377.25 196.85 376.95 199.7 376.7 202.0 377.3 204.0 L377.5 205.3 Q377.25 207.95 375.25 210.0 368.4 217.1 361.8 224.35 357.3 229.35 357.1 235.2 357.05 236.75 360.25 238.8 364.75 241.6 367.75 245.7 L375.0 254.9 Q378.7 259.3 384.0 262.05 387.5 263.9 391.2 265.3 M117.5 17.7 Q117.2 18.3 117.25 18.8 117.5 21.15 116.7 22.75 114.35 27.7 110.6 31.9 106.95 35.95 104.4 40.6 103.05 43.05 105.4 45.2 107.5 47.1 109.9 48.05 114.95 49.95 120.4 50.2 126.65 50.5 131.55 52.95 133.5 53.95 134.5 57.55 135.5 61.1 137.7 61.75 144.05 63.65 151.2 63.15 L154.0 63.35 Q151.15 66.2 148.65 69.35 147.75 70.5 147.35 71.95 147.15 72.75 146.75 73.15 L141.65 77.3 Q137.75 80.2 134.95 83.95 132.9 86.75 133.05 90.1 133.2 92.75 134.95 95.05 136.9 97.6 139.5 98.15 143.45 99.0 147.0 96.95 159.8 89.6 172.25 81.6 L172.8 81.0 M190.5 80.45 Q187.95 80.55 187.0 77.85 186.5 76.45 185.5 76.55 181.35 77.05 177.5 79.05 174.25 80.75 171.1 82.75 L172.25 81.6" fill="none" stroke="#7604e8" stroke-linecap="round" stroke-linejoin="round" stroke-opacity="0.5019608" stroke-width="2.0"/>
    <path d="M245.8 131.8 Q248.5 124.4 254.05 118.35 L260.05 112.4 Q259.0 118.5 263.1 119.9 269.45 122.1 277.15 120.3 289.15 117.55 301.2 117.0 308.25 116.7 313.65 120.85 315.65 122.4 314.75 125.8 313.95 128.95 311.75 131.6 308.55 135.5 304.9 138.95 296.55 146.9 289.2 155.6 286.0 159.45 286.45 164.05 286.6 165.15 288.95 166.35 290.0 166.9 290.35 167.9 291.15 170.05 290.7 172.15 289.45 179.15 288.9 186.1 288.6 190.3 291.35 192.1 296.3 195.4 302.5 194.35 312.85 192.55 322.75 188.8 331.65 185.45 340.7 184.6 344.2 184.3 347.75 186.75 L353.75 190.85 Q355.05 191.7 356.5 191.85 L367.85 193.0 Q372.7 193.45 376.05 195.95 377.25 196.85 376.95 199.7 376.7 202.0 377.3 204.0 L377.5 205.3 Q377.25 207.95 375.25 210.0 368.4 217.1 361.8 224.35 357.3 229.35 357.1 235.2 357.05 236.75 360.25 238.8 364.75 241.6 367.75 245.7 L375.0 254.9 Q378.7 259.3 384.0 262.05 387.5 263.9 391.2 265.3 M117.5 17.7 Q117.2 18.3 117.25 18.8 117.5 21.15 116.7 22.75 114.35 27.7 110.6 31.9 106.95 35.95 104.4 40.6 103.05 43.05 105.4 45.2 107.5 47.1 109.9 48.05 114.95 49.95 120.4 50.2 126.65 50.5 131.55 52.95 133.5 53.95 134.5 57.55 135.5 61.1 137.7 61.75 144.05 63.65 151.2 63.15 L154.0 63.35 Q151.15 66.2 148.65 69.35 147.75 70.5 147.35 71.95 147.15 72.75 146.75 73.15 L141.65 77.3 Q137.75 80.2 134.95 83.95 132.9 86.75 133.05 90.1 133.2 92.75 134.95 95.05 136.9 97.6 139.5 98.15 143.45 99.0 147.0 96.95 159.8 89.6 172.25 81.6 L172.8 81.0 M190.5 80.45 Q187.95 80.55 187.0 77.85 186.5 76.45 185.5 76.55 181.35 77.05 177.5 79.05 174.25 80.75 171.1 82.75 L172.25 81.6" fill="none" stroke="#e9d6fe" stroke-linecap="round" stroke-linejoin="round" stroke-opacity="0.84313726" stroke-width="0.05"/>
  </g>
</svg>
