<?xml version="1.0" encoding="UTF-8" standalone="no"?>
<svg xmlns:xlink="http://www.w3.org/1999/xlink" height="210.0px" width="495.85px" xmlns="http://www.w3.org/2000/svg">
  <g transform="matrix(1.0, 0.0, 0.0, 1.0, 22.1, -26.9)">
    <path d="M255.5 148.35 Q258.1 146.05 261.05 143.75 266.65 139.5 272.65 135.9 274.3 134.95 275.9 135.1 276.9 135.25 277.65 136.4 283.5 145.45 287.15 155.65 288.85 160.35 291.6 164.4 292.3 165.45 293.65 165.4 298.85 165.15 302.1 167.2 306.55 170.0 307.6 175.95 309.1 184.3 312.6 191.05 314.8 195.4 320.65 195.75 329.9 196.25 338.7 193.0 347.6 189.7 355.5 184.35 361.55 180.3 367.25 175.75 L377.85 167.55 Q379.85 166.05 382.25 165.35 382.95 165.2 383.45 165.75 385.8 168.3 387.35 171.4 L391.1 178.9 Q392.65 182.0 395.4 183.2 L404.15 187.05 Q406.9 188.25 407.2 191.25 407.75 196.85 406.95 202.6 406.35 206.85 407.3 210.8 408.35 214.8 410.0 218.75 411.75 222.8 412.7 227.1 L413.9 231.5 Q414.3 232.8 415.1 233.95 L415.9 234.7 Q418.3 235.9 420.85 235.9 430.0 235.9 439.0 234.5 446.25 233.35 453.4 231.6 L472.25 227.4 Q472.5 227.35 472.75 227.65 M259.5 91.3 Q265.85 85.7 272.25 80.75 277.75 76.45 281.95 71.25 282.6 70.45 281.1 69.4 277.2 66.75 275.1 63.45 272.35 59.05 273.2 53.2 274.35 45.35 273.1 38.25 272.35 33.7 267.3 31.25 261.2 28.3 254.3 27.9 250.35 27.7 246.8 29.45 245.25 30.25 245.45 31.75 L246.1 36.15 Q246.65 39.95 244.6 43.2 242.4 46.8 239.0 49.7 238.1 50.5 238.05 51.4 237.85 54.2 237.3 56.8 236.4 61.05 233.7 64.5 232.4 66.2 230.4 67.35 M190.5 94.15 Q186.75 91.25 182.6 89.45 181.65 89.05 181.35 89.95 180.5 92.75 180.85 95.85 181.1 97.85 180.2 98.95 177.95 101.85 174.4 103.6 168.25 106.7 162.3 110.15 155.15 114.4 148.6 119.65 144.9 122.7 141.45 126.1 148.65 128.85 153.9 134.2 159.7 140.1 162.2 147.85 164.25 154.35 164.05 161.45 164.0 165.2 163.2 168.8 L162.5 169.35 Q159.4 170.3 156.5 171.65 149.15 175.15 141.55 177.95 133.75 180.85 125.45 180.7 118.65 180.55 112.65 177.05 106.95 173.75 101.55 169.65 95.25 164.9 88.0 161.8 78.45 157.75 68.35 155.0 60.75 152.9 53.15 153.2 46.2 153.5 39.95 156.85 35.65 159.2 31.6 162.15 L30.8 162.1 Q28.25 161.2 25.6 160.75 20.85 160.05 16.15 160.75 11.45 161.45 7.4 164.0 3.75 166.3 1.6 170.05 -1.1 174.9 -3.45 180.05 -5.1 183.75 -8.2 186.05 -12.25 189.15 -17.2 190.75 L-21.1 191.7" fill="none" stroke="#7604e8" stroke-linecap="round" stroke-linejoin="round" stroke-opacity="0.5019608" stroke-width="2.0"/>
    <path d="M255.5 148.35 Q258.1 146.05 261.05 143.75 266.65 139.5 272.65 135.9 274.3 134.95 275.9 135.1 276.9 135.25 277.65 136.4 283.5 145.45 287.15 155.65 288.85 160.35 291.6 164.4 292.3 165.45 293.65 165.4 298.85 165.15 302.1 167.2 306.55 170.0 307.6 175.95 309.1 184.3 312.6 191.05 314.8 195.4 320.65 195.75 329.9 196.25 338.7 193.0 347.6 189.7 355.5 184.35 361.55 180.3 367.25 175.75 L377.85 167.55 Q379.85 166.05 382.25 165.35 382.95 165.2 383.45 165.75 385.8 168.3 387.35 171.4 L391.1 178.9 Q392.65 182.0 395.4 183.2 L404.15 187.05 Q406.9 188.25 407.2 191.25 407.75 196.85 406.95 202.6 406.35 206.85 407.3 210.8 408.35 214.8 410.0 218.75 411.75 222.8 412.7 227.1 L413.9 231.5 Q414.3 232.8 415.1 233.95 L415.9 234.7 Q418.3 235.9 420.85 235.9 430.0 235.9 439.0 234.5 446.25 233.35 453.4 231.6 L472.25 227.4 Q472.5 227.35 472.75 227.65 M259.5 91.3 Q265.85 85.7 272.25 80.75 277.75 76.45 281.95 71.25 282.6 70.45 281.1 69.4 277.2 66.75 275.1 63.45 272.35 59.05 273.2 53.2 274.35 45.35 273.1 38.25 272.35 33.7 267.3 31.25 261.2 28.3 254.3 27.9 250.35 27.7 246.8 29.45 245.25 30.25 245.45 31.75 L246.1 36.15 Q246.65 39.95 244.6 43.2 242.4 46.8 239.0 49.7 238.1 50.5 238.05 51.4 237.85 54.2 237.3 56.8 236.4 61.05 233.7 64.5 232.4 66.2 230.4 67.35 M190.5 94.15 Q186.75 91.25 182.6 89.45 181.65 89.05 181.35 89.95 180.5 92.75 180.85 95.85 181.1 97.85 180.2 98.95 177.95 101.85 174.4 103.6 168.25 106.7 162.3 110.15 155.15 114.4 148.6 119.65 144.9 122.7 141.45 126.1 148.65 128.85 153.9 134.2 159.7 140.1 162.2 147.85 164.25 154.35 164.05 161.45 164.0 165.2 163.2 168.8 L162.5 169.35 Q159.4 170.3 156.5 171.65 149.15 175.15 141.55 177.95 133.75 180.85 125.45 180.7 118.65 180.55 112.65 177.05 106.95 173.75 101.55 169.65 95.25 164.9 88.0 161.8 78.45 157.75 68.35 155.0 60.75 152.9 53.15 153.2 46.2 153.5 39.95 156.85 35.65 159.2 31.6 162.15 L30.8 162.1 Q28.25 161.2 25.6 160.75 20.85 160.05 16.15 160.75 11.45 161.45 7.4 164.0 3.75 166.3 1.6 170.05 -1.1 174.9 -3.45 180.05 -5.1 183.75 -8.2 186.05 -12.25 189.15 -17.2 190.75 L-21.1 191.7" fill="none" stroke="#e9d6fe" stroke-linecap="round" stroke-linejoin="round" stroke-opacity="0.84313726" stroke-width="0.05"/>
  </g>
</svg>
