<?xml version="1.0" encoding="UTF-8" standalone="no"?>
<svg xmlns:xlink="http://www.w3.org/1999/xlink" height="174.3px" width="182.85px" xmlns="http://www.w3.org/2000/svg">
  <g transform="matrix(1.0, 0.0, 0.0, 1.0, -17.25, 27.25)">
    <path d="M198.45 89.6 Q199.65 84.75 198.65 79.6 198.2 77.3 196.05 77.1 L186.95 77.5 Q184.8 77.9 183.85 76.6 L181.15 72.9 Q179.1 70.2 176.05 70.7 165.7 72.45 156.0 77.1 149.7 80.2 144.05 84.4 138.3 88.75 133.35 93.95 128.05 99.55 123.35 105.65 L113.9 118.0 104.15 129.9 Q97.8 137.25 91.1 144.2 L88.95 146.05 Q88.0 143.0 86.35 141.1 84.7 139.2 82.1 138.1 72.4 134.0 68.3 124.9 66.45 120.7 68.95 116.15 73.3 108.15 78.95 100.75 82.7 95.85 85.2 90.3 85.55 89.6 84.7 88.8 83.3 87.6 81.45 87.05 L75.9 85.45 Q72.15 84.45 68.55 83.05 64.75 81.6 63.1 78.7 59.05 71.65 60.9 64.3 65.05 47.95 73.0 32.55 79.55 20.0 82.55 6.65 83.55 2.3 79.4 -0.15 73.0 -3.95 65.15 -3.35 55.6 -2.55 46.15 -0.15 39.95 1.45 34.1 0.35 30.55 -0.25 28.25 -3.9 25.7 -7.95 24.0 -12.55 L20.3 -22.15 18.25 -26.25" fill="none" stroke="#7604e8" stroke-linecap="round" stroke-linejoin="round" stroke-opacity="0.5019608" stroke-width="2.0"/>
    <path d="M198.45 89.6 Q199.65 84.75 198.65 79.6 198.2 77.3 196.05 77.1 L186.95 77.5 Q184.8 77.9 183.85 76.6 L181.15 72.9 Q179.1 70.2 176.05 70.7 165.7 72.45 156.0 77.1 149.7 80.2 144.05 84.4 138.3 88.75 133.35 93.95 128.05 99.55 123.35 105.65 L113.9 118.0 104.15 129.9 Q97.8 137.25 91.1 144.2 L88.95 146.05 Q88.0 143.0 86.35 141.1 84.7 139.2 82.1 138.1 72.4 134.0 68.3 124.9 66.45 120.7 68.95 116.15 73.3 108.15 78.95 100.75 82.7 95.85 85.2 90.3 85.55 89.6 84.7 88.8 83.3 87.6 81.45 87.05 L75.9 85.45 Q72.15 84.45 68.55 83.05 64.75 81.6 63.1 78.7 59.05 71.65 60.9 64.3 65.05 47.95 73.0 32.55 79.55 20.0 82.55 6.65 83.55 2.3 79.4 -0.15 73.0 -3.95 65.15 -3.35 55.6 -2.55 46.15 -0.15 39.95 1.45 34.1 0.35 30.55 -0.25 28.25 -3.9 25.7 -7.95 24.0 -12.55 L20.3 -22.15 18.25 -26.25" fill="none" stroke="#e9d6fe" stroke-linecap="round" stroke-linejoin="round" stroke-opacity="0.84313726" stroke-width="0.05"/>
  </g>
</svg>
