<?xml version="1.0" encoding="UTF-8" standalone="no"?>
<svg xmlns:xlink="http://www.w3.org/1999/xlink" height="163.05px" width="149.0px" xmlns="http://www.w3.org/2000/svg">
  <g transform="matrix(1.0, 0.0, 0.0, 1.0, -123.35, -127.75)">
    <path d="M249.2 130.65 Q257.6 127.4 266.25 129.75 269.75 130.7 269.5 133.9 268.9 142.65 266.05 151.45 264.35 156.65 265.7 161.45 266.65 164.9 268.75 168.35 271.75 173.15 271.3 178.35 270.6 186.3 265.8 192.8 262.05 198.0 256.0 200.3 252.4 201.7 249.6 199.5 245.55 196.25 241.95 191.95 238.1 187.4 232.65 185.7 228.15 184.3 223.0 184.45 212.45 184.85 205.55 179.8 200.75 176.3 200.6 167.75 200.45 158.65 197.35 151.15 195.6 146.95 189.65 145.5 L173.2 141.25 Q168.8 140.1 164.6 137.9 162.25 136.65 159.65 135.9 L156.9 135.65 Q155.7 135.8 154.7 136.55 152.0 138.65 149.6 141.1 144.85 146.05 140.35 151.25 135.75 156.65 132.05 162.6 130.3 165.5 131.1 168.45 132.05 172.05 134.55 175.2 137.2 178.6 137.7 182.3 138.6 188.3 136.95 194.4 134.9 202.0 136.6 208.2 137.75 212.25 143.5 213.95 149.15 215.65 155.15 216.2 161.15 216.8 166.7 218.6 175.95 221.65 183.55 227.55 187.65 230.75 188.7 235.95 189.35 239.35 187.05 242.15 183.35 246.75 177.95 249.3 172.55 251.9 166.5 253.15 160.3 254.45 154.6 256.95 146.6 260.45 139.55 265.85 134.3 269.85 130.15 275.0 127.2 278.7 125.65 283.2 124.65 286.4 124.35 289.8" fill="none" stroke="#7604e8" stroke-linecap="round" stroke-linejoin="round" stroke-opacity="0.5019608" stroke-width="2.0"/>
    <path d="M249.2 130.65 Q257.6 127.4 266.25 129.75 269.75 130.7 269.5 133.9 268.9 142.65 266.05 151.45 264.35 156.65 265.7 161.45 266.65 164.9 268.75 168.35 271.75 173.15 271.3 178.35 270.6 186.3 265.8 192.8 262.05 198.0 256.0 200.3 252.4 201.7 249.6 199.5 245.55 196.25 241.95 191.95 238.1 187.4 232.65 185.7 228.15 184.3 223.0 184.45 212.45 184.85 205.55 179.8 200.75 176.3 200.6 167.75 200.45 158.65 197.35 151.15 195.6 146.95 189.65 145.5 L173.2 141.25 Q168.8 140.1 164.6 137.9 162.25 136.65 159.65 135.9 L156.9 135.65 Q155.7 135.8 154.7 136.55 152.0 138.65 149.6 141.1 144.85 146.05 140.35 151.25 135.75 156.65 132.05 162.6 130.3 165.5 131.1 168.45 132.05 172.05 134.55 175.2 137.2 178.6 137.7 182.3 138.6 188.3 136.95 194.4 134.9 202.0 136.6 208.2 137.75 212.25 143.5 213.95 149.15 215.65 155.15 216.2 161.15 216.8 166.7 218.6 175.95 221.65 183.55 227.55 187.65 230.75 188.7 235.95 189.35 239.35 187.05 242.15 183.35 246.75 177.95 249.3 172.55 251.9 166.5 253.15 160.3 254.45 154.6 256.95 146.6 260.45 139.55 265.85 134.3 269.85 130.15 275.0 127.2 278.7 125.65 283.2 124.65 286.4 124.35 289.8" fill="none" stroke="#e9d6fe" stroke-linecap="round" stroke-linejoin="round" stroke-opacity="0.84313726" stroke-width="0.05"/>
  </g>
</svg>
