<?xml version="1.0" encoding="UTF-8" standalone="no"?>
<svg xmlns:xlink="http://www.w3.org/1999/xlink" height="47.15px" width="229.95px" xmlns="http://www.w3.org/2000/svg">
  <g transform="matrix(1.0, 0.0, 0.0, 1.0, 21.2, -91.4)">
    <path d="M207.0 119.8 L207.6 119.75 Q207.9 117.5 207.5 115.2 206.65 109.8 202.25 106.65 199.05 104.4 195.85 105.5 190.2 107.55 185.65 112.1 182.5 115.25 178.95 116.3 175.95 117.25 172.85 114.95 166.55 110.4 161.0 104.8 154.6 98.4 146.9 94.8 140.05 91.55 131.95 92.7 126.05 93.55 120.25 95.45 111.5 98.4 102.5 99.0 99.25 99.25 95.95 97.3 L92.75 95.8 Q91.25 95.25 90.1 96.05 89.55 96.4 89.6 97.55 89.85 101.25 89.45 104.9 89.0 110.1 87.85 115.2 L87.35 118.05 86.95 119.7 Q86.15 122.1 84.85 124.25 84.15 125.5 83.1 125.65 L78.75 125.35 Q69.25 122.25 59.4 123.45 54.2 124.1 49.35 126.15 48.2 126.65 47.5 127.85 45.1 132.05 41.6 134.85 37.4 138.3 32.5 137.35 27.1 136.35 22.75 131.85 17.4 126.35 12.4 120.5 L2.5 108.8 Q-0.25 105.55 -3.7 104.05 -6.25 102.95 -9.3 104.55 -13.95 106.95 -17.8 110.6 -19.35 112.1 -20.2 114.05" fill="none" stroke="#7604e8" stroke-linecap="round" stroke-linejoin="round" stroke-opacity="0.5019608" stroke-width="2.0"/>
    <path d="M207.0 119.8 L207.6 119.75 Q207.9 117.5 207.5 115.2 206.65 109.8 202.25 106.65 199.05 104.4 195.85 105.5 190.2 107.55 185.65 112.1 182.5 115.25 178.95 116.3 175.95 117.25 172.85 114.95 166.55 110.4 161.0 104.8 154.6 98.4 146.9 94.8 140.05 91.55 131.95 92.7 126.05 93.55 120.25 95.45 111.5 98.4 102.5 99.0 99.25 99.25 95.95 97.3 L92.75 95.8 Q91.25 95.25 90.1 96.05 89.55 96.4 89.6 97.55 89.85 101.25 89.45 104.9 89.0 110.1 87.85 115.2 L87.35 118.05 86.95 119.7 Q86.15 122.1 84.85 124.25 84.15 125.5 83.1 125.65 L78.75 125.35 Q69.25 122.25 59.4 123.45 54.2 124.1 49.35 126.15 48.2 126.65 47.5 127.85 45.1 132.05 41.6 134.85 37.4 138.3 32.5 137.35 27.1 136.35 22.75 131.85 17.4 126.35 12.4 120.5 L2.5 108.8 Q-0.25 105.55 -3.7 104.05 -6.25 102.95 -9.3 104.55 -13.95 106.95 -17.8 110.6 -19.35 112.1 -20.2 114.05" fill="none" stroke="#e9d6fe" stroke-linecap="round" stroke-linejoin="round" stroke-opacity="0.84313726" stroke-width="0.05"/>
  </g>
</svg>
