<?xml version="1.0" encoding="UTF-8" standalone="no"?>
<svg xmlns:xlink="http://www.w3.org/1999/xlink" height="122.9px" width="225.85px" xmlns="http://www.w3.org/2000/svg">
  <g transform="matrix(1.0, 0.0, 0.0, 1.0, -253.6, -49.8)">
    <path d="M263.5 85.55 L263.2 86.75 Q263.0 87.85 263.05 88.9 263.5 93.8 266.45 96.8 268.6 98.95 271.1 97.15 276.9 93.0 280.15 86.2 284.85 76.45 288.95 66.3 292.0 58.75 296.5 52.05 L297.4 50.8 Q300.0 59.05 298.6 67.55 295.7 85.55 290.3 103.05 286.0 116.95 284.0 131.0 282.9 138.9 285.65 146.75 287.75 152.6 290.5 158.15 L292.6 163.15 Q293.4 165.45 294.95 167.0 296.25 168.3 298.05 167.9 301.7 167.15 304.9 165.05 L314.4 158.8 Q318.55 156.0 322.8 153.45 319.85 158.9 321.85 163.55 322.8 165.7 326.85 166.0 L343.1 167.8 Q346.15 168.3 348.7 170.35 349.3 170.85 349.6 171.7 351.25 155.6 348.45 139.75 357.85 148.1 368.7 154.15 373.55 156.85 377.75 154.85 383.8 152.0 385.85 145.25 388.1 137.75 387.35 129.55 L385.75 112.9 385.5 108.35 388.05 110.9 Q393.2 117.2 398.85 123.0 402.9 127.2 408.3 129.05 L417.65 131.9 Q421.15 132.9 423.2 135.95 426.3 140.6 430.2 143.25 436.3 147.45 444.2 149.1 451.4 150.6 456.7 154.65 459.95 157.15 463.05 160.3 465.1 162.3 468.8 162.15 472.8 162.0 476.75 162.0 477.6 162.0 478.45 162.55 M254.6 113.0 L254.75 112.45 Q257.6 102.2 261.4 92.25 L263.2 86.75" fill="none" stroke="#7604e8" stroke-linecap="round" stroke-linejoin="round" stroke-opacity="0.5019608" stroke-width="2.0"/>
    <path d="M263.5 85.55 L263.2 86.75 Q263.0 87.85 263.05 88.9 263.5 93.8 266.45 96.8 268.6 98.95 271.1 97.15 276.9 93.0 280.15 86.2 284.85 76.45 288.95 66.3 292.0 58.75 296.5 52.05 L297.4 50.8 Q300.0 59.05 298.6 67.55 295.7 85.55 290.3 103.05 286.0 116.95 284.0 131.0 282.9 138.9 285.65 146.75 287.75 152.6 290.5 158.15 L292.6 163.15 Q293.4 165.45 294.95 167.0 296.25 168.3 298.05 167.9 301.7 167.15 304.9 165.05 L314.4 158.8 Q318.55 156.0 322.8 153.45 319.85 158.9 321.85 163.55 322.8 165.7 326.85 166.0 L343.1 167.8 Q346.15 168.3 348.7 170.35 349.3 170.85 349.6 171.7 351.25 155.6 348.45 139.75 357.85 148.1 368.7 154.15 373.55 156.85 377.75 154.85 383.8 152.0 385.85 145.25 388.1 137.75 387.35 129.55 L385.75 112.9 385.5 108.35 388.05 110.9 Q393.2 117.2 398.85 123.0 402.9 127.2 408.3 129.05 L417.65 131.9 Q421.15 132.9 423.2 135.95 426.3 140.6 430.2 143.25 436.3 147.45 444.2 149.1 451.4 150.6 456.7 154.65 459.95 157.15 463.05 160.3 465.1 162.3 468.8 162.15 472.8 162.0 476.75 162.0 477.6 162.0 478.45 162.55 M254.6 113.0 L254.75 112.45 Q257.6 102.2 261.4 92.25 L263.2 86.75" fill="none" stroke="#e9d6fe" stroke-linecap="round" stroke-linejoin="round" stroke-opacity="0.84313726" stroke-width="0.05"/>
  </g>
</svg>
