<?xml version="1.0" encoding="UTF-8" standalone="no"?>
<svg xmlns:xlink="http://www.w3.org/1999/xlink" height="125.25px" width="223.6px" xmlns="http://www.w3.org/2000/svg">
  <g transform="matrix(1.0, 0.0, 0.0, 1.0, 147.7, 72.55)">
    <path d="M-122.9 52.2 Q-119.55 37.0 -119.7 21.45 -121.9 18.7 -123.35 15.35 -128.3 4.15 -126.95 -8.95 L-126.15 -16.45 Q-126.0 -18.25 -125.05 -19.5 -136.3 -18.2 -147.2 -19.05 L-146.95 -19.7 -146.6 -20.1 -146.4 -20.4 -146.0 -21.05 Q-135.4 -23.85 -124.45 -23.7 L-119.85 -23.4 -121.7 -25.0 Q-129.4 -32.6 -136.65 -40.45 -138.35 -42.35 -136.35 -43.05 -127.7 -37.15 -120.6 -29.7 -122.6 -38.1 -115.65 -46.0 L-114.9 -46.75 Q-112.4 -51.45 -108.5 -55.35 L-107.2 -55.65 -107.15 -55.7 Q-103.6 -52.6 -101.5 -47.35 -100.5 -44.9 -99.1 -42.55 -95.2 -36.1 -96.8 -29.6 -84.85 -41.5 -71.15 -51.7 L-70.45 -52.05 Q-69.15 -51.75 -69.25 -50.5 L-69.35 -50.15 Q-76.6 -43.55 -84.0 -37.1 -85.7 -34.85 -87.8 -32.75 L-88.05 -32.45 -88.3 -32.3 Q-88.7 -32.05 -89.15 -31.9 L-89.35 -31.6 Q-89.9 -30.05 -91.8 -28.3 L-94.15 -26.2 -69.1 -28.15 Q-68.1 -25.75 -72.95 -24.65 -84.6 -22.2 -96.35 -20.8 -89.15 -13.85 -90.1 -1.75 L-91.15 8.8 Q-91.95 14.95 -96.9 19.1 -97.95 35.7 -97.45 52.2 L-122.9 52.2" fill="#000000" fill-rule="evenodd" stroke="none"/>
    <path d="M-122.9 52.2 Q-119.55 37.0 -119.7 21.45 -121.9 18.7 -123.35 15.35 -128.3 4.15 -126.95 -8.95 L-126.15 -16.45 Q-126.0 -18.25 -125.05 -19.5 -136.3 -18.2 -147.2 -19.05 L-146.95 -19.7 -146.6 -20.1 -146.4 -20.4 -146.0 -21.05 Q-135.4 -23.85 -124.45 -23.7 L-119.85 -23.4 -121.7 -25.0 Q-129.4 -32.6 -136.65 -40.45 -138.35 -42.35 -136.35 -43.05 -127.7 -37.15 -120.6 -29.7 -122.6 -38.1 -115.65 -46.0 L-114.9 -46.75 Q-112.4 -51.45 -108.5 -55.35 L-107.2 -55.65 -107.15 -55.7 Q-103.6 -52.6 -101.5 -47.35 -100.5 -44.9 -99.1 -42.55 -95.2 -36.1 -96.8 -29.6 -84.85 -41.5 -71.15 -51.7 L-70.45 -52.05 Q-69.15 -51.75 -69.25 -50.5 L-69.35 -50.15 Q-76.6 -43.55 -84.0 -37.1 -85.7 -34.85 -87.8 -32.75 L-88.05 -32.45 -88.3 -32.3 Q-88.7 -32.05 -89.15 -31.9 L-89.35 -31.6 Q-89.9 -30.05 -91.8 -28.3 L-94.15 -26.2 -69.1 -28.15 Q-68.1 -25.75 -72.95 -24.65 -84.6 -22.2 -96.35 -20.8 -89.15 -13.85 -90.1 -1.75 L-91.15 8.8 Q-91.95 14.95 -96.9 19.1 -97.95 35.7 -97.45 52.2" fill="none" stroke="#00ccff" stroke-linecap="round" stroke-linejoin="round" stroke-opacity="0.3019608" stroke-width="1.0"/>
    <path d="M-54.9 51.6 Q-51.7 36.35 -51.1 20.55 -50.65 8.75 -51.2 -3.05 -54.95 20.25 -64.75 41.65 -65.9 44.1 -68.45 44.5 -72.0 45.0 -75.4 43.45 -83.9 39.7 -88.75 32.4 -89.55 31.2 -88.45 30.1 -68.3 9.6 -62.1 -18.75 L-61.8 -19.8 -65.7 -20.35 Q-70.7 -20.95 -74.4 -23.7 -75.15 -26.8 -72.1 -27.1 -57.05 -28.55 -42.75 -32.75 L-44.8 -36.15 Q-47.1 -41.35 -46.05 -47.0 -45.8 -48.15 -46.0 -49.4 -38.9 -61.4 -29.2 -71.85 L-29.0 -71.9 -28.3 -72.05 -27.4 -71.85 Q-18.8 -62.05 -17.4 -50.6 L-16.8 -48.75 Q-14.9 -41.3 -18.65 -35.75 -19.55 -33.65 -21.0 -32.05 L-20.45 -31.7 -20.35 -31.55 Q-8.7 -28.3 3.35 -29.25 L3.8 -28.6 4.2 -27.95 4.3 -27.6 Q0.4 -21.9 -7.5 -20.65 L-13.0 -19.65 -6.2 -8.6 Q-4.75 -6.1 -4.85 -3.05 -5.25 9.8 -7.8 22.3 -9.2 28.8 -10.95 35.1 -11.35 36.6 -12.8 37.1 L-14.95 51.6 -54.9 51.6" fill="#000000" fill-rule="evenodd" stroke="none"/>
    <path d="M-54.9 51.6 Q-51.7 36.35 -51.1 20.55 -50.65 8.75 -51.2 -3.05 -54.95 20.25 -64.75 41.65 -65.9 44.1 -68.45 44.5 -72.0 45.0 -75.4 43.45 -83.9 39.7 -88.75 32.4 -89.55 31.2 -88.45 30.1 -68.3 9.6 -62.1 -18.75 L-61.8 -19.8 -65.7 -20.35 Q-70.7 -20.95 -74.4 -23.7 -75.15 -26.8 -72.1 -27.1 -57.05 -28.55 -42.75 -32.75 L-44.8 -36.15 Q-47.1 -41.35 -46.05 -47.0 -45.8 -48.15 -46.0 -49.4 -38.9 -61.4 -29.2 -71.85 L-29.0 -71.9 -28.3 -72.05 -27.4 -71.85 Q-18.8 -62.05 -17.4 -50.6 L-16.8 -48.75 Q-14.9 -41.3 -18.65 -35.75 -19.55 -33.65 -21.0 -32.05 L-20.45 -31.7 -20.35 -31.55 Q-8.7 -28.3 3.35 -29.25 L3.8 -28.6 4.2 -27.95 4.3 -27.6 Q0.4 -21.9 -7.5 -20.65 L-13.0 -19.65 -6.2 -8.6 Q-4.75 -6.1 -4.85 -3.05 -5.25 9.8 -7.8 22.3 -9.2 28.8 -10.95 35.1 -11.35 36.6 -12.8 37.1 L-14.95 51.6" fill="none" stroke="#6600ff" stroke-linecap="round" stroke-linejoin="round" stroke-opacity="0.2901961" stroke-width="1.0"/>
    <path d="M11.9 51.6 Q14.2 41.15 15.95 30.55 L16.65 28.65 17.25 26.7 Q16.85 23.55 17.3 20.0 L17.9 13.7 Q16.95 12.3 15.45 11.1 L15.45 11.15 Q11.95 6.5 10.85 0.15 10.55 -1.4 12.0 -2.4 17.7 -6.45 19.75 -12.35 17.5 -13.75 15.45 -15.85 7.9 -23.65 5.2 -33.65 2.15 -44.75 6.3 -55.0 L7.9 -55.5 7.9 -55.6 Q11.95 -52.45 11.7 -46.05 11.6 -41.65 14.15 -38.05 18.35 -32.2 23.35 -26.85 L24.6 -25.6 Q24.15 -30.45 27.45 -36.15 31.5 -43.1 36.6 -49.25 L37.05 -49.45 38.05 -49.75 38.9 -49.45 39.55 -49.15 Q45.85 -36.2 46.05 -21.95 57.65 -29.65 65.45 -40.7 66.2 -41.8 65.8 -43.2 64.3 -49.15 67.2 -53.6 67.85 -54.65 69.0 -54.0 73.65 -51.2 74.8 -45.45 78.35 -26.5 60.9 -16.4 55.35 -13.2 49.55 -10.95 51.3 -4.0 51.65 3.0 52.8 3.8 52.75 5.5 50.7 9.25 46.45 10.85 45.55 11.2 45.8 11.75 49.05 31.35 53.8 50.45 L54.05 51.6 11.9 51.6" fill="#000000" fill-rule="evenodd" stroke="none"/>
    <path d="M11.9 51.6 Q14.2 41.15 15.95 30.55 L16.65 28.65 17.25 26.7 Q16.85 23.55 17.3 20.0 L17.9 13.7 Q16.95 12.3 15.45 11.1 L15.45 11.15 Q11.95 6.5 10.85 0.15 10.55 -1.4 12.0 -2.4 17.7 -6.45 19.75 -12.35 17.5 -13.75 15.45 -15.85 7.9 -23.65 5.2 -33.65 2.15 -44.75 6.3 -55.0 L7.9 -55.5 7.9 -55.6 Q11.95 -52.45 11.7 -46.05 11.6 -41.65 14.15 -38.05 18.35 -32.2 23.35 -26.85 L24.6 -25.6 Q24.15 -30.45 27.45 -36.15 31.5 -43.1 36.6 -49.25 L37.05 -49.45 38.05 -49.75 38.9 -49.45 39.55 -49.15 Q45.85 -36.2 46.05 -21.95 57.65 -29.65 65.45 -40.7 66.2 -41.8 65.8 -43.2 64.3 -49.15 67.2 -53.6 67.85 -54.65 69.0 -54.0 73.65 -51.2 74.8 -45.45 78.35 -26.5 60.9 -16.4 55.35 -13.2 49.55 -10.95 51.3 -4.0 51.65 3.0 52.8 3.8 52.75 5.5 50.7 9.25 46.45 10.85 45.55 11.2 45.8 11.75 49.05 31.35 53.8 50.45 L54.05 51.6" fill="none" stroke="#ffff00" stroke-linecap="round" stroke-linejoin="round" stroke-opacity="0.3019608" stroke-width="1.0"/>
  </g>
</svg>
