<?xml version="1.0" encoding="UTF-8" standalone="no"?>
<svg xmlns:xlink="http://www.w3.org/1999/xlink" height="72.25px" width="82.35px" xmlns="http://www.w3.org/2000/svg">
  <g transform="matrix(1.0, 0.0, 0.0, 1.0, -105.0, 21.85)">
    <path d="M135.6 49.9 Q136.6 37.2 136.25 24.5 134.0 35.55 128.45 45.55 128.25 45.9 127.7 45.95 119.5 46.35 116.3 40.8 115.55 39.6 116.65 38.3 127.3 25.5 129.4 9.05 L127.6 10.5 Q122.25 9.6 119.1 13.25 L118.65 13.25 118.65 14.15 118.55 14.5 Q117.05 16.1 116.0 14.5 116.05 13.15 116.85 12.4 L116.75 12.15 Q118.35 5.65 126.3 7.0 128.6 5.45 131.05 4.4 L127.5 3.7 125.05 3.1 Q117.6 7.35 112.7 1.9 L112.85 1.25 112.85 1.2 109.9 0.85 109.15 0.75 Q107.8 2.05 106.15 1.75 L105.85 1.4 Q105.45 1.0 105.5 0.45 106.1 -1.1 107.8 -1.9 L108.7 -2.2 Q110.65 -1.85 112.4 -0.85 L112.9 -0.55 113.25 0.1 113.4 0.45 113.55 0.35 Q119.25 2.0 124.6 -0.9 L131.45 0.95 131.25 0.4 Q129.2 -4.85 125.85 -9.2 122.6 -13.25 117.0 -13.2 L116.8 -13.2 116.75 -13.2 116.55 -12.95 Q112.35 -10.85 109.45 -13.95 109.4 -14.85 110.35 -15.25 L111.35 -15.6 Q114.0 -15.75 116.25 -14.8 L116.45 -15.45 116.7 -15.8 Q117.8 -16.95 119.3 -16.8 133.05 -15.75 133.8 -1.55 133.85 -0.05 134.35 1.4 L134.8 1.85 135.05 2.0 135.05 2.05 Q135.75 2.5 136.7 2.55 L137.25 2.65 Q136.15 0.65 136.8 -1.75 139.75 -12.9 149.85 -18.7 L151.35 -18.1 151.75 -17.8 Q156.4 -10.35 156.5 -2.65 L156.7 -2.85 158.2 -3.35 158.25 -3.45 158.3 -3.45 158.25 -4.3 165.15 -12.5 Q167.0 -14.85 166.55 -17.95 167.45 -19.65 169.25 -20.45 170.6 -21.15 171.95 -21.35 L173.75 -21.25 174.5 -21.1 Q179.4 -18.35 185.4 -20.9 L186.45 -20.8 186.65 -20.45 186.85 -19.8 186.8 -19.45 Q181.7 -15.1 175.2 -17.05 174.3 -17.35 173.6 -17.95 171.55 -18.75 169.85 -17.3 L169.4 -16.95 Q168.6 -8.7 161.6 -3.1 160.9 -2.5 160.45 -1.35 L160.15 -0.45 160.2 -0.15 161.95 -0.75 163.1 -1.0 Q174.15 2.25 185.3 0.95 185.65 0.9 185.9 1.4 L185.85 2.05 185.6 2.75 185.1 3.4 Q175.05 7.55 165.05 3.6 L163.55 3.1 Q162.2 3.5 160.95 4.15 L159.15 4.85 159.05 4.85 158.8 5.25 Q160.55 5.65 161.6 7.3 L161.8 7.5 178.85 14.35 179.05 15.05 Q179.15 15.7 179.7 16.0 L178.6 16.85 177.95 17.5 Q170.2 16.15 163.45 12.15 160.6 12.9 158.65 10.85 L158.5 10.15 158.4 9.2 158.25 8.85 Q156.6 8.7 154.95 8.8 L166.4 37.15 166.55 38.15 Q160.5 45.55 156.05 38.05 154.0 34.7 152.35 31.25 L152.05 30.6 150.45 49.9 135.6 49.9" fill="#000000" fill-rule="evenodd" stroke="none"/>
    <path d="M135.6 49.9 Q136.6 37.2 136.25 24.5 134.0 35.55 128.45 45.55 128.25 45.9 127.7 45.95 119.5 46.35 116.3 40.8 115.55 39.6 116.65 38.3 127.3 25.5 129.4 9.05 L127.6 10.5 Q122.25 9.6 119.1 13.25 L118.65 13.25 118.65 14.15 118.55 14.5 Q117.05 16.1 116.0 14.5 116.05 13.15 116.85 12.4 L116.75 12.15 Q118.35 5.65 126.3 7.0 128.6 5.45 131.05 4.4 L127.5 3.7 125.05 3.1 Q117.6 7.35 112.7 1.9 L112.85 1.25 112.85 1.2 109.9 0.85 109.15 0.75 Q107.8 2.05 106.15 1.75 L105.85 1.4 Q105.45 1.0 105.5 0.45 106.1 -1.1 107.8 -1.9 L108.7 -2.2 Q110.65 -1.85 112.4 -0.85 L112.9 -0.55 113.25 0.1 113.4 0.45 113.55 0.35 Q119.25 2.0 124.6 -0.9 L131.45 0.95 131.25 0.4 Q129.2 -4.85 125.85 -9.2 122.6 -13.25 117.0 -13.2 L116.8 -13.2 116.75 -13.2 116.55 -12.95 Q112.35 -10.85 109.45 -13.95 109.4 -14.85 110.35 -15.25 L111.35 -15.6 Q114.0 -15.75 116.25 -14.8 L116.45 -15.45 116.7 -15.8 Q117.8 -16.95 119.3 -16.8 133.05 -15.75 133.8 -1.55 133.85 -0.05 134.35 1.4 L134.8 1.85 135.05 2.0 135.05 2.05 Q135.75 2.5 136.7 2.55 L137.25 2.65 Q136.15 0.65 136.8 -1.75 139.75 -12.9 149.85 -18.7 L151.35 -18.1 151.75 -17.8 Q156.4 -10.35 156.5 -2.65 L156.7 -2.85 158.2 -3.35 158.25 -3.45 158.3 -3.45 158.25 -4.3 165.15 -12.5 Q167.0 -14.85 166.55 -17.95 167.45 -19.65 169.25 -20.45 170.6 -21.15 171.95 -21.35 L173.75 -21.25 174.5 -21.1 Q179.4 -18.35 185.4 -20.9 L186.45 -20.8 186.65 -20.45 186.85 -19.8 186.8 -19.45 Q181.7 -15.1 175.2 -17.05 174.3 -17.35 173.6 -17.95 171.55 -18.75 169.85 -17.3 L169.4 -16.95 Q168.6 -8.7 161.6 -3.1 160.9 -2.5 160.45 -1.35 L160.15 -0.45 160.2 -0.15 161.95 -0.75 163.1 -1.0 Q174.15 2.25 185.3 0.95 185.65 0.9 185.9 1.4 L185.85 2.05 185.6 2.75 185.1 3.4 Q175.05 7.55 165.05 3.6 L163.55 3.1 Q162.2 3.5 160.95 4.15 L159.15 4.85 159.05 4.85 158.8 5.25 Q160.55 5.65 161.6 7.3 L161.8 7.5 178.85 14.35 179.05 15.05 Q179.15 15.7 179.7 16.0 L178.6 16.85 177.95 17.5 Q170.2 16.15 163.45 12.15 160.6 12.9 158.65 10.85 L158.5 10.15 158.4 9.2 158.25 8.85 Q156.6 8.7 154.95 8.8 L166.4 37.15 166.55 38.15 Q160.5 45.55 156.05 38.05 154.0 34.7 152.35 31.25 L152.05 30.6 150.45 49.9" fill="none" stroke="#339900" stroke-linecap="round" stroke-linejoin="round" stroke-opacity="0.3019608" stroke-width="1.0"/>
  </g>
</svg>
