<?xml version="1.0" encoding="UTF-8" standalone="no"?>
<svg xmlns:xlink="http://www.w3.org/1999/xlink" height="84.5px" width="66.0px" xmlns="http://www.w3.org/2000/svg">
  <g transform="matrix(1.0, 0.0, 0.0, 1.0, -59.0, 32.95)">
    <path d="M78.0 51.05 Q81.6 41.4 80.3 31.6 L78.9 20.75 Q76.4 27.65 76.4 35.9 76.4 40.35 71.35 40.4 65.35 40.4 60.7 38.1 59.1 37.3 59.65 35.25 64.9 14.7 81.65 1.0 82.45 0.3 82.75 -0.95 L81.25 -4.65 Q80.0 -6.0 78.95 -7.7 73.6 -16.25 78.65 -24.4 79.8 -24.7 80.75 -23.95 81.95 -16.95 86.65 -12.15 85.2 -20.5 93.0 -28.5 94.6 -30.15 95.9 -32.15 L96.35 -32.3 97.0 -32.45 97.85 -32.2 98.4 -31.9 Q105.35 -20.85 102.55 -9.05 110.2 -14.15 114.25 -22.3 113.75 -23.85 114.6 -25.15 L115.1 -25.6 115.6 -25.45 116.25 -25.3 Q121.4 -13.2 109.7 -4.55 107.65 -3.05 105.45 -1.95 107.8 -0.4 110.05 1.95 114.8 6.95 118.5 12.75 125.6 24.0 124.3 36.6 124.2 37.8 122.85 38.15 115.0 39.95 108.75 36.4 107.9 35.9 107.95 34.7 108.25 24.35 104.45 15.95 103.5 22.5 101.95 29.15 L101.75 29.8 Q104.55 40.35 106.15 51.05 L78.0 51.05" fill="#000000" fill-rule="evenodd" stroke="none"/>
    <path d="M78.0 51.05 Q81.6 41.4 80.3 31.6 L78.9 20.75 Q76.4 27.65 76.4 35.9 76.4 40.35 71.35 40.4 65.35 40.4 60.7 38.1 59.1 37.3 59.65 35.25 64.9 14.7 81.65 1.0 82.45 0.3 82.75 -0.95 L81.25 -4.65 Q80.0 -6.0 78.95 -7.7 73.6 -16.25 78.65 -24.4 79.8 -24.7 80.75 -23.95 81.95 -16.95 86.65 -12.15 85.2 -20.5 93.0 -28.5 94.6 -30.15 95.9 -32.15 L96.35 -32.3 97.0 -32.45 97.85 -32.2 98.4 -31.9 Q105.35 -20.85 102.55 -9.05 110.2 -14.15 114.25 -22.3 113.75 -23.85 114.6 -25.15 L115.1 -25.6 115.6 -25.45 116.25 -25.3 Q121.4 -13.2 109.7 -4.55 107.65 -3.05 105.45 -1.95 107.8 -0.4 110.05 1.95 114.8 6.95 118.5 12.75 125.6 24.0 124.3 36.6 124.2 37.8 122.85 38.15 115.0 39.95 108.75 36.4 107.9 35.9 107.95 34.7 108.25 24.35 104.45 15.95 103.5 22.5 101.95 29.15 L101.75 29.8 Q104.55 40.35 106.15 51.05" fill="none" stroke="#ff6600" stroke-linecap="round" stroke-linejoin="round" stroke-opacity="0.3019608" stroke-width="1.0"/>
  </g>
</svg>
