<?xml version="1.0" encoding="UTF-8" standalone="no"?>
<svg xmlns:xlink="http://www.w3.org/1999/xlink" height="87.85px" width="57.25px" xmlns="http://www.w3.org/2000/svg">
  <g transform="matrix(1.0, 0.0, 0.0, 1.0, 197.5, 35.75)">
    <path d="M-183.05 51.6 Q-182.95 47.65 -183.2 43.75 L-183.55 39.05 Q-185.15 41.15 -187.7 42.45 -194.95 46.1 -196.85 40.15 -197.25 38.8 -196.6 37.5 -190.1 24.6 -187.45 10.6 L-188.85 3.6 Q-184.95 -1.05 -180.25 -4.65 -184.7 -9.6 -182.75 -17.9 -180.5 -27.2 -173.05 -33.85 L-171.65 -34.9 -170.3 -35.15 -170.3 -35.25 Q-166.7 -33.5 -165.3 -28.9 -164.7 -26.8 -163.45 -24.75 -158.25 -15.85 -159.8 -6.6 -160.15 -4.55 -161.85 -3.15 L-162.45 -2.7 Q-159.5 0.35 -158.75 5.55 -158.35 8.75 -157.05 11.9 -157.0 5.55 -155.7 -0.55 -155.5 -1.45 -154.4 -1.25 -146.3 0.1 -141.5 5.4 -140.45 6.6 -140.85 8.3 -143.1 16.85 -146.2 25.15 -148.95 32.5 -154.75 36.3 -155.7 36.9 -156.65 36.05 -157.8 35.05 -158.2 33.55 -158.0 42.5 -158.65 51.6 L-183.05 51.6" fill="#000000" fill-rule="evenodd" stroke="none"/>
    <path d="M-183.05 51.6 Q-182.95 47.65 -183.2 43.75 L-183.55 39.05 Q-185.15 41.15 -187.7 42.45 -194.95 46.1 -196.85 40.15 -197.25 38.8 -196.6 37.5 -190.1 24.6 -187.45 10.6 L-188.85 3.6 Q-184.95 -1.05 -180.25 -4.65 -184.7 -9.6 -182.75 -17.9 -180.5 -27.2 -173.05 -33.85 L-171.65 -34.9 -170.3 -35.15 -170.3 -35.25 Q-166.7 -33.5 -165.3 -28.9 -164.7 -26.8 -163.45 -24.75 -158.25 -15.85 -159.8 -6.6 -160.15 -4.55 -161.85 -3.15 L-162.45 -2.7 Q-159.5 0.35 -158.75 5.55 -158.35 8.75 -157.05 11.9 -157.0 5.55 -155.7 -0.55 -155.5 -1.45 -154.4 -1.25 -146.3 0.1 -141.5 5.4 -140.45 6.6 -140.85 8.3 -143.1 16.85 -146.2 25.15 -148.95 32.5 -154.75 36.3 -155.7 36.9 -156.65 36.05 -157.8 35.05 -158.2 33.55 -158.0 42.5 -158.65 51.6" fill="none" stroke="#990000" stroke-linecap="round" stroke-linejoin="round" stroke-opacity="0.3019608" stroke-width="1.0"/>
  </g>
</svg>
