<?xml version="1.0" encoding="UTF-8" standalone="no"?>
<svg xmlns:xlink="http://www.w3.org/1999/xlink" height="466.5px" width="467.6px" xmlns="http://www.w3.org/2000/svg">
  <g transform="matrix(1.0, 0.0, 0.0, 1.0, 235.4, 253.7)">
    <path d="M-196.0 -150.9 Q-183.5 -168.95 -167.1 -185.4 -98.75 -253.7 -2.15 -253.7 94.45 -253.7 162.75 -185.4 179.2 -168.95 191.7 -150.9 231.1 -93.8 231.1 -20.45 231.1 76.15 162.75 144.45 154.0 153.2 144.8 160.85 82.05 212.8 -2.15 212.8 -86.35 212.8 -149.1 160.85 -158.35 153.2 -167.1 144.45 -222.85 88.7 -233.1 14.05 -235.4 -2.7 -235.4 -20.45 -235.4 -38.2 -233.1 -54.95 -225.9 -107.6 -196.0 -150.9 M172.25 -18.7 Q172.25 -90.2 121.65 -140.8 71.1 -191.35 -0.4 -191.35 -71.9 -191.35 -122.5 -140.8 -173.05 -90.2 -173.05 -18.7 -173.05 52.8 -122.5 103.35 -71.9 153.95 -0.4 153.95 71.1 153.95 121.65 103.35 172.25 52.8 172.25 -18.7" fill="url(#gradient0)" fill-rule="evenodd" stroke="none"/>
    <path d="M191.7 -150.9 L232.2 -150.9 232.2 160.85 144.8 160.85 Q154.0 153.2 162.75 144.45 231.1 76.15 231.1 -20.45 231.1 -93.8 191.7 -150.9 M-149.1 160.85 L-233.1 160.85 -233.1 14.05 Q-222.85 88.7 -167.1 144.45 -158.35 153.2 -149.1 160.85 M-233.1 -54.95 L-233.1 -150.9 -196.0 -150.9 Q-225.9 -107.6 -233.1 -54.95 M71.4 -91.65 Q100.65 -62.4 100.65 -21.0 100.65 20.4 71.4 49.65 42.15 78.9 0.75 78.9 -40.65 78.9 -69.9 49.65 -99.15 20.4 -99.15 -21.0 -99.15 -62.4 -69.9 -91.65 -40.65 -120.9 0.75 -120.9 42.15 -120.9 71.4 -91.65" fill="url(#gradient1)" fill-rule="evenodd" stroke="none"/>
    <path d="M172.25 -18.7 Q172.25 52.8 121.65 103.35 71.1 153.95 -0.4 153.95 -71.9 153.95 -122.5 103.35 -173.05 52.8 -173.05 -18.7 -173.05 -90.2 -122.5 -140.8 -71.9 -191.35 -0.4 -191.35 71.1 -191.35 121.65 -140.8 172.25 -90.2 172.25 -18.7 M71.4 -91.65 Q42.15 -120.9 0.75 -120.9 -40.65 -120.9 -69.9 -91.65 -99.15 -62.4 -99.15 -21.0 -99.15 20.4 -69.9 49.65 -40.65 78.9 0.75 78.9 42.15 78.9 71.4 49.65 100.65 20.4 100.65 -21.0 100.65 -62.4 71.4 -91.65" fill="url(#gradient2)" fill-rule="evenodd" stroke="none"/>
  </g>
  <defs>
    <radialGradient cx="0" cy="0" gradientTransform="matrix(0.3197, 0.0, 0.0, 0.3197, -3.3, -62.0)" gradientUnits="userSpaceOnUse" id="gradient0" r="819.2" spreadMethod="pad">
      <stop offset="0.0" stop-color="#422163"/>
      <stop offset="0.3333333333333333" stop-color="#2d1643"/>
      <stop offset="0.8274509803921568" stop-color="#110c18"/>
      <stop offset="1.0" stop-color="#000000"/>
    </radialGradient>
    <radialGradient cx="0" cy="0" gradientTransform="matrix(0.2543, 0.0, 0.0, 0.2543, -3.3, -62.0)" gradientUnits="userSpaceOnUse" id="gradient1" r="819.2" spreadMethod="pad">
      <stop offset="0.0" stop-color="#422163"/>
      <stop offset="0.3333333333333333" stop-color="#2d1643"/>
      <stop offset="0.8274509803921568" stop-color="#110c18"/>
      <stop offset="1.0" stop-color="#000000"/>
    </radialGradient>
    <radialGradient cx="0" cy="0" gradientTransform="matrix(0.2927, 0.0, 0.0, 0.2927, -3.3, -62.0)" gradientUnits="userSpaceOnUse" id="gradient2" r="819.2" spreadMethod="pad">
      <stop offset="0.0" stop-color="#422163"/>
      <stop offset="0.3333333333333333" stop-color="#2d1643"/>
      <stop offset="0.8274509803921568" stop-color="#110c18"/>
      <stop offset="1.0" stop-color="#000000"/>
    </radialGradient>
  </defs>
</svg>
