<?xml version="1.0" encoding="UTF-8" standalone="no"?>
<svg xmlns:xlink="http://www.w3.org/1999/xlink" height="7.0px" width="19.1px" xmlns="http://www.w3.org/2000/svg">
  <g transform="matrix(1.0, 0.0, 0.0, 1.0, 10.75, 2.75)">
    <path d="M-10.25 -0.05 L-6.5 -2.55 Q-5.6 -1.65 -4.7 -1.75 -3.85 -1.9 -3.45 -2.75 L-0.85 -1.85 2.0 -1.2 6.4 -0.25 4.75 0.3 Q3.3 0.6 0.8 0.3 -1.7 -0.05 -3.2 0.25 L-5.15 0.45 -7.0 -0.2 -10.25 -0.05 -7.0 -0.2 -5.15 0.45 -3.2 0.25 Q-1.7 -0.05 0.8 0.3 3.3 0.6 4.75 0.3 L6.95 -0.3 7.2 0.25 Q-1.55 5.45 -6.1 3.9 -10.7 2.3 -9.95 1.1 L-10.25 -0.05" fill="#e0748c" fill-rule="evenodd" stroke="none"/>
    <path d="M4.75 0.3 L6.4 -0.25 5.15 -0.65 Q6.0 -0.5 7.85 -0.65 L6.95 -0.3 4.75 0.3" fill="#e6b380" fill-rule="evenodd" stroke="none"/>
    <path d="M7.85 -0.65 L7.2 0.25 6.95 -0.3 7.85 -0.65" fill="#ff3399" fill-rule="evenodd" stroke="none"/>
    <path d="M-10.25 -0.05 L-7.0 -0.2 -5.15 0.45 -3.2 0.25 Q-1.7 -0.05 0.8 0.3 3.3 0.6 4.75 0.3 L6.95 -0.3 7.85 -0.65" fill="none" stroke="#000000" stroke-linecap="round" stroke-linejoin="round" stroke-width="1.0"/>
  </g>
</svg>
