<?xml version="1.0" encoding="UTF-8" standalone="no"?>
<svg xmlns:xlink="http://www.w3.org/1999/xlink" height="19.8px" width="15.75px" xmlns="http://www.w3.org/2000/svg">
  <g transform="matrix(1.0, 0.0, 0.0, 1.0, 51.95, -6.2)">
    <path d="M-36.9 13.35 Q-36.4 15.75 -37.3 17.75 L-38.85 21.25 -40.55 25.5 -41.3 19.7 -43.5 16.75 -44.4 15.9 -44.4 15.7 Q-38.85 19.35 -36.9 13.35 M-46.9 12.45 Q-47.55 9.6 -48.95 7.1 L-48.95 6.75 -43.6 6.95 Q-40.05 7.75 -37.1 13.0 L-44.0 12.05 -45.15 11.85 -46.85 11.9 Q-46.65 8.4 -43.6 6.95 -46.65 8.4 -46.85 11.9 L-46.9 12.45" fill="#000000" fill-rule="evenodd" stroke="none"/>
    <path d="M-36.9 13.35 Q-36.4 15.75 -37.3 17.75 L-38.85 21.25 -40.55 25.5 -41.3 19.7 -43.5 16.75 -44.4 15.9 -45.3 15.4 Q-46.4 14.75 -46.65 13.65 L-46.8 12.85 -46.9 12.45 Q-47.55 9.6 -48.95 7.1 L-50.35 6.7 -51.45 6.85 M-37.1 13.0 L-36.9 13.35 Q-38.85 19.35 -44.4 15.7 L-46.65 13.65 M-37.1 13.0 Q-40.05 7.75 -43.6 6.95 -46.65 8.4 -46.85 11.9 L-46.9 12.45 M-48.95 6.75 L-50.35 6.7 M-43.6 6.95 L-48.95 6.75" fill="none" stroke="#000000" stroke-linecap="round" stroke-linejoin="round" stroke-width="1.0"/>
  </g>
</svg>
