<?xml version="1.0" encoding="UTF-8" standalone="no"?>
<svg xmlns:xlink="http://www.w3.org/1999/xlink" height="38.1px" width="22.5px" xmlns="http://www.w3.org/2000/svg">
  <g transform="matrix(1.0, 0.0, 0.0, 1.0, 6.5, 33.0)">
    <path d="M8.2 -28.4 Q8.95 -26.95 9.75 -25.85 L11.3 -23.95 12.75 -22.1 14.3 -20.35 Q15.25 -19.2 15.6 -17.7 16.0 -16.25 16.0 -14.85 16.0 -12.75 15.4 -11.5 15.75 -10.4 15.75 -8.9 L15.6 -7.5 15.25 -5.9 14.55 -4.6 Q14.25 -4.05 13.95 -4.05 13.7 -4.05 13.7 -4.35 L13.8 -5.25 14.1 -6.6 14.3 -7.9 14.45 -8.9 Q14.45 -9.7 13.5 -10.9 12.7 -12.2 11.45 -13.3 10.2 -14.45 8.75 -15.2 L6.45 -16.25 6.45 -1.55 Q6.45 -0.2 5.65 1.0 4.85 2.15 3.55 3.05 2.3 3.95 0.8 4.45 -0.85 5.1 -2.2 5.1 L-4.35 4.75 -5.3 4.2 Q-6.5 3.35 -6.5 1.8 -6.5 0.55 -5.8 -0.55 L-4.35 -2.2 -3.65 -2.75 Q-2.4 -3.7 -0.95 -4.2 L2.1 -4.8 Q4.4 -4.8 5.65 -3.7 L5.65 -33.0 6.1 -33.0 6.3 -32.75 6.55 -31.8 7.15 -30.35 8.2 -28.4 M10.85 -20.8 L8.95 -22.3 7.2 -23.3 Q8.65 -20.0 10.65 -17.55 L11.3 -16.9 12.4 -15.65 13.8 -14.4 14.6 -13.1 14.6 -13.7 14.6 -14.2 Q14.6 -16.8 13.15 -18.6 L12.35 -19.35 10.85 -20.8" fill="#efcc80" fill-rule="evenodd" stroke="none"/>
  </g>
</svg>
