<?xml version="1.0" encoding="UTF-8" standalone="no"?>
<svg xmlns:xlink="http://www.w3.org/1999/xlink" height="22.45px" width="8.6px" xmlns="http://www.w3.org/2000/svg">
  <g transform="matrix(1.0, 0.0, 0.0, 1.0, -3.6, 0.0)">
    <path d="M11.8 12.15 Q12.2 12.85 12.2 13.55 12.1 14.7 11.35 16.0 10.55 17.25 8.85 18.6 L3.6 22.45 3.6 0.0 4.85 0.0 4.55 11.7 Q5.65 9.95 7.95 9.95 L9.6 10.25 10.85 10.95 11.8 12.15 M7.05 11.4 Q5.45 11.4 4.7 13.05 L4.5 16.65 Q4.5 19.25 4.65 20.3 L6.1 18.95 7.6 17.1 8.7 15.2 9.2 13.5 Q9.2 12.55 8.55 12.0 7.95 11.4 7.05 11.4" fill="#efcc80" fill-rule="evenodd" stroke="none"/>
  </g>
</svg>
