<?xml version="1.0" encoding="UTF-8" standalone="no"?>
<svg xmlns:xlink="http://www.w3.org/1999/xlink" height="25.6px" width="9.3px" xmlns="http://www.w3.org/2000/svg">
  <g transform="matrix(1.0, 0.0, 0.0, 1.0, -2.25, -1.4)">
    <path d="M11.55 9.5 L9.55 10.15 9.55 16.55 11.55 15.9 11.55 19.3 9.55 20.0 9.55 25.75 8.65 25.75 8.65 20.2 5.1 21.4 5.1 27.0 4.2 27.0 4.2 21.7 2.25 22.35 2.25 18.85 4.2 18.35 4.2 11.85 2.25 12.5 2.25 9.1 4.2 8.5 4.2 2.6 5.1 2.6 5.1 8.2 8.65 6.95 8.65 1.4 9.55 1.4 9.55 6.8 11.55 6.15 11.55 9.5 M5.1 11.55 L5.1 18.05 8.65 16.85 8.65 10.45 5.1 11.55" fill="#efcc80" fill-rule="evenodd" stroke="none"/>
  </g>
</svg>
