<?xml version="1.0" encoding="UTF-8" standalone="no"?>
<svg xmlns:xlink="http://www.w3.org/1999/xlink" height="38.1px" width="13.0px" xmlns="http://www.w3.org/2000/svg">
  <g transform="matrix(1.0, 0.0, 0.0, 1.0, 6.5, 33.0)">
    <path d="M1.75 -3.6 L-0.3 -2.85 -2.25 -1.9 -3.95 -0.5 -5.15 0.9 -5.6 2.35 Q-5.6 4.0 -3.6 4.0 L-0.85 3.45 Q0.8 2.8 2.2 1.95 L4.65 -0.15 Q5.6 -1.15 5.6 -2.25 5.6 -3.9 3.45 -3.9 L1.75 -3.6 M6.5 -1.25 Q6.5 0.0 5.7 1.25 4.9 2.45 3.8 3.25 L1.1 4.65 -1.95 5.1 -3.75 4.95 -5.15 4.3 -6.1 3.25 Q-6.5 2.7 -6.5 1.8 -6.5 0.5 -5.85 -0.65 L-3.95 -3.0 Q-2.8 -3.9 -1.4 -4.5 0.05 -5.05 1.45 -5.05 4.3 -5.05 5.6 -3.6 L5.6 -33.0 6.5 -33.0 6.5 -1.25" fill="#efcc80" fill-rule="evenodd" stroke="none"/>
  </g>
</svg>
