<?xml version="1.0" encoding="UTF-8" standalone="no"?>
<svg xmlns:xlink="http://www.w3.org/1999/xlink" height="186.5px" width="206.2px" xmlns="http://www.w3.org/2000/svg">
  <g transform="matrix(1.0, 0.0, 0.0, 1.0, 83.8, 82.0)">
    <path d="M92.7 -51.75 Q123.3 -22.0 121.85 21.6 120.4 65.2 91.25 84.6 62.05 104.0 17.7 104.0 -26.6 104.0 -54.45 84.2 -82.35 64.4 -83.25 36.3 -84.15 8.2 -55.35 -36.65 -26.6 -81.5 17.7 -81.5 62.05 -81.5 92.7 -51.75" fill="url(#gradient0)" fill-rule="evenodd" stroke="none"/>
    <path d="M92.7 -51.75 Q123.3 -22.0 121.85 21.6 120.4 65.2 91.25 84.6 62.05 104.0 17.7 104.0 -26.6 104.0 -54.45 84.2 -82.35 64.4 -83.25 36.3 -84.15 8.2 -55.35 -36.65 -26.6 -81.5 17.7 -81.5 62.05 -81.5 92.7 -51.75 Z" fill="none" stroke="#000000" stroke-linecap="round" stroke-linejoin="round" stroke-width="1.0"/>
  </g>
  <defs>
    <radialGradient cx="0" cy="0" gradientTransform="matrix(0.1351, 0.0, 0.0, 0.1351, 14.95, -8.05)" gradientUnits="userSpaceOnUse" id="gradient0" r="819.2" spreadMethod="pad">
      <stop offset="0.0" stop-color="#ac7846"/>
      <stop offset="1.0" stop-color="#52291b"/>
    </radialGradient>
  </defs>
</svg>
