<?xml version="1.0" encoding="UTF-8" standalone="no"?>
<svg xmlns:xlink="http://www.w3.org/1999/xlink" height="4.2px" width="4.2px" xmlns="http://www.w3.org/2000/svg">
  <g transform="matrix(1.0, 0.0, 0.0, 1.0, 2.1, 2.1)">
    <path d="M0.05 1.65 L-1.0 0.0 0.0 -1.65 1.0 0.05 0.05 1.65" fill="#0998f7" fill-opacity="0.5019608" fill-rule="evenodd" stroke="none"/>
    <path d="M1.4 -1.4 Q2.0 -0.8 2.0 0.0 2.0 0.85 1.4 1.4 0.8 2.0 0.0 2.0 -0.8 2.0 -1.4 1.4 -2.0 0.85 -2.0 0.0 -2.0 -0.8 -1.4 -1.4 -0.8 -2.0 0.0 -2.0 0.8 -2.0 1.4 -1.4" fill="none" stroke="#00ffff" stroke-linecap="round" stroke-linejoin="round" stroke-opacity="0.5019608" stroke-width="0.25"/>
    <path d="M0.05 1.65 L-1.0 0.0 0.0 -1.65 1.0 0.05 0.05 1.65" fill="none" stroke="#00ffff" stroke-linecap="round" stroke-linejoin="round" stroke-width="0.25"/>
  </g>
</svg>
