<?xml version="1.0" encoding="UTF-8" standalone="no"?>
<svg xmlns:xlink="http://www.w3.org/1999/xlink" height="4.2px" width="4.2px" xmlns="http://www.w3.org/2000/svg">
  <g transform="matrix(1.0, 0.0, 0.0, 1.0, 2.1, 2.1)">
    <path d="M0.45 -0.65 L1.9 -0.6 0.75 0.25 1.15 1.6 0.0 0.8 -1.15 1.6 -0.75 0.25 -1.9 -0.6 -0.45 -0.65 0.0 -2.0 -0.05 -2.0 Q-0.85 -2.0 -1.4 -1.4 -2.0 -0.85 -2.0 0.0 -2.0 0.75 -1.5 1.35 L-1.4 1.4 Q-0.85 2.0 0.0 2.0 0.85 2.0 1.4 1.4 L1.5 1.35 Q2.0 0.75 2.0 0.0 2.0 -0.85 1.4 -1.4 0.85 -2.0 0.05 -2.0 L0.0 -2.0 0.45 -0.65 0.75 0.25 0.0 0.8 -0.75 0.25 -0.45 -0.65 0.45 -0.65 Z" fill="none" stroke="#00ff99" stroke-linecap="round" stroke-linejoin="round" stroke-width="0.25"/>
  </g>
</svg>
