<?xml version="1.0" encoding="UTF-8" standalone="no"?>
<svg xmlns:xlink="http://www.w3.org/1999/xlink" height="293.15px" width="515.0px" xmlns="http://www.w3.org/2000/svg">
  <g transform="matrix(1.0, 0.0, 0.0, 1.0, 2.5, -229.5)">
    <path d="M-2.0 481.0 L-2.0 475.0 -2.0 232.0 211.9 232.0 211.9 475.0 211.9 481.0 -2.0 481.0" fill="url(#gradient0)" fill-rule="evenodd" stroke="none"/>
    <path d="M211.9 481.0 L211.9 493.15 220.35 493.15 220.35 522.65 151.25 522.65 151.25 498.0 147.35 498.0 147.35 522.65 78.25 522.65 78.25 498.0 74.35 498.0 74.35 522.65 5.25 522.65 5.25 498.0 -2.0 498.0 -2.0 481.0 211.9 481.0" fill="url(#gradient1)" fill-rule="evenodd" stroke="none"/>
    <path d="M151.25 498.0 L147.35 498.0 M78.25 498.0 L74.35 498.0 M5.25 498.0 L-2.0 498.0 M-2.0 232.0 L211.9 232.0" fill="none" stroke="#d0c18e" stroke-linecap="round" stroke-linejoin="round" stroke-width="1.0"/>
    <path d="M512.0 482.0 L224.0 482.0 224.0 230.0 512.0 230.0 512.0 482.0" fill="#d0c18e" fill-opacity="0.0" fill-rule="evenodd" stroke="none"/>
    <path d="M512.0 482.0 L224.0 482.0 224.0 230.0 512.0 230.0 512.0 482.0 Z" fill="none" stroke="#d0c18e" stroke-linecap="round" stroke-linejoin="round" stroke-opacity="0.5019608" stroke-width="1.0"/>
  </g>
  <defs>
    <linearGradient gradientTransform="matrix(-0.1316, 0.0, 0.0, 0.1855, 104.2, 384.0)" gradientUnits="userSpaceOnUse" id="gradient0" spreadMethod="pad" x1="-819.2" x2="819.2">
      <stop offset="0.0" stop-color="#ac8853" stop-opacity="0.0"/>
      <stop offset="1.0" stop-color="#6f5c35" stop-opacity="0.72156864"/>
    </linearGradient>
    <linearGradient gradientTransform="matrix(-0.1316, 0.0, 0.0, 0.1538, 104.2, 394.55)" gradientUnits="userSpaceOnUse" id="gradient1" spreadMethod="pad" x1="-819.2" x2="819.2">
      <stop offset="0.0" stop-color="#ac8853" stop-opacity="0.0"/>
      <stop offset="1.0" stop-color="#6f5c35" stop-opacity="0.72156864"/>
    </linearGradient>
  </defs>
</svg>
