<?xml version="1.0" encoding="UTF-8" standalone="no"?>
<svg xmlns:xlink="http://www.w3.org/1999/xlink" height="19.7px" width="112.05px" xmlns="http://www.w3.org/2000/svg">
  <g transform="matrix(1.0, 0.0, 0.0, 1.0, -43.4, -23.4)">
    <path d="M58.1 32.05 L63.4 34.7 57.55 35.35 59.9 40.75 55.05 37.4 53.4 43.1 51.8 37.4 46.85 40.75 49.3 35.35 43.4 34.7 48.75 32.05 44.6 27.85 50.35 29.25 49.9 23.4 53.4 28.2 56.85 23.4 56.5 29.25 62.15 27.85 58.1 32.05" fill="#d0c18e" fill-opacity="0.3019608" fill-rule="evenodd" stroke="none"/>
    <path d="M60.15 27.5 L51.25 36.65 52.25 37.7 51.6 38.35 49.95 37.45 49.6 37.8 48.45 38.95 46.9 40.5 46.8 40.4 46.55 40.95 46.05 41.15 Q45.75 41.2 45.55 40.95 L45.3 40.45 45.5 39.95 Q45.75 39.7 46.05 39.7 L46.1 39.7 46.0 39.6 46.65 38.95 47.8 37.8 49.05 36.55 48.15 34.9 48.8 34.25 49.85 35.25 61.1 24.05 Q61.9 25.05 60.15 27.5 M46.65 38.95 L48.45 38.95 46.65 38.95 M46.8 40.4 L46.6 39.9 46.1 39.7 46.6 39.9 46.8 40.4 M54.05 32.65 L50.6 36.05 51.25 36.65 50.6 36.05 49.85 35.25 50.6 36.05 54.05 32.65 M49.05 36.55 L49.95 37.45 49.05 36.55 M49.6 37.8 L47.8 37.8 49.6 37.8" fill="#d0c18e" fill-opacity="0.3019608" fill-rule="evenodd" stroke="none"/>
    <path d="M60.15 27.5 L51.25 36.65 52.25 37.7 51.6 38.35 49.95 37.45 49.6 37.8 48.45 38.95 46.9 40.5 46.8 40.4 46.55 40.95 46.05 41.15 Q45.75 41.2 45.55 40.95 L45.3 40.45 45.5 39.95 Q45.75 39.7 46.05 39.7 L46.1 39.7 46.0 39.6 46.65 38.95 47.8 37.8 49.05 36.55 48.15 34.9 48.8 34.25 49.85 35.25 61.1 24.05 Q61.9 25.05 60.15 27.5 M51.25 36.65 L50.6 36.05 49.85 35.25 M47.8 37.8 L49.6 37.8 M49.95 37.45 L49.05 36.55 M50.6 36.05 L54.05 32.65 M46.1 39.7 L46.6 39.9 46.8 40.4 M48.45 38.95 L46.65 38.95" fill="none" stroke="#d0c18e" stroke-linecap="round" stroke-linejoin="round" stroke-width="1.0"/>
    <path d="M104.6 28.7 Q102.25 28.65 99.85 27.55 L99.85 32.75 99.85 36.65 Q102.25 39.1 104.6 39.2 107.15 39.3 109.7 36.65 L109.7 32.75 109.7 27.55 Q107.15 28.75 104.6 28.7 107.15 28.75 109.7 27.55 L109.7 32.75 109.7 36.65 Q107.15 39.3 104.6 39.2 102.25 39.1 99.85 36.65 L99.85 32.75 99.85 27.55 Q102.25 28.65 104.6 28.7 M112.0 25.1 L112.0 37.6 Q104.9 44.65 97.8 37.6 L97.8 25.1 Q104.9 28.35 112.0 25.1 M99.85 32.75 Q102.25 33.9 104.6 33.95 107.15 34.0 109.7 32.75 107.15 34.0 104.6 33.95 102.25 33.9 99.85 32.75" fill="#d0c18e" fill-opacity="0.3019608" fill-rule="evenodd" stroke="none"/>
    <path d="M104.6 28.7 Q107.15 28.75 109.7 27.55 L109.7 32.75 109.7 36.65 Q107.15 39.3 104.6 39.2 102.25 39.1 99.85 36.65 L99.85 32.75 99.85 27.55 Q102.25 28.65 104.6 28.7 M112.0 25.1 L112.0 37.6 Q104.9 44.65 97.8 37.6 L97.8 25.1 Q104.9 28.35 112.0 25.1 M109.7 32.75 Q107.15 34.0 104.6 33.95 102.25 33.9 99.85 32.75" fill="none" stroke="#d0c18e" stroke-linecap="round" stroke-linejoin="round" stroke-width="1.0"/>
    <path d="M154.4 30.15 Q154.95 31.5 154.95 33.1 154.95 36.4 152.6 38.75 150.25 41.1 146.95 41.1 L144.0 40.55 Q142.5 39.95 141.3 38.75 L140.35 37.65 139.45 36.0 Q138.95 34.65 138.95 33.1 138.95 29.75 141.3 27.45 143.6 25.1 146.95 25.1 148.5 25.1 149.85 25.6 L151.5 26.5 152.6 27.45 Q153.8 28.65 154.4 30.15 L144.0 40.55 154.4 30.15 M139.45 36.0 L149.85 25.6 139.45 36.0 M151.5 26.5 L140.35 37.65 151.5 26.5" fill="#72c7eb" fill-opacity="0.3019608" fill-rule="evenodd" stroke="none"/>
    <path d="M154.4 30.15 Q154.95 31.5 154.95 33.1 154.95 36.4 152.6 38.75 150.25 41.1 146.95 41.1 L144.0 40.55 Q142.5 39.95 141.3 38.75 L140.35 37.65 139.45 36.0 Q138.95 34.65 138.95 33.1 138.95 29.75 141.3 27.45 143.6 25.1 146.95 25.1 148.5 25.1 149.85 25.6 L151.5 26.5 152.6 27.45 Q153.8 28.65 154.4 30.15 L144.0 40.55 M140.35 37.65 L151.5 26.5 M149.85 25.6 L139.45 36.0" fill="none" stroke="#64f9f9" stroke-linecap="round" stroke-linejoin="round" stroke-width="1.0"/>
  </g>
</svg>
