<?xml version="1.0" encoding="UTF-8" standalone="no"?>
<svg xmlns:xlink="http://www.w3.org/1999/xlink" height="26.35px" width="18.0px" xmlns="http://www.w3.org/2000/svg">
  <g transform="matrix(1.0, 0.0, 0.0, 1.0, 8.9, 13.35)">
    <path d="M-8.4 -4.5 Q-8.4 -8.0 -5.9 -10.5 -3.95 -12.45 -1.4 -12.85 L-1.4 -4.45 -8.4 -4.45 -8.4 -4.5 M8.6 4.0 Q8.6 7.5 6.1 10.0 3.6 12.5 0.1 12.5 -3.4 12.5 -5.9 10.0 -8.4 7.5 -8.4 4.0 L-8.4 -1.45 8.6 -1.45 8.6 4.0 M8.6 -4.45 L1.6 -4.45 1.6 -12.85 Q4.15 -12.45 6.1 -10.5 8.6 -8.0 8.6 -4.5 L8.6 -4.45" fill="#d0c18e" fill-opacity="0.3019608" fill-rule="evenodd" stroke="none"/>
    <path d="M8.6 -4.45 L8.6 -4.5 Q8.6 -8.0 6.1 -10.5 4.15 -12.45 1.6 -12.85 L1.6 -4.45 8.6 -4.45 M8.6 4.0 L8.6 -1.45 -8.4 -1.45 -8.4 4.0 Q-8.4 7.5 -5.9 10.0 -3.4 12.5 0.1 12.5 3.6 12.5 6.1 10.0 8.6 7.5 8.6 4.0 M-8.4 -4.5 L-8.4 -4.45 -1.4 -4.45 -1.4 -12.85 Q-3.95 -12.45 -5.9 -10.5 -8.4 -8.0 -8.4 -4.5" fill="none" stroke="#d0c18e" stroke-linecap="round" stroke-linejoin="round" stroke-width="1.0"/>
  </g>
</svg>
