<?xml version="1.0" encoding="UTF-8" standalone="no"?>
<svg xmlns:xlink="http://www.w3.org/1999/xlink" height="20.2px" width="26.9px" xmlns="http://www.w3.org/2000/svg">
  <g transform="matrix(1.0, 0.0, 0.0, 1.0, 13.45, 10.1)">
    <path d="M3.1 -3.15 L4.45 -1.75 5.2 -0.1 Q0.8 -0.95 -3.0 1.75 L-4.3 0.05 -5.35 -1.25 -5.3 -1.3 -4.3 -1.8 Q-1.15 -3.35 3.1 -3.15 -1.15 -3.35 -4.3 -1.8 L-5.3 -1.3 -5.35 -1.25 -4.3 0.05 -3.0 1.75 Q0.8 -0.95 5.2 -0.1 5.45 0.85 5.3 1.85 L4.9 3.0 Q3.95 4.75 1.85 5.3 0.55 5.65 -0.65 6.4 L-2.1 7.55 Q-3.2 8.7 -4.65 9.45 L-5.7 9.55 Q-8.2 9.9 -10.3 8.3 -12.2 6.9 -12.9 4.75 L-12.95 3.45 Q-12.3 -0.65 -8.8 -2.95 -7.25 -4.0 -5.4 -4.5 L-1.65 -4.6 -0.35 -4.35 3.1 -3.15 M-5.35 -1.25 Q-6.7 -2.6 -8.8 -2.95 -6.7 -2.6 -5.35 -1.25" fill="#d0c18e" fill-opacity="0.3019608" fill-rule="evenodd" stroke="none"/>
    <path d="M5.2 -0.1 L4.45 -1.75 3.1 -3.15 Q-1.15 -3.35 -4.3 -1.8 L-5.3 -1.3 -5.35 -1.25 -4.3 0.05 -3.0 1.75 Q0.8 -0.95 5.2 -0.1 5.45 0.85 5.3 1.85 L4.9 3.0 Q3.95 4.75 1.85 5.3 0.55 5.65 -0.65 6.4 L-2.1 7.55 Q-3.2 8.7 -4.65 9.45 L-5.7 9.55 Q-8.2 9.9 -10.3 8.3 -12.2 6.9 -12.9 4.75 L-12.95 3.45 Q-12.3 -0.65 -8.8 -2.95 -7.25 -4.0 -5.4 -4.5 L-1.65 -4.6 -0.35 -4.35 3.1 -3.15 M4.45 -1.75 L8.2 -1.9 Q10.0 -1.0 11.8 -1.5 12.95 -1.75 12.95 -3.0 12.95 -3.9 12.35 -4.55 9.9 -7.2 6.35 -7.15 L0.95 -6.5 -2.15 -6.55 Q-3.45 -7.0 -3.8 -7.85 -3.95 -8.35 -3.55 -8.85 -3.15 -9.35 -2.5 -9.45 L-1.2 -9.6 M-8.8 -2.95 Q-6.7 -2.6 -5.35 -1.25" fill="none" stroke="#d0c18e" stroke-linecap="round" stroke-linejoin="round" stroke-width="1.0"/>
  </g>
</svg>
