<?xml version="1.0" encoding="UTF-8" standalone="no"?>
<svg xmlns:xlink="http://www.w3.org/1999/xlink" height="37.0px" width="37.0px" xmlns="http://www.w3.org/2000/svg">
  <g transform="matrix(1.0, 0.0, 0.0, 1.0, 18.5, 18.5)">
    <path d="M0.0 -16.0 Q6.65 -16.0 11.35 -11.35 16.0 -6.65 16.0 0.0 16.0 6.6 11.35 11.3 6.65 16.0 0.0 16.0 -6.6 16.0 -11.3 11.3 -16.0 6.6 -16.0 0.0 -16.0 -6.65 -11.3 -11.35 -6.6 -16.0 0.0 -16.0" fill="#180e0a" fill-rule="evenodd" stroke="none"/>
    <path d="M0.0 -18.0 Q7.5 -18.0 12.75 -12.75 18.0 -7.5 18.0 0.0 18.0 7.45 12.75 12.7 7.5 18.0 0.0 18.0 -7.4 18.0 -12.7 12.7 -18.0 7.45 -18.0 0.0 -18.0 -7.5 -12.7 -12.75 -7.4 -18.0 0.0 -18.0" fill="none" stroke="#efcc80" stroke-linecap="round" stroke-linejoin="round" stroke-opacity="0.3019608" stroke-width="1.0"/>
    <path d="M0.0 -16.0 Q6.65 -16.0 11.35 -11.35 16.0 -6.65 16.0 0.0 16.0 6.6 11.35 11.3 6.65 16.0 0.0 16.0 -6.6 16.0 -11.3 11.3 -16.0 6.6 -16.0 0.0 -16.0 -6.65 -11.3 -11.35 -6.6 -16.0 0.0 -16.0" fill="none" stroke="#efcc80" stroke-linecap="round" stroke-linejoin="round" stroke-width="1.0"/>
    <path d="M-11.8 -3.4 Q-11.8 -7.3 -8.35 -10.1 -4.85 -12.85 0.0 -12.85 4.9 -12.85 8.35 -10.1 11.85 -7.3 11.85 -3.4 L11.65 -1.55 Q11.0 0.2 8.35 1.5 4.9 3.35 0.0 3.35 -4.85 3.35 -8.35 1.5 -10.95 0.2 -11.6 -1.55 L-11.8 -3.4" fill="#3d2318" fill-rule="evenodd" stroke="none"/>
  </g>
</svg>
