<?xml version="1.0" encoding="UTF-8" standalone="no"?>
<svg xmlns:xlink="http://www.w3.org/1999/xlink" height="31.0px" width="192.3px" xmlns="http://www.w3.org/2000/svg">
  <g transform="matrix(1.0, 0.0, 0.0, 1.0, 11.3, -3.8)">
    <path d="M175.7 5.3 Q177.3 8.5 178.25 11.6 179.75 16.65 179.45 21.5 179.05 27.6 175.7 33.3 L-6.15 33.3 Q-9.25 27.4 -9.7 21.5 -10.1 16.55 -8.7 11.6 -7.8 8.45 -6.15 5.3 L175.7 5.3" fill="url(#gradient0)" fill-rule="evenodd" stroke="none"/>
    <path d="M-6.15 33.3 L175.7 33.3 Q179.05 27.6 179.45 21.5 179.75 16.65 178.25 11.6 177.3 8.5 175.7 5.3" fill="none" stroke="#653201" stroke-linecap="round" stroke-linejoin="round" stroke-width="3.0"/>
    <path d="M175.7 5.3 L-6.15 5.3 Q-7.8 8.45 -8.7 11.6 -10.1 16.55 -9.7 21.5 -9.25 27.4 -6.15 33.3 Z" fill="none" stroke="#ffcc99" stroke-linecap="round" stroke-linejoin="round" stroke-width="3.0"/>
  </g>
  <defs>
    <linearGradient gradientTransform="matrix(-0.1743, 0.0, 0.0, 0.0171, 136.65, 19.35)" gradientUnits="userSpaceOnUse" id="gradient0" spreadMethod="pad" x1="-819.2" x2="819.2">
      <stop offset="0.0" stop-color="#452c21" stop-opacity="0.42352942"/>
      <stop offset="1.0" stop-color="#a94401" stop-opacity="0.8"/>
    </linearGradient>
  </defs>
</svg>
