<?xml version="1.0" encoding="UTF-8" standalone="no"?>
<svg xmlns:xlink="http://www.w3.org/1999/xlink" height="30.0px" width="30.0px" xmlns="http://www.w3.org/2000/svg">
  <g transform="matrix(1.0, 0.0, 0.0, 1.0, 36.0, -3.0)">
    <path d="M-17.5 21.55 Q-16.0 20.05 -16.0 18.0 -16.0 15.95 -17.5 14.45 -18.95 13.0 -21.0 13.0 -23.05 13.0 -24.55 14.45 -26.0 15.95 -26.0 18.0 -26.0 20.05 -24.55 21.55 -23.05 23.0 -21.0 23.0 -18.95 23.0 -17.5 21.55 M-6.0 18.0 Q-6.0 24.2 -10.4 28.55 -14.8 33.0 -21.0 33.0 -27.15 33.0 -31.6 28.55 -36.0 24.2 -36.0 18.0 -36.0 11.8 -31.6 7.35 -27.15 3.0 -21.0 3.0 -14.8 3.0 -10.4 7.35 -6.0 11.8 -6.0 18.0" fill="url(#gradient0)" fill-rule="evenodd" stroke="none"/>
    <path d="M-17.5 21.55 Q-18.95 23.0 -21.0 23.0 -23.05 23.0 -24.55 21.55 -26.0 20.05 -26.0 18.0 -26.0 15.95 -24.55 14.45 -23.05 13.0 -21.0 13.0 -18.95 13.0 -17.5 14.45 -16.0 15.95 -16.0 18.0 -16.0 20.05 -17.5 21.55" fill="#3a2e1f" fill-rule="evenodd" stroke="none"/>
  </g>
  <defs>
    <radialGradient cx="0" cy="0" gradientTransform="matrix(0.0184, 0.0, 0.0, 0.0184, -21.0, 18.0)" gradientUnits="userSpaceOnUse" id="gradient0" r="819.2" spreadMethod="pad">
      <stop offset="0.4392156862745098" stop-color="#f0863f" stop-opacity="0.21176471"/>
      <stop offset="0.7607843137254902" stop-color="#f8724b" stop-opacity="0.09019608"/>
      <stop offset="1.0" stop-color="#703800" stop-opacity="0.0"/>
    </radialGradient>
  </defs>
</svg>
