<?xml version="1.0" encoding="UTF-8" standalone="no"?>
<svg xmlns:xlink="http://www.w3.org/1999/xlink" height="16.0px" width="600.0px" xmlns="http://www.w3.org/2000/svg">
  <g transform="matrix(1.0, 0.0, 0.0, 1.0, 400.0, -10.0)">
    <path d="M200.0 19.45 L200.0 26.0 -400.0 26.0 -400.0 19.45 200.0 19.45 M-400.0 12.55 L-400.0 10.0 200.0 10.0 200.0 12.55 -400.0 12.55" fill="url(#gradient0)" fill-rule="evenodd" stroke="none"/>
    <path d="M200.0 12.55 L200.0 19.45 -400.0 19.45 -400.0 12.55 200.0 12.55" fill="url(#gradient1)" fill-rule="evenodd" stroke="none"/>
    <path d="M-11.5 14.45 Q-10.0 15.95 -10.0 18.0 L-10.2 19.45 Q-10.55 20.6 -11.5 21.55 -12.95 23.0 -15.0 23.0 -17.05 23.0 -18.55 21.55 -19.45 20.6 -19.8 19.45 L-20.0 18.0 Q-20.0 15.95 -18.55 14.45 -17.05 13.0 -15.0 13.0 -12.95 13.0 -11.5 14.45" fill="#180e0a" fill-rule="evenodd" stroke="none"/>
    <path d="M-11.5 14.45 Q-10.0 15.95 -10.0 18.0 L-10.2 19.45 Q-10.55 20.6 -11.5 21.55 -12.95 23.0 -15.0 23.0 -17.05 23.0 -18.55 21.55 -19.45 20.6 -19.8 19.45 L-20.0 18.0 Q-20.0 15.95 -18.55 14.45 -17.05 13.0 -15.0 13.0 -12.95 13.0 -11.5 14.45 Z" fill="none" stroke="#7b5c2f" stroke-linecap="round" stroke-linejoin="round" stroke-width="1.0"/>
  </g>
  <defs>
    <linearGradient gradientTransform="matrix(0.0283, 0.0, 0.0, 0.0098, 160.55, 21.15)" gradientUnits="userSpaceOnUse" id="gradient0" spreadMethod="pad" x1="-819.2" x2="819.2">
      <stop offset="0.0" stop-color="#180e0a" stop-opacity="0.3019608"/>
      <stop offset="1.0" stop-color="#180e0a" stop-opacity="0.0"/>
    </linearGradient>
    <linearGradient gradientTransform="matrix(0.0283, 0.0, 0.0, 0.0098, 160.55, 21.15)" gradientUnits="userSpaceOnUse" id="gradient1" spreadMethod="pad" x1="-819.2" x2="819.2">
      <stop offset="0.0" stop-color="#50280a" stop-opacity="0.3019608"/>
      <stop offset="1.0" stop-color="#642800" stop-opacity="0.0"/>
    </linearGradient>
  </defs>
</svg>
