<?xml version="1.0" encoding="UTF-8" standalone="no"?>
<svg xmlns:xlink="http://www.w3.org/1999/xlink" height="30.0px" width="600.0px" xmlns="http://www.w3.org/2000/svg">
  <g transform="matrix(1.0, 0.0, 0.0, 1.0, 400.0, -3.0)">
    <path d="M200.0 26.0 L-400.0 26.0 -400.0 10.0 200.0 10.0 200.0 26.0" fill="#181e64" fill-opacity="0.4" fill-rule="evenodd" stroke="none"/>
    <path d="M-18.55 21.55 Q-20.0 20.05 -20.0 18.0 -20.0 15.95 -18.55 14.45 -17.05 13.0 -15.0 13.0 -12.95 13.0 -11.5 14.45 -10.0 15.95 -10.0 18.0 -10.0 20.05 -11.5 21.55 -12.95 23.0 -15.0 23.0 -17.05 23.0 -18.55 21.55" fill="#d3ffff" fill-rule="evenodd" stroke="none"/>
    <path d="M-18.55 21.55 Q-17.05 23.0 -15.0 23.0 -12.95 23.0 -11.5 21.55 -10.0 20.05 -10.0 18.0 -10.0 15.95 -11.5 14.45 -12.95 13.0 -15.0 13.0 -17.05 13.0 -18.55 14.45 -20.0 15.95 -20.0 18.0 -20.0 20.05 -18.55 21.55 M-4.4 7.35 Q0.0 11.8 0.0 18.0 0.0 24.2 -4.4 28.55 -8.8 33.0 -15.0 33.0 -21.15 33.0 -25.6 28.55 -30.0 24.2 -30.0 18.0 -30.0 11.8 -25.6 7.35 -21.15 3.0 -15.0 3.0 -8.8 3.0 -4.4 7.35" fill="url(#gradient0)" fill-rule="evenodd" stroke="none"/>
  </g>
  <defs>
    <radialGradient cx="0" cy="0" gradientTransform="matrix(0.0184, 0.0, 0.0, 0.0184, -15.0, 18.0)" gradientUnits="userSpaceOnUse" id="gradient0" r="819.2" spreadMethod="pad">
      <stop offset="0.4392156862745098" stop-color="#7cccff"/>
      <stop offset="0.7607843137254902" stop-color="#3578ff" stop-opacity="0.2509804"/>
      <stop offset="1.0" stop-color="#0038ff" stop-opacity="0.0"/>
    </radialGradient>
  </defs>
</svg>
