<?xml version="1.0" encoding="UTF-8" standalone="no"?>
<svg xmlns:xlink="http://www.w3.org/1999/xlink" height="39.0px" width="82.5px" xmlns="http://www.w3.org/2000/svg">
  <g transform="matrix(1.0, 0.0, 0.0, 1.0, -161.2, -249.0)">
    <path d="M243.7 258.05 L243.7 267.95 213.45 267.95 213.45 258.05 Q213.45 253.65 217.55 253.65 L239.6 253.65 Q243.7 253.65 243.7 258.05" fill="#ffffff" fill-opacity="0.2" fill-rule="evenodd" stroke="none"/>
    <path d="M167.2 287.0 Q162.2 287.0 162.2 282.0 L162.2 255.0 Q162.2 250.0 167.2 250.0 L194.2 250.0 Q199.2 250.0 199.2 255.0 L199.2 282.0 Q199.2 287.0 194.2 287.0 L167.2 287.0" fill="#918970" fill-rule="evenodd" stroke="none"/>
    <path d="M167.2 287.0 L194.2 287.0 Q199.2 287.0 199.2 282.0 L199.2 255.0 Q199.2 250.0 194.2 250.0 L167.2 250.0 Q162.2 250.0 162.2 255.0 L162.2 282.0 Q162.2 287.0 167.2 287.0 Z" fill="none" stroke="#493425" stroke-linecap="round" stroke-linejoin="round" stroke-width="2.0"/>
  </g>
</svg>
