<?xml version="1.0" encoding="UTF-8" standalone="no"?>
<svg xmlns:xlink="http://www.w3.org/1999/xlink" height="39.05px" width="91.0px" xmlns="http://www.w3.org/2000/svg">
  <g transform="matrix(1.0, 0.0, 0.0, 1.0, -299.1, -249.0)">
    <path d="M300.1 255.0 Q300.1 250.0 305.1 250.0 L384.1 250.0 Q389.1 250.0 389.1 255.0 L389.1 282.05 Q389.1 287.05 384.1 287.05 L305.1 287.05 Q300.1 287.05 300.1 282.05 L300.1 255.0" fill="#918970" fill-rule="evenodd" stroke="none"/>
    <path d="M300.1 255.0 L300.1 282.05 Q300.1 287.05 305.1 287.05 L384.1 287.05 Q389.1 287.05 389.1 282.05 L389.1 255.0 Q389.1 250.0 384.1 250.0 L305.1 250.0 Q300.1 250.0 300.1 255.0 Z" fill="none" stroke="#493425" stroke-linecap="round" stroke-linejoin="round" stroke-width="2.0"/>
  </g>
</svg>
