<?xml version="1.0" encoding="UTF-8" standalone="no"?>
<svg xmlns:xlink="http://www.w3.org/1999/xlink" height="85.0px" width="135.0px" xmlns="http://www.w3.org/2000/svg">
  <g transform="matrix(1.0, 0.0, 0.0, 1.0, -338.9, -179.0)">
    <path d="M344.9 263.0 Q339.9 263.0 339.9 258.0 L339.9 231.0 Q339.9 226.0 344.9 226.0 L371.9 226.0 Q376.9 226.0 376.9 231.0 L376.9 258.0 Q376.9 263.0 371.9 263.0 L344.9 263.0" fill="#918970" fill-rule="evenodd" stroke="none"/>
    <path d="M344.9 263.0 L371.9 263.0 Q376.9 263.0 376.9 258.0 L376.9 231.0 Q376.9 226.0 371.9 226.0 L344.9 226.0 Q339.9 226.0 339.9 231.0 L339.9 258.0 Q339.9 263.0 344.9 263.0 Z" fill="none" stroke="#493425" stroke-linecap="round" stroke-linejoin="round" stroke-width="2.0"/>
    <path d="M373.4 234.05 L373.4 243.95 343.15 243.95 343.15 234.05 Q343.15 229.65 347.25 229.65 L369.3 229.65 Q373.4 229.65 373.4 234.05" fill="#ffffff" fill-opacity="0.2" fill-rule="evenodd" stroke="none"/>
    <path d="M350.25 254.05 L365.5 254.05" fill="none" stroke="#493425" stroke-linecap="round" stroke-linejoin="round" stroke-width="2.0"/>
    <path d="M354.55 258.2 L344.9 254.1 354.55 250.0 354.55 258.2" fill="#493425" fill-rule="evenodd" stroke="none"/>
    <path d="M392.9 226.0 L419.9 226.0 Q424.9 226.0 424.9 231.0 L424.9 258.0 Q424.9 263.0 419.9 263.0 L392.9 263.0 Q387.9 263.0 387.9 258.0 L387.9 231.0 Q387.9 226.0 392.9 226.0" fill="#918970" fill-rule="evenodd" stroke="none"/>
    <path d="M392.9 226.0 Q387.9 226.0 387.9 231.0 L387.9 258.0 Q387.9 263.0 392.9 263.0 L419.9 263.0 Q424.9 263.0 424.9 258.0 L424.9 231.0 Q424.9 226.0 419.9 226.0 L392.9 226.0 Z" fill="none" stroke="#493425" stroke-linecap="round" stroke-linejoin="round" stroke-width="2.0"/>
    <path d="M421.4 234.05 L421.4 243.95 391.15 243.95 391.15 234.05 Q391.15 229.65 395.25 229.65 L417.3 229.65 Q421.4 229.65 421.4 234.05" fill="#ffffff" fill-opacity="0.2" fill-rule="evenodd" stroke="none"/>
    <path d="M397.95 253.25 L397.95 238.0" fill="none" stroke="#493425" stroke-linecap="round" stroke-linejoin="round" stroke-width="2.0"/>
    <path d="M402.1 248.95 L398.0 258.6 393.9 248.95 402.1 248.95" fill="#493425" fill-rule="evenodd" stroke="none"/>
    <path d="M440.9 226.0 L467.9 226.0 Q472.9 226.0 472.9 231.0 L472.9 258.0 Q472.9 263.0 467.9 263.0 L440.9 263.0 Q435.9 263.0 435.9 258.0 L435.9 231.0 Q435.9 226.0 440.9 226.0" fill="#918970" fill-rule="evenodd" stroke="none"/>
    <path d="M440.9 226.0 Q435.9 226.0 435.9 231.0 L435.9 258.0 Q435.9 263.0 440.9 263.0 L467.9 263.0 Q472.9 263.0 472.9 258.0 L472.9 231.0 Q472.9 226.0 467.9 226.0 L440.9 226.0 Z" fill="none" stroke="#493425" stroke-linecap="round" stroke-linejoin="round" stroke-width="2.0"/>
    <path d="M469.4 234.05 L469.4 243.95 439.15 243.95 439.15 234.05 Q439.15 229.65 443.25 229.65 L465.3 229.65 Q469.4 229.65 469.4 234.05" fill="#ffffff" fill-opacity="0.2" fill-rule="evenodd" stroke="none"/>
    <path d="M457.15 254.15 L441.9 254.15" fill="none" stroke="#493425" stroke-linecap="round" stroke-linejoin="round" stroke-width="2.0"/>
    <path d="M452.85 250.0 L462.5 254.1 452.85 258.2 452.85 250.0" fill="#493425" fill-rule="evenodd" stroke="none"/>
    <path d="M424.9 185.0 L424.9 212.0 Q424.9 217.0 419.9 217.0 L392.9 217.0 Q387.9 217.0 387.9 212.0 L387.9 185.0 Q387.9 180.0 392.9 180.0 L419.9 180.0 Q424.9 180.0 424.9 185.0" fill="#918970" fill-rule="evenodd" stroke="none"/>
    <path d="M424.9 185.0 Q424.9 180.0 419.9 180.0 L392.9 180.0 Q387.9 180.0 387.9 185.0 L387.9 212.0 Q387.9 217.0 392.9 217.0 L419.9 217.0 Q424.9 217.0 424.9 212.0 L424.9 185.0 Z" fill="none" stroke="#493425" stroke-linecap="round" stroke-linejoin="round" stroke-width="2.0"/>
    <path d="M421.4 188.05 L421.4 197.95 391.15 197.95 391.15 188.05 Q391.15 183.65 395.25 183.65 L417.3 183.65 Q421.4 183.65 421.4 188.05" fill="#ffffff" fill-opacity="0.2" fill-rule="evenodd" stroke="none"/>
    <path d="M398.05 195.35 L398.05 210.6" fill="none" stroke="#493425" stroke-linecap="round" stroke-linejoin="round" stroke-width="2.0"/>
    <path d="M393.9 199.65 L398.0 190.0 402.1 199.65 393.9 199.65" fill="#493425" fill-rule="evenodd" stroke="none"/>
  </g>
</svg>
