<?xml version="1.0" encoding="UTF-8" standalone="no"?>
<svg xmlns:xlink="http://www.w3.org/1999/xlink" height="284.35px" width="272.75px" xmlns="http://www.w3.org/2000/svg">
  <g transform="matrix(1.0, 0.0, 0.0, 1.0, -85.25, -103.65)">
    <path d="M115.5 108.05 L115.5 117.95 85.25 117.95 85.25 108.05 Q85.25 103.65 89.35 103.65 L111.4 103.65 Q115.5 103.65 115.5 108.05" fill="#ffffff" fill-opacity="0.2" fill-rule="evenodd" stroke="none"/>
    <path d="M352.0 350.0 Q357.0 350.0 357.0 355.0 L357.0 382.0 Q357.0 387.0 352.0 387.0 L325.0 387.0 Q320.0 387.0 320.0 382.0 L320.0 355.0 Q320.0 350.0 325.0 350.0 L352.0 350.0" fill="#918970" fill-rule="evenodd" stroke="none"/>
    <path d="M352.0 350.0 L325.0 350.0 Q320.0 350.0 320.0 355.0 L320.0 382.0 Q320.0 387.0 325.0 387.0 L352.0 387.0 Q357.0 387.0 357.0 382.0 L357.0 355.0 Q357.0 350.0 352.0 350.0 Z" fill="none" stroke="#493425" stroke-linecap="round" stroke-linejoin="round" stroke-width="2.0"/>
  </g>
</svg>
