<?xml version="1.0" encoding="UTF-8" standalone="no"?>
<svg xmlns:xlink="http://www.w3.org/1999/xlink" height="382.45px" width="458.5px" xmlns="http://www.w3.org/2000/svg">
  <g transform="matrix(1.0, 0.0, 0.0, 1.0, -14.5, -82.0)">
    <path d="M109.0 374.95 Q109.0 361.7 118.35 352.3 127.75 342.95 141.0 342.95 L247.95 342.95 Q261.2 342.95 270.55 352.3 279.95 361.7 279.95 374.95 279.95 388.2 270.55 397.55 261.2 406.95 247.95 406.95 L141.0 406.95 Q127.75 406.95 118.35 397.55 109.0 388.2 109.0 374.95 M185.95 82.0 Q206.65 82.0 221.25 96.65 235.9 111.3 235.9 132.0 L235.9 203.0 Q235.9 223.7 221.25 238.35 206.65 253.0 185.95 253.0 L114.95 253.0 Q94.25 253.0 79.6 238.35 65.0 223.7 65.0 203.0 L65.0 132.0 Q65.0 111.3 79.6 96.65 94.25 82.0 114.95 82.0 L185.95 82.0 M356.95 345.95 L361.95 345.95 Q373.95 345.95 382.45 354.45 390.95 362.95 390.95 374.95 390.95 386.95 382.45 395.45 373.95 403.95 361.95 403.95 L356.95 403.95 Q344.95 403.95 336.45 395.45 327.95 386.95 327.95 374.95 327.95 362.95 336.45 354.45 344.95 345.95 356.95 345.95 M333.5 86.0 Q345.75 86.0 354.35 94.6 363.0 103.25 363.0 115.5 L363.0 221.5 Q363.0 233.75 354.35 242.35 345.75 251.0 333.5 251.0 321.25 251.0 312.6 242.35 304.0 233.75 304.0 221.5 L304.0 115.5 Q304.0 103.25 312.6 94.6 321.25 86.0 333.5 86.0 M422.6 94.6 Q431.25 86.0 443.5 86.0 455.75 86.0 464.35 94.6 473.0 103.25 473.0 115.5 L473.0 221.5 Q473.0 233.75 464.35 242.35 455.75 251.0 443.5 251.0 431.25 251.0 422.6 242.35 414.0 233.75 414.0 221.5 L414.0 115.5 Q414.0 103.25 422.6 94.6" fill="#27160c" fill-opacity="0.5019608" fill-rule="evenodd" stroke="none"/>
    <path d="M15.0 463.95 L73.0 463.95 61.0 451.95" fill="none" stroke="#efcc80" stroke-linecap="round" stroke-linejoin="round" stroke-width="1.0"/>
  </g>
</svg>
