<?xml version="1.0" encoding="UTF-8" standalone="no"?>
<svg xmlns:xlink="http://www.w3.org/1999/xlink" height="17.0px" width="21.0px" xmlns="http://www.w3.org/2000/svg">
  <g transform="matrix(1.0, 0.0, 0.0, 1.0, -224.5, -11.5)">
    <path d="M227.2 12.0 L227.2 23.25 242.7 23.25 242.7 12.0 245.0 12.0 245.0 18.3 245.0 28.0 225.0 28.0 225.0 18.3 225.0 12.0 227.2 12.0" fill="#845125" fill-rule="evenodd" stroke="none"/>
    <path d="M242.7 12.0 L242.7 23.25 227.2 23.25 227.2 12.0 242.7 12.0" fill="#aa6625" fill-rule="evenodd" stroke="none"/>
    <path d="M232.7 18.3 L227.45 18.3 227.4 18.3 227.2 18.3 225.0 18.3 225.0 28.0 245.0 28.0 245.0 18.3 242.7 18.3 241.9 18.3 241.7 18.3 237.25 18.3 237.25 20.55 232.7 20.55 232.7 18.3 232.7 15.9 237.25 15.9 237.25 18.3 M225.0 18.3 L225.0 12.0 245.0 12.0 245.0 18.3" fill="none" stroke="#e2ba5e" stroke-linecap="round" stroke-linejoin="round" stroke-width="1.0"/>
  </g>
</svg>
