<?xml version="1.0" encoding="UTF-8" standalone="no"?>
<svg xmlns:xlink="http://www.w3.org/1999/xlink" height="101.0px" width="413.0px" xmlns="http://www.w3.org/2000/svg">
  <g transform="matrix(1.0, 0.0, 0.0, 1.0, -49.5, -599.5)">
    <path d="M461.0 697.8 Q461.35 698.9 462.0 700.0 L382.0 700.0 Q381.1 698.9 380.65 697.8 L461.0 697.8 M380.15 693.8 L380.0 603.8 Q380.45 601.9 382.0 600.0 L382.0 616.0 382.0 674.0 382.0 690.0 Q380.5 691.9 380.15 693.8" fill="#660099" fill-rule="evenodd" stroke="none"/>
    <path d="M132.0 690.0 Q129.75 693.9 131.0 697.75 L131.0 697.8 50.65 697.8 Q49.75 695.8 50.15 693.8 50.5 691.9 52.0 690.0 L68.0 690.0 116.0 690.0 132.0 690.0 M160.65 697.8 Q159.75 695.8 160.15 693.8 160.5 691.9 162.0 690.0 L178.0 690.0 226.0 690.0 242.0 690.0 Q239.75 693.9 241.0 697.75 L241.0 697.8 160.65 697.8 M129.75 692.25 L53.75 692.25 129.75 692.25 M129.25 693.75 L53.75 693.75 129.25 693.75 M52.0 696.0 L128.75 696.0 52.0 696.0 M270.15 693.8 Q270.5 691.9 272.0 690.0 L288.0 690.0 335.95 690.0 351.95 690.0 Q349.7 693.9 350.95 697.75 L350.95 697.8 270.65 697.8 Q269.75 695.8 270.15 693.8 M162.0 696.0 L238.75 696.0 162.0 696.0 M239.25 693.75 L163.75 693.75 239.25 693.75 M239.75 692.25 L163.75 692.25 239.75 692.25 M462.0 690.0 Q459.75 693.9 461.0 697.75 L461.0 697.8 380.65 697.8 Q379.75 695.8 380.15 693.8 380.5 691.9 382.0 690.0 L398.0 690.0 446.0 690.0 462.0 690.0 M382.0 696.0 L458.75 696.0 382.0 696.0 M459.25 693.75 L383.75 693.75 459.25 693.75 M459.75 692.25 L383.75 692.25 459.75 692.25 M272.0 696.0 L348.7 696.0 272.0 696.0 M349.2 693.75 L273.75 693.75 349.2 693.75 M349.7 692.25 L273.75 692.25 349.7 692.25" fill="#f1e1ba" fill-rule="evenodd" stroke="none"/>
    <path d="M116.0 600.0 L132.0 600.0 132.0 616.0 116.0 600.0 M132.0 674.0 L132.0 690.0 116.0 690.0 132.0 674.0 M52.0 600.0 L68.0 600.0 52.0 616.0 52.0 600.0 M68.0 690.0 L52.0 690.0 52.0 674.0 68.0 690.0 M162.0 600.0 L178.0 600.0 162.0 616.0 162.0 600.0 M226.0 600.0 L242.0 600.0 242.0 616.0 226.0 600.0 M242.0 674.0 L242.0 690.0 226.0 690.0 242.0 674.0 M272.0 690.0 L272.0 674.0 288.0 690.0 272.0 690.0 M272.0 616.0 L272.0 600.0 288.0 600.0 272.0 616.0 M335.95 600.0 L351.95 600.0 351.95 616.0 335.95 600.0 M351.95 674.0 L351.95 690.0 335.95 690.0 351.95 674.0 M162.0 690.0 L162.0 674.0 178.0 690.0 162.0 690.0 M446.0 600.0 L462.0 600.0 462.0 616.0 446.0 600.0 M462.0 674.0 L462.0 690.0 446.0 690.0 462.0 674.0 M382.0 600.0 L398.0 600.0 382.0 616.0 382.0 600.0 M398.0 690.0 L382.0 690.0 382.0 674.0 398.0 690.0" fill="#ffcc00" fill-rule="evenodd" stroke="none"/>
    <path d="M131.0 697.8 Q131.35 698.9 132.0 700.0 L52.0 700.0 Q51.1 698.9 50.65 697.8 L131.0 697.8 M50.15 693.8 L50.0 603.8 Q50.45 601.9 52.0 600.0 L52.0 616.0 52.0 674.0 52.0 690.0 Q50.5 691.9 50.15 693.8" fill="#006600" fill-rule="evenodd" stroke="none"/>
    <path d="M160.15 693.8 L160.0 603.8 Q160.45 601.9 162.0 600.0 L162.0 616.0 162.0 674.0 162.0 690.0 Q160.5 691.9 160.15 693.8 M241.0 697.8 Q241.35 698.9 242.0 700.0 L162.0 700.0 Q161.1 698.9 160.65 697.8 L241.0 697.8" fill="#006699" fill-rule="evenodd" stroke="none"/>
    <path d="M270.15 693.8 L270.0 603.8 Q270.45 601.9 272.0 600.0 L272.0 616.0 272.0 674.0 272.0 690.0 Q270.5 691.9 270.15 693.8 M350.95 697.8 Q351.3 698.9 351.95 700.0 L272.0 700.0 Q271.1 698.9 270.65 697.8 L350.95 697.8" fill="#cc0000" fill-rule="evenodd" stroke="none"/>
    <path d="M116.0 600.0 L132.0 616.0 132.0 674.0 116.0 690.0 68.0 690.0 52.0 674.0 52.0 616.0 68.0 600.0 116.0 600.0 M111.5 642.0 L67.0 642.0 111.5 642.0" fill="#5b753c" fill-rule="evenodd" stroke="none"/>
    <path d="M178.0 600.0 L226.0 600.0 242.0 616.0 242.0 674.0 226.0 690.0 178.0 690.0 162.0 674.0 162.0 616.0 178.0 600.0 M221.5 642.0 L177.0 642.0 221.5 642.0" fill="#495966" fill-rule="evenodd" stroke="none"/>
    <path d="M272.0 674.0 L272.0 616.0 288.0 600.0 335.95 600.0 351.95 616.0 351.95 674.0 335.95 690.0 288.0 690.0 272.0 674.0 M331.45 642.0 L287.0 642.0 331.45 642.0" fill="#6f473c" fill-rule="evenodd" stroke="none"/>
    <path d="M446.0 600.0 L462.0 616.0 462.0 674.0 446.0 690.0 398.0 690.0 382.0 674.0 382.0 616.0 398.0 600.0 446.0 600.0 M441.5 642.0 L397.0 642.0 441.5 642.0" fill="#6f596d" fill-rule="evenodd" stroke="none"/>
    <path d="M132.0 616.0 L132.0 674.0 M132.0 690.0 Q129.75 693.9 131.0 697.75 L131.0 697.8 Q131.35 698.9 132.0 700.0 L52.0 700.0 Q51.1 698.9 50.65 697.8 49.75 695.8 50.15 693.8 L50.0 603.8 Q50.45 601.9 52.0 600.0 M68.0 600.0 L116.0 600.0 M116.0 690.0 L68.0 690.0 M52.0 690.0 Q50.5 691.9 50.15 693.8 M160.65 697.8 Q159.75 695.8 160.15 693.8 L160.0 603.8 Q160.45 601.9 162.0 600.0 M178.0 600.0 L226.0 600.0 M242.0 616.0 L242.0 674.0 M242.0 690.0 Q239.75 693.9 241.0 697.75 L241.0 697.8 Q241.35 698.9 242.0 700.0 L162.0 700.0 Q161.1 698.9 160.65 697.8 L241.0 697.8 M131.0 697.8 L50.65 697.8 M272.0 600.0 Q270.45 601.9 270.0 603.8 L270.15 693.8 Q270.5 691.9 272.0 690.0 M288.0 600.0 L335.95 600.0 M351.95 616.0 L351.95 674.0 M351.95 690.0 Q349.7 693.9 350.95 697.75 L350.95 697.8 Q351.3 698.9 351.95 700.0 L272.0 700.0 Q271.1 698.9 270.65 697.8 269.75 695.8 270.15 693.8 M288.0 690.0 L335.95 690.0 M226.0 690.0 L178.0 690.0 M160.15 693.8 Q160.5 691.9 162.0 690.0 M462.0 616.0 L462.0 674.0 M462.0 690.0 Q459.75 693.9 461.0 697.75 L461.0 697.8 Q461.35 698.9 462.0 700.0 L382.0 700.0 Q381.1 698.9 380.65 697.8 379.75 695.8 380.15 693.8 L380.0 603.8 Q380.45 601.9 382.0 600.0 M398.0 600.0 L446.0 600.0 M446.0 690.0 L398.0 690.0 M382.0 690.0 Q380.5 691.9 380.15 693.8 M380.65 697.8 L461.0 697.8 M270.65 697.8 L350.95 697.8" fill="none" stroke="#000000" stroke-linecap="round" stroke-linejoin="round" stroke-width="1.0"/>
    <path d="M382.0 674.0 L382.0 616.0" fill="none" stroke="#330066" stroke-linecap="round" stroke-linejoin="round" stroke-width="1.0"/>
    <path d="M128.75 696.0 L52.0 696.0 M53.75 693.75 L129.25 693.75 M53.75 692.25 L129.75 692.25 M163.75 692.25 L239.75 692.25 M163.75 693.75 L239.25 693.75 M238.75 696.0 L162.0 696.0 M383.75 692.25 L459.75 692.25 M383.75 693.75 L459.25 693.75 M458.75 696.0 L382.0 696.0 M273.75 692.25 L349.7 692.25 M273.75 693.75 L349.2 693.75 M348.7 696.0 L272.0 696.0" fill="none" stroke="#b49a6e" stroke-linecap="round" stroke-linejoin="round" stroke-width="1.0"/>
    <path d="M132.0 616.0 L132.0 600.0 116.0 600.0 132.0 616.0 M132.0 674.0 L132.0 690.0 M52.0 600.0 L68.0 600.0 M116.0 690.0 L132.0 690.0 M132.0 674.0 L116.0 690.0 M68.0 690.0 L52.0 690.0 M52.0 616.0 L68.0 600.0 M52.0 600.0 L52.0 616.0 M52.0 674.0 L68.0 690.0 M52.0 674.0 L52.0 690.0 M162.0 600.0 L178.0 600.0 M226.0 600.0 L242.0 600.0 242.0 616.0 M242.0 674.0 L242.0 690.0 226.0 690.0 242.0 674.0 M272.0 690.0 L272.0 674.0 288.0 690.0 272.0 690.0 M272.0 616.0 L272.0 600.0 288.0 600.0 M335.95 600.0 L351.95 600.0 351.95 616.0 335.95 600.0 M351.95 674.0 L351.95 690.0 335.95 690.0 351.95 674.0 M272.0 616.0 L288.0 600.0 M226.0 600.0 L242.0 616.0 M162.0 600.0 L162.0 616.0 178.0 600.0 M162.0 674.0 L162.0 690.0 178.0 690.0 162.0 674.0 M462.0 616.0 L462.0 600.0 446.0 600.0 462.0 616.0 M462.0 674.0 L462.0 690.0 M382.0 600.0 L398.0 600.0 M446.0 690.0 L462.0 690.0 M462.0 674.0 L446.0 690.0 M398.0 690.0 L382.0 690.0 M382.0 616.0 L398.0 600.0 M382.0 616.0 L382.0 600.0 M398.0 690.0 L382.0 674.0 382.0 690.0" fill="none" stroke="#8c5e2f" stroke-linecap="round" stroke-linejoin="round" stroke-width="1.0"/>
    <path d="M67.0 642.0 L111.5 642.0 M177.0 642.0 L221.5 642.0 M397.0 642.0 L441.5 642.0 M287.0 642.0 L331.45 642.0" fill="none" stroke="#ffcc00" stroke-linecap="round" stroke-linejoin="round" stroke-width="1.0"/>
    <path d="M52.0 616.0 L52.0 674.0" fill="none" stroke="#003300" stroke-linecap="round" stroke-linejoin="round" stroke-width="1.0"/>
    <path d="M162.0 674.0 L162.0 616.0" fill="none" stroke="#003366" stroke-linecap="round" stroke-linejoin="round" stroke-width="1.0"/>
    <path d="M272.0 674.0 L272.0 616.0" fill="none" stroke="#660000" stroke-linecap="round" stroke-linejoin="round" stroke-width="1.0"/>
  </g>
</svg>
