<?xml version="1.0" encoding="UTF-8" standalone="no"?>
<svg xmlns:xlink="http://www.w3.org/1999/xlink" height="52.85px" width="416.85px" xmlns="http://www.w3.org/2000/svg">
  <g transform="matrix(1.0, 0.0, 0.0, 1.0, 12.65, -5.25)">
    <path d="M389.95 20.65 Q391.6 24.0 392.6 27.4 393.45 30.1 394.85 32.65 395.55 33.9 396.85 34.95 L398.55 36.4 Q400.8 38.6 404.2 38.65 L404.2 45.75 402.7 47.35 401.9 48.45 Q400.45 51.9 394.25 51.35 L393.9 51.7 392.8 50.9 Q391.0 49.5 389.0 48.3 L386.75 48.55 382.3 45.6 375.4 47.8 374.35 46.95 Q374.45 42.9 372.9 39.2 L371.45 35.25 Q371.0 33.7 370.85 32.15 370.3 25.9 366.3 20.75 363.95 25.55 362.6 30.5 362.1 32.4 361.1 34.05 L358.95 36.6 Q355.8 39.4 354.0 42.95 L348.1 44.75 337.6 38.6 335.85 38.85 335.8 41.65 327.1 38.95 325.4 41.7 324.05 41.95 322.1 39.7 319.7 41.25 Q317.65 40.7 316.05 39.75 310.35 36.4 309.1 31.0 L308.5 27.45 307.8 23.6 307.3 22.55 Q304.5 19.15 303.8 15.05 313.35 -1.55 329.9 15.05 334.35 18.8 335.9 24.0 L337.05 27.55 Q338.05 30.5 341.05 32.45 L343.1 30.9 346.9 27.7 349.85 24.15 Q352.8 19.75 355.05 15.05 359.65 0.25 360.95 15.05 L361.3 17.15 363.1 17.35 Q369.75 17.75 375.25 15.05 L380.2 13.3 Q384.2 14.7 384.8 15.05 388.3 17.3 389.95 20.65 M216.05 15.05 Q214.7 17.55 212.2 19.45 207.7 22.95 207.75 27.9 L202.2 28.65 Q199.45 27.55 196.6 26.85 194.9 26.55 193.05 26.8 L191.15 27.4 Q188.9 26.55 187.1 24.9 L176.5 15.05 175.55 14.25 175.4 14.25 174.8 15.05 Q171.4 19.65 167.35 23.95 L165.25 25.6 Q163.25 26.85 160.55 27.3 L151.85 27.85 145.35 28.6 144.1 27.6 142.6 27.7 Q139.95 28.05 137.35 29.05 L136.05 29.0 Q135.1 28.7 134.3 28.2 L132.8 27.9 126.35 14.85 125.9 15.05 Q123.45 16.2 121.65 17.8 119.55 19.65 118.65 21.9 117.85 23.9 115.65 25.2 L110.85 28.25 Q107.2 30.6 102.85 32.55 L98.2 32.9 91.55 25.05 87.3 25.4 Q84.4 26.3 82.75 28.6 L75.15 39.05 71.2 36.45 67.7 38.1 62.85 38.25 60.7 34.9 60.55 36.95 57.55 39.65 Q52.65 38.0 50.35 34.1 49.45 32.6 49.05 31.1 47.35 25.05 46.3 19.0 L44.85 18.4 Q41.65 20.85 41.1 24.35 L40.4 28.95 Q40.0 32.65 40.7 36.4 41.35 39.95 42.4 43.25 42.9 44.9 42.6 46.4 42.4 47.65 41.05 48.3 L40.35 48.55 39.55 48.85 40.65 50.5 38.05 53.75 Q34.65 50.2 33.05 45.95 L32.75 44.9 32.7 46.05 Q32.85 50.9 29.35 54.9 28.65 55.65 27.7 56.2 L26.45 56.85 Q24.85 51.85 21.35 47.5 L18.85 44.7 Q17.6 43.45 15.7 42.75 12.0 41.3 8.5 42.75 L8.45 42.7 8.1 43.0 7.3 43.7 6.95 44.1 Q6.4 44.75 6.1 45.55 5.15 48.15 3.8 50.55 1.55 54.6 -1.9 58.1 -1.6 57.05 -2.0 56.15 -2.5 55.0 -4.05 54.75 L-5.25 54.55 -5.75 54.4 -9.7 53.05 -12.65 51.85 -12.65 49.05 -8.4 45.95 Q-5.8 43.8 -4.65 41.85 -3.35 39.7 -2.55 37.5 L-1.8 34.7 -1.35 34.35 -1.7 33.9 Q-1.1 29.55 2.35 26.15 L7.3 20.85 10.85 16.6 13.85 18.1 Q16.0 19.45 16.9 21.55 19.5 27.4 21.3 33.35 21.65 34.45 22.4 35.5 L23.6 36.45 25.2 37.05 Q27.5 33.2 30.1 29.55 32.65 25.8 35.7 22.25 L42.3 15.05 Q51.75 4.35 57.75 15.05 60.15 17.4 62.05 20.05 65.2 24.55 64.95 29.65 L70.8 23.85 Q74.5 19.75 76.4 15.05 86.9 1.25 99.0 15.05 L101.5 23.15 103.5 15.05 Q108.6 5.35 112.55 15.05 L112.7 15.0 113.8 14.45 114.5 13.25 Q114.8 12.35 116.35 11.95 L118.2 11.35 118.45 11.2 118.65 10.95 118.9 10.75 120.1 9.4 120.4 9.15 121.5 8.35 121.75 8.15 Q122.9 7.4 123.7 6.5 L123.85 6.35 124.9 5.25 125.15 5.9 125.4 6.6 125.8 7.55 Q126.0 8.25 126.5 8.8 L126.75 9.2 128.2 11.3 Q128.6 11.8 129.0 11.75 L129.35 11.65 130.95 10.55 131.35 10.2 131.6 10.1 Q133.6 14.65 137.85 16.95 L139.25 17.95 141.25 16.2 141.5 16.05 141.75 15.7 141.8 15.55 142.45 15.05 143.6 15.05 145.7 21.55 148.85 15.05 150.6 12.9 153.8 18.7 163.9 8.85 Q167.3 17.2 170.4 14.2 173.45 11.2 176.75 6.25 L177.15 6.8 183.55 13.6 186.15 8.6 Q186.8 10.15 188.0 11.65 L188.55 12.05 Q189.4 10.4 190.85 9.05 192.7 12.1 195.45 14.6 L195.85 15.05 196.4 15.05 Q200.45 17.65 201.2 22.5 L201.4 23.8 207.3 15.05 Q218.55 -0.2 216.05 15.05" fill="#33ff00" fill-rule="evenodd" stroke="none"/>
  </g>
</svg>
