<?xml version="1.0" encoding="UTF-8" standalone="no"?>
<svg xmlns:xlink="http://www.w3.org/1999/xlink" height="150.0px" width="378.0px" xmlns="http://www.w3.org/2000/svg">
  <g transform="matrix(1.0, 0.0, 0.0, 1.0, 190.6, 113.8)">
    <path d="M28.15 10.4 L28.55 10.15 28.3 9.9 Q-1.4 4.15 -32.3 1.85 L-37.65 2.0 -70.65 3.55 Q-90.2 5.15 -109.5 9.1 -135.35 14.35 -161.0 8.55 -171.2 6.2 -177.9 3.35 L-177.85 3.85 Q-177.65 4.8 -176.9 5.35 L-176.25 5.85 -175.75 6.35 -175.2 6.85 Q-170.05 9.55 -164.45 11.4 -139.75 19.3 -114.0 13.55 -70.0 3.75 -25.0 8.05 L25.5 11.85 26.6 11.25 27.1 10.95 28.15 10.4 M93.1 24.75 Q93.55 24.45 94.05 24.25 L94.35 24.1 94.15 24.05 Q87.9 21.65 80.9 23.05 41.4 31.0 1.35 25.2 -36.05 19.7 -73.95 19.15 -79.4 19.9 -84.6 22.4 L-88.2 24.3 Q-89.7 25.2 -91.35 25.8 -93.95 26.75 -95.75 28.75 -94.05 28.55 -92.15 27.7 -84.6 24.35 -76.55 23.85 -60.15 22.75 -43.6 24.3 -32.9 25.35 -22.35 27.2 13.85 33.8 50.85 31.4 71.8 30.1 92.35 25.9 L92.85 25.1 93.1 24.75 M137.7 26.65 Q134.6 26.85 131.75 25.85 95.0 13.7 57.1 5.65 52.25 6.3 47.2 7.9 L41.3 9.8 47.0 10.1 56.5 10.4 79.8 15.35 62.65 18.95 52.1 20.5 Q36.55 21.95 22.5 18.1 25.95 23.2 32.15 22.5 L52.1 20.7 Q75.1 19.1 98.1 19.75 L116.2 24.6 Q146.25 37.65 178.35 28.1 158.65 25.55 137.7 26.65 M173.8 14.95 L172.0 14.45 Q151.1 20.55 130.0 16.5 L131.05 17.05 Q153.15 27.0 174.5 15.3 174.15 15.05 173.8 14.95 M140.05 -5.1 L108.15 -7.15 30.9 -11.6 Q2.0 -9.3 -26.95 -4.5 -66.3 1.9 -105.2 -6.1 -109.95 -7.1 -114.45 -8.55 -125.95 -12.35 -134.75 -7.1 -130.8 -7.65 -125.95 -7.15 L-117.0 -6.0 -84.2 -1.4 Q-46.35 3.85 -9.0 -3.7 28.4 -11.25 66.4 -6.4 103.3 -1.65 140.05 -5.1 M145.4 -20.9 Q135.0 -17.85 124.2 -16.9 85.05 -13.5 46.0 -18.6 8.9 -23.45 -28.05 -18.15 -67.7 -12.4 -106.7 -22.85 L-120.6 -26.2 Q-145.4 -31.75 -170.7 -31.15 L-171.55 -30.9 -173.35 -30.4 Q-177.2 -29.3 -181.45 -29.8 L-182.25 -29.3 -183.8 -28.35 Q-186.35 -26.75 -184.8 -26.0 -183.55 -26.25 -182.7 -26.95 L-181.95 -27.5 Q-148.2 -30.3 -115.5 -20.05 -100.2 -15.3 -84.0 -13.05 -55.8 -9.25 -28.4 -15.55 3.75 -22.9 37.7 -17.3 102.45 -6.6 165.95 -20.5 167.0 -20.8 167.75 -21.6 168.2 -22.1 168.95 -22.35 157.4 -24.45 145.4 -20.9 M142.1 -9.4 L143.95 -9.25 Q156.35 -9.35 168.3 -9.9 L166.8 -10.95 166.1 -11.4 165.25 -11.6 149.8 -11.7 Q145.9 -11.5 142.4 -9.6 L142.1 -9.4 M112.85 -37.1 L112.15 -37.0 Q137.65 -27.05 165.25 -33.8 L164.9 -34.05 Q138.75 -34.6 112.85 -37.1 M31.3 -2.45 Q20.9 -0.85 11.05 -1.3 13.8 1.6 18.1 1.65 39.5 1.9 60.45 -1.0 62.55 -0.05 66.25 0.65 116.15 10.1 167.25 1.7 133.55 -2.3 96.15 2.0 78.25 4.05 61.5 -1.15 L69.7 -2.45 69.45 -2.75 Q59.7 -5.9 48.35 -4.75 L31.3 -2.45 M15.45 -35.5 Q11.3 -34.5 6.7 -34.5 -4.7 -34.5 -15.65 -31.8 -48.5 -23.7 -81.45 -30.25 -95.85 -33.1 -107.2 -33.95 L-107.45 -33.7 Q-93.15 -27.9 -76.15 -25.3 -48.55 -21.1 -21.0 -26.85 22.55 -35.95 65.95 -27.25 95.75 -21.2 123.95 -28.35 116.1 -30.7 106.7 -29.95 93.35 -28.8 80.2 -30.6 47.95 -34.95 15.45 -35.5 M-187.5 -5.0 L-187.5 -38.8 187.4 -38.8 187.4 36.2 -187.5 36.2 -187.5 -2.65 Q-184.85 -1.45 -180.1 -1.1 -177.1 -0.9 -174.45 0.2 -156.4 7.65 -138.85 1.55 -125.9 7.25 -112.55 1.0 L-112.75 0.8 Q-128.55 0.8 -143.65 -2.1 -144.9 -1.75 -143.4 -0.8 L-141.65 0.25 -162.35 -1.35 -168.95 -2.15 Q-178.5 -3.05 -187.5 -5.0 M-85.35 15.3 Q-103.35 12.25 -121.7 16.55 -151.05 23.4 -178.75 15.3 L-178.85 14.8 Q-178.95 13.6 -180.1 13.65 -180.5 13.75 -180.3 14.25 -179.35 16.8 -177.25 18.8 L-174.05 20.0 Q-168.45 22.2 -162.0 21.85 -123.4 19.95 -85.35 15.3 M-99.4 24.55 L-100.25 23.85 -100.65 23.45 -101.15 22.95 -102.15 22.7 -130.35 20.8 Q-147.6 30.05 -166.75 27.1 -171.1 26.4 -174.85 24.55 -180.0 21.95 -181.75 22.1 -181.6 24.4 -179.3 25.55 -160.25 34.8 -140.65 27.7 -136.85 26.25 -132.9 26.25 -115.4 26.2 -98.95 25.45 L-99.15 24.95 Q-99.2 24.7 -99.4 24.55 M-180.85 -14.85 L-181.1 -14.4 Q-174.55 -16.15 -167.7 -17.25 -151.6 -19.8 -135.4 -15.8 -120.95 -12.25 -107.55 -16.55 L-107.9 -16.8 Q-133.3 -20.15 -159.25 -22.2 L-160.25 -21.8 Q-165.55 -19.6 -171.3 -18.85 L-178.1 -18.2 -178.9 -17.35 -179.25 -16.9 -180.1 -15.9 -180.45 -15.45 -180.85 -14.85" fill="#c9b34f" fill-rule="evenodd" stroke="none"/>
    <path d="M15.45 -35.5 Q47.95 -34.95 80.2 -30.6 93.35 -28.8 106.7 -29.95 116.1 -30.7 123.95 -28.35 95.75 -21.2 65.95 -27.25 22.55 -35.95 -21.0 -26.85 -48.55 -21.1 -76.15 -25.3 -93.15 -27.9 -107.45 -33.7 L-107.2 -33.95 Q-95.85 -33.1 -81.45 -30.25 -48.5 -23.7 -15.65 -31.8 -4.7 -34.5 6.7 -34.5 11.3 -34.5 15.45 -35.5 M31.3 -2.45 L48.35 -4.75 Q59.7 -5.9 69.45 -2.75 L69.7 -2.45 61.5 -1.15 Q78.25 4.05 96.15 2.0 133.55 -2.3 167.25 1.7 116.15 10.1 66.25 0.65 62.55 -0.05 60.45 -1.0 39.5 1.9 18.1 1.65 13.8 1.6 11.05 -1.3 20.9 -0.85 31.3 -2.45 M112.85 -37.1 Q138.75 -34.6 164.9 -34.05 L165.25 -33.8 Q137.65 -27.05 112.15 -37.0 L112.85 -37.1 M142.1 -9.4 L142.4 -9.6 Q145.9 -11.5 149.8 -11.7 L165.25 -11.6 166.1 -11.4 166.8 -10.95 168.3 -9.9 Q156.35 -9.35 143.95 -9.25 L142.1 -9.4 M145.4 -20.9 Q157.4 -24.45 168.95 -22.35 168.2 -22.1 167.75 -21.6 167.0 -20.8 165.95 -20.5 102.45 -6.6 37.7 -17.3 3.75 -22.9 -28.4 -15.55 -55.8 -9.25 -84.0 -13.05 -100.2 -15.3 -115.5 -20.05 -148.2 -30.3 -181.95 -27.5 L-182.7 -26.95 Q-183.55 -26.25 -184.8 -26.0 -186.35 -26.75 -183.8 -28.35 L-182.25 -29.3 -181.45 -29.8 Q-177.2 -29.3 -173.35 -30.4 L-171.55 -30.9 -170.7 -31.15 Q-145.4 -31.75 -120.6 -26.2 L-106.7 -22.85 Q-67.7 -12.4 -28.05 -18.15 8.9 -23.45 46.0 -18.6 85.05 -13.5 124.2 -16.9 135.0 -17.85 145.4 -20.9 M140.05 -5.1 Q103.3 -1.65 66.4 -6.4 28.4 -11.25 -9.0 -3.7 -46.35 3.85 -84.2 -1.4 L-117.0 -6.0 -125.95 -7.15 Q-130.8 -7.65 -134.75 -7.1 -125.95 -12.35 -114.45 -8.55 -109.95 -7.1 -105.2 -6.1 -66.3 1.9 -26.95 -4.5 2.0 -9.3 30.9 -11.6 L108.15 -7.15 140.05 -5.1 M173.8 14.95 Q174.15 15.05 174.5 15.3 153.15 27.0 131.05 17.05 L130.0 16.5 Q151.1 20.55 172.0 14.45 L173.8 14.95 M137.7 26.65 Q158.65 25.55 178.35 28.1 146.25 37.65 116.2 24.6 L98.1 19.75 Q75.1 19.1 52.1 20.7 L32.15 22.5 Q25.95 23.2 22.5 18.1 36.55 21.95 52.1 20.5 L62.65 18.95 79.8 15.35 56.5 10.4 47.0 10.1 41.3 9.8 47.2 7.9 Q52.25 6.3 57.1 5.65 95.0 13.7 131.75 25.85 134.6 26.85 137.7 26.65 M93.1 24.75 L92.85 25.1 92.35 25.9 Q71.8 30.1 50.85 31.4 13.85 33.8 -22.35 27.2 -32.9 25.35 -43.6 24.3 -60.15 22.75 -76.55 23.85 -84.6 24.35 -92.15 27.7 -94.05 28.55 -95.75 28.75 -93.95 26.75 -91.35 25.8 -89.7 25.2 -88.2 24.3 L-84.6 22.4 Q-79.4 19.9 -73.95 19.15 -36.05 19.7 1.35 25.2 41.4 31.0 80.9 23.05 87.9 21.65 94.15 24.05 L94.35 24.1 94.05 24.25 Q93.55 24.45 93.1 24.75 M28.15 10.4 L27.1 10.95 26.6 11.25 25.5 11.85 -25.0 8.05 Q-70.0 3.75 -114.0 13.55 -139.75 19.3 -164.45 11.4 -170.05 9.55 -175.2 6.85 L-175.75 6.35 -176.25 5.85 -176.9 5.35 Q-177.65 4.8 -177.85 3.85 L-177.9 3.35 Q-171.2 6.2 -161.0 8.55 -135.35 14.35 -109.5 9.1 -90.2 5.15 -70.65 3.55 L-37.65 2.0 -32.3 1.85 Q-1.4 4.15 28.3 9.9 L28.55 10.15 28.15 10.4 M-187.5 -2.65 Q-189.85 -3.7 -190.6 -5.5 L-190.0 -5.6 -187.5 -5.0 Q-178.5 -3.05 -168.95 -2.15 L-162.35 -1.35 -141.65 0.25 -143.4 -0.8 Q-144.9 -1.75 -143.65 -2.1 -128.55 0.8 -112.75 0.8 L-112.55 1.0 Q-125.9 7.25 -138.85 1.55 -156.4 7.65 -174.45 0.2 -177.1 -0.9 -180.1 -1.1 -184.85 -1.45 -187.5 -2.65 M-180.85 -14.85 L-180.45 -15.45 -180.1 -15.9 -179.25 -16.9 -178.9 -17.35 -178.1 -18.2 -171.3 -18.85 Q-165.55 -19.6 -160.25 -21.8 L-159.25 -22.2 Q-133.3 -20.15 -107.9 -16.8 L-107.55 -16.55 Q-120.95 -12.25 -135.4 -15.8 -151.6 -19.8 -167.7 -17.25 -174.55 -16.15 -181.1 -14.4 L-180.85 -14.85 M-99.4 24.55 Q-99.2 24.7 -99.15 24.95 L-98.95 25.45 Q-115.4 26.2 -132.9 26.25 -136.85 26.25 -140.65 27.7 -160.25 34.8 -179.3 25.55 -181.6 24.4 -181.75 22.1 -180.0 21.95 -174.85 24.55 -171.1 26.4 -166.75 27.1 -147.6 30.05 -130.35 20.8 L-102.15 22.7 -101.15 22.95 -100.65 23.45 -100.25 23.85 -99.4 24.55 M-85.35 15.3 Q-123.4 19.95 -162.0 21.85 -168.45 22.2 -174.05 20.0 L-177.25 18.8 Q-179.35 16.8 -180.3 14.25 -180.5 13.75 -180.1 13.65 -178.95 13.6 -178.85 14.8 L-178.75 15.3 Q-151.05 23.4 -121.7 16.55 -103.35 12.25 -85.35 15.3" fill="#a0783b" fill-rule="evenodd" stroke="none"/>
    <path d="M140.05 -80.1 L108.15 -82.15 30.9 -86.6 Q2.0 -84.3 -26.95 -79.5 -66.3 -73.1 -105.2 -81.1 -109.95 -82.1 -114.45 -83.55 -125.95 -87.35 -134.75 -82.1 -130.8 -82.65 -125.95 -82.15 L-117.0 -81.0 -84.2 -76.4 Q-46.35 -71.15 -9.0 -78.7 28.4 -86.25 66.4 -81.4 103.3 -76.65 140.05 -80.1 M130.0 -58.5 Q130.5 -58.15 131.05 -57.95 153.15 -48.0 174.5 -59.7 L173.8 -60.05 172.0 -60.55 Q151.1 -54.45 130.0 -58.5 M142.1 -84.4 L143.95 -84.25 Q156.35 -84.35 168.3 -84.9 L166.8 -85.95 166.1 -86.4 165.25 -86.6 149.8 -86.7 Q145.9 -86.5 142.4 -84.6 L142.1 -84.4 M145.4 -95.9 Q135.0 -92.85 124.2 -91.9 85.05 -88.5 46.0 -93.6 8.9 -98.45 -28.05 -93.15 -67.7 -87.4 -106.7 -97.85 L-120.6 -101.2 Q-145.4 -106.75 -170.7 -106.15 L-171.55 -105.9 -173.35 -105.4 Q-177.2 -104.3 -181.45 -104.8 L-182.25 -104.3 -183.8 -103.35 Q-186.35 -101.75 -184.8 -101.0 -183.55 -101.25 -182.7 -101.95 L-181.95 -102.5 Q-148.2 -105.3 -115.5 -95.05 -100.2 -90.3 -84.0 -88.05 -55.8 -84.25 -28.4 -90.55 3.75 -97.9 37.7 -92.3 102.45 -81.6 165.95 -95.5 167.0 -95.8 167.75 -96.6 168.2 -97.1 168.95 -97.35 157.4 -99.45 145.4 -95.9 M80.9 -51.95 Q41.4 -44.0 1.35 -49.8 -36.05 -55.3 -73.95 -55.85 -79.4 -55.1 -84.6 -52.6 L-88.2 -50.7 Q-89.7 -49.8 -91.35 -49.2 -93.95 -48.25 -95.75 -46.25 -94.05 -46.45 -92.15 -47.3 -84.6 -50.65 -76.55 -51.15 -60.15 -52.25 -43.6 -50.7 -32.9 -49.65 -22.35 -47.8 13.85 -41.2 50.85 -43.6 71.8 -44.9 92.35 -49.1 L92.85 -49.9 93.1 -50.25 94.05 -50.75 94.35 -50.9 Q88.0 -53.35 80.9 -51.95 M28.55 -64.85 L28.3 -65.1 Q-1.4 -70.85 -32.3 -73.15 L-37.65 -73.0 -70.65 -71.45 Q-90.2 -69.85 -109.5 -65.9 -135.35 -60.65 -161.0 -66.45 -171.2 -68.8 -177.9 -71.65 L-177.85 -71.15 Q-177.65 -70.2 -176.9 -69.65 L-176.25 -69.15 -175.75 -68.65 -175.2 -68.15 Q-170.05 -65.45 -164.45 -63.6 -139.75 -55.7 -114.0 -61.45 -70.0 -71.25 -25.0 -66.95 L25.5 -63.15 Q26.1 -63.4 26.6 -63.75 L27.1 -64.05 28.15 -64.6 28.55 -64.85 M47.0 -64.9 L56.5 -64.6 79.8 -59.65 62.65 -56.05 Q41.2 -51.8 22.5 -56.9 25.95 -51.8 32.15 -52.5 65.15 -56.2 98.1 -55.25 L116.2 -50.4 Q146.25 -37.35 178.35 -46.9 158.65 -49.45 137.7 -48.35 134.6 -48.15 131.75 -49.15 95.0 -61.3 57.1 -69.35 52.25 -68.7 47.2 -67.1 L41.3 -65.2 47.0 -64.9 M61.5 -76.15 L69.7 -77.45 69.45 -77.75 Q59.7 -80.9 48.35 -79.75 L31.3 -77.45 Q20.9 -75.85 11.05 -76.3 13.8 -73.4 18.1 -73.35 39.5 -73.1 60.45 -76.0 62.55 -75.05 66.25 -74.35 116.15 -64.9 167.25 -73.3 133.55 -77.3 96.15 -73.0 78.25 -70.95 61.5 -76.15 M123.95 -103.35 Q116.1 -105.7 106.7 -104.95 93.35 -103.8 80.2 -105.6 47.95 -109.95 15.45 -110.5 11.3 -109.5 6.7 -109.5 -4.7 -109.5 -15.65 -106.8 -48.5 -98.7 -81.45 -105.25 -95.85 -108.1 -107.2 -108.95 L-107.45 -108.7 Q-93.15 -102.9 -76.15 -100.3 -48.55 -96.1 -21.0 -101.85 22.55 -110.95 65.95 -102.25 95.75 -96.2 123.95 -103.35 M112.85 -112.1 L112.15 -112.0 Q137.65 -102.05 165.25 -108.8 L164.9 -109.05 Q138.75 -109.6 112.85 -112.1 M-187.5 -80.0 L-187.5 -113.8 187.4 -113.8 187.4 -38.8 -187.5 -38.8 -187.5 -77.65 Q-184.85 -76.45 -180.1 -76.1 -177.1 -75.9 -174.45 -74.8 -156.4 -67.35 -138.85 -73.45 -125.9 -67.75 -112.55 -74.0 L-112.75 -74.2 Q-128.55 -74.2 -143.65 -77.1 -144.9 -76.75 -143.4 -75.8 L-141.65 -74.75 -162.35 -76.35 -168.95 -77.15 Q-178.5 -78.05 -187.5 -80.0 M-174.85 -50.45 Q-180.0 -53.05 -181.75 -52.9 -181.6 -50.6 -179.3 -49.45 -160.25 -40.2 -140.65 -47.3 -136.85 -48.75 -132.9 -48.75 -115.4 -48.8 -98.95 -49.55 L-99.15 -50.05 -99.4 -50.45 -100.25 -51.15 -100.65 -51.55 -101.15 -52.05 -102.15 -52.3 -130.35 -54.2 Q-147.6 -44.95 -166.75 -47.9 -171.1 -48.6 -174.85 -50.45 M-178.75 -59.7 L-178.85 -60.2 Q-178.95 -61.4 -180.1 -61.35 -180.5 -61.25 -180.3 -60.75 -179.35 -58.2 -177.25 -56.2 L-174.05 -55.0 Q-168.45 -52.8 -162.0 -53.15 -123.4 -55.05 -85.35 -59.7 -103.35 -62.75 -121.7 -58.45 -151.05 -51.6 -178.75 -59.7 M-180.45 -90.45 L-180.85 -89.85 -181.1 -89.4 Q-174.55 -91.15 -167.7 -92.25 -151.6 -94.8 -135.4 -90.8 -120.95 -87.25 -107.55 -91.55 L-107.9 -91.8 Q-133.3 -95.15 -159.25 -97.2 L-160.25 -96.8 Q-165.55 -94.6 -171.3 -93.85 L-178.1 -93.2 -178.9 -92.35 -179.25 -91.9 -180.1 -90.9 -180.45 -90.45" fill="#c9b34f" fill-rule="evenodd" stroke="none"/>
    <path d="M112.85 -112.1 Q138.75 -109.6 164.9 -109.05 L165.25 -108.8 Q137.65 -102.05 112.15 -112.0 L112.85 -112.1 M123.95 -103.35 Q95.75 -96.2 65.95 -102.25 22.55 -110.95 -21.0 -101.85 -48.55 -96.1 -76.15 -100.3 -93.15 -102.9 -107.45 -108.7 L-107.2 -108.95 Q-95.85 -108.1 -81.45 -105.25 -48.5 -98.7 -15.65 -106.8 -4.7 -109.5 6.7 -109.5 11.3 -109.5 15.45 -110.5 47.95 -109.95 80.2 -105.6 93.35 -103.8 106.7 -104.95 116.1 -105.7 123.95 -103.35 M61.5 -76.15 Q78.25 -70.95 96.15 -73.0 133.55 -77.3 167.25 -73.3 116.15 -64.9 66.25 -74.35 62.55 -75.05 60.45 -76.0 39.5 -73.1 18.1 -73.35 13.8 -73.4 11.05 -76.3 20.9 -75.85 31.3 -77.45 L48.35 -79.75 Q59.7 -80.9 69.45 -77.75 L69.7 -77.45 61.5 -76.15 M47.0 -64.9 L41.3 -65.2 47.2 -67.1 Q52.25 -68.7 57.1 -69.35 95.0 -61.3 131.75 -49.15 134.6 -48.15 137.7 -48.35 158.65 -49.45 178.35 -46.9 146.25 -37.35 116.2 -50.4 L98.1 -55.25 Q65.15 -56.2 32.15 -52.5 25.95 -51.8 22.5 -56.9 41.2 -51.8 62.65 -56.05 L79.8 -59.65 56.5 -64.6 47.0 -64.9 M28.55 -64.85 L28.15 -64.6 27.1 -64.05 26.6 -63.75 Q26.1 -63.4 25.5 -63.15 L-25.0 -66.95 Q-70.0 -71.25 -114.0 -61.45 -139.75 -55.7 -164.45 -63.6 -170.05 -65.45 -175.2 -68.15 L-175.75 -68.65 -176.25 -69.15 -176.9 -69.65 Q-177.65 -70.2 -177.85 -71.15 L-177.9 -71.65 Q-171.2 -68.8 -161.0 -66.45 -135.35 -60.65 -109.5 -65.9 -90.2 -69.85 -70.65 -71.45 L-37.65 -73.0 -32.3 -73.15 Q-1.4 -70.85 28.3 -65.1 L28.55 -64.85 M80.9 -51.95 Q88.0 -53.35 94.35 -50.9 L94.05 -50.75 93.1 -50.25 92.85 -49.9 92.35 -49.1 Q71.8 -44.9 50.85 -43.6 13.85 -41.2 -22.35 -47.8 -32.9 -49.65 -43.6 -50.7 -60.15 -52.25 -76.55 -51.15 -84.6 -50.65 -92.15 -47.3 -94.05 -46.45 -95.75 -46.25 -93.95 -48.25 -91.35 -49.2 -89.7 -49.8 -88.2 -50.7 L-84.6 -52.6 Q-79.4 -55.1 -73.95 -55.85 -36.05 -55.3 1.35 -49.8 41.4 -44.0 80.9 -51.95 M145.4 -95.9 Q157.4 -99.45 168.95 -97.35 168.2 -97.1 167.75 -96.6 167.0 -95.8 165.95 -95.5 102.45 -81.6 37.7 -92.3 3.75 -97.9 -28.4 -90.55 -55.8 -84.25 -84.0 -88.05 -100.2 -90.3 -115.5 -95.05 -148.2 -105.3 -181.95 -102.5 L-182.7 -101.95 Q-183.55 -101.25 -184.8 -101.0 -186.35 -101.75 -183.8 -103.35 L-182.25 -104.3 -181.45 -104.8 Q-177.2 -104.3 -173.35 -105.4 L-171.55 -105.9 -170.7 -106.15 Q-145.4 -106.75 -120.6 -101.2 L-106.7 -97.85 Q-67.7 -87.4 -28.05 -93.15 8.9 -98.45 46.0 -93.6 85.05 -88.5 124.2 -91.9 135.0 -92.85 145.4 -95.9 M142.1 -84.4 L142.4 -84.6 Q145.9 -86.5 149.8 -86.7 L165.25 -86.6 166.1 -86.4 166.8 -85.95 168.3 -84.9 Q156.35 -84.35 143.95 -84.25 L142.1 -84.4 M130.0 -58.5 Q151.1 -54.45 172.0 -60.55 L173.8 -60.05 174.5 -59.7 Q153.15 -48.0 131.05 -57.95 130.5 -58.15 130.0 -58.5 M140.05 -80.1 Q103.3 -76.65 66.4 -81.4 28.4 -86.25 -9.0 -78.7 -46.35 -71.15 -84.2 -76.4 L-117.0 -81.0 -125.95 -82.15 Q-130.8 -82.65 -134.75 -82.1 -125.95 -87.35 -114.45 -83.55 -109.95 -82.1 -105.2 -81.1 -66.3 -73.1 -26.95 -79.5 2.0 -84.3 30.9 -86.6 L108.15 -82.15 140.05 -80.1 M-187.5 -77.65 Q-189.85 -78.7 -190.6 -80.5 L-190.0 -80.6 -187.5 -80.0 Q-178.5 -78.05 -168.95 -77.15 L-162.35 -76.35 -141.65 -74.75 -143.4 -75.8 Q-144.9 -76.75 -143.65 -77.1 -128.55 -74.2 -112.75 -74.2 L-112.55 -74.0 Q-125.9 -67.75 -138.85 -73.45 -156.4 -67.35 -174.45 -74.8 -177.1 -75.9 -180.1 -76.1 -184.85 -76.45 -187.5 -77.65 M-180.45 -90.45 L-180.1 -90.9 -179.25 -91.9 -178.9 -92.35 -178.1 -93.2 -171.3 -93.85 Q-165.55 -94.6 -160.25 -96.8 L-159.25 -97.2 Q-133.3 -95.15 -107.9 -91.8 L-107.55 -91.55 Q-120.95 -87.25 -135.4 -90.8 -151.6 -94.8 -167.7 -92.25 -174.55 -91.15 -181.1 -89.4 L-180.85 -89.85 -180.45 -90.45 M-178.75 -59.7 Q-151.05 -51.6 -121.7 -58.45 -103.35 -62.75 -85.35 -59.7 -123.4 -55.05 -162.0 -53.15 -168.45 -52.8 -174.05 -55.0 L-177.25 -56.2 Q-179.35 -58.2 -180.3 -60.75 -180.5 -61.25 -180.1 -61.35 -178.95 -61.4 -178.85 -60.2 L-178.75 -59.7 M-174.85 -50.45 Q-171.1 -48.6 -166.75 -47.9 -147.6 -44.95 -130.35 -54.2 L-102.15 -52.3 -101.15 -52.05 -100.65 -51.55 -100.25 -51.15 -99.4 -50.45 -99.15 -50.05 -98.95 -49.55 Q-115.4 -48.8 -132.9 -48.75 -136.85 -48.75 -140.65 -47.3 -160.25 -40.2 -179.3 -49.45 -181.6 -50.6 -181.75 -52.9 -180.0 -53.05 -174.85 -50.45" fill="#a0783b" fill-rule="evenodd" stroke="none"/>
  </g>
</svg>
