<?xml version="1.0" encoding="UTF-8" standalone="no"?>
<svg xmlns:xlink="http://www.w3.org/1999/xlink" height="150.0px" width="378.0px" xmlns="http://www.w3.org/2000/svg">
  <g transform="matrix(1.0, 0.0, 0.0, 1.0, 190.6, 40.0)">
    <path d="M28.15 84.2 L28.55 83.95 28.3 83.7 Q-1.4 77.95 -32.3 75.65 L-37.65 75.8 -70.65 77.35 Q-90.2 78.95 -109.5 82.9 -135.35 88.15 -161.0 82.35 -171.2 80.0 -177.9 77.15 L-177.85 77.65 Q-177.65 78.6 -176.9 79.15 L-176.25 79.65 -175.75 80.15 -175.2 80.65 Q-170.05 83.35 -164.45 85.2 -139.75 93.1 -114.0 87.35 -70.0 77.55 -25.0 81.85 L25.5 85.65 26.6 85.05 27.1 84.75 28.15 84.2 M93.1 98.55 Q93.55 98.25 94.05 98.05 L94.35 97.9 94.15 97.85 Q87.9 95.45 80.9 96.85 41.4 104.8 1.35 99.0 -36.05 93.5 -73.95 92.95 -79.4 93.7 -84.6 96.2 L-88.2 98.1 Q-89.7 99.0 -91.35 99.6 -93.95 100.55 -95.75 102.55 -94.05 102.35 -92.15 101.5 -84.6 98.15 -76.55 97.65 -60.15 96.55 -43.6 98.1 -32.9 99.15 -22.35 101.0 13.85 107.6 50.85 105.2 71.8 103.9 92.35 99.7 L92.85 98.9 93.1 98.55 M137.7 100.45 Q134.6 100.65 131.75 99.65 95.0 87.5 57.1 79.45 52.25 80.1 47.2 81.7 L41.3 83.6 47.0 83.9 56.5 84.2 79.8 89.15 62.65 92.75 52.1 94.3 Q36.55 95.75 22.5 91.9 25.95 97.0 32.15 96.3 L52.1 94.5 Q75.1 92.9 98.1 93.55 L116.2 98.4 Q146.25 111.45 178.35 101.9 158.65 99.35 137.7 100.45 M173.8 88.75 L172.0 88.25 Q151.1 94.35 130.0 90.3 L131.05 90.85 Q153.15 100.8 174.5 89.1 174.15 88.85 173.8 88.75 M140.05 68.7 L108.15 66.65 30.9 62.2 Q2.0 64.5 -26.95 69.3 -66.3 75.7 -105.2 67.7 L-114.45 65.25 Q-125.95 61.45 -134.75 66.7 -130.8 66.15 -125.95 66.65 L-117.0 67.8 -84.2 72.4 Q-46.35 77.65 -9.0 70.1 28.4 62.55 66.4 67.4 103.3 72.15 140.05 68.7 M142.1 64.4 L143.95 64.55 Q156.35 64.45 168.3 63.9 L166.8 62.85 166.1 62.4 165.25 62.2 149.8 62.1 Q145.9 62.3 142.4 64.2 L142.1 64.4 M145.4 52.9 Q135.0 55.95 124.2 56.9 85.05 60.3 46.0 55.2 8.9 50.35 -28.05 55.65 -67.7 61.4 -106.7 50.95 L-120.6 47.6 Q-145.4 42.05 -170.7 42.65 L-171.55 42.9 -173.35 43.4 Q-177.2 44.5 -181.45 44.0 L-182.25 44.5 -183.8 45.45 Q-186.35 47.05 -184.8 47.8 -183.55 47.55 -182.7 46.85 L-181.95 46.3 Q-148.2 43.5 -115.5 53.75 -100.2 58.5 -84.0 60.75 -55.8 64.55 -28.4 58.25 3.75 50.9 37.7 56.5 102.45 67.2 165.95 53.3 L167.75 52.2 Q168.2 51.7 168.95 51.45 157.4 49.35 145.4 52.9 M112.85 36.7 L112.15 36.8 Q137.65 46.75 165.25 40.0 L164.9 39.75 Q138.75 39.2 112.85 36.7 M15.45 38.3 Q11.3 39.3 6.7 39.3 -4.7 39.3 -15.65 42.0 -48.5 50.1 -81.45 43.55 -95.85 40.7 -107.2 39.85 L-107.45 40.1 Q-93.15 45.9 -76.15 48.5 -48.55 52.7 -21.0 46.95 22.55 37.85 65.95 46.55 95.75 52.6 123.95 45.45 116.1 43.1 106.7 43.85 93.35 45.0 80.2 43.2 47.95 38.85 15.45 38.3 M31.3 71.35 L11.05 72.5 Q13.8 75.4 18.1 75.45 39.5 75.7 60.45 72.8 62.55 73.75 66.25 74.45 116.15 83.9 167.25 75.5 133.55 71.5 96.15 75.8 78.25 77.85 61.5 72.65 L69.7 71.35 69.45 71.05 Q59.7 67.9 48.35 69.05 L31.3 71.35 M-187.5 68.8 L-187.5 35.0 187.4 35.0 187.4 110.0 -187.5 110.0 -187.5 71.15 Q-184.85 72.35 -180.1 72.7 -177.1 72.9 -174.45 74.0 -156.4 81.45 -138.85 75.35 -125.9 81.05 -112.55 74.8 L-112.75 74.6 Q-128.55 74.6 -143.65 71.7 -144.9 72.05 -143.4 73.0 L-141.65 74.05 -162.35 72.45 -168.95 71.65 Q-178.5 70.75 -187.5 68.8 M-85.35 89.1 Q-103.35 86.05 -121.7 90.35 -151.05 97.2 -178.75 89.1 L-178.85 88.6 Q-178.95 87.4 -180.1 87.45 -180.5 87.55 -180.3 88.05 -179.35 90.6 -177.25 92.6 L-174.05 93.8 Q-168.45 96.0 -162.0 95.65 -123.4 93.75 -85.35 89.1 M-99.4 98.35 L-100.25 97.65 -100.65 97.25 -101.15 96.75 -102.15 96.5 -130.35 94.6 Q-147.6 103.85 -166.75 100.9 -171.1 100.2 -174.85 98.35 -180.0 95.75 -181.75 95.9 -181.6 98.2 -179.3 99.35 -160.25 108.6 -140.65 101.5 -136.85 100.05 -132.9 100.05 -115.4 100.0 -98.95 99.25 L-99.15 98.75 Q-99.2 98.5 -99.4 98.35 M-180.45 58.35 L-180.85 58.95 -181.1 59.4 Q-174.55 57.65 -167.7 56.55 -151.6 54.0 -135.4 58.0 -120.95 61.55 -107.55 57.25 L-107.9 57.0 Q-133.3 53.65 -159.25 51.6 L-160.25 52.0 Q-165.55 54.2 -171.3 54.95 L-178.1 55.6 -178.9 56.45 -179.25 56.9 -180.1 57.9 -180.45 58.35" fill="#c9b34f" fill-rule="evenodd" stroke="none"/>
    <path d="M31.3 71.35 L48.35 69.05 Q59.7 67.9 69.45 71.05 L69.7 71.35 61.5 72.65 Q78.25 77.85 96.15 75.8 133.55 71.5 167.25 75.5 116.15 83.9 66.25 74.45 62.55 73.75 60.45 72.8 39.5 75.7 18.1 75.45 13.8 75.4 11.05 72.5 L31.3 71.35 M15.45 38.3 Q47.95 38.85 80.2 43.2 93.35 45.0 106.7 43.85 116.1 43.1 123.95 45.45 95.75 52.6 65.95 46.55 22.55 37.85 -21.0 46.95 -48.55 52.7 -76.15 48.5 -93.15 45.9 -107.45 40.1 L-107.2 39.85 Q-95.85 40.7 -81.45 43.55 -48.5 50.1 -15.65 42.0 -4.7 39.3 6.7 39.3 11.3 39.3 15.45 38.3 M112.85 36.7 Q138.75 39.2 164.9 39.75 L165.25 40.0 Q137.65 46.75 112.15 36.8 L112.85 36.7 M145.4 52.9 Q157.4 49.35 168.95 51.45 168.2 51.7 167.75 52.2 L165.95 53.3 Q102.45 67.2 37.7 56.5 3.75 50.9 -28.4 58.25 -55.8 64.55 -84.0 60.75 -100.2 58.5 -115.5 53.75 -148.2 43.5 -181.95 46.3 L-182.7 46.85 Q-183.55 47.55 -184.8 47.8 -186.35 47.05 -183.8 45.45 L-182.25 44.5 -181.45 44.0 Q-177.2 44.5 -173.35 43.4 L-171.55 42.9 -170.7 42.65 Q-145.4 42.05 -120.6 47.6 L-106.7 50.95 Q-67.7 61.4 -28.05 55.65 8.9 50.35 46.0 55.2 85.05 60.3 124.2 56.9 135.0 55.95 145.4 52.9 M142.1 64.4 L142.4 64.2 Q145.9 62.3 149.8 62.1 L165.25 62.2 166.1 62.4 166.8 62.85 168.3 63.9 Q156.35 64.45 143.95 64.55 L142.1 64.4 M140.05 68.7 Q103.3 72.15 66.4 67.4 28.4 62.55 -9.0 70.1 -46.35 77.65 -84.2 72.4 L-117.0 67.8 -125.95 66.65 Q-130.8 66.15 -134.75 66.7 -125.95 61.45 -114.45 65.25 L-105.2 67.7 Q-66.3 75.7 -26.95 69.3 2.0 64.5 30.9 62.2 L108.15 66.65 140.05 68.7 M173.8 88.75 Q174.15 88.85 174.5 89.1 153.15 100.8 131.05 90.85 L130.0 90.3 Q151.1 94.35 172.0 88.25 L173.8 88.75 M137.7 100.45 Q158.65 99.35 178.35 101.9 146.25 111.45 116.2 98.4 L98.1 93.55 Q75.1 92.9 52.1 94.5 L32.15 96.3 Q25.95 97.0 22.5 91.9 36.55 95.75 52.1 94.3 L62.65 92.75 79.8 89.15 56.5 84.2 47.0 83.9 41.3 83.6 47.2 81.7 Q52.25 80.1 57.1 79.45 95.0 87.5 131.75 99.65 134.6 100.65 137.7 100.45 M93.1 98.55 L92.85 98.9 92.35 99.7 Q71.8 103.9 50.85 105.2 13.85 107.6 -22.35 101.0 -32.9 99.15 -43.6 98.1 -60.15 96.55 -76.55 97.65 -84.6 98.15 -92.15 101.5 -94.05 102.35 -95.75 102.55 -93.95 100.55 -91.35 99.6 -89.7 99.0 -88.2 98.1 L-84.6 96.2 Q-79.4 93.7 -73.95 92.95 -36.05 93.5 1.35 99.0 41.4 104.8 80.9 96.85 87.9 95.45 94.15 97.85 L94.35 97.9 94.05 98.05 Q93.55 98.25 93.1 98.55 M28.15 84.2 L27.1 84.75 26.6 85.05 25.5 85.65 -25.0 81.85 Q-70.0 77.55 -114.0 87.35 -139.75 93.1 -164.45 85.2 -170.05 83.35 -175.2 80.65 L-175.75 80.15 -176.25 79.65 -176.9 79.15 Q-177.65 78.6 -177.85 77.65 L-177.9 77.15 Q-171.2 80.0 -161.0 82.35 -135.35 88.15 -109.5 82.9 -90.2 78.95 -70.65 77.35 L-37.65 75.8 -32.3 75.65 Q-1.4 77.95 28.3 83.7 L28.55 83.95 28.15 84.2 M-187.5 71.15 Q-189.85 70.1 -190.6 68.3 L-190.0 68.2 -187.5 68.8 Q-178.5 70.75 -168.95 71.65 L-162.35 72.45 -141.65 74.05 -143.4 73.0 Q-144.9 72.05 -143.65 71.7 -128.55 74.6 -112.75 74.6 L-112.55 74.8 Q-125.9 81.05 -138.85 75.35 -156.4 81.45 -174.45 74.0 -177.1 72.9 -180.1 72.7 -184.85 72.35 -187.5 71.15 M-180.45 58.35 L-180.1 57.9 -179.25 56.9 -178.9 56.45 -178.1 55.6 -171.3 54.95 Q-165.55 54.2 -160.25 52.0 L-159.25 51.6 Q-133.3 53.65 -107.9 57.0 L-107.55 57.25 Q-120.95 61.55 -135.4 58.0 -151.6 54.0 -167.7 56.55 -174.55 57.65 -181.1 59.4 L-180.85 58.95 -180.45 58.35 M-99.4 98.35 Q-99.2 98.5 -99.15 98.75 L-98.95 99.25 Q-115.4 100.0 -132.9 100.05 -136.85 100.05 -140.65 101.5 -160.25 108.6 -179.3 99.35 -181.6 98.2 -181.75 95.9 -180.0 95.75 -174.85 98.35 -171.1 100.2 -166.75 100.9 -147.6 103.85 -130.35 94.6 L-102.15 96.5 -101.15 96.75 -100.65 97.25 -100.25 97.65 -99.4 98.35 M-85.35 89.1 Q-123.4 93.75 -162.0 95.65 -168.45 96.0 -174.05 93.8 L-177.25 92.6 Q-179.35 90.6 -180.3 88.05 -180.5 87.55 -180.1 87.45 -178.95 87.4 -178.85 88.6 L-178.75 89.1 Q-151.05 97.2 -121.7 90.35 -103.35 86.05 -85.35 89.1" fill="#a0783b" fill-rule="evenodd" stroke="none"/>
    <path d="M140.05 -6.3 L108.15 -8.35 30.9 -12.8 Q2.0 -10.5 -26.95 -5.7 -66.3 0.7 -105.2 -7.3 -109.95 -8.3 -114.45 -9.75 -125.95 -13.55 -134.75 -8.3 -130.8 -8.85 -125.95 -8.35 L-117.0 -7.2 -84.2 -2.6 Q-46.35 2.65 -9.0 -4.9 28.4 -12.45 66.4 -7.6 103.3 -2.85 140.05 -6.3 M145.4 -22.1 Q135.0 -19.05 124.2 -18.1 85.05 -14.7 46.0 -19.8 8.9 -24.65 -28.05 -19.35 -67.7 -13.6 -106.7 -24.05 L-120.6 -27.4 Q-145.4 -32.95 -170.7 -32.35 L-171.55 -32.1 -173.35 -31.6 Q-177.2 -30.5 -181.45 -31.0 L-182.25 -30.5 -183.8 -29.55 Q-186.35 -27.95 -184.8 -27.2 -183.55 -27.45 -182.7 -28.15 L-181.95 -28.7 Q-148.2 -31.5 -115.5 -21.25 -100.2 -16.5 -84.0 -14.25 -55.8 -10.45 -28.4 -16.75 3.75 -24.1 37.7 -18.5 102.45 -7.8 165.95 -21.7 167.0 -22.0 167.75 -22.8 168.2 -23.3 168.95 -23.55 157.4 -25.65 145.4 -22.1 M142.1 -10.6 L143.95 -10.45 Q156.35 -10.55 168.3 -11.1 L166.8 -12.15 166.1 -12.6 165.25 -12.8 149.8 -12.9 Q145.9 -12.7 142.4 -10.8 L142.1 -10.6 M130.0 15.3 L131.05 15.85 Q153.15 25.8 174.5 14.1 174.15 13.85 173.8 13.75 L172.0 13.25 Q151.1 19.35 130.0 15.3 M80.9 21.85 Q41.4 29.8 1.35 24.0 -36.05 18.5 -73.95 17.95 -79.4 18.7 -84.6 21.2 L-88.2 23.1 Q-89.7 24.0 -91.35 24.6 -93.95 25.55 -95.75 27.55 -94.05 27.35 -92.15 26.5 -84.6 23.15 -76.55 22.65 -60.15 21.55 -43.6 23.1 -32.9 24.15 -22.35 26.0 13.85 32.6 50.85 30.2 71.8 28.9 92.35 24.7 L92.85 23.9 93.1 23.55 Q93.55 23.25 94.05 23.05 L94.35 22.9 Q88.0 20.45 80.9 21.85 M28.55 8.95 L28.3 8.7 Q-1.4 2.95 -32.3 0.65 L-37.65 0.8 -70.65 2.35 Q-90.2 3.95 -109.5 7.9 -135.35 13.15 -161.0 7.35 -171.2 5.0 -177.9 2.15 L-177.85 2.65 Q-177.65 3.6 -176.9 4.15 L-176.25 4.65 -175.75 5.15 -175.2 5.65 Q-170.05 8.35 -164.45 10.2 -139.75 18.1 -114.0 12.35 -70.0 2.55 -25.0 6.85 L25.5 10.65 26.6 10.05 27.1 9.75 28.15 9.2 28.55 8.95 M47.0 8.9 L56.5 9.2 79.8 14.15 62.65 17.75 Q41.2 22.0 22.5 16.9 25.95 22.0 32.15 21.3 65.15 17.6 98.1 18.55 L116.2 23.4 Q146.25 36.45 178.35 26.9 158.65 24.35 137.7 25.45 134.6 25.65 131.75 24.65 95.0 12.5 57.1 4.45 52.25 5.1 47.2 6.7 L41.3 8.6 47.0 8.9 M69.7 -3.65 L69.45 -3.95 Q59.7 -7.1 48.35 -5.95 L31.3 -3.65 Q20.9 -2.05 11.05 -2.5 13.8 0.4 18.1 0.45 39.5 0.7 60.45 -2.2 62.55 -1.25 66.25 -0.55 116.15 8.9 167.25 0.5 133.55 -3.5 96.15 0.8 78.25 2.85 61.5 -2.35 L69.7 -3.65 M123.95 -29.55 Q116.1 -31.9 106.7 -31.15 93.35 -30.0 80.2 -31.8 47.95 -36.15 15.45 -36.7 11.3 -35.7 6.7 -35.7 -4.7 -35.7 -15.65 -33.0 -48.5 -24.9 -81.45 -31.45 -95.85 -34.3 -107.2 -35.15 L-107.45 -34.9 Q-93.15 -29.1 -76.15 -26.5 -48.55 -22.3 -21.0 -28.05 22.55 -37.15 65.95 -28.45 95.75 -22.4 123.95 -29.55 M112.85 -38.3 L112.15 -38.2 Q137.65 -28.25 165.25 -35.0 L164.9 -35.25 Q138.75 -35.8 112.85 -38.3 M-187.5 -6.2 L-187.5 -40.0 187.4 -40.0 187.4 35.0 -187.5 35.0 -187.5 -3.85 Q-184.85 -2.65 -180.1 -2.3 -177.1 -2.1 -174.45 -1.0 -156.4 6.45 -138.85 0.35 -125.9 6.05 -112.55 -0.2 L-112.75 -0.4 Q-128.55 -0.4 -143.65 -3.3 -144.9 -2.95 -143.4 -2.0 L-141.65 -0.95 -162.35 -2.55 -168.95 -3.35 Q-178.5 -4.25 -187.5 -6.2 M-178.75 14.1 L-178.85 13.6 Q-178.95 12.4 -180.1 12.45 -180.5 12.55 -180.3 13.05 -179.35 15.6 -177.25 17.6 L-174.05 18.8 Q-168.45 21.0 -162.0 20.65 -123.4 18.75 -85.35 14.1 -103.35 11.05 -121.7 15.35 -151.05 22.2 -178.75 14.1 M-174.85 23.35 Q-180.0 20.75 -181.75 20.9 -181.6 23.2 -179.3 24.35 -160.25 33.6 -140.65 26.5 -136.85 25.05 -132.9 25.05 -115.4 25.0 -98.95 24.25 L-99.15 23.75 Q-99.2 23.5 -99.4 23.35 L-100.25 22.65 -100.65 22.25 -101.15 21.75 -102.15 21.5 -130.35 19.6 Q-147.6 28.85 -166.75 25.9 -171.1 25.2 -174.85 23.35 M-180.1 -17.1 L-180.45 -16.65 -180.85 -16.05 -181.1 -15.6 Q-174.55 -17.35 -167.7 -18.45 -151.6 -21.0 -135.4 -17.0 -120.95 -13.45 -107.55 -17.75 L-107.9 -18.0 Q-133.3 -21.35 -159.25 -23.4 L-160.25 -23.0 Q-165.55 -20.8 -171.3 -20.05 L-178.1 -19.4 -178.9 -18.55 -179.25 -18.1 -180.1 -17.1" fill="#c9b34f" fill-rule="evenodd" stroke="none"/>
    <path d="M112.85 -38.3 Q138.75 -35.8 164.9 -35.25 L165.25 -35.0 Q137.65 -28.25 112.15 -38.2 L112.85 -38.3 M123.95 -29.55 Q95.75 -22.4 65.95 -28.45 22.55 -37.15 -21.0 -28.05 -48.55 -22.3 -76.15 -26.5 -93.15 -29.1 -107.45 -34.9 L-107.2 -35.15 Q-95.85 -34.3 -81.45 -31.45 -48.5 -24.9 -15.65 -33.0 -4.7 -35.7 6.7 -35.7 11.3 -35.7 15.45 -36.7 47.95 -36.15 80.2 -31.8 93.35 -30.0 106.7 -31.15 116.1 -31.9 123.95 -29.55 M69.7 -3.65 L61.5 -2.35 Q78.25 2.85 96.15 0.8 133.55 -3.5 167.25 0.5 116.15 8.9 66.25 -0.55 62.55 -1.25 60.45 -2.2 39.5 0.7 18.1 0.45 13.8 0.4 11.05 -2.5 20.9 -2.05 31.3 -3.65 L48.35 -5.95 Q59.7 -7.1 69.45 -3.95 L69.7 -3.65 M47.0 8.9 L41.3 8.6 47.2 6.7 Q52.25 5.1 57.1 4.45 95.0 12.5 131.75 24.65 134.6 25.65 137.7 25.45 158.65 24.35 178.35 26.9 146.25 36.45 116.2 23.4 L98.1 18.55 Q65.15 17.6 32.15 21.3 25.95 22.0 22.5 16.9 41.2 22.0 62.65 17.75 L79.8 14.15 56.5 9.2 47.0 8.9 M28.55 8.95 L28.15 9.2 27.1 9.75 26.6 10.05 25.5 10.65 -25.0 6.85 Q-70.0 2.55 -114.0 12.35 -139.75 18.1 -164.45 10.2 -170.05 8.35 -175.2 5.65 L-175.75 5.15 -176.25 4.65 -176.9 4.15 Q-177.65 3.6 -177.85 2.65 L-177.9 2.15 Q-171.2 5.0 -161.0 7.35 -135.35 13.15 -109.5 7.9 -90.2 3.95 -70.65 2.35 L-37.65 0.8 -32.3 0.65 Q-1.4 2.95 28.3 8.7 L28.55 8.95 M80.9 21.85 Q88.0 20.45 94.35 22.9 L94.05 23.05 Q93.55 23.25 93.1 23.55 L92.85 23.9 92.35 24.7 Q71.8 28.9 50.85 30.2 13.85 32.6 -22.35 26.0 -32.9 24.15 -43.6 23.1 -60.15 21.55 -76.55 22.65 -84.6 23.15 -92.15 26.5 -94.05 27.35 -95.75 27.55 -93.95 25.55 -91.35 24.6 -89.7 24.0 -88.2 23.1 L-84.6 21.2 Q-79.4 18.7 -73.95 17.95 -36.05 18.5 1.35 24.0 41.4 29.8 80.9 21.85 M130.0 15.3 Q151.1 19.35 172.0 13.25 L173.8 13.75 Q174.15 13.85 174.5 14.1 153.15 25.8 131.05 15.85 L130.0 15.3 M142.1 -10.6 L142.4 -10.8 Q145.9 -12.7 149.8 -12.9 L165.25 -12.8 166.1 -12.6 166.8 -12.15 168.3 -11.1 Q156.35 -10.55 143.95 -10.45 L142.1 -10.6 M145.4 -22.1 Q157.4 -25.65 168.95 -23.55 168.2 -23.3 167.75 -22.8 167.0 -22.0 165.95 -21.7 102.45 -7.8 37.7 -18.5 3.75 -24.1 -28.4 -16.75 -55.8 -10.45 -84.0 -14.25 -100.2 -16.5 -115.5 -21.25 -148.2 -31.5 -181.95 -28.7 L-182.7 -28.15 Q-183.55 -27.45 -184.8 -27.2 -186.35 -27.95 -183.8 -29.55 L-182.25 -30.5 -181.45 -31.0 Q-177.2 -30.5 -173.35 -31.6 L-171.55 -32.1 -170.7 -32.35 Q-145.4 -32.95 -120.6 -27.4 L-106.7 -24.05 Q-67.7 -13.6 -28.05 -19.35 8.9 -24.65 46.0 -19.8 85.05 -14.7 124.2 -18.1 135.0 -19.05 145.4 -22.1 M140.05 -6.3 Q103.3 -2.85 66.4 -7.6 28.4 -12.45 -9.0 -4.9 -46.35 2.65 -84.2 -2.6 L-117.0 -7.2 -125.95 -8.35 Q-130.8 -8.85 -134.75 -8.3 -125.95 -13.55 -114.45 -9.75 -109.95 -8.3 -105.2 -7.3 -66.3 0.7 -26.95 -5.7 2.0 -10.5 30.9 -12.8 L108.15 -8.35 140.05 -6.3 M-187.5 -3.85 Q-189.85 -4.9 -190.6 -6.7 L-190.0 -6.8 -187.5 -6.2 Q-178.5 -4.25 -168.95 -3.35 L-162.35 -2.55 -141.65 -0.95 -143.4 -2.0 Q-144.9 -2.95 -143.65 -3.3 -128.55 -0.4 -112.75 -0.4 L-112.55 -0.2 Q-125.9 6.05 -138.85 0.35 -156.4 6.45 -174.45 -1.0 -177.1 -2.1 -180.1 -2.3 -184.85 -2.65 -187.5 -3.85 M-180.1 -17.1 L-179.25 -18.1 -178.9 -18.55 -178.1 -19.4 -171.3 -20.05 Q-165.55 -20.8 -160.25 -23.0 L-159.25 -23.4 Q-133.3 -21.35 -107.9 -18.0 L-107.55 -17.75 Q-120.95 -13.45 -135.4 -17.0 -151.6 -21.0 -167.7 -18.45 -174.55 -17.35 -181.1 -15.6 L-180.85 -16.05 -180.45 -16.65 -180.1 -17.1 M-174.85 23.35 Q-171.1 25.2 -166.75 25.9 -147.6 28.85 -130.35 19.6 L-102.15 21.5 -101.15 21.75 -100.65 22.25 -100.25 22.65 -99.4 23.35 Q-99.2 23.5 -99.15 23.75 L-98.95 24.25 Q-115.4 25.0 -132.9 25.05 -136.85 25.05 -140.65 26.5 -160.25 33.6 -179.3 24.35 -181.6 23.2 -181.75 20.9 -180.0 20.75 -174.85 23.35 M-178.75 14.1 Q-151.05 22.2 -121.7 15.35 -103.35 11.05 -85.35 14.1 -123.4 18.75 -162.0 20.65 -168.45 21.0 -174.05 18.8 L-177.25 17.6 Q-179.35 15.6 -180.3 13.05 -180.5 12.55 -180.1 12.45 -178.95 12.4 -178.85 13.6 L-178.75 14.1" fill="#a0783b" fill-rule="evenodd" stroke="none"/>
  </g>
</svg>
