<?xml version="1.0" encoding="UTF-8" standalone="no"?>
<svg xmlns:xlink="http://www.w3.org/1999/xlink" height="15.0px" width="61.0px" xmlns="http://www.w3.org/2000/svg">
  <g transform="matrix(1.0, 0.0, 0.0, 1.0, 30.5, 7.5)">
    <path d="M25.4 -7.0 Q27.3 -7.0 28.65 -4.9 30.0 -2.85 30.0 0.0 30.0 2.85 28.65 4.95 27.3 7.0 25.4 7.0 L-25.4 7.0 Q-27.3 7.0 -28.65 4.95 -30.0 2.85 -30.0 0.0 -30.0 -2.85 -28.65 -4.9 -27.3 -7.0 -25.4 -7.0 L25.4 -7.0" fill="#3d2312" fill-rule="evenodd" stroke="none"/>
    <path d="M25.4 -7.0 L-25.4 -7.0 Q-27.3 -7.0 -28.65 -4.9 -30.0 -2.85 -30.0 0.0 -30.0 2.85 -28.65 4.95 -27.3 7.0 -25.4 7.0 L25.4 7.0 Q27.3 7.0 28.65 4.95 30.0 2.85 30.0 0.0 30.0 -2.85 28.65 -4.9 27.3 -7.0 25.4 -7.0 Z" fill="none" stroke="#fd3535" stroke-linecap="round" stroke-linejoin="round" stroke-opacity="0.5019608" stroke-width="1.0"/>
  </g>
</svg>
