<?xml version="1.0" encoding="UTF-8" standalone="no"?>
<svg xmlns:xlink="http://www.w3.org/1999/xlink" height="33.0px" width="33.0px" xmlns="http://www.w3.org/2000/svg">
  <g transform="matrix(1.0, 0.0, 0.0, 1.0, 16.5, 16.5)">
    <path d="M11.25 -11.3 Q16.0 -6.65 16.0 0.0 16.0 6.65 11.25 11.25 6.65 16.0 0.0 16.0 -6.65 16.0 -11.3 11.25 -16.0 6.65 -16.0 0.0 -16.0 -6.65 -11.3 -11.3 -6.65 -16.0 0.0 -16.0 6.65 -16.0 11.25 -11.3" fill="#3d2312" fill-rule="evenodd" stroke="none"/>
    <path d="M11.25 -11.3 Q16.0 -6.65 16.0 0.0 16.0 6.65 11.25 11.25 6.65 16.0 0.0 16.0 -6.65 16.0 -11.3 11.25 -16.0 6.65 -16.0 0.0 -16.0 -6.65 -11.3 -11.3 -6.65 -16.0 0.0 -16.0 6.65 -16.0 11.25 -11.3 Z" fill="none" stroke="#8cff60" stroke-linecap="round" stroke-linejoin="round" stroke-opacity="0.5019608" stroke-width="1.0"/>
    <path d="M9.15 -9.2 Q13.0 -5.4 13.0 0.0 L13.0 0.25 Q-0.5 -4.65 -13.0 0.25 L-13.0 0.0 Q-13.0 -5.4 -9.2 -9.2 -5.4 -13.0 0.0 -13.0 5.4 -13.0 9.15 -9.2" fill="#7a5b33" fill-rule="evenodd" stroke="none"/>
  </g>
</svg>
