<?xml version="1.0" encoding="UTF-8" standalone="no"?>
<svg xmlns:xlink="http://www.w3.org/1999/xlink" height="39.15px" width="45.85px" xmlns="http://www.w3.org/2000/svg">
  <g transform="matrix(1.0, 0.0, 0.0, 1.0, 21.75, 18.4)">
    <path d="M7.65 -10.0 Q13.5 -15.6 20.1 -18.4 L20.25 -17.75 15.45 -13.25 9.15 -7.3 9.0 -7.15 Q11.85 -9.15 14.75 -10.85 20.55 -14.3 23.0 -14.3 24.15 -14.3 24.1 -13.5 24.1 -12.6 23.0 -12.25 L20.0 -11.15 20.65 -10.5 Q20.65 -10.25 11.9 -4.65 L4.1 0.5 10.5 6.65 14.45 9.5 Q19.65 13.6 20.4 16.4 L20.25 16.6 16.2 13.5 Q18.5 16.95 18.5 19.25 L18.5 20.0 17.75 20.25 10.6 13.35 0.4 3.15 -1.05 4.25 -4.8 7.75 Q-6.9 9.8 -9.9 13.7 L-14.55 19.5 Q-13.6 16.65 -11.7 13.65 -16.05 17.85 -17.25 20.75 L-17.3 20.45 -17.25 19.8 Q-17.25 19.55 -17.7 19.25 L-18.15 18.65 Q-18.15 15.3 -2.45 0.35 L-9.4 -6.55 -13.25 -9.3 Q-16.15 -10.7 -17.85 -11.8 -19.4 -12.8 -21.75 -14.8 L-19.7 -14.05 Q-20.8 -15.1 -20.8 -15.6 -20.8 -17.9 -14.65 -14.2 -8.95 -10.7 -1.15 -4.1 L0.6 -2.6 7.65 -10.0 M2.9 2.3 L6.5 5.65 2.4 1.7 2.3 1.75 2.9 2.3" fill="#960000" fill-opacity="0.5019608" fill-rule="evenodd" stroke="none"/>
  </g>
</svg>
