<?xml version="1.0" encoding="UTF-8" standalone="no"?>
<svg xmlns:xlink="http://www.w3.org/1999/xlink" height="15.0px" width="86.0px" xmlns="http://www.w3.org/2000/svg">
  <g transform="matrix(1.0, 0.0, 0.0, 1.0, 43.0, 7.75)">
    <path d="M41.15 -5.15 Q42.5 -3.1 42.5 -0.25 42.5 2.6 41.15 4.7 39.8 6.75 37.9 6.75 L-37.9 6.75 Q-39.8 6.75 -41.15 4.7 -42.5 2.6 -42.5 -0.25 -42.5 -3.1 -41.15 -5.15 -39.8 -7.25 -37.9 -7.25 L37.9 -7.25 Q39.8 -7.25 41.15 -5.15" fill="#3d2312" fill-rule="evenodd" stroke="none"/>
    <path d="M41.15 -5.15 Q39.8 -7.25 37.9 -7.25 L-37.9 -7.25 Q-39.8 -7.25 -41.15 -5.15 -42.5 -3.1 -42.5 -0.25 -42.5 2.6 -41.15 4.7 -39.8 6.75 -37.9 6.75 L37.9 6.75 Q39.8 6.75 41.15 4.7 42.5 2.6 42.5 -0.25 42.5 -3.1 41.15 -5.15 Z" fill="none" stroke="#8cff60" stroke-linecap="round" stroke-linejoin="round" stroke-opacity="0.5019608" stroke-width="1.0"/>
  </g>
</svg>
