<?xml version="1.0" encoding="UTF-8" standalone="no"?>
<svg xmlns:xlink="http://www.w3.org/1999/xlink" height="76.0px" width="63.0px" xmlns="http://www.w3.org/2000/svg">
  <g transform="matrix(1.0, 0.0, 0.0, 1.0, 29.25, 55.5)">
    <path d="M18.0 20.0 L-18.0 20.0 -18.0 -20.0 18.0 -20.0 18.0 20.0" fill="url(#gradient0)" fill-rule="evenodd" stroke="none"/>
    <path d="M31.85 -53.6 Q33.25 -52.2 33.25 -50.25 33.25 -48.3 31.85 -46.9 30.45 -45.5 28.5 -45.5 L-24.0 -45.5 Q-25.95 -45.5 -27.35 -46.9 -28.75 -48.3 -28.75 -50.25 -28.75 -52.2 -27.35 -53.6 -25.95 -55.0 -24.0 -55.0 L28.5 -55.0 Q30.45 -55.0 31.85 -53.6" fill="url(#gradient1)" fill-rule="evenodd" stroke="none"/>
    <path d="M31.85 -53.6 Q30.45 -55.0 28.5 -55.0 L-24.0 -55.0 Q-25.95 -55.0 -27.35 -53.6 -28.75 -52.2 -28.75 -50.25 -28.75 -48.3 -27.35 -46.9 -25.95 -45.5 -24.0 -45.5 L28.5 -45.5 Q30.45 -45.5 31.85 -46.9 33.25 -48.3 33.25 -50.25 33.25 -52.2 31.85 -53.6 M18.0 20.0 L-18.0 20.0 -18.0 -20.0 18.0 -20.0 18.0 20.0" fill="none" stroke="#ffcc99" stroke-linecap="round" stroke-linejoin="round" stroke-width="1.0"/>
  </g>
  <defs>
    <linearGradient gradientTransform="matrix(0.0, 0.0241, -0.0244, 0.0, 0.0, 0.0)" gradientUnits="userSpaceOnUse" id="gradient0" spreadMethod="pad" x1="-819.2" x2="819.2">
      <stop offset="0.0" stop-color="#fedb4e" stop-opacity="0.4"/>
      <stop offset="1.0" stop-color="#8f7301" stop-opacity="0.3019608"/>
    </linearGradient>
    <linearGradient gradientTransform="matrix(0.0378, 0.0, 0.0, 0.0058, 2.25, -50.25)" gradientUnits="userSpaceOnUse" id="gradient1" spreadMethod="pad" x1="-819.2" x2="819.2">
      <stop offset="0.0" stop-color="#fedb4e" stop-opacity="0.4"/>
      <stop offset="1.0" stop-color="#8f7301" stop-opacity="0.3019608"/>
    </linearGradient>
  </defs>
</svg>
