<?xml version="1.0" encoding="UTF-8" standalone="no"?>
<svg xmlns:xlink="http://www.w3.org/1999/xlink" height="11.0px" width="63.0px" xmlns="http://www.w3.org/2000/svg">
  <g transform="matrix(1.0, 0.0, 0.0, 1.0, 31.5, 5.5)">
    <path d="M26.25 -5.0 Q28.2 -5.0 29.6 -3.5 31.0 -2.05 31.0 0.0 31.0 2.05 29.6 3.55 28.2 5.0 26.25 5.0 L-26.25 5.0 Q-28.2 5.0 -29.6 3.55 -31.0 2.05 -31.0 0.0 -31.0 -2.05 -29.6 -3.5 -28.2 -5.0 -26.25 -5.0 L26.25 -5.0" fill="url(#gradient0)" fill-rule="evenodd" stroke="none"/>
    <path d="M26.25 -5.0 L-26.25 -5.0 Q-28.2 -5.0 -29.6 -3.5 -31.0 -2.05 -31.0 0.0 -31.0 2.05 -29.6 3.55 -28.2 5.0 -26.25 5.0 L26.25 5.0 Q28.2 5.0 29.6 3.55 31.0 2.05 31.0 0.0 31.0 -2.05 29.6 -3.5 28.2 -5.0 26.25 -5.0 Z" fill="none" stroke="#ffcc99" stroke-linecap="round" stroke-linejoin="round" stroke-width="1.0"/>
  </g>
  <defs>
    <linearGradient gradientTransform="matrix(-0.0378, 0.0014, -2.0E-4, -0.0061, 0.0, 0.0)" gradientUnits="userSpaceOnUse" id="gradient0" spreadMethod="pad" x1="-819.2" x2="819.2">
      <stop offset="0.0" stop-color="#fedb4e" stop-opacity="0.4"/>
      <stop offset="1.0" stop-color="#8f7301" stop-opacity="0.3019608"/>
    </linearGradient>
  </defs>
</svg>
