<?xml version="1.0" encoding="UTF-8" standalone="no"?>
<svg xmlns:xlink="http://www.w3.org/1999/xlink" height="21.3px" width="21.0px" xmlns="http://www.w3.org/2000/svg">
  <g transform="matrix(1.0, 0.0, 0.0, 1.0, 10.5, 10.5)">
    <path d="M0.0 10.0 L-10.0 0.0 0.0 -10.0 10.0 0.0 0.0 10.0" fill="#72c772" fill-opacity="0.3019608" fill-rule="evenodd" stroke="none"/>
    <path d="M0.0 10.0 L-10.0 0.0 0.0 -10.0 10.0 0.0 0.0 10.0 Z" fill="none" stroke="#64f996" stroke-linecap="round" stroke-linejoin="round" stroke-width="1.0"/>
    <path d="M7.05 7.3 Q4.15 10.3 0.0 10.3 -4.15 10.3 -7.1 7.3 -10.0 4.35 -10.0 0.15 -10.0 -4.05 -7.1 -7.05 -4.15 -10.0 0.0 -10.0 4.15 -10.0 7.05 -7.05 10.0 -4.05 10.0 0.15 10.0 4.35 7.05 7.3" fill="#72c772" fill-opacity="0.3019608" fill-rule="evenodd" stroke="none"/>
    <path d="M7.05 7.3 Q4.15 10.3 0.0 10.3 -4.15 10.3 -7.1 7.3 -10.0 4.35 -10.0 0.15 -10.0 -4.05 -7.1 -7.05 -4.15 -10.0 0.0 -10.0 4.15 -10.0 7.05 -7.05 10.0 -4.05 10.0 0.15 10.0 4.35 7.05 7.3 Z" fill="none" stroke="#64f996" stroke-linecap="round" stroke-linejoin="round" stroke-width="1.0"/>
  </g>
</svg>
