<?xml version="1.0" encoding="UTF-8" standalone="no"?>
<svg xmlns:xlink="http://www.w3.org/1999/xlink" height="39.4px" width="20.0px" xmlns="http://www.w3.org/2000/svg">
  <g transform="matrix(1.0, 0.0, 0.0, 1.0, 10.0, 62.85)">
    <path d="M4.7 -54.2 L10.0 -51.55 4.15 -50.9 6.5 -45.5 1.65 -48.85 0.0 -43.15 -1.6 -48.85 -6.55 -45.5 -4.1 -50.9 -10.0 -51.55 -4.65 -54.2 -8.8 -58.4 -3.05 -57.0 -3.5 -62.85 0.0 -58.05 3.45 -62.85 3.1 -57.0 8.75 -58.4 4.7 -54.2" fill="#d0c18e" fill-opacity="0.3019608" fill-rule="evenodd" stroke="none"/>
    <path d="M6.75 -58.75 L-2.15 -49.6 -1.15 -48.55 -1.8 -47.9 -3.45 -48.8 -3.8 -48.45 -4.95 -47.3 -6.5 -45.75 -6.6 -45.85 -6.85 -45.3 Q-7.05 -45.1 -7.35 -45.1 -7.65 -45.05 -7.85 -45.3 L-8.1 -45.8 -7.9 -46.3 -7.35 -46.55 -7.3 -46.55 -7.4 -46.65 -6.75 -47.3 -5.6 -48.45 -4.35 -49.7 -5.25 -51.35 -4.6 -52.0 -3.55 -51.0 7.7 -62.2 Q8.5 -61.2 6.75 -58.75 M-6.75 -47.3 L-4.95 -47.3 -6.75 -47.3 M-6.6 -45.85 L-6.8 -46.35 -7.3 -46.55 -6.8 -46.35 -6.6 -45.85 M0.65 -53.6 L-2.8 -50.2 -2.15 -49.6 -2.8 -50.2 -3.55 -51.0 -2.8 -50.2 0.65 -53.6 M-4.35 -49.7 L-3.45 -48.8 -4.35 -49.7 M-3.8 -48.45 L-5.6 -48.45 -3.8 -48.45" fill="#d0c18e" fill-opacity="0.3019608" fill-rule="evenodd" stroke="none"/>
    <path d="M6.75 -58.75 L-2.15 -49.6 -1.15 -48.55 -1.8 -47.9 -3.45 -48.8 -3.8 -48.45 -4.95 -47.3 -6.5 -45.75 -6.6 -45.85 -6.85 -45.3 Q-7.05 -45.1 -7.35 -45.1 -7.65 -45.05 -7.85 -45.3 L-8.1 -45.8 -7.9 -46.3 -7.35 -46.55 -7.3 -46.55 -7.4 -46.65 -6.75 -47.3 -5.6 -48.45 -4.35 -49.7 -5.25 -51.35 -4.6 -52.0 -3.55 -51.0 7.7 -62.2 Q8.5 -61.2 6.75 -58.75 M-2.15 -49.6 L-2.8 -50.2 -3.55 -51.0 M-5.6 -48.45 L-3.8 -48.45 M-3.45 -48.8 L-4.35 -49.7 M-2.8 -50.2 L0.65 -53.6 M-7.3 -46.55 L-6.8 -46.35 -6.6 -45.85 M-4.95 -47.3 L-6.75 -47.3" fill="none" stroke="#d0c18e" stroke-linecap="round" stroke-linejoin="round" stroke-width="1.0"/>
    <path d="M5.0 -26.3 Q2.65 -23.95 -0.65 -23.95 -2.25 -23.95 -3.6 -24.5 -5.1 -25.1 -6.3 -26.3 L-7.25 -27.4 -8.15 -29.05 Q-8.65 -30.4 -8.65 -31.95 -8.65 -35.3 -6.3 -37.6 -4.0 -39.95 -0.65 -39.95 L2.25 -39.45 3.9 -38.55 5.0 -37.6 Q6.2 -36.4 6.8 -34.9 7.35 -33.55 7.35 -31.95 7.35 -28.65 5.0 -26.3 M2.25 -39.45 L-8.15 -29.05 2.25 -39.45 M-7.25 -27.4 L3.9 -38.55 -7.25 -27.4 M6.8 -34.9 L-3.6 -24.5 6.8 -34.9" fill="#72c7eb" fill-opacity="0.3019608" fill-rule="evenodd" stroke="none"/>
    <path d="M5.0 -26.3 Q2.65 -23.95 -0.65 -23.95 -2.25 -23.95 -3.6 -24.5 -5.1 -25.1 -6.3 -26.3 L-7.25 -27.4 -8.15 -29.05 Q-8.65 -30.4 -8.65 -31.95 -8.65 -35.3 -6.3 -37.6 -4.0 -39.95 -0.65 -39.95 L2.25 -39.45 3.9 -38.55 5.0 -37.6 Q6.2 -36.4 6.8 -34.9 7.35 -33.55 7.35 -31.95 7.35 -28.65 5.0 -26.3 M-3.6 -24.5 L6.8 -34.9 M3.9 -38.55 L-7.25 -27.4 M-8.15 -29.05 L2.25 -39.45" fill="none" stroke="#64f9f9" stroke-linecap="round" stroke-linejoin="round" stroke-width="1.0"/>
  </g>
</svg>
