<?xml version="1.0" encoding="UTF-8" standalone="no"?>
<svg xmlns:xlink="http://www.w3.org/1999/xlink" height="21.9px" width="17.05px" xmlns="http://www.w3.org/2000/svg">
  <g transform="matrix(1.0, 0.0, 0.0, 1.0, 0.5, 0.5)">
    <path d="M4.5 16.1 Q4.9 13.2 3.05 11.0 L2.55 10.4 0.55 7.7 Q-0.7 5.8 0.95 0.6 L5.5 0.0 10.6 0.1 14.15 0.25 Q15.0 0.45 15.2 1.25 15.65 3.25 14.25 4.75 L12.05 4.85 11.95 4.7 11.15 4.5 Q10.5 3.35 10.95 2.2 L11.25 1.85 13.3 2.3 13.25 3.45 12.05 3.45 13.25 3.45 13.3 2.3 11.25 1.85 10.95 2.2 Q10.5 3.35 11.15 4.5 10.7 5.95 11.75 7.1 L13.2 8.95 14.8 11.7 15.2 12.55 Q16.35 15.4 15.95 18.5 15.85 19.45 15.05 20.05 14.2 20.7 13.1 20.75 10.5 21.05 7.9 20.8 L2.55 20.05 1.0 19.5 0.6 19.15 Q0.25 18.55 0.35 17.9 0.55 16.8 1.15 15.9 L1.3 15.9 4.5 16.1 13.65 16.5 13.85 16.35 14.3 16.55 14.35 16.75 Q14.55 17.65 14.35 18.55 L14.05 19.1 Q13.0 20.05 11.7 19.3 10.9 18.8 11.4 18.0 11.75 17.45 12.5 17.45 L12.65 17.6 Q13.15 18.0 12.85 18.6 L12.5 18.5 12.85 18.6 Q13.15 18.0 12.65 17.6 L12.5 17.45 Q11.75 17.45 11.4 18.0 10.9 18.8 11.7 19.3 13.0 20.05 14.05 19.1 L14.35 18.55 Q14.55 17.65 14.35 16.75 L14.3 16.55 13.85 16.35 13.65 16.5 4.5 16.1 M11.75 11.9 L11.4 12.0 11.15 12.0 10.65 11.9 10.4 12.1 9.75 12.25 Q9.35 12.2 8.95 11.8 L8.75 11.7 7.95 11.55 7.15 11.0 7.05 11.45 7.0 11.9 6.8 11.65 6.5 11.25 Q6.25 10.65 5.6 10.6 5.15 10.6 5.15 11.0 L5.1 11.45 Q4.95 12.4 5.45 12.65 4.95 12.4 5.1 11.45 L5.15 11.0 Q5.15 10.6 5.6 10.6 6.25 10.65 6.5 11.25 L6.8 11.65 7.0 11.9 7.05 11.45 7.15 11.0 7.95 11.55 8.75 11.7 8.95 11.8 Q9.35 12.2 9.75 12.25 L10.4 12.1 10.65 11.9 11.15 12.0 11.4 12.0 11.75 11.9 M10.7 7.9 L10.2 7.5 Q9.7 7.55 9.5 7.95 9.3 8.25 8.95 7.8 L8.5 7.3 8.25 7.15 7.9 7.35 7.6 7.4 6.7 7.15 6.6 7.3 Q6.6 7.7 6.25 7.55 5.55 7.3 5.25 6.6 5.55 7.3 6.25 7.55 6.6 7.7 6.6 7.3 L6.7 7.15 7.6 7.4 7.9 7.35 8.25 7.15 8.5 7.3 8.95 7.8 Q9.3 8.25 9.5 7.95 9.7 7.55 10.2 7.5 L10.7 7.9 M5.25 6.6 L5.35 7.3 5.15 8.05 Q5.15 6.75 4.4 5.9 L3.75 5.15 Q3.3 4.55 2.55 4.6 L2.4 4.7 Q2.35 6.35 2.9 7.9 L2.95 8.1 Q3.2 8.7 3.75 9.0 3.2 8.7 2.95 8.1 L2.9 7.9 Q2.35 6.35 2.4 4.7 L2.55 4.6 Q3.3 4.55 3.75 5.15 L4.4 5.9 Q5.15 6.75 5.15 8.05 L5.35 7.3 5.25 6.6 5.25 6.55 5.15 6.35 5.25 6.6 M11.1 14.35 L10.5 14.4 10.25 14.4 9.1 14.1 8.85 14.15 6.95 14.05 Q6.15 13.55 6.05 14.5 6.15 13.55 6.95 14.05 L8.85 14.15 9.1 14.1 10.25 14.4 10.5 14.4 11.1 14.35" fill="#d0c18e" fill-opacity="0.3019608" fill-rule="evenodd" stroke="none"/>
    <path d="M11.15 4.5 L11.95 4.7 12.05 4.85 14.25 4.75 Q15.65 3.25 15.2 1.25 15.0 0.45 14.15 0.25 L10.6 0.1 5.5 0.0 0.95 0.6 Q-0.7 5.8 0.55 7.7 L2.55 10.4 3.05 11.0 Q4.9 13.2 4.5 16.1 L13.65 16.5 13.85 16.35 14.3 16.55 14.35 16.75 Q14.55 17.65 14.35 18.55 L14.05 19.1 Q13.0 20.05 11.7 19.3 10.9 18.8 11.4 18.0 11.75 17.45 12.5 17.45 L12.65 17.6 Q13.15 18.0 12.85 18.6 L12.5 18.5 M11.15 4.5 Q10.5 3.35 10.95 2.2 L11.25 1.85 13.3 2.3 13.25 3.45 12.05 3.45 M5.25 6.6 Q5.55 7.3 6.25 7.55 6.6 7.7 6.6 7.3 L6.7 7.15 7.6 7.4 7.9 7.35 8.25 7.15 8.5 7.3 8.95 7.8 Q9.3 8.25 9.5 7.95 9.7 7.55 10.2 7.5 L10.7 7.9 M5.45 12.65 Q4.95 12.4 5.1 11.45 L5.15 11.0 Q5.15 10.6 5.6 10.6 6.25 10.65 6.5 11.25 L6.8 11.65 7.0 11.9 7.05 11.45 7.15 11.0 7.95 11.55 8.75 11.7 8.95 11.8 Q9.35 12.2 9.75 12.25 L10.4 12.1 10.65 11.9 11.15 12.0 11.4 12.0 11.75 11.9 M1.15 15.9 Q0.55 16.8 0.35 17.9 0.25 18.55 0.6 19.15 L1.0 19.5 2.55 20.05 7.9 20.8 Q10.5 21.05 13.1 20.75 14.2 20.7 15.05 20.05 15.85 19.45 15.95 18.5 16.35 15.4 15.2 12.55 L14.8 11.7 13.2 8.95 11.75 7.1 Q10.7 5.95 11.15 4.5 M6.05 14.5 Q6.15 13.55 6.95 14.05 L8.85 14.15 9.1 14.1 10.25 14.4 10.5 14.4 11.1 14.35 M3.75 9.0 Q3.2 8.7 2.95 8.1 L2.9 7.9 Q2.35 6.35 2.4 4.7 L2.55 4.6 Q3.3 4.55 3.75 5.15 L4.4 5.9 Q5.15 6.75 5.15 8.05 L5.35 7.3 5.25 6.6 5.15 6.35 5.25 6.55 5.25 6.6 M4.5 16.1 L1.3 15.9" fill="none" stroke="#d0c18e" stroke-linecap="round" stroke-linejoin="round" stroke-width="1.0"/>
  </g>
</svg>
