<?xml version="1.0" encoding="UTF-8" standalone="no"?>
<svg xmlns:xlink="http://www.w3.org/1999/xlink" height="120.0px" width="120.0px" xmlns="http://www.w3.org/2000/svg">
  <g transform="matrix(1.0, 0.0, 0.0, 1.0, 60.0, 60.0)">
    <path d="M42.4 -42.4 Q60.0 -24.85 60.0 0.0 60.0 24.85 42.4 42.4 24.85 60.0 0.0 60.0 -24.85 60.0 -42.4 42.4 -60.0 24.85 -60.0 0.0 -60.0 -24.85 -42.4 -42.4 -24.85 -60.0 0.0 -60.0 24.85 -60.0 42.4 -42.4 M35.35 -35.35 Q20.7 -50.0 0.0 -50.0 -20.7 -50.0 -35.35 -35.35 -50.0 -20.7 -50.0 0.0 -50.0 20.7 -35.35 35.35 -20.7 50.0 0.0 50.0 20.7 50.0 35.35 35.35 50.0 20.7 50.0 0.0 50.0 -20.7 35.35 -35.35" fill="url(#gradient0)" fill-rule="evenodd" stroke="none"/>
    <path d="M35.35 -35.35 Q50.0 -20.7 50.0 0.0 50.0 20.7 35.35 35.35 20.7 50.0 0.0 50.0 -20.7 50.0 -35.35 35.35 -50.0 20.7 -50.0 0.0 -50.0 -20.7 -35.35 -35.35 -20.7 -50.0 0.0 -50.0 20.7 -50.0 35.35 -35.35" fill="url(#gradient1)" fill-rule="evenodd" stroke="none"/>
  </g>
  <defs>
    <radialGradient cx="0" cy="0" gradientTransform="matrix(0.0739, 0.0, 0.0, 0.0739, 0.0, 0.0)" gradientUnits="userSpaceOnUse" id="gradient0" r="819.2" spreadMethod="pad">
      <stop offset="0.5882352941176471" stop-color="#213ca3" stop-opacity="0.0"/>
      <stop offset="0.8313725490196079" stop-color="#00fbfd"/>
      <stop offset="1.0" stop-color="#45307a" stop-opacity="0.0"/>
    </radialGradient>
    <radialGradient cx="0" cy="0" gradientTransform="matrix(0.0619, 0.0, 0.0, 0.0619, 0.0, 0.0)" gradientUnits="userSpaceOnUse" id="gradient1" r="819.2" spreadMethod="pad">
      <stop offset="0.7137254901960784" stop-color="#213ca3" stop-opacity="0.0"/>
      <stop offset="0.9450980392156862" stop-color="#07d8ec" stop-opacity="0.2509804"/>
      <stop offset="1.0" stop-color="#00ffff"/>
    </radialGradient>
  </defs>
</svg>
