<?xml version="1.0" encoding="UTF-8" standalone="no"?>
<svg xmlns:xlink="http://www.w3.org/1999/xlink" height="12.2px" width="13.05px" xmlns="http://www.w3.org/2000/svg">
  <g transform="matrix(1.0, 0.0, 0.0, 1.0, 6.55, 6.1)">
    <path d="M4.25 -5.25 L5.1 -2.85 4.15 -1.6 Q5.8 0.3 6.45 2.9 6.8 4.4 5.35 4.95 L2.45 4.45 2.3 5.25 1.6 5.55 -1.3 6.1 -2.15 5.25 -2.25 3.15 -4.85 3.95 -6.15 3.5 -6.5 2.55 -6.55 1.85 -6.15 0.5 -4.7 0.1 -5.7 -0.65 -6.05 -0.9 -6.3 -1.3 -6.1 -2.35 -5.15 -2.7 -4.65 -3.9 -3.9 -5.15 -3.45 -5.65 -2.55 -6.1 -1.25 -6.1 -0.45 -4.5 Q1.15 -5.75 3.05 -5.6 L4.25 -5.25" fill="#4a5c01" fill-opacity="0.67058825" fill-rule="evenodd" stroke="none"/>
  </g>
</svg>
