<?xml version="1.0" encoding="UTF-8" standalone="no"?>
<svg xmlns:xlink="http://www.w3.org/1999/xlink" height="154.0px" width="542.1px" xmlns="http://www.w3.org/2000/svg">
  <g transform="matrix(1.0, 0.0, 0.0, 1.0, -471.9, -310.0)">
    <path d="M741.35 395.0 L741.35 419.0 483.15 419.0 Q478.5 419.0 475.2 415.45 471.9 411.95 471.9 407.0 471.9 402.0 475.2 398.5 478.5 395.0 483.15 395.0 L741.35 395.0 M741.3 435.0 L741.3 459.0 483.15 459.0 Q478.5 459.0 475.2 455.45 471.9 451.95 471.9 447.0 471.9 442.0 475.2 438.5 478.5 435.0 483.15 435.0 L741.3 435.0 M741.3 355.0 L741.3 379.0 483.15 379.0 Q478.5 379.0 475.2 375.45 471.9 371.95 471.9 367.0 471.9 362.0 475.2 358.5 478.5 355.0 483.15 355.0 L741.3 355.0 M741.3 315.0 L741.3 339.0 483.15 339.0 Q478.5 339.0 475.2 335.45 471.9 331.95 471.9 327.0 471.9 322.0 475.2 318.5 478.5 315.0 483.15 315.0 L741.3 315.0" fill="#301607" fill-opacity="0.2" fill-rule="evenodd" stroke="none"/>
    <path d="M1014.0 339.0 L970.0 339.0 970.0 315.0 1014.0 315.0 1014.0 339.0 M966.0 339.0 L820.0 339.0 820.0 315.0 966.0 315.0 966.0 339.0 M970.0 355.0 L1014.0 355.0 1014.0 379.0 970.0 379.0 970.0 355.0 M966.0 379.0 L820.0 379.0 820.0 355.0 966.0 355.0 966.0 379.0 M1014.0 395.0 L1014.0 419.0 970.0 419.0 970.0 395.0 1014.0 395.0 M970.0 435.0 L1014.0 435.0 1014.0 459.0 970.0 459.0 970.0 435.0 M966.0 459.0 L820.0 459.0 820.0 435.0 966.0 435.0 966.0 459.0 M966.0 419.0 L820.0 419.0 820.0 395.0 966.0 395.0 966.0 419.0 M780.0 310.0 L813.95 310.0 813.95 344.0 780.0 344.0 780.0 310.0 M780.0 350.0 L813.95 350.0 813.95 384.0 780.0 384.0 780.0 350.0 M813.95 390.0 L813.95 424.0 780.0 424.0 780.0 390.0 813.95 390.0 M813.95 464.0 L780.0 464.0 780.0 430.0 813.95 430.0 813.95 464.0" fill="#301607" fill-opacity="0.3019608" fill-rule="evenodd" stroke="none"/>
  </g>
</svg>
