<?xml version="1.0" encoding="UTF-8" standalone="no"?>
<svg xmlns:xlink="http://www.w3.org/1999/xlink" height="21.0px" width="21.0px" xmlns="http://www.w3.org/2000/svg">
  <g transform="matrix(1.0, 0.0, 0.0, 1.0, -219.5, -23.5)">
    <path d="M233.6 26.7 L234.4 25.0 233.6 26.7 M237.05 26.9 L238.05 28.1 Q239.9 30.55 240.0 33.7 L240.0 34.0 Q240.0 36.15 239.15 38.05 238.4 39.65 237.05 41.05 L235.05 42.65 Q232.75 44.0 230.0 44.0 227.35 44.0 225.2 42.8 L222.9 41.05 221.65 39.55 Q220.0 37.1 220.0 34.0 L220.0 33.7 Q220.05 31.35 221.05 29.45 221.75 28.1 222.9 26.9 224.0 25.85 225.2 25.2 227.35 24.0 230.0 24.0 232.4 24.0 234.4 25.0 235.85 25.7 237.05 26.9 M221.85 33.7 L220.0 33.7 221.85 33.7 M222.75 30.25 L221.05 29.45 222.75 30.25 M223.2 38.4 L221.65 39.55 223.2 38.4 M236.55 29.15 L238.05 28.1 236.55 29.15 M237.45 37.2 L239.15 38.05 237.45 37.2 M234.1 40.95 L235.05 42.65 234.1 40.95 M235.45 40.15 L229.65 33.7 231.6 26.9 229.65 33.7 235.45 40.15 M225.2 42.8 L226.05 41.1 225.2 42.8 M230.0 42.1 L230.0 44.0 230.0 42.1 M238.05 33.7 L240.0 33.7 238.05 33.7 M226.1 26.8 L225.2 25.2 226.1 26.8 M230.0 25.85 L230.0 24.0 230.0 25.85" fill="#d59e4d" fill-opacity="0.39215687" fill-rule="evenodd" stroke="none"/>
    <path d="M234.4 25.0 L233.6 26.7 M237.05 26.9 L238.05 28.1 Q239.9 30.55 240.0 33.7 L240.0 34.0 Q240.0 36.15 239.15 38.05 238.4 39.65 237.05 41.05 L235.05 42.65 Q232.75 44.0 230.0 44.0 227.35 44.0 225.2 42.8 L222.9 41.05 221.65 39.55 Q220.0 37.1 220.0 34.0 L220.0 33.7 Q220.05 31.35 221.05 29.45 221.75 28.1 222.9 26.9 224.0 25.85 225.2 25.2 227.35 24.0 230.0 24.0 232.4 24.0 234.4 25.0 235.85 25.7 237.05 26.9 M230.0 24.0 L230.0 25.85 M225.2 25.2 L226.1 26.8 M240.0 33.7 L238.05 33.7 M230.0 44.0 L230.0 42.1 M226.05 41.1 L225.2 42.8 M231.6 26.9 L229.65 33.7 235.45 40.15 M235.05 42.65 L234.1 40.95 M239.15 38.05 L237.45 37.2 M238.05 28.1 L236.55 29.15 M221.65 39.55 L223.2 38.4 M221.05 29.45 L222.75 30.25 M220.0 33.7 L221.85 33.7" fill="none" stroke="#efcc80" stroke-linecap="round" stroke-linejoin="round" stroke-width="1.0"/>
  </g>
</svg>
