<?xml version="1.0" encoding="UTF-8" standalone="no"?>
<svg xmlns:xlink="http://www.w3.org/1999/xlink" height="212.5px" width="321.0px" xmlns="http://www.w3.org/2000/svg">
  <g transform="matrix(1.0, 0.0, 0.0, 1.0, -199.5, -88.0)">
    <path d="M250.3 90.45 L255.8 104.75 255.85 105.05 255.45 105.5 254.95 105.55 254.35 105.6 253.85 105.6 253.5 105.65 253.0 105.4 251.05 100.15 245.95 100.3 244.1 105.3 243.75 105.6 243.15 105.6 242.5 105.65 Q242.05 105.65 242.05 105.3 L242.05 105.1 247.75 91.5 247.5 90.85 247.45 90.65 Q247.45 90.25 247.95 90.2 L248.4 90.15 248.85 90.1 249.35 90.0 249.7 90.0 250.3 90.45 M257.45 92.6 L258.75 91.2 Q259.6 90.65 260.65 90.4 L262.7 90.2 264.2 90.35 265.75 90.6 266.1 90.8 266.2 91.05 266.3 91.85 266.35 92.8 266.35 93.65 266.4 94.35 265.3 94.4 264.85 93.1 264.2 92.4 Q263.9 92.1 263.35 91.95 L262.4 91.85 261.35 91.95 Q260.85 92.1 260.5 92.35 L259.95 93.05 Q259.65 93.5 259.65 94.1 259.65 94.6 259.95 95.0 L260.65 95.65 261.6 96.15 262.65 96.7 264.35 97.3 264.45 97.35 Q265.25 97.65 265.8 98.15 L266.85 99.3 266.85 99.35 Q267.25 100.15 267.25 101.2 L267.0 102.75 266.3 104.0 265.25 104.9 263.95 105.4 262.5 105.75 261.1 105.8 259.4 105.75 257.75 105.4 257.4 105.3 257.25 104.95 257.2 104.2 257.15 103.15 257.15 102.25 257.15 101.45 258.25 101.4 Q258.4 102.3 258.65 102.8 L259.35 103.6 Q259.75 103.95 260.3 104.1 L261.55 104.25 262.65 104.1 263.6 103.75 264.25 103.0 264.55 101.9 264.25 101.0 263.55 100.35 262.5 99.85 261.25 99.3 259.75 98.65 Q258.95 98.3 258.4 97.8 L257.9 97.3 257.35 96.55 Q256.95 95.8 256.95 94.75 256.95 93.45 257.45 92.6 M272.65 90.9 L272.65 100.45 Q272.65 101.6 272.9 102.2 L273.45 103.1 Q273.9 103.45 274.45 103.6 L275.6 103.75 277.3 103.45 278.85 102.9 278.85 91.1 Q278.85 90.65 279.3 90.6 L279.8 90.45 280.35 90.45 280.8 90.4 281.1 90.4 Q281.7 90.4 281.7 91.0 L281.7 104.9 Q281.7 105.4 281.2 105.5 L280.7 105.55 280.25 105.6 279.8 105.6 279.5 105.65 Q278.95 105.65 278.95 105.1 L278.9 104.3 Q278.05 104.95 276.7 105.35 L274.05 105.8 272.45 105.55 Q271.65 105.35 271.05 104.85 L270.15 103.6 Q269.85 102.8 269.85 101.8 L269.85 92.75 269.8 92.3 269.65 92.0 269.4 91.9 269.15 91.9 268.35 91.9 268.2 90.8 269.7 90.55 270.75 90.4 271.6 90.25 272.0 90.25 Q272.65 90.25 272.65 90.9 M288.3 91.95 L288.3 104.9 Q288.3 105.4 287.8 105.5 L287.35 105.55 286.8 105.6 286.35 105.6 286.05 105.65 Q285.5 105.65 285.5 105.1 L285.5 92.6 285.3 91.95 284.8 91.85 284.05 91.85 283.9 90.65 286.7 90.35 289.45 90.15 290.7 90.2 292.05 90.4 293.25 90.8 294.35 91.5 295.05 92.45 295.3 93.9 295.05 95.45 294.35 96.55 293.55 97.3 Q293.4 97.4 293.3 97.45 L292.65 97.85 292.7 97.85 Q293.1 98.0 293.45 98.25 L294.15 98.9 294.4 99.3 294.65 99.9 295.55 102.75 295.9 103.65 296.15 104.1 296.5 104.3 297.2 104.4 297.25 105.5 296.5 105.6 295.95 105.65 295.45 105.75 295.1 105.75 294.3 105.6 293.7 105.2 293.2 104.55 292.8 103.6 292.0 100.55 291.55 99.55 291.4 99.3 290.95 99.0 Q290.65 98.8 290.1 98.75 L288.65 98.7 288.5 97.55 289.9 97.3 290.3 97.2 Q291.0 97.0 291.5 96.6 L292.1 95.7 292.4 94.3 292.1 93.2 291.4 92.35 Q291.0 92.0 290.4 91.85 L289.0 91.7 288.45 91.75 288.3 91.95 M297.65 92.2 L297.5 91.05 298.5 90.9 299.45 90.75 300.55 90.6 301.4 90.6 305.85 90.6 306.9 90.6 307.95 90.55 308.25 90.9 308.35 91.45 308.35 92.0 308.4 92.75 308.4 93.4 308.4 93.9 308.4 94.35 307.35 94.5 306.9 93.0 306.4 92.35 305.7 92.15 304.4 92.1 302.2 92.1 302.0 92.1 301.9 92.1 301.9 97.05 303.55 97.0 304.95 96.95 306.05 96.9 306.5 96.8 Q307.05 96.8 307.1 97.3 L307.1 97.45 307.1 98.0 306.95 98.75 301.9 98.55 301.9 103.3 301.9 103.75 302.1 103.95 302.55 103.95 304.2 103.95 305.75 103.85 306.7 103.6 307.45 102.95 308.2 101.35 309.25 101.55 309.2 102.1 309.05 103.0 308.8 104.05 308.6 104.9 Q308.4 105.55 307.75 105.55 L306.65 105.5 305.2 105.5 303.6 105.5 301.75 105.5 299.65 105.5 Q299.35 105.5 299.2 105.3 L299.15 104.9 299.15 92.95 298.95 92.3 298.35 92.15 297.65 92.2 M313.7 90.25 L313.95 90.25 Q314.25 90.25 314.35 90.4 L314.55 90.8 313.6 101.0 313.45 101.35 313.2 101.45 312.6 101.45 312.2 101.4 312.1 101.05 311.55 91.0 Q311.55 90.55 312.05 90.45 L312.6 90.35 313.15 90.35 313.7 90.25 M318.55 90.35 L319.1 90.35 319.65 90.25 319.95 90.25 Q320.2 90.25 320.3 90.4 L320.5 90.8 319.55 101.0 319.4 101.35 319.15 101.45 318.55 101.45 318.2 101.4 318.05 101.05 317.55 91.0 Q317.55 90.55 318.0 90.45 L318.55 90.35 M202.2 93.45 L202.3 92.8 202.35 92.1 202.35 91.35 202.4 90.9 Q202.45 90.55 202.75 90.55 L204.95 90.55 206.95 90.6 211.1 90.6 213.1 90.55 215.3 90.55 Q215.55 90.55 215.6 90.9 L215.6 91.35 215.7 92.1 215.75 92.8 215.75 93.5 215.75 94.05 215.75 94.55 214.65 94.6 214.2 93.0 213.75 92.35 212.95 92.1 211.75 92.1 210.35 92.1 210.35 104.9 Q210.35 105.4 209.85 105.5 L209.4 105.55 208.9 105.6 208.45 105.6 208.1 105.65 Q207.6 105.65 207.6 105.1 L207.6 92.1 206.3 92.1 205.0 92.1 Q204.55 92.15 204.3 92.35 L203.75 93.0 203.25 94.6 202.2 94.55 202.2 94.05 202.2 93.45 M217.1 91.85 L216.35 91.85 216.2 90.65 219.0 90.35 221.8 90.15 223.0 90.2 224.35 90.4 225.6 90.8 226.7 91.5 227.4 92.45 227.65 93.9 227.4 95.45 226.7 96.55 225.9 97.3 225.65 97.45 225.0 97.85 225.1 97.85 225.8 98.25 226.5 98.9 226.8 99.3 227.0 99.9 227.95 102.75 228.25 103.65 228.5 104.1 228.85 104.3 229.55 104.4 229.6 105.5 228.85 105.6 228.3 105.65 227.8 105.75 227.5 105.75 226.65 105.6 226.05 105.2 225.55 104.55 225.15 103.6 224.3 100.55 223.85 99.55 223.7 99.3 223.25 99.0 222.4 98.75 220.95 98.7 220.8 97.55 222.2 97.3 222.6 97.2 Q223.35 97.0 223.8 96.6 L224.45 95.7 224.7 94.3 224.45 93.2 223.7 92.35 Q223.35 92.0 222.7 91.85 L221.3 91.7 220.75 91.75 Q220.6 91.75 220.6 91.95 L220.6 104.9 Q220.6 105.4 220.1 105.5 L219.65 105.55 219.1 105.6 218.65 105.6 218.35 105.65 Q217.8 105.65 217.8 105.1 L217.8 92.6 217.65 91.95 217.1 91.85 M230.0 92.2 L229.85 91.05 230.85 90.9 231.8 90.75 232.9 90.6 233.75 90.6 238.25 90.6 239.25 90.6 240.3 90.55 240.65 90.9 240.7 91.45 240.7 92.0 240.75 92.75 240.75 93.4 240.75 93.9 240.75 94.35 239.7 94.5 239.25 93.0 238.75 92.35 238.05 92.15 236.75 92.1 234.55 92.1 234.35 92.1 234.3 92.1 234.3 97.05 235.9 97.0 237.3 96.95 238.4 96.9 238.9 96.8 Q239.4 96.8 239.45 97.3 L239.45 97.45 239.45 98.0 239.35 98.75 234.3 98.55 234.3 103.3 234.3 103.75 234.35 103.85 234.45 103.95 234.95 103.95 236.55 103.95 238.1 103.85 239.05 103.6 239.8 102.95 240.55 101.35 241.6 101.55 241.55 102.1 241.4 103.0 241.15 104.05 240.95 104.9 Q240.75 105.55 240.1 105.55 L239.0 105.5 237.6 105.5 235.95 105.5 234.1 105.5 232.0 105.5 Q231.7 105.5 231.55 105.3 L231.5 104.9 231.5 92.95 Q231.5 92.45 231.3 92.3 L230.7 92.15 230.0 92.2 M314.4 104.25 Q314.4 105.05 313.95 105.4 313.45 105.8 312.65 105.8 311.95 105.8 311.65 105.35 311.25 104.95 311.25 104.25 311.25 103.4 311.7 103.0 312.15 102.65 312.95 102.65 313.65 102.65 314.05 103.1 314.4 103.55 314.4 104.25 M317.65 103.0 Q318.1 102.65 318.9 102.65 319.6 102.65 320.0 103.1 320.4 103.55 320.4 104.25 320.4 105.05 319.95 105.4 319.4 105.8 318.65 105.8 317.9 105.8 317.6 105.35 317.2 104.95 317.2 104.25 317.2 103.4 317.65 103.0 M250.6 98.7 L248.45 93.0 246.45 98.7 250.6 98.7" fill="#0000ff" fill-rule="evenodd" stroke="none"/>
    <path d="M250.3 90.45 L255.8 104.75 255.85 105.05 255.45 105.5 254.95 105.55 254.35 105.6 253.85 105.6 253.5 105.65 253.0 105.4 251.05 100.15 245.95 100.3 244.1 105.3 243.75 105.6 243.15 105.6 242.5 105.65 Q242.05 105.65 242.05 105.3 L242.05 105.1 247.75 91.5 247.5 90.85 247.45 90.65 Q247.45 90.25 247.95 90.2 L248.4 90.15 248.85 90.1 249.35 90.0 249.7 90.0 250.3 90.45 M257.45 92.6 L258.75 91.2 Q259.6 90.65 260.65 90.4 L262.7 90.2 264.2 90.35 265.75 90.6 266.1 90.8 266.2 91.05 266.3 91.85 266.35 92.8 266.35 93.65 266.4 94.35 265.3 94.4 264.85 93.1 264.2 92.4 Q263.9 92.1 263.35 91.95 L262.4 91.85 261.35 91.95 Q260.85 92.1 260.5 92.35 L259.95 93.05 Q259.65 93.5 259.65 94.1 259.65 94.6 259.95 95.0 L260.65 95.65 261.6 96.15 262.65 96.7 264.35 97.3 264.45 97.35 Q265.25 97.65 265.8 98.15 L266.85 99.3 266.85 99.35 Q267.25 100.15 267.25 101.2 L267.0 102.75 266.3 104.0 265.25 104.9 263.95 105.4 262.5 105.75 261.1 105.8 259.4 105.75 257.75 105.4 257.4 105.3 257.25 104.95 257.2 104.2 257.15 103.15 257.15 102.25 257.15 101.45 258.25 101.4 Q258.4 102.3 258.65 102.8 L259.35 103.6 Q259.75 103.95 260.3 104.1 L261.55 104.25 262.65 104.1 263.6 103.75 264.25 103.0 264.55 101.9 264.25 101.0 263.55 100.35 262.5 99.85 261.25 99.3 259.75 98.65 Q258.95 98.3 258.4 97.8 L257.9 97.3 257.35 96.55 Q256.95 95.8 256.95 94.75 256.95 93.45 257.45 92.6 M272.65 90.9 L272.65 100.45 Q272.65 101.6 272.9 102.2 L273.45 103.1 Q273.9 103.45 274.45 103.6 L275.6 103.75 277.3 103.45 278.85 102.9 278.85 91.1 Q278.85 90.65 279.3 90.6 L279.8 90.45 280.35 90.45 280.8 90.4 281.1 90.4 Q281.7 90.4 281.7 91.0 L281.7 104.9 Q281.7 105.4 281.2 105.5 L280.7 105.55 280.25 105.6 279.8 105.6 279.5 105.65 Q278.95 105.65 278.95 105.1 L278.9 104.3 Q278.05 104.95 276.7 105.35 L274.05 105.8 272.45 105.55 Q271.65 105.35 271.05 104.85 L270.15 103.6 Q269.85 102.8 269.85 101.8 L269.85 92.75 269.8 92.3 269.65 92.0 269.4 91.9 269.15 91.9 268.35 91.9 268.2 90.8 269.7 90.55 270.75 90.4 271.6 90.25 272.0 90.25 Q272.65 90.25 272.65 90.9 M288.3 91.95 L288.3 104.9 Q288.3 105.4 287.8 105.5 L287.35 105.55 286.8 105.6 286.35 105.6 286.05 105.65 Q285.5 105.65 285.5 105.1 L285.5 92.6 285.3 91.95 284.8 91.85 284.05 91.85 283.9 90.65 286.7 90.35 289.45 90.15 290.7 90.2 292.05 90.4 293.25 90.8 294.35 91.5 295.05 92.45 295.3 93.9 295.05 95.45 294.35 96.55 293.55 97.3 Q293.4 97.4 293.3 97.45 L292.65 97.85 292.7 97.85 Q293.1 98.0 293.45 98.25 L294.15 98.9 294.4 99.3 294.65 99.9 295.55 102.75 295.9 103.65 296.15 104.1 296.5 104.3 297.2 104.4 297.25 105.5 296.5 105.6 295.95 105.65 295.45 105.75 295.1 105.75 294.3 105.6 293.7 105.2 293.2 104.55 292.8 103.6 292.0 100.55 291.55 99.55 291.4 99.3 290.95 99.0 Q290.65 98.8 290.1 98.75 L288.65 98.7 288.5 97.55 289.9 97.3 290.3 97.2 Q291.0 97.0 291.5 96.6 L292.1 95.7 292.4 94.3 292.1 93.2 291.4 92.35 Q291.0 92.0 290.4 91.85 L289.0 91.7 288.45 91.75 288.3 91.95 M297.65 92.2 L297.5 91.05 298.5 90.9 299.45 90.75 300.55 90.6 301.4 90.6 305.85 90.6 306.9 90.6 307.95 90.55 308.25 90.9 308.35 91.45 308.35 92.0 308.4 92.75 308.4 93.4 308.4 93.9 308.4 94.35 307.35 94.5 306.9 93.0 306.4 92.35 305.7 92.15 304.4 92.1 302.2 92.1 302.0 92.1 301.9 92.1 301.9 97.05 303.55 97.0 304.95 96.95 306.05 96.9 306.5 96.8 Q307.05 96.8 307.1 97.3 L307.1 97.45 307.1 98.0 306.95 98.75 301.9 98.55 301.9 103.3 301.9 103.75 302.1 103.95 302.55 103.95 304.2 103.95 305.75 103.85 306.7 103.6 307.45 102.95 308.2 101.35 309.25 101.55 309.2 102.1 309.05 103.0 308.8 104.05 308.6 104.9 Q308.4 105.55 307.75 105.55 L306.65 105.5 305.2 105.5 303.6 105.5 301.75 105.5 299.65 105.5 Q299.35 105.5 299.2 105.3 L299.15 104.9 299.15 92.95 298.95 92.3 298.35 92.15 297.65 92.2 M313.7 90.25 L313.95 90.25 Q314.25 90.25 314.35 90.4 L314.55 90.8 313.6 101.0 313.45 101.35 313.2 101.45 312.6 101.45 312.2 101.4 312.1 101.05 311.55 91.0 Q311.55 90.55 312.05 90.45 L312.6 90.35 313.15 90.35 313.7 90.25 M318.55 90.35 L319.1 90.35 319.65 90.25 319.95 90.25 Q320.2 90.25 320.3 90.4 L320.5 90.8 319.55 101.0 319.4 101.35 319.15 101.45 318.55 101.45 318.2 101.4 318.05 101.05 317.55 91.0 Q317.55 90.55 318.0 90.45 L318.55 90.35 M202.2 93.45 L202.3 92.8 202.35 92.1 202.35 91.35 202.4 90.9 Q202.45 90.55 202.75 90.55 L204.95 90.55 206.95 90.6 211.1 90.6 213.1 90.55 215.3 90.55 Q215.55 90.55 215.6 90.9 L215.6 91.35 215.7 92.1 215.75 92.8 215.75 93.5 215.75 94.05 215.75 94.55 214.65 94.6 214.2 93.0 213.75 92.35 212.95 92.1 211.75 92.1 210.35 92.1 210.35 104.9 Q210.35 105.4 209.85 105.5 L209.4 105.55 208.9 105.6 208.45 105.6 208.1 105.65 Q207.6 105.65 207.6 105.1 L207.6 92.1 206.3 92.1 205.0 92.1 Q204.55 92.15 204.3 92.35 L203.75 93.0 203.25 94.6 202.2 94.55 202.2 94.05 202.2 93.45 M217.1 91.85 L216.35 91.85 216.2 90.65 219.0 90.35 221.8 90.15 223.0 90.2 224.35 90.4 225.6 90.8 226.7 91.5 227.4 92.45 227.65 93.9 227.4 95.45 226.7 96.55 225.9 97.3 225.65 97.45 225.0 97.85 225.1 97.85 225.8 98.25 226.5 98.9 226.8 99.3 227.0 99.9 227.95 102.75 228.25 103.65 228.5 104.1 228.85 104.3 229.55 104.4 229.6 105.5 228.85 105.6 228.3 105.65 227.8 105.75 227.5 105.75 226.65 105.6 226.05 105.2 225.55 104.55 225.15 103.6 224.3 100.55 223.85 99.55 223.7 99.3 223.25 99.0 222.4 98.75 220.95 98.7 220.8 97.55 222.2 97.3 222.6 97.2 Q223.35 97.0 223.8 96.6 L224.45 95.7 224.7 94.3 224.45 93.2 223.7 92.35 Q223.35 92.0 222.7 91.85 L221.3 91.7 220.75 91.75 Q220.6 91.75 220.6 91.95 L220.6 104.9 Q220.6 105.4 220.1 105.5 L219.65 105.55 219.1 105.6 218.65 105.6 218.35 105.65 Q217.8 105.65 217.8 105.1 L217.8 92.6 217.65 91.95 217.1 91.85 M230.0 92.2 L229.85 91.05 230.85 90.9 231.8 90.75 232.9 90.6 233.75 90.6 238.25 90.6 239.25 90.6 240.3 90.55 240.65 90.9 240.7 91.45 240.7 92.0 240.75 92.75 240.75 93.4 240.75 93.9 240.75 94.35 239.7 94.5 239.25 93.0 238.75 92.35 238.05 92.15 236.75 92.1 234.55 92.1 234.35 92.1 234.3 92.1 234.3 97.05 235.9 97.0 237.3 96.95 238.4 96.9 238.9 96.8 Q239.4 96.8 239.45 97.3 L239.45 97.45 239.45 98.0 239.35 98.75 234.3 98.55 234.3 103.3 234.3 103.75 234.35 103.85 234.45 103.95 234.95 103.95 236.55 103.95 238.1 103.85 239.05 103.6 239.8 102.95 240.55 101.35 241.6 101.55 241.55 102.1 241.4 103.0 241.15 104.05 240.95 104.9 Q240.75 105.55 240.1 105.55 L239.0 105.5 237.6 105.5 235.95 105.5 234.1 105.5 232.0 105.5 Q231.7 105.5 231.55 105.3 L231.5 104.9 231.5 92.95 Q231.5 92.45 231.3 92.3 L230.7 92.15 230.0 92.2 M314.4 104.25 Q314.4 105.05 313.95 105.4 313.45 105.8 312.65 105.8 311.95 105.8 311.65 105.35 311.25 104.95 311.25 104.25 311.25 103.4 311.7 103.0 312.15 102.65 312.95 102.65 313.65 102.65 314.05 103.1 314.4 103.55 314.4 104.25 M317.65 103.0 Q318.1 102.65 318.9 102.65 319.6 102.65 320.0 103.1 320.4 103.55 320.4 104.25 320.4 105.05 319.95 105.4 319.4 105.8 318.65 105.8 317.9 105.8 317.6 105.35 317.2 104.95 317.2 104.25 317.2 103.4 317.65 103.0 M250.6 98.7 L248.45 93.0 246.45 98.7 250.6 98.7" fill="none" stroke="#845125" stroke-linecap="round" stroke-linejoin="round" stroke-width="4.0"/>
    <path d="M244.45 99.3 L247.75 91.5 247.5 90.85 247.45 90.65 Q247.45 90.25 247.95 90.2 L248.4 90.15 248.85 90.1 249.35 90.0 249.7 90.0 250.3 90.45 253.75 99.3 244.45 99.3 M261.25 99.3 L259.75 98.65 Q258.95 98.3 258.4 97.8 L257.9 97.3 257.35 96.55 Q256.95 95.8 256.95 94.75 256.95 93.45 257.45 92.6 L258.75 91.2 Q259.6 90.65 260.65 90.4 L262.7 90.2 264.2 90.35 265.75 90.6 266.1 90.8 266.2 91.05 266.3 91.85 266.35 92.8 266.35 93.65 266.4 94.35 265.3 94.4 264.85 93.1 264.2 92.4 Q263.9 92.1 263.35 91.95 L262.4 91.85 261.35 91.95 Q260.85 92.1 260.5 92.35 L259.95 93.05 Q259.65 93.5 259.65 94.1 259.65 94.6 259.95 95.0 L260.65 95.65 261.6 96.15 262.65 96.7 264.35 97.3 264.45 97.35 Q265.25 97.65 265.8 98.15 L266.85 99.3 261.25 99.3 M269.85 99.3 L269.85 92.75 269.8 92.3 269.65 92.0 269.4 91.9 269.15 91.9 268.35 91.9 268.2 90.8 269.7 90.55 270.75 90.4 271.6 90.25 272.0 90.25 Q272.65 90.25 272.65 90.9 L272.65 99.3 269.85 99.3 M278.85 99.3 L278.85 91.1 Q278.85 90.65 279.3 90.6 L279.8 90.45 280.35 90.45 280.8 90.4 281.1 90.4 Q281.7 90.4 281.7 91.0 L281.7 99.3 278.85 99.3 M291.4 99.3 L290.95 99.0 Q290.65 98.8 290.1 98.75 L288.65 98.7 288.5 97.55 289.9 97.3 290.3 97.2 Q291.0 97.0 291.5 96.6 L292.1 95.7 292.4 94.3 292.1 93.2 291.4 92.35 Q291.0 92.0 290.4 91.85 L289.0 91.7 288.45 91.75 288.3 91.95 288.3 99.3 285.5 99.3 285.5 92.6 285.3 91.95 284.8 91.85 284.05 91.85 283.9 90.65 286.7 90.35 289.45 90.15 290.7 90.2 292.05 90.4 293.25 90.8 294.35 91.5 295.05 92.45 295.3 93.9 295.05 95.45 294.35 96.55 293.55 97.3 Q293.4 97.4 293.3 97.45 L292.65 97.85 292.7 97.85 Q293.1 98.0 293.45 98.25 L294.15 98.9 294.4 99.3 291.4 99.3 M299.15 99.3 L299.15 92.95 298.95 92.3 298.35 92.15 297.65 92.2 297.5 91.05 298.5 90.9 299.45 90.75 300.55 90.6 301.4 90.6 305.85 90.6 306.9 90.6 307.95 90.55 308.25 90.9 308.35 91.45 308.35 92.0 308.4 92.75 308.4 93.4 308.4 93.9 308.4 94.35 307.35 94.5 306.9 93.0 306.4 92.35 305.7 92.15 304.4 92.1 302.2 92.1 302.0 92.1 301.9 92.1 301.9 97.05 303.55 97.0 304.95 96.95 306.05 96.9 306.5 96.8 Q307.05 96.8 307.1 97.3 L307.1 97.45 307.1 98.0 306.95 98.75 301.9 98.55 301.9 99.3 299.15 99.3 M312.0 99.3 L311.55 91.0 Q311.55 90.55 312.05 90.45 L312.6 90.35 313.15 90.35 313.7 90.25 313.95 90.25 Q314.25 90.25 314.35 90.4 L314.55 90.8 313.75 99.3 312.0 99.3 M318.0 99.3 L317.55 91.0 Q317.55 90.55 318.0 90.45 L318.55 90.35 319.1 90.35 319.65 90.25 319.95 90.25 Q320.2 90.25 320.3 90.4 L320.5 90.8 319.7 99.3 318.0 99.3 M207.6 99.3 L207.6 92.1 206.3 92.1 205.0 92.1 Q204.55 92.15 204.3 92.35 L203.75 93.0 203.25 94.6 202.2 94.55 202.2 94.05 202.2 93.45 202.3 92.8 202.35 92.1 202.35 91.35 202.4 90.9 Q202.45 90.55 202.75 90.55 L204.95 90.55 206.95 90.6 211.1 90.6 213.1 90.55 215.3 90.55 Q215.55 90.55 215.6 90.9 L215.6 91.35 215.7 92.1 215.75 92.8 215.75 93.5 215.75 94.05 215.75 94.55 214.65 94.6 214.2 93.0 213.75 92.35 212.95 92.1 211.75 92.1 210.35 92.1 210.35 99.3 207.6 99.3 M217.8 99.3 L217.8 92.6 217.65 91.95 217.1 91.85 216.35 91.85 216.2 90.65 219.0 90.35 221.8 90.15 223.0 90.2 224.35 90.4 225.6 90.8 226.7 91.5 227.4 92.45 227.65 93.9 227.4 95.45 226.7 96.55 225.9 97.3 225.65 97.45 225.0 97.85 225.1 97.85 225.8 98.25 226.5 98.9 226.8 99.3 223.7 99.3 223.25 99.0 222.4 98.75 220.95 98.7 220.8 97.55 222.2 97.3 222.6 97.2 Q223.35 97.0 223.8 96.6 L224.45 95.7 224.7 94.3 224.45 93.2 223.7 92.35 Q223.35 92.0 222.7 91.85 L221.3 91.7 220.75 91.75 Q220.6 91.75 220.6 91.95 L220.6 99.3 217.8 99.3 M231.5 99.3 L231.5 92.95 Q231.5 92.45 231.3 92.3 L230.7 92.15 230.0 92.2 229.85 91.05 230.85 90.9 231.8 90.75 232.9 90.6 233.75 90.6 238.25 90.6 239.25 90.6 240.3 90.55 240.65 90.9 240.7 91.45 240.7 92.0 240.75 92.75 240.75 93.4 240.75 93.9 240.75 94.35 239.7 94.5 239.25 93.0 238.75 92.35 238.05 92.15 236.75 92.1 234.55 92.1 234.35 92.1 234.3 92.1 234.3 97.05 235.9 97.0 237.3 96.95 238.4 96.9 238.9 96.8 Q239.4 96.8 239.45 97.3 L239.45 97.45 239.45 98.0 239.35 98.75 234.3 98.55 234.3 99.3 231.5 99.3 M250.6 98.7 L248.45 93.0 246.45 98.7 250.6 98.7" fill="#ffcc66" fill-rule="evenodd" stroke="none"/>
    <path d="M253.75 99.3 L255.8 104.75 255.85 105.05 255.45 105.5 254.95 105.55 254.35 105.6 253.85 105.6 253.5 105.65 253.0 105.4 251.05 100.15 245.95 100.3 244.1 105.3 243.75 105.6 243.15 105.6 242.5 105.65 Q242.05 105.65 242.05 105.3 L242.05 105.1 244.45 99.3 253.75 99.3 M266.85 99.3 L266.85 99.35 Q267.25 100.15 267.25 101.2 L267.0 102.75 266.3 104.0 265.25 104.9 263.95 105.4 262.5 105.75 261.1 105.8 259.4 105.75 257.75 105.4 257.4 105.3 257.25 104.95 257.2 104.2 257.15 103.15 257.15 102.25 257.15 101.45 258.25 101.4 Q258.4 102.3 258.65 102.8 L259.35 103.6 Q259.75 103.95 260.3 104.1 L261.55 104.25 262.65 104.1 263.6 103.75 264.25 103.0 264.55 101.9 264.25 101.0 263.55 100.35 262.5 99.85 261.25 99.3 266.85 99.3 M272.65 99.3 L272.65 100.45 Q272.65 101.6 272.9 102.2 L273.45 103.1 Q273.9 103.45 274.45 103.6 L275.6 103.75 277.3 103.45 278.85 102.9 278.85 99.3 281.7 99.3 281.7 104.9 Q281.7 105.4 281.2 105.5 L280.7 105.55 280.25 105.6 279.8 105.6 279.5 105.65 Q278.95 105.65 278.95 105.1 L278.9 104.3 Q278.05 104.95 276.7 105.35 L274.05 105.8 272.45 105.55 Q271.65 105.35 271.05 104.85 L270.15 103.6 Q269.85 102.8 269.85 101.8 L269.85 99.3 272.65 99.3 M288.3 99.3 L288.3 104.9 Q288.3 105.4 287.8 105.5 L287.35 105.55 286.8 105.6 286.35 105.6 286.05 105.65 Q285.5 105.65 285.5 105.1 L285.5 99.3 288.3 99.3 M294.4 99.3 L294.65 99.9 295.55 102.75 295.9 103.65 296.15 104.1 296.5 104.3 297.2 104.4 297.25 105.5 296.5 105.6 295.95 105.65 295.45 105.75 295.1 105.75 294.3 105.6 293.7 105.2 293.2 104.55 292.8 103.6 292.0 100.55 291.55 99.55 291.4 99.3 294.4 99.3 M301.9 99.3 L301.9 103.3 301.9 103.75 302.1 103.95 302.55 103.95 304.2 103.95 305.75 103.85 306.7 103.6 307.45 102.95 308.2 101.35 309.25 101.55 309.2 102.1 309.05 103.0 308.8 104.05 308.6 104.9 Q308.4 105.55 307.75 105.55 L306.65 105.5 305.2 105.5 303.6 105.5 301.75 105.5 299.65 105.5 Q299.35 105.5 299.2 105.3 L299.15 104.9 299.15 99.3 301.9 99.3 M313.75 99.3 L313.6 101.0 313.45 101.35 313.2 101.45 312.6 101.45 312.2 101.4 312.1 101.05 312.0 99.3 313.75 99.3 M319.7 99.3 L319.55 101.0 319.4 101.35 319.15 101.45 318.55 101.45 318.2 101.4 318.05 101.05 318.0 99.3 319.7 99.3 M210.35 99.3 L210.35 104.9 Q210.35 105.4 209.85 105.5 L209.4 105.55 208.9 105.6 208.45 105.6 208.1 105.65 Q207.6 105.65 207.6 105.1 L207.6 99.3 210.35 99.3 M226.8 99.3 L227.0 99.9 227.95 102.75 228.25 103.65 228.5 104.1 228.85 104.3 229.55 104.4 229.6 105.5 228.85 105.6 228.3 105.65 227.8 105.75 227.5 105.75 226.65 105.6 226.05 105.2 225.55 104.55 225.15 103.6 224.3 100.55 223.85 99.55 223.7 99.3 226.8 99.3 M220.6 99.3 L220.6 104.9 Q220.6 105.4 220.1 105.5 L219.65 105.55 219.1 105.6 218.65 105.6 218.35 105.65 Q217.8 105.65 217.8 105.1 L217.8 99.3 220.6 99.3 M234.3 99.3 L234.3 103.3 234.3 103.75 234.35 103.85 234.45 103.95 234.95 103.95 236.55 103.95 238.1 103.85 239.05 103.6 239.8 102.95 240.55 101.35 241.6 101.55 241.55 102.1 241.4 103.0 241.15 104.05 240.95 104.9 Q240.75 105.55 240.1 105.55 L239.0 105.5 237.6 105.5 235.95 105.5 234.1 105.5 232.0 105.5 Q231.7 105.5 231.55 105.3 L231.5 104.9 231.5 99.3 234.3 99.3 M317.65 103.0 Q318.1 102.65 318.9 102.65 319.6 102.65 320.0 103.1 320.4 103.55 320.4 104.25 320.4 105.05 319.95 105.4 319.4 105.8 318.65 105.8 317.9 105.8 317.6 105.35 317.2 104.95 317.2 104.25 317.2 103.4 317.65 103.0 M313.95 105.4 Q313.45 105.8 312.65 105.8 311.95 105.8 311.65 105.35 311.25 104.95 311.25 104.25 311.25 103.4 311.7 103.0 312.15 102.65 312.95 102.65 313.65 102.65 314.05 103.1 314.4 103.55 314.4 104.25 314.4 105.05 313.95 105.4" fill="#cc9900" fill-rule="evenodd" stroke="none"/>
    <path d="M520.0 300.0 L200.0 300.0 200.0 115.0 520.0 115.0 520.0 300.0 Z" fill="none" stroke="#d0c18e" stroke-linecap="round" stroke-linejoin="round" stroke-width="1.0"/>
  </g>
</svg>
