<?xml version="1.0" encoding="UTF-8" standalone="no"?>
<svg xmlns:xlink="http://www.w3.org/1999/xlink" height="19.2px" width="125.1px" xmlns="http://www.w3.org/2000/svg">
  <g transform="matrix(1.0, 0.0, 0.0, 1.0, -230.0, -138.0)">
    <path d="M311.55 141.95 L311.6 142.65 311.6 143.35 311.6 143.85 311.65 144.35 310.6 144.4 310.15 142.85 309.7 142.2 308.95 142.0 307.7 141.95 306.45 141.95 306.45 154.3 Q306.45 154.8 305.95 154.85 L305.5 154.9 305.0 154.95 304.55 155.0 304.25 155.0 Q303.7 155.0 303.7 154.45 L303.7 141.95 302.5 141.95 301.25 142.0 300.5 142.2 300.05 142.85 299.6 144.4 298.55 144.35 298.55 143.85 298.55 143.3 298.6 142.65 298.65 141.95 298.7 141.3 298.75 140.85 Q298.8 140.45 299.05 140.45 L301.15 140.5 303.1 140.5 307.1 140.5 309.05 140.5 311.2 140.45 311.5 140.85 311.5 141.3 311.55 141.95 M321.15 140.5 L322.15 140.5 Q322.4 140.5 322.45 140.85 L322.5 141.3 322.55 141.9 322.55 142.6 322.6 143.2 322.6 143.7 322.6 144.2 321.55 144.3 321.15 142.85 320.65 142.25 Q320.4 142.05 319.95 142.0 L318.7 141.95 316.6 141.95 316.35 142.0 316.35 142.2 316.35 146.8 317.85 146.7 319.3 146.65 320.3 146.6 320.75 146.55 Q321.35 146.55 321.35 147.15 L321.3 147.65 321.2 148.4 316.35 148.2 316.35 152.75 316.35 153.15 316.4 153.3 316.5 153.35 316.95 153.35 318.5 153.35 320.05 153.3 320.95 153.05 321.6 152.4 322.4 150.85 323.4 151.05 323.35 151.65 323.2 152.5 323.0 153.5 322.8 154.3 Q322.55 154.9 321.95 154.9 L320.9 154.85 319.5 154.85 317.95 154.85 316.15 154.85 314.15 154.85 Q313.85 154.85 313.75 154.65 L313.6 154.3 313.6 142.8 Q313.6 142.35 313.4 142.2 313.25 142.05 312.9 142.05 L312.2 142.1 312.1 141.0 313.0 140.8 314.0 140.7 315.05 140.55 315.8 140.5 320.15 140.5 321.15 140.5 M327.6 140.05 L328.05 140.0 328.35 140.0 328.75 140.1 328.9 140.4 333.0 151.55 337.15 141.7 337.05 140.85 337.0 140.65 Q337.0 140.25 337.35 140.15 L337.9 140.1 338.35 140.05 338.85 140.0 339.15 140.0 Q339.65 140.0 339.75 140.4 L341.35 154.15 341.35 154.3 341.35 154.35 Q341.35 154.8 340.95 154.85 L340.5 154.9 339.95 154.95 339.45 155.0 339.15 155.0 338.8 154.9 Q338.65 154.85 338.65 154.6 L337.5 143.9 333.4 154.65 Q333.3 154.9 333.0 154.95 L332.5 155.0 331.9 155.0 331.45 154.75 327.6 143.75 326.3 154.6 325.9 154.95 325.35 155.0 324.65 155.0 Q324.25 155.0 324.25 154.65 L324.25 154.45 326.6 141.85 326.25 140.8 326.2 140.6 Q326.2 140.25 326.7 140.15 L327.1 140.1 327.6 140.05 M268.55 142.05 Q269.45 143.0 269.95 144.4 270.45 145.75 270.45 147.45 270.45 149.3 269.9 150.75 269.35 152.2 268.3 153.2 267.3 154.15 265.85 154.7 L262.7 155.2 259.8 154.7 Q258.5 154.15 257.6 153.2 256.7 152.25 256.2 150.9 255.7 149.5 255.7 147.8 255.7 145.95 256.25 144.5 256.8 143.05 257.85 142.1 258.85 141.1 260.25 140.65 L263.45 140.15 Q265.05 140.15 266.3 140.65 L268.55 142.05 M262.85 141.6 Q261.75 141.6 260.95 142.05 260.2 142.5 259.65 143.25 259.15 144.05 258.9 145.05 L258.7 147.15 258.95 149.6 Q259.2 150.75 259.75 151.7 260.35 152.6 261.2 153.15 262.05 153.7 263.3 153.7 L265.2 153.25 266.5 152.0 267.25 150.2 267.5 148.05 267.25 145.65 266.4 143.6 Q265.85 142.7 264.95 142.15 264.1 141.6 262.85 141.6 M279.45 141.95 L279.45 154.3 Q279.45 154.8 278.95 154.85 L278.5 154.9 278.0 154.95 277.55 155.0 277.25 155.0 Q276.7 155.0 276.7 154.45 L276.7 141.95 275.5 141.95 274.25 142.0 273.5 142.2 273.05 142.85 272.6 144.4 271.55 144.35 271.55 143.85 271.55 143.3 271.6 142.65 271.65 141.95 271.7 141.3 271.75 140.85 Q271.8 140.45 272.05 140.45 L274.15 140.5 276.1 140.5 280.1 140.5 282.05 140.5 284.2 140.45 284.5 140.85 284.5 141.3 284.55 141.95 284.6 142.65 284.6 143.35 284.6 143.85 284.65 144.35 283.6 144.4 283.15 142.85 282.7 142.2 281.95 142.0 280.7 141.95 279.45 141.95 M296.05 140.25 Q296.7 140.25 296.7 140.85 L296.7 154.3 Q296.7 154.8 296.2 154.85 L295.75 154.9 295.25 154.95 294.8 155.0 294.5 155.0 Q293.95 155.0 293.95 154.45 L293.95 142.6 293.9 142.15 293.8 141.9 293.6 141.8 293.25 141.75 292.55 141.8 292.45 140.7 293.85 140.45 294.85 140.3 295.65 140.25 296.05 140.25 M347.35 140.75 L346.4 150.5 346.3 150.85 346.0 150.95 345.45 151.0 345.05 150.9 344.95 150.6 344.45 140.9 Q344.45 140.5 344.9 140.4 L345.45 140.3 345.95 140.25 346.5 140.25 346.8 140.25 347.15 140.35 Q347.35 140.45 347.35 140.7 L347.35 140.75 M352.25 140.25 L352.55 140.25 352.9 140.35 353.1 140.7 353.1 140.75 352.15 150.5 352.05 150.85 351.75 150.95 351.2 151.0 350.8 150.9 350.7 150.6 350.2 140.9 Q350.2 140.5 350.65 140.4 L351.2 140.3 351.7 140.25 352.25 140.25 M352.9 153.65 Q352.9 154.4 352.5 154.8 352.05 155.15 351.25 155.15 350.6 155.15 350.25 154.75 349.85 154.35 349.85 153.65 349.85 152.85 350.3 152.5 350.8 152.15 351.5 152.15 352.2 152.15 352.55 152.55 352.9 152.95 352.9 153.65 M344.1 153.65 Q344.1 152.85 344.55 152.5 345.05 152.15 345.75 152.15 346.45 152.15 346.8 152.55 347.15 152.95 347.15 153.65 347.15 154.4 346.75 154.8 L345.5 155.15 Q344.85 155.15 344.5 154.75 344.1 154.35 344.1 153.65 M236.4 141.6 Q236.25 141.65 236.25 141.85 L236.25 154.3 235.75 154.85 235.3 154.9 234.8 154.95 234.35 155.0 234.05 155.0 Q233.5 155.0 233.5 154.45 L233.5 142.45 233.35 141.85 232.8 141.7 232.1 141.75 232.0 140.65 234.45 140.25 237.3 140.1 238.7 140.2 240.1 140.45 Q240.85 140.6 241.4 140.9 L242.45 141.65 243.1 142.75 243.4 144.2 Q243.4 145.5 242.8 146.45 L241.35 147.95 239.2 148.75 236.55 149.1 236.4 147.95 238.3 147.65 239.45 147.05 240.15 146.1 240.4 144.65 240.15 143.35 239.45 142.35 Q239.0 142.0 238.4 141.8 L237.05 141.55 236.4 141.6 M248.1 140.85 L248.1 152.75 248.1 153.15 248.15 153.3 248.25 153.35 248.7 153.35 249.9 153.35 251.45 153.3 252.35 153.05 253.0 152.3 253.8 150.8 254.8 150.95 254.75 151.6 254.55 152.45 254.4 153.45 254.15 154.3 Q253.95 154.9 253.35 154.9 L251.1 154.85 247.9 154.85 245.9 154.85 Q245.6 154.85 245.5 154.65 L245.35 154.3 245.35 142.6 245.3 142.15 245.2 141.9 245.0 141.8 244.65 141.75 243.95 141.8 243.85 140.7 245.25 140.45 246.25 140.3 247.05 140.25 247.45 140.25 Q248.1 140.25 248.1 140.85" fill="#cc9900" fill-rule="evenodd" stroke="none"/>
    <path d="M311.55 141.95 L311.6 142.65 311.6 143.35 311.6 143.85 311.65 144.35 310.6 144.4 310.15 142.85 309.7 142.2 308.95 142.0 307.7 141.95 306.45 141.95 306.45 154.3 Q306.45 154.8 305.95 154.85 L305.5 154.9 305.0 154.95 304.55 155.0 304.25 155.0 Q303.7 155.0 303.7 154.45 L303.7 141.95 302.5 141.95 301.25 142.0 300.5 142.2 300.05 142.85 299.6 144.4 298.55 144.35 298.55 143.85 298.55 143.3 298.6 142.65 298.65 141.95 298.7 141.3 298.75 140.85 Q298.8 140.45 299.05 140.45 L301.15 140.5 303.1 140.5 307.1 140.5 309.05 140.5 311.2 140.45 311.5 140.85 311.5 141.3 311.55 141.95 M321.15 140.5 L322.15 140.5 Q322.4 140.5 322.45 140.85 L322.5 141.3 322.55 141.9 322.55 142.6 322.6 143.2 322.6 143.7 322.6 144.2 321.55 144.3 321.15 142.85 320.65 142.25 Q320.4 142.05 319.95 142.0 L318.7 141.95 316.6 141.95 316.35 142.0 316.35 142.2 316.35 146.8 317.85 146.7 319.3 146.65 320.3 146.6 320.75 146.55 Q321.35 146.55 321.35 147.15 L321.3 147.65 321.2 148.4 316.35 148.2 316.35 152.75 316.35 153.15 316.4 153.3 316.5 153.35 316.95 153.35 318.5 153.35 320.05 153.3 320.95 153.05 321.6 152.4 322.4 150.85 323.4 151.05 323.35 151.65 323.2 152.5 323.0 153.5 322.8 154.3 Q322.55 154.9 321.95 154.9 L320.9 154.85 319.5 154.85 317.95 154.85 316.15 154.85 314.15 154.85 Q313.85 154.85 313.75 154.65 L313.6 154.3 313.6 142.8 Q313.6 142.35 313.4 142.2 313.25 142.05 312.9 142.05 L312.2 142.1 312.1 141.0 313.0 140.8 314.0 140.7 315.05 140.55 315.8 140.5 320.15 140.5 321.15 140.5 M327.6 140.05 L328.05 140.0 328.35 140.0 328.75 140.1 328.9 140.4 333.0 151.55 337.15 141.7 337.05 140.85 337.0 140.65 Q337.0 140.25 337.35 140.15 L337.9 140.1 338.35 140.05 338.85 140.0 339.15 140.0 Q339.65 140.0 339.75 140.4 L341.35 154.15 341.35 154.3 341.35 154.35 Q341.35 154.8 340.95 154.85 L340.5 154.9 339.95 154.95 339.45 155.0 339.15 155.0 338.8 154.9 Q338.65 154.85 338.65 154.6 L337.5 143.9 333.4 154.65 Q333.3 154.9 333.0 154.95 L332.5 155.0 331.9 155.0 331.45 154.75 327.6 143.75 326.3 154.6 325.9 154.95 325.35 155.0 324.65 155.0 Q324.25 155.0 324.25 154.65 L324.25 154.45 326.6 141.85 326.25 140.8 326.2 140.6 Q326.2 140.25 326.7 140.15 L327.1 140.1 327.6 140.05 M268.55 142.05 Q269.45 143.0 269.95 144.4 270.45 145.75 270.45 147.45 270.45 149.3 269.9 150.75 269.35 152.2 268.3 153.2 267.3 154.15 265.85 154.7 L262.7 155.2 259.8 154.7 Q258.5 154.15 257.6 153.2 256.7 152.25 256.2 150.9 255.7 149.5 255.7 147.8 255.7 145.95 256.25 144.5 256.8 143.05 257.85 142.1 258.85 141.1 260.25 140.65 L263.45 140.15 Q265.05 140.15 266.3 140.65 L268.55 142.05 M262.85 141.6 Q261.75 141.6 260.95 142.05 260.2 142.5 259.65 143.25 259.15 144.05 258.9 145.05 L258.7 147.15 258.95 149.6 Q259.2 150.75 259.75 151.7 260.35 152.6 261.2 153.15 262.05 153.7 263.3 153.7 L265.2 153.25 266.5 152.0 267.25 150.2 267.5 148.05 267.25 145.65 266.4 143.6 Q265.85 142.7 264.95 142.15 264.1 141.6 262.85 141.6 M279.45 141.95 L279.45 154.3 Q279.45 154.8 278.95 154.85 L278.5 154.9 278.0 154.95 277.55 155.0 277.25 155.0 Q276.7 155.0 276.7 154.45 L276.7 141.95 275.5 141.95 274.25 142.0 273.5 142.2 273.05 142.85 272.6 144.4 271.55 144.35 271.55 143.85 271.55 143.3 271.6 142.65 271.65 141.95 271.7 141.3 271.75 140.85 Q271.8 140.45 272.05 140.45 L274.15 140.5 276.1 140.5 280.1 140.5 282.05 140.5 284.2 140.45 284.5 140.85 284.5 141.3 284.55 141.95 284.6 142.65 284.6 143.35 284.6 143.85 284.65 144.35 283.6 144.4 283.15 142.85 282.7 142.2 281.95 142.0 280.7 141.95 279.45 141.95 M296.05 140.25 Q296.7 140.25 296.7 140.85 L296.7 154.3 Q296.7 154.8 296.2 154.85 L295.75 154.9 295.25 154.95 294.8 155.0 294.5 155.0 Q293.95 155.0 293.95 154.45 L293.95 142.6 293.9 142.15 293.8 141.9 293.6 141.8 293.25 141.75 292.55 141.8 292.45 140.7 293.85 140.45 294.85 140.3 295.65 140.25 296.05 140.25 M347.35 140.75 L346.4 150.5 346.3 150.85 346.0 150.95 345.45 151.0 345.05 150.9 344.95 150.6 344.45 140.9 Q344.45 140.5 344.9 140.4 L345.45 140.3 345.95 140.25 346.5 140.25 346.8 140.25 347.15 140.35 Q347.35 140.45 347.35 140.7 L347.35 140.75 M352.25 140.25 L352.55 140.25 352.9 140.35 353.1 140.7 353.1 140.75 352.15 150.5 352.05 150.85 351.75 150.95 351.2 151.0 350.8 150.9 350.7 150.6 350.2 140.9 Q350.2 140.5 350.65 140.4 L351.2 140.3 351.7 140.25 352.25 140.25 M352.9 153.65 Q352.9 154.4 352.5 154.8 352.05 155.15 351.25 155.15 350.6 155.15 350.25 154.75 349.85 154.35 349.85 153.65 349.85 152.85 350.3 152.5 350.8 152.15 351.5 152.15 352.2 152.15 352.55 152.55 352.9 152.95 352.9 153.65 M344.1 153.65 Q344.1 152.85 344.55 152.5 345.05 152.15 345.75 152.15 346.45 152.15 346.8 152.55 347.15 152.95 347.15 153.65 347.15 154.4 346.75 154.8 L345.5 155.15 Q344.85 155.15 344.5 154.75 344.1 154.35 344.1 153.65 M236.4 141.6 Q236.25 141.65 236.25 141.85 L236.25 154.3 235.75 154.85 235.3 154.9 234.8 154.95 234.35 155.0 234.05 155.0 Q233.5 155.0 233.5 154.45 L233.5 142.45 233.35 141.85 232.8 141.7 232.1 141.75 232.0 140.65 234.45 140.25 237.3 140.1 238.7 140.2 240.1 140.45 Q240.85 140.6 241.4 140.9 L242.45 141.65 243.1 142.75 243.4 144.2 Q243.4 145.5 242.8 146.45 L241.35 147.95 239.2 148.75 236.55 149.1 236.4 147.95 238.3 147.65 239.45 147.05 240.15 146.1 240.4 144.65 240.15 143.35 239.45 142.35 Q239.0 142.0 238.4 141.8 L237.05 141.55 236.4 141.6 M248.1 140.85 L248.1 152.75 248.1 153.15 248.15 153.3 248.25 153.35 248.7 153.35 249.9 153.35 251.45 153.3 252.35 153.05 253.0 152.3 253.8 150.8 254.8 150.95 254.75 151.6 254.55 152.45 254.4 153.45 254.15 154.3 Q253.95 154.9 253.35 154.9 L251.1 154.85 247.9 154.85 245.9 154.85 Q245.6 154.85 245.5 154.65 L245.35 154.3 245.35 142.6 245.3 142.15 245.2 141.9 245.0 141.8 244.65 141.75 243.95 141.8 243.85 140.7 245.25 140.45 246.25 140.3 247.05 140.25 247.45 140.25 Q248.1 140.25 248.1 140.85" fill="none" stroke="#845125" stroke-linecap="round" stroke-linejoin="round" stroke-width="4.0"/>
    <path d="M306.45 148.6 L306.45 154.3 Q306.45 154.8 305.95 154.85 L305.5 154.9 305.0 154.95 304.55 155.0 304.25 155.0 Q303.7 155.0 303.7 154.45 L303.7 148.6 306.45 148.6 M316.35 148.6 L316.35 152.75 316.35 153.15 316.4 153.3 316.5 153.35 316.95 153.35 318.5 153.35 320.05 153.3 320.95 153.05 321.6 152.4 322.4 150.85 323.4 151.05 323.35 151.65 323.2 152.5 323.0 153.5 322.8 154.3 Q322.55 154.9 321.95 154.9 L320.9 154.85 319.5 154.85 317.95 154.85 316.15 154.85 314.15 154.85 Q313.85 154.85 313.75 154.65 L313.6 154.3 313.6 148.6 316.35 148.6 M331.95 148.6 L333.0 151.55 334.25 148.6 335.7 148.6 333.4 154.65 Q333.3 154.9 333.0 154.95 L332.5 155.0 331.9 155.0 331.45 154.75 329.3 148.6 331.95 148.6 M340.7 148.6 L341.35 154.15 341.35 154.3 341.35 154.35 Q341.35 154.8 340.95 154.85 L340.5 154.9 339.95 154.95 339.45 155.0 339.15 155.0 338.8 154.9 Q338.65 154.85 338.65 154.6 L338.0 148.6 340.7 148.6 M327.05 148.6 L326.3 154.6 325.9 154.95 325.35 155.0 324.65 155.0 Q324.25 155.0 324.25 154.65 L324.25 154.45 325.35 148.6 327.05 148.6 M270.4 148.6 L269.9 150.75 Q269.35 152.2 268.3 153.2 267.3 154.15 265.85 154.7 L262.7 155.2 259.8 154.7 Q258.5 154.15 257.6 153.2 256.7 152.25 256.2 150.9 255.8 149.85 255.75 148.6 L258.8 148.6 258.95 149.6 Q259.2 150.75 259.75 151.7 260.35 152.6 261.2 153.15 262.05 153.7 263.3 153.7 L265.2 153.25 266.5 152.0 267.25 150.2 267.5 148.6 270.4 148.6 M279.45 148.6 L279.45 154.3 Q279.45 154.8 278.95 154.85 L278.5 154.9 278.0 154.95 277.55 155.0 277.25 155.0 Q276.7 155.0 276.7 154.45 L276.7 148.6 279.45 148.6 M296.7 148.6 L296.7 154.3 Q296.7 154.8 296.2 154.85 L295.75 154.9 295.25 154.95 294.8 155.0 294.5 155.0 Q293.95 155.0 293.95 154.45 L293.95 148.6 296.7 148.6 M352.35 148.6 L352.15 150.5 352.05 150.85 351.75 150.95 351.2 151.0 350.8 150.9 350.7 150.6 350.6 148.6 352.35 148.6 M346.6 148.6 L346.4 150.5 346.3 150.85 346.0 150.95 345.45 151.0 345.05 150.9 344.95 150.6 344.85 148.6 346.6 148.6 M352.9 153.65 Q352.9 154.4 352.5 154.8 352.05 155.15 351.25 155.15 350.6 155.15 350.25 154.75 349.85 154.35 349.85 153.65 349.85 152.85 350.3 152.5 350.8 152.15 351.5 152.15 352.2 152.15 352.55 152.55 352.9 152.95 352.9 153.65 M345.5 155.15 Q344.85 155.15 344.5 154.75 344.1 154.35 344.1 153.65 344.1 152.85 344.55 152.5 345.05 152.15 345.75 152.15 346.45 152.15 346.8 152.55 347.15 152.95 347.15 153.65 347.15 154.4 346.75 154.8 L345.5 155.15 M236.25 148.6 L236.25 154.3 235.75 154.85 235.3 154.9 234.8 154.95 234.35 155.0 234.05 155.0 Q233.5 155.0 233.5 154.45 L233.5 148.6 236.25 148.6 M239.8 148.6 L239.2 148.75 236.55 149.1 236.5 148.6 239.8 148.6 M248.1 148.6 L248.1 152.75 248.1 153.15 248.15 153.3 248.25 153.35 248.7 153.35 249.9 153.35 251.45 153.3 252.35 153.05 253.0 152.3 253.8 150.8 254.8 150.95 254.75 151.6 254.55 152.45 254.4 153.45 254.15 154.3 Q253.95 154.9 253.35 154.9 L251.1 154.85 247.9 154.85 245.9 154.85 Q245.6 154.85 245.5 154.65 L245.35 154.3 245.35 148.6 248.1 148.6" fill="#cc9900" fill-rule="evenodd" stroke="none"/>
    <path d="M303.7 148.6 L303.7 141.95 302.5 141.95 301.25 142.0 300.5 142.2 300.05 142.85 299.6 144.4 298.55 144.35 298.55 143.85 298.55 143.3 298.6 142.65 298.65 141.95 298.7 141.3 298.75 140.85 Q298.8 140.45 299.05 140.45 L301.15 140.5 303.1 140.5 307.1 140.5 309.05 140.5 311.2 140.45 311.5 140.85 311.5 141.3 311.55 141.95 311.6 142.65 311.6 143.35 311.6 143.85 311.65 144.35 310.6 144.4 310.15 142.85 309.7 142.2 308.95 142.0 307.7 141.95 306.45 141.95 306.45 148.6 303.7 148.6 M313.6 148.6 L313.6 142.8 Q313.6 142.35 313.4 142.2 313.25 142.05 312.9 142.05 L312.2 142.1 312.1 141.0 313.0 140.8 314.0 140.7 315.05 140.55 315.8 140.5 320.15 140.5 321.15 140.5 322.15 140.5 Q322.4 140.5 322.45 140.85 L322.5 141.3 322.55 141.9 322.55 142.6 322.6 143.2 322.6 143.7 322.6 144.2 321.55 144.3 321.15 142.85 320.65 142.25 Q320.4 142.05 319.95 142.0 L318.7 141.95 316.6 141.95 316.35 142.0 316.35 142.2 316.35 146.8 317.85 146.7 319.3 146.65 320.3 146.6 320.75 146.55 Q321.35 146.55 321.35 147.15 L321.3 147.65 321.2 148.4 316.35 148.2 316.35 148.6 313.6 148.6 M325.35 148.6 L326.6 141.85 326.25 140.8 326.2 140.6 Q326.2 140.25 326.7 140.15 L327.1 140.1 327.6 140.05 328.05 140.0 328.35 140.0 328.75 140.1 328.9 140.4 331.95 148.6 329.3 148.6 327.6 143.75 327.05 148.6 325.35 148.6 M334.25 148.6 L337.15 141.7 337.05 140.85 337.0 140.65 Q337.0 140.25 337.35 140.15 L337.9 140.1 338.35 140.05 338.85 140.0 339.15 140.0 Q339.65 140.0 339.75 140.4 L340.7 148.6 338.0 148.6 337.5 143.9 335.7 148.6 334.25 148.6 M255.75 148.6 L255.7 147.8 Q255.7 145.95 256.25 144.5 256.8 143.05 257.85 142.1 258.85 141.1 260.25 140.65 L263.45 140.15 Q265.05 140.15 266.3 140.65 L268.55 142.05 Q269.45 143.0 269.95 144.4 270.45 145.75 270.45 147.45 L270.4 148.6 267.5 148.6 267.5 148.05 267.25 145.65 266.4 143.6 Q265.85 142.7 264.95 142.15 264.1 141.6 262.85 141.6 261.75 141.6 260.95 142.05 260.2 142.5 259.65 143.25 259.15 144.05 258.9 145.05 L258.7 147.15 258.8 148.6 255.75 148.6 M276.7 148.6 L276.7 141.95 275.5 141.95 274.25 142.0 273.5 142.2 273.05 142.85 272.6 144.4 271.55 144.35 271.55 143.85 271.55 143.3 271.6 142.65 271.65 141.95 271.7 141.3 271.75 140.85 Q271.8 140.45 272.05 140.45 L274.15 140.5 276.1 140.5 280.1 140.5 282.05 140.5 284.2 140.45 284.5 140.85 284.5 141.3 284.55 141.95 284.6 142.65 284.6 143.35 284.6 143.85 284.65 144.35 283.6 144.4 283.15 142.85 282.7 142.2 281.95 142.0 280.7 141.95 279.45 141.95 279.45 148.6 276.7 148.6 M293.95 148.6 L293.95 142.6 293.9 142.15 293.8 141.9 293.6 141.8 293.25 141.75 292.55 141.8 292.45 140.7 293.85 140.45 294.85 140.3 295.65 140.25 296.05 140.25 Q296.7 140.25 296.7 140.85 L296.7 148.6 293.95 148.6 M350.6 148.6 L350.2 140.9 Q350.2 140.5 350.65 140.4 L351.2 140.3 351.7 140.25 352.25 140.25 352.55 140.25 352.9 140.35 353.1 140.7 353.1 140.75 352.35 148.6 350.6 148.6 M344.85 148.6 L344.45 140.9 Q344.45 140.5 344.9 140.4 L345.45 140.3 345.95 140.25 346.5 140.25 346.8 140.25 347.15 140.35 Q347.35 140.45 347.35 140.7 L347.35 140.75 346.6 148.6 344.85 148.6 M236.5 148.6 L236.4 147.95 238.3 147.65 239.45 147.05 240.15 146.1 240.4 144.65 240.15 143.35 239.45 142.35 Q239.0 142.0 238.4 141.8 L237.05 141.55 236.4 141.6 Q236.25 141.65 236.25 141.85 L236.25 148.6 233.5 148.6 233.5 142.45 233.35 141.85 232.8 141.7 232.1 141.75 232.0 140.65 234.45 140.25 237.3 140.1 238.7 140.2 240.1 140.45 Q240.85 140.6 241.4 140.9 L242.45 141.65 243.1 142.75 243.4 144.2 Q243.4 145.5 242.8 146.45 L241.35 147.95 239.8 148.6 236.5 148.6 M245.35 148.6 L245.35 142.6 245.3 142.15 245.2 141.9 245.0 141.8 244.65 141.75 243.95 141.8 243.85 140.7 245.25 140.45 246.25 140.3 247.05 140.25 247.45 140.25 Q248.1 140.25 248.1 140.85 L248.1 148.6 245.35 148.6" fill="#ffcc66" fill-rule="evenodd" stroke="none"/>
  </g>
</svg>
