<?xml version="1.0" encoding="UTF-8" standalone="no"?>
<svg xmlns:xlink="http://www.w3.org/1999/xlink" height="19.0px" width="84.0px" xmlns="http://www.w3.org/2000/svg">
  <g transform="matrix(1.0, 0.0, 0.0, 1.0, -594.5, -326.5)">
    <path d="M613.0 332.0 L613.0 340.0 Q613.0 345.0 608.0 345.0 L600.0 345.0 Q595.0 345.0 595.0 340.0 L595.0 332.0 Q595.0 327.0 600.0 327.0 L608.0 327.0 Q613.0 327.0 613.0 332.0" fill="#bda264" fill-opacity="0.4" fill-rule="evenodd" stroke="none"/>
    <path d="M613.0 332.0 Q613.0 327.0 608.0 327.0 L600.0 327.0 Q595.0 327.0 595.0 332.0 L595.0 340.0 Q595.0 345.0 600.0 345.0 L608.0 345.0 Q613.0 345.0 613.0 340.0 L613.0 332.0 Z" fill="none" stroke="#493425" stroke-linecap="round" stroke-linejoin="round" stroke-width="1.0"/>
    <path d="M678.0 332.0 L678.0 340.0 Q678.0 345.0 673.0 345.0 L665.0 345.0 Q660.0 345.0 660.0 340.0 L660.0 332.0 Q660.0 327.0 665.0 327.0 L673.0 327.0 Q678.0 327.0 678.0 332.0" fill="#bda264" fill-opacity="0.4" fill-rule="evenodd" stroke="none"/>
    <path d="M678.0 332.0 Q678.0 327.0 673.0 327.0 L665.0 327.0 Q660.0 327.0 660.0 332.0 L660.0 340.0 Q660.0 345.0 665.0 345.0 L673.0 345.0 Q678.0 345.0 678.0 340.0 L678.0 332.0 Z" fill="none" stroke="#493425" stroke-linecap="round" stroke-linejoin="round" stroke-width="1.0"/>
  </g>
</svg>
