<?xml version="1.0" encoding="UTF-8" standalone="no"?>
<svg xmlns:xlink="http://www.w3.org/1999/xlink" height="85.0px" width="135.0px" xmlns="http://www.w3.org/2000/svg">
  <g transform="matrix(1.0, 0.0, 0.0, 1.0, -439.05, -203.0)">
    <path d="M445.05 287.0 Q440.05 287.0 440.05 282.0 L440.05 255.0 Q440.05 250.0 445.05 250.0 L472.05 250.0 Q477.05 250.0 477.05 255.0 L477.05 282.0 Q477.05 287.0 472.05 287.0 L445.05 287.0" fill="#918970" fill-rule="evenodd" stroke="none"/>
    <path d="M445.05 287.0 L472.05 287.0 Q477.05 287.0 477.05 282.0 L477.05 255.0 Q477.05 250.0 472.05 250.0 L445.05 250.0 Q440.05 250.0 440.05 255.0 L440.05 282.0 Q440.05 287.0 445.05 287.0 Z" fill="none" stroke="#493425" stroke-linecap="round" stroke-linejoin="round" stroke-width="2.0"/>
    <path d="M473.55 258.05 L473.55 267.95 443.3 267.95 443.3 258.05 Q443.3 253.65 447.4 253.65 L469.45 253.65 Q473.55 253.65 473.55 258.05" fill="#ffffff" fill-opacity="0.2" fill-rule="evenodd" stroke="none"/>
    <path d="M450.4 278.05 L465.65 278.05" fill="none" stroke="#493425" stroke-linecap="round" stroke-linejoin="round" stroke-width="2.0"/>
    <path d="M454.7 282.2 L445.05 278.1 454.7 274.0 454.7 282.2" fill="#493425" fill-rule="evenodd" stroke="none"/>
    <path d="M493.05 250.0 L520.05 250.0 Q525.05 250.0 525.05 255.0 L525.05 282.0 Q525.05 287.0 520.05 287.0 L493.05 287.0 Q488.05 287.0 488.05 282.0 L488.05 255.0 Q488.05 250.0 493.05 250.0" fill="#918970" fill-rule="evenodd" stroke="none"/>
    <path d="M493.05 250.0 Q488.05 250.0 488.05 255.0 L488.05 282.0 Q488.05 287.0 493.05 287.0 L520.05 287.0 Q525.05 287.0 525.05 282.0 L525.05 255.0 Q525.05 250.0 520.05 250.0 L493.05 250.0 Z" fill="none" stroke="#493425" stroke-linecap="round" stroke-linejoin="round" stroke-width="2.0"/>
    <path d="M521.55 258.05 L521.55 267.95 491.3 267.95 491.3 258.05 Q491.3 253.65 495.4 253.65 L517.45 253.65 Q521.55 253.65 521.55 258.05" fill="#ffffff" fill-opacity="0.2" fill-rule="evenodd" stroke="none"/>
    <path d="M498.05 277.25 L498.05 262.0" fill="none" stroke="#493425" stroke-linecap="round" stroke-linejoin="round" stroke-width="2.0"/>
    <path d="M502.25 272.95 L498.15 282.6 494.05 272.95 502.25 272.95" fill="#493425" fill-rule="evenodd" stroke="none"/>
    <path d="M541.05 250.0 L568.05 250.0 Q573.05 250.0 573.05 255.0 L573.05 282.0 Q573.05 287.0 568.05 287.0 L541.05 287.0 Q536.05 287.0 536.05 282.0 L536.05 255.0 Q536.05 250.0 541.05 250.0" fill="#918970" fill-rule="evenodd" stroke="none"/>
    <path d="M541.05 250.0 Q536.05 250.0 536.05 255.0 L536.05 282.0 Q536.05 287.0 541.05 287.0 L568.05 287.0 Q573.05 287.0 573.05 282.0 L573.05 255.0 Q573.05 250.0 568.05 250.0 L541.05 250.0 Z" fill="none" stroke="#493425" stroke-linecap="round" stroke-linejoin="round" stroke-width="2.0"/>
    <path d="M569.55 258.05 L569.55 267.95 539.3 267.95 539.3 258.05 Q539.3 253.65 543.4 253.65 L565.45 253.65 Q569.55 253.65 569.55 258.05" fill="#ffffff" fill-opacity="0.2" fill-rule="evenodd" stroke="none"/>
    <path d="M557.3 278.15 L542.05 278.15" fill="none" stroke="#493425" stroke-linecap="round" stroke-linejoin="round" stroke-width="2.0"/>
    <path d="M553.0 274.0 L562.65 278.1 553.0 282.2 553.0 274.0" fill="#493425" fill-rule="evenodd" stroke="none"/>
    <path d="M525.05 209.0 L525.05 236.0 Q525.05 241.0 520.05 241.0 L493.05 241.0 Q488.05 241.0 488.05 236.0 L488.05 209.0 Q488.05 204.0 493.05 204.0 L520.05 204.0 Q525.05 204.0 525.05 209.0" fill="#918970" fill-rule="evenodd" stroke="none"/>
    <path d="M525.05 209.0 Q525.05 204.0 520.05 204.0 L493.05 204.0 Q488.05 204.0 488.05 209.0 L488.05 236.0 Q488.05 241.0 493.05 241.0 L520.05 241.0 Q525.05 241.0 525.05 236.0 L525.05 209.0 Z" fill="none" stroke="#493425" stroke-linecap="round" stroke-linejoin="round" stroke-width="2.0"/>
    <path d="M521.55 212.05 L521.55 221.95 491.3 221.95 491.3 212.05 Q491.3 207.65 495.4 207.65 L517.45 207.65 Q521.55 207.65 521.55 212.05" fill="#ffffff" fill-opacity="0.2" fill-rule="evenodd" stroke="none"/>
    <path d="M498.25 219.35 L498.25 234.6" fill="none" stroke="#493425" stroke-linecap="round" stroke-linejoin="round" stroke-width="2.0"/>
    <path d="M494.05 223.65 L498.15 214.0 502.25 223.65 494.05 223.65" fill="#493425" fill-rule="evenodd" stroke="none"/>
  </g>
</svg>
