<?xml version="1.0" encoding="UTF-8" standalone="no"?>
<svg xmlns:xlink="http://www.w3.org/1999/xlink" height="39.7px" width="43.8px" xmlns="http://www.w3.org/2000/svg">
  <g transform="matrix(1.0, 0.0, 0.0, 1.0, 1.5, 1.5)">
    <path d="M37.0 0.0 Q38.75 4.6 39.55 8.25 41.05 14.95 40.75 21.25 40.3 29.25 37.0 36.7 L3.65 36.7 Q0.6 29.0 0.1 21.25 -0.35 14.95 1.1 8.25 2.0 4.15 3.65 0.0 L37.0 0.0" fill="url(#gradient0)" fill-rule="evenodd" stroke="none"/>
    <path d="M3.65 36.7 L37.0 36.7 Q40.3 29.25 40.75 21.25 41.05 14.95 39.55 8.25 38.75 4.6 37.0 0.0" fill="none" stroke="#653201" stroke-linecap="round" stroke-linejoin="round" stroke-width="3.0"/>
    <path d="M37.0 0.0 L3.65 0.0 Q2.0 4.15 1.1 8.25 -0.35 14.95 0.1 21.25 0.6 29.0 3.65 36.7 Z" fill="none" stroke="#ffcc99" stroke-linecap="round" stroke-linejoin="round" stroke-width="3.0"/>
  </g>
  <defs>
    <linearGradient gradientTransform="matrix(-0.0201, 0.0, 0.0, 0.0224, 20.1, 18.4)" gradientUnits="userSpaceOnUse" id="gradient0" spreadMethod="pad" x1="-819.2" x2="819.2">
      <stop offset="0.0" stop-color="#452c21" stop-opacity="0.42352942"/>
      <stop offset="1.0" stop-color="#a94401" stop-opacity="0.8"/>
    </linearGradient>
  </defs>
</svg>
