<?xml version="1.0" encoding="UTF-8" standalone="no"?>
<svg xmlns:xlink="http://www.w3.org/1999/xlink" height="444.95px" width="573.0px" xmlns="http://www.w3.org/2000/svg">
  <g transform="matrix(1.0, 0.0, 0.0, 1.0, -80.0, -46.0)">
    <path d="M653.0 490.95 L80.0 490.95 80.0 46.0 653.0 46.0 653.0 490.95 M530.0 94.0 L190.0 94.0 190.0 434.0 530.0 434.0 530.0 94.0" fill="#180e0a" fill-rule="evenodd" stroke="none"/>
    <path d="M513.0 270.95 L205.0 270.95 205.0 107.0 513.0 107.0 513.0 270.95" fill="url(#gradient0)" fill-rule="evenodd" stroke="none"/>
    <path d="M510.0 207.0 Q510.1 208.0 509.5 208.45 L508.05 208.65 498.8 208.55 Q495.9 208.35 493.85 206.9 491.35 205.45 486.95 200.1 476.75 188.4 474.6 185.35 L474.7 201.95 Q474.7 203.6 475.1 204.75 L475.7 205.85 477.05 206.25 479.55 206.35 Q480.9 206.55 480.75 207.8 480.15 208.65 479.1 208.65 L461.7 208.55 461.0 207.9 Q460.8 206.7 461.5 206.55 L464.5 206.15 Q465.3 206.05 465.7 204.2 466.3 198.35 466.1 196.6 L466.1 166.15 Q466.0 163.7 465.3 163.15 464.1 162.25 463.65 162.35 L460.8 162.25 Q459.85 161.9 459.95 161.0 460.6 160.05 461.4 160.1 470.95 160.4 478.25 160.1 479.75 160.4 479.55 161.2 L479.1 162.2 Q476.75 162.25 475.8 162.75 475.3 163.15 475.0 163.9 474.4 167.3 474.6 180.6 486.05 168.5 487.15 167.0 L489.6 163.3 489.5 162.55 489.4 162.35 488.4 162.1 Q487.9 161.6 488.0 160.5 L488.9 160.1 Q495.6 160.4 503.3 160.1 504.5 160.4 504.5 161.1 L504.1 162.2 Q500.75 162.35 498.7 163.4 496.0 164.85 493.45 167.0 L480.35 180.7 Q484.45 185.75 494.45 196.6 L499.7 201.95 503.0 204.45 Q505.4 205.75 506.6 206.05 510.0 206.55 510.0 207.0 M374.3 161.1 Q374.9 160.1 375.7 160.3 L397.6 160.3 405.1 160.9 Q414.65 162.35 419.6 168.5 424.35 174.7 424.65 182.45 424.75 186.25 423.95 190.0 419.4 208.35 397.4 208.9 L376.0 208.2 375.2 207.6 Q375.1 206.55 375.8 206.25 L378.75 205.85 Q379.55 205.85 379.95 203.9 380.55 198.15 380.35 196.4 L380.35 166.25 Q380.25 163.9 379.55 163.3 378.35 162.35 377.85 162.45 L375.1 162.35 Q374.2 162.1 374.3 161.1 M338.05 164.5 L338.05 184.4 Q338.35 184.75 341.35 185.05 L345.75 184.75 Q349.65 182.6 350.1 175.75 350.2 165.95 342.45 164.3 L338.05 164.5 M353.4 183.5 L350.3 186.15 360.0 198.35 Q363.85 203.0 365.35 204.2 L366.45 204.85 Q368.5 206.35 372.15 206.55 373.05 207.2 372.35 208.55 L371.05 208.75 361.7 208.55 Q358.9 208.1 356.55 206.05 354.2 204.1 351.4 200.1 L344.3 189.8 343.4 189.1 338.05 189.1 Q337.8 201.1 338.65 204.95 L339.35 206.05 344.2 206.6 Q344.7 208.45 343.5 208.65 333.15 208.45 325.45 208.65 L324.65 208.0 Q324.45 206.8 325.15 206.6 L328.25 206.25 Q329.0 206.15 329.4 204.3 330.0 198.45 329.8 196.7 L329.8 166.25 Q329.7 163.8 329.0 163.3 327.85 162.35 327.35 162.45 L324.45 162.35 Q323.6 162.0 323.65 161.1 324.25 160.1 325.05 160.2 L344.0 160.2 348.95 160.8 Q353.9 162.2 355.85 164.75 357.8 167.2 358.3 171.1 358.4 176.3 356.05 180.0 L353.4 183.5 M410.85 171.35 Q409.15 169.25 406.9 167.8 402.2 165.05 395.6 164.3 L389.3 164.65 389.0 165.05 388.9 167.4 Q388.8 199.85 389.4 202.05 390.0 204.2 395.5 204.85 400.75 205.15 405.2 203.8 407.95 202.9 409.95 201.1 412.8 198.75 414.1 195.8 414.85 193.15 415.45 187.8 415.65 181.3 414.25 177.7 413.2 174.3 410.85 171.35 M453.55 170.0 Q453.45 167.2 452.95 166.55 L451.7 165.55 447.85 164.95 441.1 164.85 441.2 180.7 451.1 180.6 452.85 180.2 454.3 178.85 Q455.35 178.85 455.55 179.75 454.95 183.8 454.75 189.3 454.55 190.4 453.75 190.4 L452.65 190.1 Q452.55 187.1 452.1 186.45 451.2 185.35 450.6 185.35 L441.1 185.05 441.1 200.7 Q441.35 202.9 442.25 203.4 443.3 204.0 445.15 204.2 451.4 204.55 453.45 203.5 L454.65 202.5 455.45 200.9 455.85 198.75 Q456.45 197.7 457.7 198.25 L458.0 199.35 457.3 206.15 Q456.75 209.4 453.45 208.75 L428.0 208.45 427.2 207.8 Q427.1 206.6 427.7 206.45 L430.75 206.05 Q431.65 206.05 431.95 204.1 432.55 198.35 432.35 196.6 L432.35 166.45 Q432.25 164.1 431.65 163.5 430.4 162.55 429.9 162.65 L427.1 162.55 Q426.2 162.25 426.3 161.3 426.9 160.3 427.7 160.4 433.9 160.7 452.1 160.6 L455.25 160.05 Q456.25 159.95 456.55 160.7 L455.75 169.25 Q455.55 170.1 454.65 170.5 L453.55 170.0 M210.55 206.6 L213.45 206.35 Q214.7 205.65 215.3 201.7 L221.15 161.6 Q221.7 160.1 222.2 160.1 223.3 159.95 223.75 160.6 224.05 160.7 227.85 169.05 L240.35 196.3 256.45 160.8 Q257.3 159.95 258.65 160.3 L259.35 161.7 264.85 201.2 Q265.55 204.95 266.8 205.75 L269.05 206.45 271.75 206.55 272.35 207.1 Q272.35 208.35 271.2 208.65 255.95 208.65 255.95 207.3 L255.95 206.6 256.75 206.05 256.95 205.75 256.95 204.0 253.6 178.45 240.45 206.6 Q239.1 208.9 238.35 208.65 237.8 208.8 235.35 204.0 L223.6 179.05 220.55 203.5 Q220.25 205.45 221.15 205.95 L225.15 206.55 Q225.85 207.3 225.55 208.1 L224.75 208.65 Q216.95 208.45 210.75 208.65 L210.05 207.9 Q209.95 206.9 210.55 206.6 M296.15 173.9 L296.35 174.4 291.2 188.7 291.0 188.7 291.1 188.85 291.2 188.7 301.35 188.7 296.35 174.4 296.45 174.0 296.15 173.9 M297.25 160.6 Q298.7 160.2 299.5 162.2 L314.25 200.4 Q315.7 203.5 316.45 204.4 L318.45 206.05 321.9 206.45 322.5 206.9 Q322.5 208.45 321.25 208.45 L319.2 208.55 Q306.1 208.55 306.0 207.6 L306.0 206.8 Q306.8 206.25 307.25 206.25 L307.45 205.85 302.65 192.75 289.85 192.75 289.55 193.15 286.15 202.5 285.65 204.45 Q285.55 205.85 286.05 206.05 L286.65 206.35 289.65 206.6 Q289.95 207.9 288.9 208.45 283.05 208.2 274.2 208.45 L273.6 207.7 273.7 206.6 274.7 206.35 Q276.8 206.55 278.55 205.45 279.85 204.4 281.3 200.4 L296.05 162.1 Q296.45 161.1 297.25 160.6" fill="url(#gradient1)" fill-rule="evenodd" stroke="none"/>
    <path d="M510.0 207.0 Q510.1 208.0 509.5 208.45 L508.05 208.65 498.8 208.55 Q495.9 208.35 493.85 206.9 491.35 205.45 486.95 200.1 476.75 188.4 474.6 185.35 L474.7 201.95 Q474.7 203.6 475.1 204.75 L475.7 205.85 477.05 206.25 479.55 206.35 Q480.9 206.55 480.75 207.8 480.15 208.65 479.1 208.65 L461.7 208.55 461.0 207.9 Q460.8 206.7 461.5 206.55 L464.5 206.15 Q465.3 206.05 465.7 204.2 466.3 198.35 466.1 196.6 L466.1 166.15 Q466.0 163.7 465.3 163.15 464.1 162.25 463.65 162.35 L460.8 162.25 Q459.85 161.9 459.95 161.0 460.6 160.05 461.4 160.1 470.95 160.4 478.25 160.1 479.75 160.4 479.55 161.2 L479.1 162.2 Q476.75 162.25 475.8 162.75 475.3 163.15 475.0 163.9 474.4 167.3 474.6 180.6 486.05 168.5 487.15 167.0 L489.6 163.3 489.5 162.55 489.4 162.35 488.4 162.1 Q487.9 161.6 488.0 160.5 L488.9 160.1 Q495.6 160.4 503.3 160.1 504.5 160.4 504.5 161.1 L504.1 162.2 Q500.75 162.35 498.7 163.4 496.0 164.85 493.45 167.0 L480.35 180.7 Q484.45 185.75 494.45 196.6 L499.7 201.95 503.0 204.45 Q505.4 205.75 506.6 206.05 510.0 206.55 510.0 207.0 M374.3 161.1 Q374.9 160.1 375.7 160.3 L397.6 160.3 405.1 160.9 Q414.65 162.35 419.6 168.5 424.35 174.7 424.65 182.45 424.75 186.25 423.95 190.0 419.4 208.35 397.4 208.9 L376.0 208.2 375.2 207.6 Q375.1 206.55 375.8 206.25 L378.75 205.85 Q379.55 205.85 379.95 203.9 380.55 198.15 380.35 196.4 L380.35 166.25 Q380.25 163.9 379.55 163.3 378.35 162.35 377.85 162.45 L375.1 162.35 Q374.2 162.1 374.3 161.1 M338.05 164.5 L338.05 184.4 Q338.35 184.75 341.35 185.05 L345.75 184.75 Q349.65 182.6 350.1 175.75 350.2 165.95 342.45 164.3 L338.05 164.5 M353.4 183.5 L350.3 186.15 360.0 198.35 Q363.85 203.0 365.35 204.2 L366.45 204.85 Q368.5 206.35 372.15 206.55 373.05 207.2 372.35 208.55 L371.05 208.75 361.7 208.55 Q358.9 208.1 356.55 206.05 354.2 204.1 351.4 200.1 L344.3 189.8 343.4 189.1 338.05 189.1 Q337.8 201.1 338.65 204.95 L339.35 206.05 344.2 206.6 Q344.7 208.45 343.5 208.65 333.15 208.45 325.45 208.65 L324.65 208.0 Q324.45 206.8 325.15 206.6 L328.25 206.25 Q329.0 206.15 329.4 204.3 330.0 198.45 329.8 196.7 L329.8 166.25 Q329.7 163.8 329.0 163.3 327.85 162.35 327.35 162.45 L324.45 162.35 Q323.6 162.0 323.65 161.1 324.25 160.1 325.05 160.2 L344.0 160.2 348.95 160.8 Q353.9 162.2 355.85 164.75 357.8 167.2 358.3 171.1 358.4 176.3 356.05 180.0 L353.4 183.5 M410.85 171.35 Q409.15 169.25 406.9 167.8 402.2 165.05 395.6 164.3 L389.3 164.65 389.0 165.05 388.9 167.4 Q388.8 199.85 389.4 202.05 390.0 204.2 395.5 204.85 400.75 205.15 405.2 203.8 407.95 202.9 409.95 201.1 412.8 198.75 414.1 195.8 414.85 193.15 415.45 187.8 415.65 181.3 414.25 177.7 413.2 174.3 410.85 171.35 M453.55 170.0 Q453.45 167.2 452.95 166.55 L451.7 165.55 447.85 164.95 441.1 164.85 441.2 180.7 451.1 180.6 452.85 180.2 454.3 178.85 Q455.35 178.85 455.55 179.75 454.95 183.8 454.75 189.3 454.55 190.4 453.75 190.4 L452.65 190.1 Q452.55 187.1 452.1 186.45 451.2 185.35 450.6 185.35 L441.1 185.05 441.1 200.7 Q441.35 202.9 442.25 203.4 443.3 204.0 445.15 204.2 451.4 204.55 453.45 203.5 L454.65 202.5 455.45 200.9 455.85 198.75 Q456.45 197.7 457.7 198.25 L458.0 199.35 457.3 206.15 Q456.75 209.4 453.45 208.75 L428.0 208.45 427.2 207.8 Q427.1 206.6 427.7 206.45 L430.75 206.05 Q431.65 206.05 431.95 204.1 432.55 198.35 432.35 196.6 L432.35 166.45 Q432.25 164.1 431.65 163.5 430.4 162.55 429.9 162.65 L427.1 162.55 Q426.2 162.25 426.3 161.3 426.9 160.3 427.7 160.4 433.9 160.7 452.1 160.6 L455.25 160.05 Q456.25 159.95 456.55 160.7 L455.75 169.25 Q455.55 170.1 454.65 170.5 L453.55 170.0 M210.55 206.6 L213.45 206.35 Q214.7 205.65 215.3 201.7 L221.15 161.6 Q221.7 160.1 222.2 160.1 223.3 159.95 223.75 160.6 224.05 160.7 227.85 169.05 L240.35 196.3 256.45 160.8 Q257.3 159.95 258.65 160.3 L259.35 161.7 264.85 201.2 Q265.55 204.95 266.8 205.75 L269.05 206.45 271.75 206.55 272.35 207.1 Q272.35 208.35 271.2 208.65 255.95 208.65 255.95 207.3 L255.95 206.6 256.75 206.05 256.95 205.75 256.95 204.0 253.6 178.45 240.45 206.6 Q239.1 208.9 238.35 208.65 237.8 208.8 235.35 204.0 L223.6 179.05 220.55 203.5 Q220.25 205.45 221.15 205.95 L225.15 206.55 Q225.85 207.3 225.55 208.1 L224.75 208.65 Q216.95 208.45 210.75 208.65 L210.05 207.9 Q209.95 206.9 210.55 206.6 M296.15 173.9 L296.45 174.0 296.35 174.4 301.35 188.7 291.2 188.7 291.1 188.85 291.0 188.7 291.2 188.7 296.35 174.4 296.15 173.9 M297.25 160.6 Q298.7 160.2 299.5 162.2 L314.25 200.4 Q315.7 203.5 316.45 204.4 L318.45 206.05 321.9 206.45 322.5 206.9 Q322.5 208.45 321.25 208.45 L319.2 208.55 Q306.1 208.55 306.0 207.6 L306.0 206.8 Q306.8 206.25 307.25 206.25 L307.45 205.85 302.65 192.75 289.85 192.75 289.55 193.15 286.15 202.5 285.65 204.45 Q285.55 205.85 286.05 206.05 L286.65 206.35 289.65 206.6 Q289.95 207.9 288.9 208.45 283.05 208.2 274.2 208.45 L273.6 207.7 273.7 206.6 274.7 206.35 Q276.8 206.55 278.55 205.45 279.85 204.4 281.3 200.4 L296.05 162.1 Q296.45 161.1 297.25 160.6" fill="none" stroke="#cda069" stroke-linecap="round" stroke-linejoin="round" stroke-opacity="0.77254903" stroke-width="14.0"/>
    <path d="M504.4 161.1 L504.0 162.2 Q500.65 162.35 498.6 163.4 495.9 164.85 493.35 167.0 L480.25 180.7 Q484.35 185.75 494.35 196.6 L499.6 201.95 502.9 204.45 Q505.3 205.75 506.5 206.05 509.9 206.55 509.9 207.0 510.0 208.0 509.4 208.45 L507.95 208.65 498.7 208.55 Q495.8 208.35 493.75 206.9 491.25 205.45 486.85 200.1 476.65 188.4 474.5 185.35 L474.6 201.95 Q474.6 203.6 475.0 204.75 L475.6 205.85 476.95 206.25 479.45 206.35 Q480.8 206.55 480.65 207.8 480.05 208.65 479.0 208.65 L461.6 208.55 460.9 207.9 Q460.7 206.7 461.4 206.55 L464.4 206.15 Q465.2 206.05 465.6 204.2 466.2 198.35 466.0 196.6 L466.0 166.15 Q465.9 163.7 465.2 163.15 464.05 162.25 463.55 162.35 L460.7 162.25 Q459.75 161.9 459.85 161.0 460.5 160.05 461.3 160.1 470.85 160.4 478.15 160.1 479.65 160.4 479.45 161.2 L479.0 162.2 Q476.65 162.25 475.7 162.75 475.2 163.15 474.9 163.9 474.3 167.3 474.5 180.6 L487.05 167.0 489.5 163.3 489.4 162.55 489.3 162.35 488.3 162.1 Q487.85 161.6 487.9 160.5 L488.8 160.1 Q495.5 160.4 503.2 160.1 504.4 160.4 504.4 161.1 M374.2 161.1 Q374.8 160.1 375.6 160.3 L397.5 160.3 405.0 160.9 Q414.55 162.35 419.5 168.5 424.25 174.7 424.55 182.45 424.65 186.25 423.85 190.0 419.3 208.35 397.35 208.9 L375.9 208.2 375.1 207.6 Q375.0 206.55 375.7 206.25 L378.65 205.85 Q379.45 205.85 379.85 203.9 380.45 198.15 380.25 196.4 L380.25 166.25 Q380.15 163.9 379.45 163.3 378.3 162.35 377.75 162.45 L375.0 162.35 Q374.1 162.1 374.2 161.1 M338.05 164.5 L338.05 184.4 Q338.35 184.75 341.35 185.05 L345.75 184.75 Q349.65 182.6 350.1 175.75 350.2 165.95 342.45 164.3 L338.05 164.5 M353.4 183.5 L350.3 186.15 359.9 198.35 Q363.75 203.0 365.2 204.2 L366.35 204.85 Q368.4 206.35 372.05 206.55 372.95 207.2 372.25 208.55 L370.95 208.75 361.6 208.55 Q358.8 208.1 356.55 206.05 354.2 204.1 351.4 200.1 L344.3 189.8 343.4 189.1 338.05 189.1 Q337.8 201.1 338.65 204.95 L339.35 206.05 344.2 206.6 Q344.7 208.45 343.5 208.65 333.15 208.45 325.45 208.65 L324.65 208.0 Q324.45 206.8 325.15 206.6 L328.25 206.25 Q329.0 206.15 329.4 204.3 330.0 198.45 329.8 196.7 L329.8 166.25 Q329.7 163.8 329.0 163.3 327.85 162.35 327.35 162.45 L324.45 162.35 Q323.6 162.0 323.65 161.1 324.25 160.1 325.05 160.2 L344.0 160.2 348.95 160.8 Q353.9 162.2 355.85 164.75 357.7 167.2 358.2 171.1 358.3 176.3 356.05 180.0 L353.4 183.5 M410.75 171.35 Q409.05 169.25 406.8 167.8 402.15 165.05 395.5 164.3 L389.2 164.65 388.9 165.05 388.8 167.4 Q388.7 199.85 389.3 202.05 389.9 204.2 395.4 204.85 400.65 205.15 405.1 203.8 407.85 202.9 409.85 201.1 412.7 198.75 414.0 195.8 414.75 193.15 415.35 187.8 415.55 181.3 414.15 177.7 413.1 174.3 410.75 171.35 M454.55 170.5 L453.45 170.0 Q453.35 167.2 452.85 166.55 L451.6 165.55 447.75 164.95 441.0 164.85 441.1 180.7 451.0 180.6 452.75 180.2 454.2 178.85 Q455.25 178.85 455.45 179.75 454.85 183.8 454.65 189.3 454.5 190.4 453.65 190.4 L452.55 190.1 Q452.45 187.1 452.0 186.45 451.1 185.35 450.5 185.35 L441.0 185.05 441.0 200.7 Q441.2 202.9 442.15 203.4 443.2 204.0 445.05 204.2 451.3 204.55 453.35 203.5 L454.55 202.5 455.35 200.9 455.75 198.75 Q456.35 197.7 457.6 198.25 L457.9 199.35 457.2 206.15 Q456.65 209.4 453.35 208.75 L427.9 208.45 427.1 207.8 Q427.0 206.6 427.6 206.45 L430.7 206.05 Q431.55 206.05 431.85 204.1 432.45 198.35 432.25 196.6 L432.25 166.45 Q432.15 164.1 431.55 163.5 430.3 162.55 429.8 162.65 L427.0 162.55 Q426.1 162.25 426.2 161.3 426.8 160.3 427.6 160.4 433.8 160.7 452.0 160.6 L455.15 160.05 Q456.15 159.95 456.45 160.7 L455.65 169.25 Q455.45 170.1 454.55 170.5 M215.3 201.7 L221.15 161.6 Q221.7 160.1 222.2 160.1 223.3 159.95 223.75 160.6 224.05 160.7 227.85 169.05 L240.35 196.3 256.45 160.8 Q257.3 159.95 258.65 160.3 L259.35 161.7 264.85 201.2 Q265.55 204.95 266.8 205.75 L269.05 206.45 271.75 206.55 272.35 207.1 Q272.35 208.35 271.2 208.65 255.95 208.65 255.95 207.3 L255.95 206.6 256.75 206.05 256.95 205.75 256.95 204.0 253.6 178.45 240.45 206.6 Q239.1 208.9 238.35 208.65 237.8 208.8 235.35 204.0 L223.6 179.05 220.55 203.5 Q220.25 205.45 221.15 205.95 L225.15 206.55 Q225.85 207.3 225.55 208.1 L224.75 208.65 Q216.95 208.45 210.75 208.65 L210.05 207.9 Q209.95 206.9 210.55 206.6 L213.45 206.35 Q214.7 205.65 215.3 201.7 M297.25 160.6 Q298.7 160.2 299.5 162.2 L314.25 200.4 Q315.7 203.5 316.45 204.4 L318.45 206.05 321.9 206.45 322.5 206.9 Q322.5 208.45 321.25 208.45 L319.2 208.55 Q306.1 208.55 306.0 207.6 L306.0 206.8 Q306.8 206.25 307.25 206.25 L307.45 205.85 302.65 192.75 289.85 192.75 289.55 193.15 286.15 202.5 285.65 204.45 Q285.55 205.85 286.05 206.05 L286.65 206.35 289.65 206.6 Q289.95 207.9 288.9 208.45 283.05 208.2 274.2 208.45 L273.6 207.7 273.7 206.6 274.7 206.35 Q276.8 206.55 278.55 205.45 279.85 204.4 281.3 200.4 L296.05 162.1 Q296.45 161.1 297.25 160.6 M296.15 173.9 L296.35 174.4 291.2 188.7 291.0 188.7 291.1 188.85 291.2 188.7 301.35 188.7 296.35 174.4 296.45 174.0 296.15 173.9" fill="url(#gradient2)" fill-rule="evenodd" stroke="none"/>
    <path d="M504.4 161.1 L504.0 162.2 Q500.65 162.35 498.6 163.4 495.9 164.85 493.35 167.0 L480.25 180.7 Q484.35 185.75 494.35 196.6 L499.6 201.95 502.9 204.45 Q505.3 205.75 506.5 206.05 509.9 206.55 509.9 207.0 510.0 208.0 509.4 208.45 L507.95 208.65 498.7 208.55 Q495.8 208.35 493.75 206.9 491.25 205.45 486.85 200.1 476.65 188.4 474.5 185.35 L474.6 201.95 Q474.6 203.6 475.0 204.75 L475.6 205.85 476.95 206.25 479.45 206.35 Q480.8 206.55 480.65 207.8 480.05 208.65 479.0 208.65 L461.6 208.55 460.9 207.9 Q460.7 206.7 461.4 206.55 L464.4 206.15 Q465.2 206.05 465.6 204.2 466.2 198.35 466.0 196.6 L466.0 166.15 Q465.9 163.7 465.2 163.15 464.05 162.25 463.55 162.35 L460.7 162.25 Q459.75 161.9 459.85 161.0 460.5 160.05 461.3 160.1 470.85 160.4 478.15 160.1 479.65 160.4 479.45 161.2 L479.0 162.2 Q476.65 162.25 475.7 162.75 475.2 163.15 474.9 163.9 474.3 167.3 474.5 180.6 L487.05 167.0 489.5 163.3 489.4 162.55 489.3 162.35 488.3 162.1 Q487.85 161.6 487.9 160.5 L488.8 160.1 Q495.5 160.4 503.2 160.1 504.4 160.4 504.4 161.1 M374.2 161.1 Q374.8 160.1 375.6 160.3 L397.5 160.3 405.0 160.9 Q414.55 162.35 419.5 168.5 424.25 174.7 424.55 182.45 424.65 186.25 423.85 190.0 419.3 208.35 397.35 208.9 L375.9 208.2 375.1 207.6 Q375.0 206.55 375.7 206.25 L378.65 205.85 Q379.45 205.85 379.85 203.9 380.45 198.15 380.25 196.4 L380.25 166.25 Q380.15 163.9 379.45 163.3 378.3 162.35 377.75 162.45 L375.0 162.35 Q374.1 162.1 374.2 161.1 M338.05 164.5 L338.05 184.4 Q338.35 184.75 341.35 185.05 L345.75 184.75 Q349.65 182.6 350.1 175.75 350.2 165.95 342.45 164.3 L338.05 164.5 M353.4 183.5 L350.3 186.15 359.9 198.35 Q363.75 203.0 365.2 204.2 L366.35 204.85 Q368.4 206.35 372.05 206.55 372.95 207.2 372.25 208.55 L370.95 208.75 361.6 208.55 Q358.8 208.1 356.55 206.05 354.2 204.1 351.4 200.1 L344.3 189.8 343.4 189.1 338.05 189.1 Q337.8 201.1 338.65 204.95 L339.35 206.05 344.2 206.6 Q344.7 208.45 343.5 208.65 333.15 208.45 325.45 208.65 L324.65 208.0 Q324.45 206.8 325.15 206.6 L328.25 206.25 Q329.0 206.15 329.4 204.3 330.0 198.45 329.8 196.7 L329.8 166.25 Q329.7 163.8 329.0 163.3 327.85 162.35 327.35 162.45 L324.45 162.35 Q323.6 162.0 323.65 161.1 324.25 160.1 325.05 160.2 L344.0 160.2 348.95 160.8 Q353.9 162.2 355.85 164.75 357.7 167.2 358.2 171.1 358.3 176.3 356.05 180.0 L353.4 183.5 M410.75 171.35 Q409.05 169.25 406.8 167.8 402.15 165.05 395.5 164.3 L389.2 164.65 388.9 165.05 388.8 167.4 Q388.7 199.85 389.3 202.05 389.9 204.2 395.4 204.85 400.65 205.15 405.1 203.8 407.85 202.9 409.85 201.1 412.7 198.75 414.0 195.8 414.75 193.15 415.35 187.8 415.55 181.3 414.15 177.7 413.1 174.3 410.75 171.35 M454.55 170.5 L453.45 170.0 Q453.35 167.2 452.85 166.55 L451.6 165.55 447.75 164.95 441.0 164.85 441.1 180.7 451.0 180.6 452.75 180.2 454.2 178.85 Q455.25 178.85 455.45 179.75 454.85 183.8 454.65 189.3 454.5 190.4 453.65 190.4 L452.55 190.1 Q452.45 187.1 452.0 186.45 451.1 185.35 450.5 185.35 L441.0 185.05 441.0 200.7 Q441.2 202.9 442.15 203.4 443.2 204.0 445.05 204.2 451.3 204.55 453.35 203.5 L454.55 202.5 455.35 200.9 455.75 198.75 Q456.35 197.7 457.6 198.25 L457.9 199.35 457.2 206.15 Q456.65 209.4 453.35 208.75 L427.9 208.45 427.1 207.8 Q427.0 206.6 427.6 206.45 L430.7 206.05 Q431.55 206.05 431.85 204.1 432.45 198.35 432.25 196.6 L432.25 166.45 Q432.15 164.1 431.55 163.5 430.3 162.55 429.8 162.65 L427.0 162.55 Q426.1 162.25 426.2 161.3 426.8 160.3 427.6 160.4 433.8 160.7 452.0 160.6 L455.15 160.05 Q456.15 159.95 456.45 160.7 L455.65 169.25 Q455.45 170.1 454.55 170.5 M215.3 201.7 L221.15 161.6 Q221.7 160.1 222.2 160.1 223.3 159.95 223.75 160.6 224.05 160.7 227.85 169.05 L240.35 196.3 256.45 160.8 Q257.3 159.95 258.65 160.3 L259.35 161.7 264.85 201.2 Q265.55 204.95 266.8 205.75 L269.05 206.45 271.75 206.55 272.35 207.1 Q272.35 208.35 271.2 208.65 255.95 208.65 255.95 207.3 L255.95 206.6 256.75 206.05 256.95 205.75 256.95 204.0 253.6 178.45 240.45 206.6 Q239.1 208.9 238.35 208.65 237.8 208.8 235.35 204.0 L223.6 179.05 220.55 203.5 Q220.25 205.45 221.15 205.95 L225.15 206.55 Q225.85 207.3 225.55 208.1 L224.75 208.65 Q216.95 208.45 210.75 208.65 L210.05 207.9 Q209.95 206.9 210.55 206.6 L213.45 206.35 Q214.7 205.65 215.3 201.7 M297.25 160.6 Q298.7 160.2 299.5 162.2 L314.25 200.4 Q315.7 203.5 316.45 204.4 L318.45 206.05 321.9 206.45 322.5 206.9 Q322.5 208.45 321.25 208.45 L319.2 208.55 Q306.1 208.55 306.0 207.6 L306.0 206.8 Q306.8 206.25 307.25 206.25 L307.45 205.85 302.65 192.75 289.85 192.75 289.55 193.15 286.15 202.5 285.65 204.45 Q285.55 205.85 286.05 206.05 L286.65 206.35 289.65 206.6 Q289.95 207.9 288.9 208.45 283.05 208.2 274.2 208.45 L273.6 207.7 273.7 206.6 274.7 206.35 Q276.8 206.55 278.55 205.45 279.85 204.4 281.3 200.4 L296.05 162.1 Q296.45 161.1 297.25 160.6 M296.15 173.9 L296.45 174.0 296.35 174.4 301.35 188.7 291.2 188.7 291.1 188.85 291.0 188.7 291.2 188.7 296.35 174.4 296.15 173.9" fill="none" stroke="#443322" stroke-linecap="round" stroke-linejoin="round" stroke-width="7.0"/>
    <path d="M504.35 161.1 L503.95 162.2 Q500.6 162.35 498.5 163.35 495.85 164.85 493.3 167.0 L480.15 180.7 494.25 196.55 499.5 201.9 502.85 204.45 Q505.2 205.75 506.4 206.05 509.85 206.5 509.85 207.0 509.95 208.0 509.35 208.4 L507.9 208.6 498.6 208.5 Q495.75 208.3 493.65 206.9 491.2 205.45 486.75 200.1 476.6 188.4 474.45 185.35 L474.55 201.9 Q474.55 203.55 474.95 204.75 L475.5 205.85 476.9 206.2 479.35 206.3 Q480.75 206.5 480.55 207.8 479.95 208.6 478.95 208.6 L461.5 208.5 460.8 207.9 Q460.6 206.7 461.3 206.5 L464.35 206.15 Q465.15 206.05 465.55 204.15 466.15 198.35 465.95 196.55 L465.95 166.1 Q465.85 163.65 465.15 163.15 463.95 162.25 463.5 162.35 L460.6 162.25 Q459.75 161.9 459.85 161.0 460.4 160.0 461.2 160.1 470.8 160.4 478.1 160.1 479.55 160.4 479.35 161.2 L478.95 162.2 Q476.6 162.25 475.6 162.75 475.1 163.15 474.85 163.85 474.25 167.3 474.45 180.6 485.9 168.5 486.95 167.0 489.15 164.15 489.45 163.25 L489.35 162.55 489.25 162.35 488.25 162.1 Q487.75 161.6 487.85 160.5 L488.75 160.1 Q495.45 160.4 503.15 160.1 504.35 160.4 504.35 161.1 M455.6 169.25 Q455.4 170.05 454.5 170.45 L453.4 169.95 Q453.3 167.2 452.8 166.5 452.15 165.7 451.55 165.55 L447.7 164.95 441.0 164.85 441.1 180.7 450.95 180.6 452.7 180.2 454.1 178.85 Q455.2 178.85 455.4 179.7 454.8 183.75 454.6 189.3 454.4 190.35 453.6 190.35 L452.55 190.05 Q452.45 187.1 451.95 186.4 451.05 185.35 450.45 185.35 L441.0 185.05 441.0 200.7 Q441.2 202.85 442.05 203.35 443.15 203.95 445.05 204.15 451.25 204.55 453.3 203.45 L454.5 202.5 455.3 200.9 455.7 198.75 Q456.3 197.65 457.55 198.25 L457.85 199.35 457.15 206.15 Q456.55 209.4 453.3 208.7 L427.85 208.4 427.05 207.8 Q426.95 206.6 427.55 206.4 L430.6 206.05 Q431.5 206.05 431.8 204.05 432.4 198.35 432.2 196.55 L432.2 166.4 Q432.1 164.05 431.5 163.45 430.25 162.55 429.75 162.65 L426.95 162.55 Q426.1 162.25 426.2 161.3 426.75 160.3 427.55 160.4 433.8 160.7 451.95 160.6 L455.1 160.0 Q456.1 159.9 456.4 160.7 L455.6 169.25 M423.8 189.95 Q419.25 208.3 397.25 208.9 L375.85 208.2 375.05 207.6 Q374.95 206.5 375.65 206.2 L378.6 205.85 Q379.4 205.85 379.8 203.85 380.4 198.15 380.2 196.35 L380.2 166.2 Q380.1 163.85 379.4 163.25 378.25 162.35 377.75 162.45 L374.95 162.35 Q374.1 162.1 374.2 161.1 374.75 160.1 375.55 160.3 L397.45 160.3 404.95 160.9 Q414.55 162.35 419.45 168.5 424.2 174.7 424.5 182.5 424.6 186.2 423.8 189.95 M414.15 177.65 Q413.05 174.3 410.7 171.35 409.0 169.25 406.75 167.8 402.1 165.05 395.5 164.25 L389.2 164.65 388.9 165.05 388.8 167.4 Q388.7 199.8 389.3 202.0 389.85 204.15 395.4 204.85 400.65 205.15 405.05 203.75 407.85 202.85 409.8 201.1 412.65 198.75 413.95 195.8 414.75 193.1 415.35 187.8 415.55 181.3 414.15 177.65 M337.95 164.45 L337.95 184.35 Q338.25 184.75 341.2 185.05 L345.65 184.75 Q349.5 182.55 350.0 175.75 350.1 165.9 342.3 164.25 L337.95 164.45 M348.8 160.8 Q353.75 162.2 355.75 164.75 357.7 167.2 358.2 171.05 358.3 176.25 355.95 180.0 L353.25 183.45 350.2 186.1 359.85 198.35 Q363.7 202.95 365.2 204.15 L366.3 204.85 Q368.35 206.3 372.0 206.5 372.9 207.2 372.2 208.5 L370.95 208.7 Q366.1 208.8 361.55 208.5 358.8 208.1 356.4 206.05 354.05 204.05 351.3 200.1 L344.2 189.75 343.3 189.1 337.95 189.1 Q337.65 201.1 338.55 204.95 L339.25 206.05 344.1 206.6 Q344.6 208.4 343.4 208.6 333.05 208.4 325.35 208.6 L324.55 208.0 Q324.35 206.8 325.05 206.6 L328.1 206.2 Q328.9 206.15 329.3 204.25 329.9 198.45 329.7 196.65 L329.7 166.2 Q329.6 163.75 328.9 163.25 327.7 162.35 327.2 162.45 L324.35 162.35 Q323.45 162.0 323.55 161.1 324.15 160.1 324.95 160.2 L343.9 160.2 348.8 160.8 M299.4 162.2 L314.2 200.4 Q315.55 203.45 316.35 204.35 317.55 205.75 318.35 206.05 L321.8 206.4 322.4 206.9 Q322.4 208.4 321.1 208.4 L319.1 208.5 Q306.0 208.5 305.9 207.6 L305.9 206.8 Q306.7 206.2 307.2 206.2 L307.4 205.85 302.55 192.7 289.7 192.7 289.4 193.1 286.05 202.5 285.55 204.45 Q285.45 205.85 285.95 206.05 L286.55 206.3 289.5 206.6 Q289.8 207.9 288.85 208.4 282.9 208.2 274.15 208.4 L273.55 207.7 273.65 206.6 274.6 206.3 Q276.7 206.5 278.45 205.45 279.75 204.35 281.25 200.4 L295.95 162.1 Q296.35 161.1 297.1 160.6 298.6 160.2 299.4 162.2 M258.55 160.3 L259.25 161.7 264.75 201.2 Q265.45 204.95 266.75 205.75 L269.0 206.4 271.65 206.5 272.25 207.1 Q272.25 208.3 271.05 208.6 255.85 208.6 255.85 207.3 L255.85 206.6 256.65 206.05 256.85 205.75 256.85 203.95 253.5 178.45 240.4 206.6 Q239.0 208.9 238.3 208.6 237.7 208.8 235.25 203.95 L223.5 179.05 220.45 203.45 Q220.15 205.45 221.05 205.95 L225.1 206.5 Q225.8 207.3 225.5 208.1 L224.7 208.6 Q216.9 208.4 210.7 208.6 L210.0 207.9 Q209.9 206.9 210.5 206.6 L213.35 206.3 Q214.65 205.65 215.2 201.7 L221.05 161.6 Q221.65 160.1 222.15 160.1 223.2 159.9 223.7 160.6 224.0 160.7 227.75 169.05 L240.3 196.25 256.35 160.8 Q257.25 159.9 258.55 160.3 M291.1 188.7 L290.9 188.7 291.0 188.9 291.1 188.7 301.25 188.7 296.25 174.4 296.35 174.0 296.05 173.9 296.25 174.4 291.1 188.7" fill="url(#gradient3)" fill-rule="evenodd" stroke="none"/>
  </g>
  <defs>
    <linearGradient gradientTransform="matrix(0.0, -0.1041, 0.1806, 0.0, 358.95, 188.95)" gradientUnits="userSpaceOnUse" id="gradient0" spreadMethod="pad" x1="-819.2" x2="819.2">
      <stop offset="0.0" stop-color="#663300" stop-opacity="0.0"/>
      <stop offset="0.35294117647058826" stop-color="#ddd0c4" stop-opacity="0.08235294"/>
      <stop offset="1.0" stop-color="#fedcab" stop-opacity="0.101960786"/>
    </linearGradient>
    <linearGradient gradientTransform="matrix(0.0, 0.0309, -0.0296, 0.0, 241.25, 184.45)" gradientUnits="userSpaceOnUse" id="gradient1" spreadMethod="pad" x1="-819.2" x2="819.2">
      <stop offset="0.0" stop-color="#663300"/>
      <stop offset="0.4666666666666667" stop-color="#ba5e45"/>
      <stop offset="0.596078431372549" stop-color="#e9c2ba"/>
      <stop offset="0.6862745098039216" stop-color="#984d29"/>
      <stop offset="1.0" stop-color="#663300"/>
    </linearGradient>
    <linearGradient gradientTransform="matrix(0.0, 0.0309, -0.0296, 0.0, 241.25, 184.45)" gradientUnits="userSpaceOnUse" id="gradient2" spreadMethod="pad" x1="-819.2" x2="819.2">
      <stop offset="0.0" stop-color="#663300"/>
      <stop offset="0.4666666666666667" stop-color="#ba5e45"/>
      <stop offset="0.596078431372549" stop-color="#e9c2ba"/>
      <stop offset="0.6862745098039216" stop-color="#984d29"/>
      <stop offset="1.0" stop-color="#663300"/>
    </linearGradient>
    <linearGradient gradientTransform="matrix(0.0, 0.0309, -0.0296, 0.0, 241.15, 184.45)" gradientUnits="userSpaceOnUse" id="gradient3" spreadMethod="pad" x1="-819.2" x2="819.2">
      <stop offset="0.0" stop-color="#663300"/>
      <stop offset="0.4666666666666667" stop-color="#ba5e45"/>
      <stop offset="0.596078431372549" stop-color="#e9c2ba"/>
      <stop offset="0.6862745098039216" stop-color="#984d29"/>
      <stop offset="1.0" stop-color="#663300"/>
    </linearGradient>
  </defs>
</svg>
