<?xml version="1.0" encoding="UTF-8" standalone="no"?>
<svg xmlns:xlink="http://www.w3.org/1999/xlink" height="53.9px" width="27.0px" xmlns="http://www.w3.org/2000/svg">
  <g transform="matrix(1.0, 0.0, 0.0, 1.0, -346.5, -261.3)">
    <path d="M353.2 266.15 L352.1 265.95 351.0 265.9 350.25 265.8 350.0 265.25 Q350.0 265.0 350.35 264.9 L351.45 264.8 354.2 264.85 357.15 264.9 359.5 264.95 361.65 264.9 364.45 264.85 367.1 264.8 368.05 264.9 368.4 265.25 368.15 265.8 367.4 265.9 366.55 265.95 365.55 266.1 Q364.3 266.3 363.85 267.15 363.3 268.0 363.25 269.6 L363.2 271.8 363.15 275.65 363.15 282.75 363.15 293.7 363.2 301.8 Q363.2 305.25 363.35 307.3 363.5 308.55 364.0 309.3 364.5 310.15 365.85 310.35 L367.45 310.55 369.0 310.55 369.8 310.7 370.0 311.05 369.7 311.55 368.85 311.7 363.1 311.6 359.2 311.5 357.05 311.55 354.2 311.65 351.35 311.7 350.45 311.55 Q350.15 311.4 350.15 311.05 L350.3 310.7 351.1 310.55 352.35 310.55 353.3 310.35 Q354.2 310.15 354.6 309.35 L355.15 307.25 355.45 301.8 355.45 293.7 355.45 282.75 355.45 275.65 355.45 271.8 355.3 269.6 Q355.2 268.05 354.75 267.2 354.2 266.35 353.2 266.15" fill="#f2b771" fill-rule="evenodd" stroke="none"/>
    <path d="M353.2 266.15 Q354.2 266.35 354.75 267.2 355.2 268.05 355.3 269.6 L355.45 271.8 355.45 275.65 355.45 282.75 355.45 293.7 355.45 301.8 355.15 307.25 354.6 309.35 Q354.2 310.15 353.3 310.35 L352.35 310.55 351.1 310.55 350.3 310.7 350.15 311.05 Q350.15 311.4 350.45 311.55 L351.35 311.7 354.2 311.65 357.05 311.55 359.2 311.5 363.1 311.6 368.85 311.7 369.7 311.55 370.0 311.05 369.8 310.7 369.0 310.55 367.45 310.55 365.85 310.35 Q364.5 310.15 364.0 309.3 363.5 308.55 363.35 307.3 363.2 305.25 363.2 301.8 L363.15 293.7 363.15 282.75 363.15 275.65 363.2 271.8 363.25 269.6 Q363.3 268.0 363.85 267.15 364.3 266.3 365.55 266.1 L366.55 265.95 367.4 265.9 368.15 265.8 368.4 265.25 368.05 264.9 367.1 264.8 364.45 264.85 361.65 264.9 359.5 264.95 357.15 264.9 354.2 264.85 351.45 264.8 350.35 264.9 Q350.0 265.0 350.0 265.25 L350.25 265.8 351.0 265.9 352.1 265.95 353.2 266.15 Z" fill="none" stroke="#443322" stroke-linecap="round" stroke-linejoin="round" stroke-width="7.0"/>
    <path d="M355.45 280.85 L355.45 275.65 355.45 271.8 355.3 269.6 Q355.2 268.05 354.75 267.2 354.2 266.35 353.2 266.15 L352.1 265.95 351.0 265.9 350.25 265.8 350.0 265.25 Q350.0 265.0 350.35 264.9 L351.45 264.8 354.2 264.85 357.15 264.9 359.5 264.95 361.65 264.9 364.45 264.85 367.1 264.8 368.05 264.9 368.4 265.25 368.15 265.8 367.4 265.9 366.55 265.95 365.55 266.1 Q364.3 266.3 363.85 267.15 363.3 268.0 363.25 269.6 L363.2 271.8 363.15 275.65 363.15 280.85 355.45 280.85" fill="#f2b771" fill-rule="evenodd" stroke="none"/>
    <path d="M363.15 297.75 L363.2 301.8 Q363.2 305.25 363.35 307.3 363.5 308.55 364.0 309.3 364.5 310.15 365.85 310.35 L367.45 310.55 369.0 310.55 369.8 310.7 370.0 311.05 369.7 311.55 368.85 311.7 363.1 311.6 359.2 311.5 357.05 311.55 354.2 311.65 351.35 311.7 350.45 311.55 Q350.15 311.4 350.15 311.05 L350.3 310.7 351.1 310.55 352.35 310.55 353.3 310.35 Q354.2 310.15 354.6 309.35 L355.15 307.25 355.45 301.8 355.45 297.75 363.15 297.75" fill="#b9833c" fill-rule="evenodd" stroke="none"/>
    <path d="M355.45 280.85 L363.15 280.85 363.15 282.75 363.15 293.7 363.15 297.75 355.45 297.75 355.45 293.7 355.45 282.75 355.45 280.85" fill="#d1933c" fill-rule="evenodd" stroke="none"/>
  </g>
</svg>
