<?xml version="1.0" encoding="UTF-8" standalone="no"?>
<svg xmlns:xlink="http://www.w3.org/1999/xlink" height="53.9px" width="50.0px" xmlns="http://www.w3.org/2000/svg">
  <g transform="matrix(1.0, 0.0, 0.0, 1.0, -336.5, -261.3)">
    <path d="M364.0 265.9 L363.25 265.8 363.0 265.25 Q363.0 265.0 363.35 264.9 L364.45 264.8 367.2 264.85 370.15 264.9 372.55 264.95 374.65 264.9 377.45 264.85 380.15 264.8 381.1 264.9 381.45 265.25 381.15 265.8 380.45 265.9 379.55 265.95 378.6 266.1 Q377.35 266.3 376.85 267.15 376.35 268.0 376.3 269.6 L376.2 271.8 376.15 275.65 376.15 282.75 376.15 293.7 376.2 301.8 376.4 307.3 Q376.5 308.55 377.05 309.3 377.5 310.15 378.9 310.35 L380.5 310.55 382.05 310.55 382.8 310.7 383.0 311.05 382.7 311.55 381.85 311.7 376.1 311.6 372.2 311.5 370.1 311.55 367.2 311.65 364.35 311.7 363.45 311.55 Q363.15 311.4 363.15 311.05 363.15 310.85 363.3 310.7 L364.1 310.55 365.35 310.55 366.3 310.35 Q367.25 310.15 367.6 309.35 L368.15 307.25 368.45 301.8 368.45 293.7 368.45 282.75 368.45 275.65 368.45 271.8 368.3 269.6 Q368.2 268.05 367.75 267.2 367.25 266.35 366.2 266.15 L365.1 265.95 364.0 265.9" fill="#f2b771" fill-rule="evenodd" stroke="none"/>
    <path d="M364.0 265.9 L365.1 265.95 366.2 266.15 Q367.25 266.35 367.75 267.2 368.2 268.05 368.3 269.6 L368.45 271.8 368.45 275.65 368.45 282.75 368.45 293.7 368.45 301.8 368.15 307.25 367.6 309.35 Q367.25 310.15 366.3 310.35 L365.35 310.55 364.1 310.55 363.3 310.7 Q363.15 310.85 363.15 311.05 363.15 311.4 363.45 311.55 L364.35 311.7 367.2 311.65 370.1 311.55 372.2 311.5 376.1 311.6 381.85 311.7 382.7 311.55 383.0 311.05 382.8 310.7 382.05 310.55 380.5 310.55 378.9 310.35 Q377.5 310.15 377.05 309.3 376.5 308.55 376.4 307.3 L376.2 301.8 376.15 293.7 376.15 282.75 376.15 275.65 376.2 271.8 376.3 269.6 Q376.35 268.0 376.85 267.15 377.35 266.3 378.6 266.1 L379.55 265.95 380.45 265.9 381.15 265.8 381.45 265.25 381.1 264.9 380.15 264.8 377.45 264.85 374.65 264.9 372.55 264.95 370.15 264.9 367.2 264.85 364.45 264.8 363.35 264.9 Q363.0 265.0 363.0 265.25 L363.25 265.8 364.0 265.9 Z" fill="none" stroke="#443322" stroke-linecap="round" stroke-linejoin="round" stroke-width="7.0"/>
    <path d="M368.45 280.85 L368.45 275.65 368.45 271.8 368.3 269.6 Q368.2 268.05 367.75 267.2 367.25 266.35 366.2 266.15 L365.1 265.95 364.0 265.9 363.25 265.8 363.0 265.25 Q363.0 265.0 363.35 264.9 L364.45 264.8 367.2 264.85 370.15 264.9 372.55 264.95 374.65 264.9 377.45 264.85 380.15 264.8 381.1 264.9 381.45 265.25 381.15 265.8 380.45 265.9 379.55 265.95 378.6 266.1 Q377.35 266.3 376.85 267.15 376.35 268.0 376.3 269.6 L376.2 271.8 376.15 275.65 376.15 280.85 368.45 280.85" fill="#f2b771" fill-rule="evenodd" stroke="none"/>
    <path d="M376.15 297.75 L376.2 301.8 376.4 307.3 Q376.5 308.55 377.05 309.3 377.5 310.15 378.9 310.35 L380.5 310.55 382.05 310.55 382.8 310.7 383.0 311.05 382.7 311.55 381.85 311.7 376.1 311.6 372.2 311.5 370.1 311.55 367.2 311.65 364.35 311.7 363.45 311.55 Q363.15 311.4 363.15 311.05 363.15 310.85 363.3 310.7 L364.1 310.55 365.35 310.55 366.3 310.35 Q367.25 310.15 367.6 309.35 L368.15 307.25 368.45 301.8 368.45 297.75 376.15 297.75" fill="#b9833c" fill-rule="evenodd" stroke="none"/>
    <path d="M368.45 280.85 L376.15 280.85 376.15 282.75 376.15 293.7 376.15 297.75 368.45 297.75 368.45 293.7 368.45 282.75 368.45 280.85" fill="#d1933c" fill-rule="evenodd" stroke="none"/>
    <path d="M349.55 264.95 L351.65 264.9 354.45 264.85 357.15 264.8 358.1 264.9 358.45 265.25 358.15 265.8 357.45 265.9 356.55 265.95 355.6 266.1 Q354.35 266.3 353.85 267.15 353.35 268.0 353.3 269.6 L353.2 271.8 353.15 275.65 353.15 282.75 353.15 293.7 353.2 301.8 353.4 307.3 Q353.5 308.55 354.05 309.3 354.5 310.15 355.9 310.35 L357.5 310.55 359.05 310.55 359.8 310.7 360.0 311.05 359.7 311.55 358.85 311.7 353.1 311.6 349.2 311.5 347.1 311.55 344.2 311.65 341.35 311.7 340.45 311.55 Q340.15 311.4 340.15 311.05 340.15 310.85 340.3 310.7 L341.1 310.55 342.35 310.55 343.3 310.35 Q344.25 310.15 344.6 309.35 L345.15 307.25 345.45 301.8 345.45 293.7 345.45 282.75 345.45 275.65 345.45 271.8 345.3 269.6 Q345.2 268.05 344.75 267.2 344.25 266.35 343.2 266.15 L342.1 265.95 341.0 265.9 340.25 265.8 340.0 265.25 Q340.0 265.0 340.35 264.9 L341.45 264.8 344.2 264.85 347.15 264.9 349.55 264.95" fill="#f2b771" fill-rule="evenodd" stroke="none"/>
    <path d="M349.55 264.95 L347.15 264.9 344.2 264.85 341.45 264.8 340.35 264.9 Q340.0 265.0 340.0 265.25 L340.25 265.8 341.0 265.9 342.1 265.95 343.2 266.15 Q344.25 266.35 344.75 267.2 345.2 268.05 345.3 269.6 L345.45 271.8 345.45 275.65 345.45 282.75 345.45 293.7 345.45 301.8 345.15 307.25 344.6 309.35 Q344.25 310.15 343.3 310.35 L342.35 310.55 341.1 310.55 340.3 310.7 Q340.15 310.85 340.15 311.05 340.15 311.4 340.45 311.55 L341.35 311.7 344.2 311.65 347.1 311.55 349.2 311.5 353.1 311.6 358.85 311.7 359.7 311.55 360.0 311.05 359.8 310.7 359.05 310.55 357.5 310.55 355.9 310.35 Q354.5 310.15 354.05 309.3 353.5 308.55 353.4 307.3 L353.2 301.8 353.15 293.7 353.15 282.75 353.15 275.65 353.2 271.8 353.3 269.6 Q353.35 268.0 353.85 267.15 354.35 266.3 355.6 266.1 L356.55 265.95 357.45 265.9 358.15 265.8 358.45 265.25 358.1 264.9 357.15 264.8 354.45 264.85 351.65 264.9 349.55 264.95 Z" fill="none" stroke="#443322" stroke-linecap="round" stroke-linejoin="round" stroke-width="7.0"/>
    <path d="M345.45 280.85 L345.45 275.65 345.45 271.8 345.3 269.6 Q345.2 268.05 344.75 267.2 344.25 266.35 343.2 266.15 L342.1 265.95 341.0 265.9 340.25 265.8 340.0 265.25 Q340.0 265.0 340.35 264.9 L341.45 264.8 344.2 264.85 347.15 264.9 349.55 264.95 351.65 264.9 354.45 264.85 357.15 264.8 358.1 264.9 358.45 265.25 358.15 265.8 357.45 265.9 356.55 265.95 355.6 266.1 Q354.35 266.3 353.85 267.15 353.35 268.0 353.3 269.6 L353.2 271.8 353.15 275.65 353.15 280.85 345.45 280.85" fill="#f2b771" fill-rule="evenodd" stroke="none"/>
    <path d="M353.15 297.75 L353.2 301.8 353.4 307.3 Q353.5 308.55 354.05 309.3 354.5 310.15 355.9 310.35 L357.5 310.55 359.05 310.55 359.8 310.7 360.0 311.05 359.7 311.55 358.85 311.7 353.1 311.6 349.2 311.5 347.1 311.55 344.2 311.65 341.35 311.7 340.45 311.55 Q340.15 311.4 340.15 311.05 340.15 310.85 340.3 310.7 L341.1 310.55 342.35 310.55 343.3 310.35 Q344.25 310.15 344.6 309.35 L345.15 307.25 345.45 301.8 345.45 297.75 353.15 297.75" fill="#b9833c" fill-rule="evenodd" stroke="none"/>
    <path d="M345.45 280.85 L353.15 280.85 353.15 282.75 353.15 293.7 353.15 297.75 345.45 297.75 345.45 293.7 345.45 282.75 345.45 280.85" fill="#d1933c" fill-rule="evenodd" stroke="none"/>
  </g>
</svg>
