<?xml version="1.0" encoding="UTF-8" standalone="no"?>
<svg xmlns:xlink="http://www.w3.org/1999/xlink" height="53.9px" width="73.0px" xmlns="http://www.w3.org/2000/svg">
  <g transform="matrix(1.0, 0.0, 0.0, 1.0, -323.5, -261.3)">
    <path d="M353.2 266.15 L352.1 265.95 351.0 265.9 350.25 265.8 350.0 265.25 Q350.0 265.0 350.35 264.9 L351.45 264.8 354.2 264.85 357.15 264.9 359.5 264.95 361.65 264.9 364.45 264.85 367.1 264.8 368.05 264.9 368.4 265.25 368.15 265.8 367.4 265.9 366.55 265.95 365.55 266.1 Q364.3 266.3 363.85 267.15 363.3 268.0 363.25 269.6 L363.2 271.8 363.15 275.65 363.15 282.75 363.15 293.7 363.2 301.8 Q363.2 305.25 363.35 307.3 363.5 308.55 364.0 309.3 364.5 310.15 365.85 310.35 L367.45 310.55 369.0 310.55 369.8 310.7 370.0 311.05 369.7 311.55 368.85 311.7 363.1 311.6 359.2 311.5 357.05 311.55 354.2 311.65 351.35 311.7 350.45 311.55 Q350.15 311.4 350.15 311.05 L350.3 310.7 351.1 310.55 352.35 310.55 353.3 310.35 Q354.2 310.15 354.6 309.35 L355.15 307.25 355.45 301.8 355.45 293.7 355.45 282.75 355.45 275.65 355.45 271.8 355.3 269.6 Q355.2 268.05 354.75 267.2 354.2 266.35 353.2 266.15" fill="#f2b771" fill-rule="evenodd" stroke="none"/>
    <path d="M353.2 266.15 Q354.2 266.35 354.75 267.2 355.2 268.05 355.3 269.6 L355.45 271.8 355.45 275.65 355.45 282.75 355.45 293.7 355.45 301.8 355.15 307.25 354.6 309.35 Q354.2 310.15 353.3 310.35 L352.35 310.55 351.1 310.55 350.3 310.7 350.15 311.05 Q350.15 311.4 350.45 311.55 L351.35 311.7 354.2 311.65 357.05 311.55 359.2 311.5 363.1 311.6 368.85 311.7 369.7 311.55 370.0 311.05 369.8 310.7 369.0 310.55 367.45 310.55 365.85 310.35 Q364.5 310.15 364.0 309.3 363.5 308.55 363.35 307.3 363.2 305.25 363.2 301.8 L363.15 293.7 363.15 282.75 363.15 275.65 363.2 271.8 363.25 269.6 Q363.3 268.0 363.85 267.15 364.3 266.3 365.55 266.1 L366.55 265.95 367.4 265.9 368.15 265.8 368.4 265.25 368.05 264.9 367.1 264.8 364.45 264.85 361.65 264.9 359.5 264.95 357.15 264.9 354.2 264.85 351.45 264.8 350.35 264.9 Q350.0 265.0 350.0 265.25 L350.25 265.8 351.0 265.9 352.1 265.95 353.2 266.15 Z" fill="none" stroke="#443322" stroke-linecap="round" stroke-linejoin="round" stroke-width="7.0"/>
    <path d="M355.45 280.85 L355.45 275.65 355.45 271.8 355.3 269.6 Q355.2 268.05 354.75 267.2 354.2 266.35 353.2 266.15 L352.1 265.95 351.0 265.9 350.25 265.8 350.0 265.25 Q350.0 265.0 350.35 264.9 L351.45 264.8 354.2 264.85 357.15 264.9 359.5 264.95 361.65 264.9 364.45 264.85 367.1 264.8 368.05 264.9 368.4 265.25 368.15 265.8 367.4 265.9 366.55 265.95 365.55 266.1 Q364.3 266.3 363.85 267.15 363.3 268.0 363.25 269.6 L363.2 271.8 363.15 275.65 363.15 280.85 355.45 280.85" fill="#f2b771" fill-rule="evenodd" stroke="none"/>
    <path d="M363.15 297.75 L363.2 301.8 Q363.2 305.25 363.35 307.3 363.5 308.55 364.0 309.3 364.5 310.15 365.85 310.35 L367.45 310.55 369.0 310.55 369.8 310.7 370.0 311.05 369.7 311.55 368.85 311.7 363.1 311.6 359.2 311.5 357.05 311.55 354.2 311.65 351.35 311.7 350.45 311.55 Q350.15 311.4 350.15 311.05 L350.3 310.7 351.1 310.55 352.35 310.55 353.3 310.35 Q354.2 310.15 354.6 309.35 L355.15 307.25 355.45 301.8 355.45 297.75 363.15 297.75" fill="#b9833c" fill-rule="evenodd" stroke="none"/>
    <path d="M355.45 280.85 L363.15 280.85 363.15 282.75 363.15 293.7 363.15 297.75 355.45 297.75 355.45 293.7 355.45 282.75 355.45 280.85" fill="#d1933c" fill-rule="evenodd" stroke="none"/>
    <path d="M330.2 266.15 L329.1 265.95 328.0 265.9 327.25 265.8 327.0 265.25 Q327.0 265.0 327.35 264.9 L328.45 264.8 331.2 264.85 334.15 264.9 336.5 264.95 338.65 264.9 341.45 264.85 344.1 264.8 345.05 264.9 345.4 265.25 345.15 265.8 344.4 265.9 343.55 265.95 342.55 266.1 Q341.3 266.3 340.85 267.15 340.3 268.0 340.25 269.6 L340.2 271.8 340.15 275.65 340.15 282.75 340.15 293.7 340.2 301.8 Q340.2 305.25 340.35 307.3 340.5 308.55 341.0 309.3 341.5 310.15 342.85 310.35 L344.45 310.55 346.0 310.55 346.8 310.7 347.0 311.05 346.7 311.55 345.85 311.7 340.1 311.6 336.2 311.5 334.05 311.55 331.2 311.65 328.35 311.7 327.45 311.55 Q327.15 311.4 327.15 311.05 L327.3 310.7 328.1 310.55 329.35 310.55 330.3 310.35 Q331.2 310.15 331.6 309.35 L332.15 307.25 332.45 301.8 332.45 293.7 332.45 282.75 332.45 275.65 332.45 271.8 332.3 269.6 Q332.2 268.05 331.75 267.2 331.2 266.35 330.2 266.15" fill="#f2b771" fill-rule="evenodd" stroke="none"/>
    <path d="M330.2 266.15 Q331.2 266.35 331.75 267.2 332.2 268.05 332.3 269.6 L332.45 271.8 332.45 275.65 332.45 282.75 332.45 293.7 332.45 301.8 332.15 307.25 331.6 309.35 Q331.2 310.15 330.3 310.35 L329.35 310.55 328.1 310.55 327.3 310.7 327.15 311.05 Q327.15 311.4 327.45 311.55 L328.35 311.7 331.2 311.65 334.05 311.55 336.2 311.5 340.1 311.6 345.85 311.7 346.7 311.55 347.0 311.05 346.8 310.7 346.0 310.55 344.45 310.55 342.85 310.35 Q341.5 310.15 341.0 309.3 340.5 308.55 340.35 307.3 340.2 305.25 340.2 301.8 L340.15 293.7 340.15 282.75 340.15 275.65 340.2 271.8 340.25 269.6 Q340.3 268.0 340.85 267.15 341.3 266.3 342.55 266.1 L343.55 265.95 344.4 265.9 345.15 265.8 345.4 265.25 345.05 264.9 344.1 264.8 341.45 264.85 338.65 264.9 336.5 264.95 334.15 264.9 331.2 264.85 328.45 264.8 327.35 264.9 Q327.0 265.0 327.0 265.25 L327.25 265.8 328.0 265.9 329.1 265.95 330.2 266.15 Z" fill="none" stroke="#443322" stroke-linecap="round" stroke-linejoin="round" stroke-width="7.0"/>
    <path d="M332.45 280.85 L332.45 275.65 332.45 271.8 332.3 269.6 Q332.2 268.05 331.75 267.2 331.2 266.35 330.2 266.15 L329.1 265.95 328.0 265.9 327.25 265.8 327.0 265.25 Q327.0 265.0 327.35 264.9 L328.45 264.8 331.2 264.85 334.15 264.9 336.5 264.95 338.65 264.9 341.45 264.85 344.1 264.8 345.05 264.9 345.4 265.25 345.15 265.8 344.4 265.9 343.55 265.95 342.55 266.1 Q341.3 266.3 340.85 267.15 340.3 268.0 340.25 269.6 L340.2 271.8 340.15 275.65 340.15 280.85 332.45 280.85" fill="#f2b771" fill-rule="evenodd" stroke="none"/>
    <path d="M340.15 297.75 L340.2 301.8 Q340.2 305.25 340.35 307.3 340.5 308.55 341.0 309.3 341.5 310.15 342.85 310.35 L344.45 310.55 346.0 310.55 346.8 310.7 347.0 311.05 346.7 311.55 345.85 311.7 340.1 311.6 336.2 311.5 334.05 311.55 331.2 311.65 328.35 311.7 327.45 311.55 Q327.15 311.4 327.15 311.05 L327.3 310.7 328.1 310.55 329.35 310.55 330.3 310.35 Q331.2 310.15 331.6 309.35 L332.15 307.25 332.45 301.8 332.45 297.75 340.15 297.75" fill="#b9833c" fill-rule="evenodd" stroke="none"/>
    <path d="M332.45 280.85 L340.15 280.85 340.15 282.75 340.15 293.7 340.15 297.75 332.45 297.75 332.45 293.7 332.45 282.75 332.45 280.85" fill="#d1933c" fill-rule="evenodd" stroke="none"/>
    <path d="M376.2 266.15 L375.1 265.95 374.0 265.9 373.25 265.8 373.0 265.25 Q373.0 265.0 373.35 264.9 L374.45 264.8 377.2 264.85 380.15 264.9 382.5 264.95 384.65 264.9 387.45 264.85 390.1 264.8 391.05 264.9 391.4 265.25 391.15 265.8 390.4 265.9 389.55 265.95 388.55 266.1 Q387.3 266.3 386.85 267.15 386.3 268.0 386.25 269.6 L386.2 271.8 386.15 275.65 386.15 282.75 386.15 293.7 386.2 301.8 Q386.2 305.25 386.35 307.3 386.5 308.55 387.0 309.3 387.5 310.15 388.85 310.35 L390.45 310.55 392.0 310.55 392.8 310.7 393.0 311.05 392.7 311.55 391.85 311.7 386.1 311.6 382.2 311.5 380.05 311.55 377.2 311.65 374.35 311.7 373.45 311.55 Q373.15 311.4 373.15 311.05 L373.3 310.7 374.1 310.55 375.35 310.55 376.3 310.35 Q377.2 310.15 377.6 309.35 L378.15 307.25 378.45 301.8 378.45 293.7 378.45 282.75 378.45 275.65 378.45 271.8 378.3 269.6 Q378.2 268.05 377.75 267.2 377.2 266.35 376.2 266.15" fill="#f2b771" fill-rule="evenodd" stroke="none"/>
    <path d="M376.2 266.15 Q377.2 266.35 377.75 267.2 378.2 268.05 378.3 269.6 L378.45 271.8 378.45 275.65 378.45 282.75 378.45 293.7 378.45 301.8 378.15 307.25 377.6 309.35 Q377.2 310.15 376.3 310.35 L375.35 310.55 374.1 310.55 373.3 310.7 373.15 311.05 Q373.15 311.4 373.45 311.55 L374.35 311.7 377.2 311.65 380.05 311.55 382.2 311.5 386.1 311.6 391.85 311.7 392.7 311.55 393.0 311.05 392.8 310.7 392.0 310.55 390.45 310.55 388.85 310.35 Q387.5 310.15 387.0 309.3 386.5 308.55 386.35 307.3 386.2 305.25 386.2 301.8 L386.15 293.7 386.15 282.75 386.15 275.65 386.2 271.8 386.25 269.6 Q386.3 268.0 386.85 267.15 387.3 266.3 388.55 266.1 L389.55 265.95 390.4 265.9 391.15 265.8 391.4 265.25 391.05 264.9 390.1 264.8 387.45 264.85 384.65 264.9 382.5 264.95 380.15 264.9 377.2 264.85 374.45 264.8 373.35 264.9 Q373.0 265.0 373.0 265.25 L373.25 265.8 374.0 265.9 375.1 265.95 376.2 266.15 Z" fill="none" stroke="#443322" stroke-linecap="round" stroke-linejoin="round" stroke-width="7.0"/>
    <path d="M378.45 280.85 L378.45 275.65 378.45 271.8 378.3 269.6 Q378.2 268.05 377.75 267.2 377.2 266.35 376.2 266.15 L375.1 265.95 374.0 265.9 373.25 265.8 373.0 265.25 Q373.0 265.0 373.35 264.9 L374.45 264.8 377.2 264.85 380.15 264.9 382.5 264.95 384.65 264.9 387.45 264.85 390.1 264.8 391.05 264.9 391.4 265.25 391.15 265.8 390.4 265.9 389.55 265.95 388.55 266.1 Q387.3 266.3 386.85 267.15 386.3 268.0 386.25 269.6 L386.2 271.8 386.15 275.65 386.15 280.85 378.45 280.85" fill="#f2b771" fill-rule="evenodd" stroke="none"/>
    <path d="M386.15 297.75 L386.2 301.8 Q386.2 305.25 386.35 307.3 386.5 308.55 387.0 309.3 387.5 310.15 388.85 310.35 L390.45 310.55 392.0 310.55 392.8 310.7 393.0 311.05 392.7 311.55 391.85 311.7 386.1 311.6 382.2 311.5 380.05 311.55 377.2 311.65 374.35 311.7 373.45 311.55 Q373.15 311.4 373.15 311.05 L373.3 310.7 374.1 310.55 375.35 310.55 376.3 310.35 Q377.2 310.15 377.6 309.35 L378.15 307.25 378.45 301.8 378.45 297.75 386.15 297.75" fill="#b9833c" fill-rule="evenodd" stroke="none"/>
    <path d="M378.45 280.85 L386.15 280.85 386.15 282.75 386.15 293.7 386.15 297.75 378.45 297.75 378.45 293.7 378.45 282.75 378.45 280.85" fill="#d1933c" fill-rule="evenodd" stroke="none"/>
  </g>
</svg>
