<?xml version="1.0" encoding="UTF-8" standalone="no"?>
<svg xmlns:xlink="http://www.w3.org/1999/xlink" height="444.95px" width="573.0px" xmlns="http://www.w3.org/2000/svg">
  <g transform="matrix(1.0, 0.0, 0.0, 1.0, -184.0, -151.0)">
    <path d="M757.0 595.95 L184.0 595.95 184.0 151.0 757.0 151.0 757.0 595.95 M634.0 381.0 L634.0 199.0 294.0 199.0 294.0 381.0 634.0 381.0" fill="#180e0a" fill-rule="evenodd" stroke="none"/>
    <path d="M614.0 272.0 Q614.1 273.0 613.5 273.45 L612.05 273.65 602.8 273.55 Q599.9 273.35 597.85 271.9 595.35 270.45 590.95 265.1 580.75 253.4 578.6 250.35 L578.7 266.95 Q578.7 268.6 579.1 269.75 L579.7 270.85 581.05 271.25 583.55 271.35 Q584.9 271.55 584.75 272.8 584.15 273.65 583.1 273.65 L565.7 273.55 565.0 272.9 Q564.8 271.7 565.5 271.55 L568.5 271.15 Q569.3 271.05 569.7 269.2 570.3 263.35 570.1 261.6 L570.1 231.15 Q570.0 228.7 569.3 228.15 568.1 227.25 567.65 227.35 L564.8 227.25 Q563.85 226.9 563.95 226.0 564.6 225.05 565.4 225.1 574.95 225.4 582.25 225.1 583.75 225.4 583.55 226.2 L583.1 227.2 Q580.75 227.25 579.8 227.75 579.3 228.15 579.0 228.9 578.4 232.3 578.6 245.6 L591.15 232.0 593.6 228.3 593.5 227.55 593.4 227.35 592.4 227.1 Q591.9 226.6 592.0 225.5 L592.9 225.1 Q599.6 225.4 607.3 225.1 608.5 225.4 608.5 226.1 L608.1 227.2 Q604.75 227.35 602.7 228.4 600.0 229.85 597.45 232.0 L584.35 245.7 Q588.45 250.75 598.45 261.6 L603.7 266.95 607.0 269.45 Q609.4 270.75 610.6 271.05 614.0 271.55 614.0 272.0 M479.7 225.3 L501.6 225.3 509.1 225.9 Q518.65 227.35 523.6 233.5 528.35 239.7 528.65 247.45 528.75 251.25 527.95 255.0 523.4 273.35 501.4 273.9 L480.0 273.2 479.2 272.6 Q479.1 271.55 479.8 271.25 L482.75 270.85 Q483.55 270.85 483.95 268.9 484.55 263.15 484.35 261.4 L484.35 231.25 Q484.25 228.9 483.55 228.3 482.35 227.35 481.85 227.45 L479.1 227.35 Q478.2 227.1 478.3 226.1 478.9 225.1 479.7 225.3 M457.4 248.5 L454.3 251.15 464.0 263.35 Q467.85 268.0 469.35 269.2 L470.45 269.85 Q472.5 271.35 476.15 271.55 477.05 272.2 476.35 273.55 L475.05 273.75 465.7 273.55 Q462.9 273.1 460.55 271.05 458.2 269.1 455.4 265.1 L448.3 254.8 Q447.9 254.2 447.4 254.1 L442.05 254.1 Q441.8 266.1 442.65 269.95 L443.35 271.05 448.2 271.6 Q448.7 273.45 447.5 273.65 437.15 273.45 429.45 273.65 L428.65 273.0 Q428.45 271.8 429.15 271.6 L432.25 271.25 Q433.0 271.15 433.4 269.3 434.0 263.45 433.8 261.7 L433.8 231.25 Q433.7 228.8 433.0 228.3 431.85 227.35 431.35 227.45 L428.45 227.35 Q427.6 227.0 427.65 226.1 428.25 225.1 429.05 225.2 L448.0 225.2 452.95 225.8 Q457.9 227.2 459.85 229.75 461.8 232.2 462.3 236.1 462.4 241.3 460.05 245.0 L457.4 248.5 M442.05 229.5 L442.05 249.4 445.35 250.05 449.75 249.75 Q453.65 247.6 454.1 240.75 454.2 230.95 446.45 229.3 L442.05 229.5 M514.85 236.35 Q513.15 234.25 510.9 232.8 506.2 230.05 499.6 229.3 L493.3 229.65 493.0 230.05 492.9 232.4 Q492.8 264.85 493.4 267.05 494.0 269.2 499.5 269.85 504.75 270.15 509.2 268.8 511.95 267.9 513.95 266.1 516.8 263.75 518.1 260.8 518.85 258.15 519.45 252.8 519.65 246.3 518.25 242.7 517.2 239.3 514.85 236.35 M557.55 235.0 Q557.45 232.2 556.95 231.55 L555.7 230.55 551.85 229.95 545.1 229.85 545.2 245.7 555.1 245.6 556.85 245.2 558.3 243.85 Q559.35 243.85 559.55 244.75 558.95 248.8 558.75 254.3 558.55 255.4 557.75 255.4 L556.65 255.1 Q556.55 252.1 556.1 251.45 555.2 250.35 554.6 250.35 L545.1 250.05 545.1 265.7 Q545.35 267.9 546.25 268.4 547.3 269.0 549.15 269.2 555.4 269.55 557.45 268.5 L558.65 267.5 559.45 265.9 559.85 263.75 Q560.45 262.7 561.7 263.25 L562.0 264.35 561.3 271.15 Q560.75 274.4 557.45 273.75 L532.0 273.45 531.2 272.8 Q531.1 271.6 531.7 271.45 L534.75 271.05 Q535.65 271.05 535.95 269.1 536.55 263.35 536.35 261.6 L536.35 231.45 Q536.25 229.1 535.65 228.5 534.4 227.55 533.9 227.65 L531.1 227.55 Q530.2 227.25 530.3 226.3 530.9 225.3 531.7 225.4 537.9 225.7 556.1 225.6 L559.25 225.05 Q560.25 224.95 560.55 225.7 L559.75 234.25 Q559.55 235.1 558.65 235.5 L557.55 235.0 M314.55 271.6 L317.45 271.35 Q318.7 270.65 319.3 266.7 L325.15 226.6 Q325.7 225.1 326.2 225.1 327.3 224.95 327.75 225.6 328.05 225.7 331.85 234.05 L344.35 261.3 360.45 225.8 Q361.3 224.95 362.65 225.3 L363.35 226.7 368.85 266.2 Q369.55 269.95 370.8 270.75 L373.05 271.45 375.75 271.55 376.35 272.1 Q376.35 273.35 375.2 273.65 359.95 273.65 359.95 272.3 L359.95 271.6 360.75 271.05 360.95 270.75 360.95 269.0 357.6 243.45 344.45 271.6 Q343.1 273.9 342.35 273.65 341.8 273.8 339.35 269.0 L327.6 244.05 324.55 268.5 Q324.25 270.45 325.15 270.95 L329.15 271.55 Q329.85 272.3 329.55 273.1 L328.75 273.65 Q320.95 273.45 314.75 273.65 L314.05 272.9 Q313.95 271.9 314.55 271.6 M401.25 225.6 Q402.7 225.2 403.5 227.2 L418.25 265.4 Q419.7 268.5 420.45 269.4 421.65 270.75 422.45 271.05 L425.9 271.45 426.5 271.9 Q426.5 273.45 425.25 273.45 L423.2 273.55 Q410.1 273.55 410.0 272.6 L410.0 271.8 Q410.8 271.25 411.25 271.25 L411.45 270.85 406.65 257.75 393.85 257.75 393.55 258.15 390.15 267.5 389.65 269.45 Q389.55 270.85 390.05 271.05 L390.65 271.35 393.65 271.6 Q393.95 272.9 392.9 273.45 387.05 273.2 378.2 273.45 L377.6 272.7 377.7 271.6 378.7 271.35 Q380.8 271.55 382.55 270.45 383.85 269.4 385.3 265.4 L400.05 227.1 Q400.45 226.1 401.25 225.6 M400.15 238.9 L400.35 239.4 395.2 253.7 395.0 253.7 395.1 253.85 395.2 253.7 405.35 253.7 400.35 239.4 400.45 239.0 400.15 238.9" fill="url(#gradient0)" fill-rule="evenodd" stroke="none"/>
    <path d="M614.0 272.0 Q614.1 273.0 613.5 273.45 L612.05 273.65 602.8 273.55 Q599.9 273.35 597.85 271.9 595.35 270.45 590.95 265.1 580.75 253.4 578.6 250.35 L578.7 266.95 Q578.7 268.6 579.1 269.75 L579.7 270.85 581.05 271.25 583.55 271.35 Q584.9 271.55 584.75 272.8 584.15 273.65 583.1 273.65 L565.7 273.55 565.0 272.9 Q564.8 271.7 565.5 271.55 L568.5 271.15 Q569.3 271.05 569.7 269.2 570.3 263.35 570.1 261.6 L570.1 231.15 Q570.0 228.7 569.3 228.15 568.1 227.25 567.65 227.35 L564.8 227.25 Q563.85 226.9 563.95 226.0 564.6 225.05 565.4 225.1 574.95 225.4 582.25 225.1 583.75 225.4 583.55 226.2 L583.1 227.2 Q580.75 227.25 579.8 227.75 579.3 228.15 579.0 228.9 578.4 232.3 578.6 245.6 L591.15 232.0 593.6 228.3 593.5 227.55 593.4 227.35 592.4 227.1 Q591.9 226.6 592.0 225.5 L592.9 225.1 Q599.6 225.4 607.3 225.1 608.5 225.4 608.5 226.1 L608.1 227.2 Q604.75 227.35 602.7 228.4 600.0 229.85 597.45 232.0 L584.35 245.7 Q588.45 250.75 598.45 261.6 L603.7 266.95 607.0 269.45 Q609.4 270.75 610.6 271.05 614.0 271.55 614.0 272.0 M479.7 225.3 L501.6 225.3 509.1 225.9 Q518.65 227.35 523.6 233.5 528.35 239.7 528.65 247.45 528.75 251.25 527.95 255.0 523.4 273.35 501.4 273.9 L480.0 273.2 479.2 272.6 Q479.1 271.55 479.8 271.25 L482.75 270.85 Q483.55 270.85 483.95 268.9 484.55 263.15 484.35 261.4 L484.35 231.25 Q484.25 228.9 483.55 228.3 482.35 227.35 481.85 227.45 L479.1 227.35 Q478.2 227.1 478.3 226.1 478.9 225.1 479.7 225.3 M457.4 248.5 L454.3 251.15 464.0 263.35 Q467.85 268.0 469.35 269.2 L470.45 269.85 Q472.5 271.35 476.15 271.55 477.05 272.2 476.35 273.55 L475.05 273.75 465.7 273.55 Q462.9 273.1 460.55 271.05 458.2 269.1 455.4 265.1 L448.3 254.8 Q447.9 254.2 447.4 254.1 L442.05 254.1 Q441.8 266.1 442.65 269.95 L443.35 271.05 448.2 271.6 Q448.7 273.45 447.5 273.65 437.15 273.45 429.45 273.65 L428.65 273.0 Q428.45 271.8 429.15 271.6 L432.25 271.25 Q433.0 271.15 433.4 269.3 434.0 263.45 433.8 261.7 L433.8 231.25 Q433.7 228.8 433.0 228.3 431.85 227.35 431.35 227.45 L428.45 227.35 Q427.6 227.0 427.65 226.1 428.25 225.1 429.05 225.2 L448.0 225.2 452.95 225.8 Q457.9 227.2 459.85 229.75 461.8 232.2 462.3 236.1 462.4 241.3 460.05 245.0 L457.4 248.5 M442.05 229.5 L442.05 249.4 445.35 250.05 449.75 249.75 Q453.65 247.6 454.1 240.75 454.2 230.95 446.45 229.3 L442.05 229.5 M514.85 236.35 Q513.15 234.25 510.9 232.8 506.2 230.05 499.6 229.3 L493.3 229.65 493.0 230.05 492.9 232.4 Q492.8 264.85 493.4 267.05 494.0 269.2 499.5 269.85 504.75 270.15 509.2 268.8 511.95 267.9 513.95 266.1 516.8 263.75 518.1 260.8 518.85 258.15 519.45 252.8 519.65 246.3 518.25 242.7 517.2 239.3 514.85 236.35 M557.55 235.0 Q557.45 232.2 556.95 231.55 L555.7 230.55 551.85 229.95 545.1 229.85 545.2 245.7 555.1 245.6 556.85 245.2 558.3 243.85 Q559.35 243.85 559.55 244.75 558.95 248.8 558.75 254.3 558.55 255.4 557.75 255.4 L556.65 255.1 Q556.55 252.1 556.1 251.45 555.2 250.35 554.6 250.35 L545.1 250.05 545.1 265.7 Q545.35 267.9 546.25 268.4 547.3 269.0 549.15 269.2 555.4 269.55 557.45 268.5 L558.65 267.5 559.45 265.9 559.85 263.75 Q560.45 262.7 561.7 263.25 L562.0 264.35 561.3 271.15 Q560.75 274.4 557.45 273.75 L532.0 273.45 531.2 272.8 Q531.1 271.6 531.7 271.45 L534.75 271.05 Q535.65 271.05 535.95 269.1 536.55 263.35 536.35 261.6 L536.35 231.45 Q536.25 229.1 535.65 228.5 534.4 227.55 533.9 227.65 L531.1 227.55 Q530.2 227.25 530.3 226.3 530.9 225.3 531.7 225.4 537.9 225.7 556.1 225.6 L559.25 225.05 Q560.25 224.95 560.55 225.7 L559.75 234.25 Q559.55 235.1 558.65 235.5 L557.55 235.0 M314.55 271.6 L317.45 271.35 Q318.7 270.65 319.3 266.7 L325.15 226.6 Q325.7 225.1 326.2 225.1 327.3 224.95 327.75 225.6 328.05 225.7 331.85 234.05 L344.35 261.3 360.45 225.8 Q361.3 224.95 362.65 225.3 L363.35 226.7 368.85 266.2 Q369.55 269.95 370.8 270.75 L373.05 271.45 375.75 271.55 376.35 272.1 Q376.35 273.35 375.2 273.65 359.95 273.65 359.95 272.3 L359.95 271.6 360.75 271.05 360.95 270.75 360.95 269.0 357.6 243.45 344.45 271.6 Q343.1 273.9 342.35 273.65 341.8 273.8 339.35 269.0 L327.6 244.05 324.55 268.5 Q324.25 270.45 325.15 270.95 L329.15 271.55 Q329.85 272.3 329.55 273.1 L328.75 273.65 Q320.95 273.45 314.75 273.65 L314.05 272.9 Q313.95 271.9 314.55 271.6 M401.25 225.6 Q402.7 225.2 403.5 227.2 L418.25 265.4 Q419.7 268.5 420.45 269.4 421.65 270.75 422.45 271.05 L425.9 271.45 426.5 271.9 Q426.5 273.45 425.25 273.45 L423.2 273.55 Q410.1 273.55 410.0 272.6 L410.0 271.8 Q410.8 271.25 411.25 271.25 L411.45 270.85 406.65 257.75 393.85 257.75 393.55 258.15 390.15 267.5 389.65 269.45 Q389.55 270.85 390.05 271.05 L390.65 271.35 393.65 271.6 Q393.95 272.9 392.9 273.45 387.05 273.2 378.2 273.45 L377.6 272.7 377.7 271.6 378.7 271.35 Q380.8 271.55 382.55 270.45 383.85 269.4 385.3 265.4 L400.05 227.1 Q400.45 226.1 401.25 225.6 M400.15 238.9 L400.45 239.0 400.35 239.4 405.35 253.7 395.2 253.7 395.1 253.85 395.0 253.7 395.2 253.7 400.35 239.4 400.15 238.9" fill="none" stroke="#cda069" stroke-linecap="round" stroke-linejoin="round" stroke-opacity="0.77254903" stroke-width="14.0"/>
    <path d="M608.4 226.1 L608.0 227.2 Q604.65 227.35 602.6 228.4 599.9 229.85 597.35 232.0 L584.25 245.7 Q588.35 250.75 598.35 261.6 L603.6 266.95 606.9 269.45 Q609.3 270.75 610.5 271.05 613.9 271.55 613.9 272.0 614.0 273.0 613.4 273.45 L611.95 273.65 602.7 273.55 Q599.8 273.35 597.75 271.9 595.25 270.45 590.85 265.1 580.65 253.4 578.5 250.35 L578.6 266.95 Q578.6 268.6 579.0 269.75 L579.6 270.85 580.95 271.25 583.45 271.35 Q584.8 271.55 584.65 272.8 584.05 273.65 583.0 273.65 L565.6 273.55 564.9 272.9 Q564.7 271.7 565.4 271.55 L568.4 271.15 Q569.2 271.05 569.6 269.2 570.2 263.35 570.0 261.6 L570.0 231.15 Q569.9 228.7 569.2 228.15 568.05 227.25 567.55 227.35 L564.7 227.25 Q563.75 226.9 563.85 226.0 564.5 225.05 565.3 225.1 574.85 225.4 582.15 225.1 583.65 225.4 583.45 226.2 L583.0 227.2 Q580.65 227.25 579.7 227.75 579.2 228.15 578.9 228.9 578.3 232.3 578.5 245.6 L591.05 232.0 593.5 228.3 593.4 227.55 593.3 227.35 592.3 227.1 Q591.85 226.6 591.9 225.5 L592.8 225.1 Q599.5 225.4 607.2 225.1 608.4 225.4 608.4 226.1 M479.6 225.3 L501.5 225.3 509.0 225.9 Q518.55 227.35 523.5 233.5 528.25 239.7 528.55 247.45 528.65 251.25 527.85 255.0 523.3 273.35 501.35 273.9 L479.9 273.2 479.1 272.6 Q479.0 271.55 479.7 271.25 L482.65 270.85 Q483.45 270.85 483.85 268.9 484.45 263.15 484.25 261.4 L484.25 231.25 Q484.15 228.9 483.45 228.3 482.3 227.35 481.75 227.45 L479.0 227.35 Q478.1 227.1 478.2 226.1 478.8 225.1 479.6 225.3 M457.4 248.5 L454.3 251.15 463.9 263.35 Q467.75 268.0 469.2 269.2 L470.35 269.85 Q472.4 271.35 476.05 271.55 476.95 272.2 476.25 273.55 L474.95 273.75 465.6 273.55 Q462.8 273.1 460.55 271.05 458.2 269.1 455.4 265.1 L448.3 254.8 Q447.9 254.2 447.4 254.1 L442.05 254.1 Q441.8 266.1 442.65 269.95 L443.35 271.05 448.2 271.6 Q448.7 273.45 447.5 273.65 437.15 273.45 429.45 273.65 L428.65 273.0 Q428.45 271.8 429.15 271.6 L432.25 271.25 Q433.0 271.15 433.4 269.3 434.0 263.45 433.8 261.7 L433.8 231.25 Q433.7 228.8 433.0 228.3 431.85 227.35 431.35 227.45 L428.45 227.35 Q427.6 227.0 427.65 226.1 428.25 225.1 429.05 225.2 L448.0 225.2 452.95 225.8 Q457.9 227.2 459.85 229.75 461.7 232.2 462.2 236.1 462.3 241.3 460.05 245.0 L457.4 248.5 M442.05 229.5 L442.05 249.4 445.35 250.05 449.75 249.75 Q453.65 247.6 454.1 240.75 454.2 230.95 446.45 229.3 L442.05 229.5 M514.75 236.35 Q513.05 234.25 510.8 232.8 506.15 230.05 499.5 229.3 L493.2 229.65 492.9 230.05 492.8 232.4 Q492.7 264.85 493.3 267.05 493.9 269.2 499.4 269.85 504.65 270.15 509.1 268.8 511.85 267.9 513.85 266.1 516.7 263.75 518.0 260.8 518.75 258.15 519.35 252.8 519.55 246.3 518.15 242.7 517.1 239.3 514.75 236.35 M558.55 235.5 L557.45 235.0 Q557.35 232.2 556.85 231.55 L555.6 230.55 551.75 229.95 545.0 229.85 545.1 245.7 555.0 245.6 556.75 245.2 558.2 243.85 Q559.25 243.85 559.45 244.75 558.85 248.8 558.65 254.3 558.5 255.4 557.65 255.4 L556.55 255.1 Q556.45 252.1 556.0 251.45 555.1 250.35 554.5 250.35 L545.0 250.05 545.0 265.7 Q545.2 267.9 546.15 268.4 547.2 269.0 549.05 269.2 555.3 269.55 557.35 268.5 L558.55 267.5 559.35 265.9 559.75 263.75 Q560.35 262.7 561.6 263.25 L561.9 264.35 561.2 271.15 Q560.65 274.4 557.35 273.75 L531.9 273.45 531.1 272.8 Q531.0 271.6 531.6 271.45 L534.7 271.05 Q535.55 271.05 535.85 269.1 536.45 263.35 536.25 261.6 L536.25 231.45 Q536.15 229.1 535.55 228.5 534.3 227.55 533.8 227.65 L531.0 227.55 Q530.1 227.25 530.2 226.3 530.8 225.3 531.6 225.4 537.8 225.7 556.0 225.6 L559.15 225.05 Q560.15 224.95 560.45 225.7 L559.65 234.25 Q559.45 235.1 558.55 235.5 M319.3 266.7 L325.15 226.6 Q325.7 225.1 326.2 225.1 327.3 224.95 327.75 225.6 328.05 225.7 331.85 234.05 L344.35 261.3 360.45 225.8 Q361.3 224.95 362.65 225.3 L363.35 226.7 368.85 266.2 Q369.55 269.95 370.8 270.75 L373.05 271.45 375.75 271.55 376.35 272.1 Q376.35 273.35 375.2 273.65 359.95 273.65 359.95 272.3 L359.95 271.6 360.75 271.05 360.95 270.75 360.95 269.0 357.6 243.45 344.45 271.6 Q343.1 273.9 342.35 273.65 341.8 273.8 339.35 269.0 L327.6 244.05 324.55 268.5 Q324.25 270.45 325.15 270.95 L329.15 271.55 Q329.85 272.3 329.55 273.1 L328.75 273.65 Q320.95 273.45 314.75 273.65 L314.05 272.9 Q313.95 271.9 314.55 271.6 L317.45 271.35 Q318.7 270.65 319.3 266.7 M400.15 238.9 L400.35 239.4 395.2 253.7 395.0 253.7 395.1 253.85 395.2 253.7 405.35 253.7 400.35 239.4 400.45 239.0 400.15 238.9 M401.25 225.6 Q402.7 225.2 403.5 227.2 L418.25 265.4 Q419.7 268.5 420.45 269.4 421.65 270.75 422.45 271.05 L425.9 271.45 426.5 271.9 Q426.5 273.45 425.25 273.45 L423.2 273.55 Q410.1 273.55 410.0 272.6 L410.0 271.8 Q410.8 271.25 411.25 271.25 L411.45 270.85 406.65 257.75 393.85 257.75 393.55 258.15 390.15 267.5 389.65 269.45 Q389.55 270.85 390.05 271.05 L390.65 271.35 393.65 271.6 Q393.95 272.9 392.9 273.45 387.05 273.2 378.2 273.45 L377.6 272.7 377.7 271.6 378.7 271.35 Q380.8 271.55 382.55 270.45 383.85 269.4 385.3 265.4 L400.05 227.1 Q400.45 226.1 401.25 225.6" fill="url(#gradient1)" fill-rule="evenodd" stroke="none"/>
    <path d="M608.4 226.1 L608.0 227.2 Q604.65 227.35 602.6 228.4 599.9 229.85 597.35 232.0 L584.25 245.7 Q588.35 250.75 598.35 261.6 L603.6 266.95 606.9 269.45 Q609.3 270.75 610.5 271.05 613.9 271.55 613.9 272.0 614.0 273.0 613.4 273.45 L611.95 273.65 602.7 273.55 Q599.8 273.35 597.75 271.9 595.25 270.45 590.85 265.1 580.65 253.4 578.5 250.35 L578.6 266.95 Q578.6 268.6 579.0 269.75 L579.6 270.85 580.95 271.25 583.45 271.35 Q584.8 271.55 584.65 272.8 584.05 273.65 583.0 273.65 L565.6 273.55 564.9 272.9 Q564.7 271.7 565.4 271.55 L568.4 271.15 Q569.2 271.05 569.6 269.2 570.2 263.35 570.0 261.6 L570.0 231.15 Q569.9 228.7 569.2 228.15 568.05 227.25 567.55 227.35 L564.7 227.25 Q563.75 226.9 563.85 226.0 564.5 225.05 565.3 225.1 574.85 225.4 582.15 225.1 583.65 225.4 583.45 226.2 L583.0 227.2 Q580.65 227.25 579.7 227.75 579.2 228.15 578.9 228.9 578.3 232.3 578.5 245.6 L591.05 232.0 593.5 228.3 593.4 227.55 593.3 227.35 592.3 227.1 Q591.85 226.6 591.9 225.5 L592.8 225.1 Q599.5 225.4 607.2 225.1 608.4 225.4 608.4 226.1 M479.6 225.3 L501.5 225.3 509.0 225.9 Q518.55 227.35 523.5 233.5 528.25 239.7 528.55 247.45 528.65 251.25 527.85 255.0 523.3 273.35 501.35 273.9 L479.9 273.2 479.1 272.6 Q479.0 271.55 479.7 271.25 L482.65 270.85 Q483.45 270.85 483.85 268.9 484.45 263.15 484.25 261.4 L484.25 231.25 Q484.15 228.9 483.45 228.3 482.3 227.35 481.75 227.45 L479.0 227.35 Q478.1 227.1 478.2 226.1 478.8 225.1 479.6 225.3 M457.4 248.5 L454.3 251.15 463.9 263.35 Q467.75 268.0 469.2 269.2 L470.35 269.85 Q472.4 271.35 476.05 271.55 476.95 272.2 476.25 273.55 L474.95 273.75 465.6 273.55 Q462.8 273.1 460.55 271.05 458.2 269.1 455.4 265.1 L448.3 254.8 Q447.9 254.2 447.4 254.1 L442.05 254.1 Q441.8 266.1 442.65 269.95 L443.35 271.05 448.2 271.6 Q448.7 273.45 447.5 273.65 437.15 273.45 429.45 273.65 L428.65 273.0 Q428.45 271.8 429.15 271.6 L432.25 271.25 Q433.0 271.15 433.4 269.3 434.0 263.45 433.8 261.7 L433.8 231.25 Q433.7 228.8 433.0 228.3 431.85 227.35 431.35 227.45 L428.45 227.35 Q427.6 227.0 427.65 226.1 428.25 225.1 429.05 225.2 L448.0 225.2 452.95 225.8 Q457.9 227.2 459.85 229.75 461.7 232.2 462.2 236.1 462.3 241.3 460.05 245.0 L457.4 248.5 M442.05 229.5 L442.05 249.4 445.35 250.05 449.75 249.75 Q453.65 247.6 454.1 240.75 454.2 230.95 446.45 229.3 L442.05 229.5 M514.75 236.35 Q513.05 234.25 510.8 232.8 506.15 230.05 499.5 229.3 L493.2 229.65 492.9 230.05 492.8 232.4 Q492.7 264.85 493.3 267.05 493.9 269.2 499.4 269.85 504.65 270.15 509.1 268.8 511.85 267.9 513.85 266.1 516.7 263.75 518.0 260.8 518.75 258.15 519.35 252.8 519.55 246.3 518.15 242.7 517.1 239.3 514.75 236.35 M558.55 235.5 L557.45 235.0 Q557.35 232.2 556.85 231.55 L555.6 230.55 551.75 229.95 545.0 229.85 545.1 245.7 555.0 245.6 556.75 245.2 558.2 243.85 Q559.25 243.85 559.45 244.75 558.85 248.8 558.65 254.3 558.5 255.4 557.65 255.4 L556.55 255.1 Q556.45 252.1 556.0 251.45 555.1 250.35 554.5 250.35 L545.0 250.05 545.0 265.7 Q545.2 267.9 546.15 268.4 547.2 269.0 549.05 269.2 555.3 269.55 557.35 268.5 L558.55 267.5 559.35 265.9 559.75 263.75 Q560.35 262.7 561.6 263.25 L561.9 264.35 561.2 271.15 Q560.65 274.4 557.35 273.75 L531.9 273.45 531.1 272.8 Q531.0 271.6 531.6 271.45 L534.7 271.05 Q535.55 271.05 535.85 269.1 536.45 263.35 536.25 261.6 L536.25 231.45 Q536.15 229.1 535.55 228.5 534.3 227.55 533.8 227.65 L531.0 227.55 Q530.1 227.25 530.2 226.3 530.8 225.3 531.6 225.4 537.8 225.7 556.0 225.6 L559.15 225.05 Q560.15 224.95 560.45 225.7 L559.65 234.25 Q559.45 235.1 558.55 235.5 M319.3 266.7 L325.15 226.6 Q325.7 225.1 326.2 225.1 327.3 224.95 327.75 225.6 328.05 225.7 331.85 234.05 L344.35 261.3 360.45 225.8 Q361.3 224.95 362.65 225.3 L363.35 226.7 368.85 266.2 Q369.55 269.95 370.8 270.75 L373.05 271.45 375.75 271.55 376.35 272.1 Q376.35 273.35 375.2 273.65 359.95 273.65 359.95 272.3 L359.95 271.6 360.75 271.05 360.95 270.75 360.95 269.0 357.6 243.45 344.45 271.6 Q343.1 273.9 342.35 273.65 341.8 273.8 339.35 269.0 L327.6 244.05 324.55 268.5 Q324.25 270.45 325.15 270.95 L329.15 271.55 Q329.85 272.3 329.55 273.1 L328.75 273.65 Q320.95 273.45 314.75 273.65 L314.05 272.9 Q313.95 271.9 314.55 271.6 L317.45 271.35 Q318.7 270.65 319.3 266.7 M400.15 238.9 L400.45 239.0 400.35 239.4 405.35 253.7 395.2 253.7 395.1 253.85 395.0 253.7 395.2 253.7 400.35 239.4 400.15 238.9 M401.25 225.6 Q402.7 225.2 403.5 227.2 L418.25 265.4 Q419.7 268.5 420.45 269.4 421.65 270.75 422.45 271.05 L425.9 271.45 426.5 271.9 Q426.5 273.45 425.25 273.45 L423.2 273.55 Q410.1 273.55 410.0 272.6 L410.0 271.8 Q410.8 271.25 411.25 271.25 L411.45 270.85 406.65 257.75 393.85 257.75 393.55 258.15 390.15 267.5 389.65 269.45 Q389.55 270.85 390.05 271.05 L390.65 271.35 393.65 271.6 Q393.95 272.9 392.9 273.45 387.05 273.2 378.2 273.45 L377.6 272.7 377.7 271.6 378.7 271.35 Q380.8 271.55 382.55 270.45 383.85 269.4 385.3 265.4 L400.05 227.1 Q400.45 226.1 401.25 225.6" fill="none" stroke="#443322" stroke-linecap="round" stroke-linejoin="round" stroke-width="7.0"/>
    <path d="M608.35 226.1 L607.95 227.2 Q604.6 227.35 602.5 228.35 599.85 229.85 597.3 232.0 L584.15 245.7 Q588.3 250.75 598.25 261.55 L603.5 266.9 606.85 269.45 Q609.2 270.75 610.4 271.05 613.85 271.5 613.85 272.0 613.95 273.0 613.35 273.4 L611.9 273.6 602.6 273.5 Q599.75 273.3 597.65 271.9 595.2 270.45 590.75 265.1 580.6 253.4 578.45 250.35 L578.55 266.9 Q578.55 268.55 578.95 269.75 L579.5 270.85 580.9 271.2 583.35 271.3 Q584.75 271.5 584.55 272.8 583.95 273.6 582.95 273.6 L565.5 273.5 564.8 272.9 Q564.6 271.7 565.3 271.5 L568.35 271.15 Q569.15 271.05 569.55 269.15 570.15 263.35 569.95 261.55 L569.95 231.1 Q569.85 228.65 569.15 228.15 567.95 227.25 567.5 227.35 L564.6 227.25 Q563.75 226.9 563.85 226.0 564.4 225.0 565.2 225.1 574.8 225.4 582.1 225.1 583.55 225.4 583.35 226.2 L582.95 227.2 Q580.6 227.25 579.6 227.75 579.1 228.15 578.85 228.85 578.25 232.3 578.45 245.6 589.9 233.5 590.95 232.0 593.15 229.15 593.45 228.25 L593.35 227.55 593.25 227.35 592.25 227.1 Q591.75 226.6 591.85 225.5 L592.75 225.1 Q599.45 225.4 607.15 225.1 608.35 225.4 608.35 226.1 M559.6 234.25 Q559.4 235.05 558.5 235.45 L557.4 234.95 Q557.3 232.2 556.8 231.5 556.15 230.7 555.55 230.55 L551.7 229.95 545.0 229.85 545.1 245.7 554.95 245.6 556.7 245.2 558.1 243.85 Q559.2 243.85 559.4 244.7 558.8 248.75 558.6 254.3 558.4 255.35 557.6 255.35 L556.55 255.05 Q556.45 252.1 555.95 251.4 555.05 250.35 554.45 250.35 L545.0 250.05 545.0 265.7 Q545.2 267.85 546.05 268.35 547.15 268.95 549.05 269.15 555.25 269.55 557.3 268.45 L558.5 267.5 559.3 265.9 559.7 263.75 Q560.3 262.65 561.55 263.25 L561.85 264.35 561.15 271.15 Q560.55 274.4 557.3 273.7 L531.85 273.4 531.05 272.8 Q530.95 271.6 531.55 271.4 L534.6 271.05 Q535.5 271.05 535.8 269.05 536.4 263.35 536.2 261.55 L536.2 231.4 Q536.1 229.05 535.5 228.45 534.25 227.55 533.75 227.65 L530.95 227.55 Q530.1 227.25 530.2 226.3 530.75 225.3 531.55 225.4 537.8 225.7 555.95 225.6 L559.1 225.0 Q560.1 224.9 560.4 225.7 L559.6 234.25 M518.15 242.65 Q517.05 239.3 514.7 236.35 513.0 234.25 510.75 232.8 506.1 230.05 499.5 229.25 L493.2 229.65 492.9 230.05 492.8 232.4 Q492.7 264.8 493.3 267.0 493.85 269.15 499.4 269.85 504.65 270.15 509.05 268.75 511.85 267.85 513.8 266.1 516.65 263.75 517.95 260.8 518.75 258.1 519.35 252.8 519.55 246.3 518.15 242.65 M527.8 254.95 Q523.25 273.3 501.25 273.9 L479.85 273.2 479.05 272.6 Q478.95 271.5 479.65 271.2 L482.6 270.85 Q483.4 270.85 483.8 268.85 484.4 263.15 484.2 261.35 L484.2 231.2 Q484.1 228.85 483.4 228.25 482.25 227.35 481.75 227.45 L478.95 227.35 Q478.1 227.1 478.2 226.1 478.75 225.1 479.55 225.3 L501.45 225.3 508.95 225.9 Q518.55 227.35 523.45 233.5 528.2 239.7 528.5 247.5 528.6 251.2 527.8 254.95 M452.8 225.8 Q457.75 227.2 459.75 229.75 461.7 232.2 462.2 236.05 462.3 241.25 459.95 245.0 L457.25 248.45 454.2 251.1 463.85 263.35 Q467.7 267.95 469.2 269.15 L470.3 269.85 Q472.35 271.3 476.0 271.5 476.9 272.2 476.2 273.5 L474.95 273.7 Q470.1 273.8 465.55 273.5 462.8 273.1 460.4 271.05 458.05 269.05 455.3 265.1 L448.2 254.75 447.3 254.1 441.95 254.1 Q441.65 266.1 442.55 269.95 L443.25 271.05 448.1 271.6 Q448.6 273.4 447.4 273.6 437.05 273.4 429.35 273.6 L428.55 273.0 Q428.35 271.8 429.05 271.6 L432.1 271.2 Q432.9 271.15 433.3 269.25 433.9 263.45 433.7 261.65 L433.7 231.2 Q433.6 228.75 432.9 228.25 431.7 227.35 431.2 227.45 L428.35 227.35 Q427.45 227.0 427.55 226.1 428.15 225.1 428.95 225.2 L447.9 225.2 452.8 225.8 M441.95 229.45 L441.95 249.35 Q442.25 249.75 445.2 250.05 L449.65 249.75 Q453.5 247.55 454.0 240.75 454.1 230.9 446.3 229.25 L441.95 229.45 M403.4 227.2 L418.2 265.4 Q419.55 268.45 420.35 269.35 421.55 270.75 422.35 271.05 L425.8 271.4 426.4 271.9 Q426.4 273.4 425.1 273.4 L423.1 273.5 Q410.0 273.5 409.9 272.6 L409.9 271.8 Q410.7 271.2 411.2 271.2 L411.4 270.85 406.55 257.7 393.7 257.7 393.4 258.1 390.05 267.5 389.55 269.45 Q389.45 270.85 389.95 271.05 L390.55 271.3 393.5 271.6 Q393.8 272.9 392.85 273.4 386.9 273.2 378.15 273.4 L377.55 272.7 377.65 271.6 378.6 271.3 Q380.7 271.5 382.45 270.45 383.75 269.35 385.25 265.4 L399.95 227.1 Q400.35 226.1 401.1 225.6 402.6 225.2 403.4 227.2 M362.55 225.3 L363.25 226.7 368.75 266.2 Q369.45 269.95 370.75 270.75 L373.0 271.4 375.65 271.5 376.25 272.1 Q376.25 273.3 375.05 273.6 359.85 273.6 359.85 272.3 L359.85 271.6 360.65 271.05 360.85 270.75 360.85 268.95 357.5 243.45 344.4 271.6 Q343.0 273.9 342.3 273.6 341.7 273.8 339.25 268.95 L327.5 244.05 324.45 268.45 Q324.15 270.45 325.05 270.95 L329.1 271.5 Q329.8 272.3 329.5 273.1 L328.7 273.6 Q320.9 273.4 314.7 273.6 L314.0 272.9 Q313.9 271.9 314.5 271.6 L317.35 271.3 Q318.65 270.65 319.2 266.7 L325.05 226.6 Q325.65 225.1 326.15 225.1 327.2 224.9 327.7 225.6 328.0 225.7 331.75 234.05 L344.3 261.25 360.35 225.8 Q361.25 224.9 362.55 225.3 M395.1 253.7 L394.9 253.7 395.0 253.9 395.1 253.7 405.25 253.7 400.25 239.4 400.35 239.0 400.05 238.9 400.25 239.4 395.1 253.7" fill="url(#gradient2)" fill-rule="evenodd" stroke="none"/>
  </g>
  <defs>
    <linearGradient gradientTransform="matrix(0.0, 0.0309, -0.0296, 0.0, 345.25, 249.45)" gradientUnits="userSpaceOnUse" id="gradient0" spreadMethod="pad" x1="-819.2" x2="819.2">
      <stop offset="0.0" stop-color="#663300"/>
      <stop offset="0.4666666666666667" stop-color="#ba5e45"/>
      <stop offset="0.596078431372549" stop-color="#e9c2ba"/>
      <stop offset="0.6862745098039216" stop-color="#984d29"/>
      <stop offset="1.0" stop-color="#663300"/>
    </linearGradient>
    <linearGradient gradientTransform="matrix(0.0, 0.0309, -0.0296, 0.0, 345.25, 249.45)" gradientUnits="userSpaceOnUse" id="gradient1" spreadMethod="pad" x1="-819.2" x2="819.2">
      <stop offset="0.0" stop-color="#663300"/>
      <stop offset="0.4666666666666667" stop-color="#ba5e45"/>
      <stop offset="0.596078431372549" stop-color="#e9c2ba"/>
      <stop offset="0.6862745098039216" stop-color="#984d29"/>
      <stop offset="1.0" stop-color="#663300"/>
    </linearGradient>
    <linearGradient gradientTransform="matrix(0.0, 0.0309, -0.0296, 0.0, 345.15, 249.45)" gradientUnits="userSpaceOnUse" id="gradient2" spreadMethod="pad" x1="-819.2" x2="819.2">
      <stop offset="0.0" stop-color="#663300"/>
      <stop offset="0.4666666666666667" stop-color="#ba5e45"/>
      <stop offset="0.596078431372549" stop-color="#e9c2ba"/>
      <stop offset="0.6862745098039216" stop-color="#984d29"/>
      <stop offset="1.0" stop-color="#663300"/>
    </linearGradient>
  </defs>
</svg>
