<?xml version="1.0" encoding="UTF-8" standalone="no"?>
<svg xmlns:xlink="http://www.w3.org/1999/xlink" height="61.25px" width="34.1px" xmlns="http://www.w3.org/2000/svg">
  <g transform="matrix(1.0, 0.0, 0.0, 1.0, -431.2, -226.1)">
    <path d="M465.2 265.5 L465.3 267.25 Q465.25 272.8 462.35 277.35 459.45 281.85 454.25 284.55 448.95 287.25 442.0 287.35 L438.45 287.05 434.95 286.4 432.5 285.45 Q431.7 284.95 431.45 284.45 L431.2 283.3 431.35 279.5 431.5 276.0 431.8 273.55 432.0 272.65 432.4 272.35 Q432.7 272.35 432.8 272.55 L432.95 273.45 Q433.3 278.05 435.95 280.95 438.6 283.9 444.65 284.0 448.65 284.0 451.8 282.45 455.0 280.95 456.85 277.9 458.7 274.8 458.75 270.15 458.7 267.55 458.1 265.5 L465.2 265.5" fill="#b9833c" fill-rule="evenodd" stroke="none"/>
    <path d="M449.5 251.0 L451.75 249.4 Q453.75 247.8 455.1 245.35 456.45 242.85 456.5 239.45 456.55 238.15 456.05 236.4 455.55 234.65 454.35 232.95 453.1 231.25 450.9 230.1 448.7 228.95 445.25 228.9 440.95 228.9 438.25 231.25 435.5 233.6 435.45 238.15 L435.25 238.9 434.9 239.05 434.55 238.9 434.35 238.2 433.95 234.0 433.8 230.4 Q433.75 229.9 433.95 229.55 434.15 229.15 434.85 228.75 436.65 227.8 439.85 226.95 443.05 226.15 447.45 226.1 452.2 226.1 455.25 227.4 458.25 228.6 459.95 230.45 461.6 232.4 462.3 234.3 462.95 236.3 462.9 237.8 462.85 240.75 461.6 243.15 460.35 245.55 458.6 247.35 L455.1 250.3 454.05 251.0 449.5 251.0" fill="#f2b771" fill-rule="evenodd" stroke="none"/>
    <path d="M449.5 251.0 L454.05 251.0 452.45 251.85 452.45 252.25 Q454.35 252.7 456.5 253.8 458.7 254.95 460.7 256.8 462.7 258.65 464.0 261.25 464.9 263.2 465.2 265.5 L458.1 265.5 457.25 263.5 Q455.75 260.8 453.45 259.05 451.2 257.3 448.75 256.35 446.3 255.35 444.3 255.0 L442.75 254.55 Q442.3 254.4 442.3 253.95 442.35 253.6 442.85 253.35 L444.1 253.05 Q445.6 252.8 447.65 251.9 448.55 251.55 449.5 251.0" fill="#d1933c" fill-rule="evenodd" stroke="none"/>
  </g>
</svg>
