<?xml version="1.0" encoding="UTF-8" standalone="no"?>
<svg xmlns:xlink="http://www.w3.org/1999/xlink" height="158.3px" width="1730.0px" xmlns="http://www.w3.org/2000/svg">
  <g transform="matrix(1.0, 0.0, 0.0, 1.0, 0.0, 0.0)">
    <path d="M262.3 5.05 L272.5 0.0 Q287.6 2.7 285.05 13.05 284.75 14.15 283.5 14.6 268.55 20.95 261.9 33.4 277.85 48.5 297.65 58.5 L299.45 59.6 Q272.0 66.5 259.85 46.15 257.25 41.7 252.0 41.15 235.05 40.05 226.85 29.15 224.75 26.4 227.7 24.4 244.0 13.2 262.5 5.85 L262.3 5.05 M572.6 1.6 Q581.7 4.75 588.05 12.3 L588.55 13.1 588.45 13.95 Q569.65 16.25 557.55 3.8 563.95 -1.05 572.6 1.6 M563.35 32.8 L563.45 33.7 Q558.35 37.6 552.4 35.2 L552.5 34.35 Q545.8 33.35 541.65 27.9 550.35 22.65 559.45 27.3 562.75 29.1 563.35 32.8 M576.85 70.8 L575.95 70.25 Q546.35 64.15 521.2 48.7 517.2 46.2 520.4 42.5 524.95 37.3 528.45 31.45 530.8 36.25 533.85 41.5 535.35 44.15 538.8 44.2 585.2 44.85 613.25 79.5 620.0 87.85 611.0 92.65 604.1 96.4 596.55 98.45 609.75 105.75 612.95 118.75 613.6 121.25 610.7 122.45 590.4 130.35 569.7 128.9 567.2 128.6 565.15 130.85 556.0 140.6 544.85 133.3 542.65 131.95 539.7 131.85 528.6 132.6 520.0 129.55 519.05 129.2 518.35 128.2 L514.1 128.65 Q511.45 122.85 514.75 118.05 517.95 113.4 523.15 110.85 531.95 106.6 539.8 100.95 L538.3 98.95 537.0 96.85 536.55 95.8 536.35 94.55 536.45 94.0 Q548.1 88.3 560.75 84.8 572.75 81.3 576.85 70.8 M501.45 105.75 L504.15 104.6 Q479.15 125.8 445.8 112.85 440.75 110.8 435.35 109.95 430.15 109.4 425.35 107.2 451.7 96.4 479.9 107.7 491.0 110.05 501.45 105.75 M424.75 12.55 L412.0 26.5 430.6 35.2 Q417.95 39.2 410.4 49.95 399.55 65.4 380.2 65.05 380.35 67.55 379.6 69.85 377.0 77.6 366.6 76.0 353.45 74.4 341.6 68.35 L341.7 66.9 Q338.6 64.6 338.4 60.7 338.0 52.5 348.7 52.0 370.7 50.85 390.0 41.5 L389.95 40.85 378.4 31.95 Q378.6 30.65 379.8 30.2 398.3 22.95 414.95 13.7 417.6 12.2 420.7 12.65 L424.75 12.55 M344.75 31.6 Q334.3 39.5 321.5 43.35 L320.55 42.3 324.1 35.45 320.95 31.15 Q324.75 27.75 329.7 27.2 337.8 26.2 344.75 30.45 L344.75 31.6 M338.35 97.65 L323.85 99.65 Q339.3 103.6 355.2 105.25 L362.15 106.0 Q354.1 114.25 341.2 114.55 330.3 114.8 319.3 116.75 282.15 124.0 244.35 125.15 L260.6 115.9 Q250.9 114.45 241.0 114.4 237.85 114.4 235.05 113.25 233.85 112.65 233.65 111.25 L242.0 102.55 239.35 101.9 Q288.5 93.9 338.6 94.35 L338.35 97.65 M193.15 153.4 L193.25 154.2 Q162.45 158.6 131.9 158.25 L128.95 157.6 Q129.2 155.7 128.05 154.4 L127.4 153.9 126.5 153.6 126.25 150.2 181.1 145.45 181.3 146.5 170.05 148.95 Q180.45 152.0 191.45 152.0 192.85 152.1 193.15 153.4 M27.4 35.5 Q56.0 33.15 84.5 36.95 56.85 53.0 29.5 38.9 27.5 37.9 27.4 35.5 M45.45 125.55 L94.35 130.7 Q97.1 130.85 99.8 131.55 L99.8 134.1 80.15 134.95 73.7 136.2 79.5 138.5 Q58.65 146.8 36.05 147.15 30.4 147.25 26.2 144.45 L40.05 137.35 0.0 131.55 2.4 130.05 4.1 129.4 5.8 129.25 4.2 128.5 Q24.75 123.05 45.5 121.05 L45.45 125.55 M804.75 43.2 L804.8 43.5 803.6 44.5 Q752.55 45.5 702.75 59.0 L706.5 55.8 706.8 54.95 Q691.5 55.75 674.7 57.85 L677.1 50.85 Q661.2 47.95 646.25 42.4 644.75 41.8 643.55 40.65 702.15 48.0 758.55 30.05 771.25 26.0 784.0 28.8 L770.05 34.65 Q784.8 37.25 799.75 38.85 803.55 39.5 804.75 43.2 M865.0 74.25 Q857.45 81.1 847.25 80.8 827.45 79.6 808.9 83.9 799.55 85.9 789.55 85.1 784.05 84.75 782.95 79.25 786.1 78.25 789.3 77.4 L790.7 77.0 791.35 76.65 791.95 76.2 792.3 75.85 792.55 75.45 801.65 72.3 Q830.6 65.95 859.9 72.1 862.7 72.7 865.0 74.25" fill="#00ff00" fill-rule="evenodd" stroke="none"/>
    <path d="M1127.3 5.05 Q1132.4 2.55 1137.5 0.0 1152.6 2.7 1150.05 13.05 1149.75 14.15 1148.5 14.6 1133.55 20.95 1126.9 33.4 1142.85 48.5 1162.65 58.5 1163.55 59.0 1164.45 59.6 1137.0 66.5 1124.85 46.15 1122.25 41.7 1117.0 41.15 1100.05 40.05 1091.85 29.15 1089.75 26.4 1092.7 24.4 1109.0 13.2 1127.5 5.85 L1127.3 5.05 M1437.6 1.6 Q1446.7 4.75 1453.05 12.3 L1453.55 13.1 1453.45 13.95 Q1434.65 16.25 1422.55 3.8 1428.95 -1.05 1437.6 1.6 M1428.35 32.8 L1428.45 33.7 Q1423.35 37.6 1417.4 35.2 L1417.5 34.35 Q1410.8 33.35 1406.65 27.9 1415.35 22.65 1424.45 27.3 1427.75 29.1 1428.35 32.8 M1441.85 70.8 L1440.95 70.25 Q1411.35 64.15 1386.2 48.7 1382.2 46.2 1385.4 42.5 1389.95 37.3 1393.45 31.45 1395.8 36.25 1398.85 41.5 1400.35 44.15 1403.8 44.2 1450.2 44.85 1478.25 79.5 1485.0 87.85 1476.0 92.65 1469.1 96.4 1461.55 98.45 1474.75 105.75 1477.95 118.75 1478.6 121.25 1475.7 122.45 1455.4 130.35 1434.7 128.9 1432.2 128.6 1430.15 130.85 1421.0 140.6 1409.85 133.3 1407.65 131.95 1404.7 131.85 1393.6 132.6 1385.0 129.55 1384.05 129.2 1383.35 128.2 L1379.1 128.65 Q1376.45 122.85 1379.75 118.05 1382.95 113.4 1388.15 110.85 1396.95 106.6 1404.8 100.95 L1403.3 98.95 1402.0 96.85 1401.55 95.8 1401.35 94.55 1401.45 94.0 Q1413.1 88.3 1425.75 84.8 1437.75 81.3 1441.85 70.8 M1366.45 105.75 L1369.15 104.6 Q1344.15 125.8 1310.8 112.85 1305.75 110.8 1300.35 109.95 1295.15 109.4 1290.35 107.2 1316.7 96.4 1344.9 107.7 1356.0 110.05 1366.45 105.75 M1289.75 12.55 L1277.0 26.5 1295.6 35.2 Q1282.95 39.2 1275.4 49.95 1264.55 65.4 1245.2 65.05 1245.35 67.55 1244.6 69.85 1242.0 77.6 1231.6 76.0 1218.45 74.4 1206.6 68.35 L1206.7 66.9 Q1203.6 64.6 1203.4 60.7 1203.0 52.5 1213.7 52.0 1235.7 50.85 1255.0 41.5 L1254.95 40.85 1243.4 31.95 Q1243.6 30.65 1244.8 30.2 1263.3 22.95 1279.95 13.7 1282.6 12.2 1285.7 12.65 L1289.75 12.55 M1209.75 31.6 Q1199.3 39.5 1186.5 43.35 L1185.55 42.3 1189.1 35.45 1185.95 31.15 Q1189.75 27.75 1194.7 27.2 1202.8 26.2 1209.75 30.45 L1209.75 31.6 M1203.35 97.65 L1188.85 99.65 Q1204.3 103.6 1220.2 105.25 L1227.15 106.0 Q1219.1 114.25 1206.2 114.55 1195.3 114.8 1184.3 116.75 1147.15 124.0 1109.35 125.15 L1125.6 115.9 Q1115.9 114.45 1106.0 114.4 1102.85 114.4 1100.05 113.25 1098.85 112.65 1098.65 111.25 L1107.0 102.55 1104.35 101.9 Q1153.5 93.9 1203.6 94.35 L1203.35 97.65 M1058.15 153.4 L1058.25 154.2 Q1027.45 158.6 996.9 158.25 995.4 158.25 993.95 157.6 994.2 155.7 993.05 154.4 L992.4 153.9 991.5 153.6 991.25 150.2 1046.1 145.45 1046.3 146.5 1035.05 148.95 Q1045.45 152.0 1056.45 152.0 1057.85 152.1 1058.15 153.4 M892.4 35.5 Q921.0 33.15 949.5 36.95 921.85 53.0 894.5 38.9 892.5 37.9 892.4 35.5 M910.45 125.55 L959.35 130.7 Q962.1 130.85 964.8 131.55 L964.8 134.1 Q954.95 133.4 945.15 134.95 L938.7 136.2 944.5 138.5 Q923.65 146.8 901.05 147.15 895.4 147.25 891.2 144.45 L905.05 137.35 865.0 131.55 Q866.15 130.75 867.4 130.05 868.2 129.65 869.1 129.4 L870.8 129.25 869.2 128.5 Q889.75 123.05 910.5 121.05 L910.45 125.55 M1669.75 43.2 L1669.8 43.5 1668.6 44.5 Q1617.55 45.5 1567.75 59.0 L1571.5 55.8 1571.8 54.95 Q1556.5 55.75 1539.7 57.85 L1542.1 50.85 Q1526.2 47.95 1511.25 42.4 1509.75 41.8 1508.55 40.65 1567.15 48.0 1623.55 30.05 1636.25 26.0 1649.0 28.8 L1635.05 34.65 Q1649.8 37.25 1664.75 38.85 1668.55 39.5 1669.75 43.2 M1730.0 74.25 Q1722.45 81.1 1712.25 80.8 1692.45 79.6 1673.9 83.9 1664.55 85.9 1654.55 85.1 1649.05 84.75 1647.95 79.25 L1654.3 77.4 1655.7 77.0 Q1656.05 76.85 1656.35 76.65 L1656.95 76.2 1657.3 75.85 1657.55 75.45 1666.65 72.3 Q1695.6 65.95 1724.9 72.1 1727.7 72.7 1730.0 74.25" fill="#00ff00" fill-rule="evenodd" stroke="none"/>
  </g>
</svg>
