<?xml version="1.0" encoding="UTF-8" standalone="no"?>
<svg xmlns:xlink="http://www.w3.org/1999/xlink" height="52.0px" width="16.0px" xmlns="http://www.w3.org/2000/svg">
  <g transform="matrix(1.0, 0.0, 0.0, 1.0, 8.0, 26.0)">
    <path d="M0.0 -20.0 L0.0 20.0" fill="none" stroke="#ffcc66" stroke-linecap="round" stroke-linejoin="round" stroke-width="2.0"/>
    <path d="M-8.0 -12.05 L-7.95 -12.05 -8.0 -12.0 -8.0 -12.05 M8.0 -12.05 L8.0 -12.0 8.0 -12.05" fill="#ffcc33" fill-rule="evenodd" stroke="none"/>
    <path d="M-8.0 -12.05 Q-8.0 -14.6 -6.8 -16.45 -5.55 -18.25 -3.85 -18.25 -2.55 -18.25 -1.5 -17.15 L-1.55 -17.65 Q-1.55 -19.65 -1.15 -22.05 -0.7 -24.9 0.0 -26.0 0.7 -24.9 1.15 -22.05 1.55 -19.65 1.55 -17.65 L1.5 -17.15 Q2.55 -18.25 3.85 -18.25 5.6 -18.25 6.8 -16.45 8.0 -14.6 8.0 -12.05 L7.25 -13.4 Q6.0 -15.25 4.25 -15.25 2.45 -15.25 1.2 -13.4 0.25 -11.95 0.0 -10.0 -0.2 -11.95 -1.2 -13.4 -2.45 -15.25 -4.2 -15.25 -6.0 -15.25 -7.25 -13.4 L-7.95 -12.05 -8.0 -12.05" fill="#ffcc66" fill-rule="evenodd" stroke="none"/>
    <path d="M1.4 -14.6 Q0.85 -14.0 0.0 -14.0 -0.8 -14.0 -1.4 -14.6 -2.0 -15.15 -2.0 -16.0 -2.0 -16.8 -1.4 -17.4 -0.8 -18.0 0.0 -18.0 0.85 -18.0 1.4 -17.4 2.0 -16.8 2.0 -16.0 2.0 -15.15 1.4 -14.6" fill="#ffffcc" fill-rule="evenodd" stroke="none"/>
    <path d="M-8.0 12.05 L-7.95 12.05 -8.0 12.0 -8.0 12.05 M8.0 12.05 L8.0 12.0 8.0 12.05" fill="#ffcc33" fill-rule="evenodd" stroke="none"/>
    <path d="M-8.0 12.05 Q-8.0 14.6 -6.8 16.45 -5.55 18.25 -3.85 18.25 -2.55 18.25 -1.5 17.15 L-1.55 17.65 Q-1.55 19.65 -1.15 22.05 -0.7 24.9 0.0 26.0 0.7 24.9 1.15 22.05 1.55 19.65 1.55 17.65 L1.5 17.15 Q2.55 18.25 3.85 18.25 5.6 18.25 6.8 16.45 8.0 14.6 8.0 12.05 L7.25 13.4 Q6.0 15.25 4.25 15.25 2.45 15.25 1.2 13.4 0.25 11.95 0.0 10.0 -0.2 11.95 -1.2 13.4 -2.45 15.25 -4.2 15.25 -6.0 15.25 -7.25 13.4 L-7.95 12.05 -8.0 12.05" fill="#ffcc66" fill-rule="evenodd" stroke="none"/>
    <path d="M1.4 14.6 Q0.85 14.0 0.0 14.0 -0.8 14.0 -1.4 14.6 -2.0 15.15 -2.0 16.0 -2.0 16.8 -1.4 17.4 -0.8 18.0 0.0 18.0 0.85 18.0 1.4 17.4 2.0 16.8 2.0 16.0 2.0 15.15 1.4 14.6" fill="#ffffcc" fill-rule="evenodd" stroke="none"/>
  </g>
</svg>
