<?xml version="1.0" encoding="UTF-8" standalone="no"?>
<svg xmlns:xlink="http://www.w3.org/1999/xlink" height="38.9px" width="163.8px" xmlns="http://www.w3.org/2000/svg">
  <g transform="matrix(1.0, 0.0, 0.0, 1.0, -9.4, -13.6)">
    <path d="M115.8 46.0 L118.6 46.6 118.6 51.65 115.8 52.0" fill="none" stroke="#d0c18e" stroke-linecap="round" stroke-linejoin="round" stroke-width="1.0"/>
    <path d="M169.9 40.0 L172.7 40.6 172.7 45.65 169.9 46.0" fill="none" stroke="#d0c18e" stroke-linecap="round" stroke-linejoin="round" stroke-width="1.0"/>
    <path d="M169.9 46.0 L172.7 46.6 172.7 51.65 169.9 52.0" fill="none" stroke="#d0c18e" stroke-linecap="round" stroke-linejoin="round" stroke-width="1.0"/>
    <path d="M125.2 46.0 L122.4 46.6 122.4 51.65 125.2 52.0" fill="none" stroke="#d0c18e" stroke-linecap="round" stroke-linejoin="round" stroke-width="1.0"/>
    <path d="M9.5 36.25 Q10.15 27.3 16.7 20.8 23.8 13.6 34.15 13.6 44.4 13.6 51.65 20.8 58.15 27.3 58.85 36.25 L9.5 36.25" fill="url(#gradient0)" fill-rule="evenodd" stroke="none"/>
    <path d="M58.85 36.25 L58.9 36.95 Q58.9 40.1 51.65 42.35 44.4 44.6 34.15 44.6 23.8 44.6 16.7 42.35 9.4 40.1 9.4 36.95 L9.5 36.25 58.85 36.25" fill="url(#gradient1)" fill-rule="evenodd" stroke="none"/>
  </g>
  <defs>
    <linearGradient gradientTransform="matrix(3.0E-4, 0.0302, -0.0302, 3.0E-4, 34.15, 38.35)" gradientUnits="userSpaceOnUse" id="gradient0" spreadMethod="pad" x1="-819.2" x2="819.2">
      <stop offset="0.0" stop-color="#fffce0" stop-opacity="0.5019608"/>
      <stop offset="1.0" stop-color="#fff4c1" stop-opacity="0.050980393"/>
    </linearGradient>
    <linearGradient gradientTransform="matrix(3.0E-4, 0.0094, -0.0302, 1.0E-4, 34.15, 36.95)" gradientUnits="userSpaceOnUse" id="gradient1" spreadMethod="pad" x1="-819.2" x2="819.2">
      <stop offset="0.0" stop-color="#fffce0" stop-opacity="0.5019608"/>
      <stop offset="1.0" stop-color="#fff4c1" stop-opacity="0.050980393"/>
    </linearGradient>
  </defs>
</svg>
