<?xml version="1.0" encoding="UTF-8" standalone="no"?>
<svg xmlns:xlink="http://www.w3.org/1999/xlink" height="40.1px" width="182.95px" xmlns="http://www.w3.org/2000/svg">
  <g transform="matrix(1.0, 0.0, 0.0, 1.0, 0.25, 0.25)">
    <path d="M31.55 21.8 L31.75 21.65 30.25 22.65 31.5 22.55 31.9 22.55 31.55 21.8 M24.1 3.8 L24.05 9.1 Q25.0 9.6 25.85 10.35 28.5 12.55 28.45 15.95 28.45 18.7 26.65 20.85 L28.15 21.8 28.4 22.05 28.85 21.75 Q31.4 20.15 32.5 21.15 L32.4 21.2 33.1 22.6 Q36.0 22.85 38.2 24.35 41.0 26.3 40.95 29.15 L40.75 30.45 40.85 30.5 40.75 30.55 Q40.45 31.6 39.65 32.55 41.75 34.1 44.3 35.1 L47.5 35.65 46.8 36.0 44.95 36.4 Q41.75 35.65 38.8 33.45 L38.1 34.0 37.75 34.25 38.55 35.35 41.05 37.35 40.25 37.4 38.55 36.85 36.8 34.85 Q35.3 35.7 33.5 36.05 L35.0 37.25 37.95 38.55 37.2 38.8 35.3 38.65 Q33.5 37.7 31.95 36.2 L31.4 36.2 Q27.5 36.35 24.7 34.45 23.25 33.4 22.55 32.1 21.1 36.2 18.4 38.85 L16.65 39.6 15.85 39.6 18.35 37.4 Q20.45 34.55 21.55 31.4 L20.1 30.75 12.25 31.7 Q7.75 36.95 2.55 38.45 L0.7 38.2 0.0 37.85 3.2 37.15 4.95 36.3 3.5 36.9 2.7 36.9 5.2 34.75 Q8.4 30.4 9.3 25.35 L9.05 25.25 Q9.85 23.95 12.7 24.65 L17.4 26.15 Q17.4 25.15 17.75 24.3 15.1 23.95 13.1 22.15 10.55 19.85 10.55 16.5 10.55 14.5 11.5 12.85 L9.8 6.4 Q10.15 1.65 14.3 1.0 12.65 3.2 12.65 5.1 13.0 5.85 13.85 6.6 13.2 7.2 12.9 8.25 13.2 9.0 13.95 9.3 L13.65 10.3 Q16.15 8.25 19.55 8.15 L21.0 8.2 20.8 7.95 Q21.45 7.45 21.6 6.65 21.05 5.7 20.25 5.3 L21.1 3.45 Q20.55 1.65 18.45 0.1 22.55 -0.6 24.1 3.8 M17.6 27.75 L10.45 25.65 Q9.15 32.2 5.35 36.0 8.25 34.35 10.55 31.9 L10.3 31.9 Q10.5 30.4 13.45 30.0 L18.6 29.5 Q17.9 28.7 17.6 27.75" fill="#000000" fill-rule="evenodd" stroke="none"/>
    <path d="M24.1 3.8 Q22.55 -0.6 18.45 0.1 20.55 1.65 21.1 3.45 L20.25 5.3 Q21.05 5.7 21.6 6.65 21.45 7.45 20.8 7.95 L21.0 8.2 19.55 8.15 Q16.15 8.25 13.65 10.3 L13.95 9.3 Q13.2 9.0 12.9 8.25 13.2 7.2 13.85 6.6 13.0 5.85 12.65 5.1 12.65 3.2 14.3 1.0 10.15 1.65 9.8 6.4 L11.5 12.85 Q10.55 14.5 10.55 16.5 10.55 19.85 13.1 22.15 15.1 23.95 17.75 24.3 17.4 25.15 17.4 26.15 L12.7 24.65 Q9.85 23.95 9.05 25.25 L9.3 25.35 Q8.4 30.4 5.2 34.75 L2.7 36.9 3.5 36.9 4.95 36.3 3.2 37.15 0.0 37.85 0.7 38.2 2.55 38.45 Q7.75 36.95 12.25 31.7 L20.1 30.75 21.55 31.4 Q20.45 34.55 18.35 37.4 L15.85 39.6 16.65 39.6 18.4 38.85 Q21.1 36.2 22.55 32.1 23.25 33.4 24.7 34.45 27.5 36.35 31.4 36.2 L31.95 36.2 Q33.5 37.7 35.3 38.65 L37.2 38.8 37.95 38.55 35.0 37.25 33.5 36.05 Q35.3 35.7 36.8 34.85 L38.55 36.85 40.25 37.4 41.05 37.35 38.55 35.35 37.75 34.25 38.1 34.0 38.8 33.45 Q41.75 35.65 44.95 36.4 L46.8 36.0 47.5 35.65 44.3 35.1 Q41.75 34.1 39.65 32.55 40.45 31.6 40.75 30.55 L40.85 30.5 40.75 30.45 40.95 29.15 Q41.0 26.3 38.2 24.35 36.0 22.85 33.1 22.6 L32.4 21.2 32.5 21.15 Q31.4 20.15 28.85 21.75 L28.4 22.05 28.15 21.8 26.65 20.85 Q28.45 18.7 28.45 15.95 28.5 12.55 25.85 10.35 25.0 9.6 24.05 9.1 L24.1 3.8 M31.55 21.8 L31.9 22.55 31.5 22.55 30.25 22.65 31.75 21.65 31.55 21.8 M17.6 27.75 L10.45 25.65 Q9.15 32.2 5.35 36.0 8.25 34.35 10.55 31.9 L10.3 31.9 Q10.5 30.4 13.45 30.0 L18.6 29.5 Q17.9 28.7 17.6 27.75" fill="none" stroke="#ffffff" stroke-linecap="round" stroke-linejoin="round" stroke-width="0.5"/>
    <path d="M182.7 35.85 L30.65 35.85 30.65 10.9 182.7 10.9 182.7 35.85" fill="#990000" fill-rule="evenodd" stroke="none"/>
    <path d="M47.0 18.7 L47.0 17.05 52.65 17.05 52.65 19.05 51.8 19.05 51.6 19.1 47.6 22.5 51.3 27.3 51.4 27.4 52.85 27.85 52.85 29.5 47.05 29.5 47.05 27.5 48.05 27.5 48.1 27.45 45.65 23.85 43.8 25.55 43.8 27.3 43.85 27.35 45.25 27.85 45.25 29.5 39.65 29.5 39.65 27.5 40.95 27.5 41.0 27.4 41.0 19.3 40.95 19.2 39.55 18.7 39.55 17.05 45.15 17.05 45.15 19.05 43.85 19.05 43.8 19.15 43.8 23.4 48.3 19.2 48.3 19.15 47.0 18.7" fill="#ffffff" fill-rule="evenodd" stroke="none"/>
    <path d="M66.35 23.0 Q66.35 24.95 65.9 26.3 65.45 27.55 64.6 28.4 L62.55 29.5 59.85 29.85 57.05 29.45 Q55.9 29.0 55.25 28.25 54.6 27.5 54.3 26.35 54.0 25.25 54.0 23.65 54.0 21.55 54.45 20.3 54.9 19.0 55.75 18.2 56.5 17.45 57.75 17.1 L60.45 16.8 63.25 17.15 65.1 18.35 Q65.75 19.1 66.05 20.3 L66.35 23.0 M61.8 18.95 L60.15 18.8 58.65 19.0 Q58.0 19.2 57.65 19.7 57.25 20.25 57.1 21.0 56.95 21.8 56.95 22.9 56.95 24.6 57.1 25.4 57.2 26.35 57.55 26.9 L58.55 27.55 60.2 27.75 61.7 27.55 62.65 26.85 63.25 25.55 63.4 23.65 63.25 21.15 62.8 19.7 Q62.4 19.15 61.8 18.95" fill="#ffffff" fill-rule="evenodd" stroke="none"/>
    <path d="M69.45 19.2 L68.0 18.7 68.0 17.05 73.3 17.05 78.0 26.65 78.35 26.65 78.35 19.3 78.35 19.2 76.65 18.7 76.65 17.05 81.95 17.05 81.95 19.05 80.65 19.05 80.6 19.1 80.6 29.75 77.0 29.75 72.0 19.8 71.7 19.8 71.7 27.25 71.7 27.35 73.4 27.85 73.4 29.5 68.1 29.5 68.1 27.5 69.4 27.5 69.45 27.45 69.45 19.3 69.45 19.2" fill="#ffffff" fill-rule="evenodd" stroke="none"/>
    <path d="M89.45 18.8 L87.95 19.05 87.0 19.8 Q86.65 20.3 86.5 21.1 L86.3 22.95 Q86.3 24.3 86.45 25.4 86.55 26.3 86.95 26.85 L88.0 27.55 89.65 27.75 90.75 27.7 91.6 27.5 91.6 25.3 91.55 25.25 89.8 24.8 89.8 23.15 95.5 23.15 95.5 25.1 94.2 25.1 94.15 25.2 94.15 26.95 95.35 27.3 95.35 28.8 92.6 29.5 89.4 29.85 86.55 29.45 Q85.35 29.05 84.7 28.3 84.0 27.55 83.7 26.35 83.4 25.15 83.4 23.65 83.4 21.7 83.85 20.35 84.3 19.0 85.1 18.25 85.95 17.45 87.1 17.1 L89.75 16.8 91.4 16.95 92.4 17.2 94.3 16.65 94.3 21.05 92.4 21.05 91.85 19.25 90.8 18.9 89.45 18.8" fill="#ffffff" fill-rule="evenodd" stroke="none"/>
    <path d="M107.55 22.95 Q106.85 23.85 105.6 24.3 L107.55 27.3 107.7 27.4 109.0 27.85 109.0 29.5 105.5 29.5 103.05 24.55 101.45 24.75 101.45 27.3 101.5 27.35 102.7 27.8 102.7 29.5 97.3 29.5 97.3 27.5 98.55 27.5 98.65 27.45 98.65 19.35 98.6 19.2 97.2 18.7 97.2 17.05 103.0 17.05 105.5 17.25 Q106.6 17.45 107.15 17.85 L108.0 18.95 108.25 20.55 Q108.25 22.1 107.55 22.95 M105.2 20.9 L105.1 20.05 104.7 19.45 103.95 19.15 102.65 19.05 101.45 19.05 101.45 23.0 102.8 23.15 104.6 22.4 Q105.2 21.95 105.2 20.9" fill="#ffffff" fill-rule="evenodd" stroke="none"/>
    <path d="M114.35 22.5 L115.6 22.5 116.0 22.4 116.2 22.2 116.35 21.95 116.65 21.0 118.25 21.0 117.8 25.4 116.4 25.4 116.15 24.4 116.05 24.2 115.85 24.05 115.55 24.0 114.35 24.0 114.35 27.5 117.15 27.45 118.3 27.35 118.9 27.0 119.2 26.35 119.65 25.15 121.75 25.15 121.35 29.5 110.2 29.5 110.2 27.5 111.5 27.5 111.55 27.4 111.55 19.3 111.5 19.2 110.1 18.7 110.1 17.05 121.5 17.05 121.5 21.45 119.5 21.45 119.15 20.0 118.95 19.5 Q118.9 19.35 118.45 19.2 L117.25 19.1 114.35 19.05 114.35 22.5" fill="#ffffff" fill-rule="evenodd" stroke="none"/>
    <path d="M131.9 19.25 L130.9 18.9 129.5 18.8 128.05 19.05 127.1 19.8 126.6 21.1 126.4 22.95 126.5 25.4 Q126.7 26.35 127.05 26.85 127.4 27.35 128.05 27.55 L129.75 27.75 130.85 27.7 131.65 27.5 131.65 25.3 131.6 25.25 129.85 24.8 129.85 23.15 135.55 23.15 135.55 25.1 134.3 25.1 134.2 25.2 134.2 26.95 135.4 27.3 135.4 28.8 132.65 29.5 129.5 29.85 126.6 29.45 Q125.45 29.05 124.75 28.3 124.05 27.5 123.75 26.35 123.5 25.3 123.5 23.65 123.5 21.6 123.9 20.35 124.35 19.05 125.15 18.25 126.0 17.45 127.15 17.1 L129.85 16.8 131.45 16.95 132.45 17.2 134.4 16.65 134.4 21.05 132.45 21.05 131.9 19.25" fill="#ffffff" fill-rule="evenodd" stroke="none"/>
    <path d="M149.5 29.5 L143.85 29.5 143.85 27.5 144.95 27.5 145.05 27.4 144.55 25.6 140.5 25.6 140.05 27.3 140.1 27.4 141.35 27.85 141.35 29.5 136.45 29.5 136.45 27.5 137.65 27.5 137.75 27.4 140.8 18.15 140.8 17.4 144.65 16.7 148.05 27.3 148.1 27.4 149.5 27.85 149.5 29.5 M142.4 19.1 L141.05 23.85 143.95 23.85 142.7 19.1 142.4 19.1" fill="#ffffff" fill-rule="evenodd" stroke="none"/>
    <path d="M157.15 18.95 L157.15 27.3 157.15 27.35 159.0 27.85 159.0 29.5 152.55 29.5 152.55 27.5 154.25 27.5 154.3 27.4 154.3 18.95 153.8 18.95 152.9 19.0 152.35 19.15 152.1 19.4 151.45 21.75 149.3 21.75 149.7 17.05 161.9 17.05 161.9 21.75 159.85 21.75 159.35 19.45 159.15 19.15 158.6 19.0 157.65 18.95 157.15 18.95" fill="#ffffff" fill-rule="evenodd" stroke="none"/>
    <path d="M174.85 21.45 L172.85 21.45 172.5 20.0 172.3 19.5 171.75 19.2 170.6 19.1 167.7 19.05 167.7 22.5 168.95 22.5 169.35 22.4 169.55 22.2 170.0 21.0 171.6 21.0 171.15 25.4 169.75 25.4 169.5 24.4 169.4 24.2 169.2 24.05 168.9 24.0 167.7 24.0 167.7 27.5 170.5 27.45 171.65 27.35 172.25 27.0 172.55 26.35 173.0 25.15 175.1 25.15 174.7 29.5 163.55 29.5 163.55 27.5 164.8 27.5 164.9 27.4 164.9 19.3 164.8 19.2 163.45 18.7 163.45 17.05 174.85 17.05 174.85 21.45" fill="#ffffff" fill-rule="evenodd" stroke="none"/>
    <path d="M181.7 34.85 L31.65 34.85 31.65 11.85 181.7 11.85 181.7 34.85 M180.7 33.85 L180.7 12.85 32.65 12.85 32.65 33.85 180.7 33.85" fill="#ffffff" fill-rule="evenodd" stroke="none"/>
  </g>
</svg>
