<?xml version="1.0" encoding="UTF-8" standalone="no"?>
<svg xmlns:xlink="http://www.w3.org/1999/xlink" height="71.0px" width="180.0px" xmlns="http://www.w3.org/2000/svg">
  <g transform="matrix(1.0, 0.0, 0.0, 1.0, 0.0, 0.0)">
    <path d="M180.0 71.0 L0.0 71.0 0.0 0.0 180.0 0.0 180.0 71.0 M28.8 13.3 Q26.65 11.2 24.15 10.1 21.05 8.7 17.5 8.7 10.9 8.7 6.15 13.3 1.5 18.0 1.5 24.7 1.5 31.3 6.15 35.95 10.4 40.2 16.15 40.65 L16.25 40.65 17.5 40.7 Q21.05 40.7 24.15 39.25 26.65 38.1 28.8 35.95 L31.05 33.2 Q32.8 30.45 33.35 27.2 L33.45 26.05 33.5 24.7 33.5 24.25 Q33.45 22.15 32.95 20.25 31.85 16.35 28.8 13.3" fill="#fede5f" fill-rule="evenodd" stroke="none"/>
  </g>
</svg>
