<?xml version="1.0" encoding="UTF-8" standalone="no"?>
<svg xmlns:xlink="http://www.w3.org/1999/xlink" height="32.0px" width="133.45px" xmlns="http://www.w3.org/2000/svg">
  <g transform="matrix(1.0, 0.0, 0.0, 1.0, -1.5, -8.7)">
    <path d="M33.5 24.7 L33.45 26.05 33.35 27.2 Q32.8 30.45 31.05 33.2 L28.8 35.95 Q26.65 38.1 24.15 39.25 21.05 40.7 17.5 40.7 L16.25 40.65 16.15 40.65 Q10.4 40.2 6.15 35.95 1.5 31.3 1.5 24.7 1.5 18.0 6.15 13.3 10.9 8.7 17.5 8.7 21.05 8.7 24.15 10.1 26.65 11.2 28.8 13.3 31.85 16.35 32.95 20.25 33.45 22.15 33.5 24.25 L33.5 24.7" fill="#633f1d" fill-opacity="0.4" fill-rule="evenodd" stroke="none"/>
    <path d="M131.7 25.3 L134.45 26.55 134.45 37.55 131.7 38.3" fill="none" stroke="#d0c18e" stroke-linecap="round" stroke-linejoin="round" stroke-width="1.0"/>
    <path d="M4.2 23.45 Q4.55 18.65 8.05 15.2 11.85 11.35 17.35 11.35 22.85 11.35 26.7 15.2 30.15 18.65 30.55 23.45 L4.2 23.45" fill="url(#gradient0)" fill-rule="evenodd" stroke="none"/>
    <path d="M30.55 23.45 L30.55 23.8 Q30.55 25.5 26.7 26.7 22.85 27.9 17.35 27.9 11.85 27.9 8.05 26.7 4.15 25.5 4.15 23.8 L4.2 23.45 30.55 23.45" fill="url(#gradient1)" fill-rule="evenodd" stroke="none"/>
  </g>
  <defs>
    <linearGradient gradientTransform="matrix(2.0E-4, 0.0161, -0.0161, 2.0E-4, 17.35, 24.55)" gradientUnits="userSpaceOnUse" id="gradient0" spreadMethod="pad" x1="-819.2" x2="819.2">
      <stop offset="0.0" stop-color="#fffce0" stop-opacity="0.5019608"/>
      <stop offset="1.0" stop-color="#fff4c1" stop-opacity="0.050980393"/>
    </linearGradient>
    <linearGradient gradientTransform="matrix(2.0E-4, 0.005, -0.0161, 0.0, 17.35, 23.8)" gradientUnits="userSpaceOnUse" id="gradient1" spreadMethod="pad" x1="-819.2" x2="819.2">
      <stop offset="0.0" stop-color="#fffce0" stop-opacity="0.5019608"/>
      <stop offset="1.0" stop-color="#fff4c1" stop-opacity="0.050980393"/>
    </linearGradient>
  </defs>
</svg>
