<?xml version="1.0" encoding="UTF-8" standalone="no"?>
<svg xmlns:xlink="http://www.w3.org/1999/xlink" height="47.9px" width="163.8px" xmlns="http://www.w3.org/2000/svg">
  <g transform="matrix(1.0, 0.0, 0.0, 1.0, -6.4, -13.6)">
    <path d="M112.8 48.0 L115.6 49.25 115.6 60.25 112.8 61.0" fill="none" stroke="#d0c18e" stroke-linecap="round" stroke-linejoin="round" stroke-width="1.0"/>
    <path d="M166.9 31.85 L169.65 33.1 169.65 44.1 166.9 44.85" fill="none" stroke="#d0c18e" stroke-linecap="round" stroke-linejoin="round" stroke-width="1.0"/>
    <path d="M166.9 48.0 L169.7 49.25 169.7 60.25 166.9 61.0" fill="none" stroke="#d0c18e" stroke-linecap="round" stroke-linejoin="round" stroke-width="1.0"/>
    <path d="M122.2 48.0 L119.4 49.25 119.4 60.25 122.2 61.0" fill="none" stroke="#d0c18e" stroke-linecap="round" stroke-linejoin="round" stroke-width="1.0"/>
    <path d="M6.5 36.25 Q7.15 27.3 13.7 20.8 20.8 13.6 31.15 13.6 41.4 13.6 48.65 20.8 55.15 27.3 55.85 36.25 L6.5 36.25" fill="url(#gradient0)" fill-rule="evenodd" stroke="none"/>
    <path d="M55.85 36.25 L55.9 36.95 Q55.9 40.1 48.65 42.35 41.4 44.6 31.15 44.6 20.8 44.6 13.7 42.35 6.4 40.1 6.4 36.95 L6.5 36.25 55.85 36.25" fill="url(#gradient1)" fill-rule="evenodd" stroke="none"/>
  </g>
  <defs>
    <linearGradient gradientTransform="matrix(3.0E-4, 0.0302, -0.0302, 3.0E-4, 31.15, 38.35)" gradientUnits="userSpaceOnUse" id="gradient0" spreadMethod="pad" x1="-819.2" x2="819.2">
      <stop offset="0.0" stop-color="#fffce0" stop-opacity="0.5019608"/>
      <stop offset="1.0" stop-color="#fff4c1" stop-opacity="0.050980393"/>
    </linearGradient>
    <linearGradient gradientTransform="matrix(3.0E-4, 0.0094, -0.0302, 1.0E-4, 31.15, 36.95)" gradientUnits="userSpaceOnUse" id="gradient1" spreadMethod="pad" x1="-819.2" x2="819.2">
      <stop offset="0.0" stop-color="#fffce0" stop-opacity="0.5019608"/>
      <stop offset="1.0" stop-color="#fff4c1" stop-opacity="0.050980393"/>
    </linearGradient>
  </defs>
</svg>
