<?xml version="1.0" encoding="UTF-8" standalone="no"?>
<svg xmlns:xlink="http://www.w3.org/1999/xlink" height="33.45px" width="111.0px" xmlns="http://www.w3.org/2000/svg">
  <g transform="matrix(1.0, 0.0, 0.0, 1.0, -59.4, -30.15)">
    <path d="M169.9 30.65 L169.9 39.95 59.9 39.95 59.9 30.65 169.9 30.65 M169.9 58.1 L169.9 63.1 59.9 63.1 59.9 58.1 169.9 58.1 M169.9 44.75 L169.9 54.05 59.9 54.05 59.9 44.75 169.9 44.75" fill="#222222" fill-opacity="0.3529412" fill-rule="evenodd" stroke="none"/>
    <path d="M169.9 30.65 L169.9 39.95 M59.9 39.95 L59.9 30.65 M169.9 58.1 L169.9 63.1 M59.9 63.1 L59.9 58.1 M169.9 44.75 L169.9 54.05 M59.9 54.05 L59.9 44.75" fill="none" stroke="#d0c18e" stroke-linecap="round" stroke-linejoin="round" stroke-width="1.0"/>
  </g>
</svg>
