<?xml version="1.0" encoding="UTF-8" standalone="no"?>
<svg xmlns:xlink="http://www.w3.org/1999/xlink" height="160.0px" width="160.0px" xmlns="http://www.w3.org/2000/svg">
  <g transform="matrix(1.0, 0.0, 0.0, 1.0, 80.0, 80.0)">
    <path d="M56.5 -56.6 Q79.3 -33.8 80.0 -1.9 L80.0 0.0 80.0 0.15 Q80.0 17.95 73.2 32.95 68.1 44.05 59.3 53.65 L56.5 56.55 Q33.6 79.55 1.35 80.0 L0.05 80.0 Q-33.15 80.0 -56.65 56.55 L-57.5 55.65 Q-79.95 32.55 -80.0 0.15 L-80.0 0.0 -79.95 -1.9 Q-79.35 -33.8 -56.65 -56.6 -33.15 -80.0 0.05 -80.0 L1.35 -80.0 Q32.95 -79.55 55.65 -57.5 L56.5 -56.6 M41.8 -43.05 Q24.8 -59.6 1.1 -59.95 L0.1 -59.95 0.05 -59.95 Q-24.05 -59.95 -41.3 -43.45 L-41.55 -43.2 -41.85 -42.95 -42.1 -42.65 -42.4 -42.4 Q-59.45 -25.3 -59.9 -1.35 L-59.95 0.05 -59.95 0.15 Q-59.9 24.45 -43.05 41.8 L-42.4 42.45 Q-24.8 60.05 0.05 60.05 L0.1 60.05 1.1 60.05 Q25.25 59.7 42.45 42.45 L44.55 40.3 Q51.15 33.1 54.95 24.75 L59.4 26.65 54.95 24.75 Q60.05 13.5 60.05 0.15 L60.05 0.05 60.05 -1.35 Q59.55 -25.3 42.45 -42.4 L41.8 -43.05 47.6 -48.85 41.8 -43.05 M0.1 -67.35 L0.1 -59.95 0.1 -67.35 M47.4 42.95 L44.55 40.3 47.4 42.95 M69.1 0.15 L60.05 0.15 69.1 0.15 M0.1 66.15 L0.1 60.05 0.1 66.15 M-65.4 0.15 L-59.95 0.15 -65.4 0.15 M-48.95 47.7 L-43.05 41.8 -48.95 47.7" fill="url(#gradient0)" fill-rule="evenodd" stroke="none"/>
    <path d="M0.1 -59.95 L1.1 -59.95 Q24.8 -59.6 41.8 -43.05 L34.75 -36.0 35.4 -35.35 Q49.55 -21.2 50.05 -1.35 L50.05 0.05 50.05 0.15 60.05 0.15 50.05 0.15 50.05 0.05 50.05 -1.35 Q49.55 -21.2 35.4 -35.35 L34.75 -36.0 41.8 -43.05 42.45 -42.4 Q59.55 -25.3 60.05 -1.35 L60.05 0.05 60.05 0.15 Q60.05 13.5 54.95 24.75 51.15 33.1 44.55 40.3 L37.2 33.45 Q42.6 27.6 45.75 20.75 L54.95 24.75 45.75 20.75 Q42.6 27.6 37.2 33.45 L44.55 40.3 42.45 42.45 Q25.25 59.7 1.1 60.05 L0.1 60.05 0.05 60.05 Q-24.8 60.05 -42.4 42.45 L-43.05 41.8 -35.95 34.75 -35.35 35.35 Q-31.8 38.9 -27.9 41.6 -20.5 46.7 -11.75 48.75 -6.15 50.05 0.05 50.05 L0.1 50.05 0.1 60.05 0.1 50.05 0.05 50.05 Q-6.15 50.05 -11.75 48.75 -20.5 46.7 -27.9 41.6 -31.8 38.9 -35.35 35.35 L-35.95 34.75 -43.05 41.8 Q-59.9 24.45 -59.95 0.15 L-59.95 0.05 -59.9 -1.35 Q-59.45 -25.3 -42.4 -42.4 L-42.1 -42.65 -41.85 -42.95 -41.55 -43.2 -41.3 -43.45 Q-24.05 -59.95 0.05 -59.95 L0.1 -59.95 0.1 -49.95 0.05 -49.95 Q-20.65 -49.95 -35.35 -35.35 -49.45 -21.2 -49.9 -1.35 L-49.95 0.05 -49.95 0.15 -59.95 0.15 -49.95 0.15 -49.95 0.05 -49.9 -1.35 Q-49.45 -21.2 -35.35 -35.35 -20.65 -49.95 0.05 -49.95 L0.1 -49.95 0.1 -59.95 M0.1 -29.95 L0.05 -29.95 -2.9 -29.8 0.1 -49.6 0.1 -49.95 0.15 -49.95 1.1 -49.95 Q20.65 -49.6 34.75 -36.0 L31.4 -32.6 28.4 -29.6 20.6 -21.8 Q12.4 -29.6 1.1 -29.9 L0.1 -29.95 0.1 -49.6 0.15 -49.95 0.1 -49.6 0.1 -29.95 1.1 -29.9 Q12.4 -29.6 20.6 -21.8 L28.4 -29.6 31.4 -32.6 34.75 -36.0 Q20.65 -49.6 1.1 -49.95 L0.15 -49.95 0.1 -49.95 0.1 -49.6 -2.9 -29.8 0.05 -29.95 0.1 -29.95 M28.4 -29.6 L41.65 0.15 46.05 0.15 50.05 0.15 Q50.05 11.35 45.75 20.75 L27.3 12.85 Q30.05 7.05 30.05 0.15 L41.65 0.15 30.05 0.15 Q30.05 7.05 27.3 12.85 L45.75 20.75 Q50.05 11.35 50.05 0.15 L46.05 0.15 41.65 0.15 28.4 -29.6 M20.6 -21.8 L21.25 -21.15 Q29.55 -12.85 30.05 -1.35 L30.05 0.05 30.05 0.15 29.45 0.15 12.5 -5.1 20.8 -20.8 5.1 -12.5 -0.1 -29.45 -5.35 -12.5 -21.05 -20.8 -12.75 -5.1 -29.7 0.15 -29.95 0.15 -29.95 0.05 -29.9 -1.35 -29.8 -3.0 -29.3 -6.35 Q-28.7 -9.35 -27.45 -12.05 L-25.85 -15.1 Q-24.35 -17.7 -22.25 -20.0 L-21.15 -21.15 -19.9 -22.35 Q-17.55 -24.45 -15.0 -25.95 -13.55 -26.85 -11.95 -27.5 -9.25 -28.75 -6.25 -29.35 L-2.9 -29.8 -6.25 -29.35 Q-9.25 -28.75 -11.95 -27.5 -13.55 -26.85 -15.0 -25.95 -17.55 -24.45 -19.9 -22.35 L-21.15 -21.15 -22.25 -20.0 Q-24.35 -17.7 -25.85 -15.1 L-27.45 -12.05 Q-28.7 -9.35 -29.3 -6.35 L-29.8 -3.0 -29.9 -1.35 -29.95 0.05 -29.95 0.15 -29.7 0.15 -12.75 -5.1 -21.05 -20.8 -5.35 -12.5 -0.1 -29.45 5.1 -12.5 20.8 -20.8 12.5 -5.1 29.45 0.15 30.05 0.15 30.05 0.05 30.05 -1.35 Q29.55 -12.85 21.25 -21.15 L20.6 -21.8 M22.6 19.85 L37.2 33.45 35.4 35.35 Q21.1 49.7 1.1 50.05 L0.1 50.05 0.1 30.05 0.05 30.05 Q-4.0 30.05 -7.6 29.15 -12.3 27.9 -16.35 25.2 -18.85 23.55 -21.15 21.25 L-21.8 20.6 -19.65 18.4 -21.05 21.05 -5.35 12.75 -0.1 29.7 0.1 29.05 5.1 12.75 20.8 21.05 12.5 5.35 29.45 0.15 12.5 5.35 20.8 21.05 5.1 12.75 0.1 29.05 0.1 30.05 1.1 30.05 Q12.85 29.7 21.25 21.25 L22.6 19.85 Q25.5 16.55 27.3 12.85 25.5 16.55 22.6 19.85 L21.25 21.25 Q12.85 29.7 1.1 30.05 L0.1 30.05 0.1 29.05 -0.1 29.7 -5.35 12.75 -21.05 21.05 -19.65 18.4 -21.8 20.6 -21.15 21.25 Q-18.85 23.55 -16.35 25.2 -12.3 27.9 -7.6 29.15 -4.0 30.05 0.05 30.05 L0.1 30.05 0.1 50.05 1.1 50.05 Q21.1 49.7 35.4 35.35 L37.2 33.45 22.6 19.85 M-7.6 29.15 Q-12.05 33.75 -9.75 39.25 -5.9 43.5 -11.75 48.75 -5.9 43.5 -9.75 39.25 -12.05 33.75 -7.6 29.15 M-27.9 41.6 Q-19.35 39.05 -22.05 33.3 -24.7 28.8 -16.35 25.2 -24.7 28.8 -22.05 33.3 -19.35 39.05 -27.9 41.6 M-29.95 0.15 L-49.95 0.15 Q-49.9 20.35 -35.95 34.75 L-21.8 20.6 Q-29.9 12.05 -29.95 0.15 -29.9 12.05 -21.8 20.6 L-35.95 34.75 Q-49.9 20.35 -49.95 0.15 L-29.95 0.15 M-19.65 18.4 L-12.75 5.35 -29.7 0.15 -12.75 5.35 -19.65 18.4 M-27.45 -12.05 L-47.4 -15.4 -29.3 -6.35 -47.4 -15.4 -27.45 -12.05 M-15.0 -25.95 L-29.25 -40.4 -19.9 -22.35 -29.25 -40.4 -15.0 -25.95 M-22.25 -20.0 L-40.3 -29.35 -25.85 -15.1 -40.3 -29.35 -22.25 -20.0 M-6.25 -29.35 L-15.3 -47.5 -11.95 -27.5 -15.3 -47.5 -6.25 -29.35 M46.05 0.15 L31.4 -32.6 46.05 0.15 M-29.8 -3.0 L-49.95 0.05 -29.8 -3.0" fill="url(#gradient1)" fill-rule="evenodd" stroke="none"/>
    <path d="M0.1 -59.95 L1.1 -59.95 Q24.8 -59.6 41.8 -43.05 L47.6 -48.85 M0.15 -49.95 L0.1 -49.6 0.1 -29.95 1.1 -29.9 Q12.4 -29.6 20.6 -21.8 L28.4 -29.6 31.4 -32.6 34.75 -36.0 Q20.65 -49.6 1.1 -49.95 L0.15 -49.95 0.1 -49.95 0.1 -49.6 -2.9 -29.8 0.05 -29.95 0.1 -29.95 M0.1 -59.95 L0.05 -59.95 Q-24.05 -59.95 -41.3 -43.45 L-41.55 -43.2 -41.85 -42.95 -42.1 -42.65 -42.4 -42.4 Q-59.45 -25.3 -59.9 -1.35 L-59.95 0.05 -59.95 0.15 -49.95 0.15 -49.95 0.05 -49.9 -1.35 Q-49.45 -21.2 -35.35 -35.35 -20.65 -49.95 0.05 -49.95 L0.1 -49.95 0.1 -59.95 0.1 -67.35 M41.8 -43.05 L34.75 -36.0 35.4 -35.35 Q49.55 -21.2 50.05 -1.35 L50.05 0.05 50.05 0.15 60.05 0.15 60.05 0.05 60.05 -1.35 Q59.55 -25.3 42.45 -42.4 L41.8 -43.05 M-2.9 -29.8 L-6.25 -29.35 Q-9.25 -28.75 -11.95 -27.5 -13.55 -26.85 -15.0 -25.95 -17.55 -24.45 -19.9 -22.35 L-21.15 -21.15 -22.25 -20.0 Q-24.35 -17.7 -25.85 -15.1 L-27.45 -12.05 Q-28.7 -9.35 -29.3 -6.35 L-29.8 -3.0 -29.9 -1.35 -29.95 0.05 -29.95 0.15 -29.7 0.15 -12.75 -5.1 -21.05 -20.8 -5.35 -12.5 -0.1 -29.45 5.1 -12.5 20.8 -20.8 12.5 -5.1 29.45 0.15 30.05 0.15 30.05 0.05 30.05 -1.35 Q29.55 -12.85 21.25 -21.15 L20.6 -21.8 M41.65 0.15 L30.05 0.15 Q30.05 7.05 27.3 12.85 L45.75 20.75 Q50.05 11.35 50.05 0.15 L46.05 0.15 41.65 0.15 28.4 -29.6 M44.55 40.3 Q51.15 33.1 54.95 24.75 L45.75 20.75 Q42.6 27.6 37.2 33.45 L44.55 40.3 47.4 42.95 M0.1 60.05 L1.1 60.05 Q25.25 59.7 42.45 42.45 L44.55 40.3 M54.95 24.75 L59.4 26.65 M54.95 24.75 Q60.05 13.5 60.05 0.15 L69.1 0.15 M29.45 0.15 L12.5 5.35 20.8 21.05 5.1 12.75 0.1 29.05 0.1 30.05 1.1 30.05 Q12.85 29.7 21.25 21.25 L22.6 19.85 Q25.5 16.55 27.3 12.85 M0.1 29.05 L-0.1 29.7 -5.35 12.75 -21.05 21.05 -19.65 18.4 -21.8 20.6 -21.15 21.25 Q-18.85 23.55 -16.35 25.2 -12.3 27.9 -7.6 29.15 -4.0 30.05 0.05 30.05 L0.1 30.05 0.1 50.05 1.1 50.05 Q21.1 49.7 35.4 35.35 L37.2 33.45 22.6 19.85 M-43.05 41.8 L-42.4 42.45 Q-24.8 60.05 0.05 60.05 L0.1 60.05 0.1 50.05 0.05 50.05 Q-6.15 50.05 -11.75 48.75 -20.5 46.7 -27.9 41.6 -31.8 38.9 -35.35 35.35 L-35.95 34.75 -43.05 41.8 Q-59.9 24.45 -59.95 0.15 L-65.4 0.15 M0.1 60.05 L0.1 66.15 M31.4 -32.6 L46.05 0.15 M-11.95 -27.5 L-15.3 -47.5 -6.25 -29.35 M-25.85 -15.1 L-40.3 -29.35 -22.25 -20.0 M-19.9 -22.35 L-29.25 -40.4 -15.0 -25.95 M-29.3 -6.35 L-47.4 -15.4 -27.45 -12.05 M-29.7 0.15 L-12.75 5.35 -19.65 18.4 M-29.95 0.15 Q-29.9 12.05 -21.8 20.6 L-35.95 34.75 Q-49.9 20.35 -49.95 0.15 L-29.95 0.15 M-16.35 25.2 Q-24.7 28.8 -22.05 33.3 -19.35 39.05 -27.9 41.6 M-11.75 48.75 Q-5.9 43.5 -9.75 39.25 -12.05 33.75 -7.6 29.15 M-43.05 41.8 L-48.95 47.7 M-49.95 0.05 L-29.8 -3.0" fill="none" stroke="#cccc00" stroke-linecap="round" stroke-linejoin="round" stroke-opacity="0.4" stroke-width="0.05"/>
  </g>
  <defs>
    <radialGradient cx="0" cy="0" gradientTransform="matrix(0.0968, 0.0, 0.0, 0.0968, -0.1, 0.15)" gradientUnits="userSpaceOnUse" id="gradient0" r="819.2" spreadMethod="pad">
      <stop offset="0.0" stop-color="#e38902" stop-opacity="0.4"/>
      <stop offset="0.7137254901960784" stop-color="#63c102" stop-opacity="0.57254905"/>
      <stop offset="1.0" stop-color="#336600" stop-opacity="0.0"/>
    </radialGradient>
    <radialGradient cx="0" cy="0" gradientTransform="matrix(0.0722, 0.0, 0.0, 0.0722, -0.1, 0.15)" gradientUnits="userSpaceOnUse" id="gradient1" r="819.2" spreadMethod="pad">
      <stop offset="0.0" stop-color="#e38902" stop-opacity="0.4"/>
      <stop offset="1.0" stop-color="#336600" stop-opacity="0.5019608"/>
    </radialGradient>
  </defs>
</svg>
