<?xml version="1.0" encoding="UTF-8" standalone="no"?>
<svg xmlns:xlink="http://www.w3.org/1999/xlink" height="39.0px" width="763.9px" xmlns="http://www.w3.org/2000/svg">
  <g transform="matrix(1.0, 0.0, 0.0, 1.0, 722.8, 342.5)">
    <path d="M40.6 -342.0 L40.6 -304.0 -22.5 -304.0 -22.5 -304.1 -22.05 -304.55 -11.65 -322.95 -22.05 -341.35 -22.5 -341.8 -22.7 -342.0 40.6 -342.0 M-722.3 -342.0 L-688.7 -342.0 -682.6 -342.0 -682.4 -341.8 -681.95 -341.35 -675.2 -329.4 -671.55 -322.95 -675.2 -316.5 -681.95 -304.55 -682.4 -304.1 -682.55 -304.0 -688.7 -304.0 -722.3 -304.0 -722.3 -342.0" fill="#180e0a" fill-opacity="0.8" fill-rule="evenodd" stroke="none"/>
    <path d="M40.6 -304.0 L-22.5 -304.0 -22.65 -304.0 -22.5 -304.1 -22.05 -304.55 -11.65 -322.95 -22.05 -341.35 -22.5 -341.8 -22.7 -342.0 40.6 -342.0 M-722.3 -342.0 L-688.7 -342.0 -682.6 -342.0 -682.4 -341.8 -681.95 -341.35 -675.2 -329.4 -671.55 -322.95 -675.2 -316.5 -681.95 -304.55 -682.4 -304.1 -682.55 -304.0 -688.7 -304.0 -722.3 -304.0" fill="none" stroke="#d0c18e" stroke-linecap="round" stroke-linejoin="round" stroke-width="1.0"/>
    <path d="M-704.65 -332.95 L-704.4 -333.05 -704.15 -333.05 -703.9 -333.05 -703.75 -333.1 Q-703.45 -333.1 -703.45 -332.8 L-703.45 -325.85 Q-703.45 -325.65 -703.75 -325.6 L-703.95 -325.55 -704.2 -325.5 -704.45 -325.5 -704.55 -325.5 -704.85 -325.8 -704.85 -326.2 Q-705.3 -325.85 -705.95 -325.65 L-707.3 -325.45 -708.1 -325.55 -708.75 -325.9 -709.2 -326.5 -709.4 -327.4 -709.4 -331.9 -709.4 -332.1 -709.45 -332.25 -709.6 -332.3 -709.75 -332.3 -710.1 -332.3 -710.2 -332.9 -709.4 -333.0 -708.9 -333.1 -708.5 -333.1 -708.3 -333.1 -707.95 -332.8 -707.95 -328.1 -707.9 -327.25 -707.55 -326.75 -707.1 -326.5 -706.5 -326.45 -705.65 -326.6 -704.85 -326.9 -704.85 -332.65 -704.65 -332.95 M-710.45 -332.55 L-710.4 -332.25 -710.4 -331.85 -710.4 -331.5 -710.4 -331.25 -710.35 -331.0 -710.9 -331.0 -711.1 -331.75 -711.35 -332.1 -711.75 -332.25 -712.35 -332.25 -713.05 -332.25 -713.05 -325.85 Q-713.05 -325.65 -713.3 -325.6 L-713.5 -325.55 -713.75 -325.5 -714.0 -325.5 -714.15 -325.5 -714.45 -325.8 -714.45 -332.25 -715.05 -332.25 -715.7 -332.25 -716.1 -332.1 -716.35 -331.75 -716.6 -331.0 -717.1 -331.0 -717.1 -331.25 -717.1 -331.55 -717.05 -331.85 -717.0 -332.25 -717.0 -332.55 -717.0 -332.8 -716.8 -333.0 -715.75 -333.0 -714.75 -333.0 -712.7 -333.0 -711.65 -333.0 -710.6 -333.0 -710.45 -332.8 -710.45 -332.55 M-696.4 -331.3 L-696.55 -330.6 -696.85 -330.0 -697.4 -329.6 -697.7 -329.4 -697.3 -329.15 -697.0 -328.85 -696.75 -328.35 -696.25 -326.9 -696.1 -326.5 -696.0 -326.3 -695.8 -326.15 -695.45 -326.15 -695.45 -325.6 -695.8 -325.5 -696.1 -325.5 -696.35 -325.45 -696.5 -325.45 -696.9 -325.5 -697.25 -325.7 -697.45 -326.05 -697.65 -326.55 -698.05 -328.05 -698.25 -328.55 -698.6 -328.75 -699.0 -328.9 -699.75 -328.95 -699.85 -329.55 -698.9 -329.65 -698.35 -329.95 -698.0 -330.4 Q-697.85 -330.7 -697.85 -331.1 L-698.05 -331.7 -698.35 -332.1 -698.9 -332.35 -699.55 -332.45 -699.85 -332.4 -699.9 -332.25 -699.9 -325.85 Q-699.9 -325.65 -700.15 -325.6 L-700.35 -325.55 -700.65 -325.5 -700.9 -325.5 -701.05 -325.5 -701.3 -325.8 -701.3 -332.0 -701.4 -332.3 -701.65 -332.35 -702.05 -332.35 -702.1 -332.9 -700.75 -333.1 -699.35 -333.2 -698.7 -333.15 -698.05 -333.1 -697.45 -332.9 -696.9 -332.5 -696.55 -332.05 -696.4 -331.3 M-695.35 -332.9 L-695.15 -333.1 -694.85 -333.15 -694.55 -333.2 -694.2 -333.25 -694.05 -333.25 -693.9 -333.2 -693.75 -333.0 -689.75 -327.45 -689.85 -332.85 -689.7 -333.05 -689.4 -333.1 -689.0 -333.1 -688.8 -332.95 -688.9 -325.75 -689.15 -325.55 -689.4 -325.5 -689.65 -325.5 -689.85 -325.55 -689.95 -325.65 -693.95 -331.3 -693.85 -325.65 Q-693.85 -325.55 -694.05 -325.55 L-694.35 -325.5 -694.75 -325.5 -694.95 -325.7 -694.75 -332.1 -695.25 -332.75 -695.35 -332.9 M-712.75 -321.8 L-711.25 -321.55 Q-710.6 -321.35 -710.1 -320.85 L-709.4 -319.65 Q-709.15 -318.95 -709.15 -318.05 -709.15 -317.1 -709.4 -316.4 -709.7 -315.6 -710.2 -315.1 -710.75 -314.6 -711.5 -314.35 L-713.1 -314.1 -714.6 -314.35 Q-715.3 -314.6 -715.8 -315.1 L-716.5 -316.3 -716.75 -317.85 -716.45 -319.6 -715.65 -320.8 -714.35 -321.55 -712.75 -321.8 M-714.7 -320.2 L-715.1 -319.3 -715.2 -318.25 -715.05 -316.95 -714.65 -315.9 -713.9 -315.15 Q-713.45 -314.85 -712.8 -314.85 -712.25 -314.85 -711.85 -315.1 -711.45 -315.35 -711.2 -315.75 L-710.8 -316.65 Q-710.65 -317.2 -710.65 -317.75 -710.65 -318.35 -710.8 -318.95 L-711.25 -320.05 -711.95 -320.75 -713.05 -321.05 -714.0 -320.85 -714.7 -320.2 M-697.05 -321.75 L-696.0 -321.55 -695.05 -321.1 -694.3 -320.4 -693.8 -319.45 Q-693.65 -318.85 -693.65 -318.15 -693.65 -317.2 -693.95 -316.45 L-694.95 -315.15 -696.4 -314.4 -698.2 -314.15 -698.7 -314.15 -699.1 -314.2 -699.55 -314.25 -700.15 -314.25 Q-700.35 -314.25 -700.35 -314.55 L-700.35 -320.6 -700.5 -320.95 -700.75 -321.0 -701.15 -320.95 -701.15 -321.55 -699.7 -321.75 -698.25 -321.8 -697.05 -321.75 M-696.9 -320.85 L-698.25 -321.05 -698.55 -321.05 -698.9 -321.05 -699.0 -320.9 -699.0 -314.95 -698.65 -314.9 -698.15 -314.9 -696.85 -315.1 -695.95 -315.75 Q-695.6 -316.1 -695.4 -316.7 L-695.2 -318.0 -695.4 -319.25 -696.0 -320.2 -696.9 -320.85 M-702.55 -319.25 L-702.85 -318.65 -703.4 -318.25 -703.7 -318.05 -703.3 -317.85 -703.0 -317.5 -702.75 -317.0 -702.25 -315.6 -702.1 -315.15 -702.0 -314.95 -701.8 -314.8 -701.45 -314.8 -701.45 -314.25 -701.8 -314.15 -702.1 -314.15 -702.35 -314.15 -702.5 -314.15 -702.9 -314.15 -703.2 -314.35 -703.45 -314.7 -703.65 -315.2 -704.05 -316.7 -704.25 -317.2 -704.6 -317.45 -705.0 -317.55 -705.75 -317.6 -705.85 -318.2 -704.9 -318.3 -704.35 -318.6 -704.0 -319.1 Q-703.85 -319.35 -703.85 -319.75 L-704.05 -320.35 -704.35 -320.75 -704.85 -321.0 -705.55 -321.1 -705.85 -321.05 -705.9 -320.95 -705.9 -314.55 Q-705.9 -314.3 -706.15 -314.25 L-706.35 -314.2 -706.65 -314.15 -706.9 -314.15 -707.05 -314.15 -707.3 -314.45 -707.3 -320.65 -707.4 -320.95 -707.65 -321.0 -708.05 -321.0 -708.1 -321.55 -706.7 -321.75 -705.35 -321.85 -704.7 -321.8 -704.05 -321.75 -703.4 -321.55 -702.9 -321.15 -702.55 -320.7 -702.4 -319.95 Q-702.4 -319.55 -702.55 -319.25 M-682.4 -319.95 L-682.6 -319.25 -682.9 -318.65 -683.45 -318.25 -683.75 -318.05 -683.35 -317.85 -683.05 -317.5 -682.8 -317.0 -682.3 -315.6 -682.15 -315.15 -682.0 -314.95 -681.85 -314.8 -681.5 -314.8 -681.5 -314.25 -681.85 -314.15 -682.15 -314.15 -682.4 -314.15 -682.55 -314.15 -682.95 -314.15 -683.25 -314.35 -683.5 -314.7 -683.7 -315.2 -684.1 -316.7 -684.3 -317.2 -684.65 -317.45 -685.05 -317.55 -685.8 -317.6 -685.9 -318.2 -684.95 -318.3 -684.4 -318.6 -684.05 -319.1 Q-683.9 -319.35 -683.9 -319.75 L-684.05 -320.35 -684.4 -320.75 -684.9 -321.0 -685.6 -321.1 -685.9 -321.05 -685.95 -320.95 -685.95 -314.55 -686.2 -314.25 -686.4 -314.2 -686.7 -314.15 -686.95 -314.15 -687.1 -314.15 Q-687.35 -314.15 -687.35 -314.45 L-687.35 -320.65 -687.45 -320.95 -687.7 -321.0 -688.1 -321.0 -688.15 -321.55 -686.75 -321.75 -685.4 -321.85 -684.75 -321.8 -684.1 -321.75 -683.45 -321.55 -682.95 -321.15 -682.6 -320.7 -682.4 -319.95 M-688.6 -321.45 L-688.6 -321.2 -688.55 -320.9 -688.55 -320.55 -688.55 -320.25 -688.5 -319.95 -688.5 -319.7 -689.05 -319.7 -689.25 -320.45 -689.5 -320.75 -689.9 -320.85 -690.5 -320.9 -691.75 -320.9 -691.75 -318.4 -690.95 -318.45 -690.25 -318.45 -689.7 -318.5 -689.45 -318.5 -689.2 -318.2 -689.2 -317.95 -689.2 -317.6 -691.75 -317.65 -691.75 -315.35 -691.7 -315.15 -691.7 -315.05 -691.65 -315.0 -691.45 -315.0 -690.65 -315.0 -689.85 -315.05 -689.4 -315.15 -689.0 -315.55 -688.6 -316.3 -688.1 -316.2 -688.15 -315.9 -688.2 -315.45 -688.35 -314.95 -688.4 -314.55 Q-688.55 -314.25 -688.85 -314.25 L-689.4 -314.25 -690.1 -314.25 -690.9 -314.25 -691.85 -314.25 -692.9 -314.25 -693.1 -314.35 -693.1 -314.55 -693.1 -320.45 Q-693.1 -320.7 -693.25 -320.75 L-693.55 -320.85 -693.9 -320.8 -693.95 -321.35 -693.45 -321.5 -692.95 -321.55 -692.4 -321.6 -692.0 -321.65 -689.8 -321.65 -689.25 -321.65 -688.75 -321.65 Q-688.6 -321.65 -688.6 -321.45" fill="#d0c18e" fill-rule="evenodd" stroke="none"/>
  </g>
</svg>
