<?xml version="1.0" encoding="UTF-8" standalone="no"?>
<svg xmlns:xlink="http://www.w3.org/1999/xlink" height="37.0px" width="218.8px" xmlns="http://www.w3.org/2000/svg">
  <g transform="matrix(1.0, 0.0, 0.0, 1.0, 230.5, 18.5)">
    <path d="M-199.3 12.7 Q-194.0 7.45 -194.0 0.0 L-194.1 -2.3 -12.2 -2.3 -12.2 12.7 -199.3 12.7" fill="url(#gradient0)" fill-rule="evenodd" stroke="none"/>
    <path d="M-12.2 12.7 L-199.3 12.7" fill="none" stroke="#a5cdfe" stroke-linecap="round" stroke-linejoin="round" stroke-width="1.0"/>
    <path d="M-212.0 -18.0 Q-204.55 -18.0 -199.3 -12.75 -194.85 -8.3 -194.1 -2.3 L-194.0 0.0 Q-194.0 7.45 -199.3 12.7 -204.55 18.0 -212.0 18.0 -219.5 18.0 -224.75 12.7 -230.0 7.45 -230.0 0.0 -230.0 -7.5 -224.75 -12.75 -219.5 -18.0 -212.0 -18.0" fill="url(#gradient1)" fill-rule="evenodd" stroke="none"/>
    <path d="M-212.0 -18.0 Q-204.55 -18.0 -199.3 -12.75 -194.85 -8.3 -194.1 -2.3 L-194.0 0.0 Q-194.0 7.45 -199.3 12.7 -204.55 18.0 -212.0 18.0 -219.5 18.0 -224.75 12.7 -230.0 7.45 -230.0 0.0 -230.0 -7.5 -224.75 -12.75 -219.5 -18.0 -212.0 -18.0 Z" fill="none" stroke="#a5cdfe" stroke-linecap="round" stroke-linejoin="round" stroke-width="1.0"/>
  </g>
  <defs>
    <linearGradient gradientTransform="matrix(-0.1246, 0.0, 0.0, 0.0092, -110.15, 5.2)" gradientUnits="userSpaceOnUse" id="gradient0" spreadMethod="pad" x1="-819.2" x2="819.2">
      <stop offset="0.0" stop-color="#4926d9" stop-opacity="0.0"/>
      <stop offset="1.0" stop-color="#06529b" stop-opacity="0.72156864"/>
    </linearGradient>
    <radialGradient cx="0" cy="0" gradientTransform="matrix(0.0231, 0.0, 0.0, 0.0231, -212.0, 0.0)" gradientUnits="userSpaceOnUse" id="gradient1" r="819.2" spreadMethod="pad">
      <stop offset="0.6745098039215687" stop-color="#253a6b"/>
      <stop offset="0.8823529411764706" stop-color="#06529b"/>
    </radialGradient>
  </defs>
</svg>
