<?xml version="1.0" encoding="UTF-8" standalone="no"?>
<svg xmlns:xlink="http://www.w3.org/1999/xlink" height="64.0px" width="64.0px" xmlns="http://www.w3.org/2000/svg">
  <g transform="matrix(1.0, 0.0, 0.0, 1.0, 32.0, 32.0)">
    <path d="M22.6 -22.65 Q32.0 -13.25 32.0 0.0 32.0 13.3 22.6 22.65 13.25 32.0 0.0 32.0 -13.3 32.0 -22.65 22.65 -32.0 13.3 -32.0 0.0 -32.0 -13.25 -22.65 -22.65 -13.3 -32.0 0.0 -32.0 13.25 -32.0 22.6 -22.65 M12.7 -12.75 Q7.45 -18.0 0.0 -18.0 -7.5 -18.0 -12.8 -12.75 -18.0 -7.45 -18.0 0.0 -18.0 7.5 -12.8 12.7 -7.5 18.0 0.0 18.0 7.45 18.0 12.7 12.7 18.0 7.5 18.0 0.0 18.0 -7.45 12.7 -12.75" fill="url(#gradient0)" fill-rule="evenodd" stroke="none"/>
  </g>
  <defs>
    <radialGradient cx="0" cy="0" gradientTransform="matrix(0.0399, 0.0, 0.0, 0.0399, 0.0, 0.0)" gradientUnits="userSpaceOnUse" id="gradient0" r="819.2" spreadMethod="pad">
      <stop offset="0.3764705882352941" stop-color="#3463d6" stop-opacity="0.5019608"/>
      <stop offset="0.8392156862745098" stop-color="#84c7f2" stop-opacity="0.0"/>
    </radialGradient>
  </defs>
</svg>
