<?xml version="1.0" encoding="UTF-8" standalone="no"?>
<svg xmlns:xlink="http://www.w3.org/1999/xlink" height="362.0px" width="722.0px" xmlns="http://www.w3.org/2000/svg">
  <g transform="matrix(1.0, 0.0, 0.0, 1.0, 1.0, 1.0)">
    <path d="M177.0 360.0 L25.0 360.0 25.0 0.0 177.0 0.0 177.0 301.0 177.0 360.0" fill="#180e0a" fill-rule="evenodd" stroke="none"/>
    <path d="M720.0 62.0 L720.0 301.0 177.0 301.0 177.0 0.0 363.0 0.0 425.0 62.0 720.0 62.0 M25.0 360.0 L0.0 360.0 0.0 0.0 25.0 0.0 25.0 360.0" fill="url(#gradient0)" fill-rule="evenodd" stroke="none"/>
    <path d="M720.0 0.0 L720.0 62.0 425.0 62.0 363.0 0.0 720.0 0.0 M720.0 301.0 L720.0 360.0 177.0 360.0 177.0 301.0 720.0 301.0" fill="url(#gradient1)" fill-rule="evenodd" stroke="none"/>
    <path d="M720.0 360.0 L177.0 360.0 25.0 360.0 0.0 360.0 M0.0 0.0 L25.0 0.0 177.0 0.0 363.0 0.0 720.0 0.0 M720.0 62.0 L425.0 62.0 363.0 0.0 M177.0 360.0 L177.0 301.0 177.0 0.0 M25.0 0.0 L25.0 360.0 M177.0 301.0 L720.0 301.0" fill="none" stroke="#443322" stroke-linecap="round" stroke-linejoin="round" stroke-width="2.0"/>
  </g>
  <defs>
    <linearGradient gradientTransform="matrix(0.3582, 0.2817, -0.1235, 0.1761, 360.0, 180.0)" gradientUnits="userSpaceOnUse" id="gradient0" spreadMethod="pad" x1="-819.2" x2="819.2">
      <stop offset="0.0" stop-color="#180e0a" stop-opacity="0.9019608"/>
      <stop offset="1.0" stop-color="#6f5c35" stop-opacity="0.9529412"/>
    </linearGradient>
    <linearGradient gradientTransform="matrix(0.3582, 0.2817, -0.1235, 0.1761, 360.0, 180.0)" gradientUnits="userSpaceOnUse" id="gradient1" spreadMethod="pad" x1="-819.2" x2="819.2">
      <stop offset="0.0" stop-color="#000000" stop-opacity="0.9529412"/>
      <stop offset="1.0" stop-color="#7a511c" stop-opacity="0.9529412"/>
    </linearGradient>
  </defs>
</svg>
