<?xml version="1.0" encoding="UTF-8" standalone="no"?>
<svg xmlns:xlink="http://www.w3.org/1999/xlink" height="19.3px" width="81.1px" xmlns="http://www.w3.org/2000/svg">
  <g transform="matrix(1.0, 0.0, 0.0, 1.0, -120.8, -24.75)">
    <path d="M182.45 31.9 L180.35 27.15 180.35 31.9 177.2 31.9 177.2 25.0 181.9 25.0 185.2 31.9 182.45 31.9 M180.35 36.5 L180.35 43.8 177.2 43.8 177.2 36.5 180.35 36.5 M153.4 31.9 L153.4 31.3 Q153.4 27.65 155.3 26.15 157.2 24.75 162.0 24.75 L164.9 24.75 Q169.75 24.75 171.65 26.15 173.6 27.6 173.6 31.3 L173.6 31.9 170.2 31.9 170.2 31.75 170.0 29.1 Q169.7 28.35 169.1 27.95 168.45 27.55 167.5 27.3 L164.2 27.15 162.7 27.15 159.4 27.35 Q158.45 27.55 157.8 28.0 157.2 28.4 156.9 29.1 L156.7 31.8 156.7 31.9 153.4 31.9 M173.6 36.5 L173.6 37.5 Q173.6 41.15 171.6 42.55 169.7 44.05 164.9 44.05 L162.0 44.05 Q157.2 44.05 155.3 42.55 153.4 41.15 153.4 37.5 L153.4 36.5 156.7 36.5 156.7 37.0 156.9 39.65 157.8 40.75 Q158.45 41.25 159.4 41.4 L162.7 41.65 164.2 41.65 167.5 41.4 Q168.45 41.25 169.1 40.75 169.75 40.35 170.0 39.65 L170.2 37.0 170.2 36.5 173.6 36.5 M194.0 31.9 L197.15 25.0 201.9 25.0 201.9 31.9 198.75 31.9 198.75 27.15 196.7 31.9 194.0 31.9 M201.9 36.5 L201.9 43.8 198.75 43.8 198.75 36.5 201.9 36.5 M187.3 36.5 L189.6 41.3 191.85 36.5 194.65 36.5 191.35 43.8 187.75 43.8 184.5 36.5 187.3 36.5 M131.95 31.9 L131.95 31.3 Q131.95 27.6 133.75 26.15 135.5 24.75 139.95 24.75 L142.6 24.75 Q147.0 24.75 148.85 25.95 150.7 27.25 150.7 30.15 L150.7 31.25 147.4 31.25 147.4 30.5 Q147.4 28.55 146.45 27.8 145.4 27.15 142.45 27.15 L140.7 27.15 137.75 27.3 136.35 27.8 Q135.7 28.35 135.5 29.05 135.25 29.75 135.25 31.75 L135.25 31.9 131.95 31.9 M135.25 36.5 L135.25 37.0 Q135.25 39.0 135.5 39.7 135.7 40.4 136.35 40.95 L137.7 41.4 140.7 41.65 142.45 41.65 Q145.45 41.65 146.45 40.9 147.4 40.15 147.4 38.0 L147.4 37.5 147.4 36.9 150.7 36.9 150.7 38.4 Q150.7 41.45 148.85 42.75 147.1 44.05 142.6 44.05 L139.95 44.05 Q135.5 44.05 133.75 42.55 131.95 41.15 131.95 37.5 L131.95 36.5 135.25 36.5 M124.1 43.8 L120.8 43.8 120.8 40.65 124.1 40.65 124.1 43.8" fill="#e6ad2b" fill-rule="evenodd" stroke="none"/>
    <path d="M182.45 31.9 L185.2 31.9 187.3 36.5 184.5 36.5 182.45 31.9 M177.2 31.9 L180.35 31.9 180.35 36.5 177.2 36.5 177.2 31.9 M173.6 31.9 L173.6 36.5 170.2 36.5 170.2 31.9 173.6 31.9 M153.4 36.5 L153.4 31.9 156.7 31.9 156.7 36.5 153.4 36.5 M194.0 31.9 L196.7 31.9 194.65 36.5 191.85 36.5 194.0 31.9 M198.75 31.9 L201.9 31.9 201.9 36.5 198.75 36.5 198.75 31.9 M135.25 31.9 L135.25 36.5 131.95 36.5 131.95 31.9 135.25 31.9" fill="#eec86f" fill-rule="evenodd" stroke="none"/>
  </g>
</svg>
