<?xml version="1.0" encoding="UTF-8" standalone="no"?>
<svg xmlns:xlink="http://www.w3.org/1999/xlink" height="29.2px" width="179.25px" xmlns="http://www.w3.org/2000/svg">
  <g transform="matrix(1.0, 0.0, 0.0, 1.0, 89.6, 14.55)">
    <path d="M15.5 -12.05 Q22.65 -9.55 23.2 -1.4 23.4 5.1 19.5 9.2 17.45 11.15 14.85 11.95 13.2 12.7 10.85 12.8 7.65 12.9 5.2 12.05 -1.9 9.2 -2.75 0.75 -3.0 -5.1 0.8 -9.1 4.2 -12.6 9.4 -12.8 12.65 -13.05 15.5 -12.05 M6.5 -10.2 Q2.35 -8.25 2.15 -1.75 2.0 -0.65 2.25 1.3 2.65 3.8 3.65 5.85 4.85 8.15 6.8 9.45 8.3 10.3 10.5 10.65 L14.05 10.1 Q17.75 8.35 18.3 2.05 18.5 -3.8 16.25 -7.15 13.95 -10.2 10.2 -10.75 7.9 -10.9 6.5 -10.2 M37.2 -12.5 Q39.8 -11.75 40.9 -10.45 41.95 -9.05 42.2 -7.05 42.3 -4.25 41.05 -2.3 L39.6 -0.45 38.0 0.95 43.05 7.4 45.9 10.4 46.45 10.85 Q47.5 11.6 49.5 11.7 50.0 12.0 49.6 12.7 L48.95 12.8 43.95 12.8 Q42.5 12.6 41.2 11.4 L38.55 8.35 34.85 2.8 34.4 2.5 Q31.65 2.35 31.55 2.5 31.35 8.9 31.8 10.85 L32.2 11.4 34.7 11.85 Q35.05 12.7 34.4 12.8 L24.85 12.8 24.4 12.5 Q24.4 11.8 24.75 11.7 L26.25 11.6 Q26.7 11.5 26.9 10.5 L27.15 6.5 27.15 -9.55 Q27.15 -10.9 26.8 -11.2 L25.8 -11.6 24.4 -11.6 Q23.85 -11.85 23.95 -12.4 24.15 -12.85 24.6 -12.8 L34.6 -12.8 37.2 -12.5 M31.55 -10.55 L31.55 0.0 33.2 0.45 35.6 0.2 Q37.65 -1.0 37.85 -4.6 37.95 -9.8 33.85 -10.65 L31.55 -10.55 M59.25 -12.7 L59.7 -12.6 59.8 -12.4 59.8 -11.95 Q58.9 -11.4 58.7 -11.5 58.5 -11.4 58.6 -11.1 L59.45 -9.25 64.2 -0.9 68.8 -9.45 69.15 -10.85 69.15 -11.3 68.8 -11.5 Q67.8 -11.65 67.8 -12.15 67.9 -12.7 68.5 -12.7 L75.45 -12.7 76.0 -12.3 75.9 -11.85 75.45 -11.6 74.25 -11.4 73.25 -10.75 Q72.05 -10.15 66.95 -1.2 66.1 0.65 66.0 1.2 65.65 2.4 65.65 5.45 65.65 7.9 65.8 10.1 L66.0 11.05 66.5 11.5 68.8 11.6 Q69.25 12.05 69.15 12.5 L68.8 12.8 58.8 12.8 58.4 12.5 Q58.25 11.8 58.7 11.7 L60.25 11.5 60.65 11.15 Q61.2 10.7 61.1 3.35 L60.8 1.5 59.8 -0.45 54.15 -9.75 52.85 -11.2 51.9 -11.5 51.1 -11.6 Q50.65 -11.75 50.7 -12.4 L51.35 -12.7 56.75 -12.6 59.25 -12.7 M77.5 -6.75 L77.3 -7.4 81.5 -7.15 81.4 -6.3 81.2 -5.55 81.2 -4.9 81.2 5.3 77.9 8.15 77.9 -4.75 77.9 -5.4 77.75 -6.3 77.5 -6.75 M87.4 -6.3 L87.15 -5.55 87.15 -4.9 87.15 5.3 83.9 8.15 83.9 -4.75 83.9 -5.4 83.7 -6.3 83.45 -6.75 83.25 -7.4 87.5 -7.15 87.4 -6.3 M81.4 12.35 Q80.6 13.1 79.55 13.15 78.55 13.0 77.85 12.25 77.15 11.5 77.2 10.5 77.15 9.75 77.5 9.2 L78.4 8.35 Q78.9 7.9 79.75 7.95 L80.85 8.25 81.85 9.2 82.15 10.4 Q82.15 11.6 81.4 12.35 M83.15 10.5 Q83.1 9.75 83.45 9.2 L84.35 8.35 Q84.85 7.9 85.75 7.95 L86.85 8.25 87.8 9.2 88.15 10.4 Q88.15 11.6 87.4 12.35 86.6 13.1 85.55 13.15 84.55 13.0 83.8 12.25 83.1 11.5 83.15 10.5 M-85.8 -11.4 L-87.8 -11.6 -88.1 -11.95 Q-88.2 -12.8 -87.3 -12.8 L-78.2 -12.8 Q-77.7 -12.75 -77.55 -12.3 L-77.55 -11.85 -78.0 -11.6 -79.2 -11.6 -79.5 -11.3 Q-79.75 -11.0 -79.5 -10.65 L-73.65 5.7 -67.35 -10.85 Q-67.25 -11.4 -67.45 -11.4 L-68.0 -11.6 -69.2 -11.6 Q-69.75 -11.95 -69.4 -12.6 L-68.85 -12.8 -61.85 -12.8 -61.15 -12.5 -61.15 -11.95 -61.6 -11.6 Q-62.7 -11.75 -63.3 -11.3 -64.2 -10.55 -64.85 -8.9 L-66.6 -4.6 -73.55 11.7 Q-74.1 12.8 -74.55 12.8 -74.9 12.9 -75.4 12.5 L-76.7 9.3 -84.3 -9.9 Q-84.85 -10.9 -85.8 -11.4 M-59.55 -12.8 L-50.85 -12.8 -50.2 -12.6 Q-50.2 -11.95 -50.45 -11.75 L-52.35 -11.4 Q-52.9 -11.1 -52.9 -8.8 L-52.9 8.8 Q-52.8 10.85 -52.45 11.05 L-52.15 11.4 -49.65 11.6 Q-49.2 11.9 -49.4 12.6 L-50.2 12.8 -59.75 12.7 -60.2 12.35 -60.2 11.85 -59.75 11.6 -58.15 11.4 Q-57.8 11.25 -57.7 10.5 -57.35 7.5 -57.45 6.65 L-57.45 -10.3 Q-57.6 -11.0 -57.9 -11.3 L-58.25 -11.5 -59.85 -11.6 Q-60.3 -11.95 -60.2 -12.6 L-59.55 -12.8 M-46.6 -7.7 Q-42.95 -12.6 -36.3 -12.95 L-30.2 -12.6 -26.95 -12.05 -26.75 -11.6 -26.95 -6.05 Q-26.95 -5.3 -27.5 -5.2 L-28.05 -5.2 -28.15 -5.95 Q-28.3 -9.05 -31.3 -10.1 -33.8 -11.1 -36.95 -10.75 -38.9 -10.45 -40.1 -9.65 L-41.85 -8.15 Q-43.6 -5.75 -43.8 -1.65 -43.9 1.05 -43.25 3.35 L-41.6 6.4 Q-38.9 9.75 -35.0 10.35 L-31.4 10.1 Q-29.9 9.75 -29.25 9.0 L-28.5 8.15 Q-27.95 7.05 -27.7 6.1 -26.95 5.55 -26.65 6.3 -26.65 7.6 -27.15 10.4 -27.4 11.4 -27.8 11.7 -28.9 12.45 -33.05 12.7 -37.6 12.8 -40.4 11.7 -44.35 10.4 -46.6 7.05 -48.55 4.35 -48.75 0.45 -48.8 -3.05 -47.8 -5.4 -47.7 -6.0 -46.6 -7.7 M-21.2 -12.6 L-5.9 -12.6 -4.15 -12.8 Q-3.4 -12.95 -3.4 -12.6 L-3.5 -7.7 -4.05 -7.25 -4.6 -7.4 -4.7 -7.7 -4.8 -8.8 Q-5.15 -9.8 -7.1 -10.1 L-11.95 -10.2 -11.95 6.95 -11.75 10.65 -11.25 11.4 -10.6 11.6 -9.4 11.6 Q-8.65 11.6 -8.4 11.95 -8.4 12.6 -8.95 12.8 L-18.4 12.8 Q-19.05 12.8 -19.25 12.35 -19.3 11.8 -18.95 11.6 L-17.1 11.3 Q-16.65 10.95 -16.55 7.7 L-16.55 -10.2 -22.1 -10.1 -23.6 -9.65 -24.1 -8.8 -24.5 -7.8 -25.55 -7.9 -25.2 -10.65 Q-24.9 -12.6 -24.55 -12.95 L-23.4 -12.8 -21.2 -12.6" fill="#e3af39" fill-rule="evenodd" stroke="none"/>
    <path d="M15.5 -12.05 Q22.65 -9.55 23.2 -1.4 23.4 5.1 19.5 9.2 17.45 11.15 14.85 11.95 13.2 12.7 10.85 12.8 7.65 12.9 5.2 12.05 -1.9 9.2 -2.75 0.75 -3.0 -5.1 0.8 -9.1 4.2 -12.6 9.4 -12.8 12.65 -13.05 15.5 -12.05 M6.5 -10.2 Q2.35 -8.25 2.15 -1.75 2.0 -0.65 2.25 1.3 2.65 3.8 3.65 5.85 4.85 8.15 6.8 9.45 8.3 10.3 10.5 10.65 L14.05 10.1 Q17.75 8.35 18.3 2.05 18.5 -3.8 16.25 -7.15 13.95 -10.2 10.2 -10.75 7.9 -10.9 6.5 -10.2 M37.2 -12.5 Q39.8 -11.75 40.9 -10.45 41.95 -9.05 42.2 -7.05 42.3 -4.25 41.05 -2.3 L39.6 -0.45 38.0 0.95 43.05 7.4 45.9 10.4 46.45 10.85 Q47.5 11.6 49.5 11.7 50.0 12.0 49.6 12.7 L48.95 12.8 43.95 12.8 Q42.5 12.6 41.2 11.4 L38.55 8.35 34.85 2.8 34.4 2.5 Q31.65 2.35 31.55 2.5 31.35 8.9 31.8 10.85 L32.2 11.4 34.7 11.85 Q35.05 12.7 34.4 12.8 L24.85 12.8 24.4 12.5 Q24.4 11.8 24.75 11.7 L26.25 11.6 Q26.7 11.5 26.9 10.5 L27.15 6.5 27.15 -9.55 Q27.15 -10.9 26.8 -11.2 L25.8 -11.6 24.4 -11.6 Q23.85 -11.85 23.95 -12.4 24.15 -12.85 24.6 -12.8 L34.6 -12.8 37.2 -12.5 M31.55 -10.55 L31.55 0.0 33.2 0.45 35.6 0.2 Q37.65 -1.0 37.85 -4.6 37.95 -9.8 33.85 -10.65 L31.55 -10.55 M59.25 -12.7 L59.7 -12.6 59.8 -12.4 59.8 -11.95 Q58.9 -11.4 58.7 -11.5 58.5 -11.4 58.6 -11.1 L59.45 -9.25 64.2 -0.9 68.8 -9.45 69.15 -10.85 69.15 -11.3 68.8 -11.5 Q67.8 -11.65 67.8 -12.15 67.9 -12.7 68.5 -12.7 L75.45 -12.7 76.0 -12.3 75.9 -11.85 75.45 -11.6 74.25 -11.4 73.25 -10.75 Q72.05 -10.15 66.95 -1.2 66.1 0.65 66.0 1.2 65.65 2.4 65.65 5.45 65.65 7.9 65.8 10.1 L66.0 11.05 66.5 11.5 68.8 11.6 Q69.25 12.05 69.15 12.5 L68.8 12.8 58.8 12.8 58.4 12.5 Q58.25 11.8 58.7 11.7 L60.25 11.5 60.65 11.15 Q61.2 10.7 61.1 3.35 L60.8 1.5 59.8 -0.45 54.15 -9.75 52.85 -11.2 51.9 -11.5 51.1 -11.6 Q50.65 -11.75 50.7 -12.4 L51.35 -12.7 56.75 -12.6 59.25 -12.7 M77.5 -6.75 L77.3 -7.4 81.5 -7.15 81.4 -6.3 81.2 -5.55 81.2 -4.9 81.2 5.3 77.9 8.15 77.9 -4.75 77.9 -5.4 77.75 -6.3 77.5 -6.75 M87.4 -6.3 L87.15 -5.55 87.15 -4.9 87.15 5.3 83.9 8.15 83.9 -4.75 83.9 -5.4 83.7 -6.3 83.45 -6.75 83.25 -7.4 87.5 -7.15 87.4 -6.3 M81.4 12.35 Q80.6 13.1 79.55 13.15 78.55 13.0 77.85 12.25 77.15 11.5 77.2 10.5 77.15 9.75 77.5 9.2 L78.4 8.35 Q78.9 7.9 79.75 7.95 L80.85 8.25 81.85 9.2 82.15 10.4 Q82.15 11.6 81.4 12.35 M83.15 10.5 Q83.1 9.75 83.45 9.2 L84.35 8.35 Q84.85 7.9 85.75 7.95 L86.85 8.25 87.8 9.2 88.15 10.4 Q88.15 11.6 87.4 12.35 86.6 13.1 85.55 13.15 84.55 13.0 83.8 12.25 83.1 11.5 83.15 10.5 M-85.8 -11.4 L-87.8 -11.6 -88.1 -11.95 Q-88.2 -12.8 -87.3 -12.8 L-78.2 -12.8 Q-77.7 -12.75 -77.55 -12.3 L-77.55 -11.85 -78.0 -11.6 -79.2 -11.6 -79.5 -11.3 Q-79.75 -11.0 -79.5 -10.65 L-73.65 5.7 -67.35 -10.85 Q-67.25 -11.4 -67.45 -11.4 L-68.0 -11.6 -69.2 -11.6 Q-69.75 -11.95 -69.4 -12.6 L-68.85 -12.8 -61.85 -12.8 -61.15 -12.5 -61.15 -11.95 -61.6 -11.6 Q-62.7 -11.75 -63.3 -11.3 -64.2 -10.55 -64.85 -8.9 L-66.6 -4.6 -73.55 11.7 Q-74.1 12.8 -74.55 12.8 -74.9 12.9 -75.4 12.5 L-76.7 9.3 -84.3 -9.9 Q-84.85 -10.9 -85.8 -11.4 M-59.55 -12.8 L-50.85 -12.8 -50.2 -12.6 Q-50.2 -11.95 -50.45 -11.75 L-52.35 -11.4 Q-52.9 -11.1 -52.9 -8.8 L-52.9 8.8 Q-52.8 10.85 -52.45 11.05 L-52.15 11.4 -49.65 11.6 Q-49.2 11.9 -49.4 12.6 L-50.2 12.8 -59.75 12.7 -60.2 12.35 -60.2 11.85 -59.75 11.6 -58.15 11.4 Q-57.8 11.25 -57.7 10.5 -57.35 7.5 -57.45 6.65 L-57.45 -10.3 Q-57.6 -11.0 -57.9 -11.3 L-58.25 -11.5 -59.85 -11.6 Q-60.3 -11.95 -60.2 -12.6 L-59.55 -12.8 M-46.6 -7.7 Q-42.95 -12.6 -36.3 -12.95 L-30.2 -12.6 -26.95 -12.05 -26.75 -11.6 -26.95 -6.05 Q-26.95 -5.3 -27.5 -5.2 L-28.05 -5.2 -28.15 -5.95 Q-28.3 -9.05 -31.3 -10.1 -33.8 -11.1 -36.95 -10.75 -38.9 -10.45 -40.1 -9.65 L-41.85 -8.15 Q-43.6 -5.75 -43.8 -1.65 -43.9 1.05 -43.25 3.35 L-41.6 6.4 Q-38.9 9.75 -35.0 10.35 L-31.4 10.1 Q-29.9 9.75 -29.25 9.0 L-28.5 8.15 Q-27.95 7.05 -27.7 6.1 -26.95 5.55 -26.65 6.3 -26.65 7.6 -27.15 10.4 -27.4 11.4 -27.8 11.7 -28.9 12.45 -33.05 12.7 -37.6 12.8 -40.4 11.7 -44.35 10.4 -46.6 7.05 -48.55 4.35 -48.75 0.45 -48.8 -3.05 -47.8 -5.4 -47.7 -6.0 -46.6 -7.7 M-21.2 -12.6 L-5.9 -12.6 -4.15 -12.8 Q-3.4 -12.95 -3.4 -12.6 L-3.5 -7.7 -4.05 -7.25 -4.6 -7.4 -4.7 -7.7 -4.8 -8.8 Q-5.15 -9.8 -7.1 -10.1 L-11.95 -10.2 -11.95 6.95 -11.75 10.65 -11.25 11.4 -10.6 11.6 -9.4 11.6 Q-8.65 11.6 -8.4 11.95 -8.4 12.6 -8.95 12.8 L-18.4 12.8 Q-19.05 12.8 -19.25 12.35 -19.3 11.8 -18.95 11.6 L-17.1 11.3 Q-16.65 10.95 -16.55 7.7 L-16.55 -10.2 -22.1 -10.1 -23.6 -9.65 -24.1 -8.8 -24.5 -7.8 -25.55 -7.9 -25.2 -10.65 Q-24.9 -12.6 -24.55 -12.95 L-23.4 -12.8 -21.2 -12.6" fill="none" stroke="#705b2e" stroke-linecap="round" stroke-linejoin="round" stroke-width="3.0"/>
    <path d="M-11.95 -10.2 L-11.95 6.95 -11.75 10.65 -11.25 11.4 -10.6 11.6 -9.4 11.6 Q-8.65 11.6 -8.4 11.95 -8.4 12.6 -8.95 12.8 L-18.4 12.8 Q-19.05 12.8 -19.25 12.35 -19.3 11.8 -18.95 11.6 L-17.1 11.3 Q-16.65 10.95 -16.55 7.7 L-16.55 -10.2 -22.1 -10.1 -23.6 -9.65 -24.1 -8.8 -24.5 -7.8 -25.55 -7.9 -25.2 -10.65 Q-24.9 -12.6 -24.55 -12.95 L-23.4 -12.8 -21.2 -12.6 -5.9 -12.6 -4.15 -12.8 Q-3.4 -12.95 -3.4 -12.6 L-3.5 -7.7 -4.05 -7.25 -4.6 -7.4 -4.7 -7.7 -4.8 -8.8 Q-5.15 -9.8 -7.1 -10.1 L-11.95 -10.2 M15.5 -12.05 Q22.65 -9.55 23.2 -1.4 23.4 5.1 19.5 9.2 17.45 11.15 14.85 11.95 13.2 12.7 10.85 12.8 7.65 12.9 5.2 12.05 -1.9 9.2 -2.75 0.75 -3.0 -5.1 0.8 -9.1 4.2 -12.6 9.4 -12.8 12.65 -13.05 15.5 -12.05 M6.5 -10.2 Q2.35 -8.25 2.15 -1.75 2.0 -0.65 2.25 1.3 2.65 3.8 3.65 5.85 4.85 8.15 6.8 9.45 8.3 10.3 10.5 10.65 L14.05 10.1 Q17.75 8.35 18.3 2.05 18.5 -3.8 16.25 -7.15 13.95 -10.2 10.2 -10.75 7.9 -10.9 6.5 -10.2 M23.95 -12.4 Q24.15 -12.85 24.6 -12.8 L34.6 -12.8 37.2 -12.5 Q39.8 -11.75 40.9 -10.45 41.95 -9.05 42.2 -7.05 42.3 -4.25 41.05 -2.3 L39.6 -0.45 38.0 0.95 43.05 7.4 45.9 10.4 46.45 10.85 Q47.5 11.6 49.5 11.7 50.0 12.0 49.6 12.7 L48.95 12.8 43.95 12.8 Q42.5 12.6 41.2 11.4 L38.55 8.35 34.85 2.8 34.4 2.5 Q31.65 2.35 31.55 2.5 31.35 8.9 31.8 10.85 L32.2 11.4 34.7 11.85 Q35.05 12.7 34.4 12.8 L24.85 12.8 24.4 12.5 Q24.4 11.8 24.75 11.7 L26.25 11.6 Q26.7 11.5 26.9 10.5 L27.15 6.5 27.15 -9.55 Q27.15 -10.9 26.8 -11.2 L25.8 -11.6 24.4 -11.6 Q23.85 -11.85 23.95 -12.4 M-40.1 -9.65 L-41.85 -8.15 Q-43.6 -5.75 -43.8 -1.65 -43.9 1.05 -43.25 3.35 L-41.6 6.4 Q-38.9 9.75 -35.0 10.35 L-31.4 10.1 Q-29.9 9.75 -29.25 9.0 L-28.5 8.15 Q-27.95 7.05 -27.7 6.1 -26.95 5.55 -26.65 6.3 -26.65 7.6 -27.15 10.4 -27.4 11.4 -27.8 11.7 -28.9 12.45 -33.05 12.7 -37.6 12.8 -40.4 11.7 -44.35 10.4 -46.6 7.05 -48.55 4.35 -48.75 0.45 -48.8 -3.05 -47.8 -5.4 -47.7 -6.0 -46.6 -7.7 -42.95 -12.6 -36.3 -12.95 L-30.2 -12.6 -26.95 -12.05 -26.75 -11.6 -26.95 -6.05 Q-26.95 -5.3 -27.5 -5.2 L-28.05 -5.2 -28.15 -5.95 Q-28.3 -9.05 -31.3 -10.1 -33.8 -11.1 -36.95 -10.75 -38.9 -10.45 -40.1 -9.65 M-50.2 -12.6 Q-50.2 -11.95 -50.45 -11.75 L-52.35 -11.4 Q-52.9 -11.1 -52.9 -8.8 L-52.9 8.8 Q-52.8 10.85 -52.45 11.05 L-52.15 11.4 -49.65 11.6 Q-49.2 11.9 -49.4 12.6 L-50.2 12.8 -59.75 12.7 -60.2 12.35 -60.2 11.85 -59.75 11.6 -58.15 11.4 Q-57.8 11.25 -57.7 10.5 -57.35 7.5 -57.45 6.65 L-57.45 -10.3 Q-57.6 -11.0 -57.9 -11.3 L-58.25 -11.5 -59.85 -11.6 Q-60.3 -11.95 -60.2 -12.6 L-59.55 -12.8 -50.85 -12.8 -50.2 -12.6 M67.8 -12.15 Q67.9 -12.7 68.5 -12.7 L75.45 -12.7 76.0 -12.3 75.9 -11.85 75.45 -11.6 74.25 -11.4 73.25 -10.75 Q72.05 -10.15 66.95 -1.2 66.1 0.65 66.0 1.2 65.65 2.4 65.65 5.45 65.65 7.9 65.8 10.1 L66.0 11.05 66.5 11.5 68.8 11.6 Q69.25 12.05 69.15 12.5 L68.8 12.8 58.8 12.8 58.4 12.5 Q58.25 11.8 58.7 11.7 L60.25 11.5 60.65 11.15 Q61.2 10.7 61.1 3.35 L60.8 1.5 59.8 -0.45 54.15 -9.75 52.85 -11.2 51.9 -11.5 51.1 -11.6 Q50.65 -11.75 50.7 -12.4 L51.35 -12.7 56.75 -12.6 59.25 -12.7 59.7 -12.6 59.8 -12.4 59.8 -11.95 Q58.9 -11.4 58.7 -11.5 58.5 -11.4 58.6 -11.1 L59.45 -9.25 64.2 -0.9 68.8 -9.45 69.15 -10.85 69.15 -11.3 68.8 -11.5 Q67.8 -11.65 67.8 -12.15 M31.55 -10.55 L31.55 0.0 33.2 0.45 35.6 0.2 Q37.65 -1.0 37.85 -4.6 37.95 -9.8 33.85 -10.65 L31.55 -10.55 M88.15 10.4 Q88.15 11.6 87.4 12.35 86.6 13.1 85.55 13.15 84.55 13.0 83.8 12.25 83.1 11.5 83.15 10.5 83.1 9.75 83.45 9.2 L84.35 8.35 Q84.85 7.9 85.75 7.95 L86.85 8.25 87.8 9.2 88.15 10.4 M87.15 -5.55 L87.15 -4.9 87.15 5.3 83.9 8.15 83.9 -4.75 83.9 -5.4 83.7 -6.3 83.45 -6.75 83.25 -7.4 87.5 -7.15 87.4 -6.3 87.15 -5.55 M81.4 -6.3 L81.2 -5.55 81.2 -4.9 81.2 5.3 77.9 8.15 77.9 -4.75 77.9 -5.4 77.75 -6.3 77.5 -6.75 77.3 -7.4 81.5 -7.15 81.4 -6.3 M80.85 8.25 L81.85 9.2 82.15 10.4 Q82.15 11.6 81.4 12.35 80.6 13.1 79.55 13.15 78.55 13.0 77.85 12.25 77.15 11.5 77.2 10.5 77.15 9.75 77.5 9.2 L78.4 8.35 Q78.9 7.9 79.75 7.95 L80.85 8.25 M-88.1 -11.95 Q-88.2 -12.8 -87.3 -12.8 L-78.2 -12.8 Q-77.7 -12.75 -77.55 -12.3 L-77.55 -11.85 -78.0 -11.6 -79.2 -11.6 -79.5 -11.3 Q-79.75 -11.0 -79.5 -10.65 L-73.65 5.7 -67.35 -10.85 Q-67.25 -11.4 -67.45 -11.4 L-68.0 -11.6 -69.2 -11.6 Q-69.75 -11.95 -69.4 -12.6 L-68.85 -12.8 -61.85 -12.8 -61.15 -12.5 -61.15 -11.95 -61.6 -11.6 Q-62.7 -11.75 -63.3 -11.3 -64.2 -10.55 -64.85 -8.9 L-66.6 -4.6 -73.55 11.7 Q-74.1 12.8 -74.55 12.8 -74.9 12.9 -75.4 12.5 L-76.7 9.3 -84.3 -9.9 Q-84.85 -10.9 -85.8 -11.4 L-87.8 -11.6 -88.1 -11.95" fill="url(#gradient0)" fill-rule="evenodd" stroke="none"/>
  </g>
  <defs>
    <linearGradient gradientTransform="matrix(0.0, 0.0164, -0.0156, 0.0, -74.7, 0.35)" gradientUnits="userSpaceOnUse" id="gradient0" spreadMethod="pad" x1="-819.2" x2="819.2">
      <stop offset="0.0" stop-color="#c4841c"/>
      <stop offset="0.20392156862745098" stop-color="#e3af39"/>
      <stop offset="0.49411764705882355" stop-color="#fff4b5"/>
      <stop offset="0.7803921568627451" stop-color="#e3af39"/>
      <stop offset="1.0" stop-color="#c4841c"/>
    </linearGradient>
  </defs>
</svg>
