<?xml version="1.0" encoding="UTF-8" standalone="no"?>
<svg xmlns:xlink="http://www.w3.org/1999/xlink" height="39.7px" width="45.3px" xmlns="http://www.w3.org/2000/svg">
  <g transform="matrix(1.0, 0.0, 0.0, 1.0, 8.6, -3.8)">
    <path d="M31.4 5.3 Q33.15 9.9 33.95 13.55 35.45 20.25 35.15 26.55 34.7 34.55 31.4 42.0 L27.3 42.0 -2.15 42.0 -3.45 42.0 Q-6.5 34.3 -7.0 26.55 -7.45 20.25 -6.0 13.55 -5.1 9.45 -3.45 5.3 L-2.15 5.3 27.3 5.3 31.4 5.3" fill="url(#gradient0)" fill-rule="evenodd" stroke="none"/>
    <path d="M-3.45 42.0 L-2.15 42.0 27.3 42.0 31.4 42.0 Q34.7 34.55 35.15 26.55 35.45 20.25 33.95 13.55 33.15 9.9 31.4 5.3" fill="none" stroke="#653201" stroke-linecap="round" stroke-linejoin="round" stroke-width="3.0"/>
    <path d="M31.4 5.3 L27.3 5.3 -2.15 5.3 -3.45 5.3 Q-5.1 9.45 -6.0 13.55 -7.45 20.25 -7.0 26.55 -6.5 34.3 -3.45 42.0 Z" fill="none" stroke="#ffcc99" stroke-linecap="round" stroke-linejoin="round" stroke-width="3.0"/>
  </g>
  <defs>
    <linearGradient gradientTransform="matrix(-0.0244, 0.0, 0.0, 0.0224, 14.25, 23.4)" gradientUnits="userSpaceOnUse" id="gradient0" spreadMethod="pad" x1="-819.2" x2="819.2">
      <stop offset="0.0" stop-color="#452c21" stop-opacity="0.42352942"/>
      <stop offset="1.0" stop-color="#a94401" stop-opacity="0.8"/>
    </linearGradient>
  </defs>
</svg>
