<?xml version="1.0" encoding="UTF-8" standalone="no"?>
<svg xmlns:xlink="http://www.w3.org/1999/xlink" height="23.0px" width="203.0px" xmlns="http://www.w3.org/2000/svg">
  <g transform="matrix(1.0, 0.0, 0.0, 1.0, 1.5, 0.8)">
    <path d="M196.0 0.7 Q197.7 3.0 198.7 5.2 200.25 8.8 199.95 12.3 199.55 16.65 196.0 20.7 L3.85 20.7 Q0.6 16.5 0.1 12.3 -0.3 8.75 1.15 5.2 2.1 2.95 3.85 0.7 L196.0 0.7" fill="url(#gradient0)" fill-rule="evenodd" stroke="none"/>
    <path d="M3.85 20.7 L196.0 20.7 Q199.55 16.65 199.95 12.3 200.25 8.8 198.7 5.2 197.7 3.0 196.0 0.7" fill="none" stroke="#653201" stroke-linecap="round" stroke-linejoin="round" stroke-width="3.0"/>
    <path d="M196.0 0.7 L3.85 0.7 Q2.1 2.95 1.15 5.2 -0.3 8.75 0.1 12.3 0.6 16.5 3.85 20.7 Z" fill="none" stroke="#ffcc99" stroke-linecap="round" stroke-linejoin="round" stroke-width="3.0"/>
  </g>
  <defs>
    <linearGradient gradientTransform="matrix(-0.1841, 0.0, 0.0, 0.0122, 154.75, 10.75)" gradientUnits="userSpaceOnUse" id="gradient0" spreadMethod="pad" x1="-819.2" x2="819.2">
      <stop offset="0.0" stop-color="#452c21" stop-opacity="0.42352942"/>
      <stop offset="1.0" stop-color="#a94401" stop-opacity="0.8"/>
    </linearGradient>
  </defs>
</svg>
