<?xml version="1.0" encoding="UTF-8" standalone="no"?>
<svg xmlns:xlink="http://www.w3.org/1999/xlink" height="18.8px" width="208.1px" xmlns="http://www.w3.org/2000/svg">
  <g transform="matrix(1.0, 0.0, 0.0, 1.0, -498.5, -45.5)">
    <path d="M693.35 48.05 L694.3 47.85 695.3 47.7 696.4 47.6 697.25 47.55 701.75 47.55 702.75 47.55 703.85 47.5 Q704.1 47.5 704.15 47.9 L704.15 48.4 704.2 49.0 704.25 49.7 704.25 50.35 704.3 50.85 704.3 51.35 703.2 51.45 702.75 49.95 702.3 49.3 701.5 49.1 700.25 49.05 698.05 49.05 697.8 49.05 697.75 49.05 697.75 54.05 699.35 54.0 700.85 53.9 701.9 53.85 702.35 53.85 Q702.95 53.85 702.95 54.45 L702.95 54.95 702.85 55.75 697.75 55.55 697.75 60.25 697.8 60.7 697.85 60.85 697.95 60.9 698.4 60.9 700.0 60.9 701.6 60.85 702.55 60.6 703.25 59.9 704.05 58.3 705.1 58.5 705.05 59.1 704.9 60.0 704.7 61.05 704.5 61.85 Q704.25 62.5 703.6 62.5 L702.5 62.5 701.1 62.45 699.4 62.45 697.55 62.45 695.5 62.45 Q695.15 62.45 695.05 62.25 L694.95 61.9 694.95 49.9 Q694.95 49.4 694.75 49.25 L694.2 49.15 693.45 49.15 693.35 48.05 M655.2 47.9 L655.2 47.65 Q655.2 47.25 655.55 47.2 L656.1 47.1 656.6 47.05 657.1 47.0 657.4 47.0 Q657.95 47.0 658.0 47.45 L659.7 61.75 659.75 61.85 659.75 61.95 Q659.75 62.4 659.3 62.45 L658.8 62.55 658.25 62.6 657.75 62.6 657.4 62.6 657.05 62.55 656.9 62.2 655.7 51.1 651.4 62.25 Q651.35 62.5 651.0 62.55 L650.5 62.6 649.9 62.6 Q649.5 62.6 649.4 62.35 L645.4 50.9 644.1 62.2 643.65 62.55 643.1 62.6 642.35 62.6 Q641.9 62.6 641.9 62.2 L641.95 62.05 644.35 48.9 644.0 47.85 643.95 47.65 Q643.95 47.25 644.45 47.15 L644.9 47.1 645.4 47.05 645.9 47.0 646.2 47.0 646.6 47.1 646.8 47.4 651.05 59.0 655.35 48.8 655.2 47.9 M666.5 47.65 Q668.0 47.15 669.8 47.15 L672.8 47.65 Q674.15 48.2 675.1 49.15 676.05 50.15 676.55 51.55 677.1 52.95 677.1 54.75 677.1 56.65 676.5 58.15 675.95 59.7 674.85 60.7 673.8 61.75 672.3 62.25 L669.0 62.8 666.0 62.25 Q664.65 61.75 663.7 60.75 662.75 59.75 662.25 58.3 661.75 56.9 661.75 55.1 661.75 53.15 662.3 51.65 662.9 50.2 663.95 49.15 665.0 48.15 666.5 47.65 M677.6 48.85 L677.5 47.7 680.55 47.3 683.4 47.15 685.15 47.25 685.75 47.3 688.0 47.75 689.9 48.65 691.4 50.05 692.35 52.0 Q692.7 53.1 692.7 54.55 L692.6 56.15 692.0 58.0 Q691.35 59.55 690.1 60.55 688.85 61.6 687.2 62.15 L683.5 62.7 682.5 62.65 681.65 62.55 680.75 62.5 679.65 62.45 Q679.1 62.45 679.1 61.9 L679.1 49.6 678.9 48.95 678.35 48.8 677.6 48.85 M669.15 48.7 Q668.0 48.7 667.2 49.15 666.4 49.6 665.85 50.4 665.35 51.2 665.1 52.25 664.85 53.3 664.85 54.45 L665.1 56.95 Q665.4 58.2 665.95 59.15 666.55 60.1 667.45 60.65 668.35 61.25 669.65 61.25 670.8 61.25 671.65 60.75 L673.0 59.5 673.75 57.6 674.0 55.4 673.7 52.9 Q673.45 51.7 672.85 50.75 672.3 49.8 671.4 49.25 670.45 48.7 669.15 48.7 M681.9 49.05 L681.9 61.0 682.65 61.1 683.65 61.15 686.2 60.7 Q687.3 60.3 688.05 59.5 688.85 58.7 689.2 57.5 L689.55 56.15 689.65 54.9 Q689.65 53.5 689.2 52.35 688.8 51.2 688.0 50.4 687.25 49.6 686.1 49.15 L685.15 48.9 683.45 48.7 682.85 48.7 682.1 48.75 681.9 49.05 M616.7 47.55 L616.4 62.15 Q616.4 62.55 616.0 62.55 L615.45 62.6 614.9 62.6 614.55 62.55 614.4 62.35 606.2 50.9 606.5 62.25 Q606.5 62.5 606.1 62.55 L605.45 62.6 604.7 62.65 Q604.25 62.65 604.25 62.2 L604.55 49.3 603.65 48.0 603.5 47.65 Q603.5 47.35 603.9 47.2 L604.45 47.15 605.05 47.1 605.7 47.05 606.05 47.05 606.4 47.15 606.7 47.5 614.8 58.75 614.5 47.85 Q614.5 47.45 614.9 47.4 L615.5 47.35 616.25 47.3 Q616.7 47.3 616.7 47.55 M624.8 49.05 L623.15 50.2 Q622.5 50.95 622.15 52.0 621.85 53.05 621.85 54.35 621.85 55.9 622.25 57.15 622.7 58.4 623.5 59.3 624.35 60.2 625.55 60.65 L628.45 61.15 629.05 61.15 629.45 61.15 629.45 57.45 629.4 56.95 629.3 56.7 629.05 56.6 628.7 56.55 628.55 56.6 628.1 56.6 628.0 55.4 629.45 55.3 630.45 55.25 631.2 55.25 631.55 55.2 Q632.25 55.2 632.25 55.85 L632.25 61.75 631.95 62.2 629.7 62.65 627.4 62.8 623.95 62.3 Q622.35 61.75 621.2 60.75 620.05 59.75 619.4 58.3 618.8 56.85 618.8 54.95 618.8 53.05 619.45 51.6 620.1 50.1 621.35 49.1 622.5 48.15 624.15 47.65 L627.65 47.15 629.65 47.25 631.55 47.6 631.85 47.8 631.95 48.05 632.0 48.55 632.05 49.15 632.05 49.8 632.1 50.4 632.1 50.9 632.1 51.35 631.0 51.45 630.55 50.0 Q630.2 49.55 629.65 49.25 629.1 48.95 628.45 48.8 L627.1 48.65 624.8 49.05 M571.7 47.5 L573.7 47.55 577.85 47.55 579.9 47.5 582.1 47.5 582.4 47.9 582.45 48.35 582.5 49.05 582.55 49.75 582.55 50.45 582.55 51.0 582.55 51.5 581.45 51.6 581.0 50.0 580.55 49.3 Q580.25 49.1 579.8 49.05 L578.5 49.05 577.15 49.05 577.15 61.85 Q577.15 62.35 576.65 62.45 L576.2 62.55 575.7 62.6 575.2 62.6 574.9 62.6 Q574.35 62.6 574.35 62.05 L574.35 49.05 573.05 49.05 571.8 49.05 571.0 49.3 Q570.7 49.5 570.5 50.0 570.3 50.45 570.05 51.6 L568.95 51.5 568.95 51.0 569.0 50.45 569.0 49.75 569.05 49.05 569.1 48.35 569.15 47.9 Q569.2 47.5 569.45 47.5 L571.7 47.5 M567.85 48.4 L567.9 49.0 567.95 49.7 567.95 50.35 568.0 50.85 568.0 51.35 566.9 51.45 566.45 49.95 566.0 49.3 565.2 49.1 563.95 49.05 561.75 49.05 561.5 49.05 561.45 49.05 561.45 54.05 563.05 54.0 564.55 53.9 565.6 53.85 566.05 53.85 Q566.65 53.85 566.65 54.45 L566.65 54.95 566.55 55.75 561.45 55.55 561.45 60.25 561.5 60.7 561.55 60.85 561.65 60.9 562.1 60.9 563.7 60.9 565.3 60.85 566.25 60.6 566.95 59.9 567.75 58.3 568.8 58.5 568.75 59.1 568.6 60.0 568.4 61.05 568.2 61.85 Q567.95 62.5 567.3 62.5 L566.2 62.5 564.8 62.45 563.1 62.45 561.25 62.45 559.2 62.45 Q558.85 62.45 558.75 62.25 L558.65 61.9 558.65 49.9 Q558.65 49.4 558.45 49.25 L557.9 49.15 557.15 49.15 557.05 48.05 558.0 47.85 559.0 47.7 560.1 47.6 560.95 47.55 565.45 47.55 566.45 47.55 567.55 47.5 Q567.8 47.5 567.85 47.9 L567.85 48.4 M583.25 47.5 L585.5 47.5 587.5 47.55 591.65 47.55 593.7 47.5 595.9 47.5 596.2 47.9 596.25 48.35 596.3 49.05 596.35 49.75 596.35 50.45 596.35 51.0 596.35 51.5 595.25 51.6 594.8 50.0 594.35 49.3 Q594.05 49.1 593.6 49.05 L592.3 49.05 590.95 49.05 590.95 61.85 Q590.95 62.35 590.45 62.45 L590.0 62.55 589.5 62.6 589.0 62.6 588.7 62.6 Q588.15 62.6 588.15 62.05 L588.15 49.05 586.85 49.05 585.6 49.05 Q585.1 49.1 584.8 49.3 L584.3 50.0 583.85 51.6 582.75 51.5 582.75 51.0 582.8 50.45 582.8 49.75 582.85 49.05 582.9 48.35 582.95 47.9 Q583.0 47.5 583.25 47.5 M596.9 47.75 L598.4 47.5 599.45 47.35 600.25 47.25 600.65 47.25 Q601.3 47.25 601.3 47.9 L601.3 61.85 Q601.3 62.35 600.8 62.45 L600.35 62.55 599.85 62.6 599.35 62.6 599.05 62.6 Q598.5 62.6 598.5 62.05 L598.5 49.7 598.45 49.25 598.3 49.0 598.1 48.9 597.75 48.85 597.0 48.9 596.9 47.75 M528.2 48.8 L528.1 47.65 530.9 47.3 533.65 47.15 534.9 47.2 536.25 47.35 537.55 47.75 Q538.15 48.05 538.6 48.45 L539.35 49.5 539.6 50.9 539.35 52.4 538.65 53.55 537.6 54.45 536.95 54.8 537.0 54.8 537.75 55.25 538.45 55.9 538.95 56.9 539.85 59.75 540.2 60.6 540.45 61.1 540.75 61.3 541.5 61.3 541.55 62.4 540.8 62.6 540.25 62.65 539.75 62.7 539.4 62.7 538.6 62.6 Q538.25 62.5 537.95 62.2 L537.45 61.55 537.05 60.55 536.2 57.5 535.8 56.55 535.2 56.05 534.35 55.75 532.8 55.65 532.7 54.5 534.55 54.2 535.7 53.65 536.35 52.7 536.6 51.3 536.35 50.15 535.65 49.3 Q535.2 49.0 534.6 48.85 L533.25 48.65 532.65 48.7 Q532.5 48.75 532.5 48.95 L532.5 61.85 Q532.5 62.35 532.0 62.45 L531.55 62.55 531.05 62.6 530.55 62.6 530.25 62.6 Q529.7 62.6 529.7 62.05 L529.7 49.55 Q529.7 49.05 529.5 48.9 L528.95 48.8 528.2 48.8 M550.8 47.15 L552.8 47.25 554.7 47.6 555.0 47.8 555.1 48.05 555.15 48.55 555.2 49.15 555.2 49.8 555.25 50.4 555.25 50.9 555.25 51.35 554.15 51.45 553.7 50.0 552.8 49.25 551.6 48.8 550.25 48.65 547.95 49.05 Q546.95 49.5 546.3 50.2 545.65 50.95 545.3 52.0 545.0 53.05 545.0 54.35 545.0 55.9 545.4 57.15 545.85 58.4 546.65 59.3 547.5 60.2 548.7 60.65 L551.6 61.15 552.2 61.15 552.6 61.15 552.6 57.45 552.55 56.95 552.45 56.7 552.2 56.6 551.85 56.55 551.7 56.6 551.25 56.6 551.15 55.4 552.6 55.3 553.6 55.25 554.35 55.25 554.7 55.2 Q555.4 55.2 555.4 55.85 L555.4 61.75 555.1 62.2 552.85 62.65 550.55 62.8 547.1 62.3 Q545.5 61.75 544.35 60.75 543.2 59.75 542.55 58.3 541.95 56.85 541.95 54.95 541.95 53.05 542.6 51.6 543.25 50.1 544.5 49.1 545.65 48.15 547.3 47.65 548.9 47.15 550.8 47.15 M504.1 49.05 L502.85 49.05 Q502.35 49.1 502.05 49.3 501.75 49.5 501.55 50.0 501.35 50.45 501.1 51.6 L500.0 51.5 500.0 51.0 500.05 50.45 500.05 49.75 500.1 49.05 500.15 48.35 500.2 47.9 Q500.25 47.5 500.5 47.5 L502.75 47.5 504.75 47.55 508.9 47.55 510.95 47.5 513.15 47.5 Q513.4 47.5 513.45 47.9 L513.5 48.35 513.55 49.05 513.6 49.75 513.6 50.45 513.6 51.0 513.6 51.5 512.5 51.6 512.05 50.0 511.6 49.3 510.85 49.05 509.55 49.05 508.2 49.05 508.2 61.85 Q508.2 62.35 507.7 62.45 L507.25 62.55 506.75 62.6 506.25 62.6 505.95 62.6 Q505.4 62.6 505.4 62.05 L505.4 49.05 504.1 49.05 M519.15 47.85 L519.1 47.65 Q519.1 47.25 519.65 47.15 L520.05 47.1 520.55 47.05 521.05 47.0 521.35 47.0 Q521.8 47.0 521.95 47.45 L527.5 61.75 527.6 61.95 Q527.6 62.4 527.15 62.45 L526.6 62.55 526.05 62.6 525.55 62.6 525.2 62.6 Q524.8 62.6 524.7 62.35 L522.7 57.15 517.65 57.25 515.75 62.25 515.35 62.55 514.8 62.6 514.15 62.6 Q513.7 62.6 513.7 62.25 L513.7 62.1 519.4 48.5 519.15 47.85 M522.25 55.65 L520.15 50.0 518.1 55.65 522.25 55.65" fill="#7e0101" fill-rule="evenodd" stroke="none"/>
    <path d="M693.35 48.05 L694.3 47.85 695.3 47.7 696.4 47.6 697.25 47.55 701.75 47.55 702.75 47.55 703.85 47.5 Q704.1 47.5 704.15 47.9 L704.15 48.4 704.2 49.0 704.25 49.7 704.25 50.35 704.3 50.85 704.3 51.35 703.2 51.45 702.75 49.95 702.3 49.3 701.5 49.1 700.25 49.05 698.05 49.05 697.8 49.05 697.75 49.05 697.75 54.05 699.35 54.0 700.85 53.9 701.9 53.85 702.35 53.85 Q702.95 53.85 702.95 54.45 L702.95 54.95 702.85 55.75 697.75 55.55 697.75 60.25 697.8 60.7 697.85 60.85 697.95 60.9 698.4 60.9 700.0 60.9 701.6 60.85 702.55 60.6 703.25 59.9 704.05 58.3 705.1 58.5 705.05 59.1 704.9 60.0 704.7 61.05 704.5 61.85 Q704.25 62.5 703.6 62.5 L702.5 62.5 701.1 62.45 699.4 62.45 697.55 62.45 695.5 62.45 Q695.15 62.45 695.05 62.25 L694.95 61.9 694.95 49.9 Q694.95 49.4 694.75 49.25 L694.2 49.15 693.45 49.15 693.35 48.05 M655.2 47.9 L655.2 47.65 Q655.2 47.25 655.55 47.2 L656.1 47.1 656.6 47.05 657.1 47.0 657.4 47.0 Q657.95 47.0 658.0 47.45 L659.7 61.75 659.75 61.85 659.75 61.95 Q659.75 62.4 659.3 62.45 L658.8 62.55 658.25 62.6 657.75 62.6 657.4 62.6 657.05 62.55 656.9 62.2 655.7 51.1 651.4 62.25 Q651.35 62.5 651.0 62.55 L650.5 62.6 649.9 62.6 Q649.5 62.6 649.4 62.35 L645.4 50.9 644.1 62.2 643.65 62.55 643.1 62.6 642.35 62.6 Q641.9 62.6 641.9 62.2 L641.95 62.05 644.35 48.9 644.0 47.85 643.95 47.65 Q643.95 47.25 644.45 47.15 L644.9 47.1 645.4 47.05 645.9 47.0 646.2 47.0 646.6 47.1 646.8 47.4 651.05 59.0 655.35 48.8 655.2 47.9 M666.5 47.65 Q668.0 47.15 669.8 47.15 L672.8 47.65 Q674.15 48.2 675.1 49.15 676.05 50.15 676.55 51.55 677.1 52.95 677.1 54.75 677.1 56.65 676.5 58.15 675.95 59.7 674.85 60.7 673.8 61.75 672.3 62.25 L669.0 62.8 666.0 62.25 Q664.65 61.75 663.7 60.75 662.75 59.75 662.25 58.3 661.75 56.9 661.75 55.1 661.75 53.15 662.3 51.65 662.9 50.2 663.95 49.15 665.0 48.15 666.5 47.65 M677.6 48.85 L677.5 47.7 680.55 47.3 683.4 47.15 685.15 47.25 685.75 47.3 688.0 47.75 689.9 48.65 691.4 50.05 692.35 52.0 Q692.7 53.1 692.7 54.55 L692.6 56.15 692.0 58.0 Q691.35 59.55 690.1 60.55 688.85 61.6 687.2 62.15 L683.5 62.7 682.5 62.65 681.65 62.55 680.75 62.5 679.65 62.45 Q679.1 62.45 679.1 61.9 L679.1 49.6 678.9 48.95 678.35 48.8 677.6 48.85 M669.15 48.7 Q668.0 48.7 667.2 49.15 666.4 49.6 665.85 50.4 665.35 51.2 665.1 52.25 664.85 53.3 664.85 54.45 L665.1 56.95 Q665.4 58.2 665.95 59.15 666.55 60.1 667.45 60.65 668.35 61.25 669.65 61.25 670.8 61.25 671.65 60.75 L673.0 59.5 673.75 57.6 674.0 55.4 673.7 52.9 Q673.45 51.7 672.85 50.75 672.3 49.8 671.4 49.25 670.45 48.7 669.15 48.7 M681.9 49.05 L681.9 61.0 682.65 61.1 683.65 61.15 686.2 60.7 Q687.3 60.3 688.05 59.5 688.85 58.7 689.2 57.5 L689.55 56.15 689.65 54.9 Q689.65 53.5 689.2 52.35 688.8 51.2 688.0 50.4 687.25 49.6 686.1 49.15 L685.15 48.9 683.45 48.7 682.85 48.7 682.1 48.75 681.9 49.05 M616.7 47.55 L616.4 62.15 Q616.4 62.55 616.0 62.55 L615.45 62.6 614.9 62.6 614.55 62.55 614.4 62.35 606.2 50.9 606.5 62.25 Q606.5 62.5 606.1 62.55 L605.45 62.6 604.7 62.65 Q604.25 62.65 604.25 62.2 L604.55 49.3 603.65 48.0 603.5 47.65 Q603.5 47.35 603.9 47.2 L604.45 47.15 605.05 47.1 605.7 47.05 606.05 47.05 606.4 47.15 606.7 47.5 614.8 58.75 614.5 47.85 Q614.5 47.45 614.9 47.4 L615.5 47.35 616.25 47.3 Q616.7 47.3 616.7 47.55 M624.8 49.05 L623.15 50.2 Q622.5 50.95 622.15 52.0 621.85 53.05 621.85 54.35 621.85 55.9 622.25 57.15 622.7 58.4 623.5 59.3 624.35 60.2 625.55 60.65 L628.45 61.15 629.05 61.15 629.45 61.15 629.45 57.45 629.4 56.95 629.3 56.7 629.05 56.6 628.7 56.55 628.55 56.6 628.1 56.6 628.0 55.4 629.45 55.3 630.45 55.25 631.2 55.25 631.55 55.2 Q632.25 55.2 632.25 55.85 L632.25 61.75 631.95 62.2 629.7 62.65 627.4 62.8 623.95 62.3 Q622.35 61.75 621.2 60.75 620.05 59.75 619.4 58.3 618.8 56.85 618.8 54.95 618.8 53.05 619.45 51.6 620.1 50.1 621.35 49.1 622.5 48.15 624.15 47.65 L627.65 47.15 629.65 47.25 631.55 47.6 631.85 47.8 631.95 48.05 632.0 48.55 632.05 49.15 632.05 49.8 632.1 50.4 632.1 50.9 632.1 51.35 631.0 51.45 630.55 50.0 Q630.2 49.55 629.65 49.25 629.1 48.95 628.45 48.8 L627.1 48.65 624.8 49.05 M571.7 47.5 L573.7 47.55 577.85 47.55 579.9 47.5 582.1 47.5 582.4 47.9 582.45 48.35 582.5 49.05 582.55 49.75 582.55 50.45 582.55 51.0 582.55 51.5 581.45 51.6 581.0 50.0 580.55 49.3 Q580.25 49.1 579.8 49.05 L578.5 49.05 577.15 49.05 577.15 61.85 Q577.15 62.35 576.65 62.45 L576.2 62.55 575.7 62.6 575.2 62.6 574.9 62.6 Q574.35 62.6 574.35 62.05 L574.35 49.05 573.05 49.05 571.8 49.05 571.0 49.3 Q570.7 49.5 570.5 50.0 570.3 50.45 570.05 51.6 L568.95 51.5 568.95 51.0 569.0 50.45 569.0 49.75 569.05 49.05 569.1 48.35 569.15 47.9 Q569.2 47.5 569.45 47.5 L571.7 47.5 M567.85 48.4 L567.9 49.0 567.95 49.7 567.95 50.35 568.0 50.85 568.0 51.35 566.9 51.45 566.45 49.95 566.0 49.3 565.2 49.1 563.95 49.05 561.75 49.05 561.5 49.05 561.45 49.05 561.45 54.05 563.05 54.0 564.55 53.9 565.6 53.85 566.05 53.85 Q566.65 53.85 566.65 54.45 L566.65 54.95 566.55 55.75 561.45 55.55 561.45 60.25 561.5 60.7 561.55 60.85 561.65 60.9 562.1 60.9 563.7 60.9 565.3 60.85 566.25 60.6 566.95 59.9 567.75 58.3 568.8 58.5 568.75 59.1 568.6 60.0 568.4 61.05 568.2 61.85 Q567.95 62.5 567.3 62.5 L566.2 62.5 564.8 62.45 563.1 62.45 561.25 62.45 559.2 62.45 Q558.85 62.45 558.75 62.25 L558.65 61.9 558.65 49.9 Q558.65 49.4 558.45 49.25 L557.9 49.15 557.15 49.15 557.05 48.05 558.0 47.85 559.0 47.7 560.1 47.6 560.95 47.55 565.45 47.55 566.45 47.55 567.55 47.5 Q567.8 47.5 567.85 47.9 L567.85 48.4 M583.25 47.5 L585.5 47.5 587.5 47.55 591.65 47.55 593.7 47.5 595.9 47.5 596.2 47.9 596.25 48.35 596.3 49.05 596.35 49.75 596.35 50.45 596.35 51.0 596.35 51.5 595.25 51.6 594.8 50.0 594.35 49.3 Q594.05 49.1 593.6 49.05 L592.3 49.05 590.95 49.05 590.95 61.85 Q590.95 62.35 590.45 62.45 L590.0 62.55 589.5 62.6 589.0 62.6 588.7 62.6 Q588.15 62.6 588.15 62.05 L588.15 49.05 586.85 49.05 585.6 49.05 Q585.1 49.1 584.8 49.3 L584.3 50.0 583.85 51.6 582.75 51.5 582.75 51.0 582.8 50.45 582.8 49.75 582.85 49.05 582.9 48.35 582.95 47.9 Q583.0 47.5 583.25 47.5 M596.9 47.75 L598.4 47.5 599.45 47.35 600.25 47.25 600.65 47.25 Q601.3 47.25 601.3 47.9 L601.3 61.85 Q601.3 62.35 600.8 62.45 L600.35 62.55 599.85 62.6 599.35 62.6 599.05 62.6 Q598.5 62.6 598.5 62.05 L598.5 49.7 598.45 49.25 598.3 49.0 598.1 48.9 597.75 48.85 597.0 48.9 596.9 47.75 M528.2 48.8 L528.1 47.65 530.9 47.3 533.65 47.15 534.9 47.2 536.25 47.35 537.55 47.75 Q538.15 48.05 538.6 48.45 L539.35 49.5 539.6 50.9 539.35 52.4 538.65 53.55 537.6 54.45 536.95 54.8 537.0 54.8 537.75 55.25 538.45 55.9 538.95 56.9 539.85 59.75 540.2 60.6 540.45 61.1 540.75 61.3 541.5 61.3 541.55 62.4 540.8 62.6 540.25 62.65 539.75 62.7 539.4 62.7 538.6 62.6 Q538.25 62.5 537.95 62.2 L537.45 61.55 537.05 60.55 536.2 57.5 535.8 56.55 535.2 56.05 534.35 55.75 532.8 55.65 532.7 54.5 534.55 54.2 535.7 53.65 536.35 52.7 536.6 51.3 536.35 50.15 535.65 49.3 Q535.2 49.0 534.6 48.85 L533.25 48.65 532.65 48.7 Q532.5 48.75 532.5 48.95 L532.5 61.85 Q532.5 62.35 532.0 62.45 L531.55 62.55 531.05 62.6 530.55 62.6 530.25 62.6 Q529.7 62.6 529.7 62.05 L529.7 49.55 Q529.7 49.05 529.5 48.9 L528.95 48.8 528.2 48.8 M550.8 47.15 L552.8 47.25 554.7 47.6 555.0 47.8 555.1 48.05 555.15 48.55 555.2 49.15 555.2 49.8 555.25 50.4 555.25 50.9 555.25 51.35 554.15 51.45 553.7 50.0 552.8 49.25 551.6 48.8 550.25 48.65 547.95 49.05 Q546.95 49.5 546.3 50.2 545.65 50.95 545.3 52.0 545.0 53.05 545.0 54.35 545.0 55.9 545.4 57.15 545.85 58.4 546.65 59.3 547.5 60.2 548.7 60.65 L551.6 61.15 552.2 61.15 552.6 61.15 552.6 57.45 552.55 56.95 552.45 56.7 552.2 56.6 551.85 56.55 551.7 56.6 551.25 56.6 551.15 55.4 552.6 55.3 553.6 55.25 554.35 55.25 554.7 55.2 Q555.4 55.2 555.4 55.85 L555.4 61.75 555.1 62.2 552.85 62.65 550.55 62.8 547.1 62.3 Q545.5 61.75 544.35 60.75 543.2 59.75 542.55 58.3 541.95 56.85 541.95 54.95 541.95 53.05 542.6 51.6 543.25 50.1 544.5 49.1 545.65 48.15 547.3 47.65 548.9 47.15 550.8 47.15 M504.1 49.05 L502.85 49.05 Q502.35 49.1 502.05 49.3 501.75 49.5 501.55 50.0 501.35 50.45 501.1 51.6 L500.0 51.5 500.0 51.0 500.05 50.45 500.05 49.75 500.1 49.05 500.15 48.35 500.2 47.9 Q500.25 47.5 500.5 47.5 L502.75 47.5 504.75 47.55 508.9 47.55 510.95 47.5 513.15 47.5 Q513.4 47.5 513.45 47.9 L513.5 48.35 513.55 49.05 513.6 49.75 513.6 50.45 513.6 51.0 513.6 51.5 512.5 51.6 512.05 50.0 511.6 49.3 510.85 49.05 509.55 49.05 508.2 49.05 508.2 61.85 Q508.2 62.35 507.7 62.45 L507.25 62.55 506.75 62.6 506.25 62.6 505.95 62.6 Q505.4 62.6 505.4 62.05 L505.4 49.05 504.1 49.05 M519.15 47.85 L519.1 47.65 Q519.1 47.25 519.65 47.15 L520.05 47.1 520.55 47.05 521.05 47.0 521.35 47.0 Q521.8 47.0 521.95 47.45 L527.5 61.75 527.6 61.95 Q527.6 62.4 527.15 62.45 L526.6 62.55 526.05 62.6 525.55 62.6 525.2 62.6 Q524.8 62.6 524.7 62.35 L522.7 57.15 517.65 57.25 515.75 62.25 515.35 62.55 514.8 62.6 514.15 62.6 Q513.7 62.6 513.7 62.25 L513.7 62.1 519.4 48.5 519.15 47.85 M522.25 55.65 L520.15 50.0 518.1 55.65 522.25 55.65" fill="none" stroke="#b49a6e" stroke-linecap="round" stroke-linejoin="round" stroke-width="3.0"/>
    <path d="M622.0 55.95 L622.25 57.15 Q622.7 58.4 623.5 59.3 624.35 60.2 625.55 60.65 L628.45 61.15 629.05 61.15 629.45 61.15 629.45 57.45 629.4 56.95 629.3 56.7 629.05 56.6 628.7 56.55 628.55 56.6 628.1 56.6 628.05 55.95 632.25 55.95 632.25 61.75 631.95 62.2 629.7 62.65 627.4 62.8 623.95 62.3 Q622.35 61.75 621.2 60.75 620.05 59.75 619.4 58.3 618.95 57.25 618.85 55.95 L622.0 55.95 M649.95 55.95 L651.05 59.0 652.35 55.95 653.85 55.95 651.4 62.25 Q651.35 62.5 651.0 62.55 L650.5 62.6 649.9 62.6 Q649.5 62.6 649.4 62.35 L647.2 55.95 649.95 55.95 M659.0 55.95 L659.7 61.75 659.75 61.85 659.75 61.95 Q659.75 62.4 659.3 62.45 L658.8 62.55 658.25 62.6 657.75 62.6 657.4 62.6 657.05 62.55 656.9 62.2 656.25 55.95 659.0 55.95 M644.85 55.95 L644.1 62.2 643.65 62.55 643.1 62.6 642.35 62.6 Q641.9 62.6 641.9 62.2 L641.95 62.05 643.1 55.95 644.85 55.95 M612.8 55.95 L614.8 58.75 614.75 55.95 616.55 55.95 616.4 62.15 Q616.4 62.55 616.0 62.55 L615.45 62.6 614.9 62.6 614.55 62.55 614.4 62.35 609.85 55.95 612.8 55.95 M606.35 55.95 L606.5 62.25 Q606.5 62.5 606.1 62.55 L605.45 62.6 604.7 62.65 Q604.25 62.65 604.25 62.2 L604.4 55.95 606.35 55.95 M590.95 55.95 L590.95 61.85 Q590.95 62.35 590.45 62.45 L590.0 62.55 589.5 62.6 589.0 62.6 588.7 62.6 Q588.15 62.6 588.15 62.05 L588.15 55.95 590.95 55.95 M601.3 55.95 L601.3 61.85 Q601.3 62.35 600.8 62.45 L600.35 62.55 599.85 62.6 599.35 62.6 599.05 62.6 Q598.5 62.6 598.5 62.05 L598.5 55.95 601.3 55.95 M561.45 55.95 L561.45 60.25 561.5 60.7 561.55 60.85 561.65 60.9 562.1 60.9 563.7 60.9 565.3 60.85 566.25 60.6 566.95 59.9 567.75 58.3 568.8 58.5 568.75 59.1 568.6 60.0 568.4 61.05 568.2 61.85 Q567.95 62.5 567.3 62.5 L566.2 62.5 564.8 62.45 563.1 62.45 561.25 62.45 559.2 62.45 Q558.85 62.45 558.75 62.25 L558.65 61.9 558.65 55.95 561.45 55.95 M577.15 55.95 L577.15 61.85 Q577.15 62.35 576.65 62.45 L576.2 62.55 575.7 62.6 575.2 62.6 574.9 62.6 Q574.35 62.6 574.35 62.05 L574.35 55.95 577.15 55.95 M681.9 55.95 L681.9 61.0 682.65 61.1 683.65 61.15 686.2 60.7 Q687.3 60.3 688.05 59.5 688.85 58.7 689.2 57.5 L689.6 55.95 692.6 55.95 692.0 58.0 Q691.35 59.55 690.1 60.55 688.85 61.6 687.2 62.15 L683.5 62.7 682.5 62.65 681.65 62.55 680.75 62.5 679.65 62.45 Q679.1 62.45 679.1 61.9 L679.1 55.95 681.9 55.95 M697.75 55.95 L697.75 60.25 697.8 60.7 697.85 60.85 697.95 60.9 698.4 60.9 700.0 60.9 701.6 60.85 702.55 60.6 703.25 59.9 704.05 58.3 705.1 58.5 705.05 59.1 704.9 60.0 704.7 61.05 704.5 61.85 Q704.25 62.5 703.6 62.5 L702.5 62.5 701.1 62.45 699.4 62.45 697.55 62.45 695.5 62.45 Q695.15 62.45 695.05 62.25 L694.95 61.9 694.95 55.95 697.75 55.95 M677.05 55.95 L676.5 58.15 Q675.95 59.7 674.85 60.7 673.8 61.75 672.3 62.25 L669.0 62.8 666.0 62.25 Q664.65 61.75 663.7 60.75 662.75 59.75 662.25 58.3 661.85 57.25 661.8 55.95 L664.95 55.95 665.1 56.95 Q665.4 58.2 665.95 59.15 666.55 60.1 667.45 60.65 668.35 61.25 669.65 61.25 670.8 61.25 671.65 60.75 L673.0 59.5 673.75 57.6 674.0 55.95 677.05 55.95 M545.15 55.95 L545.4 57.15 Q545.85 58.4 546.65 59.3 547.5 60.2 548.7 60.65 L551.6 61.15 552.2 61.15 552.6 61.15 552.6 57.45 552.55 56.95 552.45 56.7 552.2 56.6 551.85 56.55 551.7 56.6 551.25 56.6 551.2 55.95 555.4 55.95 555.4 61.75 555.1 62.2 552.85 62.65 550.55 62.8 547.1 62.3 Q545.5 61.75 544.35 60.75 543.2 59.75 542.55 58.3 542.1 57.25 542.0 55.95 L545.15 55.95 M532.5 55.95 L532.5 61.85 Q532.5 62.35 532.0 62.45 L531.55 62.55 531.05 62.6 530.55 62.6 530.25 62.6 Q529.7 62.6 529.7 62.05 L529.7 55.95 532.5 55.95 M538.5 55.95 L538.95 56.9 539.85 59.75 540.2 60.6 540.45 61.1 540.75 61.3 541.5 61.3 541.55 62.4 540.8 62.6 540.25 62.65 539.75 62.7 539.4 62.7 538.6 62.6 Q538.25 62.5 537.95 62.2 L537.45 61.55 537.05 60.55 536.2 57.5 535.8 56.55 535.2 56.05 535.0 55.95 538.5 55.95 M525.25 55.95 L527.5 61.75 527.6 61.95 Q527.6 62.4 527.15 62.45 L526.6 62.55 526.05 62.6 525.55 62.6 525.2 62.6 Q524.8 62.6 524.7 62.35 L522.7 57.15 517.65 57.25 515.75 62.25 515.35 62.55 514.8 62.6 514.15 62.6 Q513.7 62.6 513.7 62.25 L513.7 62.1 516.3 55.95 525.25 55.95 M508.2 55.95 L508.2 61.85 Q508.2 62.35 507.7 62.45 L507.25 62.55 506.75 62.6 506.25 62.6 505.95 62.6 Q505.4 62.6 505.4 62.05 L505.4 55.95 508.2 55.95" fill="#7e0101" fill-rule="evenodd" stroke="none"/>
    <path d="M618.85 55.95 L618.8 54.95 Q618.8 53.05 619.45 51.6 620.1 50.1 621.35 49.1 622.5 48.15 624.15 47.65 L627.65 47.15 629.65 47.25 631.55 47.6 631.85 47.8 631.95 48.05 632.0 48.55 632.05 49.15 632.05 49.8 632.1 50.4 632.1 50.9 632.1 51.35 631.0 51.45 630.55 50.0 Q630.2 49.55 629.65 49.25 629.1 48.95 628.45 48.8 L627.1 48.65 624.8 49.05 623.15 50.2 Q622.5 50.95 622.15 52.0 621.85 53.05 621.85 54.35 L622.0 55.95 618.85 55.95 M628.05 55.95 L628.0 55.4 629.45 55.3 630.45 55.25 631.2 55.25 631.55 55.2 Q632.25 55.2 632.25 55.85 L632.25 55.95 628.05 55.95 M643.1 55.95 L644.35 48.9 644.0 47.85 643.95 47.65 Q643.95 47.25 644.45 47.15 L644.9 47.1 645.4 47.05 645.9 47.0 646.2 47.0 646.6 47.1 646.8 47.4 649.95 55.95 647.2 55.95 645.4 50.9 644.85 55.95 643.1 55.95 M652.35 55.95 L655.35 48.8 655.2 47.9 655.2 47.65 Q655.2 47.25 655.55 47.2 L656.1 47.1 656.6 47.05 657.1 47.0 657.4 47.0 Q657.95 47.0 658.0 47.45 L659.0 55.95 656.25 55.95 655.7 51.1 653.85 55.95 652.35 55.95 M604.4 55.95 L604.55 49.3 603.65 48.0 603.5 47.65 Q603.5 47.35 603.9 47.2 L604.45 47.15 605.05 47.1 605.7 47.05 606.05 47.05 606.4 47.15 606.7 47.5 612.8 55.95 609.85 55.95 606.2 50.9 606.35 55.95 604.4 55.95 M614.75 55.95 L614.5 47.85 Q614.5 47.45 614.9 47.4 L615.5 47.35 616.25 47.3 Q616.7 47.3 616.7 47.55 L616.55 55.95 614.75 55.95 M588.15 55.95 L588.15 49.05 586.85 49.05 585.6 49.05 Q585.1 49.1 584.8 49.3 L584.3 50.0 583.85 51.6 582.75 51.5 582.75 51.0 582.8 50.45 582.8 49.75 582.85 49.05 582.9 48.35 582.95 47.9 Q583.0 47.5 583.25 47.5 L585.5 47.5 587.5 47.55 591.65 47.55 593.7 47.5 595.9 47.5 596.2 47.9 596.25 48.35 596.3 49.05 596.35 49.75 596.35 50.45 596.35 51.0 596.35 51.5 595.25 51.6 594.8 50.0 594.35 49.3 Q594.05 49.1 593.6 49.05 L592.3 49.05 590.95 49.05 590.95 55.95 588.15 55.95 M598.5 55.95 L598.5 49.7 598.45 49.25 598.3 49.0 598.1 48.9 597.75 48.85 597.0 48.9 596.9 47.75 598.4 47.5 599.45 47.35 600.25 47.25 600.65 47.25 Q601.3 47.25 601.3 47.9 L601.3 55.95 598.5 55.95 M558.65 55.95 L558.65 49.9 Q558.65 49.4 558.45 49.25 L557.9 49.15 557.15 49.15 557.05 48.05 558.0 47.85 559.0 47.7 560.1 47.6 560.95 47.55 565.45 47.55 566.45 47.55 567.55 47.5 Q567.8 47.5 567.85 47.9 L567.85 48.4 567.9 49.0 567.95 49.7 567.95 50.35 568.0 50.85 568.0 51.35 566.9 51.45 566.45 49.95 566.0 49.3 565.2 49.1 563.95 49.05 561.75 49.05 561.5 49.05 561.45 49.05 561.45 54.05 563.05 54.0 564.55 53.9 565.6 53.85 566.05 53.85 Q566.65 53.85 566.65 54.45 L566.65 54.95 566.55 55.75 561.45 55.55 561.45 55.95 558.65 55.95 M574.35 55.95 L574.35 49.05 573.05 49.05 571.8 49.05 571.0 49.3 Q570.7 49.5 570.5 50.0 570.3 50.45 570.05 51.6 L568.95 51.5 568.95 51.0 569.0 50.45 569.0 49.75 569.05 49.05 569.1 48.35 569.15 47.9 Q569.2 47.5 569.45 47.5 L571.7 47.5 573.7 47.55 577.85 47.55 579.9 47.5 582.1 47.5 582.4 47.9 582.45 48.35 582.5 49.05 582.55 49.75 582.55 50.45 582.55 51.0 582.55 51.5 581.45 51.6 581.0 50.0 580.55 49.3 Q580.25 49.1 579.8 49.05 L578.5 49.05 577.15 49.05 577.15 55.95 574.35 55.95 M689.6 55.95 L689.65 54.9 Q689.65 53.5 689.2 52.35 688.8 51.2 688.0 50.4 687.25 49.6 686.1 49.15 L683.45 48.7 682.85 48.7 682.1 48.75 681.9 49.05 681.9 55.95 679.1 55.95 679.1 49.6 678.9 48.95 678.35 48.8 677.6 48.85 677.5 47.7 680.55 47.3 683.4 47.15 685.75 47.3 688.0 47.75 689.9 48.65 691.4 50.05 692.35 52.0 Q692.7 53.1 692.7 54.55 L692.6 55.95 689.6 55.95 M694.95 55.95 L694.95 49.9 Q694.95 49.4 694.75 49.25 L694.2 49.15 693.45 49.15 693.35 48.05 694.3 47.85 695.3 47.7 696.4 47.6 697.25 47.55 701.75 47.55 702.75 47.55 703.85 47.5 Q704.1 47.5 704.15 47.9 L704.15 48.4 704.2 49.0 704.25 49.7 704.25 50.35 704.3 50.85 704.3 51.35 703.2 51.45 702.75 49.95 702.3 49.3 701.5 49.1 700.25 49.05 698.05 49.05 697.8 49.05 697.75 49.05 697.75 54.05 699.35 54.0 700.85 53.9 701.9 53.85 702.35 53.85 Q702.95 53.85 702.95 54.45 L702.95 54.95 702.85 55.75 697.75 55.55 697.75 55.95 694.95 55.95 M661.8 55.95 L661.75 55.1 Q661.75 53.15 662.3 51.65 662.9 50.2 663.95 49.15 665.0 48.15 666.5 47.65 668.0 47.15 669.8 47.15 L672.8 47.65 Q674.15 48.2 675.1 49.15 676.05 50.15 676.55 51.55 677.1 52.95 677.1 54.75 L677.05 55.95 674.0 55.95 674.0 55.4 673.7 52.9 Q673.45 51.7 672.85 50.75 672.3 49.8 671.4 49.25 670.45 48.7 669.15 48.7 668.0 48.7 667.2 49.15 666.4 49.6 665.85 50.4 665.35 51.2 665.1 52.25 664.85 53.3 664.85 54.45 L664.95 55.95 661.8 55.95 M542.0 55.95 L541.95 54.95 Q541.95 53.05 542.6 51.6 543.25 50.1 544.5 49.1 545.65 48.15 547.3 47.65 548.9 47.15 550.8 47.15 L552.8 47.25 554.7 47.6 555.0 47.8 555.1 48.05 555.15 48.55 555.2 49.15 555.2 49.8 555.25 50.4 555.25 50.9 555.25 51.35 554.15 51.45 553.7 50.0 552.8 49.25 551.6 48.8 550.25 48.65 547.95 49.05 Q546.95 49.5 546.3 50.2 545.65 50.95 545.3 52.0 545.0 53.05 545.0 54.35 545.0 55.2 545.15 55.95 L542.0 55.95 M551.2 55.95 L551.15 55.4 552.6 55.3 553.6 55.25 554.35 55.25 554.7 55.2 Q555.4 55.2 555.4 55.85 L555.4 55.95 551.2 55.95 M535.0 55.95 L534.35 55.75 532.8 55.65 532.7 54.5 534.55 54.2 535.7 53.65 536.35 52.7 536.6 51.3 536.35 50.15 535.65 49.3 Q535.2 49.0 534.6 48.85 L533.25 48.65 532.65 48.7 Q532.5 48.75 532.5 48.95 L532.5 55.95 529.7 55.95 529.7 49.55 Q529.7 49.05 529.5 48.9 L528.95 48.8 528.2 48.8 528.1 47.65 530.9 47.3 533.65 47.15 534.9 47.2 536.25 47.35 537.55 47.75 Q538.15 48.05 538.6 48.45 L539.35 49.5 539.6 50.9 539.35 52.4 538.65 53.55 537.6 54.45 536.95 54.8 537.0 54.8 537.75 55.25 538.45 55.9 538.5 55.95 535.0 55.95 M516.3 55.95 L519.4 48.5 519.15 47.85 519.1 47.65 Q519.1 47.25 519.65 47.15 L520.05 47.1 520.55 47.05 521.05 47.0 521.35 47.0 Q521.8 47.0 521.95 47.45 L525.25 55.95 516.3 55.95 M505.4 55.95 L505.4 49.05 504.1 49.05 502.85 49.05 Q502.35 49.1 502.05 49.3 501.75 49.5 501.55 50.0 501.35 50.45 501.1 51.6 L500.0 51.5 500.0 51.0 500.05 50.45 500.05 49.75 500.1 49.05 500.15 48.35 500.2 47.9 Q500.25 47.5 500.5 47.5 L502.75 47.5 504.75 47.55 508.9 47.55 510.95 47.5 513.15 47.5 Q513.4 47.5 513.45 47.9 L513.5 48.35 513.55 49.05 513.6 49.75 513.6 50.45 513.6 51.0 513.6 51.5 512.5 51.6 512.05 50.0 511.6 49.3 510.85 49.05 509.55 49.05 508.2 49.05 508.2 55.95 505.4 55.95 M522.25 55.65 L520.15 50.0 518.1 55.65 522.25 55.65" fill="#af3d01" fill-rule="evenodd" stroke="none"/>
  </g>
</svg>
