<?xml version="1.0" encoding="UTF-8" standalone="no"?>
<svg xmlns:xlink="http://www.w3.org/1999/xlink" height="528.0px" width="720.1px" xmlns="http://www.w3.org/2000/svg">
  <g transform="matrix(1.0, 0.0, 0.0, 1.0, 0.1, 0.0)">
    <path d="M720.0 528.0 L0.0 528.0 0.0 0.0 720.0 0.0 720.0 528.0" fill="#000000" fill-rule="evenodd" stroke="none"/>
    <path d="M614.45 138.05 Q719.9 176.2 719.9 230.0 719.9 283.85 614.45 321.9 509.05 360.0 359.95 360.0 210.75 360.0 105.3 321.9 27.05 293.65 6.9 256.7 -0.1 243.9 -0.1 230.0 -0.1 216.15 6.9 203.3 27.05 166.35 105.3 138.05 210.75 100.0 359.95 100.0 509.05 100.0 614.45 138.05" fill="url(#gradient0)" fill-rule="evenodd" stroke="none"/>
    <path d="M208.9 204.85 L213.2 204.65 216.8 204.8 220.1 205.15 222.05 205.45 224.0 205.75 226.0 206.0 226.6 206.2 226.7 206.6 226.6 207.6 226.45 210.0 226.35 214.8 226.2 215.6 Q226.1 215.85 225.8 215.85 225.55 215.85 225.45 215.65 L225.3 215.2 224.85 213.2 Q224.55 212.1 223.6 211.05 222.85 210.2 221.3 209.3 219.75 208.45 217.5 207.8 L212.45 207.15 209.45 207.3 Q207.8 207.5 206.05 208.15 204.3 208.8 202.55 210.25 200.4 211.95 199.2 214.95 197.95 217.9 197.95 222.5 197.95 227.95 200.1 232.15 202.25 236.4 206.15 238.85 210.05 241.25 215.35 241.3 L217.5 241.25 219.6 240.8 220.35 240.0 220.55 238.9 220.55 234.2 220.55 230.9 220.5 228.3 Q220.5 227.05 220.05 226.35 219.55 225.7 218.35 225.45 L217.5 225.3 216.4 225.3 215.85 225.2 215.65 224.9 215.9 224.5 216.7 224.4 219.4 224.45 222.0 224.5 223.95 224.55 225.8 224.5 227.9 224.45 229.8 224.4 230.55 224.5 230.8 224.9 230.6 225.2 230.15 225.3 229.55 225.3 228.8 225.45 Q227.8 225.6 227.35 226.3 226.9 227.0 226.9 228.3 L226.85 230.95 226.85 234.3 226.85 239.85 226.75 241.1 226.2 241.6 Q224.55 242.45 222.5 242.95 L218.3 243.65 214.15 243.85 Q209.5 243.85 205.35 242.75 201.2 241.6 198.0 239.25 194.75 236.85 192.9 233.15 191.1 229.45 191.05 224.25 191.1 220.25 192.3 217.05 193.5 213.85 195.45 211.6 197.45 209.25 199.75 207.9 202.15 206.45 204.45 205.75 206.7 205.05 208.9 204.85 M248.5 214.5 L248.3 214.65 248.2 214.95 243.6 227.25 243.6 227.5 243.8 227.6 253.0 227.6 253.25 227.5 253.25 227.3 248.75 214.95 248.65 214.65 248.5 214.5 M307.1 205.45 Q307.4 204.85 307.65 204.55 L308.2 204.25 Q308.55 204.25 308.8 204.65 L309.1 205.8 313.65 236.7 Q313.95 239.05 314.5 240.25 315.0 241.45 316.1 241.75 L317.95 242.15 319.2 242.25 319.75 242.3 320.0 242.6 Q320.0 242.9 319.65 243.0 L318.7 243.15 316.9 243.1 313.9 243.05 310.8 242.95 308.55 242.85 307.4 242.65 307.1 242.3 307.25 241.95 307.65 241.75 308.0 241.15 307.9 239.6 304.9 217.6 304.7 217.6 293.8 240.3 292.6 242.6 Q292.25 243.15 291.95 243.1 291.6 243.05 291.2 242.4 L290.2 240.6 288.9 238.05 287.1 234.6 285.45 231.3 284.45 229.25 283.7 227.6 282.35 224.7 280.75 221.3 279.25 218.15 279.05 218.15 276.45 238.05 276.35 239.25 276.3 240.4 Q276.3 241.1 276.75 241.5 277.15 241.85 277.8 242.0 L279.0 242.2 279.9 242.25 280.45 242.3 280.65 242.6 280.35 243.05 279.45 243.15 276.4 243.05 274.2 243.0 272.85 243.05 271.05 243.1 269.25 243.15 269.05 243.15 268.25 243.15 264.35 243.1 258.8 243.05 257.7 242.95 257.3 242.65 257.5 242.3 258.0 242.2 258.45 241.8 Q258.65 241.5 258.45 241.05 L254.45 230.45 254.25 230.15 253.95 230.1 242.8 230.1 242.55 230.2 242.35 230.5 239.65 237.65 239.1 239.4 238.9 240.7 Q238.85 241.4 239.3 241.8 239.75 242.25 240.9 242.25 L241.65 242.25 242.25 242.35 242.4 242.65 242.2 243.05 241.55 243.15 238.9 243.05 236.25 243.0 235.05 243.05 232.9 243.1 230.35 243.15 229.65 243.05 Q229.4 242.95 229.4 242.65 229.4 242.4 229.55 242.35 L230.0 242.25 230.8 242.2 231.55 242.15 Q233.25 241.9 234.15 240.75 235.1 239.55 235.8 237.65 L248.35 206.25 249.1 204.7 249.75 204.25 Q250.1 204.25 250.35 204.6 L251.0 205.85 252.45 209.4 254.95 215.7 258.0 223.25 261.0 230.7 263.4 236.55 Q264.35 238.8 265.15 239.9 265.95 241.05 266.65 241.5 267.3 241.95 267.8 242.05 L268.95 242.2 269.45 242.25 269.75 242.2 270.65 242.1 Q271.7 241.8 272.1 240.65 L272.7 238.15 277.65 205.55 278.0 204.6 Q278.2 204.25 278.5 204.25 278.8 204.25 279.1 204.55 L279.85 205.8 293.5 234.0 307.1 205.45 M505.4 216.85 Q505.35 213.35 504.1 211.3 502.8 209.3 501.05 208.5 499.3 207.65 497.75 207.7 L496.15 207.75 495.1 207.9 494.75 208.15 494.65 208.6 494.65 223.8 494.75 224.4 495.1 224.7 496.95 225.1 498.9 225.2 501.1 225.05 502.45 224.35 Q503.6 223.55 504.5 221.75 505.35 219.9 505.4 216.85 M403.0 225.2 Q402.95 219.55 401.0 215.5 399.1 211.45 395.8 209.25 392.5 207.05 388.35 207.05 386.15 207.0 384.0 207.7 381.85 208.45 380.0 210.2 378.25 211.95 377.15 215.0 376.05 218.05 376.05 222.7 376.05 227.95 377.85 232.15 379.7 236.35 383.15 238.85 386.55 241.3 391.4 241.35 L394.7 240.9 Q396.6 240.35 398.5 238.7 400.4 237.05 401.7 233.8 402.95 230.55 403.0 225.2 M331.25 205.5 L333.1 205.5 336.1 205.5 339.4 205.5 342.25 205.5 343.75 205.45 345.05 205.3 345.9 205.15 346.3 205.0 346.7 204.95 346.95 205.05 347.0 205.4 346.9 206.3 346.6 208.65 346.55 209.6 346.45 210.95 346.35 211.95 346.2 212.3 345.85 212.5 Q345.6 212.5 345.5 212.3 L345.4 211.8 345.35 211.0 345.1 210.0 Q344.9 209.3 344.25 208.85 343.6 208.4 341.75 208.2 L340.45 208.1 338.25 208.05 336.05 208.0 334.65 208.0 334.4 208.1 334.3 208.5 334.3 221.15 334.4 221.55 Q334.4 221.7 334.65 221.7 L336.2 221.7 338.6 221.7 341.05 221.65 342.65 221.6 344.15 221.4 345.05 220.85 345.5 220.4 Q345.7 220.2 345.85 220.2 L346.1 220.3 346.2 220.6 346.05 221.6 345.8 224.25 345.75 225.5 345.65 226.8 345.6 227.6 345.55 228.25 Q345.5 228.5 345.15 228.55 L344.8 228.4 344.7 228.1 344.65 227.25 344.5 226.3 Q344.35 225.55 343.7 225.05 343.05 224.5 341.7 224.35 L340.35 224.25 338.25 224.25 336.1 224.2 334.6 224.2 334.35 224.35 334.3 224.7 334.3 228.65 334.3 231.1 334.3 234.1 334.3 236.4 Q334.35 238.1 334.75 239.0 335.25 239.9 336.5 240.25 L340.3 240.6 342.65 240.5 345.0 240.0 Q345.95 239.55 346.5 238.7 L347.25 236.3 347.45 235.7 Q347.55 235.55 347.8 235.55 L348.15 235.8 348.2 236.45 348.1 238.15 347.85 240.35 347.55 242.0 Q347.35 242.95 346.8 243.1 L344.85 243.3 339.95 243.25 336.2 243.15 333.35 243.0 331.0 243.0 329.85 243.0 328.15 243.05 326.3 243.1 324.65 243.15 323.9 243.0 323.65 242.65 323.85 242.35 324.45 242.25 325.45 242.2 326.25 242.05 Q327.0 241.9 327.25 241.15 327.6 240.4 327.75 239.3 L328.0 234.9 328.0 228.65 328.0 219.85 328.0 214.1 328.0 211.0 327.9 209.25 Q327.85 208.0 327.35 207.35 326.9 206.65 325.7 206.4 L324.85 206.3 323.75 206.25 323.1 206.15 322.9 205.8 Q322.9 205.55 323.15 205.45 L324.0 205.35 326.05 205.4 328.1 205.4 329.9 205.5 331.25 205.5 M407.55 213.4 Q410.0 217.6 410.0 223.35 410.0 227.65 408.55 231.4 407.1 235.1 404.4 237.9 401.7 240.7 397.9 242.25 394.05 243.85 389.3 243.85 383.95 243.8 380.1 242.05 376.25 240.25 373.8 237.4 371.4 234.5 370.25 231.05 369.15 227.6 369.15 224.25 369.15 221.0 370.25 217.6 371.4 214.15 373.85 211.25 376.3 208.3 380.25 206.5 384.15 204.7 389.8 204.65 396.05 204.65 400.6 206.95 405.1 209.25 407.55 213.4 M483.95 205.45 L484.8 205.35 487.55 205.4 490.0 205.45 491.65 205.5 493.9 205.45 496.55 205.4 498.7 205.35 503.45 205.75 Q505.85 206.15 507.9 207.5 L509.4 208.95 510.75 211.3 Q511.3 212.7 511.3 214.35 511.35 217.1 509.9 219.8 508.45 222.5 504.7 225.55 L510.7 233.05 Q513.35 236.35 515.55 238.7 L518.1 240.85 520.0 241.8 521.15 242.1 521.9 242.2 522.55 242.25 523.0 242.35 523.15 242.65 522.9 243.05 522.2 243.15 517.45 243.15 514.2 242.95 512.1 242.2 Q510.55 241.35 508.9 239.55 L505.25 234.85 503.25 232.0 501.4 229.45 500.3 227.95 499.9 227.65 499.4 227.6 495.05 227.5 494.75 227.55 494.65 227.9 494.65 228.6 494.7 234.9 494.9 239.3 Q495.0 240.4 495.35 241.15 495.75 241.9 496.85 242.05 L498.15 242.2 499.3 242.25 499.75 242.35 499.9 242.65 499.65 243.0 498.9 243.15 495.9 243.1 493.15 243.05 491.55 243.0 490.0 243.05 487.75 243.1 485.45 243.15 484.7 243.0 484.45 242.65 484.65 242.35 485.25 242.25 486.25 242.2 487.05 242.05 Q487.8 241.9 488.1 241.15 L488.5 239.3 488.75 234.9 488.75 228.65 488.75 219.85 488.75 214.1 488.75 211.0 488.65 209.25 Q488.6 208.0 488.15 207.35 487.7 206.65 486.5 206.4 L485.65 206.3 484.55 206.25 483.9 206.15 483.7 205.8 Q483.7 205.55 483.95 205.45 M453.2 205.35 L455.25 205.4 457.25 205.4 459.05 205.5 460.4 205.5 462.25 205.5 465.25 205.5 468.55 205.5 471.4 205.5 472.9 205.45 474.2 205.3 475.05 205.15 475.45 205.0 475.85 204.95 476.1 205.05 476.15 205.4 476.05 206.3 475.75 208.65 475.7 209.6 475.6 210.95 475.5 211.95 475.35 212.3 475.0 212.5 Q474.75 212.5 474.65 212.3 L474.55 211.8 474.5 211.0 474.25 210.0 473.4 208.85 Q472.75 208.4 470.9 208.2 L469.6 208.1 467.4 208.05 465.2 208.0 463.8 208.0 463.55 208.1 463.45 208.5 463.45 221.15 463.55 221.55 Q463.55 221.7 463.8 221.7 L465.35 221.7 467.75 221.7 470.2 221.65 471.8 221.6 473.3 221.4 474.2 220.85 474.65 220.4 Q474.85 220.2 475.0 220.2 L475.25 220.3 475.35 220.6 475.2 221.6 474.95 224.25 474.9 225.5 474.8 226.8 474.75 227.6 474.7 228.25 Q474.65 228.5 474.3 228.55 L473.95 228.4 473.85 228.1 473.8 227.25 473.65 226.3 Q473.5 225.55 472.85 225.05 472.2 224.5 470.85 224.35 L469.5 224.25 467.4 224.25 465.25 224.2 463.75 224.2 463.5 224.35 463.45 224.7 463.45 228.65 463.45 231.1 463.45 234.1 463.45 236.4 Q463.5 238.1 463.9 239.0 464.4 239.9 465.65 240.25 L469.45 240.6 471.8 240.5 474.15 240.0 Q475.1 239.55 475.65 238.7 L476.4 236.3 476.6 235.7 Q476.7 235.55 476.95 235.55 L477.3 235.8 477.35 236.45 477.25 238.15 477.0 240.35 476.7 242.0 Q476.5 242.95 475.95 243.1 L474.0 243.3 469.1 243.25 465.35 243.15 462.5 243.0 460.15 243.0 459.0 243.0 457.3 243.05 455.5 243.1 453.85 243.15 453.1 243.0 452.85 242.65 453.05 242.35 453.65 242.25 454.65 242.2 455.45 242.05 Q456.2 241.9 456.45 241.15 L456.9 239.3 457.15 234.9 457.15 228.65 457.15 219.85 457.15 214.1 457.15 211.0 457.05 209.25 Q457.0 208.0 456.55 207.35 456.1 206.65 454.9 206.4 L454.05 206.3 452.95 206.25 452.3 206.15 452.1 205.8 Q452.1 205.55 452.35 205.45 L453.2 205.35 M446.05 205.5 L447.3 205.45 449.05 205.4 450.75 205.35 451.5 205.45 Q451.8 205.55 451.8 205.8 L451.55 206.15 451.0 206.25 449.9 206.35 Q449.2 206.45 448.55 206.85 L447.4 208.05 445.8 211.35 444.0 215.6 442.1 219.7 439.8 224.9 435.65 234.35 433.15 240.15 431.75 243.1 Q431.35 243.9 430.85 243.85 430.4 243.9 430.0 243.2 L428.95 240.8 416.35 210.25 415.25 208.15 414.05 207.05 412.55 206.45 411.45 206.3 410.6 206.25 410.1 206.15 410.0 205.8 Q410.0 205.5 410.35 205.45 L411.3 205.35 415.25 205.45 418.55 205.5 421.15 205.45 424.7 205.35 425.5 205.45 425.85 205.8 425.65 206.15 425.1 206.25 423.95 206.3 Q423.45 206.4 423.15 206.6 L422.75 207.05 422.65 207.65 422.95 209.15 423.8 211.5 432.4 234.2 432.6 234.2 434.35 229.8 436.65 224.0 439.05 217.9 441.15 212.65 442.45 209.3 442.75 208.3 442.9 207.45 442.75 206.9 Q442.6 206.6 442.25 206.5 L441.25 206.3 440.25 206.25 439.65 206.2 439.4 205.85 Q439.4 205.55 439.75 205.45 L440.8 205.35 444.1 205.45 446.05 205.5" fill="#990000" fill-rule="evenodd" stroke="none"/>
    <path d="M446.05 205.5 L444.1 205.45 440.8 205.35 439.75 205.45 Q439.4 205.55 439.4 205.85 L439.65 206.2 440.25 206.25 441.25 206.3 442.25 206.5 Q442.6 206.6 442.75 206.9 L442.9 207.45 442.75 208.3 442.45 209.3 441.15 212.65 439.05 217.9 436.65 224.0 434.35 229.8 432.6 234.2 432.4 234.2 423.8 211.5 422.95 209.15 422.65 207.65 422.75 207.05 423.15 206.6 Q423.45 206.4 423.95 206.3 L425.1 206.25 425.65 206.15 425.85 205.8 425.5 205.45 424.7 205.35 421.15 205.45 418.55 205.5 415.25 205.45 411.3 205.35 410.35 205.45 Q410.0 205.5 410.0 205.8 L410.1 206.15 410.6 206.25 411.45 206.3 412.55 206.45 414.05 207.05 415.25 208.15 416.35 210.25 428.95 240.8 430.0 243.2 Q430.4 243.9 430.85 243.85 431.35 243.9 431.75 243.1 L433.15 240.15 435.65 234.35 439.8 224.9 442.1 219.7 444.0 215.6 445.8 211.35 447.4 208.05 448.55 206.85 Q449.2 206.45 449.9 206.35 L451.0 206.25 451.55 206.15 451.8 205.8 Q451.8 205.55 451.5 205.45 L450.75 205.35 449.05 205.4 447.3 205.45 446.05 205.5 M453.2 205.35 L452.35 205.45 Q452.1 205.55 452.1 205.8 L452.3 206.15 452.95 206.25 454.05 206.3 454.9 206.4 Q456.1 206.65 456.55 207.35 457.0 208.0 457.05 209.25 L457.15 211.0 457.15 214.1 457.15 219.85 457.15 228.65 457.15 234.9 456.9 239.3 456.45 241.15 Q456.2 241.9 455.45 242.05 L454.65 242.2 453.65 242.25 453.05 242.35 452.85 242.65 453.1 243.0 453.85 243.15 455.5 243.1 457.3 243.05 459.0 243.0 460.15 243.0 462.5 243.0 465.35 243.15 469.1 243.25 474.0 243.3 475.95 243.1 Q476.5 242.95 476.7 242.0 L477.0 240.35 477.25 238.15 477.35 236.45 477.3 235.8 476.95 235.55 Q476.7 235.55 476.6 235.7 L476.4 236.3 475.65 238.7 Q475.1 239.55 474.15 240.0 L471.8 240.5 469.45 240.6 465.65 240.25 Q464.4 239.9 463.9 239.0 463.5 238.1 463.45 236.4 L463.45 234.1 463.45 231.1 463.45 228.65 463.45 224.7 463.5 224.35 463.75 224.2 465.25 224.2 467.4 224.25 469.5 224.25 470.85 224.35 Q472.2 224.5 472.85 225.05 473.5 225.55 473.65 226.3 L473.8 227.25 473.85 228.1 473.95 228.4 474.3 228.55 Q474.65 228.5 474.7 228.25 L474.75 227.6 474.8 226.8 474.9 225.5 474.95 224.25 475.2 221.6 475.35 220.6 475.25 220.3 475.0 220.2 Q474.85 220.2 474.65 220.4 L474.2 220.85 473.3 221.4 471.8 221.6 470.2 221.65 467.75 221.7 465.35 221.7 463.8 221.7 Q463.55 221.7 463.55 221.55 L463.45 221.15 463.45 208.5 463.55 208.1 463.8 208.0 465.2 208.0 467.4 208.05 469.6 208.1 470.9 208.2 Q472.75 208.4 473.4 208.85 L474.25 210.0 474.5 211.0 474.55 211.8 474.65 212.3 Q474.75 212.5 475.0 212.5 L475.35 212.3 475.5 211.95 475.6 210.95 475.7 209.6 475.75 208.65 476.05 206.3 476.15 205.4 476.1 205.05 475.85 204.95 475.45 205.0 475.05 205.15 474.2 205.3 472.9 205.45 471.4 205.5 468.55 205.5 465.25 205.5 462.25 205.5 460.4 205.5 459.05 205.5 457.25 205.4 455.25 205.4 453.2 205.35 M483.95 205.45 Q483.7 205.55 483.7 205.8 L483.9 206.15 484.55 206.25 485.65 206.3 486.5 206.4 Q487.7 206.65 488.15 207.35 488.6 208.0 488.65 209.25 L488.75 211.0 488.75 214.1 488.75 219.85 488.75 228.65 488.75 234.9 488.5 239.3 488.1 241.15 Q487.8 241.9 487.05 242.05 L486.25 242.2 485.25 242.25 484.65 242.35 484.45 242.65 484.7 243.0 485.45 243.15 487.75 243.1 490.0 243.05 491.55 243.0 493.15 243.05 495.9 243.1 498.9 243.15 499.65 243.0 499.9 242.65 499.75 242.35 499.3 242.25 498.15 242.2 496.85 242.05 Q495.75 241.9 495.35 241.15 495.0 240.4 494.9 239.3 L494.7 234.9 494.65 228.6 494.65 227.9 494.75 227.55 495.05 227.5 499.4 227.6 499.9 227.65 500.3 227.95 501.4 229.45 503.25 232.0 505.25 234.85 508.9 239.55 Q510.55 241.35 512.1 242.2 L514.2 242.95 517.45 243.15 522.2 243.15 522.9 243.05 523.15 242.65 523.0 242.35 522.55 242.25 521.9 242.2 521.15 242.1 520.0 241.8 518.1 240.85 515.55 238.7 Q513.35 236.35 510.7 233.05 L504.7 225.55 Q508.45 222.5 509.9 219.8 511.35 217.1 511.3 214.35 511.3 212.7 510.75 211.3 L509.4 208.95 507.9 207.5 Q505.85 206.15 503.45 205.75 L498.7 205.35 496.55 205.4 493.9 205.45 491.65 205.5 490.0 205.45 487.55 205.4 484.8 205.35 483.95 205.45 M407.55 213.4 Q405.1 209.25 400.6 206.95 396.05 204.65 389.8 204.65 384.15 204.7 380.25 206.5 376.3 208.3 373.85 211.25 371.4 214.15 370.25 217.6 369.15 221.0 369.15 224.25 369.15 227.6 370.25 231.05 371.4 234.5 373.8 237.4 376.25 240.25 380.1 242.05 383.95 243.8 389.3 243.85 394.05 243.85 397.9 242.25 401.7 240.7 404.4 237.9 407.1 235.1 408.55 231.4 410.0 227.65 410.0 223.35 410.0 217.6 407.55 213.4 M331.25 205.5 L329.9 205.5 328.1 205.4 326.05 205.4 324.0 205.35 323.15 205.45 Q322.9 205.55 322.9 205.8 L323.1 206.15 323.75 206.25 324.85 206.3 325.7 206.4 Q326.9 206.65 327.35 207.35 327.85 208.0 327.9 209.25 L328.0 211.0 328.0 214.1 328.0 219.85 328.0 228.65 328.0 234.9 327.75 239.3 Q327.6 240.4 327.25 241.15 327.0 241.9 326.25 242.05 L325.45 242.2 324.45 242.25 323.85 242.35 323.65 242.65 323.9 243.0 324.65 243.15 326.3 243.1 328.15 243.05 329.85 243.0 331.0 243.0 333.35 243.0 336.2 243.15 339.95 243.25 344.85 243.3 346.8 243.1 Q347.35 242.95 347.55 242.0 L347.85 240.35 348.1 238.15 348.2 236.45 348.15 235.8 347.8 235.55 Q347.55 235.55 347.45 235.7 L347.25 236.3 346.5 238.7 Q345.95 239.55 345.0 240.0 L342.65 240.5 340.3 240.6 336.5 240.25 Q335.25 239.9 334.75 239.0 334.35 238.1 334.3 236.4 L334.3 234.1 334.3 231.1 334.3 228.65 334.3 224.7 334.35 224.35 334.6 224.2 336.1 224.2 338.25 224.25 340.35 224.25 341.7 224.35 Q343.05 224.5 343.7 225.05 344.35 225.55 344.5 226.3 L344.65 227.25 344.7 228.1 344.8 228.4 345.15 228.55 Q345.5 228.5 345.55 228.25 L345.6 227.6 345.65 226.8 345.75 225.5 345.8 224.25 346.05 221.6 346.2 220.6 346.1 220.3 345.85 220.2 Q345.7 220.2 345.5 220.4 L345.05 220.85 344.15 221.4 342.65 221.6 341.05 221.65 338.6 221.7 336.2 221.7 334.65 221.7 Q334.4 221.7 334.4 221.55 L334.3 221.15 334.3 208.5 334.4 208.1 334.65 208.0 336.05 208.0 338.25 208.05 340.45 208.1 341.75 208.2 Q343.6 208.4 344.25 208.85 344.9 209.3 345.1 210.0 L345.35 211.0 345.4 211.8 345.5 212.3 Q345.6 212.5 345.85 212.5 L346.2 212.3 346.35 211.95 346.45 210.95 346.55 209.6 346.6 208.65 346.9 206.3 347.0 205.4 346.95 205.05 346.7 204.95 346.3 205.0 345.9 205.15 345.05 205.3 343.75 205.45 342.25 205.5 339.4 205.5 336.1 205.5 333.1 205.5 331.25 205.5 M403.0 225.2 Q402.95 230.55 401.7 233.8 400.4 237.05 398.5 238.7 396.6 240.35 394.7 240.9 L391.4 241.35 Q386.55 241.3 383.15 238.85 379.7 236.35 377.85 232.15 376.05 227.95 376.05 222.7 376.05 218.05 377.15 215.0 378.25 211.95 380.0 210.2 381.85 208.45 384.0 207.7 386.15 207.0 388.35 207.05 392.5 207.05 395.8 209.25 399.1 211.45 401.0 215.5 402.95 219.55 403.0 225.2 M505.4 216.85 Q505.35 219.9 504.5 221.75 503.6 223.55 502.45 224.35 L501.1 225.05 498.9 225.2 496.95 225.1 495.1 224.7 494.75 224.4 494.65 223.8 494.65 208.6 494.75 208.15 495.1 207.9 496.15 207.75 497.75 207.7 Q499.3 207.65 501.05 208.5 502.8 209.3 504.1 211.3 505.35 213.35 505.4 216.85 M307.1 205.45 L293.5 234.0 279.85 205.8 279.1 204.55 Q278.8 204.25 278.5 204.25 278.2 204.25 278.0 204.6 L277.65 205.55 272.7 238.15 272.1 240.65 Q271.7 241.8 270.65 242.1 L269.75 242.2 269.45 242.25 268.95 242.2 267.8 242.05 Q267.3 241.95 266.65 241.5 265.95 241.05 265.15 239.9 264.35 238.8 263.4 236.55 L261.0 230.7 258.0 223.25 254.95 215.7 252.45 209.4 251.0 205.85 250.35 204.6 Q250.1 204.25 249.75 204.25 L249.1 204.7 248.35 206.25 235.8 237.65 Q235.1 239.55 234.15 240.75 233.25 241.9 231.55 242.15 L230.8 242.2 230.0 242.25 229.55 242.35 Q229.4 242.4 229.4 242.65 229.4 242.95 229.65 243.05 L230.35 243.15 232.9 243.1 235.05 243.05 236.25 243.0 238.9 243.05 241.55 243.15 242.2 243.05 242.4 242.65 242.25 242.35 241.65 242.25 240.9 242.25 Q239.75 242.25 239.3 241.8 238.85 241.4 238.9 240.7 L239.1 239.4 239.65 237.65 242.35 230.5 242.55 230.2 242.8 230.1 253.95 230.1 254.25 230.15 254.45 230.45 258.45 241.05 Q258.65 241.5 258.45 241.8 L258.0 242.2 257.5 242.3 257.3 242.65 257.7 242.95 258.8 243.05 264.35 243.1 268.25 243.15 269.05 243.15 269.25 243.15 271.05 243.1 272.85 243.05 274.2 243.0 276.4 243.05 279.45 243.15 280.35 243.05 280.65 242.6 280.45 242.3 279.9 242.25 279.0 242.2 277.8 242.0 Q277.15 241.85 276.75 241.5 276.3 241.1 276.3 240.4 L276.35 239.25 276.45 238.05 279.05 218.15 279.25 218.15 280.75 221.3 282.35 224.7 283.7 227.6 284.45 229.25 285.45 231.3 287.1 234.6 288.9 238.05 290.2 240.6 291.2 242.4 Q291.6 243.05 291.95 243.1 292.25 243.15 292.6 242.6 L293.8 240.3 304.7 217.6 304.9 217.6 307.9 239.6 308.0 241.15 307.65 241.75 307.25 241.95 307.1 242.3 307.4 242.65 308.55 242.85 310.8 242.95 313.9 243.05 316.9 243.1 318.7 243.15 319.65 243.0 Q320.0 242.9 320.0 242.6 L319.75 242.3 319.2 242.25 317.95 242.15 316.1 241.75 Q315.0 241.45 314.5 240.25 313.95 239.05 313.65 236.7 L309.1 205.8 308.8 204.65 Q308.55 204.25 308.2 204.25 L307.65 204.55 Q307.4 204.85 307.1 205.45 M248.5 214.5 L248.65 214.65 248.75 214.95 253.25 227.3 253.25 227.5 253.0 227.6 243.8 227.6 243.6 227.5 243.6 227.25 248.2 214.95 248.3 214.65 248.5 214.5 M208.9 204.85 Q206.7 205.05 204.45 205.75 202.15 206.45 199.75 207.9 197.45 209.25 195.45 211.6 193.5 213.85 192.3 217.05 191.1 220.25 191.05 224.25 191.1 229.45 192.9 233.15 194.75 236.85 198.0 239.25 201.2 241.6 205.35 242.75 209.5 243.85 214.15 243.85 L218.3 243.65 222.5 242.95 Q224.55 242.45 226.2 241.6 L226.75 241.1 226.85 239.85 226.85 234.3 226.85 230.95 226.9 228.3 Q226.9 227.0 227.35 226.3 227.8 225.6 228.8 225.45 L229.55 225.3 230.15 225.3 230.6 225.2 230.8 224.9 230.55 224.5 229.8 224.4 227.9 224.45 225.8 224.5 223.95 224.55 222.0 224.5 219.4 224.45 216.7 224.4 215.9 224.5 215.65 224.9 215.85 225.2 216.4 225.3 217.5 225.3 218.35 225.45 Q219.55 225.7 220.05 226.35 220.5 227.05 220.5 228.3 L220.55 230.9 220.55 234.2 220.55 238.9 220.35 240.0 219.6 240.8 217.5 241.25 215.35 241.3 Q210.05 241.25 206.15 238.85 202.25 236.4 200.1 232.15 197.95 227.95 197.95 222.5 197.95 217.9 199.2 214.95 200.4 211.95 202.55 210.25 204.3 208.8 206.05 208.15 207.8 207.5 209.45 207.3 L212.45 207.15 217.5 207.8 Q219.75 208.45 221.3 209.3 222.85 210.2 223.6 211.05 224.55 212.1 224.85 213.2 L225.3 215.2 225.45 215.65 Q225.55 215.85 225.8 215.85 226.1 215.85 226.2 215.6 L226.35 214.8 226.45 210.0 226.6 207.6 226.7 206.6 226.6 206.2 226.0 206.0 224.0 205.75 222.05 205.45 220.1 205.15 216.8 204.8 213.2 204.65 208.9 204.85" fill="none" stroke="#330000" stroke-linecap="round" stroke-linejoin="round" stroke-width="5.0"/>
    <path d="M441.5 211.8 L442.45 209.3 442.75 208.3 442.9 207.45 442.75 206.9 Q442.6 206.6 442.25 206.5 L441.25 206.3 440.25 206.25 439.65 206.2 439.4 205.85 Q439.4 205.55 439.75 205.45 L440.8 205.35 444.1 205.45 446.05 205.5 447.3 205.45 449.05 205.4 450.75 205.35 451.5 205.45 Q451.8 205.55 451.8 205.8 L451.55 206.15 451.0 206.25 449.9 206.35 Q449.2 206.45 448.55 206.85 L447.4 208.05 445.8 211.35 445.65 211.8 441.5 211.8 M435.4 234.95 L433.15 240.15 431.75 243.1 Q431.35 243.9 430.85 243.85 430.4 243.9 430.0 243.2 L428.95 240.8 426.55 234.95 435.4 234.95 M417.0 211.8 L416.35 210.25 415.25 208.15 414.05 207.05 412.55 206.45 411.45 206.3 410.6 206.25 410.1 206.15 410.0 205.8 Q410.0 205.5 410.35 205.45 L411.3 205.35 415.25 205.45 418.55 205.5 421.15 205.45 424.7 205.35 425.5 205.45 425.85 205.8 425.65 206.15 425.1 206.25 423.95 206.3 Q423.45 206.4 423.15 206.6 L422.75 207.05 422.65 207.65 422.95 209.15 423.8 211.5 423.95 211.8 417.0 211.8 M457.15 211.8 L457.15 211.0 457.05 209.25 Q457.0 208.0 456.55 207.35 456.1 206.65 454.9 206.4 L454.05 206.3 452.95 206.25 452.3 206.15 452.1 205.8 Q452.1 205.55 452.35 205.45 L453.2 205.35 455.25 205.4 457.25 205.4 459.05 205.5 460.4 205.5 462.25 205.5 465.25 205.5 468.55 205.5 471.4 205.5 472.9 205.45 474.2 205.3 475.05 205.15 475.45 205.0 475.85 204.95 476.1 205.05 476.15 205.4 476.05 206.3 475.75 208.65 475.7 209.6 475.6 210.95 475.55 211.8 474.55 211.8 474.5 211.0 474.25 210.0 473.4 208.85 Q472.75 208.4 470.9 208.2 L469.6 208.1 467.4 208.05 465.2 208.0 463.8 208.0 463.55 208.1 463.45 208.5 463.45 211.8 457.15 211.8 M488.75 211.8 L488.75 211.0 488.65 209.25 Q488.6 208.0 488.15 207.35 487.7 206.65 486.5 206.4 L485.65 206.3 484.55 206.25 483.9 206.15 483.7 205.8 Q483.7 205.55 483.95 205.45 L484.8 205.35 487.55 205.4 490.0 205.45 491.65 205.5 493.9 205.45 496.55 205.4 498.7 205.35 503.45 205.75 Q505.85 206.15 507.9 207.5 L509.4 208.95 510.75 211.3 510.95 211.8 504.4 211.8 504.1 211.3 Q502.8 209.3 501.05 208.5 499.3 207.65 497.75 207.7 L496.15 207.75 495.1 207.9 494.75 208.15 494.65 208.6 494.65 211.8 488.75 211.8 M512.25 234.95 L515.55 238.7 518.1 240.85 520.0 241.8 521.15 242.1 521.9 242.2 522.55 242.25 523.0 242.35 523.15 242.65 522.9 243.05 522.2 243.15 517.45 243.15 514.2 242.95 512.1 242.2 Q510.55 241.35 508.9 239.55 L505.35 234.95 512.25 234.95 M494.7 234.95 L494.9 239.3 Q495.0 240.4 495.35 241.15 495.75 241.9 496.85 242.05 L498.15 242.2 499.3 242.25 499.75 242.35 499.9 242.65 499.65 243.0 498.9 243.15 495.9 243.1 493.15 243.05 491.55 243.0 490.0 243.05 487.75 243.1 485.45 243.15 484.7 243.0 484.45 242.65 484.65 242.35 485.25 242.25 486.25 242.2 487.05 242.05 Q487.8 241.9 488.1 241.15 L488.5 239.3 488.75 234.95 494.7 234.95 M406.5 211.8 L398.65 211.8 Q397.4 210.3 395.8 209.25 392.5 207.05 388.35 207.05 386.15 207.0 384.0 207.7 381.85 208.45 380.0 210.2 L378.7 211.8 373.4 211.8 373.85 211.25 Q376.3 208.3 380.25 206.5 384.15 204.7 389.8 204.65 396.05 204.65 400.6 206.95 404.2 208.8 406.5 211.8 M406.75 234.95 L404.4 237.9 Q401.7 240.7 397.9 242.25 394.05 243.85 389.3 243.85 383.95 243.8 380.1 242.05 376.25 240.25 373.8 237.4 L372.05 234.95 379.4 234.95 Q380.95 237.25 383.15 238.85 386.55 241.3 391.4 241.35 L394.7 240.9 Q396.6 240.35 398.5 238.7 400.05 237.35 401.2 234.95 L406.75 234.95 M457.15 234.95 L463.45 234.95 463.45 236.4 Q463.5 238.1 463.9 239.0 464.4 239.9 465.65 240.25 L469.45 240.6 471.8 240.5 474.15 240.0 Q475.1 239.55 475.65 238.7 L476.4 236.3 476.6 235.7 Q476.7 235.55 476.95 235.55 L477.3 235.8 477.35 236.45 477.25 238.15 477.0 240.35 476.7 242.0 Q476.5 242.95 475.95 243.1 L474.0 243.3 469.1 243.25 465.35 243.15 462.5 243.0 460.15 243.0 459.0 243.0 457.3 243.05 455.5 243.1 453.85 243.15 453.1 243.0 452.85 242.65 453.05 242.35 453.65 242.25 454.65 242.2 455.45 242.05 Q456.2 241.9 456.45 241.15 L456.9 239.3 457.15 234.95 M328.0 211.8 L328.0 211.0 327.9 209.25 Q327.85 208.0 327.35 207.35 326.9 206.65 325.7 206.4 L324.85 206.3 323.75 206.25 323.1 206.15 322.9 205.8 Q322.9 205.55 323.15 205.45 L324.0 205.35 326.05 205.4 328.1 205.4 329.9 205.5 331.25 205.5 333.1 205.5 336.1 205.5 339.4 205.5 342.25 205.5 343.75 205.45 345.05 205.3 345.9 205.15 346.3 205.0 346.7 204.95 346.95 205.05 347.0 205.4 346.9 206.3 346.6 208.65 346.55 209.6 346.45 210.95 346.4 211.8 345.4 211.8 345.35 211.0 345.1 210.0 Q344.9 209.3 344.25 208.85 343.6 208.4 341.75 208.2 L340.45 208.1 338.25 208.05 336.05 208.0 334.65 208.0 334.4 208.1 334.3 208.5 334.3 211.8 328.0 211.8 M328.0 234.95 L334.3 234.95 334.3 236.4 Q334.35 238.1 334.75 239.0 335.25 239.9 336.5 240.25 L340.3 240.6 342.65 240.5 345.0 240.0 Q345.95 239.55 346.5 238.7 L347.25 236.3 347.45 235.7 Q347.55 235.55 347.8 235.55 L348.15 235.8 348.2 236.45 348.1 238.15 347.85 240.35 347.55 242.0 Q347.35 242.95 346.8 243.1 L344.85 243.3 339.95 243.25 336.2 243.15 333.35 243.0 331.0 243.0 329.85 243.0 328.15 243.05 326.3 243.1 324.65 243.15 323.9 243.0 323.65 242.65 323.85 242.35 324.45 242.25 325.45 242.2 326.25 242.05 Q327.0 241.9 327.25 241.15 327.6 240.4 327.75 239.3 L328.0 234.95 M304.1 211.8 L307.1 205.45 Q307.4 204.85 307.65 204.55 L308.2 204.25 Q308.55 204.25 308.8 204.65 L309.1 205.8 310.0 211.8 304.1 211.8 M313.4 234.95 L313.65 236.7 Q313.95 239.05 314.5 240.25 315.0 241.45 316.1 241.75 L317.95 242.15 319.2 242.25 319.75 242.3 320.0 242.6 Q320.0 242.9 319.65 243.0 L318.7 243.15 316.9 243.1 313.9 243.05 310.8 242.95 308.55 242.85 307.4 242.65 307.1 242.3 307.25 241.95 307.65 241.75 308.0 241.15 307.9 239.6 307.3 234.95 313.4 234.95 M296.4 234.95 L293.8 240.3 292.6 242.6 Q292.25 243.15 291.95 243.1 291.6 243.05 291.2 242.4 L290.2 240.6 288.9 238.05 287.3 234.95 296.4 234.95 M276.85 234.95 L276.45 238.05 276.35 239.25 276.3 240.4 Q276.3 241.1 276.75 241.5 277.15 241.85 277.8 242.0 L279.0 242.2 279.9 242.25 280.45 242.3 280.65 242.6 280.35 243.05 279.45 243.15 276.4 243.05 274.2 243.0 272.85 243.05 271.05 243.1 269.25 243.15 269.05 243.15 268.25 243.15 264.35 243.1 258.8 243.05 257.7 242.95 257.3 242.65 257.5 242.3 258.0 242.2 258.45 241.8 Q258.65 241.5 258.45 241.05 L256.15 234.95 262.75 234.95 263.4 236.55 Q264.35 238.8 265.15 239.9 265.95 241.05 266.65 241.5 267.3 241.95 267.8 242.05 L268.95 242.2 269.45 242.25 269.75 242.2 270.65 242.1 Q271.7 241.8 272.1 240.65 L272.7 238.15 273.2 234.95 276.85 234.95 M240.7 234.95 L239.65 237.65 239.1 239.4 238.9 240.7 Q238.85 241.4 239.3 241.8 239.75 242.25 240.9 242.25 L241.65 242.25 242.25 242.35 242.4 242.65 242.2 243.05 241.55 243.15 238.9 243.05 236.25 243.0 235.05 243.05 232.9 243.1 230.35 243.15 229.65 243.05 Q229.4 242.95 229.4 242.65 229.4 242.4 229.55 242.35 L230.0 242.25 230.8 242.2 231.55 242.15 Q233.25 241.9 234.15 240.75 235.1 239.55 235.8 237.65 L236.9 234.95 240.7 234.95 M246.15 211.8 L248.35 206.25 249.1 204.7 249.75 204.25 Q250.1 204.25 250.35 204.6 L251.0 205.85 252.45 209.4 253.4 211.8 246.15 211.8 M276.7 211.8 L277.65 205.55 278.0 204.6 Q278.2 204.25 278.5 204.25 278.8 204.25 279.1 204.55 L279.85 205.8 282.75 211.8 276.7 211.8 M195.3 211.8 L195.45 211.6 Q197.45 209.25 199.75 207.9 202.15 206.45 204.45 205.75 206.7 205.05 208.9 204.85 L213.2 204.65 216.8 204.8 220.1 205.15 222.05 205.45 224.0 205.75 226.0 206.0 226.6 206.2 226.7 206.6 226.6 207.6 226.45 210.0 226.4 211.8 224.2 211.8 223.6 211.05 Q222.85 210.2 221.3 209.3 219.75 208.45 217.5 207.8 L212.45 207.15 209.45 207.3 Q207.8 207.5 206.05 208.15 204.3 208.8 202.55 210.25 201.7 210.9 201.0 211.8 L195.3 211.8 M201.85 234.95 Q203.65 237.25 206.15 238.85 210.05 241.25 215.35 241.3 L217.5 241.25 219.6 240.8 220.35 240.0 220.55 238.9 220.55 234.95 226.85 234.95 226.85 239.85 226.75 241.1 226.2 241.6 Q224.55 242.45 222.5 242.95 L218.3 243.65 214.15 243.85 Q209.5 243.85 205.35 242.75 201.2 241.6 198.0 239.25 195.6 237.45 193.95 234.95 L201.85 234.95" fill="#990000" fill-rule="evenodd" stroke="none"/>
    <path d="M441.5 211.8 L445.65 211.8 444.0 215.6 442.1 219.7 442.05 219.85 438.3 219.85 439.05 217.9 441.15 212.65 441.5 211.8 M438.5 227.9 L435.65 234.35 435.4 234.95 426.55 234.95 423.65 227.9 430.05 227.9 432.4 234.2 432.6 234.2 434.35 229.8 435.1 227.9 438.5 227.9 M420.35 219.85 L417.0 211.8 423.95 211.8 427.0 219.85 420.35 219.85 M457.15 211.8 L463.45 211.8 463.45 219.85 457.15 219.85 457.15 214.1 457.15 211.8 M474.55 211.8 L475.55 211.8 475.5 211.95 475.35 212.3 475.0 212.5 Q474.75 212.5 474.65 212.3 L474.55 211.8 M488.75 211.8 L494.65 211.8 494.65 219.85 488.75 219.85 488.75 214.1 488.75 211.8 M504.4 211.8 L510.95 211.8 Q511.3 213.0 511.3 214.35 511.35 217.1 509.9 219.8 L509.9 219.85 505.1 219.85 505.4 216.85 Q505.35 213.75 504.4 211.8 M506.6 227.9 L510.7 233.05 512.25 234.95 505.35 234.95 505.25 234.85 503.25 232.0 501.4 229.45 500.3 227.95 500.3 227.9 506.6 227.9 M494.65 227.9 L494.65 228.6 494.7 234.9 494.7 234.95 488.75 234.95 488.75 234.9 488.75 228.65 488.75 227.9 494.65 227.9 M406.5 211.8 L407.55 213.4 Q409.2 216.25 409.75 219.85 L402.45 219.85 Q401.95 217.5 401.0 215.5 400.0 213.4 398.65 211.8 L406.5 211.8 M409.6 227.9 L408.55 231.4 406.75 234.95 401.2 234.95 401.7 233.8 Q402.6 231.4 402.9 227.9 L409.6 227.9 M372.05 234.95 Q370.95 233.1 370.25 231.05 L369.5 227.9 376.55 227.9 Q377.0 230.15 377.85 232.15 L379.4 234.95 372.05 234.95 M369.65 219.85 L370.25 217.6 Q371.3 214.45 373.4 211.8 L378.7 211.8 Q377.8 213.15 377.15 215.0 376.4 217.05 376.2 219.85 L369.65 219.85 M457.15 227.9 L463.45 227.9 463.45 228.65 463.45 231.1 463.45 234.1 463.45 234.95 457.15 234.95 457.15 234.9 457.15 228.65 457.15 227.9 M473.85 227.9 L474.8 227.9 474.7 228.25 Q474.65 228.5 474.3 228.55 L473.95 228.4 473.85 228.1 473.85 227.9 M328.0 211.8 L334.3 211.8 334.3 219.85 328.0 219.85 328.0 214.1 328.0 211.8 M345.4 211.8 L346.4 211.8 346.35 211.95 346.2 212.3 345.85 212.5 Q345.6 212.5 345.5 212.3 L345.4 211.8 M328.0 227.9 L334.3 227.9 334.3 228.65 334.3 231.1 334.3 234.1 334.3 234.95 328.0 234.95 328.0 234.9 328.0 228.65 328.0 227.9 M344.7 227.9 L345.65 227.9 345.55 228.25 Q345.5 228.5 345.15 228.55 L344.8 228.4 344.7 228.1 344.7 227.9 M304.1 211.8 L310.0 211.8 311.2 219.85 305.2 219.85 304.9 217.6 304.7 217.6 303.65 219.85 300.25 219.85 304.1 211.8 M312.35 227.9 L313.4 234.95 307.3 234.95 306.3 227.9 312.35 227.9 M299.75 227.9 L296.4 234.95 287.3 234.95 287.1 234.6 285.45 231.3 284.45 229.25 283.85 227.9 290.55 227.9 293.5 234.0 296.4 227.9 299.75 227.9 M280.1 219.85 L279.25 218.15 279.05 218.15 278.85 219.85 275.5 219.85 276.7 211.8 282.75 211.8 286.65 219.85 280.1 219.85 M277.8 227.9 L276.85 234.95 273.2 234.95 274.25 227.9 277.8 227.9 M256.15 234.95 L254.45 230.45 254.25 230.15 253.95 230.1 242.8 230.1 242.55 230.2 242.35 230.5 240.7 234.95 236.9 234.95 239.7 227.9 259.9 227.9 261.0 230.7 262.75 234.95 256.15 234.95 M242.95 219.85 L246.15 211.8 253.4 211.8 254.95 215.7 256.65 219.85 250.55 219.85 248.75 214.95 248.65 214.65 248.5 214.5 248.3 214.65 248.2 214.95 246.4 219.85 242.95 219.85 M195.3 211.8 L201.0 211.8 Q199.95 213.15 199.2 214.95 198.35 217.0 198.1 219.85 L191.5 219.85 192.3 217.05 Q193.45 214.0 195.3 211.8 M224.2 211.8 L226.4 211.8 226.35 214.8 226.2 215.6 Q226.1 215.85 225.8 215.85 225.55 215.85 225.45 215.65 L225.3 215.2 224.85 213.2 224.2 211.8 M198.55 227.9 Q199.1 230.15 200.1 232.15 L201.85 234.95 193.95 234.95 192.9 233.15 Q191.75 230.8 191.35 227.9 L198.55 227.9 M220.55 234.95 L220.55 234.2 220.55 230.9 220.5 228.3 220.5 227.9 226.9 227.9 226.9 228.3 226.85 230.95 226.85 234.3 226.85 234.95 220.55 234.95" fill="#db0202" fill-rule="evenodd" stroke="none"/>
    <path d="M442.05 219.85 L439.8 224.9 438.5 227.9 435.1 227.9 436.65 224.0 438.3 219.85 442.05 219.85 M423.65 227.9 L420.35 219.85 427.0 219.85 430.05 227.9 423.65 227.9 M509.9 219.85 Q508.4 222.55 504.7 225.55 L506.6 227.9 500.3 227.9 499.9 227.65 499.4 227.6 495.05 227.5 494.75 227.55 494.65 227.9 488.75 227.9 488.75 219.85 494.65 219.85 494.65 223.8 494.75 224.4 495.1 224.7 496.95 225.1 498.9 225.2 501.1 225.05 502.45 224.35 Q503.6 223.55 504.5 221.75 L505.1 219.85 509.9 219.85 M402.45 219.85 L409.75 219.85 410.0 223.35 Q410.0 225.7 409.6 227.9 L402.9 227.9 403.0 225.2 Q402.95 222.3 402.45 219.85 M369.5 227.9 Q369.15 226.05 369.15 224.25 369.15 222.1 369.65 219.85 L376.2 219.85 Q376.05 221.2 376.05 222.7 376.05 225.45 376.55 227.9 L369.5 227.9 M463.45 219.85 L463.45 221.15 463.55 221.55 Q463.55 221.7 463.8 221.7 L465.35 221.7 467.75 221.7 470.2 221.65 471.8 221.6 473.3 221.4 474.2 220.85 474.65 220.4 Q474.85 220.2 475.0 220.2 L475.25 220.3 475.35 220.6 475.2 221.6 474.95 224.25 474.9 225.5 474.8 226.8 474.75 227.6 474.8 227.9 473.85 227.9 473.8 227.25 473.65 226.3 Q473.5 225.55 472.85 225.05 472.2 224.5 470.85 224.35 L469.5 224.25 467.4 224.25 465.25 224.2 463.75 224.2 463.5 224.35 463.45 224.7 463.45 227.9 457.15 227.9 457.15 219.85 463.45 219.85 M334.3 219.85 L334.3 221.15 334.4 221.55 Q334.4 221.7 334.65 221.7 L336.2 221.7 338.6 221.7 341.05 221.65 342.65 221.6 344.15 221.4 345.05 220.85 345.5 220.4 Q345.7 220.2 345.85 220.2 L346.1 220.3 346.2 220.6 346.05 221.6 345.8 224.25 345.75 225.5 345.65 226.8 345.6 227.6 345.65 227.9 344.7 227.9 344.65 227.25 344.5 226.3 Q344.35 225.55 343.7 225.05 343.05 224.5 341.7 224.35 L340.35 224.25 338.25 224.25 336.1 224.2 334.6 224.2 334.35 224.35 334.3 224.7 334.3 227.9 328.0 227.9 328.0 219.85 334.3 219.85 M311.2 219.85 L312.35 227.9 306.3 227.9 305.2 219.85 311.2 219.85 M303.65 219.85 L299.75 227.9 296.4 227.9 300.25 219.85 303.65 219.85 M283.85 227.9 L283.7 227.6 282.35 224.7 280.75 221.3 280.1 219.85 286.65 219.85 290.55 227.9 283.85 227.9 M278.85 219.85 L277.8 227.9 274.25 227.9 275.5 219.85 278.85 219.85 M239.7 227.9 L242.95 219.85 246.4 219.85 243.6 227.25 243.6 227.5 243.8 227.6 253.0 227.6 253.25 227.5 253.25 227.3 250.55 219.85 256.65 219.85 258.0 223.25 259.9 227.9 239.7 227.9 M191.35 227.9 Q191.05 226.2 191.05 224.25 191.1 221.9 191.5 219.85 L198.1 219.85 Q197.95 221.1 197.95 222.5 197.95 225.35 198.55 227.9 L191.35 227.9 M220.5 227.9 Q220.45 226.95 220.05 226.35 219.55 225.7 218.35 225.45 L217.5 225.3 216.4 225.3 215.85 225.2 215.65 224.9 215.9 224.5 216.7 224.4 219.4 224.45 222.0 224.5 223.95 224.55 225.8 224.5 227.9 224.45 229.8 224.4 230.55 224.5 230.8 224.9 230.6 225.2 230.15 225.3 229.55 225.3 228.8 225.45 Q227.8 225.6 227.35 226.3 226.95 226.9 226.9 227.9 L220.5 227.9" fill="#fd3535" fill-rule="evenodd" stroke="none"/>
  </g>
  <defs>
    <radialGradient cx="0" cy="0" gradientTransform="matrix(0.4841, 0.0, 0.0, 0.2149, 359.95, 230.0)" gradientUnits="userSpaceOnUse" id="gradient0" r="819.2" spreadMethod="pad">
      <stop offset="0.0" stop-color="#870101" stop-opacity="0.7411765"/>
      <stop offset="1.0" stop-color="#000000" stop-opacity="0.0"/>
    </radialGradient>
  </defs>
</svg>
