<?xml version="1.0" encoding="UTF-8" standalone="no"?>
<svg xmlns:xlink="http://www.w3.org/1999/xlink" height="39.7px" width="45.3px" xmlns="http://www.w3.org/2000/svg">
  <g transform="matrix(1.0, 0.0, 0.0, 1.0, 8.6, -3.8)">
    <path d="M31.4 5.3 Q33.15 9.9 33.95 13.55 35.0 18.2 35.2 22.65 L35.2 25.25 35.15 26.55 Q34.85 32.0 33.25 37.2 L32.85 38.4 31.4 42.0 -3.3 42.0 -3.45 42.0 Q-6.5 34.3 -7.0 26.55 L-7.05 24.7 -7.05 22.1 Q-6.95 17.9 -6.0 13.55 L-5.1 10.15 -4.75 8.95 -3.45 5.3 -3.3 5.3 31.4 5.3 M33.25 37.2 L34.1 33.75 Q35.05 29.4 35.2 25.25 35.05 29.4 34.1 33.75 L33.25 37.2 M-4.75 8.95 L-3.3 5.3 -4.75 8.95 M-3.3 42.0 Q-5.05 37.4 -5.85 33.75 -6.9 29.1 -7.05 24.7 -6.9 29.1 -5.85 33.75 -5.05 37.4 -3.3 42.0" fill="url(#gradient0)" fill-rule="evenodd" stroke="none"/>
    <path d="M35.2 22.65 L35.1 20.75 Q34.6 13.0 31.55 5.3 M35.2 22.65 L35.2 25.25 Q35.05 29.4 34.1 33.75 L33.25 37.2 32.85 38.4 31.55 42.0 31.4 42.0 -3.3 42.0" fill="none" stroke="#98bede" stroke-linecap="round" stroke-linejoin="round" stroke-width="3.0"/>
    <path d="M31.55 5.3 L31.4 5.3 M-7.05 24.7 L-7.05 22.1 -7.05 20.75 Q-6.75 15.3 -5.1 10.15 L-4.75 8.95 M-3.3 5.3 L31.4 5.3 M-3.3 5.3 L-4.75 8.95 M-7.05 24.7 Q-6.9 29.1 -5.85 33.75 -5.05 37.4 -3.3 42.0" fill="none" stroke="#1f447a" stroke-linecap="round" stroke-linejoin="round" stroke-width="3.0"/>
  </g>
  <defs>
    <linearGradient gradientTransform="matrix(-0.0244, 0.0, 0.0, 0.0224, 14.25, 23.4)" gradientUnits="userSpaceOnUse" id="gradient0" spreadMethod="pad" x1="-819.2" x2="819.2">
      <stop offset="0.0" stop-color="#4926d9" stop-opacity="0.0"/>
      <stop offset="1.0" stop-color="#06529b" stop-opacity="0.72156864"/>
    </linearGradient>
  </defs>
</svg>
