<?xml version="1.0" encoding="UTF-8" standalone="no"?>
<svg xmlns:xlink="http://www.w3.org/1999/xlink" height="338.4px" width="454.8px" xmlns="http://www.w3.org/2000/svg">
  <g transform="matrix(1.0, 0.0, 0.0, 1.0, 227.4, 168.2)">
    <path d="M227.0 -168.2 L227.0 170.2 -227.4 170.2 -227.4 -168.2 227.0 -168.2" fill="#000000" fill-rule="evenodd" stroke="none"/>
    <path d="M-109.8 -69.85 L-109.8 -114.55 -109.2 -113.75 -108.3 -112.35 -106.0 -115.15 -104.35 -113.85 Q-98.55 -109.2 -95.2 -103.15 -91.65 -96.9 -89.45 -90.25 L-86.9 -101.7 Q-84.45 -101.15 -82.6 -99.75 -81.7 -99.1 -80.45 -98.85 L-76.6 -98.55 -70.0 -97.85 Q-68.3 -97.55 -67.9 -95.95 -74.7 -93.35 -82.05 -93.0 -69.35 -90.55 -56.3 -89.0 L-47.85 -87.4 Q-36.25 -84.15 -24.1 -82.5 L-17.5 -81.75 -11.85 -80.7 -8.2 -79.7 -5.65 -79.75 Q0.45 -81.5 6.45 -79.7 L8.55 -79.25 Q13.1 -79.05 17.8 -79.45 L27.55 -79.4 Q32.95 -79.45 37.9 -81.2 L39.6 -81.6 Q41.75 -81.9 43.45 -82.8 L40.05 -83.3 60.6 -84.35 88.25 -83.5 Q110.05 -82.7 131.7 -84.4 L137.9 -84.65 140.9 -84.3 141.45 -84.4 Q145.1 -88.7 151.3 -87.45 L153.25 -88.05 160.4 -73.6 Q161.7 -74.2 161.95 -75.2 163.05 -79.25 163.85 -83.75 L164.55 -83.45 165.8 -82.2 167.05 -80.45 Q168.35 -78.35 168.95 -75.9 168.95 -79.7 171.45 -83.05 172.3 -84.15 173.7 -84.55 L174.2 -84.75 174.2 -71.6 Q171.0 -73.55 166.85 -72.65 166.2 -72.55 165.95 -72.05 165.45 -71.25 164.35 -70.5 160.3 -71.25 157.8 -68.35 L156.9 -67.1 153.8 -70.45 Q151.85 -70.4 150.6 -69.15 L147.0 -65.45 146.15 -64.8 Q145.2 -68.4 140.85 -68.85 139.5 -68.6 138.85 -67.6 L134.85 -62.25 134.15 -61.6 Q133.9 -65.7 130.9 -68.85 127.45 -64.55 122.75 -61.15 122.4 -65.4 118.9 -68.2 114.7 -67.8 111.9 -64.8 110.85 -67.55 107.55 -66.9 105.7 -66.55 104.1 -65.7 L100.75 -64.15 99.6 -63.75 Q95.4 -65.25 93.1 -68.55 88.0 -66.3 85.15 -62.5 L83.4 -59.75 82.85 -63.9 Q79.15 -62.5 77.25 -59.2 L75.3 -56.35 Q74.3 -55.1 72.45 -55.5 70.15 -56.9 68.6 -58.9 66.7 -61.5 64.05 -63.6 62.05 -65.15 59.45 -65.1 L58.0 -64.9 54.2 -63.5 Q51.2 -64.05 48.95 -66.05 46.05 -68.65 42.7 -66.8 41.75 -66.3 41.2 -65.3 L34.95 -68.4 30.35 -63.0 28.15 -65.65 Q23.2 -64.05 20.1 -60.2 18.75 -63.8 16.8 -67.05 16.2 -68.05 15.2 -68.75 12.9 -68.55 11.1 -66.7 9.05 -64.65 6.4 -63.0 5.65 -67.0 2.35 -69.45 L-5.1 -68.0 Q-5.95 -67.9 -6.8 -68.5 -9.15 -70.5 -12.5 -70.8 -14.9 -70.8 -15.85 -69.0 -19.05 -72.25 -24.0 -73.0 L-26.65 -73.4 -28.35 -73.75 Q-31.95 -75.0 -35.8 -74.6 L-41.55 -75.0 -46.7 -73.95 -49.05 -73.75 -58.7 -73.35 Q-59.2 -73.3 -59.6 -73.55 L-62.85 -75.2 Q-66.25 -76.45 -67.8 -73.6 -71.6 -78.25 -76.95 -81.0 L-78.35 -81.35 -80.9 -80.55 Q-83.15 -79.35 -85.55 -80.9 L-86.45 -81.35 Q-88.95 -80.0 -91.05 -78.4 -92.15 -77.6 -93.75 -77.75 L-95.85 -78.1 Q-98.3 -76.4 -99.4 -73.95 L-103.35 -65.45 Q-104.1 -63.85 -105.95 -63.0 -108.05 -66.35 -109.8 -69.85" fill="#0c1212" fill-rule="evenodd" stroke="none"/>
    <path d="M-109.8 -69.85 Q-108.05 -66.35 -105.95 -63.0 L-109.8 -63.0 -109.8 -69.85 M-106.85 -24.7 L-109.8 -24.0 -109.8 -24.7 -106.85 -24.7" fill="#353d3c" fill-rule="evenodd" stroke="none"/>
    <path d="M-105.95 -63.0 Q-104.1 -63.85 -103.35 -65.45 L-99.4 -73.95 Q-98.3 -76.4 -95.85 -78.1 L-93.75 -77.75 Q-92.15 -77.6 -91.05 -78.4 -88.95 -80.0 -86.45 -81.35 L-85.55 -80.9 Q-83.15 -79.35 -80.9 -80.55 L-78.35 -81.35 -76.95 -81.0 Q-71.6 -78.25 -67.8 -73.6 -66.25 -76.45 -62.85 -75.2 L-59.6 -73.55 Q-59.2 -73.3 -58.7 -73.35 L-49.05 -73.75 -46.7 -73.95 -41.55 -75.0 -35.8 -74.6 Q-31.95 -75.0 -28.35 -73.75 L-26.65 -73.4 -24.0 -73.0 Q-19.05 -72.25 -15.85 -69.0 -14.9 -70.8 -12.5 -70.8 -9.15 -70.5 -6.8 -68.5 -5.95 -67.9 -5.1 -68.0 L2.35 -69.45 Q5.65 -67.0 6.4 -63.0 9.05 -64.65 11.1 -66.7 12.9 -68.55 15.2 -68.75 16.2 -68.05 16.8 -67.05 18.75 -63.8 20.1 -60.2 23.2 -64.05 28.15 -65.65 L30.35 -63.0 34.95 -68.4 41.2 -65.3 Q41.75 -66.3 42.7 -66.8 46.05 -68.65 48.95 -66.05 51.2 -64.05 54.2 -63.5 L58.0 -64.9 59.45 -65.1 Q62.05 -65.15 64.05 -63.6 66.7 -61.5 68.6 -58.9 70.15 -56.9 72.45 -55.5 74.3 -55.1 75.3 -56.35 L77.25 -59.2 Q79.15 -62.5 82.85 -63.9 L83.4 -59.75 85.15 -62.5 Q88.0 -66.3 93.1 -68.55 95.4 -65.25 99.6 -63.75 L100.75 -64.15 104.1 -65.7 Q105.7 -66.55 107.55 -66.9 110.85 -67.55 111.9 -64.8 114.7 -67.8 118.9 -68.2 122.4 -65.4 122.75 -61.15 127.45 -64.55 130.9 -68.85 133.9 -65.7 134.15 -61.6 L134.85 -62.25 138.85 -67.6 Q139.5 -68.6 140.85 -68.85 145.2 -68.4 146.15 -64.8 L147.0 -65.45 150.6 -69.15 Q151.85 -70.4 153.8 -70.45 L156.9 -67.1 157.8 -68.35 Q160.3 -71.25 164.35 -70.5 165.45 -71.25 165.95 -72.05 166.2 -72.55 166.85 -72.65 171.0 -73.55 174.2 -71.6 L174.2 -39.05 169.55 -38.95 169.0 -39.55 162.45 -35.05 157.15 -30.55 Q152.0 -25.95 144.95 -23.7 130.05 -33.0 111.4 -35.95 105.55 -36.85 100.3 -38.9 L91.05 -42.4 Q84.9 -44.7 78.4 -45.7 L49.1 -50.05 41.6 -51.05 24.15 -49.35 3.45 -47.1 -1.6 -46.3 -21.0 -44.1 Q-28.4 -43.25 -35.6 -41.55 L-41.5 -40.45 -51.85 -39.2 -66.65 -36.7 Q-70.8 -36.2 -74.45 -34.6 -79.1 -32.6 -84.25 -31.55 -93.4 -29.5 -102.15 -26.05 -104.4 -25.25 -106.85 -24.7 L-109.8 -24.7 -109.8 -63.0 -105.95 -63.0" fill="#252934" fill-rule="evenodd" stroke="none"/>
    <path d="M-102.2 169.85 Q-94.05 167.75 -88.25 161.7 L-88.1 161.5 Q-92.55 160.25 -97.35 161.05 L-101.35 161.85 -116.35 164.65 Q-108.8 163.1 -101.65 160.4 -84.1 154.05 -67.25 146.3 L-88.05 147.35 Q-95.75 147.3 -102.5 143.3 -98.45 141.6 -93.95 142.1 -88.6 141.9 -83.45 140.65 -73.1 138.25 -63.35 133.75 -53.95 129.3 -45.9 122.65 L-42.7 119.9 -46.15 120.5 Q-53.9 121.6 -61.55 120.8 -63.45 120.5 -64.6 119.25 L-64.55 119.2 -63.55 117.95 Q-58.85 116.85 -54.5 114.85 -40.55 108.15 -27.55 99.75 L-21.05 95.45 Q-15.8 91.8 -11.1 87.15 L-11.05 88.55 Q-10.9 89.85 -10.3 90.95 -1.9 106.4 9.8 119.5 13.35 123.5 17.35 126.9 20.15 129.4 23.35 131.5 L27.35 133.95 27.25 134.1 22.0 133.6 Q12.2 133.45 2.8 131.65 -4.5 130.45 -11.1 127.65 L-3.25 136.4 Q8.2 149.1 23.5 156.6 28.75 159.1 34.45 160.95 L38.05 162.25 45.95 165.3 43.95 164.65 37.4 163.9 Q22.65 164.4 7.75 163.55 L11.4 169.85 -102.2 169.85 M65.6 169.85 L89.35 155.0 86.55 154.55 83.75 155.3 Q77.65 157.3 71.6 159.45 L65.95 160.7 69.8 157.35 77.85 150.35 Q84.1 145.1 88.75 138.45 L77.35 141.35 Q79.5 138.95 81.8 136.7 84.1 134.45 86.75 132.55 93.3 127.7 98.3 121.5 L101.3 117.35 96.45 120.15 Q81.1 128.45 65.05 135.2 L37.65 147.1 30.0 150.45 37.25 146.25 Q52.95 137.0 66.65 125.15 L75.2 116.95 97.5 93.6 Q100.5 90.4 103.2 86.4 L103.6 85.4 97.5 88.1 Q94.25 89.55 90.85 89.95 L88.75 90.0 95.05 83.15 Q92.4 84.65 89.9 86.3 L87.35 87.95 84.65 89.85 Q81.9 91.8 78.7 93.0 L75.05 94.0 77.75 90.0 Q94.4 67.75 115.2 49.35 124.8 40.85 134.7 32.85 136.1 31.75 137.75 30.95 139.4 30.15 140.05 28.6 L140.65 28.95 141.65 30.65 Q149.95 47.5 164.1 59.85 169.9 64.95 176.4 69.2 190.0 78.15 205.0 84.55 L208.55 86.0 Q206.35 86.9 204.0 86.8 L190.85 87.75 174.9 87.15 183.45 95.7 174.9 94.0 Q176.45 99.2 181.3 101.45 L188.7 105.05 Q198.4 110.0 207.75 115.65 217.05 121.2 227.4 124.8 L227.4 129.5 219.45 129.95 Q213.7 130.1 207.9 129.9 L200.95 128.7 Q188.3 125.6 175.45 123.65 179.9 131.5 186.3 137.9 L179.3 136.15 Q180.4 138.5 182.3 140.1 L190.1 146.05 Q198.4 152.1 207.65 156.25 217.2 160.5 227.4 162.95 L227.4 169.85 65.6 169.85" fill="#1e3333" fill-rule="evenodd" stroke="none"/>
    <path d="M110.1 -6.65 Q113.45 -25.8 120.15 -43.65 121.45 -47.1 124.15 -49.8 L127.05 -39.15 128.25 -32.15 Q130.55 -18.25 135.5 -5.15 139.1 4.35 144.65 12.95 153.2 -9.2 156.65 -32.45 156.9 -34.2 157.65 -35.9 158.95 -38.8 161.5 -40.75 L161.85 -40.5 Q165.65 -35.95 167.65 -30.5 171.05 -21.2 176.05 -12.7 177.3 -15.2 177.75 -17.95 180.25 -34.25 181.65 -50.55 L181.75 -52.05 182.6 -50.45 185.95 -41.9 Q189.7 -30.5 194.3 -19.55 L197.7 -33.8 204.9 -24.5 206.0 -25.65 Q207.3 -27.2 207.55 -29.3 L208.55 -37.25 210.2 -33.75 Q211.25 -31.6 212.65 -29.6 213.1 -29.05 213.85 -28.9 216.05 -28.5 217.2 -30.35 219.15 -33.45 220.0 -37.05 222.15 -46.15 223.4 -55.5 L227.4 -37.1 227.4 124.8 Q217.05 121.2 207.75 115.65 198.4 110.0 188.7 105.05 L181.3 101.45 Q176.45 99.2 174.9 94.0 L183.45 95.7 174.9 87.15 190.85 87.75 204.0 86.8 Q206.35 86.9 208.55 86.0 L205.0 84.55 Q190.0 78.15 176.4 69.2 169.9 64.95 164.1 59.85 149.95 47.5 141.65 30.65 L140.65 28.95 140.05 28.6 Q139.4 30.15 137.75 30.95 136.1 31.75 134.7 32.85 124.8 40.85 115.2 49.35 94.4 67.75 77.75 90.0 L75.05 94.0 78.7 93.0 Q81.9 91.8 84.65 89.85 L87.35 87.95 89.9 86.3 Q92.4 84.65 95.05 83.15 L88.75 90.0 90.85 89.95 Q94.25 89.55 97.5 88.1 L103.6 85.4 103.2 86.4 Q100.5 90.4 97.5 93.6 L75.2 116.95 66.65 125.15 Q52.95 137.0 37.25 146.25 L30.0 150.45 37.65 147.1 65.05 135.2 Q81.1 128.45 96.45 120.15 L101.3 117.35 98.3 121.5 Q93.3 127.7 86.75 132.55 84.1 134.45 81.8 136.7 79.5 138.95 77.35 141.35 L88.75 138.45 Q84.1 145.1 77.85 150.35 L69.8 157.35 65.95 160.7 71.6 159.45 Q77.65 157.3 83.75 155.3 L86.55 154.55 89.35 155.0 65.6 169.85 11.4 169.85 7.75 163.55 Q22.65 164.4 37.4 163.9 L43.95 164.65 45.95 165.3 38.05 162.25 34.45 160.95 Q28.75 159.1 23.5 156.6 8.2 149.1 -3.25 136.4 L-11.1 127.65 Q-4.5 130.45 2.8 131.65 12.2 133.45 22.0 133.6 L27.25 134.1 28.3 134.5 27.35 133.95 23.35 131.5 Q20.15 129.4 17.35 126.9 13.35 123.5 9.8 119.5 -1.9 106.4 -10.3 90.95 -10.9 89.85 -11.05 88.55 L-11.1 87.15 Q-15.8 91.8 -21.05 95.45 L-27.55 99.75 Q-40.55 108.15 -54.5 114.85 -58.85 116.85 -63.55 117.95 L-64.55 119.2 -64.6 119.25 Q-63.45 120.5 -61.55 120.8 -53.9 121.6 -46.15 120.5 L-42.7 119.9 -45.9 122.65 Q-53.95 129.3 -63.35 133.75 -73.1 138.25 -83.45 140.65 -88.6 141.9 -93.95 142.1 -98.45 141.6 -102.5 143.3 -95.75 147.3 -88.05 147.35 L-67.25 146.3 Q-84.1 154.05 -101.65 160.4 -108.8 163.1 -116.35 164.65 L-101.35 161.85 -97.35 161.05 Q-92.55 160.25 -88.1 161.5 L-88.25 161.7 Q-94.05 167.75 -102.2 169.85 L-226.15 169.85 -226.15 86.05 Q-224.1 84.95 -221.95 84.2 L-216.15 82.4 -214.4 81.2 Q-210.9 77.5 -208.45 72.85 -201.1 59.0 -191.5 46.85 L-191.35 46.65 -190.9 47.25 -189.65 73.45 Q-186.05 70.5 -185.05 66.0 L-184.55 66.35 -182.2 74.0 Q-181.65 69.05 -177.0 70.55 L-175.95 72.85 -171.4 66.6 -168.55 72.85 Q-159.65 52.0 -143.45 35.8 L-143.15 41.95 -142.45 54.15 Q-142.2 59.95 -140.0 65.45 L-136.0 54.05 -131.45 65.45 -130.05 63.9 -127.3 60.75 Q-125.9 59.05 -123.85 59.25 L-119.2 66.05 Q-114.2 65.45 -110.35 68.3 -108.85 61.45 -106.75 54.8 L-104.6 48.1 Q-103.0 42.9 -99.9 38.8 -97.75 36.0 -94.45 35.5 -93.75 35.85 -93.5 36.4 -88.65 46.75 -86.4 58.05 -82.8 47.95 -80.05 37.55 -77.9 29.3 -73.85 22.1 -69.25 33.4 -67.0 45.5 -65.45 42.6 -64.7 39.65 -59.5 19.75 -51.6 1.0 -49.9 15.9 -49.0 30.95 -48.55 38.05 -45.85 44.35 L-44.15 40.35 Q-43.55 44.9 -40.75 48.35 L-40.05 48.0 Q-37.8 46.6 -37.85 44.05 -37.8 45.6 -37.05 47.15 L-36.0 49.05 -34.65 50.8 -33.85 51.6 -33.5 51.8 -33.15 51.85 -31.6 51.2 Q-30.9 53.1 -29.05 54.1 L-27.25 54.3 -25.75 53.45 -25.0 52.65 -24.3 51.7 -23.65 50.6 -23.1 51.75 -22.55 52.8 -22.0 53.55 -21.35 54.15 -20.75 54.55 -20.15 54.6 -19.85 54.6 Q-16.5 50.25 -15.05 44.9 -12.45 35.1 -9.25 25.55 -8.15 22.35 -5.9 19.75 L-5.35 19.15 Q-2.8 23.3 -1.95 28.35 L0.3 40.2 0.9 42.05 2.1 40.6 2.6 39.8 3.0 39.0 3.3 38.15 3.5 37.2 3.65 36.25 3.75 35.5 3.75 35.2 4.25 35.55 9.4 45.85 9.75 45.9 10.6 45.5 11.4 45.15 12.15 44.55 12.9 43.8 13.45 43.2 Q13.95 45.5 15.85 46.4 17.55 47.25 19.4 46.2 L21.1 46.15 Q24.05 47.75 26.0 50.3 27.9 52.9 31.3 53.5 L36.25 53.7 37.05 53.55 Q42.45 48.75 45.4 41.8 49.55 32.15 52.0 21.85 L55.35 8.6 Q57.25 2.0 60.25 -4.4 61.65 -7.45 64.3 -9.0 L64.7 -9.1 73.35 21.55 76.8 9.55 Q78.45 11.5 79.3 13.7 80.65 17.25 82.55 20.2 L83.3 20.95 Q87.3 23.2 91.05 19.8 L91.6 22.55 Q93.65 23.1 95.65 21.85 100.45 18.95 103.1 13.95 106.45 7.55 108.35 0.85 L109.95 -5.6 110.1 -6.65 M227.4 162.95 Q217.2 160.5 207.65 156.25 198.4 152.1 190.1 146.05 L182.3 140.1 Q180.4 138.5 179.3 136.15 L186.3 137.9 Q179.9 131.5 175.45 123.65 188.3 125.6 200.95 128.7 L207.9 129.9 Q213.7 130.1 219.45 129.95 L227.4 129.5 227.4 162.95" fill="#182928" fill-rule="evenodd" stroke="none"/>
    <path d="M-223.85 -66.1 Q-223.15 -66.85 -222.6 -67.7 -221.7 -69.2 -221.6 -70.9 L-220.45 -67.2 Q-218.8 -67.3 -217.75 -68.55 -216.65 -69.75 -215.8 -71.4 -207.85 -85.9 -203.1 -101.7 -201.3 -107.8 -199.85 -113.95 L-198.75 -118.8 Q-197.4 -116.25 -197.25 -113.35 -196.9 -104.75 -195.3 -96.3 -193.2 -85.35 -187.65 -75.95 -192.1 -69.5 -194.8 -62.05 L-201.8 -42.8 Q-203.75 -37.35 -207.9 -33.25 L-211.9 -43.5 -217.0 -35.5 -218.15 -51.5 -226.15 -38.95 -226.15 -64.3 -225.3 -64.9 Q-224.45 -65.4 -223.85 -66.1 M-186.2 -77.4 L-183.35 -84.6 -182.3 -80.0 -180.8 -75.55 -179.35 -72.6 -178.7 -72.8 -178.2 -73.1 -177.8 -73.45 -177.4 -73.85 -177.1 -74.25 -176.85 -74.8 -176.5 -76.0 Q-174.7 -70.2 -172.5 -64.65 L-171.1 -61.3 Q-169.55 -57.7 -168.95 -53.85 -168.6 -51.6 -166.8 -50.35 L-163.35 -63.25 -158.25 -82.3 -155.7 -64.8 Q-152.85 -54.85 -151.15 -44.65 L-150.55 -42.75 Q-149.2 -40.1 -146.6 -38.85 L-146.85 -37.25 -144.75 -36.3 -138.85 -45.2 -136.6 -38.35 -132.9 -44.35 Q-132.35 -41.1 -131.45 -38.15 L-131.1 -38.45 -129.15 -36.1 -128.4 -35.5 Q-132.7 -29.65 -135.85 -23.15 L-140.0 -14.4 -144.55 -25.8 -149.65 -21.1 -156.0 -32.1 -158.5 -28.8 Q-159.9 -26.7 -162.1 -25.65 L-163.15 -25.2 Q-166.55 -31.15 -167.75 -38.1 L-168.55 -42.35 -174.8 -28.1 Q-176.95 -30.85 -177.75 -34.4 -182.25 -53.55 -184.75 -73.05 -185.05 -75.45 -185.65 -77.75 L-186.2 -77.4 M185.45 -76.95 L187.05 -74.95 187.85 -74.4 189.55 -73.35 190.55 -73.05 191.55 -72.9 192.3 -73.25 200.0 -98.85 200.55 -96.4 Q200.75 -90.85 202.8 -85.8 203.85 -83.1 206.15 -81.35 206.65 -80.9 207.15 -81.15 L207.25 -81.45 207.85 -79.95 208.4 -78.2 209.7 -74.9 212.0 -84.0 214.25 -81.15 214.65 -81.75 216.0 -85.8 Q217.25 -90.2 218.1 -94.75 L218.85 -99.4 220.25 -94.35 Q221.7 -89.15 227.4 -81.15 L227.4 -37.1 223.4 -55.5 Q222.15 -46.15 220.0 -37.05 219.15 -33.45 217.2 -30.35 216.05 -28.5 213.85 -28.9 213.1 -29.05 212.65 -29.6 211.25 -31.6 210.2 -33.75 L208.55 -37.25 207.55 -29.3 Q207.3 -27.2 206.0 -25.65 L204.9 -24.5 197.7 -33.8 194.3 -19.55 Q189.7 -30.5 185.95 -41.9 L182.6 -50.45 181.75 -52.05 181.65 -50.55 Q180.25 -34.25 177.75 -17.95 177.3 -15.2 176.05 -12.7 171.05 -21.2 167.65 -30.5 165.65 -35.95 161.85 -40.5 L161.5 -40.75 Q158.95 -38.8 157.65 -35.9 156.9 -34.2 156.65 -32.45 153.2 -9.2 144.65 12.95 139.1 4.35 135.5 -5.15 130.55 -18.25 128.25 -32.15 L127.05 -39.15 136.7 -58.35 137.55 -53.85 Q138.25 -51.0 139.8 -48.4 140.8 -46.7 142.4 -45.2 L150.05 -64.4 157.2 -82.3 Q158.5 -81.55 158.75 -80.3 L160.65 -69.75 161.35 -70.15 162.6 -71.65 163.85 -73.85 Q165.15 -76.45 165.75 -79.45 165.75 -74.8 168.25 -70.65 169.1 -69.3 170.5 -68.75 L172.05 -68.15 Q173.95 -67.45 175.75 -68.1 177.1 -68.7 177.2 -70.3 L179.2 -69.0 180.3 -69.7 Q181.1 -70.35 181.6 -71.25 183.7 -74.65 184.6 -78.3 L185.45 -76.95 M-90.1 -47.55 Q-88.8 -37.4 -82.95 -29.25 L-79.55 -32.65 Q-79.05 -30.5 -77.55 -28.7 -76.85 -27.95 -75.9 -27.75 -72.4 -26.65 -69.85 -29.8 L-63.45 -23.6 Q-66.15 -16.5 -69.2 -9.5 -70.4 -6.85 -72.1 -4.75 -72.8 -3.85 -73.85 -3.55 -74.2 -7.45 -77.3 -8.95 L-87.5 -1.3 -90.35 -12.15 -92.65 -8.15 Q-94.85 -12.5 -95.65 -17.85 -96.85 -25.95 -100.65 -33.25 -104.2 -26.6 -106.65 -20.15 -107.5 -18.05 -109.8 -17.55 -110.75 -17.8 -111.45 -18.3 -113.05 -19.65 -114.25 -21.3 -116.95 -24.95 -118.55 -29.15 L-118.6 -29.3 -118.7 -29.55 -118.7 -29.6 -118.6 -29.6 -115.45 -29.3 -115.15 -29.4 -114.65 -29.75 -114.2 -30.05 -113.4 -31.05 -112.4 -32.7 -111.5 -34.4 -109.2 -30.95 -107.55 -32.55 Q-101.75 -38.35 -98.4 -45.8 -94.85 -53.55 -92.65 -61.75 L-90.1 -47.55 M-52.25 -21.0 L-51.6 -21.25 -44.15 -32.1 -41.7 -28.95 Q-39.75 -26.7 -37.4 -28.75 -34.75 -30.95 -32.75 -33.8 L-31.8 -32.9 -30.2 -30.95 Q-28.3 -27.4 -24.65 -28.9 -19.1 -31.35 -16.2 -36.85 -9.75 -49.0 -4.5 -61.75 -3.05 -65.4 -0.25 -68.6 -1.85 -55.15 -0.15 -41.9 0.3 -38.25 2.65 -35.35 L3.6 -34.05 6.9 -27.7 Q7.85 -25.45 10.15 -25.45 13.15 -25.4 15.75 -26.95 L18.0 -20.1 21.45 -22.95 Q22.65 -18.7 26.0 -16.1 L32.3 -33.8 34.95 -25.4 37.65 -15.5 Q38.7 -10.95 43.15 -10.0 L45.45 -11.85 51.15 -8.1 59.1 -16.1 61.95 -11.55 68.8 -20.1 Q70.7 -9.05 77.35 -0.15 L83.05 -11.55 87.05 -3.0 88.5 -5.05 92.75 -12.7 Q93.3 -8.3 97.35 -6.95 L103.6 -12.7 Q104.7 -11.4 104.95 -9.8 105.15 -8.35 106.05 -7.9 107.75 -7.15 108.7 -5.85 L110.1 -6.65 109.95 -5.6 108.35 0.85 Q106.45 7.55 103.1 13.95 100.45 18.95 95.65 21.85 93.65 23.1 91.6 22.55 L91.05 19.8 Q87.3 23.2 83.3 20.95 L82.55 20.2 Q80.65 17.25 79.3 13.7 78.45 11.5 76.8 9.55 L73.35 21.55 64.7 -9.1 64.3 -9.0 Q61.65 -7.45 60.25 -4.4 57.25 2.0 55.35 8.6 L53.8 7.3 49.4 7.85 47.1 1.0 Q46.3 4.25 44.05 6.8 L42.55 8.4 35.15 -1.3 34.0 6.7 Q31.4 3.6 30.1 -0.2 L25.45 -13.25 20.15 -0.2 Q19.15 2.3 16.65 3.45 L15.4 4.0 Q12.95 2.7 12.05 -0.25 L10.4 -5.45 7.75 -13.85 Q1.7 -3.75 -5.3 5.9 -6.45 7.45 -8.15 6.45 -11.85 4.3 -13.7 0.25 -14.75 -2.05 -16.25 -4.15 L-18.2 -6.45 -20.7 -6.55 Q-23.8 -4.15 -26.3 -1.35 L-28.85 1.45 Q-30.05 2.75 -31.55 2.05 -33.95 0.9 -34.6 -1.6 -37.5 -12.65 -40.75 -23.55 -45.0 -14.6 -46.45 -4.7 L-52.25 -21.0" fill="#142121" fill-rule="evenodd" stroke="none"/>
    <path d="M-187.65 -75.95 L-186.2 -77.4 -185.65 -77.75 Q-185.05 -75.45 -184.75 -73.05 -182.25 -53.55 -177.75 -34.4 -176.95 -30.85 -174.8 -28.1 L-168.55 -42.35 -167.75 -38.1 Q-166.55 -31.15 -163.15 -25.2 L-162.1 -25.65 Q-159.9 -26.7 -158.5 -28.8 L-156.0 -32.1 -149.65 -21.1 -144.55 -25.8 -140.0 -14.4 -135.85 -23.15 Q-132.7 -29.65 -128.4 -35.5 L-125.15 -39.65 -125.1 -39.75 -124.6 -40.35 -122.85 -37.95 Q-120.2 -34.2 -118.7 -29.6 L-118.75 -29.4 -118.6 -29.3 -118.55 -29.15 Q-116.95 -24.95 -114.25 -21.3 -113.05 -19.65 -111.45 -18.3 -110.75 -17.8 -109.8 -17.55 -107.5 -18.05 -106.65 -20.15 -104.2 -26.6 -100.65 -33.25 -96.85 -25.95 -95.65 -17.85 -94.85 -12.5 -92.65 -8.15 L-90.35 -12.15 -87.5 -1.3 -77.3 -8.95 Q-74.2 -7.45 -73.85 -3.55 -72.8 -3.85 -72.1 -4.75 -70.4 -6.85 -69.2 -9.5 -66.15 -16.5 -63.45 -23.6 -60.7 -30.9 -58.4 -38.35 L-52.25 -21.0 -46.45 -4.7 Q-45.0 -14.6 -40.75 -23.55 -37.5 -12.65 -34.6 -1.6 -33.95 0.9 -31.55 2.05 -30.05 2.75 -28.85 1.45 L-26.3 -1.35 Q-23.8 -4.15 -20.7 -6.55 L-18.2 -6.45 -16.25 -4.15 Q-14.75 -2.05 -13.7 0.25 -11.85 4.3 -8.15 6.45 -6.45 7.45 -5.3 5.9 1.7 -3.75 7.75 -13.85 L10.4 -5.45 12.05 -0.25 Q12.95 2.7 15.4 4.0 L16.65 3.45 Q19.15 2.3 20.15 -0.2 L25.45 -13.25 30.1 -0.2 Q31.4 3.6 34.0 6.7 L35.15 -1.3 42.55 8.4 44.05 6.8 Q46.3 4.25 47.1 1.0 L49.4 7.85 53.8 7.3 55.35 8.6 52.0 21.85 Q49.55 32.15 45.4 41.8 42.45 48.75 37.05 53.55 L36.25 53.7 31.3 53.5 Q27.9 52.9 26.0 50.3 24.05 47.75 21.1 46.15 L19.4 46.2 Q17.55 47.25 15.85 46.4 13.95 45.5 13.45 43.2 L12.9 43.8 12.15 44.55 11.4 45.15 10.6 45.5 9.75 45.9 9.4 45.85 4.25 35.55 3.75 35.2 3.75 35.5 3.65 36.25 3.5 37.2 3.3 38.15 3.0 39.0 2.6 39.8 2.1 40.6 0.9 42.05 0.3 40.2 -1.95 28.35 Q-2.8 23.3 -5.35 19.15 L-5.9 19.75 Q-8.15 22.35 -9.25 25.55 -12.45 35.1 -15.05 44.9 -16.5 50.25 -19.85 54.6 L-20.15 54.6 -20.75 54.55 -21.35 54.15 -22.0 53.55 -22.55 52.8 -23.1 51.75 -23.65 50.6 -24.3 51.7 -25.0 52.65 -25.75 53.45 -27.25 54.3 -29.05 54.1 Q-30.9 53.1 -31.6 51.2 L-33.15 51.85 -33.5 51.8 -33.85 51.6 -34.65 50.8 -36.0 49.05 -37.05 47.15 Q-37.8 45.6 -37.85 44.05 -37.8 46.6 -40.05 48.0 L-40.75 48.35 Q-43.55 44.9 -44.15 40.35 L-45.85 44.35 Q-48.55 38.05 -49.0 30.95 -49.9 15.9 -51.6 1.0 -59.5 19.75 -64.7 39.65 -65.45 42.6 -67.0 45.5 -69.25 33.4 -73.85 22.1 -77.9 29.3 -80.05 37.55 -82.8 47.95 -86.4 58.05 -88.65 46.75 -93.5 36.4 -93.75 35.85 -94.45 35.5 -97.75 36.0 -99.9 38.8 -103.0 42.9 -104.6 48.1 L-106.75 54.8 Q-108.85 61.45 -110.35 68.3 -114.2 65.45 -119.2 66.05 L-123.85 59.25 Q-125.9 59.05 -127.3 60.75 L-130.05 63.9 -131.45 65.45 -136.0 54.05 -140.0 65.45 Q-142.2 59.95 -142.45 54.15 L-143.15 41.95 -143.45 35.8 Q-159.65 52.0 -168.55 72.85 L-171.4 66.6 -175.95 72.85 -177.0 70.55 Q-181.65 69.05 -182.2 74.0 L-184.55 66.35 -185.05 66.0 Q-186.05 70.5 -189.65 73.45 L-190.9 47.25 -191.35 46.65 -191.5 46.85 Q-201.1 59.0 -208.45 72.85 -210.9 77.5 -214.4 81.2 L-216.15 82.4 -221.95 84.2 Q-224.1 84.95 -226.15 86.05 L-226.15 -38.95 -218.15 -51.5 -217.0 -35.5 -211.9 -43.5 -207.9 -33.25 Q-203.75 -37.35 -201.8 -42.8 L-194.8 -62.05 Q-192.1 -69.5 -187.65 -75.95" fill="#162525" fill-rule="evenodd" stroke="none"/>
    <path d="M-226.15 -66.1 L-223.85 -66.1 Q-224.45 -65.4 -225.3 -64.9 L-226.15 -64.9 -226.15 -66.1" fill="#353d3c" fill-rule="evenodd" stroke="none"/>
    <path d="M227.4 -141.3 Q218.65 -135.45 208.55 -132.4 199.55 -129.65 190.15 -127.85 184.4 -126.6 178.6 -125.9 L171.3 -125.0 166.35 -125.1 165.8 -124.4 Q162.35 -127.0 159.25 -129.95 L153.95 -135.5 Q148.8 -141.2 141.75 -144.0 126.85 -132.5 108.2 -128.85 102.35 -127.75 97.1 -125.2 92.4 -122.85 87.85 -120.85 81.7 -118.05 75.2 -116.8 L45.9 -111.4 38.4 -110.15 20.95 -112.25 0.25 -115.05 -4.8 -116.05 -24.2 -118.75 Q-31.6 -119.8 -38.8 -121.9 L-44.7 -123.25 Q-50.0 -123.6 -55.05 -124.8 L-69.85 -127.9 Q-74.0 -128.55 -77.65 -130.5 -82.3 -133.0 -87.45 -134.25 -96.6 -136.8 -105.35 -141.05 L-110.05 -142.75 Q-117.3 -145.0 -124.9 -145.1 -132.85 -145.5 -140.05 -147.9 L-142.3 -148.7 -143.7 -148.4 Q-151.6 -143.6 -159.0 -137.85 -166.75 -131.9 -175.35 -127.4 -184.85 -122.3 -195.25 -119.65 L-198.35 -120.3 -199.95 -120.7 Q-206.55 -122.55 -212.4 -126.05 L-218.25 -130.1 Q-222.15 -133.15 -226.15 -135.75 L-226.15 -167.85 227.4 -167.85 227.4 -141.3" fill="#2d3040" fill-rule="evenodd" stroke="none"/>
    <path d="M-172.5 -64.65 L-171.45 -65.1 Q-169.3 -65.25 -168.05 -67.55 L-167.4 -68.6 -163.95 -63.45 -163.35 -63.25 -166.8 -50.35 Q-168.6 -51.6 -168.95 -53.85 -169.55 -57.7 -171.1 -61.3 L-172.5 -64.65 M-155.7 -64.8 L-154.3 -65.9 -150.85 -64.05 -149.65 -69.55 -147.85 -70.1 -147.4 -68.05 -146.15 -68.0 -142.85 -72.05 Q-142.25 -70.75 -141.15 -69.9 -137.1 -67.05 -133.15 -70.3 -131.8 -68.95 -130.35 -68.25 L-125.65 -68.35 Q-118.1 -73.0 -115.05 -81.6 -112.5 -88.75 -109.15 -95.4 -107.3 -94.4 -106.55 -92.4 L-102.6 -81.85 Q-101.5 -78.85 -99.05 -76.75 L-96.95 -77.2 Q-95.35 -77.4 -94.25 -76.35 -92.15 -74.4 -89.65 -72.75 -89.2 -72.85 -88.75 -73.25 -86.35 -75.2 -84.1 -73.7 -82.95 -72.95 -81.55 -72.7 -80.75 -72.8 -80.15 -73.15 -74.8 -76.55 -71.0 -82.3 -69.45 -78.8 -66.05 -80.35 -64.35 -81.25 -62.8 -82.35 L-61.9 -82.6 -52.25 -82.1 -49.9 -81.85 -44.75 -80.55 -39.0 -81.05 Q-35.15 -80.6 -31.55 -82.1 L-29.85 -82.55 -27.2 -83.05 Q-22.25 -84.0 -19.05 -88.0 -18.1 -85.75 -15.7 -85.75 -12.35 -86.15 -10.0 -88.6 -9.15 -89.4 -8.3 -89.25 L-0.85 -87.4 Q2.45 -90.5 3.2 -95.4 5.85 -93.4 7.9 -90.8 9.7 -88.55 12.0 -88.3 13.0 -89.15 13.6 -90.4 15.55 -94.45 16.9 -98.85 20.0 -94.1 24.95 -92.15 L27.15 -95.4 31.75 -88.7 38.0 -92.55 Q38.55 -91.35 39.5 -90.7 42.85 -88.45 45.75 -91.65 48.0 -94.15 51.0 -94.8 L54.8 -93.05 56.25 -92.8 Q58.85 -92.75 60.85 -94.65 63.5 -97.3 65.4 -100.45 66.95 -102.95 69.25 -104.65 71.1 -105.15 72.1 -103.6 L74.05 -100.1 Q75.95 -96.05 79.65 -94.3 L80.2 -99.4 Q80.95 -97.6 81.95 -96.0 84.8 -91.3 89.9 -88.55 92.2 -92.65 96.4 -94.5 L97.55 -94.0 100.9 -92.05 Q102.5 -91.0 104.35 -90.55 107.65 -89.75 108.7 -93.15 111.5 -89.5 115.7 -88.95 119.2 -92.45 119.55 -97.7 124.25 -93.5 127.7 -88.15 130.7 -92.1 130.95 -97.15 L131.65 -96.3 135.65 -89.7 Q136.3 -88.5 137.65 -88.15 142.0 -88.75 142.95 -93.15 L143.8 -92.35 147.4 -87.8 Q148.65 -86.25 150.6 -86.2 L153.7 -90.35 154.6 -88.8 Q157.1 -85.2 161.15 -86.15 162.25 -85.25 162.75 -84.2 163.0 -83.6 163.65 -83.5 168.5 -82.2 172.05 -85.7 172.1 -84.1 173.1 -82.8 174.15 -81.4 176.05 -81.8 179.6 -82.55 181.35 -79.35 L184.1 -79.25 185.45 -76.95 184.6 -78.3 Q183.7 -74.65 181.6 -71.25 181.1 -70.35 180.3 -69.7 L179.2 -69.0 177.2 -70.3 Q177.1 -68.7 175.75 -68.1 173.95 -67.45 172.05 -68.15 L170.5 -68.75 Q169.1 -69.3 168.25 -70.65 165.75 -74.8 165.75 -79.45 165.15 -76.45 163.85 -73.85 L162.6 -71.65 161.35 -70.15 160.65 -69.75 158.75 -80.3 Q158.5 -81.55 157.2 -82.3 L150.05 -64.4 148.1 -65.2 Q141.9 -63.65 138.25 -68.95 L137.7 -69.05 134.7 -68.65 128.5 -68.95 Q106.85 -71.05 85.05 -70.05 L57.4 -69.0 Q47.0 -68.9 36.85 -70.3 L40.25 -70.9 Q38.55 -72.05 36.4 -72.4 L34.7 -72.9 Q29.75 -75.1 24.35 -75.15 L14.6 -75.05 5.35 -75.3 3.25 -74.75 Q-2.75 -72.55 -8.85 -74.7 L-11.4 -74.75 Q-13.2 -74.05 -15.05 -73.5 -17.85 -72.65 -20.7 -72.25 L-27.3 -71.3 Q-39.45 -69.25 -51.05 -65.25 -55.2 -63.95 -59.5 -63.25 -72.55 -61.4 -85.25 -58.35 -77.9 -57.9 -71.1 -54.7 -71.5 -52.7 -73.2 -52.35 -76.35 -51.45 -79.8 -51.45 L-83.65 -51.1 Q-84.9 -50.8 -85.8 -49.95 -87.65 -48.25 -90.1 -47.55 L-92.65 -61.75 Q-94.85 -53.55 -98.4 -45.8 -101.75 -38.35 -107.55 -32.55 L-109.2 -30.95 -111.5 -34.4 -112.4 -32.7 -113.4 -31.05 -114.2 -30.05 -114.65 -29.75 -115.15 -29.4 -115.45 -29.3 -118.6 -29.6 -118.7 -29.6 Q-120.2 -34.2 -122.85 -37.95 L-124.6 -40.35 -125.1 -39.75 -125.15 -39.65 -128.4 -35.5 -129.15 -36.1 -131.1 -38.45 -131.45 -38.15 Q-132.35 -41.1 -132.9 -44.35 L-136.6 -38.35 -138.85 -45.2 -144.75 -36.3 -146.85 -37.25 -146.6 -38.85 Q-149.2 -40.1 -150.55 -42.75 L-151.15 -44.65 Q-152.85 -54.85 -155.7 -64.8" fill="#0c1212" fill-rule="evenodd" stroke="none"/>
    <path d="M-90.1 -47.55 Q-87.65 -48.25 -85.8 -49.95 -84.9 -50.8 -83.65 -51.1 L-79.8 -51.45 Q-76.35 -51.45 -73.2 -52.35 -71.5 -52.7 -71.1 -54.7 -77.9 -57.9 -85.25 -58.35 -72.55 -61.4 -59.5 -63.25 -55.2 -63.95 -51.05 -65.25 -39.45 -69.25 -27.3 -71.3 L-20.7 -72.25 Q-17.85 -72.65 -15.05 -73.5 -13.2 -74.05 -11.4 -74.75 L-8.85 -74.7 Q-2.75 -72.55 3.25 -74.75 L5.35 -75.3 14.6 -75.05 24.35 -75.15 Q29.75 -75.1 34.7 -72.9 L36.4 -72.4 Q38.55 -72.05 40.25 -70.9 L36.85 -70.3 Q47.0 -68.9 57.4 -69.0 L85.05 -70.05 Q106.85 -71.05 128.5 -68.95 L134.7 -68.65 137.7 -69.05 138.25 -68.95 Q141.9 -63.65 148.1 -65.2 L150.05 -64.4 142.4 -45.2 Q140.8 -46.7 139.8 -48.4 138.25 -51.0 137.55 -53.85 L136.7 -58.35 127.05 -39.15 124.15 -49.8 Q121.45 -47.1 120.15 -43.65 113.45 -25.8 110.1 -6.65 L108.7 -5.85 Q107.75 -7.15 106.05 -7.9 105.15 -8.35 104.95 -9.8 104.7 -11.4 103.6 -12.7 L97.35 -6.95 Q93.3 -8.3 92.75 -12.7 L88.5 -5.05 87.05 -3.0 83.05 -11.55 77.35 -0.15 Q70.7 -9.05 68.8 -20.1 L61.95 -11.55 59.1 -16.1 51.15 -8.1 45.45 -11.85 43.15 -10.0 Q38.7 -10.95 37.65 -15.5 L34.95 -25.4 32.3 -33.8 26.0 -16.1 Q22.65 -18.7 21.45 -22.95 L18.0 -20.1 15.75 -26.95 Q13.15 -25.4 10.15 -25.45 7.85 -25.45 6.9 -27.7 L3.6 -34.05 2.65 -35.35 Q0.3 -38.25 -0.15 -41.9 -1.85 -55.15 -0.25 -68.6 -3.05 -65.4 -4.5 -61.75 -9.75 -49.0 -16.2 -36.85 -19.1 -31.35 -24.65 -28.9 -28.3 -27.4 -30.2 -30.95 L-31.8 -32.9 -32.75 -33.8 Q-34.75 -30.95 -37.4 -28.75 -39.75 -26.7 -41.7 -28.95 L-44.15 -32.1 -51.6 -21.25 -52.25 -21.0 -58.4 -38.35 Q-60.7 -30.9 -63.45 -23.6 L-69.85 -29.8 Q-72.4 -26.65 -75.9 -27.75 -76.85 -27.95 -77.55 -28.7 -79.05 -30.5 -79.55 -32.65 L-82.95 -29.25 Q-88.8 -37.4 -90.1 -47.55" fill="#21242e" fill-opacity="0.8117647" fill-rule="evenodd" stroke="none"/>
    <path d="M-226.15 -135.75 Q-222.15 -133.15 -218.25 -130.1 L-212.4 -126.05 Q-206.55 -122.55 -199.95 -120.7 L-198.35 -120.3 -195.25 -119.65 Q-184.85 -122.3 -175.35 -127.4 -166.75 -131.9 -159.0 -137.85 -151.6 -143.6 -143.7 -148.4 L-142.3 -148.7 -140.05 -147.9 Q-132.85 -145.5 -124.9 -145.1 -117.3 -145.0 -110.05 -142.75 L-105.35 -141.05 Q-96.6 -136.8 -87.45 -134.25 -82.3 -133.0 -77.65 -130.5 -74.0 -128.55 -69.85 -127.9 L-55.05 -124.8 Q-50.0 -123.6 -44.7 -123.25 L-38.8 -121.9 Q-31.6 -119.8 -24.2 -118.75 L-4.8 -116.05 0.25 -115.05 20.95 -112.25 38.4 -110.15 45.9 -111.4 75.2 -116.8 Q81.7 -118.05 87.85 -120.85 92.4 -122.85 97.1 -125.2 102.35 -127.75 108.2 -128.85 126.85 -132.5 141.75 -144.0 148.8 -141.2 153.95 -135.5 L159.25 -129.95 Q162.35 -127.0 165.8 -124.4 L166.35 -125.1 171.3 -125.0 178.6 -125.9 Q184.4 -126.6 190.15 -127.85 199.55 -129.65 208.55 -132.4 218.65 -135.45 227.4 -141.3 L227.4 -81.15 Q221.7 -89.15 220.25 -94.35 L218.85 -99.4 218.1 -94.75 Q217.25 -90.2 216.0 -85.8 L214.65 -81.75 214.25 -81.15 212.0 -84.0 209.7 -74.9 208.4 -78.2 207.85 -79.95 207.25 -81.45 207.15 -81.15 Q206.65 -80.9 206.15 -81.35 203.85 -83.1 202.8 -85.8 200.75 -90.85 200.55 -96.4 L200.0 -98.85 192.3 -73.25 191.55 -72.9 190.55 -73.05 189.55 -73.35 187.85 -74.4 187.05 -74.95 185.45 -76.95 184.1 -79.25 181.35 -79.35 Q179.6 -82.55 176.05 -81.8 174.15 -81.4 173.1 -82.8 172.1 -84.1 172.05 -85.7 168.5 -82.2 163.65 -83.5 163.0 -83.6 162.75 -84.2 162.25 -85.25 161.15 -86.15 157.1 -85.2 154.6 -88.8 L153.7 -90.35 150.6 -86.2 Q148.65 -86.25 147.4 -87.8 L143.8 -92.35 142.95 -93.15 Q142.0 -88.75 137.65 -88.15 136.3 -88.5 135.65 -89.7 L131.65 -96.3 130.95 -97.15 Q130.7 -92.1 127.7 -88.15 124.25 -93.5 119.55 -97.7 119.2 -92.45 115.7 -88.95 111.5 -89.5 108.7 -93.15 107.65 -89.75 104.35 -90.55 102.5 -91.0 100.9 -92.05 L97.55 -94.0 96.4 -94.5 Q92.2 -92.65 89.9 -88.55 84.8 -91.3 81.95 -96.0 80.95 -97.6 80.2 -99.4 L79.65 -94.3 Q75.95 -96.05 74.05 -100.1 L72.1 -103.6 Q71.1 -105.15 69.25 -104.65 66.95 -102.95 65.4 -100.45 63.5 -97.3 60.85 -94.65 58.85 -92.75 56.25 -92.8 L54.8 -93.05 51.0 -94.8 Q48.0 -94.15 45.75 -91.65 42.85 -88.45 39.5 -90.7 38.55 -91.35 38.0 -92.55 L31.75 -88.7 27.15 -95.4 24.95 -92.15 Q20.0 -94.1 16.9 -98.85 15.55 -94.45 13.6 -90.4 13.0 -89.15 12.0 -88.3 9.7 -88.55 7.9 -90.8 5.85 -93.4 3.2 -95.4 2.45 -90.5 -0.85 -87.4 L-8.3 -89.25 Q-9.15 -89.4 -10.0 -88.6 -12.35 -86.15 -15.7 -85.75 -18.1 -85.75 -19.05 -88.0 -22.25 -84.0 -27.2 -83.05 L-29.85 -82.55 -31.55 -82.1 Q-35.15 -80.6 -39.0 -81.05 L-44.75 -80.55 -49.9 -81.85 -52.25 -82.1 -61.9 -82.6 -62.8 -82.35 Q-64.35 -81.25 -66.05 -80.35 -69.45 -78.8 -71.0 -82.3 -74.8 -76.55 -80.15 -73.15 -80.75 -72.8 -81.55 -72.7 -82.95 -72.95 -84.1 -73.7 -86.35 -75.2 -88.75 -73.25 -89.2 -72.85 -89.65 -72.75 -92.15 -74.4 -94.25 -76.35 -95.35 -77.4 -96.95 -77.2 L-99.05 -76.75 Q-101.5 -78.85 -102.6 -81.85 L-106.55 -92.4 Q-107.3 -94.4 -109.15 -95.4 -112.5 -88.75 -115.05 -81.6 -118.1 -73.0 -125.65 -68.35 L-130.35 -68.25 Q-131.8 -68.95 -133.15 -70.3 -137.1 -67.05 -141.15 -69.9 -142.25 -70.75 -142.85 -72.05 L-146.15 -68.0 -147.4 -68.05 -147.85 -70.1 -149.65 -69.55 -150.85 -64.05 -154.3 -65.9 -155.7 -64.8 -158.25 -82.3 -163.35 -63.25 -163.95 -63.45 -167.4 -68.6 -168.05 -67.55 Q-169.3 -65.25 -171.45 -65.1 L-172.5 -64.65 Q-174.7 -70.2 -176.5 -76.0 L-176.85 -74.8 -177.1 -74.25 -177.4 -73.85 -177.8 -73.45 -178.2 -73.1 -178.7 -72.8 -179.35 -72.6 -180.8 -75.55 -182.3 -80.0 -183.35 -84.6 -186.2 -77.4 -187.65 -75.95 Q-193.2 -85.35 -195.3 -96.3 -196.9 -104.75 -197.25 -113.35 -197.4 -116.25 -198.75 -118.8 L-199.85 -113.95 Q-201.3 -107.8 -203.1 -101.7 -207.85 -85.9 -215.8 -71.4 -216.65 -69.75 -217.75 -68.55 -218.8 -67.3 -220.45 -67.2 L-221.6 -70.9 Q-221.7 -69.2 -222.6 -67.7 -223.15 -66.85 -223.85 -66.1 L-226.15 -66.1 -226.15 -135.75" fill="#252934" fill-rule="evenodd" stroke="none"/>
    <path d="M19.3 -149.3 Q21.4 -147.2 21.4 -144.2 21.4 -141.2 19.3 -139.1 17.2 -137.0 14.2 -137.0 11.2 -137.0 9.1 -139.1 7.0 -141.2 7.0 -144.2 7.0 -147.2 9.1 -149.3 11.2 -151.4 14.2 -151.4 17.2 -151.4 19.3 -149.3" fill="#ffffff" fill-rule="evenodd" stroke="none"/>
    <path d="M12.6 -73.0 Q16.85 -73.6 19.0 -72.2 15.3 -71.05 11.8 -69.0 14.95 -67.1 19.0 -67.4 16.3 -65.95 13.4 -65.0 14.25 -63.1 17.4 -63.4 18.8 -62.2 16.65 -60.9 L15.8 -60.2 19.0 -58.6 Q17.7 -56.7 15.8 -56.3 L15.0 -56.2 Q15.85 -55.15 18.05 -54.25 17.75 -52.1 15.85 -51.35 L14.2 -50.6 18.25 -47.3 Q18.6 -47.0 17.8 -46.2 L15.8 -45.0 Q15.95 -44.0 17.3 -43.25 L18.2 -42.6 Q16.4 -40.9 14.2 -40.2 16.2 -38.5 19.0 -38.6 20.4 -37.4 18.45 -35.9 17.8 -35.4 18.0 -35.2 18.6 -34.6 19.8 -34.6" fill="none" stroke="#ffffff" stroke-linecap="round" stroke-linejoin="round" stroke-opacity="0.13333334" stroke-width="0.05"/>
  </g>
</svg>
