<?xml version="1.0" encoding="UTF-8" standalone="no"?>
<svg xmlns:xlink="http://www.w3.org/1999/xlink" height="6.1px" width="11.2px" xmlns="http://www.w3.org/2000/svg">
  <g transform="matrix(1.0, 0.0, 0.0, 1.0, 0.0, 0.0)">
    <path d="M0.95 3.9 L1.1 3.35 1.6 3.85 Q4.2 6.1 7.3 4.55 L7.05 5.2 7.3 4.55 Q4.2 6.1 1.6 3.85 L1.1 3.35 0.95 3.9 M2.85 2.3 L1.1 3.35 0.95 2.3 1.1 3.35 2.85 2.3 M1.65 5.2 Q0.0 4.3 0.0 3.05 0.0 1.8 1.65 0.9 3.3 0.0 5.6 0.0 7.9 0.0 9.55 0.9 11.2 1.8 11.2 3.05 11.2 4.3 9.55 5.2 7.9 6.1 5.6 6.1 3.3 6.1 1.65 5.2 M6.35 3.25 L7.95 2.3 Q6.85 0.3 4.55 1.25 L3.65 1.8 Q3.7 2.55 4.15 2.9 L5.05 3.45 6.35 3.25 7.3 4.55 Q8.15 4.55 8.75 3.95 9.35 3.3 9.35 2.4 8.95 1.75 8.15 2.15 8.0 2.15 7.95 2.3 8.0 2.15 8.15 2.15 8.95 1.75 9.35 2.4 L9.15 1.4 8.6 1.0 9.15 1.4 9.35 2.4 10.5 2.9 9.35 2.4 Q9.35 3.3 8.75 3.95 8.15 4.55 7.3 4.55 L6.35 3.25 5.05 3.45 4.15 2.9 Q3.7 2.55 3.65 1.8 L4.55 1.25 Q6.85 0.3 7.95 2.3 L6.35 3.25" fill="#000000" fill-rule="evenodd" stroke="none"/>
    <path d="M0.95 2.3 L1.1 3.35 2.85 2.3 M7.05 5.2 L7.3 4.55 Q4.2 6.1 1.6 3.85 L1.1 3.35 0.95 3.9 M8.6 1.0 L9.15 1.4 9.35 2.4 10.5 2.9 M9.35 2.4 Q9.35 3.3 8.75 3.95 8.15 4.55 7.3 4.55 L6.35 3.25 5.05 3.45 4.15 2.9 Q3.7 2.55 3.65 1.8 L4.55 1.25 Q6.85 0.3 7.95 2.3 8.0 2.15 8.15 2.15 8.95 1.75 9.35 2.4 M7.95 2.3 L6.35 3.25" fill="none" stroke="#00ff00" stroke-linecap="round" stroke-linejoin="round" stroke-width="0.05"/>
  </g>
</svg>
