<?xml version="1.0" encoding="UTF-8" standalone="no"?>
<svg xmlns:xlink="http://www.w3.org/1999/xlink" height="51.1px" width="155.8px" xmlns="http://www.w3.org/2000/svg">
  <g transform="matrix(1.0, 0.0, 0.0, 1.0, 0.0, 0.0)">
    <path d="M155.8 23.55 Q155.75 34.25 145.35 38.8 136.5 42.75 127.3 45.35 117.75 47.9 107.95 49.3 L89.8 50.8 Q79.95 51.25 70.2 51.0 L51.6 49.7 Q43.25 48.7 35.0 46.85 25.55 44.7 16.55 41.5 7.45 38.3 1.85 30.55 0.3 28.4 0.0 25.85 1.3 16.7 9.95 12.65 18.15 8.65 26.95 6.1 35.6 3.7 44.5 2.35 53.05 1.0 62.05 0.4 71.75 -0.1 81.4 0.05 L100.3 0.9 Q108.95 1.7 117.4 3.35 L125.2 5.05 Q134.4 7.55 143.35 11.2 152.4 14.95 155.8 23.55 L154.1 22.85 Q150.5 21.7 146.8 21.05 150.5 21.7 154.1 22.85 L155.8 23.55 M80.4 2.25 L82.05 4.5 82.8 5.45 Q78.95 5.15 76.55 7.2 L78.55 7.6 Q82.75 7.15 83.1 10.95 82.4 11.75 81.2 11.55 L80.25 11.8 80.0 13.85 80.25 11.8 81.2 11.55 Q82.4 11.75 83.1 10.95 82.75 7.15 78.55 7.6 L76.55 7.2 Q78.95 5.15 82.8 5.45 L82.05 4.5 80.4 2.25 70.8 1.95 65.0 2.25 Q55.3 2.8 45.95 4.4 37.15 5.75 28.7 8.3 L25.4 9.4 Q16.3 12.0 10.75 19.3 10.0 20.3 9.8 21.35 4.8 22.5 1.6 24.75 L0.0 25.85 1.6 24.75 Q4.8 22.5 9.8 21.35 10.0 20.3 10.75 19.3 16.3 12.0 25.4 9.4 L28.7 8.3 Q37.15 5.75 45.95 4.4 55.3 2.8 65.0 2.25 L70.8 1.95 80.4 2.25 98.45 2.8 115.65 5.4 119.35 6.2 Q128.0 8.25 136.1 11.6 144.6 15.05 146.0 23.2 146.35 25.25 145.25 26.95 140.45 34.2 131.5 36.6 140.45 34.2 145.25 26.95 146.35 25.25 146.0 23.2 144.6 15.05 136.1 11.6 128.0 8.25 119.35 6.2 L115.65 5.4 98.45 2.8 80.4 2.25 M92.8 11.05 L92.4 8.95 93.75 8.15 94.95 8.6 95.05 8.25 94.8 3.05 95.05 8.25 94.95 8.6 93.75 8.15 92.4 8.95 92.8 11.05 M119.35 6.2 Q116.65 7.05 114.35 8.7 111.3 10.9 109.0 13.55 105.3 12.7 101.85 11.55 L98.0 10.65 98.45 2.8 98.0 10.65 101.85 11.55 Q105.3 12.7 109.0 13.55 111.3 10.9 114.35 8.7 116.65 7.05 119.35 6.2 M106.05 19.45 L105.85 23.1 Q110.5 25.1 109.6 30.25 109.35 31.65 109.25 33.1 L111.2 32.25 114.4 30.95 117.6 29.9 118.2 30.05 Q119.9 31.85 120.85 34.1 L122.2 37.45 120.85 34.1 Q119.9 31.85 118.2 30.05 L117.6 29.9 114.4 30.95 111.2 32.25 109.25 33.1 Q104.65 35.35 100.1 37.55 L100.4 43.55 110.8 42.1 Q119.7 40.5 128.35 37.7 127.8 32.7 124.5 29.1 L123.6 28.25 135.45 26.75 139.2 31.45 135.45 26.75 123.6 28.25 124.5 29.1 Q127.8 32.7 128.35 37.7 119.7 40.5 110.8 42.1 L100.4 43.55 100.1 37.55 Q104.65 35.35 109.25 33.1 109.35 31.65 109.6 30.25 110.5 25.1 105.85 23.1 L106.05 19.45 92.4 18.75 106.05 19.45 Q109.3 19.35 111.85 21.25 L113.1 22.2 125.6 22.65 Q126.15 19.3 130.55 19.95 133.0 20.15 135.25 21.05 136.5 21.45 137.45 22.0 139.15 23.15 141.45 22.75 L144.4 23.05 141.45 22.75 Q139.15 23.15 137.45 22.0 136.5 21.45 135.25 21.05 133.0 20.15 130.55 19.95 126.15 19.3 125.6 22.65 L113.1 22.2 111.85 21.25 Q109.3 19.35 106.05 19.45 M128.35 37.7 L131.5 36.6 Q133.95 38.35 135.05 41.2 L135.2 41.85 135.05 41.2 Q133.95 38.35 131.5 36.6 L128.35 37.7 M136.8 17.05 L131.45 16.6 124.45 18.15 122.9 16.95 Q121.3 15.85 119.6 15.0 118.65 14.6 117.7 14.35 L123.6 7.85 117.7 14.35 Q118.65 14.6 119.6 15.0 121.3 15.85 122.9 16.95 L124.45 18.15 131.45 16.6 136.8 17.05 M125.2 5.05 Q124.35 5.05 123.8 5.55 123.2 6.0 123.2 6.65 123.2 6.0 123.8 5.55 124.35 5.05 125.2 5.05 M90.95 16.6 L89.45 15.9 Q85.05 13.85 80.0 13.85 85.05 13.85 89.45 15.9 L90.95 16.6 99.25 11.95 90.95 16.6 92.15 18.0 90.95 16.6 M71.35 23.05 L71.2 22.95 74.05 20.9 Q79.75 22.45 84.75 20.5 L85.2 19.85 85.15 19.55 85.0 19.0 84.75 18.5 84.35 18.15 83.75 17.8 Q86.05 16.3 88.75 16.8 L90.0 17.05 88.75 16.8 Q86.05 16.3 83.75 17.8 L84.35 18.15 84.75 18.5 85.0 19.0 85.15 19.55 85.2 19.85 84.75 20.5 Q79.75 22.45 74.05 20.9 L71.2 22.95 71.35 23.05 74.35 23.8 Q80.75 25.0 87.05 23.3 80.75 25.0 74.35 23.8 L71.35 23.05 M74.05 20.9 L73.45 20.65 Q70.75 18.7 73.7 16.85 L77.6 16.1 78.8 16.3 81.6 16.65 83.75 17.8 81.6 16.65 78.8 16.3 77.6 16.1 73.7 16.85 Q70.75 18.7 73.45 20.65 L74.05 20.9 M82.8 21.45 L85.55 22.5 87.05 23.3 85.55 22.5 82.8 21.45 M92.4 18.75 L92.15 18.0 92.4 18.75 Q92.15 22.05 88.3 22.95 L87.05 23.3 88.3 22.95 Q92.15 22.05 92.4 18.75 M68.4 15.85 L67.4 14.4 Q65.0 11.55 61.15 12.4 L60.5 11.45 59.2 8.0 62.7 7.75 64.4 7.35 64.4 3.45 64.4 7.35 62.7 7.75 59.2 8.0 60.5 11.45 61.15 12.4 Q65.0 11.55 67.4 14.4 L68.4 15.85 M111.2 32.25 L111.2 23.05 111.2 32.25 M85.2 49.85 L85.2 44.55 94.35 44.1 93.6 39.85 94.35 44.1 98.05 43.8 Q99.35 41.0 97.9 37.55 97.15 35.8 96.8 33.85 97.15 35.8 97.9 37.55 99.35 41.0 98.05 43.8 L94.35 44.1 85.2 44.55 85.2 49.85 M98.05 43.8 L100.4 43.55 98.05 43.8 M80.0 25.45 L79.55 26.9 79.35 28.35 79.4 28.8 81.35 28.75 81.6 28.25 81.9 29.0 82.05 29.6 82.1 30.35 82.05 31.05 81.95 31.55 Q80.9 32.8 79.35 32.55 L78.05 32.15 76.8 31.45 75.6 34.25 78.8 34.4 83.25 34.4 84.15 37.5 83.6 37.85 78.0 37.45 Q75.9 37.45 76.45 39.5 76.7 40.45 77.6 40.8 L81.85 41.05 82.0 43.85 79.2 43.05 79.2 44.65 66.45 44.4 65.6 41.45 66.45 44.4 79.2 44.65 79.2 43.05 82.0 43.85 81.85 41.05 77.6 40.8 Q76.7 40.45 76.45 39.5 75.9 37.45 78.0 37.45 L83.6 37.85 84.15 37.5 83.25 34.4 78.8 34.4 75.6 34.25 76.8 31.45 78.05 32.15 79.35 32.55 Q80.9 32.8 81.95 31.55 L82.05 31.05 82.1 30.35 82.05 29.6 81.9 29.0 81.6 28.25 81.35 28.75 79.4 28.8 79.35 28.35 79.55 26.9 80.0 25.45 M102.8 12.65 L92.15 18.0 102.8 12.65 M67.05 18.0 Q68.4 16.25 70.8 15.3 L72.05 14.85 76.2 14.05 78.8 13.85 76.2 14.05 72.05 14.85 70.8 15.3 Q68.4 16.25 67.05 18.0 69.3 16.05 72.25 16.4 L73.7 16.85 72.25 16.4 Q69.3 16.05 67.05 18.0 L66.95 18.3 67.05 18.0 M71.2 22.95 Q67.65 22.05 67.0 18.95 L66.95 18.3 67.0 18.95 Q67.65 22.05 71.2 22.95 M78.8 13.85 L78.8 16.3 78.8 13.85 80.0 13.85 78.8 13.85 M85.2 44.55 L79.2 44.65 85.2 44.55 M32.4 39.85 L31.7 40.65 Q30.25 42.4 30.0 44.65 30.25 42.4 31.7 40.65 L32.4 39.85 M22.1 35.75 Q12.0 32.85 9.8 23.45 9.55 22.35 9.8 21.35 9.55 22.35 9.8 23.45 12.0 32.85 22.1 35.75 26.9 31.05 32.3 27.3 L33.55 26.55 Q41.25 31.8 50.6 32.9 L54.8 33.2 Q54.75 32.1 54.85 31.05 55.05 29.5 55.9 28.35 59.6 23.45 64.45 27.15 L67.15 25.4 69.7 26.95 67.15 25.4 64.45 27.15 Q59.6 23.45 55.9 28.35 55.05 29.5 54.85 31.05 54.75 32.1 54.8 33.2 62.2 32.0 62.75 38.75 62.95 41.05 63.45 43.3 L63.6 44.25 66.45 44.4 63.6 44.25 63.45 43.3 Q62.95 41.05 62.75 38.75 62.2 32.0 54.8 33.2 L50.6 32.9 Q41.25 31.8 33.55 26.55 L32.3 27.3 Q26.9 31.05 22.1 35.75 L29.35 38.2 Q37.1 40.95 45.35 42.2 54.4 43.75 63.6 44.25 54.4 43.75 45.35 42.2 37.1 40.95 29.35 38.2 L22.1 35.75 M28.7 8.3 Q32.3 9.3 35.55 11.6 L38.45 13.35 39.3 12.1 Q48.9 8.45 59.2 8.0 48.9 8.45 39.3 12.1 L38.45 13.35 35.55 11.6 Q32.3 9.3 28.7 8.3 M53.6 24.65 L55.2 26.65 53.6 24.65 M67.15 25.4 L69.6 23.05 67.15 25.4 M56.4 38.65 L58.0 43.05 56.4 38.65 M51.6 36.25 L52.2 37.5 Q53.45 39.85 53.6 42.65 53.45 39.85 52.2 37.5 L51.6 36.25 M51.2 26.65 L54.4 28.25 51.2 26.65 M65.6 21.05 L59.35 21.5 58.5 19.75 46.3 19.4 46.15 21.55 38.05 22.0 Q37.5 20.65 36.65 19.75 L35.6 19.05 Q26.45 19.45 18.1 21.65 L18.8 23.05 11.2 23.05 18.8 23.05 18.1 21.65 Q26.45 19.45 35.6 19.05 L36.65 19.75 Q37.5 20.65 38.05 22.0 L46.15 21.55 46.3 19.4 58.5 19.75 59.35 21.5 65.6 21.05 M72.05 14.85 L70.8 1.95 72.05 14.85" fill="#000000" fill-rule="evenodd" stroke="none"/>
    <path d="M155.8 23.55 Q155.75 34.25 145.35 38.8 136.5 42.75 127.3 45.35 117.75 47.9 107.95 49.3 L89.8 50.8 Q79.95 51.25 70.2 51.0 L51.6 49.7 Q43.25 48.7 35.0 46.85 25.55 44.7 16.55 41.5 7.45 38.3 1.85 30.55 0.3 28.4 0.0 25.85 1.3 16.7 9.95 12.65 18.15 8.65 26.95 6.1 35.6 3.7 44.5 2.35 53.05 1.0 62.05 0.4 71.75 -0.1 81.4 0.05 L100.3 0.9 Q108.95 1.7 117.4 3.35 L125.2 5.05 Q134.4 7.55 143.35 11.2 152.4 14.95 155.8 23.55" fill="none" stroke="#000000" stroke-linecap="round" stroke-linejoin="round" stroke-width="0.05"/>
    <path d="M155.8 23.55 L154.1 22.85 Q150.5 21.7 146.8 21.05 M123.2 6.65 Q123.2 6.0 123.8 5.55 124.35 5.05 125.2 5.05 M123.6 7.85 L117.7 14.35 Q118.65 14.6 119.6 15.0 121.3 15.85 122.9 16.95 L124.45 18.15 131.45 16.6 136.8 17.05 M92.4 18.75 L106.05 19.45 Q109.3 19.35 111.85 21.25 L113.1 22.2 125.6 22.65 Q126.15 19.3 130.55 19.95 133.0 20.15 135.25 21.05 136.5 21.45 137.45 22.0 139.15 23.15 141.45 22.75 L144.4 23.05 M122.2 37.45 L120.85 34.1 Q119.9 31.85 118.2 30.05 L117.6 29.9 114.4 30.95 111.2 32.25 109.25 33.1 Q104.65 35.35 100.1 37.55 L100.4 43.55 110.8 42.1 Q119.7 40.5 128.35 37.7 127.8 32.7 124.5 29.1 L123.6 28.25 135.45 26.75 139.2 31.45 M135.2 41.85 L135.05 41.2 Q133.95 38.35 131.5 36.6 L128.35 37.7 M0.0 25.85 L1.6 24.75 Q4.8 22.5 9.8 21.35 10.0 20.3 10.75 19.3 16.3 12.0 25.4 9.4 L28.7 8.3 Q37.15 5.75 45.95 4.4 55.3 2.8 65.0 2.25 L70.8 1.95 80.4 2.25 98.45 2.8 115.65 5.4 119.35 6.2 Q128.0 8.25 136.1 11.6 144.6 15.05 146.0 23.2 146.35 25.25 145.25 26.95 140.45 34.2 131.5 36.6 M109.25 33.1 Q109.35 31.65 109.6 30.25 110.5 25.1 105.85 23.1 L106.05 19.45 M98.45 2.8 L98.0 10.65 101.85 11.55 Q105.3 12.7 109.0 13.55 111.3 10.9 114.35 8.7 116.65 7.05 119.35 6.2 M94.8 3.05 L95.05 8.25 94.95 8.6 93.75 8.15 92.4 8.95 92.8 11.05 M80.0 13.85 L80.25 11.8 81.2 11.55 Q82.4 11.75 83.1 10.95 82.75 7.15 78.55 7.6 L76.55 7.2 Q78.95 5.15 82.8 5.45 L82.05 4.5 80.4 2.25 M90.95 16.6 L99.25 11.95 M90.0 17.05 L88.75 16.8 Q86.05 16.3 83.75 17.8 L84.35 18.15 84.75 18.5 85.0 19.0 85.15 19.55 85.2 19.85 84.75 20.5 Q79.75 22.45 74.05 20.9 L71.2 22.95 71.35 23.05 M87.05 23.3 L85.55 22.5 82.8 21.45 M83.75 17.8 L81.6 16.65 78.8 16.3 77.6 16.1 73.7 16.85 Q70.75 18.7 73.45 20.65 L74.05 20.9 M92.15 18.0 L102.8 12.65 M65.6 41.45 L66.45 44.4 79.2 44.65 79.2 43.05 82.0 43.85 81.85 41.05 77.6 40.8 Q76.7 40.45 76.45 39.5 75.9 37.45 78.0 37.45 L83.6 37.85 84.15 37.5 83.25 34.4 78.8 34.4 75.6 34.25 76.8 31.45 78.05 32.15 79.35 32.55 Q80.9 32.8 81.95 31.55 L82.05 31.05 82.1 30.35 82.05 29.6 81.9 29.0 81.6 28.25 81.35 28.75 79.4 28.8 79.35 28.35 79.55 26.9 80.0 25.45 M93.6 39.85 L94.35 44.1 98.05 43.8 Q99.35 41.0 97.9 37.55 97.15 35.8 96.8 33.85 M100.4 43.55 L98.05 43.8 M94.35 44.1 L85.2 44.55 85.2 49.85 M111.2 23.05 L111.2 32.25 M64.4 3.45 L64.4 7.35 62.7 7.75 59.2 8.0 60.5 11.45 61.15 12.4 Q65.0 11.55 67.4 14.4 L68.4 15.85 M67.05 18.0 Q69.3 16.05 72.25 16.4 L73.7 16.85 M67.05 18.0 L66.95 18.3 M78.8 16.3 L78.8 13.85 M70.8 1.95 L72.05 14.85 M11.2 23.05 L18.8 23.05 18.1 21.65 Q26.45 19.45 35.6 19.05 L36.65 19.75 Q37.5 20.65 38.05 22.0 L46.15 21.55 46.3 19.4 58.5 19.75 59.35 21.5 65.6 21.05 M54.4 28.25 L51.2 26.65 M69.7 26.95 L67.15 25.4 64.45 27.15 Q59.6 23.45 55.9 28.35 55.05 29.5 54.85 31.05 54.75 32.1 54.8 33.2 62.2 32.0 62.75 38.75 62.95 41.05 63.45 43.3 L63.6 44.25 66.45 44.4 M54.8 33.2 L50.6 32.9 Q41.25 31.8 33.55 26.55 L32.3 27.3 Q26.9 31.05 22.1 35.75 L29.35 38.2 Q37.1 40.95 45.35 42.2 54.4 43.75 63.6 44.25 M53.6 42.65 Q53.45 39.85 52.2 37.5 L51.6 36.25 M58.0 43.05 L56.4 38.65 M69.6 23.05 L67.15 25.4 M55.2 26.65 L53.6 24.65 M59.2 8.0 Q48.9 8.45 39.3 12.1 L38.45 13.35 35.55 11.6 Q32.3 9.3 28.7 8.3 M9.8 21.35 Q9.55 22.35 9.8 23.45 12.0 32.85 22.1 35.75 M30.0 44.65 Q30.25 42.4 31.7 40.65 L32.4 39.85 M79.2 44.65 L85.2 44.55" fill="none" stroke="#00ff00" stroke-linecap="round" stroke-linejoin="round" stroke-width="0.05"/>
    <path d="M80.0 13.85 Q85.05 13.85 89.45 15.9 L90.95 16.6 92.15 18.0 92.4 18.75 Q92.15 22.05 88.3 22.95 L87.05 23.3 M71.35 23.05 L74.35 23.8 Q80.75 25.0 87.05 23.3 M78.8 13.85 L76.2 14.05 72.05 14.85 70.8 15.3 Q68.4 16.25 67.05 18.0 M66.95 18.3 L67.0 18.95 Q67.65 22.05 71.2 22.95 M78.8 13.85 L80.0 13.85" fill="none" stroke="#00ff00" stroke-linecap="round" stroke-linejoin="round" stroke-width="0.05"/>
  </g>
</svg>
