<?xml version="1.0" encoding="UTF-8" standalone="no"?>
<svg xmlns:xlink="http://www.w3.org/1999/xlink" height="4.0px" width="100.45px" xmlns="http://www.w3.org/2000/svg">
  <g transform="matrix(1.0, 0.0, 0.0, 1.0, 217.55, -152.2)">
    <path d="M-153.8 152.2 L-152.55 152.2 -149.9 155.75 -149.9 152.2 -148.95 152.2 -148.95 156.2 -150.75 156.2 -152.85 153.4 -152.85 156.2 -153.8 156.2 -153.8 152.2 M-156.2 152.2 L-155.25 152.2 -155.25 156.2 -156.2 156.2 -156.2 152.2 M-163.65 152.3 L-163.9 152.2 -163.6 152.2 -163.65 152.3 M-161.6 152.2 L-160.65 152.2 -160.65 154.1 -159.15 152.2 -158.05 152.2 -159.65 154.1 -157.95 156.2 -159.05 156.2 -160.65 154.2 -160.65 156.2 -161.6 156.2 -161.6 152.2 M-146.45 152.25 L-147.15 153.1 -147.4 154.25 -147.4 154.35 -147.4 154.45 -147.2 155.3 -146.7 156.0 -146.45 156.2 -147.8 156.2 -147.95 156.0 Q-148.35 155.3 -148.35 154.4 L-148.05 153.0 -147.5 152.2 -146.35 152.2 -146.45 152.25 M-182.25 156.2 L-183.8 156.2 -184.55 154.0 -185.25 156.2 -186.8 156.2 -187.9 152.2 -187.0 152.2 -186.05 155.6 -184.85 152.2 -184.2 152.2 -183.1 155.6 -182.2 152.2 -181.25 152.2 -182.25 156.2 M-180.2 152.2 L-179.25 152.2 -179.25 153.9 -176.75 153.9 -176.75 152.2 -175.75 152.2 -175.75 156.2 -176.75 156.2 -176.75 154.7 -179.25 154.7 -179.25 156.2 -180.2 156.2 -180.2 152.2 M-171.8 153.25 L-172.55 154.8 -171.1 154.8 -171.7 153.25 -171.8 153.25 M-199.05 152.2 L-198.1 152.2 -198.1 156.2 -199.05 156.2 -199.05 152.2 M-203.2 152.2 L-202.25 152.2 -202.25 154.05 -201.95 154.0 -201.65 154.0 -201.35 154.0 -201.05 154.0 -200.25 154.0 -200.8 154.9 -201.55 154.65 -201.9 154.6 -202.25 154.6 -202.25 156.2 -203.2 156.2 -203.2 152.2 M-200.65 152.2 L-200.45 152.2 -200.5 152.25 -200.65 152.2 M-168.1 152.2 L-167.75 152.2 -168.15 152.35 -168.1 152.2 M-166.2 152.2 L-165.25 152.2 -165.25 156.2 -166.2 156.2 -166.2 152.2 M-173.25 156.2 L-174.35 156.2 -172.25 152.2 -171.15 152.2 -169.4 156.2 -170.45 156.2 -170.75 155.55 -172.95 155.55 -173.25 156.2 M-195.15 152.2 L-194.2 152.2 -194.2 156.2 -195.15 156.2 -195.15 152.2 M-189.9 156.15 L-189.9 156.2 -191.15 156.2 -191.2 156.15 -189.9 156.15 M-216.9 153.4 L-216.9 153.75 -216.75 154.9 -216.45 155.9 -216.3 156.2 -217.1 156.2 -217.35 155.4 -217.55 153.75 -217.55 153.4 -217.45 152.2 -216.8 152.2 -216.9 153.4 M-205.8 152.2 L-205.15 152.2 -206.45 156.2 -207.55 156.2 -209.2 152.2 -207.95 152.2 -206.75 155.2 -206.7 155.25 -205.8 152.2 M-211.25 155.3 L-211.2 155.3 -210.05 152.2 -209.45 152.2 -210.95 156.2 -212.15 156.2 -213.45 152.2 -212.15 152.2 -211.25 155.3 M-119.85 152.8 L-119.8 153.25 Q-119.8 154.05 -120.35 154.6 L-120.75 154.95 -121.2 155.1 -121.5 155.25 -121.65 155.35 -121.8 155.45 -121.95 155.65 -122.2 155.85 -122.2 154.85 -122.15 154.75 -122.05 154.7 -121.9 154.6 -121.7 154.5 -121.55 154.45 -120.9 153.95 -120.7 153.15 Q-120.75 152.6 -121.1 152.3 L-121.2 152.2 -120.05 152.2 -119.85 152.8 M-117.8 152.2 L-117.15 152.2 -117.1 153.4 -117.1 153.75 -117.25 155.4 -117.5 156.2 -118.3 156.2 -118.15 155.9 -117.85 154.9 -117.75 153.75 -117.7 153.4 -117.8 152.2 M-121.75 156.2 L-122.45 156.2 -122.1 156.1 -121.75 156.2 M-123.15 152.2 L-122.5 152.2 -122.85 152.45 -123.15 152.75 -123.15 152.2 M-140.1 152.2 L-138.65 152.2 -138.2 152.7 Q-137.75 153.4 -137.7 154.25 L-137.65 154.45 -137.9 155.6 -138.25 156.2 -139.55 156.2 -139.3 155.95 -138.9 155.2 -138.75 154.35 -138.75 154.1 -139.1 153.15 -139.8 152.4 -140.1 152.2 M-143.75 152.2 L-143.25 152.2 -143.25 152.45 -143.45 152.35 -143.75 152.2 M-142.95 156.05 L-142.95 156.2 -143.8 156.2 -143.8 156.05 -144.0 154.85 -144.2 154.3 -142.8 154.3 -142.95 155.4 -142.95 156.05 M-141.05 156.2 L-142.0 156.2 -142.0 152.2 -141.05 152.2 -141.05 156.2 M-135.55 152.25 L-136.15 153.05 -136.4 154.1 -136.4 154.3 -136.15 155.35 -135.6 156.1 -135.5 156.2 -136.7 156.2 -136.9 155.9 Q-137.25 155.2 -137.25 154.35 L-137.05 153.15 -136.45 152.2 -135.5 152.2 -135.55 152.25 M-129.2 156.2 L-130.15 156.2 -130.15 152.2 -128.7 152.2 -127.2 154.2 -125.65 152.2 -124.25 152.2 -124.25 156.2 -125.2 156.2 -125.2 153.05 -127.2 155.55 -129.2 153.05 -129.2 156.2 M-133.45 152.2 L-132.1 152.2 Q-131.75 152.55 -131.55 153.05 -131.3 153.6 -131.3 154.25 L-131.55 155.6 -131.85 156.2 -132.75 156.2 -132.4 155.55 -132.2 154.5 -132.2 154.3 Q-132.25 153.55 -132.65 153.0 L-133.45 152.2" fill="#f9ffff" fill-rule="evenodd" stroke="none"/>
  </g>
</svg>
