<?xml version="1.0" encoding="UTF-8" standalone="no"?>
<svg xmlns:xlink="http://www.w3.org/1999/xlink" height="3.6px" width="84.55px" xmlns="http://www.w3.org/2000/svg">
  <g transform="matrix(1.0, 0.0, 0.0, 1.0, -130.45, -151.0)">
    <path d="M161.95 153.5 L162.05 154.15 162.0 154.6 160.95 154.6 161.05 154.2 160.9 153.8 160.65 153.5 160.25 153.25 159.95 153.05 159.5 152.75 159.1 152.4 158.85 152.0 158.7 151.45 158.75 151.0 159.65 151.0 159.65 151.15 159.7 151.5 159.9 151.8 160.15 152.0 160.5 152.25 161.2 152.75 161.6 153.05 161.95 153.5 M171.9 151.0 L172.85 151.0 172.85 154.6 171.9 154.6 171.9 151.0 M168.95 151.0 L169.35 151.0 169.3 151.25 168.95 151.25 168.95 151.0 M164.3 154.6 L163.35 154.6 163.35 151.0 165.0 151.0 167.25 154.05 167.25 151.0 168.2 151.0 168.2 154.6 166.45 154.6 164.3 151.7 164.3 154.6 M179.9 152.5 L181.05 151.0 182.85 151.0 182.85 154.6 181.9 154.6 181.9 151.35 179.9 153.85 177.9 151.35 177.9 154.6 176.95 154.6 176.95 151.0 178.75 151.0 179.9 152.5 M143.35 151.0 L144.3 151.0 144.3 154.6 143.35 154.6 143.35 151.0 M139.65 154.6 L138.7 154.6 138.7 151.0 139.65 151.0 139.65 154.6 M149.2 151.35 Q148.95 151.85 148.95 152.4 L148.95 152.6 149.2 153.65 149.75 154.4 150.0 154.6 148.7 154.6 148.45 154.2 Q148.1 153.5 148.1 152.65 L148.3 151.45 148.55 151.0 149.4 151.0 149.2 151.35 M147.7 152.75 L147.45 153.9 147.05 154.6 145.7 154.6 146.05 154.25 146.45 153.5 146.6 152.65 146.6 152.4 146.25 151.45 145.95 151.0 147.15 151.0 Q147.6 151.7 147.65 152.55 L147.7 152.75 M130.5 151.0 L131.15 151.0 131.1 151.7 131.1 152.05 131.25 153.2 131.55 154.2 131.75 154.6 130.9 154.6 130.65 153.7 130.45 152.05 130.45 151.7 130.5 151.0 M159.25 154.6 L158.95 154.6 158.95 154.35 159.25 154.6 M154.75 151.0 L155.7 151.0 155.7 152.35 156.0 152.3 156.3 152.3 156.6 152.3 156.9 152.3 157.7 152.3 157.15 153.2 156.4 152.95 156.05 152.9 155.7 152.9 155.7 154.6 154.75 154.6 154.75 151.0 M152.5 151.0 L153.65 151.0 153.8 151.35 154.05 152.55 153.8 153.9 153.45 154.6 152.5 154.6 152.95 153.85 153.15 152.8 153.15 152.6 Q153.1 151.85 152.7 151.3 L152.5 151.0 M134.1 153.9 L134.1 151.0 135.35 151.0 135.35 154.5 135.35 154.6 134.1 154.6 134.1 153.9 M204.55 152.3 L204.0 153.2 203.25 152.95 202.9 152.9 202.55 152.9 202.55 154.6 201.6 154.6 201.6 151.0 202.55 151.0 202.55 152.35 202.85 152.3 203.15 152.3 203.45 152.3 203.75 152.3 204.55 152.3 M209.2 151.25 L209.05 152.1 208.3 152.8 208.0 153.0 208.1 153.25 208.35 153.55 208.8 154.15 209.2 154.6 208.15 154.6 208.05 154.5 206.85 153.05 206.7 153.1 206.7 154.6 205.75 154.6 205.75 151.0 206.7 151.0 206.7 152.85 206.9 152.8 Q207.5 152.65 207.9 152.3 208.3 151.95 208.3 151.5 L208.25 151.35 208.2 151.0 209.2 151.0 209.2 151.25 M211.2 151.0 L212.05 151.0 212.05 153.45 211.2 154.3 211.2 151.0 M214.4 151.0 L215.0 151.0 215.0 151.7 215.0 152.05 214.85 153.7 214.6 154.6 213.75 154.6 213.95 154.2 214.25 153.2 214.35 152.05 214.4 151.7 214.4 151.0 M212.15 154.6 L211.2 154.6 211.3 154.5 211.65 154.4 212.0 154.5 212.15 154.6 M186.5 153.1 L187.95 153.1 187.35 151.55 187.25 151.55 186.5 153.1 M185.75 154.6 L184.65 154.6 186.55 151.0 188.1 151.0 189.7 154.6 188.65 154.6 188.3 153.85 186.1 153.85 185.75 154.6 M198.1 151.0 L199.05 151.0 199.05 154.6 198.1 154.6 198.1 151.0 M192.85 151.0 L193.8 151.0 193.8 154.6 192.85 154.6 192.85 151.0" fill="#f9ffff" fill-rule="evenodd" stroke="none"/>
  </g>
</svg>
