<?xml version="1.0" encoding="UTF-8" standalone="no"?>
<svg xmlns:xlink="http://www.w3.org/1999/xlink" height="16.8px" width="43.3px" xmlns="http://www.w3.org/2000/svg">
  <g transform="matrix(1.0, 0.0, 0.0, 1.0, 21.65, 8.4)">
    <path d="M21.65 -6.25 L20.9 -2.0 Q20.5 0.55 20.5 2.45 L20.0 2.3 20.1 -2.65 19.9 -5.95 21.65 -6.25 M-18.55 -5.7 L-18.35 -0.3 -17.5 -0.25 -15.5 -0.5 -13.0 -1.15 -13.35 -4.95 Q-13.35 -6.15 -12.65 -6.95 -11.95 -7.75 -10.95 -7.75 -10.25 -7.75 -9.7 -7.2 -9.2 -6.7 -9.2 -6.0 -9.2 -5.6 -9.65 -5.2 -10.05 -4.8 -10.5 -4.8 L-11.2 -5.05 -11.55 -5.55 -11.3 -6.1 -10.85 -6.35 -10.45 -6.25 -10.35 -6.0 -10.45 -5.7 -10.85 -6.0 -11.0 -5.65 -10.85 -5.2 -10.5 -5.05 -10.15 -5.45 -9.95 -6.35 -10.2 -7.05 Q-10.45 -7.45 -10.9 -7.45 -11.5 -7.45 -11.85 -6.55 -12.25 -5.7 -12.25 -4.5 L-11.95 -0.2 -11.4 4.85 -9.85 4.45 -9.7 4.95 -11.5 5.3 -13.25 5.8 -13.3 5.2 -11.85 4.9 -12.9 -0.75 -15.75 0.0 -18.3 0.25 -18.4 5.65 Q-18.55 6.75 -19.0 7.6 -19.45 8.4 -20.3 8.4 -20.75 8.4 -21.2 8.0 -21.65 7.6 -21.65 7.0 L-21.2 6.35 -20.4 6.0 Q-19.95 6.0 -19.7 6.25 L-19.45 6.75 -19.6 7.15 -19.95 7.3 -20.35 6.9 -20.3 6.8 -20.05 6.95 Q-19.9 6.95 -19.9 6.65 L-20.0 6.4 Q-20.15 6.25 -20.25 6.25 L-20.65 6.5 -20.85 7.0 -20.65 7.75 -20.25 8.05 Q-19.55 8.05 -19.15 7.25 -18.8 6.45 -18.8 5.0 -18.8 2.95 -19.15 0.0 L-20.15 -5.7 -20.45 -5.65 -21.35 -5.7 -21.35 -6.1 -17.25 -6.35 -17.25 -5.85 -18.55 -5.7 M13.25 -6.65 Q15.35 -6.65 16.75 -5.6 18.15 -4.55 18.15 -3.15 18.15 -1.4 17.05 -0.15 15.9 1.15 14.5 1.15 14.05 1.15 13.7 0.75 13.3 0.4 13.3 -0.05 13.3 -0.35 13.8 -0.6 L14.65 -0.85 Q15.05 -0.85 15.05 -0.35 L14.7 0.1 14.55 -0.2 14.2 -0.45 Q13.8 -0.45 13.8 0.15 L14.05 0.65 14.65 0.9 Q15.55 0.9 16.25 -0.15 16.95 -1.15 16.95 -2.5 16.95 -4.1 16.05 -5.1 15.1 -6.15 13.2 -6.25 L13.0 -0.3 13.25 2.55 13.45 5.1 15.65 5.3 15.55 5.8 12.95 5.55 10.45 5.45 10.4 4.95 12.05 5.0 13.0 5.05 12.75 2.6 Q12.2 -1.3 12.2 -4.25 L12.2 -6.25 Q10.9 -6.2 9.9 -5.65 8.9 -5.1 8.9 -4.25 8.9 -3.9 9.25 -3.65 9.6 -3.4 10.0 -3.4 11.1 -3.4 11.1 -3.8 L11.0 -4.0 10.75 -4.05 Q10.45 -4.05 10.45 -3.75 10.2 -3.8 10.2 -4.05 10.2 -4.5 10.7 -4.5 L11.15 -4.3 11.35 -3.9 Q11.35 -3.45 10.95 -3.15 10.55 -2.85 9.95 -2.85 9.3 -2.85 8.85 -3.2 8.4 -3.6 8.4 -4.15 8.4 -4.85 9.2 -5.6 10.05 -6.3 12.25 -6.6 L12.25 -8.4 13.6 -8.3 13.25 -6.65 M3.15 -5.75 L3.2 -2.1 2.7 4.85 4.5 4.95 6.2 5.1 7.45 4.75 Q8.0 4.45 8.0 4.0 L7.75 3.05 Q7.5 2.7 7.1 2.7 L6.3 2.9 Q5.95 3.1 5.95 3.45 5.95 3.8 6.1 3.85 L6.65 3.95 7.15 3.6 6.8 3.15 Q6.95 3.0 7.1 3.0 7.45 3.0 7.45 3.6 L7.2 4.15 6.7 4.45 Q6.25 4.45 6.0 4.1 5.75 3.8 5.75 3.2 5.75 2.75 6.05 2.4 6.35 2.05 6.7 2.05 7.3 2.05 7.8 2.7 8.35 3.4 8.35 4.2 8.35 5.8 6.6 5.8 L4.5 5.55 2.4 5.25 0.65 5.4 0.7 4.95 2.2 4.9 2.3 1.35 Q2.3 -1.95 1.75 -5.7 L0.3 -5.65 0.35 -6.1 2.5 -6.1 4.4 -6.25 4.4 -5.75 3.15 -5.75 M-1.85 -6.7 L-2.1 -3.8 -2.55 -3.8 -2.45 -5.8 -6.55 -5.5 -6.3 0.05 -2.2 -0.6 -2.2 0.1 -6.3 0.5 -6.25 2.85 -6.25 4.95 -2.85 5.05 -0.85 4.7 Q-0.4 4.3 -0.4 3.6 -0.4 2.35 -1.65 2.35 L-2.05 2.6 -2.25 3.1 -2.05 3.45 -1.7 3.6 -1.55 3.4 -1.7 3.1 -1.65 3.0 Q-1.25 3.1 -1.25 3.35 L-1.4 3.9 -1.9 4.15 -2.4 3.85 -2.6 3.3 -2.15 2.3 -1.35 1.85 -0.1 2.15 Q0.3 2.5 0.3 3.1 L0.0 4.2 -0.75 5.1 -1.6 5.55 -2.8 5.65 -4.35 5.5 -6.3 5.35 -7.75 5.5 -7.75 5.05 -6.75 4.95 Q-7.0 1.3 -7.35 -0.8 -7.65 -2.9 -8.3 -5.35 L-9.2 -5.25 -9.2 -5.7 -3.85 -6.3 -1.85 -6.7 M19.4 3.55 Q19.9 3.25 20.25 3.25 21.65 3.25 21.65 4.7 L21.3 5.5 20.5 5.75 19.95 5.4 19.75 4.65 19.85 4.25 Q19.95 4.1 20.15 4.1 20.7 4.1 20.7 4.85 L20.5 4.7 20.2 4.6 20.05 4.65 20.0 4.85 Q20.0 5.15 20.5 5.15 21.15 5.15 21.15 4.55 L20.8 3.9 Q20.4 3.6 20.0 3.6 19.75 3.6 19.5 3.9 L19.3 4.6 19.4 5.0 19.05 4.65 18.95 4.2 Q18.95 3.85 19.4 3.55" fill="#ffccff" fill-rule="evenodd" stroke="none"/>
  </g>
</svg>
