<?xml version="1.0" encoding="UTF-8" standalone="no"?>
<svg xmlns:xlink="http://www.w3.org/1999/xlink" height="46.0px" width="46.0px" xmlns="http://www.w3.org/2000/svg">
  <g transform="matrix(1.0, 0.0, 0.0, 1.0, 13.0, 6.7)">
    <path d="M-6.05 38.3 Q-12.0 38.3 -12.0 32.35 L-12.0 0.25 Q-12.0 -5.7 -6.05 -5.7 L26.05 -5.7 Q32.0 -5.7 32.0 0.25 L32.0 32.35 Q32.0 38.3 26.05 38.3 L-6.05 38.3" fill="#918970" fill-rule="evenodd" stroke="none"/>
    <path d="M-6.05 38.3 L26.05 38.3 Q32.0 38.3 32.0 32.35 L32.0 0.25 Q32.0 -5.7 26.05 -5.7 L-6.05 -5.7 Q-12.0 -5.7 -12.0 0.25 L-12.0 32.35 Q-12.0 38.3 -6.05 38.3 Z" fill="none" stroke="#493425" stroke-linecap="round" stroke-linejoin="round" stroke-width="2.0"/>
  </g>
</svg>
