<?xml version="1.0" encoding="UTF-8" standalone="no"?>
<svg xmlns:xlink="http://www.w3.org/1999/xlink" height="30.8px" width="30.8px" xmlns="http://www.w3.org/2000/svg">
  <g transform="matrix(1.0, 0.0, 0.0, 1.0, -683.8, 35.7)">
    <path d="M709.7 -30.85 L711.25 -29.1 Q713.95 -25.45 714.1 -20.75 L714.1 -20.3 Q714.1 -17.05 712.85 -14.25 711.75 -11.85 709.7 -9.8 L706.75 -7.4 Q703.35 -5.4 699.2 -5.4 695.25 -5.4 692.05 -7.2 690.25 -8.2 688.65 -9.8 L686.75 -12.05 Q684.3 -15.7 684.3 -20.3 L684.3 -20.75 Q684.4 -24.2 685.9 -27.05 686.9 -29.1 688.65 -30.85 690.25 -32.4 692.05 -33.4 695.25 -35.2 699.2 -35.2 702.8 -35.2 705.8 -33.7 707.9 -32.65 709.7 -30.85 M688.4 -25.85 L685.9 -27.05 688.4 -25.85 M687.1 -20.75 L684.3 -20.75 687.1 -20.75 M689.1 -13.7 L686.75 -12.05 689.1 -13.7 M710.3 -15.5 L712.85 -14.25 710.3 -15.5 M708.95 -27.5 L711.25 -29.1 708.95 -27.5 M693.35 -9.7 L692.05 -7.2 693.35 -9.7 M707.35 -11.15 L698.7 -20.75 701.6 -30.85 698.7 -20.75 707.35 -11.15 M705.3 -9.9 L706.75 -7.4 705.3 -9.9 M699.2 -8.25 L699.2 -5.4 699.2 -8.25 M711.25 -20.75 L714.1 -20.75 711.25 -20.75 M693.4 -31.0 L692.05 -33.4 693.4 -31.0 M699.2 -32.45 L699.2 -35.2 699.2 -32.45 M704.55 -31.2 L705.8 -33.7 704.55 -31.2" fill="#d59e4d" fill-opacity="0.39215687" fill-rule="evenodd" stroke="none"/>
    <path d="M709.7 -30.85 L711.25 -29.1 Q713.95 -25.45 714.1 -20.75 L714.1 -20.3 Q714.1 -17.05 712.85 -14.25 711.75 -11.85 709.7 -9.8 L706.75 -7.4 Q703.35 -5.4 699.2 -5.4 695.25 -5.4 692.05 -7.2 690.25 -8.2 688.65 -9.8 L686.75 -12.05 Q684.3 -15.7 684.3 -20.3 L684.3 -20.75 Q684.4 -24.2 685.9 -27.05 686.9 -29.1 688.65 -30.85 690.25 -32.4 692.05 -33.4 695.25 -35.2 699.2 -35.2 702.8 -35.2 705.8 -33.7 707.9 -32.65 709.7 -30.85 M705.8 -33.7 L704.55 -31.2 M699.2 -35.2 L699.2 -32.45 M692.05 -33.4 L693.4 -31.0 M714.1 -20.75 L711.25 -20.75 M699.2 -5.4 L699.2 -8.25 M706.75 -7.4 L705.3 -9.9 M701.6 -30.85 L698.7 -20.75 707.35 -11.15 M692.05 -7.2 L693.35 -9.7 M711.25 -29.1 L708.95 -27.5 M712.85 -14.25 L710.3 -15.5 M686.75 -12.05 L689.1 -13.7 M684.3 -20.75 L687.1 -20.75 M685.9 -27.05 L688.4 -25.85" fill="none" stroke="#efcc80" stroke-linecap="round" stroke-linejoin="round" stroke-width="1.0"/>
  </g>
</svg>
