<?xml version="1.0" encoding="UTF-8" standalone="no"?>
<svg xmlns:xlink="http://www.w3.org/1999/xlink" height="57.6px" width="88.5px" xmlns="http://www.w3.org/2000/svg">
  <g transform="matrix(1.0, 0.0, 0.0, 1.0, 44.25, 28.8)">
    <path d="M-29.95 14.25 L-24.45 10.25 Q-26.3 19.3 -22.2 28.3 -35.75 27.1 -43.75 21.25 L-38.05 18.25 Q-49.2 -7.65 -26.95 -15.95 -42.6 -3.85 -29.95 14.25" fill="url(#gradient0)" fill-rule="evenodd" stroke="none"/>
    <path d="M-29.95 14.25 L-24.45 10.25 Q-26.3 19.3 -22.2 28.3 -35.75 27.1 -43.75 21.25 L-38.05 18.25 Q-49.2 -7.65 -26.95 -15.95 -42.6 -3.85 -29.95 14.25 Z" fill="none" stroke="#000000" stroke-linecap="round" stroke-linejoin="round" stroke-width="1.0"/>
    <path d="M29.95 -14.25 L24.45 -10.25 Q26.3 -19.3 22.2 -28.3 35.75 -27.1 43.75 -21.25 L38.05 -18.25 Q49.2 7.65 26.95 15.95 42.6 3.85 29.95 -14.25" fill="url(#gradient1)" fill-rule="evenodd" stroke="none"/>
    <path d="M29.95 -14.25 L24.45 -10.25 Q26.3 -19.3 22.2 -28.3 35.75 -27.1 43.75 -21.25 L38.05 -18.25 Q49.2 7.65 26.95 15.95 42.6 3.85 29.95 -14.25 Z" fill="none" stroke="#000000" stroke-linecap="round" stroke-linejoin="round" stroke-width="1.0"/>
    <path d="M33.15 1.25 L-33.4 1.25 -33.4 -5.75 33.15 -5.75 33.15 1.25" fill="#ffffff" fill-opacity="0.14117648" fill-rule="evenodd" stroke="none"/>
  </g>
  <defs>
    <linearGradient gradientTransform="matrix(0.0, -0.0221, 0.0368, 0.0, -35.8, -1.3)" gradientUnits="userSpaceOnUse" id="gradient0" spreadMethod="pad" x1="-819.2" x2="819.2">
      <stop offset="0.0" stop-color="#75a032"/>
      <stop offset="1.0" stop-color="#2f3f16"/>
    </linearGradient>
    <linearGradient gradientTransform="matrix(0.0, 0.0221, -0.0368, 0.0, 35.8, 1.3)" gradientUnits="userSpaceOnUse" id="gradient1" spreadMethod="pad" x1="-819.2" x2="819.2">
      <stop offset="0.0" stop-color="#75a032"/>
      <stop offset="1.0" stop-color="#2f3f16"/>
    </linearGradient>
  </defs>
</svg>
