<?xml version="1.0" encoding="UTF-8" standalone="no"?>
<svg xmlns:xlink="http://www.w3.org/1999/xlink" height="6.8px" width="45.4px" xmlns="http://www.w3.org/2000/svg">
  <g transform="matrix(1.0, 0.0, 0.0, 1.0, 36.25, 11.25)">
    <path d="M9.15 -5.2 L8.9 -4.85 8.75 -4.7 8.2 -4.45 Q1.75 -9.45 -2.85 -7.2 L-4.7 -6.35 -6.4 -5.6 Q-7.9 -5.0 -8.35 -5.05 L-9.2 -5.25 -9.25 -5.45 -9.2 -5.65 -6.6 -8.2 Q-4.0 -10.65 1.35 -9.95 6.7 -9.3 7.95 -7.3 L9.15 -5.2" fill="#e6b380" fill-rule="evenodd" stroke="none"/>
    <path d="M-34.4 -11.05 L-32.9 -11.25 -30.4 -10.8 Q-28.65 -10.4 -27.55 -7.1 L-27.55 -6.95 -27.7 -6.75 -27.85 -6.6 -28.5 -6.25 -29.0 -6.4 -30.05 -7.4 -30.95 -8.65 Q-31.95 -9.4 -32.95 -8.5 L-33.1 -8.5 -33.3 -8.45 -33.5 -8.25 -33.6 -8.2 -33.95 -8.0 -34.15 -7.8 -34.3 -7.7 -34.6 -7.45 -34.75 -7.45 Q-35.3 -7.4 -35.55 -7.9 L-35.8 -9.1 -36.15 -9.3 -36.25 -9.9 -36.15 -10.45 Q-35.8 -10.9 -35.25 -10.9 L-35.25 -10.95 -34.4 -11.05" fill="#e4af7a" fill-rule="evenodd" stroke="none"/>
  </g>
</svg>
