<?xml version="1.0" encoding="UTF-8" standalone="no"?>
<svg xmlns:xlink="http://www.w3.org/1999/xlink" height="26.35px" width="59.7px" xmlns="http://www.w3.org/2000/svg">
  <g transform="matrix(1.0, 0.0, 0.0, 1.0, 37.05, 1.25)">
    <path d="M-33.1 20.35 Q-34.75 19.1 -35.3 15.2 -35.9 11.3 -36.75 9.1 -37.6 6.9 -36.1 2.25 -35.35 1.25 -34.05 1.05 L-33.55 1.0 Q-29.6 2.9 -28.3 7.1 -25.95 14.9 -31.0 21.0 -31.45 21.55 -33.1 20.35" fill="url(#gradient0)" fill-rule="evenodd" stroke="none"/>
    <path d="M13.35 24.65 Q-0.15 26.9 -8.35 17.35 -15.35 9.25 -7.75 2.35 -4.6 -0.6 -0.4 -1.1 15.05 -2.55 21.4 10.35 25.0 17.7 18.4 22.5 16.15 24.1 13.35 24.65" fill="url(#gradient1)" fill-rule="evenodd" stroke="none"/>
  </g>
  <defs>
    <radialGradient cx="0" cy="0" gradientTransform="matrix(0.0102, 0.0, 0.0, 0.0125, -33.55, 10.25)" gradientUnits="userSpaceOnUse" id="gradient0" r="819.2" spreadMethod="pad">
      <stop offset="0.0" stop-color="#ff7181" stop-opacity="0.52156866"/>
      <stop offset="1.0" stop-color="#e6b380" stop-opacity="0.0"/>
      <stop offset="1.0" stop-color="#e6b380"/>
    </radialGradient>
    <radialGradient cx="0" cy="0" gradientTransform="matrix(0.007, -0.0146, 0.0195, 0.0094, 5.45, 11.95)" gradientUnits="userSpaceOnUse" id="gradient1" r="819.2" spreadMethod="pad">
      <stop offset="0.0" stop-color="#ff7181" stop-opacity="0.52156866"/>
      <stop offset="1.0" stop-color="#e6b380" stop-opacity="0.0"/>
    </radialGradient>
  </defs>
</svg>
