<?xml version="1.0" encoding="UTF-8" standalone="no"?>
<svg xmlns:xlink="http://www.w3.org/1999/xlink" height="47.3px" width="45.2px" xmlns="http://www.w3.org/2000/svg">
  <g transform="matrix(1.0, 0.0, 0.0, 1.0, 35.8, 12.1)">
    <path d="M-32.4 -12.0 Q-32.25 -11.7 -32.4 -11.4 -32.65 -10.65 -33.5 -11.0 L-33.65 -11.2 -33.85 -11.05 -33.95 -11.0 -34.0 -11.0 -34.2 -11.0 -33.85 -11.3 -33.7 -11.4 -33.5 -11.6 -33.15 -11.8 -33.05 -11.85 -32.8 -12.05 -32.6 -12.1 -32.45 -12.1 -32.4 -12.0 M-27.3 -10.4 L-27.1 -10.1 -27.8 -9.75 -28.3 -9.9 -29.4 -10.95 -30.35 -11.75 Q-28.65 -11.7 -27.3 -10.4" fill="#e4af7a" fill-rule="evenodd" stroke="none"/>
    <path d="M-9.95 -3.9 Q-8.6 -7.95 -1.4 -8.8 4.0 -9.4 8.1 -5.6 L8.9 -4.8 M-23.95 -4.3 L-25.6 -6.2 -25.85 -6.5 Q-27.45 -7.8 -29.45 -7.85 L-31.95 -8.2 -32.1 -8.2 -32.35 -8.15 -32.4 -8.1 -32.65 -7.95 -32.75 -7.9 -33.2 -7.7 -33.45 -7.5 -33.6 -7.4 -33.95 -7.1 -34.0 -7.1 -34.15 -7.0 -34.8 -6.4 Q-35.4 -6.1 -35.25 -5.6" fill="none" stroke="#000000" stroke-linecap="round" stroke-linejoin="round" stroke-width="1.0"/>
    <path d="M-21.9 28.5 L-22.75 29.0 -23.1 29.1 Q-23.75 29.05 -23.95 28.4 L-23.8 27.75 Q-23.75 27.15 -22.75 26.6 -21.75 26.0 -21.35 26.05 -20.9 26.05 -20.2 26.45 L-19.0 26.6 -18.15 26.2 -14.9 26.3 -14.85 26.3 -5.35 27.85 -7.05 28.4 -7.95 28.6 Q-9.5 28.9 -12.15 28.6 L-14.8 28.4 -14.85 28.4 -16.4 28.55 -18.75 28.75 -20.8 28.5 -21.1 28.5 -21.55 28.25 -21.9 28.5 -23.35 28.75 -21.9 28.5 M-21.55 32.55 L-21.55 32.2 -19.75 32.9 Q-18.0 33.55 -15.35 33.45 L-13.0 33.7 -13.55 34.25 -16.7 35.1 Q-19.75 35.7 -21.35 33.25 L-21.55 32.55 M-7.95 27.05 L-14.8 26.3 -12.15 26.5 Q-9.5 26.8 -7.95 26.5 L-7.05 26.3 -7.55 26.6 -7.95 27.05" fill="#e6b380" fill-rule="evenodd" stroke="none"/>
    <path d="M-7.05 28.4 L-4.65 27.65 M-7.05 28.4 L-7.95 28.6 Q-9.5 28.9 -12.15 28.6 L-14.8 28.4 -14.85 28.4 -16.4 28.55 -18.75 28.75 -20.8 28.5 -21.1 28.5 -21.9 28.5 M-23.35 28.75 L-21.9 28.5" fill="none" stroke="#000000" stroke-linecap="round" stroke-linejoin="round" stroke-width="1.0"/>
  </g>
</svg>
