<?xml version="1.0" encoding="UTF-8" standalone="no"?>
<svg xmlns:xlink="http://www.w3.org/1999/xlink" height="168.5px" width="137.9px" xmlns="http://www.w3.org/2000/svg">
  <g transform="matrix(1.0, 0.0, 0.0, 1.0, 70.85, 77.05)">
    <path d="M11.95 -62.2 L12.05 -62.35 14.7 -65.45 16.5 -67.7 Q20.35 -72.35 25.25 -75.25 L31.25 -72.2 Q33.4 -71.15 35.3 -69.8 L36.6 -68.75 Q45.6 -61.25 47.2 -49.5 L47.75 -45.95 Q48.15 -43.35 46.95 -40.95 L47.2 -40.6 47.9 -39.55 46.6 -38.25 Q45.65 -37.35 45.1 -36.1 L44.75 -35.65 44.25 -35.25 Q42.7 -33.55 40.75 -32.55 L35.95 -30.1 Q30.7 -27.45 28.05 -22.25 L27.25 -20.55 Q27.1 -18.05 25.3 -16.6 L24.5 -16.2 Q18.85 -28.4 5.8 -31.65 L4.05 -32.05 3.6 -32.25 Q0.9 -35.55 1.0 -39.9 1.05 -42.7 2.2 -45.4 L2.15 -47.5 Q1.7 -50.5 3.45 -52.85 L5.7 -55.45 11.9 -62.2 11.95 -62.2 M-17.55 -56.4 L-15.9 -55.3 -17.6 -53.45 -17.5 -52.5 -19.05 -51.75 -20.45 -49.6 Q-21.4 -48.15 -22.65 -46.85 -23.8 -45.7 -23.95 -44.1 L-25.6 -42.9 -24.6 -41.5 Q-24.8 -40.5 -25.3 -39.8 -27.65 -36.85 -31.55 -36.15 -42.0 -34.1 -47.35 -25.35 L-50.45 -27.3 -49.05 -29.55 Q-47.7 -31.7 -47.75 -34.0 L-47.8 -34.7 -47.8 -35.0 -47.65 -36.8 -47.4 -39.7 -44.0 -39.55 -43.3 -44.85 -42.5 -42.2 -42.2 -48.35 -36.55 -43.95 -34.9 -47.05 -32.7 -44.9 -31.95 -44.85 -32.0 -45.15 -32.85 -47.85 -32.85 -47.95 Q-37.0 -59.75 -48.3 -66.25 -50.2 -67.4 -52.2 -68.4 L-56.1 -69.85 -56.45 -69.6 -58.4 -72.6 -59.15 -74.5 Q-56.8 -77.2 -52.55 -76.35 L-43.65 -74.25 Q-40.95 -73.45 -38.45 -72.0 -30.75 -67.65 -23.75 -62.3 -20.7 -60.0 -18.3 -57.4 L-18.1 -56.75 -17.55 -56.4 M28.45 -70.55 L26.05 -71.05 24.8 -70.85 24.05 -70.1 Q22.8 -68.6 21.15 -67.35 L20.3 -66.5 Q18.45 -64.2 16.0 -62.35 L15.1 -61.5 8.75 -54.95 6.95 -53.25 Q4.15 -51.05 5.4 -47.6 4.15 -51.05 6.95 -53.25 L8.75 -54.95 15.1 -61.5 16.0 -62.35 Q18.45 -64.2 20.3 -66.5 L21.15 -67.35 Q22.8 -68.6 24.05 -70.1 L24.8 -70.85 26.05 -71.05 28.45 -70.55 M23.4 -65.9 Q21.3 -63.75 19.7 -61.4 L18.3 -59.2 Q14.0 -51.6 14.55 -41.95 L19.8 -45.95 20.25 -43.35 25.75 -45.75 27.65 -42.85 30.35 -43.75 30.6 -40.5 32.9 -40.7 34.45 -40.8 Q35.4 -41.1 36.4 -41.65 L37.85 -42.5 38.35 -42.9 Q40.7 -44.85 41.05 -47.95 L42.1 -48.6 41.55 -49.45 Q40.5 -59.8 32.7 -66.3 L29.95 -68.0 29.8 -68.05 28.55 -68.3 Q25.55 -68.0 23.4 -65.9 M-26.95 -60.8 Q-29.4 -62.05 -31.25 -64.15 -32.85 -65.95 -35.1 -66.95 -40.4 -69.4 -45.85 -71.15 L-47.55 -71.6 Q-50.5 -72.1 -52.95 -73.7 -54.5 -74.7 -55.95 -73.4 -54.5 -74.7 -52.95 -73.7 -50.5 -72.1 -47.55 -71.6 L-45.85 -71.15 Q-40.4 -69.4 -35.1 -66.95 -32.85 -65.95 -31.25 -64.15 -29.4 -62.05 -26.95 -60.8 M-27.4 -45.4 L-25.6 -42.9 -27.4 -45.4" fill="#5c5c52" fill-rule="evenodd" stroke="none"/>
    <path d="M11.95 -62.2 L11.9 -62.2 5.7 -55.45 3.45 -52.85 Q1.7 -50.5 2.15 -47.5 L2.2 -45.4 Q1.05 -42.7 1.0 -39.9 0.9 -35.55 3.6 -32.25 L4.05 -32.05 5.8 -31.65 Q18.85 -28.4 24.5 -16.2 L24.55 -16.1 25.3 -16.6 Q27.1 -18.05 27.25 -20.55 L28.05 -22.25 Q30.7 -27.45 35.95 -30.1 L40.75 -32.55 Q42.7 -33.55 44.25 -35.25 L44.75 -35.65 45.1 -36.1 Q45.65 -37.35 46.6 -38.25 L47.9 -39.55 48.9 -38.9 Q52.15 -37.35 54.25 -34.25 61.1 -23.95 64.75 -12.2 L64.65 -12.15 60.45 -16.45 Q62.05 -11.7 63.05 -6.8 L64.85 0.65 Q67.6 11.1 65.9 21.75 L64.25 18.05 Q63.9 18.1 64.1 19.7 L64.25 22.3 Q64.35 30.05 63.9 37.75 63.45 44.65 61.3 51.15 L59.65 43.65 Q57.2 52.15 53.3 58.7 52.05 60.7 50.0 62.15 50.25 59.2 49.95 56.3 L49.2 52.25 49.15 52.55 44.85 51.05 44.35 50.1 40.45 54.95 Q41.8 44.3 34.8 36.05 31.5 32.1 26.95 29.2 22.95 26.65 18.3 26.65 L20.25 34.05 14.5 32.4 17.65 37.6 2.9 34.35 Q-2.65 33.25 -7.55 35.2 -9.2 35.9 -10.5 37.3 L-13.05 40.1 Q-13.95 35.2 -17.75 32.3 L-18.7 28.8 Q-14.35 27.6 -10.45 25.2 L-10.65 19.8 -10.3 19.2 -6.9 16.75 Q-3.8 22.3 1.9 19.0 5.2 17.15 7.25 13.9 8.65 11.7 11.15 12.0 6.45 10.45 1.35 10.5 L0.45 10.5 -2.6 10.2 -3.75 8.15 Q1.75 5.15 7.55 2.6 10.05 1.65 10.75 -1.0 4.5 -4.85 -2.85 -3.4 L-5.6 -2.8 Q-9.25 -2.2 -12.5 -0.75 -11.4 -2.7 -9.9 -4.1 -6.5 -7.15 -2.1 -8.5 L3.05 -9.15 -2.1 -8.5 Q-6.5 -7.15 -9.9 -4.1 -11.4 -2.7 -12.5 -0.75 -15.85 0.7 -18.8 3.0 -20.9 4.75 -20.95 7.65 L-29.05 6.5 Q-29.1 5.1 -29.55 3.6 -30.6 0.25 -33.45 -1.85 L-36.7 -4.05 Q-39.95 -5.85 -43.1 -5.0 -44.6 -1.5 -41.3 1.4 L-37.25 5.3 Q-35.05 7.7 -34.25 10.55 L-33.95 11.4 -36.75 12.75 Q-38.75 9.1 -41.1 8.6 -43.25 9.6 -43.25 12.15 L-43.2 12.4 -43.1 12.95 Q-42.95 13.65 -42.25 14.05 L-41.7 14.4 -41.65 14.4 -41.05 14.95 Q-40.6 15.45 -40.5 16.75 L-40.0 18.8 -41.05 22.2 -41.65 24.05 -47.15 29.3 Q-47.5 23.55 -50.65 18.8 L-51.25 18.2 -51.9 17.8 Q-58.65 15.05 -64.4 19.55 L-66.0 17.3 -67.45 17.6 -68.15 18.75 -68.7 18.7 -68.05 14.85 Q-66.95 8.95 -64.3 3.4 L-69.0 9.65 Q-66.35 -3.05 -59.0 -14.05 L-50.45 -27.3 -47.35 -25.35 Q-42.0 -34.1 -31.55 -36.15 -27.65 -36.85 -25.3 -39.8 -24.8 -40.5 -24.6 -41.5 L-25.6 -42.9 -23.95 -44.1 Q-23.8 -45.7 -22.65 -46.85 -21.4 -48.15 -20.45 -49.6 L-19.05 -51.75 -17.5 -52.5 -17.6 -53.45 -15.9 -55.3 -17.55 -56.4 -17.2 -56.95 Q-12.25 -61.55 -5.4 -61.8 L-7.6 -59.5 Q-0.6 -62.25 6.85 -62.7 L6.6 -62.0 4.75 -60.25 11.35 -62.7 11.95 -62.2 M-46.55 13.5 L-47.85 14.0 Q-50.65 15.15 -51.25 18.2 -50.65 15.15 -47.85 14.0 L-46.55 13.5 M44.95 43.6 L44.95 41.9 Q44.25 37.9 41.85 34.4 L38.3 28.75 Q33.85 21.1 25.4 20.1 33.85 21.1 38.3 28.75 L41.85 34.4 Q44.25 37.9 44.95 41.9 L44.95 43.6 M54.3 40.7 Q52.5 33.05 48.05 26.5 41.9 17.5 32.2 13.85 41.9 17.5 48.05 26.5 52.5 33.05 54.3 40.7 M55.5 4.4 Q53.9 3.6 52.95 1.65 49.05 -6.15 40.45 -7.75 49.05 -6.15 52.95 1.65 53.9 3.6 55.5 4.4 M52.25 20.1 L51.8 19.4 Q46.35 10.2 37.6 4.45 46.35 10.2 51.8 19.4 L52.25 20.1 M50.0 -12.45 L49.5 -13.15 Q46.05 -18.3 40.1 -18.55 46.05 -18.3 49.5 -13.15 L50.0 -12.45 M9.15 34.65 L8.5 33.55 5.85 31.25 Q2.7 29.3 -0.95 29.45 2.7 29.3 5.85 31.25 L8.5 33.55 9.15 34.65 M13.85 30.5 Q13.85 29.6 13.45 28.9 12.4 27.05 10.75 25.65 9.45 24.6 7.9 23.75 9.45 24.6 10.75 25.65 12.4 27.05 13.45 28.9 13.85 29.6 13.85 30.5 M11.0 32.75 L10.55 31.4 Q9.15 27.7 5.05 26.95 9.15 27.7 10.55 31.4 L11.0 32.75 M-5.65 -56.85 L-6.5 -56.3 Q-11.15 -52.5 -12.95 -46.8 -11.15 -52.5 -6.5 -56.3 L-5.65 -56.85 M-2.8 -55.6 L-4.45 -53.65 -8.25 -48.55 -4.45 -53.65 -2.8 -55.6 M-59.2 -8.8 L-58.6 -9.75 -55.65 -12.8 Q-53.45 -14.75 -50.9 -16.05 -49.75 -16.65 -48.3 -16.6 -49.75 -16.65 -50.9 -16.05 -53.45 -14.75 -55.65 -12.8 L-58.6 -9.75 -59.2 -8.8 M-15.85 -20.05 L-16.95 -18.25 Q-20.1 -10.5 -21.8 -2.3 -20.1 -10.5 -16.95 -18.25 L-15.85 -20.05 M-39.6 -16.55 L-39.8 -17.2 -38.4 -16.95 Q-33.6 -13.95 -30.2 -9.55 -26.15 -4.45 -27.65 1.7 -26.15 -4.45 -30.2 -9.55 -33.6 -13.95 -38.4 -16.95 L-39.8 -17.2 -39.6 -16.55 M-64.8 11.1 Q-61.05 7.7 -56.55 5.4 -54.0 4.1 -51.5 5.35 -54.0 4.1 -56.55 5.4 -61.05 7.7 -64.8 11.1 M-50.05 10.4 L-50.55 10.45 Q-52.2 11.2 -53.6 12.3 L-55.65 14.4 -53.6 12.3 Q-52.2 11.2 -50.55 10.45 L-50.05 10.4 M-44.7 18.0 Q-47.1 19.2 -47.65 21.75 -47.1 19.2 -44.7 18.0 M-62.4 1.1 Q-58.55 -2.85 -53.3 -3.8 -58.55 -2.85 -62.4 1.1" fill="url(#gradient0)" fill-rule="evenodd" stroke="none"/>
    <path d="M30.6 -40.5 L30.35 -43.75 27.65 -42.85 25.75 -45.75 20.25 -43.35 19.8 -45.95 14.55 -41.95 Q14.0 -51.6 18.3 -59.2 L19.7 -61.4 Q21.3 -63.75 23.4 -65.9 L29.8 -68.05 29.95 -68.0 32.7 -66.3 Q40.5 -59.8 41.55 -49.45 L42.1 -48.6 41.05 -47.95 Q40.7 -44.85 38.35 -42.9 L37.85 -42.5 36.4 -41.65 Q35.4 -41.1 34.45 -40.8 L32.9 -40.7 30.6 -40.5 M36.8 -45.85 L36.3 -47.9 Q36.0 -48.75 35.45 -48.8 34.25 -48.85 32.95 -48.1 L31.9 -47.4 Q31.95 -48.7 31.6 -49.95 31.25 -51.2 30.35 -51.35 29.35 -51.45 28.2 -50.5 L26.8 -49.25 26.7 -50.5 Q26.6 -51.8 25.85 -52.4 25.5 -52.7 24.65 -52.05 23.05 -50.75 22.0 -49.05 L22.0 -49.85 Q22.45 -52.2 22.1 -54.35 20.2 -53.45 18.5 -51.8 16.6 -49.85 17.0 -47.3 16.6 -49.85 18.5 -51.8 20.2 -53.45 22.1 -54.35 22.45 -52.2 22.0 -49.85 L22.0 -49.05 Q23.05 -50.75 24.65 -52.05 25.5 -52.7 25.85 -52.4 26.6 -51.8 26.7 -50.5 L26.8 -49.25 28.2 -50.5 Q29.35 -51.45 30.35 -51.35 31.25 -51.2 31.6 -49.95 31.95 -48.7 31.9 -47.4 L32.95 -48.1 Q34.25 -48.85 35.45 -48.8 36.0 -48.75 36.3 -47.9 L36.8 -45.85 M-56.45 -69.6 L-56.1 -69.85 -52.2 -68.4 Q-50.2 -67.4 -48.3 -66.25 -37.0 -59.75 -32.85 -47.95 L-32.85 -47.85 -32.0 -45.15 -32.7 -44.9 -34.9 -47.05 -36.55 -43.95 -42.2 -48.35 -42.5 -42.2 -43.3 -44.85 -44.0 -39.55 -47.4 -39.7 Q-47.0 -49.85 -50.75 -59.35 -52.65 -64.15 -55.6 -68.35 L-56.45 -69.6 M-38.9 -49.8 L-40.7 -52.4 -41.9 -53.6 -42.0 -52.45 -42.1 -49.75 -42.4 -50.75 Q-42.75 -53.35 -44.7 -54.9 L-45.1 -54.3 Q-46.15 -50.3 -44.95 -46.25 -46.15 -50.3 -45.1 -54.3 L-44.7 -54.9 Q-42.75 -53.35 -42.4 -50.75 L-42.1 -49.75 -42.0 -52.45 -41.9 -53.6 -40.7 -52.4 -38.9 -49.8" fill="#6a6a5c" fill-rule="evenodd" stroke="none"/>
    <path d="M24.5 -16.2 L25.3 -16.6 24.55 -16.1 24.5 -16.2" fill="#3dd2ff" fill-rule="evenodd" stroke="none"/>
    <path d="M-3.75 8.15 L-2.6 10.2 0.45 10.5 1.35 10.5 Q6.45 10.45 11.15 12.0 8.65 11.7 7.25 13.9 5.2 17.15 1.9 19.0 -3.8 22.3 -6.9 16.75 L-10.3 19.2 -10.65 19.8 -10.45 25.2 Q-14.35 27.6 -18.7 28.8 L-19.9 29.1 Q-24.25 30.25 -26.15 34.45 -27.3 37.0 -28.1 39.6 -30.6 47.45 -29.75 55.8 L-31.2 59.15 Q-32.9 58.45 -34.75 58.15 L-36.05 57.8 Q-40.25 56.5 -44.5 56.0 L-44.65 53.2 -44.7 52.1 Q-42.3 48.75 -40.3 45.1 -38.15 41.2 -37.1 37.25 -35.35 30.6 -36.55 23.6 L-41.05 22.2 -40.0 18.8 -40.5 16.75 Q-40.6 15.45 -41.05 14.95 L-41.65 14.4 -41.65 14.3 -41.7 14.4 -42.25 14.05 Q-42.95 13.65 -43.1 12.95 L-43.2 12.4 -43.25 12.15 Q-43.25 9.6 -41.1 8.6 -38.75 9.1 -36.75 12.75 L-33.95 11.4 Q-33.55 12.45 -32.65 13.35 -29.05 10.4 -29.05 6.5 L-20.95 7.65 Q-20.95 10.35 -19.6 12.8 L-18.4 14.9 -18.0 15.25 -15.25 15.2 Q-13.9 14.8 -12.6 13.65 -11.15 12.35 -9.45 11.35 -6.65 9.65 -3.75 8.15 M-1.05 12.95 L-1.05 12.9 -1.05 12.85 -1.05 12.95" fill="#505047" fill-rule="evenodd" stroke="none"/>
    <path d="M-68.7 18.7 L-68.15 18.75 -67.45 17.6 -66.0 17.3 -64.4 19.55 Q-58.65 15.05 -51.9 17.8 L-51.25 18.2 -50.65 18.8 Q-47.5 23.55 -47.15 29.3 L-41.65 24.05 -41.05 22.2 -36.55 23.6 Q-35.35 30.6 -37.1 37.25 -38.15 41.2 -40.3 45.1 -42.3 48.75 -44.7 52.1 L-44.65 53.2 -44.5 56.0 Q-47.25 57.05 -48.1 59.75 L-48.25 60.25 -48.4 61.1 -48.15 66.15 -46.65 65.15 Q-45.85 65.25 -45.2 65.6 -43.5 66.6 -43.9 68.8 -39.65 73.2 -34.65 70.8 -34.3 70.65 -34.2 70.15 -33.95 68.65 -32.95 67.45 -30.25 68.35 -27.85 67.05 L-26.85 66.1 Q-24.7 62.9 -28.0 60.8 -29.55 59.8 -31.2 59.15 L-29.75 55.8 Q-30.6 47.45 -28.1 39.6 -27.3 37.0 -26.15 34.45 -24.25 30.25 -19.9 29.1 L-18.7 28.8 -17.75 32.3 Q-13.95 35.2 -13.05 40.1 L-10.5 37.3 Q-9.2 35.9 -7.55 35.2 -2.65 33.25 2.9 34.35 L17.65 37.6 14.5 32.4 20.25 34.05 18.3 26.65 Q22.95 26.65 26.95 29.2 31.5 32.1 34.8 36.05 41.8 44.3 40.45 54.95 L44.35 50.1 44.85 51.05 49.15 52.55 Q47.8 57.8 44.45 62.2 42.9 64.2 41.7 66.5 38.25 73.2 32.9 78.1 35.2 72.35 34.55 66.1 33.05 67.9 31.4 71.35 L28.3 77.05 Q24.8 82.85 20.35 87.8 L17.4 90.95 Q16.55 90.25 17.2 86.75 18.2 81.55 18.55 76.2 18.75 73.25 16.2 70.85 14.2 78.0 8.2 82.3 L9.05 79.6 Q10.1 75.1 9.2 72.3 7.8 77.35 3.45 80.55 0.8 82.4 -0.35 82.1 L0.25 80.25 Q2.3 73.5 0.05 66.35 -4.85 71.6 -11.55 73.8 -14.1 74.65 -16.3 76.1 L-24.0 80.85 Q-27.35 82.85 -31.15 81.9 L-36.9 80.35 -38.4 79.65 Q-41.95 77.2 -44.65 73.8 -46.0 72.15 -47.3 70.85 -49.65 68.4 -49.55 64.8 L-49.45 61.1 -49.45 61.05 -49.45 60.95 -49.25 59.35 -50.5 62.35 -51.05 62.05 -53.15 59.95 Q-56.05 55.9 -56.55 51.0 L-59.95 60.45 Q-64.55 52.85 -61.95 44.05 -65.65 48.3 -67.1 53.8 -70.5 41.15 -67.05 28.7 L-70.35 34.7 Q-70.05 26.8 -68.7 18.7 M32.7 57.2 L32.65 55.35 32.4 51.5 Q32.1 48.15 31.2 44.95 30.0 40.65 27.3 37.05 30.0 40.65 31.2 44.95 32.1 48.15 32.4 51.5 L32.65 55.35 32.7 57.2 M7.0 62.45 Q3.2 62.75 0.55 65.8 L0.05 66.35 0.55 65.8 Q3.2 62.75 7.0 62.45 M-49.25 59.35 Q-48.9 57.2 -48.15 55.1 L-46.65 51.35 -46.65 51.3 -45.5 48.45 -42.95 42.5 Q-41.65 39.45 -41.0 36.3 -40.25 32.85 -40.35 29.3 L-40.4 28.1 -40.35 29.3 Q-40.25 32.85 -41.0 36.3 -41.65 39.45 -42.95 42.5 L-45.5 48.45 -46.65 51.3 -46.65 51.35 -48.15 55.1 Q-48.9 57.2 -49.25 59.35 M-37.5 75.3 Q-37.8 77.15 -39.2 77.3 L-38.95 77.45 -35.75 77.1 -36.55 75.95 Q-37.2 74.35 -37.1 72.4 -37.2 74.35 -36.55 75.95 L-35.75 77.1 -32.1 79.05 Q-28.7 80.75 -25.85 78.5 -23.05 76.2 -13.2 72.7 -23.05 76.2 -25.85 78.5 -28.7 80.75 -32.1 79.05 L-35.75 77.1 -38.95 77.45 -39.2 77.3 Q-37.8 77.15 -37.5 75.3 M-21.25 52.1 L-21.7 53.25 -21.25 52.1 M-15.75 55.55 L-16.45 56.3 -15.75 55.55 M-10.8 58.6 L-11.2 59.7 -10.8 58.6 M-18.45 62.25 Q-19.0 62.75 -19.2 63.7 -19.0 62.75 -18.45 62.25 M-12.8 64.9 L-13.55 65.95 -12.8 64.9 M-5.85 62.3 L-6.3 63.05 -5.85 62.3" fill="#b6b1a9" fill-rule="evenodd" stroke="none"/>
    <path d="M-3.75 8.15 Q-6.65 9.65 -9.45 11.35 -11.15 12.35 -12.6 13.65 -13.9 14.8 -15.25 15.2 L-18.0 15.25 -18.4 14.9 -19.6 12.8 Q-20.95 10.35 -20.95 7.65 -20.9 4.75 -18.8 3.0 -15.85 0.7 -12.5 -0.75 -9.25 -2.2 -5.6 -2.8 L-2.85 -3.4 Q4.5 -4.85 10.75 -1.0 10.05 1.65 7.55 2.6 1.75 5.15 -3.75 8.15 M-29.05 6.5 Q-29.05 10.4 -32.65 13.35 -33.55 12.45 -33.95 11.4 L-34.25 10.55 Q-35.05 7.7 -37.25 5.3 L-41.3 1.4 Q-44.6 -1.5 -43.1 -5.0 -39.95 -5.85 -36.7 -4.05 L-33.45 -1.85 Q-30.6 0.25 -29.55 3.6 -29.1 5.1 -29.05 6.5 M-13.25 0.6 L-12.5 -0.75 -13.25 0.6" fill="#79786c" fill-rule="evenodd" stroke="none"/>
    <path d="M-1.05 12.95 L-1.05 12.85 -1.05 12.9 -1.05 12.95" fill="url(#gradient1)" fill-rule="evenodd" stroke="none"/>
    <path d="M-44.5 56.0 Q-40.25 56.5 -36.05 57.8 L-34.75 58.15 Q-32.9 58.45 -31.2 59.15 -29.55 59.8 -28.0 60.8 -24.7 62.9 -26.85 66.1 L-27.85 67.05 Q-30.25 68.35 -32.95 67.45 -33.95 68.65 -34.2 70.15 -34.3 70.65 -34.65 70.8 -39.65 73.2 -43.9 68.8 -43.5 66.6 -45.2 65.6 -45.85 65.25 -46.65 65.15 L-48.15 66.15 -48.4 61.1 -48.25 60.25 -48.1 59.75 Q-47.25 57.05 -44.5 56.0 M-44.1 57.45 L-45.35 57.75 Q-48.85 59.4 -46.7 60.6 -44.6 61.8 -42.2 62.3 L-38.2 63.2 Q-36.55 63.55 -36.75 62.2 -37.6 56.8 -44.1 57.45" fill="#54512c" fill-rule="evenodd" stroke="none"/>
    <path d="M-44.1 57.45 Q-37.6 56.8 -36.75 62.2 -36.55 63.55 -38.2 63.2 L-42.2 62.3 Q-44.6 61.8 -46.7 60.6 -48.85 59.4 -45.35 57.75 L-44.1 57.45" fill="#7a7241" fill-rule="evenodd" stroke="none"/>
    <path d="M46.95 -40.95 Q48.15 -43.35 47.75 -45.95 L47.2 -49.5 Q45.6 -61.25 36.6 -68.75 L35.3 -69.8 Q33.4 -71.15 31.25 -72.2 L25.25 -75.25 Q20.35 -72.35 16.5 -67.7 L14.7 -65.45 12.05 -62.35 11.95 -62.2 11.9 -62.2 5.7 -55.45 3.45 -52.85 Q1.7 -50.5 2.15 -47.5 M47.9 -39.55 L47.2 -40.6 M11.35 -62.7 L4.75 -60.25 6.6 -62.0 6.85 -62.7 Q-0.6 -62.25 -7.6 -59.5 L-5.4 -61.8 Q-12.25 -61.55 -17.2 -56.95 M-50.45 -27.3 L-59.0 -14.05 Q-66.35 -3.05 -69.0 9.65 L-64.3 3.4 Q-66.95 8.95 -68.05 14.85 L-68.7 18.7 M30.6 -40.5 L30.35 -43.75 27.65 -42.85 25.75 -45.75 20.25 -43.35 19.8 -45.95 14.55 -41.95 Q14.0 -51.6 18.3 -59.2 L19.7 -61.4 Q21.3 -63.75 23.4 -65.9 25.55 -68.0 28.55 -68.3 L29.8 -68.05 29.95 -68.0 32.7 -66.3 Q40.5 -59.8 41.55 -49.45 M47.9 -39.55 L48.9 -38.9 Q52.15 -37.35 54.25 -34.25 61.1 -23.95 64.75 -12.2 L64.65 -12.15 60.45 -16.45 Q62.05 -11.7 63.05 -6.8 L64.85 0.65 Q67.6 11.1 65.9 21.75 L64.25 18.05 Q63.9 18.1 64.1 19.7 L64.25 22.3 Q64.35 30.05 63.9 37.75 63.45 44.65 61.3 51.15 L59.65 43.65 Q57.2 52.15 53.3 58.7 52.05 60.7 50.0 62.15 50.25 59.2 49.95 56.3 L49.2 52.25 49.15 52.55 Q47.8 57.8 44.45 62.2 42.9 64.2 41.7 66.5 38.25 73.2 32.9 78.1 35.2 72.35 34.55 66.1 33.05 67.9 31.4 71.35 L28.3 77.05 Q24.8 82.85 20.35 87.8 L17.4 90.95 Q16.55 90.25 17.2 86.75 18.2 81.55 18.55 76.2 18.75 73.25 16.2 70.85 14.2 78.0 8.2 82.3 L9.05 79.6 Q10.1 75.1 9.2 72.3 7.8 77.35 3.45 80.55 0.8 82.4 -0.35 82.1 L0.25 80.25 Q2.3 73.5 0.05 66.35 -4.85 71.6 -11.55 73.8 -14.1 74.65 -16.3 76.1 L-24.0 80.85 Q-27.35 82.85 -31.15 81.9 L-36.9 80.35 -38.4 79.65 Q-41.95 77.2 -44.65 73.8 -46.0 72.15 -47.3 70.85 -49.65 68.4 -49.55 64.8 L-49.45 61.1 -49.45 61.05 -49.45 60.95 -49.25 59.35 -50.5 62.35 -51.05 62.05 -53.15 59.95 Q-56.05 55.9 -56.55 51.0 L-59.95 60.45 Q-64.55 52.85 -61.95 44.05 -65.65 48.3 -67.1 53.8 -70.5 41.15 -67.05 28.7 L-70.35 34.7 Q-70.05 26.8 -68.7 18.7 M-44.5 56.0 Q-40.25 56.5 -36.05 57.8 L-34.75 58.15 Q-32.9 58.45 -31.2 59.15 M0.05 66.35 L0.55 65.8 Q3.2 62.75 7.0 62.45 M-18.3 -57.4 Q-20.7 -60.0 -23.75 -62.3 -30.75 -67.65 -38.45 -72.0 -40.95 -73.45 -43.65 -74.25 L-52.55 -76.35 Q-56.8 -77.2 -59.15 -74.5 L-58.4 -72.6 -56.45 -69.6 -55.6 -68.35 Q-52.65 -64.15 -50.75 -59.35 -47.0 -49.85 -47.4 -39.7 L-47.65 -36.8 -47.8 -35.0 -47.8 -34.7 -47.75 -34.0 Q-47.7 -31.7 -49.05 -29.55 L-50.45 -27.3 M-56.1 -69.85 L-52.2 -68.4 Q-50.2 -67.4 -48.3 -66.25 -37.0 -59.75 -32.85 -47.95 L-32.85 -47.85 -32.0 -45.15 -31.95 -44.85 -32.7 -44.9 -34.9 -47.05 -36.55 -43.95 -42.2 -48.35 -42.5 -42.2 -43.3 -44.85 -44.0 -39.55 M-17.55 -56.4 L-18.1 -56.75 M-40.4 28.1 L-40.35 29.3 Q-40.25 32.85 -41.0 36.3 -41.65 39.45 -42.95 42.5 L-45.5 48.45 -46.65 51.3 -46.65 51.35 -48.15 55.1 Q-48.9 57.2 -49.25 59.35 M-44.5 56.0 Q-47.25 57.05 -48.1 59.75 L-48.25 60.25 -48.4 61.1 -48.15 66.15 -46.65 65.15 Q-45.85 65.25 -45.2 65.6 -43.5 66.6 -43.9 68.8 -39.65 73.2 -34.65 70.8 -34.3 70.65 -34.2 70.15 -33.95 68.65 -32.95 67.45 -30.25 68.35 -27.85 67.05 L-26.85 66.1 Q-24.7 62.9 -28.0 60.8 -29.55 59.8 -31.2 59.15" fill="none" stroke="#000000" stroke-linecap="round" stroke-linejoin="round" stroke-width="1.0"/>
    <path d="M2.2 -45.4 Q1.05 -42.7 1.0 -39.9 0.9 -35.55 3.6 -32.25 L4.05 -32.05 5.8 -31.65 Q18.85 -28.4 24.5 -16.2 M25.3 -16.6 Q27.1 -18.05 27.25 -20.55 M-17.55 -56.4 L-15.9 -55.3 -17.6 -53.45 -17.5 -52.5 M-25.6 -42.9 L-24.6 -41.5 Q-24.8 -40.5 -25.3 -39.8 -27.65 -36.85 -31.55 -36.15 -42.0 -34.1 -47.35 -25.35 M-68.15 18.75 L-67.45 17.6 -66.0 17.3 -64.4 19.55 Q-58.65 15.05 -51.9 17.8 L-51.25 18.2 Q-50.65 15.15 -47.85 14.0 L-46.55 13.5 M5.4 -47.6 Q4.15 -51.05 6.95 -53.25 L8.75 -54.95 15.1 -61.5 16.0 -62.35 Q18.45 -64.2 20.3 -66.5 L21.15 -67.35 Q22.8 -68.6 24.05 -70.1 L24.8 -70.85 26.05 -71.05 28.45 -70.55 M17.0 -47.3 Q16.6 -49.85 18.5 -51.8 20.2 -53.45 22.1 -54.35 22.45 -52.2 22.0 -49.85 L22.0 -49.05 Q23.05 -50.75 24.65 -52.05 25.5 -52.7 25.85 -52.4 26.6 -51.8 26.7 -50.5 L26.8 -49.25 28.2 -50.5 Q29.35 -51.45 30.35 -51.35 31.25 -51.2 31.6 -49.95 31.95 -48.7 31.9 -47.4 L32.95 -48.1 Q34.25 -48.85 35.45 -48.8 36.0 -48.75 36.3 -47.9 L36.8 -45.85 M40.1 -18.55 Q46.05 -18.3 49.5 -13.15 L50.0 -12.45 M37.6 4.45 Q46.35 10.2 51.8 19.4 L52.25 20.1 M40.45 -7.75 Q49.05 -6.15 52.95 1.65 53.9 3.6 55.5 4.4 M32.2 13.85 Q41.9 17.5 48.05 26.5 52.5 33.05 54.3 40.7 M25.4 20.1 Q33.85 21.1 38.3 28.75 L41.85 34.4 Q44.25 37.9 44.95 41.9 L44.95 43.6 M-36.55 23.6 Q-35.35 30.6 -37.1 37.25 -38.15 41.2 -40.3 45.1 -42.3 48.75 -44.7 52.1 L-44.65 53.2 M-29.75 55.8 Q-30.6 47.45 -28.1 39.6 -27.3 37.0 -26.15 34.45 -24.25 30.25 -19.9 29.1 L-18.7 28.8 Q-14.35 27.6 -10.45 25.2 M44.85 51.05 L44.35 50.1 40.45 54.95 Q41.8 44.3 34.8 36.05 31.5 32.1 26.95 29.2 22.95 26.65 18.3 26.65 L20.25 34.05 14.5 32.4 17.65 37.6 2.9 34.35 Q-2.65 33.25 -7.55 35.2 -9.2 35.9 -10.5 37.3 L-13.05 40.1 Q-13.95 35.2 -17.75 32.3 M5.05 26.95 Q9.15 27.7 10.55 31.4 L11.0 32.75 M7.9 23.75 Q9.45 24.6 10.75 25.65 12.4 27.05 13.45 28.9 13.85 29.6 13.85 30.5 M-0.95 29.45 Q2.7 29.3 5.85 31.25 L8.5 33.55 9.15 34.65 M27.3 37.05 Q30.0 40.65 31.2 44.95 32.1 48.15 32.4 51.5 L32.65 55.35 32.7 57.2 M-12.5 -0.75 L-13.25 0.6 M-55.95 -73.4 Q-54.5 -74.7 -52.95 -73.7 -50.5 -72.1 -47.55 -71.6 L-45.85 -71.15 Q-40.4 -69.4 -35.1 -66.95 -32.85 -65.95 -31.25 -64.15 -29.4 -62.05 -26.95 -60.8 M-8.25 -48.55 L-4.45 -53.65 -2.8 -55.6 M-12.95 -46.8 Q-11.15 -52.5 -6.5 -56.3 L-5.65 -56.85 M-44.95 -46.25 Q-46.15 -50.3 -45.1 -54.3 L-44.7 -54.9 Q-42.75 -53.35 -42.4 -50.75 L-42.1 -49.75 -42.0 -52.45 -41.9 -53.6 -40.7 -52.4 -38.9 -49.8 M-48.3 -16.6 Q-49.75 -16.65 -50.9 -16.05 -53.45 -14.75 -55.65 -12.8 L-58.6 -9.75 -59.2 -8.8 M-25.6 -42.9 L-27.4 -45.4 M-27.65 1.7 Q-26.15 -4.45 -30.2 -9.55 -33.6 -13.95 -38.4 -16.95 L-39.8 -17.2 -39.6 -16.55 M-21.8 -2.3 Q-20.1 -10.5 -16.95 -18.25 L-15.85 -20.05 M-12.5 -0.75 Q-11.4 -2.7 -9.9 -4.1 -6.5 -7.15 -2.1 -8.5 L3.05 -9.15 M-55.65 14.4 L-53.6 12.3 Q-52.2 11.2 -50.55 10.45 L-50.05 10.4 M-51.5 5.35 Q-54.0 4.1 -56.55 5.4 -61.05 7.7 -64.8 11.1 M-41.65 24.05 L-47.15 29.3 Q-47.5 23.55 -50.65 18.8 L-51.25 18.2 M-47.65 21.75 Q-47.1 19.2 -44.7 18.0 M-6.3 63.05 L-5.85 62.3 M-13.55 65.95 L-12.8 64.9 M-19.2 63.7 Q-19.0 62.75 -18.45 62.25 M-11.2 59.7 L-10.8 58.6 M-16.45 56.3 L-15.75 55.55 M-21.7 53.25 L-21.25 52.1 M-37.1 72.4 Q-37.2 74.35 -36.55 75.95 L-35.75 77.1 -32.1 79.05 Q-28.7 80.75 -25.85 78.5 -23.05 76.2 -13.2 72.7 M-35.75 77.1 L-38.95 77.45 -39.2 77.3 Q-37.8 77.15 -37.5 75.3 M-53.3 -3.8 Q-58.55 -2.85 -62.4 1.1" fill="none" stroke="#666666" stroke-linecap="round" stroke-linejoin="round" stroke-width="1.0"/>
    <path d="M28.05 -22.25 Q30.7 -27.45 35.95 -30.1 L40.75 -32.55 Q42.7 -33.55 44.25 -35.25 L44.75 -35.65 45.1 -36.1 Q45.65 -37.35 46.6 -38.25 M-19.05 -51.75 L-20.45 -49.6 Q-21.4 -48.15 -22.65 -46.85 -23.8 -45.7 -23.95 -44.1 M41.05 -47.95 Q40.7 -44.85 38.35 -42.9 L37.85 -42.5 36.4 -41.65 Q35.4 -41.1 34.45 -40.8 L32.9 -40.7" fill="none" stroke="#5a4d36" stroke-linecap="round" stroke-linejoin="round" stroke-width="1.0"/>
    <path d="M-3.75 8.15 Q-6.65 9.65 -9.45 11.35 -11.15 12.35 -12.6 13.65 -13.9 14.8 -15.25 15.2 L-18.0 15.25 -18.4 14.9 -19.6 12.8 Q-20.95 10.35 -20.95 7.65 M-29.05 6.5 Q-29.05 10.4 -32.65 13.35 -33.55 12.45 -33.95 11.4 M-3.75 8.15 Q1.75 5.15 7.55 2.6 10.05 1.65 10.75 -1.0 4.5 -4.85 -2.85 -3.4 L-5.6 -2.8 Q-9.25 -2.2 -12.5 -0.75 -15.85 0.7 -18.8 3.0 -20.9 4.75 -20.95 7.65 M-29.05 6.5 Q-29.1 5.1 -29.55 3.6 -30.6 0.25 -33.45 -1.85 L-36.7 -4.05 Q-39.95 -5.85 -43.1 -5.0 -44.6 -1.5 -41.3 1.4 L-37.25 5.3 Q-35.05 7.7 -34.25 10.55 L-33.95 11.4" fill="none" stroke="#5c5c52" stroke-linecap="round" stroke-linejoin="round" stroke-width="1.0"/>
  </g>
  <defs>
    <radialGradient cx="0" cy="0" gradientTransform="matrix(0.0652, 0.0185, -0.0272, 0.0959, -22.2, 3.0)" gradientUnits="userSpaceOnUse" id="gradient0" r="819.2" spreadMethod="pad">
      <stop offset="0.0" stop-color="#505047"/>
      <stop offset="1.0" stop-color="#818172"/>
    </radialGradient>
    <radialGradient cx="0" cy="0" gradientTransform="matrix(0.0059, 0.0, 0.0, 0.0059, 0.45, 14.45)" gradientUnits="userSpaceOnUse" id="gradient1" r="819.2" spreadMethod="pad">
      <stop offset="0.0" stop-color="#a76c27"/>
      <stop offset="1.0" stop-color="#fefd9e"/>
    </radialGradient>
  </defs>
</svg>
