<?xml version="1.0" encoding="UTF-8" standalone="no"?>
<svg xmlns:xlink="http://www.w3.org/1999/xlink" height="137.7px" width="231.05px" xmlns="http://www.w3.org/2000/svg">
  <g transform="matrix(1.0, 0.0, 0.0, 1.0, 80.65, 92.35)">
    <path d="M45.55 -57.4 Q51.25 -60.65 57.15 -63.55 61.9 -65.95 66.85 -68.05 71.7 -70.2 76.85 -71.75 82.15 -73.2 87.65 -74.15 L98.8 -75.3 Q103.5 -75.55 108.25 -75.1 99.2 -82.95 85.9 -80.7 69.35 -77.7 54.65 -69.15 40.4 -60.7 27.65 -50.2 L24.25 -50.5 Q12.9 -51.45 2.15 -47.3 L2.0 -47.75 -1.4 -50.15 -1.6 -50.9 Q4.35 -52.6 10.0 -55.1 23.5 -61.05 35.75 -69.45 48.9 -78.6 63.55 -85.25 77.4 -91.5 92.45 -91.75 112.75 -93.1 116.05 -74.15 L123.25 -72.4 Q128.95 -70.75 133.9 -67.5 138.95 -64.25 142.65 -59.35 146.3 -54.55 148.25 -48.75 150.35 -42.45 149.8 -35.75 149.3 -29.25 145.95 -23.85 142.5 -18.3 137.7 -13.8 L134.5 -10.85 Q136.3 -15.2 137.4 -19.7 L138.8 -25.7 Q139.7 -30.05 140.0 -34.45 L140.2 -39.95 Q140.25 -43.4 139.3 -46.55 138.45 -49.2 136.6 -51.4 134.9 -53.4 132.85 -54.9 130.15 -56.95 126.7 -58.05 120.45 -60.25 114.05 -61.15 L107.75 -61.8 107.6 -62.35 107.75 -61.8 114.05 -61.15 114.05 -61.2 114.55 -62.8 114.05 -61.2 114.05 -61.15 113.35 -59.6 Q109.75 -52.3 102.35 -48.7 L102.3 -48.8 103.45 -49.95 Q108.05 -54.95 107.75 -61.8 92.3 -62.6 77.45 -58.55 65.65 -55.45 55.55 -48.65 L41.85 -39.15 Q34.5 -34.0 28.9 -27.05 L28.15 -26.0 24.3 -24.15 10.3 -35.95 31.4 -49.45 45.5 -57.4 45.55 -57.4 M115.65 -71.25 L116.05 -74.15 115.65 -71.25 M116.05 -74.15 L108.25 -75.1 116.05 -74.15" fill="url(#gradient0)" fill-rule="evenodd" stroke="none"/>
    <path d="M27.65 -50.2 L31.4 -49.45 10.3 -35.95 24.3 -24.15 28.15 -26.0 28.45 -26.1 29.55 -26.55 30.95 -24.75 31.95 -22.3 32.9 -18.35 32.95 -17.8 33.1 -17.05 34.15 -12.9 34.65 -10.05 34.8 -6.75 34.65 -1.3 34.55 -0.2 Q34.55 0.7 34.1 1.4 L33.95 1.75 33.65 2.0 33.4 2.05 33.4 2.25 33.7 2.5 33.4 4.4 Q33.4 5.0 33.2 5.0 L29.75 5.25 29.35 5.25 28.75 5.2 28.65 5.2 Q27.85 5.55 27.35 6.05 L27.45 5.15 23.8 4.9 22.8 5.1 Q21.15 6.1 18.55 6.5 L18.7 7.25 14.25 12.9 6.8 13.4 Q-2.85 15.05 -10.9 21.7 -22.05 30.85 -36.75 32.8 -40.45 33.3 -43.25 35.25 -55.35 43.45 -69.6 44.85 L-71.25 44.2 -73.7 43.65 -76.8 42.7 Q-79.15 41.7 -80.05 39.3 L-80.15 38.85 -79.25 33.0 Q-78.1 24.0 -75.8 15.25 L-71.25 16.05 Q-67.75 15.5 -64.9 13.25 -56.3 6.45 -48.65 -1.35 -45.1 -5.05 -43.0 -10.05 -39.9 -17.3 -39.05 -25.05 L-33.25 -29.8 Q-23.05 -38.0 -12.15 -45.6 -7.25 -48.95 -1.65 -50.85 L-1.6 -50.9 -1.4 -50.15 2.0 -47.75 2.15 -47.3 Q12.9 -51.45 24.25 -50.5 L27.65 -50.2 M-0.5 -46.3 L2.15 -47.3 -0.5 -46.3 M8.6 -40.85 L8.0 -41.25 3.45 -43.15 8.0 -41.25 8.6 -40.85 M18.05 -46.1 Q16.8 -48.55 13.8 -49.5 16.8 -48.55 18.05 -46.1 M7.55 -34.2 L10.3 -35.95 7.55 -34.2 M-69.9 32.5 Q-70.35 31.65 -70.25 30.85 -70.05 29.5 -69.25 28.25 L-67.45 26.05 Q-65.5 24.1 -67.15 21.9 -67.6 21.3 -68.3 21.0 L-70.0 21.1 Q-71.05 21.6 -71.75 22.6 -72.1 23.15 -72.05 23.6 -72.1 23.15 -71.75 22.6 -71.05 21.6 -70.0 21.1 L-68.3 21.0 Q-67.6 21.3 -67.15 21.9 -65.5 24.1 -67.45 26.05 L-69.25 28.25 Q-70.05 29.5 -70.25 30.85 -70.35 31.65 -69.9 32.5 M-3.6 -33.2 Q-6.6 -36.05 -10.95 -36.8 -6.6 -36.05 -3.6 -33.2" fill="#50882d" fill-rule="evenodd" stroke="none"/>
    <path d="M33.95 1.75 L33.7 2.5 33.4 2.25 33.65 2.0 33.95 1.75" fill="url(#gradient1)" fill-rule="evenodd" stroke="none"/>
    <path d="M45.55 -57.4 Q51.25 -60.65 57.15 -63.55 61.9 -65.95 66.85 -68.05 71.7 -70.2 76.85 -71.75 82.15 -73.2 87.65 -74.15 L98.8 -75.3 Q103.5 -75.55 108.25 -75.1 99.2 -82.95 85.9 -80.7 69.35 -77.7 54.65 -69.15 40.4 -60.7 27.65 -50.2 L31.4 -49.45 45.5 -57.4 M2.15 -47.3 Q12.9 -51.45 24.25 -50.5 L27.65 -50.2 M116.05 -74.15 Q112.75 -93.1 92.45 -91.75 77.4 -91.5 63.55 -85.25 48.9 -78.6 35.75 -69.45 23.5 -61.05 10.0 -55.1 4.35 -52.6 -1.6 -50.9 L-1.65 -50.85 Q-7.25 -48.95 -12.15 -45.6 -23.05 -38.0 -33.25 -29.8 L-39.05 -25.05 Q-39.9 -17.3 -43.0 -10.05 -45.1 -5.05 -48.65 -1.35 -56.3 6.45 -64.9 13.25 -67.75 15.5 -71.25 16.05 L-75.8 15.25 Q-78.1 24.0 -79.25 33.0 L-80.15 38.85 -80.05 39.3 Q-79.15 41.7 -76.8 42.7 L-73.7 43.65 -71.25 44.2 -69.6 44.85 Q-55.35 43.45 -43.25 35.25 -40.45 33.3 -36.75 32.8 -22.05 30.85 -10.9 21.7 -2.85 15.05 6.8 13.4 L8.1 15.15 M2.15 -47.3 L-0.5 -46.3 M29.55 -26.55 L28.9 -27.05 28.15 -26.0 28.45 -26.1 29.55 -26.55 30.95 -24.75 31.95 -22.3 32.9 -18.35 32.95 -17.8 33.1 -17.05 34.15 -12.9 34.65 -10.05 34.8 -6.75 34.65 -1.3 34.55 -0.2 Q34.55 0.7 34.1 1.4 L33.95 1.75 33.7 2.5 M10.3 -35.95 L7.55 -34.2 M31.4 -49.45 L10.3 -35.95 M102.3 -48.8 L103.45 -49.95 Q108.05 -54.95 107.75 -61.8 92.3 -62.6 77.45 -58.55 65.65 -55.45 55.55 -48.65 L41.85 -39.15 Q34.5 -34.0 28.9 -27.05 M114.05 -61.15 Q120.45 -60.25 126.7 -58.05 130.15 -56.95 132.85 -54.9 134.9 -53.4 136.6 -51.4 138.45 -49.2 139.3 -46.55 140.25 -43.4 140.2 -39.95 L140.0 -34.45 Q139.7 -30.05 138.8 -25.7 L137.4 -19.7 Q136.3 -15.2 134.5 -10.85 L137.7 -13.8 Q142.5 -18.3 145.95 -23.85 149.3 -29.25 149.8 -35.75 150.35 -42.45 148.25 -48.75 146.3 -54.55 142.65 -59.35 138.95 -64.25 133.9 -67.5 128.95 -70.75 123.25 -72.4 L116.05 -74.15 115.65 -71.25 M107.6 -62.35 L107.75 -61.8 114.05 -61.15 114.05 -61.2 114.55 -62.8 M102.35 -48.7 Q109.75 -52.3 113.35 -59.6 L114.05 -61.15 M108.25 -75.1 L116.05 -74.15 M102.35 -48.7 L102.25 -48.7 102.3 -48.8 M33.4 2.05 L33.4 2.25 33.65 2.0 M33.4 2.25 L33.7 2.5 M33.95 1.75 L33.65 2.0" fill="none" stroke="#000000" stroke-linecap="round" stroke-linejoin="round" stroke-width="1.0"/>
    <path d="M13.8 -49.5 Q16.8 -48.55 18.05 -46.1 M3.45 -43.15 L8.0 -41.25 8.6 -40.85 M-10.95 -36.8 Q-6.6 -36.05 -3.6 -33.2 M-72.05 23.6 Q-72.1 23.15 -71.75 22.6 -71.05 21.6 -70.0 21.1 L-68.3 21.0 Q-67.6 21.3 -67.15 21.9 -65.5 24.1 -67.45 26.05 L-69.25 28.25 Q-70.05 29.5 -70.25 30.85 -70.35 31.65 -69.9 32.5" fill="none" stroke="#006600" stroke-linecap="round" stroke-linejoin="round" stroke-width="1.0"/>
  </g>
  <defs>
    <linearGradient gradientTransform="matrix(0.0202, -0.0172, 0.0298, 0.035, 38.15, -43.05)" gradientUnits="userSpaceOnUse" id="gradient0" spreadMethod="pad" x1="-819.2" x2="819.2">
      <stop offset="0.0" stop-color="#50882d"/>
      <stop offset="1.0" stop-color="#000000"/>
    </linearGradient>
    <linearGradient gradientTransform="matrix(0.0367, 0.0, 0.0, 0.0162, 54.3, -13.65)" gradientUnits="userSpaceOnUse" id="gradient1" spreadMethod="pad" x1="-819.2" x2="819.2">
      <stop offset="0.0" stop-color="#31552b" stop-opacity="0.8627451"/>
      <stop offset="1.0" stop-color="#41793c" stop-opacity="0.7529412"/>
    </linearGradient>
  </defs>
</svg>
