<?xml version="1.0" encoding="UTF-8" standalone="no"?>
<svg xmlns:xlink="http://www.w3.org/1999/xlink" height="166.2px" width="245.05px" xmlns="http://www.w3.org/2000/svg">
  <g transform="matrix(1.0, 0.0, 0.0, 1.0, 80.65, 116.1)">
    <path d="M82.1 -102.85 L91.15 -102.2 Q96.75 -101.05 101.9 -102.7 105.4 -98.7 104.1 -94.05 105.4 -98.7 101.9 -102.7 105.9 -104.05 109.65 -107.1 118.1 -114.05 123.25 -115.2 128.5 -116.7 133.6 -112.45 121.1 -114.15 113.55 -102.25 109.75 -96.25 104.1 -94.05 98.55 -91.9 91.25 -93.35 L83.5 -94.35 Q84.5 -98.7 82.1 -102.85 84.5 -98.7 83.5 -94.35 74.65 -94.75 67.15 -91.55 66.55 -95.9 64.1 -99.45 66.55 -95.9 67.15 -91.55 L65.0 -90.55 Q57.25 -86.7 51.4 -79.6 48.55 -76.2 46.2 -72.05 38.8 -59.35 29.6 -51.8 L29.55 -51.8 27.65 -50.2 Q20.55 -51.25 13.75 -50.3 L13.7 -50.3 Q7.85 -49.5 2.15 -47.3 L2.0 -47.75 -1.4 -50.15 -1.6 -50.9 4.4 -52.5 Q10.55 -53.8 15.8 -57.1 25.8 -63.2 38.2 -79.45 41.9 -84.35 45.9 -88.15 54.4 -96.3 64.1 -99.45 L65.85 -100.0 Q74.9 -102.55 82.1 -102.85 M45.9 -88.15 Q47.5 -87.0 48.9 -85.05 50.6 -82.6 51.4 -79.6 50.6 -82.6 48.9 -85.05 47.5 -87.0 45.9 -88.15" fill="url(#gradient0)" fill-rule="evenodd" stroke="none"/>
    <path d="M33.95 1.75 L33.7 2.5 33.4 2.25 33.65 2.0 33.95 1.75" fill="url(#gradient1)" fill-rule="evenodd" stroke="none"/>
    <path d="M-1.6 -50.9 L-1.4 -50.15 2.0 -47.75 2.15 -47.3 Q7.85 -49.5 13.7 -50.3 L13.75 -50.3 Q20.55 -51.25 27.65 -50.2 L31.4 -49.45 10.3 -35.95 10.65 -35.35 24.3 -24.15 24.45 -24.3 Q23.75 -20.3 21.75 -16.75 20.85 -15.1 20.3 -13.4 20.85 -15.1 21.75 -16.75 23.75 -20.3 24.45 -24.3 L24.95 -24.6 26.4 -25.25 28.15 -26.0 28.45 -26.1 29.55 -26.55 30.95 -24.75 31.95 -22.3 32.9 -18.35 32.95 -17.8 33.1 -17.05 34.15 -12.9 34.65 -10.05 34.8 -6.75 34.65 -1.3 34.55 -0.2 Q34.55 0.7 34.1 1.4 L33.95 1.75 33.65 2.0 33.4 2.05 33.4 2.25 33.7 2.5 33.4 4.4 Q33.4 5.0 33.2 5.0 L29.75 5.25 29.35 5.25 28.75 5.2 28.65 5.2 Q27.85 5.55 27.35 6.05 L27.45 5.15 23.8 4.9 22.8 5.1 Q21.15 6.1 18.55 6.5 L18.7 7.25 14.25 12.9 8.3 13.2 Q8.6 11.5 9.05 9.85 L9.4 9.85 Q10.8 10.1 12.05 10.7 13.7 11.5 13.6 9.7 L13.6 8.05 13.6 7.65 Q13.3 3.8 16.75 3.5 L17.45 3.4 Q21.05 2.8 23.1 1.15 L23.4 0.75 23.75 0.1 Q24.25 -0.4 24.45 -1.5 L24.5 -1.85 24.5 -2.6 24.45 -3.6 24.2 -5.05 Q24.1 -5.65 23.45 -5.8 24.1 -5.65 24.2 -5.05 L24.45 -3.6 24.5 -2.6 24.5 -1.85 24.45 -1.5 Q24.25 -0.4 23.75 0.1 L23.4 0.75 23.1 1.15 Q21.05 2.8 17.45 3.4 L16.75 3.5 Q13.3 3.8 13.6 7.65 L13.6 8.05 13.6 9.7 Q13.7 11.5 12.05 10.7 10.8 10.1 9.4 9.85 L9.05 9.85 Q8.6 11.5 8.3 13.2 L6.8 13.4 Q2.45 14.15 -1.5 15.9 L-3.85 17.0 Q-7.35 18.8 -10.6 21.5 L-10.9 21.7 -14.05 24.1 Q-19.35 27.8 -25.35 30.05 L-28.75 31.15 Q-32.6 32.25 -36.75 32.8 -39.55 33.2 -41.8 34.4 -42.55 34.75 -43.25 35.25 L-44.8 36.3 Q-49.95 39.55 -55.45 41.6 L-59.65 43.0 -64.3 44.1 -67.9 44.65 -69.6 44.85 -71.25 44.2 -73.7 43.65 -76.8 42.7 Q-79.15 41.7 -80.05 39.3 L-80.15 38.85 -79.25 33.0 Q-78.1 24.0 -75.8 15.25 L-71.25 16.05 Q-68.05 15.55 -65.4 13.65 L-64.9 13.25 -58.5 7.95 -51.4 1.4 -48.65 -1.35 Q-45.1 -5.05 -43.0 -10.05 -39.9 -17.3 -39.05 -25.05 L-33.25 -29.8 Q-23.05 -38.0 -12.15 -45.6 -7.25 -48.95 -1.65 -50.85 L-1.6 -50.9 M8.6 -40.85 L8.0 -41.25 3.45 -43.15 8.0 -41.25 8.6 -40.85 M7.55 -34.2 L10.3 -35.95 7.55 -34.2 M18.05 -46.1 Q16.8 -48.55 13.8 -49.5 16.8 -48.55 18.05 -46.1 M13.15 -15.1 L13.2 -16.75 Q13.4 -18.45 12.65 -19.7 11.35 -21.9 9.25 -23.15 11.35 -21.9 12.65 -19.7 13.4 -18.45 13.2 -16.75 L13.15 -15.1 M-46.2 5.3 L-49.1 7.0 Q-51.0 8.35 -51.0 9.65 -50.7 12.1 -49.7 12.1 L-46.4 11.4 -43.2 10.65 -34.65 11.95 -26.15 13.2 Q-10.7 13.2 -1.25 0.8 2.15 -3.7 4.15 -9.05 5.8 -13.45 5.8 -16.25 L6.1 -18.7 6.4 -21.2 Q6.4 -30.35 -26.65 -9.35 -34.1 -1.6 -43.9 4.0 L-46.2 5.3 -46.75 4.35 Q-46.9 3.75 -47.25 3.45 -48.1 2.65 -49.1 2.2 L-49.65 1.85 Q-50.2 1.4 -51.4 1.4 -50.2 1.4 -49.65 1.85 L-49.1 2.2 Q-48.1 2.65 -47.25 3.45 -46.9 3.75 -46.75 4.35 L-46.2 5.3 M2.3 -19.35 L2.25 -19.25 2.25 -19.3 2.3 -19.35 M9.1 -9.05 Q10.0 -13.0 9.55 -16.6 L9.4 -17.2 Q8.15 -20.75 6.85 -23.15 8.15 -20.75 9.4 -17.2 L9.55 -16.6 Q10.0 -13.0 9.1 -9.05 M24.45 -19.1 L25.3 -20.75 25.75 -22.3 25.9 -23.35 26.4 -25.25 25.9 -23.35 25.75 -22.3 25.3 -20.75 24.45 -19.1 M-3.6 -33.2 Q-6.6 -36.05 -10.95 -36.8 -6.6 -36.05 -3.6 -33.2 M-36.15 -4.8 Q-36.8 -4.95 -37.05 -5.25 L-39.25 -7.55 -39.9 -7.95 -43.25 -8.1 -39.9 -7.95 -39.25 -7.55 -37.05 -5.25 Q-36.8 -4.95 -36.15 -4.8 M-16.45 17.8 L-18.25 18.1 -18.85 18.25 -22.7 18.4 -25.05 18.15 -32.15 17.25 -32.85 17.15 Q-34.45 16.9 -35.8 16.1 L-36.2 15.95 -37.1 15.6 Q-39.15 14.65 -41.4 14.1 L-43.4 13.35 Q-44.15 12.9 -45.0 12.7 -48.5 11.9 -51.2 12.8 -48.5 11.9 -45.0 12.7 -44.15 12.9 -43.4 13.35 L-41.4 14.1 Q-39.15 14.65 -37.1 15.6 L-36.2 15.95 -35.8 16.1 Q-34.45 16.9 -32.85 17.15 L-32.15 17.25 -25.05 18.15 -22.7 18.4 -18.85 18.25 -18.25 18.1 -16.45 17.8 M-34.7 20.85 Q-35.05 20.4 -36.0 20.2 L-37.65 19.85 -41.3 18.6 -47.05 15.4 -47.7 15.15 -53.2 15.3 -47.7 15.15 -47.05 15.4 -41.3 18.6 -37.65 19.85 -36.0 20.2 Q-35.05 20.4 -34.7 20.85 M-69.9 32.5 Q-70.35 31.65 -70.25 30.85 -70.05 29.5 -69.25 28.25 L-67.45 26.05 Q-65.5 24.1 -67.15 21.9 -67.6 21.3 -68.3 21.0 L-70.0 21.1 Q-71.05 21.6 -71.75 22.6 -72.1 23.15 -72.05 23.6 -72.1 23.15 -71.75 22.6 -71.05 21.6 -70.0 21.1 L-68.3 21.0 Q-67.6 21.3 -67.15 21.9 -65.5 24.1 -67.45 26.05 L-69.25 28.25 Q-70.05 29.5 -70.25 30.85 -70.35 31.65 -69.9 32.5 M-59.25 16.55 L-59.55 16.15 -60.15 15.7 Q-60.15 14.55 -60.95 14.2 -62.3 13.6 -63.95 13.6 L-65.4 13.65 -63.95 13.6 Q-62.3 13.6 -60.95 14.2 -60.15 14.55 -60.15 15.7 L-59.55 16.15 -59.25 16.55 M-54.65 10.3 L-56.15 8.75 Q-56.9 8.1 -58.5 7.95 -56.9 8.1 -56.15 8.75 L-54.65 10.3 M-0.5 -46.3 L2.15 -47.3 -0.5 -46.3" fill="#396b2b" fill-rule="evenodd" stroke="none"/>
    <path d="M31.4 -49.45 Q36.3 -52.3 48.8 -55.35 54.65 -56.8 62.35 -57.85 67.5 -52.95 66.1 -47.35 67.5 -52.95 62.35 -57.85 L82.1 -59.75 85.55 -60.05 Q96.9 -61.5 102.75 -67.4 106.1 -70.75 107.65 -75.5 109.25 -80.3 111.05 -83.8 114.65 -90.9 119.2 -92.85 126.0 -95.8 129.0 -96.65 143.85 -95.15 157.4 -97.55 L163.9 -97.8 Q156.85 -90.85 140.0 -90.9 126.95 -87.4 120.3 -78.7 L119.9 -78.15 Q113.6 -69.6 111.75 -57.35 L111.55 -56.4 111.55 -56.35 Q108.95 -44.85 87.35 -47.3 L86.55 -47.4 Q75.9 -48.5 66.1 -47.35 55.55 -46.1 45.95 -42.2 L45.9 -42.2 44.8 -41.4 Q34.45 -34.45 28.9 -27.05 L28.15 -26.0 26.4 -25.25 24.95 -24.6 24.45 -24.3 24.3 -24.15 10.65 -35.35 10.3 -35.95 31.4 -49.45 M26.4 -25.25 L26.8 -26.0 26.4 -25.25 M24.85 -29.3 Q24.9 -26.75 24.45 -24.3 24.9 -26.75 24.85 -29.3 M86.55 -47.4 Q88.85 -53.95 85.55 -60.05 88.85 -53.95 86.55 -47.4 M111.55 -56.4 Q108.85 -64.25 102.75 -67.4 108.85 -64.25 111.55 -56.4 M119.9 -78.15 Q116.7 -83.5 111.05 -83.8 116.7 -83.5 119.9 -78.15" fill="url(#gradient2)" fill-rule="evenodd" stroke="none"/>
    <path d="M2.3 -19.35 L2.25 -19.3 2.25 -19.25 2.3 -19.35 M-46.2 5.3 L-43.9 4.0 Q-34.1 -1.6 -26.65 -9.35 6.4 -30.35 6.4 -21.2 L6.1 -18.7 5.8 -16.25 Q5.8 -13.45 4.15 -9.05 2.15 -3.7 -1.25 0.8 -10.7 13.2 -26.15 13.2 L-34.65 11.95 -43.2 10.65 -46.4 11.4 -49.7 12.1 Q-50.7 12.1 -51.0 9.65 -51.0 8.35 -49.1 7.0 L-46.2 5.3" fill="#203715" fill-rule="evenodd" stroke="none"/>
    <path d="M-1.5 15.9 L-1.5 16.0 -1.4 16.6 -0.25 20.25 -1.2 19.45 Q-2.95 18.35 -3.85 17.0 L-1.5 15.9 M-10.6 21.5 L-10.6 21.55 -10.1 23.8 -9.95 24.4 Q-9.45 26.65 -8.45 27.7 -10.3 27.35 -11.7 26.2 L-14.05 24.1 -10.9 21.7 -10.6 21.5 M-25.35 30.05 L-25.05 30.7 -24.65 31.35 Q-23.55 32.8 -22.8 34.75 L-23.5 34.6 -24.15 34.35 -24.75 34.05 -25.45 33.9 Q-26.65 33.7 -27.35 32.8 L-28.75 31.15 -25.35 30.05 M-41.8 34.4 L-41.2 36.15 -40.85 36.8 -38.9 39.85 Q-42.2 39.4 -43.8 37.5 L-44.6 36.55 -44.8 36.3 -43.25 35.25 Q-42.55 34.75 -41.8 34.4 M-55.45 41.6 Q-53.95 44.85 -52.3 47.35 L-53.0 47.05 Q-54.4 46.7 -55.6 46.0 L-57.2 45.05 Q-58.6 44.25 -59.65 43.0 L-55.45 41.6 M-64.3 44.1 Q-63.45 46.6 -62.05 48.45 L-61.85 48.85 -61.35 49.6 -61.85 49.45 -62.2 49.25 -62.8 48.95 Q-64.3 48.2 -65.3 47.3 L-65.65 46.95 -67.9 44.65 -64.3 44.1" fill="#af9874" fill-rule="evenodd" stroke="none"/>
    <path d="M101.9 -102.7 Q96.75 -101.05 91.15 -102.2 L82.1 -102.85 Q74.9 -102.55 65.85 -100.0 L64.1 -99.45 Q54.4 -96.3 45.9 -88.15 41.9 -84.35 38.2 -79.45 25.8 -63.2 15.8 -57.1 10.55 -53.8 4.4 -52.5 L-1.6 -50.9 M83.5 -94.35 L91.25 -93.35 Q98.55 -91.9 104.1 -94.05 M101.9 -102.7 Q105.9 -104.05 109.65 -107.1 118.1 -114.05 123.25 -115.2 128.5 -116.7 133.6 -112.45 121.1 -114.15 113.55 -102.25 109.75 -96.25 104.1 -94.05 M67.15 -91.55 Q74.65 -94.75 83.5 -94.35 M2.15 -47.3 Q7.85 -49.5 13.7 -50.3 L13.75 -50.3 Q20.55 -51.25 27.65 -50.2 L29.55 -51.8 29.6 -51.8 Q38.8 -59.35 46.2 -72.05 48.55 -76.2 51.4 -79.6 57.25 -86.7 65.0 -90.55 L67.15 -91.55 M62.35 -57.85 Q54.65 -56.8 48.8 -55.35 36.3 -52.3 31.4 -49.45 L10.3 -35.95 7.55 -34.2 M28.15 -26.0 L28.9 -27.05 Q34.45 -34.45 44.8 -41.4 L45.9 -42.2 45.95 -42.2 Q55.55 -46.1 66.1 -47.35 M62.35 -57.85 L82.1 -59.75 85.55 -60.05 Q96.9 -61.5 102.75 -67.4 106.1 -70.75 107.65 -75.5 109.25 -80.3 111.05 -83.8 114.65 -90.9 119.2 -92.85 126.0 -95.8 129.0 -96.65 143.85 -95.15 157.4 -97.55 L163.9 -97.8 Q156.85 -90.85 140.0 -90.9 126.95 -87.4 120.3 -78.7 L119.9 -78.15 Q113.6 -69.6 111.75 -57.35 L111.55 -56.4 M111.55 -56.35 Q108.95 -44.85 87.35 -47.3 L86.55 -47.4 Q75.9 -48.5 66.1 -47.35 M28.9 -27.05 L29.55 -26.55 30.95 -24.75 31.95 -22.3 32.9 -18.35 32.95 -17.8 33.1 -17.05 34.15 -12.9 34.65 -10.05 34.8 -6.75 34.65 -1.3 34.55 -0.2 Q34.55 0.7 34.1 1.4 L33.95 1.75 33.7 2.5 M8.3 13.2 L7.9 14.9 6.8 13.4 Q2.45 14.15 -1.5 15.9 L-1.5 16.0 -1.4 16.6 -0.25 20.25 -1.2 19.45 Q-2.95 18.35 -3.85 17.0 -7.35 18.8 -10.6 21.5 L-10.6 21.55 -10.1 23.8 -9.95 24.4 Q-9.45 26.65 -8.45 27.7 -10.3 27.35 -11.7 26.2 L-14.05 24.1 Q-19.35 27.8 -25.35 30.05 L-25.05 30.7 -24.65 31.35 Q-23.55 32.8 -22.8 34.75 L-23.5 34.6 -24.15 34.35 -24.75 34.05 -25.45 33.9 Q-26.65 33.7 -27.35 32.8 L-28.75 31.15 Q-32.6 32.25 -36.75 32.8 -39.55 33.2 -41.8 34.4 L-41.2 36.15 -40.85 36.8 -38.9 39.85 Q-42.2 39.4 -43.8 37.5 L-44.6 36.55 -44.8 36.3 Q-49.95 39.55 -55.45 41.6 -53.95 44.85 -52.3 47.35 L-53.0 47.05 Q-54.4 46.7 -55.6 46.0 L-57.2 45.05 Q-58.6 44.25 -59.65 43.0 L-64.3 44.1 Q-63.45 46.6 -62.05 48.45 L-61.85 48.85 -61.35 49.6 -61.85 49.45 -62.2 49.25 -62.8 48.95 Q-64.3 48.2 -65.3 47.3 L-65.65 46.95 -67.9 44.65 -69.6 44.85 -71.25 44.2 -73.7 43.65 -76.8 42.7 Q-79.15 41.7 -80.05 39.3 L-80.15 38.85 -79.25 33.0 Q-78.1 24.0 -75.8 15.25 L-71.25 16.05 Q-68.05 15.55 -65.4 13.65 L-64.9 13.25 -58.5 7.95 -51.4 1.4 -48.65 -1.35 Q-45.1 -5.05 -43.0 -10.05 -39.9 -17.3 -39.05 -25.05 L-33.25 -29.8 Q-23.05 -38.0 -12.15 -45.6 -7.25 -48.95 -1.65 -50.85 L-1.6 -50.9 M29.55 -26.55 L28.45 -26.1 28.15 -26.0 M8.3 13.2 Q8.6 11.5 9.05 9.85 L9.4 9.85 Q10.8 10.1 12.05 10.7 13.7 11.5 13.6 9.7 L13.6 8.05 13.6 7.65 Q13.3 3.8 16.75 3.5 L17.45 3.4 Q21.05 2.8 23.1 1.15 L23.4 0.75 23.75 0.1 Q24.25 -0.4 24.45 -1.5 L24.5 -1.85 24.5 -2.6 24.45 -3.6 24.2 -5.05 Q24.1 -5.65 23.45 -5.8 M31.4 -49.45 L27.65 -50.2 M33.4 2.25 L33.4 2.05 M33.65 2.0 L33.95 1.75 M33.4 2.25 L33.7 2.5 M33.65 2.0 L33.4 2.25 M-10.6 21.5 L-10.9 21.7 -14.05 24.1 M-3.85 17.0 L-1.5 15.9 M-25.35 30.05 L-28.75 31.15 M-67.9 44.65 L-64.3 44.1 M-41.8 34.4 Q-42.55 34.75 -43.25 35.25 L-44.8 36.3 M-59.65 43.0 L-55.45 41.6 M2.15 -47.3 L-0.5 -46.3" fill="none" stroke="#000000" stroke-linecap="round" stroke-linejoin="round" stroke-width="1.0"/>
    <path d="M3.45 -43.15 L8.0 -41.25 8.6 -40.85 M13.8 -49.5 Q16.8 -48.55 18.05 -46.1 M-10.95 -36.8 Q-6.6 -36.05 -3.6 -33.2" fill="none" stroke="#006600" stroke-linecap="round" stroke-linejoin="round" stroke-width="1.0"/>
    <path d="M24.45 -24.3 Q24.9 -26.75 24.85 -29.3 M26.8 -26.0 L26.4 -25.25 25.9 -23.35 25.75 -22.3 25.3 -20.75 24.45 -19.1 M9.25 -23.15 Q11.35 -21.9 12.65 -19.7 13.4 -18.45 13.2 -16.75 L13.15 -15.1 M-46.2 5.3 L-46.75 4.35 Q-46.9 3.75 -47.25 3.45 -48.1 2.65 -49.1 2.2 L-49.65 1.85 Q-50.2 1.4 -51.4 1.4 M6.85 -23.15 Q8.15 -20.75 9.4 -17.2 L9.55 -16.6 Q10.0 -13.0 9.1 -9.05 M24.45 -24.3 Q23.75 -20.3 21.75 -16.75 20.85 -15.1 20.3 -13.4 M-43.25 -8.1 L-39.9 -7.95 -39.25 -7.55 -37.05 -5.25 Q-36.8 -4.95 -36.15 -4.8 M-51.2 12.8 Q-48.5 11.9 -45.0 12.7 -44.15 12.9 -43.4 13.35 L-41.4 14.1 Q-39.15 14.65 -37.1 15.6 L-36.2 15.95 -35.8 16.1 Q-34.45 16.9 -32.85 17.15 L-32.15 17.25 -25.05 18.15 -22.7 18.4 -18.85 18.25 -18.25 18.1 -16.45 17.8 M-53.2 15.3 L-47.7 15.15 -47.05 15.4 -41.3 18.6 -37.65 19.85 -36.0 20.2 Q-35.05 20.4 -34.7 20.85 M-58.5 7.95 Q-56.9 8.1 -56.15 8.75 L-54.65 10.3 M-65.4 13.65 L-63.95 13.6 Q-62.3 13.6 -60.95 14.2 -60.15 14.55 -60.15 15.7 L-59.55 16.15 -59.25 16.55 M-72.05 23.6 Q-72.1 23.15 -71.75 22.6 -71.05 21.6 -70.0 21.1 L-68.3 21.0 Q-67.6 21.3 -67.15 21.9 -65.5 24.1 -67.45 26.05 L-69.25 28.25 Q-70.05 29.5 -70.25 30.85 -70.35 31.65 -69.9 32.5" fill="none" stroke="#194319" stroke-linecap="round" stroke-linejoin="round" stroke-width="1.0"/>
    <path d="M82.1 -102.85 Q84.5 -98.7 83.5 -94.35 M104.1 -94.05 Q105.4 -98.7 101.9 -102.7 M64.1 -99.45 Q66.55 -95.9 67.15 -91.55 M51.4 -79.6 Q50.6 -82.6 48.9 -85.05 47.5 -87.0 45.9 -88.15 M66.1 -47.35 Q67.5 -52.95 62.35 -57.85 M111.55 -56.4 L111.55 -56.35 M111.05 -83.8 Q116.7 -83.5 119.9 -78.15 M102.75 -67.4 Q108.85 -64.25 111.55 -56.4 M85.55 -60.05 Q88.85 -53.95 86.55 -47.4" fill="none" stroke="#918970" stroke-linecap="round" stroke-linejoin="round" stroke-width="1.0"/>
  </g>
  <defs>
    <linearGradient gradientTransform="matrix(0.0202, -0.0172, 0.0298, 0.035, 38.15, -43.05)" gradientUnits="userSpaceOnUse" id="gradient0" spreadMethod="pad" x1="-819.2" x2="819.2">
      <stop offset="0.0" stop-color="#50882d"/>
      <stop offset="1.0" stop-color="#000000"/>
    </linearGradient>
    <linearGradient gradientTransform="matrix(0.0367, 0.0, 0.0, 0.0162, 54.3, -13.65)" gradientUnits="userSpaceOnUse" id="gradient1" spreadMethod="pad" x1="-819.2" x2="819.2">
      <stop offset="0.0" stop-color="#31552b" stop-opacity="0.8627451"/>
      <stop offset="1.0" stop-color="#41793c" stop-opacity="0.7529412"/>
    </linearGradient>
    <linearGradient gradientTransform="matrix(0.0202, -0.0172, 0.0298, 0.035, 38.15, -43.05)" gradientUnits="userSpaceOnUse" id="gradient2" spreadMethod="pad" x1="-819.2" x2="819.2">
      <stop offset="0.0" stop-color="#396b2b"/>
      <stop offset="1.0" stop-color="#000000"/>
    </linearGradient>
  </defs>
</svg>
