<?xml version="1.0" encoding="UTF-8" standalone="no"?>
<svg xmlns:xlink="http://www.w3.org/1999/xlink" height="130.85px" width="252.1px" xmlns="http://www.w3.org/2000/svg">
  <g transform="matrix(1.0, 0.0, 0.0, 1.0, 80.65, 85.5)">
    <path d="M-1.6 -50.9 Q12.05 -54.4 24.0 -62.3 36.3 -70.55 50.55 -74.85 64.2 -78.85 78.4 -77.9 92.25 -76.65 106.2 -77.55 118.75 -77.55 128.5 -85.0 127.4 -79.4 122.5 -76.25 118.0 -73.45 112.6 -73.0 L109.85 -72.95 109.4 -72.55 68.0 -71.05 Q59.2 -70.8 51.35 -66.5 38.75 -59.45 27.65 -50.2 L22.45 -50.4 13.75 -50.0 Q7.85 -49.25 2.15 -47.3 L2.0 -47.75 -1.4 -50.15 -1.6 -50.9 M31.4 -49.45 Q42.75 -56.9 55.85 -60.5 69.25 -64.4 80.6 -63.75 L103.55 -62.2 Q115.1 -61.3 140.05 -61.55 159.45 -65.6 164.7 -69.65 L170.95 -74.5 Q167.75 -67.65 161.75 -63.15 154.95 -57.95 146.85 -55.15 139.8 -52.6 132.3 -52.1 L111.9 -51.5 Q94.0 -52.55 76.2 -50.7 53.65 -48.85 36.3 -34.0 L28.9 -27.05 28.15 -26.0 24.3 -24.15 10.3 -35.95 31.4 -49.45" fill="url(#gradient0)" fill-rule="evenodd" stroke="none"/>
    <path d="M27.65 -50.2 L31.4 -49.45 10.3 -35.95 7.55 -34.2 10.3 -35.95 24.3 -24.15 28.15 -26.0 28.45 -26.1 29.55 -26.55 30.95 -24.75 31.95 -22.3 32.9 -18.35 32.95 -17.8 33.1 -17.05 34.15 -12.9 34.65 -10.05 34.8 -6.75 34.65 -1.3 34.55 -0.2 Q34.55 0.7 34.1 1.4 L33.95 1.75 33.65 2.0 33.4 2.05 33.4 2.25 33.7 2.5 33.4 4.4 Q33.4 5.0 33.2 5.0 L29.75 5.25 29.35 5.25 28.75 5.2 28.65 5.2 Q27.85 5.55 27.35 6.05 L27.45 5.15 23.8 4.9 22.8 5.1 Q21.15 6.1 18.55 6.5 L18.7 7.25 14.25 12.9 6.8 13.4 Q-2.85 15.05 -10.9 21.7 -22.05 30.85 -36.75 32.8 -40.45 33.3 -43.25 35.25 -55.35 43.45 -69.6 44.85 L-71.25 44.2 -73.7 43.65 -76.8 42.7 Q-79.15 41.7 -80.05 39.3 L-80.15 38.85 -79.25 33.0 Q-78.1 24.0 -75.8 15.25 L-71.25 16.05 Q-67.75 15.5 -64.9 13.25 -56.3 6.45 -48.65 -1.35 -45.1 -5.05 -43.0 -10.05 -39.9 -17.3 -39.05 -25.05 L-33.25 -29.8 Q-23.05 -38.0 -12.15 -45.6 -7.25 -48.95 -1.65 -50.85 L-1.6 -50.9 -1.4 -50.15 2.0 -47.75 2.15 -47.3 Q7.85 -49.25 13.75 -50.0 L22.45 -50.4 27.65 -50.2 M18.05 -46.1 Q16.8 -48.55 13.75 -50.0 16.8 -48.55 18.05 -46.1 M8.6 -40.85 L8.0 -41.25 3.45 -43.15 8.0 -41.25 8.6 -40.85 M1.5 4.5 L0.95 2.55 0.65 1.45 0.4 -0.5 Q0.0 -3.9 -1.2 -6.4 L-2.8 -10.1 Q-3.6 -12.4 -5.1 -14.4 L-6.5 -16.0 -5.1 -14.4 Q-3.6 -12.4 -2.8 -10.1 L-1.2 -6.4 Q0.0 -3.9 0.4 -0.5 L0.65 1.45 0.95 2.55 1.5 4.5 M-69.9 32.5 Q-70.35 31.65 -70.25 30.85 -70.05 29.5 -69.25 28.25 L-67.45 26.05 Q-65.5 24.1 -67.15 21.9 -67.6 21.3 -68.3 21.0 L-70.0 21.1 Q-71.05 21.6 -71.75 22.6 -72.1 23.15 -72.05 23.6 -72.1 23.15 -71.75 22.6 -71.05 21.6 -70.0 21.1 L-68.3 21.0 Q-67.6 21.3 -67.15 21.9 -65.5 24.1 -67.45 26.05 L-69.25 28.25 Q-70.05 29.5 -70.25 30.85 -70.35 31.65 -69.9 32.5 M-18.5 19.5 L-18.85 20.05 -19.15 20.95 -19.3 21.55 -19.65 22.95 -20.35 25.05 -21.0 27.0 -20.35 25.05 -19.65 22.95 -19.3 21.55 -19.15 20.95 -18.85 20.05 -18.5 19.5 M-3.0 6.5 Q-3.7 4.95 -3.75 3.0 L-3.85 2.45 -4.1 1.5 Q-4.5 -0.75 -5.5 -2.5 -7.75 -6.15 -10.15 -8.9 -13.15 -12.3 -16.4 -14.65 -17.75 -15.65 -18.65 -17.95 -19.3 -19.6 -19.6 -21.5 L-19.9 -23.0 Q-20.25 -25.15 -21.0 -27.5 -20.25 -25.15 -19.9 -23.0 L-19.6 -21.5 Q-19.3 -19.6 -18.65 -17.95 -17.75 -15.65 -16.4 -14.65 -13.15 -12.3 -10.15 -8.9 -7.75 -6.15 -5.5 -2.5 -4.5 -0.75 -4.1 1.5 L-3.85 2.45 -3.75 3.0 Q-3.7 4.95 -3.0 6.5 M-3.6 -33.2 Q-6.6 -36.05 -10.95 -36.8 -6.6 -36.05 -3.6 -33.2 M-0.5 -46.3 L2.15 -47.3 -0.5 -46.3" fill="#50882d" fill-rule="evenodd" stroke="none"/>
    <path d="M33.95 1.75 L33.7 2.5 33.4 2.25 33.65 2.0 33.95 1.75" fill="url(#gradient1)" fill-rule="evenodd" stroke="none"/>
    <path d="M-1.6 -50.9 Q12.05 -54.4 24.0 -62.3 36.3 -70.55 50.55 -74.85 64.2 -78.85 78.4 -77.9 92.25 -76.65 106.2 -77.55 118.75 -77.55 128.5 -85.0 127.4 -79.4 122.5 -76.25 118.0 -73.45 112.6 -73.0 L109.85 -72.95 109.4 -72.55 68.0 -71.05 Q59.2 -70.8 51.35 -66.5 38.75 -59.45 27.65 -50.2 L31.4 -49.45 Q42.75 -56.9 55.85 -60.5 69.25 -64.4 80.6 -63.75 L103.55 -62.2 Q115.1 -61.3 140.05 -61.55 159.45 -65.6 164.7 -69.65 L170.95 -74.5 Q167.75 -67.65 161.75 -63.15 154.95 -57.95 146.85 -55.15 139.8 -52.6 132.3 -52.1 L111.9 -51.5 Q94.0 -52.55 76.2 -50.7 53.65 -48.85 36.3 -34.0 L28.9 -27.05 29.55 -26.55 30.95 -24.75 31.95 -22.3 32.9 -18.35 32.95 -17.8 33.1 -17.05 34.15 -12.9 34.65 -10.05 34.8 -6.75 34.65 -1.3 34.55 -0.2 Q34.55 0.7 34.1 1.4 L33.95 1.75 33.7 2.5 M6.8 13.4 L8.1 15.15 M27.65 -50.2 L22.45 -50.4 13.75 -50.0 M28.9 -27.05 L28.15 -26.0 28.45 -26.1 29.55 -26.55 M10.3 -35.95 L7.55 -34.2 M2.15 -47.3 Q7.85 -49.25 13.75 -50.0 M31.4 -49.45 L10.3 -35.95 M33.4 2.05 L33.4 2.25 33.65 2.0 M33.4 2.25 L33.7 2.5 M33.95 1.75 L33.65 2.0 M6.8 13.4 Q-2.85 15.05 -10.9 21.7 -22.05 30.85 -36.75 32.8 -40.45 33.3 -43.25 35.25 -55.35 43.45 -69.6 44.85 L-71.25 44.2 -73.7 43.65 -76.8 42.7 Q-79.15 41.7 -80.05 39.3 L-80.15 38.85 -79.25 33.0 Q-78.1 24.0 -75.8 15.25 L-71.25 16.05 Q-67.75 15.5 -64.9 13.25 -56.3 6.45 -48.65 -1.35 -45.1 -5.05 -43.0 -10.05 -39.9 -17.3 -39.05 -25.05 L-33.25 -29.8 Q-23.05 -38.0 -12.15 -45.6 -7.25 -48.95 -1.65 -50.85 L-1.6 -50.9 M2.15 -47.3 L-0.5 -46.3" fill="none" stroke="#000000" stroke-linecap="round" stroke-linejoin="round" stroke-width="1.0"/>
    <path d="M13.75 -50.0 Q16.8 -48.55 18.05 -46.1 M3.45 -43.15 L8.0 -41.25 8.6 -40.85 M-6.5 -16.0 L-5.1 -14.4 Q-3.6 -12.4 -2.8 -10.1 L-1.2 -6.4 Q0.0 -3.9 0.4 -0.5 L0.65 1.45 0.95 2.55 1.5 4.5 M-10.95 -36.8 Q-6.6 -36.05 -3.6 -33.2 M-21.0 -27.5 Q-20.25 -25.15 -19.9 -23.0 L-19.6 -21.5 Q-19.3 -19.6 -18.65 -17.95 -17.75 -15.65 -16.4 -14.65 -13.15 -12.3 -10.15 -8.9 -7.75 -6.15 -5.5 -2.5 -4.5 -0.75 -4.1 1.5 L-3.85 2.45 -3.75 3.0 Q-3.7 4.95 -3.0 6.5 M-21.0 27.0 L-20.35 25.05 -19.65 22.95 -19.3 21.55 -19.15 20.95 -18.85 20.05 -18.5 19.5 M-72.05 23.6 Q-72.1 23.15 -71.75 22.6 -71.05 21.6 -70.0 21.1 L-68.3 21.0 Q-67.6 21.3 -67.15 21.9 -65.5 24.1 -67.45 26.05 L-69.25 28.25 Q-70.05 29.5 -70.25 30.85 -70.35 31.65 -69.9 32.5" fill="none" stroke="#006600" stroke-linecap="round" stroke-linejoin="round" stroke-width="1.0"/>
  </g>
  <defs>
    <linearGradient gradientTransform="matrix(0.0202, -0.0172, 0.0298, 0.035, 38.15, -43.05)" gradientUnits="userSpaceOnUse" id="gradient0" spreadMethod="pad" x1="-819.2" x2="819.2">
      <stop offset="0.0" stop-color="#50882d"/>
      <stop offset="1.0" stop-color="#000000"/>
    </linearGradient>
    <linearGradient gradientTransform="matrix(0.0367, 0.0, 0.0, 0.0162, 54.3, -13.65)" gradientUnits="userSpaceOnUse" id="gradient1" spreadMethod="pad" x1="-819.2" x2="819.2">
      <stop offset="0.0" stop-color="#31552b" stop-opacity="0.8627451"/>
      <stop offset="1.0" stop-color="#41793c" stop-opacity="0.7529412"/>
    </linearGradient>
  </defs>
</svg>
