<?xml version="1.0" encoding="UTF-8" standalone="no"?>
<svg xmlns:xlink="http://www.w3.org/1999/xlink" height="161.45px" width="244.2px" xmlns="http://www.w3.org/2000/svg">
  <g transform="matrix(1.0, 0.0, 0.0, 1.0, 80.65, 116.1)">
    <path d="M-1.6 -50.9 L4.4 -52.5 Q10.55 -53.8 15.8 -57.1 25.8 -63.2 35.65 -69.6 53.8 -81.25 72.65 -91.95 L92.1 -102.95 Q101.6 -108.3 109.85 -111.2 118.1 -114.1 123.25 -115.2 128.5 -116.7 133.6 -112.45 125.7 -109.65 118.1 -106.05 105.95 -100.15 94.05 -93.85 81.8 -87.25 69.7 -80.25 58.7 -73.85 48.4 -66.35 38.8 -59.35 29.6 -51.8 L29.55 -51.8 27.65 -50.2 Q20.55 -51.25 13.75 -50.3 L13.7 -50.3 Q7.85 -49.5 2.15 -47.3 L2.0 -47.75 -1.4 -50.15 -1.6 -50.9 M31.4 -49.45 L39.35 -54.0 41.25 -55.05 71.1 -71.6 94.95 -84.6 Q106.35 -90.65 116.2 -93.2 126.0 -95.8 131.6 -97.7 145.45 -99.65 159.75 -99.65 L163.05 -96.55 140.0 -90.9 Q126.95 -87.4 114.5 -81.9 103.35 -76.95 92.55 -70.8 81.0 -64.2 69.45 -57.3 57.4 -50.15 45.95 -42.2 L45.9 -42.2 44.8 -41.4 Q34.45 -34.45 28.9 -27.05 L28.15 -26.0 24.95 -24.6 24.3 -24.15 10.65 -35.35 10.3 -35.95 31.4 -49.45 M31.05 -31.7 L29.6 -34.9 Q41.45 -41.4 40.85 -51.65 40.75 -53.1 39.35 -54.0 40.75 -53.1 40.85 -51.65 41.45 -41.4 29.6 -34.9 L31.05 -31.7 M40.4 -61.15 L34.3 -62.65 25.55 -62.3 34.3 -62.65 40.4 -61.15" fill="url(#gradient0)" fill-rule="evenodd" stroke="none"/>
    <path d="M-1.6 -50.9 L-1.4 -50.15 2.0 -47.75 2.15 -47.3 Q7.85 -49.5 13.7 -50.3 L13.75 -50.3 Q20.55 -51.25 27.65 -50.2 L31.4 -49.45 10.3 -35.95 7.55 -34.2 10.3 -35.95 10.65 -35.35 24.3 -24.15 24.95 -24.6 28.15 -26.0 28.45 -26.1 29.55 -26.55 30.95 -24.75 31.95 -22.3 32.9 -18.35 32.95 -17.8 33.1 -17.05 34.15 -12.9 34.65 -10.05 34.8 -6.75 34.65 -1.3 34.55 -0.2 Q34.55 0.7 34.1 1.4 L33.95 1.75 33.65 2.0 33.4 2.05 33.4 2.25 33.7 2.5 33.4 4.4 Q33.4 5.0 33.2 5.0 L29.75 5.25 29.35 5.25 28.75 5.2 28.65 5.2 Q27.85 5.55 27.35 6.05 L27.45 5.15 23.8 4.9 22.8 5.1 Q21.15 6.1 18.55 6.5 L18.7 7.25 14.25 12.9 6.8 13.4 Q-2.85 15.05 -10.9 21.7 -22.05 30.85 -36.75 32.8 -40.45 33.3 -43.25 35.25 -55.35 43.45 -69.6 44.85 L-71.25 44.2 -73.7 43.65 -76.8 42.7 Q-79.15 41.7 -80.05 39.3 L-80.15 38.85 -79.25 33.0 Q-78.1 24.0 -75.8 15.25 L-71.25 16.05 Q-67.75 15.5 -64.9 13.25 -56.3 6.45 -48.65 -1.35 -45.1 -5.05 -43.0 -10.05 -39.9 -17.3 -39.05 -25.05 L-33.25 -29.8 Q-23.05 -38.0 -12.15 -45.6 -7.25 -48.95 -1.65 -50.85 L-1.6 -50.9 M8.6 -40.85 L8.0 -41.25 3.45 -43.15 8.0 -41.25 8.6 -40.85 M18.05 -46.1 Q16.8 -48.55 13.8 -49.5 16.8 -48.55 18.05 -46.1 M-69.9 32.5 Q-70.35 31.65 -70.25 30.85 -70.05 29.5 -69.25 28.25 L-67.45 26.05 Q-65.5 24.1 -67.15 21.9 -67.6 21.3 -68.3 21.0 L-70.0 21.1 Q-71.05 21.6 -71.75 22.6 -72.1 23.15 -72.05 23.6 -72.1 23.15 -71.75 22.6 -71.05 21.6 -70.0 21.1 L-68.3 21.0 Q-67.6 21.3 -67.15 21.9 -65.5 24.1 -67.45 26.05 L-69.25 28.25 Q-70.05 29.5 -70.25 30.85 -70.35 31.65 -69.9 32.5 M-3.6 -33.2 Q-6.6 -36.05 -10.95 -36.8 -6.6 -36.05 -3.6 -33.2 M-0.5 -46.3 L2.15 -47.3 -0.5 -46.3" fill="#50882d" fill-rule="evenodd" stroke="none"/>
    <path d="M33.95 1.75 L33.7 2.5 33.4 2.25 33.65 2.0 33.95 1.75" fill="url(#gradient1)" fill-rule="evenodd" stroke="none"/>
    <path d="M27.65 -50.2 L29.55 -51.8 29.6 -51.8 Q38.8 -59.35 48.4 -66.35 58.7 -73.85 69.7 -80.25 81.8 -87.25 94.05 -93.85 105.95 -100.15 118.1 -106.05 125.7 -109.65 133.6 -112.45 128.5 -116.7 123.25 -115.2 118.1 -114.1 109.85 -111.2 101.6 -108.3 92.1 -102.95 L72.65 -91.95 Q53.8 -81.25 35.65 -69.6 25.8 -63.2 15.8 -57.1 10.55 -53.8 4.4 -52.5 L-1.6 -50.9 -1.65 -50.85 Q-7.25 -48.95 -12.15 -45.6 -23.05 -38.0 -33.25 -29.8 L-39.05 -25.05 Q-39.9 -17.3 -43.0 -10.05 -45.1 -5.05 -48.65 -1.35 -56.3 6.45 -64.9 13.25 -67.75 15.5 -71.25 16.05 L-75.8 15.25 Q-78.1 24.0 -79.25 33.0 L-80.15 38.85 -80.05 39.3 Q-79.15 41.7 -76.8 42.7 L-73.7 43.65 -71.25 44.2 -69.6 44.85 Q-55.35 43.45 -43.25 35.25 -40.45 33.3 -36.75 32.8 -22.05 30.85 -10.9 21.7 -2.85 15.05 6.8 13.4 L8.1 15.15 8.4 15.45 M2.15 -47.3 Q7.85 -49.5 13.7 -50.3 L13.75 -50.3 Q20.55 -51.25 27.65 -50.2 L31.4 -49.45 39.35 -54.0 41.25 -55.05 71.1 -71.6 94.95 -84.6 Q106.35 -90.65 116.2 -93.2 126.0 -95.8 131.6 -97.7 145.45 -99.65 159.75 -99.65 L163.05 -96.55 140.0 -90.9 Q126.95 -87.4 114.5 -81.9 103.35 -76.95 92.55 -70.8 81.0 -64.2 69.45 -57.3 57.4 -50.15 45.95 -42.2 L45.9 -42.2 44.8 -41.4 Q34.45 -34.45 28.9 -27.05 L29.55 -26.55 30.95 -24.75 31.95 -22.3 32.9 -18.35 32.95 -17.8 33.1 -17.05 34.15 -12.9 34.65 -10.05 34.8 -6.75 34.65 -1.3 34.55 -0.2 Q34.55 0.7 34.1 1.4 L33.95 1.75 33.7 2.5 M28.9 -27.05 L28.15 -26.0 28.45 -26.1 29.55 -26.55 M10.3 -35.95 L7.55 -34.2 M10.3 -35.95 L31.4 -49.45 M33.4 2.05 L33.4 2.25 33.65 2.0 M33.4 2.25 L33.7 2.5 M33.95 1.75 L33.65 2.0 M2.15 -47.3 L-0.5 -46.3" fill="none" stroke="#000000" stroke-linecap="round" stroke-linejoin="round" stroke-width="1.0"/>
    <path d="M13.8 -49.5 Q16.8 -48.55 18.05 -46.1 M3.45 -43.15 L8.0 -41.25 8.6 -40.85 M-10.95 -36.8 Q-6.6 -36.05 -3.6 -33.2 M-72.05 23.6 Q-72.1 23.15 -71.75 22.6 -71.05 21.6 -70.0 21.1 L-68.3 21.0 Q-67.6 21.3 -67.15 21.9 -65.5 24.1 -67.45 26.05 L-69.25 28.25 Q-70.05 29.5 -70.25 30.85 -70.35 31.65 -69.9 32.5" fill="none" stroke="#006600" stroke-linecap="round" stroke-linejoin="round" stroke-width="1.0"/>
    <path d="M25.55 -62.3 L34.3 -62.65 40.4 -61.15 M39.35 -54.0 Q40.75 -53.1 40.85 -51.65 41.45 -41.4 29.6 -34.9 L31.05 -31.7" fill="none" stroke="#9900ff" stroke-linecap="round" stroke-linejoin="round" stroke-width="0.05"/>
  </g>
  <defs>
    <linearGradient gradientTransform="matrix(0.0202, -0.0172, 0.0298, 0.035, 38.15, -43.05)" gradientUnits="userSpaceOnUse" id="gradient0" spreadMethod="pad" x1="-819.2" x2="819.2">
      <stop offset="0.0" stop-color="#50882d"/>
      <stop offset="1.0" stop-color="#000000"/>
    </linearGradient>
    <linearGradient gradientTransform="matrix(0.0367, 0.0, 0.0, 0.0162, 54.3, -13.65)" gradientUnits="userSpaceOnUse" id="gradient1" spreadMethod="pad" x1="-819.2" x2="819.2">
      <stop offset="0.0" stop-color="#31552b" stop-opacity="0.8627451"/>
      <stop offset="1.0" stop-color="#41793c" stop-opacity="0.7529412"/>
    </linearGradient>
  </defs>
</svg>
